<?xml version="1.0" encoding="utf-8"?>
<!DOCTYPE svg
  PUBLIC '-//W3C//DTD SVG 1.0//EN'
  'http://www.w3.org/TR/2001/REC-SVG-20010904/DTD/svg10.dtd'>
<svg fill-rule="evenodd" height="708.6614173228346" preserveAspectRatio="xMinYMin meet" version="1.0" viewBox="0 0 1417 708" width="1417.3228346456692" xmlns="http://www.w3.org/2000/svg" xmlns:xlink="http://www.w3.org/1999/xlink">
	<title>...</title>
	<desc>...</desc>
	<clipPath id="clip">
		<rect height="708.6614173228346" width="1417.3228346456692" x="0" y="0"/>
	</clipPath>
	<g id="group" style="clip-path: url(#clip)" transform="scale(1,-1) translate(0,-708)">
		<g transform="">
			<polygon points="70.86614 169.8256, 1346.398 169.8256, 1346.398 251.8279, 70.86614 251.8279" style="stroke: rgb(96%,96%,96%); stroke-linecap: butt; stroke-width: 1; fill: rgb(96%,96%,96%); fill-rule: evenodd;"/>
			<polygon points="70.86614 456.8335, 648.0966 456.8335, 648.0966 538.8358, 70.86614 538.8358" style="stroke: rgb(96%,96%,96%); stroke-linecap: butt; stroke-width: 1; fill: rgb(96%,96%,96%); fill-rule: evenodd;"/>
			<polygon points="79.02757 456.8335, 571.473 456.8335, 292.9862 251.8279, 785.4317 251.8279" style="stroke: rgb(100%,2%,2%); stroke-linecap: round; stroke-width: 1; fill: rgb(100%,2%,2%); fill-rule: evenodd;"/>
			<polygon points="70.86614 241.5776, 122.3993 241.5776, 122.3993 251.8279, 138.7998 231.3273, 122.3993 210.8268, 122.3993 221.0771, 70.86614 221.0771" style="stroke: rgb(67%,84%,90%); stroke-linecap: round; stroke-width: 1; fill: rgb(67%,84%,90%); fill-rule: evenodd;"/>
			<polygon points="145.4933 241.5776, 155.2799 241.5776, 155.2799 251.8279, 171.6804 231.3273, 155.2799 210.8268, 155.2799 221.0771, 145.4933 221.0771" style="stroke: rgb(67%,84%,90%); stroke-linecap: round; stroke-width: 1; fill: rgb(67%,84%,90%); fill-rule: evenodd;"/>
			<polygon points="220.7664 200.5765, 199.5303 200.5765, 199.5303 210.8268, 183.1299 190.3262, 199.5303 169.8256, 199.5303 180.0759, 220.7664 180.0759" style="stroke: rgb(56%,93%,56%); stroke-linecap: round; stroke-width: 1; fill: rgb(56%,93%,56%); fill-rule: evenodd;"/>
			<polygon points="246.0727 200.5765, 236.9907 200.5765, 236.9907 210.8268, 220.5902 190.3262, 236.9907 169.8256, 236.9907 180.0759, 246.0727 180.0759" style="stroke: rgb(56%,93%,56%); stroke-linecap: round; stroke-width: 1; fill: rgb(56%,93%,56%); fill-rule: evenodd;"/>
			<polygon points="254.1754 241.5776, 260.0868 241.5776, 260.0868 251.8279, 276.4872 231.3273, 260.0868 210.8268, 260.0868 221.0771, 254.1754 221.0771" style="stroke: rgb(67%,84%,90%); stroke-linecap: round; stroke-width: 1; fill: rgb(67%,84%,90%); fill-rule: evenodd;"/>
			<polygon points="282.6523 241.5776, 304.593 241.5776, 304.593 251.8279, 320.9934 231.3273, 304.593 210.8268, 304.593 221.0771, 282.6523 221.0771" style="stroke: rgb(67%,84%,90%); stroke-linecap: round; stroke-width: 1; fill: rgb(67%,84%,90%); fill-rule: evenodd;"/>
			<polygon points="338.4906 241.5776, 377.1651 241.5776, 377.1651 251.8279, 393.5656 231.3273, 377.1651 210.8268, 377.1651 221.0771, 338.4906 221.0771" style="stroke: rgb(67%,84%,90%); stroke-linecap: round; stroke-width: 1; fill: rgb(67%,84%,90%); fill-rule: evenodd;"/>
			<polygon points="394.916 241.5776, 439.2273 241.5776, 439.2273 251.8279, 455.6277 231.3273, 439.2273 210.8268, 439.2273 221.0771, 394.916 221.0771" style="stroke: rgb(67%,84%,90%); stroke-linecap: round; stroke-width: 1; fill: rgb(67%,84%,90%); fill-rule: evenodd;"/>
			<polygon points="461.969 241.5776, 549.9644 241.5776, 549.9644 251.8279, 566.3648 231.3273, 549.9644 210.8268, 549.9644 221.0771, 461.969 221.0771" style="stroke: rgb(67%,84%,90%); stroke-linecap: round; stroke-width: 1; fill: rgb(67%,84%,90%); fill-rule: evenodd;"/>
			<polygon points="567.1868 241.5776, 580.8486 241.5776, 580.8486 251.8279, 597.2491 231.3273, 580.8486 210.8268, 580.8486 221.0771, 567.1868 221.0771" style="stroke: rgb(67%,84%,90%); stroke-linecap: round; stroke-width: 1; fill: rgb(67%,84%,90%); fill-rule: evenodd;"/>
			<polygon points="601.594 241.5776, 640.2685 241.5776, 640.2685 251.8279, 656.669 231.3273, 640.2685 210.8268, 640.2685 221.0771, 601.594 221.0771" style="stroke: rgb(67%,84%,90%); stroke-linecap: round; stroke-width: 1; fill: rgb(67%,84%,90%); fill-rule: evenodd;"/>
			<polygon points="665.0066 241.5776, 668.8042 241.5776, 668.8042 251.8279, 685.2046 231.3273, 668.8042 210.8268, 668.8042 221.0771, 665.0066 221.0771" style="stroke: rgb(67%,84%,90%); stroke-linecap: round; stroke-width: 1; fill: rgb(67%,84%,90%); fill-rule: evenodd;"/>
			<polygon points="693.0725 241.5776, 709.7288 241.5776, 709.7288 251.8279, 726.1292 231.3273, 709.7288 210.8268, 709.7288 221.0771, 693.0725 221.0771" style="stroke: rgb(67%,84%,90%); stroke-linecap: round; stroke-width: 1; fill: rgb(67%,84%,90%); fill-rule: evenodd;"/>
			<polygon points="726.8338 241.5776, 765.8606 241.5776, 765.8606 251.8279, 782.2611 231.3273, 765.8606 210.8268, 765.8606 221.0771, 726.8338 221.0771" style="stroke: rgb(67%,84%,90%); stroke-linecap: round; stroke-width: 1; fill: rgb(67%,84%,90%); fill-rule: evenodd;"/>
			<polygon points="875.09 200.5765, 801.8909 200.5765, 801.8909 210.8268, 785.4904 190.3262, 801.8909 169.8256, 801.8909 180.0759, 875.09 180.0759" style="stroke: rgb(56%,93%,56%); stroke-linecap: round; stroke-width: 1; fill: rgb(56%,93%,56%); fill-rule: evenodd;"/>
			<polygon points="901.6294 241.5776, 963.5552 241.5776, 963.5552 251.8279, 979.9556 231.3273, 963.5552 210.8268, 963.5552 221.0771, 901.6294 221.0771" style="stroke: rgb(67%,84%,90%); stroke-linecap: round; stroke-width: 1; fill: rgb(67%,84%,90%); fill-rule: evenodd;"/>
			<polygon points="1015.596 241.5776, 1026.087 241.5776, 1026.087 251.8279, 1042.487 231.3273, 1026.087 210.8268, 1026.087 221.0771, 1015.596 221.0771" style="stroke: rgb(67%,84%,90%); stroke-linecap: round; stroke-width: 1; fill: rgb(67%,84%,90%); fill-rule: evenodd;"/>
			<polygon points="1042.722 241.5776, 1045.111 241.5776, 1045.111 251.8279, 1061.511 231.3273, 1045.111 210.8268, 1045.111 221.0771, 1042.722 221.0771" style="stroke: rgb(67%,84%,90%); stroke-linecap: round; stroke-width: 1; fill: rgb(67%,84%,90%); fill-rule: evenodd;"/>
			<polygon points="1061.335 241.5776, 1062.843 241.5776, 1062.843 251.8279, 1079.243 231.3273, 1062.843 210.8268, 1062.843 221.0771, 1061.335 221.0771" style="stroke: rgb(67%,84%,90%); stroke-linecap: round; stroke-width: 1; fill: rgb(67%,84%,90%); fill-rule: evenodd;"/>
			<polygon points="1079.067 241.5776, 1079.067 251.8279, 1094.685 231.3273, 1079.067 210.8268, 1079.067 221.0771" style="stroke: rgb(67%,84%,90%); stroke-linecap: round; stroke-width: 1; fill: rgb(67%,84%,90%); fill-rule: evenodd;"/>
			<polygon points="1094.803 241.5776, 1131.54 241.5776, 1131.54 251.8279, 1147.94 231.3273, 1131.54 210.8268, 1131.54 221.0771, 1094.803 221.0771" style="stroke: rgb(67%,84%,90%); stroke-linecap: round; stroke-width: 1; fill: rgb(67%,84%,90%); fill-rule: evenodd;"/>
			<polygon points="1148.058 241.5776, 1153.617 241.5776, 1153.617 251.8279, 1170.017 231.3273, 1153.617 210.8268, 1153.617 221.0771, 1148.058 221.0771" style="stroke: rgb(67%,84%,90%); stroke-linecap: round; stroke-width: 1; fill: rgb(67%,84%,90%); fill-rule: evenodd;"/>
			<polygon points="1169.841 241.5776, 1241.983 241.5776, 1241.983 251.8279, 1258.384 231.3273, 1241.983 210.8268, 1241.983 221.0771, 1169.841 221.0771" style="stroke: rgb(67%,84%,90%); stroke-linecap: round; stroke-width: 1; fill: rgb(67%,84%,90%); fill-rule: evenodd;"/>
			<polygon points="1260.321 241.5776, 1329.998 241.5776, 1329.998 251.8279, 1346.398 231.3273, 1329.998 210.8268, 1329.998 221.0771, 1260.321 221.0771" style="stroke: rgb(67%,84%,90%); stroke-linecap: round; stroke-width: 1; fill: rgb(67%,84%,90%); fill-rule: evenodd;"/>
			<polygon points="137.6255 487.5844, 98.59865 487.5844, 98.59865 497.8346, 82.1982 477.3341, 98.59865 456.8335, 98.59865 467.0838, 137.6255 467.0838" style="stroke: rgb(56%,93%,56%); stroke-linecap: round; stroke-width: 1; fill: rgb(56%,93%,56%); fill-rule: evenodd;"/>
			<polygon points="171.3868 487.5844, 154.7305 487.5844, 154.7305 497.8346, 138.3301 477.3341, 154.7305 456.8335, 154.7305 467.0838, 171.3868 467.0838" style="stroke: rgb(56%,93%,56%); stroke-linecap: round; stroke-width: 1; fill: rgb(56%,93%,56%); fill-rule: evenodd;"/>
			<polygon points="199.4527 487.5844, 195.6551 487.5844, 195.6551 497.8346, 179.2546 477.3341, 195.6551 456.8335, 195.6551 467.0838, 199.4527 467.0838" style="stroke: rgb(56%,93%,56%); stroke-linecap: round; stroke-width: 1; fill: rgb(56%,93%,56%); fill-rule: evenodd;"/>
			<polygon points="262.8653 487.5844, 224.1907 487.5844, 224.1907 497.8346, 207.7903 477.3341, 224.1907 456.8335, 224.1907 467.0838, 262.8653 467.0838" style="stroke: rgb(56%,93%,56%); stroke-linecap: round; stroke-width: 1; fill: rgb(56%,93%,56%); fill-rule: evenodd;"/>
			<polygon points="297.2725 487.5844, 283.6107 487.5844, 283.6107 497.8346, 267.2102 477.3341, 283.6107 456.8335, 283.6107 467.0838, 297.2725 467.0838" style="stroke: rgb(56%,93%,56%); stroke-linecap: round; stroke-width: 1; fill: rgb(56%,93%,56%); fill-rule: evenodd;"/>
			<polygon points="402.4903 487.5844, 314.4949 487.5844, 314.4949 497.8346, 298.0945 477.3341, 314.4949 456.8335, 314.4949 467.0838, 402.4903 467.0838" style="stroke: rgb(56%,93%,56%); stroke-linecap: round; stroke-width: 1; fill: rgb(56%,93%,56%); fill-rule: evenodd;"/>
			<polygon points="469.5432 487.5844, 425.232 487.5844, 425.232 497.8346, 408.8316 477.3341, 425.232 456.8335, 425.232 467.0838, 469.5432 467.0838" style="stroke: rgb(56%,93%,56%); stroke-linecap: round; stroke-width: 1; fill: rgb(56%,93%,56%); fill-rule: evenodd;"/>
			<polygon points="525.9687 487.5844, 487.2941 487.5844, 487.2941 497.8346, 470.8937 477.3341, 487.2941 456.8335, 487.2941 467.0838, 525.9687 467.0838" style="stroke: rgb(56%,93%,56%); stroke-linecap: round; stroke-width: 1; fill: rgb(56%,93%,56%); fill-rule: evenodd;"/>
			<polygon points="572.8235 487.5844, 559.8663 487.5844, 559.8663 497.8346, 543.4658 477.3341, 559.8663 456.8335, 559.8663 467.0838, 572.8235 467.0838" style="stroke: rgb(56%,93%,56%); stroke-linecap: round; stroke-width: 1; fill: rgb(56%,93%,56%); fill-rule: evenodd;"/>
			<path d="M 1346.397978,169.825647 L 1346.397978,251.827897 Z" style="stroke: rgb(0%,0%,0%); stroke-linecap: butt; stroke-width: 1;"/>
			<path d="M 70.866142,210.826772 L 1346.397978,210.826772 Z" style="stroke: rgb(0%,0%,0%); stroke-linecap: butt; stroke-width: 1;"/>
			<path d="M 70.866142,169.825647 L 70.866142,251.827897 Z" style="stroke: rgb(0%,0%,0%); stroke-linecap: butt; stroke-width: 1;"/>
			<path d="M 658.019445,210.826772 L 658.019445,231.327334 Z" style="stroke: rgb(0%,0%,0%); stroke-linecap: butt; stroke-width: 1;"/>
			<path d="M 1245.172748,210.826772 L 1245.172748,231.327334 Z" style="stroke: rgb(0%,0%,0%); stroke-linecap: butt; stroke-width: 1;"/>
			<path d="M 658.019445,210.826772 L 658.019445,223.127109 Z" style="stroke: rgb(0%,0%,0%); stroke-linecap: butt; stroke-width: 1;"/>
			<path d="M 1245.172748,210.826772 L 1245.172748,223.127109 Z" style="stroke: rgb(0%,0%,0%); stroke-linecap: butt; stroke-width: 1;"/>
			<path d="M 648.096554,456.833521 L 648.096554,538.835771 Z" style="stroke: rgb(0%,0%,0%); stroke-linecap: butt; stroke-width: 1;"/>
			<path d="M 70.866142,497.834646 L 648.096554,497.834646 Z" style="stroke: rgb(0%,0%,0%); stroke-linecap: butt; stroke-width: 1;"/>
			<path d="M 70.866142,456.833521 L 70.866142,538.835771 Z" style="stroke: rgb(0%,0%,0%); stroke-linecap: butt; stroke-width: 1;"/>
			<g transform=" matrix(0.707107,0.707107,-0.707107,0.707107,658.019445,231.327334)">
				<text style="font-family: Helvetica; font-size: 6px;fill: rgb(0%,0%,0%); stroke:none;" transform="translate(0,0) scale(1,-1)" x="0" y="0">10000</text>
			</g>
			<g transform=" matrix(0.707107,0.707107,-0.707107,0.707107,1245.172748,231.327334)">
				<text style="font-family: Helvetica; font-size: 6px;fill: rgb(0%,0%,0%); stroke:none;" transform="translate(0,0) scale(1,-1)" x="0" y="0">20000</text>
			</g>
			<g transform=" matrix(0.707107,0.707107,-0.707107,0.707107,104.83296,251.827897)">
				<text style="font-family: Helvetica; font-size: 10px;fill: rgb(0%,0%,0%); stroke:none;" transform="translate(0,0) scale(1,-1)" x="0" y="0">Gene_00196</text>
			</g>
			<g transform=" matrix(0.707107,0.707107,-0.707107,0.707107,158.586845,251.827897)">
				<text style="font-family: Helvetica; font-size: 10px;fill: rgb(0%,0%,0%); stroke:none;" transform="translate(0,0) scale(1,-1)" x="0" y="0">Gene_00197</text>
			</g>
			<g transform=" matrix(0.707107,-0.707107,0.707107,0.707107,201.948117,169.825647)">
				<text style="font-family: Helvetica; font-size: 10px;fill: rgb(0%,0%,0%); stroke:none;" transform="translate(0,0) scale(1,-1)" x="0" y="0">Gene_00198</text>
			</g>
			<g transform=" matrix(0.707107,-0.707107,0.707107,0.707107,233.331461,169.825647)">
				<text style="font-family: Helvetica; font-size: 10px;fill: rgb(0%,0%,0%); stroke:none;" transform="translate(0,0) scale(1,-1)" x="0" y="0">Gene_00199</text>
			</g>
			<g transform=" matrix(0.707107,0.707107,-0.707107,0.707107,265.331316,251.827897)">
				<text style="font-family: Helvetica; font-size: 10px;fill: rgb(0%,0%,0%); stroke:none;" transform="translate(0,0) scale(1,-1)" x="0" y="0">Gene_00200</text>
			</g>
			<g transform=" matrix(0.707107,0.707107,-0.707107,0.707107,301.822894,251.827897)">
				<text style="font-family: Helvetica; font-size: 10px;fill: rgb(0%,0%,0%); stroke:none;" transform="translate(0,0) scale(1,-1)" x="0" y="0">Gene_00201</text>
			</g>
			<g transform=" matrix(0.707107,0.707107,-0.707107,0.707107,366.028107,251.827897)">
				<text style="font-family: Helvetica; font-size: 10px;fill: rgb(0%,0%,0%); stroke:none;" transform="translate(0,0) scale(1,-1)" x="0" y="0">Gene_00202</text>
			</g>
			<g transform=" matrix(0.707107,0.707107,-0.707107,0.707107,425.271876,251.827897)">
				<text style="font-family: Helvetica; font-size: 10px;fill: rgb(0%,0%,0%); stroke:none;" transform="translate(0,0) scale(1,-1)" x="0" y="0">Gene_00203</text>
			</g>
			<g transform=" matrix(0.707107,0.707107,-0.707107,0.707107,514.166886,251.827897)">
				<text style="font-family: Helvetica; font-size: 10px;fill: rgb(0%,0%,0%); stroke:none;" transform="translate(0,0) scale(1,-1)" x="0" y="0">Gene_00204</text>
			</g>
			<g transform=" matrix(0.707107,0.707107,-0.707107,0.707107,582.217953,251.827897)">
				<text style="font-family: Helvetica; font-size: 10px;fill: rgb(0%,0%,0%); stroke:none;" transform="translate(0,0) scale(1,-1)" x="0" y="0">Gene_00205</text>
			</g>
			<g transform=" matrix(0.707107,0.707107,-0.707107,0.707107,629.131502,251.827897)">
				<text style="font-family: Helvetica; font-size: 10px;fill: rgb(0%,0%,0%); stroke:none;" transform="translate(0,0) scale(1,-1)" x="0" y="0">Gene_00206</text>
			</g>
			<g transform=" matrix(0.707107,0.707107,-0.707107,0.707107,675.105606,251.827897)">
				<text style="font-family: Helvetica; font-size: 16px;fill: rgb(0%,0%,100%); stroke:none;" transform="translate(0,0) scale(1,-1)" x="0" y="0">Gene_00207 (100.0)</text>
			</g>
			<g transform=" matrix(0.707107,0.707107,-0.707107,0.707107,709.600863,251.827897)">
				<text style="font-family: Helvetica; font-size: 10px;fill: rgb(0%,0%,0%); stroke:none;" transform="translate(0,0) scale(1,-1)" x="0" y="0">Gene_00208</text>
			</g>
			<g transform=" matrix(0.707107,0.707107,-0.707107,0.707107,754.547448,251.827897)">
				<text style="font-family: Helvetica; font-size: 10px;fill: rgb(0%,0%,0%); stroke:none;" transform="translate(0,0) scale(1,-1)" x="0" y="0">Gene_00209</text>
			</g>
			<g transform=" matrix(0.707107,-0.707107,0.707107,0.707107,830.290224,169.825647)">
				<text style="font-family: Helvetica; font-size: 10px;fill: rgb(0%,0%,0%); stroke:none;" transform="translate(0,0) scale(1,-1)" x="0" y="0">Gene_00210</text>
			</g>
			<g transform=" matrix(0.707107,0.707107,-0.707107,0.707107,940.792476,251.827897)">
				<text style="font-family: Helvetica; font-size: 10px;fill: rgb(0%,0%,0%); stroke:none;" transform="translate(0,0) scale(1,-1)" x="0" y="0">Gene_00211</text>
			</g>
			<g transform=" matrix(0.707107,0.707107,-0.707107,0.707107,1029.041617,251.827897)">
				<text style="font-family: Helvetica; font-size: 10px;fill: rgb(0%,0%,0%); stroke:none;" transform="translate(0,0) scale(1,-1)" x="0" y="0">Gene_00212</text>
			</g>
			<g transform=" matrix(0.707107,0.707107,-0.707107,0.707107,1052.116742,251.827897)">
				<text style="font-family: Helvetica; font-size: 10px;fill: rgb(0%,0%,0%); stroke:none;" transform="translate(0,0) scale(1,-1)" x="0" y="0">Gene_00213</text>
			</g>
			<g transform=" matrix(0.707107,0.707107,-0.707107,0.707107,1070.289137,251.827897)">
				<text style="font-family: Helvetica; font-size: 10px;fill: rgb(0%,0%,0%); stroke:none;" transform="translate(0,0) scale(1,-1)" x="0" y="0">Gene_00214</text>
			</g>
			<g transform=" matrix(0.707107,0.707107,-0.707107,0.707107,1086.876218,251.827897)">
				<text style="font-family: Helvetica; font-size: 10px;fill: rgb(0%,0%,0%); stroke:none;" transform="translate(0,0) scale(1,-1)" x="0" y="0">Gene_00215</text>
			</g>
			<g transform=" matrix(0.707107,0.707107,-0.707107,0.707107,1121.371474,251.827897)">
				<text style="font-family: Helvetica; font-size: 10px;fill: rgb(0%,0%,0%); stroke:none;" transform="translate(0,0) scale(1,-1)" x="0" y="0">Gene_00216</text>
			</g>
			<g transform=" matrix(0.707107,0.707107,-0.707107,0.707107,1159.037359,251.827897)">
				<text style="font-family: Helvetica; font-size: 10px;fill: rgb(0%,0%,0%); stroke:none;" transform="translate(0,0) scale(1,-1)" x="0" y="0">Gene_00217</text>
			</g>
			<g transform=" matrix(0.707107,0.707107,-0.707107,0.707107,1214.112338,251.827897)">
				<text style="font-family: Helvetica; font-size: 10px;fill: rgb(0%,0%,0%); stroke:none;" transform="translate(0,0) scale(1,-1)" x="0" y="0">Gene_00218</text>
			</g>
			<g transform=" matrix(0.707107,0.707107,-0.707107,0.707107,1303.35964,251.827897)">
				<text style="font-family: Helvetica; font-size: 10px;fill: rgb(0%,0%,0%); stroke:none;" transform="translate(0,0) scale(1,-1)" x="0" y="0">Gene_00219</text>
			</g>
			<g transform=" matrix(0.707107,-0.707107,0.707107,0.707107,109.911836,456.833521)">
				<text style="font-family: Helvetica; font-size: 10px;fill: rgb(0%,0%,0%); stroke:none;" transform="translate(0,0) scale(1,-1)" x="0" y="0">Gene_02631</text>
			</g>
			<g transform=" matrix(0.707107,-0.707107,0.707107,0.707107,154.858422,456.833521)">
				<text style="font-family: Helvetica; font-size: 10px;fill: rgb(0%,0%,0%); stroke:none;" transform="translate(0,0) scale(1,-1)" x="0" y="0">Gene_02632</text>
			</g>
			<g transform=" matrix(0.707107,-0.707107,0.707107,0.707107,189.353678,456.833521)">
				<text style="font-family: Helvetica; font-size: 16px;fill: rgb(0%,0%,100%); stroke:none;" transform="translate(0,0) scale(1,-1)" x="0" y="0">Gene_02633 (100.0)</text>
			</g>
			<g transform=" matrix(0.707107,-0.707107,0.707107,0.707107,235.327782,456.833521)">
				<text style="font-family: Helvetica; font-size: 10px;fill: rgb(0%,0%,0%); stroke:none;" transform="translate(0,0) scale(1,-1)" x="0" y="0">Gene_02634</text>
			</g>
			<g transform=" matrix(0.707107,-0.707107,0.707107,0.707107,282.241331,456.833521)">
				<text style="font-family: Helvetica; font-size: 10px;fill: rgb(0%,0%,0%); stroke:none;" transform="translate(0,0) scale(1,-1)" x="0" y="0">Gene_02635</text>
			</g>
			<g transform=" matrix(0.707107,-0.707107,0.707107,0.707107,350.292399,456.833521)">
				<text style="font-family: Helvetica; font-size: 10px;fill: rgb(0%,0%,0%); stroke:none;" transform="translate(0,0) scale(1,-1)" x="0" y="0">Gene_02636</text>
			</g>
			<g transform=" matrix(0.707107,-0.707107,0.707107,0.707107,439.187409,456.833521)">
				<text style="font-family: Helvetica; font-size: 10px;fill: rgb(0%,0%,0%); stroke:none;" transform="translate(0,0) scale(1,-1)" x="0" y="0">Gene_02637</text>
			</g>
			<g transform=" matrix(0.707107,-0.707107,0.707107,0.707107,498.431177,456.833521)">
				<text style="font-family: Helvetica; font-size: 10px;fill: rgb(0%,0%,0%); stroke:none;" transform="translate(0,0) scale(1,-1)" x="0" y="0">Gene_02638</text>
			</g>
			<g transform=" matrix(0.707107,-0.707107,0.707107,0.707107,558.144668,456.833521)">
				<text style="font-family: Helvetica; font-size: 10px;fill: rgb(0%,0%,0%); stroke:none;" transform="translate(0,0) scale(1,-1)" x="0" y="0">Gene_02639</text>
			</g>
			<g transform=" matrix(1,0,-0,1,70,169.825647)">
				<text style="font-family: Helvetica; font-size: 12px;fill: rgb(60%,60%,60%); stroke:none;" transform="translate(0,0) scale(1,-1)" x="0" y="0">megahit_349 (left 33428bp, right 34553bp)</text>
			</g>
			<g transform=" matrix(1,0,-0,1,70,456.833521)">
				<text style="font-family: Helvetica; font-size: 12px;fill: rgb(60%,60%,60%); stroke:none;" transform="translate(0,0) scale(1,-1)" x="0" y="0">megahit_31099 (left 1846bp, right 7641bp)</text>
			</g>
		</g>
	</g>
</svg>
