<?xml version="1.0" encoding="utf-8"?>
<!DOCTYPE svg
  PUBLIC '-//W3C//DTD SVG 1.0//EN'
  'http://www.w3.org/TR/2001/REC-SVG-20010904/DTD/svg10.dtd'>
<svg fill-rule="evenodd" height="708.6614173228346" preserveAspectRatio="xMinYMin meet" version="1.0" viewBox="0 0 1417 708" width="1417.3228346456692" xmlns="http://www.w3.org/2000/svg" xmlns:xlink="http://www.w3.org/1999/xlink">
	<title>...</title>
	<desc>...</desc>
	<clipPath id="clip">
		<rect height="708.6614173228346" width="1417.3228346456692" x="0" y="0"/>
	</clipPath>
	<g id="group" style="clip-path: url(#clip)" transform="scale(1,-1) translate(0,-708)">
		<g transform="">
			<polygon points="70.86614 169.8256, 755.6812 169.8256, 755.6812 251.8279, 70.86614 251.8279" style="stroke: rgb(96%,96%,96%); stroke-linecap: butt; stroke-width: 1; fill: rgb(96%,96%,96%); fill-rule: evenodd;"/>
			<polygon points="70.86614 456.8335, 1346.391 456.8335, 1346.391 538.8358, 70.86614 538.8358" style="stroke: rgb(96%,96%,96%); stroke-linecap: butt; stroke-width: 1; fill: rgb(96%,96%,96%); fill-rule: evenodd;"/>
			<polygon points="496.8571 456.8335, 650.7221 456.8335, 513.5341 251.8279, 665.4799 251.8279" style="stroke: rgb(100%,55%,55%); stroke-linecap: round; stroke-width: 1; fill: rgb(100%,55%,55%); fill-rule: evenodd;"/>
			<polygon points="111.6983 241.5776, 128.5856 241.5776, 128.5856 251.8279, 144.9861 231.3273, 128.5856 210.8268, 128.5856 221.0771, 111.6983 221.0771" style="stroke: rgb(67%,84%,90%); stroke-linecap: round; stroke-width: 1; fill: rgb(67%,84%,90%); fill-rule: evenodd;"/>
			<polygon points="147.4347 241.5776, 229.0446 241.5776, 229.0446 251.8279, 245.445 231.3273, 229.0446 210.8268, 229.0446 221.0771, 147.4347 221.0771" style="stroke: rgb(67%,84%,90%); stroke-linecap: round; stroke-width: 1; fill: rgb(67%,84%,90%); fill-rule: evenodd;"/>
			<polygon points="245.445 241.5776, 246.251 241.5776, 246.251 251.8279, 262.6514 231.3273, 246.251 210.8268, 246.251 221.0771, 245.445 221.0771" style="stroke: rgb(67%,84%,90%); stroke-linecap: round; stroke-width: 1; fill: rgb(67%,84%,90%); fill-rule: evenodd;"/>
			<polygon points="274.4312 241.5776, 286.1566 241.5776, 286.1566 251.8279, 302.5571 231.3273, 286.1566 210.8268, 286.1566 221.0771, 274.4312 221.0771" style="stroke: rgb(67%,84%,90%); stroke-linecap: round; stroke-width: 1; fill: rgb(67%,84%,90%); fill-rule: evenodd;"/>
			<polygon points="312.9471 241.5776, 381.8507 241.5776, 381.8507 251.8279, 398.2512 231.3273, 381.8507 210.8268, 381.8507 221.0771, 312.9471 221.0771" style="stroke: rgb(67%,84%,90%); stroke-linecap: round; stroke-width: 1; fill: rgb(67%,84%,90%); fill-rule: evenodd;"/>
			<polygon points="505.9898 200.5765, 417.4311 200.5765, 417.4311 210.8268, 401.0307 190.3262, 417.4311 169.8256, 417.4311 180.0759, 505.9898 180.0759" style="stroke: rgb(56%,93%,56%); stroke-linecap: round; stroke-width: 1; fill: rgb(56%,93%,56%); fill-rule: evenodd;"/>
			<polygon points="565.3519 200.5765, 529.8022 200.5765, 529.8022 210.8268, 513.4018 190.3262, 529.8022 169.8256, 529.8022 180.0759, 565.3519 180.0759" style="stroke: rgb(56%,93%,56%); stroke-linecap: round; stroke-width: 1; fill: rgb(56%,93%,56%); fill-rule: evenodd;"/>
			<polygon points="611.2136 200.5765, 582.8112 200.5765, 582.8112 210.8268, 566.4107 190.3262, 582.8112 169.8256, 582.8112 180.0759, 611.2136 180.0759" style="stroke: rgb(56%,93%,56%); stroke-linecap: round; stroke-width: 1; fill: rgb(56%,93%,56%); fill-rule: evenodd;"/>
			<polygon points="675.8038 200.5765, 634.2981 200.5765, 634.2981 210.8268, 617.8976 190.3262, 634.2981 169.8256, 634.2981 180.0759, 675.8038 180.0759" style="stroke: rgb(56%,93%,56%); stroke-linecap: round; stroke-width: 1; fill: rgb(56%,93%,56%); fill-rule: evenodd;"/>
			<polygon points="713.0623 200.5765, 713.0623 210.8268, 699.4295 190.3262, 713.0623 169.8256, 713.0623 180.0759" style="stroke: rgb(56%,93%,56%); stroke-linecap: round; stroke-width: 1; fill: rgb(56%,93%,56%); fill-rule: evenodd;"/>
			<polygon points="172.8472 487.5844, 165.8866 487.5844, 165.8866 497.8346, 149.4862 477.3341, 165.8866 456.8335, 165.8866 467.0838, 172.8472 467.0838" style="stroke: rgb(56%,93%,56%); stroke-linecap: round; stroke-width: 1; fill: rgb(56%,93%,56%); fill-rule: evenodd;"/>
			<polygon points="236.3124 487.5844, 195.0052 487.5844, 195.0052 497.8346, 178.6047 477.3341, 195.0052 456.8335, 195.0052 467.0838, 236.3124 467.0838" style="stroke: rgb(56%,93%,56%); stroke-linecap: round; stroke-width: 1; fill: rgb(56%,93%,56%); fill-rule: evenodd;"/>
			<polygon points="249.7466 528.5855, 349.2247 528.5855, 349.2247 538.8358, 365.6252 518.3352, 349.2247 497.8346, 349.2247 508.0849, 249.7466 508.0849" style="stroke: rgb(67%,84%,90%); stroke-linecap: round; stroke-width: 1; fill: rgb(67%,84%,90%); fill-rule: evenodd;"/>
			<polygon points="365.4266 528.5855, 458.5516 528.5855, 458.5516 538.8358, 474.9521 518.3352, 458.5516 497.8346, 458.5516 508.0849, 365.4266 508.0849" style="stroke: rgb(67%,84%,90%); stroke-linecap: round; stroke-width: 1; fill: rgb(67%,84%,90%); fill-rule: evenodd;"/>
			<polygon points="479.1875 528.5855, 528.4361 528.5855, 528.4361 538.8358, 544.8365 518.3352, 528.4361 497.8346, 528.4361 508.0849, 479.1875 508.0849" style="stroke: rgb(67%,84%,90%); stroke-linecap: round; stroke-width: 1; fill: rgb(67%,84%,90%); fill-rule: evenodd;"/>
			<polygon points="550.7264 528.5855, 579.5259 528.5855, 579.5259 538.8358, 595.9263 518.3352, 579.5259 497.8346, 579.5259 508.0849, 550.7264 508.0849" style="stroke: rgb(67%,84%,90%); stroke-linecap: round; stroke-width: 1; fill: rgb(67%,84%,90%); fill-rule: evenodd;"/>
			<polygon points="598.9044 528.5855, 634.454 528.5855, 634.454 538.8358, 650.8545 518.3352, 634.454 497.8346, 634.454 508.0849, 598.9044 508.0849" style="stroke: rgb(67%,84%,90%); stroke-linecap: round; stroke-width: 1; fill: rgb(67%,84%,90%); fill-rule: evenodd;"/>
			<polygon points="750.387 487.5844, 672.9463 487.5844, 672.9463 497.8346, 656.5459 477.3341, 672.9463 456.8335, 672.9463 467.0838, 750.387 467.0838" style="stroke: rgb(56%,93%,56%); stroke-linecap: round; stroke-width: 1; fill: rgb(56%,93%,56%); fill-rule: evenodd;"/>
			<polygon points="833.441 487.5844, 789.5528 487.5844, 789.5528 497.8346, 773.1524 477.3341, 789.5528 456.8335, 789.5528 467.0838, 833.441 467.0838" style="stroke: rgb(56%,93%,56%); stroke-linecap: round; stroke-width: 1; fill: rgb(56%,93%,56%); fill-rule: evenodd;"/>
			<polygon points="920.8628 487.5844, 852.7533 487.5844, 852.7533 497.8346, 836.3528 477.3341, 852.7533 456.8335, 852.7533 467.0838, 920.8628 467.0838" style="stroke: rgb(56%,93%,56%); stroke-linecap: round; stroke-width: 1; fill: rgb(56%,93%,56%); fill-rule: evenodd;"/>
			<polygon points="956.7977 487.5844, 939.5133 487.5844, 939.5133 497.8346, 923.1128 477.3341, 939.5133 456.8335, 939.5133 467.0838, 956.7977 467.0838" style="stroke: rgb(56%,93%,56%); stroke-linecap: round; stroke-width: 1; fill: rgb(56%,93%,56%); fill-rule: evenodd;"/>
			<polygon points="1017.086 487.5844, 976.9703 487.5844, 976.9703 497.8346, 960.5699 477.3341, 976.9703 456.8335, 976.9703 467.0838, 1017.086 467.0838" style="stroke: rgb(56%,93%,56%); stroke-linecap: round; stroke-width: 1; fill: rgb(56%,93%,56%); fill-rule: evenodd;"/>
			<polygon points="1068.97 487.5844, 1034.612 487.5844, 1034.612 497.8346, 1018.211 477.3341, 1034.612 456.8335, 1034.612 467.0838, 1068.97 467.0838" style="stroke: rgb(56%,93%,56%); stroke-linecap: round; stroke-width: 1; fill: rgb(56%,93%,56%); fill-rule: evenodd;"/>
			<polygon points="1101.861 528.5855, 1147.933 528.5855, 1147.933 538.8358, 1164.333 518.3352, 1147.933 497.8346, 1147.933 508.0849, 1101.861 508.0849" style="stroke: rgb(67%,84%,90%); stroke-linecap: round; stroke-width: 1; fill: rgb(67%,84%,90%); fill-rule: evenodd;"/>
			<polygon points="1217.872 487.5844, 1183.315 487.5844, 1183.315 497.8346, 1166.914 477.3341, 1183.315 456.8335, 1183.315 467.0838, 1217.872 467.0838" style="stroke: rgb(56%,93%,56%); stroke-linecap: round; stroke-width: 1; fill: rgb(56%,93%,56%); fill-rule: evenodd;"/>
			<polygon points="1346.391 487.5844, 1236.191 487.5844, 1236.191 497.8346, 1219.791 477.3341, 1236.191 456.8335, 1236.191 467.0838, 1346.391 467.0838" style="stroke: rgb(56%,93%,56%); stroke-linecap: round; stroke-width: 1; fill: rgb(56%,93%,56%); fill-rule: evenodd;"/>
			<path d="M 755.68124,169.825647 L 755.68124,251.827897 Z" style="stroke: rgb(0%,0%,0%); stroke-linecap: butt; stroke-width: 1;"/>
			<path d="M 70.866142,210.826772 L 755.68124,210.826772 Z" style="stroke: rgb(0%,0%,0%); stroke-linecap: butt; stroke-width: 1;"/>
			<path d="M 70.866142,169.825647 L 70.866142,251.827897 Z" style="stroke: rgb(0%,0%,0%); stroke-linecap: butt; stroke-width: 1;"/>
			<path d="M 732.651123,210.826772 L 732.651123,231.327334 Z" style="stroke: rgb(0%,0%,0%); stroke-linecap: butt; stroke-width: 1;"/>
			<path d="M 732.651123,210.826772 L 732.651123,223.127109 Z" style="stroke: rgb(0%,0%,0%); stroke-linecap: butt; stroke-width: 1;"/>
			<path d="M 1346.390514,456.833521 L 1346.390514,538.835771 Z" style="stroke: rgb(0%,0%,0%); stroke-linecap: butt; stroke-width: 1;"/>
			<path d="M 70.866142,497.834646 L 1346.390514,497.834646 Z" style="stroke: rgb(0%,0%,0%); stroke-linecap: butt; stroke-width: 1;"/>
			<path d="M 70.866142,456.833521 L 70.866142,538.835771 Z" style="stroke: rgb(0%,0%,0%); stroke-linecap: butt; stroke-width: 1;"/>
			<path d="M 732.651123,497.834646 L 732.651123,518.335208 Z" style="stroke: rgb(0%,0%,0%); stroke-linecap: butt; stroke-width: 1;"/>
			<path d="M 732.651123,497.834646 L 732.651123,510.134983 Z" style="stroke: rgb(0%,0%,0%); stroke-linecap: butt; stroke-width: 1;"/>
			<g transform=" matrix(0.707107,0.707107,-0.707107,0.707107,732.651123,231.327334)">
				<text style="font-family: Helvetica; font-size: 6px;fill: rgb(0%,0%,0%); stroke:none;" transform="translate(0,0) scale(1,-1)" x="0" y="0">10000</text>
			</g>
			<g transform=" matrix(0.707107,0.707107,-0.707107,0.707107,732.651123,518.335208)">
				<text style="font-family: Helvetica; font-size: 6px;fill: rgb(0%,0%,0%); stroke:none;" transform="translate(0,0) scale(1,-1)" x="0" y="0">10000</text>
			</g>
			<g transform=" matrix(0.707107,0.707107,-0.707107,0.707107,128.342167,251.827897)">
				<text style="font-family: Helvetica; font-size: 10px;fill: rgb(0%,0%,0%); stroke:none;" transform="translate(0,0) scale(1,-1)" x="0" y="0">Gene_00947</text>
			</g>
			<g transform=" matrix(0.707107,0.707107,-0.707107,0.707107,196.439842,251.827897)">
				<text style="font-family: Helvetica; font-size: 10px;fill: rgb(0%,0%,0%); stroke:none;" transform="translate(0,0) scale(1,-1)" x="0" y="0">Gene_00948</text>
			</g>
			<g transform=" matrix(0.707107,0.707107,-0.707107,0.707107,254.048225,251.827897)">
				<text style="font-family: Helvetica; font-size: 10px;fill: rgb(0%,0%,0%); stroke:none;" transform="translate(0,0) scale(1,-1)" x="0" y="0">Gene_00949</text>
			</g>
			<g transform=" matrix(0.707107,0.707107,-0.707107,0.707107,288.494133,251.827897)">
				<text style="font-family: Helvetica; font-size: 10px;fill: rgb(0%,0%,0%); stroke:none;" transform="translate(0,0) scale(1,-1)" x="0" y="0">Gene_00950</text>
			</g>
			<g transform=" matrix(0.707107,0.707107,-0.707107,0.707107,355.59913,251.827897)">
				<text style="font-family: Helvetica; font-size: 10px;fill: rgb(0%,0%,0%); stroke:none;" transform="translate(0,0) scale(1,-1)" x="0" y="0">Gene_00951</text>
			</g>
			<g transform=" matrix(0.707107,-0.707107,0.707107,0.707107,453.510218,169.825647)">
				<text style="font-family: Helvetica; font-size: 10px;fill: rgb(0%,0%,0%); stroke:none;" transform="translate(0,0) scale(1,-1)" x="0" y="0">Gene_00952</text>
			</g>
			<g transform=" matrix(0.707107,-0.707107,0.707107,0.707107,539.376819,169.825647)">
				<text style="font-family: Helvetica; font-size: 16px;fill: rgb(0%,0%,100%); stroke:none;" transform="translate(0,0) scale(1,-1)" x="0" y="0">Gene_00953 (81.2)</text>
			</g>
			<g transform=" matrix(0.707107,-0.707107,0.707107,0.707107,588.812157,169.825647)">
				<text style="font-family: Helvetica; font-size: 10px;fill: rgb(0%,0%,0%); stroke:none;" transform="translate(0,0) scale(1,-1)" x="0" y="0">Gene_00954</text>
			</g>
			<g transform=" matrix(0.707107,-0.707107,0.707107,0.707107,646.8507,169.825647)">
				<text style="font-family: Helvetica; font-size: 10px;fill: rgb(0%,0%,0%); stroke:none;" transform="translate(0,0) scale(1,-1)" x="0" y="0">Gene_00955</text>
			</g>
			<g transform=" matrix(0.707107,-0.707107,0.707107,0.707107,706.245902,169.825647)">
				<text style="font-family: Helvetica; font-size: 10px;fill: rgb(0%,0%,0%); stroke:none;" transform="translate(0,0) scale(1,-1)" x="0" y="0">Gene_00956</text>
			</g>
			<g transform=" matrix(0.707107,-0.707107,0.707107,0.707107,161.166702,456.833521)">
				<text style="font-family: Helvetica; font-size: 10px;fill: rgb(0%,0%,0%); stroke:none;" transform="translate(0,0) scale(1,-1)" x="0" y="0">Gene_02900</text>
			</g>
			<g transform=" matrix(0.707107,-0.707107,0.707107,0.707107,207.458562,456.833521)">
				<text style="font-family: Helvetica; font-size: 10px;fill: rgb(0%,0%,0%); stroke:none;" transform="translate(0,0) scale(1,-1)" x="0" y="0">Gene_02901</text>
			</g>
			<g transform=" matrix(0.707107,0.707107,-0.707107,0.707107,307.685897,538.835771)">
				<text style="font-family: Helvetica; font-size: 10px;fill: rgb(0%,0%,0%); stroke:none;" transform="translate(0,0) scale(1,-1)" x="0" y="0">Gene_02902</text>
			</g>
			<g transform=" matrix(0.707107,0.707107,-0.707107,0.707107,420.189344,538.835771)">
				<text style="font-family: Helvetica; font-size: 10px;fill: rgb(0%,0%,0%); stroke:none;" transform="translate(0,0) scale(1,-1)" x="0" y="0">Gene_02903</text>
			</g>
			<g transform=" matrix(0.707107,0.707107,-0.707107,0.707107,512.01201,538.835771)">
				<text style="font-family: Helvetica; font-size: 10px;fill: rgb(0%,0%,0%); stroke:none;" transform="translate(0,0) scale(1,-1)" x="0" y="0">Gene_02904</text>
			</g>
			<g transform=" matrix(0.707107,0.707107,-0.707107,0.707107,573.326389,538.835771)">
				<text style="font-family: Helvetica; font-size: 10px;fill: rgb(0%,0%,0%); stroke:none;" transform="translate(0,0) scale(1,-1)" x="0" y="0">Gene_02905</text>
			</g>
			<g transform=" matrix(0.707107,0.707107,-0.707107,0.707107,624.879439,538.835771)">
				<text style="font-family: Helvetica; font-size: 16px;fill: rgb(0%,0%,100%); stroke:none;" transform="translate(0,0) scale(1,-1)" x="0" y="0">Gene_02906 (81.2)</text>
			</g>
			<g transform=" matrix(0.707107,-0.707107,0.707107,0.707107,703.466405,456.833521)">
				<text style="font-family: Helvetica; font-size: 10px;fill: rgb(0%,0%,0%); stroke:none;" transform="translate(0,0) scale(1,-1)" x="0" y="0">Gene_02907</text>
			</g>
			<g transform=" matrix(0.707107,-0.707107,0.707107,0.707107,803.29667,456.833521)">
				<text style="font-family: Helvetica; font-size: 10px;fill: rgb(0%,0%,0%); stroke:none;" transform="translate(0,0) scale(1,-1)" x="0" y="0">Gene_02908</text>
			</g>
			<g transform=" matrix(0.707107,-0.707107,0.707107,0.707107,878.6078,456.833521)">
				<text style="font-family: Helvetica; font-size: 10px;fill: rgb(0%,0%,0%); stroke:none;" transform="translate(0,0) scale(1,-1)" x="0" y="0">Gene_02909</text>
			</g>
			<g transform=" matrix(0.707107,-0.707107,0.707107,0.707107,939.955268,456.833521)">
				<text style="font-family: Helvetica; font-size: 10px;fill: rgb(0%,0%,0%); stroke:none;" transform="translate(0,0) scale(1,-1)" x="0" y="0">Gene_02910</text>
			</g>
			<g transform=" matrix(0.707107,-0.707107,0.707107,0.707107,988.828089,456.833521)">
				<text style="font-family: Helvetica; font-size: 10px;fill: rgb(0%,0%,0%); stroke:none;" transform="translate(0,0) scale(1,-1)" x="0" y="0">Gene_02911</text>
			</g>
			<g transform=" matrix(0.707107,-0.707107,0.707107,0.707107,1043.590796,456.833521)">
				<text style="font-family: Helvetica; font-size: 10px;fill: rgb(0%,0%,0%); stroke:none;" transform="translate(0,0) scale(1,-1)" x="0" y="0">Gene_02912</text>
			</g>
			<g transform=" matrix(0.707107,0.707107,-0.707107,0.707107,1133.097215,538.835771)">
				<text style="font-family: Helvetica; font-size: 10px;fill: rgb(0%,0%,0%); stroke:none;" transform="translate(0,0) scale(1,-1)" x="0" y="0">Gene_02913</text>
			</g>
			<g transform=" matrix(0.707107,-0.707107,0.707107,0.707107,1192.393149,456.833521)">
				<text style="font-family: Helvetica; font-size: 10px;fill: rgb(0%,0%,0%); stroke:none;" transform="translate(0,0) scale(1,-1)" x="0" y="0">Gene_02914</text>
			</g>
			<g transform=" matrix(0.707107,-0.707107,0.707107,0.707107,1283.090781,456.833521)">
				<text style="font-family: Helvetica; font-size: 10px;fill: rgb(0%,0%,0%); stroke:none;" transform="translate(0,0) scale(1,-1)" x="0" y="0">Gene_02915</text>
			</g>
			<g transform=" matrix(1,0,-0,1,70,169.825647)">
				<text style="font-family: Helvetica; font-size: 12px;fill: rgb(60%,60%,60%); stroke:none;" transform="translate(0,0) scale(1,-1)" x="0" y="0">megahit_13150 (left 6687bp, right 2876bp)</text>
			</g>
			<g transform=" matrix(1,0,-0,1,70,456.833521)">
				<text style="font-family: Helvetica; font-size: 12px;fill: rgb(60%,60%,60%); stroke:none;" transform="translate(0,0) scale(1,-1)" x="0" y="0">megahit_35307 (left 7979bp, right 10564bp)</text>
			</g>
		</g>
	</g>
</svg>
