<?xml version="1.0" encoding="utf-8"?>
<!DOCTYPE svg
  PUBLIC '-//W3C//DTD SVG 1.0//EN'
  'http://www.w3.org/TR/2001/REC-SVG-20010904/DTD/svg10.dtd'>
<svg fill-rule="evenodd" height="708.6614173228346" preserveAspectRatio="xMinYMin meet" version="1.0" viewBox="0 0 1417 708" width="1417.3228346456692" xmlns="http://www.w3.org/2000/svg" xmlns:xlink="http://www.w3.org/1999/xlink">
	<title>...</title>
	<desc>...</desc>
	<clipPath id="clip">
		<rect height="708.6614173228346" width="1417.3228346456692" x="0" y="0"/>
	</clipPath>
	<g id="group" style="clip-path: url(#clip)" transform="scale(1,-1) translate(0,-708)">
		<g transform="">
			<polygon points="70.86614 169.8256, 1346.402 169.8256, 1346.402 251.8279, 70.86614 251.8279" style="stroke: rgb(96%,96%,96%); stroke-linecap: butt; stroke-width: 1; fill: rgb(96%,96%,96%); fill-rule: evenodd;"/>
			<polygon points="70.86614 456.8335, 797.9107 456.8335, 797.9107 538.8358, 70.86614 538.8358" style="stroke: rgb(96%,96%,96%); stroke-linecap: butt; stroke-width: 1; fill: rgb(96%,96%,96%); fill-rule: evenodd;"/>
			<polygon points="145.0176 456.8335, 168.7155 456.8335, 723.9777 251.8279, 700.3344 251.8279" style="stroke: rgb(100%,38%,38%); stroke-linecap: round; stroke-width: 1; fill: rgb(100%,38%,38%); fill-rule: evenodd;"/>
			<polygon points="159.2691 200.5765, 87.26659 200.5765, 87.26659 210.8268, 70.86614 190.3262, 87.26659 169.8256, 87.26659 180.0759, 159.2691 180.0759" style="stroke: rgb(56%,93%,56%); stroke-linecap: round; stroke-width: 1; fill: rgb(56%,93%,56%); fill-rule: evenodd;"/>
			<polygon points="235.1678 200.5765, 174.7959 200.5765, 174.7959 210.8268, 158.3954 190.3262, 174.7959 169.8256, 174.7959 180.0759, 235.1678 180.0759" style="stroke: rgb(56%,93%,56%); stroke-linecap: round; stroke-width: 1; fill: rgb(56%,93%,56%); fill-rule: evenodd;"/>
			<polygon points="253.2416 241.5776, 275.2819 241.5776, 275.2819 251.8279, 291.6824 231.3273, 275.2819 210.8268, 275.2819 221.0771, 253.2416 221.0771" style="stroke: rgb(67%,84%,90%); stroke-linecap: round; stroke-width: 1; fill: rgb(67%,84%,90%); fill-rule: evenodd;"/>
			<polygon points="291.5186 241.5776, 304.3856 241.5776, 304.3856 251.8279, 320.786 231.3273, 304.3856 210.8268, 304.3856 221.0771, 291.5186 221.0771" style="stroke: rgb(67%,84%,90%); stroke-linecap: round; stroke-width: 1; fill: rgb(67%,84%,90%); fill-rule: evenodd;"/>
			<polygon points="320.8952 241.5776, 356.6956 241.5776, 356.6956 251.8279, 373.0961 231.3273, 356.6956 210.8268, 356.6956 221.0771, 320.8952 221.0771" style="stroke: rgb(67%,84%,90%); stroke-linecap: round; stroke-width: 1; fill: rgb(67%,84%,90%); fill-rule: evenodd;"/>
			<polygon points="377.519 241.5776, 385.9631 241.5776, 385.9631 251.8279, 402.3635 231.3273, 385.9631 210.8268, 385.9631 221.0771, 377.519 221.0771" style="stroke: rgb(67%,84%,90%); stroke-linecap: round; stroke-width: 1; fill: rgb(67%,84%,90%); fill-rule: evenodd;"/>
			<polygon points="404.6023 241.5776, 404.6023 251.8279, 411.2639 231.3273, 404.6023 210.8268, 404.6023 221.0771" style="stroke: rgb(67%,84%,90%); stroke-linecap: round; stroke-width: 1; fill: rgb(67%,84%,90%); fill-rule: evenodd;"/>
			<polygon points="414.5947 241.5776, 426.8064 241.5776, 426.8064 251.8279, 443.2069 231.3273, 426.8064 210.8268, 426.8064 221.0771, 414.5947 221.0771" style="stroke: rgb(67%,84%,90%); stroke-linecap: round; stroke-width: 1; fill: rgb(67%,84%,90%); fill-rule: evenodd;"/>
			<polygon points="445.7732 241.5776, 454.2173 241.5776, 454.2173 251.8279, 470.6178 231.3273, 454.2173 210.8268, 454.2173 221.0771, 445.7732 221.0771" style="stroke: rgb(67%,84%,90%); stroke-linecap: round; stroke-width: 1; fill: rgb(67%,84%,90%); fill-rule: evenodd;"/>
			<polygon points="470.0718 241.5776, 482.4473 241.5776, 482.4473 251.8279, 498.8478 231.3273, 482.4473 210.8268, 482.4473 221.0771, 470.0718 221.0771" style="stroke: rgb(67%,84%,90%); stroke-linecap: round; stroke-width: 1; fill: rgb(67%,84%,90%); fill-rule: evenodd;"/>
			<polygon points="500.8681 241.5776, 512.916 241.5776, 512.916 251.8279, 529.3165 231.3273, 512.916 210.8268, 512.916 221.0771, 500.8681 221.0771" style="stroke: rgb(67%,84%,90%); stroke-linecap: round; stroke-width: 1; fill: rgb(67%,84%,90%); fill-rule: evenodd;"/>
			<polygon points="530.9 241.5776, 530.9 251.8279, 538.5445 231.3273, 530.9 210.8268, 530.9 221.0771" style="stroke: rgb(67%,84%,90%); stroke-linecap: round; stroke-width: 1; fill: rgb(67%,84%,90%); fill-rule: evenodd;"/>
			<polygon points="539.8003 241.5776, 554.3054 241.5776, 554.3054 251.8279, 570.7059 231.3273, 554.3054 210.8268, 554.3054 221.0771, 539.8003 221.0771" style="stroke: rgb(67%,84%,90%); stroke-linecap: round; stroke-width: 1; fill: rgb(67%,84%,90%); fill-rule: evenodd;"/>
			<polygon points="572.2894 241.5776, 574.3449 241.5776, 574.3449 251.8279, 590.7453 231.3273, 574.3449 210.8268, 574.3449 221.0771, 572.2894 221.0771" style="stroke: rgb(67%,84%,90%); stroke-linecap: round; stroke-width: 1; fill: rgb(67%,84%,90%); fill-rule: evenodd;"/>
			<polygon points="589.7625 241.5776, 589.7625 251.8279, 599.2089 231.3273, 589.7625 210.8268, 589.7625 221.0771" style="stroke: rgb(67%,84%,90%); stroke-linecap: round; stroke-width: 1; fill: rgb(67%,84%,90%); fill-rule: evenodd;"/>
			<polygon points="599.3727 241.5776, 645.1655 241.5776, 645.1655 251.8279, 661.566 231.3273, 645.1655 210.8268, 645.1655 221.0771, 599.3727 221.0771" style="stroke: rgb(67%,84%,90%); stroke-linecap: round; stroke-width: 1; fill: rgb(67%,84%,90%); fill-rule: evenodd;"/>
			<polygon points="664.733 241.5776, 678.2552 241.5776, 678.2552 251.8279, 694.6556 231.3273, 678.2552 210.8268, 678.2552 221.0771, 664.733 221.0771" style="stroke: rgb(67%,84%,90%); stroke-linecap: round; stroke-width: 1; fill: rgb(67%,84%,90%); fill-rule: evenodd;"/>
			<polygon points="723.1586 200.5765, 715.5336 200.5765, 715.5336 210.8268, 699.1331 190.3262, 715.5336 169.8256, 715.5336 180.0759, 723.1586 180.0759" style="stroke: rgb(56%,93%,56%); stroke-linecap: round; stroke-width: 1; fill: rgb(56%,93%,56%); fill-rule: evenodd;"/>
			<polygon points="763.8382 200.5765, 743.5997 200.5765, 743.5997 210.8268, 727.1993 190.3262, 743.5997 169.8256, 743.5997 180.0759, 763.8382 180.0759" style="stroke: rgb(56%,93%,56%); stroke-linecap: round; stroke-width: 1; fill: rgb(56%,93%,56%); fill-rule: evenodd;"/>
			<polygon points="783.3862 200.5765, 778.2183 200.5765, 778.2183 210.8268, 761.8178 190.3262, 778.2183 169.8256, 778.2183 180.0759, 783.3862 180.0759" style="stroke: rgb(56%,93%,56%); stroke-linecap: round; stroke-width: 1; fill: rgb(56%,93%,56%); fill-rule: evenodd;"/>
			<polygon points="797.4739 200.5765, 797.4739 210.8268, 787.5361 190.3262, 797.4739 169.8256, 797.4739 180.0759" style="stroke: rgb(56%,93%,56%); stroke-linecap: round; stroke-width: 1; fill: rgb(56%,93%,56%); fill-rule: evenodd;"/>
			<polygon points="809.7051 241.5776, 831.4178 241.5776, 831.4178 251.8279, 847.8182 231.3273, 831.4178 210.8268, 831.4178 221.0771, 809.7051 221.0771" style="stroke: rgb(67%,84%,90%); stroke-linecap: round; stroke-width: 1; fill: rgb(67%,84%,90%); fill-rule: evenodd;"/>
			<polygon points="847.3268 241.5776, 959.9542 241.5776, 959.9542 251.8279, 976.3547 231.3273, 959.9542 210.8268, 959.9542 221.0771, 847.3268 221.0771" style="stroke: rgb(67%,84%,90%); stroke-linecap: round; stroke-width: 1; fill: rgb(67%,84%,90%); fill-rule: evenodd;"/>
			<polygon points="1041.551 200.5765, 1001.819 200.5765, 1001.819 210.8268, 985.4189 190.3262, 1001.819 169.8256, 1001.819 180.0759, 1041.551 180.0759" style="stroke: rgb(56%,93%,56%); stroke-linecap: round; stroke-width: 1; fill: rgb(56%,93%,56%); fill-rule: evenodd;"/>
			<polygon points="1078.463 200.5765, 1057.569 200.5765, 1057.569 210.8268, 1041.169 190.3262, 1057.569 169.8256, 1057.569 180.0759, 1078.463 180.0759" style="stroke: rgb(56%,93%,56%); stroke-linecap: round; stroke-width: 1; fill: rgb(56%,93%,56%); fill-rule: evenodd;"/>
			<polygon points="1099.977 241.5776, 1102.196 241.5776, 1102.196 251.8279, 1118.597 231.3273, 1102.196 210.8268, 1102.196 221.0771, 1099.977 221.0771" style="stroke: rgb(67%,84%,90%); stroke-linecap: round; stroke-width: 1; fill: rgb(67%,84%,90%); fill-rule: evenodd;"/>
			<polygon points="1135.851 241.5776, 1169.031 241.5776, 1169.031 251.8279, 1185.431 231.3273, 1169.031 210.8268, 1169.031 221.0771, 1135.851 221.0771" style="stroke: rgb(67%,84%,90%); stroke-linecap: round; stroke-width: 1; fill: rgb(67%,84%,90%); fill-rule: evenodd;"/>
			<polygon points="1182.592 241.5776, 1264.914 241.5776, 1264.914 251.8279, 1281.315 231.3273, 1264.914 210.8268, 1264.914 221.0771, 1182.592 221.0771" style="stroke: rgb(67%,84%,90%); stroke-linecap: round; stroke-width: 1; fill: rgb(67%,84%,90%); fill-rule: evenodd;"/>
			<polygon points="1331.386 200.5765, 1297.551 200.5765, 1297.551 210.8268, 1281.151 190.3262, 1297.551 169.8256, 1297.551 180.0759, 1331.386 180.0759" style="stroke: rgb(56%,93%,56%); stroke-linecap: round; stroke-width: 1; fill: rgb(56%,93%,56%); fill-rule: evenodd;"/>
			<polygon points="1346.402 200.5765, 1346.402 210.8268, 1331.386 190.3262, 1346.402 169.8256, 1346.402 180.0759" style="stroke: rgb(56%,93%,56%); stroke-linecap: round; stroke-width: 1; fill: rgb(56%,93%,56%); fill-rule: evenodd;"/>
			<polygon points="143.6525 487.5844, 112.275 487.5844, 112.275 497.8346, 95.87451 477.3341, 112.275 456.8335, 112.275 467.0838, 143.6525 467.0838" style="stroke: rgb(56%,93%,56%); stroke-linecap: round; stroke-width: 1; fill: rgb(56%,93%,56%); fill-rule: evenodd;"/>
			<polygon points="167.8418 487.5844, 160.053 487.5844, 160.053 497.8346, 143.6525 477.3341, 160.053 456.8335, 160.053 467.0838, 167.8418 467.0838" style="stroke: rgb(56%,93%,56%); stroke-linecap: round; stroke-width: 1; fill: rgb(56%,93%,56%); fill-rule: evenodd;"/>
			<polygon points="218.2954 487.5844, 186.5902 487.5844, 186.5902 497.8346, 170.1898 477.3341, 186.5902 456.8335, 186.5902 467.0838, 218.2954 467.0838" style="stroke: rgb(56%,93%,56%); stroke-linecap: round; stroke-width: 1; fill: rgb(56%,93%,56%); fill-rule: evenodd;"/>
			<polygon points="233.5843 528.5855, 269.221 528.5855, 269.221 538.8358, 285.6214 518.3352, 269.221 497.8346, 269.221 508.0849, 233.5843 508.0849" style="stroke: rgb(67%,84%,90%); stroke-linecap: round; stroke-width: 1; fill: rgb(67%,84%,90%); fill-rule: evenodd;"/>
			<polygon points="288.7884 528.5855, 322.1317 528.5855, 322.1317 538.8358, 338.5321 518.3352, 322.1317 497.8346, 322.1317 508.0849, 288.7884 508.0849" style="stroke: rgb(67%,84%,90%); stroke-linecap: round; stroke-width: 1; fill: rgb(67%,84%,90%); fill-rule: evenodd;"/>
			<polygon points="370.6935 487.5844, 356.0246 487.5844, 356.0246 497.8346, 339.6242 477.3341, 356.0246 456.8335, 356.0246 467.0838, 370.6935 467.0838" style="stroke: rgb(56%,93%,56%); stroke-linecap: round; stroke-width: 1; fill: rgb(56%,93%,56%); fill-rule: evenodd;"/>
			<polygon points="430.5389 487.5844, 387.367 487.5844, 387.367 497.8346, 370.9666 477.3341, 387.367 456.8335, 387.367 467.0838, 430.5389 467.0838" style="stroke: rgb(56%,93%,56%); stroke-linecap: round; stroke-width: 1; fill: rgb(56%,93%,56%); fill-rule: evenodd;"/>
			<polygon points="467.014 487.5844, 446.7755 487.5844, 446.7755 497.8346, 430.3751 477.3341, 446.7755 456.8335, 446.7755 467.0838, 467.014 467.0838" style="stroke: rgb(56%,93%,56%); stroke-linecap: round; stroke-width: 1; fill: rgb(56%,93%,56%); fill-rule: evenodd;"/>
			<polygon points="523.4193 487.5844, 492.5332 487.5844, 492.5332 497.8346, 476.1327 477.3341, 492.5332 456.8335, 492.5332 467.0838, 523.4193 467.0838" style="stroke: rgb(56%,93%,56%); stroke-linecap: round; stroke-width: 1; fill: rgb(56%,93%,56%); fill-rule: evenodd;"/>
			<polygon points="534.8314 528.5855, 544.586 528.5855, 544.586 538.8358, 560.9865 518.3352, 544.586 497.8346, 544.586 508.0849, 534.8314 508.0849" style="stroke: rgb(67%,84%,90%); stroke-linecap: round; stroke-width: 1; fill: rgb(67%,84%,90%); fill-rule: evenodd;"/>
			<polygon points="560.8227 528.5855, 626.1089 528.5855, 626.1089 538.8358, 642.5094 518.3352, 626.1089 497.8346, 626.1089 508.0849, 560.8227 508.0849" style="stroke: rgb(67%,84%,90%); stroke-linecap: round; stroke-width: 1; fill: rgb(67%,84%,90%); fill-rule: evenodd;"/>
			<polygon points="645.5126 528.5855, 708.8331 528.5855, 708.8331 538.8358, 725.2336 518.3352, 708.8331 497.8346, 708.8331 508.0849, 645.5126 508.0849" style="stroke: rgb(67%,84%,90%); stroke-linecap: round; stroke-width: 1; fill: rgb(67%,84%,90%); fill-rule: evenodd;"/>
			<polygon points="725.0697 528.5855, 781.5103 528.5855, 781.5103 538.8358, 797.9107 518.3352, 781.5103 497.8346, 781.5103 508.0849, 725.0697 508.0849" style="stroke: rgb(67%,84%,90%); stroke-linecap: round; stroke-width: 1; fill: rgb(67%,84%,90%); fill-rule: evenodd;"/>
			<path d="M 1346.402089,169.825647 L 1346.402089,251.827897 Z" style="stroke: rgb(0%,0%,0%); stroke-linecap: butt; stroke-width: 1;"/>
			<path d="M 70.866142,210.826772 L 1346.402089,210.826772 Z" style="stroke: rgb(0%,0%,0%); stroke-linecap: butt; stroke-width: 1;"/>
			<path d="M 70.866142,169.825647 L 70.866142,251.827897 Z" style="stroke: rgb(0%,0%,0%); stroke-linecap: butt; stroke-width: 1;"/>
			<path d="M 616.900366,210.826772 L 616.900366,231.327334 Z" style="stroke: rgb(0%,0%,0%); stroke-linecap: butt; stroke-width: 1;"/>
			<path d="M 1162.93459,210.826772 L 1162.93459,231.327334 Z" style="stroke: rgb(0%,0%,0%); stroke-linecap: butt; stroke-width: 1;"/>
			<path d="M 616.900366,210.826772 L 616.900366,223.127109 Z" style="stroke: rgb(0%,0%,0%); stroke-linecap: butt; stroke-width: 1;"/>
			<path d="M 1162.93459,210.826772 L 1162.93459,223.127109 Z" style="stroke: rgb(0%,0%,0%); stroke-linecap: butt; stroke-width: 1;"/>
			<path d="M 797.910711,456.833521 L 797.910711,538.835771 Z" style="stroke: rgb(0%,0%,0%); stroke-linecap: butt; stroke-width: 1;"/>
			<path d="M 70.866142,497.834646 L 797.910711,497.834646 Z" style="stroke: rgb(0%,0%,0%); stroke-linecap: butt; stroke-width: 1;"/>
			<path d="M 70.866142,456.833521 L 70.866142,538.835771 Z" style="stroke: rgb(0%,0%,0%); stroke-linecap: butt; stroke-width: 1;"/>
			<path d="M 616.900366,497.834646 L 616.900366,518.335208 Z" style="stroke: rgb(0%,0%,0%); stroke-linecap: butt; stroke-width: 1;"/>
			<path d="M 616.900366,497.834646 L 616.900366,510.134983 Z" style="stroke: rgb(0%,0%,0%); stroke-linecap: butt; stroke-width: 1;"/>
			<g transform=" matrix(0.707107,0.707107,-0.707107,0.707107,616.900366,231.327334)">
				<text style="font-family: Helvetica; font-size: 6px;fill: rgb(0%,0%,0%); stroke:none;" transform="translate(0,0) scale(1,-1)" x="0" y="0">10000</text>
			</g>
			<g transform=" matrix(0.707107,0.707107,-0.707107,0.707107,1162.93459,231.327334)">
				<text style="font-family: Helvetica; font-size: 6px;fill: rgb(0%,0%,0%); stroke:none;" transform="translate(0,0) scale(1,-1)" x="0" y="0">20000</text>
			</g>
			<g transform=" matrix(0.707107,0.707107,-0.707107,0.707107,616.900366,518.335208)">
				<text style="font-family: Helvetica; font-size: 6px;fill: rgb(0%,0%,0%); stroke:none;" transform="translate(0,0) scale(1,-1)" x="0" y="0">10000</text>
			</g>
			<g transform=" matrix(0.707107,-0.707107,0.707107,0.707107,115.067612,169.825647)">
				<text style="font-family: Helvetica; font-size: 10px;fill: rgb(0%,0%,0%); stroke:none;" transform="translate(0,0) scale(1,-1)" x="0" y="0">Gene_02069</text>
			</g>
			<g transform=" matrix(0.707107,-0.707107,0.707107,0.707107,196.781634,169.825647)">
				<text style="font-family: Helvetica; font-size: 10px;fill: rgb(0%,0%,0%); stroke:none;" transform="translate(0,0) scale(1,-1)" x="0" y="0">Gene_02070</text>
			</g>
			<g transform=" matrix(0.707107,0.707107,-0.707107,0.707107,272.461977,251.827897)">
				<text style="font-family: Helvetica; font-size: 10px;fill: rgb(0%,0%,0%); stroke:none;" transform="translate(0,0) scale(1,-1)" x="0" y="0">Gene_02071</text>
			</g>
			<g transform=" matrix(0.707107,0.707107,-0.707107,0.707107,306.152289,251.827897)">
				<text style="font-family: Helvetica; font-size: 10px;fill: rgb(0%,0%,0%); stroke:none;" transform="translate(0,0) scale(1,-1)" x="0" y="0">Gene_02072</text>
			</g>
			<g transform=" matrix(0.707107,0.707107,-0.707107,0.707107,346.995649,251.827897)">
				<text style="font-family: Helvetica; font-size: 10px;fill: rgb(0%,0%,0%); stroke:none;" transform="translate(0,0) scale(1,-1)" x="0" y="0">Gene_02073</text>
			</g>
			<g transform=" matrix(0.707107,0.707107,-0.707107,0.707107,389.941241,251.827897)">
				<text style="font-family: Helvetica; font-size: 10px;fill: rgb(0%,0%,0%); stroke:none;" transform="translate(0,0) scale(1,-1)" x="0" y="0">Gene_02074</text>
			</g>
			<g transform=" matrix(0.707107,0.707107,-0.707107,0.707107,407.933068,251.827897)">
				<text style="font-family: Helvetica; font-size: 10px;fill: rgb(0%,0%,0%); stroke:none;" transform="translate(0,0) scale(1,-1)" x="0" y="0">Gene_02075</text>
			</g>
			<g transform=" matrix(0.707107,0.707107,-0.707107,0.707107,428.900783,251.827897)">
				<text style="font-family: Helvetica; font-size: 10px;fill: rgb(0%,0%,0%); stroke:none;" transform="translate(0,0) scale(1,-1)" x="0" y="0">Gene_02076</text>
			</g>
			<g transform=" matrix(0.707107,0.707107,-0.707107,0.707107,458.195519,251.827897)">
				<text style="font-family: Helvetica; font-size: 10px;fill: rgb(0%,0%,0%); stroke:none;" transform="translate(0,0) scale(1,-1)" x="0" y="0">Gene_02077</text>
			</g>
			<g transform=" matrix(0.707107,0.707107,-0.707107,0.707107,484.459765,251.827897)">
				<text style="font-family: Helvetica; font-size: 10px;fill: rgb(0%,0%,0%); stroke:none;" transform="translate(0,0) scale(1,-1)" x="0" y="0">Gene_02078</text>
			</g>
			<g transform=" matrix(0.707107,0.707107,-0.707107,0.707107,515.092285,251.827897)">
				<text style="font-family: Helvetica; font-size: 10px;fill: rgb(0%,0%,0%); stroke:none;" transform="translate(0,0) scale(1,-1)" x="0" y="0">Gene_02079</text>
			</g>
			<g transform=" matrix(0.707107,0.707107,-0.707107,0.707107,534.722215,251.827897)">
				<text style="font-family: Helvetica; font-size: 10px;fill: rgb(0%,0%,0%); stroke:none;" transform="translate(0,0) scale(1,-1)" x="0" y="0">Gene_02080</text>
			</g>
			<g transform=" matrix(0.707107,0.707107,-0.707107,0.707107,555.253102,251.827897)">
				<text style="font-family: Helvetica; font-size: 10px;fill: rgb(0%,0%,0%); stroke:none;" transform="translate(0,0) scale(1,-1)" x="0" y="0">Gene_02081</text>
			</g>
			<g transform=" matrix(0.707107,0.707107,-0.707107,0.707107,581.517348,251.827897)">
				<text style="font-family: Helvetica; font-size: 10px;fill: rgb(0%,0%,0%); stroke:none;" transform="translate(0,0) scale(1,-1)" x="0" y="0">Gene_02082</text>
			</g>
			<g transform=" matrix(0.707107,0.707107,-0.707107,0.707107,594.485661,251.827897)">
				<text style="font-family: Helvetica; font-size: 10px;fill: rgb(0%,0%,0%); stroke:none;" transform="translate(0,0) scale(1,-1)" x="0" y="0">Gene_02083</text>
			</g>
			<g transform=" matrix(0.707107,0.707107,-0.707107,0.707107,630.469316,251.827897)">
				<text style="font-family: Helvetica; font-size: 10px;fill: rgb(0%,0%,0%); stroke:none;" transform="translate(0,0) scale(1,-1)" x="0" y="0">Gene_02084</text>
			</g>
			<g transform=" matrix(0.707107,0.707107,-0.707107,0.707107,679.694302,251.827897)">
				<text style="font-family: Helvetica; font-size: 10px;fill: rgb(0%,0%,0%); stroke:none;" transform="translate(0,0) scale(1,-1)" x="0" y="0">Gene_02085</text>
			</g>
			<g transform=" matrix(0.707107,-0.707107,0.707107,0.707107,711.145873,169.825647)">
				<text style="font-family: Helvetica; font-size: 16px;fill: rgb(0%,0%,100%); stroke:none;" transform="translate(0,0) scale(1,-1)" x="0" y="0">Gene_02086 (81.4)</text>
			</g>
			<g transform=" matrix(0.707107,-0.707107,0.707107,0.707107,745.518727,169.825647)">
				<text style="font-family: Helvetica; font-size: 10px;fill: rgb(0%,0%,0%); stroke:none;" transform="translate(0,0) scale(1,-1)" x="0" y="0">Gene_02087</text>
			</g>
			<g transform=" matrix(0.707107,-0.707107,0.707107,0.707107,772.602025,169.825647)">
				<text style="font-family: Helvetica; font-size: 10px;fill: rgb(0%,0%,0%); stroke:none;" transform="translate(0,0) scale(1,-1)" x="0" y="0">Gene_02088</text>
			</g>
			<g transform=" matrix(0.707107,-0.707107,0.707107,0.707107,792.504972,169.825647)">
				<text style="font-family: Helvetica; font-size: 10px;fill: rgb(0%,0%,0%); stroke:none;" transform="translate(0,0) scale(1,-1)" x="0" y="0">Gene_02089</text>
			</g>
			<g transform=" matrix(0.707107,0.707107,-0.707107,0.707107,828.761645,251.827897)">
				<text style="font-family: Helvetica; font-size: 10px;fill: rgb(0%,0%,0%); stroke:none;" transform="translate(0,0) scale(1,-1)" x="0" y="0">Gene_02090</text>
			</g>
			<g transform=" matrix(0.707107,0.707107,-0.707107,0.707107,911.840752,251.827897)">
				<text style="font-family: Helvetica; font-size: 10px;fill: rgb(0%,0%,0%); stroke:none;" transform="translate(0,0) scale(1,-1)" x="0" y="0">Gene_02091</text>
			</g>
			<g transform=" matrix(0.707107,-0.707107,0.707107,0.707107,1013.485023,169.825647)">
				<text style="font-family: Helvetica; font-size: 10px;fill: rgb(0%,0%,0%); stroke:none;" transform="translate(0,0) scale(1,-1)" x="0" y="0">Gene_02092</text>
			</g>
			<g transform=" matrix(0.707107,-0.707107,0.707107,0.707107,1059.816027,169.825647)">
				<text style="font-family: Helvetica; font-size: 10px;fill: rgb(0%,0%,0%); stroke:none;" transform="translate(0,0) scale(1,-1)" x="0" y="0">Gene_02093</text>
			</g>
			<g transform=" matrix(0.707107,0.707107,-0.707107,0.707107,1109.286728,251.827897)">
				<text style="font-family: Helvetica; font-size: 10px;fill: rgb(0%,0%,0%); stroke:none;" transform="translate(0,0) scale(1,-1)" x="0" y="0">Gene_02094</text>
			</g>
			<g transform=" matrix(0.707107,0.707107,-0.707107,0.707107,1160.641246,251.827897)">
				<text style="font-family: Helvetica; font-size: 10px;fill: rgb(0%,0%,0%); stroke:none;" transform="translate(0,0) scale(1,-1)" x="0" y="0">Gene_02095</text>
			</g>
			<g transform=" matrix(0.707107,0.707107,-0.707107,0.707107,1231.953316,251.827897)">
				<text style="font-family: Helvetica; font-size: 10px;fill: rgb(0%,0%,0%); stroke:none;" transform="translate(0,0) scale(1,-1)" x="0" y="0">Gene_02096</text>
			</g>
			<g transform=" matrix(0.707107,-0.707107,0.707107,0.707107,1306.268574,169.825647)">
				<text style="font-family: Helvetica; font-size: 10px;fill: rgb(0%,0%,0%); stroke:none;" transform="translate(0,0) scale(1,-1)" x="0" y="0">Gene_02097</text>
			</g>
			<g transform=" matrix(0.707107,-0.707107,0.707107,0.707107,1338.894119,169.825647)">
				<text style="font-family: Helvetica; font-size: 10px;fill: rgb(0%,0%,0%); stroke:none;" transform="translate(0,0) scale(1,-1)" x="0" y="0">Gene_02098</text>
			</g>
			<g transform=" matrix(0.707107,-0.707107,0.707107,0.707107,119.763507,456.833521)">
				<text style="font-family: Helvetica; font-size: 10px;fill: rgb(0%,0%,0%); stroke:none;" transform="translate(0,0) scale(1,-1)" x="0" y="0">Gene_00489</text>
			</g>
			<g transform=" matrix(0.707107,-0.707107,0.707107,0.707107,155.747162,456.833521)">
				<text style="font-family: Helvetica; font-size: 16px;fill: rgb(0%,0%,100%); stroke:none;" transform="translate(0,0) scale(1,-1)" x="0" y="0">Gene_00490 (81.4)</text>
			</g>
			<g transform=" matrix(0.707107,-0.707107,0.707107,0.707107,194.242575,456.833521)">
				<text style="font-family: Helvetica; font-size: 10px;fill: rgb(0%,0%,0%); stroke:none;" transform="translate(0,0) scale(1,-1)" x="0" y="0">Gene_00491</text>
			</g>
			<g transform=" matrix(0.707107,0.707107,-0.707107,0.707107,259.602871,538.835771)">
				<text style="font-family: Helvetica; font-size: 10px;fill: rgb(0%,0%,0%); stroke:none;" transform="translate(0,0) scale(1,-1)" x="0" y="0">Gene_00492</text>
			</g>
			<g transform=" matrix(0.707107,0.707107,-0.707107,0.707107,313.66026,538.835771)">
				<text style="font-family: Helvetica; font-size: 10px;fill: rgb(0%,0%,0%); stroke:none;" transform="translate(0,0) scale(1,-1)" x="0" y="0">Gene_00493</text>
			</g>
			<g transform=" matrix(0.707107,-0.707107,0.707107,0.707107,355.158861,456.833521)">
				<text style="font-family: Helvetica; font-size: 10px;fill: rgb(0%,0%,0%); stroke:none;" transform="translate(0,0) scale(1,-1)" x="0" y="0">Gene_00494</text>
			</g>
			<g transform=" matrix(0.707107,-0.707107,0.707107,0.707107,400.752718,456.833521)">
				<text style="font-family: Helvetica; font-size: 10px;fill: rgb(0%,0%,0%); stroke:none;" transform="translate(0,0) scale(1,-1)" x="0" y="0">Gene_00495</text>
			</g>
			<g transform=" matrix(0.707107,-0.707107,0.707107,0.707107,448.694523,456.833521)">
				<text style="font-family: Helvetica; font-size: 10px;fill: rgb(0%,0%,0%); stroke:none;" transform="translate(0,0) scale(1,-1)" x="0" y="0">Gene_00496</text>
			</g>
			<g transform=" matrix(0.707107,-0.707107,0.707107,0.707107,499.776025,456.833521)">
				<text style="font-family: Helvetica; font-size: 10px;fill: rgb(0%,0%,0%); stroke:none;" transform="translate(0,0) scale(1,-1)" x="0" y="0">Gene_00497</text>
			</g>
			<g transform=" matrix(0.707107,0.707107,-0.707107,0.707107,547.908942,538.835771)">
				<text style="font-family: Helvetica; font-size: 10px;fill: rgb(0%,0%,0%); stroke:none;" transform="translate(0,0) scale(1,-1)" x="0" y="0">Gene_00498</text>
			</g>
			<g transform=" matrix(0.707107,0.707107,-0.707107,0.707107,601.666011,538.835771)">
				<text style="font-family: Helvetica; font-size: 10px;fill: rgb(0%,0%,0%); stroke:none;" transform="translate(0,0) scale(1,-1)" x="0" y="0">Gene_00499</text>
			</g>
			<g transform=" matrix(0.707107,0.707107,-0.707107,0.707107,685.373058,538.835771)">
				<text style="font-family: Helvetica; font-size: 10px;fill: rgb(0%,0%,0%); stroke:none;" transform="translate(0,0) scale(1,-1)" x="0" y="0">Gene_00500</text>
			</g>
			<g transform=" matrix(0.707107,0.707107,-0.707107,0.707107,761.490229,538.835771)">
				<text style="font-family: Helvetica; font-size: 10px;fill: rgb(0%,0%,0%); stroke:none;" transform="translate(0,0) scale(1,-1)" x="0" y="0">Gene_00501</text>
			</g>
			<g transform=" matrix(1,0,-0,1,70,169.825647)">
				<text style="font-family: Helvetica; font-size: 12px;fill: rgb(60%,60%,60%); stroke:none;" transform="translate(0,0) scale(1,-1)" x="0" y="0">megahit_61811 (left 23287bp, right 11449bp)</text>
			</g>
			<g transform=" matrix(1,0,-0,1,70,456.833521)">
				<text style="font-family: Helvetica; font-size: 12px;fill: rgb(60%,60%,60%); stroke:none;" transform="translate(0,0) scale(1,-1)" x="0" y="0">megahit_6139 (left 1333bp, right 46685bp)</text>
			</g>
		</g>
	</g>
</svg>
