<?xml version="1.0" encoding="utf-8"?>
<!DOCTYPE svg
  PUBLIC '-//W3C//DTD SVG 1.0//EN'
  'http://www.w3.org/TR/2001/REC-SVG-20010904/DTD/svg10.dtd'>
<svg fill-rule="evenodd" height="708.6614173228346" preserveAspectRatio="xMinYMin meet" version="1.0" viewBox="0 0 1417 708" width="1417.3228346456692" xmlns="http://www.w3.org/2000/svg" xmlns:xlink="http://www.w3.org/1999/xlink">
	<title>...</title>
	<desc>...</desc>
	<clipPath id="clip">
		<rect height="708.6614173228346" width="1417.3228346456692" x="0" y="0"/>
	</clipPath>
	<g id="group" style="clip-path: url(#clip)" transform="scale(1,-1) translate(0,-708)">
		<g transform="">
			<polygon points="70.86614 169.8256, 1346.387 169.8256, 1346.387 251.8279, 70.86614 251.8279" style="stroke: rgb(96%,96%,96%); stroke-linecap: butt; stroke-width: 1; fill: rgb(96%,96%,96%); fill-rule: evenodd;"/>
			<polygon points="70.86614 456.8335, 1026.288 456.8335, 1026.288 538.8358, 70.86614 538.8358" style="stroke: rgb(96%,96%,96%); stroke-linecap: butt; stroke-width: 1; fill: rgb(96%,96%,96%); fill-rule: evenodd;"/>
			<polygon points="794.4321 456.8335, 970.988 456.8335, 911.2306 251.8279, 734.605 251.8279" style="stroke: rgb(100%,57%,57%); stroke-linecap: round; stroke-width: 1; fill: rgb(100%,57%,57%); fill-rule: evenodd;"/>
			<polygon points="594.6139 456.8335, 669.2062 456.8335, 609.8667 251.8279, 535.2744 251.8279" style="stroke: rgb(100%,64%,64%); stroke-linecap: round; stroke-width: 1; fill: rgb(100%,64%,64%); fill-rule: evenodd;"/>
			<polygon points="415.4114 456.8335, 468.5523 456.8335, 407.7502 251.8279, 352.9378 251.8279" style="stroke: rgb(100%,65%,65%); stroke-linecap: round; stroke-width: 1; fill: rgb(100%,65%,65%); fill-rule: evenodd;"/>
			<polygon points="1001.563 456.8335, 1026.288 456.8335, 968.8986 251.8279, 944.1738 251.8279" style="stroke: rgb(100%,53%,53%); stroke-linecap: round; stroke-width: 1; fill: rgb(100%,53%,53%); fill-rule: evenodd;"/>
			<polygon points="227.3637 456.8335, 242.4771 456.8335, 165.3079 251.8279, 150.1944 251.8279" style="stroke: rgb(100%,51%,51%); stroke-linecap: round; stroke-width: 1; fill: rgb(100%,51%,51%); fill-rule: evenodd;"/>
			<polygon points="279.3902 456.8335, 303.1399 456.8335, 234.6766 251.8279, 210.7179 251.8279" style="stroke: rgb(100%,61%,61%); stroke-linecap: round; stroke-width: 1; fill: rgb(100%,61%,61%); fill-rule: evenodd;"/>
			<polygon points="355.0272 456.8335, 383.6522 456.8335, 318.4623 251.8279, 289.8373 251.8279" style="stroke: rgb(100%,68%,68%); stroke-linecap: round; stroke-width: 1; fill: rgb(100%,68%,68%); fill-rule: evenodd;"/>
			<polygon points="186.9682 456.8335, 217.6827 456.8335, 135.9864 251.8279, 105.2719 251.8279" style="stroke: rgb(100%,70%,70%); stroke-linecap: round; stroke-width: 1; fill: rgb(100%,70%,70%); fill-rule: evenodd;"/>
			<polygon points="141.4885 200.5765, 100.7085 200.5765, 100.7085 210.8268, 84.30807 190.3262, 100.7085 169.8256, 100.7085 180.0759, 141.4885 180.0759" style="stroke: rgb(56%,93%,56%); stroke-linecap: round; stroke-width: 1; fill: rgb(56%,93%,56%); fill-rule: evenodd;"/>
			<polygon points="176.3818 200.5765, 159.2123 200.5765, 159.2123 210.8268, 142.8118 190.3262, 159.2123 169.8256, 159.2123 180.0759, 176.3818 180.0759" style="stroke: rgb(56%,93%,56%); stroke-linecap: round; stroke-width: 1; fill: rgb(56%,93%,56%); fill-rule: evenodd;"/>
			<polygon points="211.1358 200.5765, 193.7573 200.5765, 193.7573 210.8268, 177.3569 190.3262, 193.7573 169.8256, 193.7573 180.0759, 211.1358 180.0759" style="stroke: rgb(56%,93%,56%); stroke-linecap: round; stroke-width: 1; fill: rgb(56%,93%,56%); fill-rule: evenodd;"/>
			<polygon points="269.152 200.5765, 226.9095 200.5765, 226.9095 210.8268, 210.509 190.3262, 226.9095 169.8256, 226.9095 180.0759, 269.152 180.0759" style="stroke: rgb(56%,93%,56%); stroke-linecap: round; stroke-width: 1; fill: rgb(56%,93%,56%); fill-rule: evenodd;"/>
			<polygon points="373.2748 200.5765, 293.0048 200.5765, 293.0048 210.8268, 276.6043 190.3262, 293.0048 169.8256, 293.0048 180.0759, 373.2748 180.0759" style="stroke: rgb(56%,93%,56%); stroke-linecap: round; stroke-width: 1; fill: rgb(56%,93%,56%); fill-rule: evenodd;"/>
			<polygon points="388.5972 200.5765, 388.5972 210.8268, 376.3393 190.3262, 388.5972 169.8256, 388.5972 180.0759" style="stroke: rgb(56%,93%,56%); stroke-linecap: round; stroke-width: 1; fill: rgb(56%,93%,56%); fill-rule: evenodd;"/>
			<polygon points="473.5669 200.5765, 408.1318 200.5765, 408.1318 210.8268, 391.7313 190.3262, 408.1318 169.8256, 408.1318 180.0759, 473.5669 180.0759" style="stroke: rgb(56%,93%,56%); stroke-linecap: round; stroke-width: 1; fill: rgb(56%,93%,56%); fill-rule: evenodd;"/>
			<polygon points="519.6734 200.5765, 493.3104 200.5765, 493.3104 210.8268, 476.91 190.3262, 493.3104 169.8256, 493.3104 180.0759, 519.6734 180.0759" style="stroke: rgb(56%,93%,56%); stroke-linecap: round; stroke-width: 1; fill: rgb(56%,93%,56%); fill-rule: evenodd;"/>
			<polygon points="608.5434 200.5765, 542.2725 200.5765, 542.2725 210.8268, 525.872 190.3262, 542.2725 169.8256, 542.2725 180.0759, 608.5434 180.0759" style="stroke: rgb(56%,93%,56%); stroke-linecap: round; stroke-width: 1; fill: rgb(56%,93%,56%); fill-rule: evenodd;"/>
			<polygon points="673.3851 200.5765, 621.949 200.5765, 621.949 210.8268, 605.5486 190.3262, 621.949 169.8256, 621.949 180.0759, 673.3851 180.0759" style="stroke: rgb(56%,93%,56%); stroke-linecap: round; stroke-width: 1; fill: rgb(56%,93%,56%); fill-rule: evenodd;"/>
			<polygon points="709.1141 200.5765, 707.1973 200.5765, 707.1973 210.8268, 690.7969 190.3262, 707.1973 169.8256, 707.1973 180.0759, 709.1141 180.0759" style="stroke: rgb(56%,93%,56%); stroke-linecap: round; stroke-width: 1; fill: rgb(56%,93%,56%); fill-rule: evenodd;"/>
			<polygon points="715.5217 241.5776, 715.9759 241.5776, 715.9759 251.8279, 732.3763 231.3273, 715.9759 210.8268, 715.9759 221.0771, 715.5217 221.0771" style="stroke: rgb(67%,84%,90%); stroke-linecap: round; stroke-width: 1; fill: rgb(67%,84%,90%); fill-rule: evenodd;"/>
			<polygon points="766.1553 200.5765, 748.5678 200.5765, 748.5678 210.8268, 732.1674 190.3262, 748.5678 169.8256, 748.5678 180.0759, 766.1553 180.0759" style="stroke: rgb(56%,93%,56%); stroke-linecap: round; stroke-width: 1; fill: rgb(56%,93%,56%); fill-rule: evenodd;"/>
			<polygon points="812.819 200.5765, 785.4113 200.5765, 785.4113 210.8268, 769.0108 190.3262, 785.4113 169.8256, 785.4113 180.0759, 812.819 180.0759" style="stroke: rgb(56%,93%,56%); stroke-linecap: round; stroke-width: 1; fill: rgb(56%,93%,56%); fill-rule: evenodd;"/>
			<polygon points="884.4164 200.5765, 830.682 200.5765, 830.682 210.8268, 814.2816 190.3262, 830.682 169.8256, 830.682 180.0759, 884.4164 180.0759" style="stroke: rgb(56%,93%,56%); stroke-linecap: round; stroke-width: 1; fill: rgb(56%,93%,56%); fill-rule: evenodd;"/>
			<polygon points="936.7215 200.5765, 905.5529 200.5765, 905.5529 210.8268, 889.1524 190.3262, 905.5529 169.8256, 905.5529 180.0759, 936.7215 180.0759" style="stroke: rgb(56%,93%,56%); stroke-linecap: round; stroke-width: 1; fill: rgb(56%,93%,56%); fill-rule: evenodd;"/>
			<polygon points="1069.539 200.5765, 960.6439 200.5765, 960.6439 210.8268, 944.2435 190.3262, 960.6439 169.8256, 960.6439 180.0759, 1069.539 180.0759" style="stroke: rgb(56%,93%,56%); stroke-linecap: round; stroke-width: 1; fill: rgb(56%,93%,56%); fill-rule: evenodd;"/>
			<polygon points="1093.358 200.5765, 1093.358 210.8268, 1077.966 190.3262, 1093.358 169.8256, 1093.358 180.0759" style="stroke: rgb(56%,93%,56%); stroke-linecap: round; stroke-width: 1; fill: rgb(56%,93%,56%); fill-rule: evenodd;"/>
			<polygon points="1119.337 241.5776, 1161.37 241.5776, 1161.37 251.8279, 1177.771 231.3273, 1161.37 210.8268, 1161.37 221.0771, 1119.337 221.0771" style="stroke: rgb(67%,84%,90%); stroke-linecap: round; stroke-width: 1; fill: rgb(67%,84%,90%); fill-rule: evenodd;"/>
			<polygon points="1198.595 200.5765, 1198.595 210.8268, 1184.666 190.3262, 1198.595 169.8256, 1198.595 180.0759" style="stroke: rgb(56%,93%,56%); stroke-linecap: round; stroke-width: 1; fill: rgb(56%,93%,56%); fill-rule: evenodd;"/>
			<polygon points="1229.728 200.5765, 1227.602 200.5765, 1227.602 210.8268, 1211.202 190.3262, 1227.602 169.8256, 1227.602 180.0759, 1229.728 180.0759" style="stroke: rgb(56%,93%,56%); stroke-linecap: round; stroke-width: 1; fill: rgb(56%,93%,56%); fill-rule: evenodd;"/>
			<polygon points="1297.773 200.5765, 1248.636 200.5765, 1248.636 210.8268, 1232.235 190.3262, 1248.636 169.8256, 1248.636 180.0759, 1297.773 180.0759" style="stroke: rgb(56%,93%,56%); stroke-linecap: round; stroke-width: 1; fill: rgb(56%,93%,56%); fill-rule: evenodd;"/>
			<polygon points="1336.427 200.5765, 1332.839 200.5765, 1332.839 210.8268, 1316.439 190.3262, 1332.839 169.8256, 1332.839 180.0759, 1336.427 180.0759" style="stroke: rgb(56%,93%,56%); stroke-linecap: round; stroke-width: 1; fill: rgb(56%,93%,56%); fill-rule: evenodd;"/>
			<polygon points="70.86614 528.5855, 107.4673 528.5855, 107.4673 538.8358, 123.8677 518.3352, 107.4673 497.8346, 107.4673 508.0849, 70.86614 508.0849" style="stroke: rgb(67%,84%,90%); stroke-linecap: round; stroke-width: 1; fill: rgb(67%,84%,90%); fill-rule: evenodd;"/>
			<polygon points="162.3131 487.5844, 136.3679 487.5844, 136.3679 497.8346, 119.9675 477.3341, 136.3679 456.8335, 136.3679 467.0838, 162.3131 467.0838" style="stroke: rgb(56%,93%,56%); stroke-linecap: round; stroke-width: 1; fill: rgb(56%,93%,56%); fill-rule: evenodd;"/>
			<polygon points="219.6328 487.5844, 186.7926 487.5844, 186.7926 497.8346, 170.3922 477.3341, 186.7926 456.8335, 186.7926 467.0838, 219.6328 467.0838" style="stroke: rgb(56%,93%,56%); stroke-linecap: round; stroke-width: 1; fill: rgb(56%,93%,56%); fill-rule: evenodd;"/>
			<polygon points="249.7901 487.5844, 236.3815 487.5844, 236.3815 497.8346, 219.981 477.3341, 236.3815 456.8335, 236.3815 467.0838, 249.7901 467.0838" style="stroke: rgb(56%,93%,56%); stroke-linecap: round; stroke-width: 1; fill: rgb(56%,93%,56%); fill-rule: evenodd;"/>
			<polygon points="279.8081 487.5844, 265.9816 487.5844, 265.9816 497.8346, 249.5811 477.3341, 265.9816 456.8335, 265.9816 467.0838, 279.8081 467.0838" style="stroke: rgb(56%,93%,56%); stroke-linecap: round; stroke-width: 1; fill: rgb(56%,93%,56%); fill-rule: evenodd;"/>
			<polygon points="334.6902 487.5844, 295.3728 487.5844, 295.3728 497.8346, 278.9723 477.3341, 295.3728 456.8335, 295.3728 467.0838, 334.6902 467.0838" style="stroke: rgb(56%,93%,56%); stroke-linecap: round; stroke-width: 1; fill: rgb(56%,93%,56%); fill-rule: evenodd;"/>
			<polygon points="431.7785 487.5844, 358.1946 487.5844, 358.1946 497.8346, 341.7942 477.3341, 358.1946 456.8335, 358.1946 467.0838, 431.7785 467.0838" style="stroke: rgb(56%,93%,56%); stroke-linecap: round; stroke-width: 1; fill: rgb(56%,93%,56%); fill-rule: evenodd;"/>
			<polygon points="450.3047 487.5844, 450.3047 497.8346, 438.0468 477.3341, 450.3047 456.8335, 450.3047 467.0838" style="stroke: rgb(56%,93%,56%); stroke-linecap: round; stroke-width: 1; fill: rgb(56%,93%,56%); fill-rule: evenodd;"/>
			<polygon points="536.8763 487.5844, 468.7249 487.5844, 468.7249 497.8346, 452.3245 477.3341, 468.7249 456.8335, 468.7249 467.0838, 536.8763 467.0838" style="stroke: rgb(56%,93%,56%); stroke-linecap: round; stroke-width: 1; fill: rgb(56%,93%,56%); fill-rule: evenodd;"/>
			<polygon points="586.5349 487.5844, 553.0678 487.5844, 553.0678 497.8346, 536.6674 477.3341, 553.0678 456.8335, 553.0678 467.0838, 586.5349 467.0838" style="stroke: rgb(56%,93%,56%); stroke-linecap: round; stroke-width: 1; fill: rgb(56%,93%,56%); fill-rule: evenodd;"/>
			<polygon points="669.9723 487.5844, 600.5673 487.5844, 600.5673 497.8346, 584.1668 477.3341, 600.5673 456.8335, 600.5673 467.0838, 669.9723 467.0838" style="stroke: rgb(56%,93%,56%); stroke-linecap: round; stroke-width: 1; fill: rgb(56%,93%,56%); fill-rule: evenodd;"/>
			<polygon points="733.421 487.5844, 686.1638 487.5844, 686.1638 497.8346, 669.7634 477.3341, 686.1638 456.8335, 686.1638 467.0838, 733.421 467.0838" style="stroke: rgb(56%,93%,56%); stroke-linecap: round; stroke-width: 1; fill: rgb(56%,93%,56%); fill-rule: evenodd;"/>
			<polygon points="762.6033 487.5844, 762.6033 497.8346, 748.047 477.3341, 762.6033 456.8335, 762.6033 467.0838" style="stroke: rgb(56%,93%,56%); stroke-linecap: round; stroke-width: 1; fill: rgb(56%,93%,56%); fill-rule: evenodd;"/>
			<polygon points="771.0306 528.5855, 771.6937 528.5855, 771.6937 538.8358, 788.0942 518.3352, 771.6937 497.8346, 771.6937 508.0849, 771.0306 508.0849" style="stroke: rgb(67%,84%,90%); stroke-linecap: round; stroke-width: 1; fill: rgb(67%,84%,90%); fill-rule: evenodd;"/>
			<polygon points="825.9823 487.5844, 808.3949 487.5844, 808.3949 497.8346, 791.9944 477.3341, 808.3949 456.8335, 808.3949 467.0838, 825.9823 467.0838" style="stroke: rgb(56%,93%,56%); stroke-linecap: round; stroke-width: 1; fill: rgb(56%,93%,56%); fill-rule: evenodd;"/>
			<polygon points="872.1585 487.5844, 844.7508 487.5844, 844.7508 497.8346, 828.3503 477.3341, 844.7508 456.8335, 844.7508 467.0838, 872.1585 467.0838" style="stroke: rgb(56%,93%,56%); stroke-linecap: round; stroke-width: 1; fill: rgb(56%,93%,56%); fill-rule: evenodd;"/>
			<polygon points="948.0741 487.5844, 889.7429 487.5844, 889.7429 497.8346, 873.3425 477.3341, 889.7429 456.8335, 889.7429 467.0838, 948.0741 467.0838" style="stroke: rgb(56%,93%,56%); stroke-linecap: round; stroke-width: 1; fill: rgb(56%,93%,56%); fill-rule: evenodd;"/>
			<polygon points="997.3147 487.5844, 965.3103 487.5844, 965.3103 497.8346, 948.9098 477.3341, 965.3103 456.8335, 965.3103 467.0838, 997.3147 467.0838" style="stroke: rgb(56%,93%,56%); stroke-linecap: round; stroke-width: 1; fill: rgb(56%,93%,56%); fill-rule: evenodd;"/>
			<polygon points="1018.696 487.5844, 1018.033 487.5844, 1018.033 497.8346, 1001.633 477.3341, 1018.033 456.8335, 1018.033 467.0838, 1018.696 467.0838" style="stroke: rgb(56%,93%,56%); stroke-linecap: round; stroke-width: 1; fill: rgb(56%,93%,56%); fill-rule: evenodd;"/>
			<path d="M 1346.387046,169.825647 L 1346.387046,251.827897 Z" style="stroke: rgb(0%,0%,0%); stroke-linecap: butt; stroke-width: 1;"/>
			<path d="M 70.866142,210.826772 L 1346.387046,210.826772 Z" style="stroke: rgb(0%,0%,0%); stroke-linecap: butt; stroke-width: 1;"/>
			<path d="M 70.866142,169.825647 L 70.866142,251.827897 Z" style="stroke: rgb(0%,0%,0%); stroke-linecap: butt; stroke-width: 1;"/>
			<path d="M 767.339279,210.826772 L 767.339279,231.327334 Z" style="stroke: rgb(0%,0%,0%); stroke-linecap: butt; stroke-width: 1;"/>
			<path d="M 767.339279,210.826772 L 767.339279,223.127109 Z" style="stroke: rgb(0%,0%,0%); stroke-linecap: butt; stroke-width: 1;"/>
			<path d="M 1026.287992,456.833521 L 1026.287992,538.835771 Z" style="stroke: rgb(0%,0%,0%); stroke-linecap: butt; stroke-width: 1;"/>
			<path d="M 70.866142,497.834646 L 1026.287992,497.834646 Z" style="stroke: rgb(0%,0%,0%); stroke-linecap: butt; stroke-width: 1;"/>
			<path d="M 70.866142,456.833521 L 70.866142,538.835771 Z" style="stroke: rgb(0%,0%,0%); stroke-linecap: butt; stroke-width: 1;"/>
			<path d="M 767.339279,497.834646 L 767.339279,518.335208 Z" style="stroke: rgb(0%,0%,0%); stroke-linecap: butt; stroke-width: 1;"/>
			<path d="M 767.339279,497.834646 L 767.339279,510.134983 Z" style="stroke: rgb(0%,0%,0%); stroke-linecap: butt; stroke-width: 1;"/>
			<g transform=" matrix(0.707107,0.707107,-0.707107,0.707107,767.339279,231.327334)">
				<text style="font-family: Helvetica; font-size: 6px;fill: rgb(0%,0%,0%); stroke:none;" transform="translate(0,0) scale(1,-1)" x="0" y="0">10000</text>
			</g>
			<g transform=" matrix(0.707107,0.707107,-0.707107,0.707107,767.339279,518.335208)">
				<text style="font-family: Helvetica; font-size: 6px;fill: rgb(0%,0%,0%); stroke:none;" transform="translate(0,0) scale(1,-1)" x="0" y="0">10000</text>
			</g>
			<g transform=" matrix(0.707107,-0.707107,0.707107,0.707107,112.898296,169.825647)">
				<text style="font-family: Helvetica; font-size: 10px;fill: rgb(0%,0%,0%); stroke:none;" transform="translate(0,0) scale(1,-1)" x="0" y="0">Gene_02686</text>
			</g>
			<g transform=" matrix(0.707107,-0.707107,0.707107,0.707107,159.596819,169.825647)">
				<text style="font-family: Helvetica; font-size: 10px;fill: rgb(0%,0%,0%); stroke:none;" transform="translate(0,0) scale(1,-1)" x="0" y="0">Gene_02687</text>
			</g>
			<g transform=" matrix(0.707107,-0.707107,0.707107,0.707107,194.246358,169.825647)">
				<text style="font-family: Helvetica; font-size: 10px;fill: rgb(0%,0%,0%); stroke:none;" transform="translate(0,0) scale(1,-1)" x="0" y="0">Gene_02688</text>
			</g>
			<g transform=" matrix(0.707107,-0.707107,0.707107,0.707107,239.830525,169.825647)">
				<text style="font-family: Helvetica; font-size: 10px;fill: rgb(0%,0%,0%); stroke:none;" transform="translate(0,0) scale(1,-1)" x="0" y="0">Gene_02689</text>
			</g>
			<g transform=" matrix(0.707107,-0.707107,0.707107,0.707107,324.939542,169.825647)">
				<text style="font-family: Helvetica; font-size: 10px;fill: rgb(0%,0%,0%); stroke:none;" transform="translate(0,0) scale(1,-1)" x="0" y="0">Gene_02690</text>
			</g>
			<g transform=" matrix(0.707107,-0.707107,0.707107,0.707107,382.468223,169.825647)">
				<text style="font-family: Helvetica; font-size: 10px;fill: rgb(0%,0%,0%); stroke:none;" transform="translate(0,0) scale(1,-1)" x="0" y="0">Gene_02691</text>
			</g>
			<g transform=" matrix(0.707107,-0.707107,0.707107,0.707107,432.649113,169.825647)">
				<text style="font-family: Helvetica; font-size: 10px;fill: rgb(0%,0%,0%); stroke:none;" transform="translate(0,0) scale(1,-1)" x="0" y="0">Gene_02692</text>
			</g>
			<g transform=" matrix(0.707107,-0.707107,0.707107,0.707107,498.291706,169.825647)">
				<text style="font-family: Helvetica; font-size: 10px;fill: rgb(0%,0%,0%); stroke:none;" transform="translate(0,0) scale(1,-1)" x="0" y="0">Gene_02693</text>
			</g>
			<g transform=" matrix(0.707107,-0.707107,0.707107,0.707107,567.207723,169.825647)">
				<text style="font-family: Helvetica; font-size: 10px;fill: rgb(0%,0%,0%); stroke:none;" transform="translate(0,0) scale(1,-1)" x="0" y="0">Gene_02694</text>
			</g>
			<g transform=" matrix(0.707107,-0.707107,0.707107,0.707107,639.466811,169.825647)">
				<text style="font-family: Helvetica; font-size: 10px;fill: rgb(0%,0%,0%); stroke:none;" transform="translate(0,0) scale(1,-1)" x="0" y="0">Gene_02695</text>
			</g>
			<g transform=" matrix(0.707107,-0.707107,0.707107,0.707107,699.955503,169.825647)">
				<text style="font-family: Helvetica; font-size: 10px;fill: rgb(0%,0%,0%); stroke:none;" transform="translate(0,0) scale(1,-1)" x="0" y="0">Gene_02696</text>
			</g>
			<g transform=" matrix(0.707107,0.707107,-0.707107,0.707107,723.949003,251.827897)">
				<text style="font-family: Helvetica; font-size: 10px;fill: rgb(0%,0%,0%); stroke:none;" transform="translate(0,0) scale(1,-1)" x="0" y="0">Gene_02697</text>
			</g>
			<g transform=" matrix(0.707107,-0.707107,0.707107,0.707107,749.16133,169.825647)">
				<text style="font-family: Helvetica; font-size: 16px;fill: rgb(0%,0%,100%); stroke:none;" transform="translate(0,0) scale(1,-1)" x="0" y="0">Gene_02698 (83.1)</text>
			</g>
			<g transform=" matrix(0.707107,-0.707107,0.707107,0.707107,790.914895,169.825647)">
				<text style="font-family: Helvetica; font-size: 10px;fill: rgb(0%,0%,0%); stroke:none;" transform="translate(0,0) scale(1,-1)" x="0" y="0">Gene_02699</text>
			</g>
			<g transform=" matrix(0.707107,-0.707107,0.707107,0.707107,849.348991,169.825647)">
				<text style="font-family: Helvetica; font-size: 10px;fill: rgb(0%,0%,0%); stroke:none;" transform="translate(0,0) scale(1,-1)" x="0" y="0">Gene_02700</text>
			</g>
			<g transform=" matrix(0.707107,-0.707107,0.707107,0.707107,912.936989,169.825647)">
				<text style="font-family: Helvetica; font-size: 10px;fill: rgb(0%,0%,0%); stroke:none;" transform="translate(0,0) scale(1,-1)" x="0" y="0">Gene_02701</text>
			</g>
			<g transform=" matrix(0.707107,-0.707107,0.707107,0.707107,1006.891215,169.825647)">
				<text style="font-family: Helvetica; font-size: 10px;fill: rgb(0%,0%,0%); stroke:none;" transform="translate(0,0) scale(1,-1)" x="0" y="0">Gene_02702</text>
			</g>
			<g transform=" matrix(0.707107,-0.707107,0.707107,0.707107,1085.662327,169.825647)">
				<text style="font-family: Helvetica; font-size: 10px;fill: rgb(0%,0%,0%); stroke:none;" transform="translate(0,0) scale(1,-1)" x="0" y="0">Gene_02703</text>
			</g>
			<g transform=" matrix(0.707107,0.707107,-0.707107,0.707107,1148.553851,251.827897)">
				<text style="font-family: Helvetica; font-size: 10px;fill: rgb(0%,0%,0%); stroke:none;" transform="translate(0,0) scale(1,-1)" x="0" y="0">Gene_02704</text>
			</g>
			<g transform=" matrix(0.707107,-0.707107,0.707107,0.707107,1191.630714,169.825647)">
				<text style="font-family: Helvetica; font-size: 10px;fill: rgb(0%,0%,0%); stroke:none;" transform="translate(0,0) scale(1,-1)" x="0" y="0">Gene_02705</text>
			</g>
			<g transform=" matrix(0.707107,-0.707107,0.707107,0.707107,1220.464702,169.825647)">
				<text style="font-family: Helvetica; font-size: 10px;fill: rgb(0%,0%,0%); stroke:none;" transform="translate(0,0) scale(1,-1)" x="0" y="0">Gene_02706</text>
			</g>
			<g transform=" matrix(0.707107,-0.707107,0.707107,0.707107,1265.004159,169.825647)">
				<text style="font-family: Helvetica; font-size: 10px;fill: rgb(0%,0%,0%); stroke:none;" transform="translate(0,0) scale(1,-1)" x="0" y="0">Gene_02707</text>
			</g>
			<g transform=" matrix(0.707107,-0.707107,0.707107,0.707107,1326.43309,169.825647)">
				<text style="font-family: Helvetica; font-size: 10px;fill: rgb(0%,0%,0%); stroke:none;" transform="translate(0,0) scale(1,-1)" x="0" y="0">Gene_02708</text>
			</g>
			<g transform=" matrix(0.707107,0.707107,-0.707107,0.707107,97.366945,538.835771)">
				<text style="font-family: Helvetica; font-size: 10px;fill: rgb(0%,0%,0%); stroke:none;" transform="translate(0,0) scale(1,-1)" x="0" y="0">Gene_02025</text>
			</g>
			<g transform=" matrix(0.707107,-0.707107,0.707107,0.707107,141.140281,456.833521)">
				<text style="font-family: Helvetica; font-size: 10px;fill: rgb(0%,0%,0%); stroke:none;" transform="translate(0,0) scale(1,-1)" x="0" y="0">Gene_02026</text>
			</g>
			<g transform=" matrix(0.707107,-0.707107,0.707107,0.707107,195.012478,456.833521)">
				<text style="font-family: Helvetica; font-size: 10px;fill: rgb(0%,0%,0%); stroke:none;" transform="translate(0,0) scale(1,-1)" x="0" y="0">Gene_02027</text>
			</g>
			<g transform=" matrix(0.707107,-0.707107,0.707107,0.707107,234.885566,456.833521)">
				<text style="font-family: Helvetica; font-size: 10px;fill: rgb(0%,0%,0%); stroke:none;" transform="translate(0,0) scale(1,-1)" x="0" y="0">Gene_02028</text>
			</g>
			<g transform=" matrix(0.707107,-0.707107,0.707107,0.707107,264.694616,456.833521)">
				<text style="font-family: Helvetica; font-size: 10px;fill: rgb(0%,0%,0%); stroke:none;" transform="translate(0,0) scale(1,-1)" x="0" y="0">Gene_02029</text>
			</g>
			<g transform=" matrix(0.707107,-0.707107,0.707107,0.707107,306.831241,456.833521)">
				<text style="font-family: Helvetica; font-size: 10px;fill: rgb(0%,0%,0%); stroke:none;" transform="translate(0,0) scale(1,-1)" x="0" y="0">Gene_02030</text>
			</g>
			<g transform=" matrix(0.707107,-0.707107,0.707107,0.707107,386.786357,456.833521)">
				<text style="font-family: Helvetica; font-size: 10px;fill: rgb(0%,0%,0%); stroke:none;" transform="translate(0,0) scale(1,-1)" x="0" y="0">Gene_02031</text>
			</g>
			<g transform=" matrix(0.707107,-0.707107,0.707107,0.707107,444.175743,456.833521)">
				<text style="font-family: Helvetica; font-size: 10px;fill: rgb(0%,0%,0%); stroke:none;" transform="translate(0,0) scale(1,-1)" x="0" y="0">Gene_02032</text>
			</g>
			<g transform=" matrix(0.707107,-0.707107,0.707107,0.707107,494.600399,456.833521)">
				<text style="font-family: Helvetica; font-size: 10px;fill: rgb(0%,0%,0%); stroke:none;" transform="translate(0,0) scale(1,-1)" x="0" y="0">Gene_02033</text>
			</g>
			<g transform=" matrix(0.707107,-0.707107,0.707107,0.707107,561.601114,456.833521)">
				<text style="font-family: Helvetica; font-size: 10px;fill: rgb(0%,0%,0%); stroke:none;" transform="translate(0,0) scale(1,-1)" x="0" y="0">Gene_02034</text>
			</g>
			<g transform=" matrix(0.707107,-0.707107,0.707107,0.707107,627.069589,456.833521)">
				<text style="font-family: Helvetica; font-size: 10px;fill: rgb(0%,0%,0%); stroke:none;" transform="translate(0,0) scale(1,-1)" x="0" y="0">Gene_02035</text>
			</g>
			<g transform=" matrix(0.707107,-0.707107,0.707107,0.707107,701.592215,456.833521)">
				<text style="font-family: Helvetica; font-size: 10px;fill: rgb(0%,0%,0%); stroke:none;" transform="translate(0,0) scale(1,-1)" x="0" y="0">Gene_02036</text>
			</g>
			<g transform=" matrix(0.707107,-0.707107,0.707107,0.707107,755.325118,456.833521)">
				<text style="font-family: Helvetica; font-size: 10px;fill: rgb(0%,0%,0%); stroke:none;" transform="translate(0,0) scale(1,-1)" x="0" y="0">Gene_02037</text>
			</g>
			<g transform=" matrix(0.707107,0.707107,-0.707107,0.707107,779.562383,538.835771)">
				<text style="font-family: Helvetica; font-size: 10px;fill: rgb(0%,0%,0%); stroke:none;" transform="translate(0,0) scale(1,-1)" x="0" y="0">Gene_02038</text>
			</g>
			<g transform=" matrix(0.707107,-0.707107,0.707107,0.707107,808.988373,456.833521)">
				<text style="font-family: Helvetica; font-size: 16px;fill: rgb(0%,0%,100%); stroke:none;" transform="translate(0,0) scale(1,-1)" x="0" y="0">Gene_02039 (83.1)</text>
			</g>
			<g transform=" matrix(0.707107,-0.707107,0.707107,0.707107,850.254406,456.833521)">
				<text style="font-family: Helvetica; font-size: 10px;fill: rgb(0%,0%,0%); stroke:none;" transform="translate(0,0) scale(1,-1)" x="0" y="0">Gene_02040</text>
			</g>
			<g transform=" matrix(0.707107,-0.707107,0.707107,0.707107,910.708274,456.833521)">
				<text style="font-family: Helvetica; font-size: 10px;fill: rgb(0%,0%,0%); stroke:none;" transform="translate(0,0) scale(1,-1)" x="0" y="0">Gene_02041</text>
			</g>
			<g transform=" matrix(0.707107,-0.707107,0.707107,0.707107,973.112268,456.833521)">
				<text style="font-family: Helvetica; font-size: 10px;fill: rgb(0%,0%,0%); stroke:none;" transform="translate(0,0) scale(1,-1)" x="0" y="0">Gene_02042</text>
			</g>
			<g transform=" matrix(0.707107,-0.707107,0.707107,0.707107,1010.164639,456.833521)">
				<text style="font-family: Helvetica; font-size: 10px;fill: rgb(0%,0%,0%); stroke:none;" transform="translate(0,0) scale(1,-1)" x="0" y="0">Gene_02043</text>
			</g>
			<g transform=" matrix(1,0,-0,1,70,169.825647)">
				<text style="font-family: Helvetica; font-size: 12px;fill: rgb(60%,60%,60%); stroke:none;" transform="translate(0,0) scale(1,-1)" x="0" y="0">megahit_160399 (left 9495bp, right 8331bp)</text>
			</g>
			<g transform=" matrix(1,0,-0,1,70,456.833521)">
				<text style="font-family: Helvetica; font-size: 12px;fill: rgb(60%,60%,60%); stroke:none;" transform="translate(0,0) scale(1,-1)" x="0" y="0">megahit_43418 (left 22696bp, right 2876bp)</text>
			</g>
		</g>
	</g>
</svg>
