<?xml version="1.0" encoding="utf-8"?>
<!DOCTYPE svg
  PUBLIC '-//W3C//DTD SVG 1.0//EN'
  'http://www.w3.org/TR/2001/REC-SVG-20010904/DTD/svg10.dtd'>
<svg fill-rule="evenodd" height="708.6614173228346" preserveAspectRatio="xMinYMin meet" version="1.0" viewBox="0 0 1417 708" width="1417.3228346456692" xmlns="http://www.w3.org/2000/svg" xmlns:xlink="http://www.w3.org/1999/xlink">
	<title>...</title>
	<desc>...</desc>
	<clipPath id="clip">
		<rect height="708.6614173228346" width="1417.3228346456692" x="0" y="0"/>
	</clipPath>
	<g id="group" style="clip-path: url(#clip)" transform="scale(1,-1) translate(0,-708)">
		<g transform="">
			<polygon points="70.86614 169.8256, 1043.464 169.8256, 1043.464 251.8279, 70.86614 251.8279" style="stroke: rgb(96%,96%,96%); stroke-linecap: butt; stroke-width: 1; fill: rgb(96%,96%,96%); fill-rule: evenodd;"/>
			<polygon points="70.86614 456.8335, 1346.357 456.8335, 1346.357 538.8358, 70.86614 538.8358" style="stroke: rgb(96%,96%,96%); stroke-linecap: butt; stroke-width: 1; fill: rgb(96%,96%,96%); fill-rule: evenodd;"/>
			<polygon points="936.8313 456.8335, 1186.308 456.8335, 789.2861 251.8279, 538.6094 251.8279" style="stroke: rgb(100%,35%,35%); stroke-linecap: round; stroke-width: 1; fill: rgb(100%,35%,35%); fill-rule: evenodd;"/>
			<polygon points="1185.808 456.8335, 1303.744 456.8335, 964.1396 251.8279, 849.4045 251.8279" style="stroke: rgb(100%,20%,20%); stroke-linecap: round; stroke-width: 1; fill: rgb(100%,20%,20%); fill-rule: evenodd;"/>
			<polygon points="784.1845 456.8335, 925.9279 456.8335, 535.6084 251.8279, 393.665 251.8279" style="stroke: rgb(100%,35%,35%); stroke-linecap: round; stroke-width: 1; fill: rgb(100%,35%,35%); fill-rule: evenodd;"/>
			<polygon points="1326.251 456.8335, 1346.357 456.8335, 984.946 251.8279, 964.9399 251.8279" style="stroke: rgb(100%,15%,15%); stroke-linecap: round; stroke-width: 1; fill: rgb(100%,15%,15%); fill-rule: evenodd;"/>
			<polygon points="71.46633 241.5776, 104.481 241.5776, 104.481 251.8279, 120.8815 231.3273, 104.481 210.8268, 104.481 221.0771, 71.46633 221.0771" style="stroke: rgb(67%,84%,90%); stroke-linecap: round; stroke-width: 1; fill: rgb(67%,84%,90%); fill-rule: evenodd;"/>
			<polygon points="125.883 241.5776, 177.2033 241.5776, 177.2033 251.8279, 193.6037 231.3273, 177.2033 210.8268, 177.2033 221.0771, 125.883 221.0771" style="stroke: rgb(67%,84%,90%); stroke-linecap: round; stroke-width: 1; fill: rgb(67%,84%,90%); fill-rule: evenodd;"/>
			<polygon points="209.2085 241.5776, 320.5472 241.5776, 320.5472 251.8279, 336.9476 231.3273, 320.5472 210.8268, 320.5472 221.0771, 209.2085 221.0771" style="stroke: rgb(67%,84%,90%); stroke-linecap: round; stroke-width: 1; fill: rgb(67%,84%,90%); fill-rule: evenodd;"/>
			<polygon points="383.3618 200.5765, 353.048 200.5765, 353.048 210.8268, 336.6475 190.3262, 353.048 169.8256, 353.048 180.0759, 383.3618 180.0759" style="stroke: rgb(56%,93%,56%); stroke-linecap: round; stroke-width: 1; fill: rgb(56%,93%,56%); fill-rule: evenodd;"/>
			<polygon points="400.0669 241.5776, 417.4768 241.5776, 417.4768 251.8279, 433.8773 231.3273, 417.4768 210.8268, 417.4768 221.0771, 400.0669 221.0771" style="stroke: rgb(67%,84%,90%); stroke-linecap: round; stroke-width: 1; fill: rgb(67%,84%,90%); fill-rule: evenodd;"/>
			<polygon points="434.3774 241.5776, 520.5084 241.5776, 520.5084 251.8279, 536.9088 231.3273, 520.5084 210.8268, 520.5084 221.0771, 434.3774 221.0771" style="stroke: rgb(67%,84%,90%); stroke-linecap: round; stroke-width: 1; fill: rgb(67%,84%,90%); fill-rule: evenodd;"/>
			<polygon points="622.0349 200.5765, 554.5096 200.5765, 554.5096 210.8268, 538.1092 190.3262, 554.5096 169.8256, 554.5096 180.0759, 622.0349 180.0759" style="stroke: rgb(56%,93%,56%); stroke-linecap: round; stroke-width: 1; fill: rgb(56%,93%,56%); fill-rule: evenodd;"/>
			<polygon points="650.1435 241.5776, 772.8857 241.5776, 772.8857 251.8279, 789.2861 231.3273, 772.8857 210.8268, 772.8857 221.0771, 650.1435 221.0771" style="stroke: rgb(67%,84%,90%); stroke-linecap: round; stroke-width: 1; fill: rgb(67%,84%,90%); fill-rule: evenodd;"/>
			<polygon points="836.1004 200.5765, 812.3886 200.5765, 812.3886 210.8268, 795.9882 190.3262, 812.3886 169.8256, 812.3886 180.0759, 836.1004 180.0759" style="stroke: rgb(56%,93%,56%); stroke-linecap: round; stroke-width: 1; fill: rgb(56%,93%,56%); fill-rule: evenodd;"/>
			<polygon points="864.8092 241.5776, 947.6392 241.5776, 947.6392 251.8279, 964.0396 231.3273, 947.6392 210.8268, 947.6392 221.0771, 864.8092 221.0771" style="stroke: rgb(67%,84%,90%); stroke-linecap: round; stroke-width: 1; fill: rgb(67%,84%,90%); fill-rule: evenodd;"/>
			<polygon points="979.0442 241.5776, 1009.658 241.5776, 1009.658 251.8279, 1026.059 231.3273, 1009.658 210.8268, 1009.658 221.0771, 979.0442 221.0771" style="stroke: rgb(67%,84%,90%); stroke-linecap: round; stroke-width: 1; fill: rgb(67%,84%,90%); fill-rule: evenodd;"/>
			<polygon points="70.86614 528.5855, 233.2204 528.5855, 233.2204 538.8358, 249.6209 518.3352, 233.2204 497.8346, 233.2204 508.0849, 70.86614 508.0849" style="stroke: rgb(67%,84%,90%); stroke-linecap: round; stroke-width: 1; fill: rgb(67%,84%,90%); fill-rule: evenodd;"/>
			<polygon points="249.6209 528.5855, 313.8451 528.5855, 313.8451 538.8358, 330.2456 518.3352, 313.8451 497.8346, 313.8451 508.0849, 249.6209 508.0849" style="stroke: rgb(67%,84%,90%); stroke-linecap: round; stroke-width: 1; fill: rgb(67%,84%,90%); fill-rule: evenodd;"/>
			<polygon points="351.252 528.5855, 394.4698 528.5855, 394.4698 538.8358, 410.8702 518.3352, 394.4698 497.8346, 394.4698 508.0849, 351.252 508.0849" style="stroke: rgb(67%,84%,90%); stroke-linecap: round; stroke-width: 1; fill: rgb(67%,84%,90%); fill-rule: evenodd;"/>
			<polygon points="419.973 528.5855, 476.3949 528.5855, 476.3949 538.8358, 492.7953 518.3352, 476.3949 497.8346, 476.3949 508.0849, 419.973 508.0849" style="stroke: rgb(67%,84%,90%); stroke-linecap: round; stroke-width: 1; fill: rgb(67%,84%,90%); fill-rule: evenodd;"/>
			<polygon points="587.9245 487.5844, 511.9966 487.5844, 511.9966 497.8346, 495.5962 477.3341, 511.9966 456.8335, 511.9966 467.0838, 587.9245 467.0838" style="stroke: rgb(56%,93%,56%); stroke-linecap: round; stroke-width: 1; fill: rgb(56%,93%,56%); fill-rule: evenodd;"/>
			<polygon points="614.5326 528.5855, 748.9783 528.5855, 748.9783 538.8358, 765.3788 518.3352, 748.9783 497.8346, 748.9783 508.0849, 614.5326 508.0849" style="stroke: rgb(67%,84%,90%); stroke-linecap: round; stroke-width: 1; fill: rgb(67%,84%,90%); fill-rule: evenodd;"/>
			<polygon points="790.3864 528.5855, 807.7963 528.5855, 807.7963 538.8358, 824.1968 518.3352, 807.7963 497.8346, 807.7963 508.0849, 790.3864 508.0849" style="stroke: rgb(67%,84%,90%); stroke-linecap: round; stroke-width: 1; fill: rgb(67%,84%,90%); fill-rule: evenodd;"/>
			<polygon points="824.6969 528.5855, 911.4281 528.5855, 911.4281 538.8358, 927.8285 518.3352, 911.4281 497.8346, 911.4281 508.0849, 824.6969 508.0849" style="stroke: rgb(67%,84%,90%); stroke-linecap: round; stroke-width: 1; fill: rgb(67%,84%,90%); fill-rule: evenodd;"/>
			<polygon points="1020.257 487.5844, 948.5303 487.5844, 948.5303 497.8346, 932.1298 477.3341, 948.5303 456.8335, 948.5303 467.0838, 1020.257 467.0838" style="stroke: rgb(56%,93%,56%); stroke-linecap: round; stroke-width: 1; fill: rgb(56%,93%,56%); fill-rule: evenodd;"/>
			<polygon points="1047.165 528.5855, 1169.907 528.5855, 1169.907 538.8358, 1186.308 518.3352, 1169.907 497.8346, 1169.907 508.0849, 1047.165 508.0849" style="stroke: rgb(67%,84%,90%); stroke-linecap: round; stroke-width: 1; fill: rgb(67%,84%,90%); fill-rule: evenodd;"/>
			<polygon points="1204.413 528.5855, 1287.243 528.5855, 1287.243 538.8358, 1303.644 518.3352, 1287.243 497.8346, 1287.243 508.0849, 1204.413 508.0849" style="stroke: rgb(67%,84%,90%); stroke-linecap: round; stroke-width: 1; fill: rgb(67%,84%,90%); fill-rule: evenodd;"/>
			<path d="M 1043.463925,169.825647 L 1043.463925,251.827897 Z" style="stroke: rgb(0%,0%,0%); stroke-linecap: butt; stroke-width: 1;"/>
			<path d="M 70.866142,210.826772 L 1043.463925,210.826772 Z" style="stroke: rgb(0%,0%,0%); stroke-linecap: butt; stroke-width: 1;"/>
			<path d="M 70.866142,169.825647 L 70.866142,251.827897 Z" style="stroke: rgb(0%,0%,0%); stroke-linecap: butt; stroke-width: 1;"/>
			<path d="M 1346.356662,456.833521 L 1346.356662,538.835771 Z" style="stroke: rgb(0%,0%,0%); stroke-linecap: butt; stroke-width: 1;"/>
			<path d="M 70.866142,497.834646 L 1346.356662,497.834646 Z" style="stroke: rgb(0%,0%,0%); stroke-linecap: butt; stroke-width: 1;"/>
			<path d="M 70.866142,456.833521 L 70.866142,538.835771 Z" style="stroke: rgb(0%,0%,0%); stroke-linecap: butt; stroke-width: 1;"/>
			<path d="M 1071.172408,497.834646 L 1071.172408,518.335208 Z" style="stroke: rgb(0%,0%,0%); stroke-linecap: butt; stroke-width: 1;"/>
			<path d="M 1071.172408,497.834646 L 1071.172408,510.134983 Z" style="stroke: rgb(0%,0%,0%); stroke-linecap: butt; stroke-width: 1;"/>
			<g transform=" matrix(0.707107,0.707107,-0.707107,0.707107,1071.172408,518.335208)">
				<text style="font-family: Helvetica; font-size: 6px;fill: rgb(0%,0%,0%); stroke:none;" transform="translate(0,0) scale(1,-1)" x="0" y="0">10000</text>
			</g>
			<g transform=" matrix(0.707107,0.707107,-0.707107,0.707107,96.17389,251.827897)">
				<text style="font-family: Helvetica; font-size: 10px;fill: rgb(0%,0%,0%); stroke:none;" transform="translate(0,0) scale(1,-1)" x="0" y="0">Gene_02892</text>
			</g>
			<g transform=" matrix(0.707107,0.707107,-0.707107,0.707107,159.743354,251.827897)">
				<text style="font-family: Helvetica; font-size: 10px;fill: rgb(0%,0%,0%); stroke:none;" transform="translate(0,0) scale(1,-1)" x="0" y="0">Gene_02893</text>
			</g>
			<g transform=" matrix(0.707107,0.707107,-0.707107,0.707107,273.078054,251.827897)">
				<text style="font-family: Helvetica; font-size: 10px;fill: rgb(0%,0%,0%); stroke:none;" transform="translate(0,0) scale(1,-1)" x="0" y="0">Gene_02894</text>
			</g>
			<g transform=" matrix(0.707107,-0.707107,0.707107,0.707107,360.004668,169.825647)">
				<text style="font-family: Helvetica; font-size: 10px;fill: rgb(0%,0%,0%); stroke:none;" transform="translate(0,0) scale(1,-1)" x="0" y="0">Gene_02895</text>
			</g>
			<g transform=" matrix(0.707107,0.707107,-0.707107,0.707107,416.97211,251.827897)">
				<text style="font-family: Helvetica; font-size: 10px;fill: rgb(0%,0%,0%); stroke:none;" transform="translate(0,0) scale(1,-1)" x="0" y="0">Gene_02896</text>
			</g>
			<g transform=" matrix(0.707107,0.707107,-0.707107,0.707107,485.643135,251.827897)">
				<text style="font-family: Helvetica; font-size: 10px;fill: rgb(0%,0%,0%); stroke:none;" transform="translate(0,0) scale(1,-1)" x="0" y="0">Gene_02897</text>
			</g>
			<g transform=" matrix(0.707107,-0.707107,0.707107,0.707107,580.072047,169.825647)">
				<text style="font-family: Helvetica; font-size: 10px;fill: rgb(0%,0%,0%); stroke:none;" transform="translate(0,0) scale(1,-1)" x="0" y="0">Gene_02898</text>
			</g>
			<g transform=" matrix(0.707107,0.707107,-0.707107,0.707107,719.714802,251.827897)">
				<text style="font-family: Helvetica; font-size: 10px;fill: rgb(0%,0%,0%); stroke:none;" transform="translate(0,0) scale(1,-1)" x="0" y="0">Gene_02899</text>
			</g>
			<g transform=" matrix(0.707107,-0.707107,0.707107,0.707107,816.044295,169.825647)">
				<text style="font-family: Helvetica; font-size: 10px;fill: rgb(0%,0%,0%); stroke:none;" transform="translate(0,0) scale(1,-1)" x="0" y="0">Gene_02900</text>
			</g>
			<g transform=" matrix(0.707107,0.707107,-0.707107,0.707107,914.424416,251.827897)">
				<text style="font-family: Helvetica; font-size: 16px;fill: rgb(0%,0%,100%); stroke:none;" transform="translate(0,0) scale(1,-1)" x="0" y="0">Gene_02901 (93.9)</text>
			</g>
			<g transform=" matrix(0.707107,0.707107,-0.707107,0.707107,1002.551398,251.827897)">
				<text style="font-family: Helvetica; font-size: 10px;fill: rgb(0%,0%,0%); stroke:none;" transform="translate(0,0) scale(1,-1)" x="0" y="0">Gene_02902</text>
			</g>
			<g transform=" matrix(0.707107,0.707107,-0.707107,0.707107,160.243507,538.835771)">
				<text style="font-family: Helvetica; font-size: 10px;fill: rgb(0%,0%,0%); stroke:none;" transform="translate(0,0) scale(1,-1)" x="0" y="0">Gene_00639</text>
			</g>
			<g transform=" matrix(0.707107,0.707107,-0.707107,0.707107,289.933214,538.835771)">
				<text style="font-family: Helvetica; font-size: 10px;fill: rgb(0%,0%,0%); stroke:none;" transform="translate(0,0) scale(1,-1)" x="0" y="0">Gene_00640</text>
			</g>
			<g transform=" matrix(0.707107,0.707107,-0.707107,0.707107,381.061115,538.835771)">
				<text style="font-family: Helvetica; font-size: 10px;fill: rgb(0%,0%,0%); stroke:none;" transform="translate(0,0) scale(1,-1)" x="0" y="0">Gene_00641</text>
			</g>
			<g transform=" matrix(0.707107,0.707107,-0.707107,0.707107,456.384177,538.835771)">
				<text style="font-family: Helvetica; font-size: 10px;fill: rgb(0%,0%,0%); stroke:none;" transform="translate(0,0) scale(1,-1)" x="0" y="0">Gene_00642</text>
			</g>
			<g transform=" matrix(0.707107,-0.707107,0.707107,0.707107,541.760317,456.833521)">
				<text style="font-family: Helvetica; font-size: 10px;fill: rgb(0%,0%,0%); stroke:none;" transform="translate(0,0) scale(1,-1)" x="0" y="0">Gene_00643</text>
			</g>
			<g transform=" matrix(0.707107,0.707107,-0.707107,0.707107,689.95569,538.835771)">
				<text style="font-family: Helvetica; font-size: 10px;fill: rgb(0%,0%,0%); stroke:none;" transform="translate(0,0) scale(1,-1)" x="0" y="0">Gene_00644</text>
			</g>
			<g transform=" matrix(0.707107,0.707107,-0.707107,0.707107,807.291615,538.835771)">
				<text style="font-family: Helvetica; font-size: 10px;fill: rgb(0%,0%,0%); stroke:none;" transform="translate(0,0) scale(1,-1)" x="0" y="0">Gene_00645</text>
			</g>
			<g transform=" matrix(0.707107,0.707107,-0.707107,0.707107,876.262732,538.835771)">
				<text style="font-family: Helvetica; font-size: 10px;fill: rgb(0%,0%,0%); stroke:none;" transform="translate(0,0) scale(1,-1)" x="0" y="0">Gene_00646</text>
			</g>
			<g transform=" matrix(0.707107,-0.707107,0.707107,0.707107,976.193328,456.833521)">
				<text style="font-family: Helvetica; font-size: 10px;fill: rgb(0%,0%,0%); stroke:none;" transform="translate(0,0) scale(1,-1)" x="0" y="0">Gene_00647</text>
			</g>
			<g transform=" matrix(0.707107,0.707107,-0.707107,0.707107,1116.736359,538.835771)">
				<text style="font-family: Helvetica; font-size: 10px;fill: rgb(0%,0%,0%); stroke:none;" transform="translate(0,0) scale(1,-1)" x="0" y="0">Gene_00648</text>
			</g>
			<g transform=" matrix(0.707107,0.707107,-0.707107,0.707107,1254.028394,538.835771)">
				<text style="font-family: Helvetica; font-size: 16px;fill: rgb(0%,0%,100%); stroke:none;" transform="translate(0,0) scale(1,-1)" x="0" y="0">Gene_00649 (93.9)</text>
			</g>
			<g transform=" matrix(1,0,-0,1,70,169.825647)">
				<text style="font-family: Helvetica; font-size: 12px;fill: rgb(60%,60%,60%); stroke:none;" transform="translate(0,0) scale(1,-1)" x="0" y="0">megahit_124299 (left 7937bp, right 794bp)</text>
			</g>
			<g transform=" matrix(1,0,-0,1,70,456.833521)">
				<text style="font-family: Helvetica; font-size: 12px;fill: rgb(60%,60%,60%); stroke:none;" transform="translate(0,0) scale(1,-1)" x="0" y="0">megahit_8032 (left 18094bp, right 427bp)</text>
			</g>
		</g>
	</g>
</svg>
