<?xml version="1.0" encoding="utf-8"?>
<!DOCTYPE svg
  PUBLIC '-//W3C//DTD SVG 1.0//EN'
  'http://www.w3.org/TR/2001/REC-SVG-20010904/DTD/svg10.dtd'>
<svg fill-rule="evenodd" height="708.6614173228346" preserveAspectRatio="xMinYMin meet" version="1.0" viewBox="0 0 1417 708" width="1417.3228346456692" xmlns="http://www.w3.org/2000/svg" xmlns:xlink="http://www.w3.org/1999/xlink">
	<title>...</title>
	<desc>...</desc>
	<clipPath id="clip">
		<rect height="708.6614173228346" width="1417.3228346456692" x="0" y="0"/>
	</clipPath>
	<g id="group" style="clip-path: url(#clip)" transform="scale(1,-1) translate(0,-708)">
		<g transform="">
			<polygon points="70.86614 169.8256, 1346.394 169.8256, 1346.394 251.8279, 70.86614 251.8279" style="stroke: rgb(96%,96%,96%); stroke-linecap: butt; stroke-width: 1; fill: rgb(96%,96%,96%); fill-rule: evenodd;"/>
			<polygon points="70.86614 456.8335, 1270.373 456.8335, 1270.373 538.8358, 70.86614 538.8358" style="stroke: rgb(96%,96%,96%); stroke-linecap: butt; stroke-width: 1; fill: rgb(96%,96%,96%); fill-rule: evenodd;"/>
			<polygon points="70.92918 456.8335, 677.5848 456.8335, 711.5611 251.8279, 104.8424 251.8279" style="stroke: rgb(100%,0%,0%); stroke-linecap: round; stroke-width: 1; fill: rgb(100%,0%,0%); fill-rule: evenodd;"/>
			<polygon points="676.6393 456.8335, 779.4505 456.8335, 1346.394 251.8279, 1243.582 251.8279" style="stroke: rgb(100%,0%,0%); stroke-linecap: round; stroke-width: 1; fill: rgb(100%,0%,0%); fill-rule: evenodd;"/>
			<polygon points="234.1917 200.5765, 106.9337 200.5765, 106.9337 210.8268, 90.53328 190.3262, 106.9337 169.8256, 106.9337 180.0759, 234.1917 180.0759" style="stroke: rgb(56%,93%,56%); stroke-linecap: round; stroke-width: 1; fill: rgb(56%,93%,56%); fill-rule: evenodd;"/>
			<polygon points="312.8602 200.5765, 271.646 200.5765, 271.646 210.8268, 255.2456 190.3262, 271.646 169.8256, 271.646 180.0759, 312.8602 180.0759" style="stroke: rgb(56%,93%,56%); stroke-linecap: round; stroke-width: 1; fill: rgb(56%,93%,56%); fill-rule: evenodd;"/>
			<polygon points="348.3493 200.5765, 333.0428 200.5765, 333.0428 210.8268, 316.6424 190.3262, 333.0428 169.8256, 333.0428 180.0759, 348.3493 180.0759" style="stroke: rgb(56%,93%,56%); stroke-linecap: round; stroke-width: 1; fill: rgb(56%,93%,56%); fill-rule: evenodd;"/>
			<polygon points="382.5777 200.5765, 365.5692 200.5765, 365.5692 210.8268, 349.1688 190.3262, 365.5692 169.8256, 365.5692 180.0759, 382.5777 180.0759" style="stroke: rgb(56%,93%,56%); stroke-linecap: round; stroke-width: 1; fill: rgb(56%,93%,56%); fill-rule: evenodd;"/>
			<polygon points="550.5679 200.5765, 399.8607 200.5765, 399.8607 210.8268, 383.4602 190.3262, 399.8607 169.8256, 399.8607 180.0759, 550.5679 180.0759" style="stroke: rgb(56%,93%,56%); stroke-linecap: round; stroke-width: 1; fill: rgb(56%,93%,56%); fill-rule: evenodd;"/>
			<polygon points="597.9707 200.5765, 569.6158 200.5765, 569.6158 210.8268, 553.2154 190.3262, 569.6158 169.8256, 569.6158 180.0759, 597.9707 180.0759" style="stroke: rgb(56%,93%,56%); stroke-linecap: round; stroke-width: 1; fill: rgb(56%,93%,56%); fill-rule: evenodd;"/>
			<polygon points="656.2157 200.5765, 637.1271 200.5765, 637.1271 210.8268, 620.7266 190.3262, 637.1271 169.8256, 637.1271 180.0759, 656.2157 180.0759" style="stroke: rgb(56%,93%,56%); stroke-linecap: round; stroke-width: 1; fill: rgb(56%,93%,56%); fill-rule: evenodd;"/>
			<polygon points="696.3064 200.5765, 696.3064 210.8268, 685.023 190.3262, 696.3064 169.8256, 696.3064 180.0759" style="stroke: rgb(56%,93%,56%); stroke-linecap: round; stroke-width: 1; fill: rgb(56%,93%,56%); fill-rule: evenodd;"/>
			<polygon points="724.2943 241.5776, 724.2943 251.8279, 739.738 231.3273, 724.2943 210.8268, 724.2943 221.0771" style="stroke: rgb(67%,84%,90%); stroke-linecap: round; stroke-width: 1; fill: rgb(67%,84%,90%); fill-rule: evenodd;"/>
			<polygon points="764.8893 200.5765, 764.8893 210.8268, 749.2564 190.3262, 764.8893 169.8256, 764.8893 180.0759" style="stroke: rgb(56%,93%,56%); stroke-linecap: round; stroke-width: 1; fill: rgb(56%,93%,56%); fill-rule: evenodd;"/>
			<polygon points="854.0848 200.5765, 790.7451 200.5765, 790.7451 210.8268, 774.3446 190.3262, 790.7451 169.8256, 790.7451 180.0759, 854.0848 180.0759" style="stroke: rgb(56%,93%,56%); stroke-linecap: round; stroke-width: 1; fill: rgb(56%,93%,56%); fill-rule: evenodd;"/>
			<polygon points="923.5501 200.5765, 870.9895 200.5765, 870.9895 210.8268, 854.5891 190.3262, 870.9895 169.8256, 870.9895 180.0759, 923.5501 180.0759" style="stroke: rgb(56%,93%,56%); stroke-linecap: round; stroke-width: 1; fill: rgb(56%,93%,56%); fill-rule: evenodd;"/>
			<polygon points="945.1084 200.5765, 940.0136 200.5765, 940.0136 210.8268, 923.6132 190.3262, 940.0136 169.8256, 940.0136 180.0759, 945.1084 180.0759" style="stroke: rgb(56%,93%,56%); stroke-linecap: round; stroke-width: 1; fill: rgb(56%,93%,56%); fill-rule: evenodd;"/>
			<polygon points="1023.525 200.5765, 961.5088 200.5765, 961.5088 210.8268, 945.1084 190.3262, 961.5088 169.8256, 961.5088 180.0759, 1023.525 180.0759" style="stroke: rgb(56%,93%,56%); stroke-linecap: round; stroke-width: 1; fill: rgb(56%,93%,56%); fill-rule: evenodd;"/>
			<polygon points="1041.742 200.5765, 1041.742 210.8268, 1026.487 190.3262, 1041.742 169.8256, 1041.742 180.0759" style="stroke: rgb(56%,93%,56%); stroke-linecap: round; stroke-width: 1; fill: rgb(56%,93%,56%); fill-rule: evenodd;"/>
			<polygon points="1074.899 200.5765, 1071.317 200.5765, 1071.317 210.8268, 1054.917 190.3262, 1071.317 169.8256, 1071.317 180.0759, 1074.899 180.0759" style="stroke: rgb(56%,93%,56%); stroke-linecap: round; stroke-width: 1; fill: rgb(56%,93%,56%); fill-rule: evenodd;"/>
			<polygon points="1141.969 200.5765, 1092.056 200.5765, 1092.056 210.8268, 1075.655 190.3262, 1092.056 169.8256, 1092.056 180.0759, 1141.969 180.0759" style="stroke: rgb(56%,93%,56%); stroke-linecap: round; stroke-width: 1; fill: rgb(56%,93%,56%); fill-rule: evenodd;"/>
			<polygon points="1152.559 241.5776, 1164.651 241.5776, 1164.651 251.8279, 1181.051 231.3273, 1164.651 210.8268, 1164.651 221.0771, 1152.559 221.0771" style="stroke: rgb(67%,84%,90%); stroke-linecap: round; stroke-width: 1; fill: rgb(67%,84%,90%); fill-rule: evenodd;"/>
			<polygon points="1186.661 241.5776, 1196.862 241.5776, 1196.862 251.8279, 1213.262 231.3273, 1196.862 210.8268, 1196.862 221.0771, 1186.661 221.0771" style="stroke: rgb(67%,84%,90%); stroke-linecap: round; stroke-width: 1; fill: rgb(67%,84%,90%); fill-rule: evenodd;"/>
			<polygon points="1216.855 241.5776, 1221.383 241.5776, 1221.383 251.8279, 1237.783 231.3273, 1221.383 210.8268, 1221.383 221.0771, 1216.855 221.0771" style="stroke: rgb(67%,84%,90%); stroke-linecap: round; stroke-width: 1; fill: rgb(67%,84%,90%); fill-rule: evenodd;"/>
			<polygon points="1332.652 200.5765, 1265.719 200.5765, 1265.719 210.8268, 1249.319 190.3262, 1265.719 169.8256, 1265.719 180.0759, 1332.652 180.0759" style="stroke: rgb(56%,93%,56%); stroke-linecap: round; stroke-width: 1; fill: rgb(56%,93%,56%); fill-rule: evenodd;"/>
			<polygon points="1346.394 200.5765, 1346.394 210.8268, 1332.652 190.3262, 1346.394 169.8256, 1346.394 180.0759" style="stroke: rgb(56%,93%,56%); stroke-linecap: round; stroke-width: 1; fill: rgb(56%,93%,56%); fill-rule: evenodd;"/>
			<polygon points="278.947 487.5844, 237.7328 487.5844, 237.7328 497.8346, 221.3324 477.3341, 237.7328 456.8335, 237.7328 467.0838, 278.947 467.0838" style="stroke: rgb(56%,93%,56%); stroke-linecap: round; stroke-width: 1; fill: rgb(56%,93%,56%); fill-rule: evenodd;"/>
			<polygon points="314.3731 487.5844, 299.0666 487.5844, 299.0666 497.8346, 282.6661 477.3341, 299.0666 456.8335, 299.0666 467.0838, 314.3731 467.0838" style="stroke: rgb(56%,93%,56%); stroke-linecap: round; stroke-width: 1; fill: rgb(56%,93%,56%); fill-rule: evenodd;"/>
			<polygon points="348.6015 487.5844, 331.593 487.5844, 331.593 497.8346, 315.1925 477.3341, 331.593 456.8335, 331.593 467.0838, 348.6015 467.0838" style="stroke: rgb(56%,93%,56%); stroke-linecap: round; stroke-width: 1; fill: rgb(56%,93%,56%); fill-rule: evenodd;"/>
			<polygon points="516.5916 487.5844, 365.8844 487.5844, 365.8844 497.8346, 349.484 477.3341, 365.8844 456.8335, 365.8844 467.0838, 516.5916 467.0838" style="stroke: rgb(56%,93%,56%); stroke-linecap: round; stroke-width: 1; fill: rgb(56%,93%,56%); fill-rule: evenodd;"/>
			<polygon points="563.9945 487.5844, 535.6396 487.5844, 535.6396 497.8346, 519.2391 477.3341, 535.6396 456.8335, 535.6396 467.0838, 563.9945 467.0838" style="stroke: rgb(56%,93%,56%); stroke-linecap: round; stroke-width: 1; fill: rgb(56%,93%,56%); fill-rule: evenodd;"/>
			<polygon points="622.2395 487.5844, 603.1508 487.5844, 603.1508 497.8346, 586.7504 477.3341, 603.1508 456.8335, 603.1508 467.0838, 622.2395 467.0838" style="stroke: rgb(56%,93%,56%); stroke-linecap: round; stroke-width: 1; fill: rgb(56%,93%,56%); fill-rule: evenodd;"/>
			<polygon points="662.3302 487.5844, 662.3302 497.8346, 651.0468 477.3341, 662.3302 456.8335, 662.3302 467.0838" style="stroke: rgb(56%,93%,56%); stroke-linecap: round; stroke-width: 1; fill: rgb(56%,93%,56%); fill-rule: evenodd;"/>
			<polygon points="765.7087 487.5844, 698.776 487.5844, 698.776 497.8346, 682.3755 477.3341, 698.776 456.8335, 698.776 467.0838, 765.7087 467.0838" style="stroke: rgb(56%,93%,56%); stroke-linecap: round; stroke-width: 1; fill: rgb(56%,93%,56%); fill-rule: evenodd;"/>
			<polygon points="782.4762 487.5844, 782.1092 487.5844, 782.1092 497.8346, 765.7087 477.3341, 782.1092 456.8335, 782.1092 467.0838, 782.4762 467.0838" style="stroke: rgb(56%,93%,56%); stroke-linecap: round; stroke-width: 1; fill: rgb(56%,93%,56%); fill-rule: evenodd;"/>
			<polygon points="1136.548 487.5844, 812.0511 487.5844, 812.0511 497.8346, 795.6507 477.3341, 812.0511 456.8335, 812.0511 467.0838, 1136.548 467.0838" style="stroke: rgb(56%,93%,56%); stroke-linecap: round; stroke-width: 1; fill: rgb(56%,93%,56%); fill-rule: evenodd;"/>
			<polygon points="1270.373 487.5844, 1186.42 487.5844, 1186.42 497.8346, 1170.02 477.3341, 1186.42 456.8335, 1186.42 467.0838, 1270.373 467.0838" style="stroke: rgb(56%,93%,56%); stroke-linecap: round; stroke-width: 1; fill: rgb(56%,93%,56%); fill-rule: evenodd;"/>
			<path d="M 1346.393657,169.825647 L 1346.393657,251.827897 Z" style="stroke: rgb(0%,0%,0%); stroke-linecap: butt; stroke-width: 1;"/>
			<path d="M 70.866142,210.826772 L 1346.393657,210.826772 Z" style="stroke: rgb(0%,0%,0%); stroke-linecap: butt; stroke-width: 1;"/>
			<path d="M 70.866142,169.825647 L 70.866142,251.827897 Z" style="stroke: rgb(0%,0%,0%); stroke-linecap: butt; stroke-width: 1;"/>
			<path d="M 701.223204,210.826772 L 701.223204,231.327334 Z" style="stroke: rgb(0%,0%,0%); stroke-linecap: butt; stroke-width: 1;"/>
			<path d="M 1331.580266,210.826772 L 1331.580266,231.327334 Z" style="stroke: rgb(0%,0%,0%); stroke-linecap: butt; stroke-width: 1;"/>
			<path d="M 701.223204,210.826772 L 701.223204,223.127109 Z" style="stroke: rgb(0%,0%,0%); stroke-linecap: butt; stroke-width: 1;"/>
			<path d="M 1331.580266,210.826772 L 1331.580266,223.127109 Z" style="stroke: rgb(0%,0%,0%); stroke-linecap: butt; stroke-width: 1;"/>
			<path d="M 1270.372595,456.833521 L 1270.372595,538.835771 Z" style="stroke: rgb(0%,0%,0%); stroke-linecap: butt; stroke-width: 1;"/>
			<path d="M 70.866142,497.834646 L 1270.372595,497.834646 Z" style="stroke: rgb(0%,0%,0%); stroke-linecap: butt; stroke-width: 1;"/>
			<path d="M 70.866142,456.833521 L 70.866142,538.835771 Z" style="stroke: rgb(0%,0%,0%); stroke-linecap: butt; stroke-width: 1;"/>
			<path d="M 701.223204,497.834646 L 701.223204,518.335208 Z" style="stroke: rgb(0%,0%,0%); stroke-linecap: butt; stroke-width: 1;"/>
			<path d="M 701.223204,497.834646 L 701.223204,510.134983 Z" style="stroke: rgb(0%,0%,0%); stroke-linecap: butt; stroke-width: 1;"/>
			<g transform=" matrix(0.707107,0.707107,-0.707107,0.707107,701.223204,231.327334)">
				<text style="font-family: Helvetica; font-size: 6px;fill: rgb(0%,0%,0%); stroke:none;" transform="translate(0,0) scale(1,-1)" x="0" y="0">10000</text>
			</g>
			<g transform=" matrix(0.707107,0.707107,-0.707107,0.707107,1331.580266,231.327334)">
				<text style="font-family: Helvetica; font-size: 6px;fill: rgb(0%,0%,0%); stroke:none;" transform="translate(0,0) scale(1,-1)" x="0" y="0">20000</text>
			</g>
			<g transform=" matrix(0.707107,0.707107,-0.707107,0.707107,701.223204,518.335208)">
				<text style="font-family: Helvetica; font-size: 6px;fill: rgb(0%,0%,0%); stroke:none;" transform="translate(0,0) scale(1,-1)" x="0" y="0">10000</text>
			</g>
			<g transform=" matrix(0.707107,-0.707107,0.707107,0.707107,162.362469,169.825647)">
				<text style="font-family: Helvetica; font-size: 10px;fill: rgb(0%,0%,0%); stroke:none;" transform="translate(0,0) scale(1,-1)" x="0" y="0">Gene_01177</text>
			</g>
			<g transform=" matrix(0.707107,-0.707107,0.707107,0.707107,284.0529,169.825647)">
				<text style="font-family: Helvetica; font-size: 10px;fill: rgb(0%,0%,0%); stroke:none;" transform="translate(0,0) scale(1,-1)" x="0" y="0">Gene_01178</text>
			</g>
			<g transform=" matrix(0.707107,-0.707107,0.707107,0.707107,332.49584,169.825647)">
				<text style="font-family: Helvetica; font-size: 10px;fill: rgb(0%,0%,0%); stroke:none;" transform="translate(0,0) scale(1,-1)" x="0" y="0">Gene_01179</text>
			</g>
			<g transform=" matrix(0.707107,-0.707107,0.707107,0.707107,365.873247,169.825647)">
				<text style="font-family: Helvetica; font-size: 10px;fill: rgb(0%,0%,0%); stroke:none;" transform="translate(0,0) scale(1,-1)" x="0" y="0">Gene_01180</text>
			</g>
			<g transform=" matrix(0.707107,-0.707107,0.707107,0.707107,467.014038,169.825647)">
				<text style="font-family: Helvetica; font-size: 10px;fill: rgb(0%,0%,0%); stroke:none;" transform="translate(0,0) scale(1,-1)" x="0" y="0">Gene_01181</text>
			</g>
			<g transform=" matrix(0.707107,-0.707107,0.707107,0.707107,575.593041,169.825647)">
				<text style="font-family: Helvetica; font-size: 10px;fill: rgb(0%,0%,0%); stroke:none;" transform="translate(0,0) scale(1,-1)" x="0" y="0">Gene_01182</text>
			</g>
			<g transform=" matrix(0.707107,-0.707107,0.707107,0.707107,638.471158,169.825647)">
				<text style="font-family: Helvetica; font-size: 16px;fill: rgb(0%,0%,100%); stroke:none;" transform="translate(0,0) scale(1,-1)" x="0" y="0">Gene_01183 (100.0)</text>
			</g>
			<g transform=" matrix(0.707107,-0.707107,0.707107,0.707107,690.664723,169.825647)">
				<text style="font-family: Helvetica; font-size: 10px;fill: rgb(0%,0%,0%); stroke:none;" transform="translate(0,0) scale(1,-1)" x="0" y="0">Gene_01184</text>
			</g>
			<g transform=" matrix(0.707107,0.707107,-0.707107,0.707107,732.016146,251.827897)">
				<text style="font-family: Helvetica; font-size: 10px;fill: rgb(0%,0%,0%); stroke:none;" transform="translate(0,0) scale(1,-1)" x="0" y="0">Gene_01185</text>
			</g>
			<g transform=" matrix(0.707107,-0.707107,0.707107,0.707107,757.07284,169.825647)">
				<text style="font-family: Helvetica; font-size: 10px;fill: rgb(0%,0%,0%); stroke:none;" transform="translate(0,0) scale(1,-1)" x="0" y="0">Gene_01186</text>
			</g>
			<g transform=" matrix(0.707107,-0.707107,0.707107,0.707107,814.214707,169.825647)">
				<text style="font-family: Helvetica; font-size: 10px;fill: rgb(0%,0%,0%); stroke:none;" transform="translate(0,0) scale(1,-1)" x="0" y="0">Gene_01187</text>
			</g>
			<g transform=" matrix(0.707107,-0.707107,0.707107,0.707107,889.069609,169.825647)">
				<text style="font-family: Helvetica; font-size: 10px;fill: rgb(0%,0%,0%); stroke:none;" transform="translate(0,0) scale(1,-1)" x="0" y="0">Gene_01188</text>
			</g>
			<g transform=" matrix(0.707107,-0.707107,0.707107,0.707107,934.360763,169.825647)">
				<text style="font-family: Helvetica; font-size: 10px;fill: rgb(0%,0%,0%); stroke:none;" transform="translate(0,0) scale(1,-1)" x="0" y="0">Gene_01189</text>
			</g>
			<g transform=" matrix(0.707107,-0.707107,0.707107,0.707107,984.316561,169.825647)">
				<text style="font-family: Helvetica; font-size: 10px;fill: rgb(0%,0%,0%); stroke:none;" transform="translate(0,0) scale(1,-1)" x="0" y="0">Gene_01190</text>
			</g>
			<g transform=" matrix(0.707107,-0.707107,0.707107,0.707107,1034.114769,169.825647)">
				<text style="font-family: Helvetica; font-size: 10px;fill: rgb(0%,0%,0%); stroke:none;" transform="translate(0,0) scale(1,-1)" x="0" y="0">Gene_01191</text>
			</g>
			<g transform=" matrix(0.707107,-0.707107,0.707107,0.707107,1064.907711,169.825647)">
				<text style="font-family: Helvetica; font-size: 10px;fill: rgb(0%,0%,0%); stroke:none;" transform="translate(0,0) scale(1,-1)" x="0" y="0">Gene_01192</text>
			</g>
			<g transform=" matrix(0.707107,-0.707107,0.707107,0.707107,1108.81208,169.825647)">
				<text style="font-family: Helvetica; font-size: 10px;fill: rgb(0%,0%,0%); stroke:none;" transform="translate(0,0) scale(1,-1)" x="0" y="0">Gene_01193</text>
			</g>
			<g transform=" matrix(0.707107,0.707107,-0.707107,0.707107,1166.80493,251.827897)">
				<text style="font-family: Helvetica; font-size: 10px;fill: rgb(0%,0%,0%); stroke:none;" transform="translate(0,0) scale(1,-1)" x="0" y="0">Gene_01194</text>
			</g>
			<g transform=" matrix(0.707107,0.707107,-0.707107,0.707107,1199.961712,251.827897)">
				<text style="font-family: Helvetica; font-size: 10px;fill: rgb(0%,0%,0%); stroke:none;" transform="translate(0,0) scale(1,-1)" x="0" y="0">Gene_01195</text>
			</g>
			<g transform=" matrix(0.707107,0.707107,-0.707107,0.707107,1227.319208,251.827897)">
				<text style="font-family: Helvetica; font-size: 10px;fill: rgb(0%,0%,0%); stroke:none;" transform="translate(0,0) scale(1,-1)" x="0" y="0">Gene_01196</text>
			</g>
			<g transform=" matrix(0.707107,-0.707107,0.707107,0.707107,1290.985271,169.825647)">
				<text style="font-family: Helvetica; font-size: 10px;fill: rgb(0%,0%,0%); stroke:none;" transform="translate(0,0) scale(1,-1)" x="0" y="0">Gene_01197</text>
			</g>
			<g transform=" matrix(0.707107,-0.707107,0.707107,0.707107,1339.522765,169.825647)">
				<text style="font-family: Helvetica; font-size: 10px;fill: rgb(0%,0%,0%); stroke:none;" transform="translate(0,0) scale(1,-1)" x="0" y="0">Gene_01198</text>
			</g>
			<g transform=" matrix(0.707107,-0.707107,0.707107,0.707107,250.13969,456.833521)">
				<text style="font-family: Helvetica; font-size: 10px;fill: rgb(0%,0%,0%); stroke:none;" transform="translate(0,0) scale(1,-1)" x="0" y="0">Gene_01098</text>
			</g>
			<g transform=" matrix(0.707107,-0.707107,0.707107,0.707107,298.519595,456.833521)">
				<text style="font-family: Helvetica; font-size: 10px;fill: rgb(0%,0%,0%); stroke:none;" transform="translate(0,0) scale(1,-1)" x="0" y="0">Gene_01099</text>
			</g>
			<g transform=" matrix(0.707107,-0.707107,0.707107,0.707107,331.897001,456.833521)">
				<text style="font-family: Helvetica; font-size: 10px;fill: rgb(0%,0%,0%); stroke:none;" transform="translate(0,0) scale(1,-1)" x="0" y="0">Gene_01100</text>
			</g>
			<g transform=" matrix(0.707107,-0.707107,0.707107,0.707107,433.037792,456.833521)">
				<text style="font-family: Helvetica; font-size: 10px;fill: rgb(0%,0%,0%); stroke:none;" transform="translate(0,0) scale(1,-1)" x="0" y="0">Gene_01101</text>
			</g>
			<g transform=" matrix(0.707107,-0.707107,0.707107,0.707107,541.616796,456.833521)">
				<text style="font-family: Helvetica; font-size: 10px;fill: rgb(0%,0%,0%); stroke:none;" transform="translate(0,0) scale(1,-1)" x="0" y="0">Gene_01102</text>
			</g>
			<g transform=" matrix(0.707107,-0.707107,0.707107,0.707107,604.494913,456.833521)">
				<text style="font-family: Helvetica; font-size: 16px;fill: rgb(0%,0%,100%); stroke:none;" transform="translate(0,0) scale(1,-1)" x="0" y="0">Gene_01103 (100.0)</text>
			</g>
			<g transform=" matrix(0.707107,-0.707107,0.707107,0.707107,656.688478,456.833521)">
				<text style="font-family: Helvetica; font-size: 10px;fill: rgb(0%,0%,0%); stroke:none;" transform="translate(0,0) scale(1,-1)" x="0" y="0">Gene_01104</text>
			</g>
			<g transform=" matrix(0.707107,-0.707107,0.707107,0.707107,724.04213,456.833521)">
				<text style="font-family: Helvetica; font-size: 10px;fill: rgb(0%,0%,0%); stroke:none;" transform="translate(0,0) scale(1,-1)" x="0" y="0">Gene_01105</text>
			</g>
			<g transform=" matrix(0.707107,-0.707107,0.707107,0.707107,774.09248,456.833521)">
				<text style="font-family: Helvetica; font-size: 10px;fill: rgb(0%,0%,0%); stroke:none;" transform="translate(0,0) scale(1,-1)" x="0" y="0">Gene_01106</text>
			</g>
			<g transform=" matrix(0.707107,-0.707107,0.707107,0.707107,966.099242,456.833521)">
				<text style="font-family: Helvetica; font-size: 10px;fill: rgb(0%,0%,0%); stroke:none;" transform="translate(0,0) scale(1,-1)" x="0" y="0">Gene_01107</text>
			</g>
			<g transform=" matrix(0.707107,-0.707107,0.707107,0.707107,1220.196173,456.833521)">
				<text style="font-family: Helvetica; font-size: 10px;fill: rgb(0%,0%,0%); stroke:none;" transform="translate(0,0) scale(1,-1)" x="0" y="0">Gene_01108</text>
			</g>
			<g transform=" matrix(1,0,-0,1,70,169.825647)">
				<text style="font-family: Helvetica; font-size: 12px;fill: rgb(60%,60%,60%); stroke:none;" transform="translate(0,0) scale(1,-1)" x="0" y="0">megahit_2535 (left 8723bp, right 10958bp)</text>
			</g>
			<g transform=" matrix(1,0,-0,1,70,456.833521)">
				<text style="font-family: Helvetica; font-size: 12px;fill: rgb(60%,60%,60%); stroke:none;" transform="translate(0,0) scale(1,-1)" x="0" y="0">megahit_7396 (left 8184bp, right 51641bp)</text>
			</g>
		</g>
	</g>
</svg>
