<?xml version="1.0" encoding="utf-8"?>
<!DOCTYPE svg
  PUBLIC '-//W3C//DTD SVG 1.0//EN'
  'http://www.w3.org/TR/2001/REC-SVG-20010904/DTD/svg10.dtd'>
<svg fill-rule="evenodd" height="708.6614173228346" preserveAspectRatio="xMinYMin meet" version="1.0" viewBox="0 0 1417 708" width="1417.3228346456692" xmlns="http://www.w3.org/2000/svg" xmlns:xlink="http://www.w3.org/1999/xlink">
	<title>...</title>
	<desc>...</desc>
	<clipPath id="clip">
		<rect height="708.6614173228346" width="1417.3228346456692" x="0" y="0"/>
	</clipPath>
	<g id="group" style="clip-path: url(#clip)" transform="scale(1,-1) translate(0,-708)">
		<g transform="">
			<polygon points="70.86614 169.8256, 953.0379 169.8256, 953.0379 251.8279, 70.86614 251.8279" style="stroke: rgb(96%,96%,96%); stroke-linecap: butt; stroke-width: 1; fill: rgb(96%,96%,96%); fill-rule: evenodd;"/>
			<polygon points="70.86614 456.8335, 1346.402 456.8335, 1346.402 538.8358, 70.86614 538.8358" style="stroke: rgb(96%,96%,96%); stroke-linecap: butt; stroke-width: 1; fill: rgb(96%,96%,96%); fill-rule: evenodd;"/>
			<polygon points="653.0774 456.8335, 794.4787 456.8335, 130.9465 251.8279, 272.3478 251.8279" style="stroke: rgb(100%,41%,41%); stroke-linecap: round; stroke-width: 1; fill: rgb(100%,41%,41%); fill-rule: evenodd;"/>
			<polygon points="232.7356 456.8335, 333.6419 456.8335, 677.7937 251.8279, 778.7 251.8279" style="stroke: rgb(100%,48%,48%); stroke-linecap: round; stroke-width: 1; fill: rgb(100%,48%,48%); fill-rule: evenodd;"/>
			<polygon points="72.19023 456.8335, 210.833 456.8335, 812.74 251.8279, 951.7138 251.8279" style="stroke: rgb(100%,57%,57%); stroke-linecap: round; stroke-width: 1; fill: rgb(100%,57%,57%); fill-rule: evenodd;"/>
			<polygon points="434.7689 456.8335, 526.2963 456.8335, 500.0904 251.8279, 592.8867 251.8279" style="stroke: rgb(100%,61%,61%); stroke-linecap: round; stroke-width: 1; fill: rgb(100%,61%,61%); fill-rule: evenodd;"/>
			<polygon points="346.3862 456.8335, 381.6951 456.8335, 629.7404 251.8279, 664.8839 251.8279" style="stroke: rgb(100%,47%,47%); stroke-linecap: round; stroke-width: 1; fill: rgb(100%,47%,47%); fill-rule: evenodd;"/>
			<polygon points="609.7136 456.8335, 639.7814 456.8335, 430.6863 251.8279, 460.9196 251.8279" style="stroke: rgb(100%,47%,47%); stroke-linecap: round; stroke-width: 1; fill: rgb(100%,47%,47%); fill-rule: evenodd;"/>
			<polygon points="869.5654 456.8335, 902.0054 456.8335, 70.92131 251.8279, 103.3062 251.8279" style="stroke: rgb(100%,51%,51%); stroke-linecap: round; stroke-width: 1; fill: rgb(100%,51%,51%); fill-rule: evenodd;"/>
			<polygon points="120.6297 200.5765, 120.6297 210.8268, 107.444 190.3262, 120.6297 169.8256, 120.6297 180.0759" style="stroke: rgb(56%,93%,56%); stroke-linecap: round; stroke-width: 1; fill: rgb(56%,93%,56%); fill-rule: evenodd;"/>
			<polygon points="272.3478 200.5765, 146.7953 200.5765, 146.7953 210.8268, 130.3948 190.3262, 146.7953 169.8256, 146.7953 180.0759, 272.3478 180.0759" style="stroke: rgb(56%,93%,56%); stroke-linecap: round; stroke-width: 1; fill: rgb(56%,93%,56%); fill-rule: evenodd;"/>
			<polygon points="415.5145 200.5765, 306.844 200.5765, 306.844 210.8268, 290.4436 190.3262, 306.844 169.8256, 306.844 180.0759, 415.5145 180.0759" style="stroke: rgb(56%,93%,56%); stroke-linecap: round; stroke-width: 1; fill: rgb(56%,93%,56%); fill-rule: evenodd;"/>
			<polygon points="459.5403 200.5765, 446.535 200.5765, 446.535 210.8268, 430.1346 190.3262, 446.535 169.8256, 446.535 180.0759, 459.5403 180.0759" style="stroke: rgb(56%,93%,56%); stroke-linecap: round; stroke-width: 1; fill: rgb(56%,93%,56%); fill-rule: evenodd;"/>
			<polygon points="491.0977 200.5765, 491.0977 210.8268, 476.2569 190.3262, 491.0977 169.8256, 491.0977 180.0759" style="stroke: rgb(56%,93%,56%); stroke-linecap: round; stroke-width: 1; fill: rgb(56%,93%,56%); fill-rule: evenodd;"/>
			<polygon points="540.806 200.5765, 515.0564 200.5765, 515.0564 210.8268, 498.656 190.3262, 515.0564 169.8256, 515.0564 180.0759, 540.806 180.0759" style="stroke: rgb(56%,93%,56%); stroke-linecap: round; stroke-width: 1; fill: rgb(56%,93%,56%); fill-rule: evenodd;"/>
			<polygon points="592.1143 200.5765, 559.4133 200.5765, 559.4133 210.8268, 543.0128 190.3262, 559.4133 169.8256, 559.4133 180.0759, 592.1143 180.0759" style="stroke: rgb(56%,93%,56%); stroke-linecap: round; stroke-width: 1; fill: rgb(56%,93%,56%); fill-rule: evenodd;"/>
			<polygon points="622.0718 200.5765, 611.5491 200.5765, 611.5491 210.8268, 595.1487 190.3262, 611.5491 169.8256, 611.5491 180.0759, 622.0718 180.0759" style="stroke: rgb(56%,93%,56%); stroke-linecap: round; stroke-width: 1; fill: rgb(56%,93%,56%); fill-rule: evenodd;"/>
			<polygon points="663.7804 200.5765, 645.6443 200.5765, 645.6443 210.8268, 629.2439 190.3262, 645.6443 169.8256, 645.6443 180.0759, 663.7804 180.0759" style="stroke: rgb(56%,93%,56%); stroke-linecap: round; stroke-width: 1; fill: rgb(56%,93%,56%); fill-rule: evenodd;"/>
			<polygon points="677.8489 241.5776, 762.3547 241.5776, 762.3547 251.8279, 778.7552 231.3273, 762.3547 210.8268, 762.3547 221.0771, 677.8489 221.0771" style="stroke: rgb(67%,84%,90%); stroke-linecap: round; stroke-width: 1; fill: rgb(67%,84%,90%); fill-rule: evenodd;"/>
			<polygon points="808.6023 241.5776, 936.6374 241.5776, 936.6374 251.8279, 953.0379 231.3273, 936.6374 210.8268, 936.6374 221.0771, 808.6023 221.0771" style="stroke: rgb(67%,84%,90%); stroke-linecap: round; stroke-width: 1; fill: rgb(67%,84%,90%); fill-rule: evenodd;"/>
			<polygon points="214.6397 487.5844, 87.26659 487.5844, 87.26659 497.8346, 70.86614 477.3341, 87.26659 456.8335, 87.26659 467.0838, 214.6397 467.0838" style="stroke: rgb(56%,93%,56%); stroke-linecap: round; stroke-width: 1; fill: rgb(56%,93%,56%); fill-rule: evenodd;"/>
			<polygon points="333.5867 487.5844, 249.0808 487.5844, 249.0808 497.8346, 232.6804 477.3341, 249.0808 456.8335, 249.0808 467.0838, 333.5867 467.0838" style="stroke: rgb(56%,93%,56%); stroke-linecap: round; stroke-width: 1; fill: rgb(56%,93%,56%); fill-rule: evenodd;"/>
			<polygon points="347.6551 528.5855, 365.7912 528.5855, 365.7912 538.8358, 382.1917 518.3352, 365.7912 497.8346, 365.7912 508.0849, 347.6551 508.0849" style="stroke: rgb(67%,84%,90%); stroke-linecap: round; stroke-width: 1; fill: rgb(67%,84%,90%); fill-rule: evenodd;"/>
			<polygon points="389.5293 528.5855, 401.2105 528.5855, 401.2105 538.8358, 417.6109 518.3352, 401.2105 497.8346, 401.2105 508.0849, 389.5293 508.0849" style="stroke: rgb(67%,84%,90%); stroke-linecap: round; stroke-width: 1; fill: rgb(67%,84%,90%); fill-rule: evenodd;"/>
			<polygon points="435.5964 528.5855, 468.2975 528.5855, 468.2975 538.8358, 484.6979 518.3352, 468.2975 497.8346, 468.2975 508.0849, 435.5964 508.0849" style="stroke: rgb(67%,84%,90%); stroke-linecap: round; stroke-width: 1; fill: rgb(67%,84%,90%); fill-rule: evenodd;"/>
			<polygon points="485.5807 528.5855, 510.9992 528.5855, 510.9992 538.8358, 527.3997 518.3352, 510.9992 497.8346, 510.9992 508.0849, 485.5807 508.0849" style="stroke: rgb(67%,84%,90%); stroke-linecap: round; stroke-width: 1; fill: rgb(67%,84%,90%); fill-rule: evenodd;"/>
			<polygon points="534.8477 528.5855, 539.5774 528.5855, 539.5774 538.8358, 555.9778 518.3352, 539.5774 497.8346, 539.5774 508.0849, 534.8477 508.0849" style="stroke: rgb(67%,84%,90%); stroke-linecap: round; stroke-width: 1; fill: rgb(67%,84%,90%); fill-rule: evenodd;"/>
			<polygon points="559.6191 528.5855, 586.3617 528.5855, 586.3617 538.8358, 602.7622 518.3352, 586.3617 497.8346, 586.3617 508.0849, 559.6191 508.0849" style="stroke: rgb(67%,84%,90%); stroke-linecap: round; stroke-width: 1; fill: rgb(67%,84%,90%); fill-rule: evenodd;"/>
			<polygon points="611.0929 528.5855, 623.7671 528.5855, 623.7671 538.8358, 640.1676 518.3352, 623.7671 497.8346, 623.7671 508.0849, 611.0929 508.0849" style="stroke: rgb(67%,84%,90%); stroke-linecap: round; stroke-width: 1; fill: rgb(67%,84%,90%); fill-rule: evenodd;"/>
			<polygon points="653.0774 528.5855, 778.2989 528.5855, 778.2989 538.8358, 794.6994 518.3352, 778.2989 497.8346, 778.2989 508.0849, 653.0774 508.0849" style="stroke: rgb(67%,84%,90%); stroke-linecap: round; stroke-width: 1; fill: rgb(67%,84%,90%); fill-rule: evenodd;"/>
			<polygon points="856.7659 487.5844, 814.4652 487.5844, 814.4652 497.8346, 798.0648 477.3341, 814.4652 456.8335, 814.4652 467.0838, 856.7659 467.0838" style="stroke: rgb(56%,93%,56%); stroke-linecap: round; stroke-width: 1; fill: rgb(56%,93%,56%); fill-rule: evenodd;"/>
			<polygon points="870.7791 528.5855, 912.0867 528.5855, 912.0867 538.8358, 928.4871 518.3352, 912.0867 497.8346, 912.0867 508.0849, 870.7791 508.0849" style="stroke: rgb(67%,84%,90%); stroke-linecap: round; stroke-width: 1; fill: rgb(67%,84%,90%); fill-rule: evenodd;"/>
			<polygon points="932.1835 528.5855, 940.72 528.5855, 940.72 538.8358, 957.1205 518.3352, 940.72 497.8346, 940.72 508.0849, 932.1835 508.0849" style="stroke: rgb(67%,84%,90%); stroke-linecap: round; stroke-width: 1; fill: rgb(67%,84%,90%); fill-rule: evenodd;"/>
			<polygon points="962.8582 528.5855, 1012.938 528.5855, 1012.938 538.8358, 1029.338 518.3352, 1012.938 497.8346, 1012.938 508.0849, 962.8582 508.0849" style="stroke: rgb(67%,84%,90%); stroke-linecap: round; stroke-width: 1; fill: rgb(67%,84%,90%); fill-rule: evenodd;"/>
			<polygon points="1030 528.5855, 1079.749 528.5855, 1079.749 538.8358, 1096.149 518.3352, 1079.749 497.8346, 1079.749 508.0849, 1030 508.0849" style="stroke: rgb(67%,84%,90%); stroke-linecap: round; stroke-width: 1; fill: rgb(67%,84%,90%); fill-rule: evenodd;"/>
			<polygon points="1097.418 528.5855, 1147.829 528.5855, 1147.829 538.8358, 1164.229 518.3352, 1147.829 497.8346, 1147.829 508.0849, 1097.418 508.0849" style="stroke: rgb(67%,84%,90%); stroke-linecap: round; stroke-width: 1; fill: rgb(67%,84%,90%); fill-rule: evenodd;"/>
			<polygon points="1211.897 487.5844, 1183.333 487.5844, 1183.333 497.8346, 1166.933 477.3341, 1183.333 456.8335, 1183.333 467.0838, 1211.897 467.0838" style="stroke: rgb(56%,93%,56%); stroke-linecap: round; stroke-width: 1; fill: rgb(56%,93%,56%); fill-rule: evenodd;"/>
			<polygon points="1216.972 528.5855, 1327.298 528.5855, 1327.298 538.8358, 1343.698 518.3352, 1327.298 497.8346, 1327.298 508.0849, 1216.972 508.0849" style="stroke: rgb(67%,84%,90%); stroke-linecap: round; stroke-width: 1; fill: rgb(67%,84%,90%); fill-rule: evenodd;"/>
			<path d="M 953.037887,169.825647 L 953.037887,251.827897 Z" style="stroke: rgb(0%,0%,0%); stroke-linecap: butt; stroke-width: 1;"/>
			<path d="M 70.866142,210.826772 L 953.037887,210.826772 Z" style="stroke: rgb(0%,0%,0%); stroke-linecap: butt; stroke-width: 1;"/>
			<path d="M 70.866142,169.825647 L 70.866142,251.827897 Z" style="stroke: rgb(0%,0%,0%); stroke-linecap: butt; stroke-width: 1;"/>
			<path d="M 622.568296,210.826772 L 622.568296,231.327334 Z" style="stroke: rgb(0%,0%,0%); stroke-linecap: butt; stroke-width: 1;"/>
			<path d="M 622.568296,210.826772 L 622.568296,223.127109 Z" style="stroke: rgb(0%,0%,0%); stroke-linecap: butt; stroke-width: 1;"/>
			<path d="M 1346.401523,456.833521 L 1346.401523,538.835771 Z" style="stroke: rgb(0%,0%,0%); stroke-linecap: butt; stroke-width: 1;"/>
			<path d="M 70.866142,497.834646 L 1346.401523,497.834646 Z" style="stroke: rgb(0%,0%,0%); stroke-linecap: butt; stroke-width: 1;"/>
			<path d="M 70.866142,456.833521 L 70.866142,538.835771 Z" style="stroke: rgb(0%,0%,0%); stroke-linecap: butt; stroke-width: 1;"/>
			<path d="M 622.568296,497.834646 L 622.568296,518.335208 Z" style="stroke: rgb(0%,0%,0%); stroke-linecap: butt; stroke-width: 1;"/>
			<path d="M 1174.270451,497.834646 L 1174.270451,518.335208 Z" style="stroke: rgb(0%,0%,0%); stroke-linecap: butt; stroke-width: 1;"/>
			<path d="M 622.568296,497.834646 L 622.568296,510.134983 Z" style="stroke: rgb(0%,0%,0%); stroke-linecap: butt; stroke-width: 1;"/>
			<path d="M 1174.270451,497.834646 L 1174.270451,510.134983 Z" style="stroke: rgb(0%,0%,0%); stroke-linecap: butt; stroke-width: 1;"/>
			<g transform=" matrix(0.707107,0.707107,-0.707107,0.707107,622.568296,231.327334)">
				<text style="font-family: Helvetica; font-size: 6px;fill: rgb(0%,0%,0%); stroke:none;" transform="translate(0,0) scale(1,-1)" x="0" y="0">10000</text>
			</g>
			<g transform=" matrix(0.707107,0.707107,-0.707107,0.707107,622.568296,518.335208)">
				<text style="font-family: Helvetica; font-size: 6px;fill: rgb(0%,0%,0%); stroke:none;" transform="translate(0,0) scale(1,-1)" x="0" y="0">10000</text>
			</g>
			<g transform=" matrix(0.707107,0.707107,-0.707107,0.707107,1174.270451,518.335208)">
				<text style="font-family: Helvetica; font-size: 6px;fill: rgb(0%,0%,0%); stroke:none;" transform="translate(0,0) scale(1,-1)" x="0" y="0">20000</text>
			</g>
			<g transform=" matrix(0.707107,-0.707107,0.707107,0.707107,114.036835,169.825647)">
				<text style="font-family: Helvetica; font-size: 10px;fill: rgb(0%,0%,0%); stroke:none;" transform="translate(0,0) scale(1,-1)" x="0" y="0">Gene_00793</text>
			</g>
			<g transform=" matrix(0.707107,-0.707107,0.707107,0.707107,201.371286,169.825647)">
				<text style="font-family: Helvetica; font-size: 16px;fill: rgb(0%,0%,100%); stroke:none;" transform="translate(0,0) scale(1,-1)" x="0" y="0">Gene_00794 (79.2)</text>
			</g>
			<g transform=" matrix(0.707107,-0.707107,0.707107,0.707107,352.979038,169.825647)">
				<text style="font-family: Helvetica; font-size: 10px;fill: rgb(0%,0%,0%); stroke:none;" transform="translate(0,0) scale(1,-1)" x="0" y="0">Gene_00795</text>
			</g>
			<g transform=" matrix(0.707107,-0.707107,0.707107,0.707107,444.837447,169.825647)">
				<text style="font-family: Helvetica; font-size: 10px;fill: rgb(0%,0%,0%); stroke:none;" transform="translate(0,0) scale(1,-1)" x="0" y="0">Gene_00796</text>
			</g>
			<g transform=" matrix(0.707107,-0.707107,0.707107,0.707107,483.677279,169.825647)">
				<text style="font-family: Helvetica; font-size: 10px;fill: rgb(0%,0%,0%); stroke:none;" transform="translate(0,0) scale(1,-1)" x="0" y="0">Gene_00797</text>
			</g>
			<g transform=" matrix(0.707107,-0.707107,0.707107,0.707107,519.731015,169.825647)">
				<text style="font-family: Helvetica; font-size: 10px;fill: rgb(0%,0%,0%); stroke:none;" transform="translate(0,0) scale(1,-1)" x="0" y="0">Gene_00798</text>
			</g>
			<g transform=" matrix(0.707107,-0.707107,0.707107,0.707107,567.563591,169.825647)">
				<text style="font-family: Helvetica; font-size: 10px;fill: rgb(0%,0%,0%); stroke:none;" transform="translate(0,0) scale(1,-1)" x="0" y="0">Gene_00799</text>
			</g>
			<g transform=" matrix(0.707107,-0.707107,0.707107,0.707107,608.610232,169.825647)">
				<text style="font-family: Helvetica; font-size: 10px;fill: rgb(0%,0%,0%); stroke:none;" transform="translate(0,0) scale(1,-1)" x="0" y="0">Gene_00800</text>
			</g>
			<g transform=" matrix(0.707107,-0.707107,0.707107,0.707107,646.51217,169.825647)">
				<text style="font-family: Helvetica; font-size: 10px;fill: rgb(0%,0%,0%); stroke:none;" transform="translate(0,0) scale(1,-1)" x="0" y="0">Gene_00801</text>
			</g>
			<g transform=" matrix(0.707107,0.707107,-0.707107,0.707107,728.302014,251.827897)">
				<text style="font-family: Helvetica; font-size: 10px;fill: rgb(0%,0%,0%); stroke:none;" transform="translate(0,0) scale(1,-1)" x="0" y="0">Gene_00802</text>
			</g>
			<g transform=" matrix(0.707107,0.707107,-0.707107,0.707107,880.820075,251.827897)">
				<text style="font-family: Helvetica; font-size: 10px;fill: rgb(0%,0%,0%); stroke:none;" transform="translate(0,0) scale(1,-1)" x="0" y="0">Gene_00803</text>
			</g>
			<g transform=" matrix(0.707107,-0.707107,0.707107,0.707107,142.752932,456.833521)">
				<text style="font-family: Helvetica; font-size: 10px;fill: rgb(0%,0%,0%); stroke:none;" transform="translate(0,0) scale(1,-1)" x="0" y="0">Gene_01566</text>
			</g>
			<g transform=" matrix(0.707107,-0.707107,0.707107,0.707107,283.133546,456.833521)">
				<text style="font-family: Helvetica; font-size: 10px;fill: rgb(0%,0%,0%); stroke:none;" transform="translate(0,0) scale(1,-1)" x="0" y="0">Gene_01567</text>
			</g>
			<g transform=" matrix(0.707107,0.707107,-0.707107,0.707107,364.92339,538.835771)">
				<text style="font-family: Helvetica; font-size: 10px;fill: rgb(0%,0%,0%); stroke:none;" transform="translate(0,0) scale(1,-1)" x="0" y="0">Gene_01568</text>
			</g>
			<g transform=" matrix(0.707107,0.707107,-0.707107,0.707107,403.570126,538.835771)">
				<text style="font-family: Helvetica; font-size: 10px;fill: rgb(0%,0%,0%); stroke:none;" transform="translate(0,0) scale(1,-1)" x="0" y="0">Gene_01569</text>
			</g>
			<g transform=" matrix(0.707107,0.707107,-0.707107,0.707107,460.147182,538.835771)">
				<text style="font-family: Helvetica; font-size: 10px;fill: rgb(0%,0%,0%); stroke:none;" transform="translate(0,0) scale(1,-1)" x="0" y="0">Gene_01570</text>
			</g>
			<g transform=" matrix(0.707107,0.707107,-0.707107,0.707107,506.490163,538.835771)">
				<text style="font-family: Helvetica; font-size: 10px;fill: rgb(0%,0%,0%); stroke:none;" transform="translate(0,0) scale(1,-1)" x="0" y="0">Gene_01571</text>
			</g>
			<g transform=" matrix(0.707107,0.707107,-0.707107,0.707107,545.41275,538.835771)">
				<text style="font-family: Helvetica; font-size: 10px;fill: rgb(0%,0%,0%); stroke:none;" transform="translate(0,0) scale(1,-1)" x="0" y="0">Gene_01572</text>
			</g>
			<g transform=" matrix(0.707107,0.707107,-0.707107,0.707107,581.190635,538.835771)">
				<text style="font-family: Helvetica; font-size: 10px;fill: rgb(0%,0%,0%); stroke:none;" transform="translate(0,0) scale(1,-1)" x="0" y="0">Gene_01573</text>
			</g>
			<g transform=" matrix(0.707107,0.707107,-0.707107,0.707107,625.630243,538.835771)">
				<text style="font-family: Helvetica; font-size: 10px;fill: rgb(0%,0%,0%); stroke:none;" transform="translate(0,0) scale(1,-1)" x="0" y="0">Gene_01574</text>
			</g>
			<g transform=" matrix(0.707107,0.707107,-0.707107,0.707107,723.888397,538.835771)">
				<text style="font-family: Helvetica; font-size: 16px;fill: rgb(0%,0%,100%); stroke:none;" transform="translate(0,0) scale(1,-1)" x="0" y="0">Gene_01575 (79.2)</text>
			</g>
			<g transform=" matrix(0.707107,-0.707107,0.707107,0.707107,827.415306,456.833521)">
				<text style="font-family: Helvetica; font-size: 10px;fill: rgb(0%,0%,0%); stroke:none;" transform="translate(0,0) scale(1,-1)" x="0" y="0">Gene_01576</text>
			</g>
			<g transform=" matrix(0.707107,0.707107,-0.707107,0.707107,899.633118,538.835771)">
				<text style="font-family: Helvetica; font-size: 10px;fill: rgb(0%,0%,0%); stroke:none;" transform="translate(0,0) scale(1,-1)" x="0" y="0">Gene_01577</text>
			</g>
			<g transform=" matrix(0.707107,0.707107,-0.707107,0.707107,944.652014,538.835771)">
				<text style="font-family: Helvetica; font-size: 10px;fill: rgb(0%,0%,0%); stroke:none;" transform="translate(0,0) scale(1,-1)" x="0" y="0">Gene_01578</text>
			</g>
			<g transform=" matrix(0.707107,0.707107,-0.707107,0.707107,996.09824,538.835771)">
				<text style="font-family: Helvetica; font-size: 10px;fill: rgb(0%,0%,0%); stroke:none;" transform="translate(0,0) scale(1,-1)" x="0" y="0">Gene_01579</text>
			</g>
			<g transform=" matrix(0.707107,0.707107,-0.707107,0.707107,1063.074881,538.835771)">
				<text style="font-family: Helvetica; font-size: 10px;fill: rgb(0%,0%,0%); stroke:none;" transform="translate(0,0) scale(1,-1)" x="0" y="0">Gene_01580</text>
			</g>
			<g transform=" matrix(0.707107,0.707107,-0.707107,0.707107,1130.823906,538.835771)">
				<text style="font-family: Helvetica; font-size: 10px;fill: rgb(0%,0%,0%); stroke:none;" transform="translate(0,0) scale(1,-1)" x="0" y="0">Gene_01581</text>
			</g>
			<g transform=" matrix(0.707107,-0.707107,0.707107,0.707107,1189.414675,456.833521)">
				<text style="font-family: Helvetica; font-size: 10px;fill: rgb(0%,0%,0%); stroke:none;" transform="translate(0,0) scale(1,-1)" x="0" y="0">Gene_01582</text>
			</g>
			<g transform=" matrix(0.707107,0.707107,-0.707107,0.707107,1280.33519,538.835771)">
				<text style="font-family: Helvetica; font-size: 10px;fill: rgb(0%,0%,0%); stroke:none;" transform="translate(0,0) scale(1,-1)" x="0" y="0">Gene_01583</text>
			</g>
			<g transform=" matrix(1,0,-0,1,70,169.825647)">
				<text style="font-family: Helvetica; font-size: 12px;fill: rgb(60%,60%,60%); stroke:none;" transform="translate(0,0) scale(1,-1)" x="0" y="0">megahit_21545 (left 1079bp, right 45367bp)</text>
			</g>
			<g transform=" matrix(1,0,-0,1,70,456.833521)">
				<text style="font-family: Helvetica; font-size: 12px;fill: rgb(60%,60%,60%); stroke:none;" transform="translate(0,0) scale(1,-1)" x="0" y="0">megahit_34859 (left 42846bp, right 29641bp)</text>
			</g>
		</g>
	</g>
</svg>
