<?xml version="1.0" encoding="utf-8"?>
<!DOCTYPE svg
  PUBLIC '-//W3C//DTD SVG 1.0//EN'
  'http://www.w3.org/TR/2001/REC-SVG-20010904/DTD/svg10.dtd'>
<svg fill-rule="evenodd" height="708.6614173228346" preserveAspectRatio="xMinYMin meet" version="1.0" viewBox="0 0 1417 708" width="1417.3228346456692" xmlns="http://www.w3.org/2000/svg" xmlns:xlink="http://www.w3.org/1999/xlink">
	<title>...</title>
	<desc>...</desc>
	<clipPath id="clip">
		<rect height="708.6614173228346" width="1417.3228346456692" x="0" y="0"/>
	</clipPath>
	<g id="group" style="clip-path: url(#clip)" transform="scale(1,-1) translate(0,-708)">
		<g transform="">
			<polygon points="70.86614 169.8256, 756.4415 169.8256, 756.4415 251.8279, 70.86614 251.8279" style="stroke: rgb(96%,96%,96%); stroke-linecap: butt; stroke-width: 1; fill: rgb(96%,96%,96%); fill-rule: evenodd;"/>
			<polygon points="70.86614 456.8335, 1346.4 456.8335, 1346.4 538.8358, 70.86614 538.8358" style="stroke: rgb(96%,96%,96%); stroke-linecap: butt; stroke-width: 1; fill: rgb(96%,96%,96%); fill-rule: evenodd;"/>
			<polygon points="192.8796 456.8335, 657.9924 456.8335, 667.3955 251.8279, 198.9407 251.8279" style="stroke: rgb(100%,44%,44%); stroke-linecap: round; stroke-width: 1; fill: rgb(100%,44%,44%); fill-rule: evenodd;"/>
			<polygon points="659.1253 456.8335, 728.4589 456.8335, 746.1321 251.8279, 676.7986 251.8279" style="stroke: rgb(100%,33%,33%); stroke-linecap: round; stroke-width: 1; fill: rgb(100%,33%,33%); fill-rule: evenodd;"/>
			<polygon points="71.43259 456.8335, 173.5637 456.8335, 174.8665 251.8279, 71.77246 251.8279" style="stroke: rgb(100%,64%,64%); stroke-linecap: round; stroke-width: 1; fill: rgb(100%,64%,64%); fill-rule: evenodd;"/>
			<polygon points="148.9797 200.5765, 87.26659 200.5765, 87.26659 210.8268, 70.86614 190.3262, 87.26659 169.8256, 87.26659 180.0759, 148.9797 180.0759" style="stroke: rgb(56%,93%,56%); stroke-linecap: round; stroke-width: 1; fill: rgb(56%,93%,56%); fill-rule: evenodd;"/>
			<polygon points="203.4156 200.5765, 167.1928 200.5765, 167.1928 210.8268, 150.7923 190.3262, 167.1928 169.8256, 167.1928 180.0759, 203.4156 180.0759" style="stroke: rgb(56%,93%,56%); stroke-linecap: round; stroke-width: 1; fill: rgb(56%,93%,56%); fill-rule: evenodd;"/>
			<polygon points="277.734 200.5765, 216.7006 200.5765, 216.7006 210.8268, 200.3001 190.3262, 216.7006 169.8256, 216.7006 180.0759, 277.734 180.0759" style="stroke: rgb(56%,93%,56%); stroke-linecap: round; stroke-width: 1; fill: rgb(56%,93%,56%); fill-rule: evenodd;"/>
			<polygon points="451.8609 200.5765, 298.5527 200.5765, 298.5527 210.8268, 282.1523 190.3262, 298.5527 169.8256, 298.5527 180.0759, 451.8609 180.0759" style="stroke: rgb(56%,93%,56%); stroke-linecap: round; stroke-width: 1; fill: rgb(56%,93%,56%); fill-rule: evenodd;"/>
			<polygon points="531.2207 200.5765, 470.0174 200.5765, 470.0174 210.8268, 453.6169 190.3262, 470.0174 169.8256, 470.0174 180.0759, 531.2207 180.0759" style="stroke: rgb(56%,93%,56%); stroke-linecap: round; stroke-width: 1; fill: rgb(56%,93%,56%); fill-rule: evenodd;"/>
			<polygon points="615.2254 200.5765, 556.2312 200.5765, 556.2312 210.8268, 539.8308 190.3262, 556.2312 169.8256, 556.2312 180.0759, 615.2254 180.0759" style="stroke: rgb(56%,93%,56%); stroke-linecap: round; stroke-width: 1; fill: rgb(56%,93%,56%); fill-rule: evenodd;"/>
			<polygon points="630.9727 241.5776, 651.2216 241.5776, 651.2216 251.8279, 667.6221 231.3273, 651.2216 210.8268, 651.2216 221.0771, 630.9727 221.0771" style="stroke: rgb(67%,84%,90%); stroke-linecap: round; stroke-width: 1; fill: rgb(67%,84%,90%); fill-rule: evenodd;"/>
			<polygon points="677.8748 241.5776, 729.7317 241.5776, 729.7317 251.8279, 746.1321 231.3273, 729.7317 210.8268, 729.7317 221.0771, 677.8748 221.0771" style="stroke: rgb(67%,84%,90%); stroke-linecap: round; stroke-width: 1; fill: rgb(67%,84%,90%); fill-rule: evenodd;"/>
			<polygon points="147.6202 487.5844, 87.26659 487.5844, 87.26659 497.8346, 70.86614 477.3341, 87.26659 456.8335, 87.26659 467.0838, 147.6202 467.0838" style="stroke: rgb(56%,93%,56%); stroke-linecap: round; stroke-width: 1; fill: rgb(56%,93%,56%); fill-rule: evenodd;"/>
			<polygon points="195.4853 487.5844, 167.2494 487.5844, 167.2494 497.8346, 150.849 477.3341, 167.2494 456.8335, 167.2494 467.0838, 195.4853 467.0838" style="stroke: rgb(56%,93%,56%); stroke-linecap: round; stroke-width: 1; fill: rgb(56%,93%,56%); fill-rule: evenodd;"/>
			<polygon points="271.6729 487.5844, 210.6396 487.5844, 210.6396 497.8346, 194.2391 477.3341, 210.6396 456.8335, 210.6396 467.0838, 271.6729 467.0838" style="stroke: rgb(56%,93%,56%); stroke-linecap: round; stroke-width: 1; fill: rgb(56%,93%,56%); fill-rule: evenodd;"/>
			<polygon points="443.4775 487.5844, 290.3392 487.5844, 290.3392 497.8346, 273.9388 477.3341, 290.3392 456.8335, 290.3392 467.0838, 443.4775 467.0838" style="stroke: rgb(56%,93%,56%); stroke-linecap: round; stroke-width: 1; fill: rgb(56%,93%,56%); fill-rule: evenodd;"/>
			<polygon points="526.6891 487.5844, 462.0871 487.5844, 462.0871 497.8346, 445.6866 477.3341, 462.0871 456.8335, 462.0871 467.0838, 526.6891 467.0838" style="stroke: rgb(56%,93%,56%); stroke-linecap: round; stroke-width: 1; fill: rgb(56%,93%,56%); fill-rule: evenodd;"/>
			<polygon points="607.0685 487.5844, 548.0743 487.5844, 548.0743 497.8346, 531.6739 477.3341, 548.0743 456.8335, 548.0743 467.0838, 607.0685 467.0838" style="stroke: rgb(56%,93%,56%); stroke-linecap: round; stroke-width: 1; fill: rgb(56%,93%,56%); fill-rule: evenodd;"/>
			<polygon points="620.0402 528.5855, 641.8185 528.5855, 641.8185 538.8358, 658.219 518.3352, 641.8185 497.8346, 641.8185 508.0849, 620.0402 508.0849" style="stroke: rgb(67%,84%,90%); stroke-linecap: round; stroke-width: 1; fill: rgb(67%,84%,90%); fill-rule: evenodd;"/>
			<polygon points="660.2016 528.5855, 712.0584 528.5855, 712.0584 538.8358, 728.4589 518.3352, 712.0584 497.8346, 712.0584 508.0849, 660.2016 508.0849" style="stroke: rgb(67%,84%,90%); stroke-linecap: round; stroke-width: 1; fill: rgb(67%,84%,90%); fill-rule: evenodd;"/>
			<polygon points="734.2933 528.5855, 792.0979 528.5855, 792.0979 538.8358, 808.4984 518.3352, 792.0979 497.8346, 792.0979 508.0849, 734.2933 508.0849" style="stroke: rgb(67%,84%,90%); stroke-linecap: round; stroke-width: 1; fill: rgb(67%,84%,90%); fill-rule: evenodd;"/>
			<polygon points="822.9429 528.5855, 874.12 528.5855, 874.12 538.8358, 890.5204 518.3352, 874.12 497.8346, 874.12 508.0849, 822.9429 508.0849" style="stroke: rgb(67%,84%,90%); stroke-linecap: round; stroke-width: 1; fill: rgb(67%,84%,90%); fill-rule: evenodd;"/>
			<polygon points="903.039 528.5855, 908.3336 528.5855, 908.3336 538.8358, 924.7341 518.3352, 908.3336 497.8346, 908.3336 508.0849, 903.039 508.0849" style="stroke: rgb(67%,84%,90%); stroke-linecap: round; stroke-width: 1; fill: rgb(67%,84%,90%); fill-rule: evenodd;"/>
			<polygon points="925.7537 528.5855, 962.8262 528.5855, 962.8262 538.8358, 979.2266 518.3352, 962.8262 497.8346, 962.8262 508.0849, 925.7537 508.0849" style="stroke: rgb(67%,84%,90%); stroke-linecap: round; stroke-width: 1; fill: rgb(67%,84%,90%); fill-rule: evenodd;"/>
			<polygon points="1069.859 487.5844, 1000.499 487.5844, 1000.499 497.8346, 984.0981 477.3341, 1000.499 456.8335, 1000.499 467.0838, 1069.859 467.0838" style="stroke: rgb(56%,93%,56%); stroke-linecap: round; stroke-width: 1; fill: rgb(56%,93%,56%); fill-rule: evenodd;"/>
			<polygon points="1203.315 487.5844, 1087.562 487.5844, 1087.562 497.8346, 1071.162 477.3341, 1087.562 456.8335, 1087.562 467.0838, 1203.315 467.0838" style="stroke: rgb(56%,93%,56%); stroke-linecap: round; stroke-width: 1; fill: rgb(56%,93%,56%); fill-rule: evenodd;"/>
			<polygon points="1277.18 487.5844, 1220.905 487.5844, 1220.905 497.8346, 1204.504 477.3341, 1220.905 456.8335, 1220.905 467.0838, 1277.18 467.0838" style="stroke: rgb(56%,93%,56%); stroke-linecap: round; stroke-width: 1; fill: rgb(56%,93%,56%); fill-rule: evenodd;"/>
			<polygon points="1346.4 487.5844, 1306.609 487.5844, 1306.609 497.8346, 1290.208 477.3341, 1306.609 456.8335, 1306.609 467.0838, 1346.4 467.0838" style="stroke: rgb(56%,93%,56%); stroke-linecap: round; stroke-width: 1; fill: rgb(56%,93%,56%); fill-rule: evenodd;"/>
			<path d="M 756.441542,169.825647 L 756.441542,251.827897 Z" style="stroke: rgb(0%,0%,0%); stroke-linecap: butt; stroke-width: 1;"/>
			<path d="M 70.866142,210.826772 L 756.441542,210.826772 Z" style="stroke: rgb(0%,0%,0%); stroke-linecap: butt; stroke-width: 1;"/>
			<path d="M 70.866142,169.825647 L 70.866142,251.827897 Z" style="stroke: rgb(0%,0%,0%); stroke-linecap: butt; stroke-width: 1;"/>
			<path d="M 637.316939,210.826772 L 637.316939,231.327334 Z" style="stroke: rgb(0%,0%,0%); stroke-linecap: butt; stroke-width: 1;"/>
			<path d="M 637.316939,210.826772 L 637.316939,223.127109 Z" style="stroke: rgb(0%,0%,0%); stroke-linecap: butt; stroke-width: 1;"/>
			<path d="M 1346.400048,456.833521 L 1346.400048,538.835771 Z" style="stroke: rgb(0%,0%,0%); stroke-linecap: butt; stroke-width: 1;"/>
			<path d="M 70.866142,497.834646 L 1346.400048,497.834646 Z" style="stroke: rgb(0%,0%,0%); stroke-linecap: butt; stroke-width: 1;"/>
			<path d="M 70.866142,456.833521 L 70.866142,538.835771 Z" style="stroke: rgb(0%,0%,0%); stroke-linecap: butt; stroke-width: 1;"/>
			<path d="M 637.316939,497.834646 L 637.316939,518.335208 Z" style="stroke: rgb(0%,0%,0%); stroke-linecap: butt; stroke-width: 1;"/>
			<path d="M 1203.767737,497.834646 L 1203.767737,518.335208 Z" style="stroke: rgb(0%,0%,0%); stroke-linecap: butt; stroke-width: 1;"/>
			<path d="M 637.316939,497.834646 L 637.316939,510.134983 Z" style="stroke: rgb(0%,0%,0%); stroke-linecap: butt; stroke-width: 1;"/>
			<path d="M 1203.767737,497.834646 L 1203.767737,510.134983 Z" style="stroke: rgb(0%,0%,0%); stroke-linecap: butt; stroke-width: 1;"/>
			<g transform=" matrix(0.707107,0.707107,-0.707107,0.707107,637.316939,231.327334)">
				<text style="font-family: Helvetica; font-size: 6px;fill: rgb(0%,0%,0%); stroke:none;" transform="translate(0,0) scale(1,-1)" x="0" y="0">10000</text>
			</g>
			<g transform=" matrix(0.707107,0.707107,-0.707107,0.707107,637.316939,518.335208)">
				<text style="font-family: Helvetica; font-size: 6px;fill: rgb(0%,0%,0%); stroke:none;" transform="translate(0,0) scale(1,-1)" x="0" y="0">10000</text>
			</g>
			<g transform=" matrix(0.707107,0.707107,-0.707107,0.707107,1203.767737,518.335208)">
				<text style="font-family: Helvetica; font-size: 6px;fill: rgb(0%,0%,0%); stroke:none;" transform="translate(0,0) scale(1,-1)" x="0" y="0">20000</text>
			</g>
			<g transform=" matrix(0.707107,-0.707107,0.707107,0.707107,109.922924,169.825647)">
				<text style="font-family: Helvetica; font-size: 10px;fill: rgb(0%,0%,0%); stroke:none;" transform="translate(0,0) scale(1,-1)" x="0" y="0">Gene_00913</text>
			</g>
			<g transform=" matrix(0.707107,-0.707107,0.707107,0.707107,177.103989,169.825647)">
				<text style="font-family: Helvetica; font-size: 10px;fill: rgb(0%,0%,0%); stroke:none;" transform="translate(0,0) scale(1,-1)" x="0" y="0">Gene_00914</text>
			</g>
			<g transform=" matrix(0.707107,-0.707107,0.707107,0.707107,239.017061,169.825647)">
				<text style="font-family: Helvetica; font-size: 10px;fill: rgb(0%,0%,0%); stroke:none;" transform="translate(0,0) scale(1,-1)" x="0" y="0">Gene_00915</text>
			</g>
			<g transform=" matrix(0.707107,-0.707107,0.707107,0.707107,367.006619,169.825647)">
				<text style="font-family: Helvetica; font-size: 10px;fill: rgb(0%,0%,0%); stroke:none;" transform="translate(0,0) scale(1,-1)" x="0" y="0">Gene_00916</text>
			</g>
			<g transform=" matrix(0.707107,-0.707107,0.707107,0.707107,492.418825,169.825647)">
				<text style="font-family: Helvetica; font-size: 10px;fill: rgb(0%,0%,0%); stroke:none;" transform="translate(0,0) scale(1,-1)" x="0" y="0">Gene_00917</text>
			</g>
			<g transform=" matrix(0.707107,-0.707107,0.707107,0.707107,577.528058,169.825647)">
				<text style="font-family: Helvetica; font-size: 10px;fill: rgb(0%,0%,0%); stroke:none;" transform="translate(0,0) scale(1,-1)" x="0" y="0">Gene_00918</text>
			</g>
			<g transform=" matrix(0.707107,0.707107,-0.707107,0.707107,649.297374,251.827897)">
				<text style="font-family: Helvetica; font-size: 10px;fill: rgb(0%,0%,0%); stroke:none;" transform="translate(0,0) scale(1,-1)" x="0" y="0">Gene_00919</text>
			</g>
			<g transform=" matrix(0.707107,0.707107,-0.707107,0.707107,712.003477,251.827897)">
				<text style="font-family: Helvetica; font-size: 16px;fill: rgb(0%,0%,100%); stroke:none;" transform="translate(0,0) scale(1,-1)" x="0" y="0">Gene_00920 (83.3)</text>
			</g>
			<g transform=" matrix(0.707107,-0.707107,0.707107,0.707107,109.243183,456.833521)">
				<text style="font-family: Helvetica; font-size: 10px;fill: rgb(0%,0%,0%); stroke:none;" transform="translate(0,0) scale(1,-1)" x="0" y="0">Gene_00941</text>
			</g>
			<g transform=" matrix(0.707107,-0.707107,0.707107,0.707107,173.167156,456.833521)">
				<text style="font-family: Helvetica; font-size: 10px;fill: rgb(0%,0%,0%); stroke:none;" transform="translate(0,0) scale(1,-1)" x="0" y="0">Gene_00942</text>
			</g>
			<g transform=" matrix(0.707107,-0.707107,0.707107,0.707107,232.956037,456.833521)">
				<text style="font-family: Helvetica; font-size: 10px;fill: rgb(0%,0%,0%); stroke:none;" transform="translate(0,0) scale(1,-1)" x="0" y="0">Gene_00943</text>
			</g>
			<g transform=" matrix(0.707107,-0.707107,0.707107,0.707107,358.708115,456.833521)">
				<text style="font-family: Helvetica; font-size: 10px;fill: rgb(0%,0%,0%); stroke:none;" transform="translate(0,0) scale(1,-1)" x="0" y="0">Gene_00944</text>
			</g>
			<g transform=" matrix(0.707107,-0.707107,0.707107,0.707107,486.187867,456.833521)">
				<text style="font-family: Helvetica; font-size: 10px;fill: rgb(0%,0%,0%); stroke:none;" transform="translate(0,0) scale(1,-1)" x="0" y="0">Gene_00945</text>
			</g>
			<g transform=" matrix(0.707107,-0.707107,0.707107,0.707107,569.371166,456.833521)">
				<text style="font-family: Helvetica; font-size: 10px;fill: rgb(0%,0%,0%); stroke:none;" transform="translate(0,0) scale(1,-1)" x="0" y="0">Gene_00946</text>
			</g>
			<g transform=" matrix(0.707107,0.707107,-0.707107,0.707107,639.129582,538.835771)">
				<text style="font-family: Helvetica; font-size: 10px;fill: rgb(0%,0%,0%); stroke:none;" transform="translate(0,0) scale(1,-1)" x="0" y="0">Gene_00947</text>
			</g>
			<g transform=" matrix(0.707107,0.707107,-0.707107,0.707107,694.330212,538.835771)">
				<text style="font-family: Helvetica; font-size: 16px;fill: rgb(0%,0%,100%); stroke:none;" transform="translate(0,0) scale(1,-1)" x="0" y="0">Gene_00948 (83.3)</text>
			</g>
			<g transform=" matrix(0.707107,0.707107,-0.707107,0.707107,771.395843,538.835771)">
				<text style="font-family: Helvetica; font-size: 10px;fill: rgb(0%,0%,0%); stroke:none;" transform="translate(0,0) scale(1,-1)" x="0" y="0">Gene_00949</text>
			</g>
			<g transform=" matrix(0.707107,0.707107,-0.707107,0.707107,856.731656,538.835771)">
				<text style="font-family: Helvetica; font-size: 10px;fill: rgb(0%,0%,0%); stroke:none;" transform="translate(0,0) scale(1,-1)" x="0" y="0">Gene_00950</text>
			</g>
			<g transform=" matrix(0.707107,0.707107,-0.707107,0.707107,913.886541,538.835771)">
				<text style="font-family: Helvetica; font-size: 10px;fill: rgb(0%,0%,0%); stroke:none;" transform="translate(0,0) scale(1,-1)" x="0" y="0">Gene_00951</text>
			</g>
			<g transform=" matrix(0.707107,0.707107,-0.707107,0.707107,952.490163,538.835771)">
				<text style="font-family: Helvetica; font-size: 10px;fill: rgb(0%,0%,0%); stroke:none;" transform="translate(0,0) scale(1,-1)" x="0" y="0">Gene_00952</text>
			</g>
			<g transform=" matrix(0.707107,-0.707107,0.707107,0.707107,1026.978443,456.833521)">
				<text style="font-family: Helvetica; font-size: 10px;fill: rgb(0%,0%,0%); stroke:none;" transform="translate(0,0) scale(1,-1)" x="0" y="0">Gene_00953</text>
			</g>
			<g transform=" matrix(0.707107,-0.707107,0.707107,0.707107,1137.238091,456.833521)">
				<text style="font-family: Helvetica; font-size: 10px;fill: rgb(0%,0%,0%); stroke:none;" transform="translate(0,0) scale(1,-1)" x="0" y="0">Gene_00954</text>
			</g>
			<g transform=" matrix(0.707107,-0.707107,0.707107,0.707107,1240.841942,456.833521)">
				<text style="font-family: Helvetica; font-size: 10px;fill: rgb(0%,0%,0%); stroke:none;" transform="translate(0,0) scale(1,-1)" x="0" y="0">Gene_00955</text>
			</g>
			<g transform=" matrix(0.707107,-0.707107,0.707107,0.707107,1318.304088,456.833521)">
				<text style="font-family: Helvetica; font-size: 10px;fill: rgb(0%,0%,0%); stroke:none;" transform="translate(0,0) scale(1,-1)" x="0" y="0">Gene_00956</text>
			</g>
			<g transform=" matrix(1,0,-0,1,70,169.825647)">
				<text style="font-family: Helvetica; font-size: 12px;fill: rgb(60%,60%,60%); stroke:none;" transform="translate(0,0) scale(1,-1)" x="0" y="0">megahit_45639 (left 21690bp, right 182bp)</text>
			</g>
			<g transform=" matrix(1,0,-0,1,70,456.833521)">
				<text style="font-family: Helvetica; font-size: 12px;fill: rgb(60%,60%,60%); stroke:none;" transform="translate(0,0) scale(1,-1)" x="0" y="0">megahit_11148 (left 43524bp, right 61406bp)</text>
			</g>
		</g>
	</g>
</svg>
