<?xml version="1.0" encoding="utf-8"?>
<!DOCTYPE svg
  PUBLIC '-//W3C//DTD SVG 1.0//EN'
  'http://www.w3.org/TR/2001/REC-SVG-20010904/DTD/svg10.dtd'>
<svg fill-rule="evenodd" height="708.6614173228346" preserveAspectRatio="xMinYMin meet" version="1.0" viewBox="0 0 1417 708" width="1417.3228346456692" xmlns="http://www.w3.org/2000/svg" xmlns:xlink="http://www.w3.org/1999/xlink">
	<title>...</title>
	<desc>...</desc>
	<clipPath id="clip">
		<rect height="708.6614173228346" width="1417.3228346456692" x="0" y="0"/>
	</clipPath>
	<g id="group" style="clip-path: url(#clip)" transform="scale(1,-1) translate(0,-708)">
		<g transform="">
			<polygon points="70.86614 169.8256, 945.2987 169.8256, 945.2987 251.8279, 70.86614 251.8279" style="stroke: rgb(96%,96%,96%); stroke-linecap: butt; stroke-width: 1; fill: rgb(96%,96%,96%); fill-rule: evenodd;"/>
			<polygon points="70.86614 456.8335, 1346.379 456.8335, 1346.379 538.8358, 70.86614 538.8358" style="stroke: rgb(96%,96%,96%); stroke-linecap: butt; stroke-width: 1; fill: rgb(96%,96%,96%); fill-rule: evenodd;"/>
			<polygon points="470.3108 456.8335, 984.3164 456.8335, 422.8042 251.8279, 937.6665 251.8279" style="stroke: rgb(100%,56%,56%); stroke-linecap: round; stroke-width: 1; fill: rgb(100%,56%,56%); fill-rule: evenodd;"/>
			<polygon points="70.86614 241.5776, 126.115 241.5776, 126.115 251.8279, 142.5154 231.3273, 126.115 210.8268, 126.115 221.0771, 70.86614 221.0771" style="stroke: rgb(67%,84%,90%); stroke-linecap: round; stroke-width: 1; fill: rgb(67%,84%,90%); fill-rule: evenodd;"/>
			<polygon points="143.7615 241.5776, 277.7466 241.5776, 277.7466 251.8279, 294.1471 231.3273, 277.7466 210.8268, 277.7466 221.0771, 143.7615 221.0771" style="stroke: rgb(67%,84%,90%); stroke-linecap: round; stroke-width: 1; fill: rgb(67%,84%,90%); fill-rule: evenodd;"/>
			<polygon points="319.5358 241.5776, 321.2813 241.5776, 321.2813 251.8279, 337.6818 231.3273, 321.2813 210.8268, 321.2813 221.0771, 319.5358 221.0771" style="stroke: rgb(67%,84%,90%); stroke-linecap: round; stroke-width: 1; fill: rgb(67%,84%,90%); fill-rule: evenodd;"/>
			<polygon points="350.6877 241.5776, 404.301 241.5776, 404.301 251.8279, 420.7015 231.3273, 404.301 210.8268, 404.301 221.0771, 350.6877 221.0771" style="stroke: rgb(67%,84%,90%); stroke-linecap: round; stroke-width: 1; fill: rgb(67%,84%,90%); fill-rule: evenodd;"/>
			<polygon points="427.3991 241.5776, 490.5917 241.5776, 490.5917 251.8279, 506.9921 231.3273, 490.5917 210.8268, 490.5917 221.0771, 427.3991 221.0771" style="stroke: rgb(67%,84%,90%); stroke-linecap: round; stroke-width: 1; fill: rgb(67%,84%,90%); fill-rule: evenodd;"/>
			<polygon points="509.4064 241.5776, 510.9182 241.5776, 510.9182 251.8279, 527.3187 231.3273, 510.9182 210.8268, 510.9182 221.0771, 509.4064 221.0771" style="stroke: rgb(67%,84%,90%); stroke-linecap: round; stroke-width: 1; fill: rgb(67%,84%,90%); fill-rule: evenodd;"/>
			<polygon points="529.1099 241.5776, 569.1722 241.5776, 569.1722 251.8279, 585.5727 231.3273, 569.1722 210.8268, 569.1722 221.0771, 529.1099 221.0771" style="stroke: rgb(67%,84%,90%); stroke-linecap: round; stroke-width: 1; fill: rgb(67%,84%,90%); fill-rule: evenodd;"/>
			<polygon points="586.1957 241.5776, 848.6822 241.5776, 848.6822 251.8279, 865.0827 231.3273, 848.6822 210.8268, 848.6822 221.0771, 586.1957 221.0771" style="stroke: rgb(67%,84%,90%); stroke-linecap: round; stroke-width: 1; fill: rgb(67%,84%,90%); fill-rule: evenodd;"/>
			<polygon points="866.2509 241.5776, 923.1351 241.5776, 923.1351 251.8279, 939.5356 231.3273, 923.1351 210.8268, 923.1351 221.0771, 866.2509 221.0771" style="stroke: rgb(67%,84%,90%); stroke-linecap: round; stroke-width: 1; fill: rgb(67%,84%,90%); fill-rule: evenodd;"/>
			<polygon points="75.85044 528.5855, 89.04425 528.5855, 89.04425 538.8358, 105.4447 518.3352, 89.04425 497.8346, 89.04425 508.0849, 75.85044 508.0849" style="stroke: rgb(67%,84%,90%); stroke-linecap: round; stroke-width: 1; fill: rgb(67%,84%,90%); fill-rule: evenodd;"/>
			<polygon points="203.3394 487.5844, 126.5958 487.5844, 126.5958 497.8346, 110.1954 477.3341, 126.5958 456.8335, 126.5958 467.0838, 203.3394 467.0838" style="stroke: rgb(56%,93%,56%); stroke-linecap: round; stroke-width: 1; fill: rgb(56%,93%,56%); fill-rule: evenodd;"/>
			<polygon points="254.5842 487.5844, 215.9237 487.5844, 215.9237 497.8346, 199.5233 477.3341, 215.9237 456.8335, 215.9237 467.0838, 254.5842 467.0838" style="stroke: rgb(56%,93%,56%); stroke-linecap: round; stroke-width: 1; fill: rgb(56%,93%,56%); fill-rule: evenodd;"/>
			<polygon points="363.7715 487.5844, 271.3741 487.5844, 271.3741 497.8346, 254.9736 477.3341, 271.3741 456.8335, 271.3741 467.0838, 363.7715 467.0838" style="stroke: rgb(56%,93%,56%); stroke-linecap: round; stroke-width: 1; fill: rgb(56%,93%,56%); fill-rule: evenodd;"/>
			<polygon points="467.8965 487.5844, 389.7511 487.5844, 389.7511 497.8346, 373.3506 477.3341, 389.7511 456.8335, 389.7511 467.0838, 467.8965 467.0838" style="stroke: rgb(56%,93%,56%); stroke-linecap: round; stroke-width: 1; fill: rgb(56%,93%,56%); fill-rule: evenodd;"/>
			<polygon points="541.0255 487.5844, 484.6085 487.5844, 484.6085 497.8346, 468.208 477.3341, 484.6085 456.8335, 484.6085 467.0838, 541.0255 467.0838" style="stroke: rgb(56%,93%,56%); stroke-linecap: round; stroke-width: 1; fill: rgb(56%,93%,56%); fill-rule: evenodd;"/>
			<polygon points="819.4452 487.5844, 558.5941 487.5844, 558.5941 497.8346, 542.1937 477.3341, 558.5941 456.8335, 558.5941 467.0838, 819.4452 467.0838" style="stroke: rgb(56%,93%,56%); stroke-linecap: round; stroke-width: 1; fill: rgb(56%,93%,56%); fill-rule: evenodd;"/>
			<polygon points="880.9701 487.5844, 836.4687 487.5844, 836.4687 497.8346, 820.0682 477.3341, 836.4687 456.8335, 836.4687 467.0838, 880.9701 467.0838" style="stroke: rgb(56%,93%,56%); stroke-linecap: round; stroke-width: 1; fill: rgb(56%,93%,56%); fill-rule: evenodd;"/>
			<polygon points="896.7018 487.5844, 894.9563 487.5844, 894.9563 497.8346, 878.5558 477.3341, 894.9563 456.8335, 894.9563 467.0838, 896.7018 467.0838" style="stroke: rgb(56%,93%,56%); stroke-linecap: round; stroke-width: 1; fill: rgb(56%,93%,56%); fill-rule: evenodd;"/>
			<polygon points="979.6436 487.5844, 916.4511 487.5844, 916.4511 497.8346, 900.0506 477.3341, 916.4511 456.8335, 916.4511 467.0838, 979.6436 467.0838" style="stroke: rgb(56%,93%,56%); stroke-linecap: round; stroke-width: 1; fill: rgb(56%,93%,56%); fill-rule: evenodd;"/>
			<polygon points="1007.758 487.5844, 1007.758 497.8346, 993.8177 477.3341, 1007.758 456.8335, 1007.758 467.0838" style="stroke: rgb(56%,93%,56%); stroke-linecap: round; stroke-width: 1; fill: rgb(56%,93%,56%); fill-rule: evenodd;"/>
			<polygon points="1049.112 487.5844, 1024.47 487.5844, 1024.47 497.8346, 1008.07 477.3341, 1024.47 456.8335, 1024.47 467.0838, 1049.112 467.0838" style="stroke: rgb(56%,93%,56%); stroke-linecap: round; stroke-width: 1; fill: rgb(56%,93%,56%); fill-rule: evenodd;"/>
			<polygon points="1149.265 487.5844, 1072.989 487.5844, 1072.989 497.8346, 1056.589 477.3341, 1072.989 456.8335, 1072.989 467.0838, 1149.265 467.0838" style="stroke: rgb(56%,93%,56%); stroke-linecap: round; stroke-width: 1; fill: rgb(56%,93%,56%); fill-rule: evenodd;"/>
			<polygon points="1229.949 487.5844, 1168.392 487.5844, 1168.392 497.8346, 1151.991 477.3341, 1168.392 456.8335, 1168.392 467.0838, 1229.949 467.0838" style="stroke: rgb(56%,93%,56%); stroke-linecap: round; stroke-width: 1; fill: rgb(56%,93%,56%); fill-rule: evenodd;"/>
			<polygon points="1346.379 487.5844, 1256.084 487.5844, 1256.084 497.8346, 1239.684 477.3341, 1256.084 456.8335, 1256.084 467.0838, 1346.379 467.0838" style="stroke: rgb(56%,93%,56%); stroke-linecap: round; stroke-width: 1; fill: rgb(56%,93%,56%); fill-rule: evenodd;"/>
			<path d="M 945.29869,169.825647 L 945.29869,251.827897 Z" style="stroke: rgb(0%,0%,0%); stroke-linecap: butt; stroke-width: 1;"/>
			<path d="M 70.866142,210.826772 L 945.29869,210.826772 Z" style="stroke: rgb(0%,0%,0%); stroke-linecap: butt; stroke-width: 1;"/>
			<path d="M 70.866142,169.825647 L 70.866142,251.827897 Z" style="stroke: rgb(0%,0%,0%); stroke-linecap: butt; stroke-width: 1;"/>
			<path d="M 849.662498,210.826772 L 849.662498,231.327334 Z" style="stroke: rgb(0%,0%,0%); stroke-linecap: butt; stroke-width: 1;"/>
			<path d="M 849.662498,210.826772 L 849.662498,223.127109 Z" style="stroke: rgb(0%,0%,0%); stroke-linecap: butt; stroke-width: 1;"/>
			<path d="M 1346.378813,456.833521 L 1346.378813,538.835771 Z" style="stroke: rgb(0%,0%,0%); stroke-linecap: butt; stroke-width: 1;"/>
			<path d="M 70.866142,497.834646 L 1346.378813,497.834646 Z" style="stroke: rgb(0%,0%,0%); stroke-linecap: butt; stroke-width: 1;"/>
			<path d="M 70.866142,456.833521 L 70.866142,538.835771 Z" style="stroke: rgb(0%,0%,0%); stroke-linecap: butt; stroke-width: 1;"/>
			<path d="M 849.662498,497.834646 L 849.662498,518.335208 Z" style="stroke: rgb(0%,0%,0%); stroke-linecap: butt; stroke-width: 1;"/>
			<path d="M 849.662498,497.834646 L 849.662498,510.134983 Z" style="stroke: rgb(0%,0%,0%); stroke-linecap: butt; stroke-width: 1;"/>
			<g transform=" matrix(0.707107,0.707107,-0.707107,0.707107,849.662498,231.327334)">
				<text style="font-family: Helvetica; font-size: 6px;fill: rgb(0%,0%,0%); stroke:none;" transform="translate(0,0) scale(1,-1)" x="0" y="0">10000</text>
			</g>
			<g transform=" matrix(0.707107,0.707107,-0.707107,0.707107,849.662498,518.335208)">
				<text style="font-family: Helvetica; font-size: 6px;fill: rgb(0%,0%,0%); stroke:none;" transform="translate(0,0) scale(1,-1)" x="0" y="0">10000</text>
			</g>
			<g transform=" matrix(0.707107,0.707107,-0.707107,0.707107,106.690774,251.827897)">
				<text style="font-family: Helvetica; font-size: 10px;fill: rgb(0%,0%,0%); stroke:none;" transform="translate(0,0) scale(1,-1)" x="0" y="0">Gene_01060</text>
			</g>
			<g transform=" matrix(0.707107,0.707107,-0.707107,0.707107,218.954269,251.827897)">
				<text style="font-family: Helvetica; font-size: 10px;fill: rgb(0%,0%,0%); stroke:none;" transform="translate(0,0) scale(1,-1)" x="0" y="0">Gene_01061</text>
			</g>
			<g transform=" matrix(0.707107,0.707107,-0.707107,0.707107,328.608796,251.827897)">
				<text style="font-family: Helvetica; font-size: 10px;fill: rgb(0%,0%,0%); stroke:none;" transform="translate(0,0) scale(1,-1)" x="0" y="0">Gene_01062</text>
			</g>
			<g transform=" matrix(0.707107,0.707107,-0.707107,0.707107,385.694569,251.827897)">
				<text style="font-family: Helvetica; font-size: 10px;fill: rgb(0%,0%,0%); stroke:none;" transform="translate(0,0) scale(1,-1)" x="0" y="0">Gene_01063</text>
			</g>
			<g transform=" matrix(0.707107,0.707107,-0.707107,0.707107,467.195607,251.827897)">
				<text style="font-family: Helvetica; font-size: 10px;fill: rgb(0%,0%,0%); stroke:none;" transform="translate(0,0) scale(1,-1)" x="0" y="0">Gene_01064</text>
			</g>
			<g transform=" matrix(0.707107,0.707107,-0.707107,0.707107,518.362528,251.827897)">
				<text style="font-family: Helvetica; font-size: 10px;fill: rgb(0%,0%,0%); stroke:none;" transform="translate(0,0) scale(1,-1)" x="0" y="0">Gene_01065</text>
			</g>
			<g transform=" matrix(0.707107,0.707107,-0.707107,0.707107,557.341285,251.827897)">
				<text style="font-family: Helvetica; font-size: 10px;fill: rgb(0%,0%,0%); stroke:none;" transform="translate(0,0) scale(1,-1)" x="0" y="0">Gene_01066</text>
			</g>
			<g transform=" matrix(0.707107,0.707107,-0.707107,0.707107,725.639178,251.827897)">
				<text style="font-family: Helvetica; font-size: 10px;fill: rgb(0%,0%,0%); stroke:none;" transform="translate(0,0) scale(1,-1)" x="0" y="0">Gene_01067</text>
			</g>
			<g transform=" matrix(0.707107,0.707107,-0.707107,0.707107,902.893228,251.827897)">
				<text style="font-family: Helvetica; font-size: 16px;fill: rgb(0%,0%,100%); stroke:none;" transform="translate(0,0) scale(1,-1)" x="0" y="0">Gene_01068 (78.0)</text>
			</g>
			<g transform=" matrix(0.707107,0.707107,-0.707107,0.707107,90.647569,538.835771)">
				<text style="font-family: Helvetica; font-size: 10px;fill: rgb(0%,0%,0%); stroke:none;" transform="translate(0,0) scale(1,-1)" x="0" y="0">Gene_02118</text>
			</g>
			<g transform=" matrix(0.707107,-0.707107,0.707107,0.707107,156.76738,456.833521)">
				<text style="font-family: Helvetica; font-size: 10px;fill: rgb(0%,0%,0%); stroke:none;" transform="translate(0,0) scale(1,-1)" x="0" y="0">Gene_02119</text>
			</g>
			<g transform=" matrix(0.707107,-0.707107,0.707107,0.707107,227.053751,456.833521)">
				<text style="font-family: Helvetica; font-size: 10px;fill: rgb(0%,0%,0%); stroke:none;" transform="translate(0,0) scale(1,-1)" x="0" y="0">Gene_02120</text>
			</g>
			<g transform=" matrix(0.707107,-0.707107,0.707107,0.707107,309.372526,456.833521)">
				<text style="font-family: Helvetica; font-size: 10px;fill: rgb(0%,0%,0%); stroke:none;" transform="translate(0,0) scale(1,-1)" x="0" y="0">Gene_02121</text>
			</g>
			<g transform=" matrix(0.707107,-0.707107,0.707107,0.707107,420.623585,456.833521)">
				<text style="font-family: Helvetica; font-size: 10px;fill: rgb(0%,0%,0%); stroke:none;" transform="translate(0,0) scale(1,-1)" x="0" y="0">Gene_02122</text>
			</g>
			<g transform=" matrix(0.707107,-0.707107,0.707107,0.707107,504.616772,456.833521)">
				<text style="font-family: Helvetica; font-size: 16px;fill: rgb(0%,0%,100%); stroke:none;" transform="translate(0,0) scale(1,-1)" x="0" y="0">Gene_02123 (78.0)</text>
			</g>
			<g transform=" matrix(0.707107,-0.707107,0.707107,0.707107,680.819448,456.833521)">
				<text style="font-family: Helvetica; font-size: 10px;fill: rgb(0%,0%,0%); stroke:none;" transform="translate(0,0) scale(1,-1)" x="0" y="0">Gene_02124</text>
			</g>
			<g transform=" matrix(0.707107,-0.707107,0.707107,0.707107,850.519174,456.833521)">
				<text style="font-family: Helvetica; font-size: 10px;fill: rgb(0%,0%,0%); stroke:none;" transform="translate(0,0) scale(1,-1)" x="0" y="0">Gene_02125</text>
			</g>
			<g transform=" matrix(0.707107,-0.707107,0.707107,0.707107,887.62882,456.833521)">
				<text style="font-family: Helvetica; font-size: 10px;fill: rgb(0%,0%,0%); stroke:none;" transform="translate(0,0) scale(1,-1)" x="0" y="0">Gene_02126</text>
			</g>
			<g transform=" matrix(0.707107,-0.707107,0.707107,0.707107,939.847116,456.833521)">
				<text style="font-family: Helvetica; font-size: 10px;fill: rgb(0%,0%,0%); stroke:none;" transform="translate(0,0) scale(1,-1)" x="0" y="0">Gene_02127</text>
			</g>
			<g transform=" matrix(0.707107,-0.707107,0.707107,0.707107,1000.78793,456.833521)">
				<text style="font-family: Helvetica; font-size: 10px;fill: rgb(0%,0%,0%); stroke:none;" transform="translate(0,0) scale(1,-1)" x="0" y="0">Gene_02128</text>
			</g>
			<g transform=" matrix(0.707107,-0.707107,0.707107,0.707107,1028.59096,456.833521)">
				<text style="font-family: Helvetica; font-size: 10px;fill: rgb(0%,0%,0%); stroke:none;" transform="translate(0,0) scale(1,-1)" x="0" y="0">Gene_02129</text>
			</g>
			<g transform=" matrix(0.707107,-0.707107,0.707107,0.707107,1102.927072,456.833521)">
				<text style="font-family: Helvetica; font-size: 10px;fill: rgb(0%,0%,0%); stroke:none;" transform="translate(0,0) scale(1,-1)" x="0" y="0">Gene_02130</text>
			</g>
			<g transform=" matrix(0.707107,-0.707107,0.707107,0.707107,1190.97,456.833521)">
				<text style="font-family: Helvetica; font-size: 10px;fill: rgb(0%,0%,0%); stroke:none;" transform="translate(0,0) scale(1,-1)" x="0" y="0">Gene_02131</text>
			</g>
			<g transform=" matrix(0.707107,-0.707107,0.707107,0.707107,1293.031263,456.833521)">
				<text style="font-family: Helvetica; font-size: 10px;fill: rgb(0%,0%,0%); stroke:none;" transform="translate(0,0) scale(1,-1)" x="0" y="0">Gene_02132</text>
			</g>
			<g transform=" matrix(1,0,-0,1,70,169.825647)">
				<text style="font-family: Helvetica; font-size: 12px;fill: rgb(60%,60%,60%); stroke:none;" transform="translate(0,0) scale(1,-1)" x="0" y="0">megahit_45085 (left 11281bp, right 74bp)</text>
			</g>
			<g transform=" matrix(1,0,-0,1,70,456.833521)">
				<text style="font-family: Helvetica; font-size: 12px;fill: rgb(60%,60%,60%); stroke:none;" transform="translate(0,0) scale(1,-1)" x="0" y="0">megahit_52231 (left 5102bp, right 13711bp)</text>
			</g>
		</g>
	</g>
</svg>
