<?xml version="1.0" encoding="utf-8"?>
<!DOCTYPE svg
  PUBLIC '-//W3C//DTD SVG 1.0//EN'
  'http://www.w3.org/TR/2001/REC-SVG-20010904/DTD/svg10.dtd'>
<svg fill-rule="evenodd" height="708.6614173228346" preserveAspectRatio="xMinYMin meet" version="1.0" viewBox="0 0 1417 708" width="1417.3228346456692" xmlns="http://www.w3.org/2000/svg" xmlns:xlink="http://www.w3.org/1999/xlink">
	<title>...</title>
	<desc>...</desc>
	<clipPath id="clip">
		<rect height="708.6614173228346" width="1417.3228346456692" x="0" y="0"/>
	</clipPath>
	<g id="group" style="clip-path: url(#clip)" transform="scale(1,-1) translate(0,-708)">
		<g transform="">
			<polygon points="70.86614 169.8256, 174.404 169.8256, 174.404 251.8279, 70.86614 251.8279" style="stroke: rgb(96%,96%,96%); stroke-linecap: butt; stroke-width: 1; fill: rgb(96%,96%,96%); fill-rule: evenodd;"/>
			<polygon points="70.86614 456.8335, 1346.356 456.8335, 1346.356 538.8358, 70.86614 538.8358" style="stroke: rgb(96%,96%,96%); stroke-linecap: butt; stroke-width: 1; fill: rgb(96%,96%,96%); fill-rule: evenodd;"/>
			<polygon points="236.9497 456.8335, 323.9699 456.8335, 157.987 251.8279, 70.96686 251.8279" style="stroke: rgb(100%,14%,14%); stroke-linecap: round; stroke-width: 1; fill: rgb(100%,14%,14%); fill-rule: evenodd;"/>
			<polygon points="74.79413 241.5776, 139.5722 241.5776, 139.5722 251.8279, 155.9727 231.3273, 139.5722 210.8268, 139.5722 221.0771, 74.79413 221.0771" style="stroke: rgb(67%,84%,90%); stroke-linecap: round; stroke-width: 1; fill: rgb(67%,84%,90%); fill-rule: evenodd;"/>
			<polygon points="124.8509 487.5844, 104.1872 487.5844, 104.1872 497.8346, 87.78673 477.3341, 104.1872 456.8335, 104.1872 467.0838, 124.8509 467.0838" style="stroke: rgb(56%,93%,56%); stroke-linecap: round; stroke-width: 1; fill: rgb(56%,93%,56%); fill-rule: evenodd;"/>
			<polygon points="225.3672 487.5844, 155.4525 487.5844, 155.4525 497.8346, 139.0521 477.3341, 155.4525 456.8335, 155.4525 467.0838, 225.3672 467.0838" style="stroke: rgb(56%,93%,56%); stroke-linecap: round; stroke-width: 1; fill: rgb(56%,93%,56%); fill-rule: evenodd;"/>
			<polygon points="237.4533 528.5855, 305.5551 528.5855, 305.5551 538.8358, 321.9555 518.3352, 305.5551 497.8346, 305.5551 508.0849, 237.4533 508.0849" style="stroke: rgb(67%,84%,90%); stroke-linecap: round; stroke-width: 1; fill: rgb(67%,84%,90%); fill-rule: evenodd;"/>
			<polygon points="360.4297 528.5855, 415.2367 528.5855, 415.2367 538.8358, 431.6372 518.3352, 415.2367 497.8346, 415.2367 508.0849, 360.4297 508.0849" style="stroke: rgb(67%,84%,90%); stroke-linecap: round; stroke-width: 1; fill: rgb(67%,84%,90%); fill-rule: evenodd;"/>
			<polygon points="443.7233 528.5855, 451.3944 528.5855, 451.3944 538.8358, 467.7949 518.3352, 451.3944 497.8346, 451.3944 508.0849, 443.7233 508.0849" style="stroke: rgb(67%,84%,90%); stroke-linecap: round; stroke-width: 1; fill: rgb(67%,84%,90%); fill-rule: evenodd;"/>
			<polygon points="606.7854 487.5844, 506.6554 487.5844, 506.6554 497.8346, 490.2549 477.3341, 506.6554 456.8335, 506.6554 467.0838, 606.7854 467.0838" style="stroke: rgb(56%,93%,56%); stroke-linecap: round; stroke-width: 1; fill: rgb(56%,93%,56%); fill-rule: evenodd;"/>
			<polygon points="667.6189 487.5844, 618.855 487.5844, 618.855 497.8346, 602.4545 477.3341, 618.855 456.8335, 618.855 467.0838, 667.6189 467.0838" style="stroke: rgb(56%,93%,56%); stroke-linecap: round; stroke-width: 1; fill: rgb(56%,93%,56%); fill-rule: evenodd;"/>
			<polygon points="693.2012 528.5855, 728.6704 528.5855, 728.6704 538.8358, 745.0709 518.3352, 728.6704 497.8346, 728.6704 508.0849, 693.2012 508.0849" style="stroke: rgb(67%,84%,90%); stroke-linecap: round; stroke-width: 1; fill: rgb(67%,84%,90%); fill-rule: evenodd;"/>
			<polygon points="747.0852 528.5855, 834.5248 528.5855, 834.5248 538.8358, 850.9253 518.3352, 834.5248 497.8346, 834.5248 508.0849, 747.0852 508.0849" style="stroke: rgb(67%,84%,90%); stroke-linecap: round; stroke-width: 1; fill: rgb(67%,84%,90%); fill-rule: evenodd;"/>
			<polygon points="1038.059 487.5844, 876.2896 487.5844, 876.2896 497.8346, 859.8891 477.3341, 876.2896 456.8335, 876.2896 467.0838, 1038.059 467.0838" style="stroke: rgb(56%,93%,56%); stroke-linecap: round; stroke-width: 1; fill: rgb(56%,93%,56%); fill-rule: evenodd;"/>
			<polygon points="1123.165 487.5844, 1054.157 487.5844, 1054.157 497.8346, 1037.757 477.3341, 1054.157 456.8335, 1054.157 467.0838, 1123.165 467.0838" style="stroke: rgb(56%,93%,56%); stroke-linecap: round; stroke-width: 1; fill: rgb(56%,93%,56%); fill-rule: evenodd;"/>
			<polygon points="1211.898 487.5844, 1139.264 487.5844, 1139.264 497.8346, 1122.863 477.3341, 1139.264 456.8335, 1139.264 467.0838, 1211.898 467.0838" style="stroke: rgb(56%,93%,56%); stroke-linecap: round; stroke-width: 1; fill: rgb(56%,93%,56%); fill-rule: evenodd;"/>
			<polygon points="1346.356 487.5844, 1236.255 487.5844, 1236.255 497.8346, 1219.854 477.3341, 1236.255 456.8335, 1236.255 467.0838, 1346.356 467.0838" style="stroke: rgb(56%,93%,56%); stroke-linecap: round; stroke-width: 1; fill: rgb(56%,93%,56%); fill-rule: evenodd;"/>
			<path d="M 174.404009,169.825647 L 174.404009,251.827897 Z" style="stroke: rgb(0%,0%,0%); stroke-linecap: butt; stroke-width: 1;"/>
			<path d="M 70.866142,210.826772 L 174.404009,210.826772 Z" style="stroke: rgb(0%,0%,0%); stroke-linecap: butt; stroke-width: 1;"/>
			<path d="M 70.866142,169.825647 L 70.866142,251.827897 Z" style="stroke: rgb(0%,0%,0%); stroke-linecap: butt; stroke-width: 1;"/>
			<path d="M 1346.355975,456.833521 L 1346.355975,538.835771 Z" style="stroke: rgb(0%,0%,0%); stroke-linecap: butt; stroke-width: 1;"/>
			<path d="M 70.866142,497.834646 L 1346.355975,497.834646 Z" style="stroke: rgb(0%,0%,0%); stroke-linecap: butt; stroke-width: 1;"/>
			<path d="M 70.866142,456.833521 L 70.866142,538.835771 Z" style="stroke: rgb(0%,0%,0%); stroke-linecap: butt; stroke-width: 1;"/>
			<path d="M 1078.043837,497.834646 L 1078.043837,518.335208 Z" style="stroke: rgb(0%,0%,0%); stroke-linecap: butt; stroke-width: 1;"/>
			<path d="M 1078.043837,497.834646 L 1078.043837,510.134983 Z" style="stroke: rgb(0%,0%,0%); stroke-linecap: butt; stroke-width: 1;"/>
			<g transform=" matrix(0.707107,0.707107,-0.707107,0.707107,1078.043837,518.335208)">
				<text style="font-family: Helvetica; font-size: 6px;fill: rgb(0%,0%,0%); stroke:none;" transform="translate(0,0) scale(1,-1)" x="0" y="0">10000</text>
			</g>
			<g transform=" matrix(0.707107,0.707107,-0.707107,0.707107,115.383396,251.827897)">
				<text style="font-family: Helvetica; font-size: 16px;fill: rgb(0%,0%,100%); stroke:none;" transform="translate(0,0) scale(1,-1)" x="0" y="0">Gene_01097 (92.4)</text>
			</g>
			<g transform=" matrix(0.707107,-0.707107,0.707107,0.707107,106.318797,456.833521)">
				<text style="font-family: Helvetica; font-size: 10px;fill: rgb(0%,0%,0%); stroke:none;" transform="translate(0,0) scale(1,-1)" x="0" y="0">Gene_00872</text>
			</g>
			<g transform=" matrix(0.707107,-0.707107,0.707107,0.707107,182.209636,456.833521)">
				<text style="font-family: Helvetica; font-size: 10px;fill: rgb(0%,0%,0%); stroke:none;" transform="translate(0,0) scale(1,-1)" x="0" y="0">Gene_00873</text>
			</g>
			<g transform=" matrix(0.707107,0.707107,-0.707107,0.707107,279.704437,538.835771)">
				<text style="font-family: Helvetica; font-size: 16px;fill: rgb(0%,0%,100%); stroke:none;" transform="translate(0,0) scale(1,-1)" x="0" y="0">Gene_00874 (92.4)</text>
			</g>
			<g transform=" matrix(0.707107,0.707107,-0.707107,0.707107,396.033461,538.835771)">
				<text style="font-family: Helvetica; font-size: 10px;fill: rgb(0%,0%,0%); stroke:none;" transform="translate(0,0) scale(1,-1)" x="0" y="0">Gene_00875</text>
			</g>
			<g transform=" matrix(0.707107,0.707107,-0.707107,0.707107,455.759098,538.835771)">
				<text style="font-family: Helvetica; font-size: 10px;fill: rgb(0%,0%,0%); stroke:none;" transform="translate(0,0) scale(1,-1)" x="0" y="0">Gene_00876</text>
			</g>
			<g transform=" matrix(0.707107,-0.707107,0.707107,0.707107,548.520164,456.833521)">
				<text style="font-family: Helvetica; font-size: 10px;fill: rgb(0%,0%,0%); stroke:none;" transform="translate(0,0) scale(1,-1)" x="0" y="0">Gene_00877</text>
			</g>
			<g transform=" matrix(0.707107,-0.707107,0.707107,0.707107,635.036728,456.833521)">
				<text style="font-family: Helvetica; font-size: 10px;fill: rgb(0%,0%,0%); stroke:none;" transform="translate(0,0) scale(1,-1)" x="0" y="0">Gene_00878</text>
			</g>
			<g transform=" matrix(0.707107,0.707107,-0.707107,0.707107,719.136065,538.835771)">
				<text style="font-family: Helvetica; font-size: 10px;fill: rgb(0%,0%,0%); stroke:none;" transform="translate(0,0) scale(1,-1)" x="0" y="0">Gene_00879</text>
			</g>
			<g transform=" matrix(0.707107,0.707107,-0.707107,0.707107,799.005257,538.835771)">
				<text style="font-family: Helvetica; font-size: 10px;fill: rgb(0%,0%,0%); stroke:none;" transform="translate(0,0) scale(1,-1)" x="0" y="0">Gene_00880</text>
			</g>
			<g transform=" matrix(0.707107,-0.707107,0.707107,0.707107,948.974015,456.833521)">
				<text style="font-family: Helvetica; font-size: 10px;fill: rgb(0%,0%,0%); stroke:none;" transform="translate(0,0) scale(1,-1)" x="0" y="0">Gene_00881</text>
			</g>
			<g transform=" matrix(0.707107,-0.707107,0.707107,0.707107,1080.461064,456.833521)">
				<text style="font-family: Helvetica; font-size: 10px;fill: rgb(0%,0%,0%); stroke:none;" transform="translate(0,0) scale(1,-1)" x="0" y="0">Gene_00882</text>
			</g>
			<g transform=" matrix(0.707107,-0.707107,0.707107,0.707107,1167.380499,456.833521)">
				<text style="font-family: Helvetica; font-size: 10px;fill: rgb(0%,0%,0%); stroke:none;" transform="translate(0,0) scale(1,-1)" x="0" y="0">Gene_00883</text>
			</g>
			<g transform=" matrix(0.707107,-0.707107,0.707107,0.707107,1283.105216,456.833521)">
				<text style="font-family: Helvetica; font-size: 10px;fill: rgb(0%,0%,0%); stroke:none;" transform="translate(0,0) scale(1,-1)" x="0" y="0">Gene_00884</text>
			</g>
			<g transform=" matrix(1,0,-0,1,70,456.833521)">
				<text style="font-family: Helvetica; font-size: 12px;fill: rgb(60%,60%,60%); stroke:none;" transform="translate(0,0) scale(1,-1)" x="0" y="0">megahit_10245 (left 1654bp, right 14836bp)</text>
			</g>
		</g>
	</g>
</svg>
