<?xml version="1.0" encoding="utf-8"?>
<!DOCTYPE svg
  PUBLIC '-//W3C//DTD SVG 1.0//EN'
  'http://www.w3.org/TR/2001/REC-SVG-20010904/DTD/svg10.dtd'>
<svg fill-rule="evenodd" height="708.6614173228346" preserveAspectRatio="xMinYMin meet" version="1.0" viewBox="0 0 1417 708" width="1417.3228346456692" xmlns="http://www.w3.org/2000/svg" xmlns:xlink="http://www.w3.org/1999/xlink">
	<title>...</title>
	<desc>...</desc>
	<clipPath id="clip">
		<rect height="708.6614173228346" width="1417.3228346456692" x="0" y="0"/>
	</clipPath>
	<g id="group" style="clip-path: url(#clip)" transform="scale(1,-1) translate(0,-708)">
		<g transform="">
			<polygon points="70.86614 169.8256, 1346.369 169.8256, 1346.369 251.8279, 70.86614 251.8279" style="stroke: rgb(96%,96%,96%); stroke-linecap: butt; stroke-width: 1; fill: rgb(96%,96%,96%); fill-rule: evenodd;"/>
			<polygon points="70.86614 456.8335, 316.0874 456.8335, 316.0874 538.8358, 70.86614 538.8358" style="stroke: rgb(96%,96%,96%); stroke-linecap: butt; stroke-width: 1; fill: rgb(96%,96%,96%); fill-rule: evenodd;"/>
			<polygon points="70.95419 456.8335, 137.6966 456.8335, 378.4273 251.8279, 445.1697 251.8279" style="stroke: rgb(100%,0%,0%); stroke-linecap: round; stroke-width: 1; fill: rgb(100%,0%,0%); fill-rule: evenodd;"/>
			<polygon points="111.6336 241.5776, 124.9943 241.5776, 124.9943 251.8279, 141.3948 231.3273, 124.9943 210.8268, 124.9943 221.0771, 111.6336 221.0771" style="stroke: rgb(67%,84%,90%); stroke-linecap: round; stroke-width: 1; fill: rgb(67%,84%,90%); fill-rule: evenodd;"/>
			<polygon points="218.9674 200.5765, 174.4368 200.5765, 174.4368 210.8268, 158.0363 190.3262, 174.4368 169.8256, 174.4368 180.0759, 218.9674 180.0759" style="stroke: rgb(56%,93%,56%); stroke-linecap: round; stroke-width: 1; fill: rgb(56%,93%,56%); fill-rule: evenodd;"/>
			<polygon points="246.7914 241.5776, 343.8884 241.5776, 343.8884 251.8279, 360.2888 231.3273, 343.8884 210.8268, 343.8884 221.0771, 246.7914 221.0771" style="stroke: rgb(67%,84%,90%); stroke-linecap: round; stroke-width: 1; fill: rgb(67%,84%,90%); fill-rule: evenodd;"/>
			<polygon points="384.855 241.5776, 400.3289 241.5776, 400.3289 251.8279, 416.7293 231.3273, 400.3289 210.8268, 400.3289 221.0771, 384.855 221.0771" style="stroke: rgb(67%,84%,90%); stroke-linecap: round; stroke-width: 1; fill: rgb(67%,84%,90%); fill-rule: evenodd;"/>
			<polygon points="532.604 200.5765, 433.9222 200.5765, 433.9222 210.8268, 417.5218 190.3262, 433.9222 169.8256, 433.9222 180.0759, 532.604 180.0759" style="stroke: rgb(56%,93%,56%); stroke-linecap: round; stroke-width: 1; fill: rgb(56%,93%,56%); fill-rule: evenodd;"/>
			<polygon points="538.5034 241.5776, 547.6377 241.5776, 547.6377 251.8279, 564.0381 231.3273, 547.6377 210.8268, 547.6377 221.0771, 538.5034 221.0771" style="stroke: rgb(67%,84%,90%); stroke-linecap: round; stroke-width: 1; fill: rgb(67%,84%,90%); fill-rule: evenodd;"/>
			<polygon points="567.8243 241.5776, 695.5629 241.5776, 695.5629 251.8279, 711.9633 231.3273, 695.5629 210.8268, 695.5629 221.0771, 567.8243 221.0771" style="stroke: rgb(67%,84%,90%); stroke-linecap: round; stroke-width: 1; fill: rgb(67%,84%,90%); fill-rule: evenodd;"/>
			<polygon points="717.4225 241.5776, 746.6323 241.5776, 746.6323 251.8279, 763.0327 231.3273, 746.6323 210.8268, 746.6323 221.0771, 717.4225 221.0771" style="stroke: rgb(67%,84%,90%); stroke-linecap: round; stroke-width: 1; fill: rgb(67%,84%,90%); fill-rule: evenodd;"/>
			<polygon points="766.1145 241.5776, 945.3627 241.5776, 945.3627 251.8279, 961.7632 231.3273, 945.3627 210.8268, 945.3627 221.0771, 766.1145 221.0771" style="stroke: rgb(67%,84%,90%); stroke-linecap: round; stroke-width: 1; fill: rgb(67%,84%,90%); fill-rule: evenodd;"/>
			<polygon points="957.4487 241.5776, 958.9225 241.5776, 958.9225 251.8279, 975.323 231.3273, 958.9225 210.8268, 958.9225 221.0771, 957.4487 221.0771" style="stroke: rgb(67%,84%,90%); stroke-linecap: round; stroke-width: 1; fill: rgb(67%,84%,90%); fill-rule: evenodd;"/>
			<polygon points="986.7696 241.5776, 1082.546 241.5776, 1082.546 251.8279, 1098.946 231.3273, 1082.546 210.8268, 1082.546 221.0771, 986.7696 221.0771" style="stroke: rgb(67%,84%,90%); stroke-linecap: round; stroke-width: 1; fill: rgb(67%,84%,90%); fill-rule: evenodd;"/>
			<polygon points="1098.33 241.5776, 1236.106 241.5776, 1236.106 251.8279, 1252.507 231.3273, 1236.106 210.8268, 1236.106 221.0771, 1098.33 221.0771" style="stroke: rgb(67%,84%,90%); stroke-linecap: round; stroke-width: 1; fill: rgb(67%,84%,90%); fill-rule: evenodd;"/>
			<polygon points="1251.89 241.5776, 1329.968 241.5776, 1329.968 251.8279, 1346.369 231.3273, 1329.968 210.8268, 1329.968 221.0771, 1251.89 221.0771" style="stroke: rgb(67%,84%,90%); stroke-linecap: round; stroke-width: 1; fill: rgb(67%,84%,90%); fill-rule: evenodd;"/>
			<polygon points="76.23723 528.5855, 82.20166 528.5855, 82.20166 538.8358, 98.60211 518.3352, 82.20166 497.8346, 82.20166 508.0849, 76.23723 508.0849" style="stroke: rgb(67%,84%,90%); stroke-linecap: round; stroke-width: 1; fill: rgb(67%,84%,90%); fill-rule: evenodd;"/>
			<polygon points="131.2689 487.5844, 115.795 487.5844, 115.795 497.8346, 99.39457 477.3341, 115.795 456.8335, 115.795 467.0838, 131.2689 467.0838" style="stroke: rgb(56%,93%,56%); stroke-linecap: round; stroke-width: 1; fill: rgb(56%,93%,56%); fill-rule: evenodd;"/>
			<polygon points="149.5835 528.5855, 293.9636 528.5855, 293.9636 538.8358, 310.3641 518.3352, 293.9636 497.8346, 293.9636 508.0849, 149.5835 508.0849" style="stroke: rgb(67%,84%,90%); stroke-linecap: round; stroke-width: 1; fill: rgb(67%,84%,90%); fill-rule: evenodd;"/>
			<path d="M 1346.368642,169.825647 L 1346.368642,251.827897 Z" style="stroke: rgb(0%,0%,0%); stroke-linecap: butt; stroke-width: 1;"/>
			<path d="M 70.866142,210.826772 L 1346.368642,210.826772 Z" style="stroke: rgb(0%,0%,0%); stroke-linecap: butt; stroke-width: 1;"/>
			<path d="M 70.866142,169.825647 L 70.866142,251.827897 Z" style="stroke: rgb(0%,0%,0%); stroke-linecap: butt; stroke-width: 1;"/>
			<path d="M 951.373183,210.826772 L 951.373183,231.327334 Z" style="stroke: rgb(0%,0%,0%); stroke-linecap: butt; stroke-width: 1;"/>
			<path d="M 951.373183,210.826772 L 951.373183,223.127109 Z" style="stroke: rgb(0%,0%,0%); stroke-linecap: butt; stroke-width: 1;"/>
			<path d="M 316.087353,456.833521 L 316.087353,538.835771 Z" style="stroke: rgb(0%,0%,0%); stroke-linecap: butt; stroke-width: 1;"/>
			<path d="M 70.866142,497.834646 L 316.087353,497.834646 Z" style="stroke: rgb(0%,0%,0%); stroke-linecap: butt; stroke-width: 1;"/>
			<path d="M 70.866142,456.833521 L 70.866142,538.835771 Z" style="stroke: rgb(0%,0%,0%); stroke-linecap: butt; stroke-width: 1;"/>
			<g transform=" matrix(0.707107,0.707107,-0.707107,0.707107,951.373183,231.327334)">
				<text style="font-family: Helvetica; font-size: 6px;fill: rgb(0%,0%,0%); stroke:none;" transform="translate(0,0) scale(1,-1)" x="0" y="0">10000</text>
			</g>
			<g transform=" matrix(0.707107,0.707107,-0.707107,0.707107,126.514187,251.827897)">
				<text style="font-family: Helvetica; font-size: 10px;fill: rgb(0%,0%,0%); stroke:none;" transform="translate(0,0) scale(1,-1)" x="0" y="0">Gene_00835</text>
			</g>
			<g transform=" matrix(0.707107,-0.707107,0.707107,0.707107,188.501882,169.825647)">
				<text style="font-family: Helvetica; font-size: 10px;fill: rgb(0%,0%,0%); stroke:none;" transform="translate(0,0) scale(1,-1)" x="0" y="0">Gene_00836</text>
			</g>
			<g transform=" matrix(0.707107,0.707107,-0.707107,0.707107,303.540127,251.827897)">
				<text style="font-family: Helvetica; font-size: 10px;fill: rgb(0%,0%,0%); stroke:none;" transform="translate(0,0) scale(1,-1)" x="0" y="0">Gene_00837</text>
			</g>
			<g transform=" matrix(0.707107,0.707107,-0.707107,0.707107,400.79213,251.827897)">
				<text style="font-family: Helvetica; font-size: 16px;fill: rgb(0%,0%,100%); stroke:none;" transform="translate(0,0) scale(1,-1)" x="0" y="0">Gene_00838 (99.7)</text>
			</g>
			<g transform=" matrix(0.707107,-0.707107,0.707107,0.707107,475.062899,169.825647)">
				<text style="font-family: Helvetica; font-size: 10px;fill: rgb(0%,0%,0%); stroke:none;" transform="translate(0,0) scale(1,-1)" x="0" y="0">Gene_00839</text>
			</g>
			<g transform=" matrix(0.707107,0.707107,-0.707107,0.707107,551.270784,251.827897)">
				<text style="font-family: Helvetica; font-size: 10px;fill: rgb(0%,0%,0%); stroke:none;" transform="translate(0,0) scale(1,-1)" x="0" y="0">Gene_00840</text>
			</g>
			<g transform=" matrix(0.707107,0.707107,-0.707107,0.707107,639.893817,251.827897)">
				<text style="font-family: Helvetica; font-size: 10px;fill: rgb(0%,0%,0%); stroke:none;" transform="translate(0,0) scale(1,-1)" x="0" y="0">Gene_00841</text>
			</g>
			<g transform=" matrix(0.707107,0.707107,-0.707107,0.707107,740.227595,251.827897)">
				<text style="font-family: Helvetica; font-size: 10px;fill: rgb(0%,0%,0%); stroke:none;" transform="translate(0,0) scale(1,-1)" x="0" y="0">Gene_00842</text>
			</g>
			<g transform=" matrix(0.707107,0.707107,-0.707107,0.707107,863.938834,251.827897)">
				<text style="font-family: Helvetica; font-size: 10px;fill: rgb(0%,0%,0%); stroke:none;" transform="translate(0,0) scale(1,-1)" x="0" y="0">Gene_00843</text>
			</g>
			<g transform=" matrix(0.707107,0.707107,-0.707107,0.707107,966.385828,251.827897)">
				<text style="font-family: Helvetica; font-size: 10px;fill: rgb(0%,0%,0%); stroke:none;" transform="translate(0,0) scale(1,-1)" x="0" y="0">Gene_00844</text>
			</g>
			<g transform=" matrix(0.707107,0.707107,-0.707107,0.707107,1042.857865,251.827897)">
				<text style="font-family: Helvetica; font-size: 10px;fill: rgb(0%,0%,0%); stroke:none;" transform="translate(0,0) scale(1,-1)" x="0" y="0">Gene_00845</text>
			</g>
			<g transform=" matrix(0.707107,0.707107,-0.707107,0.707107,1175.4182,251.827897)">
				<text style="font-family: Helvetica; font-size: 10px;fill: rgb(0%,0%,0%); stroke:none;" transform="translate(0,0) scale(1,-1)" x="0" y="0">Gene_00846</text>
			</g>
			<g transform=" matrix(0.707107,0.707107,-0.707107,0.707107,1299.129439,251.827897)">
				<text style="font-family: Helvetica; font-size: 10px;fill: rgb(0%,0%,0%); stroke:none;" transform="translate(0,0) scale(1,-1)" x="0" y="0">Gene_00847</text>
			</g>
			<g transform=" matrix(0.707107,0.707107,-0.707107,0.707107,87.419674,538.835771)">
				<text style="font-family: Helvetica; font-size: 10px;fill: rgb(0%,0%,0%); stroke:none;" transform="translate(0,0) scale(1,-1)" x="0" y="0">Gene_01828</text>
			</g>
			<g transform=" matrix(0.707107,-0.707107,0.707107,0.707107,115.331747,456.833521)">
				<text style="font-family: Helvetica; font-size: 16px;fill: rgb(0%,0%,100%); stroke:none;" transform="translate(0,0) scale(1,-1)" x="0" y="0">Gene_01829 (99.7)</text>
			</g>
			<g transform=" matrix(0.707107,0.707107,-0.707107,0.707107,229.973764,538.835771)">
				<text style="font-family: Helvetica; font-size: 10px;fill: rgb(0%,0%,0%); stroke:none;" transform="translate(0,0) scale(1,-1)" x="0" y="0">Gene_01830</text>
			</g>
			<g transform=" matrix(1,0,-0,1,70,169.825647)">
				<text style="font-family: Helvetica; font-size: 12px;fill: rgb(60%,60%,60%); stroke:none;" transform="translate(0,0) scale(1,-1)" x="0" y="0">megahit_41504 (left 3566bp, right 14519bp)</text>
			</g>
		</g>
	</g>
</svg>
