<?xml version="1.0" encoding="utf-8"?>
<!DOCTYPE svg
  PUBLIC '-//W3C//DTD SVG 1.0//EN'
  'http://www.w3.org/TR/2001/REC-SVG-20010904/DTD/svg10.dtd'>
<svg fill-rule="evenodd" height="708.6614173228346" preserveAspectRatio="xMinYMin meet" version="1.0" viewBox="0 0 1417 708" width="1417.3228346456692" xmlns="http://www.w3.org/2000/svg" xmlns:xlink="http://www.w3.org/1999/xlink">
	<title>...</title>
	<desc>...</desc>
	<clipPath id="clip">
		<rect height="708.6614173228346" width="1417.3228346456692" x="0" y="0"/>
	</clipPath>
	<g id="group" style="clip-path: url(#clip)" transform="scale(1,-1) translate(0,-708)">
		<g transform="">
			<polygon points="70.86614 169.8256, 923.5401 169.8256, 923.5401 251.8279, 70.86614 251.8279" style="stroke: rgb(96%,96%,96%); stroke-linecap: butt; stroke-width: 1; fill: rgb(96%,96%,96%); fill-rule: evenodd;"/>
			<polygon points="70.86614 456.8335, 1346.399 456.8335, 1346.399 538.8358, 70.86614 538.8358" style="stroke: rgb(96%,96%,96%); stroke-linecap: butt; stroke-width: 1; fill: rgb(96%,96%,96%); fill-rule: evenodd;"/>
			<polygon points="481.7109 456.8335, 1110.711 456.8335, 699.6938 251.8279, 70.92363 251.8279" style="stroke: rgb(100%,3%,3%); stroke-linecap: round; stroke-width: 1; fill: rgb(100%,3%,3%); fill-rule: evenodd;"/>
			<polygon points="87.59426 241.5776, 130.4608 241.5776, 130.4608 251.8279, 146.8612 231.3273, 130.4608 210.8268, 130.4608 221.0771, 87.59426 221.0771" style="stroke: rgb(67%,84%,90%); stroke-linecap: round; stroke-width: 1; fill: rgb(67%,84%,90%); fill-rule: evenodd;"/>
			<polygon points="208.0827 200.5765, 170.3898 200.5765, 170.3898 210.8268, 153.9893 190.3262, 170.3898 169.8256, 170.3898 180.0759, 208.0827 180.0759" style="stroke: rgb(56%,93%,56%); stroke-linecap: round; stroke-width: 1; fill: rgb(56%,93%,56%); fill-rule: evenodd;"/>
			<polygon points="225.2132 241.5776, 238.245 241.5776, 238.245 251.8279, 254.6455 231.3273, 238.245 210.8268, 238.245 221.0771, 225.2132 221.0771" style="stroke: rgb(67%,84%,90%); stroke-linecap: round; stroke-width: 1; fill: rgb(67%,84%,90%); fill-rule: evenodd;"/>
			<polygon points="279.9388 241.5776, 332.2903 241.5776, 332.2903 251.8279, 348.6908 231.3273, 332.2903 210.8268, 332.2903 221.0771, 279.9388 221.0771" style="stroke: rgb(67%,84%,90%); stroke-linecap: round; stroke-width: 1; fill: rgb(67%,84%,90%); fill-rule: evenodd;"/>
			<polygon points="348.5183 241.5776, 409.1477 241.5776, 409.1477 251.8279, 425.5481 231.3273, 409.1477 210.8268, 409.1477 221.0771, 348.5183 221.0771" style="stroke: rgb(67%,84%,90%); stroke-linecap: round; stroke-width: 1; fill: rgb(67%,84%,90%); fill-rule: evenodd;"/>
			<polygon points="431.5841 241.5776, 445.1333 241.5776, 445.1333 251.8279, 461.5337 231.3273, 445.1333 210.8268, 445.1333 221.0771, 431.5841 221.0771" style="stroke: rgb(67%,84%,90%); stroke-linecap: round; stroke-width: 1; fill: rgb(67%,84%,90%); fill-rule: evenodd;"/>
			<polygon points="462.7984 241.5776, 472.8985 241.5776, 472.8985 251.8279, 489.2989 231.3273, 472.8985 210.8268, 472.8985 221.0771, 462.7984 221.0771" style="stroke: rgb(67%,84%,90%); stroke-linecap: round; stroke-width: 1; fill: rgb(67%,84%,90%); fill-rule: evenodd;"/>
			<polygon points="559.1431 200.5765, 511.4479 200.5765, 511.4479 210.8268, 495.0474 190.3262, 511.4479 169.8256, 511.4479 180.0759, 559.1431 180.0759" style="stroke: rgb(56%,93%,56%); stroke-linecap: round; stroke-width: 1; fill: rgb(56%,93%,56%); fill-rule: evenodd;"/>
			<polygon points="583.0568 241.5776, 600.9174 241.5776, 600.9174 251.8279, 617.3179 231.3273, 600.9174 210.8268, 600.9174 221.0771, 583.0568 221.0771" style="stroke: rgb(67%,84%,90%); stroke-linecap: round; stroke-width: 1; fill: rgb(67%,84%,90%); fill-rule: evenodd;"/>
			<polygon points="633.6436 241.5776, 683.4083 241.5776, 683.4083 251.8279, 699.8087 231.3273, 683.4083 210.8268, 683.4083 221.0771, 633.6436 221.0771" style="stroke: rgb(67%,84%,90%); stroke-linecap: round; stroke-width: 1; fill: rgb(67%,84%,90%); fill-rule: evenodd;"/>
			<polygon points="711.6506 241.5776, 761.9327 241.5776, 761.9327 251.8279, 778.3331 231.3273, 761.9327 210.8268, 761.9327 221.0771, 711.6506 221.0771" style="stroke: rgb(67%,84%,90%); stroke-linecap: round; stroke-width: 1; fill: rgb(67%,84%,90%); fill-rule: evenodd;"/>
			<polygon points="859.2719 200.5765, 799.3324 200.5765, 799.3324 210.8268, 782.9319 190.3262, 799.3324 169.8256, 799.3324 180.0759, 859.2719 180.0759" style="stroke: rgb(56%,93%,56%); stroke-linecap: round; stroke-width: 1; fill: rgb(56%,93%,56%); fill-rule: evenodd;"/>
			<polygon points="912.5605 200.5765, 876.5921 200.5765, 876.5921 210.8268, 860.1917 190.3262, 876.5921 169.8256, 876.5921 180.0759, 912.5605 180.0759" style="stroke: rgb(56%,93%,56%); stroke-linecap: round; stroke-width: 1; fill: rgb(56%,93%,56%); fill-rule: evenodd;"/>
			<polygon points="70.86614 528.5855, 157.0188 528.5855, 157.0188 538.8358, 173.4193 518.3352, 157.0188 497.8346, 157.0188 508.0849, 70.86614 508.0849" style="stroke: rgb(67%,84%,90%); stroke-linecap: round; stroke-width: 1; fill: rgb(67%,84%,90%); fill-rule: evenodd;"/>
			<polygon points="186.0659 487.5844, 186.0659 497.8346, 178.018 477.3341, 186.0659 456.8335, 186.0659 467.0838" style="stroke: rgb(56%,93%,56%); stroke-linecap: round; stroke-width: 1; fill: rgb(56%,93%,56%); fill-rule: evenodd;"/>
			<polygon points="199.5749 528.5855, 259.8593 528.5855, 259.8593 538.8358, 276.2598 518.3352, 259.8593 497.8346, 259.8593 508.0849, 199.5749 508.0849" style="stroke: rgb(67%,84%,90%); stroke-linecap: round; stroke-width: 1; fill: rgb(67%,84%,90%); fill-rule: evenodd;"/>
			<polygon points="276.4897 528.5855, 316.9419 528.5855, 316.9419 538.8358, 333.3423 518.3352, 316.9419 497.8346, 316.9419 508.0849, 276.4897 508.0849" style="stroke: rgb(67%,84%,90%); stroke-linecap: round; stroke-width: 1; fill: rgb(67%,84%,90%); fill-rule: evenodd;"/>
			<polygon points="333.3423 528.5855, 349.8233 528.5855, 349.8233 538.8358, 366.2237 518.3352, 349.8233 497.8346, 349.8233 508.0849, 333.3423 508.0849" style="stroke: rgb(67%,84%,90%); stroke-linecap: round; stroke-width: 1; fill: rgb(67%,84%,90%); fill-rule: evenodd;"/>
			<polygon points="366.3962 528.5855, 389.9477 528.5855, 389.9477 538.8358, 406.3482 518.3352, 389.9477 497.8346, 389.9477 508.0849, 366.3962 508.0849" style="stroke: rgb(67%,84%,90%); stroke-linecap: round; stroke-width: 1; fill: rgb(67%,84%,90%); fill-rule: evenodd;"/>
			<polygon points="406.1757 528.5855, 426.4507 528.5855, 426.4507 538.8358, 442.8511 518.3352, 426.4507 497.8346, 426.4507 508.0849, 406.1757 508.0849" style="stroke: rgb(67%,84%,90%); stroke-linecap: round; stroke-width: 1; fill: rgb(67%,84%,90%); fill-rule: evenodd;"/>
			<polygon points="443.9433 528.5855, 475.6003 528.5855, 475.6003 538.8358, 492.0007 518.3352, 475.6003 497.8346, 475.6003 508.0849, 443.9433 508.0849" style="stroke: rgb(67%,84%,90%); stroke-linecap: round; stroke-width: 1; fill: rgb(67%,84%,90%); fill-rule: evenodd;"/>
			<polygon points="498.1516 528.5855, 541.0181 528.5855, 541.0181 538.8358, 557.4186 518.3352, 541.0181 497.8346, 541.0181 508.0849, 498.1516 508.0849" style="stroke: rgb(67%,84%,90%); stroke-linecap: round; stroke-width: 1; fill: rgb(67%,84%,90%); fill-rule: evenodd;"/>
			<polygon points="618.5825 487.5844, 580.8897 487.5844, 580.8897 497.8346, 564.4892 477.3341, 580.8897 456.8335, 580.8897 467.0838, 618.5825 467.0838" style="stroke: rgb(56%,93%,56%); stroke-linecap: round; stroke-width: 1; fill: rgb(56%,93%,56%); fill-rule: evenodd;"/>
			<polygon points="636.2304 528.5855, 649.2622 528.5855, 649.2622 538.8358, 665.6627 518.3352, 649.2622 497.8346, 649.2622 508.0849, 636.2304 508.0849" style="stroke: rgb(67%,84%,90%); stroke-linecap: round; stroke-width: 1; fill: rgb(67%,84%,90%); fill-rule: evenodd;"/>
			<polygon points="690.6111 528.5855, 742.9627 528.5855, 742.9627 538.8358, 759.3631 518.3352, 742.9627 497.8346, 742.9627 508.0849, 690.6111 508.0849" style="stroke: rgb(67%,84%,90%); stroke-linecap: round; stroke-width: 1; fill: rgb(67%,84%,90%); fill-rule: evenodd;"/>
			<polygon points="759.1907 528.5855, 819.82 528.5855, 819.82 538.8358, 836.2205 518.3352, 819.82 497.8346, 819.82 508.0849, 759.1907 508.0849" style="stroke: rgb(67%,84%,90%); stroke-linecap: round; stroke-width: 1; fill: rgb(67%,84%,90%); fill-rule: evenodd;"/>
			<polygon points="842.2564 528.5855, 855.8056 528.5855, 855.8056 538.8358, 872.206 518.3352, 855.8056 497.8346, 855.8056 508.0849, 842.2564 508.0849" style="stroke: rgb(67%,84%,90%); stroke-linecap: round; stroke-width: 1; fill: rgb(67%,84%,90%); fill-rule: evenodd;"/>
			<polygon points="873.4707 528.5855, 883.5708 528.5855, 883.5708 538.8358, 899.9713 518.3352, 883.5708 497.8346, 883.5708 508.0849, 873.4707 508.0849" style="stroke: rgb(67%,84%,90%); stroke-linecap: round; stroke-width: 1; fill: rgb(67%,84%,90%); fill-rule: evenodd;"/>
			<polygon points="970.1604 487.5844, 922.4651 487.5844, 922.4651 497.8346, 906.0647 477.3341, 922.4651 456.8335, 922.4651 467.0838, 970.1604 467.0838" style="stroke: rgb(56%,93%,56%); stroke-linecap: round; stroke-width: 1; fill: rgb(56%,93%,56%); fill-rule: evenodd;"/>
			<polygon points="986.1412 487.5844, 986.1412 497.8346, 977.4035 477.3341, 986.1412 456.8335, 986.1412 467.0838" style="stroke: rgb(56%,93%,56%); stroke-linecap: round; stroke-width: 1; fill: rgb(56%,93%,56%); fill-rule: evenodd;"/>
			<polygon points="994.0741 528.5855, 1011.935 528.5855, 1011.935 538.8358, 1028.335 518.3352, 1011.935 497.8346, 1011.935 508.0849, 994.0741 508.0849" style="stroke: rgb(67%,84%,90%); stroke-linecap: round; stroke-width: 1; fill: rgb(67%,84%,90%); fill-rule: evenodd;"/>
			<polygon points="1044.661 528.5855, 1094.426 528.5855, 1094.426 538.8358, 1110.826 518.3352, 1094.426 497.8346, 1094.426 508.0849, 1044.661 508.0849" style="stroke: rgb(67%,84%,90%); stroke-linecap: round; stroke-width: 1; fill: rgb(67%,84%,90%); fill-rule: evenodd;"/>
			<polygon points="1124.105 528.5855, 1134.722 528.5855, 1134.722 538.8358, 1151.123 518.3352, 1134.722 497.8346, 1134.722 508.0849, 1124.105 508.0849" style="stroke: rgb(67%,84%,90%); stroke-linecap: round; stroke-width: 1; fill: rgb(67%,84%,90%); fill-rule: evenodd;"/>
			<polygon points="1303.86 487.5844, 1172.869 487.5844, 1172.869 497.8346, 1156.469 477.3341, 1172.869 456.8335, 1172.869 467.0838, 1303.86 467.0838" style="stroke: rgb(56%,93%,56%); stroke-linecap: round; stroke-width: 1; fill: rgb(56%,93%,56%); fill-rule: evenodd;"/>
			<polygon points="1346.399 487.5844, 1320.088 487.5844, 1320.088 497.8346, 1303.688 477.3341, 1320.088 456.8335, 1320.088 467.0838, 1346.399 467.0838" style="stroke: rgb(56%,93%,56%); stroke-linecap: round; stroke-width: 1; fill: rgb(56%,93%,56%); fill-rule: evenodd;"/>
			<path d="M 923.540078,169.825647 L 923.540078,251.827897 Z" style="stroke: rgb(0%,0%,0%); stroke-linecap: butt; stroke-width: 1;"/>
			<path d="M 70.866142,210.826772 L 923.540078,210.826772 Z" style="stroke: rgb(0%,0%,0%); stroke-linecap: butt; stroke-width: 1;"/>
			<path d="M 70.866142,169.825647 L 70.866142,251.827897 Z" style="stroke: rgb(0%,0%,0%); stroke-linecap: butt; stroke-width: 1;"/>
			<path d="M 645.715421,210.826772 L 645.715421,231.327334 Z" style="stroke: rgb(0%,0%,0%); stroke-linecap: butt; stroke-width: 1;"/>
			<path d="M 645.715421,210.826772 L 645.715421,223.127109 Z" style="stroke: rgb(0%,0%,0%); stroke-linecap: butt; stroke-width: 1;"/>
			<path d="M 1346.399208,456.833521 L 1346.399208,538.835771 Z" style="stroke: rgb(0%,0%,0%); stroke-linecap: butt; stroke-width: 1;"/>
			<path d="M 70.866142,497.834646 L 1346.399208,497.834646 Z" style="stroke: rgb(0%,0%,0%); stroke-linecap: butt; stroke-width: 1;"/>
			<path d="M 70.866142,456.833521 L 70.866142,538.835771 Z" style="stroke: rgb(0%,0%,0%); stroke-linecap: butt; stroke-width: 1;"/>
			<path d="M 645.715421,497.834646 L 645.715421,518.335208 Z" style="stroke: rgb(0%,0%,0%); stroke-linecap: butt; stroke-width: 1;"/>
			<path d="M 1220.564701,497.834646 L 1220.564701,518.335208 Z" style="stroke: rgb(0%,0%,0%); stroke-linecap: butt; stroke-width: 1;"/>
			<path d="M 645.715421,497.834646 L 645.715421,510.134983 Z" style="stroke: rgb(0%,0%,0%); stroke-linecap: butt; stroke-width: 1;"/>
			<path d="M 1220.564701,497.834646 L 1220.564701,510.134983 Z" style="stroke: rgb(0%,0%,0%); stroke-linecap: butt; stroke-width: 1;"/>
			<g transform=" matrix(0.707107,0.707107,-0.707107,0.707107,645.715421,231.327334)">
				<text style="font-family: Helvetica; font-size: 6px;fill: rgb(0%,0%,0%); stroke:none;" transform="translate(0,0) scale(1,-1)" x="0" y="0">10000</text>
			</g>
			<g transform=" matrix(0.707107,0.707107,-0.707107,0.707107,645.715421,518.335208)">
				<text style="font-family: Helvetica; font-size: 6px;fill: rgb(0%,0%,0%); stroke:none;" transform="translate(0,0) scale(1,-1)" x="0" y="0">10000</text>
			</g>
			<g transform=" matrix(0.707107,0.707107,-0.707107,0.707107,1220.564701,518.335208)">
				<text style="font-family: Helvetica; font-size: 6px;fill: rgb(0%,0%,0%); stroke:none;" transform="translate(0,0) scale(1,-1)" x="0" y="0">20000</text>
			</g>
			<g transform=" matrix(0.707107,0.707107,-0.707107,0.707107,117.227736,251.827897)">
				<text style="font-family: Helvetica; font-size: 10px;fill: rgb(0%,0%,0%); stroke:none;" transform="translate(0,0) scale(1,-1)" x="0" y="0">Gene_01713</text>
			</g>
			<g transform=" matrix(0.707107,-0.707107,0.707107,0.707107,181.036006,169.825647)">
				<text style="font-family: Helvetica; font-size: 10px;fill: rgb(0%,0%,0%); stroke:none;" transform="translate(0,0) scale(1,-1)" x="0" y="0">Gene_01714</text>
			</g>
			<g transform=" matrix(0.707107,0.707107,-0.707107,0.707107,239.929315,251.827897)">
				<text style="font-family: Helvetica; font-size: 10px;fill: rgb(0%,0%,0%); stroke:none;" transform="translate(0,0) scale(1,-1)" x="0" y="0">Gene_01715</text>
			</g>
			<g transform=" matrix(0.707107,0.707107,-0.707107,0.707107,314.314812,251.827897)">
				<text style="font-family: Helvetica; font-size: 16px;fill: rgb(0%,0%,100%); stroke:none;" transform="translate(0,0) scale(1,-1)" x="0" y="0">Gene_01716 (99.7)</text>
			</g>
			<g transform=" matrix(0.707107,0.707107,-0.707107,0.707107,387.033245,251.827897)">
				<text style="font-family: Helvetica; font-size: 10px;fill: rgb(0%,0%,0%); stroke:none;" transform="translate(0,0) scale(1,-1)" x="0" y="0">Gene_01717</text>
			</g>
			<g transform=" matrix(0.707107,0.707107,-0.707107,0.707107,446.558888,251.827897)">
				<text style="font-family: Helvetica; font-size: 10px;fill: rgb(0%,0%,0%); stroke:none;" transform="translate(0,0) scale(1,-1)" x="0" y="0">Gene_01718</text>
			</g>
			<g transform=" matrix(0.707107,0.707107,-0.707107,0.707107,476.048656,251.827897)">
				<text style="font-family: Helvetica; font-size: 10px;fill: rgb(0%,0%,0%); stroke:none;" transform="translate(0,0) scale(1,-1)" x="0" y="0">Gene_01719</text>
			</g>
			<g transform=" matrix(0.707107,-0.707107,0.707107,0.707107,527.095272,169.825647)">
				<text style="font-family: Helvetica; font-size: 10px;fill: rgb(0%,0%,0%); stroke:none;" transform="translate(0,0) scale(1,-1)" x="0" y="0">Gene_01720</text>
			</g>
			<g transform=" matrix(0.707107,0.707107,-0.707107,0.707107,600.187358,251.827897)">
				<text style="font-family: Helvetica; font-size: 10px;fill: rgb(0%,0%,0%); stroke:none;" transform="translate(0,0) scale(1,-1)" x="0" y="0">Gene_01721</text>
			</g>
			<g transform=" matrix(0.707107,0.707107,-0.707107,0.707107,666.726162,251.827897)">
				<text style="font-family: Helvetica; font-size: 10px;fill: rgb(0%,0%,0%); stroke:none;" transform="translate(0,0) scale(1,-1)" x="0" y="0">Gene_01722</text>
			</g>
			<g transform=" matrix(0.707107,0.707107,-0.707107,0.707107,744.991892,251.827897)">
				<text style="font-family: Helvetica; font-size: 10px;fill: rgb(0%,0%,0%); stroke:none;" transform="translate(0,0) scale(1,-1)" x="0" y="0">Gene_01723</text>
			</g>
			<g transform=" matrix(0.707107,-0.707107,0.707107,0.707107,821.101936,169.825647)">
				<text style="font-family: Helvetica; font-size: 10px;fill: rgb(0%,0%,0%); stroke:none;" transform="translate(0,0) scale(1,-1)" x="0" y="0">Gene_01724</text>
			</g>
			<g transform=" matrix(0.707107,-0.707107,0.707107,0.707107,886.376072,169.825647)">
				<text style="font-family: Helvetica; font-size: 10px;fill: rgb(0%,0%,0%); stroke:none;" transform="translate(0,0) scale(1,-1)" x="0" y="0">Gene_01725</text>
			</g>
			<g transform=" matrix(0.707107,0.707107,-0.707107,0.707107,122.142697,538.835771)">
				<text style="font-family: Helvetica; font-size: 10px;fill: rgb(0%,0%,0%); stroke:none;" transform="translate(0,0) scale(1,-1)" x="0" y="0">Gene_01126</text>
			</g>
			<g transform=" matrix(0.707107,-0.707107,0.707107,0.707107,182.041992,456.833521)">
				<text style="font-family: Helvetica; font-size: 10px;fill: rgb(0%,0%,0%); stroke:none;" transform="translate(0,0) scale(1,-1)" x="0" y="0">Gene_01127</text>
			</g>
			<g transform=" matrix(0.707107,0.707107,-0.707107,0.707107,237.917342,538.835771)">
				<text style="font-family: Helvetica; font-size: 10px;fill: rgb(0%,0%,0%); stroke:none;" transform="translate(0,0) scale(1,-1)" x="0" y="0">Gene_01128</text>
			</g>
			<g transform=" matrix(0.707107,0.707107,-0.707107,0.707107,304.916026,538.835771)">
				<text style="font-family: Helvetica; font-size: 10px;fill: rgb(0%,0%,0%); stroke:none;" transform="translate(0,0) scale(1,-1)" x="0" y="0">Gene_01129</text>
			</g>
			<g transform=" matrix(0.707107,0.707107,-0.707107,0.707107,349.783012,538.835771)">
				<text style="font-family: Helvetica; font-size: 10px;fill: rgb(0%,0%,0%); stroke:none;" transform="translate(0,0) scale(1,-1)" x="0" y="0">Gene_01130</text>
			</g>
			<g transform=" matrix(0.707107,0.707107,-0.707107,0.707107,386.372169,538.835771)">
				<text style="font-family: Helvetica; font-size: 10px;fill: rgb(0%,0%,0%); stroke:none;" transform="translate(0,0) scale(1,-1)" x="0" y="0">Gene_01131</text>
			</g>
			<g transform=" matrix(0.707107,0.707107,-0.707107,0.707107,424.513418,538.835771)">
				<text style="font-family: Helvetica; font-size: 10px;fill: rgb(0%,0%,0%); stroke:none;" transform="translate(0,0) scale(1,-1)" x="0" y="0">Gene_01132</text>
			</g>
			<g transform=" matrix(0.707107,0.707107,-0.707107,0.707107,467.972024,538.835771)">
				<text style="font-family: Helvetica; font-size: 10px;fill: rgb(0%,0%,0%); stroke:none;" transform="translate(0,0) scale(1,-1)" x="0" y="0">Gene_01133</text>
			</g>
			<g transform=" matrix(0.707107,0.707107,-0.707107,0.707107,527.785092,538.835771)">
				<text style="font-family: Helvetica; font-size: 10px;fill: rgb(0%,0%,0%); stroke:none;" transform="translate(0,0) scale(1,-1)" x="0" y="0">Gene_01134</text>
			</g>
			<g transform=" matrix(0.707107,-0.707107,0.707107,0.707107,591.535877,456.833521)">
				<text style="font-family: Helvetica; font-size: 10px;fill: rgb(0%,0%,0%); stroke:none;" transform="translate(0,0) scale(1,-1)" x="0" y="0">Gene_01135</text>
			</g>
			<g transform=" matrix(0.707107,0.707107,-0.707107,0.707107,650.94655,538.835771)">
				<text style="font-family: Helvetica; font-size: 10px;fill: rgb(0%,0%,0%); stroke:none;" transform="translate(0,0) scale(1,-1)" x="0" y="0">Gene_01136</text>
			</g>
			<g transform=" matrix(0.707107,0.707107,-0.707107,0.707107,724.987137,538.835771)">
				<text style="font-family: Helvetica; font-size: 16px;fill: rgb(0%,0%,100%); stroke:none;" transform="translate(0,0) scale(1,-1)" x="0" y="0">Gene_01137 (99.7)</text>
			</g>
			<g transform=" matrix(0.707107,0.707107,-0.707107,0.707107,797.705571,538.835771)">
				<text style="font-family: Helvetica; font-size: 10px;fill: rgb(0%,0%,0%); stroke:none;" transform="translate(0,0) scale(1,-1)" x="0" y="0">Gene_01138</text>
			</g>
			<g transform=" matrix(0.707107,0.707107,-0.707107,0.707107,857.231214,538.835771)">
				<text style="font-family: Helvetica; font-size: 10px;fill: rgb(0%,0%,0%); stroke:none;" transform="translate(0,0) scale(1,-1)" x="0" y="0">Gene_01139</text>
			</g>
			<g transform=" matrix(0.707107,0.707107,-0.707107,0.707107,886.720982,538.835771)">
				<text style="font-family: Helvetica; font-size: 10px;fill: rgb(0%,0%,0%); stroke:none;" transform="translate(0,0) scale(1,-1)" x="0" y="0">Gene_01140</text>
			</g>
			<g transform=" matrix(0.707107,-0.707107,0.707107,0.707107,938.112507,456.833521)">
				<text style="font-family: Helvetica; font-size: 10px;fill: rgb(0%,0%,0%); stroke:none;" transform="translate(0,0) scale(1,-1)" x="0" y="0">Gene_01141</text>
			</g>
			<g transform=" matrix(0.707107,-0.707107,0.707107,0.707107,981.77231,456.833521)">
				<text style="font-family: Helvetica; font-size: 10px;fill: rgb(0%,0%,0%); stroke:none;" transform="translate(0,0) scale(1,-1)" x="0" y="0">Gene_01142</text>
			</g>
			<g transform=" matrix(0.707107,0.707107,-0.707107,0.707107,1011.204593,538.835771)">
				<text style="font-family: Helvetica; font-size: 10px;fill: rgb(0%,0%,0%); stroke:none;" transform="translate(0,0) scale(1,-1)" x="0" y="0">Gene_01143</text>
			</g>
			<g transform=" matrix(0.707107,0.707107,-0.707107,0.707107,1077.743397,538.835771)">
				<text style="font-family: Helvetica; font-size: 10px;fill: rgb(0%,0%,0%); stroke:none;" transform="translate(0,0) scale(1,-1)" x="0" y="0">Gene_01144</text>
			</g>
			<g transform=" matrix(0.707107,0.707107,-0.707107,0.707107,1137.61395,538.835771)">
				<text style="font-family: Helvetica; font-size: 10px;fill: rgb(0%,0%,0%); stroke:none;" transform="translate(0,0) scale(1,-1)" x="0" y="0">Gene_01145</text>
			</g>
			<g transform=" matrix(0.707107,-0.707107,0.707107,0.707107,1230.164684,456.833521)">
				<text style="font-family: Helvetica; font-size: 10px;fill: rgb(0%,0%,0%); stroke:none;" transform="translate(0,0) scale(1,-1)" x="0" y="0">Gene_01146</text>
			</g>
			<g transform=" matrix(0.707107,-0.707107,0.707107,0.707107,1325.043557,456.833521)">
				<text style="font-family: Helvetica; font-size: 10px;fill: rgb(0%,0%,0%); stroke:none;" transform="translate(0,0) scale(1,-1)" x="0" y="0">Gene_01147</text>
			</g>
			<g transform=" matrix(1,0,-0,1,70,169.825647)">
				<text style="font-family: Helvetica; font-size: 12px;fill: rgb(60%,60%,60%); stroke:none;" transform="translate(0,0) scale(1,-1)" x="0" y="0">megahit_116474 (left 3637bp, right 30304bp)</text>
			</g>
			<g transform=" matrix(1,0,-0,1,70,456.833521)">
				<text style="font-family: Helvetica; font-size: 12px;fill: rgb(60%,60%,60%); stroke:none;" transform="translate(0,0) scale(1,-1)" x="0" y="0">megahit_12654 (left 53533bp, right 13855bp)</text>
			</g>
		</g>
	</g>
</svg>
