<?xml version="1.0" encoding="utf-8"?>
<!DOCTYPE svg
  PUBLIC '-//W3C//DTD SVG 1.0//EN'
  'http://www.w3.org/TR/2001/REC-SVG-20010904/DTD/svg10.dtd'>
<svg fill-rule="evenodd" height="708.6614173228346" preserveAspectRatio="xMinYMin meet" version="1.0" viewBox="0 0 1417 708" width="1417.3228346456692" xmlns="http://www.w3.org/2000/svg" xmlns:xlink="http://www.w3.org/1999/xlink">
	<title>...</title>
	<desc>...</desc>
	<clipPath id="clip">
		<rect height="708.6614173228346" width="1417.3228346456692" x="0" y="0"/>
	</clipPath>
	<g id="group" style="clip-path: url(#clip)" transform="scale(1,-1) translate(0,-708)">
		<g transform="">
			<polygon points="70.86614 169.8256, 1270.957 169.8256, 1270.957 251.8279, 70.86614 251.8279" style="stroke: rgb(96%,96%,96%); stroke-linecap: butt; stroke-width: 1; fill: rgb(96%,96%,96%); fill-rule: evenodd;"/>
			<polygon points="70.86614 456.8335, 1346.399 456.8335, 1346.399 538.8358, 70.86614 538.8358" style="stroke: rgb(96%,96%,96%); stroke-linecap: butt; stroke-width: 1; fill: rgb(96%,96%,96%); fill-rule: evenodd;"/>
			<polygon points="598.904 456.8335, 862.6653 456.8335, 561.4118 251.8279, 830.4392 251.8279" style="stroke: rgb(100%,36%,36%); stroke-linecap: round; stroke-width: 1; fill: rgb(100%,36%,36%); fill-rule: evenodd;"/>
			<polygon points="1022.88 456.8335, 1221.674 456.8335, 225.929 251.8279, 425.0665 251.8279" style="stroke: rgb(100%,47%,47%); stroke-linecap: round; stroke-width: 1; fill: rgb(100%,47%,47%); fill-rule: evenodd;"/>
			<polygon points="871.2513 456.8335, 971.0204 456.8335, 454.1443 251.8279, 554.0279 251.8279" style="stroke: rgb(100%,33%,33%); stroke-linecap: round; stroke-width: 1; fill: rgb(100%,33%,33%); fill-rule: evenodd;"/>
			<polygon points="562.5566 456.8335, 596.7288 456.8335, 836.9646 251.8279, 871.0223 251.8279" style="stroke: rgb(100%,30%,30%); stroke-linecap: round; stroke-width: 1; fill: rgb(100%,30%,30%); fill-rule: evenodd;"/>
			<polygon points="401.1974 456.8335, 449.5079 456.8335, 975.2561 251.8279, 1023.567 251.8279" style="stroke: rgb(100%,51%,51%); stroke-linecap: round; stroke-width: 1; fill: rgb(100%,51%,51%); fill-rule: evenodd;"/>
			<polygon points="1283.951 456.8335, 1327.568 456.8335, 139.554 251.8279, 183.2853 251.8279" style="stroke: rgb(100%,51%,51%); stroke-linecap: round; stroke-width: 1; fill: rgb(100%,51%,51%); fill-rule: evenodd;"/>
			<polygon points="1240.735 456.8335, 1275.88 456.8335, 184.2583 251.8279, 219.4036 251.8279" style="stroke: rgb(100%,50%,50%); stroke-linecap: round; stroke-width: 1; fill: rgb(100%,50%,50%); fill-rule: evenodd;"/>
			<polygon points="987.5627 456.8335, 1010.859 456.8335, 425.1237 251.8279, 448.4203 251.8279" style="stroke: rgb(100%,40%,40%); stroke-linecap: round; stroke-width: 1; fill: rgb(100%,40%,40%); fill-rule: evenodd;"/>
			<polygon points="223.9256 456.8335, 261.6466 456.8335, 1161.457 251.8279, 1123.736 251.8279" style="stroke: rgb(100%,67%,67%); stroke-linecap: round; stroke-width: 1; fill: rgb(100%,67%,67%); fill-rule: evenodd;"/>
			<polygon points="470.057 456.8335, 493.3536 456.8335, 926.1443 251.8279, 948.7541 251.8279" style="stroke: rgb(100%,71%,71%); stroke-linecap: round; stroke-width: 1; fill: rgb(100%,71%,71%); fill-rule: evenodd;"/>
			<polygon points="91.93041 200.5765, 87.26659 200.5765, 87.26659 210.8268, 70.86614 190.3262, 87.26659 169.8256, 87.26659 180.0759, 91.93041 180.0759" style="stroke: rgb(56%,93%,56%); stroke-linecap: round; stroke-width: 1; fill: rgb(56%,93%,56%); fill-rule: evenodd;"/>
			<polygon points="121.9813 200.5765, 121.9813 210.8268, 109.5031 190.3262, 121.9813 169.8256, 121.9813 180.0759" style="stroke: rgb(56%,93%,56%); stroke-linecap: round; stroke-width: 1; fill: rgb(56%,93%,56%); fill-rule: evenodd;"/>
			<polygon points="138.2375 200.5765, 138.2375 210.8268, 122.3248 190.3262, 138.2375 169.8256, 138.2375 180.0759" style="stroke: rgb(56%,93%,56%); stroke-linecap: round; stroke-width: 1; fill: rgb(56%,93%,56%); fill-rule: evenodd;"/>
			<polygon points="182.3122 200.5765, 154.8096 200.5765, 154.8096 210.8268, 138.4092 190.3262, 154.8096 169.8256, 154.8096 180.0759, 182.3122 180.0759" style="stroke: rgb(56%,93%,56%); stroke-linecap: round; stroke-width: 1; fill: rgb(56%,93%,56%); fill-rule: evenodd;"/>
			<polygon points="219.4036 200.5765, 198.9416 200.5765, 198.9416 210.8268, 182.5411 190.3262, 198.9416 169.8256, 198.9416 180.0759, 219.4036 180.0759" style="stroke: rgb(56%,93%,56%); stroke-linecap: round; stroke-width: 1; fill: rgb(56%,93%,56%); fill-rule: evenodd;"/>
			<polygon points="300.1691 200.5765, 240.555 200.5765, 240.555 210.8268, 224.1545 190.3262, 240.555 169.8256, 240.555 180.0759, 300.1691 180.0759" style="stroke: rgb(56%,93%,56%); stroke-linecap: round; stroke-width: 1; fill: rgb(56%,93%,56%); fill-rule: evenodd;"/>
			<polygon points="325.4691 200.5765, 316.684 200.5765, 316.684 210.8268, 300.2835 190.3262, 316.684 169.8256, 316.684 180.0759, 325.4691 180.0759" style="stroke: rgb(56%,93%,56%); stroke-linecap: round; stroke-width: 1; fill: rgb(56%,93%,56%); fill-rule: evenodd;"/>
			<polygon points="337.3177 200.5765, 337.3177 210.8268, 326.9001 190.3262, 337.3177 169.8256, 337.3177 180.0759" style="stroke: rgb(56%,93%,56%); stroke-linecap: round; stroke-width: 1; fill: rgb(56%,93%,56%); fill-rule: evenodd;"/>
			<polygon points="367.2542 200.5765, 354.5196 200.5765, 354.5196 210.8268, 338.1191 190.3262, 354.5196 169.8256, 354.5196 180.0759, 367.2542 180.0759" style="stroke: rgb(56%,93%,56%); stroke-linecap: round; stroke-width: 1; fill: rgb(56%,93%,56%); fill-rule: evenodd;"/>
			<polygon points="389.406 200.5765, 384.7422 200.5765, 384.7422 210.8268, 368.3418 190.3262, 384.7422 169.8256, 384.7422 180.0759, 389.406 180.0759" style="stroke: rgb(56%,93%,56%); stroke-linecap: round; stroke-width: 1; fill: rgb(56%,93%,56%); fill-rule: evenodd;"/>
			<polygon points="421.4604 200.5765, 406.8368 200.5765, 406.8368 210.8268, 390.4363 190.3262, 406.8368 169.8256, 406.8368 180.0759, 421.4604 180.0759" style="stroke: rgb(56%,93%,56%); stroke-linecap: round; stroke-width: 1; fill: rgb(56%,93%,56%); fill-rule: evenodd;"/>
			<polygon points="448.4203 200.5765, 441.8676 200.5765, 441.8676 210.8268, 425.4671 190.3262, 441.8676 169.8256, 441.8676 180.0759, 448.4203 180.0759" style="stroke: rgb(56%,93%,56%); stroke-linecap: round; stroke-width: 1; fill: rgb(56%,93%,56%); fill-rule: evenodd;"/>
			<polygon points="464.6765 200.5765, 464.6765 210.8268, 454.0871 190.3262, 464.6765 169.8256, 464.6765 180.0759" style="stroke: rgb(56%,93%,56%); stroke-linecap: round; stroke-width: 1; fill: rgb(56%,93%,56%); fill-rule: evenodd;"/>
			<polygon points="496.5018 200.5765, 482.05 200.5765, 482.05 210.8268, 465.6495 190.3262, 482.05 169.8256, 482.05 180.0759, 496.5018 180.0759" style="stroke: rgb(56%,93%,56%); stroke-linecap: round; stroke-width: 1; fill: rgb(56%,93%,56%); fill-rule: evenodd;"/>
			<polygon points="515.2193 200.5765, 514.1616 200.5765, 514.1616 210.8268, 497.7611 190.3262, 514.1616 169.8256, 514.1616 180.0759, 515.2193 180.0759" style="stroke: rgb(56%,93%,56%); stroke-linecap: round; stroke-width: 1; fill: rgb(56%,93%,56%); fill-rule: evenodd;"/>
			<polygon points="537.0849 200.5765, 532.4211 200.5765, 532.4211 210.8268, 516.0206 190.3262, 532.4211 169.8256, 532.4211 180.0759, 537.0849 180.0759" style="stroke: rgb(56%,93%,56%); stroke-linecap: round; stroke-width: 1; fill: rgb(56%,93%,56%); fill-rule: evenodd;"/>
			<polygon points="552.9976 200.5765, 552.9976 210.8268, 538.4587 190.3262, 552.9976 169.8256, 552.9976 180.0759" style="stroke: rgb(56%,93%,56%); stroke-linecap: round; stroke-width: 1; fill: rgb(56%,93%,56%); fill-rule: evenodd;"/>
			<polygon points="572.2874 200.5765, 572.2874 210.8268, 560.496 190.3262, 572.2874 169.8256, 572.2874 180.0759" style="stroke: rgb(56%,93%,56%); stroke-linecap: round; stroke-width: 1; fill: rgb(56%,93%,56%); fill-rule: evenodd;"/>
			<polygon points="596.7288 200.5765, 588.1155 200.5765, 588.1155 210.8268, 571.715 190.3262, 588.1155 169.8256, 588.1155 180.0759, 596.7288 180.0759" style="stroke: rgb(56%,93%,56%); stroke-linecap: round; stroke-width: 1; fill: rgb(56%,93%,56%); fill-rule: evenodd;"/>
			<polygon points="634.2782 200.5765, 613.1293 200.5765, 613.1293 210.8268, 596.7288 190.3262, 613.1293 169.8256, 613.1293 180.0759, 634.2782 180.0759" style="stroke: rgb(56%,93%,56%); stroke-linecap: round; stroke-width: 1; fill: rgb(56%,93%,56%); fill-rule: evenodd;"/>
			<polygon points="657.0597 200.5765, 651.3655 200.5765, 651.3655 210.8268, 634.9651 190.3262, 651.3655 169.8256, 651.3655 180.0759, 657.0597 180.0759" style="stroke: rgb(56%,93%,56%); stroke-linecap: round; stroke-width: 1; fill: rgb(56%,93%,56%); fill-rule: evenodd;"/>
			<polygon points="677.5515 200.5765, 677.5515 210.8268, 661.4671 190.3262, 677.5515 169.8256, 677.5515 180.0759" style="stroke: rgb(56%,93%,56%); stroke-linecap: round; stroke-width: 1; fill: rgb(56%,93%,56%); fill-rule: evenodd;"/>
			<polygon points="727.2358 200.5765, 695.0968 200.5765, 695.0968 210.8268, 678.6963 190.3262, 695.0968 169.8256, 695.0968 180.0759, 727.2358 180.0759" style="stroke: rgb(56%,93%,56%); stroke-linecap: round; stroke-width: 1; fill: rgb(56%,93%,56%); fill-rule: evenodd;"/>
			<polygon points="753.2227 200.5765, 752.5084 200.5765, 752.5084 210.8268, 736.1079 190.3262, 752.5084 169.8256, 752.5084 180.0759, 753.2227 180.0759" style="stroke: rgb(56%,93%,56%); stroke-linecap: round; stroke-width: 1; fill: rgb(56%,93%,56%); fill-rule: evenodd;"/>
			<polygon points="788.7114 200.5765, 769.6231 200.5765, 769.6231 210.8268, 753.2227 190.3262, 769.6231 169.8256, 769.6231 180.0759, 788.7114 180.0759" style="stroke: rgb(56%,93%,56%); stroke-linecap: round; stroke-width: 1; fill: rgb(56%,93%,56%); fill-rule: evenodd;"/>
			<polygon points="826.7759 200.5765, 806.829 200.5765, 806.829 210.8268, 790.4286 190.3262, 806.829 169.8256, 806.829 180.0759, 826.7759 180.0759" style="stroke: rgb(56%,93%,56%); stroke-linecap: round; stroke-width: 1; fill: rgb(56%,93%,56%); fill-rule: evenodd;"/>
			<polygon points="855.1096 200.5765, 853.365 200.5765, 853.365 210.8268, 836.9646 190.3262, 853.365 169.8256, 853.365 180.0759, 855.1096 180.0759" style="stroke: rgb(56%,93%,56%); stroke-linecap: round; stroke-width: 1; fill: rgb(56%,93%,56%); fill-rule: evenodd;"/>
			<polygon points="865.699 200.5765, 865.699 210.8268, 854.251 190.3262, 865.699 169.8256, 865.699 180.0759" style="stroke: rgb(56%,93%,56%); stroke-linecap: round; stroke-width: 1; fill: rgb(56%,93%,56%); fill-rule: evenodd;"/>
			<polygon points="953.0471 200.5765, 891.8875 200.5765, 891.8875 210.8268, 875.487 190.3262, 891.8875 169.8256, 891.8875 180.0759, 953.0471 180.0759" style="stroke: rgb(56%,93%,56%); stroke-linecap: round; stroke-width: 1; fill: rgb(56%,93%,56%); fill-rule: evenodd;"/>
			<polygon points="975.2561 241.5776, 1008.597 241.5776, 1008.597 251.8279, 1024.998 231.3273, 1008.597 210.8268, 1008.597 221.0771, 975.2561 221.0771" style="stroke: rgb(67%,84%,90%); stroke-linecap: round; stroke-width: 1; fill: rgb(67%,84%,90%); fill-rule: evenodd;"/>
			<polygon points="1084.413 200.5765, 1041.455 200.5765, 1041.455 210.8268, 1025.055 190.3262, 1041.455 169.8256, 1041.455 180.0759, 1084.413 180.0759" style="stroke: rgb(56%,93%,56%); stroke-linecap: round; stroke-width: 1; fill: rgb(56%,93%,56%); fill-rule: evenodd;"/>
			<polygon points="1096.948 241.5776, 1153.128 241.5776, 1153.128 251.8279, 1169.528 231.3273, 1153.128 210.8268, 1153.128 221.0771, 1096.948 221.0771" style="stroke: rgb(67%,84%,90%); stroke-linecap: round; stroke-width: 1; fill: rgb(67%,84%,90%); fill-rule: evenodd;"/>
			<polygon points="1270.957 200.5765, 1192.111 200.5765, 1192.111 210.8268, 1175.71 190.3262, 1192.111 169.8256, 1192.111 180.0759, 1270.957 180.0759" style="stroke: rgb(56%,93%,56%); stroke-linecap: round; stroke-width: 1; fill: rgb(56%,93%,56%); fill-rule: evenodd;"/>
			<polygon points="70.86614 528.5855, 174.7839 528.5855, 174.7839 538.8358, 191.1844 518.3352, 174.7839 497.8346, 174.7839 508.0849, 70.86614 508.0849" style="stroke: rgb(67%,84%,90%); stroke-linecap: round; stroke-width: 1; fill: rgb(67%,84%,90%); fill-rule: evenodd;"/>
			<polygon points="192.5009 528.5855, 253.6604 528.5855, 253.6604 538.8358, 270.0609 518.3352, 253.6604 497.8346, 253.6604 508.0849, 192.5009 508.0849" style="stroke: rgb(67%,84%,90%); stroke-linecap: round; stroke-width: 1; fill: rgb(67%,84%,90%); fill-rule: evenodd;"/>
			<polygon points="273.6098 528.5855, 309.5266 528.5855, 309.5266 538.8358, 325.927 518.3352, 309.5266 497.8346, 309.5266 508.0849, 273.6098 508.0849" style="stroke: rgb(67%,84%,90%); stroke-linecap: round; stroke-width: 1; fill: rgb(67%,84%,90%); fill-rule: evenodd;"/>
			<polygon points="335.0854 528.5855, 335.0854 538.8358, 340.1797 518.3352, 335.0854 497.8346, 335.0854 508.0849" style="stroke: rgb(67%,84%,90%); stroke-linecap: round; stroke-width: 1; fill: rgb(67%,84%,90%); fill-rule: evenodd;"/>
			<polygon points="338.7487 528.5855, 382.5646 528.5855, 382.5646 538.8358, 398.9651 518.3352, 382.5646 497.8346, 382.5646 508.0849, 338.7487 508.0849" style="stroke: rgb(67%,84%,90%); stroke-linecap: round; stroke-width: 1; fill: rgb(67%,84%,90%); fill-rule: evenodd;"/>
			<polygon points="449.5079 487.5844, 416.3386 487.5844, 416.3386 497.8346, 399.9382 477.3341, 416.3386 456.8335, 416.3386 467.0838, 449.5079 467.0838" style="stroke: rgb(56%,93%,56%); stroke-linecap: round; stroke-width: 1; fill: rgb(56%,93%,56%); fill-rule: evenodd;"/>
			<polygon points="465.9357 528.5855, 527.6105 528.5855, 527.6105 538.8358, 544.0109 518.3352, 527.6105 497.8346, 527.6105 508.0849, 465.9357 508.0849" style="stroke: rgb(67%,84%,90%); stroke-linecap: round; stroke-width: 1; fill: rgb(67%,84%,90%); fill-rule: evenodd;"/>
			<polygon points="578.5838 528.5855, 580.3284 528.5855, 580.3284 538.8358, 596.7288 518.3352, 580.3284 497.8346, 580.3284 508.0849, 578.5838 508.0849" style="stroke: rgb(67%,84%,90%); stroke-linecap: round; stroke-width: 1; fill: rgb(67%,84%,90%); fill-rule: evenodd;"/>
			<polygon points="602.7963 528.5855, 622.7431 528.5855, 622.7431 538.8358, 639.1436 518.3352, 622.7431 497.8346, 622.7431 508.0849, 602.7963 508.0849" style="stroke: rgb(67%,84%,90%); stroke-linecap: round; stroke-width: 1; fill: rgb(67%,84%,90%); fill-rule: evenodd;"/>
			<polygon points="640.7463 528.5855, 659.4911 528.5855, 659.4911 538.8358, 675.8916 518.3352, 659.4911 497.8346, 659.4911 508.0849, 640.7463 508.0849" style="stroke: rgb(67%,84%,90%); stroke-linecap: round; stroke-width: 1; fill: rgb(67%,84%,90%); fill-rule: evenodd;"/>
			<polygon points="675.8916 528.5855, 676.6059 528.5855, 676.6059 538.8358, 693.0063 518.3352, 676.6059 497.8346, 676.6059 508.0849, 675.8916 508.0849" style="stroke: rgb(67%,84%,90%); stroke-linecap: round; stroke-width: 1; fill: rgb(67%,84%,90%); fill-rule: evenodd;"/>
			<polygon points="699.9323 528.5855, 731.5561 528.5855, 731.5561 538.8358, 747.9566 518.3352, 731.5561 497.8346, 731.5561 508.0849, 699.9323 508.0849" style="stroke: rgb(67%,84%,90%); stroke-linecap: round; stroke-width: 1; fill: rgb(67%,84%,90%); fill-rule: evenodd;"/>
			<polygon points="749.2731 528.5855, 749.2731 538.8358, 765.1858 518.3352, 749.2731 497.8346, 749.2731 508.0849" style="stroke: rgb(67%,84%,90%); stroke-linecap: round; stroke-width: 1; fill: rgb(67%,84%,90%); fill-rule: evenodd;"/>
			<polygon points="766.8457 528.5855, 772.5399 528.5855, 772.5399 538.8358, 788.9403 518.3352, 772.5399 497.8346, 772.5399 508.0849, 766.8457 508.0849" style="stroke: rgb(67%,84%,90%); stroke-linecap: round; stroke-width: 1; fill: rgb(67%,84%,90%); fill-rule: evenodd;"/>
			<polygon points="789.7989 528.5855, 810.9478 528.5855, 810.9478 538.8358, 827.3483 518.3352, 810.9478 497.8346, 810.9478 508.0849, 789.7989 508.0849" style="stroke: rgb(67%,84%,90%); stroke-linecap: round; stroke-width: 1; fill: rgb(67%,84%,90%); fill-rule: evenodd;"/>
			<polygon points="827.3483 528.5855, 835.9617 528.5855, 835.9617 538.8358, 852.3621 518.3352, 835.9617 497.8346, 835.9617 508.0849, 827.3483 508.0849" style="stroke: rgb(67%,84%,90%); stroke-linecap: round; stroke-width: 1; fill: rgb(67%,84%,90%); fill-rule: evenodd;"/>
			<polygon points="851.7897 528.5855, 851.7897 538.8358, 863.5811 518.3352, 851.7897 497.8346, 851.7897 508.0849" style="stroke: rgb(67%,84%,90%); stroke-linecap: round; stroke-width: 1; fill: rgb(67%,84%,90%); fill-rule: evenodd;"/>
			<polygon points="872.2816 528.5855, 872.2816 538.8358, 886.8205 518.3352, 872.2816 497.8346, 872.2816 508.0849" style="stroke: rgb(67%,84%,90%); stroke-linecap: round; stroke-width: 1; fill: rgb(67%,84%,90%); fill-rule: evenodd;"/>
			<polygon points="888.1943 528.5855, 892.8581 528.5855, 892.8581 538.8358, 909.2585 518.3352, 892.8581 497.8346, 892.8581 508.0849, 888.1943 508.0849" style="stroke: rgb(67%,84%,90%); stroke-linecap: round; stroke-width: 1; fill: rgb(67%,84%,90%); fill-rule: evenodd;"/>
			<polygon points="910.0599 528.5855, 911.1176 528.5855, 911.1176 538.8358, 927.5181 518.3352, 911.1176 497.8346, 911.1176 508.0849, 910.0599 508.0849" style="stroke: rgb(67%,84%,90%); stroke-linecap: round; stroke-width: 1; fill: rgb(67%,84%,90%); fill-rule: evenodd;"/>
			<polygon points="928.7773 528.5855, 943.2292 528.5855, 943.2292 538.8358, 959.6296 518.3352, 943.2292 497.8346, 943.2292 508.0849, 928.7773 508.0849" style="stroke: rgb(67%,84%,90%); stroke-linecap: round; stroke-width: 1; fill: rgb(67%,84%,90%); fill-rule: evenodd;"/>
			<polygon points="960.4882 528.5855, 960.4882 538.8358, 971.0776 518.3352, 960.4882 497.8346, 960.4882 508.0849" style="stroke: rgb(67%,84%,90%); stroke-linecap: round; stroke-width: 1; fill: rgb(67%,84%,90%); fill-rule: evenodd;"/>
			<polygon points="987.5627 528.5855, 994.1154 528.5855, 994.1154 538.8358, 1010.516 518.3352, 994.1154 497.8346, 994.1154 508.0849, 987.5627 508.0849" style="stroke: rgb(67%,84%,90%); stroke-linecap: round; stroke-width: 1; fill: rgb(67%,84%,90%); fill-rule: evenodd;"/>
			<polygon points="1026.658 528.5855, 1041.281 528.5855, 1041.281 538.8358, 1057.682 518.3352, 1041.281 497.8346, 1041.281 508.0849, 1026.658 508.0849" style="stroke: rgb(67%,84%,90%); stroke-linecap: round; stroke-width: 1; fill: rgb(67%,84%,90%); fill-rule: evenodd;"/>
			<polygon points="1058.712 528.5855, 1063.376 528.5855, 1063.376 538.8358, 1079.776 518.3352, 1063.376 497.8346, 1063.376 508.0849, 1058.712 508.0849" style="stroke: rgb(67%,84%,90%); stroke-linecap: round; stroke-width: 1; fill: rgb(67%,84%,90%); fill-rule: evenodd;"/>
			<polygon points="1080.978 528.5855, 1093.713 528.5855, 1093.713 538.8358, 1110.113 518.3352, 1093.713 497.8346, 1093.713 508.0849, 1080.978 508.0849" style="stroke: rgb(67%,84%,90%); stroke-linecap: round; stroke-width: 1; fill: rgb(67%,84%,90%); fill-rule: evenodd;"/>
			<polygon points="1111.086 528.5855, 1111.086 538.8358, 1121.504 518.3352, 1111.086 497.8346, 1111.086 508.0849" style="stroke: rgb(67%,84%,90%); stroke-linecap: round; stroke-width: 1; fill: rgb(67%,84%,90%); fill-rule: evenodd;"/>
			<polygon points="1122.821 528.5855, 1131.606 528.5855, 1131.606 538.8358, 1148.006 518.3352, 1131.606 497.8346, 1131.606 508.0849, 1122.821 508.0849" style="stroke: rgb(67%,84%,90%); stroke-linecap: round; stroke-width: 1; fill: rgb(67%,84%,90%); fill-rule: evenodd;"/>
			<polygon points="1148.121 528.5855, 1207.048 528.5855, 1207.048 538.8358, 1223.448 518.3352, 1207.048 497.8346, 1207.048 508.0849, 1148.121 508.0849" style="stroke: rgb(67%,84%,90%); stroke-linecap: round; stroke-width: 1; fill: rgb(67%,84%,90%); fill-rule: evenodd;"/>
			<polygon points="1240.735 528.5855, 1261.025 528.5855, 1261.025 538.8358, 1277.425 518.3352, 1261.025 497.8346, 1261.025 508.0849, 1240.735 508.0849" style="stroke: rgb(67%,84%,90%); stroke-linecap: round; stroke-width: 1; fill: rgb(67%,84%,90%); fill-rule: evenodd;"/>
			<polygon points="1284.924 528.5855, 1311.568 528.5855, 1311.568 538.8358, 1327.968 518.3352, 1311.568 497.8346, 1311.568 508.0849, 1284.924 508.0849" style="stroke: rgb(67%,84%,90%); stroke-linecap: round; stroke-width: 1; fill: rgb(67%,84%,90%); fill-rule: evenodd;"/>
			<polygon points="1330.658 528.5855, 1330.658 538.8358, 1346.399 518.3352, 1330.658 497.8346, 1330.658 508.0849" style="stroke: rgb(67%,84%,90%); stroke-linecap: round; stroke-width: 1; fill: rgb(67%,84%,90%); fill-rule: evenodd;"/>
			<path d="M 1270.957302,169.825647 L 1270.957302,251.827897 Z" style="stroke: rgb(0%,0%,0%); stroke-linecap: butt; stroke-width: 1;"/>
			<path d="M 70.866142,210.826772 L 1270.957302,210.826772 Z" style="stroke: rgb(0%,0%,0%); stroke-linecap: butt; stroke-width: 1;"/>
			<path d="M 70.866142,169.825647 L 70.866142,251.827897 Z" style="stroke: rgb(0%,0%,0%); stroke-linecap: butt; stroke-width: 1;"/>
			<path d="M 643.264863,210.826772 L 643.264863,231.327334 Z" style="stroke: rgb(0%,0%,0%); stroke-linecap: butt; stroke-width: 1;"/>
			<path d="M 1215.663585,210.826772 L 1215.663585,231.327334 Z" style="stroke: rgb(0%,0%,0%); stroke-linecap: butt; stroke-width: 1;"/>
			<path d="M 643.264863,210.826772 L 643.264863,223.127109 Z" style="stroke: rgb(0%,0%,0%); stroke-linecap: butt; stroke-width: 1;"/>
			<path d="M 1215.663585,210.826772 L 1215.663585,223.127109 Z" style="stroke: rgb(0%,0%,0%); stroke-linecap: butt; stroke-width: 1;"/>
			<path d="M 1346.399453,456.833521 L 1346.399453,538.835771 Z" style="stroke: rgb(0%,0%,0%); stroke-linecap: butt; stroke-width: 1;"/>
			<path d="M 70.866142,497.834646 L 1346.399453,497.834646 Z" style="stroke: rgb(0%,0%,0%); stroke-linecap: butt; stroke-width: 1;"/>
			<path d="M 70.866142,456.833521 L 70.866142,538.835771 Z" style="stroke: rgb(0%,0%,0%); stroke-linecap: butt; stroke-width: 1;"/>
			<path d="M 643.264863,497.834646 L 643.264863,518.335208 Z" style="stroke: rgb(0%,0%,0%); stroke-linecap: butt; stroke-width: 1;"/>
			<path d="M 1215.663585,497.834646 L 1215.663585,518.335208 Z" style="stroke: rgb(0%,0%,0%); stroke-linecap: butt; stroke-width: 1;"/>
			<path d="M 643.264863,497.834646 L 643.264863,510.134983 Z" style="stroke: rgb(0%,0%,0%); stroke-linecap: butt; stroke-width: 1;"/>
			<path d="M 1215.663585,497.834646 L 1215.663585,510.134983 Z" style="stroke: rgb(0%,0%,0%); stroke-linecap: butt; stroke-width: 1;"/>
			<g transform=" matrix(0.707107,0.707107,-0.707107,0.707107,643.264863,231.327334)">
				<text style="font-family: Helvetica; font-size: 6px;fill: rgb(0%,0%,0%); stroke:none;" transform="translate(0,0) scale(1,-1)" x="0" y="0">10000</text>
			</g>
			<g transform=" matrix(0.707107,0.707107,-0.707107,0.707107,1215.663585,231.327334)">
				<text style="font-family: Helvetica; font-size: 6px;fill: rgb(0%,0%,0%); stroke:none;" transform="translate(0,0) scale(1,-1)" x="0" y="0">20000</text>
			</g>
			<g transform=" matrix(0.707107,0.707107,-0.707107,0.707107,643.264863,518.335208)">
				<text style="font-family: Helvetica; font-size: 6px;fill: rgb(0%,0%,0%); stroke:none;" transform="translate(0,0) scale(1,-1)" x="0" y="0">10000</text>
			</g>
			<g transform=" matrix(0.707107,0.707107,-0.707107,0.707107,1215.663585,518.335208)">
				<text style="font-family: Helvetica; font-size: 6px;fill: rgb(0%,0%,0%); stroke:none;" transform="translate(0,0) scale(1,-1)" x="0" y="0">20000</text>
			</g>
			<g transform=" matrix(0.707107,-0.707107,0.707107,0.707107,81.398278,169.825647)">
				<text style="font-family: Helvetica; font-size: 10px;fill: rgb(0%,0%,0%); stroke:none;" transform="translate(0,0) scale(1,-1)" x="0" y="0">Gene_00751</text>
			</g>
			<g transform=" matrix(0.707107,-0.707107,0.707107,0.707107,115.742202,169.825647)">
				<text style="font-family: Helvetica; font-size: 10px;fill: rgb(0%,0%,0%); stroke:none;" transform="translate(0,0) scale(1,-1)" x="0" y="0">Gene_00752</text>
			</g>
			<g transform=" matrix(0.707107,-0.707107,0.707107,0.707107,130.281129,169.825647)">
				<text style="font-family: Helvetica; font-size: 10px;fill: rgb(0%,0%,0%); stroke:none;" transform="translate(0,0) scale(1,-1)" x="0" y="0">Gene_00753</text>
			</g>
			<g transform=" matrix(0.707107,-0.707107,0.707107,0.707107,160.360682,169.825647)">
				<text style="font-family: Helvetica; font-size: 10px;fill: rgb(0%,0%,0%); stroke:none;" transform="translate(0,0) scale(1,-1)" x="0" y="0">Gene_00754</text>
			</g>
			<g transform=" matrix(0.707107,-0.707107,0.707107,0.707107,200.972371,169.825647)">
				<text style="font-family: Helvetica; font-size: 10px;fill: rgb(0%,0%,0%); stroke:none;" transform="translate(0,0) scale(1,-1)" x="0" y="0">Gene_00755</text>
			</g>
			<g transform=" matrix(0.707107,-0.707107,0.707107,0.707107,262.161795,169.825647)">
				<text style="font-family: Helvetica; font-size: 10px;fill: rgb(0%,0%,0%); stroke:none;" transform="translate(0,0) scale(1,-1)" x="0" y="0">Gene_00756</text>
			</g>
			<g transform=" matrix(0.707107,-0.707107,0.707107,0.707107,312.876321,169.825647)">
				<text style="font-family: Helvetica; font-size: 10px;fill: rgb(0%,0%,0%); stroke:none;" transform="translate(0,0) scale(1,-1)" x="0" y="0">Gene_00757</text>
			</g>
			<g transform=" matrix(0.707107,-0.707107,0.707107,0.707107,332.108918,169.825647)">
				<text style="font-family: Helvetica; font-size: 10px;fill: rgb(0%,0%,0%); stroke:none;" transform="translate(0,0) scale(1,-1)" x="0" y="0">Gene_00758</text>
			</g>
			<g transform=" matrix(0.707107,-0.707107,0.707107,0.707107,352.686652,169.825647)">
				<text style="font-family: Helvetica; font-size: 10px;fill: rgb(0%,0%,0%); stroke:none;" transform="translate(0,0) scale(1,-1)" x="0" y="0">Gene_00759</text>
			</g>
			<g transform=" matrix(0.707107,-0.707107,0.707107,0.707107,378.873894,169.825647)">
				<text style="font-family: Helvetica; font-size: 10px;fill: rgb(0%,0%,0%); stroke:none;" transform="translate(0,0) scale(1,-1)" x="0" y="0">Gene_00760</text>
			</g>
			<g transform=" matrix(0.707107,-0.707107,0.707107,0.707107,405.948353,169.825647)">
				<text style="font-family: Helvetica; font-size: 10px;fill: rgb(0%,0%,0%); stroke:none;" transform="translate(0,0) scale(1,-1)" x="0" y="0">Gene_00761</text>
			</g>
			<g transform=" matrix(0.707107,-0.707107,0.707107,0.707107,436.943744,169.825647)">
				<text style="font-family: Helvetica; font-size: 10px;fill: rgb(0%,0%,0%); stroke:none;" transform="translate(0,0) scale(1,-1)" x="0" y="0">Gene_00762</text>
			</g>
			<g transform=" matrix(0.707107,-0.707107,0.707107,0.707107,459.381774,169.825647)">
				<text style="font-family: Helvetica; font-size: 10px;fill: rgb(0%,0%,0%); stroke:none;" transform="translate(0,0) scale(1,-1)" x="0" y="0">Gene_00763</text>
			</g>
			<g transform=" matrix(0.707107,-0.707107,0.707107,0.707107,481.075686,169.825647)">
				<text style="font-family: Helvetica; font-size: 10px;fill: rgb(0%,0%,0%); stroke:none;" transform="translate(0,0) scale(1,-1)" x="0" y="0">Gene_00764</text>
			</g>
			<g transform=" matrix(0.707107,-0.707107,0.707107,0.707107,506.490189,169.825647)">
				<text style="font-family: Helvetica; font-size: 10px;fill: rgb(0%,0%,0%); stroke:none;" transform="translate(0,0) scale(1,-1)" x="0" y="0">Gene_00765</text>
			</g>
			<g transform=" matrix(0.707107,-0.707107,0.707107,0.707107,526.552764,169.825647)">
				<text style="font-family: Helvetica; font-size: 10px;fill: rgb(0%,0%,0%); stroke:none;" transform="translate(0,0) scale(1,-1)" x="0" y="0">Gene_00766</text>
			</g>
			<g transform=" matrix(0.707107,-0.707107,0.707107,0.707107,545.728121,169.825647)">
				<text style="font-family: Helvetica; font-size: 10px;fill: rgb(0%,0%,0%); stroke:none;" transform="translate(0,0) scale(1,-1)" x="0" y="0">Gene_00767</text>
			</g>
			<g transform=" matrix(0.707107,-0.707107,0.707107,0.707107,566.391715,169.825647)">
				<text style="font-family: Helvetica; font-size: 10px;fill: rgb(0%,0%,0%); stroke:none;" transform="translate(0,0) scale(1,-1)" x="0" y="0">Gene_00768</text>
			</g>
			<g transform=" matrix(0.707107,-0.707107,0.707107,0.707107,584.221935,169.825647)">
				<text style="font-family: Helvetica; font-size: 10px;fill: rgb(0%,0%,0%); stroke:none;" transform="translate(0,0) scale(1,-1)" x="0" y="0">Gene_00769</text>
			</g>
			<g transform=" matrix(0.707107,-0.707107,0.707107,0.707107,615.503525,169.825647)">
				<text style="font-family: Helvetica; font-size: 10px;fill: rgb(0%,0%,0%); stroke:none;" transform="translate(0,0) scale(1,-1)" x="0" y="0">Gene_00770</text>
			</g>
			<g transform=" matrix(0.707107,-0.707107,0.707107,0.707107,646.012377,169.825647)">
				<text style="font-family: Helvetica; font-size: 10px;fill: rgb(0%,0%,0%); stroke:none;" transform="translate(0,0) scale(1,-1)" x="0" y="0">Gene_00771</text>
			</g>
			<g transform=" matrix(0.707107,-0.707107,0.707107,0.707107,669.509345,169.825647)">
				<text style="font-family: Helvetica; font-size: 16px;fill: rgb(0%,0%,100%); stroke:none;" transform="translate(0,0) scale(1,-1)" x="0" y="0">Gene_00772 (87.7)</text>
			</g>
			<g transform=" matrix(0.707107,-0.707107,0.707107,0.707107,702.96605,169.825647)">
				<text style="font-family: Helvetica; font-size: 10px;fill: rgb(0%,0%,0%); stroke:none;" transform="translate(0,0) scale(1,-1)" x="0" y="0">Gene_00773</text>
			</g>
			<g transform=" matrix(0.707107,-0.707107,0.707107,0.707107,744.665297,169.825647)">
				<text style="font-family: Helvetica; font-size: 10px;fill: rgb(0%,0%,0%); stroke:none;" transform="translate(0,0) scale(1,-1)" x="0" y="0">Gene_00774</text>
			</g>
			<g transform=" matrix(0.707107,-0.707107,0.707107,0.707107,770.967018,169.825647)">
				<text style="font-family: Helvetica; font-size: 10px;fill: rgb(0%,0%,0%); stroke:none;" transform="translate(0,0) scale(1,-1)" x="0" y="0">Gene_00775</text>
			</g>
			<g transform=" matrix(0.707107,-0.707107,0.707107,0.707107,808.602234,169.825647)">
				<text style="font-family: Helvetica; font-size: 10px;fill: rgb(0%,0%,0%); stroke:none;" transform="translate(0,0) scale(1,-1)" x="0" y="0">Gene_00776</text>
			</g>
			<g transform=" matrix(0.707107,-0.707107,0.707107,0.707107,846.037111,169.825647)">
				<text style="font-family: Helvetica; font-size: 10px;fill: rgb(0%,0%,0%); stroke:none;" transform="translate(0,0) scale(1,-1)" x="0" y="0">Gene_00777</text>
			</g>
			<g transform=" matrix(0.707107,-0.707107,0.707107,0.707107,859.975019,169.825647)">
				<text style="font-family: Helvetica; font-size: 10px;fill: rgb(0%,0%,0%); stroke:none;" transform="translate(0,0) scale(1,-1)" x="0" y="0">Gene_00778</text>
			</g>
			<g transform=" matrix(0.707107,-0.707107,0.707107,0.707107,914.267038,169.825647)">
				<text style="font-family: Helvetica; font-size: 10px;fill: rgb(0%,0%,0%); stroke:none;" transform="translate(0,0) scale(1,-1)" x="0" y="0">Gene_00779</text>
			</g>
			<g transform=" matrix(0.707107,0.707107,-0.707107,0.707107,1000.126846,251.827897)">
				<text style="font-family: Helvetica; font-size: 10px;fill: rgb(0%,0%,0%); stroke:none;" transform="translate(0,0) scale(1,-1)" x="0" y="0">Gene_00780</text>
			</g>
			<g transform=" matrix(0.707107,-0.707107,0.707107,0.707107,1054.733684,169.825647)">
				<text style="font-family: Helvetica; font-size: 10px;fill: rgb(0%,0%,0%); stroke:none;" transform="translate(0,0) scale(1,-1)" x="0" y="0">Gene_00781</text>
			</g>
			<g transform=" matrix(0.707107,0.707107,-0.707107,0.707107,1133.238169,251.827897)">
				<text style="font-family: Helvetica; font-size: 10px;fill: rgb(0%,0%,0%); stroke:none;" transform="translate(0,0) scale(1,-1)" x="0" y="0">Gene_00782</text>
			</g>
			<g transform=" matrix(0.707107,-0.707107,0.707107,0.707107,1223.333728,169.825647)">
				<text style="font-family: Helvetica; font-size: 10px;fill: rgb(0%,0%,0%); stroke:none;" transform="translate(0,0) scale(1,-1)" x="0" y="0">Gene_00783</text>
			</g>
			<g transform=" matrix(0.707107,0.707107,-0.707107,0.707107,131.025247,538.835771)">
				<text style="font-family: Helvetica; font-size: 10px;fill: rgb(0%,0%,0%); stroke:none;" transform="translate(0,0) scale(1,-1)" x="0" y="0">Gene_01850</text>
			</g>
			<g transform=" matrix(0.707107,0.707107,-0.707107,0.707107,231.280883,538.835771)">
				<text style="font-family: Helvetica; font-size: 10px;fill: rgb(0%,0%,0%); stroke:none;" transform="translate(0,0) scale(1,-1)" x="0" y="0">Gene_01851</text>
			</g>
			<g transform=" matrix(0.707107,0.707107,-0.707107,0.707107,299.768391,538.835771)">
				<text style="font-family: Helvetica; font-size: 10px;fill: rgb(0%,0%,0%); stroke:none;" transform="translate(0,0) scale(1,-1)" x="0" y="0">Gene_01852</text>
			</g>
			<g transform=" matrix(0.707107,0.707107,-0.707107,0.707107,337.632566,538.835771)">
				<text style="font-family: Helvetica; font-size: 10px;fill: rgb(0%,0%,0%); stroke:none;" transform="translate(0,0) scale(1,-1)" x="0" y="0">Gene_01853</text>
			</g>
			<g transform=" matrix(0.707107,0.707107,-0.707107,0.707107,368.856916,538.835771)">
				<text style="font-family: Helvetica; font-size: 10px;fill: rgb(0%,0%,0%); stroke:none;" transform="translate(0,0) scale(1,-1)" x="0" y="0">Gene_01854</text>
			</g>
			<g transform=" matrix(0.707107,-0.707107,0.707107,0.707107,424.723031,456.833521)">
				<text style="font-family: Helvetica; font-size: 10px;fill: rgb(0%,0%,0%); stroke:none;" transform="translate(0,0) scale(1,-1)" x="0" y="0">Gene_01855</text>
			</g>
			<g transform=" matrix(0.707107,0.707107,-0.707107,0.707107,504.973332,538.835771)">
				<text style="font-family: Helvetica; font-size: 10px;fill: rgb(0%,0%,0%); stroke:none;" transform="translate(0,0) scale(1,-1)" x="0" y="0">Gene_01856</text>
			</g>
			<g transform=" matrix(0.707107,0.707107,-0.707107,0.707107,587.656328,538.835771)">
				<text style="font-family: Helvetica; font-size: 10px;fill: rgb(0%,0%,0%); stroke:none;" transform="translate(0,0) scale(1,-1)" x="0" y="0">Gene_01857</text>
			</g>
			<g transform=" matrix(0.707107,0.707107,-0.707107,0.707107,620.969933,538.835771)">
				<text style="font-family: Helvetica; font-size: 10px;fill: rgb(0%,0%,0%); stroke:none;" transform="translate(0,0) scale(1,-1)" x="0" y="0">Gene_01858</text>
			</g>
			<g transform=" matrix(0.707107,0.707107,-0.707107,0.707107,658.31895,538.835771)">
				<text style="font-family: Helvetica; font-size: 10px;fill: rgb(0%,0%,0%); stroke:none;" transform="translate(0,0) scale(1,-1)" x="0" y="0">Gene_01859</text>
			</g>
			<g transform=" matrix(0.707107,0.707107,-0.707107,0.707107,684.448951,538.835771)">
				<text style="font-family: Helvetica; font-size: 10px;fill: rgb(0%,0%,0%); stroke:none;" transform="translate(0,0) scale(1,-1)" x="0" y="0">Gene_01860</text>
			</g>
			<g transform=" matrix(0.707107,0.707107,-0.707107,0.707107,723.944463,538.835771)">
				<text style="font-family: Helvetica; font-size: 10px;fill: rgb(0%,0%,0%); stroke:none;" transform="translate(0,0) scale(1,-1)" x="0" y="0">Gene_01861</text>
			</g>
			<g transform=" matrix(0.707107,0.707107,-0.707107,0.707107,757.229449,538.835771)">
				<text style="font-family: Helvetica; font-size: 16px;fill: rgb(0%,0%,100%); stroke:none;" transform="translate(0,0) scale(1,-1)" x="0" y="0">Gene_01862 (87.7)</text>
			</g>
			<g transform=" matrix(0.707107,0.707107,-0.707107,0.707107,777.893043,538.835771)">
				<text style="font-family: Helvetica; font-size: 10px;fill: rgb(0%,0%,0%); stroke:none;" transform="translate(0,0) scale(1,-1)" x="0" y="0">Gene_01863</text>
			</g>
			<g transform=" matrix(0.707107,0.707107,-0.707107,0.707107,808.573614,538.835771)">
				<text style="font-family: Helvetica; font-size: 10px;fill: rgb(0%,0%,0%); stroke:none;" transform="translate(0,0) scale(1,-1)" x="0" y="0">Gene_01864</text>
			</g>
			<g transform=" matrix(0.707107,0.707107,-0.707107,0.707107,839.855204,538.835771)">
				<text style="font-family: Helvetica; font-size: 10px;fill: rgb(0%,0%,0%); stroke:none;" transform="translate(0,0) scale(1,-1)" x="0" y="0">Gene_01865</text>
			</g>
			<g transform=" matrix(0.707107,0.707107,-0.707107,0.707107,857.685425,538.835771)">
				<text style="font-family: Helvetica; font-size: 10px;fill: rgb(0%,0%,0%); stroke:none;" transform="translate(0,0) scale(1,-1)" x="0" y="0">Gene_01866</text>
			</g>
			<g transform=" matrix(0.707107,0.707107,-0.707107,0.707107,879.551056,538.835771)">
				<text style="font-family: Helvetica; font-size: 10px;fill: rgb(0%,0%,0%); stroke:none;" transform="translate(0,0) scale(1,-1)" x="0" y="0">Gene_01867</text>
			</g>
			<g transform=" matrix(0.707107,0.707107,-0.707107,0.707107,898.726413,538.835771)">
				<text style="font-family: Helvetica; font-size: 10px;fill: rgb(0%,0%,0%); stroke:none;" transform="translate(0,0) scale(1,-1)" x="0" y="0">Gene_01868</text>
			</g>
			<g transform=" matrix(0.707107,0.707107,-0.707107,0.707107,918.788988,538.835771)">
				<text style="font-family: Helvetica; font-size: 10px;fill: rgb(0%,0%,0%); stroke:none;" transform="translate(0,0) scale(1,-1)" x="0" y="0">Gene_01869</text>
			</g>
			<g transform=" matrix(0.707107,0.707107,-0.707107,0.707107,944.203491,538.835771)">
				<text style="font-family: Helvetica; font-size: 10px;fill: rgb(0%,0%,0%); stroke:none;" transform="translate(0,0) scale(1,-1)" x="0" y="0">Gene_01870</text>
			</g>
			<g transform=" matrix(0.707107,0.707107,-0.707107,0.707107,965.782923,538.835771)">
				<text style="font-family: Helvetica; font-size: 10px;fill: rgb(0%,0%,0%); stroke:none;" transform="translate(0,0) scale(1,-1)" x="0" y="0">Gene_01871</text>
			</g>
			<g transform=" matrix(0.707107,0.707107,-0.707107,0.707107,999.039289,538.835771)">
				<text style="font-family: Helvetica; font-size: 10px;fill: rgb(0%,0%,0%); stroke:none;" transform="translate(0,0) scale(1,-1)" x="0" y="0">Gene_01872</text>
			</g>
			<g transform=" matrix(0.707107,0.707107,-0.707107,0.707107,1042.169532,538.835771)">
				<text style="font-family: Helvetica; font-size: 10px;fill: rgb(0%,0%,0%); stroke:none;" transform="translate(0,0) scale(1,-1)" x="0" y="0">Gene_01873</text>
			</g>
			<g transform=" matrix(0.707107,0.707107,-0.707107,0.707107,1069.243992,538.835771)">
				<text style="font-family: Helvetica; font-size: 10px;fill: rgb(0%,0%,0%); stroke:none;" transform="translate(0,0) scale(1,-1)" x="0" y="0">Gene_01874</text>
			</g>
			<g transform=" matrix(0.707107,0.707107,-0.707107,0.707107,1095.545713,538.835771)">
				<text style="font-family: Helvetica; font-size: 10px;fill: rgb(0%,0%,0%); stroke:none;" transform="translate(0,0) scale(1,-1)" x="0" y="0">Gene_01875</text>
			</g>
			<g transform=" matrix(0.707107,0.707107,-0.707107,0.707107,1116.295167,538.835771)">
				<text style="font-family: Helvetica; font-size: 10px;fill: rgb(0%,0%,0%); stroke:none;" transform="translate(0,0) scale(1,-1)" x="0" y="0">Gene_01876</text>
			</g>
			<g transform=" matrix(0.707107,0.707107,-0.707107,0.707107,1135.413284,538.835771)">
				<text style="font-family: Helvetica; font-size: 10px;fill: rgb(0%,0%,0%); stroke:none;" transform="translate(0,0) scale(1,-1)" x="0" y="0">Gene_01877</text>
			</g>
			<g transform=" matrix(0.707107,0.707107,-0.707107,0.707107,1185.784372,538.835771)">
				<text style="font-family: Helvetica; font-size: 10px;fill: rgb(0%,0%,0%); stroke:none;" transform="translate(0,0) scale(1,-1)" x="0" y="0">Gene_01878</text>
			</g>
			<g transform=" matrix(0.707107,0.707107,-0.707107,0.707107,1259.080028,538.835771)">
				<text style="font-family: Helvetica; font-size: 10px;fill: rgb(0%,0%,0%); stroke:none;" transform="translate(0,0) scale(1,-1)" x="0" y="0">Gene_01879</text>
			</g>
			<g transform=" matrix(0.707107,0.707107,-0.707107,0.707107,1306.446022,538.835771)">
				<text style="font-family: Helvetica; font-size: 10px;fill: rgb(0%,0%,0%); stroke:none;" transform="translate(0,0) scale(1,-1)" x="0" y="0">Gene_01880</text>
			</g>
			<g transform=" matrix(0.707107,0.707107,-0.707107,0.707107,1338.528971,538.835771)">
				<text style="font-family: Helvetica; font-size: 10px;fill: rgb(0%,0%,0%); stroke:none;" transform="translate(0,0) scale(1,-1)" x="0" y="0">Gene_01881</text>
			</g>
			<g transform=" matrix(1,0,-0,1,70,169.825647)">
				<text style="font-family: Helvetica; font-size: 12px;fill: rgb(60%,60%,60%); stroke:none;" transform="translate(0,0) scale(1,-1)" x="0" y="0">megahit_6060 (left 125315bp, right 46793bp)</text>
			</g>
			<g transform=" matrix(1,0,-0,1,70,456.833521)">
				<text style="font-family: Helvetica; font-size: 12px;fill: rgb(60%,60%,60%); stroke:none;" transform="translate(0,0) scale(1,-1)" x="0" y="0">megahit_38061 (left 17654bp, right 15098bp)</text>
			</g>
		</g>
	</g>
</svg>
