<?xml version="1.0" encoding="utf-8"?>
<!DOCTYPE svg
  PUBLIC '-//W3C//DTD SVG 1.0//EN'
  'http://www.w3.org/TR/2001/REC-SVG-20010904/DTD/svg10.dtd'>
<svg fill-rule="evenodd" height="708.6614173228346" preserveAspectRatio="xMinYMin meet" version="1.0" viewBox="0 0 1417 708" width="1417.3228346456692" xmlns="http://www.w3.org/2000/svg" xmlns:xlink="http://www.w3.org/1999/xlink">
	<title>...</title>
	<desc>...</desc>
	<clipPath id="clip">
		<rect height="708.6614173228346" width="1417.3228346456692" x="0" y="0"/>
	</clipPath>
	<g id="group" style="clip-path: url(#clip)" transform="scale(1,-1) translate(0,-708)">
		<g transform="">
			<polygon points="70.86614 169.8256, 726.6884 169.8256, 726.6884 251.8279, 70.86614 251.8279" style="stroke: rgb(96%,96%,96%); stroke-linecap: butt; stroke-width: 1; fill: rgb(96%,96%,96%); fill-rule: evenodd;"/>
			<polygon points="70.86614 456.8335, 1346.397 456.8335, 1346.397 538.8358, 70.86614 538.8358" style="stroke: rgb(96%,96%,96%); stroke-linecap: butt; stroke-width: 1; fill: rgb(96%,96%,96%); fill-rule: evenodd;"/>
			<polygon points="691.6559 456.8335, 745.2562 456.8335, 672.1868 251.8279, 725.7871 251.8279" style="stroke: rgb(100%,39%,39%); stroke-linecap: round; stroke-width: 1; fill: rgb(100%,39%,39%); fill-rule: evenodd;"/>
			<polygon points="168.3321 200.5765, 89.06929 200.5765, 89.06929 210.8268, 72.66884 190.3262, 89.06929 169.8256, 89.06929 180.0759, 168.3321 180.0759" style="stroke: rgb(56%,93%,56%); stroke-linecap: round; stroke-width: 1; fill: rgb(56%,93%,56%); fill-rule: evenodd;"/>
			<polygon points="238.8778 200.5765, 189.5398 200.5765, 189.5398 210.8268, 173.1393 190.3262, 189.5398 169.8256, 189.5398 180.0759, 238.8778 180.0759" style="stroke: rgb(56%,93%,56%); stroke-linecap: round; stroke-width: 1; fill: rgb(56%,93%,56%); fill-rule: evenodd;"/>
			<polygon points="296.1436 200.5765, 255.098 200.5765, 255.098 210.8268, 238.6975 190.3262, 255.098 169.8256, 255.098 180.0759, 296.1436 180.0759" style="stroke: rgb(56%,93%,56%); stroke-linecap: round; stroke-width: 1; fill: rgb(56%,93%,56%); fill-rule: evenodd;"/>
			<polygon points="354.0703 200.5765, 313.7458 200.5765, 313.7458 210.8268, 297.3454 190.3262, 313.7458 169.8256, 313.7458 180.0759, 354.0703 180.0759" style="stroke: rgb(56%,93%,56%); stroke-linecap: round; stroke-width: 1; fill: rgb(56%,93%,56%); fill-rule: evenodd;"/>
			<polygon points="379.248 200.5765, 370.2905 200.5765, 370.2905 210.8268, 353.89 190.3262, 370.2905 169.8256, 370.2905 180.0759, 379.248 180.0759" style="stroke: rgb(56%,93%,56%); stroke-linecap: round; stroke-width: 1; fill: rgb(56%,93%,56%); fill-rule: evenodd;"/>
			<polygon points="449.313 200.5765, 400.1552 200.5765, 400.1552 210.8268, 383.7548 190.3262, 400.1552 169.8256, 400.1552 180.0759, 449.313 180.0759" style="stroke: rgb(56%,93%,56%); stroke-linecap: round; stroke-width: 1; fill: rgb(56%,93%,56%); fill-rule: evenodd;"/>
			<polygon points="519.8586 200.5765, 469.6193 200.5765, 469.6193 210.8268, 453.2188 190.3262, 469.6193 169.8256, 469.6193 180.0759, 519.8586 180.0759" style="stroke: rgb(56%,93%,56%); stroke-linecap: round; stroke-width: 1; fill: rgb(56%,93%,56%); fill-rule: evenodd;"/>
			<polygon points="606.6286 200.5765, 541.2466 200.5765, 541.2466 210.8268, 524.8461 190.3262, 541.2466 169.8256, 541.2466 180.0759, 606.6286 180.0759" style="stroke: rgb(56%,93%,56%); stroke-linecap: round; stroke-width: 1; fill: rgb(56%,93%,56%); fill-rule: evenodd;"/>
			<polygon points="669.9034 200.5765, 623.8102 200.5765, 623.8102 210.8268, 607.4098 190.3262, 623.8102 169.8256, 623.8102 180.0759, 669.9034 180.0759" style="stroke: rgb(56%,93%,56%); stroke-linecap: round; stroke-width: 1; fill: rgb(56%,93%,56%); fill-rule: evenodd;"/>
			<polygon points="725.9673 200.5765, 688.1666 200.5765, 688.1666 210.8268, 671.7662 190.3262, 688.1666 169.8256, 688.1666 180.0759, 725.9673 180.0759" style="stroke: rgb(56%,93%,56%); stroke-linecap: round; stroke-width: 1; fill: rgb(56%,93%,56%); fill-rule: evenodd;"/>
			<polygon points="70.86614 528.5855, 115.3369 528.5855, 115.3369 538.8358, 131.7373 518.3352, 115.3369 497.8346, 115.3369 508.0849, 70.86614 508.0849" style="stroke: rgb(67%,84%,90%); stroke-linecap: round; stroke-width: 1; fill: rgb(67%,84%,90%); fill-rule: evenodd;"/>
			<polygon points="131.9777 528.5855, 174.4654 528.5855, 174.4654 538.8358, 190.8659 518.3352, 174.4654 497.8346, 174.4654 508.0849, 131.9777 508.0849" style="stroke: rgb(67%,84%,90%); stroke-linecap: round; stroke-width: 1; fill: rgb(67%,84%,90%); fill-rule: evenodd;"/>
			<polygon points="193.6901 528.5855, 286.2929 528.5855, 286.2929 538.8358, 302.6934 518.3352, 286.2929 497.8346, 286.2929 508.0849, 193.6901 508.0849" style="stroke: rgb(67%,84%,90%); stroke-linecap: round; stroke-width: 1; fill: rgb(67%,84%,90%); fill-rule: evenodd;"/>
			<polygon points="302.6934 528.5855, 352.7525 528.5855, 352.7525 538.8358, 369.1529 518.3352, 352.7525 497.8346, 352.7525 508.0849, 302.6934 508.0849" style="stroke: rgb(67%,84%,90%); stroke-linecap: round; stroke-width: 1; fill: rgb(67%,84%,90%); fill-rule: evenodd;"/>
			<polygon points="399.6185 487.5844, 385.2529 487.5844, 385.2529 497.8346, 368.8525 477.3341, 385.2529 456.8335, 385.2529 467.0838, 399.6185 467.0838" style="stroke: rgb(56%,93%,56%); stroke-linecap: round; stroke-width: 1; fill: rgb(56%,93%,56%); fill-rule: evenodd;"/>
			<polygon points="455.7426 487.5844, 415.0575 487.5844, 415.0575 497.8346, 398.6571 477.3341, 415.0575 456.8335, 415.0575 467.0838, 455.7426 467.0838" style="stroke: rgb(56%,93%,56%); stroke-linecap: round; stroke-width: 1; fill: rgb(56%,93%,56%); fill-rule: evenodd;"/>
			<polygon points="467.0395 528.5855, 530.9794 528.5855, 530.9794 538.8358, 547.3799 518.3352, 530.9794 497.8346, 530.9794 508.0849, 467.0395 508.0849" style="stroke: rgb(67%,84%,90%); stroke-linecap: round; stroke-width: 1; fill: rgb(67%,84%,90%); fill-rule: evenodd;"/>
			<polygon points="553.509 528.5855, 553.509 538.8358, 565.7073 518.3352, 553.509 497.8346, 553.509 508.0849" style="stroke: rgb(67%,84%,90%); stroke-linecap: round; stroke-width: 1; fill: rgb(67%,84%,90%); fill-rule: evenodd;"/>
			<polygon points="573.7594 528.5855, 613.7233 528.5855, 613.7233 538.8358, 630.1238 518.3352, 613.7233 497.8346, 613.7233 508.0849, 573.7594 508.0849" style="stroke: rgb(67%,84%,90%); stroke-linecap: round; stroke-width: 1; fill: rgb(67%,84%,90%); fill-rule: evenodd;"/>
			<polygon points="627.9005 528.5855, 662.6366 528.5855, 662.6366 538.8358, 679.037 518.3352, 662.6366 497.8346, 662.6366 508.0849, 627.9005 508.0849" style="stroke: rgb(67%,84%,90%); stroke-linecap: round; stroke-width: 1; fill: rgb(67%,84%,90%); fill-rule: evenodd;"/>
			<polygon points="681.2003 528.5855, 729.0961 528.5855, 729.0961 538.8358, 745.4966 518.3352, 729.0961 497.8346, 729.0961 508.0849, 681.2003 508.0849" style="stroke: rgb(67%,84%,90%); stroke-linecap: round; stroke-width: 1; fill: rgb(67%,84%,90%); fill-rule: evenodd;"/>
			<polygon points="767.1891 528.5855, 805.7109 528.5855, 805.7109 538.8358, 822.1113 518.3352, 805.7109 497.8346, 805.7109 508.0849, 767.1891 508.0849" style="stroke: rgb(67%,84%,90%); stroke-linecap: round; stroke-width: 1; fill: rgb(67%,84%,90%); fill-rule: evenodd;"/>
			<polygon points="870.4237 487.5844, 843.98 487.5844, 843.98 497.8346, 827.5795 477.3341, 843.98 456.8335, 843.98 467.0838, 870.4237 467.0838" style="stroke: rgb(56%,93%,56%); stroke-linecap: round; stroke-width: 1; fill: rgb(56%,93%,56%); fill-rule: evenodd;"/>
			<polygon points="899.0866 528.5855, 967.353 528.5855, 967.353 538.8358, 983.7534 518.3352, 967.353 497.8346, 967.353 508.0849, 899.0866 508.0849" style="stroke: rgb(67%,84%,90%); stroke-linecap: round; stroke-width: 1; fill: rgb(67%,84%,90%); fill-rule: evenodd;"/>
			<polygon points="986.7579 528.5855, 1031.95 528.5855, 1031.95 538.8358, 1048.35 518.3352, 1031.95 497.8346, 1031.95 508.0849, 986.7579 508.0849" style="stroke: rgb(67%,84%,90%); stroke-linecap: round; stroke-width: 1; fill: rgb(67%,84%,90%); fill-rule: evenodd;"/>
			<polygon points="1046.668 528.5855, 1117.638 528.5855, 1117.638 538.8358, 1134.039 518.3352, 1117.638 497.8346, 1117.638 508.0849, 1046.668 508.0849" style="stroke: rgb(67%,84%,90%); stroke-linecap: round; stroke-width: 1; fill: rgb(67%,84%,90%); fill-rule: evenodd;"/>
			<polygon points="1134.279 528.5855, 1221.474 528.5855, 1221.474 538.8358, 1237.874 518.3352, 1221.474 497.8346, 1221.474 508.0849, 1134.279 508.0849" style="stroke: rgb(67%,84%,90%); stroke-linecap: round; stroke-width: 1; fill: rgb(67%,84%,90%); fill-rule: evenodd;"/>
			<polygon points="1238.475 528.5855, 1320.983 528.5855, 1320.983 538.8358, 1337.383 518.3352, 1320.983 497.8346, 1320.983 508.0849, 1238.475 508.0849" style="stroke: rgb(67%,84%,90%); stroke-linecap: round; stroke-width: 1; fill: rgb(67%,84%,90%); fill-rule: evenodd;"/>
			<path d="M 726.688418,169.825647 L 726.688418,251.827897 Z" style="stroke: rgb(0%,0%,0%); stroke-linecap: butt; stroke-width: 1;"/>
			<path d="M 70.866142,210.826772 L 726.688418,210.826772 Z" style="stroke: rgb(0%,0%,0%); stroke-linecap: butt; stroke-width: 1;"/>
			<path d="M 70.866142,169.825647 L 70.866142,251.827897 Z" style="stroke: rgb(0%,0%,0%); stroke-linecap: butt; stroke-width: 1;"/>
			<path d="M 671.766156,210.826772 L 671.766156,231.327334 Z" style="stroke: rgb(0%,0%,0%); stroke-linecap: butt; stroke-width: 1;"/>
			<path d="M 671.766156,210.826772 L 671.766156,223.127109 Z" style="stroke: rgb(0%,0%,0%); stroke-linecap: butt; stroke-width: 1;"/>
			<path d="M 1346.396603,456.833521 L 1346.396603,538.835771 Z" style="stroke: rgb(0%,0%,0%); stroke-linecap: butt; stroke-width: 1;"/>
			<path d="M 70.866142,497.834646 L 1346.396603,497.834646 Z" style="stroke: rgb(0%,0%,0%); stroke-linecap: butt; stroke-width: 1;"/>
			<path d="M 70.866142,456.833521 L 70.866142,538.835771 Z" style="stroke: rgb(0%,0%,0%); stroke-linecap: butt; stroke-width: 1;"/>
			<path d="M 671.766156,497.834646 L 671.766156,518.335208 Z" style="stroke: rgb(0%,0%,0%); stroke-linecap: butt; stroke-width: 1;"/>
			<path d="M 1272.666171,497.834646 L 1272.666171,518.335208 Z" style="stroke: rgb(0%,0%,0%); stroke-linecap: butt; stroke-width: 1;"/>
			<path d="M 671.766156,497.834646 L 671.766156,510.134983 Z" style="stroke: rgb(0%,0%,0%); stroke-linecap: butt; stroke-width: 1;"/>
			<path d="M 1272.666171,497.834646 L 1272.666171,510.134983 Z" style="stroke: rgb(0%,0%,0%); stroke-linecap: butt; stroke-width: 1;"/>
			<g transform=" matrix(0.707107,0.707107,-0.707107,0.707107,671.766156,231.327334)">
				<text style="font-family: Helvetica; font-size: 6px;fill: rgb(0%,0%,0%); stroke:none;" transform="translate(0,0) scale(1,-1)" x="0" y="0">10000</text>
			</g>
			<g transform=" matrix(0.707107,0.707107,-0.707107,0.707107,671.766156,518.335208)">
				<text style="font-family: Helvetica; font-size: 6px;fill: rgb(0%,0%,0%); stroke:none;" transform="translate(0,0) scale(1,-1)" x="0" y="0">10000</text>
			</g>
			<g transform=" matrix(0.707107,0.707107,-0.707107,0.707107,1272.666171,518.335208)">
				<text style="font-family: Helvetica; font-size: 6px;fill: rgb(0%,0%,0%); stroke:none;" transform="translate(0,0) scale(1,-1)" x="0" y="0">20000</text>
			</g>
			<g transform=" matrix(0.707107,-0.707107,0.707107,0.707107,120.500483,169.825647)">
				<text style="font-family: Helvetica; font-size: 10px;fill: rgb(0%,0%,0%); stroke:none;" transform="translate(0,0) scale(1,-1)" x="0" y="0">Gene_01875</text>
			</g>
			<g transform=" matrix(0.707107,-0.707107,0.707107,0.707107,206.008555,169.825647)">
				<text style="font-family: Helvetica; font-size: 10px;fill: rgb(0%,0%,0%); stroke:none;" transform="translate(0,0) scale(1,-1)" x="0" y="0">Gene_01876</text>
			</g>
			<g transform=" matrix(0.707107,-0.707107,0.707107,0.707107,267.420537,169.825647)">
				<text style="font-family: Helvetica; font-size: 10px;fill: rgb(0%,0%,0%); stroke:none;" transform="translate(0,0) scale(1,-1)" x="0" y="0">Gene_01877</text>
			</g>
			<g transform=" matrix(0.707107,-0.707107,0.707107,0.707107,325.707838,169.825647)">
				<text style="font-family: Helvetica; font-size: 10px;fill: rgb(0%,0%,0%); stroke:none;" transform="translate(0,0) scale(1,-1)" x="0" y="0">Gene_01878</text>
			</g>
			<g transform=" matrix(0.707107,-0.707107,0.707107,0.707107,366.569039,169.825647)">
				<text style="font-family: Helvetica; font-size: 10px;fill: rgb(0%,0%,0%); stroke:none;" transform="translate(0,0) scale(1,-1)" x="0" y="0">Gene_01879</text>
			</g>
			<g transform=" matrix(0.707107,-0.707107,0.707107,0.707107,416.533875,169.825647)">
				<text style="font-family: Helvetica; font-size: 10px;fill: rgb(0%,0%,0%); stroke:none;" transform="translate(0,0) scale(1,-1)" x="0" y="0">Gene_01880</text>
			</g>
			<g transform=" matrix(0.707107,-0.707107,0.707107,0.707107,486.538727,169.825647)">
				<text style="font-family: Helvetica; font-size: 10px;fill: rgb(0%,0%,0%); stroke:none;" transform="translate(0,0) scale(1,-1)" x="0" y="0">Gene_01881</text>
			</g>
			<g transform=" matrix(0.707107,-0.707107,0.707107,0.707107,565.737349,169.825647)">
				<text style="font-family: Helvetica; font-size: 10px;fill: rgb(0%,0%,0%); stroke:none;" transform="translate(0,0) scale(1,-1)" x="0" y="0">Gene_01882</text>
			</g>
			<g transform=" matrix(0.707107,-0.707107,0.707107,0.707107,638.656566,169.825647)">
				<text style="font-family: Helvetica; font-size: 10px;fill: rgb(0%,0%,0%); stroke:none;" transform="translate(0,0) scale(1,-1)" x="0" y="0">Gene_01883</text>
			</g>
			<g transform=" matrix(0.707107,-0.707107,0.707107,0.707107,698.866747,169.825647)">
				<text style="font-family: Helvetica; font-size: 16px;fill: rgb(0%,0%,100%); stroke:none;" transform="translate(0,0) scale(1,-1)" x="0" y="0">Gene_01884 (80.4)</text>
			</g>
			<g transform=" matrix(0.707107,0.707107,-0.707107,0.707107,101.301727,538.835771)">
				<text style="font-family: Helvetica; font-size: 10px;fill: rgb(0%,0%,0%); stroke:none;" transform="translate(0,0) scale(1,-1)" x="0" y="0">Gene_01078</text>
			</g>
			<g transform=" matrix(0.707107,0.707107,-0.707107,0.707107,161.421774,538.835771)">
				<text style="font-family: Helvetica; font-size: 10px;fill: rgb(0%,0%,0%); stroke:none;" transform="translate(0,0) scale(1,-1)" x="0" y="0">Gene_01079</text>
			</g>
			<g transform=" matrix(0.707107,0.707107,-0.707107,0.707107,248.191736,538.835771)">
				<text style="font-family: Helvetica; font-size: 10px;fill: rgb(0%,0%,0%); stroke:none;" transform="translate(0,0) scale(1,-1)" x="0" y="0">Gene_01080</text>
			</g>
			<g transform=" matrix(0.707107,0.707107,-0.707107,0.707107,335.923138,538.835771)">
				<text style="font-family: Helvetica; font-size: 10px;fill: rgb(0%,0%,0%); stroke:none;" transform="translate(0,0) scale(1,-1)" x="0" y="0">Gene_01081</text>
			</g>
			<g transform=" matrix(0.707107,-0.707107,0.707107,0.707107,384.235499,456.833521)">
				<text style="font-family: Helvetica; font-size: 10px;fill: rgb(0%,0%,0%); stroke:none;" transform="translate(0,0) scale(1,-1)" x="0" y="0">Gene_01082</text>
			</g>
			<g transform=" matrix(0.707107,-0.707107,0.707107,0.707107,427.19985,456.833521)">
				<text style="font-family: Helvetica; font-size: 10px;fill: rgb(0%,0%,0%); stroke:none;" transform="translate(0,0) scale(1,-1)" x="0" y="0">Gene_01083</text>
			</g>
			<g transform=" matrix(0.707107,0.707107,-0.707107,0.707107,507.209687,538.835771)">
				<text style="font-family: Helvetica; font-size: 10px;fill: rgb(0%,0%,0%); stroke:none;" transform="translate(0,0) scale(1,-1)" x="0" y="0">Gene_01084</text>
			</g>
			<g transform=" matrix(0.707107,0.707107,-0.707107,0.707107,559.608169,538.835771)">
				<text style="font-family: Helvetica; font-size: 10px;fill: rgb(0%,0%,0%); stroke:none;" transform="translate(0,0) scale(1,-1)" x="0" y="0">Gene_01085</text>
			</g>
			<g transform=" matrix(0.707107,0.707107,-0.707107,0.707107,601.941575,538.835771)">
				<text style="font-family: Helvetica; font-size: 10px;fill: rgb(0%,0%,0%); stroke:none;" transform="translate(0,0) scale(1,-1)" x="0" y="0">Gene_01086</text>
			</g>
			<g transform=" matrix(0.707107,0.707107,-0.707107,0.707107,653.468751,538.835771)">
				<text style="font-family: Helvetica; font-size: 10px;fill: rgb(0%,0%,0%); stroke:none;" transform="translate(0,0) scale(1,-1)" x="0" y="0">Gene_01087</text>
			</g>
			<g transform=" matrix(0.707107,0.707107,-0.707107,0.707107,713.348437,538.835771)">
				<text style="font-family: Helvetica; font-size: 16px;fill: rgb(0%,0%,100%); stroke:none;" transform="translate(0,0) scale(1,-1)" x="0" y="0">Gene_01088 (80.4)</text>
			</g>
			<g transform=" matrix(0.707107,0.707107,-0.707107,0.707107,794.650209,538.835771)">
				<text style="font-family: Helvetica; font-size: 10px;fill: rgb(0%,0%,0%); stroke:none;" transform="translate(0,0) scale(1,-1)" x="0" y="0">Gene_01089</text>
			</g>
			<g transform=" matrix(0.707107,-0.707107,0.707107,0.707107,849.001616,456.833521)">
				<text style="font-family: Helvetica; font-size: 10px;fill: rgb(0%,0%,0%); stroke:none;" transform="translate(0,0) scale(1,-1)" x="0" y="0">Gene_01090</text>
			</g>
			<g transform=" matrix(0.707107,0.707107,-0.707107,0.707107,941.420038,538.835771)">
				<text style="font-family: Helvetica; font-size: 10px;fill: rgb(0%,0%,0%); stroke:none;" transform="translate(0,0) scale(1,-1)" x="0" y="0">Gene_01091</text>
			</g>
			<g transform=" matrix(0.707107,0.707107,-0.707107,0.707107,1017.55407,538.835771)">
				<text style="font-family: Helvetica; font-size: 10px;fill: rgb(0%,0%,0%); stroke:none;" transform="translate(0,0) scale(1,-1)" x="0" y="0">Gene_01092</text>
			</g>
			<g transform=" matrix(0.707107,0.707107,-0.707107,0.707107,1090.353107,538.835771)">
				<text style="font-family: Helvetica; font-size: 10px;fill: rgb(0%,0%,0%); stroke:none;" transform="translate(0,0) scale(1,-1)" x="0" y="0">Gene_01093</text>
			</g>
			<g transform=" matrix(0.707107,0.707107,-0.707107,0.707107,1186.076479,538.835771)">
				<text style="font-family: Helvetica; font-size: 10px;fill: rgb(0%,0%,0%); stroke:none;" transform="translate(0,0) scale(1,-1)" x="0" y="0">Gene_01094</text>
			</g>
			<g transform=" matrix(0.707107,0.707107,-0.707107,0.707107,1287.929031,538.835771)">
				<text style="font-family: Helvetica; font-size: 10px;fill: rgb(0%,0%,0%); stroke:none;" transform="translate(0,0) scale(1,-1)" x="0" y="0">Gene_01095</text>
			</g>
			<g transform=" matrix(1,0,-0,1,70,169.825647)">
				<text style="font-family: Helvetica; font-size: 12px;fill: rgb(60%,60%,60%); stroke:none;" transform="translate(0,0) scale(1,-1)" x="0" y="0">megahit_55747 (left 13189bp, right 12bp)</text>
			</g>
			<g transform=" matrix(1,0,-0,1,70,456.833521)">
				<text style="font-family: Helvetica; font-size: 12px;fill: rgb(60%,60%,60%); stroke:none;" transform="translate(0,0) scale(1,-1)" x="0" y="0">megahit_20845 (left 21975bp, right 11133bp)</text>
			</g>
		</g>
	</g>
</svg>
