<?xml version="1.0" encoding="utf-8"?>
<!DOCTYPE svg
  PUBLIC '-//W3C//DTD SVG 1.0//EN'
  'http://www.w3.org/TR/2001/REC-SVG-20010904/DTD/svg10.dtd'>
<svg fill-rule="evenodd" height="708.6614173228346" preserveAspectRatio="xMinYMin meet" version="1.0" viewBox="0 0 1417 708" width="1417.3228346456692" xmlns="http://www.w3.org/2000/svg" xmlns:xlink="http://www.w3.org/1999/xlink">
	<title>...</title>
	<desc>...</desc>
	<clipPath id="clip">
		<rect height="708.6614173228346" width="1417.3228346456692" x="0" y="0"/>
	</clipPath>
	<g id="group" style="clip-path: url(#clip)" transform="scale(1,-1) translate(0,-708)">
		<g transform="">
			<polygon points="70.86614 169.8256, 795.1659 169.8256, 795.1659 251.8279, 70.86614 251.8279" style="stroke: rgb(96%,96%,96%); stroke-linecap: butt; stroke-width: 1; fill: rgb(96%,96%,96%); fill-rule: evenodd;"/>
			<polygon points="70.86614 456.8335, 1346.405 456.8335, 1346.405 538.8358, 70.86614 538.8358" style="stroke: rgb(96%,96%,96%); stroke-linecap: butt; stroke-width: 1; fill: rgb(96%,96%,96%); fill-rule: evenodd;"/>
			<polygon points="256.8638 456.8335, 738.3275 456.8335, 70.9181 251.8279, 551.083 251.8279" style="stroke: rgb(100%,3%,3%); stroke-linecap: round; stroke-width: 1; fill: rgb(100%,3%,3%); fill-rule: evenodd;"/>
			<polygon points="72.32087 241.5776, 72.32087 251.8279, 87.85531 231.3273, 72.32087 210.8268, 72.32087 221.0771" style="stroke: rgb(67%,84%,90%); stroke-linecap: round; stroke-width: 1; fill: rgb(67%,84%,90%); fill-rule: evenodd;"/>
			<polygon points="156.6433 200.5765, 109.0356 200.5765, 109.0356 210.8268, 92.63514 190.3262, 109.0356 169.8256, 109.0356 180.0759, 156.6433 180.0759" style="stroke: rgb(56%,93%,56%); stroke-linecap: round; stroke-width: 1; fill: rgb(56%,93%,56%); fill-rule: evenodd;"/>
			<polygon points="250.2136 200.5765, 177.9794 200.5765, 177.9794 210.8268, 161.579 190.3262, 177.9794 169.8256, 177.9794 180.0759, 250.2136 180.0759" style="stroke: rgb(56%,93%,56%); stroke-linecap: round; stroke-width: 1; fill: rgb(56%,93%,56%); fill-rule: evenodd;"/>
			<polygon points="318.1183 200.5765, 266.4582 200.5765, 266.4582 210.8268, 250.0577 190.3262, 266.4582 169.8256, 266.4582 180.0759, 318.1183 180.0759" style="stroke: rgb(56%,93%,56%); stroke-linecap: round; stroke-width: 1; fill: rgb(56%,93%,56%); fill-rule: evenodd;"/>
			<polygon points="363.4747 200.5765, 336.7528 200.5765, 336.7528 210.8268, 320.3524 190.3262, 336.7528 169.8256, 336.7528 180.0759, 363.4747 180.0759" style="stroke: rgb(56%,93%,56%); stroke-linecap: round; stroke-width: 1; fill: rgb(56%,93%,56%); fill-rule: evenodd;"/>
			<polygon points="374.2813 241.5776, 398.1977 241.5776, 398.1977 251.8279, 414.5981 231.3273, 398.1977 210.8268, 398.1977 221.0771, 374.2813 221.0771" style="stroke: rgb(67%,84%,90%); stroke-linecap: round; stroke-width: 1; fill: rgb(67%,84%,90%); fill-rule: evenodd;"/>
			<polygon points="423.7421 241.5776, 423.7421 251.8279, 432.8861 231.3273, 423.7421 210.8268, 423.7421 221.0771" style="stroke: rgb(67%,84%,90%); stroke-linecap: round; stroke-width: 1; fill: rgb(67%,84%,90%); fill-rule: evenodd;"/>
			<polygon points="442.238 241.5776, 452.5942 241.5776, 452.5942 251.8279, 468.9946 231.3273, 452.5942 210.8268, 452.5942 221.0771, 442.238 221.0771" style="stroke: rgb(67%,84%,90%); stroke-linecap: round; stroke-width: 1; fill: rgb(67%,84%,90%); fill-rule: evenodd;"/>
			<polygon points="468.3192 241.5776, 497.6908 241.5776, 497.6908 251.8279, 514.0913 231.3273, 497.6908 210.8268, 497.6908 221.0771, 468.3192 221.0771" style="stroke: rgb(67%,84%,90%); stroke-linecap: round; stroke-width: 1; fill: rgb(67%,84%,90%); fill-rule: evenodd;"/>
			<polygon points="521.4169 241.5776, 533.9552 241.5776, 533.9552 251.8279, 550.3556 231.3273, 533.9552 210.8268, 533.9552 221.0771, 521.4169 221.0771" style="stroke: rgb(67%,84%,90%); stroke-linecap: round; stroke-width: 1; fill: rgb(67%,84%,90%); fill-rule: evenodd;"/>
			<polygon points="555.7589 241.5776, 567.5179 241.5776, 567.5179 251.8279, 583.9183 231.3273, 567.5179 210.8268, 567.5179 221.0771, 555.7589 221.0771" style="stroke: rgb(67%,84%,90%); stroke-linecap: round; stroke-width: 1; fill: rgb(67%,84%,90%); fill-rule: evenodd;"/>
			<polygon points="606.6744 200.5765, 606.6744 210.8268, 590.6724 190.3262, 606.6744 169.8256, 606.6744 180.0759" style="stroke: rgb(56%,93%,56%); stroke-linecap: round; stroke-width: 1; fill: rgb(56%,93%,56%); fill-rule: evenodd;"/>
			<polygon points="795.1659 200.5765, 641.7266 200.5765, 641.7266 210.8268, 625.3262 190.3262, 641.7266 169.8256, 641.7266 180.0759, 795.1659 180.0759" style="stroke: rgb(56%,93%,56%); stroke-linecap: round; stroke-width: 1; fill: rgb(56%,93%,56%); fill-rule: evenodd;"/>
			<polygon points="70.86614 528.5855, 118.7855 528.5855, 118.7855 538.8358, 135.186 518.3352, 118.7855 497.8346, 118.7855 508.0849, 70.86614 508.0849" style="stroke: rgb(67%,84%,90%); stroke-linecap: round; stroke-width: 1; fill: rgb(67%,84%,90%); fill-rule: evenodd;"/>
			<polygon points="135.4458 528.5855, 182.7417 528.5855, 182.7417 538.8358, 199.1422 518.3352, 182.7417 497.8346, 182.7417 508.0849, 135.4458 508.0849" style="stroke: rgb(67%,84%,90%); stroke-linecap: round; stroke-width: 1; fill: rgb(67%,84%,90%); fill-rule: evenodd;"/>
			<polygon points="204.4935 528.5855, 213.1352 528.5855, 213.1352 538.8358, 229.5356 518.3352, 213.1352 497.8346, 213.1352 508.0849, 204.4935 508.0849" style="stroke: rgb(67%,84%,90%); stroke-linecap: round; stroke-width: 1; fill: rgb(67%,84%,90%); fill-rule: evenodd;"/>
			<polygon points="255.8766 487.5844, 249.5729 487.5844, 249.5729 497.8346, 233.1725 477.3341, 249.5729 456.8335, 249.5729 467.0838, 255.8766 467.0838" style="stroke: rgb(56%,93%,56%); stroke-linecap: round; stroke-width: 1; fill: rgb(56%,93%,56%); fill-rule: evenodd;"/>
			<polygon points="286.8936 487.5844, 274.1994 487.5844, 274.1994 497.8346, 257.799 477.3341, 274.1994 456.8335, 274.1994 467.0838, 286.8936 467.0838" style="stroke: rgb(56%,93%,56%); stroke-linecap: round; stroke-width: 1; fill: rgb(56%,93%,56%); fill-rule: evenodd;"/>
			<polygon points="339.9912 487.5844, 310.6196 487.5844, 310.6196 497.8346, 294.2192 477.3341, 310.6196 456.8335, 310.6196 467.0838, 339.9912 467.0838" style="stroke: rgb(56%,93%,56%); stroke-linecap: round; stroke-width: 1; fill: rgb(56%,93%,56%); fill-rule: evenodd;"/>
			<polygon points="366.0725 487.5844, 355.7163 487.5844, 355.7163 497.8346, 339.3158 477.3341, 355.7163 456.8335, 355.7163 467.0838, 366.0725 467.0838" style="stroke: rgb(56%,93%,56%); stroke-linecap: round; stroke-width: 1; fill: rgb(56%,93%,56%); fill-rule: evenodd;"/>
			<polygon points="384.5683 487.5844, 384.5683 497.8346, 375.4243 477.3341, 384.5683 456.8335, 384.5683 467.0838" style="stroke: rgb(56%,93%,56%); stroke-linecap: round; stroke-width: 1; fill: rgb(56%,93%,56%); fill-rule: evenodd;"/>
			<polygon points="434.0291 487.5844, 410.1128 487.5844, 410.1128 497.8346, 393.7123 477.3341, 410.1128 456.8335, 410.1128 467.0838, 434.0291 467.0838" style="stroke: rgb(56%,93%,56%); stroke-linecap: round; stroke-width: 1; fill: rgb(56%,93%,56%); fill-rule: evenodd;"/>
			<polygon points="444.8357 528.5855, 471.5576 528.5855, 471.5576 538.8358, 487.9581 518.3352, 471.5576 497.8346, 471.5576 508.0849, 444.8357 508.0849" style="stroke: rgb(67%,84%,90%); stroke-linecap: round; stroke-width: 1; fill: rgb(67%,84%,90%); fill-rule: evenodd;"/>
			<polygon points="490.1921 528.5855, 541.8523 528.5855, 541.8523 538.8358, 558.2527 518.3352, 541.8523 497.8346, 541.8523 508.0849, 490.1921 508.0849" style="stroke: rgb(67%,84%,90%); stroke-linecap: round; stroke-width: 1; fill: rgb(67%,84%,90%); fill-rule: evenodd;"/>
			<polygon points="558.0968 528.5855, 630.331 528.5855, 630.331 538.8358, 646.7315 518.3352, 630.331 497.8346, 630.331 508.0849, 558.0968 508.0849" style="stroke: rgb(67%,84%,90%); stroke-linecap: round; stroke-width: 1; fill: rgb(67%,84%,90%); fill-rule: evenodd;"/>
			<polygon points="651.6672 528.5855, 699.2748 528.5855, 699.2748 538.8358, 715.6753 518.3352, 699.2748 497.8346, 699.2748 508.0849, 651.6672 508.0849" style="stroke: rgb(67%,84%,90%); stroke-linecap: round; stroke-width: 1; fill: rgb(67%,84%,90%); fill-rule: evenodd;"/>
			<polygon points="787.2688 487.5844, 737.7908 487.5844, 737.7908 497.8346, 721.3903 477.3341, 737.7908 456.8335, 737.7908 467.0838, 787.2688 467.0838" style="stroke: rgb(56%,93%,56%); stroke-linecap: round; stroke-width: 1; fill: rgb(56%,93%,56%); fill-rule: evenodd;"/>
			<polygon points="797.4519 528.5855, 797.4519 538.8358, 809.7132 518.3352, 797.4519 497.8346, 797.4519 508.0849" style="stroke: rgb(67%,84%,90%); stroke-linecap: round; stroke-width: 1; fill: rgb(67%,84%,90%); fill-rule: evenodd;"/>
			<polygon points="901.621 487.5844, 829.6985 487.5844, 829.6985 497.8346, 813.2981 477.3341, 829.6985 456.8335, 829.6985 467.0838, 901.621 467.0838" style="stroke: rgb(56%,93%,56%); stroke-linecap: round; stroke-width: 1; fill: rgb(56%,93%,56%); fill-rule: evenodd;"/>
			<polygon points="938.9764 528.5855, 952.9174 528.5855, 952.9174 538.8358, 969.3179 518.3352, 952.9174 497.8346, 952.9174 508.0849, 938.9764 508.0849" style="stroke: rgb(67%,84%,90%); stroke-linecap: round; stroke-width: 1; fill: rgb(67%,84%,90%); fill-rule: evenodd;"/>
			<polygon points="998.1008 487.5844, 990.5501 487.5844, 990.5501 497.8346, 974.1497 477.3341, 990.5501 456.8335, 990.5501 467.0838, 998.1008 467.0838" style="stroke: rgb(56%,93%,56%); stroke-linecap: round; stroke-width: 1; fill: rgb(56%,93%,56%); fill-rule: evenodd;"/>
			<polygon points="1021.117 487.5844, 1014.189 487.5844, 1014.189 497.8346, 997.789 477.3341, 1014.189 456.8335, 1014.189 467.0838, 1021.117 467.0838" style="stroke: rgb(56%,93%,56%); stroke-linecap: round; stroke-width: 1; fill: rgb(56%,93%,56%); fill-rule: evenodd;"/>
			<polygon points="1038.833 487.5844, 1037.361 487.5844, 1037.361 497.8346, 1020.961 477.3341, 1037.361 456.8335, 1037.361 467.0838, 1038.833 467.0838" style="stroke: rgb(56%,93%,56%); stroke-linecap: round; stroke-width: 1; fill: rgb(56%,93%,56%); fill-rule: evenodd;"/>
			<polygon points="1047.198 528.5855, 1069.4 528.5855, 1069.4 538.8358, 1085.8 518.3352, 1069.4 497.8346, 1069.4 508.0849, 1047.198 508.0849" style="stroke: rgb(67%,84%,90%); stroke-linecap: round; stroke-width: 1; fill: rgb(67%,84%,90%); fill-rule: evenodd;"/>
			<polygon points="1095.048 528.5855, 1102.131 528.5855, 1102.131 538.8358, 1118.532 518.3352, 1102.131 497.8346, 1102.131 508.0849, 1095.048 508.0849" style="stroke: rgb(67%,84%,90%); stroke-linecap: round; stroke-width: 1; fill: rgb(67%,84%,90%); fill-rule: evenodd;"/>
			<polygon points="1193.71 487.5844, 1140.959 487.5844, 1140.959 497.8346, 1124.558 477.3341, 1140.959 456.8335, 1140.959 467.0838, 1193.71 467.0838" style="stroke: rgb(56%,93%,56%); stroke-linecap: round; stroke-width: 1; fill: rgb(56%,93%,56%); fill-rule: evenodd;"/>
			<polygon points="1346.405 487.5844, 1210.422 487.5844, 1210.422 497.8346, 1194.022 477.3341, 1210.422 456.8335, 1210.422 467.0838, 1346.405 467.0838" style="stroke: rgb(56%,93%,56%); stroke-linecap: round; stroke-width: 1; fill: rgb(56%,93%,56%); fill-rule: evenodd;"/>
			<path d="M 795.165909,169.825647 L 795.165909,251.827897 Z" style="stroke: rgb(0%,0%,0%); stroke-linecap: butt; stroke-width: 1;"/>
			<path d="M 70.866142,210.826772 L 795.165909,210.826772 Z" style="stroke: rgb(0%,0%,0%); stroke-linecap: butt; stroke-width: 1;"/>
			<path d="M 70.866142,169.825647 L 70.866142,251.827897 Z" style="stroke: rgb(0%,0%,0%); stroke-linecap: butt; stroke-width: 1;"/>
			<path d="M 590.412635,210.826772 L 590.412635,231.327334 Z" style="stroke: rgb(0%,0%,0%); stroke-linecap: butt; stroke-width: 1;"/>
			<path d="M 590.412635,210.826772 L 590.412635,223.127109 Z" style="stroke: rgb(0%,0%,0%); stroke-linecap: butt; stroke-width: 1;"/>
			<path d="M 1346.404738,456.833521 L 1346.404738,538.835771 Z" style="stroke: rgb(0%,0%,0%); stroke-linecap: butt; stroke-width: 1;"/>
			<path d="M 70.866142,497.834646 L 1346.404738,497.834646 Z" style="stroke: rgb(0%,0%,0%); stroke-linecap: butt; stroke-width: 1;"/>
			<path d="M 70.866142,456.833521 L 70.866142,538.835771 Z" style="stroke: rgb(0%,0%,0%); stroke-linecap: butt; stroke-width: 1;"/>
			<path d="M 590.412635,497.834646 L 590.412635,518.335208 Z" style="stroke: rgb(0%,0%,0%); stroke-linecap: butt; stroke-width: 1;"/>
			<path d="M 1109.959129,497.834646 L 1109.959129,518.335208 Z" style="stroke: rgb(0%,0%,0%); stroke-linecap: butt; stroke-width: 1;"/>
			<path d="M 590.412635,497.834646 L 590.412635,510.134983 Z" style="stroke: rgb(0%,0%,0%); stroke-linecap: butt; stroke-width: 1;"/>
			<path d="M 1109.959129,497.834646 L 1109.959129,510.134983 Z" style="stroke: rgb(0%,0%,0%); stroke-linecap: butt; stroke-width: 1;"/>
			<g transform=" matrix(0.707107,0.707107,-0.707107,0.707107,590.412635,231.327334)">
				<text style="font-family: Helvetica; font-size: 6px;fill: rgb(0%,0%,0%); stroke:none;" transform="translate(0,0) scale(1,-1)" x="0" y="0">10000</text>
			</g>
			<g transform=" matrix(0.707107,0.707107,-0.707107,0.707107,590.412635,518.335208)">
				<text style="font-family: Helvetica; font-size: 6px;fill: rgb(0%,0%,0%); stroke:none;" transform="translate(0,0) scale(1,-1)" x="0" y="0">10000</text>
			</g>
			<g transform=" matrix(0.707107,0.707107,-0.707107,0.707107,1109.959129,518.335208)">
				<text style="font-family: Helvetica; font-size: 6px;fill: rgb(0%,0%,0%); stroke:none;" transform="translate(0,0) scale(1,-1)" x="0" y="0">20000</text>
			</g>
			<g transform=" matrix(0.707107,0.707107,-0.707107,0.707107,80.088092,251.827897)">
				<text style="font-family: Helvetica; font-size: 10px;fill: rgb(0%,0%,0%); stroke:none;" transform="translate(0,0) scale(1,-1)" x="0" y="0">Gene_00714</text>
			</g>
			<g transform=" matrix(0.707107,-0.707107,0.707107,0.707107,124.639204,169.825647)">
				<text style="font-family: Helvetica; font-size: 16px;fill: rgb(0%,0%,100%); stroke:none;" transform="translate(0,0) scale(1,-1)" x="0" y="0">Gene_00715 (99.4)</text>
			</g>
			<g transform=" matrix(0.707107,-0.707107,0.707107,0.707107,205.896275,169.825647)">
				<text style="font-family: Helvetica; font-size: 10px;fill: rgb(0%,0%,0%); stroke:none;" transform="translate(0,0) scale(1,-1)" x="0" y="0">Gene_00716</text>
			</g>
			<g transform=" matrix(0.707107,-0.707107,0.707107,0.707107,284.088023,169.825647)">
				<text style="font-family: Helvetica; font-size: 10px;fill: rgb(0%,0%,0%); stroke:none;" transform="translate(0,0) scale(1,-1)" x="0" y="0">Gene_00717</text>
			</g>
			<g transform=" matrix(0.707107,-0.707107,0.707107,0.707107,341.913547,169.825647)">
				<text style="font-family: Helvetica; font-size: 10px;fill: rgb(0%,0%,0%); stroke:none;" transform="translate(0,0) scale(1,-1)" x="0" y="0">Gene_00718</text>
			</g>
			<g transform=" matrix(0.707107,0.707107,-0.707107,0.707107,394.439698,251.827897)">
				<text style="font-family: Helvetica; font-size: 10px;fill: rgb(0%,0%,0%); stroke:none;" transform="translate(0,0) scale(1,-1)" x="0" y="0">Gene_00719</text>
			</g>
			<g transform=" matrix(0.707107,0.707107,-0.707107,0.707107,428.314129,251.827897)">
				<text style="font-family: Helvetica; font-size: 10px;fill: rgb(0%,0%,0%); stroke:none;" transform="translate(0,0) scale(1,-1)" x="0" y="0">Gene_00720</text>
			</g>
			<g transform=" matrix(0.707107,0.707107,-0.707107,0.707107,455.616298,251.827897)">
				<text style="font-family: Helvetica; font-size: 10px;fill: rgb(0%,0%,0%); stroke:none;" transform="translate(0,0) scale(1,-1)" x="0" y="0">Gene_00721</text>
			</g>
			<g transform=" matrix(0.707107,0.707107,-0.707107,0.707107,491.205232,251.827897)">
				<text style="font-family: Helvetica; font-size: 10px;fill: rgb(0%,0%,0%); stroke:none;" transform="translate(0,0) scale(1,-1)" x="0" y="0">Gene_00722</text>
			</g>
			<g transform=" matrix(0.707107,0.707107,-0.707107,0.707107,535.886231,251.827897)">
				<text style="font-family: Helvetica; font-size: 10px;fill: rgb(0%,0%,0%); stroke:none;" transform="translate(0,0) scale(1,-1)" x="0" y="0">Gene_00723</text>
			</g>
			<g transform=" matrix(0.707107,0.707107,-0.707107,0.707107,569.838594,251.827897)">
				<text style="font-family: Helvetica; font-size: 10px;fill: rgb(0%,0%,0%); stroke:none;" transform="translate(0,0) scale(1,-1)" x="0" y="0">Gene_00724</text>
			</g>
			<g transform=" matrix(0.707107,-0.707107,0.707107,0.707107,598.673425,169.825647)">
				<text style="font-family: Helvetica; font-size: 10px;fill: rgb(0%,0%,0%); stroke:none;" transform="translate(0,0) scale(1,-1)" x="0" y="0">Gene_00725</text>
			</g>
			<g transform=" matrix(0.707107,-0.707107,0.707107,0.707107,710.246034,169.825647)">
				<text style="font-family: Helvetica; font-size: 10px;fill: rgb(0%,0%,0%); stroke:none;" transform="translate(0,0) scale(1,-1)" x="0" y="0">Gene_00726</text>
			</g>
			<g transform=" matrix(0.707107,0.707107,-0.707107,0.707107,103.02607,538.835771)">
				<text style="font-family: Helvetica; font-size: 10px;fill: rgb(0%,0%,0%); stroke:none;" transform="translate(0,0) scale(1,-1)" x="0" y="0">Gene_01871</text>
			</g>
			<g transform=" matrix(0.707107,0.707107,-0.707107,0.707107,167.293971,538.835771)">
				<text style="font-family: Helvetica; font-size: 10px;fill: rgb(0%,0%,0%); stroke:none;" transform="translate(0,0) scale(1,-1)" x="0" y="0">Gene_01872</text>
			</g>
			<g transform=" matrix(0.707107,0.707107,-0.707107,0.707107,217.01457,538.835771)">
				<text style="font-family: Helvetica; font-size: 10px;fill: rgb(0%,0%,0%); stroke:none;" transform="translate(0,0) scale(1,-1)" x="0" y="0">Gene_01873</text>
			</g>
			<g transform=" matrix(0.707107,-0.707107,0.707107,0.707107,244.524557,456.833521)">
				<text style="font-family: Helvetica; font-size: 10px;fill: rgb(0%,0%,0%); stroke:none;" transform="translate(0,0) scale(1,-1)" x="0" y="0">Gene_01874</text>
			</g>
			<g transform=" matrix(0.707107,-0.707107,0.707107,0.707107,272.346272,456.833521)">
				<text style="font-family: Helvetica; font-size: 10px;fill: rgb(0%,0%,0%); stroke:none;" transform="translate(0,0) scale(1,-1)" x="0" y="0">Gene_01875</text>
			</g>
			<g transform=" matrix(0.707107,-0.707107,0.707107,0.707107,317.105202,456.833521)">
				<text style="font-family: Helvetica; font-size: 10px;fill: rgb(0%,0%,0%); stroke:none;" transform="translate(0,0) scale(1,-1)" x="0" y="0">Gene_01876</text>
			</g>
			<g transform=" matrix(0.707107,-0.707107,0.707107,0.707107,352.694137,456.833521)">
				<text style="font-family: Helvetica; font-size: 10px;fill: rgb(0%,0%,0%); stroke:none;" transform="translate(0,0) scale(1,-1)" x="0" y="0">Gene_01877</text>
			</g>
			<g transform=" matrix(0.707107,-0.707107,0.707107,0.707107,379.996305,456.833521)">
				<text style="font-family: Helvetica; font-size: 10px;fill: rgb(0%,0%,0%); stroke:none;" transform="translate(0,0) scale(1,-1)" x="0" y="0">Gene_01878</text>
			</g>
			<g transform=" matrix(0.707107,-0.707107,0.707107,0.707107,413.870737,456.833521)">
				<text style="font-family: Helvetica; font-size: 10px;fill: rgb(0%,0%,0%); stroke:none;" transform="translate(0,0) scale(1,-1)" x="0" y="0">Gene_01879</text>
			</g>
			<g transform=" matrix(0.707107,0.707107,-0.707107,0.707107,466.396887,538.835771)">
				<text style="font-family: Helvetica; font-size: 10px;fill: rgb(0%,0%,0%); stroke:none;" transform="translate(0,0) scale(1,-1)" x="0" y="0">Gene_01880</text>
			</g>
			<g transform=" matrix(0.707107,0.707107,-0.707107,0.707107,524.222412,538.835771)">
				<text style="font-family: Helvetica; font-size: 10px;fill: rgb(0%,0%,0%); stroke:none;" transform="translate(0,0) scale(1,-1)" x="0" y="0">Gene_01881</text>
			</g>
			<g transform=" matrix(0.707107,0.707107,-0.707107,0.707107,602.414159,538.835771)">
				<text style="font-family: Helvetica; font-size: 10px;fill: rgb(0%,0%,0%); stroke:none;" transform="translate(0,0) scale(1,-1)" x="0" y="0">Gene_01882</text>
			</g>
			<g transform=" matrix(0.707107,0.707107,-0.707107,0.707107,683.671231,538.835771)">
				<text style="font-family: Helvetica; font-size: 16px;fill: rgb(0%,0%,100%); stroke:none;" transform="translate(0,0) scale(1,-1)" x="0" y="0">Gene_01883 (99.4)</text>
			</g>
			<g transform=" matrix(0.707107,-0.707107,0.707107,0.707107,754.329554,456.833521)">
				<text style="font-family: Helvetica; font-size: 10px;fill: rgb(0%,0%,0%); stroke:none;" transform="translate(0,0) scale(1,-1)" x="0" y="0">Gene_01884</text>
			</g>
			<g transform=" matrix(0.707107,0.707107,-0.707107,0.707107,803.582562,538.835771)">
				<text style="font-family: Helvetica; font-size: 10px;fill: rgb(0%,0%,0%); stroke:none;" transform="translate(0,0) scale(1,-1)" x="0" y="0">Gene_01885</text>
			</g>
			<g transform=" matrix(0.707107,-0.707107,0.707107,0.707107,857.459533,456.833521)">
				<text style="font-family: Helvetica; font-size: 10px;fill: rgb(0%,0%,0%); stroke:none;" transform="translate(0,0) scale(1,-1)" x="0" y="0">Gene_01886</text>
			</g>
			<g transform=" matrix(0.707107,0.707107,-0.707107,0.707107,954.147136,538.835771)">
				<text style="font-family: Helvetica; font-size: 10px;fill: rgb(0%,0%,0%); stroke:none;" transform="translate(0,0) scale(1,-1)" x="0" y="0">Gene_01887</text>
			</g>
			<g transform=" matrix(0.707107,-0.707107,0.707107,0.707107,986.125222,456.833521)">
				<text style="font-family: Helvetica; font-size: 10px;fill: rgb(0%,0%,0%); stroke:none;" transform="translate(0,0) scale(1,-1)" x="0" y="0">Gene_01888</text>
			</g>
			<g transform=" matrix(0.707107,-0.707107,0.707107,0.707107,1009.45286,456.833521)">
				<text style="font-family: Helvetica; font-size: 10px;fill: rgb(0%,0%,0%); stroke:none;" transform="translate(0,0) scale(1,-1)" x="0" y="0">Gene_01889</text>
			</g>
			<g transform=" matrix(0.707107,-0.707107,0.707107,0.707107,1029.897014,456.833521)">
				<text style="font-family: Helvetica; font-size: 10px;fill: rgb(0%,0%,0%); stroke:none;" transform="translate(0,0) scale(1,-1)" x="0" y="0">Gene_01890</text>
			</g>
			<g transform=" matrix(0.707107,0.707107,-0.707107,0.707107,1066.499065,538.835771)">
				<text style="font-family: Helvetica; font-size: 10px;fill: rgb(0%,0%,0%); stroke:none;" transform="translate(0,0) scale(1,-1)" x="0" y="0">Gene_01891</text>
			</g>
			<g transform=" matrix(0.707107,0.707107,-0.707107,0.707107,1106.789895,538.835771)">
				<text style="font-family: Helvetica; font-size: 10px;fill: rgb(0%,0%,0%); stroke:none;" transform="translate(0,0) scale(1,-1)" x="0" y="0">Gene_01892</text>
			</g>
			<g transform=" matrix(0.707107,-0.707107,0.707107,0.707107,1159.134205,456.833521)">
				<text style="font-family: Helvetica; font-size: 10px;fill: rgb(0%,0%,0%); stroke:none;" transform="translate(0,0) scale(1,-1)" x="0" y="0">Gene_01893</text>
			</g>
			<g transform=" matrix(0.707107,-0.707107,0.707107,0.707107,1270.213245,456.833521)">
				<text style="font-family: Helvetica; font-size: 10px;fill: rgb(0%,0%,0%); stroke:none;" transform="translate(0,0) scale(1,-1)" x="0" y="0">Gene_01894</text>
			</g>
			<g transform=" matrix(1,0,-0,1,70,169.825647)">
				<text style="font-family: Helvetica; font-size: 12px;fill: rgb(60%,60%,60%); stroke:none;" transform="translate(0,0) scale(1,-1)" x="0" y="0">megahit_33036 (left 419bp, right 14826bp)</text>
			</g>
			<g transform=" matrix(1,0,-0,1,70,456.833521)">
				<text style="font-family: Helvetica; font-size: 12px;fill: rgb(60%,60%,60%); stroke:none;" transform="translate(0,0) scale(1,-1)" x="0" y="0">megahit_45756 (left 44927bp, right 13029bp)</text>
			</g>
		</g>
	</g>
</svg>
