<?xml version="1.0" encoding="utf-8"?>
<!DOCTYPE svg
  PUBLIC '-//W3C//DTD SVG 1.0//EN'
  'http://www.w3.org/TR/2001/REC-SVG-20010904/DTD/svg10.dtd'>
<svg fill-rule="evenodd" height="708.6614173228346" preserveAspectRatio="xMinYMin meet" version="1.0" viewBox="0 0 1417 708" width="1417.3228346456692" xmlns="http://www.w3.org/2000/svg" xmlns:xlink="http://www.w3.org/1999/xlink">
	<title>...</title>
	<desc>...</desc>
	<clipPath id="clip">
		<rect height="708.6614173228346" width="1417.3228346456692" x="0" y="0"/>
	</clipPath>
	<g id="group" style="clip-path: url(#clip)" transform="scale(1,-1) translate(0,-708)">
		<g transform="">
			<polygon points="70.86614 169.8256, 1346.397 169.8256, 1346.397 251.8279, 70.86614 251.8279" style="stroke: rgb(96%,96%,96%); stroke-linecap: butt; stroke-width: 1; fill: rgb(96%,96%,96%); fill-rule: evenodd;"/>
			<polygon points="70.86614 456.8335, 1332.185 456.8335, 1332.185 538.8358, 70.86614 538.8358" style="stroke: rgb(96%,96%,96%); stroke-linecap: butt; stroke-width: 1; fill: rgb(96%,96%,96%); fill-rule: evenodd;"/>
			<polygon points="624.3466 456.8335, 899.5044 456.8335, 512.1457 251.8279, 792.7971 251.8279" style="stroke: rgb(100%,36%,36%); stroke-linecap: round; stroke-width: 1; fill: rgb(100%,36%,36%); fill-rule: evenodd;"/>
			<polygon points="1066.641 456.8335, 1274.025 456.8335, 162.1674 251.8279, 369.9092 251.8279" style="stroke: rgb(100%,47%,47%); stroke-linecap: round; stroke-width: 1; fill: rgb(100%,47%,47%); fill-rule: evenodd;"/>
			<polygon points="908.4613 456.8335, 1012.541 456.8335, 400.2434 251.8279, 504.4427 251.8279" style="stroke: rgb(100%,33%,33%); stroke-linecap: round; stroke-width: 1; fill: rgb(100%,33%,33%); fill-rule: evenodd;"/>
			<polygon points="586.4288 456.8335, 622.0775 456.8335, 799.6044 251.8279, 835.1337 251.8279" style="stroke: rgb(100%,30%,30%); stroke-linecap: round; stroke-width: 1; fill: rgb(100%,30%,30%); fill-rule: evenodd;"/>
			<polygon points="418.0976 456.8335, 468.4955 456.8335, 943.8712 251.8279, 994.269 251.8279" style="stroke: rgb(100%,51%,51%); stroke-linecap: round; stroke-width: 1; fill: rgb(100%,51%,51%); fill-rule: evenodd;"/>
			<polygon points="1293.909 456.8335, 1330.573 456.8335, 118.6963 251.8279, 155.3601 251.8279" style="stroke: rgb(100%,50%,50%); stroke-linecap: round; stroke-width: 1; fill: rgb(100%,50%,50%); fill-rule: evenodd;"/>
			<polygon points="1029.798 456.8335, 1054.102 456.8335, 369.9689 251.8279, 394.2721 251.8279" style="stroke: rgb(100%,40%,40%); stroke-linecap: round; stroke-width: 1; fill: rgb(100%,40%,40%); fill-rule: evenodd;"/>
			<polygon points="233.1663 456.8335, 272.5172 456.8335, 1138.118 251.8279, 1098.767 251.8279" style="stroke: rgb(100%,67%,67%); stroke-linecap: round; stroke-width: 1; fill: rgb(100%,67%,67%); fill-rule: evenodd;"/>
			<polygon points="489.9325 456.8335, 514.2357 456.8335, 892.6374 251.8279, 916.224 251.8279" style="stroke: rgb(100%,71%,71%); stroke-linecap: round; stroke-width: 1; fill: rgb(100%,71%,71%); fill-rule: evenodd;"/>
			<polygon points="116.6661 200.5765, 87.26659 200.5765, 87.26659 210.8268, 70.86614 190.3262, 87.26659 169.8256, 87.26659 180.0759, 116.6661 180.0759" style="stroke: rgb(56%,93%,56%); stroke-linecap: round; stroke-width: 1; fill: rgb(56%,93%,56%); fill-rule: evenodd;"/>
			<polygon points="155.3601 200.5765, 133.3054 200.5765, 133.3054 210.8268, 116.9049 190.3262, 133.3054 169.8256, 133.3054 180.0759, 155.3601 180.0759" style="stroke: rgb(56%,93%,56%); stroke-linecap: round; stroke-width: 1; fill: rgb(56%,93%,56%); fill-rule: evenodd;"/>
			<polygon points="239.6153 200.5765, 176.7168 200.5765, 176.7168 210.8268, 160.3163 190.3262, 176.7168 169.8256, 176.7168 180.0759, 239.6153 180.0759" style="stroke: rgb(56%,93%,56%); stroke-linecap: round; stroke-width: 1; fill: rgb(56%,93%,56%); fill-rule: evenodd;"/>
			<polygon points="266.0084 200.5765, 256.1351 200.5765, 256.1351 210.8268, 239.7347 190.3262, 256.1351 169.8256, 256.1351 180.0759, 266.0084 180.0759" style="stroke: rgb(56%,93%,56%); stroke-linecap: round; stroke-width: 1; fill: rgb(56%,93%,56%); fill-rule: evenodd;"/>
			<polygon points="278.3691 200.5765, 278.3691 210.8268, 267.5013 190.3262, 278.3691 169.8256, 278.3691 180.0759" style="stroke: rgb(56%,93%,56%); stroke-linecap: round; stroke-width: 1; fill: rgb(56%,93%,56%); fill-rule: evenodd;"/>
			<polygon points="309.599 200.5765, 295.6055 200.5765, 295.6055 210.8268, 279.205 190.3262, 295.6055 169.8256, 295.6055 180.0759, 309.599 180.0759" style="stroke: rgb(56%,93%,56%); stroke-linecap: round; stroke-width: 1; fill: rgb(56%,93%,56%); fill-rule: evenodd;"/>
			<polygon points="332.7079 200.5765, 327.134 200.5765, 327.134 210.8268, 310.7335 190.3262, 327.134 169.8256, 327.134 180.0759, 332.7079 180.0759" style="stroke: rgb(56%,93%,56%); stroke-linecap: round; stroke-width: 1; fill: rgb(56%,93%,56%); fill-rule: evenodd;"/>
			<polygon points="366.1473 200.5765, 350.1832 200.5765, 350.1832 210.8268, 333.7828 190.3262, 350.1832 169.8256, 350.1832 180.0759, 366.1473 180.0759" style="stroke: rgb(56%,93%,56%); stroke-linecap: round; stroke-width: 1; fill: rgb(56%,93%,56%); fill-rule: evenodd;"/>
			<polygon points="394.2721 200.5765, 386.7276 200.5765, 386.7276 210.8268, 370.3272 190.3262, 386.7276 169.8256, 386.7276 180.0759, 394.2721 180.0759" style="stroke: rgb(56%,93%,56%); stroke-linecap: round; stroke-width: 1; fill: rgb(56%,93%,56%); fill-rule: evenodd;"/>
			<polygon points="411.2306 200.5765, 411.2306 210.8268, 400.1837 190.3262, 411.2306 169.8256, 411.2306 180.0759" style="stroke: rgb(56%,93%,56%); stroke-linecap: round; stroke-width: 1; fill: rgb(56%,93%,56%); fill-rule: evenodd;"/>
			<polygon points="444.4311 200.5765, 428.6462 200.5765, 428.6462 210.8268, 412.2457 190.3262, 428.6462 169.8256, 428.6462 180.0759, 444.4311 180.0759" style="stroke: rgb(56%,93%,56%); stroke-linecap: round; stroke-width: 1; fill: rgb(56%,93%,56%); fill-rule: evenodd;"/>
			<polygon points="463.9573 200.5765, 462.1452 200.5765, 462.1452 210.8268, 445.7448 190.3262, 462.1452 169.8256, 462.1452 180.0759, 463.9573 180.0759" style="stroke: rgb(56%,93%,56%); stroke-linecap: round; stroke-width: 1; fill: rgb(56%,93%,56%); fill-rule: evenodd;"/>
			<polygon points="486.7677 200.5765, 481.1937 200.5765, 481.1937 210.8268, 464.7932 190.3262, 481.1937 169.8256, 481.1937 180.0759, 486.7677 180.0759" style="stroke: rgb(56%,93%,56%); stroke-linecap: round; stroke-width: 1; fill: rgb(56%,93%,56%); fill-rule: evenodd;"/>
			<polygon points="503.3679 200.5765, 503.3679 210.8268, 488.2008 190.3262, 503.3679 169.8256, 503.3679 180.0759" style="stroke: rgb(56%,93%,56%); stroke-linecap: round; stroke-width: 1; fill: rgb(56%,93%,56%); fill-rule: evenodd;"/>
			<polygon points="523.4912 200.5765, 523.4912 210.8268, 511.1903 190.3262, 523.4912 169.8256, 523.4912 180.0759" style="stroke: rgb(56%,93%,56%); stroke-linecap: round; stroke-width: 1; fill: rgb(56%,93%,56%); fill-rule: evenodd;"/>
			<polygon points="548.9887 200.5765, 539.2945 200.5765, 539.2945 210.8268, 522.8941 190.3262, 539.2945 169.8256, 539.2945 180.0759, 548.9887 180.0759" style="stroke: rgb(56%,93%,56%); stroke-linecap: round; stroke-width: 1; fill: rgb(56%,93%,56%); fill-rule: evenodd;"/>
			<polygon points="588.1604 200.5765, 565.3891 200.5765, 565.3891 210.8268, 548.9887 190.3262, 565.3891 169.8256, 565.3891 180.0759, 588.1604 180.0759" style="stroke: rgb(56%,93%,56%); stroke-linecap: round; stroke-width: 1; fill: rgb(56%,93%,56%); fill-rule: evenodd;"/>
			<polygon points="611.9262 200.5765, 605.2775 200.5765, 605.2775 210.8268, 588.877 190.3262, 605.2775 169.8256, 605.2775 180.0759, 611.9262 180.0759" style="stroke: rgb(56%,93%,56%); stroke-linecap: round; stroke-width: 1; fill: rgb(56%,93%,56%); fill-rule: evenodd;"/>
			<polygon points="633.3035 200.5765, 632.9246 200.5765, 632.9246 210.8268, 616.5242 190.3262, 632.9246 169.8256, 632.9246 180.0759, 633.3035 180.0759" style="stroke: rgb(56%,93%,56%); stroke-linecap: round; stroke-width: 1; fill: rgb(56%,93%,56%); fill-rule: evenodd;"/>
			<polygon points="685.1345 200.5765, 650.8982 200.5765, 650.8982 210.8268, 634.4978 190.3262, 650.8982 169.8256, 650.8982 180.0759, 685.1345 180.0759" style="stroke: rgb(56%,93%,56%); stroke-linecap: round; stroke-width: 1; fill: rgb(56%,93%,56%); fill-rule: evenodd;"/>
			<polygon points="712.2442 200.5765, 710.7904 200.5765, 710.7904 210.8268, 694.39 190.3262, 710.7904 169.8256, 710.7904 180.0759, 712.2442 180.0759" style="stroke: rgb(56%,93%,56%); stroke-linecap: round; stroke-width: 1; fill: rgb(56%,93%,56%); fill-rule: evenodd;"/>
			<polygon points="749.2663 200.5765, 728.6447 200.5765, 728.6447 210.8268, 712.2442 190.3262, 728.6447 169.8256, 728.6447 180.0759, 749.2663 180.0759" style="stroke: rgb(56%,93%,56%); stroke-linecap: round; stroke-width: 1; fill: rgb(56%,93%,56%); fill-rule: evenodd;"/>
			<polygon points="788.9755 200.5765, 767.4581 200.5765, 767.4581 210.8268, 751.0577 190.3262, 767.4581 169.8256, 767.4581 180.0759, 788.9755 180.0759" style="stroke: rgb(56%,93%,56%); stroke-linecap: round; stroke-width: 1; fill: rgb(56%,93%,56%); fill-rule: evenodd;"/>
			<polygon points="818.5335 200.5765, 816.0049 200.5765, 816.0049 210.8268, 799.6044 190.3262, 816.0049 169.8256, 816.0049 180.0759, 818.5335 180.0759" style="stroke: rgb(56%,93%,56%); stroke-linecap: round; stroke-width: 1; fill: rgb(56%,93%,56%); fill-rule: evenodd;"/>
			<polygon points="829.5804 200.5765, 829.5804 210.8268, 817.6378 190.3262, 829.5804 169.8256, 829.5804 180.0759" style="stroke: rgb(56%,93%,56%); stroke-linecap: round; stroke-width: 1; fill: rgb(56%,93%,56%); fill-rule: evenodd;"/>
			<polygon points="920.7025 200.5765, 856.1918 200.5765, 856.1918 210.8268, 839.7913 190.3262, 856.1918 169.8256, 856.1918 180.0759, 920.7025 180.0759" style="stroke: rgb(56%,93%,56%); stroke-linecap: round; stroke-width: 1; fill: rgb(56%,93%,56%); fill-rule: evenodd;"/>
			<polygon points="943.8712 241.5776, 979.3614 241.5776, 979.3614 251.8279, 995.7618 231.3273, 979.3614 210.8268, 979.3614 221.0771, 943.8712 221.0771" style="stroke: rgb(67%,84%,90%); stroke-linecap: round; stroke-width: 1; fill: rgb(67%,84%,90%); fill-rule: evenodd;"/>
			<polygon points="1057.744 200.5765, 1012.222 200.5765, 1012.222 210.8268, 995.8216 190.3262, 1012.222 169.8256, 1012.222 180.0759, 1057.744 180.0759" style="stroke: rgb(56%,93%,56%); stroke-linecap: round; stroke-width: 1; fill: rgb(56%,93%,56%); fill-rule: evenodd;"/>
			<polygon points="1070.821 241.5776, 1130.137 241.5776, 1130.137 251.8279, 1146.537 231.3273, 1130.137 210.8268, 1130.137 221.0771, 1070.821 221.0771" style="stroke: rgb(67%,84%,90%); stroke-linecap: round; stroke-width: 1; fill: rgb(67%,84%,90%); fill-rule: evenodd;"/>
			<polygon points="1252.349 200.5765, 1169.387 200.5765, 1169.387 210.8268, 1152.986 190.3262, 1169.387 169.8256, 1169.387 180.0759, 1252.349 180.0759" style="stroke: rgb(56%,93%,56%); stroke-linecap: round; stroke-width: 1; fill: rgb(56%,93%,56%); fill-rule: evenodd;"/>
			<polygon points="1339.649 200.5765, 1275.676 200.5765, 1275.676 210.8268, 1259.276 190.3262, 1275.676 169.8256, 1275.676 180.0759, 1339.649 180.0759" style="stroke: rgb(56%,93%,56%); stroke-linecap: round; stroke-width: 1; fill: rgb(56%,93%,56%); fill-rule: evenodd;"/>
			<polygon points="73.49352 528.5855, 182.6099 528.5855, 182.6099 538.8358, 199.0104 518.3352, 182.6099 497.8346, 182.6099 508.0849, 73.49352 508.0849" style="stroke: rgb(67%,84%,90%); stroke-linecap: round; stroke-width: 1; fill: rgb(67%,84%,90%); fill-rule: evenodd;"/>
			<polygon points="200.3838 528.5855, 264.8945 528.5855, 264.8945 538.8358, 281.295 518.3352, 264.8945 497.8346, 264.8945 508.0849, 200.3838 508.0849" style="stroke: rgb(67%,84%,90%); stroke-linecap: round; stroke-width: 1; fill: rgb(67%,84%,90%); fill-rule: evenodd;"/>
			<polygon points="284.9972 528.5855, 323.1745 528.5855, 323.1745 538.8358, 339.5749 518.3352, 323.1745 497.8346, 323.1745 508.0849, 284.9972 508.0849" style="stroke: rgb(67%,84%,90%); stroke-linecap: round; stroke-width: 1; fill: rgb(67%,84%,90%); fill-rule: evenodd;"/>
			<polygon points="349.129 528.5855, 349.129 538.8358, 354.4435 518.3352, 349.129 497.8346, 349.129 508.0849" style="stroke: rgb(67%,84%,90%); stroke-linecap: round; stroke-width: 1; fill: rgb(67%,84%,90%); fill-rule: evenodd;"/>
			<polygon points="352.9507 528.5855, 399.3684 528.5855, 399.3684 538.8358, 415.7688 518.3352, 399.3684 497.8346, 399.3684 508.0849, 352.9507 508.0849" style="stroke: rgb(67%,84%,90%); stroke-linecap: round; stroke-width: 1; fill: rgb(67%,84%,90%); fill-rule: evenodd;"/>
			<polygon points="468.4955 487.5844, 433.1844 487.5844, 433.1844 497.8346, 416.7839 477.3341, 433.1844 456.8335, 433.1844 467.0838, 468.4955 467.0838" style="stroke: rgb(56%,93%,56%); stroke-linecap: round; stroke-width: 1; fill: rgb(56%,93%,56%); fill-rule: evenodd;"/>
			<polygon points="485.6331 528.5855, 550.6813 528.5855, 550.6813 538.8358, 567.0817 518.3352, 550.6813 497.8346, 550.6813 508.0849, 485.6331 508.0849" style="stroke: rgb(67%,84%,90%); stroke-linecap: round; stroke-width: 1; fill: rgb(67%,84%,90%); fill-rule: evenodd;"/>
			<polygon points="603.1484 528.5855, 605.677 528.5855, 605.677 538.8358, 622.0775 518.3352, 605.677 497.8346, 605.677 508.0849, 603.1484 508.0849" style="stroke: rgb(67%,84%,90%); stroke-linecap: round; stroke-width: 1; fill: rgb(67%,84%,90%); fill-rule: evenodd;"/>
			<polygon points="628.4071 528.5855, 649.9244 528.5855, 649.9244 538.8358, 666.3249 518.3352, 649.9244 497.8346, 649.9244 508.0849, 628.4071 508.0849" style="stroke: rgb(67%,84%,90%); stroke-linecap: round; stroke-width: 1; fill: rgb(67%,84%,90%); fill-rule: evenodd;"/>
			<polygon points="667.9968 528.5855, 688.2602 528.5855, 688.2602 538.8358, 704.6606 518.3352, 688.2602 497.8346, 688.2602 508.0849, 667.9968 508.0849" style="stroke: rgb(67%,84%,90%); stroke-linecap: round; stroke-width: 1; fill: rgb(67%,84%,90%); fill-rule: evenodd;"/>
			<polygon points="704.6606 528.5855, 706.1144 528.5855, 706.1144 538.8358, 722.5148 518.3352, 706.1144 497.8346, 706.1144 508.0849, 704.6606 508.0849" style="stroke: rgb(67%,84%,90%); stroke-linecap: round; stroke-width: 1; fill: rgb(67%,84%,90%); fill-rule: evenodd;"/>
			<polygon points="729.7401 528.5855, 763.4389 528.5855, 763.4389 538.8358, 779.8394 518.3352, 763.4389 497.8346, 763.4389 508.0849, 729.7401 508.0849" style="stroke: rgb(67%,84%,90%); stroke-linecap: round; stroke-width: 1; fill: rgb(67%,84%,90%); fill-rule: evenodd;"/>
			<polygon points="781.2128 528.5855, 781.4126 528.5855, 781.4126 538.8358, 797.813 518.3352, 781.4126 497.8346, 781.4126 508.0849, 781.2128 508.0849" style="stroke: rgb(67%,84%,90%); stroke-linecap: round; stroke-width: 1; fill: rgb(67%,84%,90%); fill-rule: evenodd;"/>
			<polygon points="799.5447 528.5855, 806.1935 528.5855, 806.1935 538.8358, 822.594 518.3352, 806.1935 497.8346, 806.1935 508.0849, 799.5447 508.0849" style="stroke: rgb(67%,84%,90%); stroke-linecap: round; stroke-width: 1; fill: rgb(67%,84%,90%); fill-rule: evenodd;"/>
			<polygon points="823.4896 528.5855, 846.261 528.5855, 846.261 538.8358, 862.6614 518.3352, 846.261 497.8346, 846.261 508.0849, 823.4896 508.0849" style="stroke: rgb(67%,84%,90%); stroke-linecap: round; stroke-width: 1; fill: rgb(67%,84%,90%); fill-rule: evenodd;"/>
			<polygon points="862.6614 528.5855, 872.3556 528.5855, 872.3556 538.8358, 888.756 518.3352, 872.3556 497.8346, 872.3556 508.0849, 862.6614 508.0849" style="stroke: rgb(67%,84%,90%); stroke-linecap: round; stroke-width: 1; fill: rgb(67%,84%,90%); fill-rule: evenodd;"/>
			<polygon points="888.1589 528.5855, 888.1589 538.8358, 900.4598 518.3352, 888.1589 497.8346, 888.1589 508.0849" style="stroke: rgb(67%,84%,90%); stroke-linecap: round; stroke-width: 1; fill: rgb(67%,84%,90%); fill-rule: evenodd;"/>
			<polygon points="909.5362 528.5855, 909.5362 538.8358, 924.7033 518.3352, 909.5362 497.8346, 909.5362 508.0849" style="stroke: rgb(67%,84%,90%); stroke-linecap: round; stroke-width: 1; fill: rgb(67%,84%,90%); fill-rule: evenodd;"/>
			<polygon points="926.1364 528.5855, 931.7104 528.5855, 931.7104 538.8358, 948.1108 518.3352, 931.7104 497.8346, 931.7104 508.0849, 926.1364 508.0849" style="stroke: rgb(67%,84%,90%); stroke-linecap: round; stroke-width: 1; fill: rgb(67%,84%,90%); fill-rule: evenodd;"/>
			<polygon points="948.9468 528.5855, 950.7588 528.5855, 950.7588 538.8358, 967.1593 518.3352, 950.7588 497.8346, 950.7588 508.0849, 948.9468 508.0849" style="stroke: rgb(67%,84%,90%); stroke-linecap: round; stroke-width: 1; fill: rgb(67%,84%,90%); fill-rule: evenodd;"/>
			<polygon points="968.473 528.5855, 984.2579 528.5855, 984.2579 538.8358, 1000.658 518.3352, 984.2579 497.8346, 984.2579 508.0849, 968.473 508.0849" style="stroke: rgb(67%,84%,90%); stroke-linecap: round; stroke-width: 1; fill: rgb(67%,84%,90%); fill-rule: evenodd;"/>
			<polygon points="1001.554 528.5855, 1001.554 538.8358, 1012.601 518.3352, 1001.554 497.8346, 1001.554 508.0849" style="stroke: rgb(67%,84%,90%); stroke-linecap: round; stroke-width: 1; fill: rgb(67%,84%,90%); fill-rule: evenodd;"/>
			<polygon points="1029.798 528.5855, 1037.343 528.5855, 1037.343 538.8358, 1053.743 518.3352, 1037.343 497.8346, 1037.343 508.0849, 1029.798 508.0849" style="stroke: rgb(67%,84%,90%); stroke-linecap: round; stroke-width: 1; fill: rgb(67%,84%,90%); fill-rule: evenodd;"/>
			<polygon points="1070.582 528.5855, 1086.546 528.5855, 1086.546 538.8358, 1102.947 518.3352, 1086.546 497.8346, 1086.546 508.0849, 1070.582 508.0849" style="stroke: rgb(67%,84%,90%); stroke-linecap: round; stroke-width: 1; fill: rgb(67%,84%,90%); fill-rule: evenodd;"/>
			<polygon points="1104.022 528.5855, 1109.596 528.5855, 1109.596 538.8358, 1125.996 518.3352, 1109.596 497.8346, 1109.596 508.0849, 1104.022 508.0849" style="stroke: rgb(67%,84%,90%); stroke-linecap: round; stroke-width: 1; fill: rgb(67%,84%,90%); fill-rule: evenodd;"/>
			<polygon points="1127.25 528.5855, 1141.244 528.5855, 1141.244 538.8358, 1157.644 518.3352, 1141.244 497.8346, 1141.244 508.0849, 1127.25 508.0849" style="stroke: rgb(67%,84%,90%); stroke-linecap: round; stroke-width: 1; fill: rgb(67%,84%,90%); fill-rule: evenodd;"/>
			<polygon points="1158.659 528.5855, 1158.659 538.8358, 1169.527 518.3352, 1158.659 497.8346, 1158.659 508.0849" style="stroke: rgb(67%,84%,90%); stroke-linecap: round; stroke-width: 1; fill: rgb(67%,84%,90%); fill-rule: evenodd;"/>
			<polygon points="1170.9 528.5855, 1180.774 528.5855, 1180.774 538.8358, 1197.174 518.3352, 1180.774 497.8346, 1180.774 508.0849, 1170.9 508.0849" style="stroke: rgb(67%,84%,90%); stroke-linecap: round; stroke-width: 1; fill: rgb(67%,84%,90%); fill-rule: evenodd;"/>
			<polygon points="1197.293 528.5855, 1259.475 528.5855, 1259.475 538.8358, 1275.876 518.3352, 1259.475 497.8346, 1259.475 508.0849, 1197.293 508.0849" style="stroke: rgb(67%,84%,90%); stroke-linecap: round; stroke-width: 1; fill: rgb(67%,84%,90%); fill-rule: evenodd;"/>
			<polygon points="1293.909 528.5855, 1315.785 528.5855, 1315.785 538.8358, 1332.185 518.3352, 1315.785 497.8346, 1315.785 508.0849, 1293.909 508.0849" style="stroke: rgb(67%,84%,90%); stroke-linecap: round; stroke-width: 1; fill: rgb(67%,84%,90%); fill-rule: evenodd;"/>
			<path d="M 1346.39698,169.825647 L 1346.39698,251.827897 Z" style="stroke: rgb(0%,0%,0%); stroke-linecap: butt; stroke-width: 1;"/>
			<path d="M 70.866142,210.826772 L 1346.39698,210.826772 Z" style="stroke: rgb(0%,0%,0%); stroke-linecap: butt; stroke-width: 1;"/>
			<path d="M 70.866142,169.825647 L 70.866142,251.827897 Z" style="stroke: rgb(0%,0%,0%); stroke-linecap: butt; stroke-width: 1;"/>
			<path d="M 667.996818,210.826772 L 667.996818,231.327334 Z" style="stroke: rgb(0%,0%,0%); stroke-linecap: butt; stroke-width: 1;"/>
			<path d="M 1265.127495,210.826772 L 1265.127495,231.327334 Z" style="stroke: rgb(0%,0%,0%); stroke-linecap: butt; stroke-width: 1;"/>
			<path d="M 667.996818,210.826772 L 667.996818,223.127109 Z" style="stroke: rgb(0%,0%,0%); stroke-linecap: butt; stroke-width: 1;"/>
			<path d="M 1265.127495,210.826772 L 1265.127495,223.127109 Z" style="stroke: rgb(0%,0%,0%); stroke-linecap: butt; stroke-width: 1;"/>
			<path d="M 1332.18527,456.833521 L 1332.18527,538.835771 Z" style="stroke: rgb(0%,0%,0%); stroke-linecap: butt; stroke-width: 1;"/>
			<path d="M 70.866142,497.834646 L 1332.18527,497.834646 Z" style="stroke: rgb(0%,0%,0%); stroke-linecap: butt; stroke-width: 1;"/>
			<path d="M 70.866142,456.833521 L 70.866142,538.835771 Z" style="stroke: rgb(0%,0%,0%); stroke-linecap: butt; stroke-width: 1;"/>
			<path d="M 667.996818,497.834646 L 667.996818,518.335208 Z" style="stroke: rgb(0%,0%,0%); stroke-linecap: butt; stroke-width: 1;"/>
			<path d="M 1265.127495,497.834646 L 1265.127495,518.335208 Z" style="stroke: rgb(0%,0%,0%); stroke-linecap: butt; stroke-width: 1;"/>
			<path d="M 667.996818,497.834646 L 667.996818,510.134983 Z" style="stroke: rgb(0%,0%,0%); stroke-linecap: butt; stroke-width: 1;"/>
			<path d="M 1265.127495,497.834646 L 1265.127495,510.134983 Z" style="stroke: rgb(0%,0%,0%); stroke-linecap: butt; stroke-width: 1;"/>
			<g transform=" matrix(0.707107,0.707107,-0.707107,0.707107,667.996818,231.327334)">
				<text style="font-family: Helvetica; font-size: 6px;fill: rgb(0%,0%,0%); stroke:none;" transform="translate(0,0) scale(1,-1)" x="0" y="0">10000</text>
			</g>
			<g transform=" matrix(0.707107,0.707107,-0.707107,0.707107,1265.127495,231.327334)">
				<text style="font-family: Helvetica; font-size: 6px;fill: rgb(0%,0%,0%); stroke:none;" transform="translate(0,0) scale(1,-1)" x="0" y="0">20000</text>
			</g>
			<g transform=" matrix(0.707107,0.707107,-0.707107,0.707107,667.996818,518.335208)">
				<text style="font-family: Helvetica; font-size: 6px;fill: rgb(0%,0%,0%); stroke:none;" transform="translate(0,0) scale(1,-1)" x="0" y="0">10000</text>
			</g>
			<g transform=" matrix(0.707107,0.707107,-0.707107,0.707107,1265.127495,518.335208)">
				<text style="font-family: Helvetica; font-size: 6px;fill: rgb(0%,0%,0%); stroke:none;" transform="translate(0,0) scale(1,-1)" x="0" y="0">20000</text>
			</g>
			<g transform=" matrix(0.707107,-0.707107,0.707107,0.707107,93.766103,169.825647)">
				<text style="font-family: Helvetica; font-size: 10px;fill: rgb(0%,0%,0%); stroke:none;" transform="translate(0,0) scale(1,-1)" x="0" y="0">Gene_00754</text>
			</g>
			<g transform=" matrix(0.707107,-0.707107,0.707107,0.707107,136.132525,169.825647)">
				<text style="font-family: Helvetica; font-size: 10px;fill: rgb(0%,0%,0%); stroke:none;" transform="translate(0,0) scale(1,-1)" x="0" y="0">Gene_00755</text>
			</g>
			<g transform=" matrix(0.707107,-0.707107,0.707107,0.707107,199.965794,169.825647)">
				<text style="font-family: Helvetica; font-size: 10px;fill: rgb(0%,0%,0%); stroke:none;" transform="translate(0,0) scale(1,-1)" x="0" y="0">Gene_00756</text>
			</g>
			<g transform=" matrix(0.707107,-0.707107,0.707107,0.707107,252.871572,169.825647)">
				<text style="font-family: Helvetica; font-size: 10px;fill: rgb(0%,0%,0%); stroke:none;" transform="translate(0,0) scale(1,-1)" x="0" y="0">Gene_00757</text>
			</g>
			<g transform=" matrix(0.707107,-0.707107,0.707107,0.707107,272.935163,169.825647)">
				<text style="font-family: Helvetica; font-size: 10px;fill: rgb(0%,0%,0%); stroke:none;" transform="translate(0,0) scale(1,-1)" x="0" y="0">Gene_00758</text>
			</g>
			<g transform=" matrix(0.707107,-0.707107,0.707107,0.707107,294.40201,169.825647)">
				<text style="font-family: Helvetica; font-size: 10px;fill: rgb(0%,0%,0%); stroke:none;" transform="translate(0,0) scale(1,-1)" x="0" y="0">Gene_00759</text>
			</g>
			<g transform=" matrix(0.707107,-0.707107,0.707107,0.707107,321.720739,169.825647)">
				<text style="font-family: Helvetica; font-size: 10px;fill: rgb(0%,0%,0%); stroke:none;" transform="translate(0,0) scale(1,-1)" x="0" y="0">Gene_00760</text>
			</g>
			<g transform=" matrix(0.707107,-0.707107,0.707107,0.707107,349.96502,169.825647)">
				<text style="font-family: Helvetica; font-size: 10px;fill: rgb(0%,0%,0%); stroke:none;" transform="translate(0,0) scale(1,-1)" x="0" y="0">Gene_00761</text>
			</g>
			<g transform=" matrix(0.707107,-0.707107,0.707107,0.707107,382.299646,169.825647)">
				<text style="font-family: Helvetica; font-size: 10px;fill: rgb(0%,0%,0%); stroke:none;" transform="translate(0,0) scale(1,-1)" x="0" y="0">Gene_00762</text>
			</g>
			<g transform=" matrix(0.707107,-0.707107,0.707107,0.707107,405.707169,169.825647)">
				<text style="font-family: Helvetica; font-size: 10px;fill: rgb(0%,0%,0%); stroke:none;" transform="translate(0,0) scale(1,-1)" x="0" y="0">Gene_00763</text>
			</g>
			<g transform=" matrix(0.707107,-0.707107,0.707107,0.707107,428.338421,169.825647)">
				<text style="font-family: Helvetica; font-size: 10px;fill: rgb(0%,0%,0%); stroke:none;" transform="translate(0,0) scale(1,-1)" x="0" y="0">Gene_00764</text>
			</g>
			<g transform=" matrix(0.707107,-0.707107,0.707107,0.707107,454.851023,169.825647)">
				<text style="font-family: Helvetica; font-size: 10px;fill: rgb(0%,0%,0%); stroke:none;" transform="translate(0,0) scale(1,-1)" x="0" y="0">Gene_00765</text>
			</g>
			<g transform=" matrix(0.707107,-0.707107,0.707107,0.707107,475.780453,169.825647)">
				<text style="font-family: Helvetica; font-size: 10px;fill: rgb(0%,0%,0%); stroke:none;" transform="translate(0,0) scale(1,-1)" x="0" y="0">Gene_00766</text>
			</g>
			<g transform=" matrix(0.707107,-0.707107,0.707107,0.707107,495.784331,169.825647)">
				<text style="font-family: Helvetica; font-size: 10px;fill: rgb(0%,0%,0%); stroke:none;" transform="translate(0,0) scale(1,-1)" x="0" y="0">Gene_00767</text>
			</g>
			<g transform=" matrix(0.707107,-0.707107,0.707107,0.707107,517.340749,169.825647)">
				<text style="font-family: Helvetica; font-size: 10px;fill: rgb(0%,0%,0%); stroke:none;" transform="translate(0,0) scale(1,-1)" x="0" y="0">Gene_00768</text>
			</g>
			<g transform=" matrix(0.707107,-0.707107,0.707107,0.707107,535.941369,169.825647)">
				<text style="font-family: Helvetica; font-size: 10px;fill: rgb(0%,0%,0%); stroke:none;" transform="translate(0,0) scale(1,-1)" x="0" y="0">Gene_00769</text>
			</g>
			<g transform=" matrix(0.707107,-0.707107,0.707107,0.707107,568.574561,169.825647)">
				<text style="font-family: Helvetica; font-size: 10px;fill: rgb(0%,0%,0%); stroke:none;" transform="translate(0,0) scale(1,-1)" x="0" y="0">Gene_00770</text>
			</g>
			<g transform=" matrix(0.707107,-0.707107,0.707107,0.707107,600.401626,169.825647)">
				<text style="font-family: Helvetica; font-size: 10px;fill: rgb(0%,0%,0%); stroke:none;" transform="translate(0,0) scale(1,-1)" x="0" y="0">Gene_00771</text>
			</g>
			<g transform=" matrix(0.707107,-0.707107,0.707107,0.707107,624.91384,169.825647)">
				<text style="font-family: Helvetica; font-size: 10px;fill: rgb(0%,0%,0%); stroke:none;" transform="translate(0,0) scale(1,-1)" x="0" y="0">Gene_00772</text>
			</g>
			<g transform=" matrix(0.707107,-0.707107,0.707107,0.707107,659.816128,169.825647)">
				<text style="font-family: Helvetica; font-size: 10px;fill: rgb(0%,0%,0%); stroke:none;" transform="translate(0,0) scale(1,-1)" x="0" y="0">Gene_00773</text>
			</g>
			<g transform=" matrix(0.707107,-0.707107,0.707107,0.707107,703.317098,169.825647)">
				<text style="font-family: Helvetica; font-size: 10px;fill: rgb(0%,0%,0%); stroke:none;" transform="translate(0,0) scale(1,-1)" x="0" y="0">Gene_00774</text>
			</g>
			<g transform=" matrix(0.707107,-0.707107,0.707107,0.707107,730.755252,169.825647)">
				<text style="font-family: Helvetica; font-size: 16px;fill: rgb(0%,0%,100%); stroke:none;" transform="translate(0,0) scale(1,-1)" x="0" y="0">Gene_00775 (81.4)</text>
			</g>
			<g transform=" matrix(0.707107,-0.707107,0.707107,0.707107,770.016594,169.825647)">
				<text style="font-family: Helvetica; font-size: 10px;fill: rgb(0%,0%,0%); stroke:none;" transform="translate(0,0) scale(1,-1)" x="0" y="0">Gene_00776</text>
			</g>
			<g transform=" matrix(0.707107,-0.707107,0.707107,0.707107,809.068941,169.825647)">
				<text style="font-family: Helvetica; font-size: 10px;fill: rgb(0%,0%,0%); stroke:none;" transform="translate(0,0) scale(1,-1)" x="0" y="0">Gene_00777</text>
			</g>
			<g transform=" matrix(0.707107,-0.707107,0.707107,0.707107,823.609073,169.825647)">
				<text style="font-family: Helvetica; font-size: 10px;fill: rgb(0%,0%,0%); stroke:none;" transform="translate(0,0) scale(1,-1)" x="0" y="0">Gene_00778</text>
			</g>
			<g transform=" matrix(0.707107,-0.707107,0.707107,0.707107,880.246917,169.825647)">
				<text style="font-family: Helvetica; font-size: 10px;fill: rgb(0%,0%,0%); stroke:none;" transform="translate(0,0) scale(1,-1)" x="0" y="0">Gene_00779</text>
			</g>
			<g transform=" matrix(0.707107,0.707107,-0.707107,0.707107,969.816519,251.827897)">
				<text style="font-family: Helvetica; font-size: 10px;fill: rgb(0%,0%,0%); stroke:none;" transform="translate(0,0) scale(1,-1)" x="0" y="0">Gene_00780</text>
			</g>
			<g transform=" matrix(0.707107,-0.707107,0.707107,0.707107,1026.782785,169.825647)">
				<text style="font-family: Helvetica; font-size: 10px;fill: rgb(0%,0%,0%); stroke:none;" transform="translate(0,0) scale(1,-1)" x="0" y="0">Gene_00781</text>
			</g>
			<g transform=" matrix(0.707107,0.707107,-0.707107,0.707107,1108.679258,251.827897)">
				<text style="font-family: Helvetica; font-size: 10px;fill: rgb(0%,0%,0%); stroke:none;" transform="translate(0,0) scale(1,-1)" x="0" y="0">Gene_00782</text>
			</g>
			<g transform=" matrix(0.707107,-0.707107,0.707107,0.707107,1202.667626,169.825647)">
				<text style="font-family: Helvetica; font-size: 10px;fill: rgb(0%,0%,0%); stroke:none;" transform="translate(0,0) scale(1,-1)" x="0" y="0">Gene_00783</text>
			</g>
			<g transform=" matrix(0.707107,-0.707107,0.707107,0.707107,1299.462509,169.825647)">
				<text style="font-family: Helvetica; font-size: 10px;fill: rgb(0%,0%,0%); stroke:none;" transform="translate(0,0) scale(1,-1)" x="0" y="0">Gene_00784</text>
			</g>
			<g transform=" matrix(0.707107,0.707107,-0.707107,0.707107,136.251951,538.835771)">
				<text style="font-family: Helvetica; font-size: 10px;fill: rgb(0%,0%,0%); stroke:none;" transform="translate(0,0) scale(1,-1)" x="0" y="0">Gene_01850</text>
			</g>
			<g transform=" matrix(0.707107,0.707107,-0.707107,0.707107,240.839389,538.835771)">
				<text style="font-family: Helvetica; font-size: 10px;fill: rgb(0%,0%,0%); stroke:none;" transform="translate(0,0) scale(1,-1)" x="0" y="0">Gene_01851</text>
			</g>
			<g transform=" matrix(0.707107,0.707107,-0.707107,0.707107,312.286074,538.835771)">
				<text style="font-family: Helvetica; font-size: 10px;fill: rgb(0%,0%,0%); stroke:none;" transform="translate(0,0) scale(1,-1)" x="0" y="0">Gene_01852</text>
			</g>
			<g transform=" matrix(0.707107,0.707107,-0.707107,0.707107,351.786269,538.835771)">
				<text style="font-family: Helvetica; font-size: 10px;fill: rgb(0%,0%,0%); stroke:none;" transform="translate(0,0) scale(1,-1)" x="0" y="0">Gene_01853</text>
			</g>
			<g transform=" matrix(0.707107,0.707107,-0.707107,0.707107,384.359747,538.835771)">
				<text style="font-family: Helvetica; font-size: 10px;fill: rgb(0%,0%,0%); stroke:none;" transform="translate(0,0) scale(1,-1)" x="0" y="0">Gene_01854</text>
			</g>
			<g transform=" matrix(0.707107,-0.707107,0.707107,0.707107,442.639701,456.833521)">
				<text style="font-family: Helvetica; font-size: 10px;fill: rgb(0%,0%,0%); stroke:none;" transform="translate(0,0) scale(1,-1)" x="0" y="0">Gene_01855</text>
			</g>
			<g transform=" matrix(0.707107,0.707107,-0.707107,0.707107,526.357422,538.835771)">
				<text style="font-family: Helvetica; font-size: 10px;fill: rgb(0%,0%,0%); stroke:none;" transform="translate(0,0) scale(1,-1)" x="0" y="0">Gene_01856</text>
			</g>
			<g transform=" matrix(0.707107,0.707107,-0.707107,0.707107,612.612948,538.835771)">
				<text style="font-family: Helvetica; font-size: 10px;fill: rgb(0%,0%,0%); stroke:none;" transform="translate(0,0) scale(1,-1)" x="0" y="0">Gene_01857</text>
			</g>
			<g transform=" matrix(0.707107,0.707107,-0.707107,0.707107,647.365953,538.835771)">
				<text style="font-family: Helvetica; font-size: 10px;fill: rgb(0%,0%,0%); stroke:none;" transform="translate(0,0) scale(1,-1)" x="0" y="0">Gene_01858</text>
			</g>
			<g transform=" matrix(0.707107,0.707107,-0.707107,0.707107,686.32873,538.835771)">
				<text style="font-family: Helvetica; font-size: 16px;fill: rgb(0%,0%,100%); stroke:none;" transform="translate(0,0) scale(1,-1)" x="0" y="0">Gene_01859 (81.4)</text>
			</g>
			<g transform=" matrix(0.707107,0.707107,-0.707107,0.707107,713.587745,538.835771)">
				<text style="font-family: Helvetica; font-size: 10px;fill: rgb(0%,0%,0%); stroke:none;" transform="translate(0,0) scale(1,-1)" x="0" y="0">Gene_01860</text>
			</g>
			<g transform=" matrix(0.707107,0.707107,-0.707107,0.707107,754.789762,538.835771)">
				<text style="font-family: Helvetica; font-size: 10px;fill: rgb(0%,0%,0%); stroke:none;" transform="translate(0,0) scale(1,-1)" x="0" y="0">Gene_01861</text>
			</g>
			<g transform=" matrix(0.707107,0.707107,-0.707107,0.707107,789.512911,538.835771)">
				<text style="font-family: Helvetica; font-size: 10px;fill: rgb(0%,0%,0%); stroke:none;" transform="translate(0,0) scale(1,-1)" x="0" y="0">Gene_01862</text>
			</g>
			<g transform=" matrix(0.707107,0.707107,-0.707107,0.707107,811.069328,538.835771)">
				<text style="font-family: Helvetica; font-size: 10px;fill: rgb(0%,0%,0%); stroke:none;" transform="translate(0,0) scale(1,-1)" x="0" y="0">Gene_01863</text>
			</g>
			<g transform=" matrix(0.707107,0.707107,-0.707107,0.707107,843.075533,538.835771)">
				<text style="font-family: Helvetica; font-size: 10px;fill: rgb(0%,0%,0%); stroke:none;" transform="translate(0,0) scale(1,-1)" x="0" y="0">Gene_01864</text>
			</g>
			<g transform=" matrix(0.707107,0.707107,-0.707107,0.707107,875.708724,538.835771)">
				<text style="font-family: Helvetica; font-size: 10px;fill: rgb(0%,0%,0%); stroke:none;" transform="translate(0,0) scale(1,-1)" x="0" y="0">Gene_01865</text>
			</g>
			<g transform=" matrix(0.707107,0.707107,-0.707107,0.707107,894.309345,538.835771)">
				<text style="font-family: Helvetica; font-size: 10px;fill: rgb(0%,0%,0%); stroke:none;" transform="translate(0,0) scale(1,-1)" x="0" y="0">Gene_01866</text>
			</g>
			<g transform=" matrix(0.707107,0.707107,-0.707107,0.707107,917.119736,538.835771)">
				<text style="font-family: Helvetica; font-size: 10px;fill: rgb(0%,0%,0%); stroke:none;" transform="translate(0,0) scale(1,-1)" x="0" y="0">Gene_01867</text>
			</g>
			<g transform=" matrix(0.707107,0.707107,-0.707107,0.707107,937.123614,538.835771)">
				<text style="font-family: Helvetica; font-size: 10px;fill: rgb(0%,0%,0%); stroke:none;" transform="translate(0,0) scale(1,-1)" x="0" y="0">Gene_01868</text>
			</g>
			<g transform=" matrix(0.707107,0.707107,-0.707107,0.707107,958.053044,538.835771)">
				<text style="font-family: Helvetica; font-size: 10px;fill: rgb(0%,0%,0%); stroke:none;" transform="translate(0,0) scale(1,-1)" x="0" y="0">Gene_01869</text>
			</g>
			<g transform=" matrix(0.707107,0.707107,-0.707107,0.707107,984.565646,538.835771)">
				<text style="font-family: Helvetica; font-size: 10px;fill: rgb(0%,0%,0%); stroke:none;" transform="translate(0,0) scale(1,-1)" x="0" y="0">Gene_01870</text>
			</g>
			<g transform=" matrix(0.707107,0.707107,-0.707107,0.707107,1007.077473,538.835771)">
				<text style="font-family: Helvetica; font-size: 10px;fill: rgb(0%,0%,0%); stroke:none;" transform="translate(0,0) scale(1,-1)" x="0" y="0">Gene_01871</text>
			</g>
			<g transform=" matrix(0.707107,0.707107,-0.707107,0.707107,1041.770765,538.835771)">
				<text style="font-family: Helvetica; font-size: 10px;fill: rgb(0%,0%,0%); stroke:none;" transform="translate(0,0) scale(1,-1)" x="0" y="0">Gene_01872</text>
			</g>
			<g transform=" matrix(0.707107,0.707107,-0.707107,0.707107,1086.764562,538.835771)">
				<text style="font-family: Helvetica; font-size: 10px;fill: rgb(0%,0%,0%); stroke:none;" transform="translate(0,0) scale(1,-1)" x="0" y="0">Gene_01873</text>
			</g>
			<g transform=" matrix(0.707107,0.707107,-0.707107,0.707107,1115.008843,538.835771)">
				<text style="font-family: Helvetica; font-size: 10px;fill: rgb(0%,0%,0%); stroke:none;" transform="translate(0,0) scale(1,-1)" x="0" y="0">Gene_01874</text>
			</g>
			<g transform=" matrix(0.707107,0.707107,-0.707107,0.707107,1142.446997,538.835771)">
				<text style="font-family: Helvetica; font-size: 10px;fill: rgb(0%,0%,0%); stroke:none;" transform="translate(0,0) scale(1,-1)" x="0" y="0">Gene_01875</text>
			</g>
			<g transform=" matrix(0.707107,0.707107,-0.707107,0.707107,1164.092984,538.835771)">
				<text style="font-family: Helvetica; font-size: 10px;fill: rgb(0%,0%,0%); stroke:none;" transform="translate(0,0) scale(1,-1)" x="0" y="0">Gene_01876</text>
			</g>
			<g transform=" matrix(0.707107,0.707107,-0.707107,0.707107,1184.037149,538.835771)">
				<text style="font-family: Helvetica; font-size: 10px;fill: rgb(0%,0%,0%); stroke:none;" transform="translate(0,0) scale(1,-1)" x="0" y="0">Gene_01877</text>
			</g>
			<g transform=" matrix(0.707107,0.707107,-0.707107,0.707107,1236.584648,538.835771)">
				<text style="font-family: Helvetica; font-size: 10px;fill: rgb(0%,0%,0%); stroke:none;" transform="translate(0,0) scale(1,-1)" x="0" y="0">Gene_01878</text>
			</g>
			<g transform=" matrix(0.707107,0.707107,-0.707107,0.707107,1313.047232,538.835771)">
				<text style="font-family: Helvetica; font-size: 10px;fill: rgb(0%,0%,0%); stroke:none;" transform="translate(0,0) scale(1,-1)" x="0" y="0">Gene_01879</text>
			</g>
			<g transform=" matrix(1,0,-0,1,70,169.825647)">
				<text style="font-family: Helvetica; font-size: 12px;fill: rgb(60%,60%,60%); stroke:none;" transform="translate(0,0) scale(1,-1)" x="0" y="0">megahit_6060 (left 126918bp, right 44851bp)</text>
			</g>
			<g transform=" matrix(1,0,-0,1,70,456.833521)">
				<text style="font-family: Helvetica; font-size: 12px;fill: rgb(60%,60%,60%); stroke:none;" transform="translate(0,0) scale(1,-1)" x="0" y="0">megahit_38061 (left 15758bp, right 16658bp)</text>
			</g>
		</g>
	</g>
</svg>
