<?xml version="1.0" encoding="utf-8"?>
<!DOCTYPE svg
  PUBLIC '-//W3C//DTD SVG 1.0//EN'
  'http://www.w3.org/TR/2001/REC-SVG-20010904/DTD/svg10.dtd'>
<svg fill-rule="evenodd" height="708.6614173228346" preserveAspectRatio="xMinYMin meet" version="1.0" viewBox="0 0 1417 708" width="1417.3228346456692" xmlns="http://www.w3.org/2000/svg" xmlns:xlink="http://www.w3.org/1999/xlink">
	<title>...</title>
	<desc>...</desc>
	<clipPath id="clip">
		<rect height="708.6614173228346" width="1417.3228346456692" x="0" y="0"/>
	</clipPath>
	<g id="group" style="clip-path: url(#clip)" transform="scale(1,-1) translate(0,-708)">
		<g transform="">
			<polygon points="70.86614 169.8256, 1346.371 169.8256, 1346.371 251.8279, 70.86614 251.8279" style="stroke: rgb(96%,96%,96%); stroke-linecap: butt; stroke-width: 1; fill: rgb(96%,96%,96%); fill-rule: evenodd;"/>
			<polygon points="70.86614 456.8335, 1076.03 456.8335, 1076.03 538.8358, 70.86614 538.8358" style="stroke: rgb(96%,96%,96%); stroke-linecap: butt; stroke-width: 1; fill: rgb(96%,96%,96%); fill-rule: evenodd;"/>
			<polygon points="114.8491 456.8335, 399.2777 456.8335, 1244.66 251.8279, 954.9056 251.8279" style="stroke: rgb(100%,46%,46%); stroke-linecap: round; stroke-width: 1; fill: rgb(100%,46%,46%); fill-rule: evenodd;"/>
			<polygon points="404.346 456.8335, 450.3047 456.8335, 1346.371 251.8279, 1300.412 251.8279" style="stroke: rgb(100%,48%,48%); stroke-linecap: round; stroke-width: 1; fill: rgb(100%,48%,48%); fill-rule: evenodd;"/>
			<polygon points="70.95205 456.8335, 108.4063 456.8335, 584.4011 251.8279, 546.6892 251.8279" style="stroke: rgb(100%,64%,64%); stroke-linecap: round; stroke-width: 1; fill: rgb(100%,64%,64%); fill-rule: evenodd;"/>
			<polygon points="100.6749 200.5765, 87.26659 200.5765, 87.26659 210.8268, 70.86614 190.3262, 87.26659 169.8256, 87.26659 180.0759, 100.6749 180.0759" style="stroke: rgb(56%,93%,56%); stroke-linecap: round; stroke-width: 1; fill: rgb(56%,93%,56%); fill-rule: evenodd;"/>
			<polygon points="208.141 200.5765, 124.1195 200.5765, 124.1195 210.8268, 107.719 190.3262, 124.1195 169.8256, 124.1195 180.0759, 208.141 180.0759" style="stroke: rgb(56%,93%,56%); stroke-linecap: round; stroke-width: 1; fill: rgb(56%,93%,56%); fill-rule: evenodd;"/>
			<polygon points="334.6778 200.5765, 224.885 200.5765, 224.885 210.8268, 208.4846 190.3262, 224.885 169.8256, 224.885 180.0759, 334.6778 180.0759" style="stroke: rgb(56%,93%,56%); stroke-linecap: round; stroke-width: 1; fill: rgb(56%,93%,56%); fill-rule: evenodd;"/>
			<polygon points="403.6588 200.5765, 363.9638 200.5765, 363.9638 210.8268, 347.5634 190.3262, 363.9638 169.8256, 363.9638 180.0759, 403.6588 180.0759" style="stroke: rgb(56%,93%,56%); stroke-linecap: round; stroke-width: 1; fill: rgb(56%,93%,56%); fill-rule: evenodd;"/>
			<polygon points="419.6369 241.5776, 568.3442 241.5776, 568.3442 251.8279, 584.7447 231.3273, 568.3442 210.8268, 568.3442 221.0771, 419.6369 221.0771" style="stroke: rgb(67%,84%,90%); stroke-linecap: round; stroke-width: 1; fill: rgb(67%,84%,90%); fill-rule: evenodd;"/>
			<polygon points="664.6355 200.5765, 603.8082 200.5765, 603.8082 210.8268, 587.4077 190.3262, 603.8082 169.8256, 603.8082 180.0759, 664.6355 180.0759" style="stroke: rgb(56%,93%,56%); stroke-linecap: round; stroke-width: 1; fill: rgb(56%,93%,56%); fill-rule: evenodd;"/>
			<polygon points="849.9308 200.5765, 688.3378 200.5765, 688.3378 210.8268, 671.9374 190.3262, 688.3378 169.8256, 688.3378 180.0759, 849.9308 180.0759" style="stroke: rgb(56%,93%,56%); stroke-linecap: round; stroke-width: 1; fill: rgb(56%,93%,56%); fill-rule: evenodd;"/>
			<polygon points="928.1894 200.5765, 867.6198 200.5765, 867.6198 210.8268, 851.2193 190.3262, 867.6198 169.8256, 867.6198 180.0759, 928.1894 180.0759" style="stroke: rgb(56%,93%,56%); stroke-linecap: round; stroke-width: 1; fill: rgb(56%,93%,56%); fill-rule: evenodd;"/>
			<polygon points="1057.046 200.5765, 970.447 200.5765, 970.447 210.8268, 954.0466 190.3262, 970.447 169.8256, 970.447 180.0759, 1057.046 180.0759" style="stroke: rgb(56%,93%,56%); stroke-linecap: round; stroke-width: 1; fill: rgb(56%,93%,56%); fill-rule: evenodd;"/>
			<polygon points="1118.381 200.5765, 1077.398 200.5765, 1077.398 210.8268, 1060.997 190.3262, 1077.398 169.8256, 1077.398 180.0759, 1118.381 180.0759" style="stroke: rgb(56%,93%,56%); stroke-linecap: round; stroke-width: 1; fill: rgb(56%,93%,56%); fill-rule: evenodd;"/>
			<polygon points="1239.42 200.5765, 1135.297 200.5765, 1135.297 210.8268, 1118.897 190.3262, 1135.297 169.8256, 1135.297 180.0759, 1239.42 180.0759" style="stroke: rgb(56%,93%,56%); stroke-linecap: round; stroke-width: 1; fill: rgb(56%,93%,56%); fill-rule: evenodd;"/>
			<polygon points="1296.718 200.5765, 1270.424 200.5765, 1270.424 210.8268, 1254.024 190.3262, 1270.424 169.8256, 1270.424 180.0759, 1296.718 180.0759" style="stroke: rgb(56%,93%,56%); stroke-linecap: round; stroke-width: 1; fill: rgb(56%,93%,56%); fill-rule: evenodd;"/>
			<polygon points="1345.082 200.5765, 1316.984 200.5765, 1316.984 210.8268, 1300.584 190.3262, 1316.984 169.8256, 1316.984 180.0759, 1345.082 180.0759" style="stroke: rgb(56%,93%,56%); stroke-linecap: round; stroke-width: 1; fill: rgb(56%,93%,56%); fill-rule: evenodd;"/>
			<polygon points="76.36401 528.5855, 92.60713 528.5855, 92.60713 538.8358, 109.0076 518.3352, 92.60713 497.8346, 92.60713 508.0849, 76.36401 508.0849" style="stroke: rgb(67%,84%,90%); stroke-linecap: round; stroke-width: 1; fill: rgb(67%,84%,90%); fill-rule: evenodd;"/>
			<polygon points="216.9891 487.5844, 130.6482 487.5844, 130.6482 497.8346, 114.2477 477.3341, 130.6482 456.8335, 130.6482 467.0838, 216.9891 467.0838" style="stroke: rgb(56%,93%,56%); stroke-linecap: round; stroke-width: 1; fill: rgb(56%,93%,56%); fill-rule: evenodd;"/>
			<polygon points="273.514 487.5844, 229.1802 487.5844, 229.1802 497.8346, 212.7798 477.3341, 229.1802 456.8335, 229.1802 467.0838, 273.514 467.0838" style="stroke: rgb(56%,93%,56%); stroke-linecap: round; stroke-width: 1; fill: rgb(56%,93%,56%); fill-rule: evenodd;"/>
			<polygon points="393.9516 487.5844, 290.344 487.5844, 290.344 497.8346, 273.9435 477.3341, 290.344 456.8335, 290.344 467.0838, 393.9516 467.0838" style="stroke: rgb(56%,93%,56%); stroke-linecap: round; stroke-width: 1; fill: rgb(56%,93%,56%); fill-rule: evenodd;"/>
			<polygon points="508.8054 487.5844, 420.9183 487.5844, 420.9183 497.8346, 404.5178 477.3341, 420.9183 456.8335, 420.9183 467.0838, 508.8054 467.0838" style="stroke: rgb(56%,93%,56%); stroke-linecap: round; stroke-width: 1; fill: rgb(56%,93%,56%); fill-rule: evenodd;"/>
			<polygon points="589.4694 487.5844, 525.5495 487.5844, 525.5495 497.8346, 509.1491 477.3341, 525.5495 456.8335, 525.5495 467.0838, 589.4694 467.0838" style="stroke: rgb(56%,93%,56%); stroke-linecap: round; stroke-width: 1; fill: rgb(56%,93%,56%); fill-rule: evenodd;"/>
			<polygon points="896.5767 487.5844, 607.1584 487.5844, 607.1584 497.8346, 590.758 477.3341, 607.1584 456.8335, 607.1584 467.0838, 896.5767 467.0838" style="stroke: rgb(56%,93%,56%); stroke-linecap: round; stroke-width: 1; fill: rgb(56%,93%,56%); fill-rule: evenodd;"/>
			<polygon points="964.441 487.5844, 913.6644 487.5844, 913.6644 497.8346, 897.264 477.3341, 913.6644 456.8335, 913.6644 467.0838, 964.441 467.0838" style="stroke: rgb(56%,93%,56%); stroke-linecap: round; stroke-width: 1; fill: rgb(56%,93%,56%); fill-rule: evenodd;"/>
			<polygon points="981.7936 487.5844, 978.1784 487.5844, 978.1784 497.8346, 961.778 477.3341, 978.1784 456.8335, 978.1784 467.0838, 981.7936 467.0838" style="stroke: rgb(56%,93%,56%); stroke-linecap: round; stroke-width: 1; fill: rgb(56%,93%,56%); fill-rule: evenodd;"/>
			<polygon points="1073.282 487.5844, 1001.888 487.5844, 1001.888 497.8346, 985.4875 477.3341, 1001.888 456.8335, 1001.888 467.0838, 1073.282 467.0838" style="stroke: rgb(56%,93%,56%); stroke-linecap: round; stroke-width: 1; fill: rgb(56%,93%,56%); fill-rule: evenodd;"/>
			<path d="M 1346.370789,169.825647 L 1346.370789,251.827897 Z" style="stroke: rgb(0%,0%,0%); stroke-linecap: butt; stroke-width: 1;"/>
			<path d="M 70.866142,210.826772 L 1346.370789,210.826772 Z" style="stroke: rgb(0%,0%,0%); stroke-linecap: butt; stroke-width: 1;"/>
			<path d="M 70.866142,169.825647 L 70.866142,251.827897 Z" style="stroke: rgb(0%,0%,0%); stroke-linecap: butt; stroke-width: 1;"/>
			<path d="M 929.907526,210.826772 L 929.907526,231.327334 Z" style="stroke: rgb(0%,0%,0%); stroke-linecap: butt; stroke-width: 1;"/>
			<path d="M 929.907526,210.826772 L 929.907526,223.127109 Z" style="stroke: rgb(0%,0%,0%); stroke-linecap: butt; stroke-width: 1;"/>
			<path d="M 1076.030465,456.833521 L 1076.030465,538.835771 Z" style="stroke: rgb(0%,0%,0%); stroke-linecap: butt; stroke-width: 1;"/>
			<path d="M 70.866142,497.834646 L 1076.030465,497.834646 Z" style="stroke: rgb(0%,0%,0%); stroke-linecap: butt; stroke-width: 1;"/>
			<path d="M 70.866142,456.833521 L 70.866142,538.835771 Z" style="stroke: rgb(0%,0%,0%); stroke-linecap: butt; stroke-width: 1;"/>
			<path d="M 929.907526,497.834646 L 929.907526,518.335208 Z" style="stroke: rgb(0%,0%,0%); stroke-linecap: butt; stroke-width: 1;"/>
			<path d="M 929.907526,497.834646 L 929.907526,510.134983 Z" style="stroke: rgb(0%,0%,0%); stroke-linecap: butt; stroke-width: 1;"/>
			<g transform=" matrix(0.707107,0.707107,-0.707107,0.707107,929.907526,231.327334)">
				<text style="font-family: Helvetica; font-size: 6px;fill: rgb(0%,0%,0%); stroke:none;" transform="translate(0,0) scale(1,-1)" x="0" y="0">10000</text>
			</g>
			<g transform=" matrix(0.707107,0.707107,-0.707107,0.707107,929.907526,518.335208)">
				<text style="font-family: Helvetica; font-size: 6px;fill: rgb(0%,0%,0%); stroke:none;" transform="translate(0,0) scale(1,-1)" x="0" y="0">10000</text>
			</g>
			<g transform=" matrix(0.707107,-0.707107,0.707107,0.707107,85.77051,169.825647)">
				<text style="font-family: Helvetica; font-size: 10px;fill: rgb(0%,0%,0%); stroke:none;" transform="translate(0,0) scale(1,-1)" x="0" y="0">Gene_02432</text>
			</g>
			<g transform=" matrix(0.707107,-0.707107,0.707107,0.707107,157.929986,169.825647)">
				<text style="font-family: Helvetica; font-size: 10px;fill: rgb(0%,0%,0%); stroke:none;" transform="translate(0,0) scale(1,-1)" x="0" y="0">Gene_02433</text>
			</g>
			<g transform=" matrix(0.707107,-0.707107,0.707107,0.707107,271.581161,169.825647)">
				<text style="font-family: Helvetica; font-size: 10px;fill: rgb(0%,0%,0%); stroke:none;" transform="translate(0,0) scale(1,-1)" x="0" y="0">Gene_02434</text>
			</g>
			<g transform=" matrix(0.707107,-0.707107,0.707107,0.707107,375.611073,169.825647)">
				<text style="font-family: Helvetica; font-size: 10px;fill: rgb(0%,0%,0%); stroke:none;" transform="translate(0,0) scale(1,-1)" x="0" y="0">Gene_02435</text>
			</g>
			<g transform=" matrix(0.707107,0.707107,-0.707107,0.707107,502.190821,251.827897)">
				<text style="font-family: Helvetica; font-size: 10px;fill: rgb(0%,0%,0%); stroke:none;" transform="translate(0,0) scale(1,-1)" x="0" y="0">Gene_02436</text>
			</g>
			<g transform=" matrix(0.707107,-0.707107,0.707107,0.707107,626.021636,169.825647)">
				<text style="font-family: Helvetica; font-size: 10px;fill: rgb(0%,0%,0%); stroke:none;" transform="translate(0,0) scale(1,-1)" x="0" y="0">Gene_02437</text>
			</g>
			<g transform=" matrix(0.707107,-0.707107,0.707107,0.707107,760.934086,169.825647)">
				<text style="font-family: Helvetica; font-size: 10px;fill: rgb(0%,0%,0%); stroke:none;" transform="translate(0,0) scale(1,-1)" x="0" y="0">Gene_02438</text>
			</g>
			<g transform=" matrix(0.707107,-0.707107,0.707107,0.707107,889.704389,169.825647)">
				<text style="font-family: Helvetica; font-size: 10px;fill: rgb(0%,0%,0%); stroke:none;" transform="translate(0,0) scale(1,-1)" x="0" y="0">Gene_02439</text>
			</g>
			<g transform=" matrix(0.707107,-0.707107,0.707107,0.707107,1005.54612,169.825647)">
				<text style="font-family: Helvetica; font-size: 16px;fill: rgb(0%,0%,100%); stroke:none;" transform="translate(0,0) scale(1,-1)" x="0" y="0">Gene_02440 (82.4)</text>
			</g>
			<g transform=" matrix(0.707107,-0.707107,0.707107,0.707107,1089.689223,169.825647)">
				<text style="font-family: Helvetica; font-size: 10px;fill: rgb(0%,0%,0%); stroke:none;" transform="translate(0,0) scale(1,-1)" x="0" y="0">Gene_02441</text>
			</g>
			<g transform=" matrix(0.707107,-0.707107,0.707107,0.707107,1179.158383,169.825647)">
				<text style="font-family: Helvetica; font-size: 10px;fill: rgb(0%,0%,0%); stroke:none;" transform="translate(0,0) scale(1,-1)" x="0" y="0">Gene_02442</text>
			</g>
			<g transform=" matrix(0.707107,-0.707107,0.707107,0.707107,1275.371018,169.825647)">
				<text style="font-family: Helvetica; font-size: 10px;fill: rgb(0%,0%,0%); stroke:none;" transform="translate(0,0) scale(1,-1)" x="0" y="0">Gene_02443</text>
			</g>
			<g transform=" matrix(0.707107,-0.707107,0.707107,0.707107,1322.833055,169.825647)">
				<text style="font-family: Helvetica; font-size: 10px;fill: rgb(0%,0%,0%); stroke:none;" transform="translate(0,0) scale(1,-1)" x="0" y="0">Gene_02444</text>
			</g>
			<g transform=" matrix(0.707107,0.707107,-0.707107,0.707107,92.685793,538.835771)">
				<text style="font-family: Helvetica; font-size: 10px;fill: rgb(0%,0%,0%); stroke:none;" transform="translate(0,0) scale(1,-1)" x="0" y="0">Gene_02118</text>
			</g>
			<g transform=" matrix(0.707107,-0.707107,0.707107,0.707107,165.618406,456.833521)">
				<text style="font-family: Helvetica; font-size: 16px;fill: rgb(0%,0%,100%); stroke:none;" transform="translate(0,0) scale(1,-1)" x="0" y="0">Gene_02119 (82.4)</text>
			</g>
			<g transform=" matrix(0.707107,-0.707107,0.707107,0.707107,243.146891,456.833521)">
				<text style="font-family: Helvetica; font-size: 10px;fill: rgb(0%,0%,0%); stroke:none;" transform="translate(0,0) scale(1,-1)" x="0" y="0">Gene_02120</text>
			</g>
			<g transform=" matrix(0.707107,-0.707107,0.707107,0.707107,333.947566,456.833521)">
				<text style="font-family: Helvetica; font-size: 10px;fill: rgb(0%,0%,0%); stroke:none;" transform="translate(0,0) scale(1,-1)" x="0" y="0">Gene_02121</text>
			</g>
			<g transform=" matrix(0.707107,-0.707107,0.707107,0.707107,456.661627,456.833521)">
				<text style="font-family: Helvetica; font-size: 10px;fill: rgb(0%,0%,0%); stroke:none;" transform="translate(0,0) scale(1,-1)" x="0" y="0">Gene_02122</text>
			</g>
			<g transform=" matrix(0.707107,-0.707107,0.707107,0.707107,549.309241,456.833521)">
				<text style="font-family: Helvetica; font-size: 10px;fill: rgb(0%,0%,0%); stroke:none;" transform="translate(0,0) scale(1,-1)" x="0" y="0">Gene_02123</text>
			</g>
			<g transform=" matrix(0.707107,-0.707107,0.707107,0.707107,743.667354,456.833521)">
				<text style="font-family: Helvetica; font-size: 10px;fill: rgb(0%,0%,0%); stroke:none;" transform="translate(0,0) scale(1,-1)" x="0" y="0">Gene_02124</text>
			</g>
			<g transform=" matrix(0.707107,-0.707107,0.707107,0.707107,930.852471,456.833521)">
				<text style="font-family: Helvetica; font-size: 10px;fill: rgb(0%,0%,0%); stroke:none;" transform="translate(0,0) scale(1,-1)" x="0" y="0">Gene_02125</text>
			</g>
			<g transform=" matrix(0.707107,-0.707107,0.707107,0.707107,971.785793,456.833521)">
				<text style="font-family: Helvetica; font-size: 10px;fill: rgb(0%,0%,0%); stroke:none;" transform="translate(0,0) scale(1,-1)" x="0" y="0">Gene_02126</text>
			</g>
			<g transform=" matrix(0.707107,-0.707107,0.707107,0.707107,1029.384518,456.833521)">
				<text style="font-family: Helvetica; font-size: 10px;fill: rgb(0%,0%,0%); stroke:none;" transform="translate(0,0) scale(1,-1)" x="0" y="0">Gene_02127</text>
			</g>
			<g transform=" matrix(1,0,-0,1,70,169.825647)">
				<text style="font-family: Helvetica; font-size: 12px;fill: rgb(60%,60%,60%); stroke:none;" transform="translate(0,0) scale(1,-1)" x="0" y="0">megahit_137116 (left 31056bp, right 3368bp)</text>
			</g>
			<g transform=" matrix(1,0,-0,1,70,456.833521)">
				<text style="font-family: Helvetica; font-size: 12px;fill: rgb(60%,60%,60%); stroke:none;" transform="translate(0,0) scale(1,-1)" x="0" y="0">megahit_52231 (left 505bp, right 18047bp)</text>
			</g>
		</g>
	</g>
</svg>
