<?xml version="1.0" encoding="utf-8"?>
<!DOCTYPE svg
  PUBLIC '-//W3C//DTD SVG 1.0//EN'
  'http://www.w3.org/TR/2001/REC-SVG-20010904/DTD/svg10.dtd'>
<svg fill-rule="evenodd" height="708.6614173228346" preserveAspectRatio="xMinYMin meet" version="1.0" viewBox="0 0 1417 708" width="1417.3228346456692" xmlns="http://www.w3.org/2000/svg" xmlns:xlink="http://www.w3.org/1999/xlink">
	<title>...</title>
	<desc>...</desc>
	<clipPath id="clip">
		<rect height="708.6614173228346" width="1417.3228346456692" x="0" y="0"/>
	</clipPath>
	<g id="group" style="clip-path: url(#clip)" transform="scale(1,-1) translate(0,-708)">
		<g transform="">
			<polygon points="70.86614 169.8256, 1156.561 169.8256, 1156.561 251.8279, 70.86614 251.8279" style="stroke: rgb(96%,96%,96%); stroke-linecap: butt; stroke-width: 1; fill: rgb(96%,96%,96%); fill-rule: evenodd;"/>
			<polygon points="70.86614 456.8335, 1346.399 456.8335, 1346.399 538.8358, 70.86614 538.8358" style="stroke: rgb(96%,96%,96%); stroke-linecap: butt; stroke-width: 1; fill: rgb(96%,96%,96%); fill-rule: evenodd;"/>
			<polygon points="276.0503 456.8335, 904.9371 456.8335, 699.5804 251.8279, 70.92362 251.8279" style="stroke: rgb(100%,3%,3%); stroke-linecap: round; stroke-width: 1; fill: rgb(100%,3%,3%); fill-rule: evenodd;"/>
			<polygon points="87.59124 241.5776, 130.4471 241.5776, 130.4471 251.8279, 146.8475 231.3273, 130.4471 210.8268, 130.4471 221.0771, 87.59124 221.0771" style="stroke: rgb(67%,84%,90%); stroke-linecap: round; stroke-width: 1; fill: rgb(67%,84%,90%); fill-rule: evenodd;"/>
			<polygon points="208.0579 200.5765, 170.3748 200.5765, 170.3748 210.8268, 153.9744 190.3262, 170.3748 169.8256, 170.3748 180.0759, 208.0579 180.0759" style="stroke: rgb(56%,93%,56%); stroke-linecap: round; stroke-width: 1; fill: rgb(56%,93%,56%); fill-rule: evenodd;"/>
			<polygon points="225.1854 241.5776, 238.2119 241.5776, 238.2119 251.8279, 254.6123 231.3273, 238.2119 210.8268, 238.2119 221.0771, 225.1854 221.0771" style="stroke: rgb(67%,84%,90%); stroke-linecap: round; stroke-width: 1; fill: rgb(67%,84%,90%); fill-rule: evenodd;"/>
			<polygon points="279.9011 241.5776, 332.2403 241.5776, 332.2403 251.8279, 348.6407 231.3273, 332.2403 210.8268, 332.2403 221.0771, 279.9011 221.0771" style="stroke: rgb(67%,84%,90%); stroke-linecap: round; stroke-width: 1; fill: rgb(67%,84%,90%); fill-rule: evenodd;"/>
			<polygon points="348.4683 241.5776, 409.0838 241.5776, 409.0838 251.8279, 425.4842 231.3273, 409.0838 210.8268, 409.0838 221.0771, 348.4683 221.0771" style="stroke: rgb(67%,84%,90%); stroke-linecap: round; stroke-width: 1; fill: rgb(67%,84%,90%); fill-rule: evenodd;"/>
			<polygon points="431.5191 241.5776, 445.0629 241.5776, 445.0629 251.8279, 461.4633 231.3273, 445.0629 210.8268, 445.0629 221.0771, 431.5191 221.0771" style="stroke: rgb(67%,84%,90%); stroke-linecap: round; stroke-width: 1; fill: rgb(67%,84%,90%); fill-rule: evenodd;"/>
			<polygon points="462.7277 241.5776, 472.8231 241.5776, 472.8231 251.8279, 489.2235 231.3273, 472.8231 210.8268, 472.8231 221.0771, 462.7277 221.0771" style="stroke: rgb(67%,84%,90%); stroke-linecap: round; stroke-width: 1; fill: rgb(67%,84%,90%); fill-rule: evenodd;"/>
			<polygon points="559.0551 200.5765, 511.3714 200.5765, 511.3714 210.8268, 494.971 190.3262, 511.3714 169.8256, 511.3714 180.0759, 559.0551 180.0759" style="stroke: rgb(56%,93%,56%); stroke-linecap: round; stroke-width: 1; fill: rgb(56%,93%,56%); fill-rule: evenodd;"/>
			<polygon points="582.9645 241.5776, 600.8189 241.5776, 600.8189 251.8279, 617.2194 231.3273, 600.8189 210.8268, 600.8189 221.0771, 582.9645 221.0771" style="stroke: rgb(67%,84%,90%); stroke-linecap: round; stroke-width: 1; fill: rgb(67%,84%,90%); fill-rule: evenodd;"/>
			<polygon points="633.5422 241.5776, 683.2949 241.5776, 683.2949 251.8279, 699.6954 231.3273, 683.2949 210.8268, 683.2949 221.0771, 633.5422 221.0771" style="stroke: rgb(67%,84%,90%); stroke-linecap: round; stroke-width: 1; fill: rgb(67%,84%,90%); fill-rule: evenodd;"/>
			<polygon points="711.5351 241.5776, 761.8052 241.5776, 761.8052 251.8279, 778.2056 231.3273, 761.8052 210.8268, 761.8052 221.0771, 711.5351 221.0771" style="stroke: rgb(67%,84%,90%); stroke-linecap: round; stroke-width: 1; fill: rgb(67%,84%,90%); fill-rule: evenodd;"/>
			<polygon points="859.1298 200.5765, 799.2041 200.5765, 799.2041 210.8268, 782.8036 190.3262, 799.2041 169.8256, 799.2041 180.0759, 859.1298 180.0759" style="stroke: rgb(56%,93%,56%); stroke-linecap: round; stroke-width: 1; fill: rgb(56%,93%,56%); fill-rule: evenodd;"/>
			<polygon points="912.4088 200.5765, 876.4499 200.5765, 876.4499 210.8268, 860.0494 190.3262, 876.4499 169.8256, 876.4499 180.0759, 912.4088 180.0759" style="stroke: rgb(56%,93%,56%); stroke-linecap: round; stroke-width: 1; fill: rgb(56%,93%,56%); fill-rule: evenodd;"/>
			<polygon points="936.778 241.5776, 942.5627 241.5776, 942.5627 251.8279, 958.9632 231.3273, 942.5627 210.8268, 942.5627 221.0771, 936.778 221.0771" style="stroke: rgb(67%,84%,90%); stroke-linecap: round; stroke-width: 1; fill: rgb(67%,84%,90%); fill-rule: evenodd;"/>
			<polygon points="960.9748 241.5776, 1021.418 241.5776, 1021.418 251.8279, 1037.818 231.3273, 1021.418 210.8268, 1021.418 221.0771, 960.9748 221.0771" style="stroke: rgb(67%,84%,90%); stroke-linecap: round; stroke-width: 1; fill: rgb(67%,84%,90%); fill-rule: evenodd;"/>
			<polygon points="1044.198 241.5776, 1044.198 251.8279, 1058.107 231.3273, 1044.198 210.8268, 1044.198 221.0771" style="stroke: rgb(67%,84%,90%); stroke-linecap: round; stroke-width: 1; fill: rgb(67%,84%,90%); fill-rule: evenodd;"/>
			<polygon points="1059.026 241.5776, 1059.026 251.8279, 1072.418 231.3273, 1059.026 210.8268, 1059.026 221.0771" style="stroke: rgb(67%,84%,90%); stroke-linecap: round; stroke-width: 1; fill: rgb(67%,84%,90%); fill-rule: evenodd;"/>
			<polygon points="1078.395 241.5776, 1092.801 241.5776, 1092.801 251.8279, 1109.202 231.3273, 1092.801 210.8268, 1092.801 221.0771, 1078.395 221.0771" style="stroke: rgb(67%,84%,90%); stroke-linecap: round; stroke-width: 1; fill: rgb(67%,84%,90%); fill-rule: evenodd;"/>
			<polygon points="1109.202 241.5776, 1140.16 241.5776, 1140.16 251.8279, 1156.561 231.3273, 1140.16 210.8268, 1140.16 221.0771, 1109.202 221.0771" style="stroke: rgb(67%,84%,90%); stroke-linecap: round; stroke-width: 1; fill: rgb(67%,84%,90%); fill-rule: evenodd;"/>
			<polygon points="70.86614 528.5855, 111.308 528.5855, 111.308 538.8358, 127.7085 518.3352, 111.308 497.8346, 111.308 508.0849, 70.86614 508.0849" style="stroke: rgb(67%,84%,90%); stroke-linecap: round; stroke-width: 1; fill: rgb(67%,84%,90%); fill-rule: evenodd;"/>
			<polygon points="127.7085 528.5855, 144.1835 528.5855, 144.1835 538.8358, 160.5839 518.3352, 144.1835 497.8346, 144.1835 508.0849, 127.7085 508.0849" style="stroke: rgb(67%,84%,90%); stroke-linecap: round; stroke-width: 1; fill: rgb(67%,84%,90%); fill-rule: evenodd;"/>
			<polygon points="160.7564 528.5855, 184.3007 528.5855, 184.3007 538.8358, 200.7012 518.3352, 184.3007 497.8346, 184.3007 508.0849, 160.7564 508.0849" style="stroke: rgb(67%,84%,90%); stroke-linecap: round; stroke-width: 1; fill: rgb(67%,84%,90%); fill-rule: evenodd;"/>
			<polygon points="200.5288 528.5855, 220.7971 528.5855, 220.7971 538.8358, 237.1975 518.3352, 220.7971 497.8346, 220.7971 508.0849, 200.5288 508.0849" style="stroke: rgb(67%,84%,90%); stroke-linecap: round; stroke-width: 1; fill: rgb(67%,84%,90%); fill-rule: evenodd;"/>
			<polygon points="238.2896 528.5855, 269.9378 528.5855, 269.9378 538.8358, 286.3383 518.3352, 269.9378 497.8346, 269.9378 508.0849, 238.2896 508.0849" style="stroke: rgb(67%,84%,90%); stroke-linecap: round; stroke-width: 1; fill: rgb(67%,84%,90%); fill-rule: evenodd;"/>
			<polygon points="292.4881 528.5855, 335.3439 528.5855, 335.3439 538.8358, 351.7444 518.3352, 335.3439 497.8346, 335.3439 508.0849, 292.4881 508.0849" style="stroke: rgb(67%,84%,90%); stroke-linecap: round; stroke-width: 1; fill: rgb(67%,84%,90%); fill-rule: evenodd;"/>
			<polygon points="412.8973 487.5844, 375.2142 487.5844, 375.2142 497.8346, 358.8137 477.3341, 375.2142 456.8335, 375.2142 467.0838, 412.8973 467.0838" style="stroke: rgb(56%,93%,56%); stroke-linecap: round; stroke-width: 1; fill: rgb(56%,93%,56%); fill-rule: evenodd;"/>
			<polygon points="430.542 528.5855, 443.5685 528.5855, 443.5685 538.8358, 459.969 518.3352, 443.5685 497.8346, 443.5685 508.0849, 430.542 508.0849" style="stroke: rgb(67%,84%,90%); stroke-linecap: round; stroke-width: 1; fill: rgb(67%,84%,90%); fill-rule: evenodd;"/>
			<polygon points="484.9129 528.5855, 537.2521 528.5855, 537.2521 538.8358, 553.6525 518.3352, 537.2521 497.8346, 537.2521 508.0849, 484.9129 508.0849" style="stroke: rgb(67%,84%,90%); stroke-linecap: round; stroke-width: 1; fill: rgb(67%,84%,90%); fill-rule: evenodd;"/>
			<polygon points="553.4801 528.5855, 614.0956 528.5855, 614.0956 538.8358, 630.496 518.3352, 614.0956 497.8346, 614.0956 508.0849, 553.4801 508.0849" style="stroke: rgb(67%,84%,90%); stroke-linecap: round; stroke-width: 1; fill: rgb(67%,84%,90%); fill-rule: evenodd;"/>
			<polygon points="636.5308 528.5855, 650.0746 528.5855, 650.0746 538.8358, 666.4751 518.3352, 650.0746 497.8346, 650.0746 508.0849, 636.5308 508.0849" style="stroke: rgb(67%,84%,90%); stroke-linecap: round; stroke-width: 1; fill: rgb(67%,84%,90%); fill-rule: evenodd;"/>
			<polygon points="667.7395 528.5855, 677.8349 528.5855, 677.8349 538.8358, 694.2353 518.3352, 677.8349 497.8346, 677.8349 508.0849, 667.7395 508.0849" style="stroke: rgb(67%,84%,90%); stroke-linecap: round; stroke-width: 1; fill: rgb(67%,84%,90%); fill-rule: evenodd;"/>
			<polygon points="764.4117 487.5844, 716.7281 487.5844, 716.7281 497.8346, 700.3276 477.3341, 716.7281 456.8335, 716.7281 467.0838, 764.4117 467.0838" style="stroke: rgb(56%,93%,56%); stroke-linecap: round; stroke-width: 1; fill: rgb(56%,93%,56%); fill-rule: evenodd;"/>
			<polygon points="780.3897 487.5844, 780.3897 497.8346, 771.6535 477.3341, 780.3897 456.8335, 780.3897 467.0838" style="stroke: rgb(56%,93%,56%); stroke-linecap: round; stroke-width: 1; fill: rgb(56%,93%,56%); fill-rule: evenodd;"/>
			<polygon points="788.3212 528.5855, 806.1756 528.5855, 806.1756 538.8358, 822.576 518.3352, 806.1756 497.8346, 806.1756 508.0849, 788.3212 508.0849" style="stroke: rgb(67%,84%,90%); stroke-linecap: round; stroke-width: 1; fill: rgb(67%,84%,90%); fill-rule: evenodd;"/>
			<polygon points="838.8988 528.5855, 888.6516 528.5855, 888.6516 538.8358, 905.052 518.3352, 888.6516 497.8346, 888.6516 508.0849, 838.8988 508.0849" style="stroke: rgb(67%,84%,90%); stroke-linecap: round; stroke-width: 1; fill: rgb(67%,84%,90%); fill-rule: evenodd;"/>
			<polygon points="918.3286 528.5855, 928.9412 528.5855, 928.9412 538.8358, 945.3417 518.3352, 928.9412 497.8346, 928.9412 508.0849, 918.3286 508.0849" style="stroke: rgb(67%,84%,90%); stroke-linecap: round; stroke-width: 1; fill: rgb(67%,84%,90%); fill-rule: evenodd;"/>
			<polygon points="1098.052 487.5844, 967.0873 487.5844, 967.0873 497.8346, 950.6868 477.3341, 967.0873 456.8335, 967.0873 467.0838, 1098.052 467.0838" style="stroke: rgb(56%,93%,56%); stroke-linecap: round; stroke-width: 1; fill: rgb(56%,93%,56%); fill-rule: evenodd;"/>
			<polygon points="1140.583 487.5844, 1114.28 487.5844, 1114.28 497.8346, 1097.879 477.3341, 1114.28 456.8335, 1114.28 467.0838, 1140.583 467.0838" style="stroke: rgb(56%,93%,56%); stroke-linecap: round; stroke-width: 1; fill: rgb(56%,93%,56%); fill-rule: evenodd;"/>
			<polygon points="1203 487.5844, 1158.765 487.5844, 1158.765 497.8346, 1142.365 477.3341, 1158.765 456.8335, 1158.765 467.0838, 1203 467.0838" style="stroke: rgb(56%,93%,56%); stroke-linecap: round; stroke-width: 1; fill: rgb(56%,93%,56%); fill-rule: evenodd;"/>
			<polygon points="1241.681 487.5844, 1218.826 487.5844, 1218.826 497.8346, 1202.425 477.3341, 1218.826 456.8335, 1218.826 467.0838, 1241.681 467.0838" style="stroke: rgb(56%,93%,56%); stroke-linecap: round; stroke-width: 1; fill: rgb(56%,93%,56%); fill-rule: evenodd;"/>
			<polygon points="1271.108 487.5844, 1257.909 487.5844, 1257.909 497.8346, 1241.508 477.3341, 1257.909 456.8335, 1257.909 467.0838, 1271.108 467.0838" style="stroke: rgb(56%,93%,56%); stroke-linecap: round; stroke-width: 1; fill: rgb(56%,93%,56%); fill-rule: evenodd;"/>
			<polygon points="1307.259 487.5844, 1307.259 497.8346, 1293.695 477.3341, 1307.259 456.8335, 1307.259 467.0838" style="stroke: rgb(56%,93%,56%); stroke-linecap: round; stroke-width: 1; fill: rgb(56%,93%,56%); fill-rule: evenodd;"/>
			<polygon points="1346.399 487.5844, 1346.399 497.8346, 1334.387 477.3341, 1346.399 456.8335, 1346.399 467.0838" style="stroke: rgb(56%,93%,56%); stroke-linecap: round; stroke-width: 1; fill: rgb(56%,93%,56%); fill-rule: evenodd;"/>
			<path d="M 1156.560722,169.825647 L 1156.560722,251.827897 Z" style="stroke: rgb(0%,0%,0%); stroke-linecap: butt; stroke-width: 1;"/>
			<path d="M 70.866142,210.826772 L 1156.560722,210.826772 Z" style="stroke: rgb(0%,0%,0%); stroke-linecap: butt; stroke-width: 1;"/>
			<path d="M 70.866142,169.825647 L 70.866142,251.827897 Z" style="stroke: rgb(0%,0%,0%); stroke-linecap: butt; stroke-width: 1;"/>
			<path d="M 645.611817,210.826772 L 645.611817,231.327334 Z" style="stroke: rgb(0%,0%,0%); stroke-linecap: butt; stroke-width: 1;"/>
			<path d="M 645.611817,210.826772 L 645.611817,223.127109 Z" style="stroke: rgb(0%,0%,0%); stroke-linecap: butt; stroke-width: 1;"/>
			<path d="M 1346.399218,456.833521 L 1346.399218,538.835771 Z" style="stroke: rgb(0%,0%,0%); stroke-linecap: butt; stroke-width: 1;"/>
			<path d="M 70.866142,497.834646 L 1346.399218,497.834646 Z" style="stroke: rgb(0%,0%,0%); stroke-linecap: butt; stroke-width: 1;"/>
			<path d="M 70.866142,456.833521 L 70.866142,538.835771 Z" style="stroke: rgb(0%,0%,0%); stroke-linecap: butt; stroke-width: 1;"/>
			<path d="M 645.611817,497.834646 L 645.611817,518.335208 Z" style="stroke: rgb(0%,0%,0%); stroke-linecap: butt; stroke-width: 1;"/>
			<path d="M 1220.357492,497.834646 L 1220.357492,518.335208 Z" style="stroke: rgb(0%,0%,0%); stroke-linecap: butt; stroke-width: 1;"/>
			<path d="M 645.611817,497.834646 L 645.611817,510.134983 Z" style="stroke: rgb(0%,0%,0%); stroke-linecap: butt; stroke-width: 1;"/>
			<path d="M 1220.357492,497.834646 L 1220.357492,510.134983 Z" style="stroke: rgb(0%,0%,0%); stroke-linecap: butt; stroke-width: 1;"/>
			<g transform=" matrix(0.707107,0.707107,-0.707107,0.707107,645.611817,231.327334)">
				<text style="font-family: Helvetica; font-size: 6px;fill: rgb(0%,0%,0%); stroke:none;" transform="translate(0,0) scale(1,-1)" x="0" y="0">10000</text>
			</g>
			<g transform=" matrix(0.707107,0.707107,-0.707107,0.707107,645.611817,518.335208)">
				<text style="font-family: Helvetica; font-size: 6px;fill: rgb(0%,0%,0%); stroke:none;" transform="translate(0,0) scale(1,-1)" x="0" y="0">10000</text>
			</g>
			<g transform=" matrix(0.707107,0.707107,-0.707107,0.707107,1220.357492,518.335208)">
				<text style="font-family: Helvetica; font-size: 6px;fill: rgb(0%,0%,0%); stroke:none;" transform="translate(0,0) scale(1,-1)" x="0" y="0">20000</text>
			</g>
			<g transform=" matrix(0.707107,0.707107,-0.707107,0.707107,117.21938,251.827897)">
				<text style="font-family: Helvetica; font-size: 10px;fill: rgb(0%,0%,0%); stroke:none;" transform="translate(0,0) scale(1,-1)" x="0" y="0">Gene_01713</text>
			</g>
			<g transform=" matrix(0.707107,-0.707107,0.707107,0.707107,181.01615,169.825647)">
				<text style="font-family: Helvetica; font-size: 10px;fill: rgb(0%,0%,0%); stroke:none;" transform="translate(0,0) scale(1,-1)" x="0" y="0">Gene_01714</text>
			</g>
			<g transform=" matrix(0.707107,0.707107,-0.707107,0.707107,239.898845,251.827897)">
				<text style="font-family: Helvetica; font-size: 10px;fill: rgb(0%,0%,0%); stroke:none;" transform="translate(0,0) scale(1,-1)" x="0" y="0">Gene_01715</text>
			</g>
			<g transform=" matrix(0.707107,0.707107,-0.707107,0.707107,314.270935,251.827897)">
				<text style="font-family: Helvetica; font-size: 10px;fill: rgb(0%,0%,0%); stroke:none;" transform="translate(0,0) scale(1,-1)" x="0" y="0">Gene_01716</text>
			</g>
			<g transform=" matrix(0.707107,0.707107,-0.707107,0.707107,386.976263,251.827897)">
				<text style="font-family: Helvetica; font-size: 10px;fill: rgb(0%,0%,0%); stroke:none;" transform="translate(0,0) scale(1,-1)" x="0" y="0">Gene_01717</text>
			</g>
			<g transform=" matrix(0.707107,0.707107,-0.707107,0.707107,446.491178,251.827897)">
				<text style="font-family: Helvetica; font-size: 10px;fill: rgb(0%,0%,0%); stroke:none;" transform="translate(0,0) scale(1,-1)" x="0" y="0">Gene_01718</text>
			</g>
			<g transform=" matrix(0.707107,0.707107,-0.707107,0.707107,475.975631,251.827897)">
				<text style="font-family: Helvetica; font-size: 10px;fill: rgb(0%,0%,0%); stroke:none;" transform="translate(0,0) scale(1,-1)" x="0" y="0">Gene_01719</text>
			</g>
			<g transform=" matrix(0.707107,-0.707107,0.707107,0.707107,527.013047,169.825647)">
				<text style="font-family: Helvetica; font-size: 16px;fill: rgb(0%,0%,100%); stroke:none;" transform="translate(0,0) scale(1,-1)" x="0" y="0">Gene_01720 (99.4)</text>
			</g>
			<g transform=" matrix(0.707107,0.707107,-0.707107,0.707107,600.091959,251.827897)">
				<text style="font-family: Helvetica; font-size: 10px;fill: rgb(0%,0%,0%); stroke:none;" transform="translate(0,0) scale(1,-1)" x="0" y="0">Gene_01721</text>
			</g>
			<g transform=" matrix(0.707107,0.707107,-0.707107,0.707107,666.618771,251.827897)">
				<text style="font-family: Helvetica; font-size: 10px;fill: rgb(0%,0%,0%); stroke:none;" transform="translate(0,0) scale(1,-1)" x="0" y="0">Gene_01722</text>
			</g>
			<g transform=" matrix(0.707107,0.707107,-0.707107,0.707107,744.870395,251.827897)">
				<text style="font-family: Helvetica; font-size: 10px;fill: rgb(0%,0%,0%); stroke:none;" transform="translate(0,0) scale(1,-1)" x="0" y="0">Gene_01723</text>
			</g>
			<g transform=" matrix(0.707107,-0.707107,0.707107,0.707107,820.966722,169.825647)">
				<text style="font-family: Helvetica; font-size: 10px;fill: rgb(0%,0%,0%); stroke:none;" transform="translate(0,0) scale(1,-1)" x="0" y="0">Gene_01724</text>
			</g>
			<g transform=" matrix(0.707107,-0.707107,0.707107,0.707107,886.229094,169.825647)">
				<text style="font-family: Helvetica; font-size: 10px;fill: rgb(0%,0%,0%); stroke:none;" transform="translate(0,0) scale(1,-1)" x="0" y="0">Gene_01725</text>
			</g>
			<g transform=" matrix(0.707107,0.707107,-0.707107,0.707107,947.870567,251.827897)">
				<text style="font-family: Helvetica; font-size: 10px;fill: rgb(0%,0%,0%); stroke:none;" transform="translate(0,0) scale(1,-1)" x="0" y="0">Gene_01726</text>
			</g>
			<g transform=" matrix(0.707107,0.707107,-0.707107,0.707107,999.396517,251.827897)">
				<text style="font-family: Helvetica; font-size: 10px;fill: rgb(0%,0%,0%); stroke:none;" transform="translate(0,0) scale(1,-1)" x="0" y="0">Gene_01727</text>
			</g>
			<g transform=" matrix(0.707107,0.707107,-0.707107,0.707107,1051.152365,251.827897)">
				<text style="font-family: Helvetica; font-size: 10px;fill: rgb(0%,0%,0%); stroke:none;" transform="translate(0,0) scale(1,-1)" x="0" y="0">Gene_01728</text>
			</g>
			<g transform=" matrix(0.707107,0.707107,-0.707107,0.707107,1065.722168,251.827897)">
				<text style="font-family: Helvetica; font-size: 10px;fill: rgb(0%,0%,0%); stroke:none;" transform="translate(0,0) scale(1,-1)" x="0" y="0">Gene_01729</text>
			</g>
			<g transform=" matrix(0.707107,0.707107,-0.707107,0.707107,1093.798494,251.827897)">
				<text style="font-family: Helvetica; font-size: 10px;fill: rgb(0%,0%,0%); stroke:none;" transform="translate(0,0) scale(1,-1)" x="0" y="0">Gene_01730</text>
			</g>
			<g transform=" matrix(0.707107,0.707107,-0.707107,0.707107,1132.8812,251.827897)">
				<text style="font-family: Helvetica; font-size: 10px;fill: rgb(0%,0%,0%); stroke:none;" transform="translate(0,0) scale(1,-1)" x="0" y="0">Gene_01731</text>
			</g>
			<g transform=" matrix(0.707107,0.707107,-0.707107,0.707107,99.287315,538.835771)">
				<text style="font-family: Helvetica; font-size: 10px;fill: rgb(0%,0%,0%); stroke:none;" transform="translate(0,0) scale(1,-1)" x="0" y="0">Gene_01129</text>
			</g>
			<g transform=" matrix(0.707107,0.707107,-0.707107,0.707107,144.146215,538.835771)">
				<text style="font-family: Helvetica; font-size: 10px;fill: rgb(0%,0%,0%); stroke:none;" transform="translate(0,0) scale(1,-1)" x="0" y="0">Gene_01130</text>
			</g>
			<g transform=" matrix(0.707107,0.707107,-0.707107,0.707107,180.728778,538.835771)">
				<text style="font-family: Helvetica; font-size: 10px;fill: rgb(0%,0%,0%); stroke:none;" transform="translate(0,0) scale(1,-1)" x="0" y="0">Gene_01131</text>
			</g>
			<g transform=" matrix(0.707107,0.707107,-0.707107,0.707107,218.863153,538.835771)">
				<text style="font-family: Helvetica; font-size: 10px;fill: rgb(0%,0%,0%); stroke:none;" transform="translate(0,0) scale(1,-1)" x="0" y="0">Gene_01132</text>
			</g>
			<g transform=" matrix(0.707107,0.707107,-0.707107,0.707107,262.313926,538.835771)">
				<text style="font-family: Helvetica; font-size: 10px;fill: rgb(0%,0%,0%); stroke:none;" transform="translate(0,0) scale(1,-1)" x="0" y="0">Gene_01133</text>
			</g>
			<g transform=" matrix(0.707107,0.707107,-0.707107,0.707107,322.116214,538.835771)">
				<text style="font-family: Helvetica; font-size: 10px;fill: rgb(0%,0%,0%); stroke:none;" transform="translate(0,0) scale(1,-1)" x="0" y="0">Gene_01134</text>
			</g>
			<g transform=" matrix(0.707107,-0.707107,0.707107,0.707107,385.855509,456.833521)">
				<text style="font-family: Helvetica; font-size: 10px;fill: rgb(0%,0%,0%); stroke:none;" transform="translate(0,0) scale(1,-1)" x="0" y="0">Gene_01135</text>
			</g>
			<g transform=" matrix(0.707107,0.707107,-0.707107,0.707107,445.255474,538.835771)">
				<text style="font-family: Helvetica; font-size: 10px;fill: rgb(0%,0%,0%); stroke:none;" transform="translate(0,0) scale(1,-1)" x="0" y="0">Gene_01136</text>
			</g>
			<g transform=" matrix(0.707107,0.707107,-0.707107,0.707107,519.282717,538.835771)">
				<text style="font-family: Helvetica; font-size: 10px;fill: rgb(0%,0%,0%); stroke:none;" transform="translate(0,0) scale(1,-1)" x="0" y="0">Gene_01137</text>
			</g>
			<g transform=" matrix(0.707107,0.707107,-0.707107,0.707107,591.988045,538.835771)">
				<text style="font-family: Helvetica; font-size: 10px;fill: rgb(0%,0%,0%); stroke:none;" transform="translate(0,0) scale(1,-1)" x="0" y="0">Gene_01138</text>
			</g>
			<g transform=" matrix(0.707107,0.707107,-0.707107,0.707107,651.50296,538.835771)">
				<text style="font-family: Helvetica; font-size: 10px;fill: rgb(0%,0%,0%); stroke:none;" transform="translate(0,0) scale(1,-1)" x="0" y="0">Gene_01139</text>
			</g>
			<g transform=" matrix(0.707107,0.707107,-0.707107,0.707107,680.987413,538.835771)">
				<text style="font-family: Helvetica; font-size: 10px;fill: rgb(0%,0%,0%); stroke:none;" transform="translate(0,0) scale(1,-1)" x="0" y="0">Gene_01140</text>
			</g>
			<g transform=" matrix(0.707107,-0.707107,0.707107,0.707107,732.369676,456.833521)">
				<text style="font-family: Helvetica; font-size: 16px;fill: rgb(0%,0%,100%); stroke:none;" transform="translate(0,0) scale(1,-1)" x="0" y="0">Gene_01141 (99.4)</text>
			</g>
			<g transform=" matrix(0.707107,-0.707107,0.707107,0.707107,776.02161,456.833521)">
				<text style="font-family: Helvetica; font-size: 10px;fill: rgb(0%,0%,0%); stroke:none;" transform="translate(0,0) scale(1,-1)" x="0" y="0">Gene_01142</text>
			</g>
			<g transform=" matrix(0.707107,0.707107,-0.707107,0.707107,805.448589,538.835771)">
				<text style="font-family: Helvetica; font-size: 10px;fill: rgb(0%,0%,0%); stroke:none;" transform="translate(0,0) scale(1,-1)" x="0" y="0">Gene_01143</text>
			</g>
			<g transform=" matrix(0.707107,0.707107,-0.707107,0.707107,871.975401,538.835771)">
				<text style="font-family: Helvetica; font-size: 10px;fill: rgb(0%,0%,0%); stroke:none;" transform="translate(0,0) scale(1,-1)" x="0" y="0">Gene_01144</text>
			</g>
			<g transform=" matrix(0.707107,0.707107,-0.707107,0.707107,931.835163,538.835771)">
				<text style="font-family: Helvetica; font-size: 10px;fill: rgb(0%,0%,0%); stroke:none;" transform="translate(0,0) scale(1,-1)" x="0" y="0">Gene_01145</text>
			</g>
			<g transform=" matrix(0.707107,-0.707107,0.707107,0.707107,1024.369217,456.833521)">
				<text style="font-family: Helvetica; font-size: 10px;fill: rgb(0%,0%,0%); stroke:none;" transform="translate(0,0) scale(1,-1)" x="0" y="0">Gene_01146</text>
			</g>
			<g transform=" matrix(0.707107,-0.707107,0.707107,0.707107,1119.23099,456.833521)">
				<text style="font-family: Helvetica; font-size: 10px;fill: rgb(0%,0%,0%); stroke:none;" transform="translate(0,0) scale(1,-1)" x="0" y="0">Gene_01147</text>
			</g>
			<g transform=" matrix(0.707107,-0.707107,0.707107,0.707107,1172.682338,456.833521)">
				<text style="font-family: Helvetica; font-size: 10px;fill: rgb(0%,0%,0%); stroke:none;" transform="translate(0,0) scale(1,-1)" x="0" y="0">Gene_01148</text>
			</g>
			<g transform=" matrix(0.707107,-0.707107,0.707107,0.707107,1222.052992,456.833521)">
				<text style="font-family: Helvetica; font-size: 10px;fill: rgb(0%,0%,0%); stroke:none;" transform="translate(0,0) scale(1,-1)" x="0" y="0">Gene_01149</text>
			</g>
			<g transform=" matrix(0.707107,-0.707107,0.707107,0.707107,1256.307834,456.833521)">
				<text style="font-family: Helvetica; font-size: 10px;fill: rgb(0%,0%,0%); stroke:none;" transform="translate(0,0) scale(1,-1)" x="0" y="0">Gene_01150</text>
			</g>
			<g transform=" matrix(0.707107,-0.707107,0.707107,0.707107,1300.477039,456.833521)">
				<text style="font-family: Helvetica; font-size: 10px;fill: rgb(0%,0%,0%); stroke:none;" transform="translate(0,0) scale(1,-1)" x="0" y="0">Gene_01151</text>
			</g>
			<g transform=" matrix(0.707107,-0.707107,0.707107,0.707107,1340.393126,456.833521)">
				<text style="font-family: Helvetica; font-size: 10px;fill: rgb(0%,0%,0%); stroke:none;" transform="translate(0,0) scale(1,-1)" x="0" y="0">Gene_01152</text>
			</g>
			<g transform=" matrix(1,0,-0,1,70,169.825647)">
				<text style="font-family: Helvetica; font-size: 12px;fill: rgb(60%,60%,60%); stroke:none;" transform="translate(0,0) scale(1,-1)" x="0" y="0">megahit_116474 (left 7379bp, right 26643bp)</text>
			</g>
			<g transform=" matrix(1,0,-0,1,70,456.833521)">
				<text style="font-family: Helvetica; font-size: 12px;fill: rgb(60%,60%,60%); stroke:none;" transform="translate(0,0) scale(1,-1)" x="0" y="0">megahit_12654 (left 57281bp, right 10188bp)</text>
			</g>
		</g>
	</g>
</svg>
