<?xml version="1.0" encoding="utf-8"?>
<!DOCTYPE svg
  PUBLIC '-//W3C//DTD SVG 1.0//EN'
  'http://www.w3.org/TR/2001/REC-SVG-20010904/DTD/svg10.dtd'>
<svg fill-rule="evenodd" height="708.6614173228346" preserveAspectRatio="xMinYMin meet" version="1.0" viewBox="0 0 1417 708" width="1417.3228346456692" xmlns="http://www.w3.org/2000/svg" xmlns:xlink="http://www.w3.org/1999/xlink">
	<title>...</title>
	<desc>...</desc>
	<clipPath id="clip">
		<rect height="708.6614173228346" width="1417.3228346456692" x="0" y="0"/>
	</clipPath>
	<g id="group" style="clip-path: url(#clip)" transform="scale(1,-1) translate(0,-708)">
		<g transform="">
			<polygon points="70.86614 169.8256, 1346.399 169.8256, 1346.399 251.8279, 70.86614 251.8279" style="stroke: rgb(96%,96%,96%); stroke-linecap: butt; stroke-width: 1; fill: rgb(96%,96%,96%); fill-rule: evenodd;"/>
			<polygon points="70.86614 456.8335, 1162.624 456.8335, 1162.624 538.8358, 70.86614 538.8358" style="stroke: rgb(96%,96%,96%); stroke-linecap: butt; stroke-width: 1; fill: rgb(96%,96%,96%); fill-rule: evenodd;"/>
			<polygon points="119.9229 456.8335, 386.81 456.8335, 950.1224 251.8279, 1222.338 251.8279" style="stroke: rgb(100%,36%,36%); stroke-linecap: round; stroke-width: 1; fill: rgb(100%,36%,36%); fill-rule: evenodd;"/>
			<polygon points="548.923 456.8335, 750.0729 456.8335, 610.6638 251.8279, 812.1613 251.8279" style="stroke: rgb(100%,47%,47%); stroke-linecap: round; stroke-width: 1; fill: rgb(100%,47%,47%); fill-rule: evenodd;"/>
			<polygon points="395.4977 456.8335, 496.4491 456.8335, 841.5837 251.8279, 942.651 251.8279" style="stroke: rgb(100%,33%,33%); stroke-linecap: round; stroke-width: 1; fill: rgb(100%,33%,33%); fill-rule: evenodd;"/>
			<polygon points="955.0455 456.8335, 1041.402 456.8335, 385.9991 251.8279, 476.2936 251.8279" style="stroke: rgb(100%,39%,39%); stroke-linecap: round; stroke-width: 1; fill: rgb(100%,39%,39%); fill-rule: evenodd;"/>
			<polygon points="1042.734 456.8335, 1099.204 456.8335, 324.49 251.8279, 380.9602 251.8279" style="stroke: rgb(100%,36%,36%); stroke-linecap: round; stroke-width: 1; fill: rgb(100%,36%,36%); fill-rule: evenodd;"/>
			<polygon points="83.1448 456.8335, 117.722 456.8335, 1228.941 251.8279, 1263.402 251.8279" style="stroke: rgb(100%,30%,30%); stroke-linecap: round; stroke-width: 1; fill: rgb(100%,30%,30%); fill-rule: evenodd;"/>
			<polygon points="1108.413 456.8335, 1144.264 456.8335, 286.959 251.8279, 322.8683 251.8279" style="stroke: rgb(100%,44%,44%); stroke-linecap: round; stroke-width: 1; fill: rgb(100%,44%,44%); fill-rule: evenodd;"/>
			<polygon points="813.0879 456.8335, 857.2216 456.8335, 523.2652 251.8279, 567.5148 251.8279" style="stroke: rgb(100%,51%,51%); stroke-linecap: round; stroke-width: 1; fill: rgb(100%,51%,51%); fill-rule: evenodd;"/>
			<polygon points="769.3597 456.8335, 804.9215 456.8335, 568.4994 251.8279, 604.0611 251.8279" style="stroke: rgb(100%,50%,50%); stroke-linecap: round; stroke-width: 1; fill: rgb(100%,50%,50%); fill-rule: evenodd;"/>
			<polygon points="513.1875 456.8335, 536.7602 456.8335, 812.2192 251.8279, 835.7919 251.8279" style="stroke: rgb(100%,40%,40%); stroke-linecap: round; stroke-width: 1; fill: rgb(100%,40%,40%); fill-rule: evenodd;"/>
			<polygon points="876.3346 456.8335, 890.0612 456.8335, 492.7423 251.8279, 506.411 251.8279" style="stroke: rgb(100%,46%,46%); stroke-linecap: round; stroke-width: 1; fill: rgb(100%,46%,46%); fill-rule: evenodd;"/>
			<polygon points="123.2821 200.5765, 87.26659 200.5765, 87.26659 210.8268, 70.86614 190.3262, 87.26659 169.8256, 87.26659 180.0759, 123.2821 180.0759" style="stroke: rgb(56%,93%,56%); stroke-linecap: round; stroke-width: 1; fill: rgb(56%,93%,56%); fill-rule: evenodd;"/>
			<polygon points="196.7803 200.5765, 154.1621 200.5765, 154.1621 210.8268, 137.7617 190.3262, 154.1621 169.8256, 154.1621 180.0759, 196.7803 180.0759" style="stroke: rgb(56%,93%,56%); stroke-linecap: round; stroke-width: 1; fill: rgb(56%,93%,56%); fill-rule: evenodd;"/>
			<polygon points="269.8731 200.5765, 214.3971 200.5765, 214.3971 210.8268, 197.9966 190.3262, 214.3971 169.8256, 214.3971 180.0759, 269.8731 180.0759" style="stroke: rgb(56%,93%,56%); stroke-linecap: round; stroke-width: 1; fill: rgb(56%,93%,56%); fill-rule: evenodd;"/>
			<polygon points="318.0031 200.5765, 303.3594 200.5765, 303.3594 210.8268, 286.959 190.3262, 303.3594 169.8256, 303.3594 180.0759, 318.0031 180.0759" style="stroke: rgb(56%,93%,56%); stroke-linecap: round; stroke-width: 1; fill: rgb(56%,93%,56%); fill-rule: evenodd;"/>
			<polygon points="379.8018 200.5765, 340.1375 200.5765, 340.1375 210.8268, 323.737 190.3262, 340.1375 169.8256, 340.1375 180.0759, 379.8018 180.0759" style="stroke: rgb(56%,93%,56%); stroke-linecap: round; stroke-width: 1; fill: rgb(56%,93%,56%); fill-rule: evenodd;"/>
			<polygon points="420.4604 200.5765, 402.5154 200.5765, 402.5154 210.8268, 386.1149 190.3262, 402.5154 169.8256, 402.5154 180.0759, 420.4604 180.0759" style="stroke: rgb(56%,93%,56%); stroke-linecap: round; stroke-width: 1; fill: rgb(56%,93%,56%); fill-rule: evenodd;"/>
			<polygon points="444.7282 200.5765, 437.9034 200.5765, 437.9034 210.8268, 421.503 190.3262, 437.9034 169.8256, 437.9034 180.0759, 444.7282 180.0759" style="stroke: rgb(56%,93%,56%); stroke-linecap: round; stroke-width: 1; fill: rgb(56%,93%,56%); fill-rule: evenodd;"/>
			<polygon points="475.0773 200.5765, 470.1638 200.5765, 470.1638 210.8268, 453.7634 190.3262, 470.1638 169.8256, 470.1638 180.0759, 475.0773 180.0759" style="stroke: rgb(56%,93%,56%); stroke-linecap: round; stroke-width: 1; fill: rgb(56%,93%,56%); fill-rule: evenodd;"/>
			<polygon points="505.4844 200.5765, 505.4844 210.8268, 492.8582 190.3262, 505.4844 169.8256, 505.4844 180.0759" style="stroke: rgb(56%,93%,56%); stroke-linecap: round; stroke-width: 1; fill: rgb(56%,93%,56%); fill-rule: evenodd;"/>
			<polygon points="521.9331 200.5765, 521.9331 210.8268, 505.8319 190.3262, 521.9331 169.8256, 521.9331 180.0759" style="stroke: rgb(56%,93%,56%); stroke-linecap: round; stroke-width: 1; fill: rgb(56%,93%,56%); fill-rule: evenodd;"/>
			<polygon points="566.5301 200.5765, 538.5073 200.5765, 538.5073 210.8268, 522.1069 190.3262, 538.5073 169.8256, 538.5073 180.0759, 566.5301 180.0759" style="stroke: rgb(56%,93%,56%); stroke-linecap: round; stroke-width: 1; fill: rgb(56%,93%,56%); fill-rule: evenodd;"/>
			<polygon points="604.0611 200.5765, 583.1623 200.5765, 583.1623 210.8268, 566.7618 190.3262, 583.1623 169.8256, 583.1623 180.0759, 604.0611 180.0759" style="stroke: rgb(56%,93%,56%); stroke-linecap: round; stroke-width: 1; fill: rgb(56%,93%,56%); fill-rule: evenodd;"/>
			<polygon points="685.7837 200.5765, 625.2688 200.5765, 625.2688 210.8268, 608.8683 190.3262, 625.2688 169.8256, 625.2688 180.0759, 685.7837 180.0759" style="stroke: rgb(56%,93%,56%); stroke-linecap: round; stroke-width: 1; fill: rgb(56%,93%,56%); fill-rule: evenodd;"/>
			<polygon points="711.3836 200.5765, 702.3 200.5765, 702.3 210.8268, 685.8996 190.3262, 702.3 169.8256, 702.3 180.0759, 711.3836 180.0759" style="stroke: rgb(56%,93%,56%); stroke-linecap: round; stroke-width: 1; fill: rgb(56%,93%,56%); fill-rule: evenodd;"/>
			<polygon points="723.3726 200.5765, 723.3726 210.8268, 712.8315 190.3262, 723.3726 169.8256, 723.3726 180.0759" style="stroke: rgb(56%,93%,56%); stroke-linecap: round; stroke-width: 1; fill: rgb(56%,93%,56%); fill-rule: evenodd;"/>
			<polygon points="753.6639 200.5765, 740.5839 200.5765, 740.5839 210.8268, 724.1835 190.3262, 740.5839 169.8256, 740.5839 180.0759, 753.6639 180.0759" style="stroke: rgb(56%,93%,56%); stroke-linecap: round; stroke-width: 1; fill: rgb(56%,93%,56%); fill-rule: evenodd;"/>
			<polygon points="776.0782 200.5765, 771.1648 200.5765, 771.1648 210.8268, 754.7643 190.3262, 771.1648 169.8256, 771.1648 180.0759, 776.0782 180.0759" style="stroke: rgb(56%,93%,56%); stroke-linecap: round; stroke-width: 1; fill: rgb(56%,93%,56%); fill-rule: evenodd;"/>
			<polygon points="808.5124 200.5765, 793.5212 200.5765, 793.5212 210.8268, 777.1207 190.3262, 793.5212 169.8256, 793.5212 180.0759, 808.5124 180.0759" style="stroke: rgb(56%,93%,56%); stroke-linecap: round; stroke-width: 1; fill: rgb(56%,93%,56%); fill-rule: evenodd;"/>
			<polygon points="835.7919 200.5765, 828.9671 200.5765, 828.9671 210.8268, 812.5667 190.3262, 828.9671 169.8256, 828.9671 180.0759, 835.7919 180.0759" style="stroke: rgb(56%,93%,56%); stroke-linecap: round; stroke-width: 1; fill: rgb(56%,93%,56%); fill-rule: evenodd;"/>
			<polygon points="852.2406 200.5765, 852.2406 210.8268, 841.5258 190.3262, 852.2406 169.8256, 852.2406 180.0759" style="stroke: rgb(56%,93%,56%); stroke-linecap: round; stroke-width: 1; fill: rgb(56%,93%,56%); fill-rule: evenodd;"/>
			<polygon points="884.4432 200.5765, 869.6257 200.5765, 869.6257 210.8268, 853.2253 190.3262, 869.6257 169.8256, 869.6257 180.0759, 884.4432 180.0759" style="stroke: rgb(56%,93%,56%); stroke-linecap: round; stroke-width: 1; fill: rgb(56%,93%,56%); fill-rule: evenodd;"/>
			<polygon points="903.3824 200.5765, 902.1178 200.5765, 902.1178 210.8268, 885.7174 190.3262, 902.1178 169.8256, 902.1178 180.0759, 903.3824 180.0759" style="stroke: rgb(56%,93%,56%); stroke-linecap: round; stroke-width: 1; fill: rgb(56%,93%,56%); fill-rule: evenodd;"/>
			<polygon points="925.5072 200.5765, 920.5937 200.5765, 920.5937 210.8268, 904.1933 190.3262, 920.5937 169.8256, 920.5937 180.0759, 925.5072 180.0759" style="stroke: rgb(56%,93%,56%); stroke-linecap: round; stroke-width: 1; fill: rgb(56%,93%,56%); fill-rule: evenodd;"/>
			<polygon points="941.6084 200.5765, 941.6084 210.8268, 926.8972 190.3262, 941.6084 169.8256, 941.6084 180.0759" style="stroke: rgb(56%,93%,56%); stroke-linecap: round; stroke-width: 1; fill: rgb(56%,93%,56%); fill-rule: evenodd;"/>
			<polygon points="961.1269 200.5765, 961.1269 210.8268, 949.1957 190.3262, 961.1269 169.8256, 961.1269 180.0759" style="stroke: rgb(56%,93%,56%); stroke-linecap: round; stroke-width: 1; fill: rgb(56%,93%,56%); fill-rule: evenodd;"/>
			<polygon points="985.8579 200.5765, 976.9481 200.5765, 976.9481 210.8268, 960.5477 190.3262, 976.9481 169.8256, 976.9481 180.0759, 985.8579 180.0759" style="stroke: rgb(56%,93%,56%); stroke-linecap: round; stroke-width: 1; fill: rgb(56%,93%,56%); fill-rule: evenodd;"/>
			<polygon points="1023.852 200.5765, 1002.258 200.5765, 1002.258 210.8268, 985.8579 190.3262, 1002.258 169.8256, 1002.258 180.0759, 1023.852 180.0759" style="stroke: rgb(56%,93%,56%); stroke-linecap: round; stroke-width: 1; fill: rgb(56%,93%,56%); fill-rule: evenodd;"/>
			<polygon points="1046.904 200.5765, 1040.948 200.5765, 1040.948 210.8268, 1024.547 190.3262, 1040.948 169.8256, 1040.948 180.0759, 1046.904 180.0759" style="stroke: rgb(56%,93%,56%); stroke-linecap: round; stroke-width: 1; fill: rgb(56%,93%,56%); fill-rule: evenodd;"/>
			<polygon points="1067.638 200.5765, 1067.638 210.8268, 1051.363 190.3262, 1067.638 169.8256, 1067.638 180.0759" style="stroke: rgb(56%,93%,56%); stroke-linecap: round; stroke-width: 1; fill: rgb(56%,93%,56%); fill-rule: evenodd;"/>
			<polygon points="1117.911 200.5765, 1085.197 200.5765, 1085.197 210.8268, 1068.797 190.3262, 1085.197 169.8256, 1085.197 180.0759, 1117.911 180.0759" style="stroke: rgb(56%,93%,56%); stroke-linecap: round; stroke-width: 1; fill: rgb(56%,93%,56%); fill-rule: evenodd;"/>
			<polygon points="1144.206 200.5765, 1143.289 200.5765, 1143.289 210.8268, 1126.889 190.3262, 1143.289 169.8256, 1143.289 180.0759, 1144.206 180.0759" style="stroke: rgb(56%,93%,56%); stroke-linecap: round; stroke-width: 1; fill: rgb(56%,93%,56%); fill-rule: evenodd;"/>
			<polygon points="1180.116 200.5765, 1160.607 200.5765, 1160.607 210.8268, 1144.206 190.3262, 1160.607 169.8256, 1160.607 180.0759, 1180.116 180.0759" style="stroke: rgb(56%,93%,56%); stroke-linecap: round; stroke-width: 1; fill: rgb(56%,93%,56%); fill-rule: evenodd;"/>
			<polygon points="1218.631 200.5765, 1198.254 200.5765, 1198.254 210.8268, 1181.853 190.3262, 1198.254 169.8256, 1198.254 180.0759, 1218.631 180.0759" style="stroke: rgb(56%,93%,56%); stroke-linecap: round; stroke-width: 1; fill: rgb(56%,93%,56%); fill-rule: evenodd;"/>
			<polygon points="1247.301 200.5765, 1245.341 200.5765, 1245.341 210.8268, 1228.941 190.3262, 1245.341 169.8256, 1245.341 180.0759, 1247.301 180.0759" style="stroke: rgb(56%,93%,56%); stroke-linecap: round; stroke-width: 1; fill: rgb(56%,93%,56%); fill-rule: evenodd;"/>
			<polygon points="1258.016 200.5765, 1258.016 210.8268, 1246.432 190.3262, 1258.016 169.8256, 1258.016 180.0759" style="stroke: rgb(56%,93%,56%); stroke-linecap: round; stroke-width: 1; fill: rgb(56%,93%,56%); fill-rule: evenodd;"/>
			<polygon points="1346.399 200.5765, 1284.32 200.5765, 1284.32 210.8268, 1267.92 190.3262, 1284.32 169.8256, 1284.32 180.0759, 1346.399 180.0759" style="stroke: rgb(56%,93%,56%); stroke-linecap: round; stroke-width: 1; fill: rgb(56%,93%,56%); fill-rule: evenodd;"/>
			<polygon points="99.3619 528.5855, 101.3215 528.5855, 101.3215 538.8358, 117.722 518.3352, 101.3215 497.8346, 101.3215 508.0849, 99.3619 508.0849" style="stroke: rgb(67%,84%,90%); stroke-linecap: round; stroke-width: 1; fill: rgb(67%,84%,90%); fill-rule: evenodd;"/>
			<polygon points="123.8613 528.5855, 144.2389 528.5855, 144.2389 538.8358, 160.6394 518.3352, 144.2389 497.8346, 144.2389 508.0849, 123.8613 508.0849" style="stroke: rgb(67%,84%,90%); stroke-linecap: round; stroke-width: 1; fill: rgb(67%,84%,90%); fill-rule: evenodd;"/>
			<polygon points="162.2611 528.5855, 181.4224 528.5855, 181.4224 538.8358, 197.8228 518.3352, 181.4224 497.8346, 181.4224 508.0849, 162.2611 508.0849" style="stroke: rgb(67%,84%,90%); stroke-linecap: round; stroke-width: 1; fill: rgb(67%,84%,90%); fill-rule: evenodd;"/>
			<polygon points="197.8228 528.5855, 198.7399 528.5855, 198.7399 538.8358, 215.1404 518.3352, 198.7399 497.8346, 198.7399 508.0849, 197.8228 508.0849" style="stroke: rgb(67%,84%,90%); stroke-linecap: round; stroke-width: 1; fill: rgb(67%,84%,90%); fill-rule: evenodd;"/>
			<polygon points="222.1485 528.5855, 254.3414 528.5855, 254.3414 538.8358, 270.7419 518.3352, 254.3414 497.8346, 254.3414 508.0849, 222.1485 508.0849" style="stroke: rgb(67%,84%,90%); stroke-linecap: round; stroke-width: 1; fill: rgb(67%,84%,90%); fill-rule: evenodd;"/>
			<polygon points="272.074 528.5855, 272.074 538.8358, 288.1752 518.3352, 272.074 497.8346, 272.074 508.0849" style="stroke: rgb(67%,84%,90%); stroke-linecap: round; stroke-width: 1; fill: rgb(67%,84%,90%); fill-rule: evenodd;"/>
			<polygon points="289.8549 528.5855, 295.8109 528.5855, 295.8109 538.8358, 312.2113 518.3352, 295.8109 497.8346, 295.8109 508.0849, 289.8549 508.0849" style="stroke: rgb(67%,84%,90%); stroke-linecap: round; stroke-width: 1; fill: rgb(67%,84%,90%); fill-rule: evenodd;"/>
			<polygon points="313.0801 528.5855, 334.674 528.5855, 334.674 538.8358, 351.0744 518.3352, 334.674 497.8346, 334.674 508.0849, 313.0801 508.0849" style="stroke: rgb(67%,84%,90%); stroke-linecap: round; stroke-width: 1; fill: rgb(67%,84%,90%); fill-rule: evenodd;"/>
			<polygon points="351.0744 528.5855, 359.9842 528.5855, 359.9842 538.8358, 376.3847 518.3352, 359.9842 497.8346, 359.9842 508.0849, 351.0744 508.0849" style="stroke: rgb(67%,84%,90%); stroke-linecap: round; stroke-width: 1; fill: rgb(67%,84%,90%); fill-rule: evenodd;"/>
			<polygon points="375.8055 528.5855, 375.8055 538.8358, 387.7366 518.3352, 375.8055 497.8346, 375.8055 508.0849" style="stroke: rgb(67%,84%,90%); stroke-linecap: round; stroke-width: 1; fill: rgb(67%,84%,90%); fill-rule: evenodd;"/>
			<polygon points="396.5402 528.5855, 396.5402 538.8358, 411.2514 518.3352, 396.5402 497.8346, 396.5402 508.0849" style="stroke: rgb(67%,84%,90%); stroke-linecap: round; stroke-width: 1; fill: rgb(67%,84%,90%); fill-rule: evenodd;"/>
			<polygon points="412.6415 528.5855, 417.5549 528.5855, 417.5549 538.8358, 433.9554 518.3352, 417.5549 497.8346, 417.5549 508.0849, 412.6415 508.0849" style="stroke: rgb(67%,84%,90%); stroke-linecap: round; stroke-width: 1; fill: rgb(67%,84%,90%); fill-rule: evenodd;"/>
			<polygon points="434.7662 528.5855, 436.0308 528.5855, 436.0308 538.8358, 452.4313 518.3352, 436.0308 497.8346, 436.0308 508.0849, 434.7662 508.0849" style="stroke: rgb(67%,84%,90%); stroke-linecap: round; stroke-width: 1; fill: rgb(67%,84%,90%); fill-rule: evenodd;"/>
			<polygon points="453.7055 528.5855, 468.5229 528.5855, 468.5229 538.8358, 484.9234 518.3352, 468.5229 497.8346, 468.5229 508.0849, 453.7055 508.0849" style="stroke: rgb(67%,84%,90%); stroke-linecap: round; stroke-width: 1; fill: rgb(67%,84%,90%); fill-rule: evenodd;"/>
			<polygon points="485.7922 528.5855, 485.7922 538.8358, 496.507 518.3352, 485.7922 497.8346, 485.7922 508.0849" style="stroke: rgb(67%,84%,90%); stroke-linecap: round; stroke-width: 1; fill: rgb(67%,84%,90%); fill-rule: evenodd;"/>
			<polygon points="513.1875 528.5855, 520.0122 528.5855, 520.0122 538.8358, 536.4127 518.3352, 520.0122 497.8346, 520.0122 508.0849, 513.1875 508.0849" style="stroke: rgb(67%,84%,90%); stroke-linecap: round; stroke-width: 1; fill: rgb(67%,84%,90%); fill-rule: evenodd;"/>
			<polygon points="552.7456 528.5855, 567.7368 528.5855, 567.7368 538.8358, 584.1373 518.3352, 567.7368 497.8346, 567.7368 508.0849, 552.7456 508.0849" style="stroke: rgb(67%,84%,90%); stroke-linecap: round; stroke-width: 1; fill: rgb(67%,84%,90%); fill-rule: evenodd;"/>
			<polygon points="585.1798 528.5855, 590.0933 528.5855, 590.0933 538.8358, 606.4937 518.3352, 590.0933 497.8346, 590.0933 508.0849, 585.1798 508.0849" style="stroke: rgb(67%,84%,90%); stroke-linecap: round; stroke-width: 1; fill: rgb(67%,84%,90%); fill-rule: evenodd;"/>
			<polygon points="607.71 528.5855, 620.7899 528.5855, 620.7899 538.8358, 637.1904 518.3352, 620.7899 497.8346, 620.7899 508.0849, 607.71 508.0849" style="stroke: rgb(67%,84%,90%); stroke-linecap: round; stroke-width: 1; fill: rgb(67%,84%,90%); fill-rule: evenodd;"/>
			<polygon points="638.175 528.5855, 638.175 538.8358, 648.7161 518.3352, 638.175 497.8346, 638.175 508.0849" style="stroke: rgb(67%,84%,90%); stroke-linecap: round; stroke-width: 1; fill: rgb(67%,84%,90%); fill-rule: evenodd;"/>
			<polygon points="650.0482 528.5855, 659.1318 528.5855, 659.1318 538.8358, 675.5322 518.3352, 659.1318 497.8346, 659.1318 508.0849, 650.0482 508.0849" style="stroke: rgb(67%,84%,90%); stroke-linecap: round; stroke-width: 1; fill: rgb(67%,84%,90%); fill-rule: evenodd;"/>
			<polygon points="675.648 528.5855, 735.4679 528.5855, 735.4679 538.8358, 751.8684 518.3352, 735.4679 497.8346, 735.4679 508.0849, 675.648 508.0849" style="stroke: rgb(67%,84%,90%); stroke-linecap: round; stroke-width: 1; fill: rgb(67%,84%,90%); fill-rule: evenodd;"/>
			<polygon points="769.3597 528.5855, 790.0848 528.5855, 790.0848 538.8358, 806.4853 518.3352, 790.0848 497.8346, 790.0848 508.0849, 769.3597 508.0849" style="stroke: rgb(67%,84%,90%); stroke-linecap: round; stroke-width: 1; fill: rgb(67%,84%,90%); fill-rule: evenodd;"/>
			<polygon points="814.0726 528.5855, 841.2266 528.5855, 841.2266 538.8358, 857.627 518.3352, 841.2266 497.8346, 841.2266 508.0849, 814.0726 508.0849" style="stroke: rgb(67%,84%,90%); stroke-linecap: round; stroke-width: 1; fill: rgb(67%,84%,90%); fill-rule: evenodd;"/>
			<polygon points="860.3492 528.5855, 860.3492 538.8358, 876.2767 518.3352, 860.3492 497.8346, 860.3492 508.0849" style="stroke: rgb(67%,84%,90%); stroke-linecap: round; stroke-width: 1; fill: rgb(67%,84%,90%); fill-rule: evenodd;"/>
			<polygon points="877.3192 528.5855, 877.3192 538.8358, 889.9454 518.3352, 877.3192 497.8346, 877.3192 508.0849" style="stroke: rgb(67%,84%,90%); stroke-linecap: round; stroke-width: 1; fill: rgb(67%,84%,90%); fill-rule: evenodd;"/>
			<polygon points="902.3399 528.5855, 902.3399 538.8358, 917.9199 518.3352, 902.3399 497.8346, 902.3399 508.0849" style="stroke: rgb(67%,84%,90%); stroke-linecap: round; stroke-width: 1; fill: rgb(67%,84%,90%); fill-rule: evenodd;"/>
			<polygon points="956.2617 528.5855, 961.1752 528.5855, 961.1752 538.8358, 977.5756 518.3352, 961.1752 497.8346, 961.1752 508.0849, 956.2617 508.0849" style="stroke: rgb(67%,84%,90%); stroke-linecap: round; stroke-width: 1; fill: rgb(67%,84%,90%); fill-rule: evenodd;"/>
			<polygon points="982.6145 528.5855, 989.4393 528.5855, 989.4393 538.8358, 1005.84 518.3352, 989.4393 497.8346, 989.4393 508.0849, 982.6145 508.0849" style="stroke: rgb(67%,84%,90%); stroke-linecap: round; stroke-width: 1; fill: rgb(67%,84%,90%); fill-rule: evenodd;"/>
			<polygon points="1006.94 528.5855, 1024.885 528.5855, 1024.885 538.8358, 1041.286 518.3352, 1024.885 497.8346, 1024.885 508.0849, 1006.94 508.0849" style="stroke: rgb(67%,84%,90%); stroke-linecap: round; stroke-width: 1; fill: rgb(67%,84%,90%); fill-rule: evenodd;"/>
			<polygon points="1043.892 528.5855, 1083.035 528.5855, 1083.035 538.8358, 1099.436 518.3352, 1083.035 497.8346, 1083.035 508.0849, 1043.892 508.0849" style="stroke: rgb(67%,84%,90%); stroke-linecap: round; stroke-width: 1; fill: rgb(67%,84%,90%); fill-rule: evenodd;"/>
			<polygon points="1113.22 528.5855, 1127.864 528.5855, 1127.864 538.8358, 1144.264 518.3352, 1127.864 497.8346, 1127.864 508.0849, 1113.22 508.0849" style="stroke: rgb(67%,84%,90%); stroke-linecap: round; stroke-width: 1; fill: rgb(67%,84%,90%); fill-rule: evenodd;"/>
			<path d="M 1346.398775,169.825647 L 1346.398775,251.827897 Z" style="stroke: rgb(0%,0%,0%); stroke-linecap: butt; stroke-width: 1;"/>
			<path d="M 70.866142,210.826772 L 1346.398775,210.826772 Z" style="stroke: rgb(0%,0%,0%); stroke-linecap: butt; stroke-width: 1;"/>
			<path d="M 70.866142,169.825647 L 70.866142,251.827897 Z" style="stroke: rgb(0%,0%,0%); stroke-linecap: butt; stroke-width: 1;"/>
			<path d="M 650.048194,210.826772 L 650.048194,231.327334 Z" style="stroke: rgb(0%,0%,0%); stroke-linecap: butt; stroke-width: 1;"/>
			<path d="M 1229.230246,210.826772 L 1229.230246,231.327334 Z" style="stroke: rgb(0%,0%,0%); stroke-linecap: butt; stroke-width: 1;"/>
			<path d="M 650.048194,210.826772 L 650.048194,223.127109 Z" style="stroke: rgb(0%,0%,0%); stroke-linecap: butt; stroke-width: 1;"/>
			<path d="M 1229.230246,210.826772 L 1229.230246,223.127109 Z" style="stroke: rgb(0%,0%,0%); stroke-linecap: butt; stroke-width: 1;"/>
			<path d="M 1162.62431,456.833521 L 1162.62431,538.835771 Z" style="stroke: rgb(0%,0%,0%); stroke-linecap: butt; stroke-width: 1;"/>
			<path d="M 70.866142,497.834646 L 1162.62431,497.834646 Z" style="stroke: rgb(0%,0%,0%); stroke-linecap: butt; stroke-width: 1;"/>
			<path d="M 70.866142,456.833521 L 70.866142,538.835771 Z" style="stroke: rgb(0%,0%,0%); stroke-linecap: butt; stroke-width: 1;"/>
			<path d="M 650.048194,497.834646 L 650.048194,518.335208 Z" style="stroke: rgb(0%,0%,0%); stroke-linecap: butt; stroke-width: 1;"/>
			<path d="M 650.048194,497.834646 L 650.048194,510.134983 Z" style="stroke: rgb(0%,0%,0%); stroke-linecap: butt; stroke-width: 1;"/>
			<g transform=" matrix(0.707107,0.707107,-0.707107,0.707107,650.048194,231.327334)">
				<text style="font-family: Helvetica; font-size: 6px;fill: rgb(0%,0%,0%); stroke:none;" transform="translate(0,0) scale(1,-1)" x="0" y="0">10000</text>
			</g>
			<g transform=" matrix(0.707107,0.707107,-0.707107,0.707107,1229.230246,231.327334)">
				<text style="font-family: Helvetica; font-size: 6px;fill: rgb(0%,0%,0%); stroke:none;" transform="translate(0,0) scale(1,-1)" x="0" y="0">20000</text>
			</g>
			<g transform=" matrix(0.707107,0.707107,-0.707107,0.707107,650.048194,518.335208)">
				<text style="font-family: Helvetica; font-size: 6px;fill: rgb(0%,0%,0%); stroke:none;" transform="translate(0,0) scale(1,-1)" x="0" y="0">10000</text>
			</g>
			<g transform=" matrix(0.707107,-0.707107,0.707107,0.707107,97.07413,169.825647)">
				<text style="font-family: Helvetica; font-size: 10px;fill: rgb(0%,0%,0%); stroke:none;" transform="translate(0,0) scale(1,-1)" x="0" y="0">Gene_00744</text>
			</g>
			<g transform=" matrix(0.707107,-0.707107,0.707107,0.707107,167.270994,169.825647)">
				<text style="font-family: Helvetica; font-size: 10px;fill: rgb(0%,0%,0%); stroke:none;" transform="translate(0,0) scale(1,-1)" x="0" y="0">Gene_00745</text>
			</g>
			<g transform=" matrix(0.707107,-0.707107,0.707107,0.707107,233.934848,169.825647)">
				<text style="font-family: Helvetica; font-size: 10px;fill: rgb(0%,0%,0%); stroke:none;" transform="translate(0,0) scale(1,-1)" x="0" y="0">Gene_00746</text>
			</g>
			<g transform=" matrix(0.707107,-0.707107,0.707107,0.707107,302.481044,169.825647)">
				<text style="font-family: Helvetica; font-size: 10px;fill: rgb(0%,0%,0%); stroke:none;" transform="translate(0,0) scale(1,-1)" x="0" y="0">Gene_00747</text>
			</g>
			<g transform=" matrix(0.707107,-0.707107,0.707107,0.707107,351.769437,169.825647)">
				<text style="font-family: Helvetica; font-size: 10px;fill: rgb(0%,0%,0%); stroke:none;" transform="translate(0,0) scale(1,-1)" x="0" y="0">Gene_00748</text>
			</g>
			<g transform=" matrix(0.707107,-0.707107,0.707107,0.707107,403.28768,169.825647)">
				<text style="font-family: Helvetica; font-size: 10px;fill: rgb(0%,0%,0%); stroke:none;" transform="translate(0,0) scale(1,-1)" x="0" y="0">Gene_00749</text>
			</g>
			<g transform=" matrix(0.707107,-0.707107,0.707107,0.707107,433.115556,169.825647)">
				<text style="font-family: Helvetica; font-size: 10px;fill: rgb(0%,0%,0%); stroke:none;" transform="translate(0,0) scale(1,-1)" x="0" y="0">Gene_00750</text>
			</g>
			<g transform=" matrix(0.707107,-0.707107,0.707107,0.707107,464.420346,169.825647)">
				<text style="font-family: Helvetica; font-size: 10px;fill: rgb(0%,0%,0%); stroke:none;" transform="translate(0,0) scale(1,-1)" x="0" y="0">Gene_00751</text>
			</g>
			<g transform=" matrix(0.707107,-0.707107,0.707107,0.707107,499.171269,169.825647)">
				<text style="font-family: Helvetica; font-size: 10px;fill: rgb(0%,0%,0%); stroke:none;" transform="translate(0,0) scale(1,-1)" x="0" y="0">Gene_00752</text>
			</g>
			<g transform=" matrix(0.707107,-0.707107,0.707107,0.707107,513.882493,169.825647)">
				<text style="font-family: Helvetica; font-size: 10px;fill: rgb(0%,0%,0%); stroke:none;" transform="translate(0,0) scale(1,-1)" x="0" y="0">Gene_00753</text>
			</g>
			<g transform=" matrix(0.707107,-0.707107,0.707107,0.707107,544.31851,169.825647)">
				<text style="font-family: Helvetica; font-size: 10px;fill: rgb(0%,0%,0%); stroke:none;" transform="translate(0,0) scale(1,-1)" x="0" y="0">Gene_00754</text>
			</g>
			<g transform=" matrix(0.707107,-0.707107,0.707107,0.707107,585.411477,169.825647)">
				<text style="font-family: Helvetica; font-size: 10px;fill: rgb(0%,0%,0%); stroke:none;" transform="translate(0,0) scale(1,-1)" x="0" y="0">Gene_00755</text>
			</g>
			<g transform=" matrix(0.707107,-0.707107,0.707107,0.707107,647.326038,169.825647)">
				<text style="font-family: Helvetica; font-size: 10px;fill: rgb(0%,0%,0%); stroke:none;" transform="translate(0,0) scale(1,-1)" x="0" y="0">Gene_00756</text>
			</g>
			<g transform=" matrix(0.707107,-0.707107,0.707107,0.707107,698.641568,169.825647)">
				<text style="font-family: Helvetica; font-size: 16px;fill: rgb(0%,0%,100%); stroke:none;" transform="translate(0,0) scale(1,-1)" x="0" y="0">Gene_00757 (83.3)</text>
			</g>
			<g transform=" matrix(0.707107,-0.707107,0.707107,0.707107,718.102085,169.825647)">
				<text style="font-family: Helvetica; font-size: 10px;fill: rgb(0%,0%,0%); stroke:none;" transform="translate(0,0) scale(1,-1)" x="0" y="0">Gene_00758</text>
			</g>
			<g transform=" matrix(0.707107,-0.707107,0.707107,0.707107,738.92368,169.825647)">
				<text style="font-family: Helvetica; font-size: 10px;fill: rgb(0%,0%,0%); stroke:none;" transform="translate(0,0) scale(1,-1)" x="0" y="0">Gene_00759</text>
			</g>
			<g transform=" matrix(0.707107,-0.707107,0.707107,0.707107,765.421258,169.825647)">
				<text style="font-family: Helvetica; font-size: 10px;fill: rgb(0%,0%,0%); stroke:none;" transform="translate(0,0) scale(1,-1)" x="0" y="0">Gene_00760</text>
			</g>
			<g transform=" matrix(0.707107,-0.707107,0.707107,0.707107,792.816569,169.825647)">
				<text style="font-family: Helvetica; font-size: 10px;fill: rgb(0%,0%,0%); stroke:none;" transform="translate(0,0) scale(1,-1)" x="0" y="0">Gene_00761</text>
			</g>
			<g transform=" matrix(0.707107,-0.707107,0.707107,0.707107,824.179278,169.825647)">
				<text style="font-family: Helvetica; font-size: 10px;fill: rgb(0%,0%,0%); stroke:none;" transform="translate(0,0) scale(1,-1)" x="0" y="0">Gene_00762</text>
			</g>
			<g transform=" matrix(0.707107,-0.707107,0.707107,0.707107,846.883214,169.825647)">
				<text style="font-family: Helvetica; font-size: 10px;fill: rgb(0%,0%,0%); stroke:none;" transform="translate(0,0) scale(1,-1)" x="0" y="0">Gene_00763</text>
			</g>
			<g transform=" matrix(0.707107,-0.707107,0.707107,0.707107,868.834214,169.825647)">
				<text style="font-family: Helvetica; font-size: 10px;fill: rgb(0%,0%,0%); stroke:none;" transform="translate(0,0) scale(1,-1)" x="0" y="0">Gene_00764</text>
			</g>
			<g transform=" matrix(0.707107,-0.707107,0.707107,0.707107,894.549897,169.825647)">
				<text style="font-family: Helvetica; font-size: 10px;fill: rgb(0%,0%,0%); stroke:none;" transform="translate(0,0) scale(1,-1)" x="0" y="0">Gene_00765</text>
			</g>
			<g transform=" matrix(0.707107,-0.707107,0.707107,0.707107,914.850228,169.825647)">
				<text style="font-family: Helvetica; font-size: 10px;fill: rgb(0%,0%,0%); stroke:none;" transform="translate(0,0) scale(1,-1)" x="0" y="0">Gene_00766</text>
			</g>
			<g transform=" matrix(0.707107,-0.707107,0.707107,0.707107,934.252827,169.825647)">
				<text style="font-family: Helvetica; font-size: 10px;fill: rgb(0%,0%,0%); stroke:none;" transform="translate(0,0) scale(1,-1)" x="0" y="0">Gene_00767</text>
			</g>
			<g transform=" matrix(0.707107,-0.707107,0.707107,0.707107,955.161299,169.825647)">
				<text style="font-family: Helvetica; font-size: 10px;fill: rgb(0%,0%,0%); stroke:none;" transform="translate(0,0) scale(1,-1)" x="0" y="0">Gene_00768</text>
			</g>
			<g transform=" matrix(0.707107,-0.707107,0.707107,0.707107,973.20282,169.825647)">
				<text style="font-family: Helvetica; font-size: 10px;fill: rgb(0%,0%,0%); stroke:none;" transform="translate(0,0) scale(1,-1)" x="0" y="0">Gene_00769</text>
			</g>
			<g transform=" matrix(0.707107,-0.707107,0.707107,0.707107,1004.855119,169.825647)">
				<text style="font-family: Helvetica; font-size: 10px;fill: rgb(0%,0%,0%); stroke:none;" transform="translate(0,0) scale(1,-1)" x="0" y="0">Gene_00770</text>
			</g>
			<g transform=" matrix(0.707107,-0.707107,0.707107,0.707107,1035.725522,169.825647)">
				<text style="font-family: Helvetica; font-size: 10px;fill: rgb(0%,0%,0%); stroke:none;" transform="translate(0,0) scale(1,-1)" x="0" y="0">Gene_00771</text>
			</g>
			<g transform=" matrix(0.707107,-0.707107,0.707107,0.707107,1059.500945,169.825647)">
				<text style="font-family: Helvetica; font-size: 10px;fill: rgb(0%,0%,0%); stroke:none;" transform="translate(0,0) scale(1,-1)" x="0" y="0">Gene_00772</text>
			</g>
			<g transform=" matrix(0.707107,-0.707107,0.707107,0.707107,1093.354136,169.825647)">
				<text style="font-family: Helvetica; font-size: 10px;fill: rgb(0%,0%,0%); stroke:none;" transform="translate(0,0) scale(1,-1)" x="0" y="0">Gene_00773</text>
			</g>
			<g transform=" matrix(0.707107,-0.707107,0.707107,0.707107,1135.547549,169.825647)">
				<text style="font-family: Helvetica; font-size: 10px;fill: rgb(0%,0%,0%); stroke:none;" transform="translate(0,0) scale(1,-1)" x="0" y="0">Gene_00774</text>
			</g>
			<g transform=" matrix(0.707107,-0.707107,0.707107,0.707107,1162.160964,169.825647)">
				<text style="font-family: Helvetica; font-size: 10px;fill: rgb(0%,0%,0%); stroke:none;" transform="translate(0,0) scale(1,-1)" x="0" y="0">Gene_00775</text>
			</g>
			<g transform=" matrix(0.707107,-0.707107,0.707107,0.707107,1200.242184,169.825647)">
				<text style="font-family: Helvetica; font-size: 10px;fill: rgb(0%,0%,0%); stroke:none;" transform="translate(0,0) scale(1,-1)" x="0" y="0">Gene_00776</text>
			</g>
			<g transform=" matrix(0.707107,-0.707107,0.707107,0.707107,1238.12069,169.825647)">
				<text style="font-family: Helvetica; font-size: 10px;fill: rgb(0%,0%,0%); stroke:none;" transform="translate(0,0) scale(1,-1)" x="0" y="0">Gene_00777</text>
			</g>
			<g transform=" matrix(0.707107,-0.707107,0.707107,0.707107,1252.223773,169.825647)">
				<text style="font-family: Helvetica; font-size: 10px;fill: rgb(0%,0%,0%); stroke:none;" transform="translate(0,0) scale(1,-1)" x="0" y="0">Gene_00778</text>
			</g>
			<g transform=" matrix(0.707107,-0.707107,0.707107,0.707107,1307.159191,169.825647)">
				<text style="font-family: Helvetica; font-size: 10px;fill: rgb(0%,0%,0%); stroke:none;" transform="translate(0,0) scale(1,-1)" x="0" y="0">Gene_00779</text>
			</g>
			<g transform=" matrix(0.707107,0.707107,-0.707107,0.707107,108.541934,538.835771)">
				<text style="font-family: Helvetica; font-size: 10px;fill: rgb(0%,0%,0%); stroke:none;" transform="translate(0,0) scale(1,-1)" x="0" y="0">Gene_01857</text>
			</g>
			<g transform=" matrix(0.707107,0.707107,-0.707107,0.707107,142.25033,538.835771)">
				<text style="font-family: Helvetica; font-size: 10px;fill: rgb(0%,0%,0%); stroke:none;" transform="translate(0,0) scale(1,-1)" x="0" y="0">Gene_01858</text>
			</g>
			<g transform=" matrix(0.707107,0.707107,-0.707107,0.707107,180.041959,538.835771)">
				<text style="font-family: Helvetica; font-size: 10px;fill: rgb(0%,0%,0%); stroke:none;" transform="translate(0,0) scale(1,-1)" x="0" y="0">Gene_01859</text>
			</g>
			<g transform=" matrix(0.707107,0.707107,-0.707107,0.707107,206.481619,538.835771)">
				<text style="font-family: Helvetica; font-size: 10px;fill: rgb(0%,0%,0%); stroke:none;" transform="translate(0,0) scale(1,-1)" x="0" y="0">Gene_01860</text>
			</g>
			<g transform=" matrix(0.707107,0.707107,-0.707107,0.707107,246.445181,538.835771)">
				<text style="font-family: Helvetica; font-size: 10px;fill: rgb(0%,0%,0%); stroke:none;" transform="translate(0,0) scale(1,-1)" x="0" y="0">Gene_01861</text>
			</g>
			<g transform=" matrix(0.707107,0.707107,-0.707107,0.707107,280.124617,538.835771)">
				<text style="font-family: Helvetica; font-size: 10px;fill: rgb(0%,0%,0%); stroke:none;" transform="translate(0,0) scale(1,-1)" x="0" y="0">Gene_01862</text>
			</g>
			<g transform=" matrix(0.707107,0.707107,-0.707107,0.707107,301.033089,538.835771)">
				<text style="font-family: Helvetica; font-size: 10px;fill: rgb(0%,0%,0%); stroke:none;" transform="translate(0,0) scale(1,-1)" x="0" y="0">Gene_01863</text>
			</g>
			<g transform=" matrix(0.707107,0.707107,-0.707107,0.707107,332.077247,538.835771)">
				<text style="font-family: Helvetica; font-size: 10px;fill: rgb(0%,0%,0%); stroke:none;" transform="translate(0,0) scale(1,-1)" x="0" y="0">Gene_01864</text>
			</g>
			<g transform=" matrix(0.707107,0.707107,-0.707107,0.707107,363.729546,538.835771)">
				<text style="font-family: Helvetica; font-size: 10px;fill: rgb(0%,0%,0%); stroke:none;" transform="translate(0,0) scale(1,-1)" x="0" y="0">Gene_01865</text>
			</g>
			<g transform=" matrix(0.707107,0.707107,-0.707107,0.707107,381.771067,538.835771)">
				<text style="font-family: Helvetica; font-size: 10px;fill: rgb(0%,0%,0%); stroke:none;" transform="translate(0,0) scale(1,-1)" x="0" y="0">Gene_01866</text>
			</g>
			<g transform=" matrix(0.707107,0.707107,-0.707107,0.707107,403.895822,538.835771)">
				<text style="font-family: Helvetica; font-size: 10px;fill: rgb(0%,0%,0%); stroke:none;" transform="translate(0,0) scale(1,-1)" x="0" y="0">Gene_01867</text>
			</g>
			<g transform=" matrix(0.707107,0.707107,-0.707107,0.707107,423.29842,538.835771)">
				<text style="font-family: Helvetica; font-size: 10px;fill: rgb(0%,0%,0%); stroke:none;" transform="translate(0,0) scale(1,-1)" x="0" y="0">Gene_01868</text>
			</g>
			<g transform=" matrix(0.707107,0.707107,-0.707107,0.707107,443.598751,538.835771)">
				<text style="font-family: Helvetica; font-size: 10px;fill: rgb(0%,0%,0%); stroke:none;" transform="translate(0,0) scale(1,-1)" x="0" y="0">Gene_01869</text>
			</g>
			<g transform=" matrix(0.707107,0.707107,-0.707107,0.707107,469.314434,538.835771)">
				<text style="font-family: Helvetica; font-size: 10px;fill: rgb(0%,0%,0%); stroke:none;" transform="translate(0,0) scale(1,-1)" x="0" y="0">Gene_01870</text>
			</g>
			<g transform=" matrix(0.707107,0.707107,-0.707107,0.707107,491.149598,538.835771)">
				<text style="font-family: Helvetica; font-size: 10px;fill: rgb(0%,0%,0%); stroke:none;" transform="translate(0,0) scale(1,-1)" x="0" y="0">Gene_01871</text>
			</g>
			<g transform=" matrix(0.707107,0.707107,-0.707107,0.707107,524.800075,538.835771)">
				<text style="font-family: Helvetica; font-size: 10px;fill: rgb(0%,0%,0%); stroke:none;" transform="translate(0,0) scale(1,-1)" x="0" y="0">Gene_01872</text>
			</g>
			<g transform=" matrix(0.707107,0.707107,-0.707107,0.707107,568.441443,538.835771)">
				<text style="font-family: Helvetica; font-size: 10px;fill: rgb(0%,0%,0%); stroke:none;" transform="translate(0,0) scale(1,-1)" x="0" y="0">Gene_01873</text>
			</g>
			<g transform=" matrix(0.707107,0.707107,-0.707107,0.707107,595.836754,538.835771)">
				<text style="font-family: Helvetica; font-size: 10px;fill: rgb(0%,0%,0%); stroke:none;" transform="translate(0,0) scale(1,-1)" x="0" y="0">Gene_01874</text>
			</g>
			<g transform=" matrix(0.707107,0.707107,-0.707107,0.707107,622.450169,538.835771)">
				<text style="font-family: Helvetica; font-size: 10px;fill: rgb(0%,0%,0%); stroke:none;" transform="translate(0,0) scale(1,-1)" x="0" y="0">Gene_01875</text>
			</g>
			<g transform=" matrix(0.707107,0.707107,-0.707107,0.707107,643.445518,538.835771)">
				<text style="font-family: Helvetica; font-size: 10px;fill: rgb(0%,0%,0%); stroke:none;" transform="translate(0,0) scale(1,-1)" x="0" y="0">Gene_01876</text>
			</g>
			<g transform=" matrix(0.707107,0.707107,-0.707107,0.707107,662.790199,538.835771)">
				<text style="font-family: Helvetica; font-size: 16px;fill: rgb(0%,0%,100%); stroke:none;" transform="translate(0,0) scale(1,-1)" x="0" y="0">Gene_01877 (83.3)</text>
			</g>
			<g transform=" matrix(0.707107,0.707107,-0.707107,0.707107,713.758219,538.835771)">
				<text style="font-family: Helvetica; font-size: 10px;fill: rgb(0%,0%,0%); stroke:none;" transform="translate(0,0) scale(1,-1)" x="0" y="0">Gene_01878</text>
			</g>
			<g transform=" matrix(0.707107,0.707107,-0.707107,0.707107,787.922481,538.835771)">
				<text style="font-family: Helvetica; font-size: 10px;fill: rgb(0%,0%,0%); stroke:none;" transform="translate(0,0) scale(1,-1)" x="0" y="0">Gene_01879</text>
			</g>
			<g transform=" matrix(0.707107,0.707107,-0.707107,0.707107,835.849796,538.835771)">
				<text style="font-family: Helvetica; font-size: 10px;fill: rgb(0%,0%,0%); stroke:none;" transform="translate(0,0) scale(1,-1)" x="0" y="0">Gene_01880</text>
			</g>
			<g transform=" matrix(0.707107,0.707107,-0.707107,0.707107,868.31295,538.835771)">
				<text style="font-family: Helvetica; font-size: 10px;fill: rgb(0%,0%,0%); stroke:none;" transform="translate(0,0) scale(1,-1)" x="0" y="0">Gene_01881</text>
			</g>
			<g transform=" matrix(0.707107,0.707107,-0.707107,0.707107,883.632315,538.835771)">
				<text style="font-family: Helvetica; font-size: 10px;fill: rgb(0%,0%,0%); stroke:none;" transform="translate(0,0) scale(1,-1)" x="0" y="0">Gene_01882</text>
			</g>
			<g transform=" matrix(0.707107,0.707107,-0.707107,0.707107,910.129894,538.835771)">
				<text style="font-family: Helvetica; font-size: 10px;fill: rgb(0%,0%,0%); stroke:none;" transform="translate(0,0) scale(1,-1)" x="0" y="0">Gene_01883</text>
			</g>
			<g transform=" matrix(0.707107,0.707107,-0.707107,0.707107,966.918694,538.835771)">
				<text style="font-family: Helvetica; font-size: 10px;fill: rgb(0%,0%,0%); stroke:none;" transform="translate(0,0) scale(1,-1)" x="0" y="0">Gene_01884</text>
			</g>
			<g transform=" matrix(0.707107,0.707107,-0.707107,0.707107,994.227128,538.835771)">
				<text style="font-family: Helvetica; font-size: 10px;fill: rgb(0%,0%,0%); stroke:none;" transform="translate(0,0) scale(1,-1)" x="0" y="0">Gene_01885</text>
			</g>
			<g transform=" matrix(0.707107,0.707107,-0.707107,0.707107,1024.112922,538.835771)">
				<text style="font-family: Helvetica; font-size: 10px;fill: rgb(0%,0%,0%); stroke:none;" transform="translate(0,0) scale(1,-1)" x="0" y="0">Gene_01886</text>
			</g>
			<g transform=" matrix(0.707107,0.707107,-0.707107,0.707107,1071.663768,538.835771)">
				<text style="font-family: Helvetica; font-size: 10px;fill: rgb(0%,0%,0%); stroke:none;" transform="translate(0,0) scale(1,-1)" x="0" y="0">Gene_01887</text>
			</g>
			<g transform=" matrix(0.707107,0.707107,-0.707107,0.707107,1128.74216,538.835771)">
				<text style="font-family: Helvetica; font-size: 10px;fill: rgb(0%,0%,0%); stroke:none;" transform="translate(0,0) scale(1,-1)" x="0" y="0">Gene_01888</text>
			</g>
			<g transform=" matrix(1,0,-0,1,70,169.825647)">
				<text style="font-family: Helvetica; font-size: 12px;fill: rgb(60%,60%,60%); stroke:none;" transform="translate(0,0) scale(1,-1)" x="0" y="0">megahit_6060 (left 119005bp, right 52944bp)</text>
			</g>
			<g transform=" matrix(1,0,-0,1,70,456.833521)">
				<text style="font-family: Helvetica; font-size: 12px;fill: rgb(60%,60%,60%); stroke:none;" transform="translate(0,0) scale(1,-1)" x="0" y="0">megahit_38061 (left 24180bp, right 8410bp)</text>
			</g>
		</g>
	</g>
</svg>
