<?xml version="1.0" encoding="utf-8"?>
<!DOCTYPE svg
  PUBLIC '-//W3C//DTD SVG 1.0//EN'
  'http://www.w3.org/TR/2001/REC-SVG-20010904/DTD/svg10.dtd'>
<svg fill-rule="evenodd" height="708.6614173228346" preserveAspectRatio="xMinYMin meet" version="1.0" viewBox="0 0 1417 708" width="1417.3228346456692" xmlns="http://www.w3.org/2000/svg" xmlns:xlink="http://www.w3.org/1999/xlink">
	<title>...</title>
	<desc>...</desc>
	<clipPath id="clip">
		<rect height="708.6614173228346" width="1417.3228346456692" x="0" y="0"/>
	</clipPath>
	<g id="group" style="clip-path: url(#clip)" transform="scale(1,-1) translate(0,-708)">
		<g transform="">
			<polygon points="70.86614 169.8256, 1346.368 169.8256, 1346.368 251.8279, 70.86614 251.8279" style="stroke: rgb(96%,96%,96%); stroke-linecap: butt; stroke-width: 1; fill: rgb(96%,96%,96%); fill-rule: evenodd;"/>
			<polygon points="70.86614 456.8335, 173.1309 456.8335, 173.1309 538.8358, 70.86614 538.8358" style="stroke: rgb(96%,96%,96%); stroke-linecap: butt; stroke-width: 1; fill: rgb(96%,96%,96%); fill-rule: evenodd;"/>
			<polygon points="85.1315 456.8335, 143.6195 456.8335, 359.7397 251.8279, 301.1625 251.8279" style="stroke: rgb(100%,2%,2%); stroke-linecap: round; stroke-width: 1; fill: rgb(100%,2%,2%); fill-rule: evenodd;"/>
			<polygon points="150.663 456.8335, 173.1309 456.8335, 381.4943 251.8279, 359.0264 251.8279" style="stroke: rgb(100%,3%,3%); stroke-linecap: round; stroke-width: 1; fill: rgb(100%,3%,3%); fill-rule: evenodd;"/>
			<polygon points="77.46387 241.5776, 130.7854 241.5776, 130.7854 251.8279, 147.1858 231.3273, 130.7854 210.8268, 130.7854 221.0771, 77.46387 221.0771" style="stroke: rgb(67%,84%,90%); stroke-linecap: round; stroke-width: 1; fill: rgb(67%,84%,90%); fill-rule: evenodd;"/>
			<polygon points="288.8587 200.5765, 191.1362 200.5765, 191.1362 210.8268, 174.7358 190.3262, 191.1362 169.8256, 191.1362 180.0759, 288.8587 180.0759" style="stroke: rgb(56%,93%,56%); stroke-linecap: round; stroke-width: 1; fill: rgb(56%,93%,56%); fill-rule: evenodd;"/>
			<polygon points="319.44 241.5776, 341.1994 241.5776, 341.1994 251.8279, 357.5999 231.3273, 341.1994 210.8268, 341.1994 221.0771, 319.44 221.0771" style="stroke: rgb(67%,84%,90%); stroke-linecap: round; stroke-width: 1; fill: rgb(67%,84%,90%); fill-rule: evenodd;"/>
			<polygon points="360.5421 241.5776, 379.3592 241.5776, 379.3592 251.8279, 395.7597 231.3273, 379.3592 210.8268, 379.3592 221.0771, 360.5421 221.0771" style="stroke: rgb(67%,84%,90%); stroke-linecap: round; stroke-width: 1; fill: rgb(67%,84%,90%); fill-rule: evenodd;"/>
			<polygon points="432.8496 241.5776, 487.241 241.5776, 487.241 251.8279, 503.6415 231.3273, 487.241 210.8268, 487.241 221.0771, 432.8496 221.0771" style="stroke: rgb(67%,84%,90%); stroke-linecap: round; stroke-width: 1; fill: rgb(67%,84%,90%); fill-rule: evenodd;"/>
			<polygon points="519.8683 241.5776, 552.8617 241.5776, 552.8617 251.8279, 569.2621 231.3273, 552.8617 210.8268, 552.8617 221.0771, 519.8683 221.0771" style="stroke: rgb(67%,84%,90%); stroke-linecap: round; stroke-width: 1; fill: rgb(67%,84%,90%); fill-rule: evenodd;"/>
			<polygon points="577.7322 241.5776, 713.7036 241.5776, 713.7036 251.8279, 730.104 231.3273, 713.7036 210.8268, 713.7036 221.0771, 577.7322 221.0771" style="stroke: rgb(67%,84%,90%); stroke-linecap: round; stroke-width: 1; fill: rgb(67%,84%,90%); fill-rule: evenodd;"/>
			<polygon points="729.4799 241.5776, 786.8135 241.5776, 786.8135 251.8279, 803.214 231.3273, 786.8135 210.8268, 786.8135 221.0771, 729.4799 221.0771" style="stroke: rgb(67%,84%,90%); stroke-linecap: round; stroke-width: 1; fill: rgb(67%,84%,90%); fill-rule: evenodd;"/>
			<polygon points="814.2697 241.5776, 879.3601 241.5776, 879.3601 251.8279, 895.7605 231.3273, 879.3601 210.8268, 879.3601 221.0771, 814.2697 221.0771" style="stroke: rgb(67%,84%,90%); stroke-linecap: round; stroke-width: 1; fill: rgb(67%,84%,90%); fill-rule: evenodd;"/>
			<polygon points="919.2984 241.5776, 919.2984 251.8279, 931.2456 231.3273, 919.2984 210.8268, 919.2984 221.0771" style="stroke: rgb(67%,84%,90%); stroke-linecap: round; stroke-width: 1; fill: rgb(67%,84%,90%); fill-rule: evenodd;"/>
			<polygon points="941.588 241.5776, 1045.997 241.5776, 1045.997 251.8279, 1062.398 231.3273, 1045.997 210.8268, 1045.997 221.0771, 941.588 221.0771" style="stroke: rgb(67%,84%,90%); stroke-linecap: round; stroke-width: 1; fill: rgb(67%,84%,90%); fill-rule: evenodd;"/>
			<polygon points="1066.499 241.5776, 1103.237 241.5776, 1103.237 251.8279, 1119.637 231.3273, 1103.237 210.8268, 1103.237 221.0771, 1066.499 221.0771" style="stroke: rgb(67%,84%,90%); stroke-linecap: round; stroke-width: 1; fill: rgb(67%,84%,90%); fill-rule: evenodd;"/>
			<polygon points="1124.006 241.5776, 1163.419 241.5776, 1163.419 251.8279, 1179.819 231.3273, 1163.419 210.8268, 1163.419 221.0771, 1124.006 221.0771" style="stroke: rgb(67%,84%,90%); stroke-linecap: round; stroke-width: 1; fill: rgb(67%,84%,90%); fill-rule: evenodd;"/>
			<polygon points="1199.88 241.5776, 1329.967 241.5776, 1329.967 251.8279, 1346.368 231.3273, 1329.967 210.8268, 1329.967 221.0771, 1199.88 221.0771" style="stroke: rgb(67%,84%,90%); stroke-linecap: round; stroke-width: 1; fill: rgb(67%,84%,90%); fill-rule: evenodd;"/>
			<polygon points="103.3198 528.5855, 125.0792 528.5855, 125.0792 538.8358, 141.4797 518.3352, 125.0792 497.8346, 125.0792 508.0849, 103.3198 508.0849" style="stroke: rgb(67%,84%,90%); stroke-linecap: round; stroke-width: 1; fill: rgb(67%,84%,90%); fill-rule: evenodd;"/>
			<path d="M 1346.367534,169.825647 L 1346.367534,251.827897 Z" style="stroke: rgb(0%,0%,0%); stroke-linecap: butt; stroke-width: 1;"/>
			<path d="M 70.866142,210.826772 L 1346.367534,210.826772 Z" style="stroke: rgb(0%,0%,0%); stroke-linecap: butt; stroke-width: 1;"/>
			<path d="M 70.866142,169.825647 L 70.866142,251.827897 Z" style="stroke: rgb(0%,0%,0%); stroke-linecap: butt; stroke-width: 1;"/>
			<path d="M 962.451066,210.826772 L 962.451066,231.327334 Z" style="stroke: rgb(0%,0%,0%); stroke-linecap: butt; stroke-width: 1;"/>
			<path d="M 962.451066,210.826772 L 962.451066,223.127109 Z" style="stroke: rgb(0%,0%,0%); stroke-linecap: butt; stroke-width: 1;"/>
			<path d="M 173.130933,456.833521 L 173.130933,538.835771 Z" style="stroke: rgb(0%,0%,0%); stroke-linecap: butt; stroke-width: 1;"/>
			<path d="M 70.866142,497.834646 L 173.130933,497.834646 Z" style="stroke: rgb(0%,0%,0%); stroke-linecap: butt; stroke-width: 1;"/>
			<path d="M 70.866142,456.833521 L 70.866142,538.835771 Z" style="stroke: rgb(0%,0%,0%); stroke-linecap: butt; stroke-width: 1;"/>
			<g transform=" matrix(0.707107,0.707107,-0.707107,0.707107,962.451066,231.327334)">
				<text style="font-family: Helvetica; font-size: 6px;fill: rgb(0%,0%,0%); stroke:none;" transform="translate(0,0) scale(1,-1)" x="0" y="0">10000</text>
			</g>
			<g transform=" matrix(0.707107,0.707107,-0.707107,0.707107,112.324841,251.827897)">
				<text style="font-family: Helvetica; font-size: 10px;fill: rgb(0%,0%,0%); stroke:none;" transform="translate(0,0) scale(1,-1)" x="0" y="0">Gene_03186</text>
			</g>
			<g transform=" matrix(0.707107,-0.707107,0.707107,0.707107,231.797221,169.825647)">
				<text style="font-family: Helvetica; font-size: 10px;fill: rgb(0%,0%,0%); stroke:none;" transform="translate(0,0) scale(1,-1)" x="0" y="0">Gene_03187</text>
			</g>
			<g transform=" matrix(0.707107,0.707107,-0.707107,0.707107,338.519936,251.827897)">
				<text style="font-family: Helvetica; font-size: 16px;fill: rgb(0%,0%,100%); stroke:none;" transform="translate(0,0) scale(1,-1)" x="0" y="0">Gene_03188 (99.1)</text>
			</g>
			<g transform=" matrix(0.707107,0.707107,-0.707107,0.707107,378.150886,251.827897)">
				<text style="font-family: Helvetica; font-size: 10px;fill: rgb(0%,0%,0%); stroke:none;" transform="translate(0,0) scale(1,-1)" x="0" y="0">Gene_03189</text>
			</g>
			<g transform=" matrix(0.707107,0.707107,-0.707107,0.707107,468.245542,251.827897)">
				<text style="font-family: Helvetica; font-size: 10px;fill: rgb(0%,0%,0%); stroke:none;" transform="translate(0,0) scale(1,-1)" x="0" y="0">Gene_03190</text>
			</g>
			<g transform=" matrix(0.707107,0.707107,-0.707107,0.707107,544.565212,251.827897)">
				<text style="font-family: Helvetica; font-size: 10px;fill: rgb(0%,0%,0%); stroke:none;" transform="translate(0,0) scale(1,-1)" x="0" y="0">Gene_03191</text>
			</g>
			<g transform=" matrix(0.707107,0.707107,-0.707107,0.707107,653.918103,251.827897)">
				<text style="font-family: Helvetica; font-size: 10px;fill: rgb(0%,0%,0%); stroke:none;" transform="translate(0,0) scale(1,-1)" x="0" y="0">Gene_03192</text>
			</g>
			<g transform=" matrix(0.707107,0.707107,-0.707107,0.707107,766.346962,251.827897)">
				<text style="font-family: Helvetica; font-size: 10px;fill: rgb(0%,0%,0%); stroke:none;" transform="translate(0,0) scale(1,-1)" x="0" y="0">Gene_03193</text>
			</g>
			<g transform=" matrix(0.707107,0.707107,-0.707107,0.707107,855.015083,251.827897)">
				<text style="font-family: Helvetica; font-size: 10px;fill: rgb(0%,0%,0%); stroke:none;" transform="translate(0,0) scale(1,-1)" x="0" y="0">Gene_03194</text>
			</g>
			<g transform=" matrix(0.707107,0.707107,-0.707107,0.707107,925.271975,251.827897)">
				<text style="font-family: Helvetica; font-size: 10px;fill: rgb(0%,0%,0%); stroke:none;" transform="translate(0,0) scale(1,-1)" x="0" y="0">Gene_03195</text>
			</g>
			<g transform=" matrix(0.707107,0.707107,-0.707107,0.707107,1001.992857,251.827897)">
				<text style="font-family: Helvetica; font-size: 10px;fill: rgb(0%,0%,0%); stroke:none;" transform="translate(0,0) scale(1,-1)" x="0" y="0">Gene_03196</text>
			</g>
			<g transform=" matrix(0.707107,0.707107,-0.707107,0.707107,1093.068257,251.827897)">
				<text style="font-family: Helvetica; font-size: 10px;fill: rgb(0%,0%,0%); stroke:none;" transform="translate(0,0) scale(1,-1)" x="0" y="0">Gene_03197</text>
			</g>
			<g transform=" matrix(0.707107,0.707107,-0.707107,0.707107,1151.912862,251.827897)">
				<text style="font-family: Helvetica; font-size: 10px;fill: rgb(0%,0%,0%); stroke:none;" transform="translate(0,0) scale(1,-1)" x="0" y="0">Gene_03198</text>
			</g>
			<g transform=" matrix(0.707107,0.707107,-0.707107,0.707107,1273.123833,251.827897)">
				<text style="font-family: Helvetica; font-size: 10px;fill: rgb(0%,0%,0%); stroke:none;" transform="translate(0,0) scale(1,-1)" x="0" y="0">Gene_03199</text>
			</g>
			<g transform=" matrix(0.707107,0.707107,-0.707107,0.707107,122.39975,538.835771)">
				<text style="font-family: Helvetica; font-size: 16px;fill: rgb(0%,0%,100%); stroke:none;" transform="translate(0,0) scale(1,-1)" x="0" y="0">Gene_01467 (99.1)</text>
			</g>
			<g transform=" matrix(1,0,-0,1,70,169.825647)">
				<text style="font-family: Helvetica; font-size: 12px;fill: rgb(60%,60%,60%); stroke:none;" transform="translate(0,0) scale(1,-1)" x="0" y="0">megahit_148169 (left 2788bp, right 11300bp)</text>
			</g>
		</g>
	</g>
</svg>
