<?xml version="1.0" encoding="utf-8"?>
<!DOCTYPE svg
  PUBLIC '-//W3C//DTD SVG 1.0//EN'
  'http://www.w3.org/TR/2001/REC-SVG-20010904/DTD/svg10.dtd'>
<svg fill-rule="evenodd" height="708.6614173228346" preserveAspectRatio="xMinYMin meet" version="1.0" viewBox="0 0 1417 708" width="1417.3228346456692" xmlns="http://www.w3.org/2000/svg" xmlns:xlink="http://www.w3.org/1999/xlink">
	<title>...</title>
	<desc>...</desc>
	<clipPath id="clip">
		<rect height="708.6614173228346" width="1417.3228346456692" x="0" y="0"/>
	</clipPath>
	<g id="group" style="clip-path: url(#clip)" transform="scale(1,-1) translate(0,-708)">
		<g transform="">
			<polygon points="70.86614 169.8256, 1346.393 169.8256, 1346.393 251.8279, 70.86614 251.8279" style="stroke: rgb(96%,96%,96%); stroke-linecap: butt; stroke-width: 1; fill: rgb(96%,96%,96%); fill-rule: evenodd;"/>
			<polygon points="70.86614 456.8335, 847.103 456.8335, 847.103 538.8358, 70.86614 538.8358" style="stroke: rgb(96%,96%,96%); stroke-linecap: butt; stroke-width: 1; fill: rgb(96%,96%,96%); fill-rule: evenodd;"/>
			<polygon points="175.5059 456.8335, 397.4057 456.8335, 515.4901 251.8279, 293.7806 251.8279" style="stroke: rgb(100%,46%,46%); stroke-linecap: round; stroke-width: 1; fill: rgb(100%,46%,46%); fill-rule: evenodd;"/>
			<polygon points="620.0664 456.8335, 714.3056 456.8335, 737.5166 251.8279, 642.453 251.8279" style="stroke: rgb(100%,33%,33%); stroke-linecap: round; stroke-width: 1; fill: rgb(100%,33%,33%); fill-rule: evenodd;"/>
			<polygon points="715.8277 456.8335, 778.0408 456.8335, 804.7398 251.8279, 742.5267 251.8279" style="stroke: rgb(100%,35%,35%); stroke-linecap: round; stroke-width: 1; fill: rgb(100%,35%,35%); fill-rule: evenodd;"/>
			<polygon points="70.92956 456.8335, 117.6687 456.8335, 264.6083 251.8279, 217.7423 251.8279" style="stroke: rgb(100%,35%,35%); stroke-linecap: round; stroke-width: 1; fill: rgb(100%,35%,35%); fill-rule: evenodd;"/>
			<polygon points="787.7437 456.8335, 826.9995 456.8335, 845.0102 251.8279, 805.6276 251.8279" style="stroke: rgb(100%,44%,44%); stroke-linecap: round; stroke-width: 1; fill: rgb(100%,44%,44%); fill-rule: evenodd;"/>
			<polygon points="464.3117 456.8335, 512.7631 456.8335, 610.9342 251.8279, 562.6731 251.8279" style="stroke: rgb(100%,53%,53%); stroke-linecap: round; stroke-width: 1; fill: rgb(100%,53%,53%); fill-rule: evenodd;"/>
			<polygon points="134.7281 456.8335, 161.3637 456.8335, 292.8293 251.8279, 266.2571 251.8279" style="stroke: rgb(100%,41%,41%); stroke-linecap: round; stroke-width: 1; fill: rgb(100%,41%,41%); fill-rule: evenodd;"/>
			<polygon points="416.4945 456.8335, 456.9552 456.8335, 563.1804 251.8279, 522.7197 251.8279" style="stroke: rgb(100%,56%,56%); stroke-linecap: round; stroke-width: 1; fill: rgb(100%,56%,56%); fill-rule: evenodd;"/>
			<polygon points="533.8179 456.8335, 548.4674 456.8335, 629.262 251.8279, 614.6125 251.8279" style="stroke: rgb(100%,41%,41%); stroke-linecap: round; stroke-width: 1; fill: rgb(100%,41%,41%); fill-rule: evenodd;"/>
			<polygon points="70.86614 241.5776, 96.06793 241.5776, 96.06793 251.8279, 112.4684 231.3273, 96.06793 210.8268, 96.06793 221.0771, 70.86614 221.0771" style="stroke: rgb(67%,84%,90%); stroke-linecap: round; stroke-width: 1; fill: rgb(67%,84%,90%); fill-rule: evenodd;"/>
			<polygon points="112.4684 241.5776, 123.7816 241.5776, 123.7816 251.8279, 140.1821 231.3273, 123.7816 210.8268, 123.7816 221.0771, 112.4684 221.0771" style="stroke: rgb(67%,84%,90%); stroke-linecap: round; stroke-width: 1; fill: rgb(67%,84%,90%); fill-rule: evenodd;"/>
			<polygon points="139.5479 241.5776, 139.5479 251.8279, 152.4217 231.3273, 139.5479 210.8268, 139.5479 221.0771" style="stroke: rgb(67%,84%,90%); stroke-linecap: round; stroke-width: 1; fill: rgb(67%,84%,90%); fill-rule: evenodd;"/>
			<polygon points="155.0853 241.5776, 155.0853 251.8279, 171.1935 231.3273, 155.0853 210.8268, 155.0853 221.0771" style="stroke: rgb(67%,84%,90%); stroke-linecap: round; stroke-width: 1; fill: rgb(67%,84%,90%); fill-rule: evenodd;"/>
			<polygon points="172.5253 241.5776, 179.4627 241.5776, 179.4627 251.8279, 195.8631 231.3273, 179.4627 210.8268, 179.4627 221.0771, 172.5253 221.0771" style="stroke: rgb(67%,84%,90%); stroke-linecap: round; stroke-width: 1; fill: rgb(67%,84%,90%); fill-rule: evenodd;"/>
			<polygon points="196.8778 241.5776, 199.8199 241.5776, 199.8199 251.8279, 216.2203 231.3273, 199.8199 210.8268, 199.8199 221.0771, 196.8778 221.0771" style="stroke: rgb(67%,84%,90%); stroke-linecap: round; stroke-width: 1; fill: rgb(67%,84%,90%); fill-rule: evenodd;"/>
			<polygon points="217.6789 241.5776, 235.4608 241.5776, 235.4608 251.8279, 251.8612 231.3273, 235.4608 210.8268, 235.4608 221.0771, 217.6789 221.0771" style="stroke: rgb(67%,84%,90%); stroke-linecap: round; stroke-width: 1; fill: rgb(67%,84%,90%); fill-rule: evenodd;"/>
			<polygon points="252.9393 241.5776, 252.9393 251.8279, 264.6717 231.3273, 252.9393 210.8268, 252.9393 221.0771" style="stroke: rgb(67%,84%,90%); stroke-linecap: round; stroke-width: 1; fill: rgb(67%,84%,90%); fill-rule: evenodd;"/>
			<polygon points="267.4621 241.5776, 276.4923 241.5776, 276.4923 251.8279, 292.8927 231.3273, 276.4923 210.8268, 276.4923 221.0771, 267.4621 221.0771" style="stroke: rgb(67%,84%,90%); stroke-linecap: round; stroke-width: 1; fill: rgb(67%,84%,90%); fill-rule: evenodd;"/>
			<polygon points="297.5222 241.5776, 315.4944 241.5776, 315.4944 251.8279, 331.8948 231.3273, 315.4944 210.8268, 315.4944 221.0771, 297.5222 221.0771" style="stroke: rgb(67%,84%,90%); stroke-linecap: round; stroke-width: 1; fill: rgb(67%,84%,90%); fill-rule: evenodd;"/>
			<polygon points="333.0363 241.5776, 339.9737 241.5776, 339.9737 251.8279, 356.3742 231.3273, 339.9737 210.8268, 339.9737 221.0771, 333.0363 221.0771" style="stroke: rgb(67%,84%,90%); stroke-linecap: round; stroke-width: 1; fill: rgb(67%,84%,90%); fill-rule: evenodd;"/>
			<polygon points="357.5157 241.5776, 373.395 241.5776, 373.395 251.8279, 389.7955 231.3273, 373.395 210.8268, 373.395 221.0771, 357.5157 221.0771" style="stroke: rgb(67%,84%,90%); stroke-linecap: round; stroke-width: 1; fill: rgb(67%,84%,90%); fill-rule: evenodd;"/>
			<polygon points="390.6833 241.5776, 390.6833 251.8279, 402.2254 231.3273, 390.6833 210.8268, 390.6833 221.0771" style="stroke: rgb(67%,84%,90%); stroke-linecap: round; stroke-width: 1; fill: rgb(67%,84%,90%); fill-rule: evenodd;"/>
			<polygon points="403.8109 241.5776, 415.3144 241.5776, 415.3144 251.8279, 431.7148 231.3273, 415.3144 210.8268, 415.3144 221.0771, 403.8109 221.0771" style="stroke: rgb(67%,84%,90%); stroke-linecap: round; stroke-width: 1; fill: rgb(67%,84%,90%); fill-rule: evenodd;"/>
			<polygon points="431.9685 241.5776, 499.0262 241.5776, 499.0262 251.8279, 515.4266 231.3273, 499.0262 210.8268, 499.0262 221.0771, 431.9685 221.0771" style="stroke: rgb(67%,84%,90%); stroke-linecap: round; stroke-width: 1; fill: rgb(67%,84%,90%); fill-rule: evenodd;"/>
			<polygon points="522.7197 241.5776, 547.1605 241.5776, 547.1605 251.8279, 563.5609 231.3273, 547.1605 210.8268, 547.1605 221.0771, 522.7197 221.0771" style="stroke: rgb(67%,84%,90%); stroke-linecap: round; stroke-width: 1; fill: rgb(67%,84%,90%); fill-rule: evenodd;"/>
			<polygon points="563.8146 241.5776, 595.8655 241.5776, 595.8655 251.8279, 612.266 231.3273, 595.8655 210.8268, 595.8655 221.0771, 563.8146 221.0771" style="stroke: rgb(67%,84%,90%); stroke-linecap: round; stroke-width: 1; fill: rgb(67%,84%,90%); fill-rule: evenodd;"/>
			<polygon points="615.5003 241.5776, 615.5003 251.8279, 629.3254 231.3273, 615.5003 210.8268, 615.5003 221.0771" style="stroke: rgb(67%,84%,90%); stroke-linecap: round; stroke-width: 1; fill: rgb(67%,84%,90%); fill-rule: evenodd;"/>
			<polygon points="643.5311 241.5776, 650.4685 241.5776, 650.4685 251.8279, 666.8689 231.3273, 650.4685 210.8268, 650.4685 221.0771, 643.5311 221.0771" style="stroke: rgb(67%,84%,90%); stroke-linecap: round; stroke-width: 1; fill: rgb(67%,84%,90%); fill-rule: evenodd;"/>
			<polygon points="699.8463 241.5776, 721.0528 241.5776, 721.0528 251.8279, 737.4532 231.3273, 721.0528 210.8268, 721.0528 221.0771, 699.8463 221.0771" style="stroke: rgb(67%,84%,90%); stroke-linecap: round; stroke-width: 1; fill: rgb(67%,84%,90%); fill-rule: evenodd;"/>
			<polygon points="743.795 241.5776, 788.2125 241.5776, 788.2125 251.8279, 804.6129 231.3273, 788.2125 210.8268, 788.2125 221.0771, 743.795 221.0771" style="stroke: rgb(67%,84%,90%); stroke-linecap: round; stroke-width: 1; fill: rgb(67%,84%,90%); fill-rule: evenodd;"/>
			<polygon points="811.0181 241.5776, 828.6098 241.5776, 828.6098 251.8279, 845.0102 231.3273, 828.6098 210.8268, 828.6098 221.0771, 811.0181 221.0771" style="stroke: rgb(67%,84%,90%); stroke-linecap: round; stroke-width: 1; fill: rgb(67%,84%,90%); fill-rule: evenodd;"/>
			<polygon points="856.4255 241.5776, 920.0586 241.5776, 920.0586 251.8279, 936.459 231.3273, 920.0586 210.8268, 920.0586 221.0771, 856.4255 221.0771" style="stroke: rgb(67%,84%,90%); stroke-linecap: round; stroke-width: 1; fill: rgb(67%,84%,90%); fill-rule: evenodd;"/>
			<polygon points="945.2741 241.5776, 994.8285 241.5776, 994.8285 251.8279, 1011.229 231.3273, 994.8285 210.8268, 994.8285 221.0771, 945.2741 221.0771" style="stroke: rgb(67%,84%,90%); stroke-linecap: round; stroke-width: 1; fill: rgb(67%,84%,90%); fill-rule: evenodd;"/>
			<polygon points="1022.454 241.5776, 1062.305 241.5776, 1062.305 251.8279, 1078.706 231.3273, 1062.305 210.8268, 1062.305 221.0771, 1022.454 221.0771" style="stroke: rgb(67%,84%,90%); stroke-linecap: round; stroke-width: 1; fill: rgb(67%,84%,90%); fill-rule: evenodd;"/>
			<polygon points="1078.072 241.5776, 1116.211 241.5776, 1116.211 251.8279, 1132.611 231.3273, 1116.211 210.8268, 1116.211 221.0771, 1078.072 221.0771" style="stroke: rgb(67%,84%,90%); stroke-linecap: round; stroke-width: 1; fill: rgb(67%,84%,90%); fill-rule: evenodd;"/>
			<polygon points="1132.421 241.5776, 1166.755 241.5776, 1166.755 251.8279, 1183.155 231.3273, 1166.755 210.8268, 1166.755 221.0771, 1132.421 221.0771" style="stroke: rgb(67%,84%,90%); stroke-linecap: round; stroke-width: 1; fill: rgb(67%,84%,90%); fill-rule: evenodd;"/>
			<polygon points="1182.965 241.5776, 1262.579 241.5776, 1262.579 251.8279, 1278.98 231.3273, 1262.579 210.8268, 1262.579 221.0771, 1182.965 221.0771" style="stroke: rgb(67%,84%,90%); stroke-linecap: round; stroke-width: 1; fill: rgb(67%,84%,90%); fill-rule: evenodd;"/>
			<polygon points="1286.907 241.5776, 1297.65 241.5776, 1297.65 251.8279, 1314.05 231.3273, 1297.65 210.8268, 1297.65 221.0771, 1286.907 221.0771" style="stroke: rgb(67%,84%,90%); stroke-linecap: round; stroke-width: 1; fill: rgb(67%,84%,90%); fill-rule: evenodd;"/>
			<polygon points="1315.826 241.5776, 1324.285 241.5776, 1324.285 251.8279, 1340.686 231.3273, 1324.285 210.8268, 1324.285 221.0771, 1315.826 221.0771" style="stroke: rgb(67%,84%,90%); stroke-linecap: round; stroke-width: 1; fill: rgb(67%,84%,90%); fill-rule: evenodd;"/>
			<polygon points="70.86614 528.5855, 88.64802 528.5855, 88.64802 538.8358, 105.0485 518.3352, 88.64802 497.8346, 88.64802 508.0849, 70.86614 508.0849" style="stroke: rgb(67%,84%,90%); stroke-linecap: round; stroke-width: 1; fill: rgb(67%,84%,90%); fill-rule: evenodd;"/>
			<polygon points="105.9997 528.5855, 105.9997 538.8358, 117.7321 518.3352, 105.9997 497.8346, 105.9997 508.0849" style="stroke: rgb(67%,84%,90%); stroke-linecap: round; stroke-width: 1; fill: rgb(67%,84%,90%); fill-rule: evenodd;"/>
			<polygon points="135.9965 528.5855, 145.0267 528.5855, 145.0267 538.8358, 161.4271 518.3352, 145.0267 497.8346, 145.0267 508.0849, 135.9965 508.0849" style="stroke: rgb(67%,84%,90%); stroke-linecap: round; stroke-width: 1; fill: rgb(67%,84%,90%); fill-rule: evenodd;"/>
			<polygon points="179.311 528.5855, 197.2831 528.5855, 197.2831 538.8358, 213.6836 518.3352, 197.2831 497.8346, 197.2831 508.0849, 179.311 508.0849" style="stroke: rgb(67%,84%,90%); stroke-linecap: round; stroke-width: 1; fill: rgb(67%,84%,90%); fill-rule: evenodd;"/>
			<polygon points="214.8251 528.5855, 221.7625 528.5855, 221.7625 538.8358, 238.1629 518.3352, 221.7625 497.8346, 221.7625 508.0849, 214.8251 508.0849" style="stroke: rgb(67%,84%,90%); stroke-linecap: round; stroke-width: 1; fill: rgb(67%,84%,90%); fill-rule: evenodd;"/>
			<polygon points="239.4947 528.5855, 255.3741 528.5855, 255.3741 538.8358, 271.7745 518.3352, 255.3741 497.8346, 255.3741 508.0849, 239.4947 508.0849" style="stroke: rgb(67%,84%,90%); stroke-linecap: round; stroke-width: 1; fill: rgb(67%,84%,90%); fill-rule: evenodd;"/>
			<polygon points="272.8526 528.5855, 272.8526 538.8358, 284.3947 518.3352, 272.8526 497.8346, 272.8526 508.0849" style="stroke: rgb(67%,84%,90%); stroke-linecap: round; stroke-width: 1; fill: rgb(67%,84%,90%); fill-rule: evenodd;"/>
			<polygon points="285.8533 528.5855, 297.3568 528.5855, 297.3568 538.8358, 313.7573 518.3352, 297.3568 497.8346, 297.3568 508.0849, 285.8533 508.0849" style="stroke: rgb(67%,84%,90%); stroke-linecap: round; stroke-width: 1; fill: rgb(67%,84%,90%); fill-rule: evenodd;"/>
			<polygon points="313.8841 528.5855, 380.9418 528.5855, 380.9418 538.8358, 397.3422 518.3352, 380.9418 497.8346, 380.9418 508.0849, 313.8841 508.0849" style="stroke: rgb(67%,84%,90%); stroke-linecap: round; stroke-width: 1; fill: rgb(67%,84%,90%); fill-rule: evenodd;"/>
			<polygon points="416.4945 528.5855, 440.745 528.5855, 440.745 538.8358, 457.1455 518.3352, 440.745 497.8346, 440.745 508.0849, 416.4945 508.0849" style="stroke: rgb(67%,84%,90%); stroke-linecap: round; stroke-width: 1; fill: rgb(67%,84%,90%); fill-rule: evenodd;"/>
			<polygon points="465.4532 528.5855, 496.7431 528.5855, 496.7431 538.8358, 513.1436 518.3352, 496.7431 497.8346, 496.7431 508.0849, 465.4532 508.0849" style="stroke: rgb(67%,84%,90%); stroke-linecap: round; stroke-width: 1; fill: rgb(67%,84%,90%); fill-rule: evenodd;"/>
			<polygon points="516.1242 528.5855, 517.1637 528.5855, 517.1637 538.8358, 533.5642 518.3352, 517.1637 497.8346, 517.1637 508.0849, 516.1242 508.0849" style="stroke: rgb(67%,84%,90%); stroke-linecap: round; stroke-width: 1; fill: rgb(67%,84%,90%); fill-rule: evenodd;"/>
			<polygon points="534.7057 528.5855, 534.7057 538.8358, 548.5309 518.3352, 534.7057 497.8346, 534.7057 508.0849" style="stroke: rgb(67%,84%,90%); stroke-linecap: round; stroke-width: 1; fill: rgb(67%,84%,90%); fill-rule: evenodd;"/>
			<polygon points="562.1023 528.5855, 562.7613 528.5855, 562.7613 538.8358, 579.1618 518.3352, 562.7613 497.8346, 562.7613 508.0849, 562.1023 508.0849" style="stroke: rgb(67%,84%,90%); stroke-linecap: round; stroke-width: 1; fill: rgb(67%,84%,90%); fill-rule: evenodd;"/>
			<polygon points="621.1445 528.5855, 628.0819 528.5855, 628.0819 538.8358, 644.4824 518.3352, 628.0819 497.8346, 628.0819 508.0849, 621.1445 508.0849" style="stroke: rgb(67%,84%,90%); stroke-linecap: round; stroke-width: 1; fill: rgb(67%,84%,90%); fill-rule: evenodd;"/>
			<polygon points="649.9997 528.5855, 659.0299 528.5855, 659.0299 538.8358, 675.4304 518.3352, 659.0299 497.8346, 659.0299 508.0849, 649.9997 508.0849" style="stroke: rgb(67%,84%,90%); stroke-linecap: round; stroke-width: 1; fill: rgb(67%,84%,90%); fill-rule: evenodd;"/>
			<polygon points="676.6353 528.5855, 697.8418 528.5855, 697.8418 538.8358, 714.2422 518.3352, 697.8418 497.8346, 697.8418 508.0849, 676.6353 508.0849" style="stroke: rgb(67%,84%,90%); stroke-linecap: round; stroke-width: 1; fill: rgb(67%,84%,90%); fill-rule: evenodd;"/>
			<polygon points="717.096 528.5855, 761.5135 528.5855, 761.5135 538.8358, 777.9139 518.3352, 761.5135 497.8346, 761.5135 508.0849, 717.096 508.0849" style="stroke: rgb(67%,84%,90%); stroke-linecap: round; stroke-width: 1; fill: rgb(67%,84%,90%); fill-rule: evenodd;"/>
			<polygon points="793.0074 528.5855, 810.599 528.5855, 810.599 538.8358, 826.9995 518.3352, 810.599 497.8346, 810.599 508.0849, 793.0074 508.0849" style="stroke: rgb(67%,84%,90%); stroke-linecap: round; stroke-width: 1; fill: rgb(67%,84%,90%); fill-rule: evenodd;"/>
			<path d="M 1346.393275,169.825647 L 1346.393275,251.827897 Z" style="stroke: rgb(0%,0%,0%); stroke-linecap: butt; stroke-width: 1;"/>
			<path d="M 70.866142,210.826772 L 1346.393275,210.826772 Z" style="stroke: rgb(0%,0%,0%); stroke-linecap: butt; stroke-width: 1;"/>
			<path d="M 70.866142,169.825647 L 70.866142,251.827897 Z" style="stroke: rgb(0%,0%,0%); stroke-linecap: butt; stroke-width: 1;"/>
			<path d="M 705.046589,210.826772 L 705.046589,231.327334 Z" style="stroke: rgb(0%,0%,0%); stroke-linecap: butt; stroke-width: 1;"/>
			<path d="M 1339.227036,210.826772 L 1339.227036,231.327334 Z" style="stroke: rgb(0%,0%,0%); stroke-linecap: butt; stroke-width: 1;"/>
			<path d="M 705.046589,210.826772 L 705.046589,223.127109 Z" style="stroke: rgb(0%,0%,0%); stroke-linecap: butt; stroke-width: 1;"/>
			<path d="M 1339.227036,210.826772 L 1339.227036,223.127109 Z" style="stroke: rgb(0%,0%,0%); stroke-linecap: butt; stroke-width: 1;"/>
			<path d="M 847.103009,456.833521 L 847.103009,538.835771 Z" style="stroke: rgb(0%,0%,0%); stroke-linecap: butt; stroke-width: 1;"/>
			<path d="M 70.866142,497.834646 L 847.103009,497.834646 Z" style="stroke: rgb(0%,0%,0%); stroke-linecap: butt; stroke-width: 1;"/>
			<path d="M 70.866142,456.833521 L 70.866142,538.835771 Z" style="stroke: rgb(0%,0%,0%); stroke-linecap: butt; stroke-width: 1;"/>
			<path d="M 705.046589,497.834646 L 705.046589,518.335208 Z" style="stroke: rgb(0%,0%,0%); stroke-linecap: butt; stroke-width: 1;"/>
			<path d="M 705.046589,497.834646 L 705.046589,510.134983 Z" style="stroke: rgb(0%,0%,0%); stroke-linecap: butt; stroke-width: 1;"/>
			<g transform=" matrix(0.707107,0.707107,-0.707107,0.707107,705.046589,231.327334)">
				<text style="font-family: Helvetica; font-size: 6px;fill: rgb(0%,0%,0%); stroke:none;" transform="translate(0,0) scale(1,-1)" x="0" y="0">10000</text>
			</g>
			<g transform=" matrix(0.707107,0.707107,-0.707107,0.707107,1339.227036,231.327334)">
				<text style="font-family: Helvetica; font-size: 6px;fill: rgb(0%,0%,0%); stroke:none;" transform="translate(0,0) scale(1,-1)" x="0" y="0">20000</text>
			</g>
			<g transform=" matrix(0.707107,0.707107,-0.707107,0.707107,705.046589,518.335208)">
				<text style="font-family: Helvetica; font-size: 6px;fill: rgb(0%,0%,0%); stroke:none;" transform="translate(0,0) scale(1,-1)" x="0" y="0">10000</text>
			</g>
			<g transform=" matrix(0.707107,0.707107,-0.707107,0.707107,91.66726,251.827897)">
				<text style="font-family: Helvetica; font-size: 10px;fill: rgb(0%,0%,0%); stroke:none;" transform="translate(0,0) scale(1,-1)" x="0" y="0">Gene_00788</text>
			</g>
			<g transform=" matrix(0.707107,0.707107,-0.707107,0.707107,126.325222,251.827897)">
				<text style="font-family: Helvetica; font-size: 10px;fill: rgb(0%,0%,0%); stroke:none;" transform="translate(0,0) scale(1,-1)" x="0" y="0">Gene_00789</text>
			</g>
			<g transform=" matrix(0.707107,0.707107,-0.707107,0.707107,145.984816,251.827897)">
				<text style="font-family: Helvetica; font-size: 10px;fill: rgb(0%,0%,0%); stroke:none;" transform="translate(0,0) scale(1,-1)" x="0" y="0">Gene_00790</text>
			</g>
			<g transform=" matrix(0.707107,0.707107,-0.707107,0.707107,163.139397,251.827897)">
				<text style="font-family: Helvetica; font-size: 10px;fill: rgb(0%,0%,0%); stroke:none;" transform="translate(0,0) scale(1,-1)" x="0" y="0">Gene_00791</text>
			</g>
			<g transform=" matrix(0.707107,0.707107,-0.707107,0.707107,184.194188,251.827897)">
				<text style="font-family: Helvetica; font-size: 10px;fill: rgb(0%,0%,0%); stroke:none;" transform="translate(0,0) scale(1,-1)" x="0" y="0">Gene_00792</text>
			</g>
			<g transform=" matrix(0.707107,0.707107,-0.707107,0.707107,206.549048,251.827897)">
				<text style="font-family: Helvetica; font-size: 10px;fill: rgb(0%,0%,0%); stroke:none;" transform="translate(0,0) scale(1,-1)" x="0" y="0">Gene_00793</text>
			</g>
			<g transform=" matrix(0.707107,0.707107,-0.707107,0.707107,234.770078,251.827897)">
				<text style="font-family: Helvetica; font-size: 10px;fill: rgb(0%,0%,0%); stroke:none;" transform="translate(0,0) scale(1,-1)" x="0" y="0">Gene_00794</text>
			</g>
			<g transform=" matrix(0.707107,0.707107,-0.707107,0.707107,258.805517,251.827897)">
				<text style="font-family: Helvetica; font-size: 10px;fill: rgb(0%,0%,0%); stroke:none;" transform="translate(0,0) scale(1,-1)" x="0" y="0">Gene_00795</text>
			</g>
			<g transform=" matrix(0.707107,0.707107,-0.707107,0.707107,280.177398,251.827897)">
				<text style="font-family: Helvetica; font-size: 10px;fill: rgb(0%,0%,0%); stroke:none;" transform="translate(0,0) scale(1,-1)" x="0" y="0">Gene_00796</text>
			</g>
			<g transform=" matrix(0.707107,0.707107,-0.707107,0.707107,314.708524,251.827897)">
				<text style="font-family: Helvetica; font-size: 10px;fill: rgb(0%,0%,0%); stroke:none;" transform="translate(0,0) scale(1,-1)" x="0" y="0">Gene_00797</text>
			</g>
			<g transform=" matrix(0.707107,0.707107,-0.707107,0.707107,344.705259,251.827897)">
				<text style="font-family: Helvetica; font-size: 10px;fill: rgb(0%,0%,0%); stroke:none;" transform="translate(0,0) scale(1,-1)" x="0" y="0">Gene_00798</text>
			</g>
			<g transform=" matrix(0.707107,0.707107,-0.707107,0.707107,373.655596,251.827897)">
				<text style="font-family: Helvetica; font-size: 10px;fill: rgb(0%,0%,0%); stroke:none;" transform="translate(0,0) scale(1,-1)" x="0" y="0">Gene_00799</text>
			</g>
			<g transform=" matrix(0.707107,0.707107,-0.707107,0.707107,396.454383,251.827897)">
				<text style="font-family: Helvetica; font-size: 10px;fill: rgb(0%,0%,0%); stroke:none;" transform="translate(0,0) scale(1,-1)" x="0" y="0">Gene_00800</text>
			</g>
			<g transform=" matrix(0.707107,0.707107,-0.707107,0.707107,417.762846,251.827897)">
				<text style="font-family: Helvetica; font-size: 10px;fill: rgb(0%,0%,0%); stroke:none;" transform="translate(0,0) scale(1,-1)" x="0" y="0">Gene_00801</text>
			</g>
			<g transform=" matrix(0.707107,0.707107,-0.707107,0.707107,473.697562,251.827897)">
				<text style="font-family: Helvetica; font-size: 10px;fill: rgb(0%,0%,0%); stroke:none;" transform="translate(0,0) scale(1,-1)" x="0" y="0">Gene_00802</text>
			</g>
			<g transform=" matrix(0.707107,0.707107,-0.707107,0.707107,543.140321,251.827897)">
				<text style="font-family: Helvetica; font-size: 10px;fill: rgb(0%,0%,0%); stroke:none;" transform="translate(0,0) scale(1,-1)" x="0" y="0">Gene_00803</text>
			</g>
			<g transform=" matrix(0.707107,0.707107,-0.707107,0.707107,588.040296,251.827897)">
				<text style="font-family: Helvetica; font-size: 10px;fill: rgb(0%,0%,0%); stroke:none;" transform="translate(0,0) scale(1,-1)" x="0" y="0">Gene_00804</text>
			</g>
			<g transform=" matrix(0.707107,0.707107,-0.707107,0.707107,622.412877,251.827897)">
				<text style="font-family: Helvetica; font-size: 10px;fill: rgb(0%,0%,0%); stroke:none;" transform="translate(0,0) scale(1,-1)" x="0" y="0">Gene_00805</text>
			</g>
			<g transform=" matrix(0.707107,0.707107,-0.707107,0.707107,655.200006,251.827897)">
				<text style="font-family: Helvetica; font-size: 10px;fill: rgb(0%,0%,0%); stroke:none;" transform="translate(0,0) scale(1,-1)" x="0" y="0">Gene_00806</text>
			</g>
			<g transform=" matrix(0.707107,0.707107,-0.707107,0.707107,718.649759,251.827897)">
				<text style="font-family: Helvetica; font-size: 10px;fill: rgb(0%,0%,0%); stroke:none;" transform="translate(0,0) scale(1,-1)" x="0" y="0">Gene_00807</text>
			</g>
			<g transform=" matrix(0.707107,0.707107,-0.707107,0.707107,774.203967,251.827897)">
				<text style="font-family: Helvetica; font-size: 16px;fill: rgb(0%,0%,100%); stroke:none;" transform="translate(0,0) scale(1,-1)" x="0" y="0">Gene_00808 (81.9)</text>
			</g>
			<g transform=" matrix(0.707107,0.707107,-0.707107,0.707107,828.014177,251.827897)">
				<text style="font-family: Helvetica; font-size: 10px;fill: rgb(0%,0%,0%); stroke:none;" transform="translate(0,0) scale(1,-1)" x="0" y="0">Gene_00809</text>
			</g>
			<g transform=" matrix(0.707107,0.707107,-0.707107,0.707107,896.442248,251.827897)">
				<text style="font-family: Helvetica; font-size: 10px;fill: rgb(0%,0%,0%); stroke:none;" transform="translate(0,0) scale(1,-1)" x="0" y="0">Gene_00810</text>
			</g>
			<g transform=" matrix(0.707107,0.707107,-0.707107,0.707107,978.251525,251.827897)">
				<text style="font-family: Helvetica; font-size: 10px;fill: rgb(0%,0%,0%); stroke:none;" transform="translate(0,0) scale(1,-1)" x="0" y="0">Gene_00811</text>
			</g>
			<g transform=" matrix(0.707107,0.707107,-0.707107,0.707107,1050.579805,251.827897)">
				<text style="font-family: Helvetica; font-size: 10px;fill: rgb(0%,0%,0%); stroke:none;" transform="translate(0,0) scale(1,-1)" x="0" y="0">Gene_00812</text>
			</g>
			<g transform=" matrix(0.707107,0.707107,-0.707107,0.707107,1105.341287,251.827897)">
				<text style="font-family: Helvetica; font-size: 10px;fill: rgb(0%,0%,0%); stroke:none;" transform="translate(0,0) scale(1,-1)" x="0" y="0">Gene_00813</text>
			</g>
			<g transform=" matrix(0.707107,0.707107,-0.707107,0.707107,1157.78801,251.827897)">
				<text style="font-family: Helvetica; font-size: 10px;fill: rgb(0%,0%,0%); stroke:none;" transform="translate(0,0) scale(1,-1)" x="0" y="0">Gene_00814</text>
			</g>
			<g transform=" matrix(0.707107,0.707107,-0.707107,0.707107,1230.972434,251.827897)">
				<text style="font-family: Helvetica; font-size: 10px;fill: rgb(0%,0%,0%); stroke:none;" transform="translate(0,0) scale(1,-1)" x="0" y="0">Gene_00815</text>
			</g>
			<g transform=" matrix(0.707107,0.707107,-0.707107,0.707107,1300.478611,251.827897)">
				<text style="font-family: Helvetica; font-size: 10px;fill: rgb(0%,0%,0%); stroke:none;" transform="translate(0,0) scale(1,-1)" x="0" y="0">Gene_00816</text>
			</g>
			<g transform=" matrix(0.707107,0.707107,-0.707107,0.707107,1328.255714,251.827897)">
				<text style="font-family: Helvetica; font-size: 10px;fill: rgb(0%,0%,0%); stroke:none;" transform="translate(0,0) scale(1,-1)" x="0" y="0">Gene_00817</text>
			</g>
			<g transform=" matrix(0.707107,0.707107,-0.707107,0.707107,87.957305,538.835771)">
				<text style="font-family: Helvetica; font-size: 10px;fill: rgb(0%,0%,0%); stroke:none;" transform="translate(0,0) scale(1,-1)" x="0" y="0">Gene_01870</text>
			</g>
			<g transform=" matrix(0.707107,0.707107,-0.707107,0.707107,111.865908,538.835771)">
				<text style="font-family: Helvetica; font-size: 10px;fill: rgb(0%,0%,0%); stroke:none;" transform="translate(0,0) scale(1,-1)" x="0" y="0">Gene_01871</text>
			</g>
			<g transform=" matrix(0.707107,0.707107,-0.707107,0.707107,148.711792,538.835771)">
				<text style="font-family: Helvetica; font-size: 10px;fill: rgb(0%,0%,0%); stroke:none;" transform="translate(0,0) scale(1,-1)" x="0" y="0">Gene_01872</text>
			</g>
			<g transform=" matrix(0.707107,0.707107,-0.707107,0.707107,196.497288,538.835771)">
				<text style="font-family: Helvetica; font-size: 10px;fill: rgb(0%,0%,0%); stroke:none;" transform="translate(0,0) scale(1,-1)" x="0" y="0">Gene_01873</text>
			</g>
			<g transform=" matrix(0.707107,0.707107,-0.707107,0.707107,226.494023,538.835771)">
				<text style="font-family: Helvetica; font-size: 10px;fill: rgb(0%,0%,0%); stroke:none;" transform="translate(0,0) scale(1,-1)" x="0" y="0">Gene_01874</text>
			</g>
			<g transform=" matrix(0.707107,0.707107,-0.707107,0.707107,255.634615,538.835771)">
				<text style="font-family: Helvetica; font-size: 10px;fill: rgb(0%,0%,0%); stroke:none;" transform="translate(0,0) scale(1,-1)" x="0" y="0">Gene_01875</text>
			</g>
			<g transform=" matrix(0.707107,0.707107,-0.707107,0.707107,278.623656,538.835771)">
				<text style="font-family: Helvetica; font-size: 10px;fill: rgb(0%,0%,0%); stroke:none;" transform="translate(0,0) scale(1,-1)" x="0" y="0">Gene_01876</text>
			</g>
			<g transform=" matrix(0.707107,0.707107,-0.707107,0.707107,299.805283,538.835771)">
				<text style="font-family: Helvetica; font-size: 10px;fill: rgb(0%,0%,0%); stroke:none;" transform="translate(0,0) scale(1,-1)" x="0" y="0">Gene_01877</text>
			</g>
			<g transform=" matrix(0.707107,0.707107,-0.707107,0.707107,355.613162,538.835771)">
				<text style="font-family: Helvetica; font-size: 10px;fill: rgb(0%,0%,0%); stroke:none;" transform="translate(0,0) scale(1,-1)" x="0" y="0">Gene_01878</text>
			</g>
			<g transform=" matrix(0.707107,0.707107,-0.707107,0.707107,436.819969,538.835771)">
				<text style="font-family: Helvetica; font-size: 10px;fill: rgb(0%,0%,0%); stroke:none;" transform="translate(0,0) scale(1,-1)" x="0" y="0">Gene_01879</text>
			</g>
			<g transform=" matrix(0.707107,0.707107,-0.707107,0.707107,489.298401,538.835771)">
				<text style="font-family: Helvetica; font-size: 10px;fill: rgb(0%,0%,0%); stroke:none;" transform="translate(0,0) scale(1,-1)" x="0" y="0">Gene_01880</text>
			</g>
			<g transform=" matrix(0.707107,0.707107,-0.707107,0.707107,524.844215,538.835771)">
				<text style="font-family: Helvetica; font-size: 10px;fill: rgb(0%,0%,0%); stroke:none;" transform="translate(0,0) scale(1,-1)" x="0" y="0">Gene_01881</text>
			</g>
			<g transform=" matrix(0.707107,0.707107,-0.707107,0.707107,541.618288,538.835771)">
				<text style="font-family: Helvetica; font-size: 10px;fill: rgb(0%,0%,0%); stroke:none;" transform="translate(0,0) scale(1,-1)" x="0" y="0">Gene_01882</text>
			</g>
			<g transform=" matrix(0.707107,0.707107,-0.707107,0.707107,570.632043,538.835771)">
				<text style="font-family: Helvetica; font-size: 10px;fill: rgb(0%,0%,0%); stroke:none;" transform="translate(0,0) scale(1,-1)" x="0" y="0">Gene_01883</text>
			</g>
			<g transform=" matrix(0.707107,0.707107,-0.707107,0.707107,632.813436,538.835771)">
				<text style="font-family: Helvetica; font-size: 10px;fill: rgb(0%,0%,0%); stroke:none;" transform="translate(0,0) scale(1,-1)" x="0" y="0">Gene_01884</text>
			</g>
			<g transform=" matrix(0.707107,0.707107,-0.707107,0.707107,662.715044,538.835771)">
				<text style="font-family: Helvetica; font-size: 10px;fill: rgb(0%,0%,0%); stroke:none;" transform="translate(0,0) scale(1,-1)" x="0" y="0">Gene_01885</text>
			</g>
			<g transform=" matrix(0.707107,0.707107,-0.707107,0.707107,695.438755,538.835771)">
				<text style="font-family: Helvetica; font-size: 10px;fill: rgb(0%,0%,0%); stroke:none;" transform="translate(0,0) scale(1,-1)" x="0" y="0">Gene_01886</text>
			</g>
			<g transform=" matrix(0.707107,0.707107,-0.707107,0.707107,747.50497,538.835771)">
				<text style="font-family: Helvetica; font-size: 16px;fill: rgb(0%,0%,100%); stroke:none;" transform="translate(0,0) scale(1,-1)" x="0" y="0">Gene_01887 (81.9)</text>
			</g>
			<g transform=" matrix(0.707107,0.707107,-0.707107,0.707107,810.003453,538.835771)">
				<text style="font-family: Helvetica; font-size: 10px;fill: rgb(0%,0%,0%); stroke:none;" transform="translate(0,0) scale(1,-1)" x="0" y="0">Gene_01888</text>
			</g>
			<g transform=" matrix(1,0,-0,1,70,169.825647)">
				<text style="font-family: Helvetica; font-size: 12px;fill: rgb(60%,60%,60%); stroke:none;" transform="translate(0,0) scale(1,-1)" x="0" y="0">megahit_11382 (left 58806bp, right 8543bp)</text>
			</g>
			<g transform=" matrix(1,0,-0,1,70,456.833521)">
				<text style="font-family: Helvetica; font-size: 12px;fill: rgb(60%,60%,60%); stroke:none;" transform="translate(0,0) scale(1,-1)" x="0" y="0">megahit_38061 (left 30980bp, right 1091bp)</text>
			</g>
		</g>
	</g>
</svg>
