<?xml version="1.0" encoding="utf-8"?>
<!DOCTYPE svg
  PUBLIC '-//W3C//DTD SVG 1.0//EN'
  'http://www.w3.org/TR/2001/REC-SVG-20010904/DTD/svg10.dtd'>
<svg fill-rule="evenodd" height="708.6614173228346" preserveAspectRatio="xMinYMin meet" version="1.0" viewBox="0 0 1417 708" width="1417.3228346456692" xmlns="http://www.w3.org/2000/svg" xmlns:xlink="http://www.w3.org/1999/xlink">
	<title>...</title>
	<desc>...</desc>
	<clipPath id="clip">
		<rect height="708.6614173228346" width="1417.3228346456692" x="0" y="0"/>
	</clipPath>
	<g id="group" style="clip-path: url(#clip)" transform="scale(1,-1) translate(0,-708)">
		<g transform="">
			<polygon points="70.86614 169.8256, 1008.849 169.8256, 1008.849 251.8279, 70.86614 251.8279" style="stroke: rgb(96%,96%,96%); stroke-linecap: butt; stroke-width: 1; fill: rgb(96%,96%,96%); fill-rule: evenodd;"/>
			<polygon points="70.86614 456.8335, 1346.36 456.8335, 1346.36 538.8358, 70.86614 538.8358" style="stroke: rgb(96%,96%,96%); stroke-linecap: butt; stroke-width: 1; fill: rgb(96%,96%,96%); fill-rule: evenodd;"/>
			<polygon points="137.8649 456.8335, 374.0065 456.8335, 373.4256 251.8279, 612.9558 251.8279" style="stroke: rgb(100%,42%,42%); stroke-linecap: round; stroke-width: 1; fill: rgb(100%,42%,42%); fill-rule: evenodd;"/>
			<polygon points="398.9858 456.8335, 674.5327 456.8335, 71.05978 251.8279, 345.0576 251.8279" style="stroke: rgb(100%,54%,54%); stroke-linecap: round; stroke-width: 1; fill: rgb(100%,54%,54%); fill-rule: evenodd;"/>
			<polygon points="98.55638 456.8335, 121.212 456.8335, 625.8327 251.8279, 648.0043 251.8279" style="stroke: rgb(100%,49%,49%); stroke-linecap: round; stroke-width: 1; fill: rgb(100%,49%,49%); fill-rule: evenodd;"/>
			<polygon points="74.25481 241.5776, 128.3386 241.5776, 128.3386 251.8279, 144.7391 231.3273, 128.3386 210.8268, 128.3386 221.0771, 74.25481 221.0771" style="stroke: rgb(67%,84%,90%); stroke-linecap: round; stroke-width: 1; fill: rgb(67%,84%,90%); fill-rule: evenodd;"/>
			<polygon points="147.2563 241.5776, 164.7426 241.5776, 164.7426 251.8279, 181.143 231.3273, 164.7426 210.8268, 164.7426 221.0771, 147.2563 221.0771" style="stroke: rgb(67%,84%,90%); stroke-linecap: round; stroke-width: 1; fill: rgb(67%,84%,90%); fill-rule: evenodd;"/>
			<polygon points="183.4667 241.5776, 224.7703 241.5776, 224.7703 251.8279, 241.1708 231.3273, 224.7703 210.8268, 224.7703 221.0771, 183.4667 221.0771" style="stroke: rgb(67%,84%,90%); stroke-linecap: round; stroke-width: 1; fill: rgb(67%,84%,90%); fill-rule: evenodd;"/>
			<polygon points="241.5581 241.5776, 333.1108 241.5776, 333.1108 251.8279, 349.5113 231.3273, 333.1108 210.8268, 333.1108 221.0771, 241.5581 221.0771" style="stroke: rgb(67%,84%,90%); stroke-linecap: round; stroke-width: 1; fill: rgb(67%,84%,90%); fill-rule: evenodd;"/>
			<polygon points="374.6842 241.5776, 421.797 241.5776, 421.797 251.8279, 438.1975 231.3273, 421.797 210.8268, 421.797 221.0771, 374.6842 221.0771" style="stroke: rgb(67%,84%,90%); stroke-linecap: round; stroke-width: 1; fill: rgb(67%,84%,90%); fill-rule: evenodd;"/>
			<polygon points="443.0384 241.5776, 507.5787 241.5776, 507.5787 251.8279, 523.9791 231.3273, 507.5787 210.8268, 507.5787 221.0771, 443.0384 221.0771" style="stroke: rgb(67%,84%,90%); stroke-linecap: round; stroke-width: 1; fill: rgb(67%,84%,90%); fill-rule: evenodd;"/>
			<polygon points="522.8173 241.5776, 597.5236 241.5776, 597.5236 251.8279, 613.924 231.3273, 597.5236 210.8268, 597.5236 221.0771, 522.8173 221.0771" style="stroke: rgb(67%,84%,90%); stroke-linecap: round; stroke-width: 1; fill: rgb(67%,84%,90%); fill-rule: evenodd;"/>
			<polygon points="634.7401 241.5776, 726.0024 241.5776, 726.0024 251.8279, 742.4028 231.3273, 726.0024 210.8268, 726.0024 221.0771, 634.7401 221.0771" style="stroke: rgb(67%,84%,90%); stroke-linecap: round; stroke-width: 1; fill: rgb(67%,84%,90%); fill-rule: evenodd;"/>
			<polygon points="752.8593 241.5776, 856.3208 241.5776, 856.3208 251.8279, 872.7212 231.3273, 856.3208 210.8268, 856.3208 221.0771, 752.8593 221.0771" style="stroke: rgb(67%,84%,90%); stroke-linecap: round; stroke-width: 1; fill: rgb(67%,84%,90%); fill-rule: evenodd;"/>
			<polygon points="873.6894 241.5776, 946.3625 241.5776, 946.3625 251.8279, 962.7629 231.3273, 946.3625 210.8268, 946.3625 221.0771, 873.6894 221.0771" style="stroke: rgb(67%,84%,90%); stroke-linecap: round; stroke-width: 1; fill: rgb(67%,84%,90%); fill-rule: evenodd;"/>
			<polygon points="228.0034 487.5844, 153.5876 487.5844, 153.5876 497.8346, 137.1872 477.3341, 153.5876 456.8335, 153.5876 467.0838, 228.0034 467.0838" style="stroke: rgb(56%,93%,56%); stroke-linecap: round; stroke-width: 1; fill: rgb(56%,93%,56%); fill-rule: evenodd;"/>
			<polygon points="307.7823 487.5844, 243.242 487.5844, 243.242 497.8346, 226.8416 477.3341, 243.242 456.8335, 243.242 467.0838, 307.7823 467.0838" style="stroke: rgb(56%,93%,56%); stroke-linecap: round; stroke-width: 1; fill: rgb(56%,93%,56%); fill-rule: evenodd;"/>
			<polygon points="372.651 487.5844, 325.8286 487.5844, 325.8286 497.8346, 309.4282 477.3341, 325.8286 456.8335, 325.8286 467.0838, 372.651 467.0838" style="stroke: rgb(56%,93%,56%); stroke-linecap: round; stroke-width: 1; fill: rgb(56%,93%,56%); fill-rule: evenodd;"/>
			<polygon points="502.1949 487.5844, 412.3849 487.5844, 412.3849 497.8346, 395.9844 477.3341, 412.3849 456.8335, 412.3849 467.0838, 502.1949 467.0838" style="stroke: rgb(56%,93%,56%); stroke-linecap: round; stroke-width: 1; fill: rgb(56%,93%,56%); fill-rule: evenodd;"/>
			<polygon points="563.6749 487.5844, 522.3713 487.5844, 522.3713 497.8346, 505.9708 477.3341, 522.3713 456.8335, 522.3713 467.0838, 563.6749 467.0838" style="stroke: rgb(56%,93%,56%); stroke-linecap: round; stroke-width: 1; fill: rgb(56%,93%,56%); fill-rule: evenodd;"/>
			<polygon points="599.3043 487.5844, 581.5277 487.5844, 581.5277 497.8346, 565.1272 477.3341, 581.5277 456.8335, 581.5277 467.0838, 599.3043 467.0838" style="stroke: rgb(56%,93%,56%); stroke-linecap: round; stroke-width: 1; fill: rgb(56%,93%,56%); fill-rule: evenodd;"/>
			<polygon points="752.9561 487.5844, 616.9634 487.5844, 616.9634 497.8346, 600.563 477.3341, 616.9634 456.8335, 616.9634 467.0838, 752.9561 467.0838" style="stroke: rgb(56%,93%,56%); stroke-linecap: round; stroke-width: 1; fill: rgb(56%,93%,56%); fill-rule: evenodd;"/>
			<polygon points="862.168 487.5844, 774.3912 487.5844, 774.3912 497.8346, 757.9907 477.3341, 774.3912 456.8335, 774.3912 467.0838, 862.168 467.0838" style="stroke: rgb(56%,93%,56%); stroke-linecap: round; stroke-width: 1; fill: rgb(56%,93%,56%); fill-rule: evenodd;"/>
			<polygon points="878.2399 528.5855, 940.1661 528.5855, 940.1661 538.8358, 956.5665 518.3352, 940.1661 497.8346, 940.1661 508.0849, 878.2399 508.0849" style="stroke: rgb(67%,84%,90%); stroke-linecap: round; stroke-width: 1; fill: rgb(67%,84%,90%); fill-rule: evenodd;"/>
			<polygon points="1163.856 487.5844, 982.2616 487.5844, 982.2616 497.8346, 965.8611 477.3341, 982.2616 456.8335, 982.2616 467.0838, 1163.856 467.0838" style="stroke: rgb(56%,93%,56%); stroke-linecap: round; stroke-width: 1; fill: rgb(56%,93%,56%); fill-rule: evenodd;"/>
			<polygon points="1346.36 487.5844, 1183.645 487.5844, 1183.645 497.8346, 1167.245 477.3341, 1183.645 456.8335, 1183.645 467.0838, 1346.36 467.0838" style="stroke: rgb(56%,93%,56%); stroke-linecap: round; stroke-width: 1; fill: rgb(56%,93%,56%); fill-rule: evenodd;"/>
			<path d="M 1008.84878,169.825647 L 1008.84878,251.827897 Z" style="stroke: rgb(0%,0%,0%); stroke-linecap: butt; stroke-width: 1;"/>
			<path d="M 70.866142,210.826772 L 1008.84878,210.826772 Z" style="stroke: rgb(0%,0%,0%); stroke-linecap: butt; stroke-width: 1;"/>
			<path d="M 70.866142,169.825647 L 70.866142,251.827897 Z" style="stroke: rgb(0%,0%,0%); stroke-linecap: butt; stroke-width: 1;"/>
			<path d="M 1346.359874,456.833521 L 1346.359874,538.835771 Z" style="stroke: rgb(0%,0%,0%); stroke-linecap: butt; stroke-width: 1;"/>
			<path d="M 70.866142,497.834646 L 1346.359874,497.834646 Z" style="stroke: rgb(0%,0%,0%); stroke-linecap: butt; stroke-width: 1;"/>
			<path d="M 70.866142,456.833521 L 70.866142,538.835771 Z" style="stroke: rgb(0%,0%,0%); stroke-linecap: butt; stroke-width: 1;"/>
			<path d="M 1039.056313,497.834646 L 1039.056313,518.335208 Z" style="stroke: rgb(0%,0%,0%); stroke-linecap: butt; stroke-width: 1;"/>
			<path d="M 1039.056313,497.834646 L 1039.056313,510.134983 Z" style="stroke: rgb(0%,0%,0%); stroke-linecap: butt; stroke-width: 1;"/>
			<g transform=" matrix(0.707107,0.707107,-0.707107,0.707107,1039.056313,518.335208)">
				<text style="font-family: Helvetica; font-size: 6px;fill: rgb(0%,0%,0%); stroke:none;" transform="translate(0,0) scale(1,-1)" x="0" y="0">10000</text>
			</g>
			<g transform=" matrix(0.707107,0.707107,-0.707107,0.707107,109.49693,251.827897)">
				<text style="font-family: Helvetica; font-size: 10px;fill: rgb(0%,0%,0%); stroke:none;" transform="translate(0,0) scale(1,-1)" x="0" y="0">Gene_01615</text>
			</g>
			<g transform=" matrix(0.707107,0.707107,-0.707107,0.707107,164.199674,251.827897)">
				<text style="font-family: Helvetica; font-size: 10px;fill: rgb(0%,0%,0%); stroke:none;" transform="translate(0,0) scale(1,-1)" x="0" y="0">Gene_01616</text>
			</g>
			<g transform=" matrix(0.707107,0.707107,-0.707107,0.707107,212.318726,251.827897)">
				<text style="font-family: Helvetica; font-size: 10px;fill: rgb(0%,0%,0%); stroke:none;" transform="translate(0,0) scale(1,-1)" x="0" y="0">Gene_01617</text>
			</g>
			<g transform=" matrix(0.707107,0.707107,-0.707107,0.707107,295.534671,251.827897)">
				<text style="font-family: Helvetica; font-size: 10px;fill: rgb(0%,0%,0%); stroke:none;" transform="translate(0,0) scale(1,-1)" x="0" y="0">Gene_01618</text>
			</g>
			<g transform=" matrix(0.707107,0.707107,-0.707107,0.707107,406.440855,251.827897)">
				<text style="font-family: Helvetica; font-size: 10px;fill: rgb(0%,0%,0%); stroke:none;" transform="translate(0,0) scale(1,-1)" x="0" y="0">Gene_01619</text>
			</g>
			<g transform=" matrix(0.707107,0.707107,-0.707107,0.707107,483.508793,251.827897)">
				<text style="font-family: Helvetica; font-size: 16px;fill: rgb(0%,0%,100%); stroke:none;" transform="translate(0,0) scale(1,-1)" x="0" y="0">Gene_01620 (80.2)</text>
			</g>
			<g transform=" matrix(0.707107,0.707107,-0.707107,0.707107,568.370661,251.827897)">
				<text style="font-family: Helvetica; font-size: 10px;fill: rgb(0%,0%,0%); stroke:none;" transform="translate(0,0) scale(1,-1)" x="0" y="0">Gene_01621</text>
			</g>
			<g transform=" matrix(0.707107,0.707107,-0.707107,0.707107,688.571471,251.827897)">
				<text style="font-family: Helvetica; font-size: 10px;fill: rgb(0%,0%,0%); stroke:none;" transform="translate(0,0) scale(1,-1)" x="0" y="0">Gene_01622</text>
			</g>
			<g transform=" matrix(0.707107,0.707107,-0.707107,0.707107,812.79027,251.827897)">
				<text style="font-family: Helvetica; font-size: 10px;fill: rgb(0%,0%,0%); stroke:none;" transform="translate(0,0) scale(1,-1)" x="0" y="0">Gene_01623</text>
			</g>
			<g transform=" matrix(0.707107,0.707107,-0.707107,0.707107,918.22618,251.827897)">
				<text style="font-family: Helvetica; font-size: 10px;fill: rgb(0%,0%,0%); stroke:none;" transform="translate(0,0) scale(1,-1)" x="0" y="0">Gene_01624</text>
			</g>
			<g transform=" matrix(0.707107,-0.707107,0.707107,0.707107,182.595288,456.833521)">
				<text style="font-family: Helvetica; font-size: 10px;fill: rgb(0%,0%,0%); stroke:none;" transform="translate(0,0) scale(1,-1)" x="0" y="0">Gene_00912</text>
			</g>
			<g transform=" matrix(0.707107,-0.707107,0.707107,0.707107,267.311928,456.833521)">
				<text style="font-family: Helvetica; font-size: 16px;fill: rgb(0%,0%,100%); stroke:none;" transform="translate(0,0) scale(1,-1)" x="0" y="0">Gene_00913 (80.2)</text>
			</g>
			<g transform=" matrix(0.707107,-0.707107,0.707107,0.707107,341.039609,456.833521)">
				<text style="font-family: Helvetica; font-size: 10px;fill: rgb(0%,0%,0%); stroke:none;" transform="translate(0,0) scale(1,-1)" x="0" y="0">Gene_00914</text>
			</g>
			<g transform=" matrix(0.707107,-0.707107,0.707107,0.707107,449.089632,456.833521)">
				<text style="font-family: Helvetica; font-size: 10px;fill: rgb(0%,0%,0%); stroke:none;" transform="translate(0,0) scale(1,-1)" x="0" y="0">Gene_00915</text>
			</g>
			<g transform=" matrix(0.707107,-0.707107,0.707107,0.707107,534.822872,456.833521)">
				<text style="font-family: Helvetica; font-size: 10px;fill: rgb(0%,0%,0%); stroke:none;" transform="translate(0,0) scale(1,-1)" x="0" y="0">Gene_00916</text>
			</g>
			<g transform=" matrix(0.707107,-0.707107,0.707107,0.707107,582.215781,456.833521)">
				<text style="font-family: Helvetica; font-size: 10px;fill: rgb(0%,0%,0%); stroke:none;" transform="translate(0,0) scale(1,-1)" x="0" y="0">Gene_00917</text>
			</g>
			<g transform=" matrix(0.707107,-0.707107,0.707107,0.707107,676.759551,456.833521)">
				<text style="font-family: Helvetica; font-size: 10px;fill: rgb(0%,0%,0%); stroke:none;" transform="translate(0,0) scale(1,-1)" x="0" y="0">Gene_00918</text>
			</g>
			<g transform=" matrix(0.707107,-0.707107,0.707107,0.707107,810.079338,456.833521)">
				<text style="font-family: Helvetica; font-size: 10px;fill: rgb(0%,0%,0%); stroke:none;" transform="translate(0,0) scale(1,-1)" x="0" y="0">Gene_00919</text>
			</g>
			<g transform=" matrix(0.707107,0.707107,-0.707107,0.707107,917.403218,538.835771)">
				<text style="font-family: Helvetica; font-size: 10px;fill: rgb(0%,0%,0%); stroke:none;" transform="translate(0,0) scale(1,-1)" x="0" y="0">Gene_00920</text>
			</g>
			<g transform=" matrix(0.707107,-0.707107,0.707107,0.707107,1064.858581,456.833521)">
				<text style="font-family: Helvetica; font-size: 10px;fill: rgb(0%,0%,0%); stroke:none;" transform="translate(0,0) scale(1,-1)" x="0" y="0">Gene_00921</text>
			</g>
			<g transform=" matrix(0.707107,-0.707107,0.707107,0.707107,1256.802283,456.833521)">
				<text style="font-family: Helvetica; font-size: 10px;fill: rgb(0%,0%,0%); stroke:none;" transform="translate(0,0) scale(1,-1)" x="0" y="0">Gene_00922</text>
			</g>
			<g transform=" matrix(1,0,-0,1,70,169.825647)">
				<text style="font-family: Helvetica; font-size: 12px;fill: rgb(60%,60%,60%); stroke:none;" transform="translate(0,0) scale(1,-1)" x="0" y="0">megahit_76243 (left 3844bp, right 5008bp)</text>
			</g>
			<g transform=" matrix(1,0,-0,1,70,456.833521)">
				<text style="font-family: Helvetica; font-size: 12px;fill: rgb(60%,60%,60%); stroke:none;" transform="translate(0,0) scale(1,-1)" x="0" y="0">megahit_18058 (left 1611bp, right 23775bp)</text>
			</g>
		</g>
	</g>
</svg>
