<?xml version="1.0" encoding="utf-8"?>
<!DOCTYPE svg
  PUBLIC '-//W3C//DTD SVG 1.0//EN'
  'http://www.w3.org/TR/2001/REC-SVG-20010904/DTD/svg10.dtd'>
<svg fill-rule="evenodd" height="708.6614173228346" preserveAspectRatio="xMinYMin meet" version="1.0" viewBox="0 0 1417 708" width="1417.3228346456692" xmlns="http://www.w3.org/2000/svg" xmlns:xlink="http://www.w3.org/1999/xlink">
	<title>...</title>
	<desc>...</desc>
	<clipPath id="clip">
		<rect height="708.6614173228346" width="1417.3228346456692" x="0" y="0"/>
	</clipPath>
	<g id="group" style="clip-path: url(#clip)" transform="scale(1,-1) translate(0,-708)">
		<g transform="">
			<polygon points="70.86614 169.8256, 785.5491 169.8256, 785.5491 251.8279, 70.86614 251.8279" style="stroke: rgb(96%,96%,96%); stroke-linecap: butt; stroke-width: 1; fill: rgb(96%,96%,96%); fill-rule: evenodd;"/>
			<polygon points="70.86614 456.8335, 1346.405 456.8335, 1346.405 538.8358, 70.86614 538.8358" style="stroke: rgb(96%,96%,96%); stroke-linecap: butt; stroke-width: 1; fill: rgb(96%,96%,96%); fill-rule: evenodd;"/>
			<polygon points="562.5722 456.8335, 1132.755 456.8335, 640.8929 251.8279, 70.91825 251.8279" style="stroke: rgb(100%,3%,3%); stroke-linecap: round; stroke-width: 1; fill: rgb(100%,3%,3%); fill-rule: evenodd;"/>
			<polygon points="86.03003 241.5776, 123.3546 241.5776, 123.3546 251.8279, 139.755 231.3273, 123.3546 210.8268, 123.3546 221.0771, 86.03003 221.0771" style="stroke: rgb(67%,84%,90%); stroke-linecap: round; stroke-width: 1; fill: rgb(67%,84%,90%); fill-rule: evenodd;"/>
			<polygon points="195.2517 200.5765, 162.6171 200.5765, 162.6171 210.8268, 146.2166 190.3262, 162.6171 169.8256, 162.6171 180.0759, 195.2517 180.0759" style="stroke: rgb(56%,93%,56%); stroke-linecap: round; stroke-width: 1; fill: rgb(56%,93%,56%); fill-rule: evenodd;"/>
			<polygon points="210.7804 241.5776, 221.06 241.5776, 221.06 251.8279, 237.4605 231.3273, 221.06 210.8268, 221.06 221.0771, 210.7804 221.0771" style="stroke: rgb(67%,84%,90%); stroke-linecap: round; stroke-width: 1; fill: rgb(67%,84%,90%); fill-rule: evenodd;"/>
			<polygon points="260.3887 241.5776, 306.3113 241.5776, 306.3113 251.8279, 322.7118 231.3273, 306.3113 210.8268, 306.3113 221.0771, 260.3887 221.0771" style="stroke: rgb(67%,84%,90%); stroke-linecap: round; stroke-width: 1; fill: rgb(67%,84%,90%); fill-rule: evenodd;"/>
			<polygon points="322.5554 241.5776, 375.9818 241.5776, 375.9818 251.8279, 392.3823 231.3273, 375.9818 210.8268, 375.9818 221.0771, 322.5554 221.0771" style="stroke: rgb(67%,84%,90%); stroke-linecap: round; stroke-width: 1; fill: rgb(67%,84%,90%); fill-rule: evenodd;"/>
			<polygon points="397.8538 241.5776, 408.6024 241.5776, 408.6024 251.8279, 425.0029 231.3273, 408.6024 210.8268, 408.6024 221.0771, 397.8538 221.0771" style="stroke: rgb(67%,84%,90%); stroke-linecap: round; stroke-width: 1; fill: rgb(67%,84%,90%); fill-rule: evenodd;"/>
			<polygon points="426.1493 241.5776, 433.7714 241.5776, 433.7714 251.8279, 450.1718 231.3273, 433.7714 210.8268, 433.7714 221.0771, 426.1493 221.0771" style="stroke: rgb(67%,84%,90%); stroke-linecap: round; stroke-width: 1; fill: rgb(67%,84%,90%); fill-rule: evenodd;"/>
			<polygon points="513.485 200.5765, 471.7832 200.5765, 471.7832 210.8268, 455.3828 190.3262, 471.7832 169.8256, 471.7832 180.0759, 513.485 180.0759" style="stroke: rgb(56%,93%,56%); stroke-linecap: round; stroke-width: 1; fill: rgb(56%,93%,56%); fill-rule: evenodd;"/>
			<polygon points="535.1626 241.5776, 549.8194 241.5776, 549.8194 251.8279, 566.2199 231.3273, 549.8194 210.8268, 549.8194 221.0771, 535.1626 221.0771" style="stroke: rgb(67%,84%,90%); stroke-linecap: round; stroke-width: 1; fill: rgb(67%,84%,90%); fill-rule: evenodd;"/>
			<polygon points="581.019 241.5776, 624.5967 241.5776, 624.5967 251.8279, 640.9971 231.3273, 624.5967 210.8268, 624.5967 221.0771, 581.019 221.0771" style="stroke: rgb(67%,84%,90%); stroke-linecap: round; stroke-width: 1; fill: rgb(67%,84%,90%); fill-rule: evenodd;"/>
			<polygon points="651.7317 241.5776, 695.7784 241.5776, 695.7784 251.8279, 712.1788 231.3273, 695.7784 210.8268, 695.7784 221.0771, 651.7317 221.0771" style="stroke: rgb(67%,84%,90%); stroke-linecap: round; stroke-width: 1; fill: rgb(67%,84%,90%); fill-rule: evenodd;"/>
			<polygon points="785.5491 200.5765, 732.748 200.5765, 732.748 210.8268, 716.3476 190.3262, 732.748 169.8256, 732.748 180.0759, 785.5491 180.0759" style="stroke: rgb(56%,93%,56%); stroke-linecap: round; stroke-width: 1; fill: rgb(56%,93%,56%); fill-rule: evenodd;"/>
			<polygon points="70.86614 528.5855, 127.1065 528.5855, 127.1065 538.8358, 143.5069 518.3352, 127.1065 497.8346, 127.1065 508.0849, 70.86614 508.0849" style="stroke: rgb(67%,84%,90%); stroke-linecap: round; stroke-width: 1; fill: rgb(67%,84%,90%); fill-rule: evenodd;"/>
			<polygon points="175.6585 487.5844, 163.9719 487.5844, 163.9719 497.8346, 147.5715 477.3341, 163.9719 456.8335, 163.9719 467.0838, 175.6585 467.0838" style="stroke: rgb(56%,93%,56%); stroke-linecap: round; stroke-width: 1; fill: rgb(56%,93%,56%); fill-rule: evenodd;"/>
			<polygon points="190.145 528.5855, 266.708 528.5855, 266.708 538.8358, 283.1085 518.3352, 266.708 497.8346, 266.708 508.0849, 190.145 508.0849" style="stroke: rgb(67%,84%,90%); stroke-linecap: round; stroke-width: 1; fill: rgb(67%,84%,90%); fill-rule: evenodd;"/>
			<polygon points="294.5726 487.5844, 294.5726 497.8346, 287.2773 477.3341, 294.5726 456.8335, 294.5726 467.0838" style="stroke: rgb(56%,93%,56%); stroke-linecap: round; stroke-width: 1; fill: rgb(56%,93%,56%); fill-rule: evenodd;"/>
			<polygon points="306.8183 528.5855, 359.9321 528.5855, 359.9321 538.8358, 376.3325 518.3352, 359.9321 497.8346, 359.9321 508.0849, 306.8183 508.0849" style="stroke: rgb(67%,84%,90%); stroke-linecap: round; stroke-width: 1; fill: rgb(67%,84%,90%); fill-rule: evenodd;"/>
			<polygon points="376.541 528.5855, 411.6769 528.5855, 411.6769 538.8358, 428.0774 518.3352, 411.6769 497.8346, 411.6769 508.0849, 376.541 508.0849" style="stroke: rgb(67%,84%,90%); stroke-linecap: round; stroke-width: 1; fill: rgb(67%,84%,90%); fill-rule: evenodd;"/>
			<polygon points="428.0774 528.5855, 441.4836 528.5855, 441.4836 538.8358, 457.884 518.3352, 441.4836 497.8346, 441.4836 508.0849, 428.0774 508.0849" style="stroke: rgb(67%,84%,90%); stroke-linecap: round; stroke-width: 1; fill: rgb(67%,84%,90%); fill-rule: evenodd;"/>
			<polygon points="458.0404 528.5855, 477.8561 528.5855, 477.8561 538.8358, 494.2565 518.3352, 477.8561 497.8346, 477.8561 508.0849, 458.0404 508.0849" style="stroke: rgb(67%,84%,90%); stroke-linecap: round; stroke-width: 1; fill: rgb(67%,84%,90%); fill-rule: evenodd;"/>
			<polygon points="494.1002 528.5855, 510.9457 528.5855, 510.9457 538.8358, 527.3461 518.3352, 510.9457 497.8346, 510.9457 508.0849, 494.1002 508.0849" style="stroke: rgb(67%,84%,90%); stroke-linecap: round; stroke-width: 1; fill: rgb(67%,84%,90%); fill-rule: evenodd;"/>
			<polygon points="528.3362 528.5855, 555.4994 528.5855, 555.4994 538.8358, 571.8998 518.3352, 555.4994 497.8346, 555.4994 508.0849, 528.3362 508.0849" style="stroke: rgb(67%,84%,90%); stroke-linecap: round; stroke-width: 1; fill: rgb(67%,84%,90%); fill-rule: evenodd;"/>
			<polygon points="577.4755 528.5855, 614.8001 528.5855, 614.8001 538.8358, 631.2005 518.3352, 614.8001 497.8346, 614.8001 508.0849, 577.4755 508.0849" style="stroke: rgb(67%,84%,90%); stroke-linecap: round; stroke-width: 1; fill: rgb(67%,84%,90%); fill-rule: evenodd;"/>
			<polygon points="686.6451 487.5844, 654.0104 487.5844, 654.0104 497.8346, 637.61 477.3341, 654.0104 456.8335, 654.0104 467.0838, 686.6451 467.0838" style="stroke: rgb(56%,93%,56%); stroke-linecap: round; stroke-width: 1; fill: rgb(56%,93%,56%); fill-rule: evenodd;"/>
			<polygon points="702.6428 528.5855, 712.9224 528.5855, 712.9224 538.8358, 729.3229 518.3352, 712.9224 497.8346, 712.9224 508.0849, 702.6428 508.0849" style="stroke: rgb(67%,84%,90%); stroke-linecap: round; stroke-width: 1; fill: rgb(67%,84%,90%); fill-rule: evenodd;"/>
			<polygon points="751.9384 528.5855, 797.861 528.5855, 797.861 538.8358, 814.2615 518.3352, 797.861 497.8346, 797.861 508.0849, 751.9384 508.0849" style="stroke: rgb(67%,84%,90%); stroke-linecap: round; stroke-width: 1; fill: rgb(67%,84%,90%); fill-rule: evenodd;"/>
			<polygon points="814.1052 528.5855, 867.5316 528.5855, 867.5316 538.8358, 883.932 518.3352, 867.5316 497.8346, 867.5316 508.0849, 814.1052 508.0849" style="stroke: rgb(67%,84%,90%); stroke-linecap: round; stroke-width: 1; fill: rgb(67%,84%,90%); fill-rule: evenodd;"/>
			<polygon points="889.4035 528.5855, 900.1522 528.5855, 900.1522 538.8358, 916.5526 518.3352, 900.1522 497.8346, 900.1522 508.0849, 889.4035 508.0849" style="stroke: rgb(67%,84%,90%); stroke-linecap: round; stroke-width: 1; fill: rgb(67%,84%,90%); fill-rule: evenodd;"/>
			<polygon points="917.699 528.5855, 925.3211 528.5855, 925.3211 538.8358, 941.7215 518.3352, 925.3211 497.8346, 925.3211 508.0849, 917.699 508.0849" style="stroke: rgb(67%,84%,90%); stroke-linecap: round; stroke-width: 1; fill: rgb(67%,84%,90%); fill-rule: evenodd;"/>
			<polygon points="1005.347 487.5844, 963.6456 487.5844, 963.6456 497.8346, 947.2452 477.3341, 963.6456 456.8335, 963.6456 467.0838, 1005.347 467.0838" style="stroke: rgb(56%,93%,56%); stroke-linecap: round; stroke-width: 1; fill: rgb(56%,93%,56%); fill-rule: evenodd;"/>
			<polygon points="1019.834 487.5844, 1019.834 497.8346, 1011.913 477.3341, 1019.834 456.8335, 1019.834 467.0838" style="stroke: rgb(56%,93%,56%); stroke-linecap: round; stroke-width: 1; fill: rgb(56%,93%,56%); fill-rule: evenodd;"/>
			<polygon points="1027.025 528.5855, 1041.682 528.5855, 1041.682 538.8358, 1058.082 518.3352, 1041.682 497.8346, 1041.682 508.0849, 1027.025 508.0849" style="stroke: rgb(67%,84%,90%); stroke-linecap: round; stroke-width: 1; fill: rgb(67%,84%,90%); fill-rule: evenodd;"/>
			<polygon points="1072.881 528.5855, 1116.459 528.5855, 1116.459 538.8358, 1132.86 518.3352, 1116.459 497.8346, 1116.459 508.0849, 1072.881 508.0849" style="stroke: rgb(67%,84%,90%); stroke-linecap: round; stroke-width: 1; fill: rgb(67%,84%,90%); fill-rule: evenodd;"/>
			<polygon points="1144.897 528.5855, 1152.988 528.5855, 1152.988 538.8358, 1169.388 518.3352, 1152.988 497.8346, 1152.988 508.0849, 1144.897 508.0849" style="stroke: rgb(67%,84%,90%); stroke-linecap: round; stroke-width: 1; fill: rgb(67%,84%,90%); fill-rule: evenodd;"/>
			<polygon points="1307.843 487.5844, 1190.635 487.5844, 1190.635 497.8346, 1174.235 477.3341, 1190.635 456.8335, 1190.635 467.0838, 1307.843 467.0838" style="stroke: rgb(56%,93%,56%); stroke-linecap: round; stroke-width: 1; fill: rgb(56%,93%,56%); fill-rule: evenodd;"/>
			<polygon points="1346.405 487.5844, 1324.088 487.5844, 1324.088 497.8346, 1307.687 477.3341, 1324.088 456.8335, 1324.088 467.0838, 1346.405 467.0838" style="stroke: rgb(56%,93%,56%); stroke-linecap: round; stroke-width: 1; fill: rgb(56%,93%,56%); fill-rule: evenodd;"/>
			<path d="M 785.549111,169.825647 L 785.549111,251.827897 Z" style="stroke: rgb(0%,0%,0%); stroke-linecap: butt; stroke-width: 1;"/>
			<path d="M 70.866142,210.826772 L 785.549111,210.826772 Z" style="stroke: rgb(0%,0%,0%); stroke-linecap: butt; stroke-width: 1;"/>
			<path d="M 70.866142,169.825647 L 70.866142,251.827897 Z" style="stroke: rgb(0%,0%,0%); stroke-linecap: butt; stroke-width: 1;"/>
			<path d="M 591.962,210.826772 L 591.962,231.327334 Z" style="stroke: rgb(0%,0%,0%); stroke-linecap: butt; stroke-width: 1;"/>
			<path d="M 591.962,210.826772 L 591.962,223.127109 Z" style="stroke: rgb(0%,0%,0%); stroke-linecap: butt; stroke-width: 1;"/>
			<path d="M 1346.404583,456.833521 L 1346.404583,538.835771 Z" style="stroke: rgb(0%,0%,0%); stroke-linecap: butt; stroke-width: 1;"/>
			<path d="M 70.866142,497.834646 L 1346.404583,497.834646 Z" style="stroke: rgb(0%,0%,0%); stroke-linecap: butt; stroke-width: 1;"/>
			<path d="M 70.866142,456.833521 L 70.866142,538.835771 Z" style="stroke: rgb(0%,0%,0%); stroke-linecap: butt; stroke-width: 1;"/>
			<path d="M 591.962,497.834646 L 591.962,518.335208 Z" style="stroke: rgb(0%,0%,0%); stroke-linecap: butt; stroke-width: 1;"/>
			<path d="M 1113.057858,497.834646 L 1113.057858,518.335208 Z" style="stroke: rgb(0%,0%,0%); stroke-linecap: butt; stroke-width: 1;"/>
			<path d="M 591.962,497.834646 L 591.962,510.134983 Z" style="stroke: rgb(0%,0%,0%); stroke-linecap: butt; stroke-width: 1;"/>
			<path d="M 1113.057858,497.834646 L 1113.057858,510.134983 Z" style="stroke: rgb(0%,0%,0%); stroke-linecap: butt; stroke-width: 1;"/>
			<g transform=" matrix(0.707107,0.707107,-0.707107,0.707107,591.962,231.327334)">
				<text style="font-family: Helvetica; font-size: 6px;fill: rgb(0%,0%,0%); stroke:none;" transform="translate(0,0) scale(1,-1)" x="0" y="0">10000</text>
			</g>
			<g transform=" matrix(0.707107,0.707107,-0.707107,0.707107,591.962,518.335208)">
				<text style="font-family: Helvetica; font-size: 6px;fill: rgb(0%,0%,0%); stroke:none;" transform="translate(0,0) scale(1,-1)" x="0" y="0">10000</text>
			</g>
			<g transform=" matrix(0.707107,0.707107,-0.707107,0.707107,1113.057858,518.335208)">
				<text style="font-family: Helvetica; font-size: 6px;fill: rgb(0%,0%,0%); stroke:none;" transform="translate(0,0) scale(1,-1)" x="0" y="0">20000</text>
			</g>
			<g transform=" matrix(0.707107,0.707107,-0.707107,0.707107,112.892523,251.827897)">
				<text style="font-family: Helvetica; font-size: 10px;fill: rgb(0%,0%,0%); stroke:none;" transform="translate(0,0) scale(1,-1)" x="0" y="0">Gene_01713</text>
			</g>
			<g transform=" matrix(0.707107,-0.707107,0.707107,0.707107,170.734163,169.825647)">
				<text style="font-family: Helvetica; font-size: 16px;fill: rgb(0%,0%,100%); stroke:none;" transform="translate(0,0) scale(1,-1)" x="0" y="0">Gene_01714 (99.3)</text>
			</g>
			<g transform=" matrix(0.707107,0.707107,-0.707107,0.707107,224.120434,251.827897)">
				<text style="font-family: Helvetica; font-size: 10px;fill: rgb(0%,0%,0%); stroke:none;" transform="translate(0,0) scale(1,-1)" x="0" y="0">Gene_01715</text>
			</g>
			<g transform=" matrix(0.707107,0.707107,-0.707107,0.707107,291.550238,251.827897)">
				<text style="font-family: Helvetica; font-size: 10px;fill: rgb(0%,0%,0%); stroke:none;" transform="translate(0,0) scale(1,-1)" x="0" y="0">Gene_01716</text>
			</g>
			<g transform=" matrix(0.707107,0.707107,-0.707107,0.707107,357.468864,251.827897)">
				<text style="font-family: Helvetica; font-size: 10px;fill: rgb(0%,0%,0%); stroke:none;" transform="translate(0,0) scale(1,-1)" x="0" y="0">Gene_01717</text>
			</g>
			<g transform=" matrix(0.707107,0.707107,-0.707107,0.707107,411.42834,251.827897)">
				<text style="font-family: Helvetica; font-size: 10px;fill: rgb(0%,0%,0%); stroke:none;" transform="translate(0,0) scale(1,-1)" x="0" y="0">Gene_01718</text>
			</g>
			<g transform=" matrix(0.707107,0.707107,-0.707107,0.707107,438.160557,251.827897)">
				<text style="font-family: Helvetica; font-size: 10px;fill: rgb(0%,0%,0%); stroke:none;" transform="translate(0,0) scale(1,-1)" x="0" y="0">Gene_01719</text>
			</g>
			<g transform=" matrix(0.707107,-0.707107,0.707107,0.707107,484.43387,169.825647)">
				<text style="font-family: Helvetica; font-size: 10px;fill: rgb(0%,0%,0%); stroke:none;" transform="translate(0,0) scale(1,-1)" x="0" y="0">Gene_01720</text>
			</g>
			<g transform=" matrix(0.707107,0.707107,-0.707107,0.707107,550.691208,251.827897)">
				<text style="font-family: Helvetica; font-size: 10px;fill: rgb(0%,0%,0%); stroke:none;" transform="translate(0,0) scale(1,-1)" x="0" y="0">Gene_01721</text>
			</g>
			<g transform=" matrix(0.707107,0.707107,-0.707107,0.707107,611.008054,251.827897)">
				<text style="font-family: Helvetica; font-size: 10px;fill: rgb(0%,0%,0%); stroke:none;" transform="translate(0,0) scale(1,-1)" x="0" y="0">Gene_01722</text>
			</g>
			<g transform=" matrix(0.707107,0.707107,-0.707107,0.707107,681.955255,251.827897)">
				<text style="font-family: Helvetica; font-size: 10px;fill: rgb(0%,0%,0%); stroke:none;" transform="translate(0,0) scale(1,-1)" x="0" y="0">Gene_01723</text>
			</g>
			<g transform=" matrix(0.707107,-0.707107,0.707107,0.707107,750.948346,169.825647)">
				<text style="font-family: Helvetica; font-size: 10px;fill: rgb(0%,0%,0%); stroke:none;" transform="translate(0,0) scale(1,-1)" x="0" y="0">Gene_01724</text>
			</g>
			<g transform=" matrix(0.707107,0.707107,-0.707107,0.707107,107.186523,538.835771)">
				<text style="font-family: Helvetica; font-size: 10px;fill: rgb(0%,0%,0%); stroke:none;" transform="translate(0,0) scale(1,-1)" x="0" y="0">Gene_01124</text>
			</g>
			<g transform=" matrix(0.707107,-0.707107,0.707107,0.707107,161.614985,456.833521)">
				<text style="font-family: Helvetica; font-size: 10px;fill: rgb(0%,0%,0%); stroke:none;" transform="translate(0,0) scale(1,-1)" x="0" y="0">Gene_01125</text>
			</g>
			<g transform=" matrix(0.707107,0.707107,-0.707107,0.707107,236.626734,538.835771)">
				<text style="font-family: Helvetica; font-size: 10px;fill: rgb(0%,0%,0%); stroke:none;" transform="translate(0,0) scale(1,-1)" x="0" y="0">Gene_01126</text>
			</g>
			<g transform=" matrix(0.707107,-0.707107,0.707107,0.707107,290.924923,456.833521)">
				<text style="font-family: Helvetica; font-size: 10px;fill: rgb(0%,0%,0%); stroke:none;" transform="translate(0,0) scale(1,-1)" x="0" y="0">Gene_01127</text>
			</g>
			<g transform=" matrix(0.707107,0.707107,-0.707107,0.707107,341.57544,538.835771)">
				<text style="font-family: Helvetica; font-size: 10px;fill: rgb(0%,0%,0%); stroke:none;" transform="translate(0,0) scale(1,-1)" x="0" y="0">Gene_01128</text>
			</g>
			<g transform=" matrix(0.707107,0.707107,-0.707107,0.707107,402.309162,538.835771)">
				<text style="font-family: Helvetica; font-size: 10px;fill: rgb(0%,0%,0%); stroke:none;" transform="translate(0,0) scale(1,-1)" x="0" y="0">Gene_01129</text>
			</g>
			<g transform=" matrix(0.707107,0.707107,-0.707107,0.707107,442.980694,538.835771)">
				<text style="font-family: Helvetica; font-size: 10px;fill: rgb(0%,0%,0%); stroke:none;" transform="translate(0,0) scale(1,-1)" x="0" y="0">Gene_01130</text>
			</g>
			<g transform=" matrix(0.707107,0.707107,-0.707107,0.707107,476.148445,538.835771)">
				<text style="font-family: Helvetica; font-size: 10px;fill: rgb(0%,0%,0%); stroke:none;" transform="translate(0,0) scale(1,-1)" x="0" y="0">Gene_01131</text>
			</g>
			<g transform=" matrix(0.707107,0.707107,-0.707107,0.707107,510.723156,538.835771)">
				<text style="font-family: Helvetica; font-size: 10px;fill: rgb(0%,0%,0%); stroke:none;" transform="translate(0,0) scale(1,-1)" x="0" y="0">Gene_01132</text>
			</g>
			<g transform=" matrix(0.707107,0.707107,-0.707107,0.707107,550.118002,538.835771)">
				<text style="font-family: Helvetica; font-size: 10px;fill: rgb(0%,0%,0%); stroke:none;" transform="translate(0,0) scale(1,-1)" x="0" y="0">Gene_01133</text>
			</g>
			<g transform=" matrix(0.707107,0.707107,-0.707107,0.707107,604.338027,538.835771)">
				<text style="font-family: Helvetica; font-size: 10px;fill: rgb(0%,0%,0%); stroke:none;" transform="translate(0,0) scale(1,-1)" x="0" y="0">Gene_01134</text>
			</g>
			<g transform=" matrix(0.707107,-0.707107,0.707107,0.707107,662.127557,456.833521)">
				<text style="font-family: Helvetica; font-size: 16px;fill: rgb(0%,0%,100%); stroke:none;" transform="translate(0,0) scale(1,-1)" x="0" y="0">Gene_01135 (99.3)</text>
			</g>
			<g transform=" matrix(0.707107,0.707107,-0.707107,0.707107,715.982814,538.835771)">
				<text style="font-family: Helvetica; font-size: 10px;fill: rgb(0%,0%,0%); stroke:none;" transform="translate(0,0) scale(1,-1)" x="0" y="0">Gene_01136</text>
			</g>
			<g transform=" matrix(0.707107,0.707107,-0.707107,0.707107,783.099961,538.835771)">
				<text style="font-family: Helvetica; font-size: 10px;fill: rgb(0%,0%,0%); stroke:none;" transform="translate(0,0) scale(1,-1)" x="0" y="0">Gene_01137</text>
			</g>
			<g transform=" matrix(0.707107,0.707107,-0.707107,0.707107,849.018587,538.835771)">
				<text style="font-family: Helvetica; font-size: 10px;fill: rgb(0%,0%,0%); stroke:none;" transform="translate(0,0) scale(1,-1)" x="0" y="0">Gene_01138</text>
			</g>
			<g transform=" matrix(0.707107,0.707107,-0.707107,0.707107,902.978063,538.835771)">
				<text style="font-family: Helvetica; font-size: 10px;fill: rgb(0%,0%,0%); stroke:none;" transform="translate(0,0) scale(1,-1)" x="0" y="0">Gene_01139</text>
			</g>
			<g transform=" matrix(0.707107,0.707107,-0.707107,0.707107,929.71028,538.835771)">
				<text style="font-family: Helvetica; font-size: 10px;fill: rgb(0%,0%,0%); stroke:none;" transform="translate(0,0) scale(1,-1)" x="0" y="0">Gene_01140</text>
			</g>
			<g transform=" matrix(0.707107,-0.707107,0.707107,0.707107,976.29625,456.833521)">
				<text style="font-family: Helvetica; font-size: 10px;fill: rgb(0%,0%,0%); stroke:none;" transform="translate(0,0) scale(1,-1)" x="0" y="0">Gene_01141</text>
			</g>
			<g transform=" matrix(0.707107,-0.707107,0.707107,0.707107,1015.87348,456.833521)">
				<text style="font-family: Helvetica; font-size: 10px;fill: rgb(0%,0%,0%); stroke:none;" transform="translate(0,0) scale(1,-1)" x="0" y="0">Gene_01142</text>
			</g>
			<g transform=" matrix(0.707107,0.707107,-0.707107,0.707107,1042.553588,538.835771)">
				<text style="font-family: Helvetica; font-size: 10px;fill: rgb(0%,0%,0%); stroke:none;" transform="translate(0,0) scale(1,-1)" x="0" y="0">Gene_01143</text>
			</g>
			<g transform=" matrix(0.707107,0.707107,-0.707107,0.707107,1102.870434,538.835771)">
				<text style="font-family: Helvetica; font-size: 10px;fill: rgb(0%,0%,0%); stroke:none;" transform="translate(0,0) scale(1,-1)" x="0" y="0">Gene_01144</text>
			</g>
			<g transform=" matrix(0.707107,0.707107,-0.707107,0.707107,1157.142568,538.835771)">
				<text style="font-family: Helvetica; font-size: 10px;fill: rgb(0%,0%,0%); stroke:none;" transform="translate(0,0) scale(1,-1)" x="0" y="0">Gene_01145</text>
			</g>
			<g transform=" matrix(0.707107,-0.707107,0.707107,0.707107,1241.039001,456.833521)">
				<text style="font-family: Helvetica; font-size: 10px;fill: rgb(0%,0%,0%); stroke:none;" transform="translate(0,0) scale(1,-1)" x="0" y="0">Gene_01146</text>
			</g>
			<g transform=" matrix(0.707107,-0.707107,0.707107,0.707107,1327.045872,456.833521)">
				<text style="font-family: Helvetica; font-size: 10px;fill: rgb(0%,0%,0%); stroke:none;" transform="translate(0,0) scale(1,-1)" x="0" y="0">Gene_01147</text>
			</g>
			<g transform=" matrix(1,0,-0,1,70,169.825647)">
				<text style="font-family: Helvetica; font-size: 12px;fill: rgb(60%,60%,60%); stroke:none;" transform="translate(0,0) scale(1,-1)" x="0" y="0">megahit_116474 (left 1446bp, right 32750bp)</text>
			</g>
			<g transform=" matrix(1,0,-0,1,70,456.833521)">
				<text style="font-family: Helvetica; font-size: 12px;fill: rgb(60%,60%,60%); stroke:none;" transform="translate(0,0) scale(1,-1)" x="0" y="0">megahit_12654 (left 51339bp, right 16304bp)</text>
			</g>
		</g>
	</g>
</svg>
