<?xml version="1.0" encoding="utf-8"?>
<!DOCTYPE svg
  PUBLIC '-//W3C//DTD SVG 1.0//EN'
  'http://www.w3.org/TR/2001/REC-SVG-20010904/DTD/svg10.dtd'>
<svg fill-rule="evenodd" height="708.6614173228346" preserveAspectRatio="xMinYMin meet" version="1.0" viewBox="0 0 1417 708" width="1417.3228346456692" xmlns="http://www.w3.org/2000/svg" xmlns:xlink="http://www.w3.org/1999/xlink">
	<title>...</title>
	<desc>...</desc>
	<clipPath id="clip">
		<rect height="708.6614173228346" width="1417.3228346456692" x="0" y="0"/>
	</clipPath>
	<g id="group" style="clip-path: url(#clip)" transform="scale(1,-1) translate(0,-708)">
		<g transform="">
			<polygon points="70.86614 169.8256, 1346.398 169.8256, 1346.398 251.8279, 70.86614 251.8279" style="stroke: rgb(96%,96%,96%); stroke-linecap: butt; stroke-width: 1; fill: rgb(96%,96%,96%); fill-rule: evenodd;"/>
			<polygon points="70.86614 456.8335, 964.3092 456.8335, 964.3092 538.8358, 70.86614 538.8358" style="stroke: rgb(96%,96%,96%); stroke-linecap: butt; stroke-width: 1; fill: rgb(96%,96%,96%); fill-rule: evenodd;"/>
			<polygon points="668.5901 456.8335, 729.0609 456.8335, 725.7434 251.8279, 665.3308 251.8279" style="stroke: rgb(100%,38%,38%); stroke-linecap: round; stroke-width: 1; fill: rgb(100%,38%,38%); fill-rule: evenodd;"/>
			<polygon points="70.86614 241.5776, 107.4868 241.5776, 107.4868 251.8279, 123.8872 231.3273, 107.4868 210.8268, 107.4868 221.0771, 70.86614 221.0771" style="stroke: rgb(67%,84%,90%); stroke-linecap: round; stroke-width: 1; fill: rgb(67%,84%,90%); fill-rule: evenodd;"/>
			<polygon points="172.485 200.5765, 145.1184 200.5765, 145.1184 210.8268, 128.7179 190.3262, 145.1184 169.8256, 145.1184 180.0759, 172.485 180.0759" style="stroke: rgb(56%,93%,56%); stroke-linecap: round; stroke-width: 1; fill: rgb(56%,93%,56%); fill-rule: evenodd;"/>
			<polygon points="243.0246 200.5765, 189.9913 200.5765, 189.9913 210.8268, 173.5908 190.3262, 189.9913 169.8256, 189.9913 180.0759, 243.0246 180.0759" style="stroke: rgb(56%,93%,56%); stroke-linecap: round; stroke-width: 1; fill: rgb(56%,93%,56%); fill-rule: evenodd;"/>
			<polygon points="317.2308 200.5765, 274.3245 200.5765, 274.3245 210.8268, 257.924 190.3262, 274.3245 169.8256, 274.3245 180.0759, 317.2308 180.0759" style="stroke: rgb(56%,93%,56%); stroke-linecap: round; stroke-width: 1; fill: rgb(56%,93%,56%); fill-rule: evenodd;"/>
			<polygon points="331.4319 241.5776, 361.5922 241.5776, 361.5922 251.8279, 377.9926 231.3273, 361.5922 210.8268, 361.5922 221.0771, 331.4319 221.0771" style="stroke: rgb(67%,84%,90%); stroke-linecap: round; stroke-width: 1; fill: rgb(67%,84%,90%); fill-rule: evenodd;"/>
			<polygon points="453.2465 200.5765, 405.9751 200.5765, 405.9751 210.8268, 389.5746 190.3262, 405.9751 169.8256, 405.9751 180.0759, 453.2465 180.0759" style="stroke: rgb(56%,93%,56%); stroke-linecap: round; stroke-width: 1; fill: rgb(56%,93%,56%); fill-rule: evenodd;"/>
			<polygon points="479.0295 200.5765, 469.6469 200.5765, 469.6469 210.8268, 453.2465 190.3262, 469.6469 169.8256, 469.6469 180.0759, 479.0295 180.0759" style="stroke: rgb(56%,93%,56%); stroke-linecap: round; stroke-width: 1; fill: rgb(56%,93%,56%); fill-rule: evenodd;"/>
			<polygon points="551.3733 200.5765, 498.1654 200.5765, 498.1654 210.8268, 481.765 190.3262, 498.1654 169.8256, 498.1654 180.0759, 551.3733 180.0759" style="stroke: rgb(56%,93%,56%); stroke-linecap: round; stroke-width: 1; fill: rgb(56%,93%,56%); fill-rule: evenodd;"/>
			<polygon points="581.9288 200.5765, 568.5304 200.5765, 568.5304 210.8268, 552.1299 190.3262, 568.5304 169.8256, 568.5304 180.0759, 581.9288 180.0759" style="stroke: rgb(56%,93%,56%); stroke-linecap: round; stroke-width: 1; fill: rgb(56%,93%,56%); fill-rule: evenodd;"/>
			<polygon points="584.6061 241.5776, 644.7981 241.5776, 644.7981 251.8279, 661.1985 231.3273, 644.7981 210.8268, 644.7981 221.0771, 584.6061 221.0771" style="stroke: rgb(67%,84%,90%); stroke-linecap: round; stroke-width: 1; fill: rgb(67%,84%,90%); fill-rule: evenodd;"/>
			<polygon points="666.3202 241.5776, 709.925 241.5776, 709.925 251.8279, 726.3254 231.3273, 709.925 210.8268, 709.925 221.0771, 666.3202 221.0771" style="stroke: rgb(67%,84%,90%); stroke-linecap: round; stroke-width: 1; fill: rgb(67%,84%,90%); fill-rule: evenodd;"/>
			<polygon points="787.029 200.5765, 751.9798 200.5765, 751.9798 210.8268, 735.5794 190.3262, 751.9798 169.8256, 751.9798 180.0759, 787.029 180.0759" style="stroke: rgb(56%,93%,56%); stroke-linecap: round; stroke-width: 1; fill: rgb(56%,93%,56%); fill-rule: evenodd;"/>
			<polygon points="830.6215 200.5765, 814.2548 200.5765, 814.2548 210.8268, 797.8544 190.3262, 814.2548 169.8256, 814.2548 180.0759, 830.6215 180.0759" style="stroke: rgb(56%,93%,56%); stroke-linecap: round; stroke-width: 1; fill: rgb(56%,93%,56%); fill-rule: evenodd;"/>
			<polygon points="926.8277 200.5765, 853.5405 200.5765, 853.5405 210.8268, 837.14 190.3262, 853.5405 169.8256, 853.5405 180.0759, 926.8277 180.0759" style="stroke: rgb(56%,93%,56%); stroke-linecap: round; stroke-width: 1; fill: rgb(56%,93%,56%); fill-rule: evenodd;"/>
			<polygon points="966.8118 200.5765, 947.4769 200.5765, 947.4769 210.8268, 931.0764 190.3262, 947.4769 169.8256, 947.4769 180.0759, 966.8118 180.0759" style="stroke: rgb(56%,93%,56%); stroke-linecap: round; stroke-width: 1; fill: rgb(56%,93%,56%); fill-rule: evenodd;"/>
			<polygon points="1031.764 200.5765, 983.2704 200.5765, 983.2704 210.8268, 966.87 190.3262, 983.2704 169.8256, 983.2704 180.0759, 1031.764 180.0759" style="stroke: rgb(56%,93%,56%); stroke-linecap: round; stroke-width: 1; fill: rgb(56%,93%,56%); fill-rule: evenodd;"/>
			<polygon points="1083.156 200.5765, 1063.471 200.5765, 1063.471 210.8268, 1047.071 190.3262, 1063.471 169.8256, 1063.471 180.0759, 1083.156 180.0759" style="stroke: rgb(56%,93%,56%); stroke-linecap: round; stroke-width: 1; fill: rgb(56%,93%,56%); fill-rule: evenodd;"/>
			<polygon points="1183.028 200.5765, 1101.884 200.5765, 1101.884 210.8268, 1085.484 190.3262, 1101.884 169.8256, 1101.884 180.0759, 1183.028 180.0759" style="stroke: rgb(56%,93%,56%); stroke-linecap: round; stroke-width: 1; fill: rgb(56%,93%,56%); fill-rule: evenodd;"/>
			<polygon points="1239.774 200.5765, 1205.074 200.5765, 1205.074 210.8268, 1188.674 190.3262, 1205.074 169.8256, 1205.074 180.0759, 1239.774 180.0759" style="stroke: rgb(56%,93%,56%); stroke-linecap: round; stroke-width: 1; fill: rgb(56%,93%,56%); fill-rule: evenodd;"/>
			<polygon points="1267.245 200.5765, 1256.466 200.5765, 1256.466 210.8268, 1240.065 190.3262, 1256.466 169.8256, 1256.466 180.0759, 1267.245 180.0759" style="stroke: rgb(56%,93%,56%); stroke-linecap: round; stroke-width: 1; fill: rgb(56%,93%,56%); fill-rule: evenodd;"/>
			<polygon points="1346.398 200.5765, 1287.429 200.5765, 1287.429 210.8268, 1271.028 190.3262, 1287.429 169.8256, 1287.429 180.0759, 1346.398 180.0759" style="stroke: rgb(56%,93%,56%); stroke-linecap: round; stroke-width: 1; fill: rgb(56%,93%,56%); fill-rule: evenodd;"/>
			<polygon points="148.8554 487.5844, 87.26659 487.5844, 87.26659 497.8346, 70.86614 477.3341, 87.26659 456.8335, 87.26659 467.0838, 148.8554 467.0838" style="stroke: rgb(56%,93%,56%); stroke-linecap: round; stroke-width: 1; fill: rgb(56%,93%,56%); fill-rule: evenodd;"/>
			<polygon points="310.4795 487.5844, 176.7797 487.5844, 176.7797 497.8346, 160.3792 477.3341, 176.7797 456.8335, 176.7797 467.0838, 310.4795 467.0838" style="stroke: rgb(56%,93%,56%); stroke-linecap: round; stroke-width: 1; fill: rgb(56%,93%,56%); fill-rule: evenodd;"/>
			<polygon points="354.7704 487.5844, 346.9593 487.5844, 346.9593 497.8346, 330.5588 477.3341, 346.9593 456.8335, 346.9593 467.0838, 354.7704 467.0838" style="stroke: rgb(56%,93%,56%); stroke-linecap: round; stroke-width: 1; fill: rgb(56%,93%,56%); fill-rule: evenodd;"/>
			<polygon points="362.2784 528.5855, 362.2784 538.8358, 376.7122 518.3352, 362.2784 497.8346, 362.2784 508.0849" style="stroke: rgb(67%,84%,90%); stroke-linecap: round; stroke-width: 1; fill: rgb(67%,84%,90%); fill-rule: evenodd;"/>
			<polygon points="433.8074 487.5844, 395.7899 487.5844, 395.7899 497.8346, 379.3895 477.3341, 395.7899 456.8335, 395.7899 467.0838, 433.8074 467.0838" style="stroke: rgb(56%,93%,56%); stroke-linecap: round; stroke-width: 1; fill: rgb(56%,93%,56%); fill-rule: evenodd;"/>
			<polygon points="482.929 487.5844, 448.9274 487.5844, 448.9274 497.8346, 432.5269 477.3341, 448.9274 456.8335, 448.9274 467.0838, 482.929 467.0838" style="stroke: rgb(56%,93%,56%); stroke-linecap: round; stroke-width: 1; fill: rgb(56%,93%,56%); fill-rule: evenodd;"/>
			<polygon points="535.368 487.5844, 500.3188 487.5844, 500.3188 497.8346, 483.9184 477.3341, 500.3188 456.8335, 500.3188 467.0838, 535.368 467.0838" style="stroke: rgb(56%,93%,56%); stroke-linecap: round; stroke-width: 1; fill: rgb(56%,93%,56%); fill-rule: evenodd;"/>
			<polygon points="575.2357 487.5844, 552.4087 487.5844, 552.4087 497.8346, 536.0083 477.3341, 552.4087 456.8335, 552.4087 467.0838, 575.2357 467.0838" style="stroke: rgb(56%,93%,56%); stroke-linecap: round; stroke-width: 1; fill: rgb(56%,93%,56%); fill-rule: evenodd;"/>
			<polygon points="650.606 487.5844, 590.0647 487.5844, 590.0647 497.8346, 573.6643 477.3341, 590.0647 456.8335, 590.0647 467.0838, 650.606 467.0838" style="stroke: rgb(56%,93%,56%); stroke-linecap: round; stroke-width: 1; fill: rgb(56%,93%,56%); fill-rule: evenodd;"/>
			<polygon points="669.6377 528.5855, 713.2424 528.5855, 713.2424 538.8358, 729.6429 518.3352, 713.2424 497.8346, 713.2424 508.0849, 669.6377 508.0849" style="stroke: rgb(67%,84%,90%); stroke-linecap: round; stroke-width: 1; fill: rgb(67%,84%,90%); fill-rule: evenodd;"/>
			<polygon points="781.0925 487.5844, 751.2814 487.5844, 751.2814 497.8346, 734.881 477.3341, 751.2814 456.8335, 751.2814 467.0838, 781.0925 467.0838" style="stroke: rgb(56%,93%,56%); stroke-linecap: round; stroke-width: 1; fill: rgb(56%,93%,56%); fill-rule: evenodd;"/>
			<polygon points="871.9442 487.5844, 798.4824 487.5844, 798.4824 497.8346, 782.0819 477.3341, 798.4824 456.8335, 798.4824 467.0838, 871.9442 467.0838" style="stroke: rgb(56%,93%,56%); stroke-linecap: round; stroke-width: 1; fill: rgb(56%,93%,56%); fill-rule: evenodd;"/>
			<polygon points="907.7378 487.5844, 888.5775 487.5844, 888.5775 497.8346, 872.177 477.3341, 888.5775 456.8335, 888.5775 467.0838, 907.7378 467.0838" style="stroke: rgb(56%,93%,56%); stroke-linecap: round; stroke-width: 1; fill: rgb(56%,93%,56%); fill-rule: evenodd;"/>
			<polygon points="934.9759 528.5855, 938.2473 528.5855, 938.2473 538.8358, 954.6478 518.3352, 938.2473 497.8346, 938.2473 508.0849, 934.9759 508.0849" style="stroke: rgb(67%,84%,90%); stroke-linecap: round; stroke-width: 1; fill: rgb(67%,84%,90%); fill-rule: evenodd;"/>
			<path d="M 1346.398492,169.825647 L 1346.398492,251.827897 Z" style="stroke: rgb(0%,0%,0%); stroke-linecap: butt; stroke-width: 1;"/>
			<path d="M 70.866142,210.826772 L 1346.398492,210.826772 Z" style="stroke: rgb(0%,0%,0%); stroke-linecap: butt; stroke-width: 1;"/>
			<path d="M 70.866142,169.825647 L 70.866142,251.827897 Z" style="stroke: rgb(0%,0%,0%); stroke-linecap: butt; stroke-width: 1;"/>
			<path d="M 652.875792,210.826772 L 652.875792,231.327334 Z" style="stroke: rgb(0%,0%,0%); stroke-linecap: butt; stroke-width: 1;"/>
			<path d="M 1234.885443,210.826772 L 1234.885443,231.327334 Z" style="stroke: rgb(0%,0%,0%); stroke-linecap: butt; stroke-width: 1;"/>
			<path d="M 652.875792,210.826772 L 652.875792,223.127109 Z" style="stroke: rgb(0%,0%,0%); stroke-linecap: butt; stroke-width: 1;"/>
			<path d="M 1234.885443,210.826772 L 1234.885443,223.127109 Z" style="stroke: rgb(0%,0%,0%); stroke-linecap: butt; stroke-width: 1;"/>
			<path d="M 964.309156,456.833521 L 964.309156,538.835771 Z" style="stroke: rgb(0%,0%,0%); stroke-linecap: butt; stroke-width: 1;"/>
			<path d="M 70.866142,497.834646 L 964.309156,497.834646 Z" style="stroke: rgb(0%,0%,0%); stroke-linecap: butt; stroke-width: 1;"/>
			<path d="M 70.866142,456.833521 L 70.866142,538.835771 Z" style="stroke: rgb(0%,0%,0%); stroke-linecap: butt; stroke-width: 1;"/>
			<path d="M 652.875792,497.834646 L 652.875792,518.335208 Z" style="stroke: rgb(0%,0%,0%); stroke-linecap: butt; stroke-width: 1;"/>
			<path d="M 652.875792,497.834646 L 652.875792,510.134983 Z" style="stroke: rgb(0%,0%,0%); stroke-linecap: butt; stroke-width: 1;"/>
			<g transform=" matrix(0.707107,0.707107,-0.707107,0.707107,652.875792,231.327334)">
				<text style="font-family: Helvetica; font-size: 6px;fill: rgb(0%,0%,0%); stroke:none;" transform="translate(0,0) scale(1,-1)" x="0" y="0">10000</text>
			</g>
			<g transform=" matrix(0.707107,0.707107,-0.707107,0.707107,1234.885443,231.327334)">
				<text style="font-family: Helvetica; font-size: 6px;fill: rgb(0%,0%,0%); stroke:none;" transform="translate(0,0) scale(1,-1)" x="0" y="0">20000</text>
			</g>
			<g transform=" matrix(0.707107,0.707107,-0.707107,0.707107,652.875792,518.335208)">
				<text style="font-family: Helvetica; font-size: 6px;fill: rgb(0%,0%,0%); stroke:none;" transform="translate(0,0) scale(1,-1)" x="0" y="0">10000</text>
			</g>
			<g transform=" matrix(0.707107,0.707107,-0.707107,0.707107,97.376681,251.827897)">
				<text style="font-family: Helvetica; font-size: 10px;fill: rgb(0%,0%,0%); stroke:none;" transform="translate(0,0) scale(1,-1)" x="0" y="0">Gene_01722</text>
			</g>
			<g transform=" matrix(0.707107,-0.707107,0.707107,0.707107,150.601464,169.825647)">
				<text style="font-family: Helvetica; font-size: 10px;fill: rgb(0%,0%,0%); stroke:none;" transform="translate(0,0) scale(1,-1)" x="0" y="0">Gene_01723</text>
			</g>
			<g transform=" matrix(0.707107,-0.707107,0.707107,0.707107,208.307721,169.825647)">
				<text style="font-family: Helvetica; font-size: 10px;fill: rgb(0%,0%,0%); stroke:none;" transform="translate(0,0) scale(1,-1)" x="0" y="0">Gene_01724</text>
			</g>
			<g transform=" matrix(0.707107,-0.707107,0.707107,0.707107,287.577435,169.825647)">
				<text style="font-family: Helvetica; font-size: 10px;fill: rgb(0%,0%,0%); stroke:none;" transform="translate(0,0) scale(1,-1)" x="0" y="0">Gene_01725</text>
			</g>
			<g transform=" matrix(0.707107,0.707107,-0.707107,0.707107,354.712248,251.827897)">
				<text style="font-family: Helvetica; font-size: 10px;fill: rgb(0%,0%,0%); stroke:none;" transform="translate(0,0) scale(1,-1)" x="0" y="0">Gene_01726</text>
			</g>
			<g transform=" matrix(0.707107,-0.707107,0.707107,0.707107,421.410554,169.825647)">
				<text style="font-family: Helvetica; font-size: 10px;fill: rgb(0%,0%,0%); stroke:none;" transform="translate(0,0) scale(1,-1)" x="0" y="0">Gene_01727</text>
			</g>
			<g transform=" matrix(0.707107,-0.707107,0.707107,0.707107,466.137996,169.825647)">
				<text style="font-family: Helvetica; font-size: 10px;fill: rgb(0%,0%,0%); stroke:none;" transform="translate(0,0) scale(1,-1)" x="0" y="0">Gene_01728</text>
			</g>
			<g transform=" matrix(0.707107,-0.707107,0.707107,0.707107,516.569132,169.825647)">
				<text style="font-family: Helvetica; font-size: 10px;fill: rgb(0%,0%,0%); stroke:none;" transform="translate(0,0) scale(1,-1)" x="0" y="0">Gene_01729</text>
			</g>
			<g transform=" matrix(0.707107,-0.707107,0.707107,0.707107,567.029369,169.825647)">
				<text style="font-family: Helvetica; font-size: 10px;fill: rgb(0%,0%,0%); stroke:none;" transform="translate(0,0) scale(1,-1)" x="0" y="0">Gene_01730</text>
			</g>
			<g transform=" matrix(0.707107,0.707107,-0.707107,0.707107,622.902295,251.827897)">
				<text style="font-family: Helvetica; font-size: 10px;fill: rgb(0%,0%,0%); stroke:none;" transform="translate(0,0) scale(1,-1)" x="0" y="0">Gene_01731</text>
			</g>
			<g transform=" matrix(0.707107,0.707107,-0.707107,0.707107,696.322813,251.827897)">
				<text style="font-family: Helvetica; font-size: 16px;fill: rgb(0%,0%,100%); stroke:none;" transform="translate(0,0) scale(1,-1)" x="0" y="0">Gene_01732 (81.1)</text>
			</g>
			<g transform=" matrix(0.707107,-0.707107,0.707107,0.707107,761.30419,169.825647)">
				<text style="font-family: Helvetica; font-size: 10px;fill: rgb(0%,0%,0%); stroke:none;" transform="translate(0,0) scale(1,-1)" x="0" y="0">Gene_01733</text>
			</g>
			<g transform=" matrix(0.707107,-0.707107,0.707107,0.707107,814.237968,169.825647)">
				<text style="font-family: Helvetica; font-size: 10px;fill: rgb(0%,0%,0%); stroke:none;" transform="translate(0,0) scale(1,-1)" x="0" y="0">Gene_01734</text>
			</g>
			<g transform=" matrix(0.707107,-0.707107,0.707107,0.707107,881.983891,169.825647)">
				<text style="font-family: Helvetica; font-size: 10px;fill: rgb(0%,0%,0%); stroke:none;" transform="translate(0,0) scale(1,-1)" x="0" y="0">Gene_01735</text>
			</g>
			<g transform=" matrix(0.707107,-0.707107,0.707107,0.707107,948.944102,169.825647)">
				<text style="font-family: Helvetica; font-size: 10px;fill: rgb(0%,0%,0%); stroke:none;" transform="translate(0,0) scale(1,-1)" x="0" y="0">Gene_01736</text>
			</g>
			<g transform=" matrix(0.707107,-0.707107,0.707107,0.707107,999.317037,169.825647)">
				<text style="font-family: Helvetica; font-size: 10px;fill: rgb(0%,0%,0%); stroke:none;" transform="translate(0,0) scale(1,-1)" x="0" y="0">Gene_01737</text>
			</g>
			<g transform=" matrix(0.707107,-0.707107,0.707107,0.707107,1065.113228,169.825647)">
				<text style="font-family: Helvetica; font-size: 10px;fill: rgb(0%,0%,0%); stroke:none;" transform="translate(0,0) scale(1,-1)" x="0" y="0">Gene_01738</text>
			</g>
			<g transform=" matrix(0.707107,-0.707107,0.707107,0.707107,1134.255974,169.825647)">
				<text style="font-family: Helvetica; font-size: 10px;fill: rgb(0%,0%,0%); stroke:none;" transform="translate(0,0) scale(1,-1)" x="0" y="0">Gene_01739</text>
			</g>
			<g transform=" matrix(0.707107,-0.707107,0.707107,0.707107,1214.2241,169.825647)">
				<text style="font-family: Helvetica; font-size: 10px;fill: rgb(0%,0%,0%); stroke:none;" transform="translate(0,0) scale(1,-1)" x="0" y="0">Gene_01740</text>
			</g>
			<g transform=" matrix(0.707107,-0.707107,0.707107,0.707107,1253.655254,169.825647)">
				<text style="font-family: Helvetica; font-size: 10px;fill: rgb(0%,0%,0%); stroke:none;" transform="translate(0,0) scale(1,-1)" x="0" y="0">Gene_01741</text>
			</g>
			<g transform=" matrix(0.707107,-0.707107,0.707107,0.707107,1308.713367,169.825647)">
				<text style="font-family: Helvetica; font-size: 10px;fill: rgb(0%,0%,0%); stroke:none;" transform="translate(0,0) scale(1,-1)" x="0" y="0">Gene_01742</text>
			</g>
			<g transform=" matrix(0.707107,-0.707107,0.707107,0.707107,109.860788,456.833521)">
				<text style="font-family: Helvetica; font-size: 10px;fill: rgb(0%,0%,0%); stroke:none;" transform="translate(0,0) scale(1,-1)" x="0" y="0">Gene_01164</text>
			</g>
			<g transform=" matrix(0.707107,-0.707107,0.707107,0.707107,235.42937,456.833521)">
				<text style="font-family: Helvetica; font-size: 10px;fill: rgb(0%,0%,0%); stroke:none;" transform="translate(0,0) scale(1,-1)" x="0" y="0">Gene_01165</text>
			</g>
			<g transform=" matrix(0.707107,-0.707107,0.707107,0.707107,342.664649,456.833521)">
				<text style="font-family: Helvetica; font-size: 10px;fill: rgb(0%,0%,0%); stroke:none;" transform="translate(0,0) scale(1,-1)" x="0" y="0">Gene_01166</text>
			</g>
			<g transform=" matrix(0.707107,0.707107,-0.707107,0.707107,369.495293,538.835771)">
				<text style="font-family: Helvetica; font-size: 10px;fill: rgb(0%,0%,0%); stroke:none;" transform="translate(0,0) scale(1,-1)" x="0" y="0">Gene_01167</text>
			</g>
			<g transform=" matrix(0.707107,-0.707107,0.707107,0.707107,406.598409,456.833521)">
				<text style="font-family: Helvetica; font-size: 10px;fill: rgb(0%,0%,0%); stroke:none;" transform="translate(0,0) scale(1,-1)" x="0" y="0">Gene_01168</text>
			</g>
			<g transform=" matrix(0.707107,-0.707107,0.707107,0.707107,457.727956,456.833521)">
				<text style="font-family: Helvetica; font-size: 10px;fill: rgb(0%,0%,0%); stroke:none;" transform="translate(0,0) scale(1,-1)" x="0" y="0">Gene_01169</text>
			</g>
			<g transform=" matrix(0.707107,-0.707107,0.707107,0.707107,509.643217,456.833521)">
				<text style="font-family: Helvetica; font-size: 10px;fill: rgb(0%,0%,0%); stroke:none;" transform="translate(0,0) scale(1,-1)" x="0" y="0">Gene_01170</text>
			</g>
			<g transform=" matrix(0.707107,-0.707107,0.707107,0.707107,555.62198,456.833521)">
				<text style="font-family: Helvetica; font-size: 10px;fill: rgb(0%,0%,0%); stroke:none;" transform="translate(0,0) scale(1,-1)" x="0" y="0">Gene_01171</text>
			</g>
			<g transform=" matrix(0.707107,-0.707107,0.707107,0.707107,612.135117,456.833521)">
				<text style="font-family: Helvetica; font-size: 10px;fill: rgb(0%,0%,0%); stroke:none;" transform="translate(0,0) scale(1,-1)" x="0" y="0">Gene_01172</text>
			</g>
			<g transform=" matrix(0.707107,0.707107,-0.707107,0.707107,699.640268,538.835771)">
				<text style="font-family: Helvetica; font-size: 16px;fill: rgb(0%,0%,100%); stroke:none;" transform="translate(0,0) scale(1,-1)" x="0" y="0">Gene_01173 (81.1)</text>
			</g>
			<g transform=" matrix(0.707107,-0.707107,0.707107,0.707107,757.986735,456.833521)">
				<text style="font-family: Helvetica; font-size: 10px;fill: rgb(0%,0%,0%); stroke:none;" transform="translate(0,0) scale(1,-1)" x="0" y="0">Gene_01174</text>
			</g>
			<g transform=" matrix(0.707107,-0.707107,0.707107,0.707107,827.01308,456.833521)">
				<text style="font-family: Helvetica; font-size: 10px;fill: rgb(0%,0%,0%); stroke:none;" transform="translate(0,0) scale(1,-1)" x="0" y="0">Gene_01175</text>
			</g>
			<g transform=" matrix(0.707107,-0.707107,0.707107,0.707107,889.957423,456.833521)">
				<text style="font-family: Helvetica; font-size: 10px;fill: rgb(0%,0%,0%); stroke:none;" transform="translate(0,0) scale(1,-1)" x="0" y="0">Gene_01176</text>
			</g>
			<g transform=" matrix(0.707107,0.707107,-0.707107,0.707107,944.811833,538.835771)">
				<text style="font-family: Helvetica; font-size: 10px;fill: rgb(0%,0%,0%); stroke:none;" transform="translate(0,0) scale(1,-1)" x="0" y="0">Gene_01177</text>
			</g>
			<g transform=" matrix(1,0,-0,1,70,169.825647)">
				<text style="font-family: Helvetica; font-size: 12px;fill: rgb(60%,60%,60%); stroke:none;" transform="translate(0,0) scale(1,-1)" x="0" y="0">megahit_50278 (left 172872bp, right 11047bp)</text>
			</g>
			<g transform=" matrix(1,0,-0,1,70,456.833521)">
				<text style="font-family: Helvetica; font-size: 12px;fill: rgb(60%,60%,60%); stroke:none;" transform="translate(0,0) scale(1,-1)" x="0" y="0">megahit_12813 (left 98106bp, right 4032bp)</text>
			</g>
		</g>
	</g>
</svg>
