<?xml version="1.0" encoding="utf-8"?>
<!DOCTYPE svg
  PUBLIC '-//W3C//DTD SVG 1.0//EN'
  'http://www.w3.org/TR/2001/REC-SVG-20010904/DTD/svg10.dtd'>
<svg fill-rule="evenodd" height="708.6614173228346" preserveAspectRatio="xMinYMin meet" version="1.0" viewBox="0 0 1417 708" width="1417.3228346456692" xmlns="http://www.w3.org/2000/svg" xmlns:xlink="http://www.w3.org/1999/xlink">
	<title>...</title>
	<desc>...</desc>
	<clipPath id="clip">
		<rect height="708.6614173228346" width="1417.3228346456692" x="0" y="0"/>
	</clipPath>
	<g id="group" style="clip-path: url(#clip)" transform="scale(1,-1) translate(0,-708)">
		<g transform="">
			<polygon points="70.86614 169.8256, 1062.244 169.8256, 1062.244 251.8279, 70.86614 251.8279" style="stroke: rgb(96%,96%,96%); stroke-linecap: butt; stroke-width: 1; fill: rgb(96%,96%,96%); fill-rule: evenodd;"/>
			<polygon points="70.86614 456.8335, 1346.394 456.8335, 1346.394 538.8358, 70.86614 538.8358" style="stroke: rgb(96%,96%,96%); stroke-linecap: butt; stroke-width: 1; fill: rgb(96%,96%,96%); fill-rule: evenodd;"/>
			<polygon points="507.167 456.8335, 981.3963 456.8335, 601.8631 251.8279, 124.9515 251.8279" style="stroke: rgb(100%,46%,46%); stroke-linecap: round; stroke-width: 1; fill: rgb(100%,46%,46%); fill-rule: evenodd;"/>
			<polygon points="1020.073 456.8335, 1197.239 456.8335, 814.3368 251.8279, 636.4229 251.8279" style="stroke: rgb(100%,51%,51%); stroke-linecap: round; stroke-width: 1; fill: rgb(100%,51%,51%); fill-rule: evenodd;"/>
			<polygon points="460.9418 456.8335, 501.4902 456.8335, 114.4089 251.8279, 73.86049 251.8279" style="stroke: rgb(100%,36%,36%); stroke-linecap: round; stroke-width: 1; fill: rgb(100%,36%,36%); fill-rule: evenodd;"/>
			<polygon points="1227.806 456.8335, 1310.961 456.8335, 932.1143 251.8279, 849.1461 251.8279" style="stroke: rgb(100%,67%,67%); stroke-linecap: round; stroke-width: 1; fill: rgb(100%,67%,67%); fill-rule: evenodd;"/>
			<polygon points="114.3465 200.5765, 89.63711 200.5765, 89.63711 210.8268, 73.23666 190.3262, 89.63711 169.8256, 89.63711 180.0759, 114.3465 180.0759" style="stroke: rgb(56%,93%,56%); stroke-linecap: round; stroke-width: 1; fill: rgb(56%,93%,56%); fill-rule: evenodd;"/>
			<polygon points="209.9784 200.5765, 140.1667 200.5765, 140.1667 210.8268, 123.7662 190.3262, 140.1667 169.8256, 140.1667 180.0759, 209.9784 180.0759" style="stroke: rgb(56%,93%,56%); stroke-linecap: round; stroke-width: 1; fill: rgb(56%,93%,56%); fill-rule: evenodd;"/>
			<polygon points="320.2077 200.5765, 226.4412 200.5765, 226.4412 210.8268, 210.0408 190.3262, 226.4412 169.8256, 226.4412 180.0759, 320.2077 180.0759" style="stroke: rgb(56%,93%,56%); stroke-linecap: round; stroke-width: 1; fill: rgb(56%,93%,56%); fill-rule: evenodd;"/>
			<polygon points="340.3571 200.5765, 336.421 200.5765, 336.421 210.8268, 320.0205 190.3262, 336.421 169.8256, 336.421 180.0759, 340.3571 180.0759" style="stroke: rgb(56%,93%,56%); stroke-linecap: round; stroke-width: 1; fill: rgb(56%,93%,56%); fill-rule: evenodd;"/>
			<polygon points="400.4935 200.5765, 356.3209 200.5765, 356.3209 210.8268, 339.9204 190.3262, 356.3209 169.8256, 356.3209 180.0759, 400.4935 180.0759" style="stroke: rgb(56%,93%,56%); stroke-linecap: round; stroke-width: 1; fill: rgb(56%,93%,56%); fill-rule: evenodd;"/>
			<polygon points="439.1081 200.5765, 418.5159 200.5765, 418.5159 210.8268, 402.1154 190.3262, 418.5159 169.8256, 418.5159 180.0759, 439.1081 180.0759" style="stroke: rgb(56%,93%,56%); stroke-linecap: round; stroke-width: 1; fill: rgb(56%,93%,56%); fill-rule: evenodd;"/>
			<polygon points="474.7907 200.5765, 460.9358 200.5765, 460.9358 210.8268, 444.5353 190.3262, 460.9358 169.8256, 460.9358 180.0759, 474.7907 180.0759" style="stroke: rgb(56%,93%,56%); stroke-linecap: round; stroke-width: 1; fill: rgb(56%,93%,56%); fill-rule: evenodd;"/>
			<polygon points="600.6779 200.5765, 491.004 200.5765, 491.004 210.8268, 474.6035 190.3262, 491.004 169.8256, 491.004 180.0759, 600.6779 180.0759" style="stroke: rgb(56%,93%,56%); stroke-linecap: round; stroke-width: 1; fill: rgb(56%,93%,56%); fill-rule: evenodd;"/>
			<polygon points="622.1997 200.5765, 619.3865 200.5765, 619.3865 210.8268, 602.986 190.3262, 619.3865 169.8256, 619.3865 180.0759, 622.1997 180.0759" style="stroke: rgb(56%,93%,56%); stroke-linecap: round; stroke-width: 1; fill: rgb(56%,93%,56%); fill-rule: evenodd;"/>
			<polygon points="666.6782 200.5765, 651.7004 200.5765, 651.7004 210.8268, 635.3 190.3262, 651.7004 169.8256, 651.7004 180.0759, 666.6782 180.0759" style="stroke: rgb(56%,93%,56%); stroke-linecap: round; stroke-width: 1; fill: rgb(56%,93%,56%); fill-rule: evenodd;"/>
			<polygon points="745.155 200.5765, 688.2564 200.5765, 688.2564 210.8268, 671.8559 190.3262, 688.2564 169.8256, 688.2564 180.0759, 745.155 180.0759" style="stroke: rgb(56%,93%,56%); stroke-linecap: round; stroke-width: 1; fill: rgb(56%,93%,56%); fill-rule: evenodd;"/>
			<polygon points="776.5332 200.5765, 761.5554 200.5765, 761.5554 210.8268, 745.155 190.3262, 761.5554 169.8256, 761.5554 180.0759, 776.5332 180.0759" style="stroke: rgb(56%,93%,56%); stroke-linecap: round; stroke-width: 1; fill: rgb(56%,93%,56%); fill-rule: evenodd;"/>
			<polygon points="842.4088 200.5765, 793.9318 200.5765, 793.9318 210.8268, 777.5313 190.3262, 793.9318 169.8256, 793.9318 180.0759, 842.4088 180.0759" style="stroke: rgb(56%,93%,56%); stroke-linecap: round; stroke-width: 1; fill: rgb(56%,93%,56%); fill-rule: evenodd;"/>
			<polygon points="940.9102 200.5765, 857.9983 200.5765, 857.9983 210.8268, 841.5978 190.3262, 857.9983 169.8256, 857.9983 180.0759, 940.9102 180.0759" style="stroke: rgb(56%,93%,56%); stroke-linecap: round; stroke-width: 1; fill: rgb(56%,93%,56%); fill-rule: evenodd;"/>
			<polygon points="953.5114 200.5765, 953.5114 210.8268, 947.2108 190.3262, 953.5114 169.8256, 953.5114 180.0759" style="stroke: rgb(56%,93%,56%); stroke-linecap: round; stroke-width: 1; fill: rgb(56%,93%,56%); fill-rule: evenodd;"/>
			<polygon points="1062.244 200.5765, 971.2843 200.5765, 971.2843 210.8268, 954.8838 190.3262, 971.2843 169.8256, 971.2843 180.0759, 1062.244 180.0759" style="stroke: rgb(56%,93%,56%); stroke-linecap: round; stroke-width: 1; fill: rgb(56%,93%,56%); fill-rule: evenodd;"/>
			<polygon points="151.0896 487.5844, 87.26659 487.5844, 87.26659 497.8346, 70.86614 477.3341, 87.26659 456.8335, 87.26659 467.0838, 151.0896 467.0838" style="stroke: rgb(56%,93%,56%); stroke-linecap: round; stroke-width: 1; fill: rgb(56%,93%,56%); fill-rule: evenodd;"/>
			<polygon points="237.3018 487.5844, 168.2386 487.5844, 168.2386 497.8346, 151.8382 477.3341, 168.2386 456.8335, 168.2386 467.0838, 237.3018 467.0838" style="stroke: rgb(56%,93%,56%); stroke-linecap: round; stroke-width: 1; fill: rgb(56%,93%,56%); fill-rule: evenodd;"/>
			<polygon points="248.0939 528.5855, 339.4274 528.5855, 339.4274 538.8358, 355.8279 518.3352, 339.4274 497.8346, 339.4274 508.0849, 248.0939 508.0849" style="stroke: rgb(67%,84%,90%); stroke-linecap: round; stroke-width: 1; fill: rgb(67%,84%,90%); fill-rule: evenodd;"/>
			<polygon points="356.0774 528.5855, 439.9251 528.5855, 439.9251 538.8358, 456.3256 518.3352, 439.9251 497.8346, 439.9251 508.0849, 356.0774 508.0849" style="stroke: rgb(67%,84%,90%); stroke-linecap: round; stroke-width: 1; fill: rgb(67%,84%,90%); fill-rule: evenodd;"/>
			<polygon points="499.5564 487.5844, 476.9056 487.5844, 476.9056 497.8346, 460.5052 477.3341, 476.9056 456.8335, 476.9056 467.0838, 499.5564 467.0838" style="stroke: rgb(56%,93%,56%); stroke-linecap: round; stroke-width: 1; fill: rgb(56%,93%,56%); fill-rule: evenodd;"/>
			<polygon points="592.1939 487.5844, 522.9436 487.5844, 522.9436 497.8346, 506.5432 477.3341, 522.9436 456.8335, 522.9436 467.0838, 592.1939 467.0838" style="stroke: rgb(56%,93%,56%); stroke-linecap: round; stroke-width: 1; fill: rgb(56%,93%,56%); fill-rule: evenodd;"/>
			<polygon points="702.4232 487.5844, 608.6567 487.5844, 608.6567 497.8346, 592.2563 477.3341, 608.6567 456.8335, 608.6567 467.0838, 702.4232 467.0838" style="stroke: rgb(56%,93%,56%); stroke-linecap: round; stroke-width: 1; fill: rgb(56%,93%,56%); fill-rule: evenodd;"/>
			<polygon points="722.5726 487.5844, 718.8237 487.5844, 718.8237 497.8346, 702.4232 477.3341, 718.8237 456.8335, 718.8237 467.0838, 722.5726 467.0838" style="stroke: rgb(56%,93%,56%); stroke-linecap: round; stroke-width: 1; fill: rgb(56%,93%,56%); fill-rule: evenodd;"/>
			<polygon points="782.709 487.5844, 738.5364 487.5844, 738.5364 497.8346, 722.136 477.3341, 738.5364 456.8335, 738.5364 467.0838, 782.709 467.0838" style="stroke: rgb(56%,93%,56%); stroke-linecap: round; stroke-width: 1; fill: rgb(56%,93%,56%); fill-rule: evenodd;"/>
			<polygon points="821.2612 487.5844, 800.6691 487.5844, 800.6691 497.8346, 784.2686 477.3341, 800.6691 456.8335, 800.6691 467.0838, 821.2612 467.0838" style="stroke: rgb(56%,93%,56%); stroke-linecap: round; stroke-width: 1; fill: rgb(56%,93%,56%); fill-rule: evenodd;"/>
			<polygon points="854.5109 487.5844, 840.656 487.5844, 840.656 497.8346, 824.2556 477.3341, 840.656 456.8335, 840.656 467.0838, 854.5109 467.0838" style="stroke: rgb(56%,93%,56%); stroke-linecap: round; stroke-width: 1; fill: rgb(56%,93%,56%); fill-rule: evenodd;"/>
			<polygon points="980.211 487.5844, 870.7242 487.5844, 870.7242 497.8346, 854.3238 477.3341, 870.7242 456.8335, 870.7242 467.0838, 980.211 467.0838" style="stroke: rgb(56%,93%,56%); stroke-linecap: round; stroke-width: 1; fill: rgb(56%,93%,56%); fill-rule: evenodd;"/>
			<polygon points="1002.918 487.5844, 1000.105 487.5844, 1000.105 497.8346, 983.7044 477.3341, 1000.105 456.8335, 1000.105 467.0838, 1002.918 467.0838" style="stroke: rgb(56%,93%,56%); stroke-linecap: round; stroke-width: 1; fill: rgb(56%,93%,56%); fill-rule: evenodd;"/>
			<polygon points="1013.523 487.5844, 1013.523 497.8346, 1002.544 477.3341, 1013.523 456.8335, 1013.523 467.0838" style="stroke: rgb(56%,93%,56%); stroke-linecap: round; stroke-width: 1; fill: rgb(56%,93%,56%); fill-rule: evenodd;"/>
			<polygon points="1054.446 487.5844, 1035.538 487.5844, 1035.538 497.8346, 1019.137 477.3341, 1035.538 456.8335, 1035.538 467.0838, 1054.446 467.0838" style="stroke: rgb(56%,93%,56%); stroke-linecap: round; stroke-width: 1; fill: rgb(56%,93%,56%); fill-rule: evenodd;"/>
			<polygon points="1127.745 487.5844, 1071.033 487.5844, 1071.033 497.8346, 1054.633 477.3341, 1071.033 456.8335, 1071.033 467.0838, 1127.745 467.0838" style="stroke: rgb(56%,93%,56%); stroke-linecap: round; stroke-width: 1; fill: rgb(56%,93%,56%); fill-rule: evenodd;"/>
			<polygon points="1159.123 487.5844, 1144.145 487.5844, 1144.145 497.8346, 1127.745 477.3341, 1144.145 456.8335, 1144.145 467.0838, 1159.123 467.0838" style="stroke: rgb(56%,93%,56%); stroke-linecap: round; stroke-width: 1; fill: rgb(56%,93%,56%); fill-rule: evenodd;"/>
			<polygon points="1225.498 487.5844, 1177.208 487.5844, 1177.208 497.8346, 1160.807 477.3341, 1177.208 456.8335, 1177.208 467.0838, 1225.498 467.0838" style="stroke: rgb(56%,93%,56%); stroke-linecap: round; stroke-width: 1; fill: rgb(56%,93%,56%); fill-rule: evenodd;"/>
			<polygon points="1319.944 487.5844, 1242.085 487.5844, 1242.085 497.8346, 1225.685 477.3341, 1242.085 456.8335, 1242.085 467.0838, 1319.944 467.0838" style="stroke: rgb(56%,93%,56%); stroke-linecap: round; stroke-width: 1; fill: rgb(56%,93%,56%); fill-rule: evenodd;"/>
			<polygon points="1337.723 487.5844, 1337.723 497.8346, 1324.872 477.3341, 1337.723 456.8335, 1337.723 467.0838" style="stroke: rgb(56%,93%,56%); stroke-linecap: round; stroke-width: 1; fill: rgb(56%,93%,56%); fill-rule: evenodd;"/>
			<path d="M 1062.24354,169.825647 L 1062.24354,251.827897 Z" style="stroke: rgb(0%,0%,0%); stroke-linecap: butt; stroke-width: 1;"/>
			<path d="M 70.866142,210.826772 L 1062.24354,210.826772 Z" style="stroke: rgb(0%,0%,0%); stroke-linecap: butt; stroke-width: 1;"/>
			<path d="M 70.866142,169.825647 L 70.866142,251.827897 Z" style="stroke: rgb(0%,0%,0%); stroke-linecap: butt; stroke-width: 1;"/>
			<path d="M 694.687812,210.826772 L 694.687812,231.327334 Z" style="stroke: rgb(0%,0%,0%); stroke-linecap: butt; stroke-width: 1;"/>
			<path d="M 694.687812,210.826772 L 694.687812,223.127109 Z" style="stroke: rgb(0%,0%,0%); stroke-linecap: butt; stroke-width: 1;"/>
			<path d="M 1346.394311,456.833521 L 1346.394311,538.835771 Z" style="stroke: rgb(0%,0%,0%); stroke-linecap: butt; stroke-width: 1;"/>
			<path d="M 70.866142,497.834646 L 1346.394311,497.834646 Z" style="stroke: rgb(0%,0%,0%); stroke-linecap: butt; stroke-width: 1;"/>
			<path d="M 70.866142,456.833521 L 70.866142,538.835771 Z" style="stroke: rgb(0%,0%,0%); stroke-linecap: butt; stroke-width: 1;"/>
			<path d="M 694.687812,497.834646 L 694.687812,518.335208 Z" style="stroke: rgb(0%,0%,0%); stroke-linecap: butt; stroke-width: 1;"/>
			<path d="M 1318.509482,497.834646 L 1318.509482,518.335208 Z" style="stroke: rgb(0%,0%,0%); stroke-linecap: butt; stroke-width: 1;"/>
			<path d="M 694.687812,497.834646 L 694.687812,510.134983 Z" style="stroke: rgb(0%,0%,0%); stroke-linecap: butt; stroke-width: 1;"/>
			<path d="M 1318.509482,497.834646 L 1318.509482,510.134983 Z" style="stroke: rgb(0%,0%,0%); stroke-linecap: butt; stroke-width: 1;"/>
			<g transform=" matrix(0.707107,0.707107,-0.707107,0.707107,694.687812,231.327334)">
				<text style="font-family: Helvetica; font-size: 6px;fill: rgb(0%,0%,0%); stroke:none;" transform="translate(0,0) scale(1,-1)" x="0" y="0">10000</text>
			</g>
			<g transform=" matrix(0.707107,0.707107,-0.707107,0.707107,694.687812,518.335208)">
				<text style="font-family: Helvetica; font-size: 6px;fill: rgb(0%,0%,0%); stroke:none;" transform="translate(0,0) scale(1,-1)" x="0" y="0">10000</text>
			</g>
			<g transform=" matrix(0.707107,0.707107,-0.707107,0.707107,1318.509482,518.335208)">
				<text style="font-family: Helvetica; font-size: 6px;fill: rgb(0%,0%,0%); stroke:none;" transform="translate(0,0) scale(1,-1)" x="0" y="0">20000</text>
			</g>
			<g transform=" matrix(0.707107,-0.707107,0.707107,0.707107,93.791588,169.825647)">
				<text style="font-family: Helvetica; font-size: 10px;fill: rgb(0%,0%,0%); stroke:none;" transform="translate(0,0) scale(1,-1)" x="0" y="0">Gene_02351</text>
			</g>
			<g transform=" matrix(0.707107,-0.707107,0.707107,0.707107,166.872297,169.825647)">
				<text style="font-family: Helvetica; font-size: 10px;fill: rgb(0%,0%,0%); stroke:none;" transform="translate(0,0) scale(1,-1)" x="0" y="0">Gene_02352</text>
			</g>
			<g transform=" matrix(0.707107,-0.707107,0.707107,0.707107,265.12421,169.825647)">
				<text style="font-family: Helvetica; font-size: 10px;fill: rgb(0%,0%,0%); stroke:none;" transform="translate(0,0) scale(1,-1)" x="0" y="0">Gene_02353</text>
			</g>
			<g transform=" matrix(0.707107,-0.707107,0.707107,0.707107,330.18881,169.825647)">
				<text style="font-family: Helvetica; font-size: 16px;fill: rgb(0%,0%,100%); stroke:none;" transform="translate(0,0) scale(1,-1)" x="0" y="0">Gene_02354 (79.3)</text>
			</g>
			<g transform=" matrix(0.707107,-0.707107,0.707107,0.707107,370.20697,169.825647)">
				<text style="font-family: Helvetica; font-size: 10px;fill: rgb(0%,0%,0%); stroke:none;" transform="translate(0,0) scale(1,-1)" x="0" y="0">Gene_02355</text>
			</g>
			<g transform=" matrix(0.707107,-0.707107,0.707107,0.707107,420.611761,169.825647)">
				<text style="font-family: Helvetica; font-size: 10px;fill: rgb(0%,0%,0%); stroke:none;" transform="translate(0,0) scale(1,-1)" x="0" y="0">Gene_02356</text>
			</g>
			<g transform=" matrix(0.707107,-0.707107,0.707107,0.707107,459.662998,169.825647)">
				<text style="font-family: Helvetica; font-size: 10px;fill: rgb(0%,0%,0%); stroke:none;" transform="translate(0,0) scale(1,-1)" x="0" y="0">Gene_02357</text>
			</g>
			<g transform=" matrix(0.707107,-0.707107,0.707107,0.707107,537.640706,169.825647)">
				<text style="font-family: Helvetica; font-size: 10px;fill: rgb(0%,0%,0%); stroke:none;" transform="translate(0,0) scale(1,-1)" x="0" y="0">Gene_02358</text>
			</g>
			<g transform=" matrix(0.707107,-0.707107,0.707107,0.707107,612.59288,169.825647)">
				<text style="font-family: Helvetica; font-size: 10px;fill: rgb(0%,0%,0%); stroke:none;" transform="translate(0,0) scale(1,-1)" x="0" y="0">Gene_02359</text>
			</g>
			<g transform=" matrix(0.707107,-0.707107,0.707107,0.707107,650.989104,169.825647)">
				<text style="font-family: Helvetica; font-size: 10px;fill: rgb(0%,0%,0%); stroke:none;" transform="translate(0,0) scale(1,-1)" x="0" y="0">Gene_02360</text>
			</g>
			<g transform=" matrix(0.707107,-0.707107,0.707107,0.707107,708.505462,169.825647)">
				<text style="font-family: Helvetica; font-size: 10px;fill: rgb(0%,0%,0%); stroke:none;" transform="translate(0,0) scale(1,-1)" x="0" y="0">Gene_02361</text>
			</g>
			<g transform=" matrix(0.707107,-0.707107,0.707107,0.707107,760.8441,169.825647)">
				<text style="font-family: Helvetica; font-size: 10px;fill: rgb(0%,0%,0%); stroke:none;" transform="translate(0,0) scale(1,-1)" x="0" y="0">Gene_02362</text>
			</g>
			<g transform=" matrix(0.707107,-0.707107,0.707107,0.707107,809.970057,169.825647)">
				<text style="font-family: Helvetica; font-size: 10px;fill: rgb(0%,0%,0%); stroke:none;" transform="translate(0,0) scale(1,-1)" x="0" y="0">Gene_02363</text>
			</g>
			<g transform=" matrix(0.707107,-0.707107,0.707107,0.707107,891.25402,169.825647)">
				<text style="font-family: Helvetica; font-size: 10px;fill: rgb(0%,0%,0%); stroke:none;" transform="translate(0,0) scale(1,-1)" x="0" y="0">Gene_02364</text>
			</g>
			<g transform=" matrix(0.707107,-0.707107,0.707107,0.707107,950.361123,169.825647)">
				<text style="font-family: Helvetica; font-size: 10px;fill: rgb(0%,0%,0%); stroke:none;" transform="translate(0,0) scale(1,-1)" x="0" y="0">Gene_02365</text>
			</g>
			<g transform=" matrix(0.707107,-0.707107,0.707107,0.707107,1008.563685,169.825647)">
				<text style="font-family: Helvetica; font-size: 10px;fill: rgb(0%,0%,0%); stroke:none;" transform="translate(0,0) scale(1,-1)" x="0" y="0">Gene_02366</text>
			</g>
			<g transform=" matrix(0.707107,-0.707107,0.707107,0.707107,110.977875,456.833521)">
				<text style="font-family: Helvetica; font-size: 10px;fill: rgb(0%,0%,0%); stroke:none;" transform="translate(0,0) scale(1,-1)" x="0" y="0">Gene_01010</text>
			</g>
			<g transform=" matrix(0.707107,-0.707107,0.707107,0.707107,194.569979,456.833521)">
				<text style="font-family: Helvetica; font-size: 10px;fill: rgb(0%,0%,0%); stroke:none;" transform="translate(0,0) scale(1,-1)" x="0" y="0">Gene_01011</text>
			</g>
			<g transform=" matrix(0.707107,0.707107,-0.707107,0.707107,301.960879,538.835771)">
				<text style="font-family: Helvetica; font-size: 10px;fill: rgb(0%,0%,0%); stroke:none;" transform="translate(0,0) scale(1,-1)" x="0" y="0">Gene_01012</text>
			</g>
			<g transform=" matrix(0.707107,0.707107,-0.707107,0.707107,406.201481,538.835771)">
				<text style="font-family: Helvetica; font-size: 10px;fill: rgb(0%,0%,0%); stroke:none;" transform="translate(0,0) scale(1,-1)" x="0" y="0">Gene_01013</text>
			</g>
			<g transform=" matrix(0.707107,-0.707107,0.707107,0.707107,480.030775,456.833521)">
				<text style="font-family: Helvetica; font-size: 10px;fill: rgb(0%,0%,0%); stroke:none;" transform="translate(0,0) scale(1,-1)" x="0" y="0">Gene_01014</text>
			</g>
			<g transform=" matrix(0.707107,-0.707107,0.707107,0.707107,549.368554,456.833521)">
				<text style="font-family: Helvetica; font-size: 10px;fill: rgb(0%,0%,0%); stroke:none;" transform="translate(0,0) scale(1,-1)" x="0" y="0">Gene_01015</text>
			</g>
			<g transform=" matrix(0.707107,-0.707107,0.707107,0.707107,647.339747,456.833521)">
				<text style="font-family: Helvetica; font-size: 10px;fill: rgb(0%,0%,0%); stroke:none;" transform="translate(0,0) scale(1,-1)" x="0" y="0">Gene_01016</text>
			</g>
			<g transform=" matrix(0.707107,-0.707107,0.707107,0.707107,712.497921,456.833521)">
				<text style="font-family: Helvetica; font-size: 16px;fill: rgb(0%,0%,100%); stroke:none;" transform="translate(0,0) scale(1,-1)" x="0" y="0">Gene_01017 (79.3)</text>
			</g>
			<g transform=" matrix(0.707107,-0.707107,0.707107,0.707107,752.422507,456.833521)">
				<text style="font-family: Helvetica; font-size: 10px;fill: rgb(0%,0%,0%); stroke:none;" transform="translate(0,0) scale(1,-1)" x="0" y="0">Gene_01018</text>
			</g>
			<g transform=" matrix(0.707107,-0.707107,0.707107,0.707107,802.764916,456.833521)">
				<text style="font-family: Helvetica; font-size: 10px;fill: rgb(0%,0%,0%); stroke:none;" transform="translate(0,0) scale(1,-1)" x="0" y="0">Gene_01019</text>
			</g>
			<g transform=" matrix(0.707107,-0.707107,0.707107,0.707107,839.383248,456.833521)">
				<text style="font-family: Helvetica; font-size: 10px;fill: rgb(0%,0%,0%); stroke:none;" transform="translate(0,0) scale(1,-1)" x="0" y="0">Gene_01020</text>
			</g>
			<g transform=" matrix(0.707107,-0.707107,0.707107,0.707107,917.267384,456.833521)">
				<text style="font-family: Helvetica; font-size: 10px;fill: rgb(0%,0%,0%); stroke:none;" transform="translate(0,0) scale(1,-1)" x="0" y="0">Gene_01021</text>
			</g>
			<g transform=" matrix(0.707107,-0.707107,0.707107,0.707107,993.311245,456.833521)">
				<text style="font-family: Helvetica; font-size: 10px;fill: rgb(0%,0%,0%); stroke:none;" transform="translate(0,0) scale(1,-1)" x="0" y="0">Gene_01022</text>
			</g>
			<g transform=" matrix(0.707107,-0.707107,0.707107,0.707107,1008.033437,456.833521)">
				<text style="font-family: Helvetica; font-size: 10px;fill: rgb(0%,0%,0%); stroke:none;" transform="translate(0,0) scale(1,-1)" x="0" y="0">Gene_01023</text>
			</g>
			<g transform=" matrix(0.707107,-0.707107,0.707107,0.707107,1036.791616,456.833521)">
				<text style="font-family: Helvetica; font-size: 10px;fill: rgb(0%,0%,0%); stroke:none;" transform="translate(0,0) scale(1,-1)" x="0" y="0">Gene_01024</text>
			</g>
			<g transform=" matrix(0.707107,-0.707107,0.707107,0.707107,1091.188865,456.833521)">
				<text style="font-family: Helvetica; font-size: 10px;fill: rgb(0%,0%,0%); stroke:none;" transform="translate(0,0) scale(1,-1)" x="0" y="0">Gene_01025</text>
			</g>
			<g transform=" matrix(0.707107,-0.707107,0.707107,0.707107,1143.43393,456.833521)">
				<text style="font-family: Helvetica; font-size: 10px;fill: rgb(0%,0%,0%); stroke:none;" transform="translate(0,0) scale(1,-1)" x="0" y="0">Gene_01026</text>
			</g>
			<g transform=" matrix(0.707107,-0.707107,0.707107,0.707107,1193.152517,456.833521)">
				<text style="font-family: Helvetica; font-size: 10px;fill: rgb(0%,0%,0%); stroke:none;" transform="translate(0,0) scale(1,-1)" x="0" y="0">Gene_01027</text>
			</g>
			<g transform=" matrix(0.707107,-0.707107,0.707107,0.707107,1272.814545,456.833521)">
				<text style="font-family: Helvetica; font-size: 10px;fill: rgb(0%,0%,0%); stroke:none;" transform="translate(0,0) scale(1,-1)" x="0" y="0">Gene_01028</text>
			</g>
			<g transform=" matrix(0.707107,-0.707107,0.707107,0.707107,1331.297826,456.833521)">
				<text style="font-family: Helvetica; font-size: 10px;fill: rgb(0%,0%,0%); stroke:none;" transform="translate(0,0) scale(1,-1)" x="0" y="0">Gene_01029</text>
			</g>
			<g transform=" matrix(1,0,-0,1,70,169.825647)">
				<text style="font-family: Helvetica; font-size: 12px;fill: rgb(60%,60%,60%); stroke:none;" transform="translate(0,0) scale(1,-1)" x="0" y="0">megahit_96559 (left 3994bp, right 11942bp)</text>
			</g>
			<g transform=" matrix(1,0,-0,1,70,456.833521)">
				<text style="font-family: Helvetica; font-size: 12px;fill: rgb(60%,60%,60%); stroke:none;" transform="translate(0,0) scale(1,-1)" x="0" y="0">megahit_32364 (left 52159bp, right 41059bp)</text>
			</g>
		</g>
	</g>
</svg>
