<?xml version="1.0" encoding="utf-8"?>
<!DOCTYPE svg
  PUBLIC '-//W3C//DTD SVG 1.0//EN'
  'http://www.w3.org/TR/2001/REC-SVG-20010904/DTD/svg10.dtd'>
<svg fill-rule="evenodd" height="708.6614173228346" preserveAspectRatio="xMinYMin meet" version="1.0" viewBox="0 0 1417 708" width="1417.3228346456692" xmlns="http://www.w3.org/2000/svg" xmlns:xlink="http://www.w3.org/1999/xlink">
	<title>...</title>
	<desc>...</desc>
	<clipPath id="clip">
		<rect height="708.6614173228346" width="1417.3228346456692" x="0" y="0"/>
	</clipPath>
	<g id="group" style="clip-path: url(#clip)" transform="scale(1,-1) translate(0,-708)">
		<g transform="">
			<polygon points="70.86614 169.8256, 360.1059 169.8256, 360.1059 251.8279, 70.86614 251.8279" style="stroke: rgb(96%,96%,96%); stroke-linecap: butt; stroke-width: 1; fill: rgb(96%,96%,96%); fill-rule: evenodd;"/>
			<polygon points="70.86614 456.8335, 1346.346 456.8335, 1346.346 538.8358, 70.86614 538.8358" style="stroke: rgb(96%,96%,96%); stroke-linecap: butt; stroke-width: 1; fill: rgb(96%,96%,96%); fill-rule: evenodd;"/>
			<polygon points="157.936 456.8335, 212.8927 456.8335, 126.0435 251.8279, 70.9765 251.8279" style="stroke: rgb(100%,15%,15%); stroke-linecap: round; stroke-width: 1; fill: rgb(100%,15%,15%); fill-rule: evenodd;"/>
			<polygon points="1226.391 456.8335, 1334.428 456.8335, 238.2743 251.8279, 127.0367 251.8279" style="stroke: rgb(100%,58%,58%); stroke-linecap: round; stroke-width: 1; fill: rgb(100%,58%,58%); fill-rule: evenodd;"/>
			<polygon points="110.5939 200.5765, 95.32249 200.5765, 95.32249 210.8268, 78.92204 190.3262, 95.32249 169.8256, 95.32249 180.0759, 110.5939 180.0759" style="stroke: rgb(56%,93%,56%); stroke-linecap: round; stroke-width: 1; fill: rgb(56%,93%,56%); fill-rule: evenodd;"/>
			<polygon points="145.466 200.5765, 141.1197 200.5765, 141.1197 210.8268, 124.7193 190.3262, 141.1197 169.8256, 141.1197 180.0759, 145.466 180.0759" style="stroke: rgb(56%,93%,56%); stroke-linecap: round; stroke-width: 1; fill: rgb(56%,93%,56%); fill-rule: evenodd;"/>
			<polygon points="269.3943 200.5765, 171.3569 200.5765, 171.3569 210.8268, 154.9565 190.3262, 171.3569 169.8256, 171.3569 180.0759, 269.3943 180.0759" style="stroke: rgb(56%,93%,56%); stroke-linecap: round; stroke-width: 1; fill: rgb(56%,93%,56%); fill-rule: evenodd;"/>
			<polygon points="343.2217 200.5765, 289.5468 200.5765, 289.5468 210.8268, 273.1464 190.3262, 289.5468 169.8256, 289.5468 180.0759, 343.2217 180.0759" style="stroke: rgb(56%,93%,56%); stroke-linecap: round; stroke-width: 1; fill: rgb(56%,93%,56%); fill-rule: evenodd;"/>
			<polygon points="100.7723 487.5844, 87.81837 487.5844, 87.81837 497.8346, 71.41792 477.3341, 87.81837 456.8335, 87.81837 467.0838, 100.7723 467.0838" style="stroke: rgb(56%,93%,56%); stroke-linecap: round; stroke-width: 1; fill: rgb(56%,93%,56%); fill-rule: evenodd;"/>
			<polygon points="164.0056 487.5844, 131.5188 487.5844, 131.5188 497.8346, 115.1184 477.3341, 131.5188 456.8335, 131.5188 467.0838, 164.0056 467.0838" style="stroke: rgb(56%,93%,56%); stroke-linecap: round; stroke-width: 1; fill: rgb(56%,93%,56%); fill-rule: evenodd;"/>
			<polygon points="197.5534 487.5844, 182.282 487.5844, 182.282 497.8346, 165.8816 477.3341, 182.282 456.8335, 182.282 467.0838, 197.5534 467.0838" style="stroke: rgb(56%,93%,56%); stroke-linecap: round; stroke-width: 1; fill: rgb(56%,93%,56%); fill-rule: evenodd;"/>
			<polygon points="299.1901 487.5844, 248.8259 487.5844, 248.8259 497.8346, 232.4255 477.3341, 248.8259 456.8335, 248.8259 467.0838, 299.1901 467.0838" style="stroke: rgb(56%,93%,56%); stroke-linecap: round; stroke-width: 1; fill: rgb(56%,93%,56%); fill-rule: evenodd;"/>
			<polygon points="411.4209 487.5844, 322.9843 487.5844, 322.9843 497.8346, 306.5839 477.3341, 322.9843 456.8335, 322.9843 467.0838, 411.4209 467.0838" style="stroke: rgb(56%,93%,56%); stroke-linecap: round; stroke-width: 1; fill: rgb(56%,93%,56%); fill-rule: evenodd;"/>
			<polygon points="506.7674 487.5844, 430.5802 487.5844, 430.5802 497.8346, 414.1798 477.3341, 430.5802 456.8335, 430.5802 467.0838, 506.7674 467.0838" style="stroke: rgb(56%,93%,56%); stroke-linecap: round; stroke-width: 1; fill: rgb(56%,93%,56%); fill-rule: evenodd;"/>
			<polygon points="615.9083 487.5844, 522.8368 487.5844, 522.8368 497.8346, 506.4363 477.3341, 522.8368 456.8335, 522.8368 467.0838, 615.9083 467.0838" style="stroke: rgb(56%,93%,56%); stroke-linecap: round; stroke-width: 1; fill: rgb(56%,93%,56%); fill-rule: evenodd;"/>
			<polygon points="795.014 487.5844, 633.0812 487.5844, 633.0812 497.8346, 616.6807 477.3341, 633.0812 456.8335, 633.0812 467.0838, 795.014 467.0838" style="stroke: rgb(56%,93%,56%); stroke-linecap: round; stroke-width: 1; fill: rgb(56%,93%,56%); fill-rule: evenodd;"/>
			<polygon points="954.8077 487.5844, 811.4145 487.5844, 811.4145 497.8346, 795.014 477.3341, 811.4145 456.8335, 811.4145 467.0838, 954.8077 467.0838" style="stroke: rgb(56%,93%,56%); stroke-linecap: round; stroke-width: 1; fill: rgb(56%,93%,56%); fill-rule: evenodd;"/>
			<polygon points="1039.781 487.5844, 971.8703 487.5844, 971.8703 497.8346, 955.4698 477.3341, 971.8703 456.8335, 971.8703 467.0838, 1039.781 467.0838" style="stroke: rgb(56%,93%,56%); stroke-linecap: round; stroke-width: 1; fill: rgb(56%,93%,56%); fill-rule: evenodd;"/>
			<polygon points="1132.148 487.5844, 1065.23 487.5844, 1065.23 497.8346, 1048.83 477.3341, 1065.23 456.8335, 1065.23 467.0838, 1132.148 467.0838" style="stroke: rgb(56%,93%,56%); stroke-linecap: round; stroke-width: 1; fill: rgb(56%,93%,56%); fill-rule: evenodd;"/>
			<polygon points="1219.107 487.5844, 1189.6 487.5844, 1189.6 497.8346, 1173.2 477.3341, 1189.6 456.8335, 1189.6 467.0838, 1219.107 467.0838" style="stroke: rgb(56%,93%,56%); stroke-linecap: round; stroke-width: 1; fill: rgb(56%,93%,56%); fill-rule: evenodd;"/>
			<polygon points="1244.82 487.5844, 1238.156 487.5844, 1238.156 497.8346, 1221.756 477.3341, 1238.156 456.8335, 1238.156 467.0838, 1244.82 467.0838" style="stroke: rgb(56%,93%,56%); stroke-linecap: round; stroke-width: 1; fill: rgb(56%,93%,56%); fill-rule: evenodd;"/>
			<polygon points="1346.346 487.5844, 1267.511 487.5844, 1267.511 497.8346, 1251.11 477.3341, 1267.511 456.8335, 1267.511 467.0838, 1346.346 467.0838" style="stroke: rgb(56%,93%,56%); stroke-linecap: round; stroke-width: 1; fill: rgb(56%,93%,56%); fill-rule: evenodd;"/>
			<path d="M 360.105941,169.825647 L 360.105941,251.827897 Z" style="stroke: rgb(0%,0%,0%); stroke-linecap: butt; stroke-width: 1;"/>
			<path d="M 70.866142,210.826772 L 360.105941,210.826772 Z" style="stroke: rgb(0%,0%,0%); stroke-linecap: butt; stroke-width: 1;"/>
			<path d="M 70.866142,169.825647 L 70.866142,251.827897 Z" style="stroke: rgb(0%,0%,0%); stroke-linecap: butt; stroke-width: 1;"/>
			<path d="M 1346.346338,456.833521 L 1346.346338,538.835771 Z" style="stroke: rgb(0%,0%,0%); stroke-linecap: butt; stroke-width: 1;"/>
			<path d="M 70.866142,497.834646 L 1346.346338,497.834646 Z" style="stroke: rgb(0%,0%,0%); stroke-linecap: butt; stroke-width: 1;"/>
			<path d="M 70.866142,456.833521 L 70.866142,538.835771 Z" style="stroke: rgb(0%,0%,0%); stroke-linecap: butt; stroke-width: 1;"/>
			<path d="M 1174.413638,497.834646 L 1174.413638,518.335208 Z" style="stroke: rgb(0%,0%,0%); stroke-linecap: butt; stroke-width: 1;"/>
			<path d="M 1174.413638,497.834646 L 1174.413638,510.134983 Z" style="stroke: rgb(0%,0%,0%); stroke-linecap: butt; stroke-width: 1;"/>
			<g transform=" matrix(0.707107,0.707107,-0.707107,0.707107,1174.413638,518.335208)">
				<text style="font-family: Helvetica; font-size: 6px;fill: rgb(0%,0%,0%); stroke:none;" transform="translate(0,0) scale(1,-1)" x="0" y="0">10000</text>
			</g>
			<g transform=" matrix(0.707107,-0.707107,0.707107,0.707107,94.757945,169.825647)">
				<text style="font-family: Helvetica; font-size: 16px;fill: rgb(0%,0%,100%); stroke:none;" transform="translate(0,0) scale(1,-1)" x="0" y="0">Gene_00722 (96.5)</text>
			</g>
			<g transform=" matrix(0.707107,-0.707107,0.707107,0.707107,135.092606,169.825647)">
				<text style="font-family: Helvetica; font-size: 10px;fill: rgb(0%,0%,0%); stroke:none;" transform="translate(0,0) scale(1,-1)" x="0" y="0">Gene_00723</text>
			</g>
			<g transform=" matrix(0.707107,-0.707107,0.707107,0.707107,212.175399,169.825647)">
				<text style="font-family: Helvetica; font-size: 10px;fill: rgb(0%,0%,0%); stroke:none;" transform="translate(0,0) scale(1,-1)" x="0" y="0">Gene_00724</text>
			</g>
			<g transform=" matrix(0.707107,-0.707107,0.707107,0.707107,308.184031,169.825647)">
				<text style="font-family: Helvetica; font-size: 10px;fill: rgb(0%,0%,0%); stroke:none;" transform="translate(0,0) scale(1,-1)" x="0" y="0">Gene_00725</text>
			</g>
			<g transform=" matrix(0.707107,-0.707107,0.707107,0.707107,86.095097,456.833521)">
				<text style="font-family: Helvetica; font-size: 10px;fill: rgb(0%,0%,0%); stroke:none;" transform="translate(0,0) scale(1,-1)" x="0" y="0">Gene_02763</text>
			</g>
			<g transform=" matrix(0.707107,-0.707107,0.707107,0.707107,139.561973,456.833521)">
				<text style="font-family: Helvetica; font-size: 10px;fill: rgb(0%,0%,0%); stroke:none;" transform="translate(0,0) scale(1,-1)" x="0" y="0">Gene_02764</text>
			</g>
			<g transform=" matrix(0.707107,-0.707107,0.707107,0.707107,181.717488,456.833521)">
				<text style="font-family: Helvetica; font-size: 16px;fill: rgb(0%,0%,100%); stroke:none;" transform="translate(0,0) scale(1,-1)" x="0" y="0">Gene_02765 (96.5)</text>
			</g>
			<g transform=" matrix(0.707107,-0.707107,0.707107,0.707107,265.807807,456.833521)">
				<text style="font-family: Helvetica; font-size: 10px;fill: rgb(0%,0%,0%); stroke:none;" transform="translate(0,0) scale(1,-1)" x="0" y="0">Gene_02766</text>
			</g>
			<g transform=" matrix(0.707107,-0.707107,0.707107,0.707107,359.002393,456.833521)">
				<text style="font-family: Helvetica; font-size: 10px;fill: rgb(0%,0%,0%); stroke:none;" transform="translate(0,0) scale(1,-1)" x="0" y="0">Gene_02767</text>
			</g>
			<g transform=" matrix(0.707107,-0.707107,0.707107,0.707107,460.473585,456.833521)">
				<text style="font-family: Helvetica; font-size: 10px;fill: rgb(0%,0%,0%); stroke:none;" transform="translate(0,0) scale(1,-1)" x="0" y="0">Gene_02768</text>
			</g>
			<g transform=" matrix(0.707107,-0.707107,0.707107,0.707107,561.172294,456.833521)">
				<text style="font-family: Helvetica; font-size: 10px;fill: rgb(0%,0%,0%); stroke:none;" transform="translate(0,0) scale(1,-1)" x="0" y="0">Gene_02769</text>
			</g>
			<g transform=" matrix(0.707107,-0.707107,0.707107,0.707107,705.847371,456.833521)">
				<text style="font-family: Helvetica; font-size: 10px;fill: rgb(0%,0%,0%); stroke:none;" transform="translate(0,0) scale(1,-1)" x="0" y="0">Gene_02770</text>
			</g>
			<g transform=" matrix(0.707107,-0.707107,0.707107,0.707107,874.910848,456.833521)">
				<text style="font-family: Helvetica; font-size: 10px;fill: rgb(0%,0%,0%); stroke:none;" transform="translate(0,0) scale(1,-1)" x="0" y="0">Gene_02771</text>
			</g>
			<g transform=" matrix(0.707107,-0.707107,0.707107,0.707107,997.625329,456.833521)">
				<text style="font-family: Helvetica; font-size: 10px;fill: rgb(0%,0%,0%); stroke:none;" transform="translate(0,0) scale(1,-1)" x="0" y="0">Gene_02772</text>
			</g>
			<g transform=" matrix(0.707107,-0.707107,0.707107,0.707107,1090.488851,456.833521)">
				<text style="font-family: Helvetica; font-size: 10px;fill: rgb(0%,0%,0%); stroke:none;" transform="translate(0,0) scale(1,-1)" x="0" y="0">Gene_02773</text>
			</g>
			<g transform=" matrix(0.707107,-0.707107,0.707107,0.707107,1196.153524,456.833521)">
				<text style="font-family: Helvetica; font-size: 10px;fill: rgb(0%,0%,0%); stroke:none;" transform="translate(0,0) scale(1,-1)" x="0" y="0">Gene_02774</text>
			</g>
			<g transform=" matrix(0.707107,-0.707107,0.707107,0.707107,1233.287897,456.833521)">
				<text style="font-family: Helvetica; font-size: 10px;fill: rgb(0%,0%,0%); stroke:none;" transform="translate(0,0) scale(1,-1)" x="0" y="0">Gene_02775</text>
			</g>
			<g transform=" matrix(0.707107,-0.707107,0.707107,0.707107,1298.728264,456.833521)">
				<text style="font-family: Helvetica; font-size: 10px;fill: rgb(0%,0%,0%); stroke:none;" transform="translate(0,0) scale(1,-1)" x="0" y="0">Gene_02776</text>
			</g>
			<g transform=" matrix(1,0,-0,1,70,169.825647)">
				<text style="font-family: Helvetica; font-size: 12px;fill: rgb(60%,60%,60%); stroke:none;" transform="translate(0,0) scale(1,-1)" x="0" y="0">megahit_50523 (left 73bp, right 2261bp)</text>
			</g>
			<g transform=" matrix(1,0,-0,1,70,456.833521)">
				<text style="font-family: Helvetica; font-size: 12px;fill: rgb(60%,60%,60%); stroke:none;" transform="translate(0,0) scale(1,-1)" x="0" y="0">megahit_37541 (left 861bp, right 26749bp)</text>
			</g>
		</g>
	</g>
</svg>
