<?xml version="1.0" encoding="utf-8"?>
<!DOCTYPE svg
  PUBLIC '-//W3C//DTD SVG 1.0//EN'
  'http://www.w3.org/TR/2001/REC-SVG-20010904/DTD/svg10.dtd'>
<svg fill-rule="evenodd" height="708.6614173228346" preserveAspectRatio="xMinYMin meet" version="1.0" viewBox="0 0 1417 708" width="1417.3228346456692" xmlns="http://www.w3.org/2000/svg" xmlns:xlink="http://www.w3.org/1999/xlink">
	<title>...</title>
	<desc>...</desc>
	<clipPath id="clip">
		<rect height="708.6614173228346" width="1417.3228346456692" x="0" y="0"/>
	</clipPath>
	<g id="group" style="clip-path: url(#clip)" transform="scale(1,-1) translate(0,-708)">
		<g transform="">
			<polygon points="70.86614 169.8256, 1346.041 169.8256, 1346.041 251.8279, 70.86614 251.8279" style="stroke: rgb(96%,96%,96%); stroke-linecap: butt; stroke-width: 1; fill: rgb(96%,96%,96%); fill-rule: evenodd;"/>
			<polygon points="70.86614 456.8335, 849.0096 456.8335, 849.0096 538.8358, 70.86614 538.8358" style="stroke: rgb(96%,96%,96%); stroke-linecap: butt; stroke-width: 1; fill: rgb(96%,96%,96%); fill-rule: evenodd;"/>
			<polygon points="71.28137 456.8335, 580.3549 456.8335, 351.1473 251.8279, 860.2208 251.8279" style="stroke: rgb(100%,1%,1%); stroke-linecap: round; stroke-width: 1; fill: rgb(100%,1%,1%); fill-rule: evenodd;"/>
			<polygon points="94.53433 241.5776, 277.0297 241.5776, 277.0297 251.8279, 293.4301 231.3273, 277.0297 210.8268, 277.0297 221.0771, 94.53433 221.0771" style="stroke: rgb(67%,84%,90%); stroke-linecap: round; stroke-width: 1; fill: rgb(67%,84%,90%); fill-rule: evenodd;"/>
			<polygon points="400.5598 241.5776, 817.2456 241.5776, 817.2456 251.8279, 833.646 231.3273, 817.2456 210.8268, 817.2456 221.0771, 400.5598 221.0771" style="stroke: rgb(67%,84%,90%); stroke-linecap: round; stroke-width: 1; fill: rgb(67%,84%,90%); fill-rule: evenodd;"/>
			<polygon points="841.1202 241.5776, 1109.568 241.5776, 1109.568 251.8279, 1125.969 231.3273, 1109.568 210.8268, 1109.568 221.0771, 841.1202 221.0771" style="stroke: rgb(67%,84%,90%); stroke-linecap: round; stroke-width: 1; fill: rgb(67%,84%,90%); fill-rule: evenodd;"/>
			<polygon points="530.9424 487.5844, 114.2566 487.5844, 114.2566 497.8346, 97.85618 477.3341, 114.2566 456.8335, 114.2566 467.0838, 530.9424 467.0838" style="stroke: rgb(56%,93%,56%); stroke-linecap: round; stroke-width: 1; fill: rgb(56%,93%,56%); fill-rule: evenodd;"/>
			<path d="M 1346.041462,169.825647 L 1346.041462,251.827897 Z" style="stroke: rgb(0%,0%,0%); stroke-linecap: butt; stroke-width: 1;"/>
			<path d="M 70.866142,210.826772 L 1346.041462,210.826772 Z" style="stroke: rgb(0%,0%,0%); stroke-linecap: butt; stroke-width: 1;"/>
			<path d="M 70.866142,169.825647 L 70.866142,251.827897 Z" style="stroke: rgb(0%,0%,0%); stroke-linecap: butt; stroke-width: 1;"/>
			<path d="M 849.009596,456.833521 L 849.009596,538.835771 Z" style="stroke: rgb(0%,0%,0%); stroke-linecap: butt; stroke-width: 1;"/>
			<path d="M 70.866142,497.834646 L 849.009596,497.834646 Z" style="stroke: rgb(0%,0%,0%); stroke-linecap: butt; stroke-width: 1;"/>
			<path d="M 70.866142,456.833521 L 70.866142,538.835771 Z" style="stroke: rgb(0%,0%,0%); stroke-linecap: butt; stroke-width: 1;"/>
			<g transform=" matrix(0.707107,0.707107,-0.707107,0.707107,193.982222,251.827897)">
				<text style="font-family: Helvetica; font-size: 10px;fill: rgb(0%,0%,0%); stroke:none;" transform="translate(0,0) scale(1,-1)" x="0" y="0">Gene_01454</text>
			</g>
			<g transform=" matrix(0.707107,0.707107,-0.707107,0.707107,617.102916,251.827897)">
				<text style="font-family: Helvetica; font-size: 16px;fill: rgb(0%,0%,100%); stroke:none;" transform="translate(0,0) scale(1,-1)" x="0" y="0">Gene_01455 (99.8)</text>
			</g>
			<g transform=" matrix(0.707107,0.707107,-0.707107,0.707107,983.544537,251.827897)">
				<text style="font-family: Helvetica; font-size: 10px;fill: rgb(0%,0%,0%); stroke:none;" transform="translate(0,0) scale(1,-1)" x="0" y="0">Gene_01456</text>
			</g>
			<g transform=" matrix(0.707107,-0.707107,0.707107,0.707107,314.399299,456.833521)">
				<text style="font-family: Helvetica; font-size: 16px;fill: rgb(0%,0%,100%); stroke:none;" transform="translate(0,0) scale(1,-1)" x="0" y="0">Gene_01337 (99.8)</text>
			</g>
			<g transform=" matrix(1,0,-0,1,70,169.825647)">
				<text style="font-family: Helvetica; font-size: 12px;fill: rgb(60%,60%,60%); stroke:none;" transform="translate(0,0) scale(1,-1)" x="0" y="0">megahit_66723 (left 794bp, right 1234bp)</text>
			</g>
			<g transform=" matrix(1,0,-0,1,70,456.833521)">
				<text style="font-family: Helvetica; font-size: 12px;fill: rgb(60%,60%,60%); stroke:none;" transform="translate(0,0) scale(1,-1)" x="0" y="0">megahit_30336 (left 65bp, right 766bp)</text>
			</g>
		</g>
	</g>
</svg>
