<?xml version="1.0" encoding="utf-8"?>
<!DOCTYPE svg
  PUBLIC '-//W3C//DTD SVG 1.0//EN'
  'http://www.w3.org/TR/2001/REC-SVG-20010904/DTD/svg10.dtd'>
<svg fill-rule="evenodd" height="708.6614173228346" preserveAspectRatio="xMinYMin meet" version="1.0" viewBox="0 0 1417 708" width="1417.3228346456692" xmlns="http://www.w3.org/2000/svg" xmlns:xlink="http://www.w3.org/1999/xlink">
	<title>...</title>
	<desc>...</desc>
	<clipPath id="clip">
		<rect height="708.6614173228346" width="1417.3228346456692" x="0" y="0"/>
	</clipPath>
	<g id="group" style="clip-path: url(#clip)" transform="scale(1,-1) translate(0,-708)">
		<g transform="">
			<polygon points="70.86614 169.8256, 755.6006 169.8256, 755.6006 251.8279, 70.86614 251.8279" style="stroke: rgb(96%,96%,96%); stroke-linecap: butt; stroke-width: 1; fill: rgb(96%,96%,96%); fill-rule: evenodd;"/>
			<polygon points="70.86614 456.8335, 1346.384 456.8335, 1346.384 538.8358, 70.86614 538.8358" style="stroke: rgb(96%,96%,96%); stroke-linecap: butt; stroke-width: 1; fill: rgb(96%,96%,96%); fill-rule: evenodd;"/>
			<polygon points="600.1958 456.8335, 803.4786 456.8335, 553.3288 251.8279, 755.6006 251.8279" style="stroke: rgb(100%,34%,34%); stroke-linecap: round; stroke-width: 1; fill: rgb(100%,34%,34%); fill-rule: evenodd;"/>
			<polygon points="808.4614 456.8335, 1052.184 456.8335, 313.7945 251.8279, 554.0509 251.8279" style="stroke: rgb(100%,46%,46%); stroke-linecap: round; stroke-width: 1; fill: rgb(100%,46%,46%); fill-rule: evenodd;"/>
			<polygon points="1060.128 456.8335, 1182.386 456.8335, 70.93836 251.8279, 193.1969 251.8279" style="stroke: rgb(100%,42%,42%); stroke-linecap: round; stroke-width: 1; fill: rgb(100%,42%,42%); fill-rule: evenodd;"/>
			<polygon points="191.1749 200.5765, 96.72664 200.5765, 96.72664 210.8268, 80.32619 190.3262, 96.72664 169.8256, 96.72664 180.0759, 191.1749 180.0759" style="stroke: rgb(56%,93%,56%); stroke-linecap: round; stroke-width: 1; fill: rgb(56%,93%,56%); fill-rule: evenodd;"/>
			<polygon points="293.6468 200.5765, 222.5959 200.5765, 222.5959 210.8268, 206.1954 190.3262, 222.5959 169.8256, 222.5959 180.0759, 293.6468 180.0759" style="stroke: rgb(56%,93%,56%); stroke-linecap: round; stroke-width: 1; fill: rgb(56%,93%,56%); fill-rule: evenodd;"/>
			<polygon points="360.0116 200.5765, 325.5733 200.5765, 325.5733 210.8268, 309.1728 190.3262, 325.5733 169.8256, 325.5733 180.0759, 360.0116 180.0759" style="stroke: rgb(56%,93%,56%); stroke-linecap: round; stroke-width: 1; fill: rgb(56%,93%,56%); fill-rule: evenodd;"/>
			<polygon points="505.8841 200.5765, 381.5392 200.5765, 381.5392 210.8268, 365.1388 190.3262, 381.5392 169.8256, 381.5392 180.0759, 505.8841 180.0759" style="stroke: rgb(56%,93%,56%); stroke-linecap: round; stroke-width: 1; fill: rgb(56%,93%,56%); fill-rule: evenodd;"/>
			<polygon points="542.5689 200.5765, 541.7102 200.5765, 541.7102 210.8268, 525.3097 190.3262, 541.7102 169.8256, 541.7102 180.0759, 542.5689 180.0759" style="stroke: rgb(56%,93%,56%); stroke-linecap: round; stroke-width: 1; fill: rgb(56%,93%,56%); fill-rule: evenodd;"/>
			<polygon points="570.8768 241.5776, 607.2649 241.5776, 607.2649 251.8279, 623.6654 231.3273, 607.2649 210.8268, 607.2649 221.0771, 570.8768 221.0771" style="stroke: rgb(67%,84%,90%); stroke-linecap: round; stroke-width: 1; fill: rgb(67%,84%,90%); fill-rule: evenodd;"/>
			<polygon points="645.4018 200.5765, 645.4018 210.8268, 630.3091 190.3262, 645.4018 169.8256, 645.4018 180.0759" style="stroke: rgb(56%,93%,56%); stroke-linecap: round; stroke-width: 1; fill: rgb(56%,93%,56%); fill-rule: evenodd;"/>
			<polygon points="654.212 200.5765, 654.212 210.8268, 647.7849 190.3262, 654.212 169.8256, 654.212 180.0759" style="stroke: rgb(56%,93%,56%); stroke-linecap: round; stroke-width: 1; fill: rgb(56%,93%,56%); fill-rule: evenodd;"/>
			<polygon points="746.5016 200.5765, 699.0648 200.5765, 699.0648 210.8268, 682.6643 190.3262, 699.0648 169.8256, 699.0648 180.0759, 746.5016 180.0759" style="stroke: rgb(56%,93%,56%); stroke-linecap: round; stroke-width: 1; fill: rgb(56%,93%,56%); fill-rule: evenodd;"/>
			<polygon points="189.7306 487.5844, 87.26659 487.5844, 87.26659 497.8346, 70.86614 477.3341, 87.26659 456.8335, 87.26659 467.0838, 189.7306 467.0838" style="stroke: rgb(56%,93%,56%); stroke-linecap: round; stroke-width: 1; fill: rgb(56%,93%,56%); fill-rule: evenodd;"/>
			<polygon points="206.2677 528.5855, 279.7016 528.5855, 279.7016 538.8358, 296.102 518.3352, 279.7016 497.8346, 279.7016 508.0849, 206.2677 508.0849" style="stroke: rgb(67%,84%,90%); stroke-linecap: round; stroke-width: 1; fill: rgb(67%,84%,90%); fill-rule: evenodd;"/>
			<polygon points="296.3187 528.5855, 380.8014 528.5855, 380.8014 538.8358, 397.2018 518.3352, 380.8014 497.8346, 380.8014 508.0849, 296.3187 508.0849" style="stroke: rgb(67%,84%,90%); stroke-linecap: round; stroke-width: 1; fill: rgb(67%,84%,90%); fill-rule: evenodd;"/>
			<polygon points="482.92 487.5844, 460.6137 487.5844, 460.6137 497.8346, 444.2132 477.3341, 460.6137 456.8335, 460.6137 467.0838, 482.92 467.0838" style="stroke: rgb(56%,93%,56%); stroke-linecap: round; stroke-width: 1; fill: rgb(56%,93%,56%); fill-rule: evenodd;"/>
			<polygon points="534.3365 487.5844, 511.5969 487.5844, 511.5969 497.8346, 495.1964 477.3341, 511.5969 456.8335, 511.5969 467.0838, 534.3365 467.0838" style="stroke: rgb(56%,93%,56%); stroke-linecap: round; stroke-width: 1; fill: rgb(56%,93%,56%); fill-rule: evenodd;"/>
			<polygon points="565.4608 487.5844, 553.3366 487.5844, 553.3366 497.8346, 536.9362 477.3341, 553.3366 456.8335, 553.3366 467.0838, 565.4608 467.0838" style="stroke: rgb(56%,93%,56%); stroke-linecap: round; stroke-width: 1; fill: rgb(56%,93%,56%); fill-rule: evenodd;"/>
			<polygon points="593.4799 528.5855, 657.5982 528.5855, 657.5982 538.8358, 673.9986 518.3352, 657.5982 497.8346, 657.5982 508.0849, 593.4799 508.0849" style="stroke: rgb(67%,84%,90%); stroke-linecap: round; stroke-width: 1; fill: rgb(67%,84%,90%); fill-rule: evenodd;"/>
			<polygon points="712.3443 528.5855, 712.3443 538.8358, 727.4371 518.3352, 712.3443 497.8346, 712.3443 508.0849" style="stroke: rgb(67%,84%,90%); stroke-linecap: round; stroke-width: 1; fill: rgb(67%,84%,90%); fill-rule: evenodd;"/>
			<polygon points="785.8583 487.5844, 749.9035 487.5844, 749.9035 497.8346, 733.5031 477.3341, 749.9035 456.8335, 749.9035 467.0838, 785.8583 467.0838" style="stroke: rgb(56%,93%,56%); stroke-linecap: round; stroke-width: 1; fill: rgb(56%,93%,56%); fill-rule: evenodd;"/>
			<polygon points="820.16 528.5855, 821.0188 528.5855, 821.0188 538.8358, 837.4192 518.3352, 821.0188 497.8346, 821.0188 508.0849, 820.16 508.0849" style="stroke: rgb(67%,84%,90%); stroke-linecap: round; stroke-width: 1; fill: rgb(67%,84%,90%); fill-rule: evenodd;"/>
			<polygon points="856.3393 528.5855, 982.634 528.5855, 982.634 538.8358, 999.0345 518.3352, 982.634 497.8346, 982.634 508.0849, 856.3393 508.0849" style="stroke: rgb(67%,84%,90%); stroke-linecap: round; stroke-width: 1; fill: rgb(67%,84%,90%); fill-rule: evenodd;"/>
			<polygon points="1005.967 528.5855, 1039.322 528.5855, 1039.322 538.8358, 1055.723 518.3352, 1039.322 497.8346, 1039.322 508.0849, 1005.967 508.0849" style="stroke: rgb(67%,84%,90%); stroke-linecap: round; stroke-width: 1; fill: rgb(67%,84%,90%); fill-rule: evenodd;"/>
			<polygon points="1056.084 528.5855, 1157.898 528.5855, 1157.898 538.8358, 1174.298 518.3352, 1157.898 497.8346, 1157.898 508.0849, 1056.084 508.0849" style="stroke: rgb(67%,84%,90%); stroke-linecap: round; stroke-width: 1; fill: rgb(67%,84%,90%); fill-rule: evenodd;"/>
			<polygon points="1172.782 528.5855, 1202.021 528.5855, 1202.021 538.8358, 1218.421 518.3352, 1202.021 497.8346, 1202.021 508.0849, 1172.782 508.0849" style="stroke: rgb(67%,84%,90%); stroke-linecap: round; stroke-width: 1; fill: rgb(67%,84%,90%); fill-rule: evenodd;"/>
			<polygon points="1222.393 528.5855, 1241.233 528.5855, 1241.233 538.8358, 1257.633 518.3352, 1241.233 497.8346, 1241.233 508.0849, 1222.393 508.0849" style="stroke: rgb(67%,84%,90%); stroke-linecap: round; stroke-width: 1; fill: rgb(67%,84%,90%); fill-rule: evenodd;"/>
			<polygon points="1262.761 528.5855, 1298.282 528.5855, 1298.282 538.8358, 1314.682 518.3352, 1298.282 497.8346, 1298.282 508.0849, 1262.761 508.0849" style="stroke: rgb(67%,84%,90%); stroke-linecap: round; stroke-width: 1; fill: rgb(67%,84%,90%); fill-rule: evenodd;"/>
			<path d="M 755.600608,169.825647 L 755.600608,251.827897 Z" style="stroke: rgb(0%,0%,0%); stroke-linecap: butt; stroke-width: 1;"/>
			<path d="M 70.866142,210.826772 L 755.600608,210.826772 Z" style="stroke: rgb(0%,0%,0%); stroke-linecap: butt; stroke-width: 1;"/>
			<path d="M 70.866142,169.825647 L 70.866142,251.827897 Z" style="stroke: rgb(0%,0%,0%); stroke-linecap: butt; stroke-width: 1;"/>
			<path d="M 1346.384479,456.833521 L 1346.384479,538.835771 Z" style="stroke: rgb(0%,0%,0%); stroke-linecap: butt; stroke-width: 1;"/>
			<path d="M 70.866142,497.834646 L 1346.384479,497.834646 Z" style="stroke: rgb(0%,0%,0%); stroke-linecap: butt; stroke-width: 1;"/>
			<path d="M 70.866142,456.833521 L 70.866142,538.835771 Z" style="stroke: rgb(0%,0%,0%); stroke-linecap: butt; stroke-width: 1;"/>
			<path d="M 793.007532,497.834646 L 793.007532,518.335208 Z" style="stroke: rgb(0%,0%,0%); stroke-linecap: butt; stroke-width: 1;"/>
			<path d="M 793.007532,497.834646 L 793.007532,510.134983 Z" style="stroke: rgb(0%,0%,0%); stroke-linecap: butt; stroke-width: 1;"/>
			<g transform=" matrix(0.707107,0.707107,-0.707107,0.707107,793.007532,518.335208)">
				<text style="font-family: Helvetica; font-size: 6px;fill: rgb(0%,0%,0%); stroke:none;" transform="translate(0,0) scale(1,-1)" x="0" y="0">10000</text>
			</g>
			<g transform=" matrix(0.707107,-0.707107,0.707107,0.707107,135.750546,169.825647)">
				<text style="font-family: Helvetica; font-size: 10px;fill: rgb(0%,0%,0%); stroke:none;" transform="translate(0,0) scale(1,-1)" x="0" y="0">Gene_04003</text>
			</g>
			<g transform=" matrix(0.707107,-0.707107,0.707107,0.707107,249.921099,169.825647)">
				<text style="font-family: Helvetica; font-size: 10px;fill: rgb(0%,0%,0%); stroke:none;" transform="translate(0,0) scale(1,-1)" x="0" y="0">Gene_04004</text>
			</g>
			<g transform=" matrix(0.707107,-0.707107,0.707107,0.707107,334.592177,169.825647)">
				<text style="font-family: Helvetica; font-size: 10px;fill: rgb(0%,0%,0%); stroke:none;" transform="translate(0,0) scale(1,-1)" x="0" y="0">Gene_04005</text>
			</g>
			<g transform=" matrix(0.707107,-0.707107,0.707107,0.707107,435.511437,169.825647)">
				<text style="font-family: Helvetica; font-size: 16px;fill: rgb(0%,0%,100%); stroke:none;" transform="translate(0,0) scale(1,-1)" x="0" y="0">Gene_04006 (79.6)</text>
			</g>
			<g transform=" matrix(0.707107,-0.707107,0.707107,0.707107,533.939308,169.825647)">
				<text style="font-family: Helvetica; font-size: 10px;fill: rgb(0%,0%,0%); stroke:none;" transform="translate(0,0) scale(1,-1)" x="0" y="0">Gene_04007</text>
			</g>
			<g transform=" matrix(0.707107,0.707107,-0.707107,0.707107,597.271108,251.827897)">
				<text style="font-family: Helvetica; font-size: 10px;fill: rgb(0%,0%,0%); stroke:none;" transform="translate(0,0) scale(1,-1)" x="0" y="0">Gene_04008</text>
			</g>
			<g transform=" matrix(0.707107,-0.707107,0.707107,0.707107,637.855454,169.825647)">
				<text style="font-family: Helvetica; font-size: 10px;fill: rgb(0%,0%,0%); stroke:none;" transform="translate(0,0) scale(1,-1)" x="0" y="0">Gene_04009</text>
			</g>
			<g transform=" matrix(0.707107,-0.707107,0.707107,0.707107,650.998427,169.825647)">
				<text style="font-family: Helvetica; font-size: 10px;fill: rgb(0%,0%,0%); stroke:none;" transform="translate(0,0) scale(1,-1)" x="0" y="0">Gene_04010</text>
			</g>
			<g transform=" matrix(0.707107,-0.707107,0.707107,0.707107,714.582977,169.825647)">
				<text style="font-family: Helvetica; font-size: 10px;fill: rgb(0%,0%,0%); stroke:none;" transform="translate(0,0) scale(1,-1)" x="0" y="0">Gene_04011</text>
			</g>
			<g transform=" matrix(0.707107,-0.707107,0.707107,0.707107,130.298378,456.833521)">
				<text style="font-family: Helvetica; font-size: 10px;fill: rgb(0%,0%,0%); stroke:none;" transform="translate(0,0) scale(1,-1)" x="0" y="0">Gene_00781</text>
			</g>
			<g transform=" matrix(0.707107,0.707107,-0.707107,0.707107,251.184847,538.835771)">
				<text style="font-family: Helvetica; font-size: 10px;fill: rgb(0%,0%,0%); stroke:none;" transform="translate(0,0) scale(1,-1)" x="0" y="0">Gene_00782</text>
			</g>
			<g transform=" matrix(0.707107,0.707107,-0.707107,0.707107,346.76026,538.835771)">
				<text style="font-family: Helvetica; font-size: 10px;fill: rgb(0%,0%,0%); stroke:none;" transform="translate(0,0) scale(1,-1)" x="0" y="0">Gene_00783</text>
			</g>
			<g transform=" matrix(0.707107,-0.707107,0.707107,0.707107,463.56663,456.833521)">
				<text style="font-family: Helvetica; font-size: 10px;fill: rgb(0%,0%,0%); stroke:none;" transform="translate(0,0) scale(1,-1)" x="0" y="0">Gene_00784</text>
			</g>
			<g transform=" matrix(0.707107,-0.707107,0.707107,0.707107,514.766454,456.833521)">
				<text style="font-family: Helvetica; font-size: 10px;fill: rgb(0%,0%,0%); stroke:none;" transform="translate(0,0) scale(1,-1)" x="0" y="0">Gene_00785</text>
			</g>
			<g transform=" matrix(0.707107,-0.707107,0.707107,0.707107,551.198487,456.833521)">
				<text style="font-family: Helvetica; font-size: 10px;fill: rgb(0%,0%,0%); stroke:none;" transform="translate(0,0) scale(1,-1)" x="0" y="0">Gene_00786</text>
			</g>
			<g transform=" matrix(0.707107,0.707107,-0.707107,0.707107,633.739248,538.835771)">
				<text style="font-family: Helvetica; font-size: 10px;fill: rgb(0%,0%,0%); stroke:none;" transform="translate(0,0) scale(1,-1)" x="0" y="0">Gene_00787</text>
			</g>
			<g transform=" matrix(0.707107,0.707107,-0.707107,0.707107,719.890716,538.835771)">
				<text style="font-family: Helvetica; font-size: 10px;fill: rgb(0%,0%,0%); stroke:none;" transform="translate(0,0) scale(1,-1)" x="0" y="0">Gene_00788</text>
			</g>
			<g transform=" matrix(0.707107,-0.707107,0.707107,0.707107,759.680707,456.833521)">
				<text style="font-family: Helvetica; font-size: 10px;fill: rgb(0%,0%,0%); stroke:none;" transform="translate(0,0) scale(1,-1)" x="0" y="0">Gene_00789</text>
			</g>
			<g transform=" matrix(0.707107,0.707107,-0.707107,0.707107,828.789638,538.835771)">
				<text style="font-family: Helvetica; font-size: 10px;fill: rgb(0%,0%,0%); stroke:none;" transform="translate(0,0) scale(1,-1)" x="0" y="0">Gene_00790</text>
			</g>
			<g transform=" matrix(0.707107,0.707107,-0.707107,0.707107,927.686901,538.835771)">
				<text style="font-family: Helvetica; font-size: 16px;fill: rgb(0%,0%,100%); stroke:none;" transform="translate(0,0) scale(1,-1)" x="0" y="0">Gene_00791 (79.6)</text>
			</g>
			<g transform=" matrix(0.707107,0.707107,-0.707107,0.707107,1030.844798,538.835771)">
				<text style="font-family: Helvetica; font-size: 10px;fill: rgb(0%,0%,0%); stroke:none;" transform="translate(0,0) scale(1,-1)" x="0" y="0">Gene_00792</text>
			</g>
			<g transform=" matrix(0.707107,0.707107,-0.707107,0.707107,1115.190913,538.835771)">
				<text style="font-family: Helvetica; font-size: 10px;fill: rgb(0%,0%,0%); stroke:none;" transform="translate(0,0) scale(1,-1)" x="0" y="0">Gene_00793</text>
			</g>
			<g transform=" matrix(0.707107,0.707107,-0.707107,0.707107,1195.601357,538.835771)">
				<text style="font-family: Helvetica; font-size: 10px;fill: rgb(0%,0%,0%); stroke:none;" transform="translate(0,0) scale(1,-1)" x="0" y="0">Gene_00794</text>
			</g>
			<g transform=" matrix(0.707107,0.707107,-0.707107,0.707107,1240.013052,538.835771)">
				<text style="font-family: Helvetica; font-size: 10px;fill: rgb(0%,0%,0%); stroke:none;" transform="translate(0,0) scale(1,-1)" x="0" y="0">Gene_00795</text>
			</g>
			<g transform=" matrix(0.707107,0.707107,-0.707107,0.707107,1288.721489,538.835771)">
				<text style="font-family: Helvetica; font-size: 10px;fill: rgb(0%,0%,0%); stroke:none;" transform="translate(0,0) scale(1,-1)" x="0" y="0">Gene_00796</text>
			</g>
			<g transform=" matrix(1,0,-0,1,70,169.825647)">
				<text style="font-family: Helvetica; font-size: 12px;fill: rgb(60%,60%,60%); stroke:none;" transform="translate(0,0) scale(1,-1)" x="0" y="0">megahit_36680 (left 4075bp, right 3458bp)</text>
			</g>
			<g transform=" matrix(1,0,-0,1,70,456.833521)">
				<text style="font-family: Helvetica; font-size: 12px;fill: rgb(60%,60%,60%); stroke:none;" transform="translate(0,0) scale(1,-1)" x="0" y="0">megahit_9415 (left 23052bp, right 4810bp)</text>
			</g>
		</g>
	</g>
</svg>
