<?xml version="1.0" encoding="utf-8"?>
<!DOCTYPE svg
  PUBLIC '-//W3C//DTD SVG 1.0//EN'
  'http://www.w3.org/TR/2001/REC-SVG-20010904/DTD/svg10.dtd'>
<svg fill-rule="evenodd" height="708.6614173228346" preserveAspectRatio="xMinYMin meet" version="1.0" viewBox="0 0 1417 708" width="1417.3228346456692" xmlns="http://www.w3.org/2000/svg" xmlns:xlink="http://www.w3.org/1999/xlink">
	<title>...</title>
	<desc>...</desc>
	<clipPath id="clip">
		<rect height="708.6614173228346" width="1417.3228346456692" x="0" y="0"/>
	</clipPath>
	<g id="group" style="clip-path: url(#clip)" transform="scale(1,-1) translate(0,-708)">
		<g transform="">
			<polygon points="70.86614 169.8256, 1346.397 169.8256, 1346.397 251.8279, 70.86614 251.8279" style="stroke: rgb(96%,96%,96%); stroke-linecap: butt; stroke-width: 1; fill: rgb(96%,96%,96%); fill-rule: evenodd;"/>
			<polygon points="70.86614 456.8335, 1335.377 456.8335, 1335.377 538.8358, 70.86614 538.8358" style="stroke: rgb(96%,96%,96%); stroke-linecap: butt; stroke-width: 1; fill: rgb(96%,96%,96%); fill-rule: evenodd;"/>
			<polygon points="482.7276 456.8335, 719.5913 456.8335, 715.0996 251.8279, 480.2721 251.8279" style="stroke: rgb(100%,45%,45%); stroke-linecap: round; stroke-width: 1; fill: rgb(100%,45%,45%); fill-rule: evenodd;"/>
			<polygon points="721.2083 456.8335, 934.8947 456.8335, 939.7458 251.8279, 730.4912 251.8279" style="stroke: rgb(100%,56%,56%); stroke-linecap: round; stroke-width: 1; fill: rgb(100%,56%,56%); fill-rule: evenodd;"/>
			<polygon points="313.7188 456.8335, 409.0033 456.8335, 392.8331 251.8279, 297.0096 251.8279" style="stroke: rgb(100%,50%,50%); stroke-linecap: round; stroke-width: 1; fill: rgb(100%,50%,50%); fill-rule: evenodd;"/>
			<polygon points="412.3572 456.8335, 481.6495 456.8335, 476.0199 251.8279, 406.0687 251.8279" style="stroke: rgb(100%,42%,42%); stroke-linecap: round; stroke-width: 1; fill: rgb(100%,42%,42%); fill-rule: evenodd;"/>
			<polygon points="1286.627 456.8335, 1335.377 456.8335, 1149.12 251.8279, 1098.813 251.8279" style="stroke: rgb(100%,39%,39%); stroke-linecap: round; stroke-width: 1; fill: rgb(100%,39%,39%); fill-rule: evenodd;"/>
			<polygon points="278.5037 456.8335, 311.0238 456.8335, 289.5234 251.8279, 256.4643 251.8279" style="stroke: rgb(100%,33%,33%); stroke-linecap: round; stroke-width: 1; fill: rgb(100%,33%,33%); fill-rule: evenodd;"/>
			<polygon points="938.1887 456.8335, 1022.094 456.8335, 1033.653 251.8279, 947.232 251.8279" style="stroke: rgb(100%,64%,64%); stroke-linecap: round; stroke-width: 1; fill: rgb(100%,64%,64%); fill-rule: evenodd;"/>
			<polygon points="1023.951 456.8335, 1037.186 456.8335, 1065.814 251.8279, 1052.578 251.8279" style="stroke: rgb(100%,29%,29%); stroke-linecap: round; stroke-width: 1; fill: rgb(100%,29%,29%); fill-rule: evenodd;"/>
			<polygon points="70.86614 241.5776, 106.8692 241.5776, 106.8692 251.8279, 123.2696 231.3273, 106.8692 210.8268, 106.8692 221.0771, 70.86614 221.0771" style="stroke: rgb(67%,84%,90%); stroke-linecap: round; stroke-width: 1; fill: rgb(67%,84%,90%); fill-rule: evenodd;"/>
			<polygon points="123.9883 241.5776, 162.5067 241.5776, 162.5067 251.8279, 178.9071 231.3273, 162.5067 210.8268, 162.5067 221.0771, 123.9883 221.0771" style="stroke: rgb(67%,84%,90%); stroke-linecap: round; stroke-width: 1; fill: rgb(67%,84%,90%); fill-rule: evenodd;"/>
			<polygon points="180.5841 241.5776, 234.3743 241.5776, 234.3743 251.8279, 250.7748 231.3273, 234.3743 210.8268, 234.3743 221.0771, 180.5841 221.0771" style="stroke: rgb(67%,84%,90%); stroke-linecap: round; stroke-width: 1; fill: rgb(67%,84%,90%); fill-rule: evenodd;"/>
			<polygon points="265.7472 241.5776, 272.8235 241.5776, 272.8235 251.8279, 289.224 231.3273, 272.8235 210.8268, 272.8235 221.0771, 265.7472 221.0771" style="stroke: rgb(67%,84%,90%); stroke-linecap: round; stroke-width: 1; fill: rgb(67%,84%,90%); fill-rule: evenodd;"/>
			<polygon points="297.7882 241.5776, 319.4177 241.5776, 319.4177 251.8279, 335.8181 231.3273, 319.4177 210.8268, 319.4177 221.0771, 297.7882 221.0771" style="stroke: rgb(67%,84%,90%); stroke-linecap: round; stroke-width: 1; fill: rgb(67%,84%,90%); fill-rule: evenodd;"/>
			<polygon points="337.6747 241.5776, 358.4059 241.5776, 358.4059 251.8279, 374.8063 231.3273, 358.4059 210.8268, 358.4059 221.0771, 337.6747 221.0771" style="stroke: rgb(67%,84%,90%); stroke-linecap: round; stroke-width: 1; fill: rgb(67%,84%,90%); fill-rule: evenodd;"/>
			<polygon points="374.8063 241.5776, 376.3129 241.5776, 376.3129 251.8279, 392.7133 231.3273, 376.3129 210.8268, 376.3129 221.0771, 374.8063 221.0771" style="stroke: rgb(67%,84%,90%); stroke-linecap: round; stroke-width: 1; fill: rgb(67%,84%,90%); fill-rule: evenodd;"/>
			<polygon points="407.0869 241.5776, 441.2932 241.5776, 441.2932 251.8279, 457.6937 231.3273, 441.2932 210.8268, 441.2932 221.0771, 407.0869 221.0771" style="stroke: rgb(67%,84%,90%); stroke-linecap: round; stroke-width: 1; fill: rgb(67%,84%,90%); fill-rule: evenodd;"/>
			<polygon points="459.2508 241.5776, 459.6793 241.5776, 459.6793 251.8279, 476.0798 231.3273, 459.6793 210.8268, 459.6793 221.0771, 459.2508 221.0771" style="stroke: rgb(67%,84%,90%); stroke-linecap: round; stroke-width: 1; fill: rgb(67%,84%,90%); fill-rule: evenodd;"/>
			<polygon points="481.2902 241.5776, 488.0072 241.5776, 488.0072 251.8279, 504.4076 231.3273, 488.0072 210.8268, 488.0072 221.0771, 481.2902 221.0771" style="stroke: rgb(67%,84%,90%); stroke-linecap: round; stroke-width: 1; fill: rgb(67%,84%,90%); fill-rule: evenodd;"/>
			<polygon points="505.1263 241.5776, 527.6541 241.5776, 527.6541 251.8279, 544.0546 231.3273, 527.6541 210.8268, 527.6541 221.0771, 505.1263 221.0771" style="stroke: rgb(67%,84%,90%); stroke-linecap: round; stroke-width: 1; fill: rgb(67%,84%,90%); fill-rule: evenodd;"/>
			<polygon points="544.0546 241.5776, 553.8259 241.5776, 553.8259 251.8279, 570.2264 231.3273, 553.8259 210.8268, 553.8259 221.0771, 544.0546 221.0771" style="stroke: rgb(67%,84%,90%); stroke-linecap: round; stroke-width: 1; fill: rgb(67%,84%,90%); fill-rule: evenodd;"/>
			<polygon points="569.6275 241.5776, 569.6275 251.8279, 581.7851 231.3273, 569.6275 210.8268, 569.6275 221.0771" style="stroke: rgb(67%,84%,90%); stroke-linecap: round; stroke-width: 1; fill: rgb(67%,84%,90%); fill-rule: evenodd;"/>
			<polygon points="584.2406 241.5776, 584.2406 251.8279, 599.4526 231.3273, 584.2406 210.8268, 584.2406 221.0771" style="stroke: rgb(67%,84%,90%); stroke-linecap: round; stroke-width: 1; fill: rgb(67%,84%,90%); fill-rule: evenodd;"/>
			<polygon points="600.5905 241.5776, 606.2294 241.5776, 606.2294 251.8279, 622.6299 231.3273, 606.2294 210.8268, 606.2294 221.0771, 600.5905 221.0771" style="stroke: rgb(67%,84%,90%); stroke-linecap: round; stroke-width: 1; fill: rgb(67%,84%,90%); fill-rule: evenodd;"/>
			<polygon points="623.5282 241.5776, 625.0348 241.5776, 625.0348 251.8279, 641.4352 231.3273, 625.0348 210.8268, 625.0348 221.0771, 623.5282 221.0771" style="stroke: rgb(67%,84%,90%); stroke-linecap: round; stroke-width: 1; fill: rgb(67%,84%,90%); fill-rule: evenodd;"/>
			<polygon points="642.8127 241.5776, 658.6928 241.5776, 658.6928 251.8279, 675.0932 231.3273, 658.6928 210.8268, 658.6928 221.0771, 642.8127 221.0771" style="stroke: rgb(67%,84%,90%); stroke-linecap: round; stroke-width: 1; fill: rgb(67%,84%,90%); fill-rule: evenodd;"/>
			<polygon points="676.1713 241.5776, 676.1713 251.8279, 687.2509 231.3273, 676.1713 210.8268, 676.1713 221.0771" style="stroke: rgb(67%,84%,90%); stroke-linecap: round; stroke-width: 1; fill: rgb(67%,84%,90%); fill-rule: evenodd;"/>
			<polygon points="690.964 241.5776, 698.5793 241.5776, 698.5793 251.8279, 714.9798 231.3273, 698.5793 210.8268, 698.5793 221.0771, 690.964 221.0771" style="stroke: rgb(67%,84%,90%); stroke-linecap: round; stroke-width: 1; fill: rgb(67%,84%,90%); fill-rule: evenodd;"/>
			<polygon points="734.0247 241.5776, 749.9048 241.5776, 749.9048 251.8279, 766.3052 231.3273, 749.9048 210.8268, 749.9048 221.0771, 734.0247 221.0771" style="stroke: rgb(67%,84%,90%); stroke-linecap: round; stroke-width: 1; fill: rgb(67%,84%,90%); fill-rule: evenodd;"/>
			<polygon points="767.3833 241.5776, 773.0222 241.5776, 773.0222 251.8279, 789.4227 231.3273, 773.0222 210.8268, 773.0222 221.0771, 767.3833 221.0771" style="stroke: rgb(67%,84%,90%); stroke-linecap: round; stroke-width: 1; fill: rgb(67%,84%,90%); fill-rule: evenodd;"/>
			<polygon points="790.5606 241.5776, 804.644 241.5776, 804.644 251.8279, 821.0444 231.3273, 804.644 210.8268, 804.644 221.0771, 790.5606 221.0771" style="stroke: rgb(67%,84%,90%); stroke-linecap: round; stroke-width: 1; fill: rgb(67%,84%,90%); fill-rule: evenodd;"/>
			<polygon points="821.823 241.5776, 821.823 251.8279, 832.7229 231.3273, 821.823 210.8268, 821.823 221.0771" style="stroke: rgb(67%,84%,90%); stroke-linecap: round; stroke-width: 1; fill: rgb(67%,84%,90%); fill-rule: evenodd;"/>
			<polygon points="834.3998 241.5776, 844.3508 241.5776, 844.3508 251.8279, 860.7513 231.3273, 844.3508 210.8268, 844.3508 221.0771, 834.3998 221.0771" style="stroke: rgb(67%,84%,90%); stroke-linecap: round; stroke-width: 1; fill: rgb(67%,84%,90%); fill-rule: evenodd;"/>
			<polygon points="860.8711 241.5776, 923.2855 241.5776, 923.2855 251.8279, 939.6859 231.3273, 923.2855 210.8268, 923.2855 221.0771, 860.8711 221.0771" style="stroke: rgb(67%,84%,90%); stroke-linecap: round; stroke-width: 1; fill: rgb(67%,84%,90%); fill-rule: evenodd;"/>
			<polygon points="947.2919 241.5776, 969.2807 241.5776, 969.2807 251.8279, 985.6812 231.3273, 969.2807 210.8268, 969.2807 221.0771, 947.2919 221.0771" style="stroke: rgb(67%,84%,90%); stroke-linecap: round; stroke-width: 1; fill: rgb(67%,84%,90%); fill-rule: evenodd;"/>
			<polygon points="988.6757 241.5776, 1017.492 241.5776, 1017.492 251.8279, 1033.892 231.3273, 1017.492 210.8268, 1017.492 221.0771, 988.6757 221.0771" style="stroke: rgb(67%,84%,90%); stroke-linecap: round; stroke-width: 1; fill: rgb(67%,84%,90%); fill-rule: evenodd;"/>
			<polygon points="1035.33 241.5776, 1035.33 251.8279, 1051.62 231.3273, 1035.33 210.8268, 1035.33 221.0771" style="stroke: rgb(67%,84%,90%); stroke-linecap: round; stroke-width: 1; fill: rgb(67%,84%,90%); fill-rule: evenodd;"/>
			<polygon points="1052.758 241.5776, 1052.758 251.8279, 1065.814 231.3273, 1052.758 210.8268, 1052.758 221.0771" style="stroke: rgb(67%,84%,90%); stroke-linecap: round; stroke-width: 1; fill: rgb(67%,84%,90%); fill-rule: evenodd;"/>
			<polygon points="1100.13 241.5776, 1100.739 241.5776, 1100.739 251.8279, 1117.139 231.3273, 1100.739 210.8268, 1100.739 221.0771, 1100.13 221.0771" style="stroke: rgb(67%,84%,90%); stroke-linecap: round; stroke-width: 1; fill: rgb(67%,84%,90%); fill-rule: evenodd;"/>
			<polygon points="1116.959 241.5776, 1116.959 251.8279, 1124.985 231.3273, 1116.959 210.8268, 1116.959 221.0771" style="stroke: rgb(67%,84%,90%); stroke-linecap: round; stroke-width: 1; fill: rgb(67%,84%,90%); fill-rule: evenodd;"/>
			<polygon points="1125.464 241.5776, 1132.72 241.5776, 1132.72 251.8279, 1149.12 231.3273, 1132.72 210.8268, 1132.72 221.0771, 1125.464 221.0771" style="stroke: rgb(67%,84%,90%); stroke-linecap: round; stroke-width: 1; fill: rgb(67%,84%,90%); fill-rule: evenodd;"/>
			<polygon points="1150.258 241.5776, 1169.372 241.5776, 1169.372 251.8279, 1185.773 231.3273, 1169.372 210.8268, 1169.372 221.0771, 1150.258 221.0771" style="stroke: rgb(67%,84%,90%); stroke-linecap: round; stroke-width: 1; fill: rgb(67%,84%,90%); fill-rule: evenodd;"/>
			<polygon points="1189.186 241.5776, 1230.22 241.5776, 1230.22 251.8279, 1246.621 231.3273, 1230.22 210.8268, 1230.22 221.0771, 1189.186 221.0771" style="stroke: rgb(67%,84%,90%); stroke-linecap: round; stroke-width: 1; fill: rgb(67%,84%,90%); fill-rule: evenodd;"/>
			<polygon points="1251.891 241.5776, 1267.591 241.5776, 1267.591 251.8279, 1283.992 231.3273, 1267.591 210.8268, 1267.591 221.0771, 1251.891 221.0771" style="stroke: rgb(67%,84%,90%); stroke-linecap: round; stroke-width: 1; fill: rgb(67%,84%,90%); fill-rule: evenodd;"/>
			<polygon points="1295.61 241.5776, 1329.996 241.5776, 1329.996 251.8279, 1346.397 231.3273, 1329.996 210.8268, 1329.996 221.0771, 1295.61 221.0771" style="stroke: rgb(67%,84%,90%); stroke-linecap: round; stroke-width: 1; fill: rgb(67%,84%,90%); fill-rule: evenodd;"/>
			<polygon points="70.86614 528.5855, 112.0796 528.5855, 112.0796 538.8358, 128.48 518.3352, 112.0796 497.8346, 112.0796 508.0849, 70.86614 508.0849" style="stroke: rgb(67%,84%,90%); stroke-linecap: round; stroke-width: 1; fill: rgb(67%,84%,90%); fill-rule: evenodd;"/>
			<polygon points="128.3004 528.5855, 128.3004 538.8358, 143.5123 518.3352, 128.3004 497.8346, 128.3004 508.0849" style="stroke: rgb(67%,84%,90%); stroke-linecap: round; stroke-width: 1; fill: rgb(67%,84%,90%); fill-rule: evenodd;"/>
			<polygon points="192.8016 487.5844, 164.3446 487.5844, 164.3446 497.8346, 147.9442 477.3341, 164.3446 456.8335, 164.3446 467.0838, 192.8016 467.0838" style="stroke: rgb(56%,93%,56%); stroke-linecap: round; stroke-width: 1; fill: rgb(56%,93%,56%); fill-rule: evenodd;"/>
			<polygon points="203.0427 528.5855, 249.2869 528.5855, 249.2869 538.8358, 265.6873 518.3352, 249.2869 497.8346, 249.2869 508.0849, 203.0427 508.0849" style="stroke: rgb(67%,84%,90%); stroke-linecap: round; stroke-width: 1; fill: rgb(67%,84%,90%); fill-rule: evenodd;"/>
			<polygon points="270.5983 528.5855, 270.5983 538.8358, 283.6542 518.3352, 270.5983 497.8346, 270.5983 508.0849" style="stroke: rgb(67%,84%,90%); stroke-linecap: round; stroke-width: 1; fill: rgb(67%,84%,90%); fill-rule: evenodd;"/>
			<polygon points="291.9789 528.5855, 294.7431 528.5855, 294.7431 538.8358, 311.1436 518.3352, 294.7431 497.8346, 294.7431 508.0849, 291.9789 508.0849" style="stroke: rgb(67%,84%,90%); stroke-linecap: round; stroke-width: 1; fill: rgb(67%,84%,90%); fill-rule: evenodd;"/>
			<polygon points="314.5573 528.5855, 336.0071 528.5855, 336.0071 538.8358, 352.4076 518.3352, 336.0071 497.8346, 336.0071 508.0849, 314.5573 508.0849" style="stroke: rgb(67%,84%,90%); stroke-linecap: round; stroke-width: 1; fill: rgb(67%,84%,90%); fill-rule: evenodd;"/>
			<polygon points="353.8449 528.5855, 374.5761 528.5855, 374.5761 538.8358, 390.9765 518.3352, 374.5761 497.8346, 374.5761 508.0849, 353.8449 508.0849" style="stroke: rgb(67%,84%,90%); stroke-linecap: round; stroke-width: 1; fill: rgb(67%,84%,90%); fill-rule: evenodd;"/>
			<polygon points="390.9765 528.5855, 392.4831 528.5855, 392.4831 538.8358, 408.8836 518.3352, 392.4831 497.8346, 392.4831 508.0849, 390.9765 508.0849" style="stroke: rgb(67%,84%,90%); stroke-linecap: round; stroke-width: 1; fill: rgb(67%,84%,90%); fill-rule: evenodd;"/>
			<polygon points="413.3753 528.5855, 447.5816 528.5855, 447.5816 538.8358, 463.9821 518.3352, 447.5816 497.8346, 447.5816 508.0849, 413.3753 508.0849" style="stroke: rgb(67%,84%,90%); stroke-linecap: round; stroke-width: 1; fill: rgb(67%,84%,90%); fill-rule: evenodd;"/>
			<polygon points="464.8804 528.5855, 465.309 528.5855, 465.309 538.8358, 481.7094 518.3352, 465.309 497.8346, 465.309 508.0849, 464.8804 508.0849" style="stroke: rgb(67%,84%,90%); stroke-linecap: round; stroke-width: 1; fill: rgb(67%,84%,90%); fill-rule: evenodd;"/>
			<polygon points="483.8056 528.5855, 490.7022 528.5855, 490.7022 538.8358, 507.1027 518.3352, 490.7022 497.8346, 490.7022 508.0849, 483.8056 508.0849" style="stroke: rgb(67%,84%,90%); stroke-linecap: round; stroke-width: 1; fill: rgb(67%,84%,90%); fill-rule: evenodd;"/>
			<polygon points="507.8213 528.5855, 530.7085 528.5855, 530.7085 538.8358, 547.109 518.3352, 530.7085 497.8346, 530.7085 508.0849, 507.8213 508.0849" style="stroke: rgb(67%,84%,90%); stroke-linecap: round; stroke-width: 1; fill: rgb(67%,84%,90%); fill-rule: evenodd;"/>
			<polygon points="547.109 528.5855, 556.8803 528.5855, 556.8803 538.8358, 573.2808 518.3352, 556.8803 497.8346, 556.8803 508.0849, 547.109 508.0849" style="stroke: rgb(67%,84%,90%); stroke-linecap: round; stroke-width: 1; fill: rgb(67%,84%,90%); fill-rule: evenodd;"/>
			<polygon points="572.6819 528.5855, 572.6819 538.8358, 585.0191 518.3352, 572.6819 497.8346, 572.6819 508.0849" style="stroke: rgb(67%,84%,90%); stroke-linecap: round; stroke-width: 1; fill: rgb(67%,84%,90%); fill-rule: evenodd;"/>
			<polygon points="585.1988 528.5855, 585.1988 538.8358, 600.4108 518.3352, 585.1988 497.8346, 585.1988 508.0849" style="stroke: rgb(67%,84%,90%); stroke-linecap: round; stroke-width: 1; fill: rgb(67%,84%,90%); fill-rule: evenodd;"/>
			<polygon points="602.6866 528.5855, 608.3256 528.5855, 608.3256 538.8358, 624.726 518.3352, 608.3256 497.8346, 608.3256 508.0849, 602.6866 508.0849" style="stroke: rgb(67%,84%,90%); stroke-linecap: round; stroke-width: 1; fill: rgb(67%,84%,90%); fill-rule: evenodd;"/>
			<polygon points="625.3848 528.5855, 627.61 528.5855, 627.61 538.8358, 644.0105 518.3352, 627.61 497.8346, 627.61 508.0849, 625.3848 508.0849" style="stroke: rgb(67%,84%,90%); stroke-linecap: round; stroke-width: 1; fill: rgb(67%,84%,90%); fill-rule: evenodd;"/>
			<polygon points="645.388 528.5855, 661.2681 528.5855, 661.2681 538.8358, 677.6685 518.3352, 661.2681 497.8346, 661.2681 508.0849, 645.388 508.0849" style="stroke: rgb(67%,84%,90%); stroke-linecap: round; stroke-width: 1; fill: rgb(67%,84%,90%); fill-rule: evenodd;"/>
			<polygon points="678.9262 528.5855, 678.9262 538.8358, 690.0058 518.3352, 678.9262 497.8346, 678.9262 508.0849" style="stroke: rgb(67%,84%,90%); stroke-linecap: round; stroke-width: 1; fill: rgb(67%,84%,90%); fill-rule: evenodd;"/>
			<polygon points="695.4557 528.5855, 703.0711 528.5855, 703.0711 538.8358, 719.4715 518.3352, 703.0711 497.8346, 703.0711 508.0849, 695.4557 508.0849" style="stroke: rgb(67%,84%,90%); stroke-linecap: round; stroke-width: 1; fill: rgb(67%,84%,90%); fill-rule: evenodd;"/>
			<polygon points="724.7418 528.5855, 740.6219 528.5855, 740.6219 538.8358, 757.0223 518.3352, 740.6219 497.8346, 740.6219 508.0849, 724.7418 508.0849" style="stroke: rgb(67%,84%,90%); stroke-linecap: round; stroke-width: 1; fill: rgb(67%,84%,90%); fill-rule: evenodd;"/>
			<polygon points="758.1004 528.5855, 763.7393 528.5855, 763.7393 538.8358, 780.1398 518.3352, 763.7393 497.8346, 763.7393 508.0849, 758.1004 508.0849" style="stroke: rgb(67%,84%,90%); stroke-linecap: round; stroke-width: 1; fill: rgb(67%,84%,90%); fill-rule: evenodd;"/>
			<polygon points="781.3376 528.5855, 795.421 528.5855, 795.421 538.8358, 811.8214 518.3352, 795.421 497.8346, 795.421 508.0849, 781.3376 508.0849" style="stroke: rgb(67%,84%,90%); stroke-linecap: round; stroke-width: 1; fill: rgb(67%,84%,90%); fill-rule: evenodd;"/>
			<polygon points="812.6599 528.5855, 812.6599 538.8358, 823.5598 518.3352, 812.6599 497.8346, 812.6599 508.0849" style="stroke: rgb(67%,84%,90%); stroke-linecap: round; stroke-width: 1; fill: rgb(67%,84%,90%); fill-rule: evenodd;"/>
			<polygon points="826.2548 528.5855, 837.8229 528.5855, 837.8229 538.8358, 854.2233 518.3352, 837.8229 497.8346, 837.8229 508.0849, 826.2548 508.0849" style="stroke: rgb(67%,84%,90%); stroke-linecap: round; stroke-width: 1; fill: rgb(67%,84%,90%); fill-rule: evenodd;"/>
			<polygon points="854.2233 528.5855, 918.4344 528.5855, 918.4344 538.8358, 934.8348 518.3352, 918.4344 497.8346, 918.4344 508.0849, 854.2233 508.0849" style="stroke: rgb(67%,84%,90%); stroke-linecap: round; stroke-width: 1; fill: rgb(67%,84%,90%); fill-rule: evenodd;"/>
			<polygon points="938.2486 528.5855, 960.4171 528.5855, 960.4171 538.8358, 976.8175 518.3352, 960.4171 497.8346, 960.4171 508.0849, 938.2486 508.0849" style="stroke: rgb(67%,84%,90%); stroke-linecap: round; stroke-width: 1; fill: rgb(67%,84%,90%); fill-rule: evenodd;"/>
			<polygon points="977.117 528.5855, 1005.933 528.5855, 1005.933 538.8358, 1022.334 518.3352, 1005.933 497.8346, 1005.933 508.0849, 977.117 508.0849" style="stroke: rgb(67%,84%,90%); stroke-linecap: round; stroke-width: 1; fill: rgb(67%,84%,90%); fill-rule: evenodd;"/>
			<polygon points="1024.13 528.5855, 1024.13 538.8358, 1037.186 518.3352, 1024.13 497.8346, 1024.13 508.0849" style="stroke: rgb(67%,84%,90%); stroke-linecap: round; stroke-width: 1; fill: rgb(67%,84%,90%); fill-rule: evenodd;"/>
			<polygon points="1114.204 487.5844, 1060.414 487.5844, 1060.414 497.8346, 1044.014 477.3341, 1060.414 456.8335, 1060.414 467.0838, 1114.204 467.0838" style="stroke: rgb(56%,93%,56%); stroke-linecap: round; stroke-width: 1; fill: rgb(56%,93%,56%); fill-rule: evenodd;"/>
			<polygon points="1186.072 487.5844, 1131.743 487.5844, 1131.743 497.8346, 1115.342 477.3341, 1131.743 456.8335, 1131.743 467.0838, 1186.072 467.0838" style="stroke: rgb(56%,93%,56%); stroke-linecap: round; stroke-width: 1; fill: rgb(56%,93%,56%); fill-rule: evenodd;"/>
			<polygon points="1193.498 528.5855, 1237.587 528.5855, 1237.587 538.8358, 1253.987 518.3352, 1237.587 497.8346, 1237.587 508.0849, 1193.498 508.0849" style="stroke: rgb(67%,84%,90%); stroke-linecap: round; stroke-width: 1; fill: rgb(67%,84%,90%); fill-rule: evenodd;"/>
			<polygon points="1287.885 528.5855, 1293.524 528.5855, 1293.524 538.8358, 1309.924 518.3352, 1293.524 497.8346, 1293.524 508.0849, 1287.885 508.0849" style="stroke: rgb(67%,84%,90%); stroke-linecap: round; stroke-width: 1; fill: rgb(67%,84%,90%); fill-rule: evenodd;"/>
			<polygon points="1311.9 528.5855, 1318.977 528.5855, 1318.977 538.8358, 1335.377 518.3352, 1318.977 497.8346, 1318.977 508.0849, 1311.9 508.0849" style="stroke: rgb(67%,84%,90%); stroke-linecap: round; stroke-width: 1; fill: rgb(67%,84%,90%); fill-rule: evenodd;"/>
			<path d="M 1346.396803,169.825647 L 1346.396803,251.827897 Z" style="stroke: rgb(0%,0%,0%); stroke-linecap: butt; stroke-width: 1;"/>
			<path d="M 70.866142,210.826772 L 1346.396803,210.826772 Z" style="stroke: rgb(0%,0%,0%); stroke-linecap: butt; stroke-width: 1;"/>
			<path d="M 70.866142,169.825647 L 70.866142,251.827897 Z" style="stroke: rgb(0%,0%,0%); stroke-linecap: butt; stroke-width: 1;"/>
			<path d="M 669.763062,210.826772 L 669.763062,231.327334 Z" style="stroke: rgb(0%,0%,0%); stroke-linecap: butt; stroke-width: 1;"/>
			<path d="M 1268.659983,210.826772 L 1268.659983,231.327334 Z" style="stroke: rgb(0%,0%,0%); stroke-linecap: butt; stroke-width: 1;"/>
			<path d="M 669.763062,210.826772 L 669.763062,223.127109 Z" style="stroke: rgb(0%,0%,0%); stroke-linecap: butt; stroke-width: 1;"/>
			<path d="M 1268.659983,210.826772 L 1268.659983,223.127109 Z" style="stroke: rgb(0%,0%,0%); stroke-linecap: butt; stroke-width: 1;"/>
			<path d="M 1335.3771,456.833521 L 1335.3771,538.835771 Z" style="stroke: rgb(0%,0%,0%); stroke-linecap: butt; stroke-width: 1;"/>
			<path d="M 70.866142,497.834646 L 1335.3771,497.834646 Z" style="stroke: rgb(0%,0%,0%); stroke-linecap: butt; stroke-width: 1;"/>
			<path d="M 70.866142,456.833521 L 70.866142,538.835771 Z" style="stroke: rgb(0%,0%,0%); stroke-linecap: butt; stroke-width: 1;"/>
			<path d="M 669.763062,497.834646 L 669.763062,518.335208 Z" style="stroke: rgb(0%,0%,0%); stroke-linecap: butt; stroke-width: 1;"/>
			<path d="M 1268.659983,497.834646 L 1268.659983,518.335208 Z" style="stroke: rgb(0%,0%,0%); stroke-linecap: butt; stroke-width: 1;"/>
			<path d="M 669.763062,497.834646 L 669.763062,510.134983 Z" style="stroke: rgb(0%,0%,0%); stroke-linecap: butt; stroke-width: 1;"/>
			<path d="M 1268.659983,497.834646 L 1268.659983,510.134983 Z" style="stroke: rgb(0%,0%,0%); stroke-linecap: butt; stroke-width: 1;"/>
			<g transform=" matrix(0.707107,0.707107,-0.707107,0.707107,669.763062,231.327334)">
				<text style="font-family: Helvetica; font-size: 6px;fill: rgb(0%,0%,0%); stroke:none;" transform="translate(0,0) scale(1,-1)" x="0" y="0">10000</text>
			</g>
			<g transform=" matrix(0.707107,0.707107,-0.707107,0.707107,1268.659983,231.327334)">
				<text style="font-family: Helvetica; font-size: 6px;fill: rgb(0%,0%,0%); stroke:none;" transform="translate(0,0) scale(1,-1)" x="0" y="0">20000</text>
			</g>
			<g transform=" matrix(0.707107,0.707107,-0.707107,0.707107,669.763062,518.335208)">
				<text style="font-family: Helvetica; font-size: 6px;fill: rgb(0%,0%,0%); stroke:none;" transform="translate(0,0) scale(1,-1)" x="0" y="0">10000</text>
			</g>
			<g transform=" matrix(0.707107,0.707107,-0.707107,0.707107,1268.659983,518.335208)">
				<text style="font-family: Helvetica; font-size: 6px;fill: rgb(0%,0%,0%); stroke:none;" transform="translate(0,0) scale(1,-1)" x="0" y="0">20000</text>
			</g>
			<g transform=" matrix(0.707107,0.707107,-0.707107,0.707107,97.067882,251.827897)">
				<text style="font-family: Helvetica; font-size: 10px;fill: rgb(0%,0%,0%); stroke:none;" transform="translate(0,0) scale(1,-1)" x="0" y="0">Gene_00027</text>
			</g>
			<g transform=" matrix(0.707107,0.707107,-0.707107,0.707107,151.447722,251.827897)">
				<text style="font-family: Helvetica; font-size: 10px;fill: rgb(0%,0%,0%); stroke:none;" transform="translate(0,0) scale(1,-1)" x="0" y="0">Gene_00028</text>
			</g>
			<g transform=" matrix(0.707107,0.707107,-0.707107,0.707107,215.679417,251.827897)">
				<text style="font-family: Helvetica; font-size: 10px;fill: rgb(0%,0%,0%); stroke:none;" transform="translate(0,0) scale(1,-1)" x="0" y="0">Gene_00029</text>
			</g>
			<g transform=" matrix(0.707107,0.707107,-0.707107,0.707107,277.485579,251.827897)">
				<text style="font-family: Helvetica; font-size: 10px;fill: rgb(0%,0%,0%); stroke:none;" transform="translate(0,0) scale(1,-1)" x="0" y="0">Gene_00030</text>
			</g>
			<g transform=" matrix(0.707107,0.707107,-0.707107,0.707107,316.803162,251.827897)">
				<text style="font-family: Helvetica; font-size: 10px;fill: rgb(0%,0%,0%); stroke:none;" transform="translate(0,0) scale(1,-1)" x="0" y="0">Gene_00031</text>
			</g>
			<g transform=" matrix(0.707107,0.707107,-0.707107,0.707107,356.240524,251.827897)">
				<text style="font-family: Helvetica; font-size: 10px;fill: rgb(0%,0%,0%); stroke:none;" transform="translate(0,0) scale(1,-1)" x="0" y="0">Gene_00032</text>
			</g>
			<g transform=" matrix(0.707107,0.707107,-0.707107,0.707107,383.759838,251.827897)">
				<text style="font-family: Helvetica; font-size: 10px;fill: rgb(0%,0%,0%); stroke:none;" transform="translate(0,0) scale(1,-1)" x="0" y="0">Gene_00033</text>
			</g>
			<g transform=" matrix(0.707107,0.707107,-0.707107,0.707107,432.390268,251.827897)">
				<text style="font-family: Helvetica; font-size: 10px;fill: rgb(0%,0%,0%); stroke:none;" transform="translate(0,0) scale(1,-1)" x="0" y="0">Gene_00034</text>
			</g>
			<g transform=" matrix(0.707107,0.707107,-0.707107,0.707107,467.665296,251.827897)">
				<text style="font-family: Helvetica; font-size: 10px;fill: rgb(0%,0%,0%); stroke:none;" transform="translate(0,0) scale(1,-1)" x="0" y="0">Gene_00035</text>
			</g>
			<g transform=" matrix(0.707107,0.707107,-0.707107,0.707107,492.848912,251.827897)">
				<text style="font-family: Helvetica; font-size: 10px;fill: rgb(0%,0%,0%); stroke:none;" transform="translate(0,0) scale(1,-1)" x="0" y="0">Gene_00036</text>
			</g>
			<g transform=" matrix(0.707107,0.707107,-0.707107,0.707107,524.590449,251.827897)">
				<text style="font-family: Helvetica; font-size: 10px;fill: rgb(0%,0%,0%); stroke:none;" transform="translate(0,0) scale(1,-1)" x="0" y="0">Gene_00037</text>
			</g>
			<g transform=" matrix(0.707107,0.707107,-0.707107,0.707107,557.140496,251.827897)">
				<text style="font-family: Helvetica; font-size: 10px;fill: rgb(0%,0%,0%); stroke:none;" transform="translate(0,0) scale(1,-1)" x="0" y="0">Gene_00038</text>
			</g>
			<g transform=" matrix(0.707107,0.707107,-0.707107,0.707107,575.706301,251.827897)">
				<text style="font-family: Helvetica; font-size: 10px;fill: rgb(0%,0%,0%); stroke:none;" transform="translate(0,0) scale(1,-1)" x="0" y="0">Gene_00039</text>
			</g>
			<g transform=" matrix(0.707107,0.707107,-0.707107,0.707107,591.846573,251.827897)">
				<text style="font-family: Helvetica; font-size: 10px;fill: rgb(0%,0%,0%); stroke:none;" transform="translate(0,0) scale(1,-1)" x="0" y="0">Gene_00040</text>
			</g>
			<g transform=" matrix(0.707107,0.707107,-0.707107,0.707107,611.610171,251.827897)">
				<text style="font-family: Helvetica; font-size: 10px;fill: rgb(0%,0%,0%); stroke:none;" transform="translate(0,0) scale(1,-1)" x="0" y="0">Gene_00041</text>
			</g>
			<g transform=" matrix(0.707107,0.707107,-0.707107,0.707107,632.481729,251.827897)">
				<text style="font-family: Helvetica; font-size: 10px;fill: rgb(0%,0%,0%); stroke:none;" transform="translate(0,0) scale(1,-1)" x="0" y="0">Gene_00042</text>
			</g>
			<g transform=" matrix(0.707107,0.707107,-0.707107,0.707107,658.952973,251.827897)">
				<text style="font-family: Helvetica; font-size: 10px;fill: rgb(0%,0%,0%); stroke:none;" transform="translate(0,0) scale(1,-1)" x="0" y="0">Gene_00043</text>
			</g>
			<g transform=" matrix(0.707107,0.707107,-0.707107,0.707107,681.711056,251.827897)">
				<text style="font-family: Helvetica; font-size: 10px;fill: rgb(0%,0%,0%); stroke:none;" transform="translate(0,0) scale(1,-1)" x="0" y="0">Gene_00044</text>
			</g>
			<g transform=" matrix(0.707107,0.707107,-0.707107,0.707107,702.971897,251.827897)">
				<text style="font-family: Helvetica; font-size: 16px;fill: rgb(0%,0%,100%); stroke:none;" transform="translate(0,0) scale(1,-1)" x="0" y="0">Gene_00045 (82.3)</text>
			</g>
			<g transform=" matrix(0.707107,0.707107,-0.707107,0.707107,750.164974,251.827897)">
				<text style="font-family: Helvetica; font-size: 10px;fill: rgb(0%,0%,0%); stroke:none;" transform="translate(0,0) scale(1,-1)" x="0" y="0">Gene_00046</text>
			</g>
			<g transform=" matrix(0.707107,0.707107,-0.707107,0.707107,778.402964,251.827897)">
				<text style="font-family: Helvetica; font-size: 10px;fill: rgb(0%,0%,0%); stroke:none;" transform="translate(0,0) scale(1,-1)" x="0" y="0">Gene_00047</text>
			</g>
			<g transform=" matrix(0.707107,0.707107,-0.707107,0.707107,805.802498,251.827897)">
				<text style="font-family: Helvetica; font-size: 10px;fill: rgb(0%,0%,0%); stroke:none;" transform="translate(0,0) scale(1,-1)" x="0" y="0">Gene_00048</text>
			</g>
			<g transform=" matrix(0.707107,0.707107,-0.707107,0.707107,827.272952,251.827897)">
				<text style="font-family: Helvetica; font-size: 10px;fill: rgb(0%,0%,0%); stroke:none;" transform="translate(0,0) scale(1,-1)" x="0" y="0">Gene_00049</text>
			</g>
			<g transform=" matrix(0.707107,0.707107,-0.707107,0.707107,847.575558,251.827897)">
				<text style="font-family: Helvetica; font-size: 10px;fill: rgb(0%,0%,0%); stroke:none;" transform="translate(0,0) scale(1,-1)" x="0" y="0">Gene_00050</text>
			</g>
			<g transform=" matrix(0.707107,0.707107,-0.707107,0.707107,900.278487,251.827897)">
				<text style="font-family: Helvetica; font-size: 10px;fill: rgb(0%,0%,0%); stroke:none;" transform="translate(0,0) scale(1,-1)" x="0" y="0">Gene_00051</text>
			</g>
			<g transform=" matrix(0.707107,0.707107,-0.707107,0.707107,966.486542,251.827897)">
				<text style="font-family: Helvetica; font-size: 10px;fill: rgb(0%,0%,0%); stroke:none;" transform="translate(0,0) scale(1,-1)" x="0" y="0">Gene_00052</text>
			</g>
			<g transform=" matrix(0.707107,0.707107,-0.707107,0.707107,1011.284031,251.827897)">
				<text style="font-family: Helvetica; font-size: 10px;fill: rgb(0%,0%,0%); stroke:none;" transform="translate(0,0) scale(1,-1)" x="0" y="0">Gene_00053</text>
			</g>
			<g transform=" matrix(0.707107,0.707107,-0.707107,0.707107,1043.474741,251.827897)">
				<text style="font-family: Helvetica; font-size: 10px;fill: rgb(0%,0%,0%); stroke:none;" transform="translate(0,0) scale(1,-1)" x="0" y="0">Gene_00054</text>
			</g>
			<g transform=" matrix(0.707107,0.707107,-0.707107,0.707107,1059.285619,251.827897)">
				<text style="font-family: Helvetica; font-size: 10px;fill: rgb(0%,0%,0%); stroke:none;" transform="translate(0,0) scale(1,-1)" x="0" y="0">Gene_00055</text>
			</g>
			<g transform=" matrix(0.707107,0.707107,-0.707107,0.707107,1108.634726,251.827897)">
				<text style="font-family: Helvetica; font-size: 10px;fill: rgb(0%,0%,0%); stroke:none;" transform="translate(0,0) scale(1,-1)" x="0" y="0">Gene_00056</text>
			</g>
			<g transform=" matrix(0.707107,0.707107,-0.707107,0.707107,1120.972002,251.827897)">
				<text style="font-family: Helvetica; font-size: 10px;fill: rgb(0%,0%,0%); stroke:none;" transform="translate(0,0) scale(1,-1)" x="0" y="0">Gene_00057</text>
			</g>
			<g transform=" matrix(0.707107,0.707107,-0.707107,0.707107,1137.291943,251.827897)">
				<text style="font-family: Helvetica; font-size: 10px;fill: rgb(0%,0%,0%); stroke:none;" transform="translate(0,0) scale(1,-1)" x="0" y="0">Gene_00058</text>
			</g>
			<g transform=" matrix(0.707107,0.707107,-0.707107,0.707107,1168.015355,251.827897)">
				<text style="font-family: Helvetica; font-size: 10px;fill: rgb(0%,0%,0%); stroke:none;" transform="translate(0,0) scale(1,-1)" x="0" y="0">Gene_00059</text>
			</g>
			<g transform=" matrix(0.707107,0.707107,-0.707107,0.707107,1217.903469,251.827897)">
				<text style="font-family: Helvetica; font-size: 10px;fill: rgb(0%,0%,0%); stroke:none;" transform="translate(0,0) scale(1,-1)" x="0" y="0">Gene_00060</text>
			</g>
			<g transform=" matrix(0.707107,0.707107,-0.707107,0.707107,1267.941307,251.827897)">
				<text style="font-family: Helvetica; font-size: 10px;fill: rgb(0%,0%,0%); stroke:none;" transform="translate(0,0) scale(1,-1)" x="0" y="0">Gene_00061</text>
			</g>
			<g transform=" matrix(0.707107,0.707107,-0.707107,0.707107,1321.003574,251.827897)">
				<text style="font-family: Helvetica; font-size: 10px;fill: rgb(0%,0%,0%); stroke:none;" transform="translate(0,0) scale(1,-1)" x="0" y="0">Gene_00062</text>
			</g>
			<g transform=" matrix(0.707107,0.707107,-0.707107,0.707107,99.673084,538.835771)">
				<text style="font-family: Helvetica; font-size: 10px;fill: rgb(0%,0%,0%); stroke:none;" transform="translate(0,0) scale(1,-1)" x="0" y="0">Gene_00071</text>
			</g>
			<g transform=" matrix(0.707107,0.707107,-0.707107,0.707107,135.906347,538.835771)">
				<text style="font-family: Helvetica; font-size: 10px;fill: rgb(0%,0%,0%); stroke:none;" transform="translate(0,0) scale(1,-1)" x="0" y="0">Gene_00072</text>
			</g>
			<g transform=" matrix(0.707107,-0.707107,0.707107,0.707107,170.372865,456.833521)">
				<text style="font-family: Helvetica; font-size: 10px;fill: rgb(0%,0%,0%); stroke:none;" transform="translate(0,0) scale(1,-1)" x="0" y="0">Gene_00073</text>
			</g>
			<g transform=" matrix(0.707107,0.707107,-0.707107,0.707107,234.365001,538.835771)">
				<text style="font-family: Helvetica; font-size: 10px;fill: rgb(0%,0%,0%); stroke:none;" transform="translate(0,0) scale(1,-1)" x="0" y="0">Gene_00074</text>
			</g>
			<g transform=" matrix(0.707107,0.707107,-0.707107,0.707107,277.126241,538.835771)">
				<text style="font-family: Helvetica; font-size: 10px;fill: rgb(0%,0%,0%); stroke:none;" transform="translate(0,0) scale(1,-1)" x="0" y="0">Gene_00075</text>
			</g>
			<g transform=" matrix(0.707107,0.707107,-0.707107,0.707107,301.561236,538.835771)">
				<text style="font-family: Helvetica; font-size: 10px;fill: rgb(0%,0%,0%); stroke:none;" transform="translate(0,0) scale(1,-1)" x="0" y="0">Gene_00076</text>
			</g>
			<g transform=" matrix(0.707107,0.707107,-0.707107,0.707107,333.482441,538.835771)">
				<text style="font-family: Helvetica; font-size: 10px;fill: rgb(0%,0%,0%); stroke:none;" transform="translate(0,0) scale(1,-1)" x="0" y="0">Gene_00077</text>
			</g>
			<g transform=" matrix(0.707107,0.707107,-0.707107,0.707107,372.410741,538.835771)">
				<text style="font-family: Helvetica; font-size: 10px;fill: rgb(0%,0%,0%); stroke:none;" transform="translate(0,0) scale(1,-1)" x="0" y="0">Gene_00078</text>
			</g>
			<g transform=" matrix(0.707107,0.707107,-0.707107,0.707107,399.930055,538.835771)">
				<text style="font-family: Helvetica; font-size: 10px;fill: rgb(0%,0%,0%); stroke:none;" transform="translate(0,0) scale(1,-1)" x="0" y="0">Gene_00079</text>
			</g>
			<g transform=" matrix(0.707107,0.707107,-0.707107,0.707107,438.678686,538.835771)">
				<text style="font-family: Helvetica; font-size: 10px;fill: rgb(0%,0%,0%); stroke:none;" transform="translate(0,0) scale(1,-1)" x="0" y="0">Gene_00080</text>
			</g>
			<g transform=" matrix(0.707107,0.707107,-0.707107,0.707107,473.294928,538.835771)">
				<text style="font-family: Helvetica; font-size: 10px;fill: rgb(0%,0%,0%); stroke:none;" transform="translate(0,0) scale(1,-1)" x="0" y="0">Gene_00081</text>
			</g>
			<g transform=" matrix(0.707107,0.707107,-0.707107,0.707107,495.454114,538.835771)">
				<text style="font-family: Helvetica; font-size: 10px;fill: rgb(0%,0%,0%); stroke:none;" transform="translate(0,0) scale(1,-1)" x="0" y="0">Gene_00082</text>
			</g>
			<g transform=" matrix(0.707107,0.707107,-0.707107,0.707107,527.465154,538.835771)">
				<text style="font-family: Helvetica; font-size: 10px;fill: rgb(0%,0%,0%); stroke:none;" transform="translate(0,0) scale(1,-1)" x="0" y="0">Gene_00083</text>
			</g>
			<g transform=" matrix(0.707107,0.707107,-0.707107,0.707107,560.194871,538.835771)">
				<text style="font-family: Helvetica; font-size: 10px;fill: rgb(0%,0%,0%); stroke:none;" transform="translate(0,0) scale(1,-1)" x="0" y="0">Gene_00084</text>
			</g>
			<g transform=" matrix(0.707107,0.707107,-0.707107,0.707107,578.85051,538.835771)">
				<text style="font-family: Helvetica; font-size: 10px;fill: rgb(0%,0%,0%); stroke:none;" transform="translate(0,0) scale(1,-1)" x="0" y="0">Gene_00085</text>
			</g>
			<g transform=" matrix(0.707107,0.707107,-0.707107,0.707107,592.804808,538.835771)">
				<text style="font-family: Helvetica; font-size: 10px;fill: rgb(0%,0%,0%); stroke:none;" transform="translate(0,0) scale(1,-1)" x="0" y="0">Gene_00086</text>
			</g>
			<g transform=" matrix(0.707107,0.707107,-0.707107,0.707107,613.706311,538.835771)">
				<text style="font-family: Helvetica; font-size: 10px;fill: rgb(0%,0%,0%); stroke:none;" transform="translate(0,0) scale(1,-1)" x="0" y="0">Gene_00087</text>
			</g>
			<g transform=" matrix(0.707107,0.707107,-0.707107,0.707107,634.697648,538.835771)">
				<text style="font-family: Helvetica; font-size: 10px;fill: rgb(0%,0%,0%); stroke:none;" transform="translate(0,0) scale(1,-1)" x="0" y="0">Gene_00088</text>
			</g>
			<g transform=" matrix(0.707107,0.707107,-0.707107,0.707107,661.52823,538.835771)">
				<text style="font-family: Helvetica; font-size: 10px;fill: rgb(0%,0%,0%); stroke:none;" transform="translate(0,0) scale(1,-1)" x="0" y="0">Gene_00089</text>
			</g>
			<g transform=" matrix(0.707107,0.707107,-0.707107,0.707107,684.465982,538.835771)">
				<text style="font-family: Helvetica; font-size: 10px;fill: rgb(0%,0%,0%); stroke:none;" transform="translate(0,0) scale(1,-1)" x="0" y="0">Gene_00090</text>
			</g>
			<g transform=" matrix(0.707107,0.707107,-0.707107,0.707107,707.463623,538.835771)">
				<text style="font-family: Helvetica; font-size: 16px;fill: rgb(0%,0%,100%); stroke:none;" transform="translate(0,0) scale(1,-1)" x="0" y="0">Gene_00091 (82.3)</text>
			</g>
			<g transform=" matrix(0.707107,0.707107,-0.707107,0.707107,740.882072,538.835771)">
				<text style="font-family: Helvetica; font-size: 10px;fill: rgb(0%,0%,0%); stroke:none;" transform="translate(0,0) scale(1,-1)" x="0" y="0">Gene_00092</text>
			</g>
			<g transform=" matrix(0.707107,0.707107,-0.707107,0.707107,769.120061,538.835771)">
				<text style="font-family: Helvetica; font-size: 10px;fill: rgb(0%,0%,0%); stroke:none;" transform="translate(0,0) scale(1,-1)" x="0" y="0">Gene_00093</text>
			</g>
			<g transform=" matrix(0.707107,0.707107,-0.707107,0.707107,796.579485,538.835771)">
				<text style="font-family: Helvetica; font-size: 10px;fill: rgb(0%,0%,0%); stroke:none;" transform="translate(0,0) scale(1,-1)" x="0" y="0">Gene_00094</text>
			</g>
			<g transform=" matrix(0.707107,0.707107,-0.707107,0.707107,818.10983,538.835771)">
				<text style="font-family: Helvetica; font-size: 10px;fill: rgb(0%,0%,0%); stroke:none;" transform="translate(0,0) scale(1,-1)" x="0" y="0">Gene_00095</text>
			</g>
			<g transform=" matrix(0.707107,0.707107,-0.707107,0.707107,840.239071,538.835771)">
				<text style="font-family: Helvetica; font-size: 10px;fill: rgb(0%,0%,0%); stroke:none;" transform="translate(0,0) scale(1,-1)" x="0" y="0">Gene_00096</text>
			</g>
			<g transform=" matrix(0.707107,0.707107,-0.707107,0.707107,894.529077,538.835771)">
				<text style="font-family: Helvetica; font-size: 10px;fill: rgb(0%,0%,0%); stroke:none;" transform="translate(0,0) scale(1,-1)" x="0" y="0">Gene_00097</text>
			</g>
			<g transform=" matrix(0.707107,0.707107,-0.707107,0.707107,957.533033,538.835771)">
				<text style="font-family: Helvetica; font-size: 10px;fill: rgb(0%,0%,0%); stroke:none;" transform="translate(0,0) scale(1,-1)" x="0" y="0">Gene_00098</text>
			</g>
			<g transform=" matrix(0.707107,0.707107,-0.707107,0.707107,999.725321,538.835771)">
				<text style="font-family: Helvetica; font-size: 10px;fill: rgb(0%,0%,0%); stroke:none;" transform="translate(0,0) scale(1,-1)" x="0" y="0">Gene_00099</text>
			</g>
			<g transform=" matrix(0.707107,0.707107,-0.707107,0.707107,1030.658347,538.835771)">
				<text style="font-family: Helvetica; font-size: 10px;fill: rgb(0%,0%,0%); stroke:none;" transform="translate(0,0) scale(1,-1)" x="0" y="0">Gene_00100</text>
			</g>
			<g transform=" matrix(0.707107,-0.707107,0.707107,0.707107,1079.109108,456.833521)">
				<text style="font-family: Helvetica; font-size: 10px;fill: rgb(0%,0%,0%); stroke:none;" transform="translate(0,0) scale(1,-1)" x="0" y="0">Gene_00101</text>
			</g>
			<g transform=" matrix(0.707107,-0.707107,0.707107,0.707107,1150.707234,456.833521)">
				<text style="font-family: Helvetica; font-size: 10px;fill: rgb(0%,0%,0%); stroke:none;" transform="translate(0,0) scale(1,-1)" x="0" y="0">Gene_00102</text>
			</g>
			<g transform=" matrix(0.707107,0.707107,-0.707107,0.707107,1223.742714,538.835771)">
				<text style="font-family: Helvetica; font-size: 10px;fill: rgb(0%,0%,0%); stroke:none;" transform="translate(0,0) scale(1,-1)" x="0" y="0">Gene_00103</text>
			</g>
			<g transform=" matrix(0.707107,0.707107,-0.707107,0.707107,1298.904277,538.835771)">
				<text style="font-family: Helvetica; font-size: 10px;fill: rgb(0%,0%,0%); stroke:none;" transform="translate(0,0) scale(1,-1)" x="0" y="0">Gene_00104</text>
			</g>
			<g transform=" matrix(0.707107,0.707107,-0.707107,0.707107,1323.63872,538.835771)">
				<text style="font-family: Helvetica; font-size: 10px;fill: rgb(0%,0%,0%); stroke:none;" transform="translate(0,0) scale(1,-1)" x="0" y="0">Gene_00105</text>
			</g>
			<g transform=" matrix(1,0,-0,1,70,169.825647)">
				<text style="font-family: Helvetica; font-size: 12px;fill: rgb(60%,60%,60%); stroke:none;" transform="translate(0,0) scale(1,-1)" x="0" y="0">megahit_2896 (left 15471bp, right 17964bp)</text>
			</g>
			<g transform=" matrix(1,0,-0,1,70,456.833521)">
				<text style="font-family: Helvetica; font-size: 12px;fill: rgb(60%,60%,60%); stroke:none;" transform="translate(0,0) scale(1,-1)" x="0" y="0">megahit_22140 (left 72355bp, right 66590bp)</text>
			</g>
		</g>
	</g>
</svg>
