<?xml version="1.0" encoding="utf-8"?>
<!DOCTYPE svg
  PUBLIC '-//W3C//DTD SVG 1.0//EN'
  'http://www.w3.org/TR/2001/REC-SVG-20010904/DTD/svg10.dtd'>
<svg fill-rule="evenodd" height="708.6614173228346" preserveAspectRatio="xMinYMin meet" version="1.0" viewBox="0 0 1417 708" width="1417.3228346456692" xmlns="http://www.w3.org/2000/svg" xmlns:xlink="http://www.w3.org/1999/xlink">
	<title>...</title>
	<desc>...</desc>
	<clipPath id="clip">
		<rect height="708.6614173228346" width="1417.3228346456692" x="0" y="0"/>
	</clipPath>
	<g id="group" style="clip-path: url(#clip)" transform="scale(1,-1) translate(0,-708)">
		<g transform="">
			<polygon points="70.86614 169.8256, 1346.399 169.8256, 1346.399 251.8279, 70.86614 251.8279" style="stroke: rgb(96%,96%,96%); stroke-linecap: butt; stroke-width: 1; fill: rgb(96%,96%,96%); fill-rule: evenodd;"/>
			<polygon points="70.86614 456.8335, 1331.694 456.8335, 1331.694 538.8358, 70.86614 538.8358" style="stroke: rgb(96%,96%,96%); stroke-linecap: butt; stroke-width: 1; fill: rgb(96%,96%,96%); fill-rule: evenodd;"/>
			<polygon points="645.3587 456.8335, 969.5124 456.8335, 433.3921 251.8279, 755.9949 251.8279" style="stroke: rgb(100%,51%,51%); stroke-linecap: round; stroke-width: 1; fill: rgb(100%,51%,51%); fill-rule: evenodd;"/>
			<polygon points="1235.189 456.8335, 1330.775 456.8335, 71.78524 251.8279, 167.3712 251.8279" style="stroke: rgb(100%,53%,53%); stroke-linecap: round; stroke-width: 1; fill: rgb(100%,53%,53%); fill-rule: evenodd;"/>
			<polygon points="1096.405 456.8335, 1201.182 456.8335, 201.2055 251.8279, 304.2591 251.8279" style="stroke: rgb(100%,67%,67%); stroke-linecap: round; stroke-width: 1; fill: rgb(100%,67%,67%); fill-rule: evenodd;"/>
			<polygon points="1113.868 456.8335, 1186.074 456.8335, 72.70433 251.8279, 144.9108 251.8279" style="stroke: rgb(100%,66%,66%); stroke-linecap: round; stroke-width: 1; fill: rgb(100%,66%,66%); fill-rule: evenodd;"/>
			<polygon points="1258.338 456.8335, 1325.49 456.8335, 218.7832 251.8279, 286.107 251.8279" style="stroke: rgb(100%,67%,67%); stroke-linecap: round; stroke-width: 1; fill: rgb(100%,67%,67%); fill-rule: evenodd;"/>
			<polygon points="211.2581 200.5765, 87.26659 200.5765, 87.26659 210.8268, 70.86614 190.3262, 87.26659 169.8256, 87.26659 180.0759, 211.2581 180.0759" style="stroke: rgb(56%,93%,56%); stroke-linecap: round; stroke-width: 1; fill: rgb(56%,93%,56%); fill-rule: evenodd;"/>
			<polygon points="355.7285 200.5765, 226.5671 200.5765, 226.5671 210.8268, 210.1667 190.3262, 226.5671 169.8256, 226.5671 180.0759, 355.7285 180.0759" style="stroke: rgb(56%,93%,56%); stroke-linecap: round; stroke-width: 1; fill: rgb(56%,93%,56%); fill-rule: evenodd;"/>
			<polygon points="484.8041 200.5765, 372.3587 200.5765, 372.3587 210.8268, 355.9583 190.3262, 372.3587 169.8256, 372.3587 180.0759, 484.8041 180.0759" style="stroke: rgb(56%,93%,56%); stroke-linecap: round; stroke-width: 1; fill: rgb(56%,93%,56%); fill-rule: evenodd;"/>
			<polygon points="558.619 200.5765, 501.8364 200.5765, 501.8364 210.8268, 485.4359 190.3262, 501.8364 169.8256, 501.8364 180.0759, 558.619 180.0759" style="stroke: rgb(56%,93%,56%); stroke-linecap: round; stroke-width: 1; fill: rgb(56%,93%,56%); fill-rule: evenodd;"/>
			<polygon points="606.3545 200.5765, 575.9385 200.5765, 575.9385 210.8268, 559.5381 190.3262, 575.9385 169.8256, 575.9385 180.0759, 606.3545 180.0759" style="stroke: rgb(56%,93%,56%); stroke-linecap: round; stroke-width: 1; fill: rgb(56%,93%,56%); fill-rule: evenodd;"/>
			<polygon points="638.925 200.5765, 622.9848 200.5765, 622.9848 210.8268, 606.5843 190.3262, 622.9848 169.8256, 622.9848 180.0759, 638.925 180.0759" style="stroke: rgb(56%,93%,56%); stroke-linecap: round; stroke-width: 1; fill: rgb(56%,93%,56%); fill-rule: evenodd;"/>
			<polygon points="689.7625 200.5765, 656.2445 200.5765, 656.2445 210.8268, 639.8441 190.3262, 656.2445 169.8256, 656.2445 180.0759, 689.7625 180.0759" style="stroke: rgb(56%,93%,56%); stroke-linecap: round; stroke-width: 1; fill: rgb(56%,93%,56%); fill-rule: evenodd;"/>
			<polygon points="756.0523 200.5765, 710.6435 200.5765, 710.6435 210.8268, 694.2431 190.3262, 710.6435 169.8256, 710.6435 180.0759, 756.0523 180.0759" style="stroke: rgb(56%,93%,56%); stroke-linecap: round; stroke-width: 1; fill: rgb(56%,93%,56%); fill-rule: evenodd;"/>
			<polygon points="868.5841 200.5765, 777.5078 200.5765, 777.5078 210.8268, 761.1073 190.3262, 777.5078 169.8256, 777.5078 180.0759, 868.5841 180.0759" style="stroke: rgb(56%,93%,56%); stroke-linecap: round; stroke-width: 1; fill: rgb(56%,93%,56%); fill-rule: evenodd;"/>
			<polygon points="892.0785 200.5765, 887.1674 200.5765, 887.1674 210.8268, 870.767 190.3262, 887.1674 169.8256, 887.1674 180.0759, 892.0785 180.0759" style="stroke: rgb(56%,93%,56%); stroke-linecap: round; stroke-width: 1; fill: rgb(56%,93%,56%); fill-rule: evenodd;"/>
			<polygon points="932.1167 200.5765, 907.9046 200.5765, 907.9046 210.8268, 891.5041 190.3262, 907.9046 169.8256, 907.9046 180.0759, 932.1167 180.0759" style="stroke: rgb(56%,93%,56%); stroke-linecap: round; stroke-width: 1; fill: rgb(56%,93%,56%); fill-rule: evenodd;"/>
			<polygon points="998.866 200.5765, 946.7364 200.5765, 946.7364 210.8268, 930.3359 190.3262, 946.7364 169.8256, 946.7364 180.0759, 998.866 180.0759" style="stroke: rgb(56%,93%,56%); stroke-linecap: round; stroke-width: 1; fill: rgb(56%,93%,56%); fill-rule: evenodd;"/>
			<polygon points="1071.015 200.5765, 1015.439 200.5765, 1015.439 210.8268, 999.0384 190.3262, 1015.439 169.8256, 1015.439 180.0759, 1071.015 180.0759" style="stroke: rgb(56%,93%,56%); stroke-linecap: round; stroke-width: 1; fill: rgb(56%,93%,56%); fill-rule: evenodd;"/>
			<polygon points="1120.474 200.5765, 1087.645 200.5765, 1087.645 210.8268, 1071.245 190.3262, 1087.645 169.8256, 1087.645 180.0759, 1120.474 180.0759" style="stroke: rgb(56%,93%,56%); stroke-linecap: round; stroke-width: 1; fill: rgb(56%,93%,56%); fill-rule: evenodd;"/>
			<polygon points="1169.473 200.5765, 1137.334 200.5765, 1137.334 210.8268, 1120.933 190.3262, 1137.334 169.8256, 1137.334 180.0759, 1169.473 180.0759" style="stroke: rgb(56%,93%,56%); stroke-linecap: round; stroke-width: 1; fill: rgb(56%,93%,56%); fill-rule: evenodd;"/>
			<polygon points="1231.11 200.5765, 1186.735 200.5765, 1186.735 210.8268, 1170.335 190.3262, 1186.735 169.8256, 1186.735 180.0759, 1231.11 180.0759" style="stroke: rgb(56%,93%,56%); stroke-linecap: round; stroke-width: 1; fill: rgb(56%,93%,56%); fill-rule: evenodd;"/>
			<polygon points="1272.814 200.5765, 1248.085 200.5765, 1248.085 210.8268, 1231.685 190.3262, 1248.085 169.8256, 1248.085 180.0759, 1272.814 180.0759" style="stroke: rgb(56%,93%,56%); stroke-linecap: round; stroke-width: 1; fill: rgb(56%,93%,56%); fill-rule: evenodd;"/>
			<polygon points="1346.399 200.5765, 1289.444 200.5765, 1289.444 210.8268, 1273.044 190.3262, 1289.444 169.8256, 1289.444 180.0759, 1346.399 180.0759" style="stroke: rgb(56%,93%,56%); stroke-linecap: round; stroke-width: 1; fill: rgb(56%,93%,56%); fill-rule: evenodd;"/>
			<polygon points="74.48508 528.5855, 100.5928 528.5855, 100.5928 538.8358, 116.9933 518.3352, 100.5928 497.8346, 100.5928 508.0849, 74.48508 508.0849" style="stroke: rgb(67%,84%,90%); stroke-linecap: round; stroke-width: 1; fill: rgb(67%,84%,90%); fill-rule: evenodd;"/>
			<polygon points="168.0606 487.5844, 136.2659 487.5844, 136.2659 497.8346, 119.8655 477.3341, 136.2659 456.8335, 136.2659 467.0838, 168.0606 467.0838" style="stroke: rgb(56%,93%,56%); stroke-linecap: round; stroke-width: 1; fill: rgb(56%,93%,56%); fill-rule: evenodd;"/>
			<polygon points="182.5938 487.5844, 182.5079 487.5844, 182.5079 497.8346, 166.1075 477.3341, 182.5079 456.8335, 182.5079 467.0838, 182.5938 467.0838" style="stroke: rgb(56%,93%,56%); stroke-linecap: round; stroke-width: 1; fill: rgb(56%,93%,56%); fill-rule: evenodd;"/>
			<polygon points="196.3228 528.5855, 227.2558 528.5855, 227.2558 538.8358, 243.6562 518.3352, 227.2558 497.8346, 227.2558 508.0849, 196.3228 508.0849" style="stroke: rgb(67%,84%,90%); stroke-linecap: round; stroke-width: 1; fill: rgb(67%,84%,90%); fill-rule: evenodd;"/>
			<polygon points="245.8965 528.5855, 269.0746 528.5855, 269.0746 538.8358, 285.4751 518.3352, 269.0746 497.8346, 269.0746 508.0849, 245.8965 508.0849" style="stroke: rgb(67%,84%,90%); stroke-linecap: round; stroke-width: 1; fill: rgb(67%,84%,90%); fill-rule: evenodd;"/>
			<polygon points="284.9007 528.5855, 311.3531 528.5855, 311.3531 538.8358, 327.7535 518.3352, 311.3531 497.8346, 311.3531 508.0849, 284.9007 508.0849" style="stroke: rgb(67%,84%,90%); stroke-linecap: round; stroke-width: 1; fill: rgb(67%,84%,90%); fill-rule: evenodd;"/>
			<polygon points="356.4178 487.5844, 347.7155 487.5844, 347.7155 497.8346, 331.315 477.3341, 347.7155 456.8335, 347.7155 467.0838, 356.4178 467.0838" style="stroke: rgb(56%,93%,56%); stroke-linecap: round; stroke-width: 1; fill: rgb(56%,93%,56%); fill-rule: evenodd;"/>
			<polygon points="422.1332 487.5844, 373.7948 487.5844, 373.7948 497.8346, 357.3944 477.3341, 373.7948 456.8335, 373.7948 467.0838, 422.1332 467.0838" style="stroke: rgb(56%,93%,56%); stroke-linecap: round; stroke-width: 1; fill: rgb(56%,93%,56%); fill-rule: evenodd;"/>
			<polygon points="428.8541 528.5855, 499.4231 528.5855, 499.4231 538.8358, 515.8236 518.3352, 499.4231 497.8346, 499.4231 508.0849, 428.8541 508.0849" style="stroke: rgb(67%,84%,90%); stroke-linecap: round; stroke-width: 1; fill: rgb(67%,84%,90%); fill-rule: evenodd;"/>
			<polygon points="634.5018 487.5844, 536.3599 487.5844, 536.3599 497.8346, 519.9595 477.3341, 536.3599 456.8335, 536.3599 467.0838, 634.5018 467.0838" style="stroke: rgb(56%,93%,56%); stroke-linecap: round; stroke-width: 1; fill: rgb(56%,93%,56%); fill-rule: evenodd;"/>
			<polygon points="645.3012 528.5855, 691.0547 528.5855, 691.0547 538.8358, 707.4551 518.3352, 691.0547 497.8346, 691.0547 508.0849, 645.3012 508.0849" style="stroke: rgb(67%,84%,90%); stroke-linecap: round; stroke-width: 1; fill: rgb(67%,84%,90%); fill-rule: evenodd;"/>
			<polygon points="712.3378 528.5855, 746.2004 528.5855, 746.2004 538.8358, 762.6009 518.3352, 746.2004 497.8346, 746.2004 508.0849, 712.3378 508.0849" style="stroke: rgb(67%,84%,90%); stroke-linecap: round; stroke-width: 1; fill: rgb(67%,84%,90%); fill-rule: evenodd;"/>
			<polygon points="763.52 528.5855, 778.7709 528.5855, 778.7709 538.8358, 795.1713 518.3352, 778.7709 497.8346, 778.7709 508.0849, 763.52 508.0849" style="stroke: rgb(67%,84%,90%); stroke-linecap: round; stroke-width: 1; fill: rgb(67%,84%,90%); fill-rule: evenodd;"/>
			<polygon points="795.8032 528.5855, 826.2192 528.5855, 826.2192 538.8358, 842.6197 518.3352, 826.2192 497.8346, 826.2192 508.0849, 795.8032 508.0849" style="stroke: rgb(67%,84%,90%); stroke-linecap: round; stroke-width: 1; fill: rgb(67%,84%,90%); fill-rule: evenodd;"/>
			<polygon points="843.7111 528.5855, 901.183 528.5855, 901.183 538.8358, 917.5835 518.3352, 901.183 497.8346, 901.183 508.0849, 843.7111 508.0849" style="stroke: rgb(67%,84%,90%); stroke-linecap: round; stroke-width: 1; fill: rgb(67%,84%,90%); fill-rule: evenodd;"/>
			<polygon points="918.2728 528.5855, 955.065 528.5855, 955.065 538.8358, 971.4655 518.3352, 955.065 497.8346, 955.065 508.0849, 918.2728 508.0849" style="stroke: rgb(67%,84%,90%); stroke-linecap: round; stroke-width: 1; fill: rgb(67%,84%,90%); fill-rule: evenodd;"/>
			<polygon points="971.2931 528.5855, 1027.214 528.5855, 1027.214 538.8358, 1043.615 518.3352, 1027.214 497.8346, 1027.214 508.0849, 971.2931 508.0849" style="stroke: rgb(67%,84%,90%); stroke-linecap: round; stroke-width: 1; fill: rgb(67%,84%,90%); fill-rule: evenodd;"/>
			<polygon points="1045.108 528.5855, 1174.786 528.5855, 1174.786 538.8358, 1191.187 518.3352, 1174.786 497.8346, 1174.786 508.0849, 1045.108 508.0849" style="stroke: rgb(67%,84%,90%); stroke-linecap: round; stroke-width: 1; fill: rgb(67%,84%,90%); fill-rule: evenodd;"/>
			<polygon points="1191.302 528.5855, 1315.293 528.5855, 1315.293 538.8358, 1331.694 518.3352, 1315.293 497.8346, 1315.293 508.0849, 1191.302 508.0849" style="stroke: rgb(67%,84%,90%); stroke-linecap: round; stroke-width: 1; fill: rgb(67%,84%,90%); fill-rule: evenodd;"/>
			<path d="M 1346.399249,169.825647 L 1346.399249,251.827897 Z" style="stroke: rgb(0%,0%,0%); stroke-linecap: butt; stroke-width: 1;"/>
			<path d="M 70.866142,210.826772 L 1346.399249,210.826772 Z" style="stroke: rgb(0%,0%,0%); stroke-linecap: butt; stroke-width: 1;"/>
			<path d="M 70.866142,169.825647 L 70.866142,251.827897 Z" style="stroke: rgb(0%,0%,0%); stroke-linecap: butt; stroke-width: 1;"/>
			<path d="M 645.301227,210.826772 L 645.301227,231.327334 Z" style="stroke: rgb(0%,0%,0%); stroke-linecap: butt; stroke-width: 1;"/>
			<path d="M 1219.736313,210.826772 L 1219.736313,231.327334 Z" style="stroke: rgb(0%,0%,0%); stroke-linecap: butt; stroke-width: 1;"/>
			<path d="M 645.301227,210.826772 L 645.301227,223.127109 Z" style="stroke: rgb(0%,0%,0%); stroke-linecap: butt; stroke-width: 1;"/>
			<path d="M 1219.736313,210.826772 L 1219.736313,223.127109 Z" style="stroke: rgb(0%,0%,0%); stroke-linecap: butt; stroke-width: 1;"/>
			<path d="M 1331.693711,456.833521 L 1331.693711,538.835771 Z" style="stroke: rgb(0%,0%,0%); stroke-linecap: butt; stroke-width: 1;"/>
			<path d="M 70.866142,497.834646 L 1331.693711,497.834646 Z" style="stroke: rgb(0%,0%,0%); stroke-linecap: butt; stroke-width: 1;"/>
			<path d="M 70.866142,456.833521 L 70.866142,538.835771 Z" style="stroke: rgb(0%,0%,0%); stroke-linecap: butt; stroke-width: 1;"/>
			<path d="M 645.301227,497.834646 L 645.301227,518.335208 Z" style="stroke: rgb(0%,0%,0%); stroke-linecap: butt; stroke-width: 1;"/>
			<path d="M 1219.736313,497.834646 L 1219.736313,518.335208 Z" style="stroke: rgb(0%,0%,0%); stroke-linecap: butt; stroke-width: 1;"/>
			<path d="M 645.301227,497.834646 L 645.301227,510.134983 Z" style="stroke: rgb(0%,0%,0%); stroke-linecap: butt; stroke-width: 1;"/>
			<path d="M 1219.736313,497.834646 L 1219.736313,510.134983 Z" style="stroke: rgb(0%,0%,0%); stroke-linecap: butt; stroke-width: 1;"/>
			<g transform=" matrix(0.707107,0.707107,-0.707107,0.707107,645.301227,231.327334)">
				<text style="font-family: Helvetica; font-size: 6px;fill: rgb(0%,0%,0%); stroke:none;" transform="translate(0,0) scale(1,-1)" x="0" y="0">10000</text>
			</g>
			<g transform=" matrix(0.707107,0.707107,-0.707107,0.707107,1219.736313,231.327334)">
				<text style="font-family: Helvetica; font-size: 6px;fill: rgb(0%,0%,0%); stroke:none;" transform="translate(0,0) scale(1,-1)" x="0" y="0">20000</text>
			</g>
			<g transform=" matrix(0.707107,0.707107,-0.707107,0.707107,645.301227,518.335208)">
				<text style="font-family: Helvetica; font-size: 6px;fill: rgb(0%,0%,0%); stroke:none;" transform="translate(0,0) scale(1,-1)" x="0" y="0">10000</text>
			</g>
			<g transform=" matrix(0.707107,0.707107,-0.707107,0.707107,1219.736313,518.335208)">
				<text style="font-family: Helvetica; font-size: 6px;fill: rgb(0%,0%,0%); stroke:none;" transform="translate(0,0) scale(1,-1)" x="0" y="0">20000</text>
			</g>
			<g transform=" matrix(0.707107,-0.707107,0.707107,0.707107,141.062109,169.825647)">
				<text style="font-family: Helvetica; font-size: 10px;fill: rgb(0%,0%,0%); stroke:none;" transform="translate(0,0) scale(1,-1)" x="0" y="0">Gene_02022</text>
			</g>
			<g transform=" matrix(0.707107,-0.707107,0.707107,0.707107,282.947575,169.825647)">
				<text style="font-family: Helvetica; font-size: 10px;fill: rgb(0%,0%,0%); stroke:none;" transform="translate(0,0) scale(1,-1)" x="0" y="0">Gene_02023</text>
			</g>
			<g transform=" matrix(0.707107,-0.707107,0.707107,0.707107,420.38117,169.825647)">
				<text style="font-family: Helvetica; font-size: 10px;fill: rgb(0%,0%,0%); stroke:none;" transform="translate(0,0) scale(1,-1)" x="0" y="0">Gene_02024</text>
			</g>
			<g transform=" matrix(0.707107,-0.707107,0.707107,0.707107,522.027458,169.825647)">
				<text style="font-family: Helvetica; font-size: 10px;fill: rgb(0%,0%,0%); stroke:none;" transform="translate(0,0) scale(1,-1)" x="0" y="0">Gene_02025</text>
			</g>
			<g transform=" matrix(0.707107,-0.707107,0.707107,0.707107,582.946299,169.825647)">
				<text style="font-family: Helvetica; font-size: 10px;fill: rgb(0%,0%,0%); stroke:none;" transform="translate(0,0) scale(1,-1)" x="0" y="0">Gene_02026</text>
			</g>
			<g transform=" matrix(0.707107,-0.707107,0.707107,0.707107,622.75465,169.825647)">
				<text style="font-family: Helvetica; font-size: 10px;fill: rgb(0%,0%,0%); stroke:none;" transform="translate(0,0) scale(1,-1)" x="0" y="0">Gene_02027</text>
			</g>
			<g transform=" matrix(0.707107,-0.707107,0.707107,0.707107,664.803299,169.825647)">
				<text style="font-family: Helvetica; font-size: 10px;fill: rgb(0%,0%,0%); stroke:none;" transform="translate(0,0) scale(1,-1)" x="0" y="0">Gene_02028</text>
			</g>
			<g transform=" matrix(0.707107,-0.707107,0.707107,0.707107,725.147704,169.825647)">
				<text style="font-family: Helvetica; font-size: 16px;fill: rgb(0%,0%,100%); stroke:none;" transform="translate(0,0) scale(1,-1)" x="0" y="0">Gene_02029 (82.0)</text>
			</g>
			<g transform=" matrix(0.707107,-0.707107,0.707107,0.707107,814.845743,169.825647)">
				<text style="font-family: Helvetica; font-size: 10px;fill: rgb(0%,0%,0%); stroke:none;" transform="translate(0,0) scale(1,-1)" x="0" y="0">Gene_02030</text>
			</g>
			<g transform=" matrix(0.707107,-0.707107,0.707107,0.707107,881.422769,169.825647)">
				<text style="font-family: Helvetica; font-size: 10px;fill: rgb(0%,0%,0%); stroke:none;" transform="translate(0,0) scale(1,-1)" x="0" y="0">Gene_02031</text>
			</g>
			<g transform=" matrix(0.707107,-0.707107,0.707107,0.707107,911.810385,169.825647)">
				<text style="font-family: Helvetica; font-size: 10px;fill: rgb(0%,0%,0%); stroke:none;" transform="translate(0,0) scale(1,-1)" x="0" y="0">Gene_02032</text>
			</g>
			<g transform=" matrix(0.707107,-0.707107,0.707107,0.707107,964.60097,169.825647)">
				<text style="font-family: Helvetica; font-size: 10px;fill: rgb(0%,0%,0%); stroke:none;" transform="translate(0,0) scale(1,-1)" x="0" y="0">Gene_02033</text>
			</g>
			<g transform=" matrix(0.707107,-0.707107,0.707107,0.707107,1035.026711,169.825647)">
				<text style="font-family: Helvetica; font-size: 10px;fill: rgb(0%,0%,0%); stroke:none;" transform="translate(0,0) scale(1,-1)" x="0" y="0">Gene_02034</text>
			</g>
			<g transform=" matrix(0.707107,-0.707107,0.707107,0.707107,1095.859387,169.825647)">
				<text style="font-family: Helvetica; font-size: 10px;fill: rgb(0%,0%,0%); stroke:none;" transform="translate(0,0) scale(1,-1)" x="0" y="0">Gene_02035</text>
			</g>
			<g transform=" matrix(0.707107,-0.707107,0.707107,0.707107,1145.203361,169.825647)">
				<text style="font-family: Helvetica; font-size: 10px;fill: rgb(0%,0%,0%); stroke:none;" transform="translate(0,0) scale(1,-1)" x="0" y="0">Gene_02036</text>
			</g>
			<g transform=" matrix(0.707107,-0.707107,0.707107,0.707107,1200.722512,169.825647)">
				<text style="font-family: Helvetica; font-size: 10px;fill: rgb(0%,0%,0%); stroke:none;" transform="translate(0,0) scale(1,-1)" x="0" y="0">Gene_02037</text>
			</g>
			<g transform=" matrix(0.707107,-0.707107,0.707107,0.707107,1252.249339,169.825647)">
				<text style="font-family: Helvetica; font-size: 10px;fill: rgb(0%,0%,0%); stroke:none;" transform="translate(0,0) scale(1,-1)" x="0" y="0">Gene_02038</text>
			</g>
			<g transform=" matrix(0.707107,-0.707107,0.707107,0.707107,1309.721569,169.825647)">
				<text style="font-family: Helvetica; font-size: 10px;fill: rgb(0%,0%,0%); stroke:none;" transform="translate(0,0) scale(1,-1)" x="0" y="0">Gene_02039</text>
			</g>
			<g transform=" matrix(0.707107,0.707107,-0.707107,0.707107,95.739181,538.835771)">
				<text style="font-family: Helvetica; font-size: 10px;fill: rgb(0%,0%,0%); stroke:none;" transform="translate(0,0) scale(1,-1)" x="0" y="0">Gene_01435</text>
			</g>
			<g transform=" matrix(0.707107,-0.707107,0.707107,0.707107,143.963006,456.833521)">
				<text style="font-family: Helvetica; font-size: 10px;fill: rgb(0%,0%,0%); stroke:none;" transform="translate(0,0) scale(1,-1)" x="0" y="0">Gene_01436</text>
			</g>
			<g transform=" matrix(0.707107,-0.707107,0.707107,0.707107,174.350622,456.833521)">
				<text style="font-family: Helvetica; font-size: 10px;fill: rgb(0%,0%,0%); stroke:none;" transform="translate(0,0) scale(1,-1)" x="0" y="0">Gene_01437</text>
			</g>
			<g transform=" matrix(0.707107,0.707107,-0.707107,0.707107,219.98949,538.835771)">
				<text style="font-family: Helvetica; font-size: 10px;fill: rgb(0%,0%,0%); stroke:none;" transform="translate(0,0) scale(1,-1)" x="0" y="0">Gene_01438</text>
			</g>
			<g transform=" matrix(0.707107,0.707107,-0.707107,0.707107,265.685801,538.835771)">
				<text style="font-family: Helvetica; font-size: 10px;fill: rgb(0%,0%,0%); stroke:none;" transform="translate(0,0) scale(1,-1)" x="0" y="0">Gene_01439</text>
			</g>
			<g transform=" matrix(0.707107,0.707107,-0.707107,0.707107,306.327083,538.835771)">
				<text style="font-family: Helvetica; font-size: 10px;fill: rgb(0%,0%,0%); stroke:none;" transform="translate(0,0) scale(1,-1)" x="0" y="0">Gene_01440</text>
			</g>
			<g transform=" matrix(0.707107,-0.707107,0.707107,0.707107,343.866416,456.833521)">
				<text style="font-family: Helvetica; font-size: 10px;fill: rgb(0%,0%,0%); stroke:none;" transform="translate(0,0) scale(1,-1)" x="0" y="0">Gene_01441</text>
			</g>
			<g transform=" matrix(0.707107,-0.707107,0.707107,0.707107,389.76378,456.833521)">
				<text style="font-family: Helvetica; font-size: 10px;fill: rgb(0%,0%,0%); stroke:none;" transform="translate(0,0) scale(1,-1)" x="0" y="0">Gene_01442</text>
			</g>
			<g transform=" matrix(0.707107,0.707107,-0.707107,0.707107,472.338823,538.835771)">
				<text style="font-family: Helvetica; font-size: 10px;fill: rgb(0%,0%,0%); stroke:none;" transform="translate(0,0) scale(1,-1)" x="0" y="0">Gene_01443</text>
			</g>
			<g transform=" matrix(0.707107,-0.707107,0.707107,0.707107,577.23067,456.833521)">
				<text style="font-family: Helvetica; font-size: 10px;fill: rgb(0%,0%,0%); stroke:none;" transform="translate(0,0) scale(1,-1)" x="0" y="0">Gene_01444</text>
			</g>
			<g transform=" matrix(0.707107,0.707107,-0.707107,0.707107,676.378166,538.835771)">
				<text style="font-family: Helvetica; font-size: 16px;fill: rgb(0%,0%,100%); stroke:none;" transform="translate(0,0) scale(1,-1)" x="0" y="0">Gene_01445 (82.0)</text>
			</g>
			<g transform=" matrix(0.707107,0.707107,-0.707107,0.707107,737.469337,538.835771)">
				<text style="font-family: Helvetica; font-size: 10px;fill: rgb(0%,0%,0%); stroke:none;" transform="translate(0,0) scale(1,-1)" x="0" y="0">Gene_01446</text>
			</g>
			<g transform=" matrix(0.707107,0.707107,-0.707107,0.707107,779.345655,538.835771)">
				<text style="font-family: Helvetica; font-size: 10px;fill: rgb(0%,0%,0%); stroke:none;" transform="translate(0,0) scale(1,-1)" x="0" y="0">Gene_01447</text>
			</g>
			<g transform=" matrix(0.707107,0.707107,-0.707107,0.707107,819.21145,538.835771)">
				<text style="font-family: Helvetica; font-size: 10px;fill: rgb(0%,0%,0%); stroke:none;" transform="translate(0,0) scale(1,-1)" x="0" y="0">Gene_01448</text>
			</g>
			<g transform=" matrix(0.707107,0.707107,-0.707107,0.707107,880.647282,538.835771)">
				<text style="font-family: Helvetica; font-size: 10px;fill: rgb(0%,0%,0%); stroke:none;" transform="translate(0,0) scale(1,-1)" x="0" y="0">Gene_01449</text>
			</g>
			<g transform=" matrix(0.707107,0.707107,-0.707107,0.707107,944.869125,538.835771)">
				<text style="font-family: Helvetica; font-size: 10px;fill: rgb(0%,0%,0%); stroke:none;" transform="translate(0,0) scale(1,-1)" x="0" y="0">Gene_01450</text>
			</g>
			<g transform=" matrix(0.707107,0.707107,-0.707107,0.707107,1007.453827,538.835771)">
				<text style="font-family: Helvetica; font-size: 10px;fill: rgb(0%,0%,0%); stroke:none;" transform="translate(0,0) scale(1,-1)" x="0" y="0">Gene_01451</text>
			</g>
			<g transform=" matrix(0.707107,0.707107,-0.707107,0.707107,1118.147468,538.835771)">
				<text style="font-family: Helvetica; font-size: 10px;fill: rgb(0%,0%,0%); stroke:none;" transform="translate(0,0) scale(1,-1)" x="0" y="0">Gene_01452</text>
			</g>
			<g transform=" matrix(0.707107,0.707107,-0.707107,0.707107,1261.497744,538.835771)">
				<text style="font-family: Helvetica; font-size: 10px;fill: rgb(0%,0%,0%); stroke:none;" transform="translate(0,0) scale(1,-1)" x="0" y="0">Gene_01453</text>
			</g>
			<g transform=" matrix(1,0,-0,1,70,169.825647)">
				<text style="font-family: Helvetica; font-size: 12px;fill: rgb(60%,60%,60%); stroke:none;" transform="translate(0,0) scale(1,-1)" x="0" y="0">megahit_58857 (left 138127bp, right 80569bp)</text>
			</g>
			<g transform=" matrix(1,0,-0,1,70,456.833521)">
				<text style="font-family: Helvetica; font-size: 12px;fill: rgb(60%,60%,60%); stroke:none;" transform="translate(0,0) scale(1,-1)" x="0" y="0">megahit_33738 (left 70607bp, right 85128bp)</text>
			</g>
		</g>
	</g>
</svg>
