<?xml version="1.0" encoding="utf-8"?>
<!DOCTYPE svg
  PUBLIC '-//W3C//DTD SVG 1.0//EN'
  'http://www.w3.org/TR/2001/REC-SVG-20010904/DTD/svg10.dtd'>
<svg fill-rule="evenodd" height="708.6614173228346" preserveAspectRatio="xMinYMin meet" version="1.0" viewBox="0 0 1417 708" width="1417.3228346456692" xmlns="http://www.w3.org/2000/svg" xmlns:xlink="http://www.w3.org/1999/xlink">
	<title>...</title>
	<desc>...</desc>
	<clipPath id="clip">
		<rect height="708.6614173228346" width="1417.3228346456692" x="0" y="0"/>
	</clipPath>
	<g id="group" style="clip-path: url(#clip)" transform="scale(1,-1) translate(0,-708)">
		<g transform="">
			<polygon points="70.86614 169.8256, 212.9966 169.8256, 212.9966 251.8279, 70.86614 251.8279" style="stroke: rgb(96%,96%,96%); stroke-linecap: butt; stroke-width: 1; fill: rgb(96%,96%,96%); fill-rule: evenodd;"/>
			<polygon points="70.86614 456.8335, 1346.402 456.8335, 1346.402 538.8358, 70.86614 538.8358" style="stroke: rgb(96%,96%,96%); stroke-linecap: butt; stroke-width: 1; fill: rgb(96%,96%,96%); fill-rule: evenodd;"/>
			<polygon points="683.3282 456.8335, 770.9331 456.8335, 175.9479 251.8279, 88.34301 251.8279" style="stroke: rgb(100%,30%,30%); stroke-linecap: round; stroke-width: 1; fill: rgb(100%,30%,30%); fill-rule: evenodd;"/>
			<polygon points="79.7424 241.5776, 79.7424 251.8279, 85.14535 231.3273, 79.7424 210.8268, 79.7424 221.0771" style="stroke: rgb(67%,84%,90%); stroke-linecap: round; stroke-width: 1; fill: rgb(67%,84%,90%); fill-rule: evenodd;"/>
			<polygon points="169.9936 200.5765, 104.7435 200.5765, 104.7435 210.8268, 88.34301 190.3262, 104.7435 169.8256, 104.7435 180.0759, 169.9936 180.0759" style="stroke: rgb(56%,93%,56%); stroke-linecap: round; stroke-width: 1; fill: rgb(56%,93%,56%); fill-rule: evenodd;"/>
			<polygon points="70.86614 528.5855, 121.8922 528.5855, 121.8922 538.8358, 138.2927 518.3352, 121.8922 497.8346, 121.8922 508.0849, 70.86614 508.0849" style="stroke: rgb(67%,84%,90%); stroke-linecap: round; stroke-width: 1; fill: rgb(67%,84%,90%); fill-rule: evenodd;"/>
			<polygon points="138.3478 528.5855, 158.941 528.5855, 158.941 538.8358, 175.3414 518.3352, 158.941 497.8346, 158.941 508.0849, 138.3478 508.0849" style="stroke: rgb(67%,84%,90%); stroke-linecap: round; stroke-width: 1; fill: rgb(67%,84%,90%); fill-rule: evenodd;"/>
			<polygon points="197.725 487.5844, 194.0023 487.5844, 194.0023 497.8346, 177.6018 477.3341, 194.0023 456.8335, 194.0023 467.0838, 197.725 467.0838" style="stroke: rgb(56%,93%,56%); stroke-linecap: round; stroke-width: 1; fill: rgb(56%,93%,56%); fill-rule: evenodd;"/>
			<polygon points="212.1696 528.5855, 233.259 528.5855, 233.259 538.8358, 249.6594 518.3352, 233.259 497.8346, 233.259 508.0849, 212.1696 508.0849" style="stroke: rgb(67%,84%,90%); stroke-linecap: round; stroke-width: 1; fill: rgb(67%,84%,90%); fill-rule: evenodd;"/>
			<polygon points="250.4864 528.5855, 258.1787 528.5855, 258.1787 538.8358, 274.5791 518.3352, 258.1787 497.8346, 258.1787 508.0849, 250.4864 508.0849" style="stroke: rgb(67%,84%,90%); stroke-linecap: round; stroke-width: 1; fill: rgb(67%,84%,90%); fill-rule: evenodd;"/>
			<polygon points="280.9744 528.5855, 280.9744 538.8358, 294.6472 518.3352, 280.9744 497.8346, 280.9744 508.0849" style="stroke: rgb(67%,84%,90%); stroke-linecap: round; stroke-width: 1; fill: rgb(67%,84%,90%); fill-rule: evenodd;"/>
			<polygon points="298.8372 528.5855, 385.0927 528.5855, 385.0927 538.8358, 401.4931 518.3352, 385.0927 497.8346, 385.0927 508.0849, 298.8372 508.0849" style="stroke: rgb(67%,84%,90%); stroke-linecap: round; stroke-width: 1; fill: rgb(67%,84%,90%); fill-rule: evenodd;"/>
			<polygon points="402.9817 528.5855, 402.9817 538.8358, 411.6926 518.3352, 402.9817 497.8346, 402.9817 508.0849" style="stroke: rgb(67%,84%,90%); stroke-linecap: round; stroke-width: 1; fill: rgb(67%,84%,90%); fill-rule: evenodd;"/>
			<polygon points="440.4164 487.5844, 427.1006 487.5844, 427.1006 497.8346, 410.7002 477.3341, 427.1006 456.8335, 427.1006 467.0838, 440.4164 467.0838" style="stroke: rgb(56%,93%,56%); stroke-linecap: round; stroke-width: 1; fill: rgb(56%,93%,56%); fill-rule: evenodd;"/>
			<polygon points="479.505 487.5844, 462.0544 487.5844, 462.0544 497.8346, 445.6539 477.3341, 462.0544 456.8335, 462.0544 467.0838, 479.505 467.0838" style="stroke: rgb(56%,93%,56%); stroke-linecap: round; stroke-width: 1; fill: rgb(56%,93%,56%); fill-rule: evenodd;"/>
			<polygon points="542.0248 487.5844, 497.1184 487.5844, 497.1184 497.8346, 480.7179 477.3341, 497.1184 456.8335, 497.1184 467.0838, 542.0248 467.0838" style="stroke: rgb(56%,93%,56%); stroke-linecap: round; stroke-width: 1; fill: rgb(56%,93%,56%); fill-rule: evenodd;"/>
			<polygon points="634.7018 487.5844, 558.5355 487.5844, 558.5355 497.8346, 542.135 477.3341, 558.5355 456.8335, 558.5355 467.0838, 634.7018 467.0838" style="stroke: rgb(56%,93%,56%); stroke-linecap: round; stroke-width: 1; fill: rgb(56%,93%,56%); fill-rule: evenodd;"/>
			<polygon points="642.1446 528.5855, 663.0685 528.5855, 663.0685 538.8358, 679.469 518.3352, 663.0685 497.8346, 663.0685 508.0849, 642.1446 508.0849" style="stroke: rgb(67%,84%,90%); stroke-linecap: round; stroke-width: 1; fill: rgb(67%,84%,90%); fill-rule: evenodd;"/>
			<polygon points="764.9788 487.5844, 699.7287 487.5844, 699.7287 497.8346, 683.3282 477.3341, 699.7287 456.8335, 699.7287 467.0838, 764.9788 467.0838" style="stroke: rgb(56%,93%,56%); stroke-linecap: round; stroke-width: 1; fill: rgb(56%,93%,56%); fill-rule: evenodd;"/>
			<polygon points="774.4064 528.5855, 827.5826 528.5855, 827.5826 538.8358, 843.9831 518.3352, 827.5826 497.8346, 827.5826 508.0849, 774.4064 508.0849" style="stroke: rgb(67%,84%,90%); stroke-linecap: round; stroke-width: 1; fill: rgb(67%,84%,90%); fill-rule: evenodd;"/>
			<polygon points="915.3791 487.5844, 905.0405 487.5844, 905.0405 497.8346, 888.64 477.3341, 905.0405 456.8335, 905.0405 467.0838, 915.3791 467.0838" style="stroke: rgb(56%,93%,56%); stroke-linecap: round; stroke-width: 1; fill: rgb(56%,93%,56%); fill-rule: evenodd;"/>
			<polygon points="928.2249 528.5855, 928.2249 538.8358, 938.9205 518.3352, 928.2249 497.8346, 928.2249 508.0849" style="stroke: rgb(67%,84%,90%); stroke-linecap: round; stroke-width: 1; fill: rgb(67%,84%,90%); fill-rule: evenodd;"/>
			<polygon points="941.3463 528.5855, 955.1582 528.5855, 955.1582 538.8358, 971.5587 518.3352, 955.1582 497.8346, 955.1582 508.0849, 941.3463 508.0849" style="stroke: rgb(67%,84%,90%); stroke-linecap: round; stroke-width: 1; fill: rgb(67%,84%,90%); fill-rule: evenodd;"/>
			<polygon points="974.7563 528.5855, 1005.108 528.5855, 1005.108 538.8358, 1021.508 518.3352, 1005.108 497.8346, 1005.108 508.0849, 974.7563 508.0849" style="stroke: rgb(67%,84%,90%); stroke-linecap: round; stroke-width: 1; fill: rgb(67%,84%,90%); fill-rule: evenodd;"/>
			<polygon points="1025.147 528.5855, 1074.188 528.5855, 1074.188 538.8358, 1090.589 518.3352, 1074.188 497.8346, 1074.188 508.0849, 1025.147 508.0849" style="stroke: rgb(67%,84%,90%); stroke-linecap: round; stroke-width: 1; fill: rgb(67%,84%,90%); fill-rule: evenodd;"/>
			<polygon points="1112.917 487.5844, 1105.721 487.5844, 1105.721 497.8346, 1089.321 477.3341, 1105.721 456.8335, 1105.721 467.0838, 1112.917 467.0838" style="stroke: rgb(56%,93%,56%); stroke-linecap: round; stroke-width: 1; fill: rgb(56%,93%,56%); fill-rule: evenodd;"/>
			<polygon points="1120.36 528.5855, 1171.882 528.5855, 1171.882 538.8358, 1188.283 518.3352, 1171.882 497.8346, 1171.882 508.0849, 1120.36 508.0849" style="stroke: rgb(67%,84%,90%); stroke-linecap: round; stroke-width: 1; fill: rgb(67%,84%,90%); fill-rule: evenodd;"/>
			<polygon points="1189.275 528.5855, 1206.064 528.5855, 1206.064 538.8358, 1222.465 518.3352, 1206.064 497.8346, 1206.064 508.0849, 1189.275 508.0849" style="stroke: rgb(67%,84%,90%); stroke-linecap: round; stroke-width: 1; fill: rgb(67%,84%,90%); fill-rule: evenodd;"/>
			<polygon points="1227.427 528.5855, 1278.287 528.5855, 1278.287 538.8358, 1294.688 518.3352, 1278.287 497.8346, 1278.287 508.0849, 1227.427 508.0849" style="stroke: rgb(67%,84%,90%); stroke-linecap: round; stroke-width: 1; fill: rgb(67%,84%,90%); fill-rule: evenodd;"/>
			<polygon points="1300.477 528.5855, 1330.001 528.5855, 1330.001 538.8358, 1346.402 518.3352, 1330.001 497.8346, 1330.001 508.0849, 1300.477 508.0849" style="stroke: rgb(67%,84%,90%); stroke-linecap: round; stroke-width: 1; fill: rgb(67%,84%,90%); fill-rule: evenodd;"/>
			<path d="M 212.996601,169.825647 L 212.996601,251.827897 Z" style="stroke: rgb(0%,0%,0%); stroke-linecap: butt; stroke-width: 1;"/>
			<path d="M 70.866142,210.826772 L 212.996601,210.826772 Z" style="stroke: rgb(0%,0%,0%); stroke-linecap: butt; stroke-width: 1;"/>
			<path d="M 70.866142,169.825647 L 70.866142,251.827897 Z" style="stroke: rgb(0%,0%,0%); stroke-linecap: butt; stroke-width: 1;"/>
			<path d="M 1346.401561,456.833521 L 1346.401561,538.835771 Z" style="stroke: rgb(0%,0%,0%); stroke-linecap: butt; stroke-width: 1;"/>
			<path d="M 70.866142,497.834646 L 1346.401561,497.834646 Z" style="stroke: rgb(0%,0%,0%); stroke-linecap: butt; stroke-width: 1;"/>
			<path d="M 70.866142,456.833521 L 70.866142,538.835771 Z" style="stroke: rgb(0%,0%,0%); stroke-linecap: butt; stroke-width: 1;"/>
			<path d="M 622.186776,497.834646 L 622.186776,518.335208 Z" style="stroke: rgb(0%,0%,0%); stroke-linecap: butt; stroke-width: 1;"/>
			<path d="M 1173.50741,497.834646 L 1173.50741,518.335208 Z" style="stroke: rgb(0%,0%,0%); stroke-linecap: butt; stroke-width: 1;"/>
			<path d="M 622.186776,497.834646 L 622.186776,510.134983 Z" style="stroke: rgb(0%,0%,0%); stroke-linecap: butt; stroke-width: 1;"/>
			<path d="M 1173.50741,497.834646 L 1173.50741,510.134983 Z" style="stroke: rgb(0%,0%,0%); stroke-linecap: butt; stroke-width: 1;"/>
			<g transform=" matrix(0.707107,0.707107,-0.707107,0.707107,622.186776,518.335208)">
				<text style="font-family: Helvetica; font-size: 6px;fill: rgb(0%,0%,0%); stroke:none;" transform="translate(0,0) scale(1,-1)" x="0" y="0">10000</text>
			</g>
			<g transform=" matrix(0.707107,0.707107,-0.707107,0.707107,1173.50741,518.335208)">
				<text style="font-family: Helvetica; font-size: 6px;fill: rgb(0%,0%,0%); stroke:none;" transform="translate(0,0) scale(1,-1)" x="0" y="0">20000</text>
			</g>
			<g transform=" matrix(0.707107,0.707107,-0.707107,0.707107,82.443875,251.827897)">
				<text style="font-family: Helvetica; font-size: 10px;fill: rgb(0%,0%,0%); stroke:none;" transform="translate(0,0) scale(1,-1)" x="0" y="0">Gene_01127</text>
			</g>
			<g transform=" matrix(0.707107,-0.707107,0.707107,0.707107,129.168299,169.825647)">
				<text style="font-family: Helvetica; font-size: 16px;fill: rgb(0%,0%,100%); stroke:none;" transform="translate(0,0) scale(1,-1)" x="0" y="0">Gene_01128 (84.8)</text>
			</g>
			<g transform=" matrix(0.707107,0.707107,-0.707107,0.707107,104.579399,538.835771)">
				<text style="font-family: Helvetica; font-size: 10px;fill: rgb(0%,0%,0%); stroke:none;" transform="translate(0,0) scale(1,-1)" x="0" y="0">Gene_00735</text>
			</g>
			<g transform=" matrix(0.707107,0.707107,-0.707107,0.707107,156.844595,538.835771)">
				<text style="font-family: Helvetica; font-size: 10px;fill: rgb(0%,0%,0%); stroke:none;" transform="translate(0,0) scale(1,-1)" x="0" y="0">Gene_00736</text>
			</g>
			<g transform=" matrix(0.707107,-0.707107,0.707107,0.707107,187.663418,456.833521)">
				<text style="font-family: Helvetica; font-size: 10px;fill: rgb(0%,0%,0%); stroke:none;" transform="translate(0,0) scale(1,-1)" x="0" y="0">Gene_00737</text>
			</g>
			<g transform=" matrix(0.707107,0.707107,-0.707107,0.707107,230.914522,538.835771)">
				<text style="font-family: Helvetica; font-size: 10px;fill: rgb(0%,0%,0%); stroke:none;" transform="translate(0,0) scale(1,-1)" x="0" y="0">Gene_00738</text>
			</g>
			<g transform=" matrix(0.707107,0.707107,-0.707107,0.707107,262.53276,538.835771)">
				<text style="font-family: Helvetica; font-size: 10px;fill: rgb(0%,0%,0%); stroke:none;" transform="translate(0,0) scale(1,-1)" x="0" y="0">Gene_00739</text>
			</g>
			<g transform=" matrix(0.707107,0.707107,-0.707107,0.707107,287.810811,538.835771)">
				<text style="font-family: Helvetica; font-size: 10px;fill: rgb(0%,0%,0%); stroke:none;" transform="translate(0,0) scale(1,-1)" x="0" y="0">Gene_00740</text>
			</g>
			<g transform=" matrix(0.707107,0.707107,-0.707107,0.707107,350.165175,538.835771)">
				<text style="font-family: Helvetica; font-size: 10px;fill: rgb(0%,0%,0%); stroke:none;" transform="translate(0,0) scale(1,-1)" x="0" y="0">Gene_00741</text>
			</g>
			<g transform=" matrix(0.707107,0.707107,-0.707107,0.707107,407.337125,538.835771)">
				<text style="font-family: Helvetica; font-size: 10px;fill: rgb(0%,0%,0%); stroke:none;" transform="translate(0,0) scale(1,-1)" x="0" y="0">Gene_00742</text>
			</g>
			<g transform=" matrix(0.707107,-0.707107,0.707107,0.707107,425.558272,456.833521)">
				<text style="font-family: Helvetica; font-size: 10px;fill: rgb(0%,0%,0%); stroke:none;" transform="translate(0,0) scale(1,-1)" x="0" y="0">Gene_00743</text>
			</g>
			<g transform=" matrix(0.707107,-0.707107,0.707107,0.707107,462.579452,456.833521)">
				<text style="font-family: Helvetica; font-size: 10px;fill: rgb(0%,0%,0%); stroke:none;" transform="translate(0,0) scale(1,-1)" x="0" y="0">Gene_00744</text>
			</g>
			<g transform=" matrix(0.707107,-0.707107,0.707107,0.707107,511.371328,456.833521)">
				<text style="font-family: Helvetica; font-size: 10px;fill: rgb(0%,0%,0%); stroke:none;" transform="translate(0,0) scale(1,-1)" x="0" y="0">Gene_00745</text>
			</g>
			<g transform=" matrix(0.707107,-0.707107,0.707107,0.707107,588.418387,456.833521)">
				<text style="font-family: Helvetica; font-size: 10px;fill: rgb(0%,0%,0%); stroke:none;" transform="translate(0,0) scale(1,-1)" x="0" y="0">Gene_00746</text>
			</g>
			<g transform=" matrix(0.707107,0.707107,-0.707107,0.707107,660.806786,538.835771)">
				<text style="font-family: Helvetica; font-size: 10px;fill: rgb(0%,0%,0%); stroke:none;" transform="translate(0,0) scale(1,-1)" x="0" y="0">Gene_00747</text>
			</g>
			<g transform=" matrix(0.707107,-0.707107,0.707107,0.707107,724.153527,456.833521)">
				<text style="font-family: Helvetica; font-size: 16px;fill: rgb(0%,0%,100%); stroke:none;" transform="translate(0,0) scale(1,-1)" x="0" y="0">Gene_00748 (84.8)</text>
			</g>
			<g transform=" matrix(0.707107,0.707107,-0.707107,0.707107,809.194735,538.835771)">
				<text style="font-family: Helvetica; font-size: 10px;fill: rgb(0%,0%,0%); stroke:none;" transform="translate(0,0) scale(1,-1)" x="0" y="0">Gene_00749</text>
			</g>
			<g transform=" matrix(0.707107,-0.707107,0.707107,0.707107,902.009564,456.833521)">
				<text style="font-family: Helvetica; font-size: 10px;fill: rgb(0%,0%,0%); stroke:none;" transform="translate(0,0) scale(1,-1)" x="0" y="0">Gene_00750</text>
			</g>
			<g transform=" matrix(0.707107,0.707107,-0.707107,0.707107,933.57267,538.835771)">
				<text style="font-family: Helvetica; font-size: 10px;fill: rgb(0%,0%,0%); stroke:none;" transform="translate(0,0) scale(1,-1)" x="0" y="0">Gene_00751</text>
			</g>
			<g transform=" matrix(0.707107,0.707107,-0.707107,0.707107,956.452476,538.835771)">
				<text style="font-family: Helvetica; font-size: 10px;fill: rgb(0%,0%,0%); stroke:none;" transform="translate(0,0) scale(1,-1)" x="0" y="0">Gene_00752</text>
			</g>
			<g transform=" matrix(0.707107,0.707107,-0.707107,0.707107,998.132316,538.835771)">
				<text style="font-family: Helvetica; font-size: 10px;fill: rgb(0%,0%,0%); stroke:none;" transform="translate(0,0) scale(1,-1)" x="0" y="0">Gene_00753</text>
			</g>
			<g transform=" matrix(0.707107,0.707107,-0.707107,0.707107,1057.867907,538.835771)">
				<text style="font-family: Helvetica; font-size: 10px;fill: rgb(0%,0%,0%); stroke:none;" transform="translate(0,0) scale(1,-1)" x="0" y="0">Gene_00754</text>
			</g>
			<g transform=" matrix(0.707107,-0.707107,0.707107,0.707107,1101.119011,456.833521)">
				<text style="font-family: Helvetica; font-size: 10px;fill: rgb(0%,0%,0%); stroke:none;" transform="translate(0,0) scale(1,-1)" x="0" y="0">Gene_00755</text>
			</g>
			<g transform=" matrix(0.707107,0.707107,-0.707107,0.707107,1154.321452,538.835771)">
				<text style="font-family: Helvetica; font-size: 10px;fill: rgb(0%,0%,0%); stroke:none;" transform="translate(0,0) scale(1,-1)" x="0" y="0">Gene_00756</text>
			</g>
			<g transform=" matrix(0.707107,0.707107,-0.707107,0.707107,1205.869931,538.835771)">
				<text style="font-family: Helvetica; font-size: 10px;fill: rgb(0%,0%,0%); stroke:none;" transform="translate(0,0) scale(1,-1)" x="0" y="0">Gene_00757</text>
			</g>
			<g transform=" matrix(0.707107,0.707107,-0.707107,0.707107,1261.057127,538.835771)">
				<text style="font-family: Helvetica; font-size: 10px;fill: rgb(0%,0%,0%); stroke:none;" transform="translate(0,0) scale(1,-1)" x="0" y="0">Gene_00758</text>
			</g>
			<g transform=" matrix(0.707107,0.707107,-0.707107,0.707107,1323.439056,538.835771)">
				<text style="font-family: Helvetica; font-size: 10px;fill: rgb(0%,0%,0%); stroke:none;" transform="translate(0,0) scale(1,-1)" x="0" y="0">Gene_00759</text>
			</g>
			<g transform=" matrix(1,0,-0,1,70,456.833521)">
				<text style="font-family: Helvetica; font-size: 12px;fill: rgb(60%,60%,60%); stroke:none;" transform="translate(0,0) scale(1,-1)" x="0" y="0">megahit_43842 (left 36456bp, right 15273bp)</text>
			</g>
		</g>
	</g>
</svg>
