<?xml version="1.0" encoding="utf-8"?>
<!DOCTYPE svg
  PUBLIC '-//W3C//DTD SVG 1.0//EN'
  'http://www.w3.org/TR/2001/REC-SVG-20010904/DTD/svg10.dtd'>
<svg fill-rule="evenodd" height="708.6614173228346" preserveAspectRatio="xMinYMin meet" version="1.0" viewBox="0 0 1417 708" width="1417.3228346456692" xmlns="http://www.w3.org/2000/svg" xmlns:xlink="http://www.w3.org/1999/xlink">
	<title>...</title>
	<desc>...</desc>
	<clipPath id="clip">
		<rect height="708.6614173228346" width="1417.3228346456692" x="0" y="0"/>
	</clipPath>
	<g id="group" style="clip-path: url(#clip)" transform="scale(1,-1) translate(0,-708)">
		<g transform="">
			<polygon points="70.86614 169.8256, 893.5329 169.8256, 893.5329 251.8279, 70.86614 251.8279" style="stroke: rgb(96%,96%,96%); stroke-linecap: butt; stroke-width: 1; fill: rgb(96%,96%,96%); fill-rule: evenodd;"/>
			<polygon points="70.86614 456.8335, 1346.4 456.8335, 1346.4 538.8358, 70.86614 538.8358" style="stroke: rgb(96%,96%,96%); stroke-linecap: butt; stroke-width: 1; fill: rgb(96%,96%,96%); fill-rule: evenodd;"/>
			<polygon points="683.0977 456.8335, 724.1238 456.8335, 613.6298 251.8279, 654.6559 251.8279" style="stroke: rgb(100%,44%,44%); stroke-linecap: round; stroke-width: 1; fill: rgb(100%,44%,44%); fill-rule: evenodd;"/>
			<polygon points="642.6359 456.8335, 677.9624 456.8335, 710.6365 251.8279, 745.963 251.8279" style="stroke: rgb(100%,47%,47%); stroke-linecap: round; stroke-width: 1; fill: rgb(100%,47%,47%); fill-rule: evenodd;"/>
			<polygon points="725.5346 456.8335, 759.281 456.8335, 570.7414 251.8279, 604.4878 251.8279" style="stroke: rgb(100%,56%,56%); stroke-linecap: round; stroke-width: 1; fill: rgb(100%,56%,56%); fill-rule: evenodd;"/>
			<polygon points="73.06699 241.5776, 95.04035 241.5776, 95.04035 251.8279, 111.4408 231.3273, 95.04035 210.8268, 95.04035 221.0771, 73.06699 221.0771" style="stroke: rgb(67%,84%,90%); stroke-linecap: round; stroke-width: 1; fill: rgb(67%,84%,90%); fill-rule: evenodd;"/>
			<polygon points="113.7545 241.5776, 113.7545 251.8279, 121.3164 231.3273, 113.7545 210.8268, 113.7545 221.0771" style="stroke: rgb(67%,84%,90%); stroke-linecap: round; stroke-width: 1; fill: rgb(67%,84%,90%); fill-rule: evenodd;"/>
			<polygon points="129.9505 241.5776, 189.8462 241.5776, 189.8462 251.8279, 206.2467 231.3273, 189.8462 210.8268, 189.8462 221.0771, 129.9505 221.0771" style="stroke: rgb(67%,84%,90%); stroke-linecap: round; stroke-width: 1; fill: rgb(67%,84%,90%); fill-rule: evenodd;"/>
			<polygon points="210.0276 241.5776, 210.5004 241.5776, 210.5004 251.8279, 226.9008 231.3273, 210.5004 210.8268, 210.5004 221.0771, 210.0276 221.0771" style="stroke: rgb(67%,84%,90%); stroke-linecap: round; stroke-width: 1; fill: rgb(67%,84%,90%); fill-rule: evenodd;"/>
			<polygon points="227.8037 241.5776, 237.9264 241.5776, 237.9264 251.8279, 254.3268 231.3273, 237.9264 210.8268, 237.9264 221.0771, 227.8037 221.0771" style="stroke: rgb(67%,84%,90%); stroke-linecap: round; stroke-width: 1; fill: rgb(67%,84%,90%); fill-rule: evenodd;"/>
			<polygon points="257.487 241.5776, 301.2996 241.5776, 301.2996 251.8279, 317.7 231.3273, 301.2996 210.8268, 301.2996 221.0771, 257.487 221.0771" style="stroke: rgb(67%,84%,90%); stroke-linecap: round; stroke-width: 1; fill: rgb(67%,84%,90%); fill-rule: evenodd;"/>
			<polygon points="318.3208 241.5776, 362.4719 241.5776, 362.4719 251.8279, 378.8724 231.3273, 362.4719 210.8268, 362.4719 221.0771, 318.3208 221.0771" style="stroke: rgb(67%,84%,90%); stroke-linecap: round; stroke-width: 1; fill: rgb(67%,84%,90%); fill-rule: evenodd;"/>
			<polygon points="439.819 200.5765, 401.5932 200.5765, 401.5932 210.8268, 385.1928 190.3262, 401.5932 169.8256, 401.5932 180.0759, 439.819 180.0759" style="stroke: rgb(56%,93%,56%); stroke-linecap: round; stroke-width: 1; fill: rgb(56%,93%,56%); fill-rule: evenodd;"/>
			<polygon points="450.0897 241.5776, 454.1176 241.5776, 454.1176 251.8279, 470.5181 231.3273, 454.1176 210.8268, 454.1176 221.0771, 450.0897 221.0771" style="stroke: rgb(67%,84%,90%); stroke-linecap: round; stroke-width: 1; fill: rgb(67%,84%,90%); fill-rule: evenodd;"/>
			<polygon points="469.9538 241.5776, 499.5454 241.5776, 499.5454 251.8279, 515.9459 231.3273, 499.5454 210.8268, 499.5454 221.0771, 469.9538 221.0771" style="stroke: rgb(67%,84%,90%); stroke-linecap: round; stroke-width: 1; fill: rgb(67%,84%,90%); fill-rule: evenodd;"/>
			<polygon points="517.921 241.5776, 539.0479 241.5776, 539.0479 251.8279, 555.4483 231.3273, 539.0479 210.8268, 539.0479 221.0771, 517.921 221.0771" style="stroke: rgb(67%,84%,90%); stroke-linecap: round; stroke-width: 1; fill: rgb(67%,84%,90%); fill-rule: evenodd;"/>
			<polygon points="570.9107 241.5776, 590.0061 241.5776, 590.0061 251.8279, 606.4065 231.3273, 590.0061 210.8268, 590.0061 221.0771, 570.9107 221.0771" style="stroke: rgb(67%,84%,90%); stroke-linecap: round; stroke-width: 1; fill: rgb(67%,84%,90%); fill-rule: evenodd;"/>
			<polygon points="613.6298 241.5776, 642.2057 241.5776, 642.2057 251.8279, 658.6062 231.3273, 642.2057 210.8268, 642.2057 221.0771, 613.6298 221.0771" style="stroke: rgb(67%,84%,90%); stroke-linecap: round; stroke-width: 1; fill: rgb(67%,84%,90%); fill-rule: evenodd;"/>
			<polygon points="658.4369 241.5776, 692.9382 241.5776, 692.9382 251.8279, 709.3386 231.3273, 692.9382 210.8268, 692.9382 221.0771, 658.4369 221.0771" style="stroke: rgb(67%,84%,90%); stroke-linecap: round; stroke-width: 1; fill: rgb(67%,84%,90%); fill-rule: evenodd;"/>
			<polygon points="708.2664 241.5776, 729.9012 241.5776, 729.9012 251.8279, 746.3016 231.3273, 729.9012 210.8268, 729.9012 221.0771, 708.2664 221.0771" style="stroke: rgb(67%,84%,90%); stroke-linecap: round; stroke-width: 1; fill: rgb(67%,84%,90%); fill-rule: evenodd;"/>
			<polygon points="749.4618 241.5776, 824.9328 241.5776, 824.9328 251.8279, 841.3332 231.3273, 824.9328 210.8268, 824.9328 221.0771, 749.4618 221.0771" style="stroke: rgb(67%,84%,90%); stroke-linecap: round; stroke-width: 1; fill: rgb(67%,84%,90%); fill-rule: evenodd;"/>
			<polygon points="889.9212 200.5765, 889.9212 210.8268, 875.2489 190.3262, 889.9212 169.8256, 889.9212 180.0759" style="stroke: rgb(56%,93%,56%); stroke-linecap: round; stroke-width: 1; fill: rgb(56%,93%,56%); fill-rule: evenodd;"/>
			<polygon points="153.0877 487.5844, 87.26659 487.5844, 87.26659 497.8346, 70.86614 477.3341, 87.26659 456.8335, 87.26659 467.0838, 153.0877 467.0838" style="stroke: rgb(56%,93%,56%); stroke-linecap: round; stroke-width: 1; fill: rgb(56%,93%,56%); fill-rule: evenodd;"/>
			<polygon points="159.916 528.5855, 201.3584 528.5855, 201.3584 538.8358, 217.7588 518.3352, 201.3584 497.8346, 201.3584 508.0849, 159.916 508.0849" style="stroke: rgb(67%,84%,90%); stroke-linecap: round; stroke-width: 1; fill: rgb(67%,84%,90%); fill-rule: evenodd;"/>
			<polygon points="288.0168 487.5844, 240.649 487.5844, 240.649 497.8346, 224.2485 477.3341, 240.649 456.8335, 240.649 467.0838, 288.0168 467.0838" style="stroke: rgb(56%,93%,56%); stroke-linecap: round; stroke-width: 1; fill: rgb(56%,93%,56%); fill-rule: evenodd;"/>
			<polygon points="304.8899 528.5855, 529.1723 528.5855, 529.1723 538.8358, 545.5727 518.3352, 529.1723 497.8346, 529.1723 508.0849, 304.8899 508.0849" style="stroke: rgb(67%,84%,90%); stroke-linecap: round; stroke-width: 1; fill: rgb(67%,84%,90%); fill-rule: evenodd;"/>
			<polygon points="641.1687 487.5844, 566.2056 487.5844, 566.2056 497.8346, 549.8051 477.3341, 566.2056 456.8335, 566.2056 467.0838, 641.1687 467.0838" style="stroke: rgb(56%,93%,56%); stroke-linecap: round; stroke-width: 1; fill: rgb(56%,93%,56%); fill-rule: evenodd;"/>
			<polygon points="680.3325 487.5844, 657.1741 487.5844, 657.1741 497.8346, 640.7736 477.3341, 657.1741 456.8335, 657.1741 467.0838, 680.3325 467.0838" style="stroke: rgb(56%,93%,56%); stroke-linecap: round; stroke-width: 1; fill: rgb(56%,93%,56%); fill-rule: evenodd;"/>
			<polygon points="724.1238 487.5844, 697.5794 487.5844, 697.5794 497.8346, 681.179 477.3341, 697.5794 456.8335, 697.5794 467.0838, 724.1238 467.0838" style="stroke: rgb(56%,93%,56%); stroke-linecap: round; stroke-width: 1; fill: rgb(56%,93%,56%); fill-rule: evenodd;"/>
			<polygon points="759.1117 487.5844, 740.5243 487.5844, 740.5243 497.8346, 724.1238 477.3341, 740.5243 456.8335, 740.5243 467.0838, 759.1117 467.0838" style="stroke: rgb(56%,93%,56%); stroke-linecap: round; stroke-width: 1; fill: rgb(56%,93%,56%); fill-rule: evenodd;"/>
			<polygon points="847.2022 487.5844, 780.7039 487.5844, 780.7039 497.8346, 764.3034 477.3341, 780.7039 456.8335, 780.7039 467.0838, 847.2022 467.0838" style="stroke: rgb(56%,93%,56%); stroke-linecap: round; stroke-width: 1; fill: rgb(56%,93%,56%); fill-rule: evenodd;"/>
			<polygon points="885.4067 487.5844, 863.4333 487.5844, 863.4333 497.8346, 847.0329 477.3341, 863.4333 456.8335, 863.4333 467.0838, 885.4067 467.0838" style="stroke: rgb(56%,93%,56%); stroke-linecap: round; stroke-width: 1; fill: rgb(56%,93%,56%); fill-rule: evenodd;"/>
			<polygon points="896.1288 528.5855, 908.6215 528.5855, 908.6215 538.8358, 925.022 518.3352, 908.6215 497.8346, 908.6215 508.0849, 896.1288 508.0849" style="stroke: rgb(67%,84%,90%); stroke-linecap: round; stroke-width: 1; fill: rgb(67%,84%,90%); fill-rule: evenodd;"/>
			<polygon points="924.8527 528.5855, 983.9019 528.5855, 983.9019 538.8358, 1000.302 518.3352, 983.9019 497.8346, 983.9019 508.0849, 924.8527 508.0849" style="stroke: rgb(67%,84%,90%); stroke-linecap: round; stroke-width: 1; fill: rgb(67%,84%,90%); fill-rule: evenodd;"/>
			<polygon points="1011.194 528.5855, 1058.9 528.5855, 1058.9 538.8358, 1075.301 518.3352, 1058.9 497.8346, 1058.9 508.0849, 1011.194 508.0849" style="stroke: rgb(67%,84%,90%); stroke-linecap: round; stroke-width: 1; fill: rgb(67%,84%,90%); fill-rule: evenodd;"/>
			<polygon points="1076.486 528.5855, 1098.967 528.5855, 1098.967 538.8358, 1115.367 518.3352, 1098.967 497.8346, 1098.967 508.0849, 1076.486 508.0849" style="stroke: rgb(67%,84%,90%); stroke-linecap: round; stroke-width: 1; fill: rgb(67%,84%,90%); fill-rule: evenodd;"/>
			<polygon points="1116.157 528.5855, 1120.524 528.5855, 1120.524 538.8358, 1136.924 518.3352, 1120.524 497.8346, 1120.524 508.0849, 1116.157 508.0849" style="stroke: rgb(67%,84%,90%); stroke-linecap: round; stroke-width: 1; fill: rgb(67%,84%,90%); fill-rule: evenodd;"/>
			<polygon points="1137.319 528.5855, 1170.805 528.5855, 1170.805 538.8358, 1187.205 518.3352, 1170.805 497.8346, 1170.805 508.0849, 1137.319 508.0849" style="stroke: rgb(67%,84%,90%); stroke-linecap: round; stroke-width: 1; fill: rgb(67%,84%,90%); fill-rule: evenodd;"/>
			<polygon points="1224.902 487.5844, 1208.177 487.5844, 1208.177 497.8346, 1191.776 477.3341, 1208.177 456.8335, 1208.177 467.0838, 1224.902 467.0838" style="stroke: rgb(56%,93%,56%); stroke-linecap: round; stroke-width: 1; fill: rgb(56%,93%,56%); fill-rule: evenodd;"/>
			<polygon points="1233.988 528.5855, 1244.618 528.5855, 1244.618 538.8358, 1261.019 518.3352, 1244.618 497.8346, 1244.618 508.0849, 1233.988 508.0849" style="stroke: rgb(67%,84%,90%); stroke-linecap: round; stroke-width: 1; fill: rgb(67%,84%,90%); fill-rule: evenodd;"/>
			<polygon points="1346.4 487.5844, 1280.579 487.5844, 1280.579 497.8346, 1264.179 477.3341, 1280.579 456.8335, 1280.579 467.0838, 1346.4 467.0838" style="stroke: rgb(56%,93%,56%); stroke-linecap: round; stroke-width: 1; fill: rgb(56%,93%,56%); fill-rule: evenodd;"/>
			<path d="M 893.532885,169.825647 L 893.532885,251.827897 Z" style="stroke: rgb(0%,0%,0%); stroke-linecap: butt; stroke-width: 1;"/>
			<path d="M 70.866142,210.826772 L 893.532885,210.826772 Z" style="stroke: rgb(0%,0%,0%); stroke-linecap: butt; stroke-width: 1;"/>
			<path d="M 70.866142,169.825647 L 70.866142,251.827897 Z" style="stroke: rgb(0%,0%,0%); stroke-linecap: butt; stroke-width: 1;"/>
			<path d="M 635.18686,210.826772 L 635.18686,231.327334 Z" style="stroke: rgb(0%,0%,0%); stroke-linecap: butt; stroke-width: 1;"/>
			<path d="M 635.18686,210.826772 L 635.18686,223.127109 Z" style="stroke: rgb(0%,0%,0%); stroke-linecap: butt; stroke-width: 1;"/>
			<path d="M 1346.400261,456.833521 L 1346.400261,538.835771 Z" style="stroke: rgb(0%,0%,0%); stroke-linecap: butt; stroke-width: 1;"/>
			<path d="M 70.866142,497.834646 L 1346.400261,497.834646 Z" style="stroke: rgb(0%,0%,0%); stroke-linecap: butt; stroke-width: 1;"/>
			<path d="M 70.866142,456.833521 L 70.866142,538.835771 Z" style="stroke: rgb(0%,0%,0%); stroke-linecap: butt; stroke-width: 1;"/>
			<path d="M 635.18686,497.834646 L 635.18686,518.335208 Z" style="stroke: rgb(0%,0%,0%); stroke-linecap: butt; stroke-width: 1;"/>
			<path d="M 1199.507578,497.834646 L 1199.507578,518.335208 Z" style="stroke: rgb(0%,0%,0%); stroke-linecap: butt; stroke-width: 1;"/>
			<path d="M 635.18686,497.834646 L 635.18686,510.134983 Z" style="stroke: rgb(0%,0%,0%); stroke-linecap: butt; stroke-width: 1;"/>
			<path d="M 1199.507578,497.834646 L 1199.507578,510.134983 Z" style="stroke: rgb(0%,0%,0%); stroke-linecap: butt; stroke-width: 1;"/>
			<g transform=" matrix(0.707107,0.707107,-0.707107,0.707107,635.18686,231.327334)">
				<text style="font-family: Helvetica; font-size: 6px;fill: rgb(0%,0%,0%); stroke:none;" transform="translate(0,0) scale(1,-1)" x="0" y="0">10000</text>
			</g>
			<g transform=" matrix(0.707107,0.707107,-0.707107,0.707107,635.18686,518.335208)">
				<text style="font-family: Helvetica; font-size: 6px;fill: rgb(0%,0%,0%); stroke:none;" transform="translate(0,0) scale(1,-1)" x="0" y="0">10000</text>
			</g>
			<g transform=" matrix(0.707107,0.707107,-0.707107,0.707107,1199.507578,518.335208)">
				<text style="font-family: Helvetica; font-size: 6px;fill: rgb(0%,0%,0%); stroke:none;" transform="translate(0,0) scale(1,-1)" x="0" y="0">20000</text>
			</g>
			<g transform=" matrix(0.707107,0.707107,-0.707107,0.707107,92.253897,251.827897)">
				<text style="font-family: Helvetica; font-size: 10px;fill: rgb(0%,0%,0%); stroke:none;" transform="translate(0,0) scale(1,-1)" x="0" y="0">Gene_01957</text>
			</g>
			<g transform=" matrix(0.707107,0.707107,-0.707107,0.707107,117.535465,251.827897)">
				<text style="font-family: Helvetica; font-size: 10px;fill: rgb(0%,0%,0%); stroke:none;" transform="translate(0,0) scale(1,-1)" x="0" y="0">Gene_01958</text>
			</g>
			<g transform=" matrix(0.707107,0.707107,-0.707107,0.707107,168.098601,251.827897)">
				<text style="font-family: Helvetica; font-size: 10px;fill: rgb(0%,0%,0%); stroke:none;" transform="translate(0,0) scale(1,-1)" x="0" y="0">Gene_01959</text>
			</g>
			<g transform=" matrix(0.707107,0.707107,-0.707107,0.707107,218.464226,251.827897)">
				<text style="font-family: Helvetica; font-size: 10px;fill: rgb(0%,0%,0%); stroke:none;" transform="translate(0,0) scale(1,-1)" x="0" y="0">Gene_01960</text>
			</g>
			<g transform=" matrix(0.707107,0.707107,-0.707107,0.707107,241.06527,251.827897)">
				<text style="font-family: Helvetica; font-size: 10px;fill: rgb(0%,0%,0%); stroke:none;" transform="translate(0,0) scale(1,-1)" x="0" y="0">Gene_01961</text>
			</g>
			<g transform=" matrix(0.707107,0.707107,-0.707107,0.707107,287.593514,251.827897)">
				<text style="font-family: Helvetica; font-size: 10px;fill: rgb(0%,0%,0%); stroke:none;" transform="translate(0,0) scale(1,-1)" x="0" y="0">Gene_01962</text>
			</g>
			<g transform=" matrix(0.707107,0.707107,-0.707107,0.707107,348.596583,251.827897)">
				<text style="font-family: Helvetica; font-size: 10px;fill: rgb(0%,0%,0%); stroke:none;" transform="translate(0,0) scale(1,-1)" x="0" y="0">Gene_01963</text>
			</g>
			<g transform=" matrix(0.707107,-0.707107,0.707107,0.707107,412.505904,169.825647)">
				<text style="font-family: Helvetica; font-size: 10px;fill: rgb(0%,0%,0%); stroke:none;" transform="translate(0,0) scale(1,-1)" x="0" y="0">Gene_01964</text>
			</g>
			<g transform=" matrix(0.707107,0.707107,-0.707107,0.707107,460.303869,251.827897)">
				<text style="font-family: Helvetica; font-size: 10px;fill: rgb(0%,0%,0%); stroke:none;" transform="translate(0,0) scale(1,-1)" x="0" y="0">Gene_01965</text>
			</g>
			<g transform=" matrix(0.707107,0.707107,-0.707107,0.707107,492.949823,251.827897)">
				<text style="font-family: Helvetica; font-size: 10px;fill: rgb(0%,0%,0%); stroke:none;" transform="translate(0,0) scale(1,-1)" x="0" y="0">Gene_01966</text>
			</g>
			<g transform=" matrix(0.707107,0.707107,-0.707107,0.707107,536.684678,251.827897)">
				<text style="font-family: Helvetica; font-size: 10px;fill: rgb(0%,0%,0%); stroke:none;" transform="translate(0,0) scale(1,-1)" x="0" y="0">Gene_01967</text>
			</g>
			<g transform=" matrix(0.707107,0.707107,-0.707107,0.707107,588.658617,251.827897)">
				<text style="font-family: Helvetica; font-size: 10px;fill: rgb(0%,0%,0%); stroke:none;" transform="translate(0,0) scale(1,-1)" x="0" y="0">Gene_01968</text>
			</g>
			<g transform=" matrix(0.707107,0.707107,-0.707107,0.707107,636.117989,251.827897)">
				<text style="font-family: Helvetica; font-size: 16px;fill: rgb(0%,0%,100%); stroke:none;" transform="translate(0,0) scale(1,-1)" x="0" y="0">Gene_01969 (77.9)</text>
			</g>
			<g transform=" matrix(0.707107,0.707107,-0.707107,0.707107,683.887738,251.827897)">
				<text style="font-family: Helvetica; font-size: 10px;fill: rgb(0%,0%,0%); stroke:none;" transform="translate(0,0) scale(1,-1)" x="0" y="0">Gene_01970</text>
			</g>
			<g transform=" matrix(0.707107,0.707107,-0.707107,0.707107,727.284001,251.827897)">
				<text style="font-family: Helvetica; font-size: 10px;fill: rgb(0%,0%,0%); stroke:none;" transform="translate(0,0) scale(1,-1)" x="0" y="0">Gene_01971</text>
			</g>
			<g transform=" matrix(0.707107,0.707107,-0.707107,0.707107,795.397512,251.827897)">
				<text style="font-family: Helvetica; font-size: 10px;fill: rgb(0%,0%,0%); stroke:none;" transform="translate(0,0) scale(1,-1)" x="0" y="0">Gene_01972</text>
			</g>
			<g transform=" matrix(0.707107,-0.707107,0.707107,0.707107,882.585063,169.825647)">
				<text style="font-family: Helvetica; font-size: 10px;fill: rgb(0%,0%,0%); stroke:none;" transform="translate(0,0) scale(1,-1)" x="0" y="0">Gene_01973</text>
			</g>
			<g transform=" matrix(0.707107,-0.707107,0.707107,0.707107,111.976906,456.833521)">
				<text style="font-family: Helvetica; font-size: 10px;fill: rgb(0%,0%,0%); stroke:none;" transform="translate(0,0) scale(1,-1)" x="0" y="0">Gene_00805</text>
			</g>
			<g transform=" matrix(0.707107,0.707107,-0.707107,0.707107,188.837388,538.835771)">
				<text style="font-family: Helvetica; font-size: 10px;fill: rgb(0%,0%,0%); stroke:none;" transform="translate(0,0) scale(1,-1)" x="0" y="0">Gene_00806</text>
			</g>
			<g transform=" matrix(0.707107,-0.707107,0.707107,0.707107,256.132633,456.833521)">
				<text style="font-family: Helvetica; font-size: 10px;fill: rgb(0%,0%,0%); stroke:none;" transform="translate(0,0) scale(1,-1)" x="0" y="0">Gene_00807</text>
			</g>
			<g transform=" matrix(0.707107,0.707107,-0.707107,0.707107,425.231337,538.835771)">
				<text style="font-family: Helvetica; font-size: 10px;fill: rgb(0%,0%,0%); stroke:none;" transform="translate(0,0) scale(1,-1)" x="0" y="0">Gene_00808</text>
			</g>
			<g transform=" matrix(0.707107,-0.707107,0.707107,0.707107,595.486897,456.833521)">
				<text style="font-family: Helvetica; font-size: 10px;fill: rgb(0%,0%,0%); stroke:none;" transform="translate(0,0) scale(1,-1)" x="0" y="0">Gene_00809</text>
			</g>
			<g transform=" matrix(0.707107,-0.707107,0.707107,0.707107,660.553076,456.833521)">
				<text style="font-family: Helvetica; font-size: 10px;fill: rgb(0%,0%,0%); stroke:none;" transform="translate(0,0) scale(1,-1)" x="0" y="0">Gene_00810</text>
			</g>
			<g transform=" matrix(0.707107,-0.707107,0.707107,0.707107,702.651402,456.833521)">
				<text style="font-family: Helvetica; font-size: 16px;fill: rgb(0%,0%,100%); stroke:none;" transform="translate(0,0) scale(1,-1)" x="0" y="0">Gene_00811 (77.9)</text>
			</g>
			<g transform=" matrix(0.707107,-0.707107,0.707107,0.707107,741.617747,456.833521)">
				<text style="font-family: Helvetica; font-size: 10px;fill: rgb(0%,0%,0%); stroke:none;" transform="translate(0,0) scale(1,-1)" x="0" y="0">Gene_00812</text>
			</g>
			<g transform=" matrix(0.707107,-0.707107,0.707107,0.707107,805.752797,456.833521)">
				<text style="font-family: Helvetica; font-size: 10px;fill: rgb(0%,0%,0%); stroke:none;" transform="translate(0,0) scale(1,-1)" x="0" y="0">Gene_00813</text>
			</g>
			<g transform=" matrix(0.707107,-0.707107,0.707107,0.707107,866.219762,456.833521)">
				<text style="font-family: Helvetica; font-size: 10px;fill: rgb(0%,0%,0%); stroke:none;" transform="translate(0,0) scale(1,-1)" x="0" y="0">Gene_00814</text>
			</g>
			<g transform=" matrix(0.707107,0.707107,-0.707107,0.707107,910.57537,538.835771)">
				<text style="font-family: Helvetica; font-size: 10px;fill: rgb(0%,0%,0%); stroke:none;" transform="translate(0,0) scale(1,-1)" x="0" y="0">Gene_00815</text>
			</g>
			<g transform=" matrix(0.707107,0.707107,-0.707107,0.707107,962.577524,538.835771)">
				<text style="font-family: Helvetica; font-size: 10px;fill: rgb(0%,0%,0%); stroke:none;" transform="translate(0,0) scale(1,-1)" x="0" y="0">Gene_00816</text>
			</g>
			<g transform=" matrix(0.707107,0.707107,-0.707107,0.707107,1043.247171,538.835771)">
				<text style="font-family: Helvetica; font-size: 10px;fill: rgb(0%,0%,0%); stroke:none;" transform="translate(0,0) scale(1,-1)" x="0" y="0">Gene_00817</text>
			</g>
			<g transform=" matrix(0.707107,0.707107,-0.707107,0.707107,1095.92651,538.835771)">
				<text style="font-family: Helvetica; font-size: 10px;fill: rgb(0%,0%,0%); stroke:none;" transform="translate(0,0) scale(1,-1)" x="0" y="0">Gene_00818</text>
			</g>
			<g transform=" matrix(0.707107,0.707107,-0.707107,0.707107,1126.540909,538.835771)">
				<text style="font-family: Helvetica; font-size: 10px;fill: rgb(0%,0%,0%); stroke:none;" transform="translate(0,0) scale(1,-1)" x="0" y="0">Gene_00819</text>
			</g>
			<g transform=" matrix(0.707107,0.707107,-0.707107,0.707107,1162.262411,538.835771)">
				<text style="font-family: Helvetica; font-size: 10px;fill: rgb(0%,0%,0%); stroke:none;" transform="translate(0,0) scale(1,-1)" x="0" y="0">Gene_00820</text>
			</g>
			<g transform=" matrix(0.707107,-0.707107,0.707107,0.707107,1208.339197,456.833521)">
				<text style="font-family: Helvetica; font-size: 10px;fill: rgb(0%,0%,0%); stroke:none;" transform="translate(0,0) scale(1,-1)" x="0" y="0">Gene_00821</text>
			</g>
			<g transform=" matrix(0.707107,0.707107,-0.707107,0.707107,1247.503055,538.835771)">
				<text style="font-family: Helvetica; font-size: 10px;fill: rgb(0%,0%,0%); stroke:none;" transform="translate(0,0) scale(1,-1)" x="0" y="0">Gene_00822</text>
			</g>
			<g transform=" matrix(0.707107,-0.707107,0.707107,0.707107,1305.289497,456.833521)">
				<text style="font-family: Helvetica; font-size: 10px;fill: rgb(0%,0%,0%); stroke:none;" transform="translate(0,0) scale(1,-1)" x="0" y="0">Gene_00823</text>
			</g>
			<g transform=" matrix(1,0,-0,1,70,169.825647)">
				<text style="font-family: Helvetica; font-size: 12px;fill: rgb(60%,60%,60%); stroke:none;" transform="translate(0,0) scale(1,-1)" x="0" y="0">megahit_59381 (left 9618bp, right 4163bp)</text>
			</g>
			<g transform=" matrix(1,0,-0,1,70,456.833521)">
				<text style="font-family: Helvetica; font-size: 12px;fill: rgb(60%,60%,60%); stroke:none;" transform="translate(0,0) scale(1,-1)" x="0" y="0">megahit_17572 (left 132061bp, right 106202bp)</text>
			</g>
		</g>
	</g>
</svg>
