<?xml version="1.0" encoding="utf-8"?>
<!DOCTYPE svg
  PUBLIC '-//W3C//DTD SVG 1.0//EN'
  'http://www.w3.org/TR/2001/REC-SVG-20010904/DTD/svg10.dtd'>
<svg fill-rule="evenodd" height="708.6614173228346" preserveAspectRatio="xMinYMin meet" version="1.0" viewBox="0 0 1417 708" width="1417.3228346456692" xmlns="http://www.w3.org/2000/svg" xmlns:xlink="http://www.w3.org/1999/xlink">
	<title>...</title>
	<desc>...</desc>
	<clipPath id="clip">
		<rect height="708.6614173228346" width="1417.3228346456692" x="0" y="0"/>
	</clipPath>
	<g id="group" style="clip-path: url(#clip)" transform="scale(1,-1) translate(0,-708)">
		<g transform="">
			<polygon points="70.86614 169.8256, 853.4528 169.8256, 853.4528 251.8279, 70.86614 251.8279" style="stroke: rgb(96%,96%,96%); stroke-linecap: butt; stroke-width: 1; fill: rgb(96%,96%,96%); fill-rule: evenodd;"/>
			<polygon points="70.86614 456.8335, 1346.4 456.8335, 1346.4 538.8358, 70.86614 538.8358" style="stroke: rgb(96%,96%,96%); stroke-linecap: butt; stroke-width: 1; fill: rgb(96%,96%,96%); fill-rule: evenodd;"/>
			<polygon points="488.0935 456.8335, 1112.451 456.8335, 695.0525 251.8279, 70.9232 251.8279" style="stroke: rgb(100%,3%,3%); stroke-linecap: round; stroke-width: 1; fill: rgb(100%,3%,3%); fill-rule: evenodd;"/>
			<polygon points="87.47079 241.5776, 129.8999 241.5776, 129.8999 251.8279, 146.3003 231.3273, 129.8999 210.8268, 129.8999 221.0771, 87.47079 221.0771" style="stroke: rgb(67%,84%,90%); stroke-linecap: round; stroke-width: 1; fill: rgb(67%,84%,90%); fill-rule: evenodd;"/>
			<polygon points="207.0699 200.5765, 169.7763 200.5765, 169.7763 210.8268, 153.3758 190.3262, 169.7763 169.8256, 169.7763 180.0759, 207.0699 180.0759" style="stroke: rgb(56%,93%,56%); stroke-linecap: round; stroke-width: 1; fill: rgb(56%,93%,56%); fill-rule: evenodd;"/>
			<polygon points="224.074 241.5776, 236.8885 241.5776, 236.8885 251.8279, 253.289 231.3273, 236.8885 210.8268, 236.8885 221.0771, 224.074 221.0771" style="stroke: rgb(67%,84%,90%); stroke-linecap: round; stroke-width: 1; fill: rgb(67%,84%,90%); fill-rule: evenodd;"/>
			<polygon points="278.3957 241.5776, 330.2398 241.5776, 330.2398 251.8279, 346.6402 231.3273, 330.2398 210.8268, 330.2398 221.0771, 278.3957 221.0771" style="stroke: rgb(67%,84%,90%); stroke-linecap: round; stroke-width: 1; fill: rgb(67%,84%,90%); fill-rule: evenodd;"/>
			<polygon points="346.469 241.5776, 406.5298 241.5776, 406.5298 251.8279, 422.9303 231.3273, 406.5298 210.8268, 406.5298 221.0771, 346.469 221.0771" style="stroke: rgb(67%,84%,90%); stroke-linecap: round; stroke-width: 1; fill: rgb(67%,84%,90%); fill-rule: evenodd;"/>
			<polygon points="428.9216 241.5776, 442.2498 241.5776, 442.2498 251.8279, 458.6502 231.3273, 442.2498 210.8268, 442.2498 221.0771, 428.9216 221.0771" style="stroke: rgb(67%,84%,90%); stroke-linecap: round; stroke-width: 1; fill: rgb(67%,84%,90%); fill-rule: evenodd;"/>
			<polygon points="459.9056 241.5776, 469.8101 241.5776, 469.8101 251.8279, 486.2105 231.3273, 469.8101 210.8268, 469.8101 221.0771, 459.9056 221.0771" style="stroke: rgb(67%,84%,90%); stroke-linecap: round; stroke-width: 1; fill: rgb(67%,84%,90%); fill-rule: evenodd;"/>
			<polygon points="555.5392 200.5765, 508.317 200.5765, 508.317 210.8268, 491.9166 190.3262, 508.317 169.8256, 508.317 180.0759, 555.5392 180.0759" style="stroke: rgb(56%,93%,56%); stroke-linecap: round; stroke-width: 1; fill: rgb(56%,93%,56%); fill-rule: evenodd;"/>
			<polygon points="579.2764 241.5776, 596.8841 241.5776, 596.8841 251.8279, 613.2846 231.3273, 596.8841 210.8268, 596.8841 221.0771, 579.2764 221.0771" style="stroke: rgb(67%,84%,90%); stroke-linecap: round; stroke-width: 1; fill: rgb(67%,84%,90%); fill-rule: evenodd;"/>
			<polygon points="629.4898 241.5776, 678.7661 241.5776, 678.7661 251.8279, 695.1666 231.3273, 678.7661 210.8268, 678.7661 221.0771, 629.4898 221.0771" style="stroke: rgb(67%,84%,90%); stroke-linecap: round; stroke-width: 1; fill: rgb(67%,84%,90%); fill-rule: evenodd;"/>
			<polygon points="706.9211 241.5776, 756.711 241.5776, 756.711 251.8279, 773.1114 231.3273, 756.711 210.8268, 756.711 221.0771, 706.9211 221.0771" style="stroke: rgb(67%,84%,90%); stroke-linecap: round; stroke-width: 1; fill: rgb(67%,84%,90%); fill-rule: evenodd;"/>
			<polygon points="853.4528 200.5765, 794.0767 200.5765, 794.0767 210.8268, 777.6763 190.3262, 794.0767 169.8256, 794.0767 180.0759, 853.4528 180.0759" style="stroke: rgb(56%,93%,56%); stroke-linecap: round; stroke-width: 1; fill: rgb(56%,93%,56%); fill-rule: evenodd;"/>
			<polygon points="80.28115 528.5855, 165.6769 528.5855, 165.6769 538.8358, 182.0773 518.3352, 165.6769 497.8346, 165.6769 508.0849, 80.28115 508.0849" style="stroke: rgb(67%,84%,90%); stroke-linecap: round; stroke-width: 1; fill: rgb(67%,84%,90%); fill-rule: evenodd;"/>
			<polygon points="194.6307 487.5844, 194.6307 497.8346, 186.6422 477.3341, 194.6307 456.8335, 194.6307 467.0838" style="stroke: rgb(56%,93%,56%); stroke-linecap: round; stroke-width: 1; fill: rgb(56%,93%,56%); fill-rule: evenodd;"/>
			<polygon points="208.0399 528.5855, 267.7584 528.5855, 267.7584 538.8358, 284.1588 518.3352, 267.7584 497.8346, 267.7584 508.0849, 208.0399 508.0849" style="stroke: rgb(67%,84%,90%); stroke-linecap: round; stroke-width: 1; fill: rgb(67%,84%,90%); fill-rule: evenodd;"/>
			<polygon points="284.387 528.5855, 324.4196 528.5855, 324.4196 538.8358, 340.82 518.3352, 324.4196 497.8346, 324.4196 508.0849, 284.387 508.0849" style="stroke: rgb(67%,84%,90%); stroke-linecap: round; stroke-width: 1; fill: rgb(67%,84%,90%); fill-rule: evenodd;"/>
			<polygon points="340.82 528.5855, 357.0583 528.5855, 357.0583 538.8358, 373.4587 518.3352, 357.0583 497.8346, 357.0583 508.0849, 340.82 508.0849" style="stroke: rgb(67%,84%,90%); stroke-linecap: round; stroke-width: 1; fill: rgb(67%,84%,90%); fill-rule: evenodd;"/>
			<polygon points="373.6299 528.5855, 396.8866 528.5855, 396.8866 538.8358, 413.287 518.3352, 396.8866 497.8346, 396.8866 508.0849, 373.6299 508.0849" style="stroke: rgb(67%,84%,90%); stroke-linecap: round; stroke-width: 1; fill: rgb(67%,84%,90%); fill-rule: evenodd;"/>
			<polygon points="413.1158 528.5855, 433.1201 528.5855, 433.1201 538.8358, 449.5205 518.3352, 433.1201 497.8346, 433.1201 508.0849, 413.1158 508.0849" style="stroke: rgb(67%,84%,90%); stroke-linecap: round; stroke-width: 1; fill: rgb(67%,84%,90%); fill-rule: evenodd;"/>
			<polygon points="450.6047 528.5855, 481.9069 528.5855, 481.9069 538.8358, 498.3074 518.3352, 481.9069 497.8346, 481.9069 508.0849, 450.6047 508.0849" style="stroke: rgb(67%,84%,90%); stroke-linecap: round; stroke-width: 1; fill: rgb(67%,84%,90%); fill-rule: evenodd;"/>
			<polygon points="504.4129 528.5855, 546.8419 528.5855, 546.8419 538.8358, 563.2424 518.3352, 546.8419 497.8346, 546.8419 508.0849, 504.4129 508.0849" style="stroke: rgb(67%,84%,90%); stroke-linecap: round; stroke-width: 1; fill: rgb(67%,84%,90%); fill-rule: evenodd;"/>
			<polygon points="623.9549 487.5844, 586.6613 487.5844, 586.6613 497.8346, 570.2608 477.3341, 586.6613 456.8335, 586.6613 467.0838, 623.9549 467.0838" style="stroke: rgb(56%,93%,56%); stroke-linecap: round; stroke-width: 1; fill: rgb(56%,93%,56%); fill-rule: evenodd;"/>
			<polygon points="641.4725 528.5855, 654.2871 528.5855, 654.2871 538.8358, 670.6876 518.3352, 654.2871 497.8346, 654.2871 508.0849, 641.4725 508.0849" style="stroke: rgb(67%,84%,90%); stroke-linecap: round; stroke-width: 1; fill: rgb(67%,84%,90%); fill-rule: evenodd;"/>
			<polygon points="695.4519 528.5855, 747.296 528.5855, 747.296 538.8358, 763.6964 518.3352, 747.296 497.8346, 747.296 508.0849, 695.4519 508.0849" style="stroke: rgb(67%,84%,90%); stroke-linecap: round; stroke-width: 1; fill: rgb(67%,84%,90%); fill-rule: evenodd;"/>
			<polygon points="763.5252 528.5855, 823.586 528.5855, 823.586 538.8358, 839.9865 518.3352, 823.586 497.8346, 823.586 508.0849, 763.5252 508.0849" style="stroke: rgb(67%,84%,90%); stroke-linecap: round; stroke-width: 1; fill: rgb(67%,84%,90%); fill-rule: evenodd;"/>
			<polygon points="845.9778 528.5855, 859.306 528.5855, 859.306 538.8358, 875.7064 518.3352, 859.306 497.8346, 859.306 508.0849, 845.9778 508.0849" style="stroke: rgb(67%,84%,90%); stroke-linecap: round; stroke-width: 1; fill: rgb(67%,84%,90%); fill-rule: evenodd;"/>
			<polygon points="876.9618 528.5855, 886.8663 528.5855, 886.8663 538.8358, 903.2667 518.3352, 886.8663 497.8346, 886.8663 508.0849, 876.9618 508.0849" style="stroke: rgb(67%,84%,90%); stroke-linecap: round; stroke-width: 1; fill: rgb(67%,84%,90%); fill-rule: evenodd;"/>
			<polygon points="972.9378 487.5844, 925.7156 487.5844, 925.7156 497.8346, 909.3151 477.3341, 925.7156 456.8335, 925.7156 467.0838, 972.9378 467.0838" style="stroke: rgb(56%,93%,56%); stroke-linecap: round; stroke-width: 1; fill: rgb(56%,93%,56%); fill-rule: evenodd;"/>
			<polygon points="988.8006 487.5844, 988.8006 497.8346, 980.1274 477.3341, 988.8006 456.8335, 988.8006 467.0838" style="stroke: rgb(56%,93%,56%); stroke-linecap: round; stroke-width: 1; fill: rgb(56%,93%,56%); fill-rule: evenodd;"/>
			<polygon points="996.675 528.5855, 1014.283 528.5855, 1014.283 538.8358, 1030.683 518.3352, 1014.283 497.8346, 1014.283 508.0849, 996.675 508.0849" style="stroke: rgb(67%,84%,90%); stroke-linecap: round; stroke-width: 1; fill: rgb(67%,84%,90%); fill-rule: evenodd;"/>
			<polygon points="1046.888 528.5855, 1096.165 528.5855, 1096.165 538.8358, 1112.565 518.3352, 1096.165 497.8346, 1096.165 508.0849, 1046.888 508.0849" style="stroke: rgb(67%,84%,90%); stroke-linecap: round; stroke-width: 1; fill: rgb(67%,84%,90%); fill-rule: evenodd;"/>
			<polygon points="1125.746 528.5855, 1136.164 528.5855, 1136.164 538.8358, 1152.565 518.3352, 1136.164 497.8346, 1136.164 508.0849, 1125.746 508.0849" style="stroke: rgb(67%,84%,90%); stroke-linecap: round; stroke-width: 1; fill: rgb(67%,84%,90%); fill-rule: evenodd;"/>
			<polygon points="1304.175 487.5844, 1174.272 487.5844, 1174.272 497.8346, 1157.871 477.3341, 1174.272 456.8335, 1174.272 467.0838, 1304.175 467.0838" style="stroke: rgb(56%,93%,56%); stroke-linecap: round; stroke-width: 1; fill: rgb(56%,93%,56%); fill-rule: evenodd;"/>
			<polygon points="1346.4 487.5844, 1320.404 487.5844, 1320.404 497.8346, 1304.004 477.3341, 1320.404 456.8335, 1320.404 467.0838, 1346.4 467.0838" style="stroke: rgb(56%,93%,56%); stroke-linecap: round; stroke-width: 1; fill: rgb(56%,93%,56%); fill-rule: evenodd;"/>
			<path d="M 853.452785,169.825647 L 853.452785,251.827897 Z" style="stroke: rgb(0%,0%,0%); stroke-linecap: butt; stroke-width: 1;"/>
			<path d="M 70.866142,210.826772 L 853.452785,210.826772 Z" style="stroke: rgb(0%,0%,0%); stroke-linecap: butt; stroke-width: 1;"/>
			<path d="M 70.866142,169.825647 L 70.866142,251.827897 Z" style="stroke: rgb(0%,0%,0%); stroke-linecap: butt; stroke-width: 1;"/>
			<path d="M 641.472517,210.826772 L 641.472517,231.327334 Z" style="stroke: rgb(0%,0%,0%); stroke-linecap: butt; stroke-width: 1;"/>
			<path d="M 641.472517,210.826772 L 641.472517,223.127109 Z" style="stroke: rgb(0%,0%,0%); stroke-linecap: butt; stroke-width: 1;"/>
			<path d="M 1346.399632,456.833521 L 1346.399632,538.835771 Z" style="stroke: rgb(0%,0%,0%); stroke-linecap: butt; stroke-width: 1;"/>
			<path d="M 70.866142,497.834646 L 1346.399632,497.834646 Z" style="stroke: rgb(0%,0%,0%); stroke-linecap: butt; stroke-width: 1;"/>
			<path d="M 70.866142,456.833521 L 70.866142,538.835771 Z" style="stroke: rgb(0%,0%,0%); stroke-linecap: butt; stroke-width: 1;"/>
			<path d="M 641.472517,497.834646 L 641.472517,518.335208 Z" style="stroke: rgb(0%,0%,0%); stroke-linecap: butt; stroke-width: 1;"/>
			<path d="M 1212.078892,497.834646 L 1212.078892,518.335208 Z" style="stroke: rgb(0%,0%,0%); stroke-linecap: butt; stroke-width: 1;"/>
			<path d="M 641.472517,497.834646 L 641.472517,510.134983 Z" style="stroke: rgb(0%,0%,0%); stroke-linecap: butt; stroke-width: 1;"/>
			<path d="M 1212.078892,497.834646 L 1212.078892,510.134983 Z" style="stroke: rgb(0%,0%,0%); stroke-linecap: butt; stroke-width: 1;"/>
			<g transform=" matrix(0.707107,0.707107,-0.707107,0.707107,641.472517,231.327334)">
				<text style="font-family: Helvetica; font-size: 6px;fill: rgb(0%,0%,0%); stroke:none;" transform="translate(0,0) scale(1,-1)" x="0" y="0">10000</text>
			</g>
			<g transform=" matrix(0.707107,0.707107,-0.707107,0.707107,641.472517,518.335208)">
				<text style="font-family: Helvetica; font-size: 6px;fill: rgb(0%,0%,0%); stroke:none;" transform="translate(0,0) scale(1,-1)" x="0" y="0">10000</text>
			</g>
			<g transform=" matrix(0.707107,0.707107,-0.707107,0.707107,1212.078892,518.335208)">
				<text style="font-family: Helvetica; font-size: 6px;fill: rgb(0%,0%,0%); stroke:none;" transform="translate(0,0) scale(1,-1)" x="0" y="0">20000</text>
			</g>
			<g transform=" matrix(0.707107,0.707107,-0.707107,0.707107,116.885546,251.827897)">
				<text style="font-family: Helvetica; font-size: 10px;fill: rgb(0%,0%,0%); stroke:none;" transform="translate(0,0) scale(1,-1)" x="0" y="0">Gene_01713</text>
			</g>
			<g transform=" matrix(0.707107,-0.707107,0.707107,0.707107,180.222853,169.825647)">
				<text style="font-family: Helvetica; font-size: 10px;fill: rgb(0%,0%,0%); stroke:none;" transform="translate(0,0) scale(1,-1)" x="0" y="0">Gene_01714</text>
			</g>
			<g transform=" matrix(0.707107,0.707107,-0.707107,0.707107,238.681477,251.827897)">
				<text style="font-family: Helvetica; font-size: 16px;fill: rgb(0%,0%,100%); stroke:none;" transform="translate(0,0) scale(1,-1)" x="0" y="0">Gene_01715 (99.4)</text>
			</g>
			<g transform=" matrix(0.707107,0.707107,-0.707107,0.707107,312.517942,251.827897)">
				<text style="font-family: Helvetica; font-size: 10px;fill: rgb(0%,0%,0%); stroke:none;" transform="translate(0,0) scale(1,-1)" x="0" y="0">Gene_01716</text>
			</g>
			<g transform=" matrix(0.707107,0.707107,-0.707107,0.707107,384.699648,251.827897)">
				<text style="font-family: Helvetica; font-size: 10px;fill: rgb(0%,0%,0%); stroke:none;" transform="translate(0,0) scale(1,-1)" x="0" y="0">Gene_01717</text>
			</g>
			<g transform=" matrix(0.707107,0.707107,-0.707107,0.707107,443.785938,251.827897)">
				<text style="font-family: Helvetica; font-size: 10px;fill: rgb(0%,0%,0%); stroke:none;" transform="translate(0,0) scale(1,-1)" x="0" y="0">Gene_01718</text>
			</g>
			<g transform=" matrix(0.707107,0.707107,-0.707107,0.707107,473.058045,251.827897)">
				<text style="font-family: Helvetica; font-size: 10px;fill: rgb(0%,0%,0%); stroke:none;" transform="translate(0,0) scale(1,-1)" x="0" y="0">Gene_01719</text>
			</g>
			<g transform=" matrix(0.707107,-0.707107,0.707107,0.707107,523.727891,169.825647)">
				<text style="font-family: Helvetica; font-size: 10px;fill: rgb(0%,0%,0%); stroke:none;" transform="translate(0,0) scale(1,-1)" x="0" y="0">Gene_01720</text>
			</g>
			<g transform=" matrix(0.707107,0.707107,-0.707107,0.707107,596.280492,251.827897)">
				<text style="font-family: Helvetica; font-size: 10px;fill: rgb(0%,0%,0%); stroke:none;" transform="translate(0,0) scale(1,-1)" x="0" y="0">Gene_01721</text>
			</g>
			<g transform=" matrix(0.707107,0.707107,-0.707107,0.707107,662.32818,251.827897)">
				<text style="font-family: Helvetica; font-size: 10px;fill: rgb(0%,0%,0%); stroke:none;" transform="translate(0,0) scale(1,-1)" x="0" y="0">Gene_01722</text>
			</g>
			<g transform=" matrix(0.707107,0.707107,-0.707107,0.707107,740.016238,251.827897)">
				<text style="font-family: Helvetica; font-size: 10px;fill: rgb(0%,0%,0%); stroke:none;" transform="translate(0,0) scale(1,-1)" x="0" y="0">Gene_01723</text>
			</g>
			<g transform=" matrix(0.707107,-0.707107,0.707107,0.707107,815.564522,169.825647)">
				<text style="font-family: Helvetica; font-size: 10px;fill: rgb(0%,0%,0%); stroke:none;" transform="translate(0,0) scale(1,-1)" x="0" y="0">Gene_01724</text>
			</g>
			<g transform=" matrix(0.707107,0.707107,-0.707107,0.707107,131.179236,538.835771)">
				<text style="font-family: Helvetica; font-size: 10px;fill: rgb(0%,0%,0%); stroke:none;" transform="translate(0,0) scale(1,-1)" x="0" y="0">Gene_01126</text>
			</g>
			<g transform=" matrix(0.707107,-0.707107,0.707107,0.707107,190.63642,456.833521)">
				<text style="font-family: Helvetica; font-size: 10px;fill: rgb(0%,0%,0%); stroke:none;" transform="translate(0,0) scale(1,-1)" x="0" y="0">Gene_01127</text>
			</g>
			<g transform=" matrix(0.707107,0.707107,-0.707107,0.707107,246.099359,538.835771)">
				<text style="font-family: Helvetica; font-size: 10px;fill: rgb(0%,0%,0%); stroke:none;" transform="translate(0,0) scale(1,-1)" x="0" y="0">Gene_01128</text>
			</g>
			<g transform=" matrix(0.707107,0.707107,-0.707107,0.707107,312.603532,538.835771)">
				<text style="font-family: Helvetica; font-size: 10px;fill: rgb(0%,0%,0%); stroke:none;" transform="translate(0,0) scale(1,-1)" x="0" y="0">Gene_01129</text>
			</g>
			<g transform=" matrix(0.707107,0.707107,-0.707107,0.707107,357.13936,538.835771)">
				<text style="font-family: Helvetica; font-size: 10px;fill: rgb(0%,0%,0%); stroke:none;" transform="translate(0,0) scale(1,-1)" x="0" y="0">Gene_01130</text>
			</g>
			<g transform=" matrix(0.707107,0.707107,-0.707107,0.707107,393.458456,538.835771)">
				<text style="font-family: Helvetica; font-size: 10px;fill: rgb(0%,0%,0%); stroke:none;" transform="translate(0,0) scale(1,-1)" x="0" y="0">Gene_01131</text>
			</g>
			<g transform=" matrix(0.707107,0.707107,-0.707107,0.707107,431.318189,538.835771)">
				<text style="font-family: Helvetica; font-size: 10px;fill: rgb(0%,0%,0%); stroke:none;" transform="translate(0,0) scale(1,-1)" x="0" y="0">Gene_01132</text>
			</g>
			<g transform=" matrix(0.707107,0.707107,-0.707107,0.707107,474.456031,538.835771)">
				<text style="font-family: Helvetica; font-size: 10px;fill: rgb(0%,0%,0%); stroke:none;" transform="translate(0,0) scale(1,-1)" x="0" y="0">Gene_01133</text>
			</g>
			<g transform=" matrix(0.707107,0.707107,-0.707107,0.707107,533.827624,538.835771)">
				<text style="font-family: Helvetica; font-size: 10px;fill: rgb(0%,0%,0%); stroke:none;" transform="translate(0,0) scale(1,-1)" x="0" y="0">Gene_01134</text>
			</g>
			<g transform=" matrix(0.707107,-0.707107,0.707107,0.707107,597.107871,456.833521)">
				<text style="font-family: Helvetica; font-size: 10px;fill: rgb(0%,0%,0%); stroke:none;" transform="translate(0,0) scale(1,-1)" x="0" y="0">Gene_01135</text>
			</g>
			<g transform=" matrix(0.707107,0.707107,-0.707107,0.707107,656.08004,538.835771)">
				<text style="font-family: Helvetica; font-size: 16px;fill: rgb(0%,0%,100%); stroke:none;" transform="translate(0,0) scale(1,-1)" x="0" y="0">Gene_01136 (99.4)</text>
			</g>
			<g transform=" matrix(0.707107,0.707107,-0.707107,0.707107,729.574141,538.835771)">
				<text style="font-family: Helvetica; font-size: 10px;fill: rgb(0%,0%,0%); stroke:none;" transform="translate(0,0) scale(1,-1)" x="0" y="0">Gene_01137</text>
			</g>
			<g transform=" matrix(0.707107,0.707107,-0.707107,0.707107,801.755847,538.835771)">
				<text style="font-family: Helvetica; font-size: 10px;fill: rgb(0%,0%,0%); stroke:none;" transform="translate(0,0) scale(1,-1)" x="0" y="0">Gene_01138</text>
			</g>
			<g transform=" matrix(0.707107,0.707107,-0.707107,0.707107,860.842138,538.835771)">
				<text style="font-family: Helvetica; font-size: 10px;fill: rgb(0%,0%,0%); stroke:none;" transform="translate(0,0) scale(1,-1)" x="0" y="0">Gene_01139</text>
			</g>
			<g transform=" matrix(0.707107,0.707107,-0.707107,0.707107,890.114245,538.835771)">
				<text style="font-family: Helvetica; font-size: 10px;fill: rgb(0%,0%,0%); stroke:none;" transform="translate(0,0) scale(1,-1)" x="0" y="0">Gene_01140</text>
			</g>
			<g transform=" matrix(0.707107,-0.707107,0.707107,0.707107,941.126454,456.833521)">
				<text style="font-family: Helvetica; font-size: 10px;fill: rgb(0%,0%,0%); stroke:none;" transform="translate(0,0) scale(1,-1)" x="0" y="0">Gene_01141</text>
			</g>
			<g transform=" matrix(0.707107,-0.707107,0.707107,0.707107,984.464009,456.833521)">
				<text style="font-family: Helvetica; font-size: 10px;fill: rgb(0%,0%,0%); stroke:none;" transform="translate(0,0) scale(1,-1)" x="0" y="0">Gene_01142</text>
			</g>
			<g transform=" matrix(0.707107,0.707107,-0.707107,0.707107,1013.679055,538.835771)">
				<text style="font-family: Helvetica; font-size: 10px;fill: rgb(0%,0%,0%); stroke:none;" transform="translate(0,0) scale(1,-1)" x="0" y="0">Gene_01143</text>
			</g>
			<g transform=" matrix(0.707107,0.707107,-0.707107,0.707107,1079.726743,538.835771)">
				<text style="font-family: Helvetica; font-size: 10px;fill: rgb(0%,0%,0%); stroke:none;" transform="translate(0,0) scale(1,-1)" x="0" y="0">Gene_01144</text>
			</g>
			<g transform=" matrix(0.707107,0.707107,-0.707107,0.707107,1139.155397,538.835771)">
				<text style="font-family: Helvetica; font-size: 10px;fill: rgb(0%,0%,0%); stroke:none;" transform="translate(0,0) scale(1,-1)" x="0" y="0">Gene_01145</text>
			</g>
			<g transform=" matrix(0.707107,-0.707107,0.707107,0.707107,1231.023023,456.833521)">
				<text style="font-family: Helvetica; font-size: 10px;fill: rgb(0%,0%,0%); stroke:none;" transform="translate(0,0) scale(1,-1)" x="0" y="0">Gene_01146</text>
			</g>
			<g transform=" matrix(0.707107,-0.707107,0.707107,0.707107,1325.201605,456.833521)">
				<text style="font-family: Helvetica; font-size: 10px;fill: rgb(0%,0%,0%); stroke:none;" transform="translate(0,0) scale(1,-1)" x="0" y="0">Gene_01147</text>
			</g>
			<g transform=" matrix(1,0,-0,1,70,169.825647)">
				<text style="font-family: Helvetica; font-size: 12px;fill: rgb(60%,60%,60%); stroke:none;" transform="translate(0,0) scale(1,-1)" x="0" y="0">megahit_116474 (left 2685bp, right 31940bp)</text>
			</g>
			<g transform=" matrix(1,0,-0,1,70,456.833521)">
				<text style="font-family: Helvetica; font-size: 12px;fill: rgb(60%,60%,60%); stroke:none;" transform="translate(0,0) scale(1,-1)" x="0" y="0">megahit_12654 (left 52587bp, right 15485bp)</text>
			</g>
		</g>
	</g>
</svg>
