<?xml version="1.0" encoding="utf-8"?>
<!DOCTYPE svg
  PUBLIC '-//W3C//DTD SVG 1.0//EN'
  'http://www.w3.org/TR/2001/REC-SVG-20010904/DTD/svg10.dtd'>
<svg fill-rule="evenodd" height="708.6614173228346" preserveAspectRatio="xMinYMin meet" version="1.0" viewBox="0 0 1417 708" width="1417.3228346456692" xmlns="http://www.w3.org/2000/svg" xmlns:xlink="http://www.w3.org/1999/xlink">
	<title>...</title>
	<desc>...</desc>
	<clipPath id="clip">
		<rect height="708.6614173228346" width="1417.3228346456692" x="0" y="0"/>
	</clipPath>
	<g id="group" style="clip-path: url(#clip)" transform="scale(1,-1) translate(0,-708)">
		<g transform="">
			<polygon points="70.86614 169.8256, 1346.384 169.8256, 1346.384 251.8279, 70.86614 251.8279" style="stroke: rgb(96%,96%,96%); stroke-linecap: butt; stroke-width: 1; fill: rgb(96%,96%,96%); fill-rule: evenodd;"/>
			<polygon points="70.86614 456.8335, 187.0926 456.8335, 187.0926 538.8358, 70.86614 538.8358" style="stroke: rgb(96%,96%,96%); stroke-linecap: butt; stroke-width: 1; fill: rgb(96%,96%,96%); fill-rule: evenodd;"/>
			<polygon points="95.51804 456.8335, 178.0294 456.8335, 823.474 251.8279, 905.9128 251.8279" style="stroke: rgb(100%,42%,42%); stroke-linecap: round; stroke-width: 1; fill: rgb(100%,42%,42%); fill-rule: evenodd;"/>
			<polygon points="308.9744 200.5765, 87.26659 200.5765, 87.26659 210.8268, 70.86614 190.3262, 87.26659 169.8256, 87.26659 180.0759, 308.9744 180.0759" style="stroke: rgb(56%,93%,56%); stroke-linecap: round; stroke-width: 1; fill: rgb(56%,93%,56%); fill-rule: evenodd;"/>
			<polygon points="391.5583 200.5765, 325.1574 200.5765, 325.1574 210.8268, 308.7569 190.3262, 325.1574 169.8256, 325.1574 180.0759, 391.5583 180.0759" style="stroke: rgb(56%,93%,56%); stroke-linecap: round; stroke-width: 1; fill: rgb(56%,93%,56%); fill-rule: evenodd;"/>
			<polygon points="403.9567 241.5776, 462.092 241.5776, 462.092 251.8279, 478.4925 231.3273, 462.092 210.8268, 462.092 221.0771, 403.9567 221.0771" style="stroke: rgb(67%,84%,90%); stroke-linecap: round; stroke-width: 1; fill: rgb(67%,84%,90%); fill-rule: evenodd;"/>
			<polygon points="478.275 241.5776, 565.9925 241.5776, 565.9925 251.8279, 582.393 231.3273, 565.9925 210.8268, 565.9925 221.0771, 478.275 221.0771" style="stroke: rgb(67%,84%,90%); stroke-linecap: round; stroke-width: 1; fill: rgb(67%,84%,90%); fill-rule: evenodd;"/>
			<polygon points="687.3085 200.5765, 608.9442 200.5765, 608.9442 210.8268, 592.5437 190.3262, 608.9442 169.8256, 608.9442 180.0759, 687.3085 180.0759" style="stroke: rgb(56%,93%,56%); stroke-linecap: round; stroke-width: 1; fill: rgb(56%,93%,56%); fill-rule: evenodd;"/>
			<polygon points="761.0467 200.5765, 711.6121 200.5765, 711.6121 210.8268, 695.2116 190.3262, 711.6121 169.8256, 711.6121 180.0759, 761.0467 180.0759" style="stroke: rgb(56%,93%,56%); stroke-linecap: round; stroke-width: 1; fill: rgb(56%,93%,56%); fill-rule: evenodd;"/>
			<polygon points="810.0605 200.5765, 776.7221 200.5765, 776.7221 210.8268, 760.3216 190.3262, 776.7221 169.8256, 776.7221 180.0759, 810.0605 180.0759" style="stroke: rgb(56%,93%,56%); stroke-linecap: round; stroke-width: 1; fill: rgb(56%,93%,56%); fill-rule: evenodd;"/>
			<polygon points="902.2876 200.5765, 839.8019 200.5765, 839.8019 210.8268, 823.4015 190.3262, 839.8019 169.8256, 839.8019 180.0759, 902.2876 180.0759" style="stroke: rgb(56%,93%,56%); stroke-linecap: round; stroke-width: 1; fill: rgb(56%,93%,56%); fill-rule: evenodd;"/>
			<polygon points="990.5268 200.5765, 926.3011 200.5765, 926.3011 210.8268, 909.9006 190.3262, 926.3011 169.8256, 926.3011 180.0759, 990.5268 180.0759" style="stroke: rgb(56%,93%,56%); stroke-linecap: round; stroke-width: 1; fill: rgb(56%,93%,56%); fill-rule: evenodd;"/>
			<polygon points="1056.072 200.5765, 1030.129 200.5765, 1030.129 210.8268, 1013.729 190.3262, 1030.129 169.8256, 1030.129 180.0759, 1056.072 180.0759" style="stroke: rgb(56%,93%,56%); stroke-linecap: round; stroke-width: 1; fill: rgb(56%,93%,56%); fill-rule: evenodd;"/>
			<polygon points="1118.862 200.5765, 1074.43 200.5765, 1074.43 210.8268, 1058.03 190.3262, 1074.43 169.8256, 1074.43 180.0759, 1118.862 180.0759" style="stroke: rgb(56%,93%,56%); stroke-linecap: round; stroke-width: 1; fill: rgb(56%,93%,56%); fill-rule: evenodd;"/>
			<polygon points="1171.646 200.5765, 1135.045 200.5765, 1135.045 210.8268, 1118.644 190.3262, 1135.045 169.8256, 1135.045 180.0759, 1171.646 180.0759" style="stroke: rgb(56%,93%,56%); stroke-linecap: round; stroke-width: 1; fill: rgb(56%,93%,56%); fill-rule: evenodd;"/>
			<polygon points="1291.86 200.5765, 1216.106 200.5765, 1216.106 210.8268, 1199.705 190.3262, 1216.106 169.8256, 1216.106 180.0759, 1291.86 180.0759" style="stroke: rgb(56%,93%,56%); stroke-linecap: round; stroke-width: 1; fill: rgb(56%,93%,56%); fill-rule: evenodd;"/>
			<polygon points="1302.373 200.5765, 1302.373 210.8268, 1290.482 190.3262, 1302.373 169.8256, 1302.373 180.0759" style="stroke: rgb(56%,93%,56%); stroke-linecap: round; stroke-width: 1; fill: rgb(56%,93%,56%); fill-rule: evenodd;"/>
			<polygon points="1318.76 200.5765, 1318.76 210.8268, 1302.518 190.3262, 1318.76 169.8256, 1318.76 180.0759" style="stroke: rgb(56%,93%,56%); stroke-linecap: round; stroke-width: 1; fill: rgb(56%,93%,56%); fill-rule: evenodd;"/>
			<polygon points="1333.043 200.5765, 1333.043 210.8268, 1318.542 190.3262, 1333.043 169.8256, 1333.043 180.0759" style="stroke: rgb(56%,93%,56%); stroke-linecap: round; stroke-width: 1; fill: rgb(56%,93%,56%); fill-rule: evenodd;"/>
			<polygon points="99.21582 528.5855, 161.7014 528.5855, 161.7014 538.8358, 178.1019 518.3352, 161.7014 497.8346, 161.7014 508.0849, 99.21582 508.0849" style="stroke: rgb(67%,84%,90%); stroke-linecap: round; stroke-width: 1; fill: rgb(67%,84%,90%); fill-rule: evenodd;"/>
			<path d="M 1346.384187,169.825647 L 1346.384187,251.827897 Z" style="stroke: rgb(0%,0%,0%); stroke-linecap: butt; stroke-width: 1;"/>
			<path d="M 70.866142,210.826772 L 1346.384187,210.826772 Z" style="stroke: rgb(0%,0%,0%); stroke-linecap: butt; stroke-width: 1;"/>
			<path d="M 70.866142,169.825647 L 70.866142,251.827897 Z" style="stroke: rgb(0%,0%,0%); stroke-linecap: butt; stroke-width: 1;"/>
			<path d="M 795.921875,210.826772 L 795.921875,231.327334 Z" style="stroke: rgb(0%,0%,0%); stroke-linecap: butt; stroke-width: 1;"/>
			<path d="M 795.921875,210.826772 L 795.921875,223.127109 Z" style="stroke: rgb(0%,0%,0%); stroke-linecap: butt; stroke-width: 1;"/>
			<path d="M 187.092576,456.833521 L 187.092576,538.835771 Z" style="stroke: rgb(0%,0%,0%); stroke-linecap: butt; stroke-width: 1;"/>
			<path d="M 70.866142,497.834646 L 187.092576,497.834646 Z" style="stroke: rgb(0%,0%,0%); stroke-linecap: butt; stroke-width: 1;"/>
			<path d="M 70.866142,456.833521 L 70.866142,538.835771 Z" style="stroke: rgb(0%,0%,0%); stroke-linecap: butt; stroke-width: 1;"/>
			<g transform=" matrix(0.707107,0.707107,-0.707107,0.707107,795.921875,231.327334)">
				<text style="font-family: Helvetica; font-size: 6px;fill: rgb(0%,0%,0%); stroke:none;" transform="translate(0,0) scale(1,-1)" x="0" y="0">10000</text>
			</g>
			<g transform=" matrix(0.707107,-0.707107,0.707107,0.707107,189.920293,169.825647)">
				<text style="font-family: Helvetica; font-size: 10px;fill: rgb(0%,0%,0%); stroke:none;" transform="translate(0,0) scale(1,-1)" x="0" y="0">Gene_03316</text>
			</g>
			<g transform=" matrix(0.707107,-0.707107,0.707107,0.707107,350.15761,169.825647)">
				<text style="font-family: Helvetica; font-size: 10px;fill: rgb(0%,0%,0%); stroke:none;" transform="translate(0,0) scale(1,-1)" x="0" y="0">Gene_03317</text>
			</g>
			<g transform=" matrix(0.707107,0.707107,-0.707107,0.707107,441.22461,251.827897)">
				<text style="font-family: Helvetica; font-size: 10px;fill: rgb(0%,0%,0%); stroke:none;" transform="translate(0,0) scale(1,-1)" x="0" y="0">Gene_03318</text>
			</g>
			<g transform=" matrix(0.707107,0.707107,-0.707107,0.707107,530.33396,251.827897)">
				<text style="font-family: Helvetica; font-size: 10px;fill: rgb(0%,0%,0%); stroke:none;" transform="translate(0,0) scale(1,-1)" x="0" y="0">Gene_03319</text>
			</g>
			<g transform=" matrix(0.707107,-0.707107,0.707107,0.707107,639.926134,169.825647)">
				<text style="font-family: Helvetica; font-size: 10px;fill: rgb(0%,0%,0%); stroke:none;" transform="translate(0,0) scale(1,-1)" x="0" y="0">Gene_03320</text>
			</g>
			<g transform=" matrix(0.707107,-0.707107,0.707107,0.707107,728.129164,169.825647)">
				<text style="font-family: Helvetica; font-size: 10px;fill: rgb(0%,0%,0%); stroke:none;" transform="translate(0,0) scale(1,-1)" x="0" y="0">Gene_03321</text>
			</g>
			<g transform=" matrix(0.707107,-0.707107,0.707107,0.707107,785.19105,169.825647)">
				<text style="font-family: Helvetica; font-size: 10px;fill: rgb(0%,0%,0%); stroke:none;" transform="translate(0,0) scale(1,-1)" x="0" y="0">Gene_03322</text>
			</g>
			<g transform=" matrix(0.707107,-0.707107,0.707107,0.707107,862.844519,169.825647)">
				<text style="font-family: Helvetica; font-size: 16px;fill: rgb(0%,0%,100%); stroke:none;" transform="translate(0,0) scale(1,-1)" x="0" y="0">Gene_03323 (78.8)</text>
			</g>
			<g transform=" matrix(0.707107,-0.707107,0.707107,0.707107,950.213735,169.825647)">
				<text style="font-family: Helvetica; font-size: 10px;fill: rgb(0%,0%,0%); stroke:none;" transform="translate(0,0) scale(1,-1)" x="0" y="0">Gene_03324</text>
			</g>
			<g transform=" matrix(0.707107,-0.707107,0.707107,0.707107,1034.900244,169.825647)">
				<text style="font-family: Helvetica; font-size: 10px;fill: rgb(0%,0%,0%); stroke:none;" transform="translate(0,0) scale(1,-1)" x="0" y="0">Gene_03325</text>
			</g>
			<g transform=" matrix(0.707107,-0.707107,0.707107,0.707107,1088.44561,169.825647)">
				<text style="font-family: Helvetica; font-size: 10px;fill: rgb(0%,0%,0%); stroke:none;" transform="translate(0,0) scale(1,-1)" x="0" y="0">Gene_03326</text>
			</g>
			<g transform=" matrix(0.707107,-0.707107,0.707107,0.707107,1145.144969,169.825647)">
				<text style="font-family: Helvetica; font-size: 10px;fill: rgb(0%,0%,0%); stroke:none;" transform="translate(0,0) scale(1,-1)" x="0" y="0">Gene_03327</text>
			</g>
			<g transform=" matrix(0.707107,-0.707107,0.707107,0.707107,1245.782704,169.825647)">
				<text style="font-family: Helvetica; font-size: 10px;fill: rgb(0%,0%,0%); stroke:none;" transform="translate(0,0) scale(1,-1)" x="0" y="0">Gene_03328</text>
			</g>
			<g transform=" matrix(0.707107,-0.707107,0.707107,0.707107,1296.427847,169.825647)">
				<text style="font-family: Helvetica; font-size: 10px;fill: rgb(0%,0%,0%); stroke:none;" transform="translate(0,0) scale(1,-1)" x="0" y="0">Gene_03329</text>
			</g>
			<g transform=" matrix(0.707107,-0.707107,0.707107,0.707107,1310.63894,169.825647)">
				<text style="font-family: Helvetica; font-size: 10px;fill: rgb(0%,0%,0%); stroke:none;" transform="translate(0,0) scale(1,-1)" x="0" y="0">Gene_03330</text>
			</g>
			<g transform=" matrix(0.707107,-0.707107,0.707107,0.707107,1325.792605,169.825647)">
				<text style="font-family: Helvetica; font-size: 10px;fill: rgb(0%,0%,0%); stroke:none;" transform="translate(0,0) scale(1,-1)" x="0" y="0">Gene_03331</text>
			</g>
			<g transform=" matrix(0.707107,0.707107,-0.707107,0.707107,138.658853,538.835771)">
				<text style="font-family: Helvetica; font-size: 16px;fill: rgb(0%,0%,100%); stroke:none;" transform="translate(0,0) scale(1,-1)" x="0" y="0">Gene_00061 (78.8)</text>
			</g>
			<g transform=" matrix(1,0,-0,1,70,169.825647)">
				<text style="font-family: Helvetica; font-size: 12px;fill: rgb(60%,60%,60%); stroke:none;" transform="translate(0,0) scale(1,-1)" x="0" y="0">megahit_33400 (left 17262bp, right 6125bp)</text>
			</g>
		</g>
	</g>
</svg>
