<?xml version="1.0" encoding="utf-8"?>
<!DOCTYPE svg
  PUBLIC '-//W3C//DTD SVG 1.0//EN'
  'http://www.w3.org/TR/2001/REC-SVG-20010904/DTD/svg10.dtd'>
<svg fill-rule="evenodd" height="708.6614173228346" preserveAspectRatio="xMinYMin meet" version="1.0" viewBox="0 0 1417 708" width="1417.3228346456692" xmlns="http://www.w3.org/2000/svg" xmlns:xlink="http://www.w3.org/1999/xlink">
	<title>...</title>
	<desc>...</desc>
	<clipPath id="clip">
		<rect height="708.6614173228346" width="1417.3228346456692" x="0" y="0"/>
	</clipPath>
	<g id="group" style="clip-path: url(#clip)" transform="scale(1,-1) translate(0,-708)">
		<g transform="">
			<polygon points="70.86614 169.8256, 1346.397 169.8256, 1346.397 251.8279, 70.86614 251.8279" style="stroke: rgb(96%,96%,96%); stroke-linecap: butt; stroke-width: 1; fill: rgb(96%,96%,96%); fill-rule: evenodd;"/>
			<polygon points="70.86614 456.8335, 1337.387 456.8335, 1337.387 538.8358, 70.86614 538.8358" style="stroke: rgb(96%,96%,96%); stroke-linecap: butt; stroke-width: 1; fill: rgb(96%,96%,96%); fill-rule: evenodd;"/>
			<polygon points="700.6586 456.8335, 840.6783 456.8335, 522.3439 251.8279, 662.4229 251.8279" style="stroke: rgb(100%,45%,45%); stroke-linecap: round; stroke-width: 1; fill: rgb(100%,45%,45%); fill-rule: evenodd;"/>
			<polygon points="590.3975 456.8335, 695.3234 456.8335, 662.7786 251.8279, 768.6529 251.8279" style="stroke: rgb(100%,40%,40%); stroke-linecap: round; stroke-width: 1; fill: rgb(100%,40%,40%); fill-rule: evenodd;"/>
			<polygon points="845.0058 456.8335, 914.5414 456.8335, 453.9346 251.8279, 522.5217 251.8279" style="stroke: rgb(100%,54%,54%); stroke-linecap: round; stroke-width: 1; fill: rgb(100%,54%,54%); fill-rule: evenodd;"/>
			<polygon points="192.3312 200.5765, 89.6378 200.5765, 89.6378 210.8268, 73.23735 190.3262, 89.6378 169.8256, 89.6378 180.0759, 192.3312 180.0759" style="stroke: rgb(56%,93%,56%); stroke-linecap: round; stroke-width: 1; fill: rgb(56%,93%,56%); fill-rule: evenodd;"/>
			<polygon points="234.5387 200.5765, 209.7394 200.5765, 209.7394 210.8268, 193.339 190.3262, 209.7394 169.8256, 209.7394 180.0759, 234.5387 180.0759" style="stroke: rgb(56%,93%,56%); stroke-linecap: round; stroke-width: 1; fill: rgb(56%,93%,56%); fill-rule: evenodd;"/>
			<polygon points="277.8132 200.5765, 250.5242 200.5765, 250.5242 210.8268, 234.1237 190.3262, 250.5242 169.8256, 250.5242 180.0759, 277.8132 180.0759" style="stroke: rgb(56%,93%,56%); stroke-linecap: round; stroke-width: 1; fill: rgb(56%,93%,56%); fill-rule: evenodd;"/>
			<polygon points="357.9007 200.5765, 299.1339 200.5765, 299.1339 210.8268, 282.7334 190.3262, 299.1339 169.8256, 299.1339 180.0759, 357.9007 180.0759" style="stroke: rgb(56%,93%,56%); stroke-linecap: round; stroke-width: 1; fill: rgb(56%,93%,56%); fill-rule: evenodd;"/>
			<polygon points="397.6184 200.5765, 373.8862 200.5765, 373.8862 210.8268, 357.4857 190.3262, 373.8862 169.8256, 373.8862 180.0759, 397.6184 180.0759" style="stroke: rgb(56%,93%,56%); stroke-linecap: round; stroke-width: 1; fill: rgb(56%,93%,56%); fill-rule: evenodd;"/>
			<polygon points="442.3749 200.5765, 430.9137 200.5765, 430.9137 210.8268, 414.5132 190.3262, 430.9137 169.8256, 430.9137 180.0759, 442.3749 180.0759" style="stroke: rgb(56%,93%,56%); stroke-linecap: round; stroke-width: 1; fill: rgb(56%,93%,56%); fill-rule: evenodd;"/>
			<polygon points="489.3841 200.5765, 469.2087 200.5765, 469.2087 210.8268, 452.8082 190.3262, 469.2087 169.8256, 469.2087 180.0759, 489.3841 180.0759" style="stroke: rgb(56%,93%,56%); stroke-linecap: round; stroke-width: 1; fill: rgb(56%,93%,56%); fill-rule: evenodd;"/>
			<polygon points="503.2557 241.5776, 507.4254 241.5776, 507.4254 251.8279, 523.8259 231.3273, 507.4254 210.8268, 507.4254 221.0771, 503.2557 221.0771" style="stroke: rgb(67%,84%,90%); stroke-linecap: round; stroke-width: 1; fill: rgb(67%,84%,90%); fill-rule: evenodd;"/>
			<polygon points="523.4109 241.5776, 562.9709 241.5776, 562.9709 251.8279, 579.3714 231.3273, 562.9709 210.8268, 562.9709 221.0771, 523.4109 221.0771" style="stroke: rgb(67%,84%,90%); stroke-linecap: round; stroke-width: 1; fill: rgb(67%,84%,90%); fill-rule: evenodd;"/>
			<polygon points="579.1935 241.5776, 646.141 241.5776, 646.141 251.8279, 662.5415 231.3273, 646.141 210.8268, 646.141 221.0771, 579.1935 221.0771" style="stroke: rgb(67%,84%,90%); stroke-linecap: round; stroke-width: 1; fill: rgb(67%,84%,90%); fill-rule: evenodd;"/>
			<polygon points="663.6678 241.5776, 663.6678 251.8279, 677.4801 231.3273, 663.6678 210.8268, 663.6678 221.0771" style="stroke: rgb(67%,84%,90%); stroke-linecap: round; stroke-width: 1; fill: rgb(67%,84%,90%); fill-rule: evenodd;"/>
			<polygon points="679.3177 241.5776, 752.3118 241.5776, 752.3118 251.8279, 768.7122 231.3273, 752.3118 210.8268, 752.3118 221.0771, 679.3177 221.0771" style="stroke: rgb(67%,84%,90%); stroke-linecap: round; stroke-width: 1; fill: rgb(67%,84%,90%); fill-rule: evenodd;"/>
			<polygon points="774.1067 241.5776, 919.4818 241.5776, 919.4818 251.8279, 935.8823 231.3273, 919.4818 210.8268, 919.4818 221.0771, 774.1067 221.0771" style="stroke: rgb(67%,84%,90%); stroke-linecap: round; stroke-width: 1; fill: rgb(67%,84%,90%); fill-rule: evenodd;"/>
			<polygon points="941.3361 241.5776, 943.9053 241.5776, 943.9053 251.8279, 960.3057 231.3273, 943.9053 210.8268, 943.9053 221.0771, 941.3361 221.0771" style="stroke: rgb(67%,84%,90%); stroke-linecap: round; stroke-width: 1; fill: rgb(67%,84%,90%); fill-rule: evenodd;"/>
			<polygon points="1033.635 200.5765, 980.0258 200.5765, 980.0258 210.8268, 963.6254 190.3262, 980.0258 169.8256, 980.0258 180.0759, 1033.635 180.0759" style="stroke: rgb(56%,93%,56%); stroke-linecap: round; stroke-width: 1; fill: rgb(56%,93%,56%); fill-rule: evenodd;"/>
			<polygon points="1045.313 241.5776, 1149.252 241.5776, 1149.252 251.8279, 1165.652 231.3273, 1149.252 210.8268, 1149.252 221.0771, 1045.313 221.0771" style="stroke: rgb(67%,84%,90%); stroke-linecap: round; stroke-width: 1; fill: rgb(67%,84%,90%); fill-rule: evenodd;"/>
			<polygon points="1253.505 200.5765, 1181.401 200.5765, 1181.401 210.8268, 1165 190.3262, 1181.401 169.8256, 1181.401 180.0759, 1253.505 180.0759" style="stroke: rgb(56%,93%,56%); stroke-linecap: round; stroke-width: 1; fill: rgb(56%,93%,56%); fill-rule: evenodd;"/>
			<polygon points="1346.397 200.5765, 1270.558 200.5765, 1270.558 210.8268, 1254.157 190.3262, 1270.558 169.8256, 1270.558 180.0759, 1346.397 180.0759" style="stroke: rgb(56%,93%,56%); stroke-linecap: round; stroke-width: 1; fill: rgb(56%,93%,56%); fill-rule: evenodd;"/>
			<polygon points="160.6163 487.5844, 87.26659 487.5844, 87.26659 497.8346, 70.86614 477.3341, 87.26659 456.8335, 87.26659 467.0838, 160.6163 467.0838" style="stroke: rgb(56%,93%,56%); stroke-linecap: round; stroke-width: 1; fill: rgb(56%,93%,56%); fill-rule: evenodd;"/>
			<polygon points="244.4977 487.5844, 185.0196 487.5844, 185.0196 497.8346, 168.6191 477.3341, 185.0196 456.8335, 185.0196 467.0838, 244.4977 467.0838" style="stroke: rgb(56%,93%,56%); stroke-linecap: round; stroke-width: 1; fill: rgb(56%,93%,56%); fill-rule: evenodd;"/>
			<polygon points="379.2416 487.5844, 275.8368 487.5844, 275.8368 497.8346, 259.4363 477.3341, 275.8368 456.8335, 275.8368 467.0838, 379.2416 467.0838" style="stroke: rgb(56%,93%,56%); stroke-linecap: round; stroke-width: 1; fill: rgb(56%,93%,56%); fill-rule: evenodd;"/>
			<polygon points="411.1936 487.5844, 398.8431 487.5844, 398.8431 497.8346, 382.4427 477.3341, 398.8431 456.8335, 398.8431 467.0838, 411.1936 467.0838" style="stroke: rgb(56%,93%,56%); stroke-linecap: round; stroke-width: 1; fill: rgb(56%,93%,56%); fill-rule: evenodd;"/>
			<polygon points="475.5125 487.5844, 435.0633 487.5844, 435.0633 497.8346, 418.6629 477.3341, 435.0633 456.8335, 435.0633 467.0838, 475.5125 467.0838" style="stroke: rgb(56%,93%,56%); stroke-linecap: round; stroke-width: 1; fill: rgb(56%,93%,56%); fill-rule: evenodd;"/>
			<polygon points="509.6579 487.5844, 492.6836 487.5844, 492.6836 497.8346, 476.2832 477.3341, 492.6836 456.8335, 492.6836 467.0838, 509.6579 467.0838" style="stroke: rgb(56%,93%,56%); stroke-linecap: round; stroke-width: 1; fill: rgb(56%,93%,56%); fill-rule: evenodd;"/>
			<polygon points="520.2691 487.5844, 520.2691 497.8346, 509.6579 477.3341, 520.2691 456.8335, 520.2691 467.0838" style="stroke: rgb(56%,93%,56%); stroke-linecap: round; stroke-width: 1; fill: rgb(56%,93%,56%); fill-rule: evenodd;"/>
			<polygon points="573.9176 487.5844, 541.8269 487.5844, 541.8269 497.8346, 525.4264 477.3341, 541.8269 456.8335, 541.8269 467.0838, 573.9176 467.0838" style="stroke: rgb(56%,93%,56%); stroke-linecap: round; stroke-width: 1; fill: rgb(56%,93%,56%); fill-rule: evenodd;"/>
			<polygon points="679.7327 487.5844, 606.7387 487.5844, 606.7387 497.8346, 590.3382 477.3341, 606.7387 456.8335, 606.7387 467.0838, 679.7327 467.0838" style="stroke: rgb(56%,93%,56%); stroke-linecap: round; stroke-width: 1; fill: rgb(56%,93%,56%); fill-rule: evenodd;"/>
			<polygon points="694.4342 487.5844, 694.4342 497.8346, 680.9776 477.3341, 694.4342 456.8335, 694.4342 467.0838" style="stroke: rgb(56%,93%,56%); stroke-linecap: round; stroke-width: 1; fill: rgb(56%,93%,56%); fill-rule: evenodd;"/>
			<polygon points="783.8879 487.5844, 716.9405 487.5844, 716.9405 497.8346, 700.54 477.3341, 716.9405 456.8335, 716.9405 467.0838, 783.8879 467.0838" style="stroke: rgb(56%,93%,56%); stroke-linecap: round; stroke-width: 1; fill: rgb(56%,93%,56%); fill-rule: evenodd;"/>
			<polygon points="839.6706 487.5844, 800.1106 487.5844, 800.1106 497.8346, 783.7101 477.3341, 800.1106 456.8335, 800.1106 467.0838, 839.6706 467.0838" style="stroke: rgb(56%,93%,56%); stroke-linecap: round; stroke-width: 1; fill: rgb(56%,93%,56%); fill-rule: evenodd;"/>
			<polygon points="864.2718 487.5844, 858.5015 487.5844, 858.5015 497.8346, 842.1011 477.3341, 858.5015 456.8335, 858.5015 467.0838, 864.2718 467.0838" style="stroke: rgb(56%,93%,56%); stroke-linecap: round; stroke-width: 1; fill: rgb(56%,93%,56%); fill-rule: evenodd;"/>
			<polygon points="872.5118 528.5855, 898.7338 528.5855, 898.7338 538.8358, 915.1342 518.3352, 898.7338 497.8346, 898.7338 508.0849, 872.5118 508.0849" style="stroke: rgb(67%,84%,90%); stroke-linecap: round; stroke-width: 1; fill: rgb(67%,84%,90%); fill-rule: evenodd;"/>
			<polygon points="974.8293 487.5844, 936.692 487.5844, 936.692 497.8346, 920.2916 477.3341, 936.692 456.8335, 936.692 467.0838, 974.8293 467.0838" style="stroke: rgb(56%,93%,56%); stroke-linecap: round; stroke-width: 1; fill: rgb(56%,93%,56%); fill-rule: evenodd;"/>
			<polygon points="1036.481 487.5844, 989.0957 487.5844, 989.0957 497.8346, 972.6953 477.3341, 989.0957 456.8335, 989.0957 467.0838, 1036.481 467.0838" style="stroke: rgb(56%,93%,56%); stroke-linecap: round; stroke-width: 1; fill: rgb(56%,93%,56%); fill-rule: evenodd;"/>
			<polygon points="1125.697 487.5844, 1054.66 487.5844, 1054.66 497.8346, 1038.259 477.3341, 1054.66 456.8335, 1054.66 467.0838, 1125.697 467.0838" style="stroke: rgb(56%,93%,56%); stroke-linecap: round; stroke-width: 1; fill: rgb(56%,93%,56%); fill-rule: evenodd;"/>
			<polygon points="1138.383 528.5855, 1146.821 528.5855, 1146.821 538.8358, 1163.222 518.3352, 1146.821 497.8346, 1146.821 508.0849, 1138.383 508.0849" style="stroke: rgb(67%,84%,90%); stroke-linecap: round; stroke-width: 1; fill: rgb(67%,84%,90%); fill-rule: evenodd;"/>
			<polygon points="1224.28 487.5844, 1212.286 487.5844, 1212.286 497.8346, 1195.885 477.3341, 1212.286 456.8335, 1212.286 467.0838, 1224.28 467.0838" style="stroke: rgb(56%,93%,56%); stroke-linecap: round; stroke-width: 1; fill: rgb(56%,93%,56%); fill-rule: evenodd;"/>
			<polygon points="1273.957 487.5844, 1241.688 487.5844, 1241.688 497.8346, 1225.288 477.3341, 1241.688 456.8335, 1241.688 467.0838, 1273.957 467.0838" style="stroke: rgb(56%,93%,56%); stroke-linecap: round; stroke-width: 1; fill: rgb(56%,93%,56%); fill-rule: evenodd;"/>
			<polygon points="1337.387 487.5844, 1293.559 487.5844, 1293.559 497.8346, 1277.158 477.3341, 1293.559 456.8335, 1293.559 467.0838, 1337.387 467.0838" style="stroke: rgb(56%,93%,56%); stroke-linecap: round; stroke-width: 1; fill: rgb(56%,93%,56%); fill-rule: evenodd;"/>
			<path d="M 1346.397413,169.825647 L 1346.397413,251.827897 Z" style="stroke: rgb(0%,0%,0%); stroke-linecap: butt; stroke-width: 1;"/>
			<path d="M 70.866142,210.826772 L 1346.397413,210.826772 Z" style="stroke: rgb(0%,0%,0%); stroke-linecap: butt; stroke-width: 1;"/>
			<path d="M 70.866142,169.825647 L 70.866142,251.827897 Z" style="stroke: rgb(0%,0%,0%); stroke-linecap: butt; stroke-width: 1;"/>
			<path d="M 663.667773,210.826772 L 663.667773,231.327334 Z" style="stroke: rgb(0%,0%,0%); stroke-linecap: butt; stroke-width: 1;"/>
			<path d="M 1256.469405,210.826772 L 1256.469405,231.327334 Z" style="stroke: rgb(0%,0%,0%); stroke-linecap: butt; stroke-width: 1;"/>
			<path d="M 663.667773,210.826772 L 663.667773,223.127109 Z" style="stroke: rgb(0%,0%,0%); stroke-linecap: butt; stroke-width: 1;"/>
			<path d="M 1256.469405,210.826772 L 1256.469405,223.127109 Z" style="stroke: rgb(0%,0%,0%); stroke-linecap: butt; stroke-width: 1;"/>
			<path d="M 1337.386828,456.833521 L 1337.386828,538.835771 Z" style="stroke: rgb(0%,0%,0%); stroke-linecap: butt; stroke-width: 1;"/>
			<path d="M 70.866142,497.834646 L 1337.386828,497.834646 Z" style="stroke: rgb(0%,0%,0%); stroke-linecap: butt; stroke-width: 1;"/>
			<path d="M 70.866142,456.833521 L 70.866142,538.835771 Z" style="stroke: rgb(0%,0%,0%); stroke-linecap: butt; stroke-width: 1;"/>
			<path d="M 663.667773,497.834646 L 663.667773,518.335208 Z" style="stroke: rgb(0%,0%,0%); stroke-linecap: butt; stroke-width: 1;"/>
			<path d="M 1256.469405,497.834646 L 1256.469405,518.335208 Z" style="stroke: rgb(0%,0%,0%); stroke-linecap: butt; stroke-width: 1;"/>
			<path d="M 663.667773,497.834646 L 663.667773,510.134983 Z" style="stroke: rgb(0%,0%,0%); stroke-linecap: butt; stroke-width: 1;"/>
			<path d="M 1256.469405,497.834646 L 1256.469405,510.134983 Z" style="stroke: rgb(0%,0%,0%); stroke-linecap: butt; stroke-width: 1;"/>
			<g transform=" matrix(0.707107,0.707107,-0.707107,0.707107,663.667773,231.327334)">
				<text style="font-family: Helvetica; font-size: 6px;fill: rgb(0%,0%,0%); stroke:none;" transform="translate(0,0) scale(1,-1)" x="0" y="0">10000</text>
			</g>
			<g transform=" matrix(0.707107,0.707107,-0.707107,0.707107,1256.469405,231.327334)">
				<text style="font-family: Helvetica; font-size: 6px;fill: rgb(0%,0%,0%); stroke:none;" transform="translate(0,0) scale(1,-1)" x="0" y="0">20000</text>
			</g>
			<g transform=" matrix(0.707107,0.707107,-0.707107,0.707107,663.667773,518.335208)">
				<text style="font-family: Helvetica; font-size: 6px;fill: rgb(0%,0%,0%); stroke:none;" transform="translate(0,0) scale(1,-1)" x="0" y="0">10000</text>
			</g>
			<g transform=" matrix(0.707107,0.707107,-0.707107,0.707107,1256.469405,518.335208)">
				<text style="font-family: Helvetica; font-size: 6px;fill: rgb(0%,0%,0%); stroke:none;" transform="translate(0,0) scale(1,-1)" x="0" y="0">20000</text>
			</g>
			<g transform=" matrix(0.707107,-0.707107,0.707107,0.707107,132.784272,169.825647)">
				<text style="font-family: Helvetica; font-size: 10px;fill: rgb(0%,0%,0%); stroke:none;" transform="translate(0,0) scale(1,-1)" x="0" y="0">Gene_00229</text>
			</g>
			<g transform=" matrix(0.707107,-0.707107,0.707107,0.707107,213.938816,169.825647)">
				<text style="font-family: Helvetica; font-size: 10px;fill: rgb(0%,0%,0%); stroke:none;" transform="translate(0,0) scale(1,-1)" x="0" y="0">Gene_00230</text>
			</g>
			<g transform=" matrix(0.707107,-0.707107,0.707107,0.707107,255.968451,169.825647)">
				<text style="font-family: Helvetica; font-size: 10px;fill: rgb(0%,0%,0%); stroke:none;" transform="translate(0,0) scale(1,-1)" x="0" y="0">Gene_00231</text>
			</g>
			<g transform=" matrix(0.707107,-0.707107,0.707107,0.707107,320.317068,169.825647)">
				<text style="font-family: Helvetica; font-size: 10px;fill: rgb(0%,0%,0%); stroke:none;" transform="translate(0,0) scale(1,-1)" x="0" y="0">Gene_00232</text>
			</g>
			<g transform=" matrix(0.707107,-0.707107,0.707107,0.707107,377.552066,169.825647)">
				<text style="font-family: Helvetica; font-size: 10px;fill: rgb(0%,0%,0%); stroke:none;" transform="translate(0,0) scale(1,-1)" x="0" y="0">Gene_00233</text>
			</g>
			<g transform=" matrix(0.707107,-0.707107,0.707107,0.707107,428.444086,169.825647)">
				<text style="font-family: Helvetica; font-size: 10px;fill: rgb(0%,0%,0%); stroke:none;" transform="translate(0,0) scale(1,-1)" x="0" y="0">Gene_00234</text>
			</g>
			<g transform=" matrix(0.707107,-0.707107,0.707107,0.707107,471.096163,169.825647)">
				<text style="font-family: Helvetica; font-size: 10px;fill: rgb(0%,0%,0%); stroke:none;" transform="translate(0,0) scale(1,-1)" x="0" y="0">Gene_00235</text>
			</g>
			<g transform=" matrix(0.707107,0.707107,-0.707107,0.707107,513.54076,251.827897)">
				<text style="font-family: Helvetica; font-size: 10px;fill: rgb(0%,0%,0%); stroke:none;" transform="translate(0,0) scale(1,-1)" x="0" y="0">Gene_00236</text>
			</g>
			<g transform=" matrix(0.707107,0.707107,-0.707107,0.707107,551.391144,251.827897)">
				<text style="font-family: Helvetica; font-size: 10px;fill: rgb(0%,0%,0%); stroke:none;" transform="translate(0,0) scale(1,-1)" x="0" y="0">Gene_00237</text>
			</g>
			<g transform=" matrix(0.707107,0.707107,-0.707107,0.707107,620.867496,251.827897)">
				<text style="font-family: Helvetica; font-size: 10px;fill: rgb(0%,0%,0%); stroke:none;" transform="translate(0,0) scale(1,-1)" x="0" y="0">Gene_00238</text>
			</g>
			<g transform=" matrix(0.707107,0.707107,-0.707107,0.707107,670.573912,251.827897)">
				<text style="font-family: Helvetica; font-size: 16px;fill: rgb(0%,0%,100%); stroke:none;" transform="translate(0,0) scale(1,-1)" x="0" y="0">Gene_00239 (83.3)</text>
			</g>
			<g transform=" matrix(0.707107,0.707107,-0.707107,0.707107,724.01498,251.827897)">
				<text style="font-family: Helvetica; font-size: 10px;fill: rgb(0%,0%,0%); stroke:none;" transform="translate(0,0) scale(1,-1)" x="0" y="0">Gene_00240</text>
			</g>
			<g transform=" matrix(0.707107,0.707107,-0.707107,0.707107,854.9945,251.827897)">
				<text style="font-family: Helvetica; font-size: 10px;fill: rgb(0%,0%,0%); stroke:none;" transform="translate(0,0) scale(1,-1)" x="0" y="0">Gene_00241</text>
			</g>
			<g transform=" matrix(0.707107,0.707107,-0.707107,0.707107,950.820884,251.827897)">
				<text style="font-family: Helvetica; font-size: 10px;fill: rgb(0%,0%,0%); stroke:none;" transform="translate(0,0) scale(1,-1)" x="0" y="0">Gene_00242</text>
			</g>
			<g transform=" matrix(0.707107,-0.707107,0.707107,0.707107,998.630335,169.825647)">
				<text style="font-family: Helvetica; font-size: 10px;fill: rgb(0%,0%,0%); stroke:none;" transform="translate(0,0) scale(1,-1)" x="0" y="0">Gene_00243</text>
			</g>
			<g transform=" matrix(0.707107,0.707107,-0.707107,0.707107,1105.48283,251.827897)">
				<text style="font-family: Helvetica; font-size: 10px;fill: rgb(0%,0%,0%); stroke:none;" transform="translate(0,0) scale(1,-1)" x="0" y="0">Gene_00244</text>
			</g>
			<g transform=" matrix(0.707107,-0.707107,0.707107,0.707107,1209.252755,169.825647)">
				<text style="font-family: Helvetica; font-size: 10px;fill: rgb(0%,0%,0%); stroke:none;" transform="translate(0,0) scale(1,-1)" x="0" y="0">Gene_00245</text>
			</g>
			<g transform=" matrix(0.707107,-0.707107,0.707107,0.707107,1300.277446,169.825647)">
				<text style="font-family: Helvetica; font-size: 10px;fill: rgb(0%,0%,0%); stroke:none;" transform="translate(0,0) scale(1,-1)" x="0" y="0">Gene_00246</text>
			</g>
			<g transform=" matrix(0.707107,-0.707107,0.707107,0.707107,115.741225,456.833521)">
				<text style="font-family: Helvetica; font-size: 10px;fill: rgb(0%,0%,0%); stroke:none;" transform="translate(0,0) scale(1,-1)" x="0" y="0">Gene_02072</text>
			</g>
			<g transform=" matrix(0.707107,-0.707107,0.707107,0.707107,206.558435,456.833521)">
				<text style="font-family: Helvetica; font-size: 10px;fill: rgb(0%,0%,0%); stroke:none;" transform="translate(0,0) scale(1,-1)" x="0" y="0">Gene_02073</text>
			</g>
			<g transform=" matrix(0.707107,-0.707107,0.707107,0.707107,319.338946,456.833521)">
				<text style="font-family: Helvetica; font-size: 10px;fill: rgb(0%,0%,0%); stroke:none;" transform="translate(0,0) scale(1,-1)" x="0" y="0">Gene_02074</text>
			</g>
			<g transform=" matrix(0.707107,-0.707107,0.707107,0.707107,396.818119,456.833521)">
				<text style="font-family: Helvetica; font-size: 10px;fill: rgb(0%,0%,0%); stroke:none;" transform="translate(0,0) scale(1,-1)" x="0" y="0">Gene_02075</text>
			</g>
			<g transform=" matrix(0.707107,-0.707107,0.707107,0.707107,447.087697,456.833521)">
				<text style="font-family: Helvetica; font-size: 10px;fill: rgb(0%,0%,0%); stroke:none;" transform="translate(0,0) scale(1,-1)" x="0" y="0">Gene_02076</text>
			</g>
			<g transform=" matrix(0.707107,-0.707107,0.707107,0.707107,492.970544,456.833521)">
				<text style="font-family: Helvetica; font-size: 10px;fill: rgb(0%,0%,0%); stroke:none;" transform="translate(0,0) scale(1,-1)" x="0" y="0">Gene_02077</text>
			</g>
			<g transform=" matrix(0.707107,-0.707107,0.707107,0.707107,514.963484,456.833521)">
				<text style="font-family: Helvetica; font-size: 10px;fill: rgb(0%,0%,0%); stroke:none;" transform="translate(0,0) scale(1,-1)" x="0" y="0">Gene_02078</text>
			</g>
			<g transform=" matrix(0.707107,-0.707107,0.707107,0.707107,549.67202,456.833521)">
				<text style="font-family: Helvetica; font-size: 10px;fill: rgb(0%,0%,0%); stroke:none;" transform="translate(0,0) scale(1,-1)" x="0" y="0">Gene_02079</text>
			</g>
			<g transform=" matrix(0.707107,-0.707107,0.707107,0.707107,635.035455,456.833521)">
				<text style="font-family: Helvetica; font-size: 10px;fill: rgb(0%,0%,0%); stroke:none;" transform="translate(0,0) scale(1,-1)" x="0" y="0">Gene_02080</text>
			</g>
			<g transform=" matrix(0.707107,-0.707107,0.707107,0.707107,687.70588,456.833521)">
				<text style="font-family: Helvetica; font-size: 16px;fill: rgb(0%,0%,100%); stroke:none;" transform="translate(0,0) scale(1,-1)" x="0" y="0">Gene_02081 (83.3)</text>
			</g>
			<g transform=" matrix(0.707107,-0.707107,0.707107,0.707107,742.21399,456.833521)">
				<text style="font-family: Helvetica; font-size: 10px;fill: rgb(0%,0%,0%); stroke:none;" transform="translate(0,0) scale(1,-1)" x="0" y="0">Gene_02082</text>
			</g>
			<g transform=" matrix(0.707107,-0.707107,0.707107,0.707107,811.690341,456.833521)">
				<text style="font-family: Helvetica; font-size: 10px;fill: rgb(0%,0%,0%); stroke:none;" transform="translate(0,0) scale(1,-1)" x="0" y="0">Gene_02083</text>
			</g>
			<g transform=" matrix(0.707107,-0.707107,0.707107,0.707107,853.186455,456.833521)">
				<text style="font-family: Helvetica; font-size: 10px;fill: rgb(0%,0%,0%); stroke:none;" transform="translate(0,0) scale(1,-1)" x="0" y="0">Gene_02084</text>
			</g>
			<g transform=" matrix(0.707107,0.707107,-0.707107,0.707107,893.823007,538.835771)">
				<text style="font-family: Helvetica; font-size: 10px;fill: rgb(0%,0%,0%); stroke:none;" transform="translate(0,0) scale(1,-1)" x="0" y="0">Gene_02085</text>
			</g>
			<g transform=" matrix(0.707107,-0.707107,0.707107,0.707107,947.560475,456.833521)">
				<text style="font-family: Helvetica; font-size: 10px;fill: rgb(0%,0%,0%); stroke:none;" transform="translate(0,0) scale(1,-1)" x="0" y="0">Gene_02086</text>
			</g>
			<g transform=" matrix(0.707107,-0.707107,0.707107,0.707107,1004.587992,456.833521)">
				<text style="font-family: Helvetica; font-size: 10px;fill: rgb(0%,0%,0%); stroke:none;" transform="translate(0,0) scale(1,-1)" x="0" y="0">Gene_02087</text>
			</g>
			<g transform=" matrix(0.707107,-0.707107,0.707107,0.707107,1081.978245,456.833521)">
				<text style="font-family: Helvetica; font-size: 10px;fill: rgb(0%,0%,0%); stroke:none;" transform="translate(0,0) scale(1,-1)" x="0" y="0">Gene_02088</text>
			</g>
			<g transform=" matrix(0.707107,0.707107,-0.707107,0.707107,1150.802514,538.835771)">
				<text style="font-family: Helvetica; font-size: 10px;fill: rgb(0%,0%,0%); stroke:none;" transform="translate(0,0) scale(1,-1)" x="0" y="0">Gene_02089</text>
			</g>
			<g transform=" matrix(0.707107,-0.707107,0.707107,0.707107,1210.082678,456.833521)">
				<text style="font-family: Helvetica; font-size: 10px;fill: rgb(0%,0%,0%); stroke:none;" transform="translate(0,0) scale(1,-1)" x="0" y="0">Gene_02090</text>
			</g>
			<g transform=" matrix(0.707107,-0.707107,0.707107,0.707107,1249.622546,456.833521)">
				<text style="font-family: Helvetica; font-size: 10px;fill: rgb(0%,0%,0%); stroke:none;" transform="translate(0,0) scale(1,-1)" x="0" y="0">Gene_02091</text>
			</g>
			<g transform=" matrix(0.707107,-0.707107,0.707107,0.707107,1307.272505,456.833521)">
				<text style="font-family: Helvetica; font-size: 10px;fill: rgb(0%,0%,0%); stroke:none;" transform="translate(0,0) scale(1,-1)" x="0" y="0">Gene_02092</text>
			</g>
			<g transform=" matrix(1,0,-0,1,70,169.825647)">
				<text style="font-family: Helvetica; font-size: 12px;fill: rgb(60%,60%,60%); stroke:none;" transform="translate(0,0) scale(1,-1)" x="0" y="0">megahit_8349 (left 10202bp, right 26526bp)</text>
			</g>
			<g transform=" matrix(1,0,-0,1,70,456.833521)">
				<text style="font-family: Helvetica; font-size: 12px;fill: rgb(60%,60%,60%); stroke:none;" transform="translate(0,0) scale(1,-1)" x="0" y="0">megahit_23719 (left 45532bp, right 65309bp)</text>
			</g>
		</g>
	</g>
</svg>
