<?xml version="1.0" encoding="utf-8"?>
<!DOCTYPE svg
  PUBLIC '-//W3C//DTD SVG 1.0//EN'
  'http://www.w3.org/TR/2001/REC-SVG-20010904/DTD/svg10.dtd'>
<svg fill-rule="evenodd" height="708.6614173228346" preserveAspectRatio="xMinYMin meet" version="1.0" viewBox="0 0 1417 708" width="1417.3228346456692" xmlns="http://www.w3.org/2000/svg" xmlns:xlink="http://www.w3.org/1999/xlink">
	<title>...</title>
	<desc>...</desc>
	<clipPath id="clip">
		<rect height="708.6614173228346" width="1417.3228346456692" x="0" y="0"/>
	</clipPath>
	<g id="group" style="clip-path: url(#clip)" transform="scale(1,-1) translate(0,-708)">
		<g transform="">
			<polygon points="70.86614 169.8256, 1346.396 169.8256, 1346.396 251.8279, 70.86614 251.8279" style="stroke: rgb(96%,96%,96%); stroke-linecap: butt; stroke-width: 1; fill: rgb(96%,96%,96%); fill-rule: evenodd;"/>
			<polygon points="70.86614 456.8335, 1304.646 456.8335, 1304.646 538.8358, 70.86614 538.8358" style="stroke: rgb(96%,96%,96%); stroke-linecap: butt; stroke-width: 1; fill: rgb(96%,96%,96%); fill-rule: evenodd;"/>
			<polygon points="499.8493 456.8335, 778.2654 456.8335, 597.4279 251.8279, 881.4027 251.8279" style="stroke: rgb(100%,36%,36%); stroke-linecap: round; stroke-width: 1; fill: rgb(100%,36%,36%); fill-rule: evenodd;"/>
			<polygon points="947.3815 456.8335, 1157.221 456.8335, 243.3053 251.8279, 453.5071 251.8279" style="stroke: rgb(100%,47%,47%); stroke-linecap: round; stroke-width: 1; fill: rgb(100%,47%,47%); fill-rule: evenodd;"/>
			<polygon points="787.3285 456.8335, 892.6408 456.8335, 484.2005 251.8279, 589.6337 251.8279" style="stroke: rgb(100%,33%,33%); stroke-linecap: round; stroke-width: 1; fill: rgb(100%,33%,33%); fill-rule: evenodd;"/>
			<polygon points="461.4825 456.8335, 497.5534 456.8335, 888.2906 251.8279, 924.2406 251.8279" style="stroke: rgb(100%,30%,30%); stroke-linecap: round; stroke-width: 1; fill: rgb(100%,30%,30%); fill-rule: evenodd;"/>
			<polygon points="291.1581 456.8335, 342.1527 456.8335, 1034.266 251.8279, 1085.26 251.8279" style="stroke: rgb(100%,51%,51%); stroke-linecap: round; stroke-width: 1; fill: rgb(100%,51%,51%); fill-rule: evenodd;"/>
			<polygon points="1222.958 456.8335, 1268.998 456.8335, 152.1313 251.8279, 198.2923 251.8279" style="stroke: rgb(100%,51%,51%); stroke-linecap: round; stroke-width: 1; fill: rgb(100%,51%,51%); fill-rule: evenodd;"/>
			<polygon points="1177.341 456.8335, 1214.439 456.8335, 199.3194 251.8279, 236.4174 251.8279" style="stroke: rgb(100%,50%,50%); stroke-linecap: round; stroke-width: 1; fill: rgb(100%,50%,50%); fill-rule: evenodd;"/>
			<polygon points="910.1023 456.8335, 934.6933 456.8335, 453.5675 251.8279, 478.1585 251.8279" style="stroke: rgb(100%,40%,40%); stroke-linecap: round; stroke-width: 1; fill: rgb(100%,40%,40%); fill-rule: evenodd;"/>
			<polygon points="1288.937 456.8335, 1303.256 456.8335, 120.2898 251.8279, 134.549 251.8279" style="stroke: rgb(100%,46%,46%); stroke-linecap: round; stroke-width: 1; fill: rgb(100%,46%,46%); fill-rule: evenodd;"/>
			<polygon points="104.0368 456.8335, 143.8537 456.8335, 1230.812 251.8279, 1190.996 251.8279" style="stroke: rgb(100%,67%,67%); stroke-linecap: round; stroke-width: 1; fill: rgb(100%,67%,67%); fill-rule: evenodd;"/>
			<polygon points="363.8435 456.8335, 388.4345 456.8335, 982.4252 251.8279, 1006.291 251.8279" style="stroke: rgb(100%,71%,71%); stroke-linecap: round; stroke-width: 1; fill: rgb(100%,71%,71%); fill-rule: evenodd;"/>
			<polygon points="101.8617 200.5765, 96.02752 200.5765, 96.02752 210.8268, 79.62707 190.3262, 96.02752 169.8256, 96.02752 180.0759, 101.8617 180.0759" style="stroke: rgb(56%,93%,56%); stroke-linecap: round; stroke-width: 1; fill: rgb(56%,93%,56%); fill-rule: evenodd;"/>
			<polygon points="133.5823 200.5765, 133.5823 210.8268, 120.4107 190.3262, 133.5823 169.8256, 133.5823 180.0759" style="stroke: rgb(56%,93%,56%); stroke-linecap: round; stroke-width: 1; fill: rgb(56%,93%,56%); fill-rule: evenodd;"/>
			<polygon points="150.7416 200.5765, 150.3452 200.5765, 150.3452 210.8268, 133.9448 190.3262, 150.3452 169.8256, 150.3452 180.0759, 150.7416 180.0759" style="stroke: rgb(56%,93%,56%); stroke-linecap: round; stroke-width: 1; fill: rgb(56%,93%,56%); fill-rule: evenodd;"/>
			<polygon points="197.2651 200.5765, 167.3233 200.5765, 167.3233 210.8268, 150.9229 190.3262, 167.3233 169.8256, 167.3233 180.0759, 197.2651 180.0759" style="stroke: rgb(56%,93%,56%); stroke-linecap: round; stroke-width: 1; fill: rgb(56%,93%,56%); fill-rule: evenodd;"/>
			<polygon points="236.4174 200.5765, 213.9073 200.5765, 213.9073 210.8268, 197.5068 190.3262, 213.9073 169.8256, 213.9073 180.0759, 236.4174 180.0759" style="stroke: rgb(56%,93%,56%); stroke-linecap: round; stroke-width: 1; fill: rgb(56%,93%,56%); fill-rule: evenodd;"/>
			<polygon points="321.6703 200.5765, 257.8327 200.5765, 257.8327 210.8268, 241.4323 190.3262, 257.8327 169.8256, 257.8327 180.0759, 321.6703 180.0759" style="stroke: rgb(56%,93%,56%); stroke-linecap: round; stroke-width: 1; fill: rgb(56%,93%,56%); fill-rule: evenodd;"/>
			<polygon points="348.376 200.5765, 338.1915 200.5765, 338.1915 210.8268, 321.7911 190.3262, 338.1915 169.8256, 338.1915 180.0759, 348.376 180.0759" style="stroke: rgb(56%,93%,56%); stroke-linecap: round; stroke-width: 1; fill: rgb(56%,93%,56%); fill-rule: evenodd;"/>
			<polygon points="360.8829 200.5765, 360.8829 210.8268, 349.8865 190.3262, 360.8829 169.8256, 360.8829 180.0759" style="stroke: rgb(56%,93%,56%); stroke-linecap: round; stroke-width: 1; fill: rgb(56%,93%,56%); fill-rule: evenodd;"/>
			<polygon points="392.4827 200.5765, 378.1293 200.5765, 378.1293 210.8268, 361.7288 190.3262, 378.1293 169.8256, 378.1293 180.0759, 392.4827 180.0759" style="stroke: rgb(56%,93%,56%); stroke-linecap: round; stroke-width: 1; fill: rgb(56%,93%,56%); fill-rule: evenodd;"/>
			<polygon points="415.8653 200.5765, 410.0311 200.5765, 410.0311 210.8268, 393.6307 190.3262, 410.0311 169.8256, 410.0311 180.0759, 415.8653 180.0759" style="stroke: rgb(56%,93%,56%); stroke-linecap: round; stroke-width: 1; fill: rgb(56%,93%,56%); fill-rule: evenodd;"/>
			<polygon points="449.7006 200.5765, 433.3533 200.5765, 433.3533 210.8268, 416.9529 190.3262, 433.3533 169.8256, 433.3533 180.0759, 449.7006 180.0759" style="stroke: rgb(56%,93%,56%); stroke-linecap: round; stroke-width: 1; fill: rgb(56%,93%,56%); fill-rule: evenodd;"/>
			<polygon points="478.1585 200.5765, 470.3304 200.5765, 470.3304 210.8268, 453.93 190.3262, 470.3304 169.8256, 470.3304 180.0759, 478.1585 180.0759" style="stroke: rgb(56%,93%,56%); stroke-linecap: round; stroke-width: 1; fill: rgb(56%,93%,56%); fill-rule: evenodd;"/>
			<polygon points="495.3178 200.5765, 495.3178 210.8268, 484.1401 190.3262, 495.3178 169.8256, 495.3178 180.0759" style="stroke: rgb(56%,93%,56%); stroke-linecap: round; stroke-width: 1; fill: rgb(56%,93%,56%); fill-rule: evenodd;"/>
			<polygon points="528.9114 200.5765, 512.7454 200.5765, 512.7454 210.8268, 496.345 190.3262, 512.7454 169.8256, 512.7454 180.0759, 528.9114 180.0759" style="stroke: rgb(56%,93%,56%); stroke-linecap: round; stroke-width: 1; fill: rgb(56%,93%,56%); fill-rule: evenodd;"/>
			<polygon points="548.6688 200.5765, 546.6411 200.5765, 546.6411 210.8268, 530.2407 190.3262, 546.6411 169.8256, 546.6411 180.0759, 548.6688 180.0759" style="stroke: rgb(56%,93%,56%); stroke-linecap: round; stroke-width: 1; fill: rgb(56%,93%,56%); fill-rule: evenodd;"/>
			<polygon points="571.7493 200.5765, 565.9151 200.5765, 565.9151 210.8268, 549.5147 190.3262, 565.9151 169.8256, 565.9151 180.0759, 571.7493 180.0759" style="stroke: rgb(56%,93%,56%); stroke-linecap: round; stroke-width: 1; fill: rgb(56%,93%,56%); fill-rule: evenodd;"/>
			<polygon points="588.5461 200.5765, 588.5461 210.8268, 573.1994 190.3262, 588.5461 169.8256, 588.5461 180.0759" style="stroke: rgb(56%,93%,56%); stroke-linecap: round; stroke-width: 1; fill: rgb(56%,93%,56%); fill-rule: evenodd;"/>
			<polygon points="608.9077 200.5765, 608.9077 210.8268, 596.4612 190.3262, 608.9077 169.8256, 608.9077 180.0759" style="stroke: rgb(56%,93%,56%); stroke-linecap: round; stroke-width: 1; fill: rgb(56%,93%,56%); fill-rule: evenodd;"/>
			<polygon points="634.7071 200.5765, 624.704 200.5765, 624.704 210.8268, 608.3035 190.3262, 624.704 169.8256, 624.704 180.0759, 634.7071 180.0759" style="stroke: rgb(56%,93%,56%); stroke-linecap: round; stroke-width: 1; fill: rgb(56%,93%,56%); fill-rule: evenodd;"/>
			<polygon points="674.3428 200.5765, 651.1076 200.5765, 651.1076 210.8268, 634.7071 190.3262, 651.1076 169.8256, 651.1076 180.0759, 674.3428 180.0759" style="stroke: rgb(56%,93%,56%); stroke-linecap: round; stroke-width: 1; fill: rgb(56%,93%,56%); fill-rule: evenodd;"/>
			<polygon points="698.39 200.5765, 691.4683 200.5765, 691.4683 210.8268, 675.0678 190.3262, 691.4683 169.8256, 691.4683 180.0759, 698.39 180.0759" style="stroke: rgb(56%,93%,56%); stroke-linecap: round; stroke-width: 1; fill: rgb(56%,93%,56%); fill-rule: evenodd;"/>
			<polygon points="720.0204 200.5765, 719.4428 200.5765, 719.4428 210.8268, 703.0423 190.3262, 719.4428 169.8256, 719.4428 180.0759, 720.0204 180.0759" style="stroke: rgb(56%,93%,56%); stroke-linecap: round; stroke-width: 1; fill: rgb(56%,93%,56%); fill-rule: evenodd;"/>
			<polygon points="772.4651 200.5765, 737.6293 200.5765, 737.6293 210.8268, 721.2288 190.3262, 737.6293 169.8256, 737.6293 180.0759, 772.4651 180.0759" style="stroke: rgb(56%,93%,56%); stroke-linecap: round; stroke-width: 1; fill: rgb(56%,93%,56%); fill-rule: evenodd;"/>
			<polygon points="799.8959 200.5765, 798.2307 200.5765, 798.2307 210.8268, 781.8302 190.3262, 798.2307 169.8256, 798.2307 180.0759, 799.8959 180.0759" style="stroke: rgb(56%,93%,56%); stroke-linecap: round; stroke-width: 1; fill: rgb(56%,93%,56%); fill-rule: evenodd;"/>
			<polygon points="837.3564 200.5765, 816.2963 200.5765, 816.2963 210.8268, 799.8959 190.3262, 816.2963 169.8256, 816.2963 180.0759, 837.3564 180.0759" style="stroke: rgb(56%,93%,56%); stroke-linecap: round; stroke-width: 1; fill: rgb(56%,93%,56%); fill-rule: evenodd;"/>
			<polygon points="877.5358 200.5765, 855.5694 200.5765, 855.5694 210.8268, 839.169 190.3262, 855.5694 169.8256, 855.5694 180.0759, 877.5358 180.0759" style="stroke: rgb(56%,93%,56%); stroke-linecap: round; stroke-width: 1; fill: rgb(56%,93%,56%); fill-rule: evenodd;"/>
			<polygon points="907.4438 200.5765, 904.691 200.5765, 904.691 210.8268, 888.2906 190.3262, 904.691 169.8256, 904.691 180.0759, 907.4438 180.0759" style="stroke: rgb(56%,93%,56%); stroke-linecap: round; stroke-width: 1; fill: rgb(56%,93%,56%); fill-rule: evenodd;"/>
			<polygon points="918.6215 200.5765, 918.6215 210.8268, 906.5375 190.3262, 918.6215 169.8256, 918.6215 180.0759" style="stroke: rgb(56%,93%,56%); stroke-linecap: round; stroke-width: 1; fill: rgb(56%,93%,56%); fill-rule: evenodd;"/>
			<polygon points="1010.823 200.5765, 945.3538 200.5765, 945.3538 210.8268, 928.9533 190.3262, 945.3538 169.8256, 945.3538 180.0759, 1010.823 180.0759" style="stroke: rgb(56%,93%,56%); stroke-linecap: round; stroke-width: 1; fill: rgb(56%,93%,56%); fill-rule: evenodd;"/>
			<polygon points="1034.266 241.5776, 1070.37 241.5776, 1070.37 251.8279, 1086.771 231.3273, 1070.37 210.8268, 1070.37 221.0771, 1034.266 221.0771" style="stroke: rgb(67%,84%,90%); stroke-linecap: round; stroke-width: 1; fill: rgb(67%,84%,90%); fill-rule: evenodd;"/>
			<polygon points="1149.487 200.5765, 1103.232 200.5765, 1103.232 210.8268, 1086.831 190.3262, 1103.232 169.8256, 1103.232 180.0759, 1149.487 180.0759" style="stroke: rgb(56%,93%,56%); stroke-linecap: round; stroke-width: 1; fill: rgb(56%,93%,56%); fill-rule: evenodd;"/>
			<polygon points="1162.719 241.5776, 1222.931 241.5776, 1222.931 251.8279, 1239.332 231.3273, 1222.931 210.8268, 1222.931 221.0771, 1162.719 221.0771" style="stroke: rgb(67%,84%,90%); stroke-linecap: round; stroke-width: 1; fill: rgb(67%,84%,90%); fill-rule: evenodd;"/>
			<polygon points="1346.396 200.5765, 1262.258 200.5765, 1262.258 210.8268, 1245.857 190.3262, 1262.258 169.8256, 1262.258 180.0759, 1346.396 180.0759" style="stroke: rgb(56%,93%,56%); stroke-linecap: round; stroke-width: 1; fill: rgb(56%,93%,56%); fill-rule: evenodd;"/>
			<polygon points="70.86614 528.5855, 136.335 528.5855, 136.335 538.8358, 152.7355 518.3352, 136.335 497.8346, 136.335 508.0849, 70.86614 508.0849" style="stroke: rgb(67%,84%,90%); stroke-linecap: round; stroke-width: 1; fill: rgb(67%,84%,90%); fill-rule: evenodd;"/>
			<polygon points="156.4815 528.5855, 195.3051 528.5855, 195.3051 538.8358, 211.7055 518.3352, 195.3051 497.8346, 195.3051 508.0849, 156.4815 508.0849" style="stroke: rgb(67%,84%,90%); stroke-linecap: round; stroke-width: 1; fill: rgb(67%,84%,90%); fill-rule: evenodd;"/>
			<polygon points="221.3728 528.5855, 221.3728 538.8358, 226.7502 518.3352, 221.3728 497.8346, 221.3728 508.0849" style="stroke: rgb(67%,84%,90%); stroke-linecap: round; stroke-width: 1; fill: rgb(67%,84%,90%); fill-rule: evenodd;"/>
			<polygon points="225.2397 528.5855, 272.4012 528.5855, 272.4012 538.8358, 288.8017 518.3352, 272.4012 497.8346, 272.4012 508.0849, 225.2397 508.0849" style="stroke: rgb(67%,84%,90%); stroke-linecap: round; stroke-width: 1; fill: rgb(67%,84%,90%); fill-rule: evenodd;"/>
			<polygon points="342.1527 487.5844, 306.2293 487.5844, 306.2293 497.8346, 289.8288 477.3341, 306.2293 456.8335, 306.2293 467.0838, 342.1527 467.0838" style="stroke: rgb(56%,93%,56%); stroke-linecap: round; stroke-width: 1; fill: rgb(56%,93%,56%); fill-rule: evenodd;"/>
			<polygon points="359.4933 528.5855, 425.5059 528.5855, 425.5059 538.8358, 441.9064 518.3352, 425.5059 497.8346, 425.5059 508.0849, 359.4933 508.0849" style="stroke: rgb(67%,84%,90%); stroke-linecap: round; stroke-width: 1; fill: rgb(67%,84%,90%); fill-rule: evenodd;"/>
			<polygon points="478.4002 528.5855, 481.1529 528.5855, 481.1529 538.8358, 497.5534 518.3352, 481.1529 497.8346, 481.1529 508.0849, 478.4002 508.0849" style="stroke: rgb(67%,84%,90%); stroke-linecap: round; stroke-width: 1; fill: rgb(67%,84%,90%); fill-rule: evenodd;"/>
			<polygon points="503.9579 528.5855, 525.9242 528.5855, 525.9242 538.8358, 542.3247 518.3352, 525.9242 497.8346, 525.9242 508.0849, 503.9579 508.0849" style="stroke: rgb(67%,84%,90%); stroke-linecap: round; stroke-width: 1; fill: rgb(67%,84%,90%); fill-rule: evenodd;"/>
			<polygon points="544.0165 528.5855, 564.714 528.5855, 564.714 538.8358, 581.1144 518.3352, 564.714 497.8346, 564.714 508.0849, 544.0165 508.0849" style="stroke: rgb(67%,84%,90%); stroke-linecap: round; stroke-width: 1; fill: rgb(67%,84%,90%); fill-rule: evenodd;"/>
			<polygon points="581.1144 528.5855, 582.7796 528.5855, 582.7796 538.8358, 599.1801 518.3352, 582.7796 497.8346, 582.7796 508.0849, 581.1144 508.0849" style="stroke: rgb(67%,84%,90%); stroke-linecap: round; stroke-width: 1; fill: rgb(67%,84%,90%); fill-rule: evenodd;"/>
			<polygon points="606.4909 528.5855, 640.783 528.5855, 640.783 538.8358, 657.1834 518.3352, 640.783 497.8346, 640.783 508.0849, 606.4909 508.0849" style="stroke: rgb(67%,84%,90%); stroke-linecap: round; stroke-width: 1; fill: rgb(67%,84%,90%); fill-rule: evenodd;"/>
			<polygon points="658.5731 528.5855, 658.9695 528.5855, 658.9695 538.8358, 675.3699 518.3352, 658.9695 497.8346, 658.9695 508.0849, 658.5731 508.0849" style="stroke: rgb(67%,84%,90%); stroke-linecap: round; stroke-width: 1; fill: rgb(67%,84%,90%); fill-rule: evenodd;"/>
			<polygon points="677.1221 528.5855, 684.0438 528.5855, 684.0438 538.8358, 700.4443 518.3352, 684.0438 497.8346, 684.0438 508.0849, 677.1221 508.0849" style="stroke: rgb(67%,84%,90%); stroke-linecap: round; stroke-width: 1; fill: rgb(67%,84%,90%); fill-rule: evenodd;"/>
			<polygon points="701.3506 528.5855, 724.5858 528.5855, 724.5858 538.8358, 740.9862 518.3352, 724.5858 497.8346, 724.5858 508.0849, 701.3506 508.0849" style="stroke: rgb(67%,84%,90%); stroke-linecap: round; stroke-width: 1; fill: rgb(67%,84%,90%); fill-rule: evenodd;"/>
			<polygon points="740.9862 528.5855, 750.9894 528.5855, 750.9894 538.8358, 767.3898 518.3352, 750.9894 497.8346, 750.9894 508.0849, 740.9862 508.0849" style="stroke: rgb(67%,84%,90%); stroke-linecap: round; stroke-width: 1; fill: rgb(67%,84%,90%); fill-rule: evenodd;"/>
			<polygon points="766.7856 528.5855, 766.7856 538.8358, 779.2322 518.3352, 766.7856 497.8346, 766.7856 508.0849" style="stroke: rgb(67%,84%,90%); stroke-linecap: round; stroke-width: 1; fill: rgb(67%,84%,90%); fill-rule: evenodd;"/>
			<polygon points="788.416 528.5855, 788.416 538.8358, 803.7628 518.3352, 788.416 497.8346, 788.416 508.0849" style="stroke: rgb(67%,84%,90%); stroke-linecap: round; stroke-width: 1; fill: rgb(67%,84%,90%); fill-rule: evenodd;"/>
			<polygon points="805.2128 528.5855, 811.047 528.5855, 811.047 538.8358, 827.4475 518.3352, 811.047 497.8346, 811.047 508.0849, 805.2128 508.0849" style="stroke: rgb(67%,84%,90%); stroke-linecap: round; stroke-width: 1; fill: rgb(67%,84%,90%); fill-rule: evenodd;"/>
			<polygon points="828.2933 528.5855, 830.321 528.5855, 830.321 538.8358, 846.7215 518.3352, 830.321 497.8346, 830.321 508.0849, 828.2933 508.0849" style="stroke: rgb(67%,84%,90%); stroke-linecap: round; stroke-width: 1; fill: rgb(67%,84%,90%); fill-rule: evenodd;"/>
			<polygon points="848.0507 528.5855, 864.2168 528.5855, 864.2168 538.8358, 880.6172 518.3352, 864.2168 497.8346, 864.2168 508.0849, 848.0507 508.0849" style="stroke: rgb(67%,84%,90%); stroke-linecap: round; stroke-width: 1; fill: rgb(67%,84%,90%); fill-rule: evenodd;"/>
			<polygon points="881.5235 528.5855, 881.5235 538.8358, 892.7012 518.3352, 881.5235 497.8346, 881.5235 508.0849" style="stroke: rgb(67%,84%,90%); stroke-linecap: round; stroke-width: 1; fill: rgb(67%,84%,90%); fill-rule: evenodd;"/>
			<polygon points="910.1023 528.5855, 917.9303 528.5855, 917.9303 538.8358, 934.3307 518.3352, 917.9303 497.8346, 917.9303 508.0849, 910.1023 508.0849" style="stroke: rgb(67%,84%,90%); stroke-linecap: round; stroke-width: 1; fill: rgb(67%,84%,90%); fill-rule: evenodd;"/>
			<polygon points="951.3692 528.5855, 967.7165 528.5855, 967.7165 538.8358, 984.117 518.3352, 967.7165 497.8346, 967.7165 508.0849, 951.3692 508.0849" style="stroke: rgb(67%,84%,90%); stroke-linecap: round; stroke-width: 1; fill: rgb(67%,84%,90%); fill-rule: evenodd;"/>
			<polygon points="985.2045 528.5855, 991.0387 528.5855, 991.0387 538.8358, 1007.439 518.3352, 991.0387 497.8346, 991.0387 508.0849, 985.2045 508.0849" style="stroke: rgb(67%,84%,90%); stroke-linecap: round; stroke-width: 1; fill: rgb(67%,84%,90%); fill-rule: evenodd;"/>
			<polygon points="1008.708 528.5855, 1023.061 528.5855, 1023.061 538.8358, 1039.462 518.3352, 1023.061 497.8346, 1023.061 508.0849, 1008.708 508.0849" style="stroke: rgb(67%,84%,90%); stroke-linecap: round; stroke-width: 1; fill: rgb(67%,84%,90%); fill-rule: evenodd;"/>
			<polygon points="1040.489 528.5855, 1040.489 538.8358, 1051.485 518.3352, 1040.489 497.8346, 1040.489 508.0849" style="stroke: rgb(67%,84%,90%); stroke-linecap: round; stroke-width: 1; fill: rgb(67%,84%,90%); fill-rule: evenodd;"/>
			<polygon points="1052.875 528.5855, 1063.06 528.5855, 1063.06 538.8358, 1079.46 518.3352, 1063.06 497.8346, 1063.06 508.0849, 1052.875 508.0849" style="stroke: rgb(67%,84%,90%); stroke-linecap: round; stroke-width: 1; fill: rgb(67%,84%,90%); fill-rule: evenodd;"/>
			<polygon points="1079.581 528.5855, 1142.693 528.5855, 1142.693 538.8358, 1159.094 518.3352, 1142.693 497.8346, 1142.693 508.0849, 1079.581 508.0849" style="stroke: rgb(67%,84%,90%); stroke-linecap: round; stroke-width: 1; fill: rgb(67%,84%,90%); fill-rule: evenodd;"/>
			<polygon points="1177.341 528.5855, 1199.67 528.5855, 1199.67 538.8358, 1216.07 518.3352, 1199.67 497.8346, 1199.67 508.0849, 1177.341 508.0849" style="stroke: rgb(67%,84%,90%); stroke-linecap: round; stroke-width: 1; fill: rgb(67%,84%,90%); fill-rule: evenodd;"/>
			<polygon points="1223.985 528.5855, 1253.021 528.5855, 1253.021 538.8358, 1269.421 518.3352, 1253.021 497.8346, 1253.021 508.0849, 1223.985 508.0849" style="stroke: rgb(67%,84%,90%); stroke-linecap: round; stroke-width: 1; fill: rgb(67%,84%,90%); fill-rule: evenodd;"/>
			<polygon points="1272.261 528.5855, 1272.476 528.5855, 1272.476 538.8358, 1288.876 518.3352, 1272.476 497.8346, 1272.476 508.0849, 1272.261 508.0849" style="stroke: rgb(67%,84%,90%); stroke-linecap: round; stroke-width: 1; fill: rgb(67%,84%,90%); fill-rule: evenodd;"/>
			<polygon points="1289.964 528.5855, 1289.964 538.8358, 1303.135 518.3352, 1289.964 497.8346, 1289.964 508.0849" style="stroke: rgb(67%,84%,90%); stroke-linecap: round; stroke-width: 1; fill: rgb(67%,84%,90%); fill-rule: evenodd;"/>
			<path d="M 1346.396273,169.825647 L 1346.396273,251.827897 Z" style="stroke: rgb(0%,0%,0%); stroke-linecap: butt; stroke-width: 1;"/>
			<path d="M 70.866142,210.826772 L 1346.396273,210.826772 Z" style="stroke: rgb(0%,0%,0%); stroke-linecap: butt; stroke-width: 1;"/>
			<path d="M 70.866142,169.825647 L 70.866142,251.827897 Z" style="stroke: rgb(0%,0%,0%); stroke-linecap: butt; stroke-width: 1;"/>
			<path d="M 675.067805,210.826772 L 675.067805,231.327334 Z" style="stroke: rgb(0%,0%,0%); stroke-linecap: butt; stroke-width: 1;"/>
			<path d="M 1279.269468,210.826772 L 1279.269468,231.327334 Z" style="stroke: rgb(0%,0%,0%); stroke-linecap: butt; stroke-width: 1;"/>
			<path d="M 675.067805,210.826772 L 675.067805,223.127109 Z" style="stroke: rgb(0%,0%,0%); stroke-linecap: butt; stroke-width: 1;"/>
			<path d="M 1279.269468,210.826772 L 1279.269468,223.127109 Z" style="stroke: rgb(0%,0%,0%); stroke-linecap: butt; stroke-width: 1;"/>
			<path d="M 1304.645938,456.833521 L 1304.645938,538.835771 Z" style="stroke: rgb(0%,0%,0%); stroke-linecap: butt; stroke-width: 1;"/>
			<path d="M 70.866142,497.834646 L 1304.645938,497.834646 Z" style="stroke: rgb(0%,0%,0%); stroke-linecap: butt; stroke-width: 1;"/>
			<path d="M 70.866142,456.833521 L 70.866142,538.835771 Z" style="stroke: rgb(0%,0%,0%); stroke-linecap: butt; stroke-width: 1;"/>
			<path d="M 675.067805,497.834646 L 675.067805,518.335208 Z" style="stroke: rgb(0%,0%,0%); stroke-linecap: butt; stroke-width: 1;"/>
			<path d="M 1279.269468,497.834646 L 1279.269468,518.335208 Z" style="stroke: rgb(0%,0%,0%); stroke-linecap: butt; stroke-width: 1;"/>
			<path d="M 675.067805,497.834646 L 675.067805,510.134983 Z" style="stroke: rgb(0%,0%,0%); stroke-linecap: butt; stroke-width: 1;"/>
			<path d="M 1279.269468,497.834646 L 1279.269468,510.134983 Z" style="stroke: rgb(0%,0%,0%); stroke-linecap: butt; stroke-width: 1;"/>
			<g transform=" matrix(0.707107,0.707107,-0.707107,0.707107,675.067805,231.327334)">
				<text style="font-family: Helvetica; font-size: 6px;fill: rgb(0%,0%,0%); stroke:none;" transform="translate(0,0) scale(1,-1)" x="0" y="0">10000</text>
			</g>
			<g transform=" matrix(0.707107,0.707107,-0.707107,0.707107,1279.269468,231.327334)">
				<text style="font-family: Helvetica; font-size: 6px;fill: rgb(0%,0%,0%); stroke:none;" transform="translate(0,0) scale(1,-1)" x="0" y="0">20000</text>
			</g>
			<g transform=" matrix(0.707107,0.707107,-0.707107,0.707107,675.067805,518.335208)">
				<text style="font-family: Helvetica; font-size: 6px;fill: rgb(0%,0%,0%); stroke:none;" transform="translate(0,0) scale(1,-1)" x="0" y="0">10000</text>
			</g>
			<g transform=" matrix(0.707107,0.707107,-0.707107,0.707107,1279.269468,518.335208)">
				<text style="font-family: Helvetica; font-size: 6px;fill: rgb(0%,0%,0%); stroke:none;" transform="translate(0,0) scale(1,-1)" x="0" y="0">20000</text>
			</g>
			<g transform=" matrix(0.707107,-0.707107,0.707107,0.707107,90.744376,169.825647)">
				<text style="font-family: Helvetica; font-size: 10px;fill: rgb(0%,0%,0%); stroke:none;" transform="translate(0,0) scale(1,-1)" x="0" y="0">Gene_00751</text>
			</g>
			<g transform=" matrix(0.707107,-0.707107,0.707107,0.707107,126.996476,169.825647)">
				<text style="font-family: Helvetica; font-size: 10px;fill: rgb(0%,0%,0%); stroke:none;" transform="translate(0,0) scale(1,-1)" x="0" y="0">Gene_00752</text>
			</g>
			<g transform=" matrix(0.707107,-0.707107,0.707107,0.707107,142.343198,169.825647)">
				<text style="font-family: Helvetica; font-size: 10px;fill: rgb(0%,0%,0%); stroke:none;" transform="translate(0,0) scale(1,-1)" x="0" y="0">Gene_00753</text>
			</g>
			<g transform=" matrix(0.707107,-0.707107,0.707107,0.707107,174.093996,169.825647)">
				<text style="font-family: Helvetica; font-size: 10px;fill: rgb(0%,0%,0%); stroke:none;" transform="translate(0,0) scale(1,-1)" x="0" y="0">Gene_00754</text>
			</g>
			<g transform=" matrix(0.707107,-0.707107,0.707107,0.707107,216.962104,169.825647)">
				<text style="font-family: Helvetica; font-size: 10px;fill: rgb(0%,0%,0%); stroke:none;" transform="translate(0,0) scale(1,-1)" x="0" y="0">Gene_00755</text>
			</g>
			<g transform=" matrix(0.707107,-0.707107,0.707107,0.707107,281.551262,169.825647)">
				<text style="font-family: Helvetica; font-size: 10px;fill: rgb(0%,0%,0%); stroke:none;" transform="translate(0,0) scale(1,-1)" x="0" y="0">Gene_00756</text>
			</g>
			<g transform=" matrix(0.707107,-0.707107,0.707107,0.707107,335.083529,169.825647)">
				<text style="font-family: Helvetica; font-size: 10px;fill: rgb(0%,0%,0%); stroke:none;" transform="translate(0,0) scale(1,-1)" x="0" y="0">Gene_00757</text>
			</g>
			<g transform=" matrix(0.707107,-0.707107,0.707107,0.707107,355.384705,169.825647)">
				<text style="font-family: Helvetica; font-size: 10px;fill: rgb(0%,0%,0%); stroke:none;" transform="translate(0,0) scale(1,-1)" x="0" y="0">Gene_00758</text>
			</g>
			<g transform=" matrix(0.707107,-0.707107,0.707107,0.707107,377.105755,169.825647)">
				<text style="font-family: Helvetica; font-size: 10px;fill: rgb(0%,0%,0%); stroke:none;" transform="translate(0,0) scale(1,-1)" x="0" y="0">Gene_00759</text>
			</g>
			<g transform=" matrix(0.707107,-0.707107,0.707107,0.707107,404.747981,169.825647)">
				<text style="font-family: Helvetica; font-size: 10px;fill: rgb(0%,0%,0%); stroke:none;" transform="translate(0,0) scale(1,-1)" x="0" y="0">Gene_00760</text>
			</g>
			<g transform=" matrix(0.707107,-0.707107,0.707107,0.707107,433.326719,169.825647)">
				<text style="font-family: Helvetica; font-size: 10px;fill: rgb(0%,0%,0%); stroke:none;" transform="translate(0,0) scale(1,-1)" x="0" y="0">Gene_00761</text>
			</g>
			<g transform=" matrix(0.707107,-0.707107,0.707107,0.707107,466.044239,169.825647)">
				<text style="font-family: Helvetica; font-size: 10px;fill: rgb(0%,0%,0%); stroke:none;" transform="translate(0,0) scale(1,-1)" x="0" y="0">Gene_00762</text>
			</g>
			<g transform=" matrix(0.707107,-0.707107,0.707107,0.707107,489.728945,169.825647)">
				<text style="font-family: Helvetica; font-size: 10px;fill: rgb(0%,0%,0%); stroke:none;" transform="translate(0,0) scale(1,-1)" x="0" y="0">Gene_00763</text>
			</g>
			<g transform=" matrix(0.707107,-0.707107,0.707107,0.707107,512.628188,169.825647)">
				<text style="font-family: Helvetica; font-size: 10px;fill: rgb(0%,0%,0%); stroke:none;" transform="translate(0,0) scale(1,-1)" x="0" y="0">Gene_00764</text>
			</g>
			<g transform=" matrix(0.707107,-0.707107,0.707107,0.707107,539.454742,169.825647)">
				<text style="font-family: Helvetica; font-size: 10px;fill: rgb(0%,0%,0%); stroke:none;" transform="translate(0,0) scale(1,-1)" x="0" y="0">Gene_00765</text>
			</g>
			<g transform=" matrix(0.707107,-0.707107,0.707107,0.707107,560.63201,169.825647)">
				<text style="font-family: Helvetica; font-size: 10px;fill: rgb(0%,0%,0%); stroke:none;" transform="translate(0,0) scale(1,-1)" x="0" y="0">Gene_00766</text>
			</g>
			<g transform=" matrix(0.707107,-0.707107,0.707107,0.707107,580.872766,169.825647)">
				<text style="font-family: Helvetica; font-size: 10px;fill: rgb(0%,0%,0%); stroke:none;" transform="translate(0,0) scale(1,-1)" x="0" y="0">Gene_00767</text>
			</g>
			<g transform=" matrix(0.707107,-0.707107,0.707107,0.707107,602.684446,169.825647)">
				<text style="font-family: Helvetica; font-size: 10px;fill: rgb(0%,0%,0%); stroke:none;" transform="translate(0,0) scale(1,-1)" x="0" y="0">Gene_00768</text>
			</g>
			<g transform=" matrix(0.707107,-0.707107,0.707107,0.707107,621.505327,169.825647)">
				<text style="font-family: Helvetica; font-size: 10px;fill: rgb(0%,0%,0%); stroke:none;" transform="translate(0,0) scale(1,-1)" x="0" y="0">Gene_00769</text>
			</g>
			<g transform=" matrix(0.707107,-0.707107,0.707107,0.707107,654.524948,169.825647)">
				<text style="font-family: Helvetica; font-size: 10px;fill: rgb(0%,0%,0%); stroke:none;" transform="translate(0,0) scale(1,-1)" x="0" y="0">Gene_00770</text>
			</g>
			<g transform=" matrix(0.707107,-0.707107,0.707107,0.707107,686.728897,169.825647)">
				<text style="font-family: Helvetica; font-size: 16px;fill: rgb(0%,0%,100%); stroke:none;" transform="translate(0,0) scale(1,-1)" x="0" y="0">Gene_00771 (87.3)</text>
			</g>
			<g transform=" matrix(0.707107,-0.707107,0.707107,0.707107,711.531375,169.825647)">
				<text style="font-family: Helvetica; font-size: 10px;fill: rgb(0%,0%,0%); stroke:none;" transform="translate(0,0) scale(1,-1)" x="0" y="0">Gene_00772</text>
			</g>
			<g transform=" matrix(0.707107,-0.707107,0.707107,0.707107,746.846962,169.825647)">
				<text style="font-family: Helvetica; font-size: 10px;fill: rgb(0%,0%,0%); stroke:none;" transform="translate(0,0) scale(1,-1)" x="0" y="0">Gene_00773</text>
			</g>
			<g transform=" matrix(0.707107,-0.707107,0.707107,0.707107,790.863054,169.825647)">
				<text style="font-family: Helvetica; font-size: 10px;fill: rgb(0%,0%,0%); stroke:none;" transform="translate(0,0) scale(1,-1)" x="0" y="0">Gene_00774</text>
			</g>
			<g transform=" matrix(0.707107,-0.707107,0.707107,0.707107,818.62612,169.825647)">
				<text style="font-family: Helvetica; font-size: 10px;fill: rgb(0%,0%,0%); stroke:none;" transform="translate(0,0) scale(1,-1)" x="0" y="0">Gene_00775</text>
			</g>
			<g transform=" matrix(0.707107,-0.707107,0.707107,0.707107,858.352379,169.825647)">
				<text style="font-family: Helvetica; font-size: 10px;fill: rgb(0%,0%,0%); stroke:none;" transform="translate(0,0) scale(1,-1)" x="0" y="0">Gene_00776</text>
			</g>
			<g transform=" matrix(0.707107,-0.707107,0.707107,0.707107,897.867168,169.825647)">
				<text style="font-family: Helvetica; font-size: 10px;fill: rgb(0%,0%,0%); stroke:none;" transform="translate(0,0) scale(1,-1)" x="0" y="0">Gene_00777</text>
			</g>
			<g transform=" matrix(0.707107,-0.707107,0.707107,0.707107,912.579479,169.825647)">
				<text style="font-family: Helvetica; font-size: 10px;fill: rgb(0%,0%,0%); stroke:none;" transform="translate(0,0) scale(1,-1)" x="0" y="0">Gene_00778</text>
			</g>
			<g transform=" matrix(0.707107,-0.707107,0.707107,0.707107,969.888006,169.825647)">
				<text style="font-family: Helvetica; font-size: 10px;fill: rgb(0%,0%,0%); stroke:none;" transform="translate(0,0) scale(1,-1)" x="0" y="0">Gene_00779</text>
			</g>
			<g transform=" matrix(0.707107,0.707107,-0.707107,0.707107,1060.518256,251.827897)">
				<text style="font-family: Helvetica; font-size: 10px;fill: rgb(0%,0%,0%); stroke:none;" transform="translate(0,0) scale(1,-1)" x="0" y="0">Gene_00780</text>
			</g>
			<g transform=" matrix(0.707107,-0.707107,0.707107,0.707107,1118.159095,169.825647)">
				<text style="font-family: Helvetica; font-size: 10px;fill: rgb(0%,0%,0%); stroke:none;" transform="translate(0,0) scale(1,-1)" x="0" y="0">Gene_00781</text>
			</g>
			<g transform=" matrix(0.707107,0.707107,-0.707107,0.707107,1201.025353,251.827897)">
				<text style="font-family: Helvetica; font-size: 10px;fill: rgb(0%,0%,0%); stroke:none;" transform="translate(0,0) scale(1,-1)" x="0" y="0">Gene_00782</text>
			</g>
			<g transform=" matrix(0.707107,-0.707107,0.707107,0.707107,1296.126694,169.825647)">
				<text style="font-family: Helvetica; font-size: 10px;fill: rgb(0%,0%,0%); stroke:none;" transform="translate(0,0) scale(1,-1)" x="0" y="0">Gene_00783</text>
			</g>
			<g transform=" matrix(0.707107,0.707107,-0.707107,0.707107,111.800804,538.835771)">
				<text style="font-family: Helvetica; font-size: 10px;fill: rgb(0%,0%,0%); stroke:none;" transform="translate(0,0) scale(1,-1)" x="0" y="0">Gene_01851</text>
			</g>
			<g transform=" matrix(0.707107,0.707107,-0.707107,0.707107,184.093533,538.835771)">
				<text style="font-family: Helvetica; font-size: 10px;fill: rgb(0%,0%,0%); stroke:none;" transform="translate(0,0) scale(1,-1)" x="0" y="0">Gene_01852</text>
			</g>
			<g transform=" matrix(0.707107,0.707107,-0.707107,0.707107,224.061473,538.835771)">
				<text style="font-family: Helvetica; font-size: 10px;fill: rgb(0%,0%,0%); stroke:none;" transform="translate(0,0) scale(1,-1)" x="0" y="0">Gene_01853</text>
			</g>
			<g transform=" matrix(0.707107,0.707107,-0.707107,0.707107,257.020674,538.835771)">
				<text style="font-family: Helvetica; font-size: 10px;fill: rgb(0%,0%,0%); stroke:none;" transform="translate(0,0) scale(1,-1)" x="0" y="0">Gene_01854</text>
			</g>
			<g transform=" matrix(0.707107,-0.707107,0.707107,0.707107,315.990756,456.833521)">
				<text style="font-family: Helvetica; font-size: 10px;fill: rgb(0%,0%,0%); stroke:none;" transform="translate(0,0) scale(1,-1)" x="0" y="0">Gene_01855</text>
			</g>
			<g transform=" matrix(0.707107,0.707107,-0.707107,0.707107,400.69983,538.835771)">
				<text style="font-family: Helvetica; font-size: 10px;fill: rgb(0%,0%,0%); stroke:none;" transform="translate(0,0) scale(1,-1)" x="0" y="0">Gene_01856</text>
			</g>
			<g transform=" matrix(0.707107,0.707107,-0.707107,0.707107,487.97676,538.835771)">
				<text style="font-family: Helvetica; font-size: 10px;fill: rgb(0%,0%,0%); stroke:none;" transform="translate(0,0) scale(1,-1)" x="0" y="0">Gene_01857</text>
			</g>
			<g transform=" matrix(0.707107,0.707107,-0.707107,0.707107,523.141297,538.835771)">
				<text style="font-family: Helvetica; font-size: 10px;fill: rgb(0%,0%,0%); stroke:none;" transform="translate(0,0) scale(1,-1)" x="0" y="0">Gene_01858</text>
			</g>
			<g transform=" matrix(0.707107,0.707107,-0.707107,0.707107,562.565455,538.835771)">
				<text style="font-family: Helvetica; font-size: 10px;fill: rgb(0%,0%,0%); stroke:none;" transform="translate(0,0) scale(1,-1)" x="0" y="0">Gene_01859</text>
			</g>
			<g transform=" matrix(0.707107,0.707107,-0.707107,0.707107,590.147261,538.835771)">
				<text style="font-family: Helvetica; font-size: 10px;fill: rgb(0%,0%,0%); stroke:none;" transform="translate(0,0) scale(1,-1)" x="0" y="0">Gene_01860</text>
			</g>
			<g transform=" matrix(0.707107,0.707107,-0.707107,0.707107,631.837176,538.835771)">
				<text style="font-family: Helvetica; font-size: 10px;fill: rgb(0%,0%,0%); stroke:none;" transform="translate(0,0) scale(1,-1)" x="0" y="0">Gene_01861</text>
			</g>
			<g transform=" matrix(0.707107,0.707107,-0.707107,0.707107,666.971503,538.835771)">
				<text style="font-family: Helvetica; font-size: 10px;fill: rgb(0%,0%,0%); stroke:none;" transform="translate(0,0) scale(1,-1)" x="0" y="0">Gene_01862</text>
			</g>
			<g transform=" matrix(0.707107,0.707107,-0.707107,0.707107,688.783183,538.835771)">
				<text style="font-family: Helvetica; font-size: 16px;fill: rgb(0%,0%,100%); stroke:none;" transform="translate(0,0) scale(1,-1)" x="0" y="0">Gene_01863 (87.3)</text>
			</g>
			<g transform=" matrix(0.707107,0.707107,-0.707107,0.707107,721.168392,538.835771)">
				<text style="font-family: Helvetica; font-size: 10px;fill: rgb(0%,0%,0%); stroke:none;" transform="translate(0,0) scale(1,-1)" x="0" y="0">Gene_01864</text>
			</g>
			<g transform=" matrix(0.707107,0.707107,-0.707107,0.707107,754.188013,538.835771)">
				<text style="font-family: Helvetica; font-size: 10px;fill: rgb(0%,0%,0%); stroke:none;" transform="translate(0,0) scale(1,-1)" x="0" y="0">Gene_01865</text>
			</g>
			<g transform=" matrix(0.707107,0.707107,-0.707107,0.707107,773.008894,538.835771)">
				<text style="font-family: Helvetica; font-size: 10px;fill: rgb(0%,0%,0%); stroke:none;" transform="translate(0,0) scale(1,-1)" x="0" y="0">Gene_01866</text>
			</g>
			<g transform=" matrix(0.707107,0.707107,-0.707107,0.707107,796.089398,538.835771)">
				<text style="font-family: Helvetica; font-size: 10px;fill: rgb(0%,0%,0%); stroke:none;" transform="translate(0,0) scale(1,-1)" x="0" y="0">Gene_01867</text>
			</g>
			<g transform=" matrix(0.707107,0.707107,-0.707107,0.707107,816.330154,538.835771)">
				<text style="font-family: Helvetica; font-size: 10px;fill: rgb(0%,0%,0%); stroke:none;" transform="translate(0,0) scale(1,-1)" x="0" y="0">Gene_01868</text>
			</g>
			<g transform=" matrix(0.707107,0.707107,-0.707107,0.707107,837.507422,538.835771)">
				<text style="font-family: Helvetica; font-size: 10px;fill: rgb(0%,0%,0%); stroke:none;" transform="translate(0,0) scale(1,-1)" x="0" y="0">Gene_01869</text>
			</g>
			<g transform=" matrix(0.707107,0.707107,-0.707107,0.707107,864.333976,538.835771)">
				<text style="font-family: Helvetica; font-size: 10px;fill: rgb(0%,0%,0%); stroke:none;" transform="translate(0,0) scale(1,-1)" x="0" y="0">Gene_01870</text>
			</g>
			<g transform=" matrix(0.707107,0.707107,-0.707107,0.707107,887.112379,538.835771)">
				<text style="font-family: Helvetica; font-size: 10px;fill: rgb(0%,0%,0%); stroke:none;" transform="translate(0,0) scale(1,-1)" x="0" y="0">Gene_01871</text>
			</g>
			<g transform=" matrix(0.707107,0.707107,-0.707107,0.707107,922.216495,538.835771)">
				<text style="font-family: Helvetica; font-size: 10px;fill: rgb(0%,0%,0%); stroke:none;" transform="translate(0,0) scale(1,-1)" x="0" y="0">Gene_01872</text>
			</g>
			<g transform=" matrix(0.707107,0.707107,-0.707107,0.707107,967.74309,538.835771)">
				<text style="font-family: Helvetica; font-size: 10px;fill: rgb(0%,0%,0%); stroke:none;" transform="translate(0,0) scale(1,-1)" x="0" y="0">Gene_01873</text>
			</g>
			<g transform=" matrix(0.707107,0.707107,-0.707107,0.707107,996.321829,538.835771)">
				<text style="font-family: Helvetica; font-size: 10px;fill: rgb(0%,0%,0%); stroke:none;" transform="translate(0,0) scale(1,-1)" x="0" y="0">Gene_01874</text>
			</g>
			<g transform=" matrix(0.707107,0.707107,-0.707107,0.707107,1024.084896,538.835771)">
				<text style="font-family: Helvetica; font-size: 10px;fill: rgb(0%,0%,0%); stroke:none;" transform="translate(0,0) scale(1,-1)" x="0" y="0">Gene_01875</text>
			</g>
			<g transform=" matrix(0.707107,0.707107,-0.707107,0.707107,1045.987206,538.835771)">
				<text style="font-family: Helvetica; font-size: 10px;fill: rgb(0%,0%,0%); stroke:none;" transform="translate(0,0) scale(1,-1)" x="0" y="0">Gene_01876</text>
			</g>
			<g transform=" matrix(0.707107,0.707107,-0.707107,0.707107,1066.167541,538.835771)">
				<text style="font-family: Helvetica; font-size: 10px;fill: rgb(0%,0%,0%); stroke:none;" transform="translate(0,0) scale(1,-1)" x="0" y="0">Gene_01877</text>
			</g>
			<g transform=" matrix(0.707107,0.707107,-0.707107,0.707107,1119.337288,538.835771)">
				<text style="font-family: Helvetica; font-size: 10px;fill: rgb(0%,0%,0%); stroke:none;" transform="translate(0,0) scale(1,-1)" x="0" y="0">Gene_01878</text>
			</g>
			<g transform=" matrix(0.707107,0.707107,-0.707107,0.707107,1196.705311,538.835771)">
				<text style="font-family: Helvetica; font-size: 10px;fill: rgb(0%,0%,0%); stroke:none;" transform="translate(0,0) scale(1,-1)" x="0" y="0">Gene_01879</text>
			</g>
			<g transform=" matrix(0.707107,0.707107,-0.707107,0.707107,1246.702998,538.835771)">
				<text style="font-family: Helvetica; font-size: 10px;fill: rgb(0%,0%,0%); stroke:none;" transform="translate(0,0) scale(1,-1)" x="0" y="0">Gene_01880</text>
			</g>
			<g transform=" matrix(0.707107,0.707107,-0.707107,0.707107,1280.568502,538.835771)">
				<text style="font-family: Helvetica; font-size: 10px;fill: rgb(0%,0%,0%); stroke:none;" transform="translate(0,0) scale(1,-1)" x="0" y="0">Gene_01881</text>
			</g>
			<g transform=" matrix(0.707107,0.707107,-0.707107,0.707107,1296.549636,538.835771)">
				<text style="font-family: Helvetica; font-size: 10px;fill: rgb(0%,0%,0%); stroke:none;" transform="translate(0,0) scale(1,-1)" x="0" y="0">Gene_01882</text>
			</g>
			<g transform=" matrix(1,0,-0,1,70,169.825647)">
				<text style="font-family: Helvetica; font-size: 12px;fill: rgb(60%,60%,60%); stroke:none;" transform="translate(0,0) scale(1,-1)" x="0" y="0">megahit_6060 (left 124852bp, right 47151bp)</text>
			</g>
			<g transform=" matrix(1,0,-0,1,70,456.833521)">
				<text style="font-family: Helvetica; font-size: 12px;fill: rgb(60%,60%,60%); stroke:none;" transform="translate(0,0) scale(1,-1)" x="0" y="0">megahit_38061 (left 17961bp, right 14683bp)</text>
			</g>
		</g>
	</g>
</svg>
