<?xml version="1.0" encoding="utf-8"?>
<!DOCTYPE svg
  PUBLIC '-//W3C//DTD SVG 1.0//EN'
  'http://www.w3.org/TR/2001/REC-SVG-20010904/DTD/svg10.dtd'>
<svg fill-rule="evenodd" height="708.6614173228346" preserveAspectRatio="xMinYMin meet" version="1.0" viewBox="0 0 1417 708" width="1417.3228346456692" xmlns="http://www.w3.org/2000/svg" xmlns:xlink="http://www.w3.org/1999/xlink">
	<title>...</title>
	<desc>...</desc>
	<clipPath id="clip">
		<rect height="708.6614173228346" width="1417.3228346456692" x="0" y="0"/>
	</clipPath>
	<g id="group" style="clip-path: url(#clip)" transform="scale(1,-1) translate(0,-708)">
		<g transform="">
			<polygon points="70.86614 169.8256, 1346.396 169.8256, 1346.396 251.8279, 70.86614 251.8279" style="stroke: rgb(96%,96%,96%); stroke-linecap: butt; stroke-width: 1; fill: rgb(96%,96%,96%); fill-rule: evenodd;"/>
			<polygon points="70.86614 456.8335, 476.9849 456.8335, 476.9849 538.8358, 70.86614 538.8358" style="stroke: rgb(96%,96%,96%); stroke-linecap: butt; stroke-width: 1; fill: rgb(96%,96%,96%); fill-rule: evenodd;"/>
			<polygon points="70.92703 456.8335, 434.3029 456.8335, 1060.834 251.8279, 697.5799 251.8279" style="stroke: rgb(100%,21%,21%); stroke-linecap: round; stroke-width: 1; fill: rgb(100%,21%,21%); fill-rule: evenodd;"/>
			<polygon points="116.6534 200.5765, 87.26659 200.5765, 87.26659 210.8268, 70.86614 190.3262, 87.26659 169.8256, 87.26659 180.0759, 116.6534 180.0759" style="stroke: rgb(56%,93%,56%); stroke-linecap: round; stroke-width: 1; fill: rgb(56%,93%,56%); fill-rule: evenodd;"/>
			<polygon points="187.2828 200.5765, 132.8712 200.5765, 132.8712 210.8268, 116.4708 190.3262, 132.8712 169.8256, 132.8712 180.0759, 187.2828 180.0759" style="stroke: rgb(56%,93%,56%); stroke-linecap: round; stroke-width: 1; fill: rgb(56%,93%,56%); fill-rule: evenodd;"/>
			<polygon points="252.4323 200.5765, 204.4139 200.5765, 204.4139 210.8268, 188.0135 190.3262, 204.4139 169.8256, 204.4139 180.0759, 252.4323 180.0759" style="stroke: rgb(56%,93%,56%); stroke-linecap: round; stroke-width: 1; fill: rgb(56%,93%,56%); fill-rule: evenodd;"/>
			<polygon points="330.3073 200.5765, 277.1743 200.5765, 277.1743 210.8268, 260.7739 190.3262, 277.1743 169.8256, 277.1743 180.0759, 330.3073 180.0759" style="stroke: rgb(56%,93%,56%); stroke-linecap: round; stroke-width: 1; fill: rgb(56%,93%,56%); fill-rule: evenodd;"/>
			<polygon points="371.8324 200.5765, 346.0988 200.5765, 346.0988 210.8268, 329.6984 190.3262, 346.0988 169.8256, 346.0988 180.0759, 371.8324 180.0759" style="stroke: rgb(56%,93%,56%); stroke-linecap: round; stroke-width: 1; fill: rgb(56%,93%,56%); fill-rule: evenodd;"/>
			<polygon points="383.401 200.5765, 383.401 210.8268, 373.0502 190.3262, 383.401 169.8256, 383.401 180.0759" style="stroke: rgb(56%,93%,56%); stroke-linecap: round; stroke-width: 1; fill: rgb(56%,93%,56%); fill-rule: evenodd;"/>
			<polygon points="393.4475 241.5776, 398.7229 241.5776, 398.7229 251.8279, 415.1234 231.3273, 398.7229 210.8268, 398.7229 221.0771, 393.4475 221.0771" style="stroke: rgb(67%,84%,90%); stroke-linecap: round; stroke-width: 1; fill: rgb(67%,84%,90%); fill-rule: evenodd;"/>
			<polygon points="479.4813 200.5765, 469.822 200.5765, 469.822 210.8268, 453.4215 190.3262, 469.822 169.8256, 469.822 180.0759, 479.4813 180.0759" style="stroke: rgb(56%,93%,56%); stroke-linecap: round; stroke-width: 1; fill: rgb(56%,93%,56%); fill-rule: evenodd;"/>
			<polygon points="497.6258 241.5776, 497.6258 251.8279, 509.4379 231.3273, 497.6258 210.8268, 497.6258 221.0771" style="stroke: rgb(67%,84%,90%); stroke-linecap: round; stroke-width: 1; fill: rgb(67%,84%,90%); fill-rule: evenodd;"/>
			<polygon points="599.9774 200.5765, 530.2223 200.5765, 530.2223 210.8268, 513.8218 190.3262, 530.2223 169.8256, 530.2223 180.0759, 599.9774 180.0759" style="stroke: rgb(56%,93%,56%); stroke-linecap: round; stroke-width: 1; fill: rgb(56%,93%,56%); fill-rule: evenodd;"/>
			<polygon points="624.8804 200.5765, 619.9703 200.5765, 619.9703 210.8268, 603.5698 190.3262, 619.9703 169.8256, 619.9703 180.0759, 624.8804 180.0759" style="stroke: rgb(56%,93%,56%); stroke-linecap: round; stroke-width: 1; fill: rgb(56%,93%,56%); fill-rule: evenodd;"/>
			<polygon points="676.3302 200.5765, 641.0982 200.5765, 641.0982 210.8268, 624.6977 190.3262, 641.0982 169.8256, 641.0982 180.0759, 676.3302 180.0759" style="stroke: rgb(56%,93%,56%); stroke-linecap: round; stroke-width: 1; fill: rgb(56%,93%,56%); fill-rule: evenodd;"/>
			<polygon points="712.2538 200.5765, 692.548 200.5765, 692.548 210.8268, 676.1476 190.3262, 692.548 169.8256, 692.548 180.0759, 712.2538 180.0759" style="stroke: rgb(56%,93%,56%); stroke-linecap: round; stroke-width: 1; fill: rgb(56%,93%,56%); fill-rule: evenodd;"/>
			<polygon points="737.522 200.5765, 734.9865 200.5765, 734.9865 210.8268, 718.5861 190.3262, 734.9865 169.8256, 734.9865 180.0759, 737.522 180.0759" style="stroke: rgb(56%,93%,56%); stroke-linecap: round; stroke-width: 1; fill: rgb(56%,93%,56%); fill-rule: evenodd;"/>
			<polygon points="755.7274 200.5765, 753.7398 200.5765, 753.7398 210.8268, 737.3394 190.3262, 753.7398 169.8256, 753.7398 180.0759, 755.7274 180.0759" style="stroke: rgb(56%,93%,56%); stroke-linecap: round; stroke-width: 1; fill: rgb(56%,93%,56%); fill-rule: evenodd;"/>
			<polygon points="767.296 200.5765, 767.296 210.8268, 754.9358 190.3262, 767.296 169.8256, 767.296 180.0759" style="stroke: rgb(56%,93%,56%); stroke-linecap: round; stroke-width: 1; fill: rgb(56%,93%,56%); fill-rule: evenodd;"/>
			<polygon points="785.3186 200.5765, 780.7738 200.5765, 780.7738 210.8268, 764.3734 190.3262, 780.7738 169.8256, 780.7738 180.0759, 785.3186 180.0759" style="stroke: rgb(56%,93%,56%); stroke-linecap: round; stroke-width: 1; fill: rgb(56%,93%,56%); fill-rule: evenodd;"/>
			<polygon points="850.6508 200.5765, 801.5364 200.5765, 801.5364 210.8268, 785.136 190.3262, 801.5364 169.8256, 801.5364 180.0759, 850.6508 180.0759" style="stroke: rgb(56%,93%,56%); stroke-linecap: round; stroke-width: 1; fill: rgb(56%,93%,56%); fill-rule: evenodd;"/>
			<polygon points="1060.773 200.5765, 867.173 200.5765, 867.173 210.8268, 850.7726 190.3262, 867.173 169.8256, 867.173 180.0759, 1060.773 180.0759" style="stroke: rgb(56%,93%,56%); stroke-linecap: round; stroke-width: 1; fill: rgb(56%,93%,56%); fill-rule: evenodd;"/>
			<polygon points="1160.385 200.5765, 1075.286 200.5765, 1075.286 210.8268, 1058.886 190.3262, 1075.286 169.8256, 1075.286 180.0759, 1160.385 180.0759" style="stroke: rgb(56%,93%,56%); stroke-linecap: round; stroke-width: 1; fill: rgb(56%,93%,56%); fill-rule: evenodd;"/>
			<polygon points="1177.312 200.5765, 1176.603 200.5765, 1176.603 210.8268, 1160.202 190.3262, 1176.603 169.8256, 1176.603 180.0759, 1177.312 180.0759" style="stroke: rgb(56%,93%,56%); stroke-linecap: round; stroke-width: 1; fill: rgb(56%,93%,56%); fill-rule: evenodd;"/>
			<polygon points="1304.932 200.5765, 1193.529 200.5765, 1193.529 210.8268, 1177.129 190.3262, 1193.529 169.8256, 1193.529 180.0759, 1304.932 180.0759" style="stroke: rgb(56%,93%,56%); stroke-linecap: round; stroke-width: 1; fill: rgb(56%,93%,56%); fill-rule: evenodd;"/>
			<polygon points="1345.909 200.5765, 1320.175 200.5765, 1320.175 210.8268, 1303.775 190.3262, 1320.175 169.8256, 1320.175 180.0759, 1345.909 180.0759" style="stroke: rgb(56%,93%,56%); stroke-linecap: round; stroke-width: 1; fill: rgb(56%,93%,56%); fill-rule: evenodd;"/>
			<polygon points="110.8691 487.5844, 108.3336 487.5844, 108.3336 497.8346, 91.93317 477.3341, 108.3336 456.8335, 108.3336 467.0838, 110.8691 467.0838" style="stroke: rgb(56%,93%,56%); stroke-linecap: round; stroke-width: 1; fill: rgb(56%,93%,56%); fill-rule: evenodd;"/>
			<polygon points="129.2571 487.5844, 127.0869 487.5844, 127.0869 497.8346, 110.6865 477.3341, 127.0869 456.8335, 127.0869 467.0838, 129.2571 467.0838" style="stroke: rgb(56%,93%,56%); stroke-linecap: round; stroke-width: 1; fill: rgb(56%,93%,56%); fill-rule: evenodd;"/>
			<polygon points="158.7875 487.5844, 154.2427 487.5844, 154.2427 497.8346, 137.8423 477.3341, 154.2427 456.8335, 154.2427 467.0838, 158.7875 467.0838" style="stroke: rgb(56%,93%,56%); stroke-linecap: round; stroke-width: 1; fill: rgb(56%,93%,56%); fill-rule: evenodd;"/>
			<polygon points="224.1197 487.5844, 175.0053 487.5844, 175.0053 497.8346, 158.6049 477.3341, 175.0053 456.8335, 175.0053 467.0838, 224.1197 467.0838" style="stroke: rgb(56%,93%,56%); stroke-linecap: round; stroke-width: 1; fill: rgb(56%,93%,56%); fill-rule: evenodd;"/>
			<polygon points="475.341 487.5844, 240.6419 487.5844, 240.6419 497.8346, 224.2414 477.3341, 240.6419 456.8335, 240.6419 467.0838, 475.341 467.0838" style="stroke: rgb(56%,93%,56%); stroke-linecap: round; stroke-width: 1; fill: rgb(56%,93%,56%); fill-rule: evenodd;"/>
			<path d="M 1346.395806,169.825647 L 1346.395806,251.827897 Z" style="stroke: rgb(0%,0%,0%); stroke-linecap: butt; stroke-width: 1;"/>
			<path d="M 70.866142,210.826772 L 1346.395806,210.826772 Z" style="stroke: rgb(0%,0%,0%); stroke-linecap: butt; stroke-width: 1;"/>
			<path d="M 70.866142,169.825647 L 70.866142,251.827897 Z" style="stroke: rgb(0%,0%,0%); stroke-linecap: butt; stroke-width: 1;"/>
			<path d="M 679.739913,210.826772 L 679.739913,231.327334 Z" style="stroke: rgb(0%,0%,0%); stroke-linecap: butt; stroke-width: 1;"/>
			<path d="M 1288.613685,210.826772 L 1288.613685,231.327334 Z" style="stroke: rgb(0%,0%,0%); stroke-linecap: butt; stroke-width: 1;"/>
			<path d="M 679.739913,210.826772 L 679.739913,223.127109 Z" style="stroke: rgb(0%,0%,0%); stroke-linecap: butt; stroke-width: 1;"/>
			<path d="M 1288.613685,210.826772 L 1288.613685,223.127109 Z" style="stroke: rgb(0%,0%,0%); stroke-linecap: butt; stroke-width: 1;"/>
			<path d="M 476.984947,456.833521 L 476.984947,538.835771 Z" style="stroke: rgb(0%,0%,0%); stroke-linecap: butt; stroke-width: 1;"/>
			<path d="M 70.866142,497.834646 L 476.984947,497.834646 Z" style="stroke: rgb(0%,0%,0%); stroke-linecap: butt; stroke-width: 1;"/>
			<path d="M 70.866142,456.833521 L 70.866142,538.835771 Z" style="stroke: rgb(0%,0%,0%); stroke-linecap: butt; stroke-width: 1;"/>
			<g transform=" matrix(0.707107,0.707107,-0.707107,0.707107,679.739913,231.327334)">
				<text style="font-family: Helvetica; font-size: 6px;fill: rgb(0%,0%,0%); stroke:none;" transform="translate(0,0) scale(1,-1)" x="0" y="0">10000</text>
			</g>
			<g transform=" matrix(0.707107,0.707107,-0.707107,0.707107,1288.613685,231.327334)">
				<text style="font-family: Helvetica; font-size: 6px;fill: rgb(0%,0%,0%); stroke:none;" transform="translate(0,0) scale(1,-1)" x="0" y="0">20000</text>
			</g>
			<g transform=" matrix(0.707107,-0.707107,0.707107,0.707107,93.759796,169.825647)">
				<text style="font-family: Helvetica; font-size: 10px;fill: rgb(0%,0%,0%); stroke:none;" transform="translate(0,0) scale(1,-1)" x="0" y="0">Gene_03319</text>
			</g>
			<g transform=" matrix(0.707107,-0.707107,0.707107,0.707107,151.876797,169.825647)">
				<text style="font-family: Helvetica; font-size: 10px;fill: rgb(0%,0%,0%); stroke:none;" transform="translate(0,0) scale(1,-1)" x="0" y="0">Gene_03320</text>
			</g>
			<g transform=" matrix(0.707107,-0.707107,0.707107,0.707107,220.222878,169.825647)">
				<text style="font-family: Helvetica; font-size: 10px;fill: rgb(0%,0%,0%); stroke:none;" transform="translate(0,0) scale(1,-1)" x="0" y="0">Gene_03321</text>
			</g>
			<g transform=" matrix(0.707107,-0.707107,0.707107,0.707107,295.540563,169.825647)">
				<text style="font-family: Helvetica; font-size: 10px;fill: rgb(0%,0%,0%); stroke:none;" transform="translate(0,0) scale(1,-1)" x="0" y="0">Gene_03322</text>
			</g>
			<g transform=" matrix(0.707107,-0.707107,0.707107,0.707107,350.765414,169.825647)">
				<text style="font-family: Helvetica; font-size: 10px;fill: rgb(0%,0%,0%); stroke:none;" transform="translate(0,0) scale(1,-1)" x="0" y="0">Gene_03323</text>
			</g>
			<g transform=" matrix(0.707107,-0.707107,0.707107,0.707107,378.225622,169.825647)">
				<text style="font-family: Helvetica; font-size: 10px;fill: rgb(0%,0%,0%); stroke:none;" transform="translate(0,0) scale(1,-1)" x="0" y="0">Gene_03324</text>
			</g>
			<g transform=" matrix(0.707107,0.707107,-0.707107,0.707107,404.285419,251.827897)">
				<text style="font-family: Helvetica; font-size: 10px;fill: rgb(0%,0%,0%); stroke:none;" transform="translate(0,0) scale(1,-1)" x="0" y="0">Gene_03325</text>
			</g>
			<g transform=" matrix(0.707107,-0.707107,0.707107,0.707107,466.451431,169.825647)">
				<text style="font-family: Helvetica; font-size: 10px;fill: rgb(0%,0%,0%); stroke:none;" transform="translate(0,0) scale(1,-1)" x="0" y="0">Gene_03326</text>
			</g>
			<g transform=" matrix(0.707107,0.707107,-0.707107,0.707107,503.531844,251.827897)">
				<text style="font-family: Helvetica; font-size: 10px;fill: rgb(0%,0%,0%); stroke:none;" transform="translate(0,0) scale(1,-1)" x="0" y="0">Gene_03327</text>
			</g>
			<g transform=" matrix(0.707107,-0.707107,0.707107,0.707107,556.89963,169.825647)">
				<text style="font-family: Helvetica; font-size: 10px;fill: rgb(0%,0%,0%); stroke:none;" transform="translate(0,0) scale(1,-1)" x="0" y="0">Gene_03328</text>
			</g>
			<g transform=" matrix(0.707107,-0.707107,0.707107,0.707107,614.225095,169.825647)">
				<text style="font-family: Helvetica; font-size: 10px;fill: rgb(0%,0%,0%); stroke:none;" transform="translate(0,0) scale(1,-1)" x="0" y="0">Gene_03329</text>
			</g>
			<g transform=" matrix(0.707107,-0.707107,0.707107,0.707107,650.513972,169.825647)">
				<text style="font-family: Helvetica; font-size: 10px;fill: rgb(0%,0%,0%); stroke:none;" transform="translate(0,0) scale(1,-1)" x="0" y="0">Gene_03330</text>
			</g>
			<g transform=" matrix(0.707107,-0.707107,0.707107,0.707107,694.200665,169.825647)">
				<text style="font-family: Helvetica; font-size: 10px;fill: rgb(0%,0%,0%); stroke:none;" transform="translate(0,0) scale(1,-1)" x="0" y="0">Gene_03331</text>
			</g>
			<g transform=" matrix(0.707107,-0.707107,0.707107,0.707107,728.054047,169.825647)">
				<text style="font-family: Helvetica; font-size: 16px;fill: rgb(0%,0%,100%); stroke:none;" transform="translate(0,0) scale(1,-1)" x="0" y="0">Gene_03332 (97.1)</text>
			</g>
			<g transform=" matrix(0.707107,-0.707107,0.707107,0.707107,746.533366,169.825647)">
				<text style="font-family: Helvetica; font-size: 10px;fill: rgb(0%,0%,0%); stroke:none;" transform="translate(0,0) scale(1,-1)" x="0" y="0">Gene_03333</text>
			</g>
			<g transform=" matrix(0.707107,-0.707107,0.707107,0.707107,761.115893,169.825647)">
				<text style="font-family: Helvetica; font-size: 10px;fill: rgb(0%,0%,0%); stroke:none;" transform="translate(0,0) scale(1,-1)" x="0" y="0">Gene_03334</text>
			</g>
			<g transform=" matrix(0.707107,-0.707107,0.707107,0.707107,774.845996,169.825647)">
				<text style="font-family: Helvetica; font-size: 10px;fill: rgb(0%,0%,0%); stroke:none;" transform="translate(0,0) scale(1,-1)" x="0" y="0">Gene_03335</text>
			</g>
			<g transform=" matrix(0.707107,-0.707107,0.707107,0.707107,817.893372,169.825647)">
				<text style="font-family: Helvetica; font-size: 10px;fill: rgb(0%,0%,0%); stroke:none;" transform="translate(0,0) scale(1,-1)" x="0" y="0">Gene_03336</text>
			</g>
			<g transform=" matrix(0.707107,-0.707107,0.707107,0.707107,955.772837,169.825647)">
				<text style="font-family: Helvetica; font-size: 10px;fill: rgb(0%,0%,0%); stroke:none;" transform="translate(0,0) scale(1,-1)" x="0" y="0">Gene_03337</text>
			</g>
			<g transform=" matrix(0.707107,-0.707107,0.707107,0.707107,1109.63524,169.825647)">
				<text style="font-family: Helvetica; font-size: 10px;fill: rgb(0%,0%,0%); stroke:none;" transform="translate(0,0) scale(1,-1)" x="0" y="0">Gene_03338</text>
			</g>
			<g transform=" matrix(0.707107,-0.707107,0.707107,0.707107,1168.756883,169.825647)">
				<text style="font-family: Helvetica; font-size: 10px;fill: rgb(0%,0%,0%); stroke:none;" transform="translate(0,0) scale(1,-1)" x="0" y="0">Gene_03339</text>
			</g>
			<g transform=" matrix(0.707107,-0.707107,0.707107,0.707107,1241.030199,169.825647)">
				<text style="font-family: Helvetica; font-size: 10px;fill: rgb(0%,0%,0%); stroke:none;" transform="translate(0,0) scale(1,-1)" x="0" y="0">Gene_03340</text>
			</g>
			<g transform=" matrix(0.707107,-0.707107,0.707107,0.707107,1324.841674,169.825647)">
				<text style="font-family: Helvetica; font-size: 10px;fill: rgb(0%,0%,0%); stroke:none;" transform="translate(0,0) scale(1,-1)" x="0" y="0">Gene_03341</text>
			</g>
			<g transform=" matrix(0.707107,-0.707107,0.707107,0.707107,101.401161,456.833521)">
				<text style="font-family: Helvetica; font-size: 16px;fill: rgb(0%,0%,100%); stroke:none;" transform="translate(0,0) scale(1,-1)" x="0" y="0">Gene_00937 (97.1)</text>
			</g>
			<g transform=" matrix(0.707107,-0.707107,0.707107,0.707107,119.971811,456.833521)">
				<text style="font-family: Helvetica; font-size: 10px;fill: rgb(0%,0%,0%); stroke:none;" transform="translate(0,0) scale(1,-1)" x="0" y="0">Gene_00938</text>
			</g>
			<g transform=" matrix(0.707107,-0.707107,0.707107,0.707107,148.314885,456.833521)">
				<text style="font-family: Helvetica; font-size: 10px;fill: rgb(0%,0%,0%); stroke:none;" transform="translate(0,0) scale(1,-1)" x="0" y="0">Gene_00939</text>
			</g>
			<g transform=" matrix(0.707107,-0.707107,0.707107,0.707107,191.362261,456.833521)">
				<text style="font-family: Helvetica; font-size: 10px;fill: rgb(0%,0%,0%); stroke:none;" transform="translate(0,0) scale(1,-1)" x="0" y="0">Gene_00940</text>
			</g>
			<g transform=" matrix(0.707107,-0.707107,0.707107,0.707107,349.791216,456.833521)">
				<text style="font-family: Helvetica; font-size: 10px;fill: rgb(0%,0%,0%); stroke:none;" transform="translate(0,0) scale(1,-1)" x="0" y="0">Gene_00941</text>
			</g>
			<g transform=" matrix(1,0,-0,1,70,169.825647)">
				<text style="font-family: Helvetica; font-size: 12px;fill: rgb(60%,60%,60%); stroke:none;" transform="translate(0,0) scale(1,-1)" x="0" y="0">megahit_5253 (left 16623bp, right 82879bp)</text>
			</g>
			<g transform=" matrix(1,0,-0,1,70,456.833521)">
				<text style="font-family: Helvetica; font-size: 12px;fill: rgb(60%,60%,60%); stroke:none;" transform="translate(0,0) scale(1,-1)" x="0" y="0">megahit_11785 (left 346bp, right 6013bp)</text>
			</g>
		</g>
	</g>
</svg>
