<?xml version="1.0" encoding="utf-8"?>
<!DOCTYPE svg
  PUBLIC '-//W3C//DTD SVG 1.0//EN'
  'http://www.w3.org/TR/2001/REC-SVG-20010904/DTD/svg10.dtd'>
<svg fill-rule="evenodd" height="708.6614173228346" preserveAspectRatio="xMinYMin meet" version="1.0" viewBox="0 0 1417 708" width="1417.3228346456692" xmlns="http://www.w3.org/2000/svg" xmlns:xlink="http://www.w3.org/1999/xlink">
	<title>...</title>
	<desc>...</desc>
	<clipPath id="clip">
		<rect height="708.6614173228346" width="1417.3228346456692" x="0" y="0"/>
	</clipPath>
	<g id="group" style="clip-path: url(#clip)" transform="scale(1,-1) translate(0,-708)">
		<g transform="">
			<polygon points="70.86614 169.8256, 662.9819 169.8256, 662.9819 251.8279, 70.86614 251.8279" style="stroke: rgb(96%,96%,96%); stroke-linecap: butt; stroke-width: 1; fill: rgb(96%,96%,96%); fill-rule: evenodd;"/>
			<polygon points="70.86614 456.8335, 1346.394 456.8335, 1346.394 538.8358, 70.86614 538.8358" style="stroke: rgb(96%,96%,96%); stroke-linecap: butt; stroke-width: 1; fill: rgb(96%,96%,96%); fill-rule: evenodd;"/>
			<polygon points="701.1366 456.8335, 876.923 456.8335, 488.0699 251.8279, 662.9819 251.8279" style="stroke: rgb(100%,34%,34%); stroke-linecap: round; stroke-width: 1; fill: rgb(100%,34%,34%); fill-rule: evenodd;"/>
			<polygon points="881.2318 456.8335, 1091.988 456.8335, 280.9355 251.8279, 488.6943 251.8279" style="stroke: rgb(100%,46%,46%); stroke-linecap: round; stroke-width: 1; fill: rgb(100%,46%,46%); fill-rule: evenodd;"/>
			<polygon points="1098.857 456.8335, 1204.579 456.8335, 70.92859 251.8279, 176.6502 251.8279" style="stroke: rgb(100%,42%,42%); stroke-linecap: round; stroke-width: 1; fill: rgb(100%,42%,42%); fill-rule: evenodd;"/>
			<polygon points="174.9017 200.5765, 95.44706 200.5765, 95.44706 210.8268, 79.04661 190.3262, 95.44706 169.8256, 95.44706 180.0759, 174.9017 180.0759" style="stroke: rgb(56%,93%,56%); stroke-linecap: round; stroke-width: 1; fill: rgb(56%,93%,56%); fill-rule: evenodd;"/>
			<polygon points="263.513 200.5765, 204.291 200.5765, 204.291 210.8268, 187.8905 190.3262, 204.291 169.8256, 204.291 180.0759, 263.513 180.0759" style="stroke: rgb(56%,93%,56%); stroke-linecap: round; stroke-width: 1; fill: rgb(56%,93%,56%); fill-rule: evenodd;"/>
			<polygon points="320.9011 200.5765, 293.3394 200.5765, 293.3394 210.8268, 276.9389 190.3262, 293.3394 169.8256, 293.3394 180.0759, 320.9011 180.0759" style="stroke: rgb(56%,93%,56%); stroke-linecap: round; stroke-width: 1; fill: rgb(56%,93%,56%); fill-rule: evenodd;"/>
			<polygon points="447.0426 200.5765, 341.7353 200.5765, 341.7353 210.8268, 325.3348 190.3262, 341.7353 169.8256, 341.7353 180.0759, 447.0426 180.0759" style="stroke: rgb(56%,93%,56%); stroke-linecap: round; stroke-width: 1; fill: rgb(56%,93%,56%); fill-rule: evenodd;"/>
			<polygon points="478.7654 200.5765, 478.7654 210.8268, 463.8407 190.3262, 478.7654 169.8256, 478.7654 180.0759" style="stroke: rgb(56%,93%,56%); stroke-linecap: round; stroke-width: 1; fill: rgb(56%,93%,56%); fill-rule: evenodd;"/>
			<polygon points="503.2443 241.5776, 532.4921 241.5776, 532.4921 251.8279, 548.8926 231.3273, 532.4921 210.8268, 532.4921 221.0771, 503.2443 221.0771" style="stroke: rgb(67%,84%,90%); stroke-linecap: round; stroke-width: 1; fill: rgb(67%,84%,90%); fill-rule: evenodd;"/>
			<polygon points="567.6889 200.5765, 567.6889 210.8268, 554.6376 190.3262, 567.6889 169.8256, 567.6889 180.0759" style="stroke: rgb(56%,93%,56%); stroke-linecap: round; stroke-width: 1; fill: rgb(56%,93%,56%); fill-rule: evenodd;"/>
			<polygon points="575.3073 200.5765, 575.3073 210.8268, 569.7496 190.3262, 575.3073 169.8256, 575.3073 180.0759" style="stroke: rgb(56%,93%,56%); stroke-linecap: round; stroke-width: 1; fill: rgb(56%,93%,56%); fill-rule: evenodd;"/>
			<polygon points="655.1137 200.5765, 616.3116 200.5765, 616.3116 210.8268, 599.9112 190.3262, 616.3116 169.8256, 616.3116 180.0759, 655.1137 180.0759" style="stroke: rgb(56%,93%,56%); stroke-linecap: round; stroke-width: 1; fill: rgb(56%,93%,56%); fill-rule: evenodd;"/>
			<polygon points="72.11507 528.5855, 135.4585 528.5855, 135.4585 538.8358, 151.859 518.3352, 135.4585 497.8346, 135.4585 508.0849, 72.11507 508.0849" style="stroke: rgb(67%,84%,90%); stroke-linecap: round; stroke-width: 1; fill: rgb(67%,84%,90%); fill-rule: evenodd;"/>
			<polygon points="152.8581 528.5855, 152.8581 538.8358, 168.1575 518.3352, 152.8581 497.8346, 152.8581 508.0849" style="stroke: rgb(67%,84%,90%); stroke-linecap: round; stroke-width: 1; fill: rgb(67%,84%,90%); fill-rule: evenodd;"/>
			<polygon points="240.845 487.5844, 188.9292 487.5844, 188.9292 497.8346, 172.5287 477.3341, 188.9292 456.8335, 188.9292 467.0838, 240.845 467.0838" style="stroke: rgb(56%,93%,56%); stroke-linecap: round; stroke-width: 1; fill: rgb(56%,93%,56%); fill-rule: evenodd;"/>
			<polygon points="346.1919 487.5844, 259.8057 487.5844, 259.8057 497.8346, 243.4053 477.3341, 259.8057 456.8335, 259.8057 467.0838, 346.1919 467.0838" style="stroke: rgb(56%,93%,56%); stroke-linecap: round; stroke-width: 1; fill: rgb(56%,93%,56%); fill-rule: evenodd;"/>
			<polygon points="360.4921 528.5855, 421.7748 528.5855, 421.7748 538.8358, 438.1753 518.3352, 421.7748 497.8346, 421.7748 508.0849, 360.4921 508.0849" style="stroke: rgb(67%,84%,90%); stroke-linecap: round; stroke-width: 1; fill: rgb(67%,84%,90%); fill-rule: evenodd;"/>
			<polygon points="438.3626 528.5855, 509.1996 528.5855, 509.1996 538.8358, 525.6001 518.3352, 509.1996 497.8346, 509.1996 508.0849, 438.3626 508.0849" style="stroke: rgb(67%,84%,90%); stroke-linecap: round; stroke-width: 1; fill: rgb(67%,84%,90%); fill-rule: evenodd;"/>
			<polygon points="599.7238 487.5844, 582.6531 487.5844, 582.6531 497.8346, 566.2526 477.3341, 582.6531 456.8335, 582.6531 467.0838, 599.7238 467.0838" style="stroke: rgb(56%,93%,56%); stroke-linecap: round; stroke-width: 1; fill: rgb(56%,93%,56%); fill-rule: evenodd;"/>
			<polygon points="644.1856 487.5844, 626.7402 487.5844, 626.7402 497.8346, 610.3397 477.3341, 626.7402 456.8335, 626.7402 467.0838, 644.1856 467.0838" style="stroke: rgb(56%,93%,56%); stroke-linecap: round; stroke-width: 1; fill: rgb(56%,93%,56%); fill-rule: evenodd;"/>
			<polygon points="671.1 487.5844, 662.8341 487.5844, 662.8341 497.8346, 646.4337 477.3341, 662.8341 456.8335, 662.8341 467.0838, 671.1 467.0838" style="stroke: rgb(56%,93%,56%); stroke-linecap: round; stroke-width: 1; fill: rgb(56%,93%,56%); fill-rule: evenodd;"/>
			<polygon points="695.3291 528.5855, 748.5563 528.5855, 748.5563 538.8358, 764.9568 518.3352, 748.5563 497.8346, 748.5563 508.0849, 695.3291 508.0849" style="stroke: rgb(67%,84%,90%); stroke-linecap: round; stroke-width: 1; fill: rgb(67%,84%,90%); fill-rule: evenodd;"/>
			<polygon points="798.1157 528.5855, 798.1157 538.8358, 811.167 518.3352, 798.1157 497.8346, 798.1157 508.0849" style="stroke: rgb(67%,84%,90%); stroke-linecap: round; stroke-width: 1; fill: rgb(67%,84%,90%); fill-rule: evenodd;"/>
			<polygon points="861.6861 487.5844, 832.813 487.5844, 832.813 497.8346, 816.4125 477.3341, 832.813 456.8335, 832.813 467.0838, 861.6861 467.0838" style="stroke: rgb(56%,93%,56%); stroke-linecap: round; stroke-width: 1; fill: rgb(56%,93%,56%); fill-rule: evenodd;"/>
			<polygon points="891.3481 528.5855, 891.3481 538.8358, 906.2727 518.3352, 891.3481 497.8346, 891.3481 508.0849" style="stroke: rgb(67%,84%,90%); stroke-linecap: round; stroke-width: 1; fill: rgb(67%,84%,90%); fill-rule: evenodd;"/>
			<polygon points="922.6337 528.5855, 1029.627 528.5855, 1029.627 538.8358, 1046.028 518.3352, 1029.627 497.8346, 1029.627 508.0849, 922.6337 508.0849" style="stroke: rgb(67%,84%,90%); stroke-linecap: round; stroke-width: 1; fill: rgb(67%,84%,90%); fill-rule: evenodd;"/>
			<polygon points="1052.022 528.5855, 1078.647 528.5855, 1078.647 538.8358, 1095.048 518.3352, 1078.647 497.8346, 1078.647 508.0849, 1052.022 508.0849" style="stroke: rgb(67%,84%,90%); stroke-linecap: round; stroke-width: 1; fill: rgb(67%,84%,90%); fill-rule: evenodd;"/>
			<polygon points="1095.36 528.5855, 1181.184 528.5855, 1181.184 538.8358, 1197.585 518.3352, 1181.184 497.8346, 1181.184 508.0849, 1095.36 508.0849" style="stroke: rgb(67%,84%,90%); stroke-linecap: round; stroke-width: 1; fill: rgb(67%,84%,90%); fill-rule: evenodd;"/>
			<polygon points="1196.273 528.5855, 1219.339 528.5855, 1219.339 538.8358, 1235.739 518.3352, 1219.339 497.8346, 1219.339 508.0849, 1196.273 508.0849" style="stroke: rgb(67%,84%,90%); stroke-linecap: round; stroke-width: 1; fill: rgb(67%,84%,90%); fill-rule: evenodd;"/>
			<polygon points="1239.174 528.5855, 1253.247 528.5855, 1253.247 538.8358, 1269.648 518.3352, 1253.247 497.8346, 1253.247 508.0849, 1239.174 508.0849" style="stroke: rgb(67%,84%,90%); stroke-linecap: round; stroke-width: 1; fill: rgb(67%,84%,90%); fill-rule: evenodd;"/>
			<polygon points="1274.081 528.5855, 1302.58 528.5855, 1302.58 538.8358, 1318.98 518.3352, 1302.58 497.8346, 1302.58 508.0849, 1274.081 508.0849" style="stroke: rgb(67%,84%,90%); stroke-linecap: round; stroke-width: 1; fill: rgb(67%,84%,90%); fill-rule: evenodd;"/>
			<path d="M 662.98195,169.825647 L 662.98195,251.827897 Z" style="stroke: rgb(0%,0%,0%); stroke-linecap: butt; stroke-width: 1;"/>
			<path d="M 70.866142,210.826772 L 662.98195,210.826772 Z" style="stroke: rgb(0%,0%,0%); stroke-linecap: butt; stroke-width: 1;"/>
			<path d="M 70.866142,169.825647 L 70.866142,251.827897 Z" style="stroke: rgb(0%,0%,0%); stroke-linecap: butt; stroke-width: 1;"/>
			<path d="M 1346.394247,456.833521 L 1346.394247,538.835771 Z" style="stroke: rgb(0%,0%,0%); stroke-linecap: butt; stroke-width: 1;"/>
			<path d="M 70.866142,497.834646 L 1346.394247,497.834646 Z" style="stroke: rgb(0%,0%,0%); stroke-linecap: butt; stroke-width: 1;"/>
			<path d="M 70.866142,456.833521 L 70.866142,538.835771 Z" style="stroke: rgb(0%,0%,0%); stroke-linecap: butt; stroke-width: 1;"/>
			<path d="M 695.329132,497.834646 L 695.329132,518.335208 Z" style="stroke: rgb(0%,0%,0%); stroke-linecap: butt; stroke-width: 1;"/>
			<path d="M 1319.792123,497.834646 L 1319.792123,518.335208 Z" style="stroke: rgb(0%,0%,0%); stroke-linecap: butt; stroke-width: 1;"/>
			<path d="M 695.329132,497.834646 L 695.329132,510.134983 Z" style="stroke: rgb(0%,0%,0%); stroke-linecap: butt; stroke-width: 1;"/>
			<path d="M 1319.792123,497.834646 L 1319.792123,510.134983 Z" style="stroke: rgb(0%,0%,0%); stroke-linecap: butt; stroke-width: 1;"/>
			<g transform=" matrix(0.707107,0.707107,-0.707107,0.707107,695.329132,518.335208)">
				<text style="font-family: Helvetica; font-size: 6px;fill: rgb(0%,0%,0%); stroke:none;" transform="translate(0,0) scale(1,-1)" x="0" y="0">10000</text>
			</g>
			<g transform=" matrix(0.707107,0.707107,-0.707107,0.707107,1319.792123,518.335208)">
				<text style="font-family: Helvetica; font-size: 6px;fill: rgb(0%,0%,0%); stroke:none;" transform="translate(0,0) scale(1,-1)" x="0" y="0">20000</text>
			</g>
			<g transform=" matrix(0.707107,-0.707107,0.707107,0.707107,126.974141,169.825647)">
				<text style="font-family: Helvetica; font-size: 10px;fill: rgb(0%,0%,0%); stroke:none;" transform="translate(0,0) scale(1,-1)" x="0" y="0">Gene_04003</text>
			</g>
			<g transform=" matrix(0.707107,-0.707107,0.707107,0.707107,225.70174,169.825647)">
				<text style="font-family: Helvetica; font-size: 10px;fill: rgb(0%,0%,0%); stroke:none;" transform="translate(0,0) scale(1,-1)" x="0" y="0">Gene_04004</text>
			</g>
			<g transform=" matrix(0.707107,-0.707107,0.707107,0.707107,298.920026,169.825647)">
				<text style="font-family: Helvetica; font-size: 10px;fill: rgb(0%,0%,0%); stroke:none;" transform="translate(0,0) scale(1,-1)" x="0" y="0">Gene_04005</text>
			</g>
			<g transform=" matrix(0.707107,-0.707107,0.707107,0.707107,386.188729,169.825647)">
				<text style="font-family: Helvetica; font-size: 10px;fill: rgb(0%,0%,0%); stroke:none;" transform="translate(0,0) scale(1,-1)" x="0" y="0">Gene_04006</text>
			</g>
			<g transform=" matrix(0.707107,-0.707107,0.707107,0.707107,471.303035,169.825647)">
				<text style="font-family: Helvetica; font-size: 10px;fill: rgb(0%,0%,0%); stroke:none;" transform="translate(0,0) scale(1,-1)" x="0" y="0">Gene_04007</text>
			</g>
			<g transform=" matrix(0.707107,0.707107,-0.707107,0.707107,526.068439,251.827897)">
				<text style="font-family: Helvetica; font-size: 10px;fill: rgb(0%,0%,0%); stroke:none;" transform="translate(0,0) scale(1,-1)" x="0" y="0">Gene_04008</text>
			</g>
			<g transform=" matrix(0.707107,-0.707107,0.707107,0.707107,561.163259,169.825647)">
				<text style="font-family: Helvetica; font-size: 10px;fill: rgb(0%,0%,0%); stroke:none;" transform="translate(0,0) scale(1,-1)" x="0" y="0">Gene_04009</text>
			</g>
			<g transform=" matrix(0.707107,-0.707107,0.707107,0.707107,572.528485,169.825647)">
				<text style="font-family: Helvetica; font-size: 10px;fill: rgb(0%,0%,0%); stroke:none;" transform="translate(0,0) scale(1,-1)" x="0" y="0">Gene_04010</text>
			</g>
			<g transform=" matrix(0.707107,-0.707107,0.707107,0.707107,627.512452,169.825647)">
				<text style="font-family: Helvetica; font-size: 16px;fill: rgb(0%,0%,100%); stroke:none;" transform="translate(0,0) scale(1,-1)" x="0" y="0">Gene_04011 (82.8)</text>
			</g>
			<g transform=" matrix(0.707107,0.707107,-0.707107,0.707107,111.98703,538.835771)">
				<text style="font-family: Helvetica; font-size: 10px;fill: rgb(0%,0%,0%); stroke:none;" transform="translate(0,0) scale(1,-1)" x="0" y="0">Gene_00778</text>
			</g>
			<g transform=" matrix(0.707107,0.707107,-0.707107,0.707107,160.507804,538.835771)">
				<text style="font-family: Helvetica; font-size: 10px;fill: rgb(0%,0%,0%); stroke:none;" transform="translate(0,0) scale(1,-1)" x="0" y="0">Gene_00779</text>
			</g>
			<g transform=" matrix(0.707107,-0.707107,0.707107,0.707107,206.686842,456.833521)">
				<text style="font-family: Helvetica; font-size: 10px;fill: rgb(0%,0%,0%); stroke:none;" transform="translate(0,0) scale(1,-1)" x="0" y="0">Gene_00780</text>
			</g>
			<g transform=" matrix(0.707107,-0.707107,0.707107,0.707107,294.79857,456.833521)">
				<text style="font-family: Helvetica; font-size: 10px;fill: rgb(0%,0%,0%); stroke:none;" transform="translate(0,0) scale(1,-1)" x="0" y="0">Gene_00781</text>
			</g>
			<g transform=" matrix(0.707107,0.707107,-0.707107,0.707107,399.333675,538.835771)">
				<text style="font-family: Helvetica; font-size: 10px;fill: rgb(0%,0%,0%); stroke:none;" transform="translate(0,0) scale(1,-1)" x="0" y="0">Gene_00782</text>
			</g>
			<g transform=" matrix(0.707107,0.707107,-0.707107,0.707107,481.981352,538.835771)">
				<text style="font-family: Helvetica; font-size: 10px;fill: rgb(0%,0%,0%); stroke:none;" transform="translate(0,0) scale(1,-1)" x="0" y="0">Gene_00783</text>
			</g>
			<g transform=" matrix(0.707107,-0.707107,0.707107,0.707107,582.98824,456.833521)">
				<text style="font-family: Helvetica; font-size: 10px;fill: rgb(0%,0%,0%); stroke:none;" transform="translate(0,0) scale(1,-1)" x="0" y="0">Gene_00784</text>
			</g>
			<g transform=" matrix(0.707107,-0.707107,0.707107,0.707107,627.262666,456.833521)">
				<text style="font-family: Helvetica; font-size: 10px;fill: rgb(0%,0%,0%); stroke:none;" transform="translate(0,0) scale(1,-1)" x="0" y="0">Gene_00785</text>
			</g>
			<g transform=" matrix(0.707107,-0.707107,0.707107,0.707107,658.766824,456.833521)">
				<text style="font-family: Helvetica; font-size: 10px;fill: rgb(0%,0%,0%); stroke:none;" transform="translate(0,0) scale(1,-1)" x="0" y="0">Gene_00786</text>
			</g>
			<g transform=" matrix(0.707107,0.707107,-0.707107,0.707107,730.142944,538.835771)">
				<text style="font-family: Helvetica; font-size: 16px;fill: rgb(0%,0%,100%); stroke:none;" transform="translate(0,0) scale(1,-1)" x="0" y="0">Gene_00787 (82.8)</text>
			</g>
			<g transform=" matrix(0.707107,0.707107,-0.707107,0.707107,804.641379,538.835771)">
				<text style="font-family: Helvetica; font-size: 10px;fill: rgb(0%,0%,0%); stroke:none;" transform="translate(0,0) scale(1,-1)" x="0" y="0">Gene_00788</text>
			</g>
			<g transform=" matrix(0.707107,-0.707107,0.707107,0.707107,839.04929,456.833521)">
				<text style="font-family: Helvetica; font-size: 10px;fill: rgb(0%,0%,0%); stroke:none;" transform="translate(0,0) scale(1,-1)" x="0" y="0">Gene_00789</text>
			</g>
			<g transform=" matrix(0.707107,0.707107,-0.707107,0.707107,898.810398,538.835771)">
				<text style="font-family: Helvetica; font-size: 10px;fill: rgb(0%,0%,0%); stroke:none;" transform="translate(0,0) scale(1,-1)" x="0" y="0">Gene_00790</text>
			</g>
			<g transform=" matrix(0.707107,0.707107,-0.707107,0.707107,984.330605,538.835771)">
				<text style="font-family: Helvetica; font-size: 10px;fill: rgb(0%,0%,0%); stroke:none;" transform="translate(0,0) scale(1,-1)" x="0" y="0">Gene_00791</text>
			</g>
			<g transform=" matrix(0.707107,0.707107,-0.707107,0.707107,1073.535143,538.835771)">
				<text style="font-family: Helvetica; font-size: 10px;fill: rgb(0%,0%,0%); stroke:none;" transform="translate(0,0) scale(1,-1)" x="0" y="0">Gene_00792</text>
			</g>
			<g transform=" matrix(0.707107,0.707107,-0.707107,0.707107,1146.47242,538.835771)">
				<text style="font-family: Helvetica; font-size: 10px;fill: rgb(0%,0%,0%); stroke:none;" transform="translate(0,0) scale(1,-1)" x="0" y="0">Gene_00793</text>
			</g>
			<g transform=" matrix(0.707107,0.707107,-0.707107,0.707107,1216.006374,538.835771)">
				<text style="font-family: Helvetica; font-size: 10px;fill: rgb(0%,0%,0%); stroke:none;" transform="translate(0,0) scale(1,-1)" x="0" y="0">Gene_00794</text>
			</g>
			<g transform=" matrix(0.707107,0.707107,-0.707107,0.707107,1254.410848,538.835771)">
				<text style="font-family: Helvetica; font-size: 10px;fill: rgb(0%,0%,0%); stroke:none;" transform="translate(0,0) scale(1,-1)" x="0" y="0">Gene_00795</text>
			</g>
			<g transform=" matrix(0.707107,0.707107,-0.707107,0.707107,1296.530877,538.835771)">
				<text style="font-family: Helvetica; font-size: 10px;fill: rgb(0%,0%,0%); stroke:none;" transform="translate(0,0) scale(1,-1)" x="0" y="0">Gene_00796</text>
			</g>
			<g transform=" matrix(1,0,-0,1,70,169.825647)">
				<text style="font-family: Helvetica; font-size: 12px;fill: rgb(60%,60%,60%); stroke:none;" transform="translate(0,0) scale(1,-1)" x="0" y="0">megahit_36680 (left 8472bp, right 126bp)</text>
			</g>
			<g transform=" matrix(1,0,-0,1,70,456.833521)">
				<text style="font-family: Helvetica; font-size: 12px;fill: rgb(60%,60%,60%); stroke:none;" transform="translate(0,0) scale(1,-1)" x="0" y="0">megahit_9415 (left 19412bp, right 9311bp)</text>
			</g>
		</g>
	</g>
</svg>
