<?xml version="1.0" encoding="utf-8"?>
<!DOCTYPE svg
  PUBLIC '-//W3C//DTD SVG 1.0//EN'
  'http://www.w3.org/TR/2001/REC-SVG-20010904/DTD/svg10.dtd'>
<svg fill-rule="evenodd" height="708.6614173228346" preserveAspectRatio="xMinYMin meet" version="1.0" viewBox="0 0 1417 708" width="1417.3228346456692" xmlns="http://www.w3.org/2000/svg" xmlns:xlink="http://www.w3.org/1999/xlink">
	<title>...</title>
	<desc>...</desc>
	<clipPath id="clip">
		<rect height="708.6614173228346" width="1417.3228346456692" x="0" y="0"/>
	</clipPath>
	<g id="group" style="clip-path: url(#clip)" transform="scale(1,-1) translate(0,-708)">
		<g transform="">
			<polygon points="70.86614 169.8256, 1346.397 169.8256, 1346.397 251.8279, 70.86614 251.8279" style="stroke: rgb(96%,96%,96%); stroke-linecap: butt; stroke-width: 1; fill: rgb(96%,96%,96%); fill-rule: evenodd;"/>
			<polygon points="70.86614 456.8335, 138.463 456.8335, 138.463 538.8358, 70.86614 538.8358" style="stroke: rgb(96%,96%,96%); stroke-linecap: butt; stroke-width: 1; fill: rgb(96%,96%,96%); fill-rule: evenodd;"/>
			<polygon points="70.92607 456.8335, 91.60063 456.8335, 709.7401 251.8279, 689.0655 251.8279" style="stroke: rgb(100%,40%,40%); stroke-linecap: round; stroke-width: 1; fill: rgb(100%,40%,40%); fill-rule: evenodd;"/>
			<polygon points="109.0392 456.8335, 129.2343 456.8335, 742.6396 251.8279, 722.4445 251.8279" style="stroke: rgb(100%,64%,64%); stroke-linecap: round; stroke-width: 1; fill: rgb(100%,64%,64%); fill-rule: evenodd;"/>
			<polygon points="70.86614 241.5776, 89.64241 241.5776, 89.64241 251.8279, 106.0429 231.3273, 89.64241 210.8268, 89.64241 221.0771, 70.86614 221.0771" style="stroke: rgb(67%,84%,90%); stroke-linecap: round; stroke-width: 1; fill: rgb(67%,84%,90%); fill-rule: evenodd;"/>
			<polygon points="106.8219 241.5776, 141.2389 241.5776, 141.2389 251.8279, 157.6394 231.3273, 141.2389 210.8268, 141.2389 221.0771, 106.8219 221.0771" style="stroke: rgb(67%,84%,90%); stroke-linecap: round; stroke-width: 1; fill: rgb(67%,84%,90%); fill-rule: evenodd;"/>
			<polygon points="165.6096 241.5776, 226.6339 241.5776, 226.6339 251.8279, 243.0343 231.3273, 226.6339 210.8268, 226.6339 221.0771, 165.6096 221.0771" style="stroke: rgb(67%,84%,90%); stroke-linecap: round; stroke-width: 1; fill: rgb(67%,84%,90%); fill-rule: evenodd;"/>
			<polygon points="250.6449 241.5776, 256.1176 241.5776, 256.1176 251.8279, 272.518 231.3273, 256.1176 210.8268, 256.1176 221.0771, 250.6449 221.0771" style="stroke: rgb(67%,84%,90%); stroke-linecap: round; stroke-width: 1; fill: rgb(67%,84%,90%); fill-rule: evenodd;"/>
			<polygon points="273.4169 241.5776, 320.778 241.5776, 320.778 251.8279, 337.1785 231.3273, 320.778 210.8268, 320.778 221.0771, 273.4169 221.0771" style="stroke: rgb(67%,84%,90%); stroke-linecap: round; stroke-width: 1; fill: rgb(67%,84%,90%); fill-rule: evenodd;"/>
			<polygon points="338.0774 241.5776, 370.5168 241.5776, 370.5168 251.8279, 386.9173 231.3273, 370.5168 210.8268, 370.5168 221.0771, 338.0774 221.0771" style="stroke: rgb(67%,84%,90%); stroke-linecap: round; stroke-width: 1; fill: rgb(67%,84%,90%); fill-rule: evenodd;"/>
			<polygon points="396.2658 241.5776, 402.2778 241.5776, 402.2778 251.8279, 418.6782 231.3273, 402.2778 210.8268, 402.2778 221.0771, 396.2658 221.0771" style="stroke: rgb(67%,84%,90%); stroke-linecap: round; stroke-width: 1; fill: rgb(67%,84%,90%); fill-rule: evenodd;"/>
			<polygon points="419.3973 241.5776, 483.8374 241.5776, 483.8374 251.8279, 500.2379 231.3273, 483.8374 210.8268, 483.8374 221.0771, 419.3973 221.0771" style="stroke: rgb(67%,84%,90%); stroke-linecap: round; stroke-width: 1; fill: rgb(67%,84%,90%); fill-rule: evenodd;"/>
			<polygon points="505.811 241.5776, 505.811 251.8279, 520.3132 231.3273, 505.811 210.8268, 505.811 221.0771" style="stroke: rgb(67%,84%,90%); stroke-linecap: round; stroke-width: 1; fill: rgb(67%,84%,90%); fill-rule: evenodd;"/>
			<polygon points="521.272 241.5776, 521.272 251.8279, 534.8752 231.3273, 521.272 210.8268, 521.272 221.0771" style="stroke: rgb(67%,84%,90%); stroke-linecap: round; stroke-width: 1; fill: rgb(67%,84%,90%); fill-rule: evenodd;"/>
			<polygon points="539.4296 241.5776, 553.5317 241.5776, 553.5317 251.8279, 569.9321 231.3273, 553.5317 210.8268, 553.5317 221.0771, 539.4296 221.0771" style="stroke: rgb(67%,84%,90%); stroke-linecap: round; stroke-width: 1; fill: rgb(67%,84%,90%); fill-rule: evenodd;"/>
			<polygon points="570.6512 241.5776, 602.3716 241.5776, 602.3716 251.8279, 618.772 231.3273, 602.3716 210.8268, 602.3716 221.0771, 570.6512 221.0771" style="stroke: rgb(67%,84%,90%); stroke-linecap: round; stroke-width: 1; fill: rgb(67%,84%,90%); fill-rule: evenodd;"/>
			<polygon points="617.2739 241.5776, 665.3541 241.5776, 665.3541 251.8279, 681.7545 231.3273, 665.3541 210.8268, 665.3541 221.0771, 617.2739 221.0771" style="stroke: rgb(67%,84%,90%); stroke-linecap: round; stroke-width: 1; fill: rgb(67%,84%,90%); fill-rule: evenodd;"/>
			<polygon points="689.7247 241.5776, 694.1187 241.5776, 694.1187 251.8279, 710.5191 231.3273, 694.1187 210.8268, 694.1187 221.0771, 689.7247 221.0771" style="stroke: rgb(67%,84%,90%); stroke-linecap: round; stroke-width: 1; fill: rgb(67%,84%,90%); fill-rule: evenodd;"/>
			<polygon points="714.3544 241.5776, 730.6138 241.5776, 730.6138 251.8279, 747.0142 231.3273, 730.6138 210.8268, 730.6138 221.0771, 714.3544 221.0771" style="stroke: rgb(67%,84%,90%); stroke-linecap: round; stroke-width: 1; fill: rgb(67%,84%,90%); fill-rule: evenodd;"/>
			<polygon points="747.8532 241.5776, 782.0904 241.5776, 782.0904 251.8279, 798.4909 231.3273, 782.0904 210.8268, 782.0904 221.0771, 747.8532 221.0771" style="stroke: rgb(67%,84%,90%); stroke-linecap: round; stroke-width: 1; fill: rgb(67%,84%,90%); fill-rule: evenodd;"/>
			<polygon points="799.5096 241.5776, 822.241 241.5776, 822.241 251.8279, 838.6415 231.3273, 822.241 210.8268, 822.241 221.0771, 799.5096 221.0771" style="stroke: rgb(67%,84%,90%); stroke-linecap: round; stroke-width: 1; fill: rgb(67%,84%,90%); fill-rule: evenodd;"/>
			<polygon points="838.4617 241.5776, 843.9344 241.5776, 843.9344 251.8279, 860.3348 231.3273, 843.9344 210.8268, 843.9344 221.0771, 838.4617 221.0771" style="stroke: rgb(67%,84%,90%); stroke-linecap: round; stroke-width: 1; fill: rgb(67%,84%,90%); fill-rule: evenodd;"/>
			<polygon points="862.6719 241.5776, 897.4485 241.5776, 897.4485 251.8279, 913.849 231.3273, 897.4485 210.8268, 897.4485 221.0771, 862.6719 221.0771" style="stroke: rgb(67%,84%,90%); stroke-linecap: round; stroke-width: 1; fill: rgb(67%,84%,90%); fill-rule: evenodd;"/>
			<polygon points="989.8954 200.5765, 934.2645 200.5765, 934.2645 210.8268, 917.864 190.3262, 934.2645 169.8256, 934.2645 180.0759, 989.8954 180.0759" style="stroke: rgb(56%,93%,56%); stroke-linecap: round; stroke-width: 1; fill: rgb(56%,93%,56%); fill-rule: evenodd;"/>
			<polygon points="1003.918 241.5776, 1069.437 241.5776, 1069.437 251.8279, 1085.837 231.3273, 1069.437 210.8268, 1069.437 221.0771, 1003.918 221.0771" style="stroke: rgb(67%,84%,90%); stroke-linecap: round; stroke-width: 1; fill: rgb(67%,84%,90%); fill-rule: evenodd;"/>
			<polygon points="1085.418 241.5776, 1148.42 241.5776, 1148.42 251.8279, 1164.82 231.3273, 1148.42 210.8268, 1148.42 221.0771, 1085.418 221.0771" style="stroke: rgb(67%,84%,90%); stroke-linecap: round; stroke-width: 1; fill: rgb(67%,84%,90%); fill-rule: evenodd;"/>
			<polygon points="1165.18 241.5776, 1187.372 241.5776, 1187.372 251.8279, 1203.772 231.3273, 1187.372 210.8268, 1187.372 221.0771, 1165.18 221.0771" style="stroke: rgb(67%,84%,90%); stroke-linecap: round; stroke-width: 1; fill: rgb(67%,84%,90%); fill-rule: evenodd;"/>
			<polygon points="1204.132 241.5776, 1249.156 241.5776, 1249.156 251.8279, 1265.556 231.3273, 1249.156 210.8268, 1249.156 221.0771, 1204.132 221.0771" style="stroke: rgb(67%,84%,90%); stroke-linecap: round; stroke-width: 1; fill: rgb(67%,84%,90%); fill-rule: evenodd;"/>
			<polygon points="1272.747 241.5776, 1329.996 241.5776, 1329.996 251.8279, 1346.397 231.3273, 1329.996 210.8268, 1329.996 221.0771, 1272.747 221.0771" style="stroke: rgb(67%,84%,90%); stroke-linecap: round; stroke-width: 1; fill: rgb(67%,84%,90%); fill-rule: evenodd;"/>
			<polygon points="71.58526 528.5855, 75.97922 528.5855, 75.97922 538.8358, 92.37967 518.3352, 75.97922 497.8346, 75.97922 508.0849, 71.58526 508.0849" style="stroke: rgb(67%,84%,90%); stroke-linecap: round; stroke-width: 1; fill: rgb(67%,84%,90%); fill-rule: evenodd;"/>
			<polygon points="100.9491 528.5855, 117.3883 528.5855, 117.3883 538.8358, 133.7887 518.3352, 117.3883 497.8346, 117.3883 508.0849, 100.9491 508.0849" style="stroke: rgb(67%,84%,90%); stroke-linecap: round; stroke-width: 1; fill: rgb(67%,84%,90%); fill-rule: evenodd;"/>
			<path d="M 1346.396767,169.825647 L 1346.396767,251.827897 Z" style="stroke: rgb(0%,0%,0%); stroke-linecap: butt; stroke-width: 1;"/>
			<path d="M 70.866142,210.826772 L 1346.396767,210.826772 Z" style="stroke: rgb(0%,0%,0%); stroke-linecap: butt; stroke-width: 1;"/>
			<path d="M 70.866142,169.825647 L 70.866142,251.827897 Z" style="stroke: rgb(0%,0%,0%); stroke-linecap: butt; stroke-width: 1;"/>
			<path d="M 670.128827,210.826772 L 670.128827,231.327334 Z" style="stroke: rgb(0%,0%,0%); stroke-linecap: butt; stroke-width: 1;"/>
			<path d="M 1269.391512,210.826772 L 1269.391512,231.327334 Z" style="stroke: rgb(0%,0%,0%); stroke-linecap: butt; stroke-width: 1;"/>
			<path d="M 670.128827,210.826772 L 670.128827,223.127109 Z" style="stroke: rgb(0%,0%,0%); stroke-linecap: butt; stroke-width: 1;"/>
			<path d="M 1269.391512,210.826772 L 1269.391512,223.127109 Z" style="stroke: rgb(0%,0%,0%); stroke-linecap: butt; stroke-width: 1;"/>
			<path d="M 138.462973,456.833521 L 138.462973,538.835771 Z" style="stroke: rgb(0%,0%,0%); stroke-linecap: butt; stroke-width: 1;"/>
			<path d="M 70.866142,497.834646 L 138.462973,497.834646 Z" style="stroke: rgb(0%,0%,0%); stroke-linecap: butt; stroke-width: 1;"/>
			<path d="M 70.866142,456.833521 L 70.866142,538.835771 Z" style="stroke: rgb(0%,0%,0%); stroke-linecap: butt; stroke-width: 1;"/>
			<g transform=" matrix(0.707107,0.707107,-0.707107,0.707107,670.128827,231.327334)">
				<text style="font-family: Helvetica; font-size: 6px;fill: rgb(0%,0%,0%); stroke:none;" transform="translate(0,0) scale(1,-1)" x="0" y="0">10000</text>
			</g>
			<g transform=" matrix(0.707107,0.707107,-0.707107,0.707107,1269.391512,231.327334)">
				<text style="font-family: Helvetica; font-size: 6px;fill: rgb(0%,0%,0%); stroke:none;" transform="translate(0,0) scale(1,-1)" x="0" y="0">20000</text>
			</g>
			<g transform=" matrix(0.707107,0.707107,-0.707107,0.707107,88.454502,251.827897)">
				<text style="font-family: Helvetica; font-size: 10px;fill: rgb(0%,0%,0%); stroke:none;" transform="translate(0,0) scale(1,-1)" x="0" y="0">Gene_02684</text>
			</g>
			<g transform=" matrix(0.707107,0.707107,-0.707107,0.707107,132.230641,251.827897)">
				<text style="font-family: Helvetica; font-size: 10px;fill: rgb(0%,0%,0%); stroke:none;" transform="translate(0,0) scale(1,-1)" x="0" y="0">Gene_02685</text>
			</g>
			<g transform=" matrix(0.707107,0.707107,-0.707107,0.707107,204.321942,251.827897)">
				<text style="font-family: Helvetica; font-size: 10px;fill: rgb(0%,0%,0%); stroke:none;" transform="translate(0,0) scale(1,-1)" x="0" y="0">Gene_02686</text>
			</g>
			<g transform=" matrix(0.707107,0.707107,-0.707107,0.707107,261.581491,251.827897)">
				<text style="font-family: Helvetica; font-size: 10px;fill: rgb(0%,0%,0%); stroke:none;" transform="translate(0,0) scale(1,-1)" x="0" y="0">Gene_02687</text>
			</g>
			<g transform=" matrix(0.707107,0.707107,-0.707107,0.707107,305.297704,251.827897)">
				<text style="font-family: Helvetica; font-size: 10px;fill: rgb(0%,0%,0%); stroke:none;" transform="translate(0,0) scale(1,-1)" x="0" y="0">Gene_02688</text>
			</g>
			<g transform=" matrix(0.707107,0.707107,-0.707107,0.707107,362.497327,251.827897)">
				<text style="font-family: Helvetica; font-size: 10px;fill: rgb(0%,0%,0%); stroke:none;" transform="translate(0,0) scale(1,-1)" x="0" y="0">Gene_02689</text>
			</g>
			<g transform=" matrix(0.707107,0.707107,-0.707107,0.707107,407.471992,251.827897)">
				<text style="font-family: Helvetica; font-size: 10px;fill: rgb(0%,0%,0%); stroke:none;" transform="translate(0,0) scale(1,-1)" x="0" y="0">Gene_02690</text>
			</g>
			<g transform=" matrix(0.707107,0.707107,-0.707107,0.707107,459.817587,251.827897)">
				<text style="font-family: Helvetica; font-size: 10px;fill: rgb(0%,0%,0%); stroke:none;" transform="translate(0,0) scale(1,-1)" x="0" y="0">Gene_02691</text>
			</g>
			<g transform=" matrix(0.707107,0.707107,-0.707107,0.707107,513.062077,251.827897)">
				<text style="font-family: Helvetica; font-size: 10px;fill: rgb(0%,0%,0%); stroke:none;" transform="translate(0,0) scale(1,-1)" x="0" y="0">Gene_02692</text>
			</g>
			<g transform=" matrix(0.707107,0.707107,-0.707107,0.707107,528.073607,251.827897)">
				<text style="font-family: Helvetica; font-size: 10px;fill: rgb(0%,0%,0%); stroke:none;" transform="translate(0,0) scale(1,-1)" x="0" y="0">Gene_02693</text>
			</g>
			<g transform=" matrix(0.707107,0.707107,-0.707107,0.707107,554.68087,251.827897)">
				<text style="font-family: Helvetica; font-size: 10px;fill: rgb(0%,0%,0%); stroke:none;" transform="translate(0,0) scale(1,-1)" x="0" y="0">Gene_02694</text>
			</g>
			<g transform=" matrix(0.707107,0.707107,-0.707107,0.707107,594.711618,251.827897)">
				<text style="font-family: Helvetica; font-size: 10px;fill: rgb(0%,0%,0%); stroke:none;" transform="translate(0,0) scale(1,-1)" x="0" y="0">Gene_02695</text>
			</g>
			<g transform=" matrix(0.707107,0.707107,-0.707107,0.707107,649.51419,251.827897)">
				<text style="font-family: Helvetica; font-size: 10px;fill: rgb(0%,0%,0%); stroke:none;" transform="translate(0,0) scale(1,-1)" x="0" y="0">Gene_02696</text>
			</g>
			<g transform=" matrix(0.707107,0.707107,-0.707107,0.707107,700.121924,251.827897)">
				<text style="font-family: Helvetica; font-size: 16px;fill: rgb(0%,0%,100%); stroke:none;" transform="translate(0,0) scale(1,-1)" x="0" y="0">Gene_02697 (79.4)</text>
			</g>
			<g transform=" matrix(0.707107,0.707107,-0.707107,0.707107,730.684321,251.827897)">
				<text style="font-family: Helvetica; font-size: 10px;fill: rgb(0%,0%,0%); stroke:none;" transform="translate(0,0) scale(1,-1)" x="0" y="0">Gene_02698</text>
			</g>
			<g transform=" matrix(0.707107,0.707107,-0.707107,0.707107,773.172045,251.827897)">
				<text style="font-family: Helvetica; font-size: 10px;fill: rgb(0%,0%,0%); stroke:none;" transform="translate(0,0) scale(1,-1)" x="0" y="0">Gene_02699</text>
			</g>
			<g transform=" matrix(0.707107,0.707107,-0.707107,0.707107,819.075567,251.827897)">
				<text style="font-family: Helvetica; font-size: 10px;fill: rgb(0%,0%,0%); stroke:none;" transform="translate(0,0) scale(1,-1)" x="0" y="0">Gene_02700</text>
			</g>
			<g transform=" matrix(0.707107,0.707107,-0.707107,0.707107,849.398259,251.827897)">
				<text style="font-family: Helvetica; font-size: 10px;fill: rgb(0%,0%,0%); stroke:none;" transform="translate(0,0) scale(1,-1)" x="0" y="0">Gene_02701</text>
			</g>
			<g transform=" matrix(0.707107,0.707107,-0.707107,0.707107,888.260444,251.827897)">
				<text style="font-family: Helvetica; font-size: 10px;fill: rgb(0%,0%,0%); stroke:none;" transform="translate(0,0) scale(1,-1)" x="0" y="0">Gene_02702</text>
			</g>
			<g transform=" matrix(0.707107,-0.707107,0.707107,0.707107,953.879708,169.825647)">
				<text style="font-family: Helvetica; font-size: 10px;fill: rgb(0%,0%,0%); stroke:none;" transform="translate(0,0) scale(1,-1)" x="0" y="0">Gene_02703</text>
			</g>
			<g transform=" matrix(0.707107,0.707107,-0.707107,0.707107,1044.877747,251.827897)">
				<text style="font-family: Helvetica; font-size: 10px;fill: rgb(0%,0%,0%); stroke:none;" transform="translate(0,0) scale(1,-1)" x="0" y="0">Gene_02704</text>
			</g>
			<g transform=" matrix(0.707107,0.707107,-0.707107,0.707107,1125.11902,251.827897)">
				<text style="font-family: Helvetica; font-size: 10px;fill: rgb(0%,0%,0%); stroke:none;" transform="translate(0,0) scale(1,-1)" x="0" y="0">Gene_02705</text>
			</g>
			<g transform=" matrix(0.707107,0.707107,-0.707107,0.707107,1184.475989,251.827897)">
				<text style="font-family: Helvetica; font-size: 10px;fill: rgb(0%,0%,0%); stroke:none;" transform="translate(0,0) scale(1,-1)" x="0" y="0">Gene_02706</text>
			</g>
			<g transform=" matrix(0.707107,0.707107,-0.707107,0.707107,1234.844018,251.827897)">
				<text style="font-family: Helvetica; font-size: 10px;fill: rgb(0%,0%,0%); stroke:none;" transform="translate(0,0) scale(1,-1)" x="0" y="0">Gene_02707</text>
			</g>
			<g transform=" matrix(0.707107,0.707107,-0.707107,0.707107,1309.572075,251.827897)">
				<text style="font-family: Helvetica; font-size: 10px;fill: rgb(0%,0%,0%); stroke:none;" transform="translate(0,0) scale(1,-1)" x="0" y="0">Gene_02708</text>
			</g>
			<g transform=" matrix(0.707107,0.707107,-0.707107,0.707107,81.982465,538.835771)">
				<text style="font-family: Helvetica; font-size: 16px;fill: rgb(0%,0%,100%); stroke:none;" transform="translate(0,0) scale(1,-1)" x="0" y="0">Gene_01028 (79.4)</text>
			</g>
			<g transform=" matrix(0.707107,0.707107,-0.707107,0.707107,117.368926,538.835771)">
				<text style="font-family: Helvetica; font-size: 10px;fill: rgb(0%,0%,0%); stroke:none;" transform="translate(0,0) scale(1,-1)" x="0" y="0">Gene_01029</text>
			</g>
			<g transform=" matrix(1,0,-0,1,70,169.825647)">
				<text style="font-family: Helvetica; font-size: 12px;fill: rgb(60%,60%,60%); stroke:none;" transform="translate(0,0) scale(1,-1)" x="0" y="0">megahit_25724 (left 70664bp, right 171644bp)</text>
			</g>
		</g>
	</g>
</svg>
