<?xml version="1.0" encoding="utf-8"?>
<!DOCTYPE svg
  PUBLIC '-//W3C//DTD SVG 1.0//EN'
  'http://www.w3.org/TR/2001/REC-SVG-20010904/DTD/svg10.dtd'>
<svg fill-rule="evenodd" height="708.6614173228346" preserveAspectRatio="xMinYMin meet" version="1.0" viewBox="0 0 1417 708" width="1417.3228346456692" xmlns="http://www.w3.org/2000/svg" xmlns:xlink="http://www.w3.org/1999/xlink">
	<title>...</title>
	<desc>...</desc>
	<clipPath id="clip">
		<rect height="708.6614173228346" width="1417.3228346456692" x="0" y="0"/>
	</clipPath>
	<g id="group" style="clip-path: url(#clip)" transform="scale(1,-1) translate(0,-708)">
		<g transform="">
			<polygon points="70.86614 169.8256, 1110.771 169.8256, 1110.771 251.8279, 70.86614 251.8279" style="stroke: rgb(96%,96%,96%); stroke-linecap: butt; stroke-width: 1; fill: rgb(96%,96%,96%); fill-rule: evenodd;"/>
			<polygon points="70.86614 456.8335, 1346.395 456.8335, 1346.395 538.8358, 70.86614 538.8358" style="stroke: rgb(96%,96%,96%); stroke-linecap: butt; stroke-width: 1; fill: rgb(96%,96%,96%); fill-rule: evenodd;"/>
			<polygon points="448.2363 456.8335, 740.336 456.8335, 416.7166 251.8279, 707.8874 251.8279" style="stroke: rgb(100%,54%,54%); stroke-linecap: round; stroke-width: 1; fill: rgb(100%,54%,54%); fill-rule: evenodd;"/>
			<polygon points="812.7262 456.8335, 987.9117 456.8335, 168.9551 251.8279, 342.6544 251.8279" style="stroke: rgb(100%,67%,67%); stroke-linecap: round; stroke-width: 1; fill: rgb(100%,67%,67%); fill-rule: evenodd;"/>
			<polygon points="992.3702 456.8335, 1010.267 456.8335, 144.1233 251.8279, 161.9576 251.8279" style="stroke: rgb(100%,31%,31%); stroke-linecap: round; stroke-width: 1; fill: rgb(100%,31%,31%); fill-rule: evenodd;"/>
			<polygon points="1133.931 456.8335, 1155.109 456.8335, 109.4453 251.8279, 131.181 251.8279" style="stroke: rgb(100%,62%,62%); stroke-linecap: round; stroke-width: 1; fill: rgb(100%,62%,62%); fill-rule: evenodd;"/>
			<polygon points="78.79253 241.5776, 117.1337 241.5776, 117.1337 251.8279, 133.5341 231.3273, 117.1337 210.8268, 117.1337 221.0771, 78.79253 221.0771" style="stroke: rgb(67%,84%,90%); stroke-linecap: round; stroke-width: 1; fill: rgb(67%,84%,90%); fill-rule: evenodd;"/>
			<polygon points="144.9902 241.5776, 145.6191 241.5776, 145.6191 251.8279, 162.0196 231.3273, 145.6191 210.8268, 145.6191 221.0771, 144.9902 221.0771" style="stroke: rgb(67%,84%,90%); stroke-linecap: round; stroke-width: 1; fill: rgb(67%,84%,90%); fill-rule: evenodd;"/>
			<polygon points="169.0171 241.5776, 169.0171 251.8279, 183.8171 231.3273, 169.0171 210.8268, 169.0171 221.0771" style="stroke: rgb(67%,84%,90%); stroke-linecap: round; stroke-width: 1; fill: rgb(67%,84%,90%); fill-rule: evenodd;"/>
			<polygon points="186.9134 241.5776, 188.0996 241.5776, 188.0996 251.8279, 204.5 231.3273, 188.0996 210.8268, 188.0996 221.0771, 186.9134 221.0771" style="stroke: rgb(67%,84%,90%); stroke-linecap: round; stroke-width: 1; fill: rgb(67%,84%,90%); fill-rule: evenodd;"/>
			<polygon points="204.7477 241.5776, 208.9063 241.5776, 208.9063 251.8279, 225.3068 231.3273, 208.9063 210.8268, 208.9063 221.0771, 204.7477 221.0771" style="stroke: rgb(67%,84%,90%); stroke-linecap: round; stroke-width: 1; fill: rgb(67%,84%,90%); fill-rule: evenodd;"/>
			<polygon points="229.8273 241.5776, 233.4286 241.5776, 233.4286 251.8279, 249.829 231.3273, 233.4286 210.8268, 233.4286 221.0771, 229.8273 221.0771" style="stroke: rgb(67%,84%,90%); stroke-linecap: round; stroke-width: 1; fill: rgb(67%,84%,90%); fill-rule: evenodd;"/>
			<polygon points="256.2692 241.5776, 326.7494 241.5776, 326.7494 251.8279, 343.1498 231.3273, 326.7494 210.8268, 326.7494 221.0771, 256.2692 221.0771" style="stroke: rgb(67%,84%,90%); stroke-linecap: round; stroke-width: 1; fill: rgb(67%,84%,90%); fill-rule: evenodd;"/>
			<polygon points="348.785 241.5776, 420.7513 241.5776, 420.7513 251.8279, 437.1518 231.3273, 420.7513 210.8268, 420.7513 221.0771, 348.785 221.0771" style="stroke: rgb(67%,84%,90%); stroke-linecap: round; stroke-width: 1; fill: rgb(67%,84%,90%); fill-rule: evenodd;"/>
			<polygon points="434.489 241.5776, 450.723 241.5776, 450.723 251.8279, 467.1234 231.3273, 450.723 210.8268, 450.723 221.0771, 434.489 221.0771" style="stroke: rgb(67%,84%,90%); stroke-linecap: round; stroke-width: 1; fill: rgb(67%,84%,90%); fill-rule: evenodd;"/>
			<polygon points="468.2381 241.5776, 566.3987 241.5776, 566.3987 251.8279, 582.7991 231.3273, 566.3987 210.8268, 566.3987 221.0771, 468.2381 221.0771" style="stroke: rgb(67%,84%,90%); stroke-linecap: round; stroke-width: 1; fill: rgb(67%,84%,90%); fill-rule: evenodd;"/>
			<polygon points="583.9138 241.5776, 693.9639 241.5776, 693.9639 251.8279, 710.3644 231.3273, 693.9639 210.8268, 693.9639 221.0771, 583.9138 221.0771" style="stroke: rgb(67%,84%,90%); stroke-linecap: round; stroke-width: 1; fill: rgb(67%,84%,90%); fill-rule: evenodd;"/>
			<polygon points="805.6667 200.5765, 732.5857 200.5765, 732.5857 210.8268, 716.1853 190.3262, 732.5857 169.8256, 732.5857 180.0759, 805.6667 180.0759" style="stroke: rgb(56%,93%,56%); stroke-linecap: round; stroke-width: 1; fill: rgb(56%,93%,56%); fill-rule: evenodd;"/>
			<polygon points="822.8819 241.5776, 908.9671 241.5776, 908.9671 251.8279, 925.3675 231.3273, 908.9671 210.8268, 908.9671 221.0771, 822.8819 221.0771" style="stroke: rgb(67%,84%,90%); stroke-linecap: round; stroke-width: 1; fill: rgb(67%,84%,90%); fill-rule: evenodd;"/>
			<polygon points="926.9776 241.5776, 958.0735 241.5776, 958.0735 251.8279, 974.474 231.3273, 958.0735 210.8268, 958.0735 221.0771, 926.9776 221.0771" style="stroke: rgb(67%,84%,90%); stroke-linecap: round; stroke-width: 1; fill: rgb(67%,84%,90%); fill-rule: evenodd;"/>
			<polygon points="972.1827 241.5776, 1065.513 241.5776, 1065.513 251.8279, 1081.914 231.3273, 1065.513 210.8268, 1065.513 221.0771, 972.1827 221.0771" style="stroke: rgb(67%,84%,90%); stroke-linecap: round; stroke-width: 1; fill: rgb(67%,84%,90%); fill-rule: evenodd;"/>
			<polygon points="1081.48 241.5776, 1094.37 241.5776, 1094.37 251.8279, 1110.771 231.3273, 1094.37 210.8268, 1094.37 221.0771, 1081.48 221.0771" style="stroke: rgb(67%,84%,90%); stroke-linecap: round; stroke-width: 1; fill: rgb(67%,84%,90%); fill-rule: evenodd;"/>
			<polygon points="149.0153 487.5844, 97.4842 487.5844, 97.4842 497.8346, 81.08375 477.3341, 97.4842 456.8335, 97.4842 467.0838, 149.0153 467.0838" style="stroke: rgb(56%,93%,56%); stroke-linecap: round; stroke-width: 1; fill: rgb(56%,93%,56%); fill-rule: evenodd;"/>
			<polygon points="188.3376 487.5844, 167.8309 487.5844, 167.8309 497.8346, 151.4304 477.3341, 167.8309 456.8335, 167.8309 467.0838, 188.3376 467.0838" style="stroke: rgb(56%,93%,56%); stroke-linecap: round; stroke-width: 1; fill: rgb(56%,93%,56%); fill-rule: evenodd;"/>
			<polygon points="211.126 487.5844, 205.667 487.5844, 205.667 497.8346, 189.2665 477.3341, 205.667 456.8335, 205.667 467.0838, 211.126 467.0838" style="stroke: rgb(56%,93%,56%); stroke-linecap: round; stroke-width: 1; fill: rgb(56%,93%,56%); fill-rule: evenodd;"/>
			<polygon points="309.4008 487.5844, 228.3315 487.5844, 228.3315 497.8346, 211.931 477.3341, 228.3315 456.8335, 228.3315 467.0838, 309.4008 467.0838" style="stroke: rgb(56%,93%,56%); stroke-linecap: round; stroke-width: 1; fill: rgb(56%,93%,56%); fill-rule: evenodd;"/>
			<polygon points="379.252 487.5844, 329.0213 487.5844, 329.0213 497.8346, 312.6209 477.3341, 329.0213 456.8335, 329.0213 467.0838, 379.252 467.0838" style="stroke: rgb(56%,93%,56%); stroke-linecap: round; stroke-width: 1; fill: rgb(56%,93%,56%); fill-rule: evenodd;"/>
			<polygon points="389.5316 528.5855, 423.2283 528.5855, 423.2283 538.8358, 439.6288 518.3352, 423.2283 497.8346, 423.2283 508.0849, 389.5316 508.0849" style="stroke: rgb(67%,84%,90%); stroke-linecap: round; stroke-width: 1; fill: rgb(67%,84%,90%); fill-rule: evenodd;"/>
			<polygon points="572.2099 487.5844, 461.974 487.5844, 461.974 497.8346, 445.5736 477.3341, 461.974 456.8335, 461.974 467.0838, 572.2099 467.0838" style="stroke: rgb(56%,93%,56%); stroke-linecap: round; stroke-width: 1; fill: rgb(56%,93%,56%); fill-rule: evenodd;"/>
			<polygon points="688.9383 487.5844, 590.7778 487.5844, 590.7778 497.8346, 574.3773 477.3341, 590.7778 456.8335, 590.7778 467.0838, 688.9383 467.0838" style="stroke: rgb(56%,93%,56%); stroke-linecap: round; stroke-width: 1; fill: rgb(56%,93%,56%); fill-rule: evenodd;"/>
			<polygon points="722.7493 487.5844, 706.5154 487.5844, 706.5154 497.8346, 690.1149 477.3341, 706.5154 456.8335, 706.5154 467.0838, 722.7493 467.0838" style="stroke: rgb(56%,93%,56%); stroke-linecap: round; stroke-width: 1; fill: rgb(56%,93%,56%); fill-rule: evenodd;"/>
			<polygon points="805.6667 487.5844, 738.7163 487.5844, 738.7163 497.8346, 722.3159 477.3341, 738.7163 456.8335, 738.7163 467.0838, 805.6667 467.0838" style="stroke: rgb(56%,93%,56%); stroke-linecap: round; stroke-width: 1; fill: rgb(56%,93%,56%); fill-rule: evenodd;"/>
			<polygon points="900.226 487.5844, 828.4455 487.5844, 828.4455 497.8346, 812.045 477.3341, 828.4455 456.8335, 828.4455 467.0838, 900.226 467.0838" style="stroke: rgb(56%,93%,56%); stroke-linecap: round; stroke-width: 1; fill: rgb(56%,93%,56%); fill-rule: evenodd;"/>
			<polygon points="923.2002 487.5844, 922.5713 487.5844, 922.5713 497.8346, 906.1708 477.3341, 922.5713 456.8335, 922.5713 467.0838, 923.2002 467.0838" style="stroke: rgb(56%,93%,56%); stroke-linecap: round; stroke-width: 1; fill: rgb(56%,93%,56%); fill-rule: evenodd;"/>
			<polygon points="952.0571 487.5844, 947.8985 487.5844, 947.8985 497.8346, 931.4981 477.3341, 947.8985 456.8335, 947.8985 467.0838, 952.0571 467.0838" style="stroke: rgb(56%,93%,56%); stroke-linecap: round; stroke-width: 1; fill: rgb(56%,93%,56%); fill-rule: evenodd;"/>
			<polygon points="970.325 487.5844, 968.7672 487.5844, 968.7672 497.8346, 952.3668 477.3341, 968.7672 456.8335, 968.7672 467.0838, 970.325 467.0838" style="stroke: rgb(56%,93%,56%); stroke-linecap: round; stroke-width: 1; fill: rgb(56%,93%,56%); fill-rule: evenodd;"/>
			<polygon points="987.8497 487.5844, 987.8497 497.8346, 973.0497 477.3341, 987.8497 456.8335, 987.8497 467.0838" style="stroke: rgb(56%,93%,56%); stroke-linecap: round; stroke-width: 1; fill: rgb(56%,93%,56%); fill-rule: evenodd;"/>
			<polygon points="1009.338 487.5844, 1008.709 487.5844, 1008.709 497.8346, 992.3083 477.3341, 1008.709 456.8335, 1008.709 467.0838, 1009.338 467.0838" style="stroke: rgb(56%,93%,56%); stroke-linecap: round; stroke-width: 1; fill: rgb(56%,93%,56%); fill-rule: evenodd;"/>
			<polygon points="1128.729 487.5844, 1037.813 487.5844, 1037.813 497.8346, 1021.413 477.3341, 1037.813 456.8335, 1037.813 467.0838, 1128.729 467.0838" style="stroke: rgb(56%,93%,56%); stroke-linecap: round; stroke-width: 1; fill: rgb(56%,93%,56%); fill-rule: evenodd;"/>
			<polygon points="1199.695 487.5844, 1147.978 487.5844, 1147.978 497.8346, 1131.577 477.3341, 1147.978 456.8335, 1147.978 467.0838, 1199.695 467.0838" style="stroke: rgb(56%,93%,56%); stroke-linecap: round; stroke-width: 1; fill: rgb(56%,93%,56%); fill-rule: evenodd;"/>
			<polygon points="1291.034 487.5844, 1225.198 487.5844, 1225.198 497.8346, 1208.798 477.3341, 1225.198 456.8335, 1225.198 467.0838, 1291.034 467.0838" style="stroke: rgb(56%,93%,56%); stroke-linecap: round; stroke-width: 1; fill: rgb(56%,93%,56%); fill-rule: evenodd;"/>
			<polygon points="1346.395 487.5844, 1315.299 487.5844, 1315.299 497.8346, 1298.898 477.3341, 1315.299 456.8335, 1315.299 467.0838, 1346.395 467.0838" style="stroke: rgb(56%,93%,56%); stroke-linecap: round; stroke-width: 1; fill: rgb(56%,93%,56%); fill-rule: evenodd;"/>
			<path d="M 1110.770609,169.825647 L 1110.770609,251.827897 Z" style="stroke: rgb(0%,0%,0%); stroke-linecap: butt; stroke-width: 1;"/>
			<path d="M 70.866142,210.826772 L 1110.770609,210.826772 Z" style="stroke: rgb(0%,0%,0%); stroke-linecap: butt; stroke-width: 1;"/>
			<path d="M 70.866142,169.825647 L 70.866142,251.827897 Z" style="stroke: rgb(0%,0%,0%); stroke-linecap: butt; stroke-width: 1;"/>
			<path d="M 690.114917,210.826772 L 690.114917,231.327334 Z" style="stroke: rgb(0%,0%,0%); stroke-linecap: butt; stroke-width: 1;"/>
			<path d="M 690.114917,210.826772 L 690.114917,223.127109 Z" style="stroke: rgb(0%,0%,0%); stroke-linecap: butt; stroke-width: 1;"/>
			<path d="M 1346.394768,456.833521 L 1346.394768,538.835771 Z" style="stroke: rgb(0%,0%,0%); stroke-linecap: butt; stroke-width: 1;"/>
			<path d="M 70.866142,497.834646 L 1346.394768,497.834646 Z" style="stroke: rgb(0%,0%,0%); stroke-linecap: butt; stroke-width: 1;"/>
			<path d="M 70.866142,456.833521 L 70.866142,538.835771 Z" style="stroke: rgb(0%,0%,0%); stroke-linecap: butt; stroke-width: 1;"/>
			<path d="M 690.114917,497.834646 L 690.114917,518.335208 Z" style="stroke: rgb(0%,0%,0%); stroke-linecap: butt; stroke-width: 1;"/>
			<path d="M 1309.363691,497.834646 L 1309.363691,518.335208 Z" style="stroke: rgb(0%,0%,0%); stroke-linecap: butt; stroke-width: 1;"/>
			<path d="M 690.114917,497.834646 L 690.114917,510.134983 Z" style="stroke: rgb(0%,0%,0%); stroke-linecap: butt; stroke-width: 1;"/>
			<path d="M 1309.363691,497.834646 L 1309.363691,510.134983 Z" style="stroke: rgb(0%,0%,0%); stroke-linecap: butt; stroke-width: 1;"/>
			<g transform=" matrix(0.707107,0.707107,-0.707107,0.707107,690.114917,231.327334)">
				<text style="font-family: Helvetica; font-size: 6px;fill: rgb(0%,0%,0%); stroke:none;" transform="translate(0,0) scale(1,-1)" x="0" y="0">10000</text>
			</g>
			<g transform=" matrix(0.707107,0.707107,-0.707107,0.707107,690.114917,518.335208)">
				<text style="font-family: Helvetica; font-size: 6px;fill: rgb(0%,0%,0%); stroke:none;" transform="translate(0,0) scale(1,-1)" x="0" y="0">10000</text>
			</g>
			<g transform=" matrix(0.707107,0.707107,-0.707107,0.707107,1309.363691,518.335208)">
				<text style="font-family: Helvetica; font-size: 6px;fill: rgb(0%,0%,0%); stroke:none;" transform="translate(0,0) scale(1,-1)" x="0" y="0">20000</text>
			</g>
			<g transform=" matrix(0.707107,0.707107,-0.707107,0.707107,106.163322,251.827897)">
				<text style="font-family: Helvetica; font-size: 10px;fill: rgb(0%,0%,0%); stroke:none;" transform="translate(0,0) scale(1,-1)" x="0" y="0">Gene_02189</text>
			</g>
			<g transform=" matrix(0.707107,0.707107,-0.707107,0.707107,153.504891,251.827897)">
				<text style="font-family: Helvetica; font-size: 10px;fill: rgb(0%,0%,0%); stroke:none;" transform="translate(0,0) scale(1,-1)" x="0" y="0">Gene_02190</text>
			</g>
			<g transform=" matrix(0.707107,0.707107,-0.707107,0.707107,176.417095,251.827897)">
				<text style="font-family: Helvetica; font-size: 10px;fill: rgb(0%,0%,0%); stroke:none;" transform="translate(0,0) scale(1,-1)" x="0" y="0">Gene_02191</text>
			</g>
			<g transform=" matrix(0.707107,0.707107,-0.707107,0.707107,195.706695,251.827897)">
				<text style="font-family: Helvetica; font-size: 10px;fill: rgb(0%,0%,0%); stroke:none;" transform="translate(0,0) scale(1,-1)" x="0" y="0">Gene_02192</text>
			</g>
			<g transform=" matrix(0.707107,0.707107,-0.707107,0.707107,215.027257,251.827897)">
				<text style="font-family: Helvetica; font-size: 10px;fill: rgb(0%,0%,0%); stroke:none;" transform="translate(0,0) scale(1,-1)" x="0" y="0">Gene_02193</text>
			</g>
			<g transform=" matrix(0.707107,0.707107,-0.707107,0.707107,239.82817,251.827897)">
				<text style="font-family: Helvetica; font-size: 10px;fill: rgb(0%,0%,0%); stroke:none;" transform="translate(0,0) scale(1,-1)" x="0" y="0">Gene_02194</text>
			</g>
			<g transform=" matrix(0.707107,0.707107,-0.707107,0.707107,299.709526,251.827897)">
				<text style="font-family: Helvetica; font-size: 10px;fill: rgb(0%,0%,0%); stroke:none;" transform="translate(0,0) scale(1,-1)" x="0" y="0">Gene_02195</text>
			</g>
			<g transform=" matrix(0.707107,0.707107,-0.707107,0.707107,392.968392,251.827897)">
				<text style="font-family: Helvetica; font-size: 10px;fill: rgb(0%,0%,0%); stroke:none;" transform="translate(0,0) scale(1,-1)" x="0" y="0">Gene_02196</text>
			</g>
			<g transform=" matrix(0.707107,0.707107,-0.707107,0.707107,450.806228,251.827897)">
				<text style="font-family: Helvetica; font-size: 16px;fill: rgb(0%,0%,100%); stroke:none;" transform="translate(0,0) scale(1,-1)" x="0" y="0">Gene_02197 (78.8)</text>
			</g>
			<g transform=" matrix(0.707107,0.707107,-0.707107,0.707107,525.518592,251.827897)">
				<text style="font-family: Helvetica; font-size: 10px;fill: rgb(0%,0%,0%); stroke:none;" transform="translate(0,0) scale(1,-1)" x="0" y="0">Gene_02198</text>
			</g>
			<g transform=" matrix(0.707107,0.707107,-0.707107,0.707107,647.139052,251.827897)">
				<text style="font-family: Helvetica; font-size: 10px;fill: rgb(0%,0%,0%); stroke:none;" transform="translate(0,0) scale(1,-1)" x="0" y="0">Gene_02199</text>
			</g>
			<g transform=" matrix(0.707107,-0.707107,0.707107,0.707107,760.926014,169.825647)">
				<text style="font-family: Helvetica; font-size: 10px;fill: rgb(0%,0%,0%); stroke:none;" transform="translate(0,0) scale(1,-1)" x="0" y="0">Gene_02200</text>
			</g>
			<g transform=" matrix(0.707107,0.707107,-0.707107,0.707107,874.12469,251.827897)">
				<text style="font-family: Helvetica; font-size: 10px;fill: rgb(0%,0%,0%); stroke:none;" transform="translate(0,0) scale(1,-1)" x="0" y="0">Gene_02201</text>
			</g>
			<g transform=" matrix(0.707107,0.707107,-0.707107,0.707107,950.725763,251.827897)">
				<text style="font-family: Helvetica; font-size: 10px;fill: rgb(0%,0%,0%); stroke:none;" transform="translate(0,0) scale(1,-1)" x="0" y="0">Gene_02202</text>
			</g>
			<g transform=" matrix(0.707107,0.707107,-0.707107,0.707107,1027.048175,251.827897)">
				<text style="font-family: Helvetica; font-size: 10px;fill: rgb(0%,0%,0%); stroke:none;" transform="translate(0,0) scale(1,-1)" x="0" y="0">Gene_02203</text>
			</g>
			<g transform=" matrix(0.707107,0.707107,-0.707107,0.707107,1096.125376,251.827897)">
				<text style="font-family: Helvetica; font-size: 10px;fill: rgb(0%,0%,0%); stroke:none;" transform="translate(0,0) scale(1,-1)" x="0" y="0">Gene_02204</text>
			</g>
			<g transform=" matrix(0.707107,-0.707107,0.707107,0.707107,115.049542,456.833521)">
				<text style="font-family: Helvetica; font-size: 10px;fill: rgb(0%,0%,0%); stroke:none;" transform="translate(0,0) scale(1,-1)" x="0" y="0">Gene_00915</text>
			</g>
			<g transform=" matrix(0.707107,-0.707107,0.707107,0.707107,169.884021,456.833521)">
				<text style="font-family: Helvetica; font-size: 10px;fill: rgb(0%,0%,0%); stroke:none;" transform="translate(0,0) scale(1,-1)" x="0" y="0">Gene_00916</text>
			</g>
			<g transform=" matrix(0.707107,-0.707107,0.707107,0.707107,200.196248,456.833521)">
				<text style="font-family: Helvetica; font-size: 10px;fill: rgb(0%,0%,0%); stroke:none;" transform="translate(0,0) scale(1,-1)" x="0" y="0">Gene_00917</text>
			</g>
			<g transform=" matrix(0.707107,-0.707107,0.707107,0.707107,260.665891,456.833521)">
				<text style="font-family: Helvetica; font-size: 10px;fill: rgb(0%,0%,0%); stroke:none;" transform="translate(0,0) scale(1,-1)" x="0" y="0">Gene_00918</text>
			</g>
			<g transform=" matrix(0.707107,-0.707107,0.707107,0.707107,345.936447,456.833521)">
				<text style="font-family: Helvetica; font-size: 10px;fill: rgb(0%,0%,0%); stroke:none;" transform="translate(0,0) scale(1,-1)" x="0" y="0">Gene_00919</text>
			</g>
			<g transform=" matrix(0.707107,0.707107,-0.707107,0.707107,414.580174,538.835771)">
				<text style="font-family: Helvetica; font-size: 10px;fill: rgb(0%,0%,0%); stroke:none;" transform="translate(0,0) scale(1,-1)" x="0" y="0">Gene_00920</text>
			</g>
			<g transform=" matrix(0.707107,-0.707107,0.707107,0.707107,508.891763,456.833521)">
				<text style="font-family: Helvetica; font-size: 10px;fill: rgb(0%,0%,0%); stroke:none;" transform="translate(0,0) scale(1,-1)" x="0" y="0">Gene_00921</text>
			</g>
			<g transform=" matrix(0.707107,-0.707107,0.707107,0.707107,631.657832,456.833521)">
				<text style="font-family: Helvetica; font-size: 10px;fill: rgb(0%,0%,0%); stroke:none;" transform="translate(0,0) scale(1,-1)" x="0" y="0">Gene_00922</text>
			</g>
			<g transform=" matrix(0.707107,-0.707107,0.707107,0.707107,706.432122,456.833521)">
				<text style="font-family: Helvetica; font-size: 16px;fill: rgb(0%,0%,100%); stroke:none;" transform="translate(0,0) scale(1,-1)" x="0" y="0">Gene_00923 (78.8)</text>
			</g>
			<g transform=" matrix(0.707107,-0.707107,0.707107,0.707107,763.991295,456.833521)">
				<text style="font-family: Helvetica; font-size: 10px;fill: rgb(0%,0%,0%); stroke:none;" transform="translate(0,0) scale(1,-1)" x="0" y="0">Gene_00924</text>
			</g>
			<g transform=" matrix(0.707107,-0.707107,0.707107,0.707107,856.135513,456.833521)">
				<text style="font-family: Helvetica; font-size: 10px;fill: rgb(0%,0%,0%); stroke:none;" transform="translate(0,0) scale(1,-1)" x="0" y="0">Gene_00925</text>
			</g>
			<g transform=" matrix(0.707107,-0.707107,0.707107,0.707107,914.685485,456.833521)">
				<text style="font-family: Helvetica; font-size: 10px;fill: rgb(0%,0%,0%); stroke:none;" transform="translate(0,0) scale(1,-1)" x="0" y="0">Gene_00926</text>
			</g>
			<g transform=" matrix(0.707107,-0.707107,0.707107,0.707107,941.777619,456.833521)">
				<text style="font-family: Helvetica; font-size: 10px;fill: rgb(0%,0%,0%); stroke:none;" transform="translate(0,0) scale(1,-1)" x="0" y="0">Gene_00927</text>
			</g>
			<g transform=" matrix(0.707107,-0.707107,0.707107,0.707107,961.34588,456.833521)">
				<text style="font-family: Helvetica; font-size: 10px;fill: rgb(0%,0%,0%); stroke:none;" transform="translate(0,0) scale(1,-1)" x="0" y="0">Gene_00928</text>
			</g>
			<g transform=" matrix(0.707107,-0.707107,0.707107,0.707107,980.449705,456.833521)">
				<text style="font-family: Helvetica; font-size: 10px;fill: rgb(0%,0%,0%); stroke:none;" transform="translate(0,0) scale(1,-1)" x="0" y="0">Gene_00929</text>
			</g>
			<g transform=" matrix(0.707107,-0.707107,0.707107,0.707107,1000.822989,456.833521)">
				<text style="font-family: Helvetica; font-size: 10px;fill: rgb(0%,0%,0%); stroke:none;" transform="translate(0,0) scale(1,-1)" x="0" y="0">Gene_00930</text>
			</g>
			<g transform=" matrix(0.707107,-0.707107,0.707107,0.707107,1075.070917,456.833521)">
				<text style="font-family: Helvetica; font-size: 10px;fill: rgb(0%,0%,0%); stroke:none;" transform="translate(0,0) scale(1,-1)" x="0" y="0">Gene_00931</text>
			</g>
			<g transform=" matrix(0.707107,-0.707107,0.707107,0.707107,1165.636051,456.833521)">
				<text style="font-family: Helvetica; font-size: 10px;fill: rgb(0%,0%,0%); stroke:none;" transform="translate(0,0) scale(1,-1)" x="0" y="0">Gene_00932</text>
			</g>
			<g transform=" matrix(0.707107,-0.707107,0.707107,0.707107,1249.915809,456.833521)">
				<text style="font-family: Helvetica; font-size: 10px;fill: rgb(0%,0%,0%); stroke:none;" transform="translate(0,0) scale(1,-1)" x="0" y="0">Gene_00933</text>
			</g>
			<g transform=" matrix(0.707107,-0.707107,0.707107,0.707107,1322.646578,456.833521)">
				<text style="font-family: Helvetica; font-size: 10px;fill: rgb(0%,0%,0%); stroke:none;" transform="translate(0,0) scale(1,-1)" x="0" y="0">Gene_00934</text>
			</g>
			<g transform=" matrix(1,0,-0,1,70,169.825647)">
				<text style="font-family: Helvetica; font-size: 12px;fill: rgb(60%,60%,60%); stroke:none;" transform="translate(0,0) scale(1,-1)" x="0" y="0">megahit_117189 (left 5872bp, right 10855bp)</text>
			</g>
			<g transform=" matrix(1,0,-0,1,70,456.833521)">
				<text style="font-family: Helvetica; font-size: 12px;fill: rgb(60%,60%,60%); stroke:none;" transform="translate(0,0) scale(1,-1)" x="0" y="0">megahit_18058 (left 13193bp, right 12502bp)</text>
			</g>
		</g>
	</g>
</svg>
