<?xml version="1.0" encoding="utf-8"?>
<!DOCTYPE svg
  PUBLIC '-//W3C//DTD SVG 1.0//EN'
  'http://www.w3.org/TR/2001/REC-SVG-20010904/DTD/svg10.dtd'>
<svg fill-rule="evenodd" height="708.6614173228346" preserveAspectRatio="xMinYMin meet" version="1.0" viewBox="0 0 1417 708" width="1417.3228346456692" xmlns="http://www.w3.org/2000/svg" xmlns:xlink="http://www.w3.org/1999/xlink">
	<title>...</title>
	<desc>...</desc>
	<clipPath id="clip">
		<rect height="708.6614173228346" width="1417.3228346456692" x="0" y="0"/>
	</clipPath>
	<g id="group" style="clip-path: url(#clip)" transform="scale(1,-1) translate(0,-708)">
		<g transform="">
			<polygon points="70.86614 169.8256, 1271.508 169.8256, 1271.508 251.8279, 70.86614 251.8279" style="stroke: rgb(96%,96%,96%); stroke-linecap: butt; stroke-width: 1; fill: rgb(96%,96%,96%); fill-rule: evenodd;"/>
			<polygon points="70.86614 456.8335, 1346.396 456.8335, 1346.396 538.8358, 70.86614 538.8358" style="stroke: rgb(96%,96%,96%); stroke-linecap: butt; stroke-width: 1; fill: rgb(96%,96%,96%); fill-rule: evenodd;"/>
			<polygon points="884.53 456.8335, 1126.506 456.8335, 1042.075 251.8279, 802.1786 251.8279" style="stroke: rgb(100%,45%,45%); stroke-linecap: round; stroke-width: 1; fill: rgb(100%,45%,45%); fill-rule: evenodd;"/>
			<polygon points="1128.158 456.8335, 1346.396 456.8335, 1271.508 251.8279, 1057.798 251.8279" style="stroke: rgb(100%,56%,56%); stroke-linecap: round; stroke-width: 1; fill: rgb(100%,56%,56%); fill-rule: evenodd;"/>
			<polygon points="711.8735 456.8335, 809.2146 456.8335, 712.8524 251.8279, 614.9607 251.8279" style="stroke: rgb(100%,50%,50%); stroke-linecap: round; stroke-width: 1; fill: rgb(100%,50%,50%); fill-rule: evenodd;"/>
			<polygon points="812.6408 456.8335, 883.4288 456.8335, 797.8347 251.8279, 726.3737 251.8279" style="stroke: rgb(100%,42%,42%); stroke-linecap: round; stroke-width: 1; fill: rgb(100%,42%,42%); fill-rule: evenodd;"/>
			<polygon points="675.8983 456.8335, 709.1203 456.8335, 607.3129 251.8279, 573.5402 251.8279" style="stroke: rgb(100%,33%,33%); stroke-linecap: round; stroke-width: 1; fill: rgb(100%,33%,33%); fill-rule: evenodd;"/>
			<polygon points="80.3494 241.5776, 154.3764 241.5776, 154.3764 251.8279, 170.7769 231.3273, 154.3764 210.8268, 154.3764 221.0771, 80.3494 221.0771" style="stroke: rgb(67%,84%,90%); stroke-linecap: round; stroke-width: 1; fill: rgb(67%,84%,90%); fill-rule: evenodd;"/>
			<polygon points="170.5934 241.5776, 211.7655 241.5776, 211.7655 251.8279, 228.1659 231.3273, 211.7655 210.8268, 211.7655 221.0771, 170.5934 221.0771" style="stroke: rgb(67%,84%,90%); stroke-linecap: round; stroke-width: 1; fill: rgb(67%,84%,90%); fill-rule: evenodd;"/>
			<polygon points="230.858 241.5776, 308.0053 241.5776, 308.0053 251.8279, 324.4057 231.3273, 308.0053 210.8268, 308.0053 221.0771, 230.858 221.0771" style="stroke: rgb(67%,84%,90%); stroke-linecap: round; stroke-width: 1; fill: rgb(67%,84%,90%); fill-rule: evenodd;"/>
			<polygon points="322.142 241.5776, 366.2509 241.5776, 366.2509 251.8279, 382.6513 231.3273, 366.2509 210.8268, 366.2509 221.0771, 322.142 221.0771" style="stroke: rgb(67%,84%,90%); stroke-linecap: round; stroke-width: 1; fill: rgb(67%,84%,90%); fill-rule: evenodd;"/>
			<polygon points="383.9362 241.5776, 421.0703 241.5776, 421.0703 251.8279, 437.4707 231.3273, 421.0703 210.8268, 421.0703 221.0771, 383.9362 221.0771" style="stroke: rgb(67%,84%,90%); stroke-linecap: round; stroke-width: 1; fill: rgb(67%,84%,90%); fill-rule: evenodd;"/>
			<polygon points="438.2049 241.5776, 477.9086 241.5776, 477.9086 251.8279, 494.3091 231.3273, 477.9086 210.8268, 477.9086 221.0771, 438.2049 221.0771" style="stroke: rgb(67%,84%,90%); stroke-linecap: round; stroke-width: 1; fill: rgb(67%,84%,90%); fill-rule: evenodd;"/>
			<polygon points="496.0222 241.5776, 551.3275 241.5776, 551.3275 251.8279, 567.7279 231.3273, 551.3275 210.8268, 551.3275 221.0771, 496.0222 221.0771" style="stroke: rgb(67%,84%,90%); stroke-linecap: round; stroke-width: 1; fill: rgb(67%,84%,90%); fill-rule: evenodd;"/>
			<polygon points="583.0235 241.5776, 590.6065 241.5776, 590.6065 251.8279, 607.007 231.3273, 590.6065 210.8268, 590.6065 221.0771, 583.0235 221.0771" style="stroke: rgb(67%,84%,90%); stroke-linecap: round; stroke-width: 1; fill: rgb(67%,84%,90%); fill-rule: evenodd;"/>
			<polygon points="615.756 241.5776, 638.2064 241.5776, 638.2064 251.8279, 654.6068 231.3273, 638.2064 210.8268, 638.2064 221.0771, 615.756 221.0771" style="stroke: rgb(67%,84%,90%); stroke-linecap: round; stroke-width: 1; fill: rgb(67%,84%,90%); fill-rule: evenodd;"/>
			<polygon points="656.5035 241.5776, 678.0361 241.5776, 678.0361 251.8279, 694.4365 231.3273, 678.0361 210.8268, 678.0361 221.0771, 656.5035 221.0771" style="stroke: rgb(67%,84%,90%); stroke-linecap: round; stroke-width: 1; fill: rgb(67%,84%,90%); fill-rule: evenodd;"/>
			<polygon points="694.4365 241.5776, 696.3296 241.5776, 696.3296 251.8279, 712.73 231.3273, 696.3296 210.8268, 696.3296 221.0771, 694.4365 221.0771" style="stroke: rgb(67%,84%,90%); stroke-linecap: round; stroke-width: 1; fill: rgb(67%,84%,90%); fill-rule: evenodd;"/>
			<polygon points="727.4138 241.5776, 762.7124 241.5776, 762.7124 251.8279, 779.1129 231.3273, 762.7124 210.8268, 762.7124 221.0771, 727.4138 221.0771" style="stroke: rgb(67%,84%,90%); stroke-linecap: round; stroke-width: 1; fill: rgb(67%,84%,90%); fill-rule: evenodd;"/>
			<polygon points="780.7036 241.5776, 781.4954 241.5776, 781.4954 251.8279, 797.8959 231.3273, 781.4954 210.8268, 781.4954 221.0771, 780.7036 221.0771" style="stroke: rgb(67%,84%,90%); stroke-linecap: round; stroke-width: 1; fill: rgb(67%,84%,90%); fill-rule: evenodd;"/>
			<polygon points="803.2187 241.5776, 810.4347 241.5776, 810.4347 251.8279, 826.8351 231.3273, 810.4347 210.8268, 810.4347 221.0771, 803.2187 221.0771" style="stroke: rgb(67%,84%,90%); stroke-linecap: round; stroke-width: 1; fill: rgb(67%,84%,90%); fill-rule: evenodd;"/>
			<polygon points="827.5693 241.5776, 850.9374 241.5776, 850.9374 251.8279, 867.3378 231.3273, 850.9374 210.8268, 850.9374 221.0771, 827.5693 221.0771" style="stroke: rgb(67%,84%,90%); stroke-linecap: round; stroke-width: 1; fill: rgb(67%,84%,90%); fill-rule: evenodd;"/>
			<polygon points="867.3378 241.5776, 877.674 241.5776, 877.674 251.8279, 894.0745 231.3273, 877.674 210.8268, 877.674 221.0771, 867.3378 221.0771" style="stroke: rgb(67%,84%,90%); stroke-linecap: round; stroke-width: 1; fill: rgb(67%,84%,90%); fill-rule: evenodd;"/>
			<polygon points="893.4627 241.5776, 893.4627 251.8279, 905.8827 231.3273, 893.4627 210.8268, 893.4627 221.0771" style="stroke: rgb(67%,84%,90%); stroke-linecap: round; stroke-width: 1; fill: rgb(67%,84%,90%); fill-rule: evenodd;"/>
			<polygon points="908.3912 241.5776, 908.3912 251.8279, 923.9315 231.3273, 908.3912 210.8268, 908.3912 221.0771" style="stroke: rgb(67%,84%,90%); stroke-linecap: round; stroke-width: 1; fill: rgb(67%,84%,90%); fill-rule: evenodd;"/>
			<polygon points="925.0939 241.5776, 931.2086 241.5776, 931.2086 251.8279, 947.609 231.3273, 931.2086 210.8268, 931.2086 221.0771, 925.0939 221.0771" style="stroke: rgb(67%,84%,90%); stroke-linecap: round; stroke-width: 1; fill: rgb(67%,84%,90%); fill-rule: evenodd;"/>
			<polygon points="948.5268 241.5776, 950.4198 241.5776, 950.4198 251.8279, 966.8203 231.3273, 950.4198 210.8268, 950.4198 221.0771, 948.5268 221.0771" style="stroke: rgb(67%,84%,90%); stroke-linecap: round; stroke-width: 1; fill: rgb(67%,84%,90%); fill-rule: evenodd;"/>
			<polygon points="968.2275 241.5776, 984.8043 241.5776, 984.8043 251.8279, 1001.205 231.3273, 984.8043 210.8268, 984.8043 221.0771, 968.2275 221.0771" style="stroke: rgb(67%,84%,90%); stroke-linecap: round; stroke-width: 1; fill: rgb(67%,84%,90%); fill-rule: evenodd;"/>
			<polygon points="1002.306 241.5776, 1002.306 251.8279, 1013.625 231.3273, 1002.306 210.8268, 1002.306 221.0771" style="stroke: rgb(67%,84%,90%); stroke-linecap: round; stroke-width: 1; fill: rgb(67%,84%,90%); fill-rule: evenodd;"/>
			<polygon points="1017.418 241.5776, 1025.552 241.5776, 1025.552 251.8279, 1041.952 231.3273, 1025.552 210.8268, 1025.552 221.0771, 1017.418 221.0771" style="stroke: rgb(67%,84%,90%); stroke-linecap: round; stroke-width: 1; fill: rgb(67%,84%,90%); fill-rule: evenodd;"/>
			<polygon points="1061.408 241.5776, 1077.985 241.5776, 1077.985 251.8279, 1094.385 231.3273, 1077.985 210.8268, 1077.985 221.0771, 1061.408 221.0771" style="stroke: rgb(67%,84%,90%); stroke-linecap: round; stroke-width: 1; fill: rgb(67%,84%,90%); fill-rule: evenodd;"/>
			<polygon points="1095.487 241.5776, 1101.601 241.5776, 1101.601 251.8279, 1118.002 231.3273, 1101.601 210.8268, 1101.601 221.0771, 1095.487 221.0771" style="stroke: rgb(67%,84%,90%); stroke-linecap: round; stroke-width: 1; fill: rgb(67%,84%,90%); fill-rule: evenodd;"/>
			<polygon points="1119.164 241.5776, 1133.906 241.5776, 1133.906 251.8279, 1150.306 231.3273, 1133.906 210.8268, 1133.906 221.0771, 1119.164 221.0771" style="stroke: rgb(67%,84%,90%); stroke-linecap: round; stroke-width: 1; fill: rgb(67%,84%,90%); fill-rule: evenodd;"/>
			<polygon points="1151.101 241.5776, 1151.101 251.8279, 1162.237 231.3273, 1151.101 210.8268, 1151.101 221.0771" style="stroke: rgb(67%,84%,90%); stroke-linecap: round; stroke-width: 1; fill: rgb(67%,84%,90%); fill-rule: evenodd;"/>
			<polygon points="1163.95 241.5776, 1174.47 241.5776, 1174.47 251.8279, 1190.87 231.3273, 1174.47 210.8268, 1174.47 221.0771, 1163.95 221.0771" style="stroke: rgb(67%,84%,90%); stroke-linecap: round; stroke-width: 1; fill: rgb(67%,84%,90%); fill-rule: evenodd;"/>
			<polygon points="1190.992 241.5776, 1255.108 241.5776, 1255.108 251.8279, 1271.508 231.3273, 1255.108 210.8268, 1255.108 221.0771, 1190.992 221.0771" style="stroke: rgb(67%,84%,90%); stroke-linecap: round; stroke-width: 1; fill: rgb(67%,84%,90%); fill-rule: evenodd;"/>
			<polygon points="70.86614 528.5855, 98.0887 528.5855, 98.0887 538.8358, 114.4891 518.3352, 98.0887 497.8346, 98.0887 508.0849, 70.86614 508.0849" style="stroke: rgb(67%,84%,90%); stroke-linecap: round; stroke-width: 1; fill: rgb(67%,84%,90%); fill-rule: evenodd;"/>
			<polygon points="119.7508 528.5855, 140.9163 528.5855, 140.9163 538.8358, 157.3168 518.3352, 140.9163 497.8346, 140.9163 508.0849, 119.7508 508.0849" style="stroke: rgb(67%,84%,90%); stroke-linecap: round; stroke-width: 1; fill: rgb(67%,84%,90%); fill-rule: evenodd;"/>
			<polygon points="157.378 528.5855, 166.2458 528.5855, 166.2458 538.8358, 182.6463 518.3352, 166.2458 497.8346, 166.2458 508.0849, 157.378 508.0849" style="stroke: rgb(67%,84%,90%); stroke-linecap: round; stroke-width: 1; fill: rgb(67%,84%,90%); fill-rule: evenodd;"/>
			<polygon points="182.9522 528.5855, 195.8581 528.5855, 195.8581 538.8358, 212.2585 518.3352, 195.8581 497.8346, 195.8581 508.0849, 182.9522 508.0849" style="stroke: rgb(67%,84%,90%); stroke-linecap: round; stroke-width: 1; fill: rgb(67%,84%,90%); fill-rule: evenodd;"/>
			<polygon points="210.2395 528.5855, 258.0193 528.5855, 258.0193 538.8358, 274.4198 518.3352, 258.0193 497.8346, 258.0193 508.0849, 210.2395 508.0849" style="stroke: rgb(67%,84%,90%); stroke-linecap: round; stroke-width: 1; fill: rgb(67%,84%,90%); fill-rule: evenodd;"/>
			<polygon points="274.4198 528.5855, 279.8002 528.5855, 279.8002 538.8358, 296.2007 518.3352, 279.8002 497.8346, 279.8002 508.0849, 274.4198 508.0849" style="stroke: rgb(67%,84%,90%); stroke-linecap: round; stroke-width: 1; fill: rgb(67%,84%,90%); fill-rule: evenodd;"/>
			<polygon points="306.2958 528.5855, 334.6196 528.5855, 334.6196 538.8358, 351.0201 518.3352, 334.6196 497.8346, 334.6196 508.0849, 306.2958 508.0849" style="stroke: rgb(67%,84%,90%); stroke-linecap: round; stroke-width: 1; fill: rgb(67%,84%,90%); fill-rule: evenodd;"/>
			<polygon points="351.999 528.5855, 392.0698 528.5855, 392.0698 538.8358, 408.4703 518.3352, 392.0698 497.8346, 392.0698 508.0849, 351.999 508.0849" style="stroke: rgb(67%,84%,90%); stroke-linecap: round; stroke-width: 1; fill: rgb(67%,84%,90%); fill-rule: evenodd;"/>
			<polygon points="408.8374 528.5855, 446.7057 528.5855, 446.7057 538.8358, 463.1061 518.3352, 446.7057 497.8346, 446.7057 508.0849, 408.8374 508.0849" style="stroke: rgb(67%,84%,90%); stroke-linecap: round; stroke-width: 1; fill: rgb(67%,84%,90%); fill-rule: evenodd;"/>
			<polygon points="463.7791 528.5855, 506.2361 528.5855, 506.2361 538.8358, 522.6365 518.3352, 506.2361 497.8346, 506.2361 508.0849, 463.7791 508.0849" style="stroke: rgb(67%,84%,90%); stroke-linecap: round; stroke-width: 1; fill: rgb(67%,84%,90%); fill-rule: evenodd;"/>
			<polygon points="522.453 528.5855, 522.453 538.8358, 537.9933 518.3352, 522.453 497.8346, 522.453 508.0849" style="stroke: rgb(67%,84%,90%); stroke-linecap: round; stroke-width: 1; fill: rgb(67%,84%,90%); fill-rule: evenodd;"/>
			<polygon points="588.3464 487.5844, 558.9212 487.5844, 558.9212 497.8346, 542.5208 477.3341, 558.9212 456.8335, 558.9212 467.0838, 588.3464 467.0838" style="stroke: rgb(56%,93%,56%); stroke-linecap: round; stroke-width: 1; fill: rgb(56%,93%,56%); fill-rule: evenodd;"/>
			<polygon points="598.8085 528.5855, 646.4048 528.5855, 646.4048 538.8358, 662.8053 518.3352, 646.4048 497.8346, 646.4048 508.0849, 598.8085 508.0849" style="stroke: rgb(67%,84%,90%); stroke-linecap: round; stroke-width: 1; fill: rgb(67%,84%,90%); fill-rule: evenodd;"/>
			<polygon points="667.8222 528.5855, 667.8222 538.8358, 681.16 518.3352, 667.8222 497.8346, 667.8222 508.0849" style="stroke: rgb(67%,84%,90%); stroke-linecap: round; stroke-width: 1; fill: rgb(67%,84%,90%); fill-rule: evenodd;"/>
			<polygon points="689.6643 528.5855, 692.8422 528.5855, 692.8422 538.8358, 709.2426 518.3352, 692.8422 497.8346, 692.8422 508.0849, 689.6643 508.0849" style="stroke: rgb(67%,84%,90%); stroke-linecap: round; stroke-width: 1; fill: rgb(67%,84%,90%); fill-rule: evenodd;"/>
			<polygon points="712.73 528.5855, 734.9968 528.5855, 734.9968 538.8358, 751.3973 518.3352, 734.9968 497.8346, 734.9968 508.0849, 712.73 508.0849" style="stroke: rgb(67%,84%,90%); stroke-linecap: round; stroke-width: 1; fill: rgb(67%,84%,90%); fill-rule: evenodd;"/>
			<polygon points="752.8657 528.5855, 774.3983 528.5855, 774.3983 538.8358, 790.7987 518.3352, 774.3983 497.8346, 774.3983 508.0849, 752.8657 508.0849" style="stroke: rgb(67%,84%,90%); stroke-linecap: round; stroke-width: 1; fill: rgb(67%,84%,90%); fill-rule: evenodd;"/>
			<polygon points="790.7987 528.5855, 792.6918 528.5855, 792.6918 538.8358, 809.0922 518.3352, 792.6918 497.8346, 792.6918 508.0849, 790.7987 508.0849" style="stroke: rgb(67%,84%,90%); stroke-linecap: round; stroke-width: 1; fill: rgb(67%,84%,90%); fill-rule: evenodd;"/>
			<polygon points="813.6809 528.5855, 848.9795 528.5855, 848.9795 538.8358, 865.38 518.3352, 848.9795 497.8346, 848.9795 508.0849, 813.6809 508.0849" style="stroke: rgb(67%,84%,90%); stroke-linecap: round; stroke-width: 1; fill: rgb(67%,84%,90%); fill-rule: evenodd;"/>
			<polygon points="866.2977 528.5855, 867.0895 528.5855, 867.0895 538.8358, 883.4899 518.3352, 867.0895 497.8346, 867.0895 508.0849, 866.2977 508.0849" style="stroke: rgb(67%,84%,90%); stroke-linecap: round; stroke-width: 1; fill: rgb(67%,84%,90%); fill-rule: evenodd;"/>
			<polygon points="885.6313 528.5855, 893.0308 528.5855, 893.0308 538.8358, 909.4313 518.3352, 893.0308 497.8346, 893.0308 508.0849, 885.6313 508.0849" style="stroke: rgb(67%,84%,90%); stroke-linecap: round; stroke-width: 1; fill: rgb(67%,84%,90%); fill-rule: evenodd;"/>
			<polygon points="910.1654 528.5855, 933.9006 528.5855, 933.9006 538.8358, 950.3011 518.3352, 933.9006 497.8346, 933.9006 508.0849, 910.1654 508.0849" style="stroke: rgb(67%,84%,90%); stroke-linecap: round; stroke-width: 1; fill: rgb(67%,84%,90%); fill-rule: evenodd;"/>
			<polygon points="950.3011 528.5855, 960.6373 528.5855, 960.6373 538.8358, 977.0377 518.3352, 960.6373 497.8346, 960.6373 508.0849, 950.3011 508.0849" style="stroke: rgb(67%,84%,90%); stroke-linecap: round; stroke-width: 1; fill: rgb(67%,84%,90%); fill-rule: evenodd;"/>
			<polygon points="976.4259 528.5855, 976.4259 538.8358, 989.0295 518.3352, 976.4259 497.8346, 976.4259 508.0849" style="stroke: rgb(67%,84%,90%); stroke-linecap: round; stroke-width: 1; fill: rgb(67%,84%,90%); fill-rule: evenodd;"/>
			<polygon points="989.213 528.5855, 989.213 538.8358, 1004.753 518.3352, 989.213 497.8346, 989.213 508.0849" style="stroke: rgb(67%,84%,90%); stroke-linecap: round; stroke-width: 1; fill: rgb(67%,84%,90%); fill-rule: evenodd;"/>
			<polygon points="1007.078 528.5855, 1013.193 528.5855, 1013.193 538.8358, 1029.593 518.3352, 1013.193 497.8346, 1013.193 508.0849, 1007.078 508.0849" style="stroke: rgb(67%,84%,90%); stroke-linecap: round; stroke-width: 1; fill: rgb(67%,84%,90%); fill-rule: evenodd;"/>
			<polygon points="1030.266 528.5855, 1032.894 528.5855, 1032.894 538.8358, 1049.294 518.3352, 1032.894 497.8346, 1032.894 508.0849, 1030.266 508.0849" style="stroke: rgb(67%,84%,90%); stroke-linecap: round; stroke-width: 1; fill: rgb(67%,84%,90%); fill-rule: evenodd;"/>
			<polygon points="1050.701 528.5855, 1067.278 528.5855, 1067.278 538.8358, 1083.679 518.3352, 1067.278 497.8346, 1067.278 508.0849, 1050.701 508.0849" style="stroke: rgb(67%,84%,90%); stroke-linecap: round; stroke-width: 1; fill: rgb(67%,84%,90%); fill-rule: evenodd;"/>
			<polygon points="1084.963 528.5855, 1084.963 538.8358, 1096.282 518.3352, 1084.963 497.8346, 1084.963 508.0849" style="stroke: rgb(67%,84%,90%); stroke-linecap: round; stroke-width: 1; fill: rgb(67%,84%,90%); fill-rule: evenodd;"/>
			<polygon points="1101.85 528.5855, 1109.983 528.5855, 1109.983 538.8358, 1126.384 518.3352, 1109.983 497.8346, 1109.983 508.0849, 1101.85 508.0849" style="stroke: rgb(67%,84%,90%); stroke-linecap: round; stroke-width: 1; fill: rgb(67%,84%,90%); fill-rule: evenodd;"/>
			<polygon points="1131.768 528.5855, 1148.345 528.5855, 1148.345 538.8358, 1164.745 518.3352, 1148.345 497.8346, 1148.345 508.0849, 1131.768 508.0849" style="stroke: rgb(67%,84%,90%); stroke-linecap: round; stroke-width: 1; fill: rgb(67%,84%,90%); fill-rule: evenodd;"/>
			<polygon points="1165.846 528.5855, 1171.961 528.5855, 1171.961 538.8358, 1188.362 518.3352, 1171.961 497.8346, 1171.961 508.0849, 1165.846 508.0849" style="stroke: rgb(67%,84%,90%); stroke-linecap: round; stroke-width: 1; fill: rgb(67%,84%,90%); fill-rule: evenodd;"/>
			<polygon points="1189.585 528.5855, 1204.327 528.5855, 1204.327 538.8358, 1220.727 518.3352, 1204.327 497.8346, 1204.327 508.0849, 1189.585 508.0849" style="stroke: rgb(67%,84%,90%); stroke-linecap: round; stroke-width: 1; fill: rgb(67%,84%,90%); fill-rule: evenodd;"/>
			<polygon points="1221.584 528.5855, 1221.584 538.8358, 1232.719 518.3352, 1221.584 497.8346, 1221.584 508.0849" style="stroke: rgb(67%,84%,90%); stroke-linecap: round; stroke-width: 1; fill: rgb(67%,84%,90%); fill-rule: evenodd;"/>
			<polygon points="1235.472 528.5855, 1247.644 528.5855, 1247.644 538.8358, 1264.044 518.3352, 1247.644 497.8346, 1247.644 508.0849, 1235.472 508.0849" style="stroke: rgb(67%,84%,90%); stroke-linecap: round; stroke-width: 1; fill: rgb(67%,84%,90%); fill-rule: evenodd;"/>
			<polygon points="1264.044 528.5855, 1329.995 528.5855, 1329.995 538.8358, 1346.396 518.3352, 1329.995 497.8346, 1329.995 508.0849, 1264.044 508.0849" style="stroke: rgb(67%,84%,90%); stroke-linecap: round; stroke-width: 1; fill: rgb(67%,84%,90%); fill-rule: evenodd;"/>
			<path d="M 1271.50833,169.825647 L 1271.50833,251.827897 Z" style="stroke: rgb(0%,0%,0%); stroke-linecap: butt; stroke-width: 1;"/>
			<path d="M 70.866142,210.826772 L 1271.50833,210.826772 Z" style="stroke: rgb(0%,0%,0%); stroke-linecap: butt; stroke-width: 1;"/>
			<path d="M 70.866142,169.825647 L 70.866142,251.827897 Z" style="stroke: rgb(0%,0%,0%); stroke-linecap: butt; stroke-width: 1;"/>
			<path d="M 682.689515,210.826772 L 682.689515,231.327334 Z" style="stroke: rgb(0%,0%,0%); stroke-linecap: butt; stroke-width: 1;"/>
			<path d="M 682.689515,210.826772 L 682.689515,223.127109 Z" style="stroke: rgb(0%,0%,0%); stroke-linecap: butt; stroke-width: 1;"/>
			<path d="M 1346.395511,456.833521 L 1346.395511,538.835771 Z" style="stroke: rgb(0%,0%,0%); stroke-linecap: butt; stroke-width: 1;"/>
			<path d="M 70.866142,497.834646 L 1346.395511,497.834646 Z" style="stroke: rgb(0%,0%,0%); stroke-linecap: butt; stroke-width: 1;"/>
			<path d="M 70.866142,456.833521 L 70.866142,538.835771 Z" style="stroke: rgb(0%,0%,0%); stroke-linecap: butt; stroke-width: 1;"/>
			<path d="M 682.689515,497.834646 L 682.689515,518.335208 Z" style="stroke: rgb(0%,0%,0%); stroke-linecap: butt; stroke-width: 1;"/>
			<path d="M 1294.512889,497.834646 L 1294.512889,518.335208 Z" style="stroke: rgb(0%,0%,0%); stroke-linecap: butt; stroke-width: 1;"/>
			<path d="M 682.689515,497.834646 L 682.689515,510.134983 Z" style="stroke: rgb(0%,0%,0%); stroke-linecap: butt; stroke-width: 1;"/>
			<path d="M 1294.512889,497.834646 L 1294.512889,510.134983 Z" style="stroke: rgb(0%,0%,0%); stroke-linecap: butt; stroke-width: 1;"/>
			<g transform=" matrix(0.707107,0.707107,-0.707107,0.707107,682.689515,231.327334)">
				<text style="font-family: Helvetica; font-size: 6px;fill: rgb(0%,0%,0%); stroke:none;" transform="translate(0,0) scale(1,-1)" x="0" y="0">10000</text>
			</g>
			<g transform=" matrix(0.707107,0.707107,-0.707107,0.707107,682.689515,518.335208)">
				<text style="font-family: Helvetica; font-size: 6px;fill: rgb(0%,0%,0%); stroke:none;" transform="translate(0,0) scale(1,-1)" x="0" y="0">10000</text>
			</g>
			<g transform=" matrix(0.707107,0.707107,-0.707107,0.707107,1294.512889,518.335208)">
				<text style="font-family: Helvetica; font-size: 6px;fill: rgb(0%,0%,0%); stroke:none;" transform="translate(0,0) scale(1,-1)" x="0" y="0">20000</text>
			</g>
			<g transform=" matrix(0.707107,0.707107,-0.707107,0.707107,125.563151,251.827897)">
				<text style="font-family: Helvetica; font-size: 10px;fill: rgb(0%,0%,0%); stroke:none;" transform="translate(0,0) scale(1,-1)" x="0" y="0">Gene_00023</text>
			</g>
			<g transform=" matrix(0.707107,0.707107,-0.707107,0.707107,199.379641,251.827897)">
				<text style="font-family: Helvetica; font-size: 10px;fill: rgb(0%,0%,0%); stroke:none;" transform="translate(0,0) scale(1,-1)" x="0" y="0">Gene_00024</text>
			</g>
			<g transform=" matrix(0.707107,0.707107,-0.707107,0.707107,277.631851,251.827897)">
				<text style="font-family: Helvetica; font-size: 10px;fill: rgb(0%,0%,0%); stroke:none;" transform="translate(0,0) scale(1,-1)" x="0" y="0">Gene_00025</text>
			</g>
			<g transform=" matrix(0.707107,0.707107,-0.707107,0.707107,352.396667,251.827897)">
				<text style="font-family: Helvetica; font-size: 10px;fill: rgb(0%,0%,0%); stroke:none;" transform="translate(0,0) scale(1,-1)" x="0" y="0">Gene_00026</text>
			</g>
			<g transform=" matrix(0.707107,0.707107,-0.707107,0.707107,410.703434,251.827897)">
				<text style="font-family: Helvetica; font-size: 10px;fill: rgb(0%,0%,0%); stroke:none;" transform="translate(0,0) scale(1,-1)" x="0" y="0">Gene_00027</text>
			</g>
			<g transform=" matrix(0.707107,0.707107,-0.707107,0.707107,466.256997,251.827897)">
				<text style="font-family: Helvetica; font-size: 10px;fill: rgb(0%,0%,0%); stroke:none;" transform="translate(0,0) scale(1,-1)" x="0" y="0">Gene_00028</text>
			</g>
			<g transform=" matrix(0.707107,0.707107,-0.707107,0.707107,531.875054,251.827897)">
				<text style="font-family: Helvetica; font-size: 10px;fill: rgb(0%,0%,0%); stroke:none;" transform="translate(0,0) scale(1,-1)" x="0" y="0">Gene_00029</text>
			</g>
			<g transform=" matrix(0.707107,0.707107,-0.707107,0.707107,595.015226,251.827897)">
				<text style="font-family: Helvetica; font-size: 16px;fill: rgb(0%,0%,100%); stroke:none;" transform="translate(0,0) scale(1,-1)" x="0" y="0">Gene_00030 (85.7)</text>
			</g>
			<g transform=" matrix(0.707107,0.707107,-0.707107,0.707107,635.18143,251.827897)">
				<text style="font-family: Helvetica; font-size: 10px;fill: rgb(0%,0%,0%); stroke:none;" transform="translate(0,0) scale(1,-1)" x="0" y="0">Gene_00031</text>
			</g>
			<g transform=" matrix(0.707107,0.707107,-0.707107,0.707107,675.469999,251.827897)">
				<text style="font-family: Helvetica; font-size: 10px;fill: rgb(0%,0%,0%); stroke:none;" transform="translate(0,0) scale(1,-1)" x="0" y="0">Gene_00032</text>
			</g>
			<g transform=" matrix(0.707107,0.707107,-0.707107,0.707107,703.583283,251.827897)">
				<text style="font-family: Helvetica; font-size: 10px;fill: rgb(0%,0%,0%); stroke:none;" transform="translate(0,0) scale(1,-1)" x="0" y="0">Gene_00033</text>
			</g>
			<g transform=" matrix(0.707107,0.707107,-0.707107,0.707107,753.263341,251.827897)">
				<text style="font-family: Helvetica; font-size: 10px;fill: rgb(0%,0%,0%); stroke:none;" transform="translate(0,0) scale(1,-1)" x="0" y="0">Gene_00034</text>
			</g>
			<g transform=" matrix(0.707107,0.707107,-0.707107,0.707107,789.299738,251.827897)">
				<text style="font-family: Helvetica; font-size: 10px;fill: rgb(0%,0%,0%); stroke:none;" transform="translate(0,0) scale(1,-1)" x="0" y="0">Gene_00035</text>
			</g>
			<g transform=" matrix(0.707107,0.707107,-0.707107,0.707107,815.026911,251.827897)">
				<text style="font-family: Helvetica; font-size: 10px;fill: rgb(0%,0%,0%); stroke:none;" transform="translate(0,0) scale(1,-1)" x="0" y="0">Gene_00036</text>
			</g>
			<g transform=" matrix(0.707107,0.707107,-0.707107,0.707107,847.45355,251.827897)">
				<text style="font-family: Helvetica; font-size: 10px;fill: rgb(0%,0%,0%); stroke:none;" transform="translate(0,0) scale(1,-1)" x="0" y="0">Gene_00037</text>
			</g>
			<g transform=" matrix(0.707107,0.707107,-0.707107,0.707107,880.70615,251.827897)">
				<text style="font-family: Helvetica; font-size: 10px;fill: rgb(0%,0%,0%); stroke:none;" transform="translate(0,0) scale(1,-1)" x="0" y="0">Gene_00038</text>
			</g>
			<g transform=" matrix(0.707107,0.707107,-0.707107,0.707107,899.672674,251.827897)">
				<text style="font-family: Helvetica; font-size: 10px;fill: rgb(0%,0%,0%); stroke:none;" transform="translate(0,0) scale(1,-1)" x="0" y="0">Gene_00039</text>
			</g>
			<g transform=" matrix(0.707107,0.707107,-0.707107,0.707107,916.161314,251.827897)">
				<text style="font-family: Helvetica; font-size: 10px;fill: rgb(0%,0%,0%); stroke:none;" transform="translate(0,0) scale(1,-1)" x="0" y="0">Gene_00040</text>
			</g>
			<g transform=" matrix(0.707107,0.707107,-0.707107,0.707107,936.351486,251.827897)">
				<text style="font-family: Helvetica; font-size: 10px;fill: rgb(0%,0%,0%); stroke:none;" transform="translate(0,0) scale(1,-1)" x="0" y="0">Gene_00041</text>
			</g>
			<g transform=" matrix(0.707107,0.707107,-0.707107,0.707107,957.67353,251.827897)">
				<text style="font-family: Helvetica; font-size: 10px;fill: rgb(0%,0%,0%); stroke:none;" transform="translate(0,0) scale(1,-1)" x="0" y="0">Gene_00042</text>
			</g>
			<g transform=" matrix(0.707107,0.707107,-0.707107,0.707107,984.716123,251.827897)">
				<text style="font-family: Helvetica; font-size: 10px;fill: rgb(0%,0%,0%); stroke:none;" transform="translate(0,0) scale(1,-1)" x="0" y="0">Gene_00043</text>
			</g>
			<g transform=" matrix(0.707107,0.707107,-0.707107,0.707107,1007.965412,251.827897)">
				<text style="font-family: Helvetica; font-size: 10px;fill: rgb(0%,0%,0%); stroke:none;" transform="translate(0,0) scale(1,-1)" x="0" y="0">Gene_00044</text>
			</g>
			<g transform=" matrix(0.707107,0.707107,-0.707107,0.707107,1029.685141,251.827897)">
				<text style="font-family: Helvetica; font-size: 10px;fill: rgb(0%,0%,0%); stroke:none;" transform="translate(0,0) scale(1,-1)" x="0" y="0">Gene_00045</text>
			</g>
			<g transform=" matrix(0.707107,0.707107,-0.707107,0.707107,1077.896823,251.827897)">
				<text style="font-family: Helvetica; font-size: 10px;fill: rgb(0%,0%,0%); stroke:none;" transform="translate(0,0) scale(1,-1)" x="0" y="0">Gene_00046</text>
			</g>
			<g transform=" matrix(0.707107,0.707107,-0.707107,0.707107,1106.744295,251.827897)">
				<text style="font-family: Helvetica; font-size: 10px;fill: rgb(0%,0%,0%); stroke:none;" transform="translate(0,0) scale(1,-1)" x="0" y="0">Gene_00047</text>
			</g>
			<g transform=" matrix(0.707107,0.707107,-0.707107,0.707107,1134.735215,251.827897)">
				<text style="font-family: Helvetica; font-size: 10px;fill: rgb(0%,0%,0%); stroke:none;" transform="translate(0,0) scale(1,-1)" x="0" y="0">Gene_00048</text>
			</g>
			<g transform=" matrix(0.707107,0.707107,-0.707107,0.707107,1156.669082,251.827897)">
				<text style="font-family: Helvetica; font-size: 10px;fill: rgb(0%,0%,0%); stroke:none;" transform="translate(0,0) scale(1,-1)" x="0" y="0">Gene_00049</text>
			</g>
			<g transform=" matrix(0.707107,0.707107,-0.707107,0.707107,1177.409895,251.827897)">
				<text style="font-family: Helvetica; font-size: 10px;fill: rgb(0%,0%,0%); stroke:none;" transform="translate(0,0) scale(1,-1)" x="0" y="0">Gene_00050</text>
			</g>
			<g transform=" matrix(0.707107,0.707107,-0.707107,0.707107,1231.250352,251.827897)">
				<text style="font-family: Helvetica; font-size: 10px;fill: rgb(0%,0%,0%); stroke:none;" transform="translate(0,0) scale(1,-1)" x="0" y="0">Gene_00051</text>
			</g>
			<g transform=" matrix(0.707107,0.707107,-0.707107,0.707107,92.677645,538.835771)">
				<text style="font-family: Helvetica; font-size: 10px;fill: rgb(0%,0%,0%); stroke:none;" transform="translate(0,0) scale(1,-1)" x="0" y="0">Gene_00062</text>
			</g>
			<g transform=" matrix(0.707107,0.707107,-0.707107,0.707107,138.533807,538.835771)">
				<text style="font-family: Helvetica; font-size: 10px;fill: rgb(0%,0%,0%); stroke:none;" transform="translate(0,0) scale(1,-1)" x="0" y="0">Gene_00063</text>
			</g>
			<g transform=" matrix(0.707107,0.707107,-0.707107,0.707107,170.012119,538.835771)">
				<text style="font-family: Helvetica; font-size: 10px;fill: rgb(0%,0%,0%); stroke:none;" transform="translate(0,0) scale(1,-1)" x="0" y="0">Gene_00064</text>
			</g>
			<g transform=" matrix(0.707107,0.707107,-0.707107,0.707107,197.605354,538.835771)">
				<text style="font-family: Helvetica; font-size: 10px;fill: rgb(0%,0%,0%); stroke:none;" transform="translate(0,0) scale(1,-1)" x="0" y="0">Gene_00065</text>
			</g>
			<g transform=" matrix(0.707107,0.707107,-0.707107,0.707107,242.329642,538.835771)">
				<text style="font-family: Helvetica; font-size: 10px;fill: rgb(0%,0%,0%); stroke:none;" transform="translate(0,0) scale(1,-1)" x="0" y="0">Gene_00066</text>
			</g>
			<g transform=" matrix(0.707107,0.707107,-0.707107,0.707107,285.310234,538.835771)">
				<text style="font-family: Helvetica; font-size: 10px;fill: rgb(0%,0%,0%); stroke:none;" transform="translate(0,0) scale(1,-1)" x="0" y="0">Gene_00067</text>
			</g>
			<g transform=" matrix(0.707107,0.707107,-0.707107,0.707107,328.65792,538.835771)">
				<text style="font-family: Helvetica; font-size: 10px;fill: rgb(0%,0%,0%); stroke:none;" transform="translate(0,0) scale(1,-1)" x="0" y="0">Gene_00068</text>
			</g>
			<g transform=" matrix(0.707107,0.707107,-0.707107,0.707107,380.23463,538.835771)">
				<text style="font-family: Helvetica; font-size: 10px;fill: rgb(0%,0%,0%); stroke:none;" transform="translate(0,0) scale(1,-1)" x="0" y="0">Gene_00069</text>
			</g>
			<g transform=" matrix(0.707107,0.707107,-0.707107,0.707107,435.97174,538.835771)">
				<text style="font-family: Helvetica; font-size: 10px;fill: rgb(0%,0%,0%); stroke:none;" transform="translate(0,0) scale(1,-1)" x="0" y="0">Gene_00070</text>
			</g>
			<g transform=" matrix(0.707107,0.707107,-0.707107,0.707107,493.207816,538.835771)">
				<text style="font-family: Helvetica; font-size: 10px;fill: rgb(0%,0%,0%); stroke:none;" transform="translate(0,0) scale(1,-1)" x="0" y="0">Gene_00071</text>
			</g>
			<g transform=" matrix(0.707107,0.707107,-0.707107,0.707107,530.22313,538.835771)">
				<text style="font-family: Helvetica; font-size: 10px;fill: rgb(0%,0%,0%); stroke:none;" transform="translate(0,0) scale(1,-1)" x="0" y="0">Gene_00072</text>
			</g>
			<g transform=" matrix(0.707107,-0.707107,0.707107,0.707107,565.433566,456.833521)">
				<text style="font-family: Helvetica; font-size: 10px;fill: rgb(0%,0%,0%); stroke:none;" transform="translate(0,0) scale(1,-1)" x="0" y="0">Gene_00073</text>
			</g>
			<g transform=" matrix(0.707107,0.707107,-0.707107,0.707107,630.806893,538.835771)">
				<text style="font-family: Helvetica; font-size: 10px;fill: rgb(0%,0%,0%); stroke:none;" transform="translate(0,0) scale(1,-1)" x="0" y="0">Gene_00074</text>
			</g>
			<g transform=" matrix(0.707107,0.707107,-0.707107,0.707107,674.491082,538.835771)">
				<text style="font-family: Helvetica; font-size: 10px;fill: rgb(0%,0%,0%); stroke:none;" transform="translate(0,0) scale(1,-1)" x="0" y="0">Gene_00075</text>
			</g>
			<g transform=" matrix(0.707107,0.707107,-0.707107,0.707107,699.453476,538.835771)">
				<text style="font-family: Helvetica; font-size: 16px;fill: rgb(0%,0%,100%); stroke:none;" transform="translate(0,0) scale(1,-1)" x="0" y="0">Gene_00076 (85.7)</text>
			</g>
			<g transform=" matrix(0.707107,0.707107,-0.707107,0.707107,732.063661,538.835771)">
				<text style="font-family: Helvetica; font-size: 10px;fill: rgb(0%,0%,0%); stroke:none;" transform="translate(0,0) scale(1,-1)" x="0" y="0">Gene_00077</text>
			</g>
			<g transform=" matrix(0.707107,0.707107,-0.707107,0.707107,771.832181,538.835771)">
				<text style="font-family: Helvetica; font-size: 10px;fill: rgb(0%,0%,0%); stroke:none;" transform="translate(0,0) scale(1,-1)" x="0" y="0">Gene_00078</text>
			</g>
			<g transform=" matrix(0.707107,0.707107,-0.707107,0.707107,799.945465,538.835771)">
				<text style="font-family: Helvetica; font-size: 10px;fill: rgb(0%,0%,0%); stroke:none;" transform="translate(0,0) scale(1,-1)" x="0" y="0">Gene_00079</text>
			</g>
			<g transform=" matrix(0.707107,0.707107,-0.707107,0.707107,839.530437,538.835771)">
				<text style="font-family: Helvetica; font-size: 10px;fill: rgb(0%,0%,0%); stroke:none;" transform="translate(0,0) scale(1,-1)" x="0" y="0">Gene_00080</text>
			</g>
			<g transform=" matrix(0.707107,0.707107,-0.707107,0.707107,874.893828,538.835771)">
				<text style="font-family: Helvetica; font-size: 10px;fill: rgb(0%,0%,0%); stroke:none;" transform="translate(0,0) scale(1,-1)" x="0" y="0">Gene_00081</text>
			</g>
			<g transform=" matrix(0.707107,0.707107,-0.707107,0.707107,897.531293,538.835771)">
				<text style="font-family: Helvetica; font-size: 10px;fill: rgb(0%,0%,0%); stroke:none;" transform="translate(0,0) scale(1,-1)" x="0" y="0">Gene_00082</text>
			</g>
			<g transform=" matrix(0.707107,0.707107,-0.707107,0.707107,930.233252,538.835771)">
				<text style="font-family: Helvetica; font-size: 10px;fill: rgb(0%,0%,0%); stroke:none;" transform="translate(0,0) scale(1,-1)" x="0" y="0">Gene_00083</text>
			</g>
			<g transform=" matrix(0.707107,0.707107,-0.707107,0.707107,963.669399,538.835771)">
				<text style="font-family: Helvetica; font-size: 10px;fill: rgb(0%,0%,0%); stroke:none;" transform="translate(0,0) scale(1,-1)" x="0" y="0">Gene_00084</text>
			</g>
			<g transform=" matrix(0.707107,0.707107,-0.707107,0.707107,982.727697,538.835771)">
				<text style="font-family: Helvetica; font-size: 10px;fill: rgb(0%,0%,0%); stroke:none;" transform="translate(0,0) scale(1,-1)" x="0" y="0">Gene_00085</text>
			</g>
			<g transform=" matrix(0.707107,0.707107,-0.707107,0.707107,996.983182,538.835771)">
				<text style="font-family: Helvetica; font-size: 10px;fill: rgb(0%,0%,0%); stroke:none;" transform="translate(0,0) scale(1,-1)" x="0" y="0">Gene_00086</text>
			</g>
			<g transform=" matrix(0.707107,0.707107,-0.707107,0.707107,1018.335818,538.835771)">
				<text style="font-family: Helvetica; font-size: 10px;fill: rgb(0%,0%,0%); stroke:none;" transform="translate(0,0) scale(1,-1)" x="0" y="0">Gene_00087</text>
			</g>
			<g transform=" matrix(0.707107,0.707107,-0.707107,0.707107,1039.780227,538.835771)">
				<text style="font-family: Helvetica; font-size: 10px;fill: rgb(0%,0%,0%); stroke:none;" transform="translate(0,0) scale(1,-1)" x="0" y="0">Gene_00088</text>
			</g>
			<g transform=" matrix(0.707107,0.707107,-0.707107,0.707107,1067.189914,538.835771)">
				<text style="font-family: Helvetica; font-size: 10px;fill: rgb(0%,0%,0%); stroke:none;" transform="translate(0,0) scale(1,-1)" x="0" y="0">Gene_00089</text>
			</g>
			<g transform=" matrix(0.707107,0.707107,-0.707107,0.707107,1090.622749,538.835771)">
				<text style="font-family: Helvetica; font-size: 10px;fill: rgb(0%,0%,0%); stroke:none;" transform="translate(0,0) scale(1,-1)" x="0" y="0">Gene_00090</text>
			</g>
			<g transform=" matrix(0.707107,0.707107,-0.707107,0.707107,1114.116767,538.835771)">
				<text style="font-family: Helvetica; font-size: 10px;fill: rgb(0%,0%,0%); stroke:none;" transform="translate(0,0) scale(1,-1)" x="0" y="0">Gene_00091</text>
			</g>
			<g transform=" matrix(0.707107,0.707107,-0.707107,0.707107,1148.256511,538.835771)">
				<text style="font-family: Helvetica; font-size: 10px;fill: rgb(0%,0%,0%); stroke:none;" transform="translate(0,0) scale(1,-1)" x="0" y="0">Gene_00092</text>
			</g>
			<g transform=" matrix(0.707107,0.707107,-0.707107,0.707107,1177.103983,538.835771)">
				<text style="font-family: Helvetica; font-size: 10px;fill: rgb(0%,0%,0%); stroke:none;" transform="translate(0,0) scale(1,-1)" x="0" y="0">Gene_00093</text>
			</g>
			<g transform=" matrix(0.707107,0.707107,-0.707107,0.707107,1205.156085,538.835771)">
				<text style="font-family: Helvetica; font-size: 10px;fill: rgb(0%,0%,0%); stroke:none;" transform="translate(0,0) scale(1,-1)" x="0" y="0">Gene_00094</text>
			</g>
			<g transform=" matrix(0.707107,0.707107,-0.707107,0.707107,1227.151135,538.835771)">
				<text style="font-family: Helvetica; font-size: 10px;fill: rgb(0%,0%,0%); stroke:none;" transform="translate(0,0) scale(1,-1)" x="0" y="0">Gene_00095</text>
			</g>
			<g transform=" matrix(0.707107,0.707107,-0.707107,0.707107,1249.758009,538.835771)">
				<text style="font-family: Helvetica; font-size: 10px;fill: rgb(0%,0%,0%); stroke:none;" transform="translate(0,0) scale(1,-1)" x="0" y="0">Gene_00096</text>
			</g>
			<g transform=" matrix(0.707107,0.707107,-0.707107,0.707107,1305.219798,538.835771)">
				<text style="font-family: Helvetica; font-size: 10px;fill: rgb(0%,0%,0%); stroke:none;" transform="translate(0,0) scale(1,-1)" x="0" y="0">Gene_00097</text>
			</g>
			<g transform=" matrix(1,0,-0,1,70,169.825647)">
				<text style="font-family: Helvetica; font-size: 12px;fill: rgb(60%,60%,60%); stroke:none;" transform="translate(0,0) scale(1,-1)" x="0" y="0">megahit_2896 (left 8371bp, right 25073bp)</text>
			</g>
			<g transform=" matrix(1,0,-0,1,70,456.833521)">
				<text style="font-family: Helvetica; font-size: 12px;fill: rgb(60%,60%,60%); stroke:none;" transform="translate(0,0) scale(1,-1)" x="0" y="0">megahit_22140 (left 65618bp, right 73408bp)</text>
			</g>
		</g>
	</g>
</svg>
