<?xml version="1.0" encoding="utf-8"?>
<!DOCTYPE svg
  PUBLIC '-//W3C//DTD SVG 1.0//EN'
  'http://www.w3.org/TR/2001/REC-SVG-20010904/DTD/svg10.dtd'>
<svg fill-rule="evenodd" height="708.6614173228346" preserveAspectRatio="xMinYMin meet" version="1.0" viewBox="0 0 1417 708" width="1417.3228346456692" xmlns="http://www.w3.org/2000/svg" xmlns:xlink="http://www.w3.org/1999/xlink">
	<title>...</title>
	<desc>...</desc>
	<clipPath id="clip">
		<rect height="708.6614173228346" width="1417.3228346456692" x="0" y="0"/>
	</clipPath>
	<g id="group" style="clip-path: url(#clip)" transform="scale(1,-1) translate(0,-708)">
		<g transform="">
			<polygon points="70.86614 169.8256, 1346.403 169.8256, 1346.403 251.8279, 70.86614 251.8279" style="stroke: rgb(96%,96%,96%); stroke-linecap: butt; stroke-width: 1; fill: rgb(96%,96%,96%); fill-rule: evenodd;"/>
			<polygon points="70.86614 456.8335, 1206.055 456.8335, 1206.055 538.8358, 70.86614 538.8358" style="stroke: rgb(96%,96%,96%); stroke-linecap: butt; stroke-width: 1; fill: rgb(96%,96%,96%); fill-rule: evenodd;"/>
			<polygon points="489.5997 456.8335, 629.3029 456.8335, 694.9919 251.8279, 834.8025 251.8279" style="stroke: rgb(100%,44%,44%); stroke-linecap: round; stroke-width: 1; fill: rgb(100%,44%,44%); fill-rule: evenodd;"/>
			<polygon points="787.5902 456.8335, 903.0696 456.8335, 422.6217 251.8279, 539.0142 251.8279" style="stroke: rgb(100%,43%,43%); stroke-linecap: round; stroke-width: 1; fill: rgb(100%,43%,43%); fill-rule: evenodd;"/>
			<polygon points="947.3277 456.8335, 1073.979 456.8335, 259.1244 251.8279, 383.5198 251.8279" style="stroke: rgb(100%,57%,57%); stroke-linecap: round; stroke-width: 1; fill: rgb(100%,57%,57%); fill-rule: evenodd;"/>
			<polygon points="202.2441 456.8335, 242.259 456.8335, 1201.705 251.8279, 1241.72 251.8279" style="stroke: rgb(100%,48%,48%); stroke-linecap: round; stroke-width: 1; fill: rgb(100%,48%,48%); fill-rule: evenodd;"/>
			<polygon points="431.5378 456.8335, 486.1622 456.8335, 847.4784 251.8279, 902.1028 251.8279" style="stroke: rgb(100%,62%,62%); stroke-linecap: round; stroke-width: 1; fill: rgb(100%,62%,62%); fill-rule: evenodd;"/>
			<polygon points="700.9001 456.8335, 771.2083 456.8335, 553.2477 251.8279, 623.6632 251.8279" style="stroke: rgb(100%,72%,72%); stroke-linecap: round; stroke-width: 1; fill: rgb(100%,72%,72%); fill-rule: evenodd;"/>
			<polygon points="105.2951 456.8335, 141.7114 456.8335, 1305.206 251.8279, 1342.106 251.8279" style="stroke: rgb(100%,69%,69%); stroke-linecap: round; stroke-width: 1; fill: rgb(100%,69%,69%); fill-rule: evenodd;"/>
			<polygon points="70.86614 241.5776, 153.1871 241.5776, 153.1871 251.8279, 169.5876 231.3273, 153.1871 210.8268, 153.1871 221.0771, 70.86614 221.0771" style="stroke: rgb(67%,84%,90%); stroke-linecap: round; stroke-width: 1; fill: rgb(67%,84%,90%); fill-rule: evenodd;"/>
			<polygon points="174.2068 241.5776, 234.4524 241.5776, 234.4524 251.8279, 250.8528 231.3273, 234.4524 210.8268, 234.4524 221.0771, 174.2068 221.0771" style="stroke: rgb(67%,84%,90%); stroke-linecap: round; stroke-width: 1; fill: rgb(67%,84%,90%); fill-rule: evenodd;"/>
			<polygon points="254.9349 241.5776, 266.8403 241.5776, 266.8403 251.8279, 283.2408 231.3273, 266.8403 210.8268, 266.8403 221.0771, 254.9349 221.0771" style="stroke: rgb(67%,84%,90%); stroke-linecap: round; stroke-width: 1; fill: rgb(67%,84%,90%); fill-rule: evenodd;"/>
			<polygon points="284.5836 241.5776, 331.9385 241.5776, 331.9385 251.8279, 348.3389 231.3273, 331.9385 210.8268, 331.9385 221.0771, 284.5836 221.0771" style="stroke: rgb(67%,84%,90%); stroke-linecap: round; stroke-width: 1; fill: rgb(67%,84%,90%); fill-rule: evenodd;"/>
			<polygon points="345.0625 241.5776, 345.0625 251.8279, 359.9943 231.3273, 345.0625 210.8268, 345.0625 221.0771" style="stroke: rgb(67%,84%,90%); stroke-linecap: round; stroke-width: 1; fill: rgb(67%,84%,90%); fill-rule: evenodd;"/>
			<polygon points="359.296 241.5776, 360.2443 241.5776, 360.2443 251.8279, 376.6448 231.3273, 360.2443 210.8268, 360.2443 221.0771, 359.296 221.0771" style="stroke: rgb(67%,84%,90%); stroke-linecap: round; stroke-width: 1; fill: rgb(67%,84%,90%); fill-rule: evenodd;"/>
			<polygon points="377.8264 241.5776, 503.3313 241.5776, 503.3313 251.8279, 519.7318 231.3273, 503.3313 210.8268, 503.3313 221.0771, 377.8264 221.0771" style="stroke: rgb(67%,84%,90%); stroke-linecap: round; stroke-width: 1; fill: rgb(67%,84%,90%); fill-rule: evenodd;"/>
			<polygon points="521.6117 241.5776, 525.7827 241.5776, 525.7827 251.8279, 542.1831 231.3273, 525.7827 210.8268, 525.7827 221.0771, 521.6117 221.0771" style="stroke: rgb(67%,84%,90%); stroke-linecap: round; stroke-width: 1; fill: rgb(67%,84%,90%); fill-rule: evenodd;"/>
			<polygon points="541.3237 241.5776, 576.1102 241.5776, 576.1102 251.8279, 592.5107 231.3273, 576.1102 210.8268, 576.1102 221.0771, 541.3237 221.0771" style="stroke: rgb(67%,84%,90%); stroke-linecap: round; stroke-width: 1; fill: rgb(67%,84%,90%); fill-rule: evenodd;"/>
			<polygon points="593.1552 241.5776, 625.6858 241.5776, 625.6858 251.8279, 642.0862 231.3273, 625.6858 210.8268, 625.6858 221.0771, 593.1552 221.0771" style="stroke: rgb(67%,84%,90%); stroke-linecap: round; stroke-width: 1; fill: rgb(67%,84%,90%); fill-rule: evenodd;"/>
			<polygon points="641.9251 241.5776, 675.2613 241.5776, 675.2613 251.8279, 691.6618 231.3273, 675.2613 210.8268, 675.2613 221.0771, 641.9251 221.0771" style="stroke: rgb(67%,84%,90%); stroke-linecap: round; stroke-width: 1; fill: rgb(67%,84%,90%); fill-rule: evenodd;"/>
			<polygon points="698.8591 241.5776, 698.8591 251.8279, 713.1463 231.3273, 698.8591 210.8268, 698.8591 221.0771" style="stroke: rgb(67%,84%,90%); stroke-linecap: round; stroke-width: 1; fill: rgb(67%,84%,90%); fill-rule: evenodd;"/>
			<polygon points="721.955 241.5776, 818.1335 241.5776, 818.1335 251.8279, 834.5339 231.3273, 818.1335 210.8268, 818.1335 221.0771, 721.955 221.0771" style="stroke: rgb(67%,84%,90%); stroke-linecap: round; stroke-width: 1; fill: rgb(67%,84%,90%); fill-rule: evenodd;"/>
			<polygon points="847.4784 241.5776, 857.6113 241.5776, 857.6113 251.8279, 874.0118 231.3273, 857.6113 210.8268, 857.6113 221.0771, 847.4784 221.0771" style="stroke: rgb(67%,84%,90%); stroke-linecap: round; stroke-width: 1; fill: rgb(67%,84%,90%); fill-rule: evenodd;"/>
			<polygon points="874.71 241.5776, 885.8098 241.5776, 885.8098 251.8279, 902.2102 231.3273, 885.8098 210.8268, 885.8098 221.0771, 874.71 221.0771" style="stroke: rgb(67%,84%,90%); stroke-linecap: round; stroke-width: 1; fill: rgb(67%,84%,90%); fill-rule: evenodd;"/>
			<polygon points="911.1263 241.5776, 914.8139 241.5776, 914.8139 251.8279, 931.2143 231.3273, 914.8139 210.8268, 914.8139 221.0771, 911.1263 221.0771" style="stroke: rgb(67%,84%,90%); stroke-linecap: round; stroke-width: 1; fill: rgb(67%,84%,90%); fill-rule: evenodd;"/>
			<polygon points="931.4829 241.5776, 959.3406 241.5776, 959.3406 251.8279, 975.741 231.3273, 959.3406 210.8268, 959.3406 221.0771, 931.4829 221.0771" style="stroke: rgb(67%,84%,90%); stroke-linecap: round; stroke-width: 1; fill: rgb(67%,84%,90%); fill-rule: evenodd;"/>
			<polygon points="975.741 241.5776, 995.542 241.5776, 995.542 251.8279, 1011.942 231.3273, 995.542 210.8268, 995.542 221.0771, 975.741 221.0771" style="stroke: rgb(67%,84%,90%); stroke-linecap: round; stroke-width: 1; fill: rgb(67%,84%,90%); fill-rule: evenodd;"/>
			<polygon points="1045.458 200.5765, 1042.093 200.5765, 1042.093 210.8268, 1025.693 190.3262, 1042.093 169.8256, 1042.093 180.0759, 1045.458 180.0759" style="stroke: rgb(56%,93%,56%); stroke-linecap: round; stroke-width: 1; fill: rgb(56%,93%,56%); fill-rule: evenodd;"/>
			<polygon points="1054.858 241.5776, 1095.606 241.5776, 1095.606 251.8279, 1112.007 231.3273, 1095.606 210.8268, 1095.606 221.0771, 1054.858 221.0771" style="stroke: rgb(67%,84%,90%); stroke-linecap: round; stroke-width: 1; fill: rgb(67%,84%,90%); fill-rule: evenodd;"/>
			<polygon points="1119.097 241.5776, 1180.954 241.5776, 1180.954 251.8279, 1197.354 231.3273, 1180.954 210.8268, 1180.954 221.0771, 1119.097 221.0771" style="stroke: rgb(67%,84%,90%); stroke-linecap: round; stroke-width: 1; fill: rgb(67%,84%,90%); fill-rule: evenodd;"/>
			<polygon points="1199.126 241.5776, 1225.856 241.5776, 1225.856 251.8279, 1242.257 231.3273, 1225.856 210.8268, 1225.856 221.0771, 1199.126 221.0771" style="stroke: rgb(67%,84%,90%); stroke-linecap: round; stroke-width: 1; fill: rgb(67%,84%,90%); fill-rule: evenodd;"/>
			<polygon points="1244.781 241.5776, 1330.003 241.5776, 1330.003 251.8279, 1346.403 231.3273, 1330.003 210.8268, 1330.003 221.0771, 1244.781 221.0771" style="stroke: rgb(67%,84%,90%); stroke-linecap: round; stroke-width: 1; fill: rgb(67%,84%,90%); fill-rule: evenodd;"/>
			<polygon points="99.81655 487.5844, 87.26659 487.5844, 87.26659 497.8346, 70.86614 477.3341, 87.26659 456.8335, 87.26659 467.0838, 99.81655 467.0838" style="stroke: rgb(56%,93%,56%); stroke-linecap: round; stroke-width: 1; fill: rgb(56%,93%,56%); fill-rule: evenodd;"/>
			<polygon points="200.6864 487.5844, 117.0764 487.5844, 117.0764 497.8346, 100.6759 477.3341, 117.0764 456.8335, 117.0764 467.0838, 200.6864 467.0838" style="stroke: rgb(56%,93%,56%); stroke-linecap: round; stroke-width: 1; fill: rgb(56%,93%,56%); fill-rule: evenodd;"/>
			<polygon points="242.259 487.5844, 218.1074 487.5844, 218.1074 497.8346, 201.707 477.3341, 218.1074 456.8335, 218.1074 467.0838, 242.259 467.0838" style="stroke: rgb(56%,93%,56%); stroke-linecap: round; stroke-width: 1; fill: rgb(56%,93%,56%); fill-rule: evenodd;"/>
			<polygon points="326.8007 487.5844, 258.4983 487.5844, 258.4983 497.8346, 242.0979 477.3341, 258.4983 456.8335, 258.4983 467.0838, 326.8007 467.0838" style="stroke: rgb(56%,93%,56%); stroke-linecap: round; stroke-width: 1; fill: rgb(56%,93%,56%); fill-rule: evenodd;"/>
			<polygon points="335.3945 528.5855, 340.0489 528.5855, 340.0489 538.8358, 356.4493 518.3352, 340.0489 497.8346, 340.0489 508.0849, 335.3945 508.0849" style="stroke: rgb(67%,84%,90%); stroke-linecap: round; stroke-width: 1; fill: rgb(67%,84%,90%); fill-rule: evenodd;"/>
			<polygon points="426.0592 487.5844, 378.5432 487.5844, 378.5432 497.8346, 362.1427 477.3341, 378.5432 456.8335, 378.5432 467.0838, 426.0592 467.0838" style="stroke: rgb(56%,93%,56%); stroke-linecap: round; stroke-width: 1; fill: rgb(56%,93%,56%); fill-rule: evenodd;"/>
			<polygon points="459.0917 487.5844, 447.8308 487.5844, 447.8308 497.8346, 431.4303 477.3341, 447.8308 456.8335, 447.8308 467.0838, 459.0917 467.0838" style="stroke: rgb(56%,93%,56%); stroke-linecap: round; stroke-width: 1; fill: rgb(56%,93%,56%); fill-rule: evenodd;"/>
			<polygon points="486.1622 487.5844, 476.1904 487.5844, 476.1904 497.8346, 459.7899 477.3341, 476.1904 456.8335, 476.1904 467.0838, 486.1622 467.0838" style="stroke: rgb(56%,93%,56%); stroke-linecap: round; stroke-width: 1; fill: rgb(56%,93%,56%); fill-rule: evenodd;"/>
			<polygon points="602.2861 487.5844, 506.1076 487.5844, 506.1076 497.8346, 489.7072 477.3341, 506.1076 456.8335, 506.1076 467.0838, 602.2861 467.0838" style="stroke: rgb(56%,93%,56%); stroke-linecap: round; stroke-width: 1; fill: rgb(56%,93%,56%); fill-rule: evenodd;"/>
			<polygon points="625.2746 487.5844, 625.2746 497.8346, 610.9874 477.3341, 625.2746 456.8335, 625.2746 467.0838" style="stroke: rgb(56%,93%,56%); stroke-linecap: round; stroke-width: 1; fill: rgb(56%,93%,56%); fill-rule: evenodd;"/>
			<polygon points="682.9068 487.5844, 649.0872 487.5844, 649.0872 497.8346, 632.6867 477.3341, 649.0872 456.8335, 649.0872 467.0838, 682.9068 467.0838" style="stroke: rgb(56%,93%,56%); stroke-linecap: round; stroke-width: 1; fill: rgb(56%,93%,56%); fill-rule: evenodd;"/>
			<polygon points="731.4082 487.5844, 700.3278 487.5844, 700.3278 497.8346, 683.9273 477.3341, 700.3278 456.8335, 700.3278 467.0838, 731.4082 467.0838" style="stroke: rgb(56%,93%,56%); stroke-linecap: round; stroke-width: 1; fill: rgb(56%,93%,56%); fill-rule: evenodd;"/>
			<polygon points="782.9711 487.5844, 748.0235 487.5844, 748.0235 497.8346, 731.623 477.3341, 748.0235 456.8335, 748.0235 467.0838, 782.9711 467.0838" style="stroke: rgb(56%,93%,56%); stroke-linecap: round; stroke-width: 1; fill: rgb(56%,93%,56%); fill-rule: evenodd;"/>
			<polygon points="804.9927 487.5844, 800.016 487.5844, 800.016 497.8346, 783.6156 477.3341, 800.016 456.8335, 800.016 467.0838, 804.9927 467.0838" style="stroke: rgb(56%,93%,56%); stroke-linecap: round; stroke-width: 1; fill: rgb(56%,93%,56%); fill-rule: evenodd;"/>
			<polygon points="953.0211 487.5844, 822.1988 487.5844, 822.1988 497.8346, 805.7984 477.3341, 822.1988 456.8335, 822.1988 467.0838, 953.0211 467.0838" style="stroke: rgb(56%,93%,56%); stroke-linecap: round; stroke-width: 1; fill: rgb(56%,93%,56%); fill-rule: evenodd;"/>
			<polygon points="971.2293 487.5844, 970.6032 487.5844, 970.6032 497.8346, 954.2028 477.3341, 970.6032 456.8335, 970.6032 467.0838, 971.2293 467.0838" style="stroke: rgb(56%,93%,56%); stroke-linecap: round; stroke-width: 1; fill: rgb(56%,93%,56%); fill-rule: evenodd;"/>
			<polygon points="984.1737 487.5844, 984.1737 497.8346, 970.3699 477.3341, 984.1737 456.8335, 984.1737 467.0838" style="stroke: rgb(56%,93%,56%); stroke-linecap: round; stroke-width: 1; fill: rgb(56%,93%,56%); fill-rule: evenodd;"/>
			<polygon points="1048.681 487.5844, 1001.004 487.5844, 1001.004 497.8346, 984.6034 477.3341, 1001.004 456.8335, 1001.004 467.0838, 1048.681 467.0838" style="stroke: rgb(56%,93%,56%); stroke-linecap: round; stroke-width: 1; fill: rgb(56%,93%,56%); fill-rule: evenodd;"/>
			<polygon points="1074.946 487.5844, 1066.263 487.5844, 1066.263 497.8346, 1049.863 477.3341, 1066.263 456.8335, 1066.263 467.0838, 1074.946 467.0838" style="stroke: rgb(56%,93%,56%); stroke-linecap: round; stroke-width: 1; fill: rgb(56%,93%,56%); fill-rule: evenodd;"/>
			<polygon points="1206.055 487.5844, 1101.659 487.5844, 1101.659 497.8346, 1085.258 477.3341, 1101.659 456.8335, 1101.659 467.0838, 1206.055 467.0838" style="stroke: rgb(56%,93%,56%); stroke-linecap: round; stroke-width: 1; fill: rgb(56%,93%,56%); fill-rule: evenodd;"/>
			<path d="M 1346.402982,169.825647 L 1346.402982,251.827897 Z" style="stroke: rgb(0%,0%,0%); stroke-linecap: butt; stroke-width: 1;"/>
			<path d="M 70.866142,210.826772 L 1346.402982,210.826772 Z" style="stroke: rgb(0%,0%,0%); stroke-linecap: butt; stroke-width: 1;"/>
			<path d="M 70.866142,169.825647 L 70.866142,251.827897 Z" style="stroke: rgb(0%,0%,0%); stroke-linecap: butt; stroke-width: 1;"/>
			<path d="M 607.979515,210.826772 L 607.979515,231.327334 Z" style="stroke: rgb(0%,0%,0%); stroke-linecap: butt; stroke-width: 1;"/>
			<path d="M 1145.092889,210.826772 L 1145.092889,231.327334 Z" style="stroke: rgb(0%,0%,0%); stroke-linecap: butt; stroke-width: 1;"/>
			<path d="M 607.979515,210.826772 L 607.979515,223.127109 Z" style="stroke: rgb(0%,0%,0%); stroke-linecap: butt; stroke-width: 1;"/>
			<path d="M 1145.092889,210.826772 L 1145.092889,223.127109 Z" style="stroke: rgb(0%,0%,0%); stroke-linecap: butt; stroke-width: 1;"/>
			<path d="M 1206.055257,456.833521 L 1206.055257,538.835771 Z" style="stroke: rgb(0%,0%,0%); stroke-linecap: butt; stroke-width: 1;"/>
			<path d="M 70.866142,497.834646 L 1206.055257,497.834646 Z" style="stroke: rgb(0%,0%,0%); stroke-linecap: butt; stroke-width: 1;"/>
			<path d="M 70.866142,456.833521 L 70.866142,538.835771 Z" style="stroke: rgb(0%,0%,0%); stroke-linecap: butt; stroke-width: 1;"/>
			<path d="M 607.979515,497.834646 L 607.979515,518.335208 Z" style="stroke: rgb(0%,0%,0%); stroke-linecap: butt; stroke-width: 1;"/>
			<path d="M 1145.092889,497.834646 L 1145.092889,518.335208 Z" style="stroke: rgb(0%,0%,0%); stroke-linecap: butt; stroke-width: 1;"/>
			<path d="M 607.979515,497.834646 L 607.979515,510.134983 Z" style="stroke: rgb(0%,0%,0%); stroke-linecap: butt; stroke-width: 1;"/>
			<path d="M 1145.092889,497.834646 L 1145.092889,510.134983 Z" style="stroke: rgb(0%,0%,0%); stroke-linecap: butt; stroke-width: 1;"/>
			<g transform=" matrix(0.707107,0.707107,-0.707107,0.707107,607.979515,231.327334)">
				<text style="font-family: Helvetica; font-size: 6px;fill: rgb(0%,0%,0%); stroke:none;" transform="translate(0,0) scale(1,-1)" x="0" y="0">10000</text>
			</g>
			<g transform=" matrix(0.707107,0.707107,-0.707107,0.707107,1145.092889,231.327334)">
				<text style="font-family: Helvetica; font-size: 6px;fill: rgb(0%,0%,0%); stroke:none;" transform="translate(0,0) scale(1,-1)" x="0" y="0">20000</text>
			</g>
			<g transform=" matrix(0.707107,0.707107,-0.707107,0.707107,607.979515,518.335208)">
				<text style="font-family: Helvetica; font-size: 6px;fill: rgb(0%,0%,0%); stroke:none;" transform="translate(0,0) scale(1,-1)" x="0" y="0">10000</text>
			</g>
			<g transform=" matrix(0.707107,0.707107,-0.707107,0.707107,1145.092889,518.335208)">
				<text style="font-family: Helvetica; font-size: 6px;fill: rgb(0%,0%,0%); stroke:none;" transform="translate(0,0) scale(1,-1)" x="0" y="0">20000</text>
			</g>
			<g transform=" matrix(0.707107,0.707107,-0.707107,0.707107,120.226861,251.827897)">
				<text style="font-family: Helvetica; font-size: 10px;fill: rgb(0%,0%,0%); stroke:none;" transform="translate(0,0) scale(1,-1)" x="0" y="0">Gene_00885</text>
			</g>
			<g transform=" matrix(0.707107,0.707107,-0.707107,0.707107,212.529794,251.827897)">
				<text style="font-family: Helvetica; font-size: 10px;fill: rgb(0%,0%,0%); stroke:none;" transform="translate(0,0) scale(1,-1)" x="0" y="0">Gene_00886</text>
			</g>
			<g transform=" matrix(0.707107,0.707107,-0.707107,0.707107,269.087832,251.827897)">
				<text style="font-family: Helvetica; font-size: 10px;fill: rgb(0%,0%,0%); stroke:none;" transform="translate(0,0) scale(1,-1)" x="0" y="0">Gene_00887</text>
			</g>
			<g transform=" matrix(0.707107,0.707107,-0.707107,0.707107,316.461232,251.827897)">
				<text style="font-family: Helvetica; font-size: 10px;fill: rgb(0%,0%,0%); stroke:none;" transform="translate(0,0) scale(1,-1)" x="0" y="0">Gene_00888</text>
			</g>
			<g transform=" matrix(0.707107,0.707107,-0.707107,0.707107,352.528395,251.827897)">
				<text style="font-family: Helvetica; font-size: 10px;fill: rgb(0%,0%,0%); stroke:none;" transform="translate(0,0) scale(1,-1)" x="0" y="0">Gene_00889</text>
			</g>
			<g transform=" matrix(0.707107,0.707107,-0.707107,0.707107,367.970404,251.827897)">
				<text style="font-family: Helvetica; font-size: 10px;fill: rgb(0%,0%,0%); stroke:none;" transform="translate(0,0) scale(1,-1)" x="0" y="0">Gene_00890</text>
			</g>
			<g transform=" matrix(0.707107,0.707107,-0.707107,0.707107,448.779111,251.827897)">
				<text style="font-family: Helvetica; font-size: 10px;fill: rgb(0%,0%,0%); stroke:none;" transform="translate(0,0) scale(1,-1)" x="0" y="0">Gene_00891</text>
			</g>
			<g transform=" matrix(0.707107,0.707107,-0.707107,0.707107,531.897406,251.827897)">
				<text style="font-family: Helvetica; font-size: 10px;fill: rgb(0%,0%,0%); stroke:none;" transform="translate(0,0) scale(1,-1)" x="0" y="0">Gene_00892</text>
			</g>
			<g transform=" matrix(0.707107,0.707107,-0.707107,0.707107,566.917198,251.827897)">
				<text style="font-family: Helvetica; font-size: 10px;fill: rgb(0%,0%,0%); stroke:none;" transform="translate(0,0) scale(1,-1)" x="0" y="0">Gene_00893</text>
			</g>
			<g transform=" matrix(0.707107,0.707107,-0.707107,0.707107,617.6207,251.827897)">
				<text style="font-family: Helvetica; font-size: 10px;fill: rgb(0%,0%,0%); stroke:none;" transform="translate(0,0) scale(1,-1)" x="0" y="0">Gene_00894</text>
			</g>
			<g transform=" matrix(0.707107,0.707107,-0.707107,0.707107,666.79343,251.827897)">
				<text style="font-family: Helvetica; font-size: 10px;fill: rgb(0%,0%,0%); stroke:none;" transform="translate(0,0) scale(1,-1)" x="0" y="0">Gene_00895</text>
			</g>
			<g transform=" matrix(0.707107,0.707107,-0.707107,0.707107,706.002706,251.827897)">
				<text style="font-family: Helvetica; font-size: 16px;fill: rgb(0%,0%,100%); stroke:none;" transform="translate(0,0) scale(1,-1)" x="0" y="0">Gene_00896 (83.5)</text>
			</g>
			<g transform=" matrix(0.707107,0.707107,-0.707107,0.707107,778.244455,251.827897)">
				<text style="font-family: Helvetica; font-size: 10px;fill: rgb(0%,0%,0%); stroke:none;" transform="translate(0,0) scale(1,-1)" x="0" y="0">Gene_00897</text>
			</g>
			<g transform=" matrix(0.707107,0.707107,-0.707107,0.707107,860.745069,251.827897)">
				<text style="font-family: Helvetica; font-size: 10px;fill: rgb(0%,0%,0%); stroke:none;" transform="translate(0,0) scale(1,-1)" x="0" y="0">Gene_00898</text>
			</g>
			<g transform=" matrix(0.707107,0.707107,-0.707107,0.707107,888.460119,251.827897)">
				<text style="font-family: Helvetica; font-size: 10px;fill: rgb(0%,0%,0%); stroke:none;" transform="translate(0,0) scale(1,-1)" x="0" y="0">Gene_00899</text>
			</g>
			<g transform=" matrix(0.707107,0.707107,-0.707107,0.707107,921.170324,251.827897)">
				<text style="font-family: Helvetica; font-size: 10px;fill: rgb(0%,0%,0%); stroke:none;" transform="translate(0,0) scale(1,-1)" x="0" y="0">Gene_00900</text>
			</g>
			<g transform=" matrix(0.707107,0.707107,-0.707107,0.707107,953.611971,251.827897)">
				<text style="font-family: Helvetica; font-size: 10px;fill: rgb(0%,0%,0%); stroke:none;" transform="translate(0,0) scale(1,-1)" x="0" y="0">Gene_00901</text>
			</g>
			<g transform=" matrix(0.707107,0.707107,-0.707107,0.707107,993.841763,251.827897)">
				<text style="font-family: Helvetica; font-size: 10px;fill: rgb(0%,0%,0%); stroke:none;" transform="translate(0,0) scale(1,-1)" x="0" y="0">Gene_00902</text>
			</g>
			<g transform=" matrix(0.707107,-0.707107,0.707107,0.707107,1035.575472,169.825647)">
				<text style="font-family: Helvetica; font-size: 10px;fill: rgb(0%,0%,0%); stroke:none;" transform="translate(0,0) scale(1,-1)" x="0" y="0">Gene_00903</text>
			</g>
			<g transform=" matrix(0.707107,0.707107,-0.707107,0.707107,1083.432274,251.827897)">
				<text style="font-family: Helvetica; font-size: 10px;fill: rgb(0%,0%,0%); stroke:none;" transform="translate(0,0) scale(1,-1)" x="0" y="0">Gene_00904</text>
			</g>
			<g transform=" matrix(0.707107,0.707107,-0.707107,0.707107,1158.225311,251.827897)">
				<text style="font-family: Helvetica; font-size: 10px;fill: rgb(0%,0%,0%); stroke:none;" transform="translate(0,0) scale(1,-1)" x="0" y="0">Gene_00905</text>
			</g>
			<g transform=" matrix(0.707107,0.707107,-0.707107,0.707107,1220.691596,251.827897)">
				<text style="font-family: Helvetica; font-size: 10px;fill: rgb(0%,0%,0%); stroke:none;" transform="translate(0,0) scale(1,-1)" x="0" y="0">Gene_00906</text>
			</g>
			<g transform=" matrix(0.707107,0.707107,-0.707107,0.707107,1295.592056,251.827897)">
				<text style="font-family: Helvetica; font-size: 10px;fill: rgb(0%,0%,0%); stroke:none;" transform="translate(0,0) scale(1,-1)" x="0" y="0">Gene_00907</text>
			</g>
			<g transform=" matrix(0.707107,-0.707107,0.707107,0.707107,85.341347,456.833521)">
				<text style="font-family: Helvetica; font-size: 10px;fill: rgb(0%,0%,0%); stroke:none;" transform="translate(0,0) scale(1,-1)" x="0" y="0">Gene_01666</text>
			</g>
			<g transform=" matrix(0.707107,-0.707107,0.707107,0.707107,150.681189,456.833521)">
				<text style="font-family: Helvetica; font-size: 10px;fill: rgb(0%,0%,0%); stroke:none;" transform="translate(0,0) scale(1,-1)" x="0" y="0">Gene_01667</text>
			</g>
			<g transform=" matrix(0.707107,-0.707107,0.707107,0.707107,221.982989,456.833521)">
				<text style="font-family: Helvetica; font-size: 10px;fill: rgb(0%,0%,0%); stroke:none;" transform="translate(0,0) scale(1,-1)" x="0" y="0">Gene_01668</text>
			</g>
			<g transform=" matrix(0.707107,-0.707107,0.707107,0.707107,284.449275,456.833521)">
				<text style="font-family: Helvetica; font-size: 10px;fill: rgb(0%,0%,0%); stroke:none;" transform="translate(0,0) scale(1,-1)" x="0" y="0">Gene_01669</text>
			</g>
			<g transform=" matrix(0.707107,0.707107,-0.707107,0.707107,345.9219,538.835771)">
				<text style="font-family: Helvetica; font-size: 10px;fill: rgb(0%,0%,0%); stroke:none;" transform="translate(0,0) scale(1,-1)" x="0" y="0">Gene_01670</text>
			</g>
			<g transform=" matrix(0.707107,-0.707107,0.707107,0.707107,394.10097,456.833521)">
				<text style="font-family: Helvetica; font-size: 10px;fill: rgb(0%,0%,0%); stroke:none;" transform="translate(0,0) scale(1,-1)" x="0" y="0">Gene_01671</text>
			</g>
			<g transform=" matrix(0.707107,-0.707107,0.707107,0.707107,445.261019,456.833521)">
				<text style="font-family: Helvetica; font-size: 10px;fill: rgb(0%,0%,0%); stroke:none;" transform="translate(0,0) scale(1,-1)" x="0" y="0">Gene_01672</text>
			</g>
			<g transform=" matrix(0.707107,-0.707107,0.707107,0.707107,472.976069,456.833521)">
				<text style="font-family: Helvetica; font-size: 10px;fill: rgb(0%,0%,0%); stroke:none;" transform="translate(0,0) scale(1,-1)" x="0" y="0">Gene_01673</text>
			</g>
			<g transform=" matrix(0.707107,-0.707107,0.707107,0.707107,545.996632,456.833521)">
				<text style="font-family: Helvetica; font-size: 10px;fill: rgb(0%,0%,0%); stroke:none;" transform="translate(0,0) scale(1,-1)" x="0" y="0">Gene_01674</text>
			</g>
			<g transform=" matrix(0.707107,-0.707107,0.707107,0.707107,618.130958,456.833521)">
				<text style="font-family: Helvetica; font-size: 16px;fill: rgb(0%,0%,100%); stroke:none;" transform="translate(0,0) scale(1,-1)" x="0" y="0">Gene_01675 (83.5)</text>
			</g>
			<g transform=" matrix(0.707107,-0.707107,0.707107,0.707107,657.796781,456.833521)">
				<text style="font-family: Helvetica; font-size: 10px;fill: rgb(0%,0%,0%); stroke:none;" transform="translate(0,0) scale(1,-1)" x="0" y="0">Gene_01676</text>
			</g>
			<g transform=" matrix(0.707107,-0.707107,0.707107,0.707107,707.667758,456.833521)">
				<text style="font-family: Helvetica; font-size: 10px;fill: rgb(0%,0%,0%); stroke:none;" transform="translate(0,0) scale(1,-1)" x="0" y="0">Gene_01677</text>
			</g>
			<g transform=" matrix(0.707107,-0.707107,0.707107,0.707107,757.297033,456.833521)">
				<text style="font-family: Helvetica; font-size: 10px;fill: rgb(0%,0%,0%); stroke:none;" transform="translate(0,0) scale(1,-1)" x="0" y="0">Gene_01678</text>
			</g>
			<g transform=" matrix(0.707107,-0.707107,0.707107,0.707107,794.304145,456.833521)">
				<text style="font-family: Helvetica; font-size: 10px;fill: rgb(0%,0%,0%); stroke:none;" transform="translate(0,0) scale(1,-1)" x="0" y="0">Gene_01679</text>
			</g>
			<g transform=" matrix(0.707107,-0.707107,0.707107,0.707107,879.409759,456.833521)">
				<text style="font-family: Helvetica; font-size: 10px;fill: rgb(0%,0%,0%); stroke:none;" transform="translate(0,0) scale(1,-1)" x="0" y="0">Gene_01680</text>
			</g>
			<g transform=" matrix(0.707107,-0.707107,0.707107,0.707107,962.716043,456.833521)">
				<text style="font-family: Helvetica; font-size: 10px;fill: rgb(0%,0%,0%); stroke:none;" transform="translate(0,0) scale(1,-1)" x="0" y="0">Gene_01681</text>
			</g>
			<g transform=" matrix(0.707107,-0.707107,0.707107,0.707107,977.271816,456.833521)">
				<text style="font-family: Helvetica; font-size: 10px;fill: rgb(0%,0%,0%); stroke:none;" transform="translate(0,0) scale(1,-1)" x="0" y="0">Gene_01682</text>
			</g>
			<g transform=" matrix(0.707107,-0.707107,0.707107,0.707107,1016.642226,456.833521)">
				<text style="font-family: Helvetica; font-size: 10px;fill: rgb(0%,0%,0%); stroke:none;" transform="translate(0,0) scale(1,-1)" x="0" y="0">Gene_01683</text>
			</g>
			<g transform=" matrix(0.707107,-0.707107,0.707107,0.707107,1062.404285,456.833521)">
				<text style="font-family: Helvetica; font-size: 10px;fill: rgb(0%,0%,0%); stroke:none;" transform="translate(0,0) scale(1,-1)" x="0" y="0">Gene_01684</text>
			</g>
			<g transform=" matrix(0.707107,-0.707107,0.707107,0.707107,1145.656858,456.833521)">
				<text style="font-family: Helvetica; font-size: 10px;fill: rgb(0%,0%,0%); stroke:none;" transform="translate(0,0) scale(1,-1)" x="0" y="0">Gene_01685</text>
			</g>
			<g transform=" matrix(1,0,-0,1,70,169.825647)">
				<text style="font-family: Helvetica; font-size: 12px;fill: rgb(60%,60%,60%); stroke:none;" transform="translate(0,0) scale(1,-1)" x="0" y="0">megahit_24681 (left 77353bp, right 23881bp)</text>
			</g>
			<g transform=" matrix(1,0,-0,1,70,456.833521)">
				<text style="font-family: Helvetica; font-size: 12px;fill: rgb(60%,60%,60%); stroke:none;" transform="translate(0,0) scale(1,-1)" x="0" y="0">megahit_36874 (left 26352bp, right 156363bp)</text>
			</g>
		</g>
	</g>
</svg>
