<?xml version="1.0" encoding="utf-8"?>
<!DOCTYPE svg
  PUBLIC '-//W3C//DTD SVG 1.0//EN'
  'http://www.w3.org/TR/2001/REC-SVG-20010904/DTD/svg10.dtd'>
<svg fill-rule="evenodd" height="708.6614173228346" preserveAspectRatio="xMinYMin meet" version="1.0" viewBox="0 0 1417 708" width="1417.3228346456692" xmlns="http://www.w3.org/2000/svg" xmlns:xlink="http://www.w3.org/1999/xlink">
	<title>...</title>
	<desc>...</desc>
	<clipPath id="clip">
		<rect height="708.6614173228346" width="1417.3228346456692" x="0" y="0"/>
	</clipPath>
	<g id="group" style="clip-path: url(#clip)" transform="scale(1,-1) translate(0,-708)">
		<g transform="">
			<polygon points="70.86614 169.8256, 960.291 169.8256, 960.291 251.8279, 70.86614 251.8279" style="stroke: rgb(96%,96%,96%); stroke-linecap: butt; stroke-width: 1; fill: rgb(96%,96%,96%); fill-rule: evenodd;"/>
			<polygon points="70.86614 456.8335, 1346.383 456.8335, 1346.383 538.8358, 70.86614 538.8358" style="stroke: rgb(96%,96%,96%); stroke-linecap: butt; stroke-width: 1; fill: rgb(96%,96%,96%); fill-rule: evenodd;"/>
			<polygon points="893.9061 456.8335, 923.4923 456.8335, 413.8301 251.8279, 443.6371 251.8279" style="stroke: rgb(100%,42%,42%); stroke-linecap: round; stroke-width: 1; fill: rgb(100%,42%,42%); fill-rule: evenodd;"/>
			<polygon points="685.0366 456.8335, 745.9753 456.8335, 479.0375 251.8279, 539.7553 251.8279" style="stroke: rgb(100%,67%,67%); stroke-linecap: round; stroke-width: 1; fill: rgb(100%,67%,67%); fill-rule: evenodd;"/>
			<polygon points="71.01334 241.5776, 278.8642 241.5776, 278.8642 251.8279, 295.2647 231.3273, 278.8642 210.8268, 278.8642 221.0771, 71.01334 221.0771" style="stroke: rgb(67%,84%,90%); stroke-linecap: round; stroke-width: 1; fill: rgb(67%,84%,90%); fill-rule: evenodd;"/>
			<polygon points="300.4901 241.5776, 356.2151 241.5776, 356.2151 251.8279, 372.6156 231.3273, 356.2151 210.8268, 356.2151 221.0771, 300.4901 221.0771" style="stroke: rgb(67%,84%,90%); stroke-linecap: round; stroke-width: 1; fill: rgb(67%,84%,90%); fill-rule: evenodd;"/>
			<polygon points="372.6892 241.5776, 391.3211 241.5776, 391.3211 251.8279, 407.7216 231.3273, 391.3211 210.8268, 391.3211 221.0771, 372.6892 221.0771" style="stroke: rgb(67%,84%,90%); stroke-linecap: round; stroke-width: 1; fill: rgb(67%,84%,90%); fill-rule: evenodd;"/>
			<polygon points="446.949 200.5765, 430.7458 200.5765, 430.7458 210.8268, 414.3453 190.3262, 430.7458 169.8256, 430.7458 180.0759, 446.949 180.0759" style="stroke: rgb(56%,93%,56%); stroke-linecap: round; stroke-width: 1; fill: rgb(56%,93%,56%); fill-rule: evenodd;"/>
			<polygon points="463.582 241.5776, 524.8268 241.5776, 524.8268 251.8279, 541.2273 231.3273, 524.8268 210.8268, 524.8268 221.0771, 463.582 221.0771" style="stroke: rgb(67%,84%,90%); stroke-linecap: round; stroke-width: 1; fill: rgb(67%,84%,90%); fill-rule: evenodd;"/>
			<polygon points="552.7821 241.5776, 583.3368 241.5776, 583.3368 251.8279, 599.7372 231.3273, 583.3368 210.8268, 583.3368 221.0771, 552.7821 221.0771" style="stroke: rgb(67%,84%,90%); stroke-linecap: round; stroke-width: 1; fill: rgb(67%,84%,90%); fill-rule: evenodd;"/>
			<polygon points="603.8587 241.5776, 603.8587 251.8279, 614.1623 231.3273, 603.8587 210.8268, 603.8587 221.0771" style="stroke: rgb(67%,84%,90%); stroke-linecap: round; stroke-width: 1; fill: rgb(67%,84%,90%); fill-rule: evenodd;"/>
			<polygon points="630.501 241.5776, 721.5527 241.5776, 721.5527 251.8279, 737.9532 231.3273, 721.5527 210.8268, 721.5527 221.0771, 630.501 221.0771" style="stroke: rgb(67%,84%,90%); stroke-linecap: round; stroke-width: 1; fill: rgb(67%,84%,90%); fill-rule: evenodd;"/>
			<polygon points="738.91 241.5776, 797.0637 241.5776, 797.0637 251.8279, 813.4641 231.3273, 797.0637 210.8268, 797.0637 221.0771, 738.91 221.0771" style="stroke: rgb(67%,84%,90%); stroke-linecap: round; stroke-width: 1; fill: rgb(67%,84%,90%); fill-rule: evenodd;"/>
			<polygon points="829.0668 241.5776, 897.5978 241.5776, 897.5978 251.8279, 913.9982 231.3273, 897.5978 210.8268, 897.5978 221.0771, 829.0668 221.0771" style="stroke: rgb(67%,84%,90%); stroke-linecap: round; stroke-width: 1; fill: rgb(67%,84%,90%); fill-rule: evenodd;"/>
			<polygon points="921.7996 241.5776, 921.7996 251.8279, 931.4408 231.3273, 921.7996 210.8268, 921.7996 221.0771" style="stroke: rgb(67%,84%,90%); stroke-linecap: round; stroke-width: 1; fill: rgb(67%,84%,90%); fill-rule: evenodd;"/>
			<polygon points="70.86614 528.5855, 138.2932 528.5855, 138.2932 538.8358, 154.6936 518.3352, 138.2932 497.8346, 138.2932 508.0849, 70.86614 508.0849" style="stroke: rgb(67%,84%,90%); stroke-linecap: round; stroke-width: 1; fill: rgb(67%,84%,90%); fill-rule: evenodd;"/>
			<polygon points="154.8408 528.5855, 220.5015 528.5855, 220.5015 538.8358, 236.9019 518.3352, 220.5015 497.8346, 220.5015 508.0849, 154.8408 508.0849" style="stroke: rgb(67%,84%,90%); stroke-linecap: round; stroke-width: 1; fill: rgb(67%,84%,90%); fill-rule: evenodd;"/>
			<polygon points="249.4871 528.5855, 296.3804 528.5855, 296.3804 538.8358, 312.7809 518.3352, 296.3804 497.8346, 296.3804 508.0849, 249.4871 508.0849" style="stroke: rgb(67%,84%,90%); stroke-linecap: round; stroke-width: 1; fill: rgb(67%,84%,90%); fill-rule: evenodd;"/>
			<polygon points="383.3608 487.5844, 336.0259 487.5844, 336.0259 497.8346, 319.6254 477.3341, 336.0259 456.8335, 336.0259 467.0838, 383.3608 467.0838" style="stroke: rgb(56%,93%,56%); stroke-linecap: round; stroke-width: 1; fill: rgb(56%,93%,56%); fill-rule: evenodd;"/>
			<polygon points="441.65 487.5844, 403.1467 487.5844, 403.1467 497.8346, 386.7463 477.3341, 403.1467 456.8335, 403.1467 467.0838, 441.65 467.0838" style="stroke: rgb(56%,93%,56%); stroke-linecap: round; stroke-width: 1; fill: rgb(56%,93%,56%); fill-rule: evenodd;"/>
			<polygon points="511.5675 487.5844, 457.8296 487.5844, 457.8296 497.8346, 441.4292 477.3341, 457.8296 456.8335, 457.8296 467.0838, 511.5675 467.0838" style="stroke: rgb(56%,93%,56%); stroke-linecap: round; stroke-width: 1; fill: rgb(56%,93%,56%); fill-rule: evenodd;"/>
			<polygon points="570.7398 487.5844, 529.3663 487.5844, 529.3663 497.8346, 512.9659 477.3341, 529.3663 456.8335, 529.3663 467.0838, 570.7398 467.0838" style="stroke: rgb(56%,93%,56%); stroke-linecap: round; stroke-width: 1; fill: rgb(56%,93%,56%); fill-rule: evenodd;"/>
			<polygon points="637.5663 487.5844, 586.9195 487.5844, 586.9195 497.8346, 570.5191 477.3341, 586.9195 456.8335, 586.9195 467.0838, 637.5663 467.0838" style="stroke: rgb(56%,93%,56%); stroke-linecap: round; stroke-width: 1; fill: rgb(56%,93%,56%); fill-rule: evenodd;"/>
			<polygon points="668.4772 487.5844, 668.4772 497.8346, 655.3033 477.3341, 668.4772 456.8335, 668.4772 467.0838" style="stroke: rgb(56%,93%,56%); stroke-linecap: round; stroke-width: 1; fill: rgb(56%,93%,56%); fill-rule: evenodd;"/>
			<polygon points="761.8724 487.5844, 700.6275 487.5844, 700.6275 497.8346, 684.2271 477.3341, 700.6275 456.8335, 700.6275 467.0838, 761.8724 467.0838" style="stroke: rgb(56%,93%,56%); stroke-linecap: round; stroke-width: 1; fill: rgb(56%,93%,56%); fill-rule: evenodd;"/>
			<polygon points="879.1131 487.5844, 786.2949 487.5844, 786.2949 497.8346, 769.8945 477.3341, 786.2949 456.8335, 786.2949 467.0838, 879.1131 467.0838" style="stroke: rgb(56%,93%,56%); stroke-linecap: round; stroke-width: 1; fill: rgb(56%,93%,56%); fill-rule: evenodd;"/>
			<polygon points="890.5942 528.5855, 906.5767 528.5855, 906.5767 538.8358, 922.9771 518.3352, 906.5767 497.8346, 906.5767 508.0849, 890.5942 508.0849" style="stroke: rgb(67%,84%,90%); stroke-linecap: round; stroke-width: 1; fill: rgb(67%,84%,90%); fill-rule: evenodd;"/>
			<polygon points="1026.749 487.5844, 945.6333 487.5844, 945.6333 497.8346, 929.2329 477.3341, 945.6333 456.8335, 945.6333 467.0838, 1026.749 467.0838" style="stroke: rgb(56%,93%,56%); stroke-linecap: round; stroke-width: 1; fill: rgb(56%,93%,56%); fill-rule: evenodd;"/>
			<polygon points="1078.93 487.5844, 1041.752 487.5844, 1041.752 497.8346, 1025.351 477.3341, 1041.752 456.8335, 1041.752 467.0838, 1078.93 467.0838" style="stroke: rgb(56%,93%,56%); stroke-linecap: round; stroke-width: 1; fill: rgb(56%,93%,56%); fill-rule: evenodd;"/>
			<polygon points="1181.966 487.5844, 1116.968 487.5844, 1116.968 497.8346, 1100.568 477.3341, 1116.968 456.8335, 1116.968 467.0838, 1181.966 467.0838" style="stroke: rgb(56%,93%,56%); stroke-linecap: round; stroke-width: 1; fill: rgb(56%,93%,56%); fill-rule: evenodd;"/>
			<polygon points="1228.922 487.5844, 1198.367 487.5844, 1198.367 497.8346, 1181.966 477.3341, 1198.367 456.8335, 1198.367 467.0838, 1228.922 467.0838" style="stroke: rgb(56%,93%,56%); stroke-linecap: round; stroke-width: 1; fill: rgb(56%,93%,56%); fill-rule: evenodd;"/>
			<polygon points="1323.2 487.5844, 1255.773 487.5844, 1255.773 497.8346, 1239.372 477.3341, 1255.773 456.8335, 1255.773 467.0838, 1323.2 467.0838" style="stroke: rgb(56%,93%,56%); stroke-linecap: round; stroke-width: 1; fill: rgb(56%,93%,56%); fill-rule: evenodd;"/>
			<path d="M 960.29101,169.825647 L 960.29101,251.827897 Z" style="stroke: rgb(0%,0%,0%); stroke-linecap: butt; stroke-width: 1;"/>
			<path d="M 70.866142,210.826772 L 960.29101,210.826772 Z" style="stroke: rgb(0%,0%,0%); stroke-linecap: butt; stroke-width: 1;"/>
			<path d="M 70.866142,169.825647 L 70.866142,251.827897 Z" style="stroke: rgb(0%,0%,0%); stroke-linecap: butt; stroke-width: 1;"/>
			<path d="M 806.840381,210.826772 L 806.840381,231.327334 Z" style="stroke: rgb(0%,0%,0%); stroke-linecap: butt; stroke-width: 1;"/>
			<path d="M 806.840381,210.826772 L 806.840381,223.127109 Z" style="stroke: rgb(0%,0%,0%); stroke-linecap: butt; stroke-width: 1;"/>
			<path d="M 1346.383095,456.833521 L 1346.383095,538.835771 Z" style="stroke: rgb(0%,0%,0%); stroke-linecap: butt; stroke-width: 1;"/>
			<path d="M 70.866142,497.834646 L 1346.383095,497.834646 Z" style="stroke: rgb(0%,0%,0%); stroke-linecap: butt; stroke-width: 1;"/>
			<path d="M 70.866142,456.833521 L 70.866142,538.835771 Z" style="stroke: rgb(0%,0%,0%); stroke-linecap: butt; stroke-width: 1;"/>
			<path d="M 806.840381,497.834646 L 806.840381,518.335208 Z" style="stroke: rgb(0%,0%,0%); stroke-linecap: butt; stroke-width: 1;"/>
			<path d="M 806.840381,497.834646 L 806.840381,510.134983 Z" style="stroke: rgb(0%,0%,0%); stroke-linecap: butt; stroke-width: 1;"/>
			<g transform=" matrix(0.707107,0.707107,-0.707107,0.707107,806.840381,231.327334)">
				<text style="font-family: Helvetica; font-size: 6px;fill: rgb(0%,0%,0%); stroke:none;" transform="translate(0,0) scale(1,-1)" x="0" y="0">10000</text>
			</g>
			<g transform=" matrix(0.707107,0.707107,-0.707107,0.707107,806.840381,518.335208)">
				<text style="font-family: Helvetica; font-size: 6px;fill: rgb(0%,0%,0%); stroke:none;" transform="translate(0,0) scale(1,-1)" x="0" y="0">10000</text>
			</g>
			<g transform=" matrix(0.707107,0.707107,-0.707107,0.707107,183.139012,251.827897)">
				<text style="font-family: Helvetica; font-size: 10px;fill: rgb(0%,0%,0%); stroke:none;" transform="translate(0,0) scale(1,-1)" x="0" y="0">Gene_00611</text>
			</g>
			<g transform=" matrix(0.707107,0.707107,-0.707107,0.707107,336.552842,251.827897)">
				<text style="font-family: Helvetica; font-size: 10px;fill: rgb(0%,0%,0%); stroke:none;" transform="translate(0,0) scale(1,-1)" x="0" y="0">Gene_00612</text>
			</g>
			<g transform=" matrix(0.707107,0.707107,-0.707107,0.707107,390.205364,251.827897)">
				<text style="font-family: Helvetica; font-size: 10px;fill: rgb(0%,0%,0%); stroke:none;" transform="translate(0,0) scale(1,-1)" x="0" y="0">Gene_00613</text>
			</g>
			<g transform=" matrix(0.707107,-0.707107,0.707107,0.707107,430.647149,169.825647)">
				<text style="font-family: Helvetica; font-size: 16px;fill: rgb(0%,0%,100%); stroke:none;" transform="translate(0,0) scale(1,-1)" x="0" y="0">Gene_00614 (79.5)</text>
			</g>
			<g transform=" matrix(0.707107,0.707107,-0.707107,0.707107,502.404637,251.827897)">
				<text style="font-family: Helvetica; font-size: 10px;fill: rgb(0%,0%,0%); stroke:none;" transform="translate(0,0) scale(1,-1)" x="0" y="0">Gene_00615</text>
			</g>
			<g transform=" matrix(0.707107,0.707107,-0.707107,0.707107,576.259652,251.827897)">
				<text style="font-family: Helvetica; font-size: 10px;fill: rgb(0%,0%,0%); stroke:none;" transform="translate(0,0) scale(1,-1)" x="0" y="0">Gene_00616</text>
			</g>
			<g transform=" matrix(0.707107,0.707107,-0.707107,0.707107,609.010505,251.827897)">
				<text style="font-family: Helvetica; font-size: 10px;fill: rgb(0%,0%,0%); stroke:none;" transform="translate(0,0) scale(1,-1)" x="0" y="0">Gene_00617</text>
			</g>
			<g transform=" matrix(0.707107,0.707107,-0.707107,0.707107,684.227073,251.827897)">
				<text style="font-family: Helvetica; font-size: 10px;fill: rgb(0%,0%,0%); stroke:none;" transform="translate(0,0) scale(1,-1)" x="0" y="0">Gene_00618</text>
			</g>
			<g transform=" matrix(0.707107,0.707107,-0.707107,0.707107,776.187054,251.827897)">
				<text style="font-family: Helvetica; font-size: 10px;fill: rgb(0%,0%,0%); stroke:none;" transform="translate(0,0) scale(1,-1)" x="0" y="0">Gene_00619</text>
			</g>
			<g transform=" matrix(0.707107,0.707107,-0.707107,0.707107,871.532516,251.827897)">
				<text style="font-family: Helvetica; font-size: 10px;fill: rgb(0%,0%,0%); stroke:none;" transform="translate(0,0) scale(1,-1)" x="0" y="0">Gene_00620</text>
			</g>
			<g transform=" matrix(0.707107,0.707107,-0.707107,0.707107,926.620188,251.827897)">
				<text style="font-family: Helvetica; font-size: 10px;fill: rgb(0%,0%,0%); stroke:none;" transform="translate(0,0) scale(1,-1)" x="0" y="0">Gene_00621</text>
			</g>
			<g transform=" matrix(0.707107,0.707107,-0.707107,0.707107,112.779875,538.835771)">
				<text style="font-family: Helvetica; font-size: 10px;fill: rgb(0%,0%,0%); stroke:none;" transform="translate(0,0) scale(1,-1)" x="0" y="0">Gene_01830</text>
			</g>
			<g transform=" matrix(0.707107,0.707107,-0.707107,0.707107,195.871366,538.835771)">
				<text style="font-family: Helvetica; font-size: 10px;fill: rgb(0%,0%,0%); stroke:none;" transform="translate(0,0) scale(1,-1)" x="0" y="0">Gene_01831</text>
			</g>
			<g transform=" matrix(0.707107,0.707107,-0.707107,0.707107,281.133982,538.835771)">
				<text style="font-family: Helvetica; font-size: 10px;fill: rgb(0%,0%,0%); stroke:none;" transform="translate(0,0) scale(1,-1)" x="0" y="0">Gene_01832</text>
			</g>
			<g transform=" matrix(0.707107,-0.707107,0.707107,0.707107,351.493119,456.833521)">
				<text style="font-family: Helvetica; font-size: 10px;fill: rgb(0%,0%,0%); stroke:none;" transform="translate(0,0) scale(1,-1)" x="0" y="0">Gene_01833</text>
			</g>
			<g transform=" matrix(0.707107,-0.707107,0.707107,0.707107,414.198124,456.833521)">
				<text style="font-family: Helvetica; font-size: 10px;fill: rgb(0%,0%,0%); stroke:none;" transform="translate(0,0) scale(1,-1)" x="0" y="0">Gene_01834</text>
			</g>
			<g transform=" matrix(0.707107,-0.707107,0.707107,0.707107,476.498344,456.833521)">
				<text style="font-family: Helvetica; font-size: 10px;fill: rgb(0%,0%,0%); stroke:none;" transform="translate(0,0) scale(1,-1)" x="0" y="0">Gene_01835</text>
			</g>
			<g transform=" matrix(0.707107,-0.707107,0.707107,0.707107,541.852856,456.833521)">
				<text style="font-family: Helvetica; font-size: 10px;fill: rgb(0%,0%,0%); stroke:none;" transform="translate(0,0) scale(1,-1)" x="0" y="0">Gene_01836</text>
			</g>
			<g transform=" matrix(0.707107,-0.707107,0.707107,0.707107,604.042679,456.833521)">
				<text style="font-family: Helvetica; font-size: 10px;fill: rgb(0%,0%,0%); stroke:none;" transform="translate(0,0) scale(1,-1)" x="0" y="0">Gene_01837</text>
			</g>
			<g transform=" matrix(0.707107,-0.707107,0.707107,0.707107,661.890254,456.833521)">
				<text style="font-family: Helvetica; font-size: 10px;fill: rgb(0%,0%,0%); stroke:none;" transform="translate(0,0) scale(1,-1)" x="0" y="0">Gene_01838</text>
			</g>
			<g transform=" matrix(0.707107,-0.707107,0.707107,0.707107,723.049714,456.833521)">
				<text style="font-family: Helvetica; font-size: 10px;fill: rgb(0%,0%,0%); stroke:none;" transform="translate(0,0) scale(1,-1)" x="0" y="0">Gene_01839</text>
			</g>
			<g transform=" matrix(0.707107,-0.707107,0.707107,0.707107,824.503763,456.833521)">
				<text style="font-family: Helvetica; font-size: 10px;fill: rgb(0%,0%,0%); stroke:none;" transform="translate(0,0) scale(1,-1)" x="0" y="0">Gene_01840</text>
			</g>
			<g transform=" matrix(0.707107,0.707107,-0.707107,0.707107,906.785682,538.835771)">
				<text style="font-family: Helvetica; font-size: 16px;fill: rgb(0%,0%,100%); stroke:none;" transform="translate(0,0) scale(1,-1)" x="0" y="0">Gene_01841 (79.5)</text>
			</g>
			<g transform=" matrix(0.707107,-0.707107,0.707107,0.707107,977.99119,456.833521)">
				<text style="font-family: Helvetica; font-size: 10px;fill: rgb(0%,0%,0%); stroke:none;" transform="translate(0,0) scale(1,-1)" x="0" y="0">Gene_01842</text>
			</g>
			<g transform=" matrix(0.707107,-0.707107,0.707107,0.707107,1052.140595,456.833521)">
				<text style="font-family: Helvetica; font-size: 10px;fill: rgb(0%,0%,0%); stroke:none;" transform="translate(0,0) scale(1,-1)" x="0" y="0">Gene_01843</text>
			</g>
			<g transform=" matrix(0.707107,-0.707107,0.707107,0.707107,1141.267075,456.833521)">
				<text style="font-family: Helvetica; font-size: 10px;fill: rgb(0%,0%,0%); stroke:none;" transform="translate(0,0) scale(1,-1)" x="0" y="0">Gene_01844</text>
			</g>
			<g transform=" matrix(0.707107,-0.707107,0.707107,0.707107,1205.444029,456.833521)">
				<text style="font-family: Helvetica; font-size: 10px;fill: rgb(0%,0%,0%); stroke:none;" transform="translate(0,0) scale(1,-1)" x="0" y="0">Gene_01845</text>
			</g>
			<g transform=" matrix(0.707107,-0.707107,0.707107,0.707107,1281.286174,456.833521)">
				<text style="font-family: Helvetica; font-size: 10px;fill: rgb(0%,0%,0%); stroke:none;" transform="translate(0,0) scale(1,-1)" x="0" y="0">Gene_01846</text>
			</g>
			<g transform=" matrix(1,0,-0,1,70,169.825647)">
				<text style="font-family: Helvetica; font-size: 12px;fill: rgb(60%,60%,60%); stroke:none;" transform="translate(0,0) scale(1,-1)" x="0" y="0">megahit_27475 (left 4667bp, right 6975bp)</text>
			</g>
			<g transform=" matrix(1,0,-0,1,70,456.833521)">
				<text style="font-family: Helvetica; font-size: 12px;fill: rgb(60%,60%,60%); stroke:none;" transform="translate(0,0) scale(1,-1)" x="0" y="0">megahit_37987 (left 18498bp, right 5753bp)</text>
			</g>
		</g>
	</g>
</svg>
