<?xml version="1.0" encoding="utf-8"?>
<!DOCTYPE svg
  PUBLIC '-//W3C//DTD SVG 1.0//EN'
  'http://www.w3.org/TR/2001/REC-SVG-20010904/DTD/svg10.dtd'>
<svg fill-rule="evenodd" height="708.6614173228346" preserveAspectRatio="xMinYMin meet" version="1.0" viewBox="0 0 1417 708" width="1417.3228346456692" xmlns="http://www.w3.org/2000/svg" xmlns:xlink="http://www.w3.org/1999/xlink">
	<title>...</title>
	<desc>...</desc>
	<clipPath id="clip">
		<rect height="708.6614173228346" width="1417.3228346456692" x="0" y="0"/>
	</clipPath>
	<g id="group" style="clip-path: url(#clip)" transform="scale(1,-1) translate(0,-708)">
		<g transform="">
			<polygon points="70.86614 169.8256, 725.3386 169.8256, 725.3386 251.8279, 70.86614 251.8279" style="stroke: rgb(96%,96%,96%); stroke-linecap: butt; stroke-width: 1; fill: rgb(96%,96%,96%); fill-rule: evenodd;"/>
			<polygon points="70.86614 456.8335, 1346.391 456.8335, 1346.391 538.8358, 70.86614 538.8358" style="stroke: rgb(96%,96%,96%); stroke-linecap: butt; stroke-width: 1; fill: rgb(96%,96%,96%); fill-rule: evenodd;"/>
			<polygon points="731.6132 456.8335, 849.4433 456.8335, 592.0532 251.8279, 474.7514 251.8279" style="stroke: rgb(100%,22%,22%); stroke-linecap: round; stroke-width: 1; fill: rgb(100%,22%,22%); fill-rule: evenodd;"/>
			<polygon points="119.0153 200.5765, 92.48441 200.5765, 92.48441 210.8268, 76.08396 190.3262, 92.48441 169.8256, 92.48441 180.0759, 119.0153 180.0759" style="stroke: rgb(56%,93%,56%); stroke-linecap: round; stroke-width: 1; fill: rgb(56%,93%,56%); fill-rule: evenodd;"/>
			<polygon points="151.1148 200.5765, 136.8689 200.5765, 136.8689 210.8268, 120.4684 190.3262, 136.8689 169.8256, 136.8689 180.0759, 151.1148 180.0759" style="stroke: rgb(56%,93%,56%); stroke-linecap: round; stroke-width: 1; fill: rgb(56%,93%,56%); fill-rule: evenodd;"/>
			<polygon points="203.5571 200.5765, 167.3171 200.5765, 167.3171 210.8268, 150.9167 190.3262, 167.3171 169.8256, 167.3171 180.0759, 203.5571 180.0759" style="stroke: rgb(56%,93%,56%); stroke-linecap: round; stroke-width: 1; fill: rgb(56%,93%,56%); fill-rule: evenodd;"/>
			<polygon points="233.2789 200.5765, 228.5439 200.5765, 228.5439 210.8268, 212.1434 190.3262, 228.5439 169.8256, 228.5439 180.0759, 233.2789 180.0759" style="stroke: rgb(56%,93%,56%); stroke-linecap: round; stroke-width: 1; fill: rgb(56%,93%,56%); fill-rule: evenodd;"/>
			<polygon points="245.4978 200.5765, 245.4978 210.8268, 235.4585 190.3262, 245.4978 169.8256, 245.4978 180.0759" style="stroke: rgb(56%,93%,56%); stroke-linecap: round; stroke-width: 1; fill: rgb(56%,93%,56%); fill-rule: evenodd;"/>
			<polygon points="255.4051 200.5765, 255.4051 210.8268, 249.3286 190.3262, 255.4051 169.8256, 255.4051 180.0759" style="stroke: rgb(56%,93%,56%); stroke-linecap: round; stroke-width: 1; fill: rgb(56%,93%,56%); fill-rule: evenodd;"/>
			<polygon points="326.6712 200.5765, 273.1925 200.5765, 273.1925 210.8268, 256.7921 190.3262, 273.1925 169.8256, 273.1925 180.0759, 326.6712 180.0759" style="stroke: rgb(56%,93%,56%); stroke-linecap: round; stroke-width: 1; fill: rgb(56%,93%,56%); fill-rule: evenodd;"/>
			<polygon points="398.928 200.5765, 348.4215 200.5765, 348.4215 210.8268, 332.0211 190.3262, 348.4215 169.8256, 348.4215 180.0759, 398.928 180.0759" style="stroke: rgb(56%,93%,56%); stroke-linecap: round; stroke-width: 1; fill: rgb(56%,93%,56%); fill-rule: evenodd;"/>
			<polygon points="460.551 200.5765, 416.7815 200.5765, 416.7815 210.8268, 400.381 190.3262, 416.7815 169.8256, 416.7815 180.0759, 460.551 180.0759" style="stroke: rgb(56%,93%,56%); stroke-linecap: round; stroke-width: 1; fill: rgb(56%,93%,56%); fill-rule: evenodd;"/>
			<polygon points="541.4602 200.5765, 491.1519 200.5765, 491.1519 210.8268, 474.7514 190.3262, 491.1519 169.8256, 491.1519 180.0759, 541.4602 180.0759" style="stroke: rgb(56%,93%,56%); stroke-linecap: round; stroke-width: 1; fill: rgb(56%,93%,56%); fill-rule: evenodd;"/>
			<polygon points="590.468 200.5765, 561.163 200.5765, 561.163 210.8268, 544.7626 190.3262, 561.163 169.8256, 561.163 180.0759, 590.468 180.0759" style="stroke: rgb(56%,93%,56%); stroke-linecap: round; stroke-width: 1; fill: rgb(56%,93%,56%); fill-rule: evenodd;"/>
			<polygon points="722.6967 200.5765, 616.9078 200.5765, 616.9078 210.8268, 600.5073 190.3262, 616.9078 169.8256, 616.9078 180.0759, 722.6967 180.0759" style="stroke: rgb(56%,93%,56%); stroke-linecap: round; stroke-width: 1; fill: rgb(56%,93%,56%); fill-rule: evenodd;"/>
			<polygon points="140.7452 487.5844, 87.26659 487.5844, 87.26659 497.8346, 70.86614 477.3341, 87.26659 456.8335, 87.26659 467.0838, 140.7452 467.0838" style="stroke: rgb(56%,93%,56%); stroke-linecap: round; stroke-width: 1; fill: rgb(56%,93%,56%); fill-rule: evenodd;"/>
			<polygon points="182.4877 487.5844, 156.9475 487.5844, 156.9475 497.8346, 140.5471 477.3341, 156.9475 456.8335, 156.9475 467.0838, 182.4877 467.0838" style="stroke: rgb(56%,93%,56%); stroke-linecap: round; stroke-width: 1; fill: rgb(56%,93%,56%); fill-rule: evenodd;"/>
			<polygon points="255.339 487.5844, 203.0492 487.5844, 203.0492 497.8346, 186.6488 477.3341, 203.0492 456.8335, 203.0492 467.0838, 255.339 467.0838" style="stroke: rgb(56%,93%,56%); stroke-linecap: round; stroke-width: 1; fill: rgb(56%,93%,56%); fill-rule: evenodd;"/>
			<polygon points="277.0028 487.5844, 277.0028 497.8346, 265.1802 477.3341, 277.0028 456.8335, 277.0028 467.0838" style="stroke: rgb(56%,93%,56%); stroke-linecap: round; stroke-width: 1; fill: rgb(56%,93%,56%); fill-rule: evenodd;"/>
			<polygon points="290.4106 528.5855, 327.6414 528.5855, 327.6414 538.8358, 344.0419 518.3352, 327.6414 497.8346, 327.6414 508.0849, 290.4106 508.0849" style="stroke: rgb(67%,84%,90%); stroke-linecap: round; stroke-width: 1; fill: rgb(67%,84%,90%); fill-rule: evenodd;"/>
			<polygon points="403.9476 487.5844, 361.367 487.5844, 361.367 497.8346, 344.9665 477.3341, 361.367 456.8335, 361.367 467.0838, 403.9476 467.0838" style="stroke: rgb(56%,93%,56%); stroke-linecap: round; stroke-width: 1; fill: rgb(56%,93%,56%); fill-rule: evenodd;"/>
			<polygon points="486.9043 487.5844, 428.472 487.5844, 428.472 497.8346, 412.0716 477.3341, 428.472 456.8335, 428.472 467.0838, 486.9043 467.0838" style="stroke: rgb(56%,93%,56%); stroke-linecap: round; stroke-width: 1; fill: rgb(56%,93%,56%); fill-rule: evenodd;"/>
			<polygon points="513.918 487.5844, 513.918 497.8346, 500.5102 477.3341, 513.918 456.8335, 513.918 467.0838" style="stroke: rgb(56%,93%,56%); stroke-linecap: round; stroke-width: 1; fill: rgb(56%,93%,56%); fill-rule: evenodd;"/>
			<polygon points="583.5329 487.5844, 532.2339 487.5844, 532.2339 497.8346, 515.8334 477.3341, 532.2339 456.8335, 532.2339 467.0838, 583.5329 467.0838" style="stroke: rgb(56%,93%,56%); stroke-linecap: round; stroke-width: 1; fill: rgb(56%,93%,56%); fill-rule: evenodd;"/>
			<polygon points="633.8617 487.5844, 609.5104 487.5844, 609.5104 497.8346, 593.1099 477.3341, 609.5104 456.8335, 609.5104 467.0838, 633.8617 467.0838" style="stroke: rgb(56%,93%,56%); stroke-linecap: round; stroke-width: 1; fill: rgb(56%,93%,56%); fill-rule: evenodd;"/>
			<polygon points="719.8566 487.5844, 664.991 487.5844, 664.991 497.8346, 648.5905 477.3341, 664.991 456.8335, 664.991 467.0838, 719.8566 467.0838" style="stroke: rgb(56%,93%,56%); stroke-linecap: round; stroke-width: 1; fill: rgb(56%,93%,56%); fill-rule: evenodd;"/>
			<polygon points="798.322 487.5844, 748.0136 487.5844, 748.0136 497.8346, 731.6132 477.3341, 748.0136 456.8335, 748.0136 467.0838, 798.322 467.0838" style="stroke: rgb(56%,93%,56%); stroke-linecap: round; stroke-width: 1; fill: rgb(56%,93%,56%); fill-rule: evenodd;"/>
			<polygon points="847.8582 487.5844, 818.5532 487.5844, 818.5532 497.8346, 802.1528 477.3341, 818.5532 456.8335, 818.5532 467.0838, 847.8582 467.0838" style="stroke: rgb(56%,93%,56%); stroke-linecap: round; stroke-width: 1; fill: rgb(56%,93%,56%); fill-rule: evenodd;"/>
			<polygon points="906.1128 487.5844, 886.715 487.5844, 886.715 497.8346, 870.3146 477.3341, 886.715 456.8335, 886.715 467.0838, 906.1128 467.0838" style="stroke: rgb(56%,93%,56%); stroke-linecap: round; stroke-width: 1; fill: rgb(56%,93%,56%); fill-rule: evenodd;"/>
			<polygon points="993.2305 487.5844, 922.3151 487.5844, 922.3151 497.8346, 905.9146 477.3341, 922.3151 456.8335, 922.3151 467.0838, 993.2305 467.0838" style="stroke: rgb(56%,93%,56%); stroke-linecap: round; stroke-width: 1; fill: rgb(56%,93%,56%); fill-rule: evenodd;"/>
			<polygon points="1014.96 487.5844, 1014.96 497.8346, 998.5804 477.3341, 1014.96 456.8335, 1014.96 467.0838" style="stroke: rgb(56%,93%,56%); stroke-linecap: round; stroke-width: 1; fill: rgb(56%,93%,56%); fill-rule: evenodd;"/>
			<polygon points="1057.958 487.5844, 1031.625 487.5844, 1031.625 497.8346, 1015.225 477.3341, 1031.625 456.8335, 1031.625 467.0838, 1057.958 467.0838" style="stroke: rgb(56%,93%,56%); stroke-linecap: round; stroke-width: 1; fill: rgb(56%,93%,56%); fill-rule: evenodd;"/>
			<polygon points="1116.741 487.5844, 1075.151 487.5844, 1075.151 497.8346, 1058.75 477.3341, 1075.151 456.8335, 1075.151 467.0838, 1116.741 467.0838" style="stroke: rgb(56%,93%,56%); stroke-linecap: round; stroke-width: 1; fill: rgb(56%,93%,56%); fill-rule: evenodd;"/>
			<polygon points="1202.075 487.5844, 1141.661 487.5844, 1141.661 497.8346, 1125.261 477.3341, 1141.661 456.8335, 1141.661 467.0838, 1202.075 467.0838" style="stroke: rgb(56%,93%,56%); stroke-linecap: round; stroke-width: 1; fill: rgb(56%,93%,56%); fill-rule: evenodd;"/>
			<polygon points="1216.87 528.5855, 1315.327 528.5855, 1315.327 538.8358, 1331.728 518.3352, 1315.327 497.8346, 1315.327 508.0849, 1216.87 508.0849" style="stroke: rgb(67%,84%,90%); stroke-linecap: round; stroke-width: 1; fill: rgb(67%,84%,90%); fill-rule: evenodd;"/>
			<path d="M 725.33861,169.825647 L 725.33861,251.827897 Z" style="stroke: rgb(0%,0%,0%); stroke-linecap: butt; stroke-width: 1;"/>
			<path d="M 70.866142,210.826772 L 725.33861,210.826772 Z" style="stroke: rgb(0%,0%,0%); stroke-linecap: butt; stroke-width: 1;"/>
			<path d="M 70.866142,169.825647 L 70.866142,251.827897 Z" style="stroke: rgb(0%,0%,0%); stroke-linecap: butt; stroke-width: 1;"/>
			<path d="M 1346.390645,456.833521 L 1346.390645,538.835771 Z" style="stroke: rgb(0%,0%,0%); stroke-linecap: butt; stroke-width: 1;"/>
			<path d="M 70.866142,497.834646 L 1346.390645,497.834646 Z" style="stroke: rgb(0%,0%,0%); stroke-linecap: butt; stroke-width: 1;"/>
			<path d="M 70.866142,456.833521 L 70.866142,538.835771 Z" style="stroke: rgb(0%,0%,0%); stroke-linecap: butt; stroke-width: 1;"/>
			<path d="M 731.349004,497.834646 L 731.349004,518.335208 Z" style="stroke: rgb(0%,0%,0%); stroke-linecap: butt; stroke-width: 1;"/>
			<path d="M 731.349004,497.834646 L 731.349004,510.134983 Z" style="stroke: rgb(0%,0%,0%); stroke-linecap: butt; stroke-width: 1;"/>
			<g transform=" matrix(0.707107,0.707107,-0.707107,0.707107,731.349004,518.335208)">
				<text style="font-family: Helvetica; font-size: 6px;fill: rgb(0%,0%,0%); stroke:none;" transform="translate(0,0) scale(1,-1)" x="0" y="0">10000</text>
			</g>
			<g transform=" matrix(0.707107,-0.707107,0.707107,0.707107,97.549649,169.825647)">
				<text style="font-family: Helvetica; font-size: 10px;fill: rgb(0%,0%,0%); stroke:none;" transform="translate(0,0) scale(1,-1)" x="0" y="0">Gene_01156</text>
			</g>
			<g transform=" matrix(0.707107,-0.707107,0.707107,0.707107,135.791607,169.825647)">
				<text style="font-family: Helvetica; font-size: 10px;fill: rgb(0%,0%,0%); stroke:none;" transform="translate(0,0) scale(1,-1)" x="0" y="0">Gene_01157</text>
			</g>
			<g transform=" matrix(0.707107,-0.707107,0.707107,0.707107,177.236907,169.825647)">
				<text style="font-family: Helvetica; font-size: 10px;fill: rgb(0%,0%,0%); stroke:none;" transform="translate(0,0) scale(1,-1)" x="0" y="0">Gene_01158</text>
			</g>
			<g transform=" matrix(0.707107,-0.707107,0.707107,0.707107,222.711152,169.825647)">
				<text style="font-family: Helvetica; font-size: 10px;fill: rgb(0%,0%,0%); stroke:none;" transform="translate(0,0) scale(1,-1)" x="0" y="0">Gene_01159</text>
			</g>
			<g transform=" matrix(0.707107,-0.707107,0.707107,0.707107,240.478141,169.825647)">
				<text style="font-family: Helvetica; font-size: 10px;fill: rgb(0%,0%,0%); stroke:none;" transform="translate(0,0) scale(1,-1)" x="0" y="0">Gene_01160</text>
			</g>
			<g transform=" matrix(0.707107,-0.707107,0.707107,0.707107,252.366832,169.825647)">
				<text style="font-family: Helvetica; font-size: 10px;fill: rgb(0%,0%,0%); stroke:none;" transform="translate(0,0) scale(1,-1)" x="0" y="0">Gene_01161</text>
			</g>
			<g transform=" matrix(0.707107,-0.707107,0.707107,0.707107,291.731611,169.825647)">
				<text style="font-family: Helvetica; font-size: 10px;fill: rgb(0%,0%,0%); stroke:none;" transform="translate(0,0) scale(1,-1)" x="0" y="0">Gene_01162</text>
			</g>
			<g transform=" matrix(0.707107,-0.707107,0.707107,0.707107,365.474522,169.825647)">
				<text style="font-family: Helvetica; font-size: 10px;fill: rgb(0%,0%,0%); stroke:none;" transform="translate(0,0) scale(1,-1)" x="0" y="0">Gene_01163</text>
			</g>
			<g transform=" matrix(0.707107,-0.707107,0.707107,0.707107,430.466036,169.825647)">
				<text style="font-family: Helvetica; font-size: 10px;fill: rgb(0%,0%,0%); stroke:none;" transform="translate(0,0) scale(1,-1)" x="0" y="0">Gene_01164</text>
			</g>
			<g transform=" matrix(0.707107,-0.707107,0.707107,0.707107,508.105796,169.825647)">
				<text style="font-family: Helvetica; font-size: 16px;fill: rgb(0%,0%,100%); stroke:none;" transform="translate(0,0) scale(1,-1)" x="0" y="0">Gene_01165 (91.1)</text>
			</g>
			<g transform=" matrix(0.707107,-0.707107,0.707107,0.707107,567.615302,169.825647)">
				<text style="font-family: Helvetica; font-size: 10px;fill: rgb(0%,0%,0%); stroke:none;" transform="translate(0,0) scale(1,-1)" x="0" y="0">Gene_01166</text>
			</g>
			<g transform=" matrix(0.707107,-0.707107,0.707107,0.707107,661.602013,169.825647)">
				<text style="font-family: Helvetica; font-size: 10px;fill: rgb(0%,0%,0%); stroke:none;" transform="translate(0,0) scale(1,-1)" x="0" y="0">Gene_01167</text>
			</g>
			<g transform=" matrix(0.707107,-0.707107,0.707107,0.707107,105.805685,456.833521)">
				<text style="font-family: Helvetica; font-size: 10px;fill: rgb(0%,0%,0%); stroke:none;" transform="translate(0,0) scale(1,-1)" x="0" y="0">Gene_01546</text>
			</g>
			<g transform=" matrix(0.707107,-0.707107,0.707107,0.707107,161.517415,456.833521)">
				<text style="font-family: Helvetica; font-size: 10px;fill: rgb(0%,0%,0%); stroke:none;" transform="translate(0,0) scale(1,-1)" x="0" y="0">Gene_01547</text>
			</g>
			<g transform=" matrix(0.707107,-0.707107,0.707107,0.707107,220.993896,456.833521)">
				<text style="font-family: Helvetica; font-size: 10px;fill: rgb(0%,0%,0%); stroke:none;" transform="translate(0,0) scale(1,-1)" x="0" y="0">Gene_01548</text>
			</g>
			<g transform=" matrix(0.707107,-0.707107,0.707107,0.707107,271.091521,456.833521)">
				<text style="font-family: Helvetica; font-size: 10px;fill: rgb(0%,0%,0%); stroke:none;" transform="translate(0,0) scale(1,-1)" x="0" y="0">Gene_01549</text>
			</g>
			<g transform=" matrix(0.707107,0.707107,-0.707107,0.707107,317.226249,538.835771)">
				<text style="font-family: Helvetica; font-size: 10px;fill: rgb(0%,0%,0%); stroke:none;" transform="translate(0,0) scale(1,-1)" x="0" y="0">Gene_01550</text>
			</g>
			<g transform=" matrix(0.707107,-0.707107,0.707107,0.707107,374.457089,456.833521)">
				<text style="font-family: Helvetica; font-size: 10px;fill: rgb(0%,0%,0%); stroke:none;" transform="translate(0,0) scale(1,-1)" x="0" y="0">Gene_01551</text>
			</g>
			<g transform=" matrix(0.707107,-0.707107,0.707107,0.707107,449.487942,456.833521)">
				<text style="font-family: Helvetica; font-size: 10px;fill: rgb(0%,0%,0%); stroke:none;" transform="translate(0,0) scale(1,-1)" x="0" y="0">Gene_01552</text>
			</g>
			<g transform=" matrix(0.707107,-0.707107,0.707107,0.707107,507.214144,456.833521)">
				<text style="font-family: Helvetica; font-size: 10px;fill: rgb(0%,0%,0%); stroke:none;" transform="translate(0,0) scale(1,-1)" x="0" y="0">Gene_01553</text>
			</g>
			<g transform=" matrix(0.707107,-0.707107,0.707107,0.707107,549.683192,456.833521)">
				<text style="font-family: Helvetica; font-size: 10px;fill: rgb(0%,0%,0%); stroke:none;" transform="translate(0,0) scale(1,-1)" x="0" y="0">Gene_01554</text>
			</g>
			<g transform=" matrix(0.707107,-0.707107,0.707107,0.707107,613.485837,456.833521)">
				<text style="font-family: Helvetica; font-size: 10px;fill: rgb(0%,0%,0%); stroke:none;" transform="translate(0,0) scale(1,-1)" x="0" y="0">Gene_01555</text>
			</g>
			<g transform=" matrix(0.707107,-0.707107,0.707107,0.707107,684.223551,456.833521)">
				<text style="font-family: Helvetica; font-size: 10px;fill: rgb(0%,0%,0%); stroke:none;" transform="translate(0,0) scale(1,-1)" x="0" y="0">Gene_01556</text>
			</g>
			<g transform=" matrix(0.707107,-0.707107,0.707107,0.707107,764.967581,456.833521)">
				<text style="font-family: Helvetica; font-size: 16px;fill: rgb(0%,0%,100%); stroke:none;" transform="translate(0,0) scale(1,-1)" x="0" y="0">Gene_01557 (91.1)</text>
			</g>
			<g transform=" matrix(0.707107,-0.707107,0.707107,0.707107,825.005473,456.833521)">
				<text style="font-family: Helvetica; font-size: 10px;fill: rgb(0%,0%,0%); stroke:none;" transform="translate(0,0) scale(1,-1)" x="0" y="0">Gene_01558</text>
			</g>
			<g transform=" matrix(0.707107,-0.707107,0.707107,0.707107,888.213683,456.833521)">
				<text style="font-family: Helvetica; font-size: 10px;fill: rgb(0%,0%,0%); stroke:none;" transform="translate(0,0) scale(1,-1)" x="0" y="0">Gene_01559</text>
			</g>
			<g transform=" matrix(0.707107,-0.707107,0.707107,0.707107,949.572541,456.833521)">
				<text style="font-family: Helvetica; font-size: 10px;fill: rgb(0%,0%,0%); stroke:none;" transform="translate(0,0) scale(1,-1)" x="0" y="0">Gene_01560</text>
			</g>
			<g transform=" matrix(0.707107,-0.707107,0.707107,0.707107,1006.770357,456.833521)">
				<text style="font-family: Helvetica; font-size: 10px;fill: rgb(0%,0%,0%); stroke:none;" transform="translate(0,0) scale(1,-1)" x="0" y="0">Gene_01561</text>
			</g>
			<g transform=" matrix(0.707107,-0.707107,0.707107,0.707107,1036.591158,456.833521)">
				<text style="font-family: Helvetica; font-size: 10px;fill: rgb(0%,0%,0%); stroke:none;" transform="translate(0,0) scale(1,-1)" x="0" y="0">Gene_01562</text>
			</g>
			<g transform=" matrix(0.707107,-0.707107,0.707107,0.707107,1087.745556,456.833521)">
				<text style="font-family: Helvetica; font-size: 10px;fill: rgb(0%,0%,0%); stroke:none;" transform="translate(0,0) scale(1,-1)" x="0" y="0">Gene_01563</text>
			</g>
			<g transform=" matrix(0.707107,-0.707107,0.707107,0.707107,1163.668061,456.833521)">
				<text style="font-family: Helvetica; font-size: 10px;fill: rgb(0%,0%,0%); stroke:none;" transform="translate(0,0) scale(1,-1)" x="0" y="0">Gene_01564</text>
			</g>
			<g transform=" matrix(0.707107,0.707107,-0.707107,0.707107,1274.29894,538.835771)">
				<text style="font-family: Helvetica; font-size: 10px;fill: rgb(0%,0%,0%); stroke:none;" transform="translate(0,0) scale(1,-1)" x="0" y="0">Gene_01565</text>
			</g>
			<g transform=" matrix(1,0,-0,1,70,169.825647)">
				<text style="font-family: Helvetica; font-size: 12px;fill: rgb(60%,60%,60%); stroke:none;" transform="translate(0,0) scale(1,-1)" x="0" y="0">megahit_52218 (left 6115bp, right 2784bp)</text>
			</g>
			<g transform=" matrix(1,0,-0,1,70,456.833521)">
				<text style="font-family: Helvetica; font-size: 12px;fill: rgb(60%,60%,60%); stroke:none;" transform="translate(0,0) scale(1,-1)" x="0" y="0">megahit_16267 (left 23707bp, right 8298bp)</text>
			</g>
		</g>
	</g>
</svg>
