<?xml version="1.0" encoding="utf-8"?>
<!DOCTYPE svg
  PUBLIC '-//W3C//DTD SVG 1.0//EN'
  'http://www.w3.org/TR/2001/REC-SVG-20010904/DTD/svg10.dtd'>
<svg fill-rule="evenodd" height="708.6614173228346" preserveAspectRatio="xMinYMin meet" version="1.0" viewBox="0 0 1417 708" width="1417.3228346456692" xmlns="http://www.w3.org/2000/svg" xmlns:xlink="http://www.w3.org/1999/xlink">
	<title>...</title>
	<desc>...</desc>
	<clipPath id="clip">
		<rect height="708.6614173228346" width="1417.3228346456692" x="0" y="0"/>
	</clipPath>
	<g id="group" style="clip-path: url(#clip)" transform="scale(1,-1) translate(0,-708)">
		<g transform="">
			<polygon points="70.86614 169.8256, 1120.343 169.8256, 1120.343 251.8279, 70.86614 251.8279" style="stroke: rgb(96%,96%,96%); stroke-linecap: butt; stroke-width: 1; fill: rgb(96%,96%,96%); fill-rule: evenodd;"/>
			<polygon points="70.86614 456.8335, 1346.401 456.8335, 1346.401 538.8358, 70.86614 538.8358" style="stroke: rgb(96%,96%,96%); stroke-linecap: butt; stroke-width: 1; fill: rgb(96%,96%,96%); fill-rule: evenodd;"/>
			<polygon points="609.5124 456.8335, 793.1176 456.8335, 270.5662 251.8279, 454.8444 251.8279" style="stroke: rgb(100%,48%,48%); stroke-linecap: round; stroke-width: 1; fill: rgb(100%,48%,48%); fill-rule: evenodd;"/>
			<polygon points="404.7651 456.8335, 581.9211 456.8335, 487.0902 251.8279, 665.6482 251.8279" style="stroke: rgb(100%,60%,60%); stroke-linecap: round; stroke-width: 1; fill: rgb(100%,60%,60%); fill-rule: evenodd;"/>
			<polygon points="285.4274 456.8335, 392.8201 456.8335, 673.2751 251.8279, 780.3874 251.8279" style="stroke: rgb(100%,63%,63%); stroke-linecap: round; stroke-width: 1; fill: rgb(100%,63%,63%); fill-rule: evenodd;"/>
			<polygon points="824.1297 456.8335, 870.3394 456.8335, 220.8235 251.8279, 267.0332 251.8279" style="stroke: rgb(100%,48%,48%); stroke-linecap: round; stroke-width: 1; fill: rgb(100%,48%,48%); fill-rule: evenodd;"/>
			<polygon points="565.8262 456.8335, 581.4725 456.8335, 439.2542 251.8279, 454.9004 251.8279" style="stroke: rgb(100%,45%,45%); stroke-linecap: round; stroke-width: 1; fill: rgb(100%,45%,45%); fill-rule: evenodd;"/>
			<polygon points="609.5124 456.8335, 623.7006 456.8335, 488.9409 251.8279, 503.129 251.8279" style="stroke: rgb(100%,42%,42%); stroke-linecap: round; stroke-width: 1; fill: rgb(100%,42%,42%); fill-rule: evenodd;"/>
			<polygon points="590.7257 456.8335, 605.8111 456.8335, 455.5173 251.8279, 470.6589 251.8279" style="stroke: rgb(100%,64%,64%); stroke-linecap: round; stroke-width: 1; fill: rgb(100%,64%,64%); fill-rule: evenodd;"/>
			<polygon points="74.06269 241.5776, 87.21628 241.5776, 87.21628 251.8279, 103.6167 231.3273, 87.21628 210.8268, 87.21628 221.0771, 74.06269 221.0771" style="stroke: rgb(67%,84%,90%); stroke-linecap: round; stroke-width: 1; fill: rgb(67%,84%,90%); fill-rule: evenodd;"/>
			<polygon points="116.5712 241.5776, 132.5848 241.5776, 132.5848 251.8279, 148.9853 231.3273, 132.5848 210.8268, 132.5848 221.0771, 116.5712 221.0771" style="stroke: rgb(67%,84%,90%); stroke-linecap: round; stroke-width: 1; fill: rgb(67%,84%,90%); fill-rule: evenodd;"/>
			<polygon points="193.6808 200.5765, 169.9282 200.5765, 169.9282 210.8268, 153.5277 190.3262, 169.9282 169.8256, 169.9282 180.0759, 193.6808 180.0759" style="stroke: rgb(56%,93%,56%); stroke-linecap: round; stroke-width: 1; fill: rgb(56%,93%,56%); fill-rule: evenodd;"/>
			<polygon points="206.411 241.5776, 206.411 251.8279, 221.1599 231.3273, 206.411 210.8268, 206.411 221.0771" style="stroke: rgb(67%,84%,90%); stroke-linecap: round; stroke-width: 1; fill: rgb(67%,84%,90%); fill-rule: evenodd;"/>
			<polygon points="222.0572 241.5776, 251.1935 241.5776, 251.1935 251.8279, 267.594 231.3273, 251.1935 210.8268, 251.1935 221.0771, 222.0572 221.0771" style="stroke: rgb(67%,84%,90%); stroke-linecap: round; stroke-width: 1; fill: rgb(67%,84%,90%); fill-rule: evenodd;"/>
			<polygon points="269.5568 241.5776, 330.9951 241.5776, 330.9951 251.8279, 347.3955 231.3273, 330.9951 210.8268, 330.9951 221.0771, 269.5568 221.0771" style="stroke: rgb(67%,84%,90%); stroke-linecap: round; stroke-width: 1; fill: rgb(67%,84%,90%); fill-rule: evenodd;"/>
			<polygon points="348.3489 241.5776, 401.0387 241.5776, 401.0387 251.8279, 417.4391 231.3273, 401.0387 210.8268, 401.0387 221.0771, 348.3489 221.0771" style="stroke: rgb(67%,84%,90%); stroke-linecap: round; stroke-width: 1; fill: rgb(67%,84%,90%); fill-rule: evenodd;"/>
			<polygon points="419.2337 241.5776, 420.4423 241.5776, 420.4423 251.8279, 436.8428 231.3273, 420.4423 210.8268, 420.4423 221.0771, 419.2337 221.0771" style="stroke: rgb(67%,84%,90%); stroke-linecap: round; stroke-width: 1; fill: rgb(67%,84%,90%); fill-rule: evenodd;"/>
			<polygon points="439.9832 241.5776, 439.9832 251.8279, 455.4052 231.3273, 439.9832 210.8268, 439.9832 221.0771" style="stroke: rgb(67%,84%,90%); stroke-linecap: round; stroke-width: 1; fill: rgb(67%,84%,90%); fill-rule: evenodd;"/>
			<polygon points="456.9754 241.5776, 457.511 241.5776, 457.511 251.8279, 473.9115 231.3273, 457.511 210.8268, 457.511 221.0771, 456.9754 221.0771" style="stroke: rgb(67%,84%,90%); stroke-linecap: round; stroke-width: 1; fill: rgb(67%,84%,90%); fill-rule: evenodd;"/>
			<polygon points="475.1452 241.5776, 487.4576 241.5776, 487.4576 251.8279, 503.8581 231.3273, 487.4576 210.8268, 487.4576 221.0771, 475.1452 221.0771" style="stroke: rgb(67%,84%,90%); stroke-linecap: round; stroke-width: 1; fill: rgb(67%,84%,90%); fill-rule: evenodd;"/>
			<polygon points="507.8397 241.5776, 527.5547 241.5776, 527.5547 251.8279, 543.9551 231.3273, 527.5547 210.8268, 527.5547 221.0771, 507.8397 221.0771" style="stroke: rgb(67%,84%,90%); stroke-linecap: round; stroke-width: 1; fill: rgb(67%,84%,90%); fill-rule: evenodd;"/>
			<polygon points="545.8618 241.5776, 545.8618 251.8279, 560.7791 231.3273, 545.8618 210.8268, 545.8618 221.0771" style="stroke: rgb(67%,84%,90%); stroke-linecap: round; stroke-width: 1; fill: rgb(67%,84%,90%); fill-rule: evenodd;"/>
			<polygon points="561.0595 241.5776, 619.1329 241.5776, 619.1329 251.8279, 635.5334 231.3273, 619.1329 210.8268, 619.1329 221.0771, 561.0595 221.0771" style="stroke: rgb(67%,84%,90%); stroke-linecap: round; stroke-width: 1; fill: rgb(67%,84%,90%); fill-rule: evenodd;"/>
			<polygon points="636.4867 241.5776, 650.818 241.5776, 650.818 251.8279, 667.2185 231.3273, 650.818 210.8268, 650.818 221.0771, 636.4867 221.0771" style="stroke: rgb(67%,84%,90%); stroke-linecap: round; stroke-width: 1; fill: rgb(67%,84%,90%); fill-rule: evenodd;"/>
			<polygon points="673.2751 241.5776, 699.5513 241.5776, 699.5513 251.8279, 715.9518 231.3273, 699.5513 210.8268, 699.5513 221.0771, 673.2751 221.0771" style="stroke: rgb(67%,84%,90%); stroke-linecap: round; stroke-width: 1; fill: rgb(67%,84%,90%); fill-rule: evenodd;"/>
			<polygon points="716.9612 241.5776, 765.1086 241.5776, 765.1086 251.8279, 781.509 231.3273, 765.1086 210.8268, 765.1086 221.0771, 716.9612 221.0771" style="stroke: rgb(67%,84%,90%); stroke-linecap: round; stroke-width: 1; fill: rgb(67%,84%,90%); fill-rule: evenodd;"/>
			<polygon points="787.1731 241.5776, 864.0894 241.5776, 864.0894 251.8279, 880.4898 231.3273, 864.0894 210.8268, 864.0894 221.0771, 787.1731 221.0771" style="stroke: rgb(67%,84%,90%); stroke-linecap: round; stroke-width: 1; fill: rgb(67%,84%,90%); fill-rule: evenodd;"/>
			<polygon points="881.2189 241.5776, 901.9432 241.5776, 901.9432 251.8279, 918.3437 231.3273, 901.9432 210.8268, 901.9432 221.0771, 881.2189 221.0771" style="stroke: rgb(67%,84%,90%); stroke-linecap: round; stroke-width: 1; fill: rgb(67%,84%,90%); fill-rule: evenodd;"/>
			<polygon points="918.1755 241.5776, 923.9265 241.5776, 923.9265 251.8279, 940.327 231.3273, 923.9265 210.8268, 923.9265 221.0771, 918.1755 221.0771" style="stroke: rgb(67%,84%,90%); stroke-linecap: round; stroke-width: 1; fill: rgb(67%,84%,90%); fill-rule: evenodd;"/>
			<polygon points="940.1587 241.5776, 1027.169 241.5776, 1027.169 251.8279, 1043.57 231.3273, 1027.169 210.8268, 1027.169 221.0771, 940.1587 221.0771" style="stroke: rgb(67%,84%,90%); stroke-linecap: round; stroke-width: 1; fill: rgb(67%,84%,90%); fill-rule: evenodd;"/>
			<polygon points="1043.065 241.5776, 1046.461 241.5776, 1046.461 251.8279, 1062.861 231.3273, 1046.461 210.8268, 1046.461 221.0771, 1043.065 221.0771" style="stroke: rgb(67%,84%,90%); stroke-linecap: round; stroke-width: 1; fill: rgb(67%,84%,90%); fill-rule: evenodd;"/>
			<polygon points="1062.693 241.5776, 1103.943 241.5776, 1103.943 251.8279, 1120.343 231.3273, 1103.943 210.8268, 1103.943 221.0771, 1062.693 221.0771" style="stroke: rgb(67%,84%,90%); stroke-linecap: round; stroke-width: 1; fill: rgb(67%,84%,90%); fill-rule: evenodd;"/>
			<polygon points="127.3385 487.5844, 87.26659 487.5844, 87.26659 497.8346, 70.86614 477.3341, 87.26659 456.8335, 87.26659 467.0838, 127.3385 467.0838" style="stroke: rgb(56%,93%,56%); stroke-linecap: round; stroke-width: 1; fill: rgb(56%,93%,56%); fill-rule: evenodd;"/>
			<polygon points="214.7668 487.5844, 143.9072 487.5844, 143.9072 497.8346, 127.5067 477.3341, 143.9072 456.8335, 143.9072 467.0838, 214.7668 467.0838" style="stroke: rgb(56%,93%,56%); stroke-linecap: round; stroke-width: 1; fill: rgb(56%,93%,56%); fill-rule: evenodd;"/>
			<polygon points="228.3942 528.5855, 260.7271 528.5855, 260.7271 538.8358, 277.1276 518.3352, 260.7271 497.8346, 260.7271 508.0849, 228.3942 508.0849" style="stroke: rgb(67%,84%,90%); stroke-linecap: round; stroke-width: 1; fill: rgb(67%,84%,90%); fill-rule: evenodd;"/>
			<polygon points="348.8536 487.5844, 301.0427 487.5844, 301.0427 497.8346, 284.6422 477.3341, 301.0427 456.8335, 301.0427 467.0838, 348.8536 467.0838" style="stroke: rgb(56%,93%,56%); stroke-linecap: round; stroke-width: 1; fill: rgb(56%,93%,56%); fill-rule: evenodd;"/>
			<polygon points="392.8201 487.5844, 366.0392 487.5844, 366.0392 497.8346, 349.6387 477.3341, 366.0392 456.8335, 366.0392 467.0838, 392.8201 467.0838" style="stroke: rgb(56%,93%,56%); stroke-linecap: round; stroke-width: 1; fill: rgb(56%,93%,56%); fill-rule: evenodd;"/>
			<polygon points="433.9266 487.5844, 419.5953 487.5844, 419.5953 497.8346, 403.1949 477.3341, 419.5953 456.8335, 419.5953 467.0838, 433.9266 467.0838" style="stroke: rgb(56%,93%,56%); stroke-linecap: round; stroke-width: 1; fill: rgb(56%,93%,56%); fill-rule: evenodd;"/>
			<polygon points="509.0174 487.5844, 449.9345 487.5844, 449.9345 497.8346, 433.534 477.3341, 449.9345 456.8335, 449.9345 467.0838, 509.0174 467.0838" style="stroke: rgb(56%,93%,56%); stroke-linecap: round; stroke-width: 1; fill: rgb(56%,93%,56%); fill-rule: evenodd;"/>
			<polygon points="524.4394 487.5844, 524.4394 497.8346, 509.5221 477.3341, 524.4394 456.8335, 524.4394 467.0838" style="stroke: rgb(56%,93%,56%); stroke-linecap: round; stroke-width: 1; fill: rgb(56%,93%,56%); fill-rule: evenodd;"/>
			<polygon points="560.5547 487.5844, 540.5033 487.5844, 540.5033 497.8346, 524.1029 477.3341, 540.5033 456.8335, 540.5033 467.0838, 560.5547 467.0838" style="stroke: rgb(56%,93%,56%); stroke-linecap: round; stroke-width: 1; fill: rgb(56%,93%,56%); fill-rule: evenodd;"/>
			<polygon points="580.7435 487.5844, 580.7435 497.8346, 565.1533 477.3341, 580.7435 456.8335, 580.7435 467.0838" style="stroke: rgb(56%,93%,56%); stroke-linecap: round; stroke-width: 1; fill: rgb(56%,93%,56%); fill-rule: evenodd;"/>
			<polygon points="604.4091 487.5844, 604.4091 497.8346, 588.4825 477.3341, 604.4091 456.8335, 604.4091 467.0838" style="stroke: rgb(56%,93%,56%); stroke-linecap: round; stroke-width: 1; fill: rgb(56%,93%,56%); fill-rule: evenodd;"/>
			<polygon points="624.71 487.5844, 624.71 497.8346, 608.9516 477.3341, 624.71 456.8335, 624.71 467.0838" style="stroke: rgb(56%,93%,56%); stroke-linecap: round; stroke-width: 1; fill: rgb(56%,93%,56%); fill-rule: evenodd;"/>
			<polygon points="644.2818 487.5844, 641.8956 487.5844, 641.8956 497.8346, 625.4951 477.3341, 641.8956 456.8335, 641.8956 467.0838, 644.2818 467.0838" style="stroke: rgb(56%,93%,56%); stroke-linecap: round; stroke-width: 1; fill: rgb(56%,93%,56%); fill-rule: evenodd;"/>
			<polygon points="713.8208 487.5844, 662.3086 487.5844, 662.3086 497.8346, 645.9081 477.3341, 662.3086 456.8335, 662.3086 467.0838, 713.8208 467.0838" style="stroke: rgb(56%,93%,56%); stroke-linecap: round; stroke-width: 1; fill: rgb(56%,93%,56%); fill-rule: evenodd;"/>
			<polygon points="794.127 487.5844, 732.6887 487.5844, 732.6887 497.8346, 716.2883 477.3341, 732.6887 456.8335, 732.6887 467.0838, 794.127 467.0838" style="stroke: rgb(56%,93%,56%); stroke-linecap: round; stroke-width: 1; fill: rgb(56%,93%,56%); fill-rule: evenodd;"/>
			<polygon points="822.8398 487.5844, 810.0227 487.5844, 810.0227 497.8346, 793.6223 477.3341, 810.0227 456.8335, 810.0227 467.0838, 822.8398 467.0838" style="stroke: rgb(56%,93%,56%); stroke-linecap: round; stroke-width: 1; fill: rgb(56%,93%,56%); fill-rule: evenodd;"/>
			<polygon points="869.2739 487.5844, 840.3058 487.5844, 840.3058 497.8346, 823.9054 477.3341, 840.3058 456.8335, 840.3058 467.0838, 869.2739 467.0838" style="stroke: rgb(56%,93%,56%); stroke-linecap: round; stroke-width: 1; fill: rgb(56%,93%,56%); fill-rule: evenodd;"/>
			<polygon points="901.1272 487.5844, 890.329 487.5844, 890.329 497.8346, 873.9285 477.3341, 890.329 456.8335, 890.329 467.0838, 901.1272 467.0838" style="stroke: rgb(56%,93%,56%); stroke-linecap: round; stroke-width: 1; fill: rgb(56%,93%,56%); fill-rule: evenodd;"/>
			<polygon points="921.7085 487.5844, 917.8081 487.5844, 917.8081 497.8346, 901.4076 477.3341, 917.8081 456.8335, 917.8081 467.0838, 921.7085 467.0838" style="stroke: rgb(56%,93%,56%); stroke-linecap: round; stroke-width: 1; fill: rgb(56%,93%,56%); fill-rule: evenodd;"/>
			<polygon points="966.5162 487.5844, 938.3893 487.5844, 938.3893 497.8346, 921.9889 477.3341, 938.3893 456.8335, 938.3893 467.0838, 966.5162 467.0838" style="stroke: rgb(56%,93%,56%); stroke-linecap: round; stroke-width: 1; fill: rgb(56%,93%,56%); fill-rule: evenodd;"/>
			<polygon points="1109.52 487.5844, 983.9822 487.5844, 983.9822 497.8346, 967.5817 477.3341, 983.9822 456.8335, 983.9822 467.0838, 1109.52 467.0838" style="stroke: rgb(56%,93%,56%); stroke-linecap: round; stroke-width: 1; fill: rgb(56%,93%,56%); fill-rule: evenodd;"/>
			<polygon points="1122.025 528.5855, 1145.946 528.5855, 1145.946 538.8358, 1162.347 518.3352, 1145.946 497.8346, 1145.946 508.0849, 1122.025 508.0849" style="stroke: rgb(67%,84%,90%); stroke-linecap: round; stroke-width: 1; fill: rgb(67%,84%,90%); fill-rule: evenodd;"/>
			<polygon points="1165.768 528.5855, 1177.575 528.5855, 1177.575 538.8358, 1193.976 518.3352, 1177.575 497.8346, 1177.575 508.0849, 1165.768 508.0849" style="stroke: rgb(67%,84%,90%); stroke-linecap: round; stroke-width: 1; fill: rgb(67%,84%,90%); fill-rule: evenodd;"/>
			<polygon points="1264.917 487.5844, 1210.881 487.5844, 1210.881 497.8346, 1194.481 477.3341, 1210.881 456.8335, 1210.881 467.0838, 1264.917 467.0838" style="stroke: rgb(56%,93%,56%); stroke-linecap: round; stroke-width: 1; fill: rgb(56%,93%,56%); fill-rule: evenodd;"/>
			<polygon points="1346.401 487.5844, 1283.953 487.5844, 1283.953 497.8346, 1267.552 477.3341, 1283.953 456.8335, 1283.953 467.0838, 1346.401 467.0838" style="stroke: rgb(56%,93%,56%); stroke-linecap: round; stroke-width: 1; fill: rgb(56%,93%,56%); fill-rule: evenodd;"/>
			<path d="M 1120.343042,169.825647 L 1120.343042,251.827897 Z" style="stroke: rgb(0%,0%,0%); stroke-linecap: butt; stroke-width: 1;"/>
			<path d="M 70.866142,210.826772 L 1120.343042,210.826772 Z" style="stroke: rgb(0%,0%,0%); stroke-linecap: butt; stroke-width: 1;"/>
			<path d="M 70.866142,169.825647 L 70.866142,251.827897 Z" style="stroke: rgb(0%,0%,0%); stroke-linecap: butt; stroke-width: 1;"/>
			<path d="M 631.663887,210.826772 L 631.663887,231.327334 Z" style="stroke: rgb(0%,0%,0%); stroke-linecap: butt; stroke-width: 1;"/>
			<path d="M 631.663887,210.826772 L 631.663887,223.127109 Z" style="stroke: rgb(0%,0%,0%); stroke-linecap: butt; stroke-width: 1;"/>
			<path d="M 1346.400613,456.833521 L 1346.400613,538.835771 Z" style="stroke: rgb(0%,0%,0%); stroke-linecap: butt; stroke-width: 1;"/>
			<path d="M 70.866142,497.834646 L 1346.400613,497.834646 Z" style="stroke: rgb(0%,0%,0%); stroke-linecap: butt; stroke-width: 1;"/>
			<path d="M 70.866142,456.833521 L 70.866142,538.835771 Z" style="stroke: rgb(0%,0%,0%); stroke-linecap: butt; stroke-width: 1;"/>
			<path d="M 631.663887,497.834646 L 631.663887,518.335208 Z" style="stroke: rgb(0%,0%,0%); stroke-linecap: butt; stroke-width: 1;"/>
			<path d="M 1192.461632,497.834646 L 1192.461632,518.335208 Z" style="stroke: rgb(0%,0%,0%); stroke-linecap: butt; stroke-width: 1;"/>
			<path d="M 631.663887,497.834646 L 631.663887,510.134983 Z" style="stroke: rgb(0%,0%,0%); stroke-linecap: butt; stroke-width: 1;"/>
			<path d="M 1192.461632,497.834646 L 1192.461632,510.134983 Z" style="stroke: rgb(0%,0%,0%); stroke-linecap: butt; stroke-width: 1;"/>
			<g transform=" matrix(0.707107,0.707107,-0.707107,0.707107,631.663887,231.327334)">
				<text style="font-family: Helvetica; font-size: 6px;fill: rgb(0%,0%,0%); stroke:none;" transform="translate(0,0) scale(1,-1)" x="0" y="0">10000</text>
			</g>
			<g transform=" matrix(0.707107,0.707107,-0.707107,0.707107,631.663887,518.335208)">
				<text style="font-family: Helvetica; font-size: 6px;fill: rgb(0%,0%,0%); stroke:none;" transform="translate(0,0) scale(1,-1)" x="0" y="0">10000</text>
			</g>
			<g transform=" matrix(0.707107,0.707107,-0.707107,0.707107,1192.461632,518.335208)">
				<text style="font-family: Helvetica; font-size: 6px;fill: rgb(0%,0%,0%); stroke:none;" transform="translate(0,0) scale(1,-1)" x="0" y="0">20000</text>
			</g>
			<g transform=" matrix(0.707107,0.707107,-0.707107,0.707107,88.839709,251.827897)">
				<text style="font-family: Helvetica; font-size: 10px;fill: rgb(0%,0%,0%); stroke:none;" transform="translate(0,0) scale(1,-1)" x="0" y="0">Gene_00127</text>
			</g>
			<g transform=" matrix(0.707107,0.707107,-0.707107,0.707107,132.778213,251.827897)">
				<text style="font-family: Helvetica; font-size: 10px;fill: rgb(0%,0%,0%); stroke:none;" transform="translate(0,0) scale(1,-1)" x="0" y="0">Gene_00128</text>
			</g>
			<g transform=" matrix(0.707107,-0.707107,0.707107,0.707107,173.604289,169.825647)">
				<text style="font-family: Helvetica; font-size: 10px;fill: rgb(0%,0%,0%); stroke:none;" transform="translate(0,0) scale(1,-1)" x="0" y="0">Gene_00129</text>
			</g>
			<g transform=" matrix(0.707107,0.707107,-0.707107,0.707107,213.785447,251.827897)">
				<text style="font-family: Helvetica; font-size: 10px;fill: rgb(0%,0%,0%); stroke:none;" transform="translate(0,0) scale(1,-1)" x="0" y="0">Gene_00130</text>
			</g>
			<g transform=" matrix(0.707107,0.707107,-0.707107,0.707107,244.825602,251.827897)">
				<text style="font-family: Helvetica; font-size: 10px;fill: rgb(0%,0%,0%); stroke:none;" transform="translate(0,0) scale(1,-1)" x="0" y="0">Gene_00131</text>
			</g>
			<g transform=" matrix(0.707107,0.707107,-0.707107,0.707107,308.476146,251.827897)">
				<text style="font-family: Helvetica; font-size: 10px;fill: rgb(0%,0%,0%); stroke:none;" transform="translate(0,0) scale(1,-1)" x="0" y="0">Gene_00132</text>
			</g>
			<g transform=" matrix(0.707107,0.707107,-0.707107,0.707107,382.894007,251.827897)">
				<text style="font-family: Helvetica; font-size: 16px;fill: rgb(0%,0%,100%); stroke:none;" transform="translate(0,0) scale(1,-1)" x="0" y="0">Gene_00133 (79.9)</text>
			</g>
			<g transform=" matrix(0.707107,0.707107,-0.707107,0.707107,428.038226,251.827897)">
				<text style="font-family: Helvetica; font-size: 10px;fill: rgb(0%,0%,0%); stroke:none;" transform="translate(0,0) scale(1,-1)" x="0" y="0">Gene_00134</text>
			</g>
			<g transform=" matrix(0.707107,0.707107,-0.707107,0.707107,447.694187,251.827897)">
				<text style="font-family: Helvetica; font-size: 10px;fill: rgb(0%,0%,0%); stroke:none;" transform="translate(0,0) scale(1,-1)" x="0" y="0">Gene_00135</text>
			</g>
			<g transform=" matrix(0.707107,0.707107,-0.707107,0.707107,465.443435,251.827897)">
				<text style="font-family: Helvetica; font-size: 10px;fill: rgb(0%,0%,0%); stroke:none;" transform="translate(0,0) scale(1,-1)" x="0" y="0">Gene_00136</text>
			</g>
			<g transform=" matrix(0.707107,0.707107,-0.707107,0.707107,489.501659,251.827897)">
				<text style="font-family: Helvetica; font-size: 10px;fill: rgb(0%,0%,0%); stroke:none;" transform="translate(0,0) scale(1,-1)" x="0" y="0">Gene_00137</text>
			</g>
			<g transform=" matrix(0.707107,0.707107,-0.707107,0.707107,525.897432,251.827897)">
				<text style="font-family: Helvetica; font-size: 10px;fill: rgb(0%,0%,0%); stroke:none;" transform="translate(0,0) scale(1,-1)" x="0" y="0">Gene_00138</text>
			</g>
			<g transform=" matrix(0.707107,0.707107,-0.707107,0.707107,553.320442,251.827897)">
				<text style="font-family: Helvetica; font-size: 10px;fill: rgb(0%,0%,0%); stroke:none;" transform="translate(0,0) scale(1,-1)" x="0" y="0">Gene_00139</text>
			</g>
			<g transform=" matrix(0.707107,0.707107,-0.707107,0.707107,598.296421,251.827897)">
				<text style="font-family: Helvetica; font-size: 10px;fill: rgb(0%,0%,0%); stroke:none;" transform="translate(0,0) scale(1,-1)" x="0" y="0">Gene_00140</text>
			</g>
			<g transform=" matrix(0.707107,0.707107,-0.707107,0.707107,651.852606,251.827897)">
				<text style="font-family: Helvetica; font-size: 10px;fill: rgb(0%,0%,0%); stroke:none;" transform="translate(0,0) scale(1,-1)" x="0" y="0">Gene_00141</text>
			</g>
			<g transform=" matrix(0.707107,0.707107,-0.707107,0.707107,694.613434,251.827897)">
				<text style="font-family: Helvetica; font-size: 10px;fill: rgb(0%,0%,0%); stroke:none;" transform="translate(0,0) scale(1,-1)" x="0" y="0">Gene_00142</text>
			</g>
			<g transform=" matrix(0.707107,0.707107,-0.707107,0.707107,749.235134,251.827897)">
				<text style="font-family: Helvetica; font-size: 10px;fill: rgb(0%,0%,0%); stroke:none;" transform="translate(0,0) scale(1,-1)" x="0" y="0">Gene_00143</text>
			</g>
			<g transform=" matrix(0.707107,0.707107,-0.707107,0.707107,833.831474,251.827897)">
				<text style="font-family: Helvetica; font-size: 10px;fill: rgb(0%,0%,0%); stroke:none;" transform="translate(0,0) scale(1,-1)" x="0" y="0">Gene_00144</text>
			</g>
			<g transform=" matrix(0.707107,0.707107,-0.707107,0.707107,899.781289,251.827897)">
				<text style="font-family: Helvetica; font-size: 10px;fill: rgb(0%,0%,0%); stroke:none;" transform="translate(0,0) scale(1,-1)" x="0" y="0">Gene_00145</text>
			</g>
			<g transform=" matrix(0.707107,0.707107,-0.707107,0.707107,929.25121,251.827897)">
				<text style="font-family: Helvetica; font-size: 10px;fill: rgb(0%,0%,0%); stroke:none;" transform="translate(0,0) scale(1,-1)" x="0" y="0">Gene_00146</text>
			</g>
			<g transform=" matrix(0.707107,0.707107,-0.707107,0.707107,991.864279,251.827897)">
				<text style="font-family: Helvetica; font-size: 10px;fill: rgb(0%,0%,0%); stroke:none;" transform="translate(0,0) scale(1,-1)" x="0" y="0">Gene_00147</text>
			</g>
			<g transform=" matrix(0.707107,0.707107,-0.707107,0.707107,1052.963193,251.827897)">
				<text style="font-family: Helvetica; font-size: 10px;fill: rgb(0%,0%,0%); stroke:none;" transform="translate(0,0) scale(1,-1)" x="0" y="0">Gene_00148</text>
			</g>
			<g transform=" matrix(0.707107,0.707107,-0.707107,0.707107,1091.518038,251.827897)">
				<text style="font-family: Helvetica; font-size: 10px;fill: rgb(0%,0%,0%); stroke:none;" transform="translate(0,0) scale(1,-1)" x="0" y="0">Gene_00149</text>
			</g>
			<g transform=" matrix(0.707107,-0.707107,0.707107,0.707107,99.102308,456.833521)">
				<text style="font-family: Helvetica; font-size: 10px;fill: rgb(0%,0%,0%); stroke:none;" transform="translate(0,0) scale(1,-1)" x="0" y="0">Gene_00185</text>
			</g>
			<g transform=" matrix(0.707107,-0.707107,0.707107,0.707107,171.136779,456.833521)">
				<text style="font-family: Helvetica; font-size: 10px;fill: rgb(0%,0%,0%); stroke:none;" transform="translate(0,0) scale(1,-1)" x="0" y="0">Gene_00186</text>
			</g>
			<g transform=" matrix(0.707107,0.707107,-0.707107,0.707107,252.76089,538.835771)">
				<text style="font-family: Helvetica; font-size: 10px;fill: rgb(0%,0%,0%); stroke:none;" transform="translate(0,0) scale(1,-1)" x="0" y="0">Gene_00187</text>
			</g>
			<g transform=" matrix(0.707107,-0.707107,0.707107,0.707107,316.747913,456.833521)">
				<text style="font-family: Helvetica; font-size: 10px;fill: rgb(0%,0%,0%); stroke:none;" transform="translate(0,0) scale(1,-1)" x="0" y="0">Gene_00188</text>
			</g>
			<g transform=" matrix(0.707107,-0.707107,0.707107,0.707107,371.229414,456.833521)">
				<text style="font-family: Helvetica; font-size: 10px;fill: rgb(0%,0%,0%); stroke:none;" transform="translate(0,0) scale(1,-1)" x="0" y="0">Gene_00189</text>
			</g>
			<g transform=" matrix(0.707107,-0.707107,0.707107,0.707107,418.560744,456.833521)">
				<text style="font-family: Helvetica; font-size: 10px;fill: rgb(0%,0%,0%); stroke:none;" transform="translate(0,0) scale(1,-1)" x="0" y="0">Gene_00190</text>
			</g>
			<g transform=" matrix(0.707107,-0.707107,0.707107,0.707107,471.275732,456.833521)">
				<text style="font-family: Helvetica; font-size: 10px;fill: rgb(0%,0%,0%); stroke:none;" transform="translate(0,0) scale(1,-1)" x="0" y="0">Gene_00191</text>
			</g>
			<g transform=" matrix(0.707107,-0.707107,0.707107,0.707107,516.980748,456.833521)">
				<text style="font-family: Helvetica; font-size: 10px;fill: rgb(0%,0%,0%); stroke:none;" transform="translate(0,0) scale(1,-1)" x="0" y="0">Gene_00192</text>
			</g>
			<g transform=" matrix(0.707107,-0.707107,0.707107,0.707107,542.328806,456.833521)">
				<text style="font-family: Helvetica; font-size: 10px;fill: rgb(0%,0%,0%); stroke:none;" transform="translate(0,0) scale(1,-1)" x="0" y="0">Gene_00193</text>
			</g>
			<g transform=" matrix(0.707107,-0.707107,0.707107,0.707107,572.948363,456.833521)">
				<text style="font-family: Helvetica; font-size: 10px;fill: rgb(0%,0%,0%); stroke:none;" transform="translate(0,0) scale(1,-1)" x="0" y="0">Gene_00194</text>
			</g>
			<g transform=" matrix(0.707107,-0.707107,0.707107,0.707107,596.445789,456.833521)">
				<text style="font-family: Helvetica; font-size: 10px;fill: rgb(0%,0%,0%); stroke:none;" transform="translate(0,0) scale(1,-1)" x="0" y="0">Gene_00195</text>
			</g>
			<g transform=" matrix(0.707107,-0.707107,0.707107,0.707107,616.830787,456.833521)">
				<text style="font-family: Helvetica; font-size: 10px;fill: rgb(0%,0%,0%); stroke:none;" transform="translate(0,0) scale(1,-1)" x="0" y="0">Gene_00196</text>
			</g>
			<g transform=" matrix(0.707107,-0.707107,0.707107,0.707107,634.888474,456.833521)">
				<text style="font-family: Helvetica; font-size: 10px;fill: rgb(0%,0%,0%); stroke:none;" transform="translate(0,0) scale(1,-1)" x="0" y="0">Gene_00197</text>
			</g>
			<g transform=" matrix(0.707107,-0.707107,0.707107,0.707107,679.864453,456.833521)">
				<text style="font-family: Helvetica; font-size: 16px;fill: rgb(0%,0%,100%); stroke:none;" transform="translate(0,0) scale(1,-1)" x="0" y="0">Gene_00198 (79.9)</text>
			</g>
			<g transform=" matrix(0.707107,-0.707107,0.707107,0.707107,755.20763,456.833521)">
				<text style="font-family: Helvetica; font-size: 10px;fill: rgb(0%,0%,0%); stroke:none;" transform="translate(0,0) scale(1,-1)" x="0" y="0">Gene_00199</text>
			</g>
			<g transform=" matrix(0.707107,-0.707107,0.707107,0.707107,808.231057,456.833521)">
				<text style="font-family: Helvetica; font-size: 10px;fill: rgb(0%,0%,0%); stroke:none;" transform="translate(0,0) scale(1,-1)" x="0" y="0">Gene_00200</text>
			</g>
			<g transform=" matrix(0.707107,-0.707107,0.707107,0.707107,846.589623,456.833521)">
				<text style="font-family: Helvetica; font-size: 10px;fill: rgb(0%,0%,0%); stroke:none;" transform="translate(0,0) scale(1,-1)" x="0" y="0">Gene_00201</text>
			</g>
			<g transform=" matrix(0.707107,-0.707107,0.707107,0.707107,887.527858,456.833521)">
				<text style="font-family: Helvetica; font-size: 10px;fill: rgb(0%,0%,0%); stroke:none;" transform="translate(0,0) scale(1,-1)" x="0" y="0">Gene_00202</text>
			</g>
			<g transform=" matrix(0.707107,-0.707107,0.707107,0.707107,911.558042,456.833521)">
				<text style="font-family: Helvetica; font-size: 10px;fill: rgb(0%,0%,0%); stroke:none;" transform="translate(0,0) scale(1,-1)" x="0" y="0">Gene_00203</text>
			</g>
			<g transform=" matrix(0.707107,-0.707107,0.707107,0.707107,944.25255,456.833521)">
				<text style="font-family: Helvetica; font-size: 10px;fill: rgb(0%,0%,0%); stroke:none;" transform="translate(0,0) scale(1,-1)" x="0" y="0">Gene_00204</text>
			</g>
			<g transform=" matrix(0.707107,-0.707107,0.707107,0.707107,1038.550691,456.833521)">
				<text style="font-family: Helvetica; font-size: 10px;fill: rgb(0%,0%,0%); stroke:none;" transform="translate(0,0) scale(1,-1)" x="0" y="0">Gene_00205</text>
			</g>
			<g transform=" matrix(0.707107,0.707107,-0.707107,0.707107,1142.186114,538.835771)">
				<text style="font-family: Helvetica; font-size: 10px;fill: rgb(0%,0%,0%); stroke:none;" transform="translate(0,0) scale(1,-1)" x="0" y="0">Gene_00206</text>
			</g>
			<g transform=" matrix(0.707107,0.707107,-0.707107,0.707107,1179.871723,538.835771)">
				<text style="font-family: Helvetica; font-size: 10px;fill: rgb(0%,0%,0%); stroke:none;" transform="translate(0,0) scale(1,-1)" x="0" y="0">Gene_00207</text>
			</g>
			<g transform=" matrix(0.707107,-0.707107,0.707107,0.707107,1229.698602,456.833521)">
				<text style="font-family: Helvetica; font-size: 10px;fill: rgb(0%,0%,0%); stroke:none;" transform="translate(0,0) scale(1,-1)" x="0" y="0">Gene_00208</text>
			</g>
			<g transform=" matrix(0.707107,-0.707107,0.707107,0.707107,1306.976532,456.833521)">
				<text style="font-family: Helvetica; font-size: 10px;fill: rgb(0%,0%,0%); stroke:none;" transform="translate(0,0) scale(1,-1)" x="0" y="0">Gene_00209</text>
			</g>
			<g transform=" matrix(1,0,-0,1,70,169.825647)">
				<text style="font-family: Helvetica; font-size: 12px;fill: rgb(60%,60%,60%); stroke:none;" transform="translate(0,0) scale(1,-1)" x="0" y="0">megahit_89924 (left 4948bp, right 21609bp)</text>
			</g>
			<g transform=" matrix(1,0,-0,1,70,456.833521)">
				<text style="font-family: Helvetica; font-size: 12px;fill: rgb(60%,60%,60%); stroke:none;" transform="translate(0,0) scale(1,-1)" x="0" y="0">megahit_8938 (left 105196bp, right 27252bp)</text>
			</g>
		</g>
	</g>
</svg>
