<?xml version="1.0" encoding="utf-8"?>
<!DOCTYPE svg
  PUBLIC '-//W3C//DTD SVG 1.0//EN'
  'http://www.w3.org/TR/2001/REC-SVG-20010904/DTD/svg10.dtd'>
<svg fill-rule="evenodd" height="708.6614173228346" preserveAspectRatio="xMinYMin meet" version="1.0" viewBox="0 0 1417 708" width="1417.3228346456692" xmlns="http://www.w3.org/2000/svg" xmlns:xlink="http://www.w3.org/1999/xlink">
	<title>...</title>
	<desc>...</desc>
	<clipPath id="clip">
		<rect height="708.6614173228346" width="1417.3228346456692" x="0" y="0"/>
	</clipPath>
	<g id="group" style="clip-path: url(#clip)" transform="scale(1,-1) translate(0,-708)">
		<g transform="">
			<polygon points="70.86614 169.8256, 1346.374 169.8256, 1346.374 251.8279, 70.86614 251.8279" style="stroke: rgb(96%,96%,96%); stroke-linecap: butt; stroke-width: 1; fill: rgb(96%,96%,96%); fill-rule: evenodd;"/>
			<polygon points="70.86614 456.8335, 1288.906 456.8335, 1288.906 538.8358, 70.86614 538.8358" style="stroke: rgb(96%,96%,96%); stroke-linecap: butt; stroke-width: 1; fill: rgb(96%,96%,96%); fill-rule: evenodd;"/>
			<polygon points="71.27839 456.8335, 727.1715 456.8335, 688.997 251.8279, 1346.374 251.8279" style="stroke: rgb(100%,6%,6%); stroke-linecap: round; stroke-width: 1; fill: rgb(100%,6%,6%); fill-rule: evenodd;"/>
			<polygon points="70.86614 241.5776, 184.9847 241.5776, 184.9847 251.8279, 201.3852 231.3273, 184.9847 210.8268, 184.9847 221.0771, 70.86614 221.0771" style="stroke: rgb(67%,84%,90%); stroke-linecap: round; stroke-width: 1; fill: rgb(67%,84%,90%); fill-rule: evenodd;"/>
			<polygon points="307.9936 200.5765, 228.9989 200.5765, 228.9989 210.8268, 212.5984 190.3262, 228.9989 169.8256, 228.9989 180.0759, 307.9936 180.0759" style="stroke: rgb(56%,93%,56%); stroke-linecap: round; stroke-width: 1; fill: rgb(56%,93%,56%); fill-rule: evenodd;"/>
			<polygon points="370.2436 200.5765, 327.1149 200.5765, 327.1149 210.8268, 310.7144 190.3262, 327.1149 169.8256, 327.1149 180.0759, 370.2436 180.0759" style="stroke: rgb(56%,93%,56%); stroke-linecap: round; stroke-width: 1; fill: rgb(56%,93%,56%); fill-rule: evenodd;"/>
			<polygon points="487.8179 200.5765, 391.2613 200.5765, 391.2613 210.8268, 374.8609 190.3262, 391.2613 169.8256, 391.2613 180.0759, 487.8179 180.0759" style="stroke: rgb(56%,93%,56%); stroke-linecap: round; stroke-width: 1; fill: rgb(56%,93%,56%); fill-rule: evenodd;"/>
			<polygon points="502.5766 241.5776, 559.3097 241.5776, 559.3097 251.8279, 575.7101 231.3273, 559.3097 210.8268, 559.3097 221.0771, 502.5766 221.0771" style="stroke: rgb(67%,84%,90%); stroke-linecap: round; stroke-width: 1; fill: rgb(67%,84%,90%); fill-rule: evenodd;"/>
			<polygon points="669.3738 200.5765, 598.789 200.5765, 598.789 210.8268, 582.3886 190.3262, 598.789 169.8256, 598.789 180.0759, 669.3738 180.0759" style="stroke: rgb(56%,93%,56%); stroke-linecap: round; stroke-width: 1; fill: rgb(56%,93%,56%); fill-rule: evenodd;"/>
			<polygon points="789.5865 200.5765, 705.3974 200.5765, 705.3974 210.8268, 688.997 190.3262, 705.3974 169.8256, 705.3974 180.0759, 789.5865 180.0759" style="stroke: rgb(56%,93%,56%); stroke-linecap: round; stroke-width: 1; fill: rgb(56%,93%,56%); fill-rule: evenodd;"/>
			<polygon points="980.047 200.5765, 824.8681 200.5765, 824.8681 210.8268, 808.4677 190.3262, 824.8681 169.8256, 824.8681 180.0759, 980.047 180.0759" style="stroke: rgb(56%,93%,56%); stroke-linecap: round; stroke-width: 1; fill: rgb(56%,93%,56%); fill-rule: evenodd;"/>
			<polygon points="1020.035 200.5765, 997.6842 200.5765, 997.6842 210.8268, 981.2838 190.3262, 997.6842 169.8256, 997.6842 180.0759, 1020.035 180.0759" style="stroke: rgb(56%,93%,56%); stroke-linecap: round; stroke-width: 1; fill: rgb(56%,93%,56%); fill-rule: evenodd;"/>
			<polygon points="1070.578 200.5765, 1056.389 200.5765, 1056.389 210.8268, 1039.988 190.3262, 1056.389 169.8256, 1056.389 180.0759, 1070.578 180.0759" style="stroke: rgb(56%,93%,56%); stroke-linecap: round; stroke-width: 1; fill: rgb(56%,93%,56%); fill-rule: evenodd;"/>
			<polygon points="1334.584 200.5765, 1125.73 200.5765, 1125.73 210.8268, 1109.329 190.3262, 1125.73 169.8256, 1125.73 180.0759, 1334.584 180.0759" style="stroke: rgb(56%,93%,56%); stroke-linecap: round; stroke-width: 1; fill: rgb(56%,93%,56%); fill-rule: evenodd;"/>
			<polygon points="83.0688 528.5855, 291.9229 528.5855, 291.9229 538.8358, 308.3234 518.3352, 291.9229 497.8346, 291.9229 508.0849, 83.0688 508.0849" style="stroke: rgb(67%,84%,90%); stroke-linecap: round; stroke-width: 1; fill: rgb(67%,84%,90%); fill-rule: evenodd;"/>
			<polygon points="347.0751 528.5855, 361.2637 528.5855, 361.2637 538.8358, 377.6642 518.3352, 361.2637 497.8346, 361.2637 508.0849, 347.0751 508.0849" style="stroke: rgb(67%,84%,90%); stroke-linecap: round; stroke-width: 1; fill: rgb(67%,84%,90%); fill-rule: evenodd;"/>
			<polygon points="397.6172 528.5855, 419.9684 528.5855, 419.9684 538.8358, 436.3689 518.3352, 419.9684 497.8346, 419.9684 508.0849, 397.6172 508.0849" style="stroke: rgb(67%,84%,90%); stroke-linecap: round; stroke-width: 1; fill: rgb(67%,84%,90%); fill-rule: evenodd;"/>
			<polygon points="437.6056 528.5855, 592.7845 528.5855, 592.7845 538.8358, 609.185 518.3352, 592.7845 497.8346, 592.7845 508.0849, 437.6056 508.0849" style="stroke: rgb(67%,84%,90%); stroke-linecap: round; stroke-width: 1; fill: rgb(67%,84%,90%); fill-rule: evenodd;"/>
			<polygon points="628.0661 528.5855, 710.7711 528.5855, 710.7711 538.8358, 727.1715 518.3352, 710.7711 497.8346, 710.7711 508.0849, 628.0661 508.0849" style="stroke: rgb(67%,84%,90%); stroke-linecap: round; stroke-width: 1; fill: rgb(67%,84%,90%); fill-rule: evenodd;"/>
			<polygon points="737.8076 528.5855, 763.8692 528.5855, 763.8692 538.8358, 780.2696 518.3352, 763.8692 497.8346, 763.8692 508.0849, 737.8076 508.0849" style="stroke: rgb(67%,84%,90%); stroke-linecap: round; stroke-width: 1; fill: rgb(67%,84%,90%); fill-rule: evenodd;"/>
			<polygon points="795.2756 528.5855, 906.1786 528.5855, 906.1786 538.8358, 922.579 518.3352, 906.1786 497.8346, 906.1786 508.0849, 795.2756 508.0849" style="stroke: rgb(67%,84%,90%); stroke-linecap: round; stroke-width: 1; fill: rgb(67%,84%,90%); fill-rule: evenodd;"/>
			<polygon points="955.9715 528.5855, 961.0081 528.5855, 961.0081 538.8358, 977.4086 518.3352, 961.0081 497.8346, 961.0081 508.0849, 955.9715 508.0849" style="stroke: rgb(67%,84%,90%); stroke-linecap: round; stroke-width: 1; fill: rgb(67%,84%,90%); fill-rule: evenodd;"/>
			<polygon points="1000.989 528.5855, 1081.963 528.5855, 1081.963 538.8358, 1098.363 518.3352, 1081.963 497.8346, 1081.963 508.0849, 1000.989 508.0849" style="stroke: rgb(67%,84%,90%); stroke-linecap: round; stroke-width: 1; fill: rgb(67%,84%,90%); fill-rule: evenodd;"/>
			<polygon points="1102.403 528.5855, 1217.511 528.5855, 1217.511 538.8358, 1233.912 518.3352, 1217.511 497.8346, 1217.511 508.0849, 1102.403 508.0849" style="stroke: rgb(67%,84%,90%); stroke-linecap: round; stroke-width: 1; fill: rgb(67%,84%,90%); fill-rule: evenodd;"/>
			<polygon points="1288.906 487.5844, 1260.371 487.5844, 1260.371 497.8346, 1243.971 477.3341, 1260.371 456.8335, 1260.371 467.0838, 1288.906 467.0838" style="stroke: rgb(56%,93%,56%); stroke-linecap: round; stroke-width: 1; fill: rgb(56%,93%,56%); fill-rule: evenodd;"/>
			<path d="M 1346.374242,169.825647 L 1346.374242,251.827897 Z" style="stroke: rgb(0%,0%,0%); stroke-linecap: butt; stroke-width: 1;"/>
			<path d="M 70.866142,210.826772 L 1346.374242,210.826772 Z" style="stroke: rgb(0%,0%,0%); stroke-linecap: butt; stroke-width: 1;"/>
			<path d="M 70.866142,169.825647 L 70.866142,251.827897 Z" style="stroke: rgb(0%,0%,0%); stroke-linecap: butt; stroke-width: 1;"/>
			<path d="M 895.370409,210.826772 L 895.370409,231.327334 Z" style="stroke: rgb(0%,0%,0%); stroke-linecap: butt; stroke-width: 1;"/>
			<path d="M 895.370409,210.826772 L 895.370409,223.127109 Z" style="stroke: rgb(0%,0%,0%); stroke-linecap: butt; stroke-width: 1;"/>
			<path d="M 1288.906295,456.833521 L 1288.906295,538.835771 Z" style="stroke: rgb(0%,0%,0%); stroke-linecap: butt; stroke-width: 1;"/>
			<path d="M 70.866142,497.834646 L 1288.906295,497.834646 Z" style="stroke: rgb(0%,0%,0%); stroke-linecap: butt; stroke-width: 1;"/>
			<path d="M 70.866142,456.833521 L 70.866142,538.835771 Z" style="stroke: rgb(0%,0%,0%); stroke-linecap: butt; stroke-width: 1;"/>
			<path d="M 895.370409,497.834646 L 895.370409,518.335208 Z" style="stroke: rgb(0%,0%,0%); stroke-linecap: butt; stroke-width: 1;"/>
			<path d="M 895.370409,497.834646 L 895.370409,510.134983 Z" style="stroke: rgb(0%,0%,0%); stroke-linecap: butt; stroke-width: 1;"/>
			<g transform=" matrix(0.707107,0.707107,-0.707107,0.707107,895.370409,231.327334)">
				<text style="font-family: Helvetica; font-size: 6px;fill: rgb(0%,0%,0%); stroke:none;" transform="translate(0,0) scale(1,-1)" x="0" y="0">10000</text>
			</g>
			<g transform=" matrix(0.707107,0.707107,-0.707107,0.707107,895.370409,518.335208)">
				<text style="font-family: Helvetica; font-size: 6px;fill: rgb(0%,0%,0%); stroke:none;" transform="translate(0,0) scale(1,-1)" x="0" y="0">10000</text>
			</g>
			<g transform=" matrix(0.707107,0.707107,-0.707107,0.707107,136.125654,251.827897)">
				<text style="font-family: Helvetica; font-size: 10px;fill: rgb(0%,0%,0%); stroke:none;" transform="translate(0,0) scale(1,-1)" x="0" y="0">Gene_01443</text>
			</g>
			<g transform=" matrix(0.707107,-0.707107,0.707107,0.707107,260.295997,169.825647)">
				<text style="font-family: Helvetica; font-size: 10px;fill: rgb(0%,0%,0%); stroke:none;" transform="translate(0,0) scale(1,-1)" x="0" y="0">Gene_01444</text>
			</g>
			<g transform=" matrix(0.707107,-0.707107,0.707107,0.707107,340.479037,169.825647)">
				<text style="font-family: Helvetica; font-size: 10px;fill: rgb(0%,0%,0%); stroke:none;" transform="translate(0,0) scale(1,-1)" x="0" y="0">Gene_01445</text>
			</g>
			<g transform=" matrix(0.707107,-0.707107,0.707107,0.707107,431.339407,169.825647)">
				<text style="font-family: Helvetica; font-size: 10px;fill: rgb(0%,0%,0%); stroke:none;" transform="translate(0,0) scale(1,-1)" x="0" y="0">Gene_01446</text>
			</g>
			<g transform=" matrix(0.707107,0.707107,-0.707107,0.707107,539.14334,251.827897)">
				<text style="font-family: Helvetica; font-size: 10px;fill: rgb(0%,0%,0%); stroke:none;" transform="translate(0,0) scale(1,-1)" x="0" y="0">Gene_01447</text>
			</g>
			<g transform=" matrix(0.707107,-0.707107,0.707107,0.707107,625.881189,169.825647)">
				<text style="font-family: Helvetica; font-size: 10px;fill: rgb(0%,0%,0%); stroke:none;" transform="translate(0,0) scale(1,-1)" x="0" y="0">Gene_01448</text>
			</g>
			<g transform=" matrix(0.707107,-0.707107,0.707107,0.707107,739.291751,169.825647)">
				<text style="font-family: Helvetica; font-size: 10px;fill: rgb(0%,0%,0%); stroke:none;" transform="translate(0,0) scale(1,-1)" x="0" y="0">Gene_01449</text>
			</g>
			<g transform=" matrix(0.707107,-0.707107,0.707107,0.707107,894.257328,169.825647)">
				<text style="font-family: Helvetica; font-size: 10px;fill: rgb(0%,0%,0%); stroke:none;" transform="translate(0,0) scale(1,-1)" x="0" y="0">Gene_01450</text>
			</g>
			<g transform=" matrix(0.707107,-0.707107,0.707107,0.707107,1000.659603,169.825647)">
				<text style="font-family: Helvetica; font-size: 16px;fill: rgb(0%,0%,100%); stroke:none;" transform="translate(0,0) scale(1,-1)" x="0" y="0">Gene_01451 (100.0)</text>
			</g>
			<g transform=" matrix(0.707107,-0.707107,0.707107,0.707107,1055.283011,169.825647)">
				<text style="font-family: Helvetica; font-size: 10px;fill: rgb(0%,0%,0%); stroke:none;" transform="translate(0,0) scale(1,-1)" x="0" y="0">Gene_01452</text>
			</g>
			<g transform=" matrix(0.707107,-0.707107,0.707107,0.707107,1221.956549,169.825647)">
				<text style="font-family: Helvetica; font-size: 10px;fill: rgb(0%,0%,0%); stroke:none;" transform="translate(0,0) scale(1,-1)" x="0" y="0">Gene_01453</text>
			</g>
			<g transform=" matrix(0.707107,0.707107,-0.707107,0.707107,195.696088,538.835771)">
				<text style="font-family: Helvetica; font-size: 10px;fill: rgb(0%,0%,0%); stroke:none;" transform="translate(0,0) scale(1,-1)" x="0" y="0">Gene_00033</text>
			</g>
			<g transform=" matrix(0.707107,0.707107,-0.707107,0.707107,362.369625,538.835771)">
				<text style="font-family: Helvetica; font-size: 10px;fill: rgb(0%,0%,0%); stroke:none;" transform="translate(0,0) scale(1,-1)" x="0" y="0">Gene_00034</text>
			</g>
			<g transform=" matrix(0.707107,0.707107,-0.707107,0.707107,416.993033,538.835771)">
				<text style="font-family: Helvetica; font-size: 16px;fill: rgb(0%,0%,100%); stroke:none;" transform="translate(0,0) scale(1,-1)" x="0" y="0">Gene_00035 (100.0)</text>
			</g>
			<g transform=" matrix(0.707107,0.707107,-0.707107,0.707107,523.395309,538.835771)">
				<text style="font-family: Helvetica; font-size: 10px;fill: rgb(0%,0%,0%); stroke:none;" transform="translate(0,0) scale(1,-1)" x="0" y="0">Gene_00036</text>
			</g>
			<g transform=" matrix(0.707107,0.707107,-0.707107,0.707107,677.618832,538.835771)">
				<text style="font-family: Helvetica; font-size: 10px;fill: rgb(0%,0%,0%); stroke:none;" transform="translate(0,0) scale(1,-1)" x="0" y="0">Gene_00037</text>
			</g>
			<g transform=" matrix(0.707107,0.707107,-0.707107,0.707107,759.038628,538.835771)">
				<text style="font-family: Helvetica; font-size: 10px;fill: rgb(0%,0%,0%); stroke:none;" transform="translate(0,0) scale(1,-1)" x="0" y="0">Gene_00038</text>
			</g>
			<g transform=" matrix(0.707107,0.707107,-0.707107,0.707107,858.92732,538.835771)">
				<text style="font-family: Helvetica; font-size: 10px;fill: rgb(0%,0%,0%); stroke:none;" transform="translate(0,0) scale(1,-1)" x="0" y="0">Gene_00039</text>
			</g>
			<g transform=" matrix(0.707107,0.707107,-0.707107,0.707107,966.690028,538.835771)">
				<text style="font-family: Helvetica; font-size: 10px;fill: rgb(0%,0%,0%); stroke:none;" transform="translate(0,0) scale(1,-1)" x="0" y="0">Gene_00040</text>
			</g>
			<g transform=" matrix(0.707107,0.707107,-0.707107,0.707107,1049.676382,538.835771)">
				<text style="font-family: Helvetica; font-size: 10px;fill: rgb(0%,0%,0%); stroke:none;" transform="translate(0,0) scale(1,-1)" x="0" y="0">Gene_00041</text>
			</g>
			<g transform=" matrix(0.707107,0.707107,-0.707107,0.707107,1168.157645,538.835771)">
				<text style="font-family: Helvetica; font-size: 10px;fill: rgb(0%,0%,0%); stroke:none;" transform="translate(0,0) scale(1,-1)" x="0" y="0">Gene_00042</text>
			</g>
			<g transform=" matrix(0.707107,-0.707107,0.707107,0.707107,1266.438554,456.833521)">
				<text style="font-family: Helvetica; font-size: 10px;fill: rgb(0%,0%,0%); stroke:none;" transform="translate(0,0) scale(1,-1)" x="0" y="0">Gene_00043</text>
			</g>
			<g transform=" matrix(1,0,-0,1,70,169.825647)">
				<text style="font-family: Helvetica; font-size: 12px;fill: rgb(60%,60%,60%); stroke:none;" transform="translate(0,0) scale(1,-1)" x="0" y="0">megahit_5105 (left 12304bp, right 3958bp)</text>
			</g>
			<g transform=" matrix(1,0,-0,1,70,456.833521)">
				<text style="font-family: Helvetica; font-size: 12px;fill: rgb(60%,60%,60%); stroke:none;" transform="translate(0,0) scale(1,-1)" x="0" y="0">megahit_1859 (left 3963bp, right 193232bp)</text>
			</g>
		</g>
	</g>
</svg>
