<?xml version="1.0" encoding="utf-8"?>
<!DOCTYPE svg
  PUBLIC '-//W3C//DTD SVG 1.0//EN'
  'http://www.w3.org/TR/2001/REC-SVG-20010904/DTD/svg10.dtd'>
<svg fill-rule="evenodd" height="708.6614173228346" preserveAspectRatio="xMinYMin meet" version="1.0" viewBox="0 0 1417 708" width="1417.3228346456692" xmlns="http://www.w3.org/2000/svg" xmlns:xlink="http://www.w3.org/1999/xlink">
	<title>...</title>
	<desc>...</desc>
	<clipPath id="clip">
		<rect height="708.6614173228346" width="1417.3228346456692" x="0" y="0"/>
	</clipPath>
	<g id="group" style="clip-path: url(#clip)" transform="scale(1,-1) translate(0,-708)">
		<g transform="">
			<polygon points="70.86614 169.8256, 1346.345 169.8256, 1346.345 251.8279, 70.86614 251.8279" style="stroke: rgb(96%,96%,96%); stroke-linecap: butt; stroke-width: 1; fill: rgb(96%,96%,96%); fill-rule: evenodd;"/>
			<polygon points="70.86614 456.8335, 749.2175 456.8335, 749.2175 538.8358, 70.86614 538.8358" style="stroke: rgb(96%,96%,96%); stroke-linecap: butt; stroke-width: 1; fill: rgb(96%,96%,96%); fill-rule: evenodd;"/>
			<polygon points="302.1527 456.8335, 439.8312 456.8335, 269.6856 251.8279, 409.8187 251.8279" style="stroke: rgb(100%,55%,55%); stroke-linecap: round; stroke-width: 1; fill: rgb(100%,55%,55%); fill-rule: evenodd;"/>
			<polygon points="468.3934 456.8335, 594.9148 456.8335, 116.2755 251.8279, 242.797 251.8279" style="stroke: rgb(100%,56%,56%); stroke-linecap: round; stroke-width: 1; fill: rgb(100%,56%,56%); fill-rule: evenodd;"/>
			<polygon points="121.0731 456.8335, 302.4874 456.8335, 417.0708 251.8279, 599.6008 251.8279" style="stroke: rgb(100%,65%,65%); stroke-linecap: round; stroke-width: 1; fill: rgb(100%,65%,65%); fill-rule: evenodd;"/>
			<polygon points="71.31243 456.8335, 95.52332 456.8335, 613.7703 251.8279, 637.9812 251.8279" style="stroke: rgb(100%,60%,60%); stroke-linecap: round; stroke-width: 1; fill: rgb(100%,60%,60%); fill-rule: evenodd;"/>
			<polygon points="613.7703 456.8335, 643.8945 456.8335, 71.64714 251.8279, 101.8829 251.8279" style="stroke: rgb(100%,67%,67%); stroke-linecap: round; stroke-width: 1; fill: rgb(100%,67%,67%); fill-rule: evenodd;"/>
			<polygon points="109.916 200.5765, 103.6675 200.5765, 103.6675 210.8268, 87.26707 190.3262, 103.6675 169.8256, 103.6675 180.0759, 109.916 180.0759" style="stroke: rgb(56%,93%,56%); stroke-linecap: round; stroke-width: 1; fill: rgb(56%,93%,56%); fill-rule: evenodd;"/>
			<polygon points="157.6683 200.5765, 125.9817 200.5765, 125.9817 210.8268, 109.5813 190.3262, 125.9817 169.8256, 125.9817 180.0759, 157.6683 180.0759" style="stroke: rgb(56%,93%,56%); stroke-linecap: round; stroke-width: 1; fill: rgb(56%,93%,56%); fill-rule: evenodd;"/>
			<polygon points="231.1936 200.5765, 174.4035 200.5765, 174.4035 210.8268, 158.003 190.3262, 174.4035 169.8256, 174.4035 180.0759, 231.1936 180.0759" style="stroke: rgb(56%,93%,56%); stroke-linecap: round; stroke-width: 1; fill: rgb(56%,93%,56%); fill-rule: evenodd;"/>
			<polygon points="275.5988 200.5765, 248.9329 200.5765, 248.9329 210.8268, 232.5324 190.3262, 248.9329 169.8256, 248.9329 180.0759, 275.5988 180.0759" style="stroke: rgb(56%,93%,56%); stroke-linecap: round; stroke-width: 1; fill: rgb(56%,93%,56%); fill-rule: evenodd;"/>
			<polygon points="311.4131 200.5765, 296.4621 200.5765, 296.4621 210.8268, 280.0617 190.3262, 296.4621 169.8256, 296.4621 180.0759, 311.4131 180.0759" style="stroke: rgb(56%,93%,56%); stroke-linecap: round; stroke-width: 1; fill: rgb(56%,93%,56%); fill-rule: evenodd;"/>
			<polygon points="407.141 200.5765, 329.264 200.5765, 329.264 210.8268, 312.8635 190.3262, 329.264 169.8256, 329.264 180.0759, 407.141 180.0759" style="stroke: rgb(56%,93%,56%); stroke-linecap: round; stroke-width: 1; fill: rgb(56%,93%,56%); fill-rule: evenodd;"/>
			<polygon points="450.542 200.5765, 433.5828 200.5765, 433.5828 210.8268, 417.1823 190.3262, 433.5828 169.8256, 433.5828 180.0759, 450.542 180.0759" style="stroke: rgb(56%,93%,56%); stroke-linecap: round; stroke-width: 1; fill: rgb(56%,93%,56%); fill-rule: evenodd;"/>
			<polygon points="519.716 200.5765, 466.9425 200.5765, 466.9425 210.8268, 450.542 190.3262, 466.9425 169.8256, 466.9425 180.0759, 519.716 180.0759" style="stroke: rgb(56%,93%,56%); stroke-linecap: round; stroke-width: 1; fill: rgb(56%,93%,56%); fill-rule: evenodd;"/>
			<polygon points="593.7991 200.5765, 539.352 200.5765, 539.352 210.8268, 522.9516 190.3262, 539.352 169.8256, 539.352 180.0759, 593.7991 180.0759" style="stroke: rgb(56%,93%,56%); stroke-linecap: round; stroke-width: 1; fill: rgb(56%,93%,56%); fill-rule: evenodd;"/>
			<polygon points="645.6796 200.5765, 626.7121 200.5765, 626.7121 210.8268, 610.3116 190.3262, 626.7121 169.8256, 626.7121 180.0759, 645.6796 180.0759" style="stroke: rgb(56%,93%,56%); stroke-linecap: round; stroke-width: 1; fill: rgb(56%,93%,56%); fill-rule: evenodd;"/>
			<polygon points="800.3169 200.5765, 704.3655 200.5765, 704.3655 210.8268, 687.965 190.3262, 704.3655 169.8256, 704.3655 180.0759, 800.3169 180.0759" style="stroke: rgb(56%,93%,56%); stroke-linecap: round; stroke-width: 1; fill: rgb(56%,93%,56%); fill-rule: evenodd;"/>
			<polygon points="824.1931 241.5776, 892.0287 241.5776, 892.0287 251.8279, 908.4292 231.3273, 892.0287 210.8268, 892.0287 221.0771, 824.1931 221.0771" style="stroke: rgb(67%,84%,90%); stroke-linecap: round; stroke-width: 1; fill: rgb(67%,84%,90%); fill-rule: evenodd;"/>
			<polygon points="947.9253 200.5765, 935.9867 200.5765, 935.9867 210.8268, 919.5863 190.3262, 935.9867 169.8256, 935.9867 180.0759, 947.9253 180.0759" style="stroke: rgb(56%,93%,56%); stroke-linecap: round; stroke-width: 1; fill: rgb(56%,93%,56%); fill-rule: evenodd;"/>
			<polygon points="1055.257 200.5765, 963.991 200.5765, 963.991 210.8268, 947.5906 190.3262, 963.991 169.8256, 963.991 180.0759, 1055.257 180.0759" style="stroke: rgb(56%,93%,56%); stroke-linecap: round; stroke-width: 1; fill: rgb(56%,93%,56%); fill-rule: evenodd;"/>
			<polygon points="1155.113 200.5765, 1073.219 200.5765, 1073.219 210.8268, 1056.819 190.3262, 1073.219 169.8256, 1073.219 180.0759, 1155.113 180.0759" style="stroke: rgb(56%,93%,56%); stroke-linecap: round; stroke-width: 1; fill: rgb(56%,93%,56%); fill-rule: evenodd;"/>
			<polygon points="1259.989 200.5765, 1174.749 200.5765, 1174.749 210.8268, 1158.348 190.3262, 1174.749 169.8256, 1174.749 180.0759, 1259.989 180.0759" style="stroke: rgb(56%,93%,56%); stroke-linecap: round; stroke-width: 1; fill: rgb(56%,93%,56%); fill-rule: evenodd;"/>
			<polygon points="1346.345 200.5765, 1278.844 200.5765, 1278.844 210.8268, 1262.444 190.3262, 1278.844 169.8256, 1278.844 180.0759, 1346.345 180.0759" style="stroke: rgb(56%,93%,56%); stroke-linecap: round; stroke-width: 1; fill: rgb(56%,93%,56%); fill-rule: evenodd;"/>
			<polygon points="71.98185 528.5855, 82.24686 528.5855, 82.24686 538.8358, 98.64731 518.3352, 82.24686 497.8346, 82.24686 508.0849, 71.98185 508.0849" style="stroke: rgb(67%,84%,90%); stroke-linecap: round; stroke-width: 1; fill: rgb(67%,84%,90%); fill-rule: evenodd;"/>
			<polygon points="126.7632 528.5855, 180.8756 528.5855, 180.8756 538.8358, 197.276 518.3352, 180.8756 497.8346, 180.8756 508.0849, 126.7632 508.0849" style="stroke: rgb(67%,84%,90%); stroke-linecap: round; stroke-width: 1; fill: rgb(67%,84%,90%); fill-rule: evenodd;"/>
			<polygon points="199.8421 528.5855, 252.6157 528.5855, 252.6157 538.8358, 269.0161 518.3352, 252.6157 497.8346, 252.6157 508.0849, 199.8421 508.0849" style="stroke: rgb(67%,84%,90%); stroke-linecap: round; stroke-width: 1; fill: rgb(67%,84%,90%); fill-rule: evenodd;"/>
			<polygon points="269.0161 528.5855, 285.9754 528.5855, 285.9754 538.8358, 302.3758 518.3352, 285.9754 497.8346, 285.9754 508.0849, 269.0161 508.0849" style="stroke: rgb(67%,84%,90%); stroke-linecap: round; stroke-width: 1; fill: rgb(67%,84%,90%); fill-rule: evenodd;"/>
			<polygon points="304.8304 528.5855, 381.7033 528.5855, 381.7033 538.8358, 398.1037 518.3352, 381.7033 497.8346, 381.7033 508.0849, 304.8304 508.0849" style="stroke: rgb(67%,84%,90%); stroke-linecap: round; stroke-width: 1; fill: rgb(67%,84%,90%); fill-rule: evenodd;"/>
			<polygon points="399.7773 528.5855, 414.3935 528.5855, 414.3935 538.8358, 430.794 518.3352, 414.3935 497.8346, 414.3935 508.0849, 399.7773 508.0849" style="stroke: rgb(67%,84%,90%); stroke-linecap: round; stroke-width: 1; fill: rgb(67%,84%,90%); fill-rule: evenodd;"/>
			<polygon points="433.918 528.5855, 462.2575 528.5855, 462.2575 538.8358, 478.6579 518.3352, 462.2575 497.8346, 462.2575 508.0849, 433.918 508.0849" style="stroke: rgb(67%,84%,90%); stroke-linecap: round; stroke-width: 1; fill: rgb(67%,84%,90%); fill-rule: evenodd;"/>
			<polygon points="479.9968 528.5855, 537.1216 528.5855, 537.1216 538.8358, 553.522 518.3352, 537.1216 497.8346, 537.1216 508.0849, 479.9968 508.0849" style="stroke: rgb(67%,84%,90%); stroke-linecap: round; stroke-width: 1; fill: rgb(67%,84%,90%); fill-rule: evenodd;"/>
			<polygon points="553.522 528.5855, 586.5475 528.5855, 586.5475 538.8358, 602.948 518.3352, 586.5475 497.8346, 586.5475 508.0849, 553.522 508.0849" style="stroke: rgb(67%,84%,90%); stroke-linecap: round; stroke-width: 1; fill: rgb(67%,84%,90%); fill-rule: evenodd;"/>
			<polygon points="612.0968 528.5855, 612.3204 528.5855, 612.3204 538.8358, 628.7208 518.3352, 612.3204 497.8346, 612.3204 508.0849, 612.0968 508.0849" style="stroke: rgb(67%,84%,90%); stroke-linecap: round; stroke-width: 1; fill: rgb(67%,84%,90%); fill-rule: evenodd;"/>
			<polygon points="632.068 528.5855, 644.3412 528.5855, 644.3412 538.8358, 660.7417 518.3352, 644.3412 497.8346, 644.3412 508.0849, 632.068 508.0849" style="stroke: rgb(67%,84%,90%); stroke-linecap: round; stroke-width: 1; fill: rgb(67%,84%,90%); fill-rule: evenodd;"/>
			<polygon points="666.2087 528.5855, 690.8663 528.5855, 690.8663 538.8358, 707.2668 518.3352, 690.8663 497.8346, 690.8663 508.0849, 666.2087 508.0849" style="stroke: rgb(67%,84%,90%); stroke-linecap: round; stroke-width: 1; fill: rgb(67%,84%,90%); fill-rule: evenodd;"/>
			<polygon points="709.0519 528.5855, 730.6972 528.5855, 730.6972 538.8358, 747.0976 518.3352, 730.6972 497.8346, 730.6972 508.0849, 709.0519 508.0849" style="stroke: rgb(67%,84%,90%); stroke-linecap: round; stroke-width: 1; fill: rgb(67%,84%,90%); fill-rule: evenodd;"/>
			<path d="M 1346.345122,169.825647 L 1346.345122,251.827897 Z" style="stroke: rgb(0%,0%,0%); stroke-linecap: butt; stroke-width: 1;"/>
			<path d="M 70.866142,210.826772 L 1346.345122,210.826772 Z" style="stroke: rgb(0%,0%,0%); stroke-linecap: butt; stroke-width: 1;"/>
			<path d="M 70.866142,169.825647 L 70.866142,251.827897 Z" style="stroke: rgb(0%,0%,0%); stroke-linecap: butt; stroke-width: 1;"/>
			<path d="M 1186.575537,210.826772 L 1186.575537,231.327334 Z" style="stroke: rgb(0%,0%,0%); stroke-linecap: butt; stroke-width: 1;"/>
			<path d="M 1186.575537,210.826772 L 1186.575537,223.127109 Z" style="stroke: rgb(0%,0%,0%); stroke-linecap: butt; stroke-width: 1;"/>
			<path d="M 749.217454,456.833521 L 749.217454,538.835771 Z" style="stroke: rgb(0%,0%,0%); stroke-linecap: butt; stroke-width: 1;"/>
			<path d="M 70.866142,497.834646 L 749.217454,497.834646 Z" style="stroke: rgb(0%,0%,0%); stroke-linecap: butt; stroke-width: 1;"/>
			<path d="M 70.866142,456.833521 L 70.866142,538.835771 Z" style="stroke: rgb(0%,0%,0%); stroke-linecap: butt; stroke-width: 1;"/>
			<g transform=" matrix(0.707107,0.707107,-0.707107,0.707107,1186.575537,231.327334)">
				<text style="font-family: Helvetica; font-size: 6px;fill: rgb(0%,0%,0%); stroke:none;" transform="translate(0,0) scale(1,-1)" x="0" y="0">10000</text>
			</g>
			<g transform=" matrix(0.707107,-0.707107,0.707107,0.707107,98.59152,169.825647)">
				<text style="font-family: Helvetica; font-size: 10px;fill: rgb(0%,0%,0%); stroke:none;" transform="translate(0,0) scale(1,-1)" x="0" y="0">Gene_00192</text>
			</g>
			<g transform=" matrix(0.707107,-0.707107,0.707107,0.707107,133.624795,169.825647)">
				<text style="font-family: Helvetica; font-size: 16px;fill: rgb(0%,0%,100%); stroke:none;" transform="translate(0,0) scale(1,-1)" x="0" y="0">Gene_00193 (81.0)</text>
			</g>
			<g transform=" matrix(0.707107,-0.707107,0.707107,0.707107,194.598314,169.825647)">
				<text style="font-family: Helvetica; font-size: 10px;fill: rgb(0%,0%,0%); stroke:none;" transform="translate(0,0) scale(1,-1)" x="0" y="0">Gene_00194</text>
			</g>
			<g transform=" matrix(0.707107,-0.707107,0.707107,0.707107,254.065624,169.825647)">
				<text style="font-family: Helvetica; font-size: 10px;fill: rgb(0%,0%,0%); stroke:none;" transform="translate(0,0) scale(1,-1)" x="0" y="0">Gene_00195</text>
			</g>
			<g transform=" matrix(0.707107,-0.707107,0.707107,0.707107,295.73737,169.825647)">
				<text style="font-family: Helvetica; font-size: 10px;fill: rgb(0%,0%,0%); stroke:none;" transform="translate(0,0) scale(1,-1)" x="0" y="0">Gene_00196</text>
			</g>
			<g transform=" matrix(0.707107,-0.707107,0.707107,0.707107,360.002231,169.825647)">
				<text style="font-family: Helvetica; font-size: 10px;fill: rgb(0%,0%,0%); stroke:none;" transform="translate(0,0) scale(1,-1)" x="0" y="0">Gene_00197</text>
			</g>
			<g transform=" matrix(0.707107,-0.707107,0.707107,0.707107,433.862193,169.825647)">
				<text style="font-family: Helvetica; font-size: 10px;fill: rgb(0%,0%,0%); stroke:none;" transform="translate(0,0) scale(1,-1)" x="0" y="0">Gene_00198</text>
			</g>
			<g transform=" matrix(0.707107,-0.707107,0.707107,0.707107,485.12904,169.825647)">
				<text style="font-family: Helvetica; font-size: 10px;fill: rgb(0%,0%,0%); stroke:none;" transform="translate(0,0) scale(1,-1)" x="0" y="0">Gene_00199</text>
			</g>
			<g transform=" matrix(0.707107,-0.707107,0.707107,0.707107,558.375362,169.825647)">
				<text style="font-family: Helvetica; font-size: 10px;fill: rgb(0%,0%,0%); stroke:none;" transform="translate(0,0) scale(1,-1)" x="0" y="0">Gene_00200</text>
			</g>
			<g transform=" matrix(0.707107,-0.707107,0.707107,0.707107,627.995628,169.825647)">
				<text style="font-family: Helvetica; font-size: 10px;fill: rgb(0%,0%,0%); stroke:none;" transform="translate(0,0) scale(1,-1)" x="0" y="0">Gene_00201</text>
			</g>
			<g transform=" matrix(0.707107,-0.707107,0.707107,0.707107,744.140976,169.825647)">
				<text style="font-family: Helvetica; font-size: 10px;fill: rgb(0%,0%,0%); stroke:none;" transform="translate(0,0) scale(1,-1)" x="0" y="0">Gene_00202</text>
			</g>
			<g transform=" matrix(0.707107,0.707107,-0.707107,0.707107,866.311155,251.827897)">
				<text style="font-family: Helvetica; font-size: 10px;fill: rgb(0%,0%,0%); stroke:none;" transform="translate(0,0) scale(1,-1)" x="0" y="0">Gene_00203</text>
			</g>
			<g transform=" matrix(0.707107,-0.707107,0.707107,0.707107,933.755788,169.825647)">
				<text style="font-family: Helvetica; font-size: 10px;fill: rgb(0%,0%,0%); stroke:none;" transform="translate(0,0) scale(1,-1)" x="0" y="0">Gene_00204</text>
			</g>
			<g transform=" matrix(0.707107,-0.707107,0.707107,0.707107,1001.423563,169.825647)">
				<text style="font-family: Helvetica; font-size: 10px;fill: rgb(0%,0%,0%); stroke:none;" transform="translate(0,0) scale(1,-1)" x="0" y="0">Gene_00205</text>
			</g>
			<g transform=" matrix(0.707107,-0.707107,0.707107,0.707107,1105.965533,169.825647)">
				<text style="font-family: Helvetica; font-size: 10px;fill: rgb(0%,0%,0%); stroke:none;" transform="translate(0,0) scale(1,-1)" x="0" y="0">Gene_00206</text>
			</g>
			<g transform=" matrix(0.707107,-0.707107,0.707107,0.707107,1209.168652,169.825647)">
				<text style="font-family: Helvetica; font-size: 10px;fill: rgb(0%,0%,0%); stroke:none;" transform="translate(0,0) scale(1,-1)" x="0" y="0">Gene_00207</text>
			</g>
			<g transform=" matrix(0.707107,-0.707107,0.707107,0.707107,1304.394449,169.825647)">
				<text style="font-family: Helvetica; font-size: 10px;fill: rgb(0%,0%,0%); stroke:none;" transform="translate(0,0) scale(1,-1)" x="0" y="0">Gene_00208</text>
			</g>
			<g transform=" matrix(0.707107,0.707107,-0.707107,0.707107,85.314578,538.835771)">
				<text style="font-family: Helvetica; font-size: 10px;fill: rgb(0%,0%,0%); stroke:none;" transform="translate(0,0) scale(1,-1)" x="0" y="0">Gene_01796</text>
			</g>
			<g transform=" matrix(0.707107,0.707107,-0.707107,0.707107,162.019599,538.835771)">
				<text style="font-family: Helvetica; font-size: 10px;fill: rgb(0%,0%,0%); stroke:none;" transform="translate(0,0) scale(1,-1)" x="0" y="0">Gene_01797</text>
			</g>
			<g transform=" matrix(0.707107,0.707107,-0.707107,0.707107,234.429139,538.835771)">
				<text style="font-family: Helvetica; font-size: 10px;fill: rgb(0%,0%,0%); stroke:none;" transform="translate(0,0) scale(1,-1)" x="0" y="0">Gene_01798</text>
			</g>
			<g transform=" matrix(0.707107,0.707107,-0.707107,0.707107,285.695986,538.835771)">
				<text style="font-family: Helvetica; font-size: 10px;fill: rgb(0%,0%,0%); stroke:none;" transform="translate(0,0) scale(1,-1)" x="0" y="0">Gene_01799</text>
			</g>
			<g transform=" matrix(0.707107,0.707107,-0.707107,0.707107,351.467055,538.835771)">
				<text style="font-family: Helvetica; font-size: 10px;fill: rgb(0%,0%,0%); stroke:none;" transform="translate(0,0) scale(1,-1)" x="0" y="0">Gene_01800</text>
			</g>
			<g transform=" matrix(0.707107,0.707107,-0.707107,0.707107,415.285632,538.835771)">
				<text style="font-family: Helvetica; font-size: 10px;fill: rgb(0%,0%,0%); stroke:none;" transform="translate(0,0) scale(1,-1)" x="0" y="0">Gene_01801</text>
			</g>
			<g transform=" matrix(0.707107,0.707107,-0.707107,0.707107,456.287952,538.835771)">
				<text style="font-family: Helvetica; font-size: 10px;fill: rgb(0%,0%,0%); stroke:none;" transform="translate(0,0) scale(1,-1)" x="0" y="0">Gene_01802</text>
			</g>
			<g transform=" matrix(0.707107,0.707107,-0.707107,0.707107,516.759401,538.835771)">
				<text style="font-family: Helvetica; font-size: 10px;fill: rgb(0%,0%,0%); stroke:none;" transform="translate(0,0) scale(1,-1)" x="0" y="0">Gene_01803</text>
			</g>
			<g transform=" matrix(0.707107,0.707107,-0.707107,0.707107,578.234989,538.835771)">
				<text style="font-family: Helvetica; font-size: 16px;fill: rgb(0%,0%,100%); stroke:none;" transform="translate(0,0) scale(1,-1)" x="0" y="0">Gene_01804 (81.0)</text>
			</g>
			<g transform=" matrix(0.707107,0.707107,-0.707107,0.707107,620.408804,538.835771)">
				<text style="font-family: Helvetica; font-size: 10px;fill: rgb(0%,0%,0%); stroke:none;" transform="translate(0,0) scale(1,-1)" x="0" y="0">Gene_01805</text>
			</g>
			<g transform=" matrix(0.707107,0.707107,-0.707107,0.707107,646.404833,538.835771)">
				<text style="font-family: Helvetica; font-size: 10px;fill: rgb(0%,0%,0%); stroke:none;" transform="translate(0,0) scale(1,-1)" x="0" y="0">Gene_01806</text>
			</g>
			<g transform=" matrix(0.707107,0.707107,-0.707107,0.707107,686.737728,538.835771)">
				<text style="font-family: Helvetica; font-size: 10px;fill: rgb(0%,0%,0%); stroke:none;" transform="translate(0,0) scale(1,-1)" x="0" y="0">Gene_01807</text>
			</g>
			<g transform=" matrix(0.707107,0.707107,-0.707107,0.707107,728.074761,538.835771)">
				<text style="font-family: Helvetica; font-size: 10px;fill: rgb(0%,0%,0%); stroke:none;" transform="translate(0,0) scale(1,-1)" x="0" y="0">Gene_01808</text>
			</g>
			<g transform=" matrix(1,0,-0,1,70,169.825647)">
				<text style="font-family: Helvetica; font-size: 12px;fill: rgb(60%,60%,60%); stroke:none;" transform="translate(0,0) scale(1,-1)" x="0" y="0">megahit_117343 (left 347bp, right 59176bp)</text>
			</g>
			<g transform=" matrix(1,0,-0,1,70,456.833521)">
				<text style="font-family: Helvetica; font-size: 12px;fill: rgb(60%,60%,60%); stroke:none;" transform="translate(0,0) scale(1,-1)" x="0" y="0">megahit_34400 (left 4326bp, right 1311bp)</text>
			</g>
		</g>
	</g>
</svg>
