<?xml version="1.0" encoding="utf-8"?>
<!DOCTYPE svg
  PUBLIC '-//W3C//DTD SVG 1.0//EN'
  'http://www.w3.org/TR/2001/REC-SVG-20010904/DTD/svg10.dtd'>
<svg fill-rule="evenodd" height="708.6614173228346" preserveAspectRatio="xMinYMin meet" version="1.0" viewBox="0 0 1417 708" width="1417.3228346456692" xmlns="http://www.w3.org/2000/svg" xmlns:xlink="http://www.w3.org/1999/xlink">
	<title>...</title>
	<desc>...</desc>
	<clipPath id="clip">
		<rect height="708.6614173228346" width="1417.3228346456692" x="0" y="0"/>
	</clipPath>
	<g id="group" style="clip-path: url(#clip)" transform="scale(1,-1) translate(0,-708)">
		<g transform="">
			<polygon points="70.86614 169.8256, 1346.349 169.8256, 1346.349 251.8279, 70.86614 251.8279" style="stroke: rgb(96%,96%,96%); stroke-linecap: butt; stroke-width: 1; fill: rgb(96%,96%,96%); fill-rule: evenodd;"/>
			<polygon points="70.86614 456.8335, 531.8155 456.8335, 531.8155 538.8358, 70.86614 538.8358" style="stroke: rgb(96%,96%,96%); stroke-linecap: butt; stroke-width: 1; fill: rgb(96%,96%,96%); fill-rule: evenodd;"/>
			<polygon points="414.9929 456.8335, 447.8795 456.8335, 242.3922 251.8279, 210.2579 251.8279" style="stroke: rgb(100%,24%,24%); stroke-linecap: round; stroke-width: 1; fill: rgb(100%,24%,24%); fill-rule: evenodd;"/>
			<polygon points="174.792 200.5765, 146.8063 200.5765, 146.8063 210.8268, 130.4059 190.3262, 146.8063 169.8256, 146.8063 180.0759, 174.792 180.0759" style="stroke: rgb(56%,93%,56%); stroke-linecap: round; stroke-width: 1; fill: rgb(56%,93%,56%); fill-rule: evenodd;"/>
			<polygon points="197.4687 200.5765, 189.4729 200.5765, 189.4729 210.8268, 173.0724 190.3262, 189.4729 169.8256, 189.4729 180.0759, 197.4687 180.0759" style="stroke: rgb(56%,93%,56%); stroke-linecap: round; stroke-width: 1; fill: rgb(56%,93%,56%); fill-rule: evenodd;"/>
			<polygon points="211.0102 241.5776, 225.1319 241.5776, 225.1319 251.8279, 241.5324 231.3273, 225.1319 210.8268, 225.1319 221.0771, 211.0102 221.0771" style="stroke: rgb(67%,84%,90%); stroke-linecap: round; stroke-width: 1; fill: rgb(67%,84%,90%); fill-rule: evenodd;"/>
			<polygon points="331.1644 200.5765, 299.9546 200.5765, 299.9546 210.8268, 283.5541 190.3262, 299.9546 169.8256, 299.9546 180.0759, 331.1644 180.0759" style="stroke: rgb(56%,93%,56%); stroke-linecap: round; stroke-width: 1; fill: rgb(56%,93%,56%); fill-rule: evenodd;"/>
			<polygon points="389.1995 200.5765, 377.6572 200.5765, 377.6572 210.8268, 361.2567 190.3262, 377.6572 169.8256, 377.6572 180.0759, 389.1995 180.0759" style="stroke: rgb(56%,93%,56%); stroke-linecap: round; stroke-width: 1; fill: rgb(56%,93%,56%); fill-rule: evenodd;"/>
			<polygon points="413.4883 241.5776, 437.605 241.5776, 437.605 251.8279, 454.0054 231.3273, 437.605 210.8268, 437.605 221.0771, 413.4883 221.0771" style="stroke: rgb(67%,84%,90%); stroke-linecap: round; stroke-width: 1; fill: rgb(67%,84%,90%); fill-rule: evenodd;"/>
			<polygon points="648.3156 200.5765, 478.1439 200.5765, 478.1439 210.8268, 461.7435 190.3262, 478.1439 169.8256, 478.1439 180.0759, 648.3156 180.0759" style="stroke: rgb(56%,93%,56%); stroke-linecap: round; stroke-width: 1; fill: rgb(56%,93%,56%); fill-rule: evenodd;"/>
			<polygon points="843.7006 200.5765, 665.146 200.5765, 665.146 210.8268, 648.7455 190.3262, 665.146 169.8256, 665.146 180.0759, 843.7006 180.0759" style="stroke: rgb(56%,93%,56%); stroke-linecap: round; stroke-width: 1; fill: rgb(56%,93%,56%); fill-rule: evenodd;"/>
			<polygon points="967.7238 200.5765, 873.965 200.5765, 873.965 210.8268, 857.5645 190.3262, 873.965 169.8256, 873.965 180.0759, 967.7238 180.0759" style="stroke: rgb(56%,93%,56%); stroke-linecap: round; stroke-width: 1; fill: rgb(56%,93%,56%); fill-rule: evenodd;"/>
			<polygon points="1000.18 200.5765, 981.2225 200.5765, 981.2225 210.8268, 964.822 190.3262, 981.2225 169.8256, 981.2225 180.0759, 1000.18 180.0759" style="stroke: rgb(56%,93%,56%); stroke-linecap: round; stroke-width: 1; fill: rgb(56%,93%,56%); fill-rule: evenodd;"/>
			<polygon points="1123.774 200.5765, 1018.73 200.5765, 1018.73 210.8268, 1002.33 190.3262, 1018.73 169.8256, 1018.73 180.0759, 1123.774 180.0759" style="stroke: rgb(56%,93%,56%); stroke-linecap: round; stroke-width: 1; fill: rgb(56%,93%,56%); fill-rule: evenodd;"/>
			<polygon points="1187.397 200.5765, 1142.324 200.5765, 1142.324 210.8268, 1125.923 190.3262, 1142.324 169.8256, 1142.324 180.0759, 1187.397 180.0759" style="stroke: rgb(56%,93%,56%); stroke-linecap: round; stroke-width: 1; fill: rgb(56%,93%,56%); fill-rule: evenodd;"/>
			<polygon points="1277.352 200.5765, 1206.162 200.5765, 1206.162 210.8268, 1189.762 190.3262, 1206.162 169.8256, 1206.162 180.0759, 1277.352 180.0759" style="stroke: rgb(56%,93%,56%); stroke-linecap: round; stroke-width: 1; fill: rgb(56%,93%,56%); fill-rule: evenodd;"/>
			<polygon points="1346.349 200.5765, 1301.598 200.5765, 1301.598 210.8268, 1285.197 190.3262, 1301.598 169.8256, 1301.598 180.0759, 1346.349 180.0759" style="stroke: rgb(56%,93%,56%); stroke-linecap: round; stroke-width: 1; fill: rgb(56%,93%,56%); fill-rule: evenodd;"/>
			<polygon points="114.5 528.5855, 153.7702 528.5855, 153.7702 538.8358, 170.1707 518.3352, 153.7702 497.8346, 153.7702 508.0849, 114.5 508.0849" style="stroke: rgb(67%,84%,90%); stroke-linecap: round; stroke-width: 1; fill: rgb(67%,84%,90%); fill-rule: evenodd;"/>
			<polygon points="168.1287 528.5855, 181.928 528.5855, 181.928 538.8358, 198.3285 518.3352, 181.928 497.8346, 181.928 508.0849, 168.1287 508.0849" style="stroke: rgb(67%,84%,90%); stroke-linecap: round; stroke-width: 1; fill: rgb(67%,84%,90%); fill-rule: evenodd;"/>
			<polygon points="196.2865 528.5855, 326.4785 528.5855, 326.4785 538.8358, 342.8789 518.3352, 326.4785 497.8346, 326.4785 508.0849, 196.2865 508.0849" style="stroke: rgb(67%,84%,90%); stroke-linecap: round; stroke-width: 1; fill: rgb(67%,84%,90%); fill-rule: evenodd;"/>
			<polygon points="352.229 528.5855, 385.3734 528.5855, 385.3734 538.8358, 401.7738 518.3352, 385.3734 497.8346, 385.3734 508.0849, 352.229 508.0849" style="stroke: rgb(67%,84%,90%); stroke-linecap: round; stroke-width: 1; fill: rgb(67%,84%,90%); fill-rule: evenodd;"/>
			<polygon points="415.7452 528.5855, 437.9274 528.5855, 437.9274 538.8358, 454.3279 518.3352, 437.9274 497.8346, 437.9274 508.0849, 415.7452 508.0849" style="stroke: rgb(67%,84%,90%); stroke-linecap: round; stroke-width: 1; fill: rgb(67%,84%,90%); fill-rule: evenodd;"/>
			<polygon points="469.8039 528.5855, 512.2983 528.5855, 512.2983 538.8358, 528.6988 518.3352, 512.2983 497.8346, 512.2983 508.0849, 469.8039 508.0849" style="stroke: rgb(67%,84%,90%); stroke-linecap: round; stroke-width: 1; fill: rgb(67%,84%,90%); fill-rule: evenodd;"/>
			<path d="M 1346.34922,169.825647 L 1346.34922,251.827897 Z" style="stroke: rgb(0%,0%,0%); stroke-linecap: butt; stroke-width: 1;"/>
			<path d="M 70.866142,210.826772 L 1346.34922,210.826772 Z" style="stroke: rgb(0%,0%,0%); stroke-linecap: butt; stroke-width: 1;"/>
			<path d="M 70.866142,169.825647 L 70.866142,251.827897 Z" style="stroke: rgb(0%,0%,0%); stroke-linecap: butt; stroke-width: 1;"/>
			<path d="M 1145.590677,210.826772 L 1145.590677,231.327334 Z" style="stroke: rgb(0%,0%,0%); stroke-linecap: butt; stroke-width: 1;"/>
			<path d="M 1145.590677,210.826772 L 1145.590677,223.127109 Z" style="stroke: rgb(0%,0%,0%); stroke-linecap: butt; stroke-width: 1;"/>
			<path d="M 531.815495,456.833521 L 531.815495,538.835771 Z" style="stroke: rgb(0%,0%,0%); stroke-linecap: butt; stroke-width: 1;"/>
			<path d="M 70.866142,497.834646 L 531.815495,497.834646 Z" style="stroke: rgb(0%,0%,0%); stroke-linecap: butt; stroke-width: 1;"/>
			<path d="M 70.866142,456.833521 L 70.866142,538.835771 Z" style="stroke: rgb(0%,0%,0%); stroke-linecap: butt; stroke-width: 1;"/>
			<g transform=" matrix(0.707107,0.707107,-0.707107,0.707107,1145.590677,231.327334)">
				<text style="font-family: Helvetica; font-size: 6px;fill: rgb(0%,0%,0%); stroke:none;" transform="translate(0,0) scale(1,-1)" x="0" y="0">10000</text>
			</g>
			<g transform=" matrix(0.707107,-0.707107,0.707107,0.707107,152.598943,169.825647)">
				<text style="font-family: Helvetica; font-size: 10px;fill: rgb(0%,0%,0%); stroke:none;" transform="translate(0,0) scale(1,-1)" x="0" y="0">Gene_01564</text>
			</g>
			<g transform=" matrix(0.707107,-0.707107,0.707107,0.707107,185.270569,169.825647)">
				<text style="font-family: Helvetica; font-size: 10px;fill: rgb(0%,0%,0%); stroke:none;" transform="translate(0,0) scale(1,-1)" x="0" y="0">Gene_01565</text>
			</g>
			<g transform=" matrix(0.707107,0.707107,-0.707107,0.707107,226.27131,251.827897)">
				<text style="font-family: Helvetica; font-size: 16px;fill: rgb(0%,0%,100%); stroke:none;" transform="translate(0,0) scale(1,-1)" x="0" y="0">Gene_01566 (88.0)</text>
			</g>
			<g transform=" matrix(0.707107,-0.707107,0.707107,0.707107,307.359276,169.825647)">
				<text style="font-family: Helvetica; font-size: 10px;fill: rgb(0%,0%,0%); stroke:none;" transform="translate(0,0) scale(1,-1)" x="0" y="0">Gene_01567</text>
			</g>
			<g transform=" matrix(0.707107,-0.707107,0.707107,0.707107,375.22813,169.825647)">
				<text style="font-family: Helvetica; font-size: 10px;fill: rgb(0%,0%,0%); stroke:none;" transform="translate(0,0) scale(1,-1)" x="0" y="0">Gene_01568</text>
			</g>
			<g transform=" matrix(0.707107,0.707107,-0.707107,0.707107,433.746881,251.827897)">
				<text style="font-family: Helvetica; font-size: 10px;fill: rgb(0%,0%,0%); stroke:none;" transform="translate(0,0) scale(1,-1)" x="0" y="0">Gene_01569</text>
			</g>
			<g transform=" matrix(0.707107,-0.707107,0.707107,0.707107,555.029545,169.825647)">
				<text style="font-family: Helvetica; font-size: 10px;fill: rgb(0%,0%,0%); stroke:none;" transform="translate(0,0) scale(1,-1)" x="0" y="0">Gene_01570</text>
			</g>
			<g transform=" matrix(0.707107,-0.707107,0.707107,0.707107,746.22304,169.825647)">
				<text style="font-family: Helvetica; font-size: 10px;fill: rgb(0%,0%,0%); stroke:none;" transform="translate(0,0) scale(1,-1)" x="0" y="0">Gene_01571</text>
			</g>
			<g transform=" matrix(0.707107,-0.707107,0.707107,0.707107,912.644134,169.825647)">
				<text style="font-family: Helvetica; font-size: 10px;fill: rgb(0%,0%,0%); stroke:none;" transform="translate(0,0) scale(1,-1)" x="0" y="0">Gene_01572</text>
			</g>
			<g transform=" matrix(0.707107,-0.707107,0.707107,0.707107,982.501229,169.825647)">
				<text style="font-family: Helvetica; font-size: 10px;fill: rgb(0%,0%,0%); stroke:none;" transform="translate(0,0) scale(1,-1)" x="0" y="0">Gene_01573</text>
			</g>
			<g transform=" matrix(0.707107,-0.707107,0.707107,0.707107,1063.051833,169.825647)">
				<text style="font-family: Helvetica; font-size: 10px;fill: rgb(0%,0%,0%); stroke:none;" transform="translate(0,0) scale(1,-1)" x="0" y="0">Gene_01574</text>
			</g>
			<g transform=" matrix(0.707107,-0.707107,0.707107,0.707107,1156.66034,169.825647)">
				<text style="font-family: Helvetica; font-size: 10px;fill: rgb(0%,0%,0%); stroke:none;" transform="translate(0,0) scale(1,-1)" x="0" y="0">Gene_01575</text>
			</g>
			<g transform=" matrix(0.707107,-0.707107,0.707107,0.707107,1233.55688,169.825647)">
				<text style="font-family: Helvetica; font-size: 10px;fill: rgb(0%,0%,0%); stroke:none;" transform="translate(0,0) scale(1,-1)" x="0" y="0">Gene_01576</text>
			</g>
			<g transform=" matrix(0.707107,-0.707107,0.707107,0.707107,1315.773307,169.825647)">
				<text style="font-family: Helvetica; font-size: 10px;fill: rgb(0%,0%,0%); stroke:none;" transform="translate(0,0) scale(1,-1)" x="0" y="0">Gene_01577</text>
			</g>
			<g transform=" matrix(0.707107,0.707107,-0.707107,0.707107,142.335323,538.835771)">
				<text style="font-family: Helvetica; font-size: 10px;fill: rgb(0%,0%,0%); stroke:none;" transform="translate(0,0) scale(1,-1)" x="0" y="0">Gene_02907</text>
			</g>
			<g transform=" matrix(0.707107,0.707107,-0.707107,0.707107,183.228592,538.835771)">
				<text style="font-family: Helvetica; font-size: 10px;fill: rgb(0%,0%,0%); stroke:none;" transform="translate(0,0) scale(1,-1)" x="0" y="0">Gene_02908</text>
			</g>
			<g transform=" matrix(0.707107,0.707107,-0.707107,0.707107,269.582708,538.835771)">
				<text style="font-family: Helvetica; font-size: 10px;fill: rgb(0%,0%,0%); stroke:none;" transform="translate(0,0) scale(1,-1)" x="0" y="0">Gene_02909</text>
			</g>
			<g transform=" matrix(0.707107,0.707107,-0.707107,0.707107,377.001426,538.835771)">
				<text style="font-family: Helvetica; font-size: 10px;fill: rgb(0%,0%,0%); stroke:none;" transform="translate(0,0) scale(1,-1)" x="0" y="0">Gene_02910</text>
			</g>
			<g transform=" matrix(0.707107,0.707107,-0.707107,0.707107,435.036551,538.835771)">
				<text style="font-family: Helvetica; font-size: 16px;fill: rgb(0%,0%,100%); stroke:none;" transform="translate(0,0) scale(1,-1)" x="0" y="0">Gene_02911 (88.0)</text>
			</g>
			<g transform=" matrix(0.707107,0.707107,-0.707107,0.707107,499.251342,538.835771)">
				<text style="font-family: Helvetica; font-size: 10px;fill: rgb(0%,0%,0%); stroke:none;" transform="translate(0,0) scale(1,-1)" x="0" y="0">Gene_02912</text>
			</g>
			<g transform=" matrix(1,0,-0,1,70,169.825647)">
				<text style="font-family: Helvetica; font-size: 12px;fill: rgb(60%,60%,60%); stroke:none;" transform="translate(0,0) scale(1,-1)" x="0" y="0">megahit_50278 (left 1304bp, right 183362bp)</text>
			</g>
			<g transform=" matrix(1,0,-0,1,70,456.833521)">
				<text style="font-family: Helvetica; font-size: 12px;fill: rgb(60%,60%,60%); stroke:none;" transform="translate(0,0) scale(1,-1)" x="0" y="0">megahit_4611 (left 3209bp, right 721bp)</text>
			</g>
		</g>
	</g>
</svg>
