<?xml version="1.0" encoding="utf-8"?>
<!DOCTYPE svg
  PUBLIC '-//W3C//DTD SVG 1.0//EN'
  'http://www.w3.org/TR/2001/REC-SVG-20010904/DTD/svg10.dtd'>
<svg fill-rule="evenodd" height="708.6614173228346" preserveAspectRatio="xMinYMin meet" version="1.0" viewBox="0 0 1417 708" width="1417.3228346456692" xmlns="http://www.w3.org/2000/svg" xmlns:xlink="http://www.w3.org/1999/xlink">
	<title>...</title>
	<desc>...</desc>
	<clipPath id="clip">
		<rect height="708.6614173228346" width="1417.3228346456692" x="0" y="0"/>
	</clipPath>
	<g id="group" style="clip-path: url(#clip)" transform="scale(1,-1) translate(0,-708)">
		<g transform="">
			<polygon points="70.86614 169.8256, 1152.802 169.8256, 1152.802 251.8279, 70.86614 251.8279" style="stroke: rgb(96%,96%,96%); stroke-linecap: butt; stroke-width: 1; fill: rgb(96%,96%,96%); fill-rule: evenodd;"/>
			<polygon points="70.86614 456.8335, 1346.384 456.8335, 1346.384 538.8358, 70.86614 538.8358" style="stroke: rgb(96%,96%,96%); stroke-linecap: butt; stroke-width: 1; fill: rgb(96%,96%,96%); fill-rule: evenodd;"/>
			<polygon points="762.4382 456.8335, 906.7157 456.8335, 482.8279 251.8279, 341.0956 251.8279" style="stroke: rgb(100%,32%,32%); stroke-linecap: round; stroke-width: 1; fill: rgb(100%,32%,32%); fill-rule: evenodd;"/>
			<polygon points="1291.698 456.8335, 1311.187 456.8335, 342.9136 251.8279, 323.5699 251.8279" style="stroke: rgb(100%,49%,49%); stroke-linecap: round; stroke-width: 1; fill: rgb(100%,49%,49%); fill-rule: evenodd;"/>
			<polygon points="724.6236 456.8335, 744.8399 456.8335, 299.2813 251.8279, 279.065 251.8279" style="stroke: rgb(100%,61%,61%); stroke-linecap: round; stroke-width: 1; fill: rgb(100%,61%,61%); fill-rule: evenodd;"/>
			<polygon points="1266.973 456.8335, 1287.189 456.8335, 299.2813 251.8279, 279.065 251.8279" style="stroke: rgb(100%,63%,63%); stroke-linecap: round; stroke-width: 1; fill: rgb(100%,63%,63%); fill-rule: evenodd;"/>
			<polygon points="74.72033 241.5776, 132.8584 241.5776, 132.8584 251.8279, 149.2589 231.3273, 132.8584 210.8268, 132.8584 221.0771, 74.72033 221.0771" style="stroke: rgb(67%,84%,90%); stroke-linecap: round; stroke-width: 1; fill: rgb(67%,84%,90%); fill-rule: evenodd;"/>
			<polygon points="154.8583 241.5776, 221.941 241.5776, 221.941 251.8279, 238.3415 231.3273, 221.941 210.8268, 221.941 221.0771, 154.8583 221.0771" style="stroke: rgb(67%,84%,90%); stroke-linecap: round; stroke-width: 1; fill: rgb(67%,84%,90%); fill-rule: evenodd;"/>
			<polygon points="260.1576 241.5776, 260.1576 251.8279, 275.3562 231.3273, 260.1576 210.8268, 260.1576 221.0771" style="stroke: rgb(67%,84%,90%); stroke-linecap: round; stroke-width: 1; fill: rgb(67%,84%,90%); fill-rule: evenodd;"/>
			<polygon points="304.5899 241.5776, 304.5899 251.8279, 319.5703 231.3273, 304.5899 210.8268, 304.5899 221.0771" style="stroke: rgb(67%,84%,90%); stroke-linecap: round; stroke-width: 1; fill: rgb(67%,84%,90%); fill-rule: evenodd;"/>
			<polygon points="375.0561 241.5776, 381.2717 241.5776, 381.2717 251.8279, 397.6721 231.3273, 381.2717 210.8268, 381.2717 221.0771, 375.0561 221.0771" style="stroke: rgb(67%,84%,90%); stroke-linecap: round; stroke-width: 1; fill: rgb(67%,84%,90%); fill-rule: evenodd;"/>
			<polygon points="397.8903 241.5776, 455.5921 241.5776, 455.5921 251.8279, 471.9925 231.3273, 455.5921 210.8268, 455.5921 221.0771, 397.8903 221.0771" style="stroke: rgb(67%,84%,90%); stroke-linecap: round; stroke-width: 1; fill: rgb(67%,84%,90%); fill-rule: evenodd;"/>
			<polygon points="550.6034 200.5765, 501.1918 200.5765, 501.1918 210.8268, 484.7913 190.3262, 501.1918 169.8256, 501.1918 180.0759, 550.6034 180.0759" style="stroke: rgb(56%,93%,56%); stroke-linecap: round; stroke-width: 1; fill: rgb(56%,93%,56%); fill-rule: evenodd;"/>
			<polygon points="571.4742 241.5776, 638.5569 241.5776, 638.5569 251.8279, 654.9573 231.3273, 638.5569 210.8268, 638.5569 221.0771, 571.4742 221.0771" style="stroke: rgb(67%,84%,90%); stroke-linecap: round; stroke-width: 1; fill: rgb(67%,84%,90%); fill-rule: evenodd;"/>
			<polygon points="715.0972 200.5765, 713.8993 200.5765, 713.8993 210.8268, 697.4988 190.3262, 713.8993 169.8256, 713.8993 180.0759, 715.0972 180.0759" style="stroke: rgb(56%,93%,56%); stroke-linecap: round; stroke-width: 1; fill: rgb(56%,93%,56%); fill-rule: evenodd;"/>
			<polygon points="722.1511 241.5776, 738.4021 241.5776, 738.4021 251.8279, 754.8026 231.3273, 738.4021 210.8268, 738.4021 221.0771, 722.1511 221.0771" style="stroke: rgb(67%,84%,90%); stroke-linecap: round; stroke-width: 1; fill: rgb(67%,84%,90%); fill-rule: evenodd;"/>
			<polygon points="764.9107 241.5776, 880.6435 241.5776, 880.6435 251.8279, 897.0439 231.3273, 880.6435 210.8268, 880.6435 221.0771, 764.9107 221.0771" style="stroke: rgb(67%,84%,90%); stroke-linecap: round; stroke-width: 1; fill: rgb(67%,84%,90%); fill-rule: evenodd;"/>
			<polygon points="896.8257 241.5776, 966.3082 241.5776, 966.3082 251.8279, 982.7087 231.3273, 966.3082 210.8268, 966.3082 221.0771, 896.8257 221.0771" style="stroke: rgb(67%,84%,90%); stroke-linecap: round; stroke-width: 1; fill: rgb(67%,84%,90%); fill-rule: evenodd;"/>
			<polygon points="982.9268 241.5776, 1044.992 241.5776, 1044.992 251.8279, 1061.392 231.3273, 1044.992 210.8268, 1044.992 221.0771, 982.9268 221.0771" style="stroke: rgb(67%,84%,90%); stroke-linecap: round; stroke-width: 1; fill: rgb(67%,84%,90%); fill-rule: evenodd;"/>
			<polygon points="1063.065 241.5776, 1063.065 251.8279, 1074.118 231.3273, 1063.065 210.8268, 1063.065 221.0771" style="stroke: rgb(67%,84%,90%); stroke-linecap: round; stroke-width: 1; fill: rgb(67%,84%,90%); fill-rule: evenodd;"/>
			<polygon points="1078.7 241.5776, 1136.402 241.5776, 1136.402 251.8279, 1152.802 231.3273, 1136.402 210.8268, 1136.402 221.0771, 1078.7 221.0771" style="stroke: rgb(67%,84%,90%); stroke-linecap: round; stroke-width: 1; fill: rgb(67%,84%,90%); fill-rule: evenodd;"/>
			<polygon points="100.318 528.5855, 172.4184 528.5855, 172.4184 538.8358, 188.8188 518.3352, 172.4184 497.8346, 172.4184 508.0849, 100.318 508.0849" style="stroke: rgb(67%,84%,90%); stroke-linecap: round; stroke-width: 1; fill: rgb(67%,84%,90%); fill-rule: evenodd;"/>
			<polygon points="235.2145 487.5844, 206.7464 487.5844, 206.7464 497.8346, 190.3459 477.3341, 206.7464 456.8335, 206.7464 467.0838, 235.2145 467.0838" style="stroke: rgb(56%,93%,56%); stroke-linecap: round; stroke-width: 1; fill: rgb(56%,93%,56%); fill-rule: evenodd;"/>
			<polygon points="244.0864 528.5855, 278.4449 528.5855, 278.4449 538.8358, 294.8453 518.3352, 278.4449 497.8346, 278.4449 508.0849, 244.0864 508.0849" style="stroke: rgb(67%,84%,90%); stroke-linecap: round; stroke-width: 1; fill: rgb(67%,84%,90%); fill-rule: evenodd;"/>
			<polygon points="468.4292 487.5844, 341.1339 487.5844, 341.1339 497.8346, 324.7335 477.3341, 341.1339 456.8335, 341.1339 467.0838, 468.4292 467.0838" style="stroke: rgb(56%,93%,56%); stroke-linecap: round; stroke-width: 1; fill: rgb(56%,93%,56%); fill-rule: evenodd;"/>
			<polygon points="619.2515 487.5844, 484.9751 487.5844, 484.9751 497.8346, 468.5746 477.3341, 484.9751 456.8335, 484.9751 467.0838, 619.2515 467.0838" style="stroke: rgb(56%,93%,56%); stroke-linecap: round; stroke-width: 1; fill: rgb(56%,93%,56%); fill-rule: evenodd;"/>
			<polygon points="642.9584 487.5844, 635.4338 487.5844, 635.4338 497.8346, 619.0334 477.3341, 635.4338 456.8335, 635.4338 467.0838, 642.9584 467.0838" style="stroke: rgb(56%,93%,56%); stroke-linecap: round; stroke-width: 1; fill: rgb(56%,93%,56%); fill-rule: evenodd;"/>
			<polygon points="658.0843 528.5855, 684.1526 528.5855, 684.1526 538.8358, 700.5531 518.3352, 684.1526 497.8346, 684.1526 508.0849, 658.0843 508.0849" style="stroke: rgb(67%,84%,90%); stroke-linecap: round; stroke-width: 1; fill: rgb(67%,84%,90%); fill-rule: evenodd;"/>
			<polygon points="721.133 528.5855, 733.239 528.5855, 733.239 538.8358, 749.6394 518.3352, 733.239 497.8346, 733.239 508.0849, 721.133 508.0849" style="stroke: rgb(67%,84%,90%); stroke-linecap: round; stroke-width: 1; fill: rgb(67%,84%,90%); fill-rule: evenodd;"/>
			<polygon points="798.0713 528.5855, 804.2869 528.5855, 804.2869 538.8358, 820.6874 518.3352, 804.2869 497.8346, 804.2869 508.0849, 798.0713 508.0849" style="stroke: rgb(67%,84%,90%); stroke-linecap: round; stroke-width: 1; fill: rgb(67%,84%,90%); fill-rule: evenodd;"/>
			<polygon points="820.9055 528.5855, 878.6073 528.5855, 878.6073 538.8358, 895.0077 518.3352, 878.6073 497.8346, 878.6073 508.0849, 820.9055 508.0849" style="stroke: rgb(67%,84%,90%); stroke-linecap: round; stroke-width: 1; fill: rgb(67%,84%,90%); fill-rule: evenodd;"/>
			<polygon points="911.4426 528.5855, 983.543 528.5855, 983.543 538.8358, 999.9434 518.3352, 983.543 497.8346, 983.543 508.0849, 911.4426 508.0849" style="stroke: rgb(67%,84%,90%); stroke-linecap: round; stroke-width: 1; fill: rgb(67%,84%,90%); fill-rule: evenodd;"/>
			<polygon points="1123.786 487.5844, 1053.868 487.5844, 1053.868 497.8346, 1037.467 477.3341, 1053.868 456.8335, 1053.868 467.0838, 1123.786 467.0838" style="stroke: rgb(56%,93%,56%); stroke-linecap: round; stroke-width: 1; fill: rgb(56%,93%,56%); fill-rule: evenodd;"/>
			<polygon points="1166.619 487.5844, 1140.332 487.5844, 1140.332 497.8346, 1123.932 477.3341, 1140.332 456.8335, 1140.332 467.0838, 1166.619 467.0838" style="stroke: rgb(56%,93%,56%); stroke-linecap: round; stroke-width: 1; fill: rgb(56%,93%,56%); fill-rule: evenodd;"/>
			<polygon points="1237.74 487.5844, 1189.419 487.5844, 1189.419 497.8346, 1173.018 477.3341, 1189.419 456.8335, 1189.419 467.0838, 1237.74 467.0838" style="stroke: rgb(56%,93%,56%); stroke-linecap: round; stroke-width: 1; fill: rgb(56%,93%,56%); fill-rule: evenodd;"/>
			<polygon points="1270.464 528.5855, 1275.589 528.5855, 1275.589 538.8358, 1291.989 518.3352, 1275.589 497.8346, 1275.589 508.0849, 1270.464 508.0849" style="stroke: rgb(67%,84%,90%); stroke-linecap: round; stroke-width: 1; fill: rgb(67%,84%,90%); fill-rule: evenodd;"/>
			<polygon points="1319.332 528.5855, 1323.584 528.5855, 1323.584 538.8358, 1339.985 518.3352, 1323.584 497.8346, 1323.584 508.0849, 1319.332 508.0849" style="stroke: rgb(67%,84%,90%); stroke-linecap: round; stroke-width: 1; fill: rgb(67%,84%,90%); fill-rule: evenodd;"/>
			<path d="M 1152.801962,169.825647 L 1152.801962,251.827897 Z" style="stroke: rgb(0%,0%,0%); stroke-linecap: butt; stroke-width: 1;"/>
			<path d="M 70.866142,210.826772 L 1152.801962,210.826772 Z" style="stroke: rgb(0%,0%,0%); stroke-linecap: butt; stroke-width: 1;"/>
			<path d="M 70.866142,169.825647 L 70.866142,251.827897 Z" style="stroke: rgb(0%,0%,0%); stroke-linecap: butt; stroke-width: 1;"/>
			<path d="M 798.07129,210.826772 L 798.07129,231.327334 Z" style="stroke: rgb(0%,0%,0%); stroke-linecap: butt; stroke-width: 1;"/>
			<path d="M 798.07129,210.826772 L 798.07129,223.127109 Z" style="stroke: rgb(0%,0%,0%); stroke-linecap: butt; stroke-width: 1;"/>
			<path d="M 1346.383972,456.833521 L 1346.383972,538.835771 Z" style="stroke: rgb(0%,0%,0%); stroke-linecap: butt; stroke-width: 1;"/>
			<path d="M 70.866142,497.834646 L 1346.383972,497.834646 Z" style="stroke: rgb(0%,0%,0%); stroke-linecap: butt; stroke-width: 1;"/>
			<path d="M 70.866142,456.833521 L 70.866142,538.835771 Z" style="stroke: rgb(0%,0%,0%); stroke-linecap: butt; stroke-width: 1;"/>
			<path d="M 798.07129,497.834646 L 798.07129,518.335208 Z" style="stroke: rgb(0%,0%,0%); stroke-linecap: butt; stroke-width: 1;"/>
			<path d="M 798.07129,497.834646 L 798.07129,510.134983 Z" style="stroke: rgb(0%,0%,0%); stroke-linecap: butt; stroke-width: 1;"/>
			<g transform=" matrix(0.707107,0.707107,-0.707107,0.707107,798.07129,231.327334)">
				<text style="font-family: Helvetica; font-size: 6px;fill: rgb(0%,0%,0%); stroke:none;" transform="translate(0,0) scale(1,-1)" x="0" y="0">10000</text>
			</g>
			<g transform=" matrix(0.707107,0.707107,-0.707107,0.707107,798.07129,518.335208)">
				<text style="font-family: Helvetica; font-size: 6px;fill: rgb(0%,0%,0%); stroke:none;" transform="translate(0,0) scale(1,-1)" x="0" y="0">10000</text>
			</g>
			<g transform=" matrix(0.707107,0.707107,-0.707107,0.707107,111.989593,251.827897)">
				<text style="font-family: Helvetica; font-size: 10px;fill: rgb(0%,0%,0%); stroke:none;" transform="translate(0,0) scale(1,-1)" x="0" y="0">Gene_01940</text>
			</g>
			<g transform=" matrix(0.707107,0.707107,-0.707107,0.707107,196.599912,251.827897)">
				<text style="font-family: Helvetica; font-size: 10px;fill: rgb(0%,0%,0%); stroke:none;" transform="translate(0,0) scale(1,-1)" x="0" y="0">Gene_01941</text>
			</g>
			<g transform=" matrix(0.707107,0.707107,-0.707107,0.707107,267.756936,251.827897)">
				<text style="font-family: Helvetica; font-size: 10px;fill: rgb(0%,0%,0%); stroke:none;" transform="translate(0,0) scale(1,-1)" x="0" y="0">Gene_01942</text>
			</g>
			<g transform=" matrix(0.707107,0.707107,-0.707107,0.707107,312.08009,251.827897)">
				<text style="font-family: Helvetica; font-size: 10px;fill: rgb(0%,0%,0%); stroke:none;" transform="translate(0,0) scale(1,-1)" x="0" y="0">Gene_01943</text>
			</g>
			<g transform=" matrix(0.707107,0.707107,-0.707107,0.707107,386.364095,251.827897)">
				<text style="font-family: Helvetica; font-size: 16px;fill: rgb(0%,0%,100%); stroke:none;" transform="translate(0,0) scale(1,-1)" x="0" y="0">Gene_01944 (92.9)</text>
			</g>
			<g transform=" matrix(0.707107,0.707107,-0.707107,0.707107,434.941399,251.827897)">
				<text style="font-family: Helvetica; font-size: 10px;fill: rgb(0%,0%,0%); stroke:none;" transform="translate(0,0) scale(1,-1)" x="0" y="0">Gene_01945</text>
			</g>
			<g transform=" matrix(0.707107,-0.707107,0.707107,0.707107,517.697345,169.825647)">
				<text style="font-family: Helvetica; font-size: 10px;fill: rgb(0%,0%,0%); stroke:none;" transform="translate(0,0) scale(1,-1)" x="0" y="0">Gene_01946</text>
			</g>
			<g transform=" matrix(0.707107,0.707107,-0.707107,0.707107,613.215742,251.827897)">
				<text style="font-family: Helvetica; font-size: 10px;fill: rgb(0%,0%,0%); stroke:none;" transform="translate(0,0) scale(1,-1)" x="0" y="0">Gene_01947</text>
			</g>
			<g transform=" matrix(0.707107,-0.707107,0.707107,0.707107,706.298001,169.825647)">
				<text style="font-family: Helvetica; font-size: 10px;fill: rgb(0%,0%,0%); stroke:none;" transform="translate(0,0) scale(1,-1)" x="0" y="0">Gene_01948</text>
			</g>
			<g transform=" matrix(0.707107,0.707107,-0.707107,0.707107,738.476828,251.827897)">
				<text style="font-family: Helvetica; font-size: 10px;fill: rgb(0%,0%,0%); stroke:none;" transform="translate(0,0) scale(1,-1)" x="0" y="0">Gene_01949</text>
			</g>
			<g transform=" matrix(0.707107,0.707107,-0.707107,0.707107,830.977323,251.827897)">
				<text style="font-family: Helvetica; font-size: 10px;fill: rgb(0%,0%,0%); stroke:none;" transform="translate(0,0) scale(1,-1)" x="0" y="0">Gene_01950</text>
			</g>
			<g transform=" matrix(0.707107,0.707107,-0.707107,0.707107,939.767214,251.827897)">
				<text style="font-family: Helvetica; font-size: 10px;fill: rgb(0%,0%,0%); stroke:none;" transform="translate(0,0) scale(1,-1)" x="0" y="0">Gene_01951</text>
			</g>
			<g transform=" matrix(0.707107,0.707107,-0.707107,0.707107,1022.159557,251.827897)">
				<text style="font-family: Helvetica; font-size: 10px;fill: rgb(0%,0%,0%); stroke:none;" transform="translate(0,0) scale(1,-1)" x="0" y="0">Gene_01952</text>
			</g>
			<g transform=" matrix(0.707107,0.707107,-0.707107,0.707107,1068.591606,251.827897)">
				<text style="font-family: Helvetica; font-size: 10px;fill: rgb(0%,0%,0%); stroke:none;" transform="translate(0,0) scale(1,-1)" x="0" y="0">Gene_01953</text>
			</g>
			<g transform=" matrix(0.707107,0.707107,-0.707107,0.707107,1115.75086,251.827897)">
				<text style="font-family: Helvetica; font-size: 10px;fill: rgb(0%,0%,0%); stroke:none;" transform="translate(0,0) scale(1,-1)" x="0" y="0">Gene_01954</text>
			</g>
			<g transform=" matrix(0.707107,0.707107,-0.707107,0.707107,144.568384,538.835771)">
				<text style="font-family: Helvetica; font-size: 10px;fill: rgb(0%,0%,0%); stroke:none;" transform="translate(0,0) scale(1,-1)" x="0" y="0">Gene_02010</text>
			</g>
			<g transform=" matrix(0.707107,-0.707107,0.707107,0.707107,212.780226,456.833521)">
				<text style="font-family: Helvetica; font-size: 10px;fill: rgb(0%,0%,0%); stroke:none;" transform="translate(0,0) scale(1,-1)" x="0" y="0">Gene_02011</text>
			</g>
			<g transform=" matrix(0.707107,0.707107,-0.707107,0.707107,269.465868,538.835771)">
				<text style="font-family: Helvetica; font-size: 10px;fill: rgb(0%,0%,0%); stroke:none;" transform="translate(0,0) scale(1,-1)" x="0" y="0">Gene_02012</text>
			</g>
			<g transform=" matrix(0.707107,-0.707107,0.707107,0.707107,396.581328,456.833521)">
				<text style="font-family: Helvetica; font-size: 10px;fill: rgb(0%,0%,0%); stroke:none;" transform="translate(0,0) scale(1,-1)" x="0" y="0">Gene_02013</text>
			</g>
			<g transform=" matrix(0.707107,-0.707107,0.707107,0.707107,543.913091,456.833521)">
				<text style="font-family: Helvetica; font-size: 10px;fill: rgb(0%,0%,0%); stroke:none;" transform="translate(0,0) scale(1,-1)" x="0" y="0">Gene_02014</text>
			</g>
			<g transform=" matrix(0.707107,-0.707107,0.707107,0.707107,630.995907,456.833521)">
				<text style="font-family: Helvetica; font-size: 10px;fill: rgb(0%,0%,0%); stroke:none;" transform="translate(0,0) scale(1,-1)" x="0" y="0">Gene_02015</text>
			</g>
			<g transform=" matrix(0.707107,0.707107,-0.707107,0.707107,679.31869,538.835771)">
				<text style="font-family: Helvetica; font-size: 10px;fill: rgb(0%,0%,0%); stroke:none;" transform="translate(0,0) scale(1,-1)" x="0" y="0">Gene_02016</text>
			</g>
			<g transform=" matrix(0.707107,0.707107,-0.707107,0.707107,735.386207,538.835771)">
				<text style="font-family: Helvetica; font-size: 10px;fill: rgb(0%,0%,0%); stroke:none;" transform="translate(0,0) scale(1,-1)" x="0" y="0">Gene_02017</text>
			</g>
			<g transform=" matrix(0.707107,0.707107,-0.707107,0.707107,809.37933,538.835771)">
				<text style="font-family: Helvetica; font-size: 16px;fill: rgb(0%,0%,100%); stroke:none;" transform="translate(0,0) scale(1,-1)" x="0" y="0">Gene_02018 (92.9)</text>
			</g>
			<g transform=" matrix(0.707107,0.707107,-0.707107,0.707107,857.956634,538.835771)">
				<text style="font-family: Helvetica; font-size: 10px;fill: rgb(0%,0%,0%); stroke:none;" transform="translate(0,0) scale(1,-1)" x="0" y="0">Gene_02019</text>
			</g>
			<g transform=" matrix(0.707107,0.707107,-0.707107,0.707107,955.693006,538.835771)">
				<text style="font-family: Helvetica; font-size: 10px;fill: rgb(0%,0%,0%); stroke:none;" transform="translate(0,0) scale(1,-1)" x="0" y="0">Gene_02020</text>
			</g>
			<g transform=" matrix(0.707107,-0.707107,0.707107,0.707107,1080.626851,456.833521)">
				<text style="font-family: Helvetica; font-size: 10px;fill: rgb(0%,0%,0%); stroke:none;" transform="translate(0,0) scale(1,-1)" x="0" y="0">Gene_02021</text>
			</g>
			<g transform=" matrix(0.707107,-0.707107,0.707107,0.707107,1145.275389,456.833521)">
				<text style="font-family: Helvetica; font-size: 10px;fill: rgb(0%,0%,0%); stroke:none;" transform="translate(0,0) scale(1,-1)" x="0" y="0">Gene_02022</text>
			</g>
			<g transform=" matrix(0.707107,-0.707107,0.707107,0.707107,1205.378894,456.833521)">
				<text style="font-family: Helvetica; font-size: 10px;fill: rgb(0%,0%,0%); stroke:none;" transform="translate(0,0) scale(1,-1)" x="0" y="0">Gene_02023</text>
			</g>
			<g transform=" matrix(0.707107,0.707107,-0.707107,0.707107,1281.226391,538.835771)">
				<text style="font-family: Helvetica; font-size: 10px;fill: rgb(0%,0%,0%); stroke:none;" transform="translate(0,0) scale(1,-1)" x="0" y="0">Gene_02024</text>
			</g>
			<g transform=" matrix(0.707107,0.707107,-0.707107,0.707107,1329.658254,538.835771)">
				<text style="font-family: Helvetica; font-size: 10px;fill: rgb(0%,0%,0%); stroke:none;" transform="translate(0,0) scale(1,-1)" x="0" y="0">Gene_02025</text>
			</g>
			<g transform=" matrix(1,0,-0,1,70,169.825647)">
				<text style="font-family: Helvetica; font-size: 12px;fill: rgb(60%,60%,60%); stroke:none;" transform="translate(0,0) scale(1,-1)" x="0" y="0">megahit_2866 (left 4183bp, right 15123bp)</text>
			</g>
			<g transform=" matrix(1,0,-0,1,70,456.833521)">
				<text style="font-family: Helvetica; font-size: 12px;fill: rgb(60%,60%,60%); stroke:none;" transform="translate(0,0) scale(1,-1)" x="0" y="0">megahit_3778 (left 27990bp, right 7229bp)</text>
			</g>
		</g>
	</g>
</svg>
