<?xml version="1.0" encoding="utf-8"?>
<!DOCTYPE svg
  PUBLIC '-//W3C//DTD SVG 1.0//EN'
  'http://www.w3.org/TR/2001/REC-SVG-20010904/DTD/svg10.dtd'>
<svg fill-rule="evenodd" height="708.6614173228346" preserveAspectRatio="xMinYMin meet" version="1.0" viewBox="0 0 1417 708" width="1417.3228346456692" xmlns="http://www.w3.org/2000/svg" xmlns:xlink="http://www.w3.org/1999/xlink">
	<title>...</title>
	<desc>...</desc>
	<clipPath id="clip">
		<rect height="708.6614173228346" width="1417.3228346456692" x="0" y="0"/>
	</clipPath>
	<g id="group" style="clip-path: url(#clip)" transform="scale(1,-1) translate(0,-708)">
		<g transform="">
			<polygon points="70.86614 169.8256, 447.657 169.8256, 447.657 251.8279, 70.86614 251.8279" style="stroke: rgb(96%,96%,96%); stroke-linecap: butt; stroke-width: 1; fill: rgb(96%,96%,96%); fill-rule: evenodd;"/>
			<polygon points="70.86614 456.8335, 1346.346 456.8335, 1346.346 538.8358, 70.86614 538.8358" style="stroke: rgb(96%,96%,96%); stroke-linecap: butt; stroke-width: 1; fill: rgb(96%,96%,96%); fill-rule: evenodd;"/>
			<polygon points="900.2716 456.8335, 983.8551 456.8335, 442.1143 251.8279, 364.6278 251.8279" style="stroke: rgb(100%,28%,28%); stroke-linecap: round; stroke-width: 1; fill: rgb(100%,28%,28%); fill-rule: evenodd;"/>
			<polygon points="80.39954 241.5776, 98.80707 241.5776, 98.80707 251.8279, 115.2075 231.3273, 98.80707 210.8268, 98.80707 221.0771, 80.39954 221.0771" style="stroke: rgb(67%,84%,90%); stroke-linecap: round; stroke-width: 1; fill: rgb(67%,84%,90%); fill-rule: evenodd;"/>
			<polygon points="138.7084 241.5776, 346.0102 241.5776, 346.0102 251.8279, 362.4107 231.3273, 346.0102 210.8268, 346.0102 221.0771, 138.7084 221.0771" style="stroke: rgb(67%,84%,90%); stroke-linecap: round; stroke-width: 1; fill: rgb(67%,84%,90%); fill-rule: evenodd;"/>
			<polygon points="426.3731 200.5765, 391.3376 200.5765, 391.3376 210.8268, 374.9371 190.3262, 391.3376 169.8256, 391.3376 180.0759, 426.3731 180.0759" style="stroke: rgb(56%,93%,56%); stroke-linecap: round; stroke-width: 1; fill: rgb(56%,93%,56%); fill-rule: evenodd;"/>
			<polygon points="72.08553 528.5855, 115.1025 528.5855, 115.1025 538.8358, 131.503 518.3352, 115.1025 497.8346, 115.1025 508.0849, 72.08553 508.0849" style="stroke: rgb(67%,84%,90%); stroke-linecap: round; stroke-width: 1; fill: rgb(67%,84%,90%); fill-rule: evenodd;"/>
			<polygon points="199.3453 487.5844, 157.9911 487.5844, 157.9911 497.8346, 141.5906 477.3341, 157.9911 456.8335, 157.9911 467.0838, 199.3453 467.0838" style="stroke: rgb(56%,93%,56%); stroke-linecap: round; stroke-width: 1; fill: rgb(56%,93%,56%); fill-rule: evenodd;"/>
			<polygon points="299.2242 487.5844, 221.2884 487.5844, 221.2884 497.8346, 204.888 477.3341, 221.2884 456.8335, 221.2884 467.0838, 299.2242 467.0838" style="stroke: rgb(56%,93%,56%); stroke-linecap: round; stroke-width: 1; fill: rgb(56%,93%,56%); fill-rule: evenodd;"/>
			<polygon points="315.5197 528.5855, 436.3558 528.5855, 436.3558 538.8358, 452.7562 518.3352, 436.3558 497.8346, 436.3558 508.0849, 315.5197 508.0849" style="stroke: rgb(67%,84%,90%); stroke-linecap: round; stroke-width: 1; fill: rgb(67%,84%,90%); fill-rule: evenodd;"/>
			<polygon points="547.6468 487.5844, 475.6971 487.5844, 475.6971 497.8346, 459.2966 477.3341, 475.6971 456.8335, 475.6971 467.0838, 547.6468 467.0838" style="stroke: rgb(56%,93%,56%); stroke-linecap: round; stroke-width: 1; fill: rgb(56%,93%,56%); fill-rule: evenodd;"/>
			<polygon points="567.3787 528.5855, 621.7028 528.5855, 621.7028 538.8358, 638.1032 518.3352, 621.7028 497.8346, 621.7028 508.0849, 567.3787 508.0849" style="stroke: rgb(67%,84%,90%); stroke-linecap: round; stroke-width: 1; fill: rgb(67%,84%,90%); fill-rule: evenodd;"/>
			<polygon points="740.1992 487.5844, 671.5751 487.5844, 671.5751 497.8346, 655.1746 477.3341, 671.5751 456.8335, 671.5751 467.0838, 740.1992 467.0838" style="stroke: rgb(56%,93%,56%); stroke-linecap: round; stroke-width: 1; fill: rgb(56%,93%,56%); fill-rule: evenodd;"/>
			<polygon points="788.4205 487.5844, 758.0408 487.5844, 758.0408 497.8346, 741.6403 477.3341, 758.0408 456.8335, 758.0408 467.0838, 788.4205 467.0838" style="stroke: rgb(56%,93%,56%); stroke-linecap: round; stroke-width: 1; fill: rgb(56%,93%,56%); fill-rule: evenodd;"/>
			<polygon points="796.1802 528.5855, 833.5437 528.5855, 833.5437 538.8358, 849.9441 518.3352, 833.5437 497.8346, 833.5437 508.0849, 796.1802 508.0849" style="stroke: rgb(67%,84%,90%); stroke-linecap: round; stroke-width: 1; fill: rgb(67%,84%,90%); fill-rule: evenodd;"/>
			<polygon points="849.6116 528.5855, 882.9843 528.5855, 882.9843 538.8358, 899.3848 518.3352, 882.9843 497.8346, 882.9843 508.0849, 849.6116 508.0849" style="stroke: rgb(67%,84%,90%); stroke-linecap: round; stroke-width: 1; fill: rgb(67%,84%,90%); fill-rule: evenodd;"/>
			<polygon points="967.8922 487.5844, 932.8566 487.5844, 932.8566 497.8346, 916.4562 477.3341, 932.8566 456.8335, 932.8566 467.0838, 967.8922 467.0838" style="stroke: rgb(56%,93%,56%); stroke-linecap: round; stroke-width: 1; fill: rgb(56%,93%,56%); fill-rule: evenodd;"/>
			<polygon points="1153.239 487.5844, 1012.449 487.5844, 1012.449 497.8346, 996.049 477.3341, 1012.449 456.8335, 1012.449 467.0838, 1153.239 467.0838" style="stroke: rgb(56%,93%,56%); stroke-linecap: round; stroke-width: 1; fill: rgb(56%,93%,56%); fill-rule: evenodd;"/>
			<polygon points="1312.757 487.5844, 1178.619 487.5844, 1178.619 497.8346, 1162.218 477.3341, 1178.619 456.8335, 1178.619 467.0838, 1312.757 467.0838" style="stroke: rgb(56%,93%,56%); stroke-linecap: round; stroke-width: 1; fill: rgb(56%,93%,56%); fill-rule: evenodd;"/>
			<path d="M 447.656989,169.825647 L 447.656989,251.827897 Z" style="stroke: rgb(0%,0%,0%); stroke-linecap: butt; stroke-width: 1;"/>
			<path d="M 70.866142,210.826772 L 447.656989,210.826772 Z" style="stroke: rgb(0%,0%,0%); stroke-linecap: butt; stroke-width: 1;"/>
			<path d="M 70.866142,169.825647 L 70.866142,251.827897 Z" style="stroke: rgb(0%,0%,0%); stroke-linecap: butt; stroke-width: 1;"/>
			<path d="M 1346.345839,456.833521 L 1346.345839,538.835771 Z" style="stroke: rgb(0%,0%,0%); stroke-linecap: butt; stroke-width: 1;"/>
			<path d="M 70.866142,497.834646 L 1346.345839,497.834646 Z" style="stroke: rgb(0%,0%,0%); stroke-linecap: butt; stroke-width: 1;"/>
			<path d="M 70.866142,456.833521 L 70.866142,538.835771 Z" style="stroke: rgb(0%,0%,0%); stroke-linecap: butt; stroke-width: 1;"/>
			<path d="M 1179.400557,497.834646 L 1179.400557,518.335208 Z" style="stroke: rgb(0%,0%,0%); stroke-linecap: butt; stroke-width: 1;"/>
			<path d="M 1179.400557,497.834646 L 1179.400557,510.134983 Z" style="stroke: rgb(0%,0%,0%); stroke-linecap: butt; stroke-width: 1;"/>
			<g transform=" matrix(0.707107,0.707107,-0.707107,0.707107,1179.400557,518.335208)">
				<text style="font-family: Helvetica; font-size: 6px;fill: rgb(0%,0%,0%); stroke:none;" transform="translate(0,0) scale(1,-1)" x="0" y="0">10000</text>
			</g>
			<g transform=" matrix(0.707107,0.707107,-0.707107,0.707107,97.803528,251.827897)">
				<text style="font-family: Helvetica; font-size: 10px;fill: rgb(0%,0%,0%); stroke:none;" transform="translate(0,0) scale(1,-1)" x="0" y="0">Gene_01695</text>
			</g>
			<g transform=" matrix(0.707107,0.707107,-0.707107,0.707107,250.55957,251.827897)">
				<text style="font-family: Helvetica; font-size: 10px;fill: rgb(0%,0%,0%); stroke:none;" transform="translate(0,0) scale(1,-1)" x="0" y="0">Gene_01696</text>
			</g>
			<g transform=" matrix(0.707107,-0.707107,0.707107,0.707107,400.65513,169.825647)">
				<text style="font-family: Helvetica; font-size: 16px;fill: rgb(0%,0%,100%); stroke:none;" transform="translate(0,0) scale(1,-1)" x="0" y="0">Gene_01697 (92.3)</text>
			</g>
			<g transform=" matrix(0.707107,0.707107,-0.707107,0.707107,101.794252,538.835771)">
				<text style="font-family: Helvetica; font-size: 10px;fill: rgb(0%,0%,0%); stroke:none;" transform="translate(0,0) scale(1,-1)" x="0" y="0">Gene_00901</text>
			</g>
			<g transform=" matrix(0.707107,-0.707107,0.707107,0.707107,170.467959,456.833521)">
				<text style="font-family: Helvetica; font-size: 10px;fill: rgb(0%,0%,0%); stroke:none;" transform="translate(0,0) scale(1,-1)" x="0" y="0">Gene_00902</text>
			</g>
			<g transform=" matrix(0.707107,-0.707107,0.707107,0.707107,252.056092,456.833521)">
				<text style="font-family: Helvetica; font-size: 10px;fill: rgb(0%,0%,0%); stroke:none;" transform="translate(0,0) scale(1,-1)" x="0" y="0">Gene_00903</text>
			</g>
			<g transform=" matrix(0.707107,0.707107,-0.707107,0.707107,384.137967,538.835771)">
				<text style="font-family: Helvetica; font-size: 10px;fill: rgb(0%,0%,0%); stroke:none;" transform="translate(0,0) scale(1,-1)" x="0" y="0">Gene_00904</text>
			</g>
			<g transform=" matrix(0.707107,-0.707107,0.707107,0.707107,503.471697,456.833521)">
				<text style="font-family: Helvetica; font-size: 10px;fill: rgb(0%,0%,0%); stroke:none;" transform="translate(0,0) scale(1,-1)" x="0" y="0">Gene_00905</text>
			</g>
			<g transform=" matrix(0.707107,0.707107,-0.707107,0.707107,602.740954,538.835771)">
				<text style="font-family: Helvetica; font-size: 10px;fill: rgb(0%,0%,0%); stroke:none;" transform="translate(0,0) scale(1,-1)" x="0" y="0">Gene_00906</text>
			</g>
			<g transform=" matrix(0.707107,-0.707107,0.707107,0.707107,697.686927,456.833521)">
				<text style="font-family: Helvetica; font-size: 10px;fill: rgb(0%,0%,0%); stroke:none;" transform="translate(0,0) scale(1,-1)" x="0" y="0">Gene_00907</text>
			</g>
			<g transform=" matrix(0.707107,-0.707107,0.707107,0.707107,765.030392,456.833521)">
				<text style="font-family: Helvetica; font-size: 10px;fill: rgb(0%,0%,0%); stroke:none;" transform="translate(0,0) scale(1,-1)" x="0" y="0">Gene_00908</text>
			</g>
			<g transform=" matrix(0.707107,0.707107,-0.707107,0.707107,823.062169,538.835771)">
				<text style="font-family: Helvetica; font-size: 10px;fill: rgb(0%,0%,0%); stroke:none;" transform="translate(0,0) scale(1,-1)" x="0" y="0">Gene_00909</text>
			</g>
			<g transform=" matrix(0.707107,0.707107,-0.707107,0.707107,874.498166,538.835771)">
				<text style="font-family: Helvetica; font-size: 10px;fill: rgb(0%,0%,0%); stroke:none;" transform="translate(0,0) scale(1,-1)" x="0" y="0">Gene_00910</text>
			</g>
			<g transform=" matrix(0.707107,-0.707107,0.707107,0.707107,942.174192,456.833521)">
				<text style="font-family: Helvetica; font-size: 16px;fill: rgb(0%,0%,100%); stroke:none;" transform="translate(0,0) scale(1,-1)" x="0" y="0">Gene_00911 (92.3)</text>
			</g>
			<g transform=" matrix(0.707107,-0.707107,0.707107,0.707107,1074.644054,456.833521)">
				<text style="font-family: Helvetica; font-size: 10px;fill: rgb(0%,0%,0%); stroke:none;" transform="translate(0,0) scale(1,-1)" x="0" y="0">Gene_00912</text>
			</g>
			<g transform=" matrix(0.707107,-0.707107,0.707107,0.707107,1237.48776,456.833521)">
				<text style="font-family: Helvetica; font-size: 10px;fill: rgb(0%,0%,0%); stroke:none;" transform="translate(0,0) scale(1,-1)" x="0" y="0">Gene_00913</text>
			</g>
			<g transform=" matrix(1,0,-0,1,70,169.825647)">
				<text style="font-family: Helvetica; font-size: 12px;fill: rgb(60%,60%,60%); stroke:none;" transform="translate(0,0) scale(1,-1)" x="0" y="0">megahit_86944 (left 2743bp, right 192bp)</text>
			</g>
			<g transform=" matrix(1,0,-0,1,70,456.833521)">
				<text style="font-family: Helvetica; font-size: 12px;fill: rgb(60%,60%,60%); stroke:none;" transform="translate(0,0) scale(1,-1)" x="0" y="0">megahit_1318 (left 7628bp, right 3414bp)</text>
			</g>
		</g>
	</g>
</svg>
