<?xml version="1.0" encoding="utf-8"?>
<!DOCTYPE svg
  PUBLIC '-//W3C//DTD SVG 1.0//EN'
  'http://www.w3.org/TR/2001/REC-SVG-20010904/DTD/svg10.dtd'>
<svg fill-rule="evenodd" height="708.6614173228346" preserveAspectRatio="xMinYMin meet" version="1.0" viewBox="0 0 1417 708" width="1417.3228346456692" xmlns="http://www.w3.org/2000/svg" xmlns:xlink="http://www.w3.org/1999/xlink">
	<title>...</title>
	<desc>...</desc>
	<clipPath id="clip">
		<rect height="708.6614173228346" width="1417.3228346456692" x="0" y="0"/>
	</clipPath>
	<g id="group" style="clip-path: url(#clip)" transform="scale(1,-1) translate(0,-708)">
		<g transform="">
			<polygon points="70.86614 169.8256, 1346.148 169.8256, 1346.148 251.8279, 70.86614 251.8279" style="stroke: rgb(96%,96%,96%); stroke-linecap: butt; stroke-width: 1; fill: rgb(96%,96%,96%); fill-rule: evenodd;"/>
			<polygon points="70.86614 456.8335, 935.9929 456.8335, 935.9929 538.8358, 70.86614 538.8358" style="stroke: rgb(96%,96%,96%); stroke-linecap: butt; stroke-width: 1; fill: rgb(96%,96%,96%); fill-rule: evenodd;"/>
			<polygon points="614.5453 456.8335, 880.0486 456.8335, 842.6494 251.8279, 1108.462 251.8279" style="stroke: rgb(100%,23%,23%); stroke-linecap: round; stroke-width: 1; fill: rgb(100%,23%,23%); fill-rule: evenodd;"/>
			<polygon points="231.899 200.5765, 120.6477 200.5765, 120.6477 210.8268, 104.2472 190.3262, 120.6477 169.8256, 120.6477 180.0759, 231.899 180.0759" style="stroke: rgb(56%,93%,56%); stroke-linecap: round; stroke-width: 1; fill: rgb(56%,93%,56%); fill-rule: evenodd;"/>
			<polygon points="506.0567 200.5765, 251.0812 200.5765, 251.0812 210.8268, 234.6808 190.3262, 251.0812 169.8256, 251.0812 180.0759, 506.0567 180.0759" style="stroke: rgb(56%,93%,56%); stroke-linecap: round; stroke-width: 1; fill: rgb(56%,93%,56%); fill-rule: evenodd;"/>
			<polygon points="972.1557 200.5765, 521.5299 200.5765, 521.5299 210.8268, 505.1295 190.3262, 521.5299 169.8256, 521.5299 180.0759, 972.1557 180.0759" style="stroke: rgb(56%,93%,56%); stroke-linecap: round; stroke-width: 1; fill: rgb(56%,93%,56%); fill-rule: evenodd;"/>
			<polygon points="1021.609 241.5776, 1082.789 241.5776, 1082.789 251.8279, 1099.189 231.3273, 1082.789 210.8268, 1082.789 221.0771, 1021.609 221.0771" style="stroke: rgb(67%,84%,90%); stroke-linecap: round; stroke-width: 1; fill: rgb(67%,84%,90%); fill-rule: evenodd;"/>
			<polygon points="1197.787 200.5765, 1127.335 200.5765, 1127.335 210.8268, 1110.935 190.3262, 1127.335 169.8256, 1127.335 180.0759, 1197.787 180.0759" style="stroke: rgb(56%,93%,56%); stroke-linecap: round; stroke-width: 1; fill: rgb(56%,93%,56%); fill-rule: evenodd;"/>
			<polygon points="166.0641 528.5855, 293.0787 528.5855, 293.0787 538.8358, 309.4792 518.3352, 293.0787 497.8346, 293.0787 508.0849, 166.0641 508.0849" style="stroke: rgb(67%,84%,90%); stroke-linecap: round; stroke-width: 1; fill: rgb(67%,84%,90%); fill-rule: evenodd;"/>
			<polygon points="458.1487 487.5844, 310.7345 487.5844, 310.7345 497.8346, 294.334 477.3341, 310.7345 456.8335, 310.7345 467.0838, 458.1487 467.0838" style="stroke: rgb(56%,93%,56%); stroke-linecap: round; stroke-width: 1; fill: rgb(56%,93%,56%); fill-rule: evenodd;"/>
			<polygon points="522.7473 528.5855, 595.054 528.5855, 595.054 538.8358, 611.4544 518.3352, 595.054 497.8346, 595.054 508.0849, 522.7473 508.0849" style="stroke: rgb(67%,84%,90%); stroke-linecap: round; stroke-width: 1; fill: rgb(67%,84%,90%); fill-rule: evenodd;"/>
			<polygon points="701.3979 487.5844, 640.2183 487.5844, 640.2183 497.8346, 623.8178 477.3341, 640.2183 456.8335, 640.2183 467.0838, 701.3979 467.0838" style="stroke: rgb(56%,93%,56%); stroke-linecap: round; stroke-width: 1; fill: rgb(56%,93%,56%); fill-rule: evenodd;"/>
			<polygon points="750.5423 528.5855, 849.7394 528.5855, 849.7394 538.8358, 866.1398 518.3352, 849.7394 497.8346, 849.7394 508.0849, 750.5423 508.0849" style="stroke: rgb(67%,84%,90%); stroke-linecap: round; stroke-width: 1; fill: rgb(67%,84%,90%); fill-rule: evenodd;"/>
			<path d="M 1346.147609,169.825647 L 1346.147609,251.827897 Z" style="stroke: rgb(0%,0%,0%); stroke-linecap: butt; stroke-width: 1;"/>
			<path d="M 70.866142,210.826772 L 1346.147609,210.826772 Z" style="stroke: rgb(0%,0%,0%); stroke-linecap: butt; stroke-width: 1;"/>
			<path d="M 70.866142,169.825647 L 70.866142,251.827897 Z" style="stroke: rgb(0%,0%,0%); stroke-linecap: butt; stroke-width: 1;"/>
			<path d="M 935.992857,456.833521 L 935.992857,538.835771 Z" style="stroke: rgb(0%,0%,0%); stroke-linecap: butt; stroke-width: 1;"/>
			<path d="M 70.866142,497.834646 L 935.992857,497.834646 Z" style="stroke: rgb(0%,0%,0%); stroke-linecap: butt; stroke-width: 1;"/>
			<path d="M 70.866142,456.833521 L 70.866142,538.835771 Z" style="stroke: rgb(0%,0%,0%); stroke-linecap: butt; stroke-width: 1;"/>
			<g transform=" matrix(0.707107,-0.707107,0.707107,0.707107,168.073127,169.825647)">
				<text style="font-family: Helvetica; font-size: 10px;fill: rgb(0%,0%,0%); stroke:none;" transform="translate(0,0) scale(1,-1)" x="0" y="0">Gene_01131</text>
			</g>
			<g transform=" matrix(0.707107,-0.707107,0.707107,0.707107,370.368745,169.825647)">
				<text style="font-family: Helvetica; font-size: 10px;fill: rgb(0%,0%,0%); stroke:none;" transform="translate(0,0) scale(1,-1)" x="0" y="0">Gene_01132</text>
			</g>
			<g transform=" matrix(0.707107,-0.707107,0.707107,0.707107,738.642586,169.825647)">
				<text style="font-family: Helvetica; font-size: 10px;fill: rgb(0%,0%,0%); stroke:none;" transform="translate(0,0) scale(1,-1)" x="0" y="0">Gene_01133</text>
			</g>
			<g transform=" matrix(0.707107,0.707107,-0.707107,0.707107,1060.399253,251.827897)">
				<text style="font-family: Helvetica; font-size: 16px;fill: rgb(0%,0%,100%); stroke:none;" transform="translate(0,0) scale(1,-1)" x="0" y="0">Gene_01134 (94.8)</text>
			</g>
			<g transform=" matrix(0.707107,-0.707107,0.707107,0.707107,1154.360854,169.825647)">
				<text style="font-family: Helvetica; font-size: 10px;fill: rgb(0%,0%,0%); stroke:none;" transform="translate(0,0) scale(1,-1)" x="0" y="0">Gene_01135</text>
			</g>
			<g transform=" matrix(0.707107,0.707107,-0.707107,0.707107,237.771617,538.835771)">
				<text style="font-family: Helvetica; font-size: 10px;fill: rgb(0%,0%,0%); stroke:none;" transform="translate(0,0) scale(1,-1)" x="0" y="0">Gene_00727</text>
			</g>
			<g transform=" matrix(0.707107,-0.707107,0.707107,0.707107,376.241345,456.833521)">
				<text style="font-family: Helvetica; font-size: 10px;fill: rgb(0%,0%,0%); stroke:none;" transform="translate(0,0) scale(1,-1)" x="0" y="0">Gene_00728</text>
			</g>
			<g transform=" matrix(0.707107,0.707107,-0.707107,0.707107,567.100847,538.835771)">
				<text style="font-family: Helvetica; font-size: 10px;fill: rgb(0%,0%,0%); stroke:none;" transform="translate(0,0) scale(1,-1)" x="0" y="0">Gene_00729</text>
			</g>
			<g transform=" matrix(0.707107,-0.707107,0.707107,0.707107,662.607869,456.833521)">
				<text style="font-family: Helvetica; font-size: 16px;fill: rgb(0%,0%,100%); stroke:none;" transform="translate(0,0) scale(1,-1)" x="0" y="0">Gene_00730 (94.8)</text>
			</g>
			<g transform=" matrix(0.707107,0.707107,-0.707107,0.707107,808.341076,538.835771)">
				<text style="font-family: Helvetica; font-size: 10px;fill: rgb(0%,0%,0%); stroke:none;" transform="translate(0,0) scale(1,-1)" x="0" y="0">Gene_00731</text>
			</g>
			<g transform=" matrix(1,0,-0,1,70,169.825647)">
				<text style="font-family: Helvetica; font-size: 12px;fill: rgb(60%,60%,60%); stroke:none;" transform="translate(0,0) scale(1,-1)" x="0" y="0">megahit_161373 (left 3076bp, right 799bp)</text>
			</g>
			<g transform=" matrix(1,0,-0,1,70,456.833521)">
				<text style="font-family: Helvetica; font-size: 12px;fill: rgb(60%,60%,60%); stroke:none;" transform="translate(0,0) scale(1,-1)" x="0" y="0">megahit_1207 (left 1789bp, right 759bp)</text>
			</g>
		</g>
	</g>
</svg>
