<?xml version="1.0" encoding="utf-8"?>
<!DOCTYPE svg
  PUBLIC '-//W3C//DTD SVG 1.0//EN'
  'http://www.w3.org/TR/2001/REC-SVG-20010904/DTD/svg10.dtd'>
<svg fill-rule="evenodd" height="708.6614173228346" preserveAspectRatio="xMinYMin meet" version="1.0" viewBox="0 0 1417 708" width="1417.3228346456692" xmlns="http://www.w3.org/2000/svg" xmlns:xlink="http://www.w3.org/1999/xlink">
	<title>...</title>
	<desc>...</desc>
	<clipPath id="clip">
		<rect height="708.6614173228346" width="1417.3228346456692" x="0" y="0"/>
	</clipPath>
	<g id="group" style="clip-path: url(#clip)" transform="scale(1,-1) translate(0,-708)">
		<g transform="">
			<polygon points="70.86614 169.8256, 1346.385 169.8256, 1346.385 251.8279, 70.86614 251.8279" style="stroke: rgb(96%,96%,96%); stroke-linecap: butt; stroke-width: 1; fill: rgb(96%,96%,96%); fill-rule: evenodd;"/>
			<polygon points="70.86614 456.8335, 481.8033 456.8335, 481.8033 538.8358, 70.86614 538.8358" style="stroke: rgb(96%,96%,96%); stroke-linecap: butt; stroke-width: 1; fill: rgb(96%,96%,96%); fill-rule: evenodd;"/>
			<polygon points="128.7144 456.8335, 205.3456 456.8335, 902.0247 251.8279, 824.5365 251.8279" style="stroke: rgb(100%,37%,37%); stroke-linecap: round; stroke-width: 1; fill: rgb(100%,37%,37%); fill-rule: evenodd;"/>
			<polygon points="137.4274 200.5765, 87.26659 200.5765, 87.26659 210.8268, 70.86614 190.3262, 87.26659 169.8256, 87.26659 180.0759, 137.4274 180.0759" style="stroke: rgb(56%,93%,56%); stroke-linecap: round; stroke-width: 1; fill: rgb(56%,93%,56%); fill-rule: evenodd;"/>
			<polygon points="185.2058 200.5765, 154.1135 200.5765, 154.1135 210.8268, 137.7131 190.3262, 154.1135 169.8256, 154.1135 180.0759, 185.2058 180.0759" style="stroke: rgb(56%,93%,56%); stroke-linecap: round; stroke-width: 1; fill: rgb(56%,93%,56%); fill-rule: evenodd;"/>
			<polygon points="200.1321 241.5776, 280.931 241.5776, 280.931 251.8279, 297.3315 231.3273, 280.931 210.8268, 280.931 221.0771, 200.1321 221.0771" style="stroke: rgb(67%,84%,90%); stroke-linecap: round; stroke-width: 1; fill: rgb(67%,84%,90%); fill-rule: evenodd;"/>
			<polygon points="332.8975 200.5765, 321.945 200.5765, 321.945 210.8268, 305.5445 190.3262, 321.945 169.8256, 321.945 180.0759, 332.8975 180.0759" style="stroke: rgb(56%,93%,56%); stroke-linecap: round; stroke-width: 1; fill: rgb(56%,93%,56%); fill-rule: evenodd;"/>
			<polygon points="420.5983 200.5765, 353.0831 200.5765, 353.0831 210.8268, 336.6826 190.3262, 353.0831 169.8256, 353.0831 180.0759, 420.5983 180.0759" style="stroke: rgb(56%,93%,56%); stroke-linecap: round; stroke-width: 1; fill: rgb(56%,93%,56%); fill-rule: evenodd;"/>
			<polygon points="520.8687 200.5765, 439.2127 200.5765, 439.2127 210.8268, 422.8123 190.3262, 439.2127 169.8256, 439.2127 180.0759, 520.8687 180.0759" style="stroke: rgb(56%,93%,56%); stroke-linecap: round; stroke-width: 1; fill: rgb(56%,93%,56%); fill-rule: evenodd;"/>
			<polygon points="537.6519 241.5776, 596.8113 241.5776, 596.8113 251.8279, 613.2117 231.3273, 596.8113 210.8268, 596.8113 221.0771, 537.6519 221.0771" style="stroke: rgb(67%,84%,90%); stroke-linecap: round; stroke-width: 1; fill: rgb(67%,84%,90%); fill-rule: evenodd;"/>
			<polygon points="632.6373 241.5776, 780.4975 241.5776, 780.4975 251.8279, 796.8979 231.3273, 780.4975 210.8268, 780.4975 221.0771, 632.6373 221.0771" style="stroke: rgb(67%,84%,90%); stroke-linecap: round; stroke-width: 1; fill: rgb(67%,84%,90%); fill-rule: evenodd;"/>
			<polygon points="903.096 200.5765, 840.937 200.5765, 840.937 210.8268, 824.5365 190.3262, 840.937 169.8256, 840.937 180.0759, 903.096 180.0759" style="stroke: rgb(56%,93%,56%); stroke-linecap: round; stroke-width: 1; fill: rgb(56%,93%,56%); fill-rule: evenodd;"/>
			<polygon points="917.4509 241.5776, 927.1179 241.5776, 927.1179 251.8279, 943.5183 231.3273, 927.1179 210.8268, 927.1179 221.0771, 917.4509 221.0771" style="stroke: rgb(67%,84%,90%); stroke-linecap: round; stroke-width: 1; fill: rgb(67%,84%,90%); fill-rule: evenodd;"/>
			<polygon points="943.9468 241.5776, 1024.103 241.5776, 1024.103 251.8279, 1040.504 231.3273, 1024.103 210.8268, 1024.103 221.0771, 943.9468 221.0771" style="stroke: rgb(67%,84%,90%); stroke-linecap: round; stroke-width: 1; fill: rgb(67%,84%,90%); fill-rule: evenodd;"/>
			<polygon points="1045.931 241.5776, 1095.021 241.5776, 1095.021 251.8279, 1111.421 231.3273, 1095.021 210.8268, 1095.021 221.0771, 1045.931 221.0771" style="stroke: rgb(67%,84%,90%); stroke-linecap: round; stroke-width: 1; fill: rgb(67%,84%,90%); fill-rule: evenodd;"/>
			<polygon points="1111.207 241.5776, 1150.869 241.5776, 1150.869 251.8279, 1167.27 231.3273, 1150.869 210.8268, 1150.869 221.0771, 1111.207 221.0771" style="stroke: rgb(67%,84%,90%); stroke-linecap: round; stroke-width: 1; fill: rgb(67%,84%,90%); fill-rule: evenodd;"/>
			<polygon points="1194.123 241.5776, 1213.645 241.5776, 1213.645 251.8279, 1230.046 231.3273, 1213.645 210.8268, 1213.645 221.0771, 1194.123 221.0771" style="stroke: rgb(67%,84%,90%); stroke-linecap: round; stroke-width: 1; fill: rgb(67%,84%,90%); fill-rule: evenodd;"/>
			<polygon points="1228.26 241.5776, 1249.283 241.5776, 1249.283 251.8279, 1265.683 231.3273, 1249.283 210.8268, 1249.283 221.0771, 1228.26 221.0771" style="stroke: rgb(67%,84%,90%); stroke-linecap: round; stroke-width: 1; fill: rgb(67%,84%,90%); fill-rule: evenodd;"/>
			<polygon points="1294.822 200.5765, 1284.298 200.5765, 1284.298 210.8268, 1267.897 190.3262, 1284.298 169.8256, 1284.298 180.0759, 1294.822 180.0759" style="stroke: rgb(56%,93%,56%); stroke-linecap: round; stroke-width: 1; fill: rgb(56%,93%,56%); fill-rule: evenodd;"/>
			<polygon points="1343.171 200.5765, 1318.507 200.5765, 1318.507 210.8268, 1302.106 190.3262, 1318.507 169.8256, 1318.507 180.0759, 1343.171 180.0759" style="stroke: rgb(56%,93%,56%); stroke-linecap: round; stroke-width: 1; fill: rgb(56%,93%,56%); fill-rule: evenodd;"/>
			<polygon points="107.7176 487.5844, 89.48054 487.5844, 89.48054 497.8346, 73.08009 477.3341, 89.48054 456.8335, 89.48054 467.0838, 107.7176 467.0838" style="stroke: rgb(56%,93%,56%); stroke-linecap: round; stroke-width: 1; fill: rgb(56%,93%,56%); fill-rule: evenodd;"/>
			<polygon points="206.4168 487.5844, 145.1149 487.5844, 145.1149 497.8346, 128.7144 477.3341, 145.1149 456.8335, 145.1149 467.0838, 206.4168 467.0838" style="stroke: rgb(56%,93%,56%); stroke-linecap: round; stroke-width: 1; fill: rgb(56%,93%,56%); fill-rule: evenodd;"/>
			<polygon points="285.1191 487.5844, 230.6732 487.5844, 230.6732 497.8346, 214.2728 477.3341, 230.6732 456.8335, 230.6732 467.0838, 285.1191 467.0838" style="stroke: rgb(56%,93%,56%); stroke-linecap: round; stroke-width: 1; fill: rgb(56%,93%,56%); fill-rule: evenodd;"/>
			<polygon points="294.8319 528.5855, 316.9255 528.5855, 316.9255 538.8358, 333.326 518.3352, 316.9255 497.8346, 316.9255 508.0849, 294.8319 508.0849" style="stroke: rgb(67%,84%,90%); stroke-linecap: round; stroke-width: 1; fill: rgb(67%,84%,90%); fill-rule: evenodd;"/>
			<polygon points="338.3966 528.5855, 342.7073 528.5855, 342.7073 538.8358, 359.1078 518.3352, 342.7073 497.8346, 342.7073 508.0849, 338.3966 508.0849" style="stroke: rgb(67%,84%,90%); stroke-linecap: round; stroke-width: 1; fill: rgb(67%,84%,90%); fill-rule: evenodd;"/>
			<polygon points="391.0314 528.5855, 397.6989 528.5855, 397.6989 538.8358, 414.0993 518.3352, 397.6989 497.8346, 397.6989 508.0849, 391.0314 508.0849" style="stroke: rgb(67%,84%,90%); stroke-linecap: round; stroke-width: 1; fill: rgb(67%,84%,90%); fill-rule: evenodd;"/>
			<polygon points="414.5993 528.5855, 431.1223 528.5855, 431.1223 538.8358, 447.5228 518.3352, 431.1223 497.8346, 431.1223 508.0849, 414.5993 508.0849" style="stroke: rgb(67%,84%,90%); stroke-linecap: round; stroke-width: 1; fill: rgb(67%,84%,90%); fill-rule: evenodd;"/>
			<polygon points="470.0194 487.5844, 469.1367 487.5844, 469.1367 497.8346, 452.7363 477.3341, 469.1367 456.8335, 469.1367 467.0838, 470.0194 467.0838" style="stroke: rgb(56%,93%,56%); stroke-linecap: round; stroke-width: 1; fill: rgb(56%,93%,56%); fill-rule: evenodd;"/>
			<path d="M 1346.385275,169.825647 L 1346.385275,251.827897 Z" style="stroke: rgb(0%,0%,0%); stroke-linecap: butt; stroke-width: 1;"/>
			<path d="M 70.866142,210.826772 L 1346.385275,210.826772 Z" style="stroke: rgb(0%,0%,0%); stroke-linecap: butt; stroke-width: 1;"/>
			<path d="M 70.866142,169.825647 L 70.866142,251.827897 Z" style="stroke: rgb(0%,0%,0%); stroke-linecap: butt; stroke-width: 1;"/>
			<path d="M 785.042588,210.826772 L 785.042588,231.327334 Z" style="stroke: rgb(0%,0%,0%); stroke-linecap: butt; stroke-width: 1;"/>
			<path d="M 785.042588,210.826772 L 785.042588,223.127109 Z" style="stroke: rgb(0%,0%,0%); stroke-linecap: butt; stroke-width: 1;"/>
			<path d="M 481.803269,456.833521 L 481.803269,538.835771 Z" style="stroke: rgb(0%,0%,0%); stroke-linecap: butt; stroke-width: 1;"/>
			<path d="M 70.866142,497.834646 L 481.803269,497.834646 Z" style="stroke: rgb(0%,0%,0%); stroke-linecap: butt; stroke-width: 1;"/>
			<path d="M 70.866142,456.833521 L 70.866142,538.835771 Z" style="stroke: rgb(0%,0%,0%); stroke-linecap: butt; stroke-width: 1;"/>
			<g transform=" matrix(0.707107,0.707107,-0.707107,0.707107,785.042588,231.327334)">
				<text style="font-family: Helvetica; font-size: 6px;fill: rgb(0%,0%,0%); stroke:none;" transform="translate(0,0) scale(1,-1)" x="0" y="0">10000</text>
			</g>
			<g transform=" matrix(0.707107,-0.707107,0.707107,0.707107,104.146764,169.825647)">
				<text style="font-family: Helvetica; font-size: 10px;fill: rgb(0%,0%,0%); stroke:none;" transform="translate(0,0) scale(1,-1)" x="0" y="0">Gene_00045</text>
			</g>
			<g transform=" matrix(0.707107,-0.707107,0.707107,0.707107,161.459424,169.825647)">
				<text style="font-family: Helvetica; font-size: 10px;fill: rgb(0%,0%,0%); stroke:none;" transform="translate(0,0) scale(1,-1)" x="0" y="0">Gene_00046</text>
			</g>
			<g transform=" matrix(0.707107,0.707107,-0.707107,0.707107,248.731786,251.827897)">
				<text style="font-family: Helvetica; font-size: 10px;fill: rgb(0%,0%,0%); stroke:none;" transform="translate(0,0) scale(1,-1)" x="0" y="0">Gene_00047</text>
			</g>
			<g transform=" matrix(0.707107,-0.707107,0.707107,0.707107,319.221001,169.825647)">
				<text style="font-family: Helvetica; font-size: 10px;fill: rgb(0%,0%,0%); stroke:none;" transform="translate(0,0) scale(1,-1)" x="0" y="0">Gene_00048</text>
			</g>
			<g transform=" matrix(0.707107,-0.707107,0.707107,0.707107,378.640481,169.825647)">
				<text style="font-family: Helvetica; font-size: 10px;fill: rgb(0%,0%,0%); stroke:none;" transform="translate(0,0) scale(1,-1)" x="0" y="0">Gene_00049</text>
			</g>
			<g transform=" matrix(0.707107,-0.707107,0.707107,0.707107,471.840508,169.825647)">
				<text style="font-family: Helvetica; font-size: 10px;fill: rgb(0%,0%,0%); stroke:none;" transform="translate(0,0) scale(1,-1)" x="0" y="0">Gene_00050</text>
			</g>
			<g transform=" matrix(0.707107,0.707107,-0.707107,0.707107,575.431801,251.827897)">
				<text style="font-family: Helvetica; font-size: 10px;fill: rgb(0%,0%,0%); stroke:none;" transform="translate(0,0) scale(1,-1)" x="0" y="0">Gene_00051</text>
			</g>
			<g transform=" matrix(0.707107,0.707107,-0.707107,0.707107,714.767626,251.827897)">
				<text style="font-family: Helvetica; font-size: 10px;fill: rgb(0%,0%,0%); stroke:none;" transform="translate(0,0) scale(1,-1)" x="0" y="0">Gene_00052</text>
			</g>
			<g transform=" matrix(0.707107,-0.707107,0.707107,0.707107,863.81625,169.825647)">
				<text style="font-family: Helvetica; font-size: 16px;fill: rgb(0%,0%,100%); stroke:none;" transform="translate(0,0) scale(1,-1)" x="0" y="0">Gene_00053 (81.3)</text>
			</g>
			<g transform=" matrix(0.707107,0.707107,-0.707107,0.707107,930.484622,251.827897)">
				<text style="font-family: Helvetica; font-size: 10px;fill: rgb(0%,0%,0%); stroke:none;" transform="translate(0,0) scale(1,-1)" x="0" y="0">Gene_00054</text>
			</g>
			<g transform=" matrix(0.707107,0.707107,-0.707107,0.707107,992.225175,251.827897)">
				<text style="font-family: Helvetica; font-size: 10px;fill: rgb(0%,0%,0%); stroke:none;" transform="translate(0,0) scale(1,-1)" x="0" y="0">Gene_00055</text>
			</g>
			<g transform=" matrix(0.707107,0.707107,-0.707107,0.707107,1078.676234,251.827897)">
				<text style="font-family: Helvetica; font-size: 10px;fill: rgb(0%,0%,0%); stroke:none;" transform="translate(0,0) scale(1,-1)" x="0" y="0">Gene_00056</text>
			</g>
			<g transform=" matrix(0.707107,0.707107,-0.707107,0.707107,1139.238397,251.827897)">
				<text style="font-family: Helvetica; font-size: 10px;fill: rgb(0%,0%,0%); stroke:none;" transform="translate(0,0) scale(1,-1)" x="0" y="0">Gene_00057</text>
			</g>
			<g transform=" matrix(0.707107,0.707107,-0.707107,0.707107,1212.084394,251.827897)">
				<text style="font-family: Helvetica; font-size: 10px;fill: rgb(0%,0%,0%); stroke:none;" transform="translate(0,0) scale(1,-1)" x="0" y="0">Gene_00058</text>
			</g>
			<g transform=" matrix(0.707107,0.707107,-0.707107,0.707107,1246.971914,251.827897)">
				<text style="font-family: Helvetica; font-size: 10px;fill: rgb(0%,0%,0%); stroke:none;" transform="translate(0,0) scale(1,-1)" x="0" y="0">Gene_00059</text>
			</g>
			<g transform=" matrix(0.707107,-0.707107,0.707107,0.707107,1281.35951,169.825647)">
				<text style="font-family: Helvetica; font-size: 10px;fill: rgb(0%,0%,0%); stroke:none;" transform="translate(0,0) scale(1,-1)" x="0" y="0">Gene_00060</text>
			</g>
			<g transform=" matrix(0.707107,-0.707107,0.707107,0.707107,1322.638908,169.825647)">
				<text style="font-family: Helvetica; font-size: 10px;fill: rgb(0%,0%,0%); stroke:none;" transform="translate(0,0) scale(1,-1)" x="0" y="0">Gene_00061</text>
			</g>
			<g transform=" matrix(0.707107,-0.707107,0.707107,0.707107,90.398868,456.833521)">
				<text style="font-family: Helvetica; font-size: 10px;fill: rgb(0%,0%,0%); stroke:none;" transform="translate(0,0) scale(1,-1)" x="0" y="0">Gene_01120</text>
			</g>
			<g transform=" matrix(0.707107,-0.707107,0.707107,0.707107,167.565633,456.833521)">
				<text style="font-family: Helvetica; font-size: 16px;fill: rgb(0%,0%,100%); stroke:none;" transform="translate(0,0) scale(1,-1)" x="0" y="0">Gene_01121 (81.3)</text>
			</g>
			<g transform=" matrix(0.707107,-0.707107,0.707107,0.707107,249.695924,456.833521)">
				<text style="font-family: Helvetica; font-size: 10px;fill: rgb(0%,0%,0%); stroke:none;" transform="translate(0,0) scale(1,-1)" x="0" y="0">Gene_01122</text>
			</g>
			<g transform=" matrix(0.707107,0.707107,-0.707107,0.707107,314.078931,538.835771)">
				<text style="font-family: Helvetica; font-size: 10px;fill: rgb(0%,0%,0%); stroke:none;" transform="translate(0,0) scale(1,-1)" x="0" y="0">Gene_01123</text>
			</g>
			<g transform=" matrix(0.707107,0.707107,-0.707107,0.707107,348.752197,538.835771)">
				<text style="font-family: Helvetica; font-size: 10px;fill: rgb(0%,0%,0%); stroke:none;" transform="translate(0,0) scale(1,-1)" x="0" y="0">Gene_01124</text>
			</g>
			<g transform=" matrix(0.707107,0.707107,-0.707107,0.707107,402.565392,538.835771)">
				<text style="font-family: Helvetica; font-size: 10px;fill: rgb(0%,0%,0%); stroke:none;" transform="translate(0,0) scale(1,-1)" x="0" y="0">Gene_01125</text>
			</g>
			<g transform=" matrix(0.707107,0.707107,-0.707107,0.707107,431.061033,538.835771)">
				<text style="font-family: Helvetica; font-size: 10px;fill: rgb(0%,0%,0%); stroke:none;" transform="translate(0,0) scale(1,-1)" x="0" y="0">Gene_01126</text>
			</g>
			<g transform=" matrix(0.707107,-0.707107,0.707107,0.707107,461.377823,456.833521)">
				<text style="font-family: Helvetica; font-size: 10px;fill: rgb(0%,0%,0%); stroke:none;" transform="translate(0,0) scale(1,-1)" x="0" y="0">Gene_01127</text>
			</g>
			<g transform=" matrix(1,0,-0,1,70,169.825647)">
				<text style="font-family: Helvetica; font-size: 12px;fill: rgb(60%,60%,60%); stroke:none;" transform="translate(0,0) scale(1,-1)" x="0" y="0">megahit_1548 (left 56469bp, right 6207bp)</text>
			</g>
			<g transform=" matrix(1,0,-0,1,70,456.833521)">
				<text style="font-family: Helvetica; font-size: 12px;fill: rgb(60%,60%,60%); stroke:none;" transform="translate(0,0) scale(1,-1)" x="0" y="0">megahit_1831 (left 810bp, right 3856bp)</text>
			</g>
		</g>
	</g>
</svg>
