<?xml version="1.0" encoding="utf-8"?>
<!DOCTYPE svg
  PUBLIC '-//W3C//DTD SVG 1.0//EN'
  'http://www.w3.org/TR/2001/REC-SVG-20010904/DTD/svg10.dtd'>
<svg fill-rule="evenodd" height="708.6614173228346" preserveAspectRatio="xMinYMin meet" version="1.0" viewBox="0 0 1417 708" width="1417.3228346456692" xmlns="http://www.w3.org/2000/svg" xmlns:xlink="http://www.w3.org/1999/xlink">
	<title>...</title>
	<desc>...</desc>
	<clipPath id="clip">
		<rect height="708.6614173228346" width="1417.3228346456692" x="0" y="0"/>
	</clipPath>
	<g id="group" style="clip-path: url(#clip)" transform="scale(1,-1) translate(0,-708)">
		<g transform="">
			<polygon points="70.86614 169.8256, 245.6333 169.8256, 245.6333 251.8279, 70.86614 251.8279" style="stroke: rgb(96%,96%,96%); stroke-linecap: butt; stroke-width: 1; fill: rgb(96%,96%,96%); fill-rule: evenodd;"/>
			<polygon points="70.86614 456.8335, 1346.369 456.8335, 1346.369 538.8358, 70.86614 538.8358" style="stroke: rgb(96%,96%,96%); stroke-linecap: butt; stroke-width: 1; fill: rgb(96%,96%,96%); fill-rule: evenodd;"/>
			<polygon points="938.3167 456.8335, 1094.802 456.8335, 227.5268 251.8279, 70.95361 251.8279" style="stroke: rgb(100%,2%,2%); stroke-linecap: round; stroke-width: 1; fill: rgb(100%,2%,2%); fill-rule: evenodd;"/>
			<polygon points="112.7648 241.5776, 129.0785 241.5776, 129.0785 251.8279, 145.479 231.3273, 129.0785 210.8268, 129.0785 221.0771, 112.7648 221.0771" style="stroke: rgb(67%,84%,90%); stroke-linecap: round; stroke-width: 1; fill: rgb(67%,84%,90%); fill-rule: evenodd;"/>
			<polygon points="148.3655 241.5776, 196.1688 241.5776, 196.1688 251.8279, 212.5693 231.3273, 196.1688 210.8268, 196.1688 221.0771, 148.3655 221.0771" style="stroke: rgb(67%,84%,90%); stroke-linecap: round; stroke-width: 1; fill: rgb(67%,84%,90%); fill-rule: evenodd;"/>
			<polygon points="244.2338 200.5765, 244.1897 200.5765, 244.1897 210.8268, 227.7892 190.3262, 244.1897 169.8256, 244.1897 180.0759, 244.2338 180.0759" style="stroke: rgb(56%,93%,56%); stroke-linecap: round; stroke-width: 1; fill: rgb(56%,93%,56%); fill-rule: evenodd;"/>
			<polygon points="70.86614 528.5855, 141.7618 528.5855, 141.7618 538.8358, 158.1623 518.3352, 141.7618 497.8346, 141.7618 508.0849, 70.86614 508.0849" style="stroke: rgb(67%,84%,90%); stroke-linecap: round; stroke-width: 1; fill: rgb(67%,84%,90%); fill-rule: evenodd;"/>
			<polygon points="176.9685 487.5844, 174.3003 487.5844, 174.3003 497.8346, 157.8999 477.3341, 174.3003 456.8335, 174.3003 467.0838, 176.9685 467.0838" style="stroke: rgb(56%,93%,56%); stroke-linecap: round; stroke-width: 1; fill: rgb(56%,93%,56%); fill-rule: evenodd;"/>
			<polygon points="353.3977 487.5844, 193.5439 487.5844, 193.5439 497.8346, 177.1435 477.3341, 193.5439 456.8335, 193.5439 467.0838, 353.3977 467.0838" style="stroke: rgb(56%,93%,56%); stroke-linecap: round; stroke-width: 1; fill: rgb(56%,93%,56%); fill-rule: evenodd;"/>
			<polygon points="445.8546 487.5844, 376.0086 487.5844, 376.0086 497.8346, 359.6081 477.3341, 376.0086 456.8335, 376.0086 467.0838, 445.8546 467.0838" style="stroke: rgb(56%,93%,56%); stroke-linecap: round; stroke-width: 1; fill: rgb(56%,93%,56%); fill-rule: evenodd;"/>
			<polygon points="465.9729 528.5855, 516.138 528.5855, 516.138 538.8358, 532.5384 518.3352, 516.138 497.8346, 516.138 508.0849, 465.9729 508.0849" style="stroke: rgb(67%,84%,90%); stroke-linecap: round; stroke-width: 1; fill: rgb(67%,84%,90%); fill-rule: evenodd;"/>
			<polygon points="548.7206 528.5855, 617.2545 528.5855, 617.2545 538.8358, 633.655 518.3352, 617.2545 497.8346, 617.2545 508.0849, 548.7206 508.0849" style="stroke: rgb(67%,84%,90%); stroke-linecap: round; stroke-width: 1; fill: rgb(67%,84%,90%); fill-rule: evenodd;"/>
			<polygon points="667.2439 528.5855, 673.3235 528.5855, 673.3235 538.8358, 689.7239 518.3352, 673.3235 497.8346, 673.3235 508.0849, 667.2439 508.0849" style="stroke: rgb(67%,84%,90%); stroke-linecap: round; stroke-width: 1; fill: rgb(67%,84%,90%); fill-rule: evenodd;"/>
			<polygon points="693.6601 528.5855, 828.3222 528.5855, 828.3222 538.8358, 844.7227 518.3352, 828.3222 497.8346, 828.3222 508.0849, 693.6601 508.0849" style="stroke: rgb(67%,84%,90%); stroke-linecap: round; stroke-width: 1; fill: rgb(67%,84%,90%); fill-rule: evenodd;"/>
			<polygon points="848.309 528.5855, 876.4313 528.5855, 876.4313 538.8358, 892.8317 518.3352, 876.4313 497.8346, 876.4313 508.0849, 848.309 508.0849" style="stroke: rgb(67%,84%,90%); stroke-linecap: round; stroke-width: 1; fill: rgb(67%,84%,90%); fill-rule: evenodd;"/>
			<polygon points="970.9434 487.5844, 912.906 487.5844, 912.906 497.8346, 896.5055 477.3341, 912.906 456.8335, 912.906 467.0838, 970.9434 467.0838" style="stroke: rgb(56%,93%,56%); stroke-linecap: round; stroke-width: 1; fill: rgb(56%,93%,56%); fill-rule: evenodd;"/>
			<polygon points="980.1279 528.5855, 996.4416 528.5855, 996.4416 538.8358, 1012.842 518.3352, 996.4416 497.8346, 996.4416 508.0849, 980.1279 508.0849" style="stroke: rgb(67%,84%,90%); stroke-linecap: round; stroke-width: 1; fill: rgb(67%,84%,90%); fill-rule: evenodd;"/>
			<polygon points="1015.729 528.5855, 1063.532 528.5855, 1063.532 538.8358, 1079.932 518.3352, 1063.532 497.8346, 1063.532 508.0849, 1015.729 508.0849" style="stroke: rgb(67%,84%,90%); stroke-linecap: round; stroke-width: 1; fill: rgb(67%,84%,90%); fill-rule: evenodd;"/>
			<polygon points="1176.151 487.5844, 1112.865 487.5844, 1112.865 497.8346, 1096.464 477.3341, 1112.865 456.8335, 1112.865 467.0838, 1176.151 467.0838" style="stroke: rgb(56%,93%,56%); stroke-linecap: round; stroke-width: 1; fill: rgb(56%,93%,56%); fill-rule: evenodd;"/>
			<polygon points="1283.827 487.5844, 1204.272 487.5844, 1204.272 497.8346, 1187.872 477.3341, 1204.272 456.8335, 1204.272 467.0838, 1283.827 467.0838" style="stroke: rgb(56%,93%,56%); stroke-linecap: round; stroke-width: 1; fill: rgb(56%,93%,56%); fill-rule: evenodd;"/>
			<path d="M 245.633331,169.825647 L 245.633331,251.827897 Z" style="stroke: rgb(0%,0%,0%); stroke-linecap: butt; stroke-width: 1;"/>
			<path d="M 70.866142,210.826772 L 245.633331,210.826772 Z" style="stroke: rgb(0%,0%,0%); stroke-linecap: butt; stroke-width: 1;"/>
			<path d="M 70.866142,169.825647 L 70.866142,251.827897 Z" style="stroke: rgb(0%,0%,0%); stroke-linecap: butt; stroke-width: 1;"/>
			<path d="M 1346.369222,456.833521 L 1346.369222,538.835771 Z" style="stroke: rgb(0%,0%,0%); stroke-linecap: butt; stroke-width: 1;"/>
			<path d="M 70.866142,497.834646 L 1346.369222,497.834646 Z" style="stroke: rgb(0%,0%,0%); stroke-linecap: butt; stroke-width: 1;"/>
			<path d="M 70.866142,456.833521 L 70.866142,538.835771 Z" style="stroke: rgb(0%,0%,0%); stroke-linecap: butt; stroke-width: 1;"/>
			<path d="M 945.576799,497.834646 L 945.576799,518.335208 Z" style="stroke: rgb(0%,0%,0%); stroke-linecap: butt; stroke-width: 1;"/>
			<path d="M 945.576799,497.834646 L 945.576799,510.134983 Z" style="stroke: rgb(0%,0%,0%); stroke-linecap: butt; stroke-width: 1;"/>
			<g transform=" matrix(0.707107,0.707107,-0.707107,0.707107,945.576799,518.335208)">
				<text style="font-family: Helvetica; font-size: 6px;fill: rgb(0%,0%,0%); stroke:none;" transform="translate(0,0) scale(1,-1)" x="0" y="0">10000</text>
			</g>
			<g transform=" matrix(0.707107,0.707107,-0.707107,0.707107,129.121871,251.827897)">
				<text style="font-family: Helvetica; font-size: 16px;fill: rgb(0%,0%,100%); stroke:none;" transform="translate(0,0) scale(1,-1)" x="0" y="0">Gene_03082 (99.5)</text>
			</g>
			<g transform=" matrix(0.707107,0.707107,-0.707107,0.707107,180.467387,251.827897)">
				<text style="font-family: Helvetica; font-size: 10px;fill: rgb(0%,0%,0%); stroke:none;" transform="translate(0,0) scale(1,-1)" x="0" y="0">Gene_03083</text>
			</g>
			<g transform=" matrix(0.707107,-0.707107,0.707107,0.707107,236.011514,169.825647)">
				<text style="font-family: Helvetica; font-size: 10px;fill: rgb(0%,0%,0%); stroke:none;" transform="translate(0,0) scale(1,-1)" x="0" y="0">Gene_03084</text>
			</g>
			<g transform=" matrix(0.707107,0.707107,-0.707107,0.707107,114.514204,538.835771)">
				<text style="font-family: Helvetica; font-size: 10px;fill: rgb(0%,0%,0%); stroke:none;" transform="translate(0,0) scale(1,-1)" x="0" y="0">Gene_03277</text>
			</g>
			<g transform=" matrix(0.707107,-0.707107,0.707107,0.707107,167.434198,456.833521)">
				<text style="font-family: Helvetica; font-size: 10px;fill: rgb(0%,0%,0%); stroke:none;" transform="translate(0,0) scale(1,-1)" x="0" y="0">Gene_03278</text>
			</g>
			<g transform=" matrix(0.707107,-0.707107,0.707107,0.707107,265.270585,456.833521)">
				<text style="font-family: Helvetica; font-size: 10px;fill: rgb(0%,0%,0%); stroke:none;" transform="translate(0,0) scale(1,-1)" x="0" y="0">Gene_03279</text>
			</g>
			<g transform=" matrix(0.707107,-0.707107,0.707107,0.707107,402.731365,456.833521)">
				<text style="font-family: Helvetica; font-size: 10px;fill: rgb(0%,0%,0%); stroke:none;" transform="translate(0,0) scale(1,-1)" x="0" y="0">Gene_03280</text>
			</g>
			<g transform=" matrix(0.707107,0.707107,-0.707107,0.707107,499.255686,538.835771)">
				<text style="font-family: Helvetica; font-size: 10px;fill: rgb(0%,0%,0%); stroke:none;" transform="translate(0,0) scale(1,-1)" x="0" y="0">Gene_03281</text>
			</g>
			<g transform=" matrix(0.707107,0.707107,-0.707107,0.707107,591.187776,538.835771)">
				<text style="font-family: Helvetica; font-size: 10px;fill: rgb(0%,0%,0%); stroke:none;" transform="translate(0,0) scale(1,-1)" x="0" y="0">Gene_03282</text>
			</g>
			<g transform=" matrix(0.707107,0.707107,-0.707107,0.707107,678.4839,538.835771)">
				<text style="font-family: Helvetica; font-size: 10px;fill: rgb(0%,0%,0%); stroke:none;" transform="translate(0,0) scale(1,-1)" x="0" y="0">Gene_03283</text>
			</g>
			<g transform=" matrix(0.707107,0.707107,-0.707107,0.707107,769.191395,538.835771)">
				<text style="font-family: Helvetica; font-size: 10px;fill: rgb(0%,0%,0%); stroke:none;" transform="translate(0,0) scale(1,-1)" x="0" y="0">Gene_03284</text>
			</g>
			<g transform=" matrix(0.707107,0.707107,-0.707107,0.707107,870.57036,538.835771)">
				<text style="font-family: Helvetica; font-size: 10px;fill: rgb(0%,0%,0%); stroke:none;" transform="translate(0,0) scale(1,-1)" x="0" y="0">Gene_03285</text>
			</g>
			<g transform=" matrix(0.707107,-0.707107,0.707107,0.707107,933.724469,456.833521)">
				<text style="font-family: Helvetica; font-size: 10px;fill: rgb(0%,0%,0%); stroke:none;" transform="translate(0,0) scale(1,-1)" x="0" y="0">Gene_03286</text>
			</g>
			<g transform=" matrix(0.707107,0.707107,-0.707107,0.707107,996.484959,538.835771)">
				<text style="font-family: Helvetica; font-size: 16px;fill: rgb(0%,0%,100%); stroke:none;" transform="translate(0,0) scale(1,-1)" x="0" y="0">Gene_03287 (99.5)</text>
			</g>
			<g transform=" matrix(0.707107,0.707107,-0.707107,0.707107,1047.830475,538.835771)">
				<text style="font-family: Helvetica; font-size: 10px;fill: rgb(0%,0%,0%); stroke:none;" transform="translate(0,0) scale(1,-1)" x="0" y="0">Gene_03288</text>
			</g>
			<g transform=" matrix(0.707107,-0.707107,0.707107,0.707107,1136.307458,456.833521)">
				<text style="font-family: Helvetica; font-size: 10px;fill: rgb(0%,0%,0%); stroke:none;" transform="translate(0,0) scale(1,-1)" x="0" y="0">Gene_03289</text>
			</g>
			<g transform=" matrix(0.707107,-0.707107,0.707107,0.707107,1235.84953,456.833521)">
				<text style="font-family: Helvetica; font-size: 10px;fill: rgb(0%,0%,0%); stroke:none;" transform="translate(0,0) scale(1,-1)" x="0" y="0">Gene_03290</text>
			</g>
			<g transform=" matrix(1,0,-0,1,70,456.833521)">
				<text style="font-family: Helvetica; font-size: 12px;fill: rgb(60%,60%,60%); stroke:none;" transform="translate(0,0) scale(1,-1)" x="0" y="0">megahit_3116 (left 14852bp, right 3813bp)</text>
			</g>
		</g>
	</g>
</svg>
