<?xml version="1.0" encoding="utf-8"?>
<!DOCTYPE svg
  PUBLIC '-//W3C//DTD SVG 1.0//EN'
  'http://www.w3.org/TR/2001/REC-SVG-20010904/DTD/svg10.dtd'>
<svg fill-rule="evenodd" height="708.6614173228346" preserveAspectRatio="xMinYMin meet" version="1.0" viewBox="0 0 1417 708" width="1417.3228346456692" xmlns="http://www.w3.org/2000/svg" xmlns:xlink="http://www.w3.org/1999/xlink">
	<title>...</title>
	<desc>...</desc>
	<clipPath id="clip">
		<rect height="708.6614173228346" width="1417.3228346456692" x="0" y="0"/>
	</clipPath>
	<g id="group" style="clip-path: url(#clip)" transform="scale(1,-1) translate(0,-708)">
		<g transform="">
			<polygon points="70.86614 169.8256, 745.1848 169.8256, 745.1848 251.8279, 70.86614 251.8279" style="stroke: rgb(96%,96%,96%); stroke-linecap: butt; stroke-width: 1; fill: rgb(96%,96%,96%); fill-rule: evenodd;"/>
			<polygon points="70.86614 456.8335, 1346.398 456.8335, 1346.398 538.8358, 70.86614 538.8358" style="stroke: rgb(96%,96%,96%); stroke-linecap: butt; stroke-width: 1; fill: rgb(96%,96%,96%); fill-rule: evenodd;"/>
			<polygon points="685.9846 456.8335, 773.9342 456.8335, 745.1848 251.8279, 657.0593 251.8279" style="stroke: rgb(100%,17%,17%); stroke-linecap: round; stroke-width: 1; fill: rgb(100%,17%,17%); fill-rule: evenodd;"/>
			<polygon points="70.86614 241.5776, 84.85785 241.5776, 84.85785 251.8279, 101.2583 231.3273, 84.85785 210.8268, 84.85785 221.0771, 70.86614 221.0771" style="stroke: rgb(67%,84%,90%); stroke-linecap: round; stroke-width: 1; fill: rgb(67%,84%,90%); fill-rule: evenodd;"/>
			<polygon points="105.248 241.5776, 111.847 241.5776, 111.847 251.8279, 128.2475 231.3273, 111.847 210.8268, 111.847 221.0771, 105.248 221.0771" style="stroke: rgb(67%,84%,90%); stroke-linecap: round; stroke-width: 1; fill: rgb(67%,84%,90%); fill-rule: evenodd;"/>
			<polygon points="274.6344 200.5765, 154.5048 200.5765, 154.5048 210.8268, 138.1044 190.3262, 154.5048 169.8256, 154.5048 180.0759, 274.6344 180.0759" style="stroke: rgb(56%,93%,56%); stroke-linecap: round; stroke-width: 1; fill: rgb(56%,93%,56%); fill-rule: evenodd;"/>
			<polygon points="314.5315 200.5765, 290.8588 200.5765, 290.8588 210.8268, 274.4584 190.3262, 290.8588 169.8256, 290.8588 180.0759, 314.5315 180.0759" style="stroke: rgb(56%,93%,56%); stroke-linecap: round; stroke-width: 1; fill: rgb(56%,93%,56%); fill-rule: evenodd;"/>
			<polygon points="379.4815 200.5765, 335.039 200.5765, 335.039 210.8268, 318.6385 190.3262, 335.039 169.8256, 335.039 180.0759, 379.4815 180.0759" style="stroke: rgb(56%,93%,56%); stroke-linecap: round; stroke-width: 1; fill: rgb(56%,93%,56%); fill-rule: evenodd;"/>
			<polygon points="420.2586 200.5765, 396.41 200.5765, 396.41 210.8268, 380.0095 190.3262, 396.41 169.8256, 396.41 180.0759, 420.2586 180.0759" style="stroke: rgb(56%,93%,56%); stroke-linecap: round; stroke-width: 1; fill: rgb(56%,93%,56%); fill-rule: evenodd;"/>
			<polygon points="448.2452 200.5765, 440.062 200.5765, 440.062 210.8268, 423.6616 190.3262, 440.062 169.8256, 440.062 180.0759, 448.2452 180.0759" style="stroke: rgb(56%,93%,56%); stroke-linecap: round; stroke-width: 1; fill: rgb(56%,93%,56%); fill-rule: evenodd;"/>
			<polygon points="464.9081 200.5765, 464.4696 200.5765, 464.4696 210.8268, 448.0692 190.3262, 464.4696 169.8256, 464.4696 180.0759, 464.9081 180.0759" style="stroke: rgb(56%,93%,56%); stroke-linecap: round; stroke-width: 1; fill: rgb(56%,93%,56%); fill-rule: evenodd;"/>
			<polygon points="503.9837 200.5765, 482.2473 200.5765, 482.2473 210.8268, 465.8469 190.3262, 482.2473 169.8256, 482.2473 180.0759, 503.9837 180.0759" style="stroke: rgb(56%,93%,56%); stroke-linecap: round; stroke-width: 1; fill: rgb(56%,93%,56%); fill-rule: evenodd;"/>
			<polygon points="516.8916 241.5776, 528.067 241.5776, 528.067 251.8279, 544.4675 231.3273, 528.067 210.8268, 528.067 221.0771, 516.8916 221.0771" style="stroke: rgb(67%,84%,90%); stroke-linecap: round; stroke-width: 1; fill: rgb(67%,84%,90%); fill-rule: evenodd;"/>
			<polygon points="544.0568 241.5776, 572.1298 241.5776, 572.1298 251.8279, 588.5303 231.3273, 572.1298 210.8268, 572.1298 221.0771, 544.0568 221.0771" style="stroke: rgb(67%,84%,90%); stroke-linecap: round; stroke-width: 1; fill: rgb(67%,84%,90%); fill-rule: evenodd;"/>
			<polygon points="587.5915 241.5776, 608.6239 241.5776, 608.6239 251.8279, 625.0243 231.3273, 608.6239 210.8268, 608.6239 221.0771, 587.5915 221.0771" style="stroke: rgb(67%,84%,90%); stroke-linecap: round; stroke-width: 1; fill: rgb(67%,84%,90%); fill-rule: evenodd;"/>
			<polygon points="631.7716 241.5776, 631.7716 251.8279, 643.33 231.3273, 631.7716 210.8268, 631.7716 221.0771" style="stroke: rgb(67%,84%,90%); stroke-linecap: round; stroke-width: 1; fill: rgb(67%,84%,90%); fill-rule: evenodd;"/>
			<polygon points="667.9136 200.5765, 667.9136 210.8268, 651.9548 190.3262, 667.9136 169.8256, 667.9136 180.0759" style="stroke: rgb(56%,93%,56%); stroke-linecap: round; stroke-width: 1; fill: rgb(56%,93%,56%); fill-rule: evenodd;"/>
			<polygon points="681.8776 241.5776, 714.7031 241.5776, 714.7031 251.8279, 731.1035 231.3273, 714.7031 210.8268, 714.7031 221.0771, 681.8776 221.0771" style="stroke: rgb(67%,84%,90%); stroke-linecap: round; stroke-width: 1; fill: rgb(67%,84%,90%); fill-rule: evenodd;"/>
			<polygon points="70.86614 528.5855, 108.7961 528.5855, 108.7961 538.8358, 125.1965 518.3352, 108.7961 497.8346, 108.7961 508.0849, 70.86614 508.0849" style="stroke: rgb(67%,84%,90%); stroke-linecap: round; stroke-width: 1; fill: rgb(67%,84%,90%); fill-rule: evenodd;"/>
			<polygon points="130.125 528.5855, 143.5886 528.5855, 143.5886 538.8358, 159.9891 518.3352, 143.5886 497.8346, 143.5886 508.0849, 130.125 508.0849" style="stroke: rgb(67%,84%,90%); stroke-linecap: round; stroke-width: 1; fill: rgb(67%,84%,90%); fill-rule: evenodd;"/>
			<polygon points="167.3231 528.5855, 306.8145 528.5855, 306.8145 538.8358, 323.2149 518.3352, 306.8145 497.8346, 306.8145 508.0849, 167.3231 508.0849" style="stroke: rgb(67%,84%,90%); stroke-linecap: round; stroke-width: 1; fill: rgb(67%,84%,90%); fill-rule: evenodd;"/>
			<polygon points="374.3183 487.5844, 341.8449 487.5844, 341.8449 497.8346, 325.4445 477.3341, 341.8449 456.8335, 341.8449 467.0838, 374.3183 467.0838" style="stroke: rgb(56%,93%,56%); stroke-linecap: round; stroke-width: 1; fill: rgb(56%,93%,56%); fill-rule: evenodd;"/>
			<polygon points="395.3816 487.5844, 390.3668 487.5844, 390.3668 497.8346, 373.9663 477.3341, 390.3668 456.8335, 390.3668 467.0838, 395.3816 467.0838" style="stroke: rgb(56%,93%,56%); stroke-linecap: round; stroke-width: 1; fill: rgb(56%,93%,56%); fill-rule: evenodd;"/>
			<polygon points="401.6009 528.5855, 435.6585 528.5855, 435.6585 538.8358, 452.0589 518.3352, 435.6585 497.8346, 435.6585 508.0849, 401.6009 508.0849" style="stroke: rgb(67%,84%,90%); stroke-linecap: round; stroke-width: 1; fill: rgb(67%,84%,90%); fill-rule: evenodd;"/>
			<polygon points="551.2735 487.5844, 468.2833 487.5844, 468.2833 497.8346, 451.8829 477.3341, 468.2833 456.8335, 468.2833 467.0838, 551.2735 467.0838" style="stroke: rgb(56%,93%,56%); stroke-linecap: round; stroke-width: 1; fill: rgb(56%,93%,56%); fill-rule: evenodd;"/>
			<polygon points="615.8128 487.5844, 570.4902 487.5844, 570.4902 497.8346, 554.0897 477.3341, 570.4902 456.8335, 570.4902 467.0838, 615.8128 467.0838" style="stroke: rgb(56%,93%,56%); stroke-linecap: round; stroke-width: 1; fill: rgb(56%,93%,56%); fill-rule: evenodd;"/>
			<polygon points="632.5343 487.5844, 632.5343 497.8346, 621.68 477.3341, 632.5343 456.8335, 632.5343 467.0838" style="stroke: rgb(56%,93%,56%); stroke-linecap: round; stroke-width: 1; fill: rgb(56%,93%,56%); fill-rule: evenodd;"/>
			<polygon points="696.839 487.5844, 648.3481 487.5844, 648.3481 497.8346, 631.9476 477.3341, 648.3481 456.8335, 648.3481 467.0838, 696.839 467.0838" style="stroke: rgb(56%,93%,56%); stroke-linecap: round; stroke-width: 1; fill: rgb(56%,93%,56%); fill-rule: evenodd;"/>
			<polygon points="710.6269 528.5855, 743.2764 528.5855, 743.2764 538.8358, 759.6768 518.3352, 743.2764 497.8346, 743.2764 508.0849, 710.6269 508.0849" style="stroke: rgb(67%,84%,90%); stroke-linecap: round; stroke-width: 1; fill: rgb(67%,84%,90%); fill-rule: evenodd;"/>
			<polygon points="758.7381 528.5855, 781.1786 528.5855, 781.1786 538.8358, 797.579 518.3352, 781.1786 497.8346, 781.1786 508.0849, 758.7381 508.0849" style="stroke: rgb(67%,84%,90%); stroke-linecap: round; stroke-width: 1; fill: rgb(67%,84%,90%); fill-rule: evenodd;"/>
			<polygon points="827.2084 528.5855, 897.8774 528.5855, 897.8774 538.8358, 914.2779 518.3352, 897.8774 497.8346, 897.8774 508.0849, 827.2084 508.0849" style="stroke: rgb(67%,84%,90%); stroke-linecap: round; stroke-width: 1; fill: rgb(67%,84%,90%); fill-rule: evenodd;"/>
			<polygon points="978.9932 487.5844, 928.3901 487.5844, 928.3901 497.8346, 911.9896 477.3341, 928.3901 456.8335, 928.3901 467.0838, 978.9932 467.0838" style="stroke: rgb(56%,93%,56%); stroke-linecap: round; stroke-width: 1; fill: rgb(56%,93%,56%); fill-rule: evenodd;"/>
			<polygon points="1055.736 487.5844, 995.4523 487.5844, 995.4523 497.8346, 979.0519 477.3341, 995.4523 456.8335, 995.4523 467.0838, 1055.736 467.0838" style="stroke: rgb(56%,93%,56%); stroke-linecap: round; stroke-width: 1; fill: rgb(56%,93%,56%); fill-rule: evenodd;"/>
			<polygon points="1078.325 487.5844, 1072.958 487.5844, 1072.958 497.8346, 1056.558 477.3341, 1072.958 456.8335, 1072.958 467.0838, 1078.325 467.0838" style="stroke: rgb(56%,93%,56%); stroke-linecap: round; stroke-width: 1; fill: rgb(56%,93%,56%); fill-rule: evenodd;"/>
			<polygon points="1175.075 487.5844, 1095.43 487.5844, 1095.43 497.8346, 1079.029 477.3341, 1095.43 456.8335, 1095.43 467.0838, 1175.075 467.0838" style="stroke: rgb(56%,93%,56%); stroke-linecap: round; stroke-width: 1; fill: rgb(56%,93%,56%); fill-rule: evenodd;"/>
			<polygon points="1189.45 487.5844, 1189.45 497.8346, 1177.54 477.3341, 1189.45 456.8335, 1189.45 467.0838" style="stroke: rgb(56%,93%,56%); stroke-linecap: round; stroke-width: 1; fill: rgb(56%,93%,56%); fill-rule: evenodd;"/>
			<polygon points="1330.381 487.5844, 1250.383 487.5844, 1250.383 497.8346, 1233.982 477.3341, 1250.383 456.8335, 1250.383 467.0838, 1330.381 467.0838" style="stroke: rgb(56%,93%,56%); stroke-linecap: round; stroke-width: 1; fill: rgb(56%,93%,56%); fill-rule: evenodd;"/>
			<path d="M 745.184812,169.825647 L 745.184812,251.827897 Z" style="stroke: rgb(0%,0%,0%); stroke-linecap: butt; stroke-width: 1;"/>
			<path d="M 70.866142,210.826772 L 745.184812,210.826772 Z" style="stroke: rgb(0%,0%,0%); stroke-linecap: butt; stroke-width: 1;"/>
			<path d="M 70.866142,169.825647 L 70.866142,251.827897 Z" style="stroke: rgb(0%,0%,0%); stroke-linecap: butt; stroke-width: 1;"/>
			<path d="M 657.587337,210.826772 L 657.587337,231.327334 Z" style="stroke: rgb(0%,0%,0%); stroke-linecap: butt; stroke-width: 1;"/>
			<path d="M 657.587337,210.826772 L 657.587337,223.127109 Z" style="stroke: rgb(0%,0%,0%); stroke-linecap: butt; stroke-width: 1;"/>
			<path d="M 1346.398021,456.833521 L 1346.398021,538.835771 Z" style="stroke: rgb(0%,0%,0%); stroke-linecap: butt; stroke-width: 1;"/>
			<path d="M 70.866142,497.834646 L 1346.398021,497.834646 Z" style="stroke: rgb(0%,0%,0%); stroke-linecap: butt; stroke-width: 1;"/>
			<path d="M 70.866142,456.833521 L 70.866142,538.835771 Z" style="stroke: rgb(0%,0%,0%); stroke-linecap: butt; stroke-width: 1;"/>
			<path d="M 657.587337,497.834646 L 657.587337,518.335208 Z" style="stroke: rgb(0%,0%,0%); stroke-linecap: butt; stroke-width: 1;"/>
			<path d="M 1244.308533,497.834646 L 1244.308533,518.335208 Z" style="stroke: rgb(0%,0%,0%); stroke-linecap: butt; stroke-width: 1;"/>
			<path d="M 657.587337,497.834646 L 657.587337,510.134983 Z" style="stroke: rgb(0%,0%,0%); stroke-linecap: butt; stroke-width: 1;"/>
			<path d="M 1244.308533,497.834646 L 1244.308533,510.134983 Z" style="stroke: rgb(0%,0%,0%); stroke-linecap: butt; stroke-width: 1;"/>
			<g transform=" matrix(0.707107,0.707107,-0.707107,0.707107,657.587337,231.327334)">
				<text style="font-family: Helvetica; font-size: 6px;fill: rgb(0%,0%,0%); stroke:none;" transform="translate(0,0) scale(1,-1)" x="0" y="0">10000</text>
			</g>
			<g transform=" matrix(0.707107,0.707107,-0.707107,0.707107,657.587337,518.335208)">
				<text style="font-family: Helvetica; font-size: 6px;fill: rgb(0%,0%,0%); stroke:none;" transform="translate(0,0) scale(1,-1)" x="0" y="0">10000</text>
			</g>
			<g transform=" matrix(0.707107,0.707107,-0.707107,0.707107,1244.308533,518.335208)">
				<text style="font-family: Helvetica; font-size: 6px;fill: rgb(0%,0%,0%); stroke:none;" transform="translate(0,0) scale(1,-1)" x="0" y="0">20000</text>
			</g>
			<g transform=" matrix(0.707107,0.707107,-0.707107,0.707107,86.062221,251.827897)">
				<text style="font-family: Helvetica; font-size: 10px;fill: rgb(0%,0%,0%); stroke:none;" transform="translate(0,0) scale(1,-1)" x="0" y="0">Gene_01015</text>
			</g>
			<g transform=" matrix(0.707107,0.707107,-0.707107,0.707107,116.747739,251.827897)">
				<text style="font-family: Helvetica; font-size: 10px;fill: rgb(0%,0%,0%); stroke:none;" transform="translate(0,0) scale(1,-1)" x="0" y="0">Gene_01016</text>
			</g>
			<g transform=" matrix(0.707107,-0.707107,0.707107,0.707107,206.369402,169.825647)">
				<text style="font-family: Helvetica; font-size: 10px;fill: rgb(0%,0%,0%); stroke:none;" transform="translate(0,0) scale(1,-1)" x="0" y="0">Gene_01017</text>
			</g>
			<g transform=" matrix(0.707107,-0.707107,0.707107,0.707107,294.494925,169.825647)">
				<text style="font-family: Helvetica; font-size: 10px;fill: rgb(0%,0%,0%); stroke:none;" transform="translate(0,0) scale(1,-1)" x="0" y="0">Gene_01018</text>
			</g>
			<g transform=" matrix(0.707107,-0.707107,0.707107,0.707107,349.059997,169.825647)">
				<text style="font-family: Helvetica; font-size: 10px;fill: rgb(0%,0%,0%); stroke:none;" transform="translate(0,0) scale(1,-1)" x="0" y="0">Gene_01019</text>
			</g>
			<g transform=" matrix(0.707107,-0.707107,0.707107,0.707107,400.134077,169.825647)">
				<text style="font-family: Helvetica; font-size: 10px;fill: rgb(0%,0%,0%); stroke:none;" transform="translate(0,0) scale(1,-1)" x="0" y="0">Gene_01020</text>
			</g>
			<g transform=" matrix(0.707107,-0.707107,0.707107,0.707107,435.953406,169.825647)">
				<text style="font-family: Helvetica; font-size: 10px;fill: rgb(0%,0%,0%); stroke:none;" transform="translate(0,0) scale(1,-1)" x="0" y="0">Gene_01021</text>
			</g>
			<g transform=" matrix(0.707107,-0.707107,0.707107,0.707107,456.488647,169.825647)">
				<text style="font-family: Helvetica; font-size: 10px;fill: rgb(0%,0%,0%); stroke:none;" transform="translate(0,0) scale(1,-1)" x="0" y="0">Gene_01022</text>
			</g>
			<g transform=" matrix(0.707107,-0.707107,0.707107,0.707107,484.915289,169.825647)">
				<text style="font-family: Helvetica; font-size: 10px;fill: rgb(0%,0%,0%); stroke:none;" transform="translate(0,0) scale(1,-1)" x="0" y="0">Gene_01023</text>
			</g>
			<g transform=" matrix(0.707107,0.707107,-0.707107,0.707107,530.679543,251.827897)">
				<text style="font-family: Helvetica; font-size: 10px;fill: rgb(0%,0%,0%); stroke:none;" transform="translate(0,0) scale(1,-1)" x="0" y="0">Gene_01024</text>
			</g>
			<g transform=" matrix(0.707107,0.707107,-0.707107,0.707107,566.293519,251.827897)">
				<text style="font-family: Helvetica; font-size: 10px;fill: rgb(0%,0%,0%); stroke:none;" transform="translate(0,0) scale(1,-1)" x="0" y="0">Gene_01025</text>
			</g>
			<g transform=" matrix(0.707107,0.707107,-0.707107,0.707107,606.307905,251.827897)">
				<text style="font-family: Helvetica; font-size: 10px;fill: rgb(0%,0%,0%); stroke:none;" transform="translate(0,0) scale(1,-1)" x="0" y="0">Gene_01026</text>
			</g>
			<g transform=" matrix(0.707107,0.707107,-0.707107,0.707107,637.550808,251.827897)">
				<text style="font-family: Helvetica; font-size: 10px;fill: rgb(0%,0%,0%); stroke:none;" transform="translate(0,0) scale(1,-1)" x="0" y="0">Gene_01027</text>
			</g>
			<g transform=" matrix(0.707107,-0.707107,0.707107,0.707107,659.934222,169.825647)">
				<text style="font-family: Helvetica; font-size: 10px;fill: rgb(0%,0%,0%); stroke:none;" transform="translate(0,0) scale(1,-1)" x="0" y="0">Gene_01028</text>
			</g>
			<g transform=" matrix(0.707107,0.707107,-0.707107,0.707107,706.490549,251.827897)">
				<text style="font-family: Helvetica; font-size: 16px;fill: rgb(0%,0%,100%); stroke:none;" transform="translate(0,0) scale(1,-1)" x="0" y="0">Gene_01029 (92.5)</text>
			</g>
			<g transform=" matrix(0.707107,0.707107,-0.707107,0.707107,98.031333,538.835771)">
				<text style="font-family: Helvetica; font-size: 10px;fill: rgb(0%,0%,0%); stroke:none;" transform="translate(0,0) scale(1,-1)" x="0" y="0">Gene_02258</text>
			</g>
			<g transform=" matrix(0.707107,0.707107,-0.707107,0.707107,145.057037,538.835771)">
				<text style="font-family: Helvetica; font-size: 10px;fill: rgb(0%,0%,0%); stroke:none;" transform="translate(0,0) scale(1,-1)" x="0" y="0">Gene_02259</text>
			</g>
			<g transform=" matrix(0.707107,0.707107,-0.707107,0.707107,245.269017,538.835771)">
				<text style="font-family: Helvetica; font-size: 10px;fill: rgb(0%,0%,0%); stroke:none;" transform="translate(0,0) scale(1,-1)" x="0" y="0">Gene_02260</text>
			</g>
			<g transform=" matrix(0.707107,-0.707107,0.707107,0.707107,349.881406,456.833521)">
				<text style="font-family: Helvetica; font-size: 10px;fill: rgb(0%,0%,0%); stroke:none;" transform="translate(0,0) scale(1,-1)" x="0" y="0">Gene_02261</text>
			</g>
			<g transform=" matrix(0.707107,-0.707107,0.707107,0.707107,384.673973,456.833521)">
				<text style="font-family: Helvetica; font-size: 10px;fill: rgb(0%,0%,0%); stroke:none;" transform="translate(0,0) scale(1,-1)" x="0" y="0">Gene_02262</text>
			</g>
			<g transform=" matrix(0.707107,0.707107,-0.707107,0.707107,426.829891,538.835771)">
				<text style="font-family: Helvetica; font-size: 10px;fill: rgb(0%,0%,0%); stroke:none;" transform="translate(0,0) scale(1,-1)" x="0" y="0">Gene_02263</text>
			</g>
			<g transform=" matrix(0.707107,-0.707107,0.707107,0.707107,501.578171,456.833521)">
				<text style="font-family: Helvetica; font-size: 10px;fill: rgb(0%,0%,0%); stroke:none;" transform="translate(0,0) scale(1,-1)" x="0" y="0">Gene_02264</text>
			</g>
			<g transform=" matrix(0.707107,-0.707107,0.707107,0.707107,584.951253,456.833521)">
				<text style="font-family: Helvetica; font-size: 10px;fill: rgb(0%,0%,0%); stroke:none;" transform="translate(0,0) scale(1,-1)" x="0" y="0">Gene_02265</text>
			</g>
			<g transform=" matrix(0.707107,-0.707107,0.707107,0.707107,627.107171,456.833521)">
				<text style="font-family: Helvetica; font-size: 10px;fill: rgb(0%,0%,0%); stroke:none;" transform="translate(0,0) scale(1,-1)" x="0" y="0">Gene_02266</text>
			</g>
			<g transform=" matrix(0.707107,-0.707107,0.707107,0.707107,664.393303,456.833521)">
				<text style="font-family: Helvetica; font-size: 10px;fill: rgb(0%,0%,0%); stroke:none;" transform="translate(0,0) scale(1,-1)" x="0" y="0">Gene_02267</text>
			</g>
			<g transform=" matrix(0.707107,0.707107,-0.707107,0.707107,735.151879,538.835771)">
				<text style="font-family: Helvetica; font-size: 16px;fill: rgb(0%,0%,100%); stroke:none;" transform="translate(0,0) scale(1,-1)" x="0" y="0">Gene_02268 (92.5)</text>
			</g>
			<g transform=" matrix(0.707107,0.707107,-0.707107,0.707107,778.158543,538.835771)">
				<text style="font-family: Helvetica; font-size: 10px;fill: rgb(0%,0%,0%); stroke:none;" transform="translate(0,0) scale(1,-1)" x="0" y="0">Gene_02269</text>
			</g>
			<g transform=" matrix(0.707107,0.707107,-0.707107,0.707107,870.743148,538.835771)">
				<text style="font-family: Helvetica; font-size: 10px;fill: rgb(0%,0%,0%); stroke:none;" transform="translate(0,0) scale(1,-1)" x="0" y="0">Gene_02270</text>
			</g>
			<g transform=" matrix(0.707107,-0.707107,0.707107,0.707107,945.491428,456.833521)">
				<text style="font-family: Helvetica; font-size: 10px;fill: rgb(0%,0%,0%); stroke:none;" transform="translate(0,0) scale(1,-1)" x="0" y="0">Gene_02271</text>
			</g>
			<g transform=" matrix(0.707107,-0.707107,0.707107,0.707107,1017.39411,456.833521)">
				<text style="font-family: Helvetica; font-size: 10px;fill: rgb(0%,0%,0%); stroke:none;" transform="translate(0,0) scale(1,-1)" x="0" y="0">Gene_02272</text>
			</g>
			<g transform=" matrix(0.707107,-0.707107,0.707107,0.707107,1067.441428,456.833521)">
				<text style="font-family: Helvetica; font-size: 10px;fill: rgb(0%,0%,0%); stroke:none;" transform="translate(0,0) scale(1,-1)" x="0" y="0">Gene_02273</text>
			</g>
			<g transform=" matrix(0.707107,-0.707107,0.707107,0.707107,1127.052302,456.833521)">
				<text style="font-family: Helvetica; font-size: 10px;fill: rgb(0%,0%,0%); stroke:none;" transform="translate(0,0) scale(1,-1)" x="0" y="0">Gene_02274</text>
			</g>
			<g transform=" matrix(0.707107,-0.707107,0.707107,0.707107,1183.494881,456.833521)">
				<text style="font-family: Helvetica; font-size: 10px;fill: rgb(0%,0%,0%); stroke:none;" transform="translate(0,0) scale(1,-1)" x="0" y="0">Gene_02275</text>
			</g>
			<g transform=" matrix(0.707107,-0.707107,0.707107,0.707107,1282.181386,456.833521)">
				<text style="font-family: Helvetica; font-size: 10px;fill: rgb(0%,0%,0%); stroke:none;" transform="translate(0,0) scale(1,-1)" x="0" y="0">Gene_02276</text>
			</g>
			<g transform=" matrix(1,0,-0,1,70,169.825647)">
				<text style="font-family: Helvetica; font-size: 12px;fill: rgb(60%,60%,60%); stroke:none;" transform="translate(0,0) scale(1,-1)" x="0" y="0">megahit_26390 (left 11959bp, right 240bp)</text>
			</g>
			<g transform=" matrix(1,0,-0,1,70,456.833521)">
				<text style="font-family: Helvetica; font-size: 12px;fill: rgb(60%,60%,60%); stroke:none;" transform="translate(0,0) scale(1,-1)" x="0" y="0">megahit_4064 (left 22860bp, right 175871bp)</text>
			</g>
		</g>
	</g>
</svg>
