<?xml version="1.0" encoding="utf-8"?>
<!DOCTYPE svg
  PUBLIC '-//W3C//DTD SVG 1.0//EN'
  'http://www.w3.org/TR/2001/REC-SVG-20010904/DTD/svg10.dtd'>
<svg fill-rule="evenodd" height="708.6614173228346" preserveAspectRatio="xMinYMin meet" version="1.0" viewBox="0 0 1417 708" width="1417.3228346456692" xmlns="http://www.w3.org/2000/svg" xmlns:xlink="http://www.w3.org/1999/xlink">
	<title>...</title>
	<desc>...</desc>
	<clipPath id="clip">
		<rect height="708.6614173228346" width="1417.3228346456692" x="0" y="0"/>
	</clipPath>
	<g id="group" style="clip-path: url(#clip)" transform="scale(1,-1) translate(0,-708)">
		<g transform="">
			<polygon points="70.86614 169.8256, 415.4912 169.8256, 415.4912 251.8279, 70.86614 251.8279" style="stroke: rgb(96%,96%,96%); stroke-linecap: butt; stroke-width: 1; fill: rgb(96%,96%,96%); fill-rule: evenodd;"/>
			<polygon points="70.86614 456.8335, 1346.395 456.8335, 1346.395 538.8358, 70.86614 538.8358" style="stroke: rgb(96%,96%,96%); stroke-linecap: butt; stroke-width: 1; fill: rgb(96%,96%,96%); fill-rule: evenodd;"/>
			<polygon points="675.3995 456.8335, 862.2297 456.8335, 131.8157 251.8279, 318.5846 251.8279" style="stroke: rgb(100%,29%,29%); stroke-linecap: round; stroke-width: 1; fill: rgb(100%,29%,29%); fill-rule: evenodd;"/>
			<polygon points="912.5207 456.8335, 973.0414 456.8335, 70.9274 251.8279, 131.1418 251.8279" style="stroke: rgb(100%,48%,48%); stroke-linecap: round; stroke-width: 1; fill: rgb(100%,48%,48%); fill-rule: evenodd;"/>
			<polygon points="132.1219 200.5765, 92.71836 200.5765, 92.71836 210.8268, 76.31791 190.3262, 92.71836 169.8256, 92.71836 180.0759, 132.1219 180.0759" style="stroke: rgb(56%,93%,56%); stroke-linecap: round; stroke-width: 1; fill: rgb(56%,93%,56%); fill-rule: evenodd;"/>
			<polygon points="149.5798 200.5765, 148.5836 200.5765, 148.5836 210.8268, 132.1832 190.3262, 148.5836 169.8256, 148.5836 180.0759, 149.5798 180.0759" style="stroke: rgb(56%,93%,56%); stroke-linecap: round; stroke-width: 1; fill: rgb(56%,93%,56%); fill-rule: evenodd;"/>
			<polygon points="210.8356 200.5765, 167.0216 200.5765, 167.0216 210.8268, 150.6212 190.3262, 167.0216 169.8256, 167.0216 180.0759, 210.8356 180.0759" style="stroke: rgb(56%,93%,56%); stroke-linecap: round; stroke-width: 1; fill: rgb(56%,93%,56%); fill-rule: evenodd;"/>
			<polygon points="268.7223 200.5765, 231.7077 200.5765, 231.7077 210.8268, 215.3073 190.3262, 231.7077 169.8256, 231.7077 180.0759, 268.7223 180.0759" style="stroke: rgb(56%,93%,56%); stroke-linecap: round; stroke-width: 1; fill: rgb(56%,93%,56%); fill-rule: evenodd;"/>
			<polygon points="302.5355 200.5765, 287.0217 200.5765, 287.0217 210.8268, 270.6213 190.3262, 287.0217 169.8256, 287.0217 180.0759, 302.5355 180.0759" style="stroke: rgb(56%,93%,56%); stroke-linecap: round; stroke-width: 1; fill: rgb(56%,93%,56%); fill-rule: evenodd;"/>
			<polygon points="328.9368 241.5776, 336.3648 241.5776, 336.3648 251.8279, 352.7653 231.3273, 336.3648 210.8268, 336.3648 221.0771, 328.9368 221.0771" style="stroke: rgb(67%,84%,90%); stroke-linecap: round; stroke-width: 1; fill: rgb(67%,84%,90%); fill-rule: evenodd;"/>
			<polygon points="139.5339 487.5844, 87.26659 487.5844, 87.26659 497.8346, 70.86614 477.3341, 87.26659 456.8335, 87.26659 467.0838, 139.5339 467.0838" style="stroke: rgb(56%,93%,56%); stroke-linecap: round; stroke-width: 1; fill: rgb(56%,93%,56%); fill-rule: evenodd;"/>
			<polygon points="232.949 487.5844, 156.2406 487.5844, 156.2406 497.8346, 139.8402 477.3341, 156.2406 456.8335, 156.2406 467.0838, 232.949 467.0838" style="stroke: rgb(56%,93%,56%); stroke-linecap: round; stroke-width: 1; fill: rgb(56%,93%,56%); fill-rule: evenodd;"/>
			<polygon points="287.7116 487.5844, 252.9022 487.5844, 252.9022 497.8346, 236.5018 477.3341, 252.9022 456.8335, 252.9022 467.0838, 287.7116 467.0838" style="stroke: rgb(56%,93%,56%); stroke-linecap: round; stroke-width: 1; fill: rgb(56%,93%,56%); fill-rule: evenodd;"/>
			<polygon points="381.678 487.5844, 305.7047 487.5844, 305.7047 497.8346, 289.3043 477.3341, 305.7047 456.8335, 305.7047 467.0838, 381.678 467.0838" style="stroke: rgb(56%,93%,56%); stroke-linecap: round; stroke-width: 1; fill: rgb(56%,93%,56%); fill-rule: evenodd;"/>
			<polygon points="435.3381 487.5844, 398.8748 487.5844, 398.8748 497.8346, 382.4743 477.3341, 398.8748 456.8335, 398.8748 467.0838, 435.3381 467.0838" style="stroke: rgb(56%,93%,56%); stroke-linecap: round; stroke-width: 1; fill: rgb(56%,93%,56%); fill-rule: evenodd;"/>
			<polygon points="484.7715 487.5844, 454.005 487.5844, 454.005 497.8346, 437.6046 477.3341, 454.005 456.8335, 454.005 467.0838, 484.7715 467.0838" style="stroke: rgb(56%,93%,56%); stroke-linecap: round; stroke-width: 1; fill: rgb(56%,93%,56%); fill-rule: evenodd;"/>
			<polygon points="594.6031 487.5844, 513.4844 487.5844, 513.4844 497.8346, 497.0839 477.3341, 513.4844 456.8335, 513.4844 467.0838, 594.6031 467.0838" style="stroke: rgb(56%,93%,56%); stroke-linecap: round; stroke-width: 1; fill: rgb(56%,93%,56%); fill-rule: evenodd;"/>
			<polygon points="671.0504 487.5844, 614.5564 487.5844, 614.5564 497.8346, 598.156 477.3341, 614.5564 456.8335, 614.5564 467.0838, 671.0504 467.0838" style="stroke: rgb(56%,93%,56%); stroke-linecap: round; stroke-width: 1; fill: rgb(56%,93%,56%); fill-rule: evenodd;"/>
			<polygon points="691.5098 528.5855, 707.0236 528.5855, 707.0236 538.8358, 723.4241 518.3352, 707.0236 497.8346, 707.0236 508.0849, 691.5098 508.0849" style="stroke: rgb(67%,84%,90%); stroke-linecap: round; stroke-width: 1; fill: rgb(67%,84%,90%); fill-rule: evenodd;"/>
			<polygon points="725.2617 528.5855, 762.2763 528.5855, 762.2763 538.8358, 778.6768 518.3352, 762.2763 497.8346, 762.2763 508.0849, 725.2617 508.0849" style="stroke: rgb(67%,84%,90%); stroke-linecap: round; stroke-width: 1; fill: rgb(67%,84%,90%); fill-rule: evenodd;"/>
			<polygon points="783.4547 528.5855, 827.085 528.5855, 827.085 538.8358, 843.4854 518.3352, 827.085 497.8346, 827.085 508.0849, 783.4547 508.0849" style="stroke: rgb(67%,84%,90%); stroke-linecap: round; stroke-width: 1; fill: rgb(67%,84%,90%); fill-rule: evenodd;"/>
			<polygon points="844.4655 528.5855, 845.4617 528.5855, 845.4617 538.8358, 861.8621 518.3352, 845.4617 497.8346, 845.4617 508.0849, 844.4655 508.0849" style="stroke: rgb(67%,84%,90%); stroke-linecap: round; stroke-width: 1; fill: rgb(67%,84%,90%); fill-rule: evenodd;"/>
			<polygon points="861.9234 528.5855, 893.9763 528.5855, 893.9763 538.8358, 910.3767 518.3352, 893.9763 497.8346, 893.9763 508.0849, 861.9234 508.0849" style="stroke: rgb(67%,84%,90%); stroke-linecap: round; stroke-width: 1; fill: rgb(67%,84%,90%); fill-rule: evenodd;"/>
			<polygon points="912.4594 528.5855, 951.3117 528.5855, 951.3117 538.8358, 967.7121 518.3352, 951.3117 497.8346, 951.3117 508.0849, 912.4594 508.0849" style="stroke: rgb(67%,84%,90%); stroke-linecap: round; stroke-width: 1; fill: rgb(67%,84%,90%); fill-rule: evenodd;"/>
			<polygon points="969.5498 528.5855, 1071.434 528.5855, 1071.434 538.8358, 1087.835 518.3352, 1071.434 497.8346, 1071.434 508.0849, 969.5498 508.0849" style="stroke: rgb(67%,84%,90%); stroke-linecap: round; stroke-width: 1; fill: rgb(67%,84%,90%); fill-rule: evenodd;"/>
			<polygon points="1084.711 528.5855, 1091.404 528.5855, 1091.404 538.8358, 1107.804 518.3352, 1091.404 497.8346, 1091.404 508.0849, 1084.711 508.0849" style="stroke: rgb(67%,84%,90%); stroke-linecap: round; stroke-width: 1; fill: rgb(67%,84%,90%); fill-rule: evenodd;"/>
			<polygon points="1107.62 528.5855, 1134.344 528.5855, 1134.344 538.8358, 1150.744 518.3352, 1134.344 497.8346, 1134.344 508.0849, 1107.62 508.0849" style="stroke: rgb(67%,84%,90%); stroke-linecap: round; stroke-width: 1; fill: rgb(67%,84%,90%); fill-rule: evenodd;"/>
			<polygon points="1150.561 528.5855, 1155.232 528.5855, 1155.232 538.8358, 1171.633 518.3352, 1155.232 497.8346, 1155.232 508.0849, 1150.561 508.0849" style="stroke: rgb(67%,84%,90%); stroke-linecap: round; stroke-width: 1; fill: rgb(67%,84%,90%); fill-rule: evenodd;"/>
			<polygon points="1177.268 528.5855, 1178.632 528.5855, 1178.632 538.8358, 1195.032 518.3352, 1178.632 497.8346, 1178.632 508.0849, 1177.268 508.0849" style="stroke: rgb(67%,84%,90%); stroke-linecap: round; stroke-width: 1; fill: rgb(67%,84%,90%); fill-rule: evenodd;"/>
			<polygon points="1200.668 528.5855, 1215.447 528.5855, 1215.447 538.8358, 1231.847 518.3352, 1215.447 497.8346, 1215.447 508.0849, 1200.668 508.0849" style="stroke: rgb(67%,84%,90%); stroke-linecap: round; stroke-width: 1; fill: rgb(67%,84%,90%); fill-rule: evenodd;"/>
			<polygon points="1240.545 528.5855, 1270.944 528.5855, 1270.944 538.8358, 1287.345 518.3352, 1270.944 497.8346, 1270.944 508.0849, 1240.545 508.0849" style="stroke: rgb(67%,84%,90%); stroke-linecap: round; stroke-width: 1; fill: rgb(67%,84%,90%); fill-rule: evenodd;"/>
			<polygon points="1286.549 528.5855, 1329.995 528.5855, 1329.995 538.8358, 1346.395 518.3352, 1329.995 497.8346, 1329.995 508.0849, 1286.549 508.0849" style="stroke: rgb(67%,84%,90%); stroke-linecap: round; stroke-width: 1; fill: rgb(67%,84%,90%); fill-rule: evenodd;"/>
			<path d="M 415.491211,169.825647 L 415.491211,251.827897 Z" style="stroke: rgb(0%,0%,0%); stroke-linecap: butt; stroke-width: 1;"/>
			<path d="M 70.866142,210.826772 L 415.491211,210.826772 Z" style="stroke: rgb(0%,0%,0%); stroke-linecap: butt; stroke-width: 1;"/>
			<path d="M 70.866142,169.825647 L 70.866142,251.827897 Z" style="stroke: rgb(0%,0%,0%); stroke-linecap: butt; stroke-width: 1;"/>
			<path d="M 1346.395437,456.833521 L 1346.395437,538.835771 Z" style="stroke: rgb(0%,0%,0%); stroke-linecap: butt; stroke-width: 1;"/>
			<path d="M 70.866142,497.834646 L 1346.395437,497.834646 Z" style="stroke: rgb(0%,0%,0%); stroke-linecap: butt; stroke-width: 1;"/>
			<path d="M 70.866142,456.833521 L 70.866142,538.835771 Z" style="stroke: rgb(0%,0%,0%); stroke-linecap: butt; stroke-width: 1;"/>
			<path d="M 683.424032,497.834646 L 683.424032,518.335208 Z" style="stroke: rgb(0%,0%,0%); stroke-linecap: butt; stroke-width: 1;"/>
			<path d="M 1295.981923,497.834646 L 1295.981923,518.335208 Z" style="stroke: rgb(0%,0%,0%); stroke-linecap: butt; stroke-width: 1;"/>
			<path d="M 683.424032,497.834646 L 683.424032,510.134983 Z" style="stroke: rgb(0%,0%,0%); stroke-linecap: butt; stroke-width: 1;"/>
			<path d="M 1295.981923,497.834646 L 1295.981923,510.134983 Z" style="stroke: rgb(0%,0%,0%); stroke-linecap: butt; stroke-width: 1;"/>
			<g transform=" matrix(0.707107,0.707107,-0.707107,0.707107,683.424032,518.335208)">
				<text style="font-family: Helvetica; font-size: 6px;fill: rgb(0%,0%,0%); stroke:none;" transform="translate(0,0) scale(1,-1)" x="0" y="0">10000</text>
			</g>
			<g transform=" matrix(0.707107,0.707107,-0.707107,0.707107,1295.981923,518.335208)">
				<text style="font-family: Helvetica; font-size: 6px;fill: rgb(0%,0%,0%); stroke:none;" transform="translate(0,0) scale(1,-1)" x="0" y="0">20000</text>
			</g>
			<g transform=" matrix(0.707107,-0.707107,0.707107,0.707107,104.219919,169.825647)">
				<text style="font-family: Helvetica; font-size: 10px;fill: rgb(0%,0%,0%); stroke:none;" transform="translate(0,0) scale(1,-1)" x="0" y="0">Gene_00702</text>
			</g>
			<g transform=" matrix(0.707107,-0.707107,0.707107,0.707107,140.881509,169.825647)">
				<text style="font-family: Helvetica; font-size: 10px;fill: rgb(0%,0%,0%); stroke:none;" transform="translate(0,0) scale(1,-1)" x="0" y="0">Gene_00703</text>
			</g>
			<g transform=" matrix(0.707107,-0.707107,0.707107,0.707107,180.728399,169.825647)">
				<text style="font-family: Helvetica; font-size: 10px;fill: rgb(0%,0%,0%); stroke:none;" transform="translate(0,0) scale(1,-1)" x="0" y="0">Gene_00704</text>
			</g>
			<g transform=" matrix(0.707107,-0.707107,0.707107,0.707107,242.014816,169.825647)">
				<text style="font-family: Helvetica; font-size: 10px;fill: rgb(0%,0%,0%); stroke:none;" transform="translate(0,0) scale(1,-1)" x="0" y="0">Gene_00705</text>
			</g>
			<g transform=" matrix(0.707107,-0.707107,0.707107,0.707107,286.578403,169.825647)">
				<text style="font-family: Helvetica; font-size: 16px;fill: rgb(0%,0%,100%); stroke:none;" transform="translate(0,0) scale(1,-1)" x="0" y="0">Gene_00706 (85.4)</text>
			</g>
			<g transform=" matrix(0.707107,0.707107,-0.707107,0.707107,340.851032,251.827897)">
				<text style="font-family: Helvetica; font-size: 10px;fill: rgb(0%,0%,0%); stroke:none;" transform="translate(0,0) scale(1,-1)" x="0" y="0">Gene_00707</text>
			</g>
			<g transform=" matrix(0.707107,-0.707107,0.707107,0.707107,105.200011,456.833521)">
				<text style="font-family: Helvetica; font-size: 10px;fill: rgb(0%,0%,0%); stroke:none;" transform="translate(0,0) scale(1,-1)" x="0" y="0">Gene_00310</text>
			</g>
			<g transform=" matrix(0.707107,-0.707107,0.707107,0.707107,186.39456,456.833521)">
				<text style="font-family: Helvetica; font-size: 10px;fill: rgb(0%,0%,0%); stroke:none;" transform="translate(0,0) scale(1,-1)" x="0" y="0">Gene_00311</text>
			</g>
			<g transform=" matrix(0.707107,-0.707107,0.707107,0.707107,262.106715,456.833521)">
				<text style="font-family: Helvetica; font-size: 10px;fill: rgb(0%,0%,0%); stroke:none;" transform="translate(0,0) scale(1,-1)" x="0" y="0">Gene_00312</text>
			</g>
			<g transform=" matrix(0.707107,-0.707107,0.707107,0.707107,335.49115,456.833521)">
				<text style="font-family: Helvetica; font-size: 10px;fill: rgb(0%,0%,0%); stroke:none;" transform="translate(0,0) scale(1,-1)" x="0" y="0">Gene_00313</text>
			</g>
			<g transform=" matrix(0.707107,-0.707107,0.707107,0.707107,408.906214,456.833521)">
				<text style="font-family: Helvetica; font-size: 10px;fill: rgb(0%,0%,0%); stroke:none;" transform="translate(0,0) scale(1,-1)" x="0" y="0">Gene_00314</text>
			</g>
			<g transform=" matrix(0.707107,-0.707107,0.707107,0.707107,461.18803,456.833521)">
				<text style="font-family: Helvetica; font-size: 10px;fill: rgb(0%,0%,0%); stroke:none;" transform="translate(0,0) scale(1,-1)" x="0" y="0">Gene_00315</text>
			</g>
			<g transform=" matrix(0.707107,-0.707107,0.707107,0.707107,545.84353,456.833521)">
				<text style="font-family: Helvetica; font-size: 10px;fill: rgb(0%,0%,0%); stroke:none;" transform="translate(0,0) scale(1,-1)" x="0" y="0">Gene_00316</text>
			</g>
			<g transform=" matrix(0.707107,-0.707107,0.707107,0.707107,634.603168,456.833521)">
				<text style="font-family: Helvetica; font-size: 10px;fill: rgb(0%,0%,0%); stroke:none;" transform="translate(0,0) scale(1,-1)" x="0" y="0">Gene_00317</text>
			</g>
			<g transform=" matrix(0.707107,0.707107,-0.707107,0.707107,707.466929,538.835771)">
				<text style="font-family: Helvetica; font-size: 16px;fill: rgb(0%,0%,100%); stroke:none;" transform="translate(0,0) scale(1,-1)" x="0" y="0">Gene_00318 (85.4)</text>
			</g>
			<g transform=" matrix(0.707107,0.707107,-0.707107,0.707107,751.96926,538.835771)">
				<text style="font-family: Helvetica; font-size: 10px;fill: rgb(0%,0%,0%); stroke:none;" transform="translate(0,0) scale(1,-1)" x="0" y="0">Gene_00319</text>
			</g>
			<g transform=" matrix(0.707107,0.707107,-0.707107,0.707107,813.470072,538.835771)">
				<text style="font-family: Helvetica; font-size: 10px;fill: rgb(0%,0%,0%); stroke:none;" transform="translate(0,0) scale(1,-1)" x="0" y="0">Gene_00320</text>
			</g>
			<g transform=" matrix(0.707107,0.707107,-0.707107,0.707107,853.163824,538.835771)">
				<text style="font-family: Helvetica; font-size: 10px;fill: rgb(0%,0%,0%); stroke:none;" transform="translate(0,0) scale(1,-1)" x="0" y="0">Gene_00321</text>
			</g>
			<g transform=" matrix(0.707107,0.707107,-0.707107,0.707107,886.150066,538.835771)">
				<text style="font-family: Helvetica; font-size: 10px;fill: rgb(0%,0%,0%); stroke:none;" transform="translate(0,0) scale(1,-1)" x="0" y="0">Gene_00322</text>
			</g>
			<g transform=" matrix(0.707107,0.707107,-0.707107,0.707107,940.085788,538.835771)">
				<text style="font-family: Helvetica; font-size: 10px;fill: rgb(0%,0%,0%); stroke:none;" transform="translate(0,0) scale(1,-1)" x="0" y="0">Gene_00323</text>
			</g>
			<g transform=" matrix(0.707107,0.707107,-0.707107,0.707107,1028.692287,538.835771)">
				<text style="font-family: Helvetica; font-size: 10px;fill: rgb(0%,0%,0%); stroke:none;" transform="translate(0,0) scale(1,-1)" x="0" y="0">Gene_00324</text>
			</g>
			<g transform=" matrix(0.707107,0.707107,-0.707107,0.707107,1096.257423,538.835771)">
				<text style="font-family: Helvetica; font-size: 10px;fill: rgb(0%,0%,0%); stroke:none;" transform="translate(0,0) scale(1,-1)" x="0" y="0">Gene_00325</text>
			</g>
			<g transform=" matrix(0.707107,0.707107,-0.707107,0.707107,1129.182409,538.835771)">
				<text style="font-family: Helvetica; font-size: 10px;fill: rgb(0%,0%,0%); stroke:none;" transform="translate(0,0) scale(1,-1)" x="0" y="0">Gene_00326</text>
			</g>
			<g transform=" matrix(0.707107,0.707107,-0.707107,0.707107,1161.096675,538.835771)">
				<text style="font-family: Helvetica; font-size: 10px;fill: rgb(0%,0%,0%); stroke:none;" transform="translate(0,0) scale(1,-1)" x="0" y="0">Gene_00327</text>
			</g>
			<g transform=" matrix(0.707107,0.707107,-0.707107,0.707107,1186.150293,538.835771)">
				<text style="font-family: Helvetica; font-size: 10px;fill: rgb(0%,0%,0%); stroke:none;" transform="translate(0,0) scale(1,-1)" x="0" y="0">Gene_00328</text>
			</g>
			<g transform=" matrix(0.707107,0.707107,-0.707107,0.707107,1216.257513,538.835771)">
				<text style="font-family: Helvetica; font-size: 10px;fill: rgb(0%,0%,0%); stroke:none;" transform="translate(0,0) scale(1,-1)" x="0" y="0">Gene_00329</text>
			</g>
			<g transform=" matrix(0.707107,0.707107,-0.707107,0.707107,1263.945145,538.835771)">
				<text style="font-family: Helvetica; font-size: 10px;fill: rgb(0%,0%,0%); stroke:none;" transform="translate(0,0) scale(1,-1)" x="0" y="0">Gene_00330</text>
			</g>
			<g transform=" matrix(0.707107,0.707107,-0.707107,0.707107,1316.471984,538.835771)">
				<text style="font-family: Helvetica; font-size: 10px;fill: rgb(0%,0%,0%); stroke:none;" transform="translate(0,0) scale(1,-1)" x="0" y="0">Gene_00331</text>
			</g>
			<g transform=" matrix(1,0,-0,1,70,169.825647)">
				<text style="font-family: Helvetica; font-size: 12px;fill: rgb(60%,60%,60%); stroke:none;" transform="translate(0,0) scale(1,-1)" x="0" y="0">megahit_29900 (left 3261bp, right 1844bp)</text>
			</g>
			<g transform=" matrix(1,0,-0,1,70,456.833521)">
				<text style="font-family: Helvetica; font-size: 12px;fill: rgb(60%,60%,60%); stroke:none;" transform="translate(0,0) scale(1,-1)" x="0" y="0">megahit_562 (left 69315bp, right 88849bp)</text>
			</g>
		</g>
	</g>
</svg>
