<?xml version="1.0" encoding="utf-8"?>
<!DOCTYPE svg
  PUBLIC '-//W3C//DTD SVG 1.0//EN'
  'http://www.w3.org/TR/2001/REC-SVG-20010904/DTD/svg10.dtd'>
<svg fill-rule="evenodd" height="708.6614173228346" preserveAspectRatio="xMinYMin meet" version="1.0" viewBox="0 0 1417 708" width="1417.3228346456692" xmlns="http://www.w3.org/2000/svg" xmlns:xlink="http://www.w3.org/1999/xlink">
	<title>...</title>
	<desc>...</desc>
	<clipPath id="clip">
		<rect height="708.6614173228346" width="1417.3228346456692" x="0" y="0"/>
	</clipPath>
	<g id="group" style="clip-path: url(#clip)" transform="scale(1,-1) translate(0,-708)">
		<g transform="">
			<polygon points="70.86614 169.8256, 1346.396 169.8256, 1346.396 251.8279, 70.86614 251.8279" style="stroke: rgb(96%,96%,96%); stroke-linecap: butt; stroke-width: 1; fill: rgb(96%,96%,96%); fill-rule: evenodd;"/>
			<polygon points="70.86614 456.8335, 928.5185 456.8335, 928.5185 538.8358, 70.86614 538.8358" style="stroke: rgb(96%,96%,96%); stroke-linecap: butt; stroke-width: 1; fill: rgb(96%,96%,96%); fill-rule: evenodd;"/>
			<polygon points="215.3897 456.8335, 299.2693 456.8335, 737.5844 251.8279, 653.7656 251.8279" style="stroke: rgb(100%,37%,37%); stroke-linecap: round; stroke-width: 1; fill: rgb(100%,37%,37%); fill-rule: evenodd;"/>
			<polygon points="88.26249 241.5776, 89.31922 241.5776, 89.31922 251.8279, 105.7197 231.3273, 89.31922 210.8268, 89.31922 221.0771, 88.26249 221.0771" style="stroke: rgb(67%,84%,90%); stroke-linecap: round; stroke-width: 1; fill: rgb(67%,84%,90%); fill-rule: evenodd;"/>
			<polygon points="110.7074 241.5776, 193.1499 241.5776, 193.1499 251.8279, 209.5503 231.3273, 193.1499 210.8268, 193.1499 221.0771, 110.7074 221.0771" style="stroke: rgb(67%,84%,90%); stroke-linecap: round; stroke-width: 1; fill: rgb(67%,84%,90%); fill-rule: evenodd;"/>
			<polygon points="278.6491 200.5765, 242.7389 200.5765, 242.7389 210.8268, 226.3384 190.3262, 242.7389 169.8256, 242.7389 180.0759, 278.6491 180.0759" style="stroke: rgb(56%,93%,56%); stroke-linecap: round; stroke-width: 1; fill: rgb(56%,93%,56%); fill-rule: evenodd;"/>
			<polygon points="292.5176 241.5776, 324.2308 241.5776, 324.2308 251.8279, 340.6313 231.3273, 324.2308 210.8268, 324.2308 221.0771, 292.5176 221.0771" style="stroke: rgb(67%,84%,90%); stroke-linecap: round; stroke-width: 1; fill: rgb(67%,84%,90%); fill-rule: evenodd;"/>
			<polygon points="351.0934 241.5776, 389.7408 241.5776, 389.7408 251.8279, 406.1413 231.3273, 389.7408 210.8268, 389.7408 221.0771, 351.0934 221.0771" style="stroke: rgb(67%,84%,90%); stroke-linecap: round; stroke-width: 1; fill: rgb(67%,84%,90%); fill-rule: evenodd;"/>
			<polygon points="404.6206 241.5776, 508.9606 241.5776, 508.9606 251.8279, 525.361 231.3273, 508.9606 210.8268, 508.9606 221.0771, 404.6206 221.0771" style="stroke: rgb(67%,84%,90%); stroke-linecap: round; stroke-width: 1; fill: rgb(67%,84%,90%); fill-rule: evenodd;"/>
			<polygon points="534.5458 241.5776, 559.1424 241.5776, 559.1424 251.8279, 575.5428 231.3273, 559.1424 210.8268, 559.1424 221.0771, 534.5458 221.0771" style="stroke: rgb(67%,84%,90%); stroke-linecap: round; stroke-width: 1; fill: rgb(67%,84%,90%); fill-rule: evenodd;"/>
			<polygon points="577.3676 241.5776, 577.3676 251.8279, 592.0876 231.3273, 577.3676 210.8268, 577.3676 221.0771" style="stroke: rgb(67%,84%,90%); stroke-linecap: round; stroke-width: 1; fill: rgb(67%,84%,90%); fill-rule: evenodd;"/>
			<polygon points="594.2165 241.5776, 594.2165 251.8279, 602.7322 231.3273, 594.2165 210.8268, 594.2165 221.0771" style="stroke: rgb(67%,84%,90%); stroke-linecap: round; stroke-width: 1; fill: rgb(67%,84%,90%); fill-rule: evenodd;"/>
			<polygon points="641.4787 200.5765, 623.2689 200.5765, 623.2689 210.8268, 606.8684 190.3262, 623.2689 169.8256, 623.2689 180.0759, 641.4787 180.0759" style="stroke: rgb(56%,93%,56%); stroke-linecap: round; stroke-width: 1; fill: rgb(56%,93%,56%); fill-rule: evenodd;"/>
			<polygon points="654.4347 241.5776, 711.695 241.5776, 711.695 251.8279, 728.0955 231.3273, 711.695 210.8268, 711.695 221.0771, 654.4347 221.0771" style="stroke: rgb(67%,84%,90%); stroke-linecap: round; stroke-width: 1; fill: rgb(67%,84%,90%); fill-rule: evenodd;"/>
			<polygon points="746.5259 241.5776, 830.0632 241.5776, 830.0632 251.8279, 846.4636 231.3273, 830.0632 210.8268, 830.0632 221.0771, 746.5259 221.0771" style="stroke: rgb(67%,84%,90%); stroke-linecap: round; stroke-width: 1; fill: rgb(67%,84%,90%); fill-rule: evenodd;"/>
			<polygon points="856.3783 241.5776, 907.0694 241.5776, 907.0694 251.8279, 923.4699 231.3273, 907.0694 210.8268, 907.0694 221.0771, 856.3783 221.0771" style="stroke: rgb(67%,84%,90%); stroke-linecap: round; stroke-width: 1; fill: rgb(67%,84%,90%); fill-rule: evenodd;"/>
			<polygon points="930.1608 241.5776, 959.5018 241.5776, 959.5018 251.8279, 975.9022 231.3273, 959.5018 210.8268, 959.5018 221.0771, 930.1608 221.0771" style="stroke: rgb(67%,84%,90%); stroke-linecap: round; stroke-width: 1; fill: rgb(67%,84%,90%); fill-rule: evenodd;"/>
			<polygon points="978.3353 241.5776, 978.3353 251.8279, 986.1211 231.3273, 978.3353 210.8268, 978.3353 221.0771" style="stroke: rgb(67%,84%,90%); stroke-linecap: round; stroke-width: 1; fill: rgb(67%,84%,90%); fill-rule: evenodd;"/>
			<polygon points="996.2182 241.5776, 996.2182 251.8279, 1005.464 231.3273, 996.2182 210.8268, 996.2182 221.0771" style="stroke: rgb(67%,84%,90%); stroke-linecap: round; stroke-width: 1; fill: rgb(67%,84%,90%); fill-rule: evenodd;"/>
			<polygon points="1010.208 241.5776, 1052.323 241.5776, 1052.323 251.8279, 1068.723 231.3273, 1052.323 210.8268, 1052.323 221.0771, 1010.208 221.0771" style="stroke: rgb(67%,84%,90%); stroke-linecap: round; stroke-width: 1; fill: rgb(67%,84%,90%); fill-rule: evenodd;"/>
			<polygon points="1107.896 200.5765, 1107.896 210.8268, 1095.913 190.3262, 1107.896 169.8256, 1107.896 180.0759" style="stroke: rgb(56%,93%,56%); stroke-linecap: round; stroke-width: 1; fill: rgb(56%,93%,56%); fill-rule: evenodd;"/>
			<polygon points="1116.046 241.5776, 1116.046 251.8279, 1126.934 231.3273, 1116.046 210.8268, 1116.046 221.0771" style="stroke: rgb(67%,84%,90%); stroke-linecap: round; stroke-width: 1; fill: rgb(67%,84%,90%); fill-rule: evenodd;"/>
			<polygon points="1130.705 241.5776, 1148.733 241.5776, 1148.733 251.8279, 1165.133 231.3273, 1148.733 210.8268, 1148.733 221.0771, 1130.705 221.0771" style="stroke: rgb(67%,84%,90%); stroke-linecap: round; stroke-width: 1; fill: rgb(67%,84%,90%); fill-rule: evenodd;"/>
			<polygon points="1175.534 241.5776, 1211.992 241.5776, 1211.992 251.8279, 1228.393 231.3273, 1211.992 210.8268, 1211.992 221.0771, 1175.534 221.0771" style="stroke: rgb(67%,84%,90%); stroke-linecap: round; stroke-width: 1; fill: rgb(67%,84%,90%); fill-rule: evenodd;"/>
			<polygon points="1243.173 241.5776, 1329.995 241.5776, 1329.995 251.8279, 1346.396 231.3273, 1329.995 210.8268, 1329.995 221.0771, 1243.173 221.0771" style="stroke: rgb(67%,84%,90%); stroke-linecap: round; stroke-width: 1; fill: rgb(67%,84%,90%); fill-rule: evenodd;"/>
			<polygon points="95.80497 528.5855, 111.46 528.5855, 111.46 538.8358, 127.8605 518.3352, 111.46 497.8346, 111.46 508.0849, 95.80497 508.0849" style="stroke: rgb(67%,84%,90%); stroke-linecap: round; stroke-width: 1; fill: rgb(67%,84%,90%); fill-rule: evenodd;"/>
			<polygon points="130.1111 528.5855, 132.8101 528.5855, 132.8101 538.8358, 149.2106 518.3352, 132.8101 497.8346, 132.8101 508.0849, 130.1111 508.0849" style="stroke: rgb(67%,84%,90%); stroke-linecap: round; stroke-width: 1; fill: rgb(67%,84%,90%); fill-rule: evenodd;"/>
			<polygon points="216.0588 528.5855, 273.3191 528.5855, 273.3191 538.8358, 289.7195 518.3352, 273.3191 497.8346, 273.3191 508.0849, 216.0588 508.0849" style="stroke: rgb(67%,84%,90%); stroke-linecap: round; stroke-width: 1; fill: rgb(67%,84%,90%); fill-rule: evenodd;"/>
			<polygon points="299.5126 528.5855, 311.5181 528.5855, 311.5181 538.8358, 327.9185 518.3352, 311.5181 497.8346, 311.5181 508.0849, 299.5126 508.0849" style="stroke: rgb(67%,84%,90%); stroke-linecap: round; stroke-width: 1; fill: rgb(67%,84%,90%); fill-rule: evenodd;"/>
			<polygon points="325.5463 528.5855, 330.4351 528.5855, 330.4351 538.8358, 346.8355 518.3352, 330.4351 497.8346, 330.4351 508.0849, 325.5463 508.0849" style="stroke: rgb(67%,84%,90%); stroke-linecap: round; stroke-width: 1; fill: rgb(67%,84%,90%); fill-rule: evenodd;"/>
			<polygon points="345.9231 528.5855, 498.0727 528.5855, 498.0727 538.8358, 514.4731 518.3352, 498.0727 497.8346, 498.0727 508.0849, 345.9231 508.0849" style="stroke: rgb(67%,84%,90%); stroke-linecap: round; stroke-width: 1; fill: rgb(67%,84%,90%); fill-rule: evenodd;"/>
			<polygon points="514.2906 528.5855, 548.9235 528.5855, 548.9235 538.8358, 565.324 518.3352, 548.9235 497.8346, 548.9235 508.0849, 514.2906 508.0849" style="stroke: rgb(67%,84%,90%); stroke-linecap: round; stroke-width: 1; fill: rgb(67%,84%,90%); fill-rule: evenodd;"/>
			<polygon points="578.645 528.5855, 578.645 538.8358, 593.365 518.3352, 578.645 497.8346, 578.645 508.0849" style="stroke: rgb(67%,84%,90%); stroke-linecap: round; stroke-width: 1; fill: rgb(67%,84%,90%); fill-rule: evenodd;"/>
			<polygon points="608.754 528.5855, 608.754 538.8358, 618.3646 518.3352, 608.754 497.8346, 608.754 508.0849" style="stroke: rgb(67%,84%,90%); stroke-linecap: round; stroke-width: 1; fill: rgb(67%,84%,90%); fill-rule: evenodd;"/>
			<polygon points="668.9722 487.5844, 639.6312 487.5844, 639.6312 497.8346, 623.2307 477.3341, 639.6312 456.8335, 639.6312 467.0838, 668.9722 467.0838" style="stroke: rgb(56%,93%,56%); stroke-linecap: round; stroke-width: 1; fill: rgb(56%,93%,56%); fill-rule: evenodd;"/>
			<polygon points="676.8796 528.5855, 693.6296 528.5855, 693.6296 538.8358, 710.03 518.3352, 693.6296 497.8346, 693.6296 508.0849, 676.8796 508.0849" style="stroke: rgb(67%,84%,90%); stroke-linecap: round; stroke-width: 1; fill: rgb(67%,84%,90%); fill-rule: evenodd;"/>
			<polygon points="745.1877 528.5855, 771.0616 528.5855, 771.0616 538.8358, 787.462 518.3352, 771.0616 497.8346, 771.0616 508.0849, 745.1877 508.0849" style="stroke: rgb(67%,84%,90%); stroke-linecap: round; stroke-width: 1; fill: rgb(67%,84%,90%); fill-rule: evenodd;"/>
			<polygon points="786.4888 528.5855, 793.5673 528.5855, 793.5673 538.8358, 809.9678 518.3352, 793.5673 497.8346, 793.5673 508.0849, 786.4888 508.0849" style="stroke: rgb(67%,84%,90%); stroke-linecap: round; stroke-width: 1; fill: rgb(67%,84%,90%); fill-rule: evenodd;"/>
			<polygon points="806.9873 528.5855, 825.3796 528.5855, 825.3796 538.8358, 841.78 518.3352, 825.3796 497.8346, 825.3796 508.0849, 806.9873 508.0849" style="stroke: rgb(67%,84%,90%); stroke-linecap: round; stroke-width: 1; fill: rgb(67%,84%,90%); fill-rule: evenodd;"/>
			<polygon points="841.5975 528.5855, 856.8876 528.5855, 856.8876 538.8358, 873.2881 518.3352, 856.8876 497.8346, 856.8876 508.0849, 841.5975 508.0849" style="stroke: rgb(67%,84%,90%); stroke-linecap: round; stroke-width: 1; fill: rgb(67%,84%,90%); fill-rule: evenodd;"/>
			<polygon points="884.6018 528.5855, 912.118 528.5855, 912.118 538.8358, 928.5185 518.3352, 912.118 497.8346, 912.118 508.0849, 884.6018 508.0849" style="stroke: rgb(67%,84%,90%); stroke-linecap: round; stroke-width: 1; fill: rgb(67%,84%,90%); fill-rule: evenodd;"/>
			<path d="M 1346.395867,169.825647 L 1346.395867,251.827897 Z" style="stroke: rgb(0%,0%,0%); stroke-linecap: butt; stroke-width: 1;"/>
			<path d="M 70.866142,210.826772 L 1346.395867,210.826772 Z" style="stroke: rgb(0%,0%,0%); stroke-linecap: butt; stroke-width: 1;"/>
			<path d="M 70.866142,169.825647 L 70.866142,251.827897 Z" style="stroke: rgb(0%,0%,0%); stroke-linecap: butt; stroke-width: 1;"/>
			<path d="M 679.130197,210.826772 L 679.130197,231.327334 Z" style="stroke: rgb(0%,0%,0%); stroke-linecap: butt; stroke-width: 1;"/>
			<path d="M 1287.394253,210.826772 L 1287.394253,231.327334 Z" style="stroke: rgb(0%,0%,0%); stroke-linecap: butt; stroke-width: 1;"/>
			<path d="M 679.130197,210.826772 L 679.130197,223.127109 Z" style="stroke: rgb(0%,0%,0%); stroke-linecap: butt; stroke-width: 1;"/>
			<path d="M 1287.394253,210.826772 L 1287.394253,223.127109 Z" style="stroke: rgb(0%,0%,0%); stroke-linecap: butt; stroke-width: 1;"/>
			<path d="M 928.51846,456.833521 L 928.51846,538.835771 Z" style="stroke: rgb(0%,0%,0%); stroke-linecap: butt; stroke-width: 1;"/>
			<path d="M 70.866142,497.834646 L 928.51846,497.834646 Z" style="stroke: rgb(0%,0%,0%); stroke-linecap: butt; stroke-width: 1;"/>
			<path d="M 70.866142,456.833521 L 70.866142,538.835771 Z" style="stroke: rgb(0%,0%,0%); stroke-linecap: butt; stroke-width: 1;"/>
			<path d="M 679.130197,497.834646 L 679.130197,518.335208 Z" style="stroke: rgb(0%,0%,0%); stroke-linecap: butt; stroke-width: 1;"/>
			<path d="M 679.130197,497.834646 L 679.130197,510.134983 Z" style="stroke: rgb(0%,0%,0%); stroke-linecap: butt; stroke-width: 1;"/>
			<g transform=" matrix(0.707107,0.707107,-0.707107,0.707107,679.130197,231.327334)">
				<text style="font-family: Helvetica; font-size: 6px;fill: rgb(0%,0%,0%); stroke:none;" transform="translate(0,0) scale(1,-1)" x="0" y="0">10000</text>
			</g>
			<g transform=" matrix(0.707107,0.707107,-0.707107,0.707107,1287.394253,231.327334)">
				<text style="font-family: Helvetica; font-size: 6px;fill: rgb(0%,0%,0%); stroke:none;" transform="translate(0,0) scale(1,-1)" x="0" y="0">20000</text>
			</g>
			<g transform=" matrix(0.707107,0.707107,-0.707107,0.707107,679.130197,518.335208)">
				<text style="font-family: Helvetica; font-size: 6px;fill: rgb(0%,0%,0%); stroke:none;" transform="translate(0,0) scale(1,-1)" x="0" y="0">10000</text>
			</g>
			<g transform=" matrix(0.707107,0.707107,-0.707107,0.707107,96.991083,251.827897)">
				<text style="font-family: Helvetica; font-size: 10px;fill: rgb(0%,0%,0%); stroke:none;" transform="translate(0,0) scale(1,-1)" x="0" y="0">Gene_00562</text>
			</g>
			<g transform=" matrix(0.707107,0.707107,-0.707107,0.707107,160.128892,251.827897)">
				<text style="font-family: Helvetica; font-size: 10px;fill: rgb(0%,0%,0%); stroke:none;" transform="translate(0,0) scale(1,-1)" x="0" y="0">Gene_00563</text>
			</g>
			<g transform=" matrix(0.707107,-0.707107,0.707107,0.707107,252.493789,169.825647)">
				<text style="font-family: Helvetica; font-size: 10px;fill: rgb(0%,0%,0%); stroke:none;" transform="translate(0,0) scale(1,-1)" x="0" y="0">Gene_00564</text>
			</g>
			<g transform=" matrix(0.707107,0.707107,-0.707107,0.707107,316.574407,251.827897)">
				<text style="font-family: Helvetica; font-size: 10px;fill: rgb(0%,0%,0%); stroke:none;" transform="translate(0,0) scale(1,-1)" x="0" y="0">Gene_00565</text>
			</g>
			<g transform=" matrix(0.707107,0.707107,-0.707107,0.707107,378.617341,251.827897)">
				<text style="font-family: Helvetica; font-size: 10px;fill: rgb(0%,0%,0%); stroke:none;" transform="translate(0,0) scale(1,-1)" x="0" y="0">Gene_00566</text>
			</g>
			<g transform=" matrix(0.707107,0.707107,-0.707107,0.707107,464.990837,251.827897)">
				<text style="font-family: Helvetica; font-size: 10px;fill: rgb(0%,0%,0%); stroke:none;" transform="translate(0,0) scale(1,-1)" x="0" y="0">Gene_00567</text>
			</g>
			<g transform=" matrix(0.707107,0.707107,-0.707107,0.707107,555.04433,251.827897)">
				<text style="font-family: Helvetica; font-size: 10px;fill: rgb(0%,0%,0%); stroke:none;" transform="translate(0,0) scale(1,-1)" x="0" y="0">Gene_00568</text>
			</g>
			<g transform=" matrix(0.707107,0.707107,-0.707107,0.707107,584.727616,251.827897)">
				<text style="font-family: Helvetica; font-size: 10px;fill: rgb(0%,0%,0%); stroke:none;" transform="translate(0,0) scale(1,-1)" x="0" y="0">Gene_00569</text>
			</g>
			<g transform=" matrix(0.707107,0.707107,-0.707107,0.707107,598.474384,251.827897)">
				<text style="font-family: Helvetica; font-size: 10px;fill: rgb(0%,0%,0%); stroke:none;" transform="translate(0,0) scale(1,-1)" x="0" y="0">Gene_00570</text>
			</g>
			<g transform=" matrix(0.707107,-0.707107,0.707107,0.707107,624.17354,169.825647)">
				<text style="font-family: Helvetica; font-size: 10px;fill: rgb(0%,0%,0%); stroke:none;" transform="translate(0,0) scale(1,-1)" x="0" y="0">Gene_00571</text>
			</g>
			<g transform=" matrix(0.707107,0.707107,-0.707107,0.707107,691.265065,251.827897)">
				<text style="font-family: Helvetica; font-size: 16px;fill: rgb(0%,0%,100%); stroke:none;" transform="translate(0,0) scale(1,-1)" x="0" y="0">Gene_00572 (81.6)</text>
			</g>
			<g transform=" matrix(0.707107,0.707107,-0.707107,0.707107,796.494747,251.827897)">
				<text style="font-family: Helvetica; font-size: 10px;fill: rgb(0%,0%,0%); stroke:none;" transform="translate(0,0) scale(1,-1)" x="0" y="0">Gene_00573</text>
			</g>
			<g transform=" matrix(0.707107,0.707107,-0.707107,0.707107,889.924106,251.827897)">
				<text style="font-family: Helvetica; font-size: 10px;fill: rgb(0%,0%,0%); stroke:none;" transform="translate(0,0) scale(1,-1)" x="0" y="0">Gene_00574</text>
			</g>
			<g transform=" matrix(0.707107,0.707107,-0.707107,0.707107,953.031502,251.827897)">
				<text style="font-family: Helvetica; font-size: 10px;fill: rgb(0%,0%,0%); stroke:none;" transform="translate(0,0) scale(1,-1)" x="0" y="0">Gene_00575</text>
			</g>
			<g transform=" matrix(0.707107,0.707107,-0.707107,0.707107,982.228176,251.827897)">
				<text style="font-family: Helvetica; font-size: 10px;fill: rgb(0%,0%,0%); stroke:none;" transform="translate(0,0) scale(1,-1)" x="0" y="0">Gene_00576</text>
			</g>
			<g transform=" matrix(0.707107,0.707107,-0.707107,0.707107,1000.841056,251.827897)">
				<text style="font-family: Helvetica; font-size: 10px;fill: rgb(0%,0%,0%); stroke:none;" transform="translate(0,0) scale(1,-1)" x="0" y="0">Gene_00577</text>
			</g>
			<g transform=" matrix(0.707107,0.707107,-0.707107,0.707107,1039.465824,251.827897)">
				<text style="font-family: Helvetica; font-size: 10px;fill: rgb(0%,0%,0%); stroke:none;" transform="translate(0,0) scale(1,-1)" x="0" y="0">Gene_00578</text>
			</g>
			<g transform=" matrix(0.707107,-0.707107,0.707107,0.707107,1101.904129,169.825647)">
				<text style="font-family: Helvetica; font-size: 10px;fill: rgb(0%,0%,0%); stroke:none;" transform="translate(0,0) scale(1,-1)" x="0" y="0">Gene_00579</text>
			</g>
			<g transform=" matrix(0.707107,0.707107,-0.707107,0.707107,1121.490232,251.827897)">
				<text style="font-family: Helvetica; font-size: 10px;fill: rgb(0%,0%,0%); stroke:none;" transform="translate(0,0) scale(1,-1)" x="0" y="0">Gene_00580</text>
			</g>
			<g transform=" matrix(0.707107,0.707107,-0.707107,0.707107,1147.919305,251.827897)">
				<text style="font-family: Helvetica; font-size: 10px;fill: rgb(0%,0%,0%); stroke:none;" transform="translate(0,0) scale(1,-1)" x="0" y="0">Gene_00581</text>
			</g>
			<g transform=" matrix(0.707107,0.707107,-0.707107,0.707107,1201.963566,251.827897)">
				<text style="font-family: Helvetica; font-size: 10px;fill: rgb(0%,0%,0%); stroke:none;" transform="translate(0,0) scale(1,-1)" x="0" y="0">Gene_00582</text>
			</g>
			<g transform=" matrix(0.707107,0.707107,-0.707107,0.707107,1294.784661,251.827897)">
				<text style="font-family: Helvetica; font-size: 10px;fill: rgb(0%,0%,0%); stroke:none;" transform="translate(0,0) scale(1,-1)" x="0" y="0">Gene_00583</text>
			</g>
			<g transform=" matrix(0.707107,0.707107,-0.707107,0.707107,111.832726,538.835771)">
				<text style="font-family: Helvetica; font-size: 10px;fill: rgb(0%,0%,0%); stroke:none;" transform="translate(0,0) scale(1,-1)" x="0" y="0">Gene_02187</text>
			</g>
			<g transform=" matrix(0.707107,0.707107,-0.707107,0.707107,139.660806,538.835771)">
				<text style="font-family: Helvetica; font-size: 10px;fill: rgb(0%,0%,0%); stroke:none;" transform="translate(0,0) scale(1,-1)" x="0" y="0">Gene_02188</text>
			</g>
			<g transform=" matrix(0.707107,0.707107,-0.707107,0.707107,252.88916,538.835771)">
				<text style="font-family: Helvetica; font-size: 16px;fill: rgb(0%,0%,100%); stroke:none;" transform="translate(0,0) scale(1,-1)" x="0" y="0">Gene_02189 (81.6)</text>
			</g>
			<g transform=" matrix(0.707107,0.707107,-0.707107,0.707107,313.715566,538.835771)">
				<text style="font-family: Helvetica; font-size: 10px;fill: rgb(0%,0%,0%); stroke:none;" transform="translate(0,0) scale(1,-1)" x="0" y="0">Gene_02190</text>
			</g>
			<g transform=" matrix(0.707107,0.707107,-0.707107,0.707107,336.190923,538.835771)">
				<text style="font-family: Helvetica; font-size: 10px;fill: rgb(0%,0%,0%); stroke:none;" transform="translate(0,0) scale(1,-1)" x="0" y="0">Gene_02191</text>
			</g>
			<g transform=" matrix(0.707107,0.707107,-0.707107,0.707107,430.198133,538.835771)">
				<text style="font-family: Helvetica; font-size: 10px;fill: rgb(0%,0%,0%); stroke:none;" transform="translate(0,0) scale(1,-1)" x="0" y="0">Gene_02192</text>
			</g>
			<g transform=" matrix(0.707107,0.707107,-0.707107,0.707107,539.807315,538.835771)">
				<text style="font-family: Helvetica; font-size: 10px;fill: rgb(0%,0%,0%); stroke:none;" transform="translate(0,0) scale(1,-1)" x="0" y="0">Gene_02193</text>
			</g>
			<g transform=" matrix(0.707107,0.707107,-0.707107,0.707107,586.00497,538.835771)">
				<text style="font-family: Helvetica; font-size: 10px;fill: rgb(0%,0%,0%); stroke:none;" transform="translate(0,0) scale(1,-1)" x="0" y="0">Gene_02194</text>
			</g>
			<g transform=" matrix(0.707107,0.707107,-0.707107,0.707107,613.559332,538.835771)">
				<text style="font-family: Helvetica; font-size: 10px;fill: rgb(0%,0%,0%); stroke:none;" transform="translate(0,0) scale(1,-1)" x="0" y="0">Gene_02195</text>
			</g>
			<g transform=" matrix(0.707107,-0.707107,0.707107,0.707107,646.101459,456.833521)">
				<text style="font-family: Helvetica; font-size: 10px;fill: rgb(0%,0%,0%); stroke:none;" transform="translate(0,0) scale(1,-1)" x="0" y="0">Gene_02196</text>
			</g>
			<g transform=" matrix(0.707107,0.707107,-0.707107,0.707107,693.454816,538.835771)">
				<text style="font-family: Helvetica; font-size: 10px;fill: rgb(0%,0%,0%); stroke:none;" transform="translate(0,0) scale(1,-1)" x="0" y="0">Gene_02197</text>
			</g>
			<g transform=" matrix(0.707107,0.707107,-0.707107,0.707107,766.32485,538.835771)">
				<text style="font-family: Helvetica; font-size: 10px;fill: rgb(0%,0%,0%); stroke:none;" transform="translate(0,0) scale(1,-1)" x="0" y="0">Gene_02198</text>
			</g>
			<g transform=" matrix(0.707107,0.707107,-0.707107,0.707107,798.2283,538.835771)">
				<text style="font-family: Helvetica; font-size: 10px;fill: rgb(0%,0%,0%); stroke:none;" transform="translate(0,0) scale(1,-1)" x="0" y="0">Gene_02199</text>
			</g>
			<g transform=" matrix(0.707107,0.707107,-0.707107,0.707107,824.383654,538.835771)">
				<text style="font-family: Helvetica; font-size: 10px;fill: rgb(0%,0%,0%); stroke:none;" transform="translate(0,0) scale(1,-1)" x="0" y="0">Gene_02200</text>
			</g>
			<g transform=" matrix(0.707107,0.707107,-0.707107,0.707107,857.442805,538.835771)">
				<text style="font-family: Helvetica; font-size: 10px;fill: rgb(0%,0%,0%); stroke:none;" transform="translate(0,0) scale(1,-1)" x="0" y="0">Gene_02201</text>
			</g>
			<g transform=" matrix(0.707107,0.707107,-0.707107,0.707107,906.560128,538.835771)">
				<text style="font-family: Helvetica; font-size: 10px;fill: rgb(0%,0%,0%); stroke:none;" transform="translate(0,0) scale(1,-1)" x="0" y="0">Gene_02202</text>
			</g>
			<g transform=" matrix(1,0,-0,1,70,169.825647)">
				<text style="font-family: Helvetica; font-size: 12px;fill: rgb(60%,60%,60%); stroke:none;" transform="translate(0,0) scale(1,-1)" x="0" y="0">megahit_28792 (left 9594bp, right 69930bp)</text>
			</g>
			<g transform=" matrix(1,0,-0,1,70,456.833521)">
				<text style="font-family: Helvetica; font-size: 12px;fill: rgb(60%,60%,60%); stroke:none;" transform="translate(0,0) scale(1,-1)" x="0" y="0">megahit_4026 (left 2387bp, right 51787bp)</text>
			</g>
		</g>
	</g>
</svg>
