<?xml version="1.0" encoding="utf-8"?>
<!DOCTYPE svg
  PUBLIC '-//W3C//DTD SVG 1.0//EN'
  'http://www.w3.org/TR/2001/REC-SVG-20010904/DTD/svg10.dtd'>
<svg fill-rule="evenodd" height="708.6614173228346" preserveAspectRatio="xMinYMin meet" version="1.0" viewBox="0 0 1417 708" width="1417.3228346456692" xmlns="http://www.w3.org/2000/svg" xmlns:xlink="http://www.w3.org/1999/xlink">
	<title>...</title>
	<desc>...</desc>
	<clipPath id="clip">
		<rect height="708.6614173228346" width="1417.3228346456692" x="0" y="0"/>
	</clipPath>
	<g id="group" style="clip-path: url(#clip)" transform="scale(1,-1) translate(0,-708)">
		<g transform="">
			<polygon points="70.86614 169.8256, 1301.552 169.8256, 1301.552 251.8279, 70.86614 251.8279" style="stroke: rgb(96%,96%,96%); stroke-linecap: butt; stroke-width: 1; fill: rgb(96%,96%,96%); fill-rule: evenodd;"/>
			<polygon points="70.86614 456.8335, 1346.353 456.8335, 1346.353 538.8358, 70.86614 538.8358" style="stroke: rgb(96%,96%,96%); stroke-linecap: butt; stroke-width: 1; fill: rgb(96%,96%,96%); fill-rule: evenodd;"/>
			<polygon points="566.8775 456.8335, 1327.772 456.8335, 70.96937 251.8279, 832.1739 251.8279" style="stroke: rgb(100%,15%,15%); stroke-linecap: round; stroke-width: 1; fill: rgb(100%,15%,15%); fill-rule: evenodd;"/>
			<polygon points="496.2694 456.8335, 567.6001 456.8335, 845.6968 251.8279, 917.0275 251.8279" style="stroke: rgb(100%,19%,19%); stroke-linecap: round; stroke-width: 1; fill: rgb(100%,19%,19%); fill-rule: evenodd;"/>
			<polygon points="395.622 456.8335, 480.9917 456.8335, 934.2666 251.8279, 1019.327 251.8279" style="stroke: rgb(100%,38%,38%); stroke-linecap: round; stroke-width: 1; fill: rgb(100%,38%,38%); fill-rule: evenodd;"/>
			<polygon points="89.0343 241.5776, 110.0024 241.5776, 110.0024 251.8279, 126.4029 231.3273, 110.0024 210.8268, 110.0024 221.0771, 89.0343 221.0771" style="stroke: rgb(67%,84%,90%); stroke-linecap: round; stroke-width: 1; fill: rgb(67%,84%,90%); fill-rule: evenodd;"/>
			<polygon points="166.1457 200.5765, 141.7711 200.5765, 141.7711 210.8268, 125.3706 190.3262, 141.7711 169.8256, 141.7711 180.0759, 166.1457 180.0759" style="stroke: rgb(56%,93%,56%); stroke-linecap: round; stroke-width: 1; fill: rgb(56%,93%,56%); fill-rule: evenodd;"/>
			<polygon points="187.6172 200.5765, 184.9204 200.5765, 184.9204 210.8268, 168.52 190.3262, 184.9204 169.8256, 184.9204 180.0759, 187.6172 180.0759" style="stroke: rgb(56%,93%,56%); stroke-linecap: round; stroke-width: 1; fill: rgb(56%,93%,56%); fill-rule: evenodd;"/>
			<polygon points="244.5992 200.5765, 205.3596 200.5765, 205.3596 210.8268, 188.9592 190.3262, 205.3596 169.8256, 205.3596 180.0759, 244.5992 180.0759" style="stroke: rgb(56%,93%,56%); stroke-linecap: round; stroke-width: 1; fill: rgb(56%,93%,56%); fill-rule: evenodd;"/>
			<polygon points="278.9741 200.5765, 262.3416 200.5765, 262.3416 210.8268, 245.9411 190.3262, 262.3416 169.8256, 262.3416 180.0759, 278.9741 180.0759" style="stroke: rgb(56%,93%,56%); stroke-linecap: round; stroke-width: 1; fill: rgb(56%,93%,56%); fill-rule: evenodd;"/>
			<polygon points="318.6138 200.5765, 297.0262 200.5765, 297.0262 210.8268, 280.6258 190.3262, 297.0262 169.8256, 297.0262 180.0759, 318.6138 180.0759" style="stroke: rgb(56%,93%,56%); stroke-linecap: round; stroke-width: 1; fill: rgb(56%,93%,56%); fill-rule: evenodd;"/>
			<polygon points="352.4726 200.5765, 342.0337 200.5765, 342.0337 210.8268, 325.6333 190.3262, 342.0337 169.8256, 342.0337 180.0759, 352.4726 180.0759" style="stroke: rgb(56%,93%,56%); stroke-linecap: round; stroke-width: 1; fill: rgb(56%,93%,56%); fill-rule: evenodd;"/>
			<polygon points="375.5957 200.5765, 371.0408 200.5765, 371.0408 210.8268, 354.6404 190.3262, 371.0408 169.8256, 371.0408 180.0759, 375.5957 180.0759" style="stroke: rgb(56%,93%,56%); stroke-linecap: round; stroke-width: 1; fill: rgb(56%,93%,56%); fill-rule: evenodd;"/>
			<polygon points="419.158 200.5765, 391.9962 200.5765, 391.9962 210.8268, 375.5957 190.3262, 391.9962 169.8256, 391.9962 180.0759, 419.158 180.0759" style="stroke: rgb(56%,93%,56%); stroke-linecap: round; stroke-width: 1; fill: rgb(56%,93%,56%); fill-rule: evenodd;"/>
			<polygon points="496.1662 200.5765, 435.5585 200.5765, 435.5585 210.8268, 419.158 190.3262, 435.5585 169.8256, 435.5585 180.0759, 496.1662 180.0759" style="stroke: rgb(56%,93%,56%); stroke-linecap: round; stroke-width: 1; fill: rgb(56%,93%,56%); fill-rule: evenodd;"/>
			<polygon points="532.8122 200.5765, 514.6312 200.5765, 514.6312 210.8268, 498.2308 190.3262, 514.6312 169.8256, 514.6312 180.0759, 532.8122 180.0759" style="stroke: rgb(56%,93%,56%); stroke-linecap: round; stroke-width: 1; fill: rgb(56%,93%,56%); fill-rule: evenodd;"/>
			<polygon points="563.0581 200.5765, 551.3805 200.5765, 551.3805 210.8268, 534.98 190.3262, 551.3805 169.8256, 551.3805 180.0759, 563.0581 180.0759" style="stroke: rgb(56%,93%,56%); stroke-linecap: round; stroke-width: 1; fill: rgb(56%,93%,56%); fill-rule: evenodd;"/>
			<polygon points="651.8343 200.5765, 582.2457 200.5765, 582.2457 210.8268, 565.8452 190.3262, 582.2457 169.8256, 582.2457 180.0759, 651.8343 180.0759" style="stroke: rgb(56%,93%,56%); stroke-linecap: round; stroke-width: 1; fill: rgb(56%,93%,56%); fill-rule: evenodd;"/>
			<polygon points="692.5062 200.5765, 678.9705 200.5765, 678.9705 210.8268, 662.57 190.3262, 678.9705 169.8256, 678.9705 180.0759, 692.5062 180.0759" style="stroke: rgb(56%,93%,56%); stroke-linecap: round; stroke-width: 1; fill: rgb(56%,93%,56%); fill-rule: evenodd;"/>
			<polygon points="756.8174 200.5765, 708.9067 200.5765, 708.9067 210.8268, 692.5062 190.3262, 708.9067 169.8256, 708.9067 180.0759, 756.8174 180.0759" style="stroke: rgb(56%,93%,56%); stroke-linecap: round; stroke-width: 1; fill: rgb(56%,93%,56%); fill-rule: evenodd;"/>
			<polygon points="824.0189 200.5765, 775.1791 200.5765, 775.1791 210.8268, 758.7787 190.3262, 775.1791 169.8256, 775.1791 180.0759, 824.0189 180.0759" style="stroke: rgb(56%,93%,56%); stroke-linecap: round; stroke-width: 1; fill: rgb(56%,93%,56%); fill-rule: evenodd;"/>
			<polygon points="878.0072 200.5765, 862.3037 200.5765, 862.3037 210.8268, 845.9033 190.3262, 862.3037 169.8256, 862.3037 180.0759, 878.0072 180.0759" style="stroke: rgb(56%,93%,56%); stroke-linecap: round; stroke-width: 1; fill: rgb(56%,93%,56%); fill-rule: evenodd;"/>
			<polygon points="1023.353 200.5765, 943.854 200.5765, 943.854 210.8268, 927.4535 190.3262, 943.854 169.8256, 943.854 180.0759, 1023.353 180.0759" style="stroke: rgb(56%,93%,56%); stroke-linecap: round; stroke-width: 1; fill: rgb(56%,93%,56%); fill-rule: evenodd;"/>
			<polygon points="1116.051 200.5765, 1041.198 200.5765, 1041.198 210.8268, 1024.798 190.3262, 1041.198 169.8256, 1041.198 180.0759, 1116.051 180.0759" style="stroke: rgb(56%,93%,56%); stroke-linecap: round; stroke-width: 1; fill: rgb(56%,93%,56%); fill-rule: evenodd;"/>
			<polygon points="1242.299 200.5765, 1141.123 200.5765, 1141.123 210.8268, 1124.723 190.3262, 1141.123 169.8256, 1141.123 180.0759, 1242.299 180.0759" style="stroke: rgb(56%,93%,56%); stroke-linecap: round; stroke-width: 1; fill: rgb(56%,93%,56%); fill-rule: evenodd;"/>
			<polygon points="1284.726 200.5765, 1266.545 200.5765, 1266.545 210.8268, 1250.145 190.3262, 1266.545 169.8256, 1266.545 180.0759, 1284.726 180.0759" style="stroke: rgb(56%,93%,56%); stroke-linecap: round; stroke-width: 1; fill: rgb(56%,93%,56%); fill-rule: evenodd;"/>
			<polygon points="70.86614 528.5855, 197.4367 528.5855, 197.4367 538.8358, 213.8372 518.3352, 197.4367 497.8346, 197.4367 508.0849, 70.86614 508.0849" style="stroke: rgb(67%,84%,90%); stroke-linecap: round; stroke-width: 1; fill: rgb(67%,84%,90%); fill-rule: evenodd;"/>
			<polygon points="225.089 528.5855, 362.4986 528.5855, 362.4986 538.8358, 378.899 518.3352, 362.4986 497.8346, 362.4986 508.0849, 225.089 508.0849" style="stroke: rgb(67%,84%,90%); stroke-linecap: round; stroke-width: 1; fill: rgb(67%,84%,90%); fill-rule: evenodd;"/>
			<polygon points="391.5961 528.5855, 470.7849 528.5855, 470.7849 538.8358, 487.1854 518.3352, 470.7849 497.8346, 470.7849 508.0849, 391.5961 508.0849" style="stroke: rgb(67%,84%,90%); stroke-linecap: round; stroke-width: 1; fill: rgb(67%,84%,90%); fill-rule: evenodd;"/>
			<polygon points="535.2897 528.5855, 550.9932 528.5855, 550.9932 538.8358, 567.3937 518.3352, 550.9932 497.8346, 550.9932 508.0849, 535.2897 508.0849" style="stroke: rgb(67%,84%,90%); stroke-linecap: round; stroke-width: 1; fill: rgb(67%,84%,90%); fill-rule: evenodd;"/>
			<polygon points="574.9293 528.5855, 623.7691 528.5855, 623.7691 538.8358, 640.1695 518.3352, 623.7691 497.8346, 623.7691 508.0849, 574.9293 508.0849" style="stroke: rgb(67%,84%,90%); stroke-linecap: round; stroke-width: 1; fill: rgb(67%,84%,90%); fill-rule: evenodd;"/>
			<polygon points="642.1309 528.5855, 690.0416 528.5855, 690.0416 538.8358, 706.442 518.3352, 690.0416 497.8346, 690.0416 508.0849, 642.1309 508.0849" style="stroke: rgb(67%,84%,90%); stroke-linecap: round; stroke-width: 1; fill: rgb(67%,84%,90%); fill-rule: evenodd;"/>
			<polygon points="706.442 528.5855, 719.9777 528.5855, 719.9777 538.8358, 736.3782 518.3352, 719.9777 497.8346, 719.9777 508.0849, 706.442 508.0849" style="stroke: rgb(67%,84%,90%); stroke-linecap: round; stroke-width: 1; fill: rgb(67%,84%,90%); fill-rule: evenodd;"/>
			<polygon points="747.7333 528.5855, 817.3219 528.5855, 817.3219 538.8358, 833.7224 518.3352, 817.3219 497.8346, 817.3219 508.0849, 747.7333 508.0849" style="stroke: rgb(67%,84%,90%); stroke-linecap: round; stroke-width: 1; fill: rgb(67%,84%,90%); fill-rule: evenodd;"/>
			<polygon points="836.6127 528.5855, 848.2904 528.5855, 848.2904 538.8358, 864.6908 518.3352, 848.2904 497.8346, 848.2904 508.0849, 836.6127 508.0849" style="stroke: rgb(67%,84%,90%); stroke-linecap: round; stroke-width: 1; fill: rgb(67%,84%,90%); fill-rule: evenodd;"/>
			<polygon points="866.8586 528.5855, 885.0396 528.5855, 885.0396 538.8358, 901.44 518.3352, 885.0396 497.8346, 885.0396 508.0849, 866.8586 508.0849" style="stroke: rgb(67%,84%,90%); stroke-linecap: round; stroke-width: 1; fill: rgb(67%,84%,90%); fill-rule: evenodd;"/>
			<polygon points="903.5046 528.5855, 963.493 528.5855, 963.493 538.8358, 979.8934 518.3352, 963.493 497.8346, 963.493 508.0849, 903.5046 508.0849" style="stroke: rgb(67%,84%,90%); stroke-linecap: round; stroke-width: 1; fill: rgb(67%,84%,90%); fill-rule: evenodd;"/>
			<polygon points="979.8934 528.5855, 1007.055 528.5855, 1007.055 538.8358, 1023.456 518.3352, 1007.055 497.8346, 1007.055 508.0849, 979.8934 508.0849" style="stroke: rgb(67%,84%,90%); stroke-linecap: round; stroke-width: 1; fill: rgb(67%,84%,90%); fill-rule: evenodd;"/>
			<polygon points="1023.456 528.5855, 1028.011 528.5855, 1028.011 538.8358, 1044.411 518.3352, 1028.011 497.8346, 1028.011 508.0849, 1023.456 508.0849" style="stroke: rgb(67%,84%,90%); stroke-linecap: round; stroke-width: 1; fill: rgb(67%,84%,90%); fill-rule: evenodd;"/>
			<polygon points="1046.476 528.5855, 1056.914 528.5855, 1056.914 538.8358, 1073.315 518.3352, 1056.914 497.8346, 1056.914 508.0849, 1046.476 508.0849" style="stroke: rgb(67%,84%,90%); stroke-linecap: round; stroke-width: 1; fill: rgb(67%,84%,90%); fill-rule: evenodd;"/>
			<polygon points="1079.922 528.5855, 1101.509 528.5855, 1101.509 538.8358, 1117.91 518.3352, 1101.509 497.8346, 1101.509 508.0849, 1079.922 508.0849" style="stroke: rgb(67%,84%,90%); stroke-linecap: round; stroke-width: 1; fill: rgb(67%,84%,90%); fill-rule: evenodd;"/>
			<polygon points="1119.664 528.5855, 1136.297 528.5855, 1136.297 538.8358, 1152.697 518.3352, 1136.297 497.8346, 1136.297 508.0849, 1119.664 508.0849" style="stroke: rgb(67%,84%,90%); stroke-linecap: round; stroke-width: 1; fill: rgb(67%,84%,90%); fill-rule: evenodd;"/>
			<polygon points="1154.143 528.5855, 1193.382 528.5855, 1193.382 538.8358, 1209.783 518.3352, 1193.382 497.8346, 1193.382 508.0849, 1154.143 508.0849" style="stroke: rgb(67%,84%,90%); stroke-linecap: round; stroke-width: 1; fill: rgb(67%,84%,90%); fill-rule: evenodd;"/>
			<polygon points="1211.125 528.5855, 1213.821 528.5855, 1213.821 538.8358, 1230.222 518.3352, 1213.821 497.8346, 1213.821 508.0849, 1211.125 508.0849" style="stroke: rgb(67%,84%,90%); stroke-linecap: round; stroke-width: 1; fill: rgb(67%,84%,90%); fill-rule: evenodd;"/>
			<polygon points="1232.596 528.5855, 1256.971 528.5855, 1256.971 538.8358, 1273.371 518.3352, 1256.971 497.8346, 1256.971 508.0849, 1232.596 508.0849" style="stroke: rgb(67%,84%,90%); stroke-linecap: round; stroke-width: 1; fill: rgb(67%,84%,90%); fill-rule: evenodd;"/>
			<polygon points="1275.436 528.5855, 1315.295 528.5855, 1315.295 538.8358, 1331.695 518.3352, 1315.295 497.8346, 1315.295 508.0849, 1275.436 508.0849" style="stroke: rgb(67%,84%,90%); stroke-linecap: round; stroke-width: 1; fill: rgb(67%,84%,90%); fill-rule: evenodd;"/>
			<path d="M 1301.552437,169.825647 L 1301.552437,251.827897 Z" style="stroke: rgb(0%,0%,0%); stroke-linecap: butt; stroke-width: 1;"/>
			<path d="M 70.866142,210.826772 L 1301.552437,210.826772 Z" style="stroke: rgb(0%,0%,0%); stroke-linecap: butt; stroke-width: 1;"/>
			<path d="M 70.866142,169.825647 L 70.866142,251.827897 Z" style="stroke: rgb(0%,0%,0%); stroke-linecap: butt; stroke-width: 1;"/>
			<path d="M 1103.147886,210.826772 L 1103.147886,231.327334 Z" style="stroke: rgb(0%,0%,0%); stroke-linecap: butt; stroke-width: 1;"/>
			<path d="M 1103.147886,210.826772 L 1103.147886,223.127109 Z" style="stroke: rgb(0%,0%,0%); stroke-linecap: butt; stroke-width: 1;"/>
			<path d="M 1346.353465,456.833521 L 1346.353465,538.835771 Z" style="stroke: rgb(0%,0%,0%); stroke-linecap: butt; stroke-width: 1;"/>
			<path d="M 70.866142,497.834646 L 1346.353465,497.834646 Z" style="stroke: rgb(0%,0%,0%); stroke-linecap: butt; stroke-width: 1;"/>
			<path d="M 70.866142,456.833521 L 70.866142,538.835771 Z" style="stroke: rgb(0%,0%,0%); stroke-linecap: butt; stroke-width: 1;"/>
			<path d="M 1103.147886,497.834646 L 1103.147886,518.335208 Z" style="stroke: rgb(0%,0%,0%); stroke-linecap: butt; stroke-width: 1;"/>
			<path d="M 1103.147886,497.834646 L 1103.147886,510.134983 Z" style="stroke: rgb(0%,0%,0%); stroke-linecap: butt; stroke-width: 1;"/>
			<g transform=" matrix(0.707107,0.707107,-0.707107,0.707107,1103.147886,231.327334)">
				<text style="font-family: Helvetica; font-size: 6px;fill: rgb(0%,0%,0%); stroke:none;" transform="translate(0,0) scale(1,-1)" x="0" y="0">10000</text>
			</g>
			<g transform=" matrix(0.707107,0.707107,-0.707107,0.707107,1103.147886,518.335208)">
				<text style="font-family: Helvetica; font-size: 6px;fill: rgb(0%,0%,0%); stroke:none;" transform="translate(0,0) scale(1,-1)" x="0" y="0">10000</text>
			</g>
			<g transform=" matrix(0.707107,0.707107,-0.707107,0.707107,107.7186,251.827897)">
				<text style="font-family: Helvetica; font-size: 10px;fill: rgb(0%,0%,0%); stroke:none;" transform="translate(0,0) scale(1,-1)" x="0" y="0">Gene_00429</text>
			</g>
			<g transform=" matrix(0.707107,-0.707107,0.707107,0.707107,145.758182,169.825647)">
				<text style="font-family: Helvetica; font-size: 10px;fill: rgb(0%,0%,0%); stroke:none;" transform="translate(0,0) scale(1,-1)" x="0" y="0">Gene_00430</text>
			</g>
			<g transform=" matrix(0.707107,-0.707107,0.707107,0.707107,178.068601,169.825647)">
				<text style="font-family: Helvetica; font-size: 10px;fill: rgb(0%,0%,0%); stroke:none;" transform="translate(0,0) scale(1,-1)" x="0" y="0">Gene_00431</text>
			</g>
			<g transform=" matrix(0.707107,-0.707107,0.707107,0.707107,216.779166,169.825647)">
				<text style="font-family: Helvetica; font-size: 10px;fill: rgb(0%,0%,0%); stroke:none;" transform="translate(0,0) scale(1,-1)" x="0" y="0">Gene_00432</text>
			</g>
			<g transform=" matrix(0.707107,-0.707107,0.707107,0.707107,262.457633,169.825647)">
				<text style="font-family: Helvetica; font-size: 16px;fill: rgb(0%,0%,100%); stroke:none;" transform="translate(0,0) scale(1,-1)" x="0" y="0">Gene_00433 (93.8)</text>
			</g>
			<g transform=" matrix(0.707107,-0.707107,0.707107,0.707107,299.619776,169.825647)">
				<text style="font-family: Helvetica; font-size: 10px;fill: rgb(0%,0%,0%); stroke:none;" transform="translate(0,0) scale(1,-1)" x="0" y="0">Gene_00434</text>
			</g>
			<g transform=" matrix(0.707107,-0.707107,0.707107,0.707107,339.052939,169.825647)">
				<text style="font-family: Helvetica; font-size: 10px;fill: rgb(0%,0%,0%); stroke:none;" transform="translate(0,0) scale(1,-1)" x="0" y="0">Gene_00435</text>
			</g>
			<g transform=" matrix(0.707107,-0.707107,0.707107,0.707107,365.118053,169.825647)">
				<text style="font-family: Helvetica; font-size: 10px;fill: rgb(0%,0%,0%); stroke:none;" transform="translate(0,0) scale(1,-1)" x="0" y="0">Gene_00436</text>
			</g>
			<g transform=" matrix(0.707107,-0.707107,0.707107,0.707107,397.376857,169.825647)">
				<text style="font-family: Helvetica; font-size: 10px;fill: rgb(0%,0%,0%); stroke:none;" transform="translate(0,0) scale(1,-1)" x="0" y="0">Gene_00437</text>
			</g>
			<g transform=" matrix(0.707107,-0.707107,0.707107,0.707107,457.662111,169.825647)">
				<text style="font-family: Helvetica; font-size: 10px;fill: rgb(0%,0%,0%); stroke:none;" transform="translate(0,0) scale(1,-1)" x="0" y="0">Gene_00438</text>
			</g>
			<g transform=" matrix(0.707107,-0.707107,0.707107,0.707107,515.521503,169.825647)">
				<text style="font-family: Helvetica; font-size: 10px;fill: rgb(0%,0%,0%); stroke:none;" transform="translate(0,0) scale(1,-1)" x="0" y="0">Gene_00439</text>
			</g>
			<g transform=" matrix(0.707107,-0.707107,0.707107,0.707107,549.019046,169.825647)">
				<text style="font-family: Helvetica; font-size: 10px;fill: rgb(0%,0%,0%); stroke:none;" transform="translate(0,0) scale(1,-1)" x="0" y="0">Gene_00440</text>
			</g>
			<g transform=" matrix(0.707107,-0.707107,0.707107,0.707107,608.839773,169.825647)">
				<text style="font-family: Helvetica; font-size: 10px;fill: rgb(0%,0%,0%); stroke:none;" transform="translate(0,0) scale(1,-1)" x="0" y="0">Gene_00441</text>
			</g>
			<g transform=" matrix(0.707107,-0.707107,0.707107,0.707107,677.538123,169.825647)">
				<text style="font-family: Helvetica; font-size: 10px;fill: rgb(0%,0%,0%); stroke:none;" transform="translate(0,0) scale(1,-1)" x="0" y="0">Gene_00442</text>
			</g>
			<g transform=" matrix(0.707107,-0.707107,0.707107,0.707107,724.661784,169.825647)">
				<text style="font-family: Helvetica; font-size: 10px;fill: rgb(0%,0%,0%); stroke:none;" transform="translate(0,0) scale(1,-1)" x="0" y="0">Gene_00443</text>
			</g>
			<g transform=" matrix(0.707107,-0.707107,0.707107,0.707107,791.398799,169.825647)">
				<text style="font-family: Helvetica; font-size: 10px;fill: rgb(0%,0%,0%); stroke:none;" transform="translate(0,0) scale(1,-1)" x="0" y="0">Gene_00444</text>
			</g>
			<g transform=" matrix(0.707107,-0.707107,0.707107,0.707107,861.955256,169.825647)">
				<text style="font-family: Helvetica; font-size: 10px;fill: rgb(0%,0%,0%); stroke:none;" transform="translate(0,0) scale(1,-1)" x="0" y="0">Gene_00445</text>
			</g>
			<g transform=" matrix(0.707107,-0.707107,0.707107,0.707107,975.40302,169.825647)">
				<text style="font-family: Helvetica; font-size: 10px;fill: rgb(0%,0%,0%); stroke:none;" transform="translate(0,0) scale(1,-1)" x="0" y="0">Gene_00446</text>
			</g>
			<g transform=" matrix(0.707107,-0.707107,0.707107,0.707107,1070.424555,169.825647)">
				<text style="font-family: Helvetica; font-size: 10px;fill: rgb(0%,0%,0%); stroke:none;" transform="translate(0,0) scale(1,-1)" x="0" y="0">Gene_00447</text>
			</g>
			<g transform=" matrix(0.707107,-0.707107,0.707107,0.707107,1183.51102,169.825647)">
				<text style="font-family: Helvetica; font-size: 10px;fill: rgb(0%,0%,0%); stroke:none;" transform="translate(0,0) scale(1,-1)" x="0" y="0">Gene_00448</text>
			</g>
			<g transform=" matrix(0.707107,-0.707107,0.707107,0.707107,1267.435525,169.825647)">
				<text style="font-family: Helvetica; font-size: 10px;fill: rgb(0%,0%,0%); stroke:none;" transform="translate(0,0) scale(1,-1)" x="0" y="0">Gene_00449</text>
			</g>
			<g transform=" matrix(0.707107,0.707107,-0.707107,0.707107,142.351653,538.835771)">
				<text style="font-family: Helvetica; font-size: 10px;fill: rgb(0%,0%,0%); stroke:none;" transform="translate(0,0) scale(1,-1)" x="0" y="0">Gene_00794</text>
			</g>
			<g transform=" matrix(0.707107,0.707107,-0.707107,0.707107,301.994024,538.835771)">
				<text style="font-family: Helvetica; font-size: 10px;fill: rgb(0%,0%,0%); stroke:none;" transform="translate(0,0) scale(1,-1)" x="0" y="0">Gene_00795</text>
			</g>
			<g transform=" matrix(0.707107,0.707107,-0.707107,0.707107,439.390724,538.835771)">
				<text style="font-family: Helvetica; font-size: 10px;fill: rgb(0%,0%,0%); stroke:none;" transform="translate(0,0) scale(1,-1)" x="0" y="0">Gene_00796</text>
			</g>
			<g transform=" matrix(0.707107,0.707107,-0.707107,0.707107,551.34168,538.835771)">
				<text style="font-family: Helvetica; font-size: 10px;fill: rgb(0%,0%,0%); stroke:none;" transform="translate(0,0) scale(1,-1)" x="0" y="0">Gene_00797</text>
			</g>
			<g transform=" matrix(0.707107,0.707107,-0.707107,0.707107,607.54942,538.835771)">
				<text style="font-family: Helvetica; font-size: 10px;fill: rgb(0%,0%,0%); stroke:none;" transform="translate(0,0) scale(1,-1)" x="0" y="0">Gene_00798</text>
			</g>
			<g transform=" matrix(0.707107,0.707107,-0.707107,0.707107,674.286435,538.835771)">
				<text style="font-family: Helvetica; font-size: 10px;fill: rgb(0%,0%,0%); stroke:none;" transform="translate(0,0) scale(1,-1)" x="0" y="0">Gene_00799</text>
			</g>
			<g transform=" matrix(0.707107,0.707107,-0.707107,0.707107,721.410097,538.835771)">
				<text style="font-family: Helvetica; font-size: 10px;fill: rgb(0%,0%,0%); stroke:none;" transform="translate(0,0) scale(1,-1)" x="0" y="0">Gene_00800</text>
			</g>
			<g transform=" matrix(0.707107,0.707107,-0.707107,0.707107,790.727816,538.835771)">
				<text style="font-family: Helvetica; font-size: 10px;fill: rgb(0%,0%,0%); stroke:none;" transform="translate(0,0) scale(1,-1)" x="0" y="0">Gene_00801</text>
			</g>
			<g transform=" matrix(0.707107,0.707107,-0.707107,0.707107,850.651771,538.835771)">
				<text style="font-family: Helvetica; font-size: 10px;fill: rgb(0%,0%,0%); stroke:none;" transform="translate(0,0) scale(1,-1)" x="0" y="0">Gene_00802</text>
			</g>
			<g transform=" matrix(0.707107,0.707107,-0.707107,0.707107,884.149314,538.835771)">
				<text style="font-family: Helvetica; font-size: 10px;fill: rgb(0%,0%,0%); stroke:none;" transform="translate(0,0) scale(1,-1)" x="0" y="0">Gene_00803</text>
			</g>
			<g transform=" matrix(0.707107,0.707107,-0.707107,0.707107,941.699021,538.835771)">
				<text style="font-family: Helvetica; font-size: 10px;fill: rgb(0%,0%,0%); stroke:none;" transform="translate(0,0) scale(1,-1)" x="0" y="0">Gene_00804</text>
			</g>
			<g transform=" matrix(0.707107,0.707107,-0.707107,0.707107,1001.67459,538.835771)">
				<text style="font-family: Helvetica; font-size: 10px;fill: rgb(0%,0%,0%); stroke:none;" transform="translate(0,0) scale(1,-1)" x="0" y="0">Gene_00805</text>
			</g>
			<g transform=" matrix(0.707107,0.707107,-0.707107,0.707107,1033.933395,538.835771)">
				<text style="font-family: Helvetica; font-size: 10px;fill: rgb(0%,0%,0%); stroke:none;" transform="translate(0,0) scale(1,-1)" x="0" y="0">Gene_00806</text>
			</g>
			<g transform=" matrix(0.707107,0.707107,-0.707107,0.707107,1059.895281,538.835771)">
				<text style="font-family: Helvetica; font-size: 10px;fill: rgb(0%,0%,0%); stroke:none;" transform="translate(0,0) scale(1,-1)" x="0" y="0">Gene_00807</text>
			</g>
			<g transform=" matrix(0.707107,0.707107,-0.707107,0.707107,1098.915531,538.835771)">
				<text style="font-family: Helvetica; font-size: 10px;fill: rgb(0%,0%,0%); stroke:none;" transform="translate(0,0) scale(1,-1)" x="0" y="0">Gene_00808</text>
			</g>
			<g transform=" matrix(0.707107,0.707107,-0.707107,0.707107,1136.180902,538.835771)">
				<text style="font-family: Helvetica; font-size: 16px;fill: rgb(0%,0%,100%); stroke:none;" transform="translate(0,0) scale(1,-1)" x="0" y="0">Gene_00809 (93.8)</text>
			</g>
			<g transform=" matrix(0.707107,0.707107,-0.707107,0.707107,1181.962597,538.835771)">
				<text style="font-family: Helvetica; font-size: 10px;fill: rgb(0%,0%,0%); stroke:none;" transform="translate(0,0) scale(1,-1)" x="0" y="0">Gene_00810</text>
			</g>
			<g transform=" matrix(0.707107,0.707107,-0.707107,0.707107,1220.673162,538.835771)">
				<text style="font-family: Helvetica; font-size: 10px;fill: rgb(0%,0%,0%); stroke:none;" transform="translate(0,0) scale(1,-1)" x="0" y="0">Gene_00811</text>
			</g>
			<g transform=" matrix(0.707107,0.707107,-0.707107,0.707107,1252.983581,538.835771)">
				<text style="font-family: Helvetica; font-size: 10px;fill: rgb(0%,0%,0%); stroke:none;" transform="translate(0,0) scale(1,-1)" x="0" y="0">Gene_00812</text>
			</g>
			<g transform=" matrix(0.707107,0.707107,-0.707107,0.707107,1303.565386,538.835771)">
				<text style="font-family: Helvetica; font-size: 10px;fill: rgb(0%,0%,0%); stroke:none;" transform="translate(0,0) scale(1,-1)" x="0" y="0">Gene_00813</text>
			</g>
			<g transform=" matrix(1,0,-0,1,70,169.825647)">
				<text style="font-family: Helvetica; font-size: 12px;fill: rgb(60%,60%,60%); stroke:none;" transform="translate(0,0) scale(1,-1)" x="0" y="0">megahit_56187 (left 1696bp, right 9906bp)</text>
			</g>
			<g transform=" matrix(1,0,-0,1,70,456.833521)">
				<text style="font-family: Helvetica; font-size: 12px;fill: rgb(60%,60%,60%); stroke:none;" transform="translate(0,0) scale(1,-1)" x="0" y="0">megahit_2916 (left 37853bp, right 1876bp)</text>
			</g>
		</g>
	</g>
</svg>
