<?xml version="1.0" encoding="utf-8"?>
<!DOCTYPE svg
  PUBLIC '-//W3C//DTD SVG 1.0//EN'
  'http://www.w3.org/TR/2001/REC-SVG-20010904/DTD/svg10.dtd'>
<svg fill-rule="evenodd" height="708.6614173228346" preserveAspectRatio="xMinYMin meet" version="1.0" viewBox="0 0 1417 708" width="1417.3228346456692" xmlns="http://www.w3.org/2000/svg" xmlns:xlink="http://www.w3.org/1999/xlink">
	<title>...</title>
	<desc>...</desc>
	<clipPath id="clip">
		<rect height="708.6614173228346" width="1417.3228346456692" x="0" y="0"/>
	</clipPath>
	<g id="group" style="clip-path: url(#clip)" transform="scale(1,-1) translate(0,-708)">
		<g transform="">
			<polygon points="70.86614 169.8256, 1346.305 169.8256, 1346.305 251.8279, 70.86614 251.8279" style="stroke: rgb(96%,96%,96%); stroke-linecap: butt; stroke-width: 1; fill: rgb(96%,96%,96%); fill-rule: evenodd;"/>
			<polygon points="70.86614 456.8335, 251.8118 456.8335, 251.8118 538.8358, 70.86614 538.8358" style="stroke: rgb(96%,96%,96%); stroke-linecap: butt; stroke-width: 1; fill: rgb(96%,96%,96%); fill-rule: evenodd;"/>
			<polygon points="166.8129 456.8335, 228.6994 456.8335, 434.43 251.8279, 372.2394 251.8279" style="stroke: rgb(100%,29%,29%); stroke-linecap: round; stroke-width: 1; fill: rgb(100%,29%,29%); fill-rule: evenodd;"/>
			<polygon points="85.61549 241.5776, 163.9454 241.5776, 163.9454 251.8279, 180.3458 231.3273, 163.9454 210.8268, 163.9454 221.0771, 85.61549 221.0771" style="stroke: rgb(67%,84%,90%); stroke-linecap: round; stroke-width: 1; fill: rgb(67%,84%,90%); fill-rule: evenodd;"/>
			<polygon points="179.8897 241.5776, 338.5047 241.5776, 338.5047 251.8279, 354.9051 231.3273, 338.5047 210.8268, 338.5047 221.0771, 179.8897 221.0771" style="stroke: rgb(67%,84%,90%); stroke-linecap: round; stroke-width: 1; fill: rgb(67%,84%,90%); fill-rule: evenodd;"/>
			<polygon points="429.4122 200.5765, 388.944 200.5765, 388.944 210.8268, 372.5435 190.3262, 388.944 169.8256, 388.944 180.0759, 429.4122 180.0759" style="stroke: rgb(56%,93%,56%); stroke-linecap: round; stroke-width: 1; fill: rgb(56%,93%,56%); fill-rule: evenodd;"/>
			<polygon points="520.1891 200.5765, 461.9305 200.5765, 461.9305 210.8268, 445.53 190.3262, 461.9305 169.8256, 461.9305 180.0759, 520.1891 180.0759" style="stroke: rgb(56%,93%,56%); stroke-linecap: round; stroke-width: 1; fill: rgb(56%,93%,56%); fill-rule: evenodd;"/>
			<polygon points="677.7182 200.5765, 588.4403 200.5765, 588.4403 210.8268, 572.0399 190.3262, 588.4403 169.8256, 588.4403 180.0759, 677.7182 180.0759" style="stroke: rgb(56%,93%,56%); stroke-linecap: round; stroke-width: 1; fill: rgb(56%,93%,56%); fill-rule: evenodd;"/>
			<polygon points="758.0033 200.5765, 709.7803 200.5765, 709.7803 210.8268, 693.3799 190.3262, 709.7803 169.8256, 709.7803 180.0759, 758.0033 180.0759" style="stroke: rgb(56%,93%,56%); stroke-linecap: round; stroke-width: 1; fill: rgb(56%,93%,56%); fill-rule: evenodd;"/>
			<polygon points="852.2775 200.5765, 789.0011 200.5765, 789.0011 210.8268, 772.6006 190.3262, 789.0011 169.8256, 789.0011 180.0759, 852.2775 180.0759" style="stroke: rgb(56%,93%,56%); stroke-linecap: round; stroke-width: 1; fill: rgb(56%,93%,56%); fill-rule: evenodd;"/>
			<polygon points="891.2036 200.5765, 871.719 200.5765, 871.719 210.8268, 855.3186 190.3262, 871.719 169.8256, 871.719 180.0759, 891.2036 180.0759" style="stroke: rgb(56%,93%,56%); stroke-linecap: round; stroke-width: 1; fill: rgb(56%,93%,56%); fill-rule: evenodd;"/>
			<polygon points="920.2461 200.5765, 913.9904 200.5765, 913.9904 210.8268, 897.5899 190.3262, 913.9904 169.8256, 913.9904 180.0759, 920.2461 180.0759" style="stroke: rgb(56%,93%,56%); stroke-linecap: round; stroke-width: 1; fill: rgb(56%,93%,56%); fill-rule: evenodd;"/>
			<polygon points="1008.742 200.5765, 969.1864 200.5765, 969.1864 210.8268, 952.7859 190.3262, 969.1864 169.8256, 969.1864 180.0759, 1008.742 180.0759" style="stroke: rgb(56%,93%,56%); stroke-linecap: round; stroke-width: 1; fill: rgb(56%,93%,56%); fill-rule: evenodd;"/>
			<polygon points="1136.469 200.5765, 1068.63 200.5765, 1068.63 210.8268, 1052.23 190.3262, 1068.63 169.8256, 1068.63 180.0759, 1136.469 180.0759" style="stroke: rgb(56%,93%,56%); stroke-linecap: round; stroke-width: 1; fill: rgb(56%,93%,56%); fill-rule: evenodd;"/>
			<polygon points="1295.062 200.5765, 1172.028 200.5765, 1172.028 210.8268, 1155.627 190.3262, 1172.028 169.8256, 1172.028 180.0759, 1295.062 180.0759" style="stroke: rgb(56%,93%,56%); stroke-linecap: round; stroke-width: 1; fill: rgb(56%,93%,56%); fill-rule: evenodd;"/>
			<polygon points="1336.725 200.5765, 1328.645 200.5765, 1328.645 210.8268, 1312.244 190.3262, 1328.645 169.8256, 1328.645 180.0759, 1336.725 180.0759" style="stroke: rgb(56%,93%,56%); stroke-linecap: round; stroke-width: 1; fill: rgb(56%,93%,56%); fill-rule: evenodd;"/>
			<polygon points="74.0593 528.5855, 126.8439 528.5855, 126.8439 538.8358, 143.2444 518.3352, 126.8439 497.8346, 126.8439 508.0849, 74.0593 508.0849" style="stroke: rgb(67%,84%,90%); stroke-linecap: round; stroke-width: 1; fill: rgb(67%,84%,90%); fill-rule: evenodd;"/>
			<polygon points="223.9857 487.5844, 183.5175 487.5844, 183.5175 497.8346, 167.117 477.3341, 183.5175 456.8335, 183.5175 467.0838, 223.9857 467.0838" style="stroke: rgb(56%,93%,56%); stroke-linecap: round; stroke-width: 1; fill: rgb(56%,93%,56%); fill-rule: evenodd;"/>
			<path d="M 1346.304638,169.825647 L 1346.304638,251.827897 Z" style="stroke: rgb(0%,0%,0%); stroke-linecap: butt; stroke-width: 1;"/>
			<path d="M 70.866142,210.826772 L 1346.304638,210.826772 Z" style="stroke: rgb(0%,0%,0%); stroke-linecap: butt; stroke-width: 1;"/>
			<path d="M 70.866142,169.825647 L 70.866142,251.827897 Z" style="stroke: rgb(0%,0%,0%); stroke-linecap: butt; stroke-width: 1;"/>
			<path d="M 251.811756,456.833521 L 251.811756,538.835771 Z" style="stroke: rgb(0%,0%,0%); stroke-linecap: butt; stroke-width: 1;"/>
			<path d="M 70.866142,497.834646 L 251.811756,497.834646 Z" style="stroke: rgb(0%,0%,0%); stroke-linecap: butt; stroke-width: 1;"/>
			<path d="M 70.866142,456.833521 L 70.866142,538.835771 Z" style="stroke: rgb(0%,0%,0%); stroke-linecap: butt; stroke-width: 1;"/>
			<g transform=" matrix(0.707107,0.707107,-0.707107,0.707107,132.980666,251.827897)">
				<text style="font-family: Helvetica; font-size: 10px;fill: rgb(0%,0%,0%); stroke:none;" transform="translate(0,0) scale(1,-1)" x="0" y="0">Gene_00360</text>
			</g>
			<g transform=" matrix(0.707107,0.707107,-0.707107,0.707107,267.397407,251.827897)">
				<text style="font-family: Helvetica; font-size: 10px;fill: rgb(0%,0%,0%); stroke:none;" transform="translate(0,0) scale(1,-1)" x="0" y="0">Gene_00361</text>
			</g>
			<g transform=" matrix(0.707107,-0.707107,0.707107,0.707107,400.977846,169.825647)">
				<text style="font-family: Helvetica; font-size: 16px;fill: rgb(0%,0%,100%); stroke:none;" transform="translate(0,0) scale(1,-1)" x="0" y="0">Gene_00362 (85.7)</text>
			</g>
			<g transform=" matrix(0.707107,-0.707107,0.707107,0.707107,482.859538,169.825647)">
				<text style="font-family: Helvetica; font-size: 10px;fill: rgb(0%,0%,0%); stroke:none;" transform="translate(0,0) scale(1,-1)" x="0" y="0">Gene_00363</text>
			</g>
			<g transform=" matrix(0.707107,-0.707107,0.707107,0.707107,624.879036,169.825647)">
				<text style="font-family: Helvetica; font-size: 10px;fill: rgb(0%,0%,0%); stroke:none;" transform="translate(0,0) scale(1,-1)" x="0" y="0">Gene_00364</text>
			</g>
			<g transform=" matrix(0.707107,-0.707107,0.707107,0.707107,725.691593,169.825647)">
				<text style="font-family: Helvetica; font-size: 10px;fill: rgb(0%,0%,0%); stroke:none;" transform="translate(0,0) scale(1,-1)" x="0" y="0">Gene_00365</text>
			</g>
			<g transform=" matrix(0.707107,-0.707107,0.707107,0.707107,812.439049,169.825647)">
				<text style="font-family: Helvetica; font-size: 10px;fill: rgb(0%,0%,0%); stroke:none;" transform="translate(0,0) scale(1,-1)" x="0" y="0">Gene_00366</text>
			</g>
			<g transform=" matrix(0.707107,-0.707107,0.707107,0.707107,873.261104,169.825647)">
				<text style="font-family: Helvetica; font-size: 10px;fill: rgb(0%,0%,0%); stroke:none;" transform="translate(0,0) scale(1,-1)" x="0" y="0">Gene_00367</text>
			</g>
			<g transform=" matrix(0.707107,-0.707107,0.707107,0.707107,908.918034,169.825647)">
				<text style="font-family: Helvetica; font-size: 10px;fill: rgb(0%,0%,0%); stroke:none;" transform="translate(0,0) scale(1,-1)" x="0" y="0">Gene_00368</text>
			</g>
			<g transform=" matrix(0.707107,-0.707107,0.707107,0.707107,980.764086,169.825647)">
				<text style="font-family: Helvetica; font-size: 10px;fill: rgb(0%,0%,0%); stroke:none;" transform="translate(0,0) scale(1,-1)" x="0" y="0">Gene_00369</text>
			</g>
			<g transform=" matrix(0.707107,-0.707107,0.707107,0.707107,1094.349274,169.825647)">
				<text style="font-family: Helvetica; font-size: 10px;fill: rgb(0%,0%,0%); stroke:none;" transform="translate(0,0) scale(1,-1)" x="0" y="0">Gene_00370</text>
			</g>
			<g transform=" matrix(0.707107,-0.707107,0.707107,0.707107,1225.344776,169.825647)">
				<text style="font-family: Helvetica; font-size: 10px;fill: rgb(0%,0%,0%); stroke:none;" transform="translate(0,0) scale(1,-1)" x="0" y="0">Gene_00371</text>
			</g>
			<g transform=" matrix(0.707107,-0.707107,0.707107,0.707107,1324.484725,169.825647)">
				<text style="font-family: Helvetica; font-size: 10px;fill: rgb(0%,0%,0%); stroke:none;" transform="translate(0,0) scale(1,-1)" x="0" y="0">Gene_00372</text>
			</g>
			<g transform=" matrix(0.707107,0.707107,-0.707107,0.707107,108.651843,538.835771)">
				<text style="font-family: Helvetica; font-size: 10px;fill: rgb(0%,0%,0%); stroke:none;" transform="translate(0,0) scale(1,-1)" x="0" y="0">Gene_02033</text>
			</g>
			<g transform=" matrix(0.707107,-0.707107,0.707107,0.707107,195.551355,456.833521)">
				<text style="font-family: Helvetica; font-size: 16px;fill: rgb(0%,0%,100%); stroke:none;" transform="translate(0,0) scale(1,-1)" x="0" y="0">Gene_02034 (85.7)</text>
			</g>
			<g transform=" matrix(1,0,-0,1,70,169.825647)">
				<text style="font-family: Helvetica; font-size: 12px;fill: rgb(60%,60%,60%); stroke:none;" transform="translate(0,0) scale(1,-1)" x="0" y="0">megahit_15857 (left 1984bp, right 6030bp)</text>
			</g>
		</g>
	</g>
</svg>
