<?xml version="1.0" encoding="utf-8"?>
<!DOCTYPE svg
  PUBLIC '-//W3C//DTD SVG 1.0//EN'
  'http://www.w3.org/TR/2001/REC-SVG-20010904/DTD/svg10.dtd'>
<svg fill-rule="evenodd" height="708.6614173228346" preserveAspectRatio="xMinYMin meet" version="1.0" viewBox="0 0 1417 708" width="1417.3228346456692" xmlns="http://www.w3.org/2000/svg" xmlns:xlink="http://www.w3.org/1999/xlink">
	<title>...</title>
	<desc>...</desc>
	<clipPath id="clip">
		<rect height="708.6614173228346" width="1417.3228346456692" x="0" y="0"/>
	</clipPath>
	<g id="group" style="clip-path: url(#clip)" transform="scale(1,-1) translate(0,-708)">
		<g transform="">
			<polygon points="70.86614 169.8256, 1346.404 169.8256, 1346.404 251.8279, 70.86614 251.8279" style="stroke: rgb(96%,96%,96%); stroke-linecap: butt; stroke-width: 1; fill: rgb(96%,96%,96%); fill-rule: evenodd;"/>
			<polygon points="70.86614 456.8335, 1020.812 456.8335, 1020.812 538.8358, 70.86614 538.8358" style="stroke: rgb(96%,96%,96%); stroke-linecap: butt; stroke-width: 1; fill: rgb(96%,96%,96%); fill-rule: evenodd;"/>
			<polygon points="533.7804 456.8335, 643.7451 456.8335, 618.5116 251.8279, 731.345 251.8279" style="stroke: rgb(100%,57%,57%); stroke-linecap: round; stroke-width: 1; fill: rgb(100%,57%,57%); fill-rule: evenodd;"/>
			<polygon points="649.8011 456.8335, 703.1897 456.8335, 554.9233 251.8279, 608.2589 251.8279" style="stroke: rgb(100%,46%,46%); stroke-linecap: round; stroke-width: 1; fill: rgb(100%,46%,46%); fill-rule: evenodd;"/>
			<polygon points="70.86614 241.5776, 141.9062 241.5776, 141.9062 251.8279, 158.3067 231.3273, 141.9062 210.8268, 141.9062 221.0771, 70.86614 221.0771" style="stroke: rgb(67%,84%,90%); stroke-linecap: round; stroke-width: 1; fill: rgb(67%,84%,90%); fill-rule: evenodd;"/>
			<polygon points="165.1595 241.5776, 170.6989 241.5776, 170.6989 251.8279, 187.0994 231.3273, 170.6989 210.8268, 170.6989 221.0771, 165.1595 221.0771" style="stroke: rgb(67%,84%,90%); stroke-linecap: round; stroke-width: 1; fill: rgb(67%,84%,90%); fill-rule: evenodd;"/>
			<polygon points="196.3428 241.5776, 204.9102 241.5776, 204.9102 251.8279, 221.3106 231.3273, 204.9102 210.8268, 204.9102 221.0771, 196.3428 221.0771" style="stroke: rgb(67%,84%,90%); stroke-linecap: round; stroke-width: 1; fill: rgb(67%,84%,90%); fill-rule: evenodd;"/>
			<polygon points="237.5663 241.5776, 331.8742 241.5776, 331.8742 251.8279, 348.2747 231.3273, 331.8742 210.8268, 331.8742 221.0771, 237.5663 221.0771" style="stroke: rgb(67%,84%,90%); stroke-linecap: round; stroke-width: 1; fill: rgb(67%,84%,90%); fill-rule: evenodd;"/>
			<polygon points="364.371 241.5776, 411.8244 241.5776, 411.8244 251.8279, 428.2249 231.3273, 411.8244 210.8268, 411.8244 221.0771, 364.371 221.0771" style="stroke: rgb(67%,84%,90%); stroke-linecap: round; stroke-width: 1; fill: rgb(67%,84%,90%); fill-rule: evenodd;"/>
			<polygon points="447.1898 241.5776, 523.3297 241.5776, 523.3297 251.8279, 539.7301 231.3273, 523.3297 210.8268, 523.3297 221.0771, 447.1898 221.0771" style="stroke: rgb(67%,84%,90%); stroke-linecap: round; stroke-width: 1; fill: rgb(67%,84%,90%); fill-rule: evenodd;"/>
			<polygon points="554.8171 241.5776, 592.7084 241.5776, 592.7084 251.8279, 609.1088 231.3273, 592.7084 210.8268, 592.7084 221.0771, 554.8171 221.0771" style="stroke: rgb(67%,84%,90%); stroke-linecap: round; stroke-width: 1; fill: rgb(67%,84%,90%); fill-rule: evenodd;"/>
			<polygon points="619.6272 241.5776, 619.6272 251.8279, 632.483 231.3273, 619.6272 210.8268, 619.6272 221.0771" style="stroke: rgb(67%,84%,90%); stroke-linecap: round; stroke-width: 1; fill: rgb(67%,84%,90%); fill-rule: evenodd;"/>
			<polygon points="640.1858 241.5776, 659.4309 241.5776, 659.4309 251.8279, 675.8314 231.3273, 659.4309 210.8268, 659.4309 221.0771, 640.1858 221.0771" style="stroke: rgb(67%,84%,90%); stroke-linecap: round; stroke-width: 1; fill: rgb(67%,84%,90%); fill-rule: evenodd;"/>
			<polygon points="677.8501 241.5776, 717.6538 241.5776, 717.6538 251.8279, 734.0542 231.3273, 717.6538 210.8268, 717.6538 221.0771, 677.8501 221.0771" style="stroke: rgb(67%,84%,90%); stroke-linecap: round; stroke-width: 1; fill: rgb(67%,84%,90%); fill-rule: evenodd;"/>
			<polygon points="744.9445 241.5776, 776.461 241.5776, 776.461 251.8279, 792.8614 231.3273, 776.461 210.8268, 776.461 221.0771, 744.9445 221.0771" style="stroke: rgb(67%,84%,90%); stroke-linecap: round; stroke-width: 1; fill: rgb(67%,84%,90%); fill-rule: evenodd;"/>
			<polygon points="792.0115 241.5776, 847.9115 241.5776, 847.9115 251.8279, 864.3119 231.3273, 847.9115 210.8268, 847.9115 221.0771, 792.0115 221.0771" style="stroke: rgb(67%,84%,90%); stroke-linecap: round; stroke-width: 1; fill: rgb(67%,84%,90%); fill-rule: evenodd;"/>
			<polygon points="869.0399 241.5776, 897.6878 241.5776, 897.6878 251.8279, 914.0882 231.3273, 897.6878 210.8268, 897.6878 221.0771, 869.0399 221.0771" style="stroke: rgb(67%,84%,90%); stroke-linecap: round; stroke-width: 1; fill: rgb(67%,84%,90%); fill-rule: evenodd;"/>
			<polygon points="941.181 241.5776, 1330.003 241.5776, 1330.003 251.8279, 1346.404 231.3273, 1330.003 210.8268, 1330.003 221.0771, 941.181 221.0771" style="stroke: rgb(67%,84%,90%); stroke-linecap: round; stroke-width: 1; fill: rgb(67%,84%,90%); fill-rule: evenodd;"/>
			<polygon points="101.5713 487.5844, 87.26659 487.5844, 87.26659 497.8346, 70.86614 477.3341, 87.26659 456.8335, 87.26659 467.0838, 101.5713 467.0838" style="stroke: rgb(56%,93%,56%); stroke-linecap: round; stroke-width: 1; fill: rgb(56%,93%,56%); fill-rule: evenodd;"/>
			<polygon points="151.5069 487.5844, 119.6716 487.5844, 119.6716 497.8346, 103.2712 477.3341, 119.6716 456.8335, 119.6716 467.0838, 151.5069 467.0838" style="stroke: rgb(56%,93%,56%); stroke-linecap: round; stroke-width: 1; fill: rgb(56%,93%,56%); fill-rule: evenodd;"/>
			<polygon points="194.3241 487.5844, 167.748 487.5844, 167.748 497.8346, 151.3476 477.3341, 167.748 456.8335, 167.748 467.0838, 194.3241 467.0838" style="stroke: rgb(56%,93%,56%); stroke-linecap: round; stroke-width: 1; fill: rgb(56%,93%,56%); fill-rule: evenodd;"/>
			<polygon points="236.3975 487.5844, 211.7339 487.5844, 211.7339 497.8346, 195.3334 477.3341, 211.7339 456.8335, 211.7339 467.0838, 236.3975 467.0838" style="stroke: rgb(56%,93%,56%); stroke-linecap: round; stroke-width: 1; fill: rgb(56%,93%,56%); fill-rule: evenodd;"/>
			<polygon points="253.9813 487.5844, 253.3824 487.5844, 253.3824 497.8346, 236.9819 477.3341, 253.3824 456.8335, 253.3824 467.0838, 253.9813 467.0838" style="stroke: rgb(56%,93%,56%); stroke-linecap: round; stroke-width: 1; fill: rgb(56%,93%,56%); fill-rule: evenodd;"/>
			<polygon points="293.5579 487.5844, 269.0537 487.5844, 269.0537 497.8346, 252.6532 477.3341, 269.0537 456.8335, 269.0537 467.0838, 293.5579 467.0838" style="stroke: rgb(56%,93%,56%); stroke-linecap: round; stroke-width: 1; fill: rgb(56%,93%,56%); fill-rule: evenodd;"/>
			<polygon points="329.1504 487.5844, 307.6741 487.5844, 307.6741 497.8346, 291.2737 477.3341, 307.6741 456.8335, 307.6741 467.0838, 329.1504 467.0838" style="stroke: rgb(56%,93%,56%); stroke-linecap: round; stroke-width: 1; fill: rgb(56%,93%,56%); fill-rule: evenodd;"/>
			<polygon points="479.4886 487.5844, 342.9478 487.5844, 342.9478 497.8346, 326.5474 477.3341, 342.9478 456.8335, 342.9478 467.0838, 479.4886 467.0838" style="stroke: rgb(56%,93%,56%); stroke-linecap: round; stroke-width: 1; fill: rgb(56%,93%,56%); fill-rule: evenodd;"/>
			<polygon points="494.0443 487.5844, 494.0443 497.8346, 483.101 477.3341, 494.0443 456.8335, 494.0443 467.0838" style="stroke: rgb(56%,93%,56%); stroke-linecap: round; stroke-width: 1; fill: rgb(56%,93%,56%); fill-rule: evenodd;"/>
			<polygon points="529.1586 487.5844, 507.523 487.5844, 507.523 497.8346, 491.1225 477.3341, 507.523 456.8335, 507.523 467.0838, 529.1586 467.0838" style="stroke: rgb(56%,93%,56%); stroke-linecap: round; stroke-width: 1; fill: rgb(56%,93%,56%); fill-rule: evenodd;"/>
			<polygon points="587.594 487.5844, 548.7465 487.5844, 548.7465 497.8346, 532.346 477.3341, 548.7465 456.8335, 548.7465 467.0838, 587.594 467.0838" style="stroke: rgb(56%,93%,56%); stroke-linecap: round; stroke-width: 1; fill: rgb(56%,93%,56%); fill-rule: evenodd;"/>
			<polygon points="624.9926 487.5844, 605.11 487.5844, 605.11 497.8346, 588.7096 477.3341, 605.11 456.8335, 605.11 467.0838, 624.9926 467.0838" style="stroke: rgb(56%,93%,56%); stroke-linecap: round; stroke-width: 1; fill: rgb(56%,93%,56%); fill-rule: evenodd;"/>
			<polygon points="643.7451 487.5844, 643.7451 497.8346, 629.7737 477.3341, 643.7451 456.8335, 643.7451 467.0838" style="stroke: rgb(56%,93%,56%); stroke-linecap: round; stroke-width: 1; fill: rgb(56%,93%,56%); fill-rule: evenodd;"/>
			<polygon points="703.4022 487.5844, 663.5985 487.5844, 663.5985 497.8346, 647.1981 477.3341, 663.5985 456.8335, 663.5985 467.0838, 703.4022 467.0838" style="stroke: rgb(56%,93%,56%); stroke-linecap: round; stroke-width: 1; fill: rgb(56%,93%,56%); fill-rule: evenodd;"/>
			<polygon points="734.9042 487.5844, 731.7554 487.5844, 731.7554 497.8346, 715.3549 477.3341, 731.7554 456.8335, 731.7554 467.0838, 734.9042 467.0838" style="stroke: rgb(56%,93%,56%); stroke-linecap: round; stroke-width: 1; fill: rgb(56%,93%,56%); fill-rule: evenodd;"/>
			<polygon points="765.8749 487.5844, 755.2358 487.5844, 755.2358 497.8346, 738.8353 477.3341, 755.2358 456.8335, 755.2358 467.0838, 765.8749 467.0838" style="stroke: rgb(56%,93%,56%); stroke-linecap: round; stroke-width: 1; fill: rgb(56%,93%,56%); fill-rule: evenodd;"/>
			<polygon points="809.5421 487.5844, 789.6595 487.5844, 789.6595 497.8346, 773.259 477.3341, 789.6595 456.8335, 789.6595 467.0838, 809.5421 467.0838" style="stroke: rgb(56%,93%,56%); stroke-linecap: round; stroke-width: 1; fill: rgb(56%,93%,56%); fill-rule: evenodd;"/>
			<polygon points="835.413 487.5844, 828.5987 487.5844, 828.5987 497.8346, 812.1982 477.3341, 828.5987 456.8335, 828.5987 467.0838, 835.413 467.0838" style="stroke: rgb(56%,93%,56%); stroke-linecap: round; stroke-width: 1; fill: rgb(56%,93%,56%); fill-rule: evenodd;"/>
			<polygon points="866.7556 487.5844, 855.1602 487.5844, 855.1602 497.8346, 838.7598 477.3341, 855.1602 456.8335, 855.1602 467.0838, 866.7556 467.0838" style="stroke: rgb(56%,93%,56%); stroke-linecap: round; stroke-width: 1; fill: rgb(56%,93%,56%); fill-rule: evenodd;"/>
			<polygon points="887.3673 487.5844, 884.0591 487.5844, 884.0591 497.8346, 867.6587 477.3341, 884.0591 456.8335, 884.0591 467.0838, 887.3673 467.0838" style="stroke: rgb(56%,93%,56%); stroke-linecap: round; stroke-width: 1; fill: rgb(56%,93%,56%); fill-rule: evenodd;"/>
			<polygon points="936.2937 487.5844, 919.4391 487.5844, 919.4391 497.8346, 903.0386 477.3341, 919.4391 456.8335, 919.4391 467.0838, 936.2937 467.0838" style="stroke: rgb(56%,93%,56%); stroke-linecap: round; stroke-width: 1; fill: rgb(56%,93%,56%); fill-rule: evenodd;"/>
			<polygon points="984.4763 487.5844, 951.8441 487.5844, 951.8441 497.8346, 935.4437 477.3341, 951.8441 456.8335, 951.8441 467.0838, 984.4763 467.0838" style="stroke: rgb(56%,93%,56%); stroke-linecap: round; stroke-width: 1; fill: rgb(56%,93%,56%); fill-rule: evenodd;"/>
			<path d="M 1346.40357,169.825647 L 1346.40357,251.827897 Z" style="stroke: rgb(0%,0%,0%); stroke-linecap: butt; stroke-width: 1;"/>
			<path d="M 70.866142,210.826772 L 1346.40357,210.826772 Z" style="stroke: rgb(0%,0%,0%); stroke-linecap: butt; stroke-width: 1;"/>
			<path d="M 70.866142,169.825647 L 70.866142,251.827897 Z" style="stroke: rgb(0%,0%,0%); stroke-linecap: butt; stroke-width: 1;"/>
			<path d="M 602.09659,210.826772 L 602.09659,231.327334 Z" style="stroke: rgb(0%,0%,0%); stroke-linecap: butt; stroke-width: 1;"/>
			<path d="M 1133.327037,210.826772 L 1133.327037,231.327334 Z" style="stroke: rgb(0%,0%,0%); stroke-linecap: butt; stroke-width: 1;"/>
			<path d="M 602.09659,210.826772 L 602.09659,223.127109 Z" style="stroke: rgb(0%,0%,0%); stroke-linecap: butt; stroke-width: 1;"/>
			<path d="M 1133.327037,210.826772 L 1133.327037,223.127109 Z" style="stroke: rgb(0%,0%,0%); stroke-linecap: butt; stroke-width: 1;"/>
			<path d="M 1020.812428,456.833521 L 1020.812428,538.835771 Z" style="stroke: rgb(0%,0%,0%); stroke-linecap: butt; stroke-width: 1;"/>
			<path d="M 70.866142,497.834646 L 1020.812428,497.834646 Z" style="stroke: rgb(0%,0%,0%); stroke-linecap: butt; stroke-width: 1;"/>
			<path d="M 70.866142,456.833521 L 70.866142,538.835771 Z" style="stroke: rgb(0%,0%,0%); stroke-linecap: butt; stroke-width: 1;"/>
			<path d="M 602.09659,497.834646 L 602.09659,518.335208 Z" style="stroke: rgb(0%,0%,0%); stroke-linecap: butt; stroke-width: 1;"/>
			<path d="M 602.09659,497.834646 L 602.09659,510.134983 Z" style="stroke: rgb(0%,0%,0%); stroke-linecap: butt; stroke-width: 1;"/>
			<g transform=" matrix(0.707107,0.707107,-0.707107,0.707107,602.09659,231.327334)">
				<text style="font-family: Helvetica; font-size: 6px;fill: rgb(0%,0%,0%); stroke:none;" transform="translate(0,0) scale(1,-1)" x="0" y="0">10000</text>
			</g>
			<g transform=" matrix(0.707107,0.707107,-0.707107,0.707107,1133.327037,231.327334)">
				<text style="font-family: Helvetica; font-size: 6px;fill: rgb(0%,0%,0%); stroke:none;" transform="translate(0,0) scale(1,-1)" x="0" y="0">20000</text>
			</g>
			<g transform=" matrix(0.707107,0.707107,-0.707107,0.707107,602.09659,518.335208)">
				<text style="font-family: Helvetica; font-size: 6px;fill: rgb(0%,0%,0%); stroke:none;" transform="translate(0,0) scale(1,-1)" x="0" y="0">10000</text>
			</g>
			<g transform=" matrix(0.707107,0.707107,-0.707107,0.707107,114.586408,251.827897)">
				<text style="font-family: Helvetica; font-size: 10px;fill: rgb(0%,0%,0%); stroke:none;" transform="translate(0,0) scale(1,-1)" x="0" y="0">Gene_00435</text>
			</g>
			<g transform=" matrix(0.707107,0.707107,-0.707107,0.707107,176.129455,251.827897)">
				<text style="font-family: Helvetica; font-size: 10px;fill: rgb(0%,0%,0%); stroke:none;" transform="translate(0,0) scale(1,-1)" x="0" y="0">Gene_00436</text>
			</g>
			<g transform=" matrix(0.707107,0.707107,-0.707107,0.707107,208.826689,251.827897)">
				<text style="font-family: Helvetica; font-size: 10px;fill: rgb(0%,0%,0%); stroke:none;" transform="translate(0,0) scale(1,-1)" x="0" y="0">Gene_00437</text>
			</g>
			<g transform=" matrix(0.707107,0.707107,-0.707107,0.707107,292.920469,251.827897)">
				<text style="font-family: Helvetica; font-size: 10px;fill: rgb(0%,0%,0%); stroke:none;" transform="translate(0,0) scale(1,-1)" x="0" y="0">Gene_00438</text>
			</g>
			<g transform=" matrix(0.707107,0.707107,-0.707107,0.707107,396.297914,251.827897)">
				<text style="font-family: Helvetica; font-size: 10px;fill: rgb(0%,0%,0%); stroke:none;" transform="translate(0,0) scale(1,-1)" x="0" y="0">Gene_00439</text>
			</g>
			<g transform=" matrix(0.707107,0.707107,-0.707107,0.707107,493.459963,251.827897)">
				<text style="font-family: Helvetica; font-size: 10px;fill: rgb(0%,0%,0%); stroke:none;" transform="translate(0,0) scale(1,-1)" x="0" y="0">Gene_00440</text>
			</g>
			<g transform=" matrix(0.707107,0.707107,-0.707107,0.707107,581.962956,251.827897)">
				<text style="font-family: Helvetica; font-size: 10px;fill: rgb(0%,0%,0%); stroke:none;" transform="translate(0,0) scale(1,-1)" x="0" y="0">Gene_00441</text>
			</g>
			<g transform=" matrix(0.707107,0.707107,-0.707107,0.707107,626.055083,251.827897)">
				<text style="font-family: Helvetica; font-size: 16px;fill: rgb(0%,0%,100%); stroke:none;" transform="translate(0,0) scale(1,-1)" x="0" y="0">Gene_00442 (84.7)</text>
			</g>
			<g transform=" matrix(0.707107,0.707107,-0.707107,0.707107,658.008594,251.827897)">
				<text style="font-family: Helvetica; font-size: 10px;fill: rgb(0%,0%,0%); stroke:none;" transform="translate(0,0) scale(1,-1)" x="0" y="0">Gene_00443</text>
			</g>
			<g transform=" matrix(0.707107,0.707107,-0.707107,0.707107,705.952142,251.827897)">
				<text style="font-family: Helvetica; font-size: 10px;fill: rgb(0%,0%,0%); stroke:none;" transform="translate(0,0) scale(1,-1)" x="0" y="0">Gene_00444</text>
			</g>
			<g transform=" matrix(0.707107,0.707107,-0.707107,0.707107,768.90295,251.827897)">
				<text style="font-family: Helvetica; font-size: 10px;fill: rgb(0%,0%,0%); stroke:none;" transform="translate(0,0) scale(1,-1)" x="0" y="0">Gene_00445</text>
			</g>
			<g transform=" matrix(0.707107,0.707107,-0.707107,0.707107,828.161707,251.827897)">
				<text style="font-family: Helvetica; font-size: 10px;fill: rgb(0%,0%,0%); stroke:none;" transform="translate(0,0) scale(1,-1)" x="0" y="0">Gene_00446</text>
			</g>
			<g transform=" matrix(0.707107,0.707107,-0.707107,0.707107,891.56406,251.827897)">
				<text style="font-family: Helvetica; font-size: 10px;fill: rgb(0%,0%,0%); stroke:none;" transform="translate(0,0) scale(1,-1)" x="0" y="0">Gene_00447</text>
			</g>
			<g transform=" matrix(0.707107,0.707107,-0.707107,0.707107,1143.792277,251.827897)">
				<text style="font-family: Helvetica; font-size: 10px;fill: rgb(0%,0%,0%); stroke:none;" transform="translate(0,0) scale(1,-1)" x="0" y="0">Gene_00448</text>
			</g>
			<g transform=" matrix(0.707107,-0.707107,0.707107,0.707107,86.218702,456.833521)">
				<text style="font-family: Helvetica; font-size: 10px;fill: rgb(0%,0%,0%); stroke:none;" transform="translate(0,0) scale(1,-1)" x="0" y="0">Gene_00099</text>
			</g>
			<g transform=" matrix(0.707107,-0.707107,0.707107,0.707107,127.389061,456.833521)">
				<text style="font-family: Helvetica; font-size: 10px;fill: rgb(0%,0%,0%); stroke:none;" transform="translate(0,0) scale(1,-1)" x="0" y="0">Gene_00100</text>
			</g>
			<g transform=" matrix(0.707107,-0.707107,0.707107,0.707107,172.835826,456.833521)">
				<text style="font-family: Helvetica; font-size: 10px;fill: rgb(0%,0%,0%); stroke:none;" transform="translate(0,0) scale(1,-1)" x="0" y="0">Gene_00101</text>
			</g>
			<g transform=" matrix(0.707107,-0.707107,0.707107,0.707107,215.865492,456.833521)">
				<text style="font-family: Helvetica; font-size: 10px;fill: rgb(0%,0%,0%); stroke:none;" transform="translate(0,0) scale(1,-1)" x="0" y="0">Gene_00102</text>
			</g>
			<g transform=" matrix(0.707107,-0.707107,0.707107,0.707107,245.48159,456.833521)">
				<text style="font-family: Helvetica; font-size: 10px;fill: rgb(0%,0%,0%); stroke:none;" transform="translate(0,0) scale(1,-1)" x="0" y="0">Gene_00103</text>
			</g>
			<g transform=" matrix(0.707107,-0.707107,0.707107,0.707107,273.105573,456.833521)">
				<text style="font-family: Helvetica; font-size: 10px;fill: rgb(0%,0%,0%); stroke:none;" transform="translate(0,0) scale(1,-1)" x="0" y="0">Gene_00104</text>
			</g>
			<g transform=" matrix(0.707107,-0.707107,0.707107,0.707107,310.21202,456.833521)">
				<text style="font-family: Helvetica; font-size: 10px;fill: rgb(0%,0%,0%); stroke:none;" transform="translate(0,0) scale(1,-1)" x="0" y="0">Gene_00105</text>
			</g>
			<g transform=" matrix(0.707107,-0.707107,0.707107,0.707107,403.017979,456.833521)">
				<text style="font-family: Helvetica; font-size: 10px;fill: rgb(0%,0%,0%); stroke:none;" transform="translate(0,0) scale(1,-1)" x="0" y="0">Gene_00106</text>
			</g>
			<g transform=" matrix(0.707107,-0.707107,0.707107,0.707107,488.572643,456.833521)">
				<text style="font-family: Helvetica; font-size: 10px;fill: rgb(0%,0%,0%); stroke:none;" transform="translate(0,0) scale(1,-1)" x="0" y="0">Gene_00107</text>
			</g>
			<g transform=" matrix(0.707107,-0.707107,0.707107,0.707107,510.140599,456.833521)">
				<text style="font-family: Helvetica; font-size: 10px;fill: rgb(0%,0%,0%); stroke:none;" transform="translate(0,0) scale(1,-1)" x="0" y="0">Gene_00108</text>
			</g>
			<g transform=" matrix(0.707107,-0.707107,0.707107,0.707107,559.970015,456.833521)">
				<text style="font-family: Helvetica; font-size: 10px;fill: rgb(0%,0%,0%); stroke:none;" transform="translate(0,0) scale(1,-1)" x="0" y="0">Gene_00109</text>
			</g>
			<g transform=" matrix(0.707107,-0.707107,0.707107,0.707107,606.851102,456.833521)">
				<text style="font-family: Helvetica; font-size: 10px;fill: rgb(0%,0%,0%); stroke:none;" transform="translate(0,0) scale(1,-1)" x="0" y="0">Gene_00110</text>
			</g>
			<g transform=" matrix(0.707107,-0.707107,0.707107,0.707107,636.759376,456.833521)">
				<text style="font-family: Helvetica; font-size: 16px;fill: rgb(0%,0%,100%); stroke:none;" transform="translate(0,0) scale(1,-1)" x="0" y="0">Gene_00111 (84.7)</text>
			</g>
			<g transform=" matrix(0.707107,-0.707107,0.707107,0.707107,675.300145,456.833521)">
				<text style="font-family: Helvetica; font-size: 10px;fill: rgb(0%,0%,0%); stroke:none;" transform="translate(0,0) scale(1,-1)" x="0" y="0">Gene_00112</text>
			</g>
			<g transform=" matrix(0.707107,-0.707107,0.707107,0.707107,725.129561,456.833521)">
				<text style="font-family: Helvetica; font-size: 10px;fill: rgb(0%,0%,0%); stroke:none;" transform="translate(0,0) scale(1,-1)" x="0" y="0">Gene_00113</text>
			</g>
			<g transform=" matrix(0.707107,-0.707107,0.707107,0.707107,752.355122,456.833521)">
				<text style="font-family: Helvetica; font-size: 10px;fill: rgb(0%,0%,0%); stroke:none;" transform="translate(0,0) scale(1,-1)" x="0" y="0">Gene_00114</text>
			</g>
			<g transform=" matrix(0.707107,-0.707107,0.707107,0.707107,791.40056,456.833521)">
				<text style="font-family: Helvetica; font-size: 10px;fill: rgb(0%,0%,0%); stroke:none;" transform="translate(0,0) scale(1,-1)" x="0" y="0">Gene_00115</text>
			</g>
			<g transform=" matrix(0.707107,-0.707107,0.707107,0.707107,823.805617,456.833521)">
				<text style="font-family: Helvetica; font-size: 10px;fill: rgb(0%,0%,0%); stroke:none;" transform="translate(0,0) scale(1,-1)" x="0" y="0">Gene_00116</text>
			</g>
			<g transform=" matrix(0.707107,-0.707107,0.707107,0.707107,852.757676,456.833521)">
				<text style="font-family: Helvetica; font-size: 10px;fill: rgb(0%,0%,0%); stroke:none;" transform="translate(0,0) scale(1,-1)" x="0" y="0">Gene_00117</text>
			</g>
			<g transform=" matrix(0.707107,-0.707107,0.707107,0.707107,877.513015,456.833521)">
				<text style="font-family: Helvetica; font-size: 10px;fill: rgb(0%,0%,0%); stroke:none;" transform="translate(0,0) scale(1,-1)" x="0" y="0">Gene_00118</text>
			</g>
			<g transform=" matrix(0.707107,-0.707107,0.707107,0.707107,919.666151,456.833521)">
				<text style="font-family: Helvetica; font-size: 10px;fill: rgb(0%,0%,0%); stroke:none;" transform="translate(0,0) scale(1,-1)" x="0" y="0">Gene_00119</text>
			</g>
			<g transform=" matrix(0.707107,-0.707107,0.707107,0.707107,959.959981,456.833521)">
				<text style="font-family: Helvetica; font-size: 10px;fill: rgb(0%,0%,0%); stroke:none;" transform="translate(0,0) scale(1,-1)" x="0" y="0">Gene_00120</text>
			</g>
			<g transform=" matrix(1,0,-0,1,70,169.825647)">
				<text style="font-family: Helvetica; font-size: 12px;fill: rgb(60%,60%,60%); stroke:none;" transform="translate(0,0) scale(1,-1)" x="0" y="0">megahit_18668 (left 15921bp, right 13536bp)</text>
			</g>
			<g transform=" matrix(1,0,-0,1,70,456.833521)">
				<text style="font-family: Helvetica; font-size: 12px;fill: rgb(60%,60%,60%); stroke:none;" transform="translate(0,0) scale(1,-1)" x="0" y="0">megahit_8302 (left 14681bp, right 7098bp)</text>
			</g>
		</g>
	</g>
</svg>
