<?xml version="1.0" encoding="utf-8"?>
<!DOCTYPE svg
  PUBLIC '-//W3C//DTD SVG 1.0//EN'
  'http://www.w3.org/TR/2001/REC-SVG-20010904/DTD/svg10.dtd'>
<svg fill-rule="evenodd" height="708.6614173228346" preserveAspectRatio="xMinYMin meet" version="1.0" viewBox="0 0 1417 708" width="1417.3228346456692" xmlns="http://www.w3.org/2000/svg" xmlns:xlink="http://www.w3.org/1999/xlink">
	<title>...</title>
	<desc>...</desc>
	<clipPath id="clip">
		<rect height="708.6614173228346" width="1417.3228346456692" x="0" y="0"/>
	</clipPath>
	<g id="group" style="clip-path: url(#clip)" transform="scale(1,-1) translate(0,-708)">
		<g transform="">
			<polygon points="70.86614 169.8256, 487.4173 169.8256, 487.4173 251.8279, 70.86614 251.8279" style="stroke: rgb(96%,96%,96%); stroke-linecap: butt; stroke-width: 1; fill: rgb(96%,96%,96%); fill-rule: evenodd;"/>
			<polygon points="70.86614 456.8335, 1346.399 456.8335, 1346.399 538.8358, 70.86614 538.8358" style="stroke: rgb(96%,96%,96%); stroke-linecap: butt; stroke-width: 1; fill: rgb(96%,96%,96%); fill-rule: evenodd;"/>
			<polygon points="648.8735 456.8335, 721.1389 456.8335, 213.2595 251.8279, 285.6404 251.8279" style="stroke: rgb(100%,43%,43%); stroke-linecap: round; stroke-width: 1; fill: rgb(100%,43%,43%); fill-rule: evenodd;"/>
			<polygon points="577.879 456.8335, 638.6489 456.8335, 295.5762 251.8279, 355.9995 251.8279" style="stroke: rgb(100%,38%,38%); stroke-linecap: round; stroke-width: 1; fill: rgb(100%,38%,38%); fill-rule: evenodd;"/>
			<polygon points="734.5984 456.8335, 778.7317 456.8335, 164.5627 251.8279, 208.696 251.8279" style="stroke: rgb(100%,32%,32%); stroke-linecap: round; stroke-width: 1; fill: rgb(100%,32%,32%); fill-rule: evenodd;"/>
			<polygon points="86.40522 241.5776, 130.2548 241.5776, 130.2548 251.8279, 146.6552 231.3273, 130.2548 210.8268, 130.2548 221.0771, 86.40522 221.0771" style="stroke: rgb(67%,84%,90%); stroke-linecap: round; stroke-width: 1; fill: rgb(67%,84%,90%); fill-rule: evenodd;"/>
			<polygon points="207.8295 200.5765, 180.9632 200.5765, 180.9632 210.8268, 164.5627 190.3262, 180.9632 169.8256, 180.9632 180.0759, 207.8295 180.0759" style="stroke: rgb(56%,93%,56%); stroke-linecap: round; stroke-width: 1; fill: rgb(56%,93%,56%); fill-rule: evenodd;"/>
			<polygon points="285.8137 200.5765, 232.606 200.5765, 232.606 210.8268, 216.2056 190.3262, 232.606 169.8256, 232.606 180.0759, 285.8137 180.0759" style="stroke: rgb(56%,93%,56%); stroke-linecap: round; stroke-width: 1; fill: rgb(56%,93%,56%); fill-rule: evenodd;"/>
			<polygon points="354.6131 200.5765, 312.4965 200.5765, 312.4965 210.8268, 296.0961 190.3262, 312.4965 169.8256, 312.4965 180.0759, 354.6131 180.0759" style="stroke: rgb(56%,93%,56%); stroke-linecap: round; stroke-width: 1; fill: rgb(56%,93%,56%); fill-rule: evenodd;"/>
			<polygon points="371.5963 241.5776, 402.2753 241.5776, 402.2753 251.8279, 418.6757 231.3273, 402.2753 210.8268, 402.2753 221.0771, 371.5963 221.0771" style="stroke: rgb(67%,84%,90%); stroke-linecap: round; stroke-width: 1; fill: rgb(67%,84%,90%); fill-rule: evenodd;"/>
			<polygon points="484.6446 200.5765, 438.7154 200.5765, 438.7154 210.8268, 422.315 190.3262, 438.7154 169.8256, 438.7154 180.0759, 484.6446 180.0759" style="stroke: rgb(56%,93%,56%); stroke-linecap: round; stroke-width: 1; fill: rgb(56%,93%,56%); fill-rule: evenodd;"/>
			<polygon points="88.65809 487.5844, 88.65809 497.8346, 81.43733 477.3341, 88.65809 456.8335, 88.65809 467.0838" style="stroke: rgb(56%,93%,56%); stroke-linecap: round; stroke-width: 1; fill: rgb(56%,93%,56%); fill-rule: evenodd;"/>
			<polygon points="97.38077 528.5855, 138.2843 528.5855, 138.2843 538.8358, 154.6847 518.3352, 138.2843 497.8346, 138.2843 508.0849, 97.38077 508.0849" style="stroke: rgb(67%,84%,90%); stroke-linecap: round; stroke-width: 1; fill: rgb(67%,84%,90%); fill-rule: evenodd;"/>
			<polygon points="166.1802 528.5855, 235.158 528.5855, 235.158 538.8358, 251.5584 518.3352, 235.158 497.8346, 235.158 508.0849, 166.1802 508.0849" style="stroke: rgb(67%,84%,90%); stroke-linecap: round; stroke-width: 1; fill: rgb(67%,84%,90%); fill-rule: evenodd;"/>
			<polygon points="252.656 528.5855, 288.0139 528.5855, 288.0139 538.8358, 304.4144 518.3352, 288.0139 497.8346, 288.0139 508.0849, 252.656 508.0849" style="stroke: rgb(67%,84%,90%); stroke-linecap: round; stroke-width: 1; fill: rgb(67%,84%,90%); fill-rule: evenodd;"/>
			<polygon points="304.4144 528.5855, 336.9996 528.5855, 336.9996 538.8358, 353.4 518.3352, 336.9996 497.8346, 336.9996 508.0849, 304.4144 508.0849" style="stroke: rgb(67%,84%,90%); stroke-linecap: round; stroke-width: 1; fill: rgb(67%,84%,90%); fill-rule: evenodd;"/>
			<polygon points="354.2088 528.5855, 435.3174 528.5855, 435.3174 538.8358, 451.7179 518.3352, 435.3174 497.8346, 435.3174 508.0849, 354.2088 508.0849" style="stroke: rgb(67%,84%,90%); stroke-linecap: round; stroke-width: 1; fill: rgb(67%,84%,90%); fill-rule: evenodd;"/>
			<polygon points="507.9821 487.5844, 477.1299 487.5844, 477.1299 497.8346, 460.7294 477.3341, 477.1299 456.8335, 477.1299 467.0838, 507.9821 467.0838" style="stroke: rgb(56%,93%,56%); stroke-linecap: round; stroke-width: 1; fill: rgb(56%,93%,56%); fill-rule: evenodd;"/>
			<polygon points="567.019 487.5844, 534.2605 487.5844, 534.2605 497.8346, 517.8601 477.3341, 534.2605 456.8335, 534.2605 467.0838, 567.019 467.0838" style="stroke: rgb(56%,93%,56%); stroke-linecap: round; stroke-width: 1; fill: rgb(56%,93%,56%); fill-rule: evenodd;"/>
			<polygon points="579.2076 528.5855, 621.6708 528.5855, 621.6708 538.8358, 638.0713 518.3352, 621.6708 497.8346, 621.6708 508.0849, 579.2076 508.0849" style="stroke: rgb(67%,84%,90%); stroke-linecap: round; stroke-width: 1; fill: rgb(67%,84%,90%); fill-rule: evenodd;"/>
			<polygon points="648.5269 528.5855, 701.9079 528.5855, 701.9079 538.8358, 718.3084 518.3352, 701.9079 497.8346, 701.9079 508.0849, 648.5269 508.0849" style="stroke: rgb(67%,84%,90%); stroke-linecap: round; stroke-width: 1; fill: rgb(67%,84%,90%); fill-rule: evenodd;"/>
			<polygon points="735.4649 528.5855, 762.3312 528.5855, 762.3312 538.8358, 778.7317 518.3352, 762.3312 497.8346, 762.3312 508.0849, 735.4649 508.0849" style="stroke: rgb(67%,84%,90%); stroke-linecap: round; stroke-width: 1; fill: rgb(67%,84%,90%); fill-rule: evenodd;"/>
			<polygon points="797.2746 528.5855, 821.3682 528.5855, 821.3682 538.8358, 837.7686 518.3352, 821.3682 497.8346, 821.3682 508.0849, 797.2746 508.0849" style="stroke: rgb(67%,84%,90%); stroke-linecap: round; stroke-width: 1; fill: rgb(67%,84%,90%); fill-rule: evenodd;"/>
			<polygon points="890.0469 487.5844, 855.3821 487.5844, 855.3821 497.8346, 838.9817 477.3341, 855.3821 456.8335, 855.3821 467.0838, 890.0469 467.0838" style="stroke: rgb(56%,93%,56%); stroke-linecap: round; stroke-width: 1; fill: rgb(56%,93%,56%); fill-rule: evenodd;"/>
			<polygon points="902.7554 528.5855, 902.7554 538.8358, 917.0814 518.3352, 902.7554 497.8346, 902.7554 508.0849" style="stroke: rgb(67%,84%,90%); stroke-linecap: round; stroke-width: 1; fill: rgb(67%,84%,90%); fill-rule: evenodd;"/>
			<polygon points="918.3523 528.5855, 932.9145 528.5855, 932.9145 538.8358, 949.3149 518.3352, 932.9145 497.8346, 932.9145 508.0849, 918.3523 508.0849" style="stroke: rgb(67%,84%,90%); stroke-linecap: round; stroke-width: 1; fill: rgb(67%,84%,90%); fill-rule: evenodd;"/>
			<polygon points="976.9849 528.5855, 982.5355 528.5855, 982.5355 538.8358, 998.936 518.3352, 982.5355 497.8346, 982.5355 508.0849, 976.9849 508.0849" style="stroke: rgb(67%,84%,90%); stroke-linecap: round; stroke-width: 1; fill: rgb(67%,84%,90%); fill-rule: evenodd;"/>
			<polygon points="1022.216 528.5855, 1028.979 528.5855, 1028.979 538.8358, 1045.38 518.3352, 1028.979 497.8346, 1028.979 508.0849, 1022.216 508.0849" style="stroke: rgb(67%,84%,90%); stroke-linecap: round; stroke-width: 1; fill: rgb(67%,84%,90%); fill-rule: evenodd;"/>
			<polygon points="1071.721 528.5855, 1079.698 528.5855, 1079.698 538.8358, 1096.099 518.3352, 1079.698 497.8346, 1079.698 508.0849, 1071.721 508.0849" style="stroke: rgb(67%,84%,90%); stroke-linecap: round; stroke-width: 1; fill: rgb(67%,84%,90%); fill-rule: evenodd;"/>
			<polygon points="1151.612 487.5844, 1118.333 487.5844, 1118.333 497.8346, 1101.933 477.3341, 1118.333 456.8335, 1118.333 467.0838, 1151.612 467.0838" style="stroke: rgb(56%,93%,56%); stroke-linecap: round; stroke-width: 1; fill: rgb(56%,93%,56%); fill-rule: evenodd;"/>
			<polygon points="1169.577 528.5855, 1274.428 528.5855, 1274.428 538.8358, 1290.828 518.3352, 1274.428 497.8346, 1274.428 508.0849, 1169.577 508.0849" style="stroke: rgb(67%,84%,90%); stroke-linecap: round; stroke-width: 1; fill: rgb(67%,84%,90%); fill-rule: evenodd;"/>
			<polygon points="1293.774 528.5855, 1329.998 528.5855, 1329.998 538.8358, 1346.399 518.3352, 1329.998 497.8346, 1329.998 508.0849, 1293.774 508.0849" style="stroke: rgb(67%,84%,90%); stroke-linecap: round; stroke-width: 1; fill: rgb(67%,84%,90%); fill-rule: evenodd;"/>
			<path d="M 487.417336,169.825647 L 487.417336,251.827897 Z" style="stroke: rgb(0%,0%,0%); stroke-linecap: butt; stroke-width: 1;"/>
			<path d="M 70.866142,210.826772 L 487.417336,210.826772 Z" style="stroke: rgb(0%,0%,0%); stroke-linecap: butt; stroke-width: 1;"/>
			<path d="M 70.866142,169.825647 L 70.866142,251.827897 Z" style="stroke: rgb(0%,0%,0%); stroke-linecap: butt; stroke-width: 1;"/>
			<path d="M 1346.398927,456.833521 L 1346.398927,538.835771 Z" style="stroke: rgb(0%,0%,0%); stroke-linecap: butt; stroke-width: 1;"/>
			<path d="M 70.866142,497.834646 L 1346.398927,497.834646 Z" style="stroke: rgb(0%,0%,0%); stroke-linecap: butt; stroke-width: 1;"/>
			<path d="M 70.866142,456.833521 L 70.866142,538.835771 Z" style="stroke: rgb(0%,0%,0%); stroke-linecap: butt; stroke-width: 1;"/>
			<path d="M 648.526929,497.834646 L 648.526929,518.335208 Z" style="stroke: rgb(0%,0%,0%); stroke-linecap: butt; stroke-width: 1;"/>
			<path d="M 1226.187717,497.834646 L 1226.187717,518.335208 Z" style="stroke: rgb(0%,0%,0%); stroke-linecap: butt; stroke-width: 1;"/>
			<path d="M 648.526929,497.834646 L 648.526929,510.134983 Z" style="stroke: rgb(0%,0%,0%); stroke-linecap: butt; stroke-width: 1;"/>
			<path d="M 1226.187717,497.834646 L 1226.187717,510.134983 Z" style="stroke: rgb(0%,0%,0%); stroke-linecap: butt; stroke-width: 1;"/>
			<g transform=" matrix(0.707107,0.707107,-0.707107,0.707107,648.526929,518.335208)">
				<text style="font-family: Helvetica; font-size: 6px;fill: rgb(0%,0%,0%); stroke:none;" transform="translate(0,0) scale(1,-1)" x="0" y="0">10000</text>
			</g>
			<g transform=" matrix(0.707107,0.707107,-0.707107,0.707107,1226.187717,518.335208)">
				<text style="font-family: Helvetica; font-size: 6px;fill: rgb(0%,0%,0%); stroke:none;" transform="translate(0,0) scale(1,-1)" x="0" y="0">20000</text>
			</g>
			<g transform=" matrix(0.707107,0.707107,-0.707107,0.707107,116.530227,251.827897)">
				<text style="font-family: Helvetica; font-size: 10px;fill: rgb(0%,0%,0%); stroke:none;" transform="translate(0,0) scale(1,-1)" x="0" y="0">Gene_00502</text>
			</g>
			<g transform=" matrix(0.707107,-0.707107,0.707107,0.707107,186.196118,169.825647)">
				<text style="font-family: Helvetica; font-size: 10px;fill: rgb(0%,0%,0%); stroke:none;" transform="translate(0,0) scale(1,-1)" x="0" y="0">Gene_00503</text>
			</g>
			<g transform=" matrix(0.707107,-0.707107,0.707107,0.707107,251.009658,169.825647)">
				<text style="font-family: Helvetica; font-size: 16px;fill: rgb(0%,0%,100%); stroke:none;" transform="translate(0,0) scale(1,-1)" x="0" y="0">Gene_00504 (78.5)</text>
			</g>
			<g transform=" matrix(0.707107,-0.707107,0.707107,0.707107,325.354602,169.825647)">
				<text style="font-family: Helvetica; font-size: 10px;fill: rgb(0%,0%,0%); stroke:none;" transform="translate(0,0) scale(1,-1)" x="0" y="0">Gene_00505</text>
			</g>
			<g transform=" matrix(0.707107,0.707107,-0.707107,0.707107,395.136025,251.827897)">
				<text style="font-family: Helvetica; font-size: 10px;fill: rgb(0%,0%,0%); stroke:none;" transform="translate(0,0) scale(1,-1)" x="0" y="0">Gene_00506</text>
			</g>
			<g transform=" matrix(0.707107,-0.707107,0.707107,0.707107,453.479764,169.825647)">
				<text style="font-family: Helvetica; font-size: 10px;fill: rgb(0%,0%,0%); stroke:none;" transform="translate(0,0) scale(1,-1)" x="0" y="0">Gene_00507</text>
			</g>
			<g transform=" matrix(0.707107,-0.707107,0.707107,0.707107,85.047714,456.833521)">
				<text style="font-family: Helvetica; font-size: 10px;fill: rgb(0%,0%,0%); stroke:none;" transform="translate(0,0) scale(1,-1)" x="0" y="0">Gene_00195</text>
			</g>
			<g transform=" matrix(0.707107,0.707107,-0.707107,0.707107,126.032747,538.835771)">
				<text style="font-family: Helvetica; font-size: 10px;fill: rgb(0%,0%,0%); stroke:none;" transform="translate(0,0) scale(1,-1)" x="0" y="0">Gene_00196</text>
			</g>
			<g transform=" matrix(0.707107,0.707107,-0.707107,0.707107,208.869304,538.835771)">
				<text style="font-family: Helvetica; font-size: 10px;fill: rgb(0%,0%,0%); stroke:none;" transform="translate(0,0) scale(1,-1)" x="0" y="0">Gene_00197</text>
			</g>
			<g transform=" matrix(0.707107,0.707107,-0.707107,0.707107,278.535195,538.835771)">
				<text style="font-family: Helvetica; font-size: 10px;fill: rgb(0%,0%,0%); stroke:none;" transform="translate(0,0) scale(1,-1)" x="0" y="0">Gene_00198</text>
			</g>
			<g transform=" matrix(0.707107,0.707107,-0.707107,0.707107,328.907216,538.835771)">
				<text style="font-family: Helvetica; font-size: 10px;fill: rgb(0%,0%,0%); stroke:none;" transform="translate(0,0) scale(1,-1)" x="0" y="0">Gene_00199</text>
			</g>
			<g transform=" matrix(0.707107,0.707107,-0.707107,0.707107,402.963329,538.835771)">
				<text style="font-family: Helvetica; font-size: 10px;fill: rgb(0%,0%,0%); stroke:none;" transform="translate(0,0) scale(1,-1)" x="0" y="0">Gene_00200</text>
			</g>
			<g transform=" matrix(0.707107,-0.707107,0.707107,0.707107,484.355733,456.833521)">
				<text style="font-family: Helvetica; font-size: 10px;fill: rgb(0%,0%,0%); stroke:none;" transform="translate(0,0) scale(1,-1)" x="0" y="0">Gene_00201</text>
			</g>
			<g transform=" matrix(0.707107,-0.707107,0.707107,0.707107,542.439526,456.833521)">
				<text style="font-family: Helvetica; font-size: 10px;fill: rgb(0%,0%,0%); stroke:none;" transform="translate(0,0) scale(1,-1)" x="0" y="0">Gene_00202</text>
			</g>
			<g transform=" matrix(0.707107,0.707107,-0.707107,0.707107,608.639452,538.835771)">
				<text style="font-family: Helvetica; font-size: 10px;fill: rgb(0%,0%,0%); stroke:none;" transform="translate(0,0) scale(1,-1)" x="0" y="0">Gene_00203</text>
			</g>
			<g transform=" matrix(0.707107,0.707107,-0.707107,0.707107,683.417641,538.835771)">
				<text style="font-family: Helvetica; font-size: 16px;fill: rgb(0%,0%,100%); stroke:none;" transform="translate(0,0) scale(1,-1)" x="0" y="0">Gene_00204 (78.5)</text>
			</g>
			<g transform=" matrix(0.707107,0.707107,-0.707107,0.707107,757.098274,538.835771)">
				<text style="font-family: Helvetica; font-size: 10px;fill: rgb(0%,0%,0%); stroke:none;" transform="translate(0,0) scale(1,-1)" x="0" y="0">Gene_00205</text>
			</g>
			<g transform=" matrix(0.707107,0.707107,-0.707107,0.707107,817.521593,538.835771)">
				<text style="font-family: Helvetica; font-size: 10px;fill: rgb(0%,0%,0%); stroke:none;" transform="translate(0,0) scale(1,-1)" x="0" y="0">Gene_00206</text>
			</g>
			<g transform=" matrix(0.707107,-0.707107,0.707107,0.707107,864.514298,456.833521)">
				<text style="font-family: Helvetica; font-size: 10px;fill: rgb(0%,0%,0%); stroke:none;" transform="translate(0,0) scale(1,-1)" x="0" y="0">Gene_00207</text>
			</g>
			<g transform=" matrix(0.707107,0.707107,-0.707107,0.707107,909.918436,538.835771)">
				<text style="font-family: Helvetica; font-size: 10px;fill: rgb(0%,0%,0%); stroke:none;" transform="translate(0,0) scale(1,-1)" x="0" y="0">Gene_00208</text>
			</g>
			<g transform=" matrix(0.707107,0.707107,-0.707107,0.707107,933.833592,538.835771)">
				<text style="font-family: Helvetica; font-size: 10px;fill: rgb(0%,0%,0%); stroke:none;" transform="translate(0,0) scale(1,-1)" x="0" y="0">Gene_00209</text>
			</g>
			<g transform=" matrix(0.707107,0.707107,-0.707107,0.707107,987.960408,538.835771)">
				<text style="font-family: Helvetica; font-size: 10px;fill: rgb(0%,0%,0%); stroke:none;" transform="translate(0,0) scale(1,-1)" x="0" y="0">Gene_00210</text>
			</g>
			<g transform=" matrix(0.707107,0.707107,-0.707107,0.707107,1033.797792,538.835771)">
				<text style="font-family: Helvetica; font-size: 10px;fill: rgb(0%,0%,0%); stroke:none;" transform="translate(0,0) scale(1,-1)" x="0" y="0">Gene_00211</text>
			</g>
			<g transform=" matrix(0.707107,0.707107,-0.707107,0.707107,1083.909865,538.835771)">
				<text style="font-family: Helvetica; font-size: 10px;fill: rgb(0%,0%,0%); stroke:none;" transform="translate(0,0) scale(1,-1)" x="0" y="0">Gene_00212</text>
			</g>
			<g transform=" matrix(0.707107,-0.707107,0.707107,0.707107,1126.772295,456.833521)">
				<text style="font-family: Helvetica; font-size: 10px;fill: rgb(0%,0%,0%); stroke:none;" transform="translate(0,0) scale(1,-1)" x="0" y="0">Gene_00213</text>
			</g>
			<g transform=" matrix(0.707107,0.707107,-0.707107,0.707107,1230.202459,538.835771)">
				<text style="font-family: Helvetica; font-size: 10px;fill: rgb(0%,0%,0%); stroke:none;" transform="translate(0,0) scale(1,-1)" x="0" y="0">Gene_00214</text>
			</g>
			<g transform=" matrix(0.707107,0.707107,-0.707107,0.707107,1320.086478,538.835771)">
				<text style="font-family: Helvetica; font-size: 10px;fill: rgb(0%,0%,0%); stroke:none;" transform="translate(0,0) scale(1,-1)" x="0" y="0">Gene_00215</text>
			</g>
			<g transform=" matrix(1,0,-0,1,70,169.825647)">
				<text style="font-family: Helvetica; font-size: 12px;fill: rgb(60%,60%,60%); stroke:none;" transform="translate(0,0) scale(1,-1)" x="0" y="0">megahit_13185 (left 2516bp, right 3490bp)</text>
			</g>
			<g transform=" matrix(1,0,-0,1,70,456.833521)">
				<text style="font-family: Helvetica; font-size: 12px;fill: rgb(60%,60%,60%); stroke:none;" transform="translate(0,0) scale(1,-1)" x="0" y="0">megahit_8491 (left 22829bp, right 24251bp)</text>
			</g>
		</g>
	</g>
</svg>
