<?xml version="1.0" encoding="utf-8"?>
<!DOCTYPE svg
  PUBLIC '-//W3C//DTD SVG 1.0//EN'
  'http://www.w3.org/TR/2001/REC-SVG-20010904/DTD/svg10.dtd'>
<svg fill-rule="evenodd" height="708.6614173228346" preserveAspectRatio="xMinYMin meet" version="1.0" viewBox="0 0 1417 708" width="1417.3228346456692" xmlns="http://www.w3.org/2000/svg" xmlns:xlink="http://www.w3.org/1999/xlink">
	<title>...</title>
	<desc>...</desc>
	<clipPath id="clip">
		<rect height="708.6614173228346" width="1417.3228346456692" x="0" y="0"/>
	</clipPath>
	<g id="group" style="clip-path: url(#clip)" transform="scale(1,-1) translate(0,-708)">
		<g transform="">
			<polygon points="70.86614 169.8256, 1346.365 169.8256, 1346.365 251.8279, 70.86614 251.8279" style="stroke: rgb(96%,96%,96%); stroke-linecap: butt; stroke-width: 1; fill: rgb(96%,96%,96%); fill-rule: evenodd;"/>
			<polygon points="70.86614 456.8335, 1318.173 456.8335, 1318.173 538.8358, 70.86614 538.8358" style="stroke: rgb(96%,96%,96%); stroke-linecap: butt; stroke-width: 1; fill: rgb(96%,96%,96%); fill-rule: evenodd;"/>
			<polygon points="571.6379 456.8335, 836.9893 456.8335, 859.1401 251.8279, 591.6835 251.8279" style="stroke: rgb(100%,55%,55%); stroke-linecap: round; stroke-width: 1; fill: rgb(100%,55%,55%); fill-rule: evenodd;"/>
			<polygon points="410.1754 456.8335, 564.2239 456.8335, 579.1436 251.8279, 423.4476 251.8279" style="stroke: rgb(100%,43%,43%); stroke-linecap: round; stroke-width: 1; fill: rgb(100%,43%,43%); fill-rule: evenodd;"/>
			<polygon points="838.0877 456.8335, 996.072 456.8335, 1028.566 251.8279, 869.3917 251.8279" style="stroke: rgb(100%,48%,48%); stroke-linecap: round; stroke-width: 1; fill: rgb(100%,48%,48%); fill-rule: evenodd;"/>
			<polygon points="1108.199 456.8335, 1231.492 456.8335, 1247.968 251.8279, 1129.526 251.8279" style="stroke: rgb(100%,52%,52%); stroke-linecap: round; stroke-width: 1; fill: rgb(100%,52%,52%); fill-rule: evenodd;"/>
			<polygon points="1245.405 456.8335, 1318.173 456.8335, 1325.77 251.8279, 1253.735 251.8279" style="stroke: rgb(100%,41%,41%); stroke-linecap: round; stroke-width: 1; fill: rgb(100%,41%,41%); fill-rule: evenodd;"/>
			<polygon points="1001.289 456.8335, 1049.161 456.8335, 1091.357 251.8279, 1043.303 251.8279" style="stroke: rgb(100%,35%,35%); stroke-linecap: round; stroke-width: 1; fill: rgb(100%,35%,35%); fill-rule: evenodd;"/>
			<polygon points="350.8627 456.8335, 400.5646 456.8335, 424.4544 251.8279, 375.0271 251.8279" style="stroke: rgb(100%,46%,46%); stroke-linecap: round; stroke-width: 1; fill: rgb(100%,46%,46%); fill-rule: evenodd;"/>
			<polygon points="1055.11 456.8335, 1089.892 456.8335, 1126.139 251.8279, 1091.174 251.8279" style="stroke: rgb(100%,42%,42%); stroke-linecap: round; stroke-width: 1; fill: rgb(100%,42%,42%); fill-rule: evenodd;"/>
			<polygon points="204.5029 200.5765, 87.26659 200.5765, 87.26659 210.8268, 70.86614 190.3262, 87.26659 169.8256, 87.26659 180.0759, 204.5029 180.0759" style="stroke: rgb(56%,93%,56%); stroke-linecap: round; stroke-width: 1; fill: rgb(56%,93%,56%); fill-rule: evenodd;"/>
			<polygon points="244.6855 200.5765, 244.6855 210.8268, 231.5964 190.3262, 244.6855 169.8256, 244.6855 180.0759" style="stroke: rgb(56%,93%,56%); stroke-linecap: round; stroke-width: 1; fill: rgb(56%,93%,56%); fill-rule: evenodd;"/>
			<polygon points="289.6277 241.5776, 311.3046 241.5776, 311.3046 251.8279, 327.7051 231.3273, 311.3046 210.8268, 311.3046 221.0771, 289.6277 221.0771" style="stroke: rgb(67%,84%,90%); stroke-linecap: round; stroke-width: 1; fill: rgb(67%,84%,90%); fill-rule: evenodd;"/>
			<polygon points="353.9748 200.5765, 352.0688 200.5765, 352.0688 210.8268, 335.6683 190.3262, 352.0688 169.8256, 352.0688 180.0759, 353.9748 180.0759" style="stroke: rgb(56%,93%,56%); stroke-linecap: round; stroke-width: 1; fill: rgb(56%,93%,56%); fill-rule: evenodd;"/>
			<polygon points="373.5626 200.5765, 373.5626 210.8268, 359.1005 190.3262, 373.5626 169.8256, 373.5626 180.0759" style="stroke: rgb(56%,93%,56%); stroke-linecap: round; stroke-width: 1; fill: rgb(56%,93%,56%); fill-rule: evenodd;"/>
			<polygon points="422.0746 200.5765, 391.0614 200.5765, 391.0614 210.8268, 374.661 190.3262, 391.0614 169.8256, 391.0614 180.0759, 422.0746 180.0759" style="stroke: rgb(56%,93%,56%); stroke-linecap: round; stroke-width: 1; fill: rgb(56%,93%,56%); fill-rule: evenodd;"/>
			<polygon points="510.8607 200.5765, 440.5803 200.5765, 440.5803 210.8268, 424.1798 190.3262, 440.5803 169.8256, 440.5803 180.0759, 510.8607 180.0759" style="stroke: rgb(56%,93%,56%); stroke-linecap: round; stroke-width: 1; fill: rgb(56%,93%,56%); fill-rule: evenodd;"/>
			<polygon points="576.2146 200.5765, 535.3159 200.5765, 535.3159 210.8268, 518.9155 190.3262, 535.3159 169.8256, 535.3159 180.0759, 576.2146 180.0759" style="stroke: rgb(56%,93%,56%); stroke-linecap: round; stroke-width: 1; fill: rgb(56%,93%,56%); fill-rule: evenodd;"/>
			<polygon points="628.2963 200.5765, 608.267 200.5765, 608.267 210.8268, 591.8665 190.3262, 608.267 169.8256, 608.267 180.0759, 628.2963 180.0759" style="stroke: rgb(56%,93%,56%); stroke-linecap: round; stroke-width: 1; fill: rgb(56%,93%,56%); fill-rule: evenodd;"/>
			<polygon points="670.1264 200.5765, 652.8431 200.5765, 652.8431 210.8268, 636.4426 190.3262, 652.8431 169.8256, 652.8431 180.0759, 670.1264 180.0759" style="stroke: rgb(56%,93%,56%); stroke-linecap: round; stroke-width: 1; fill: rgb(56%,93%,56%); fill-rule: evenodd;"/>
			<polygon points="698.1352 200.5765, 698.1352 210.8268, 687.7921 190.3262, 698.1352 169.8256, 698.1352 180.0759" style="stroke: rgb(56%,93%,56%); stroke-linecap: round; stroke-width: 1; fill: rgb(56%,93%,56%); fill-rule: evenodd;"/>
			<polygon points="720.6521 200.5765, 717.0986 200.5765, 717.0986 210.8268, 700.6981 190.3262, 717.0986 169.8256, 717.0986 180.0759, 720.6521 180.0759" style="stroke: rgb(56%,93%,56%); stroke-linecap: round; stroke-width: 1; fill: rgb(56%,93%,56%); fill-rule: evenodd;"/>
			<polygon points="792.9624 200.5765, 742.453 200.5765, 742.453 210.8268, 726.0525 190.3262, 742.453 169.8256, 742.453 180.0759, 792.9624 180.0759" style="stroke: rgb(56%,93%,56%); stroke-linecap: round; stroke-width: 1; fill: rgb(56%,93%,56%); fill-rule: evenodd;"/>
			<polygon points="859.0486 200.5765, 815.1294 200.5765, 815.1294 210.8268, 798.7289 190.3262, 815.1294 169.8256, 815.1294 180.0759, 859.0486 180.0759" style="stroke: rgb(56%,93%,56%); stroke-linecap: round; stroke-width: 1; fill: rgb(56%,93%,56%); fill-rule: evenodd;"/>
			<polygon points="992.4108 200.5765, 886.4329 200.5765, 886.4329 210.8268, 870.0324 190.3262, 886.4329 169.8256, 886.4329 180.0759, 992.4108 180.0759" style="stroke: rgb(56%,93%,56%); stroke-linecap: round; stroke-width: 1; fill: rgb(56%,93%,56%); fill-rule: evenodd;"/>
			<polygon points="1032.319 200.5765, 1008.994 200.5765, 1008.994 210.8268, 992.5938 190.3262, 1008.994 169.8256, 1008.994 180.0759, 1032.319 180.0759" style="stroke: rgb(56%,93%,56%); stroke-linecap: round; stroke-width: 1; fill: rgb(56%,93%,56%); fill-rule: evenodd;"/>
			<polygon points="1088.428 200.5765, 1060.161 200.5765, 1060.161 210.8268, 1043.76 190.3262, 1060.161 169.8256, 1060.161 180.0759, 1088.428 180.0759" style="stroke: rgb(56%,93%,56%); stroke-linecap: round; stroke-width: 1; fill: rgb(56%,93%,56%); fill-rule: evenodd;"/>
			<polygon points="1124.125 200.5765, 1107.666 200.5765, 1107.666 210.8268, 1091.265 190.3262, 1107.666 169.8256, 1107.666 180.0759, 1124.125 180.0759" style="stroke: rgb(56%,93%,56%); stroke-linecap: round; stroke-width: 1; fill: rgb(56%,93%,56%); fill-rule: evenodd;"/>
			<polygon points="1179.319 200.5765, 1146.384 200.5765, 1146.384 210.8268, 1129.983 190.3262, 1146.384 169.8256, 1146.384 180.0759, 1179.319 180.0759" style="stroke: rgb(56%,93%,56%); stroke-linecap: round; stroke-width: 1; fill: rgb(56%,93%,56%); fill-rule: evenodd;"/>
			<polygon points="1222.248 200.5765, 1202.218 200.5765, 1202.218 210.8268, 1185.818 190.3262, 1202.218 169.8256, 1202.218 180.0759, 1222.248 180.0759" style="stroke: rgb(56%,93%,56%); stroke-linecap: round; stroke-width: 1; fill: rgb(56%,93%,56%); fill-rule: evenodd;"/>
			<polygon points="1246.595 200.5765, 1246.062 200.5765, 1246.062 210.8268, 1229.662 190.3262, 1246.062 169.8256, 1246.062 180.0759, 1246.595 180.0759" style="stroke: rgb(56%,93%,56%); stroke-linecap: round; stroke-width: 1; fill: rgb(56%,93%,56%); fill-rule: evenodd;"/>
			<polygon points="1302.155 200.5765, 1269.22 200.5765, 1269.22 210.8268, 1252.819 190.3262, 1269.22 169.8256, 1269.22 180.0759, 1302.155 180.0759" style="stroke: rgb(56%,93%,56%); stroke-linecap: round; stroke-width: 1; fill: rgb(56%,93%,56%); fill-rule: evenodd;"/>
			<polygon points="1332.544 200.5765, 1320.752 200.5765, 1320.752 210.8268, 1304.352 190.3262, 1320.752 169.8256, 1320.752 180.0759, 1332.544 180.0759" style="stroke: rgb(56%,93%,56%); stroke-linecap: round; stroke-width: 1; fill: rgb(56%,93%,56%); fill-rule: evenodd;"/>
			<polygon points="70.86614 528.5855, 162.2904 528.5855, 162.2904 538.8358, 178.6909 518.3352, 162.2904 497.8346, 162.2904 508.0849, 70.86614 508.0849" style="stroke: rgb(67%,84%,90%); stroke-linecap: round; stroke-width: 1; fill: rgb(67%,84%,90%); fill-rule: evenodd;"/>
			<polygon points="175.6703 528.5855, 271.7628 528.5855, 271.7628 538.8358, 288.1632 518.3352, 271.7628 497.8346, 271.7628 508.0849, 175.6703 508.0849" style="stroke: rgb(67%,84%,90%); stroke-linecap: round; stroke-width: 1; fill: rgb(67%,84%,90%); fill-rule: evenodd;"/>
			<polygon points="292.0076 528.5855, 294.1881 528.5855, 294.1881 538.8358, 310.5886 518.3352, 294.1881 497.8346, 294.1881 508.0849, 292.0076 508.0849" style="stroke: rgb(67%,84%,90%); stroke-linecap: round; stroke-width: 1; fill: rgb(67%,84%,90%); fill-rule: evenodd;"/>
			<polygon points="338.4143 487.5844, 332.1148 487.5844, 332.1148 497.8346, 315.7144 477.3341, 332.1148 456.8335, 332.1148 467.0838, 338.4143 467.0838" style="stroke: rgb(56%,93%,56%); stroke-linecap: round; stroke-width: 1; fill: rgb(56%,93%,56%); fill-rule: evenodd;"/>
			<polygon points="398.4593 487.5844, 366.6224 487.5844, 366.6224 497.8346, 350.2219 477.3341, 366.6224 456.8335, 366.6224 467.0838, 398.4593 467.0838" style="stroke: rgb(56%,93%,56%); stroke-linecap: round; stroke-width: 1; fill: rgb(56%,93%,56%); fill-rule: evenodd;"/>
			<polygon points="497.5885 487.5844, 427.3081 487.5844, 427.3081 497.8346, 410.9077 477.3341, 427.3081 456.8335, 427.3081 467.0838, 497.5885 467.0838" style="stroke: rgb(56%,93%,56%); stroke-linecap: round; stroke-width: 1; fill: rgb(56%,93%,56%); fill-rule: evenodd;"/>
			<polygon points="561.0202 487.5844, 520.1216 487.5844, 520.1216 497.8346, 503.7212 477.3341, 520.1216 456.8335, 520.1216 467.0838, 561.0202 467.0838" style="stroke: rgb(56%,93%,56%); stroke-linecap: round; stroke-width: 1; fill: rgb(56%,93%,56%); fill-rule: evenodd;"/>
			<polygon points="608.5254 487.5844, 588.2215 487.5844, 588.2215 497.8346, 571.821 477.3341, 588.2215 456.8335, 588.2215 467.0838, 608.5254 467.0838" style="stroke: rgb(56%,93%,56%); stroke-linecap: round; stroke-width: 1; fill: rgb(56%,93%,56%); fill-rule: evenodd;"/>
			<polygon points="648.6164 487.5844, 631.3331 487.5844, 631.3331 497.8346, 614.9326 477.3341, 631.3331 456.8335, 631.3331 467.0838, 648.6164 467.0838" style="stroke: rgb(56%,93%,56%); stroke-linecap: round; stroke-width: 1; fill: rgb(56%,93%,56%); fill-rule: evenodd;"/>
			<polygon points="677.5405 487.5844, 677.5405 497.8346, 667.1974 477.3341, 677.5405 456.8335, 677.5405 467.0838" style="stroke: rgb(56%,93%,56%); stroke-linecap: round; stroke-width: 1; fill: rgb(56%,93%,56%); fill-rule: evenodd;"/>
			<polygon points="698.959 487.5844, 695.4055 487.5844, 695.4055 497.8346, 679.005 477.3341, 695.4055 456.8335, 695.4055 467.0838, 698.959 467.0838" style="stroke: rgb(56%,93%,56%); stroke-linecap: round; stroke-width: 1; fill: rgb(56%,93%,56%); fill-rule: evenodd;"/>
			<polygon points="777.402 487.5844, 720.5768 487.5844, 720.5768 497.8346, 704.1763 477.3341, 720.5768 456.8335, 720.5768 467.0838, 777.402 467.0838" style="stroke: rgb(56%,93%,56%); stroke-linecap: round; stroke-width: 1; fill: rgb(56%,93%,56%); fill-rule: evenodd;"/>
			<polygon points="836.8978 487.5844, 791.6057 487.5844, 791.6057 497.8346, 775.2052 477.3341, 791.6057 456.8335, 791.6057 467.0838, 836.8978 467.0838" style="stroke: rgb(56%,93%,56%); stroke-linecap: round; stroke-width: 1; fill: rgb(56%,93%,56%); fill-rule: evenodd;"/>
			<polygon points="960.0084 487.5844, 854.8543 487.5844, 854.8543 497.8346, 838.4539 477.3341, 854.8543 456.8335, 854.8543 467.0838, 960.0084 467.0838" style="stroke: rgb(56%,93%,56%); stroke-linecap: round; stroke-width: 1; fill: rgb(56%,93%,56%); fill-rule: evenodd;"/>
			<polygon points="999.8248 487.5844, 976.5004 487.5844, 976.5004 497.8346, 960.0999 477.3341, 976.5004 456.8335, 976.5004 467.0838, 999.8248 467.0838" style="stroke: rgb(56%,93%,56%); stroke-linecap: round; stroke-width: 1; fill: rgb(56%,93%,56%); fill-rule: evenodd;"/>
			<polygon points="1046.689 487.5844, 1018.147 487.5844, 1018.147 497.8346, 1001.747 477.3341, 1018.147 456.8335, 1018.147 467.0838, 1046.689 467.0838" style="stroke: rgb(56%,93%,56%); stroke-linecap: round; stroke-width: 1; fill: rgb(56%,93%,56%); fill-rule: evenodd;"/>
			<polygon points="1088.062 487.5844, 1071.602 487.5844, 1071.602 497.8346, 1055.202 477.3341, 1071.602 456.8335, 1071.602 467.0838, 1088.062 467.0838" style="stroke: rgb(56%,93%,56%); stroke-linecap: round; stroke-width: 1; fill: rgb(56%,93%,56%); fill-rule: evenodd;"/>
			<polygon points="1166.688 487.5844, 1124.965 487.5844, 1124.965 497.8346, 1108.565 477.3341, 1124.965 456.8335, 1124.965 467.0838, 1166.688 467.0838" style="stroke: rgb(56%,93%,56%); stroke-linecap: round; stroke-width: 1; fill: rgb(56%,93%,56%); fill-rule: evenodd;"/>
			<polygon points="1202.202 487.5844, 1182.173 487.5844, 1182.173 497.8346, 1165.772 477.3341, 1182.173 456.8335, 1182.173 467.0838, 1202.202 467.0838" style="stroke: rgb(56%,93%,56%); stroke-linecap: round; stroke-width: 1; fill: rgb(56%,93%,56%); fill-rule: evenodd;"/>
			<polygon points="1230.119 487.5844, 1229.586 487.5844, 1229.586 497.8346, 1213.186 477.3341, 1229.586 456.8335, 1229.586 467.0838, 1230.119 467.0838" style="stroke: rgb(56%,93%,56%); stroke-linecap: round; stroke-width: 1; fill: rgb(56%,93%,56%); fill-rule: evenodd;"/>
			<polygon points="1293.826 487.5844, 1260.89 487.5844, 1260.89 497.8346, 1244.49 477.3341, 1260.89 456.8335, 1260.89 467.0838, 1293.826 467.0838" style="stroke: rgb(56%,93%,56%); stroke-linecap: round; stroke-width: 1; fill: rgb(56%,93%,56%); fill-rule: evenodd;"/>
			<path d="M 1346.365161,169.825647 L 1346.365161,251.827897 Z" style="stroke: rgb(0%,0%,0%); stroke-linecap: butt; stroke-width: 1;"/>
			<path d="M 70.866142,210.826772 L 1346.365161,210.826772 Z" style="stroke: rgb(0%,0%,0%); stroke-linecap: butt; stroke-width: 1;"/>
			<path d="M 70.866142,169.825647 L 70.866142,251.827897 Z" style="stroke: rgb(0%,0%,0%); stroke-linecap: butt; stroke-width: 1;"/>
			<path d="M 986.186572,210.826772 L 986.186572,231.327334 Z" style="stroke: rgb(0%,0%,0%); stroke-linecap: butt; stroke-width: 1;"/>
			<path d="M 986.186572,210.826772 L 986.186572,223.127109 Z" style="stroke: rgb(0%,0%,0%); stroke-linecap: butt; stroke-width: 1;"/>
			<path d="M 1318.173292,456.833521 L 1318.173292,538.835771 Z" style="stroke: rgb(0%,0%,0%); stroke-linecap: butt; stroke-width: 1;"/>
			<path d="M 70.866142,497.834646 L 1318.173292,497.834646 Z" style="stroke: rgb(0%,0%,0%); stroke-linecap: butt; stroke-width: 1;"/>
			<path d="M 70.866142,456.833521 L 70.866142,538.835771 Z" style="stroke: rgb(0%,0%,0%); stroke-linecap: butt; stroke-width: 1;"/>
			<path d="M 986.186572,497.834646 L 986.186572,518.335208 Z" style="stroke: rgb(0%,0%,0%); stroke-linecap: butt; stroke-width: 1;"/>
			<path d="M 986.186572,497.834646 L 986.186572,510.134983 Z" style="stroke: rgb(0%,0%,0%); stroke-linecap: butt; stroke-width: 1;"/>
			<g transform=" matrix(0.707107,0.707107,-0.707107,0.707107,986.186572,231.327334)">
				<text style="font-family: Helvetica; font-size: 6px;fill: rgb(0%,0%,0%); stroke:none;" transform="translate(0,0) scale(1,-1)" x="0" y="0">10000</text>
			</g>
			<g transform=" matrix(0.707107,0.707107,-0.707107,0.707107,986.186572,518.335208)">
				<text style="font-family: Helvetica; font-size: 6px;fill: rgb(0%,0%,0%); stroke:none;" transform="translate(0,0) scale(1,-1)" x="0" y="0">10000</text>
			</g>
			<g transform=" matrix(0.707107,-0.707107,0.707107,0.707107,137.684533,169.825647)">
				<text style="font-family: Helvetica; font-size: 10px;fill: rgb(0%,0%,0%); stroke:none;" transform="translate(0,0) scale(1,-1)" x="0" y="0">Gene_01002</text>
			</g>
			<g transform=" matrix(0.707107,-0.707107,0.707107,0.707107,238.14095,169.825647)">
				<text style="font-family: Helvetica; font-size: 10px;fill: rgb(0%,0%,0%); stroke:none;" transform="translate(0,0) scale(1,-1)" x="0" y="0">Gene_01003</text>
			</g>
			<g transform=" matrix(0.707107,0.707107,-0.707107,0.707107,308.666389,251.827897)">
				<text style="font-family: Helvetica; font-size: 10px;fill: rgb(0%,0%,0%); stroke:none;" transform="translate(0,0) scale(1,-1)" x="0" y="0">Gene_01004</text>
			</g>
			<g transform=" matrix(0.707107,-0.707107,0.707107,0.707107,344.821546,169.825647)">
				<text style="font-family: Helvetica; font-size: 10px;fill: rgb(0%,0%,0%); stroke:none;" transform="translate(0,0) scale(1,-1)" x="0" y="0">Gene_01005</text>
			</g>
			<g transform=" matrix(0.707107,-0.707107,0.707107,0.707107,366.331577,169.825647)">
				<text style="font-family: Helvetica; font-size: 10px;fill: rgb(0%,0%,0%); stroke:none;" transform="translate(0,0) scale(1,-1)" x="0" y="0">Gene_01006</text>
			</g>
			<g transform=" matrix(0.707107,-0.707107,0.707107,0.707107,398.367792,169.825647)">
				<text style="font-family: Helvetica; font-size: 10px;fill: rgb(0%,0%,0%); stroke:none;" transform="translate(0,0) scale(1,-1)" x="0" y="0">Gene_01007</text>
			</g>
			<g transform=" matrix(0.707107,-0.707107,0.707107,0.707107,467.52025,169.825647)">
				<text style="font-family: Helvetica; font-size: 10px;fill: rgb(0%,0%,0%); stroke:none;" transform="translate(0,0) scale(1,-1)" x="0" y="0">Gene_01008</text>
			</g>
			<g transform=" matrix(0.707107,-0.707107,0.707107,0.707107,547.565022,169.825647)">
				<text style="font-family: Helvetica; font-size: 10px;fill: rgb(0%,0%,0%); stroke:none;" transform="translate(0,0) scale(1,-1)" x="0" y="0">Gene_01009</text>
			</g>
			<g transform=" matrix(0.707107,-0.707107,0.707107,0.707107,610.081407,169.825647)">
				<text style="font-family: Helvetica; font-size: 10px;fill: rgb(0%,0%,0%); stroke:none;" transform="translate(0,0) scale(1,-1)" x="0" y="0">Gene_01010</text>
			</g>
			<g transform=" matrix(0.707107,-0.707107,0.707107,0.707107,653.284531,169.825647)">
				<text style="font-family: Helvetica; font-size: 10px;fill: rgb(0%,0%,0%); stroke:none;" transform="translate(0,0) scale(1,-1)" x="0" y="0">Gene_01011</text>
			</g>
			<g transform=" matrix(0.707107,-0.707107,0.707107,0.707107,692.963672,169.825647)">
				<text style="font-family: Helvetica; font-size: 10px;fill: rgb(0%,0%,0%); stroke:none;" transform="translate(0,0) scale(1,-1)" x="0" y="0">Gene_01012</text>
			</g>
			<g transform=" matrix(0.707107,-0.707107,0.707107,0.707107,710.675122,169.825647)">
				<text style="font-family: Helvetica; font-size: 10px;fill: rgb(0%,0%,0%); stroke:none;" transform="translate(0,0) scale(1,-1)" x="0" y="0">Gene_01013</text>
			</g>
			<g transform=" matrix(0.707107,-0.707107,0.707107,0.707107,759.507467,169.825647)">
				<text style="font-family: Helvetica; font-size: 10px;fill: rgb(0%,0%,0%); stroke:none;" transform="translate(0,0) scale(1,-1)" x="0" y="0">Gene_01014</text>
			</g>
			<g transform=" matrix(0.707107,-0.707107,0.707107,0.707107,828.888756,169.825647)">
				<text style="font-family: Helvetica; font-size: 10px;fill: rgb(0%,0%,0%); stroke:none;" transform="translate(0,0) scale(1,-1)" x="0" y="0">Gene_01015</text>
			</g>
			<g transform=" matrix(0.707107,-0.707107,0.707107,0.707107,931.22158,169.825647)">
				<text style="font-family: Helvetica; font-size: 10px;fill: rgb(0%,0%,0%); stroke:none;" transform="translate(0,0) scale(1,-1)" x="0" y="0">Gene_01016</text>
			</g>
			<g transform=" matrix(0.707107,-0.707107,0.707107,0.707107,1012.456268,169.825647)">
				<text style="font-family: Helvetica; font-size: 10px;fill: rgb(0%,0%,0%); stroke:none;" transform="translate(0,0) scale(1,-1)" x="0" y="0">Gene_01017</text>
			</g>
			<g transform=" matrix(0.707107,-0.707107,0.707107,0.707107,1066.094045,169.825647)">
				<text style="font-family: Helvetica; font-size: 16px;fill: rgb(0%,0%,100%); stroke:none;" transform="translate(0,0) scale(1,-1)" x="0" y="0">Gene_01018 (83.2)</text>
			</g>
			<g transform=" matrix(0.707107,-0.707107,0.707107,0.707107,1107.695359,169.825647)">
				<text style="font-family: Helvetica; font-size: 10px;fill: rgb(0%,0%,0%); stroke:none;" transform="translate(0,0) scale(1,-1)" x="0" y="0">Gene_01019</text>
			</g>
			<g transform=" matrix(0.707107,-0.707107,0.707107,0.707107,1154.651297,169.825647)">
				<text style="font-family: Helvetica; font-size: 10px;fill: rgb(0%,0%,0%); stroke:none;" transform="translate(0,0) scale(1,-1)" x="0" y="0">Gene_01020</text>
			</g>
			<g transform=" matrix(0.707107,-0.707107,0.707107,0.707107,1204.032834,169.825647)">
				<text style="font-family: Helvetica; font-size: 10px;fill: rgb(0%,0%,0%); stroke:none;" transform="translate(0,0) scale(1,-1)" x="0" y="0">Gene_01021</text>
			</g>
			<g transform=" matrix(0.707107,-0.707107,0.707107,0.707107,1238.12852,169.825647)">
				<text style="font-family: Helvetica; font-size: 10px;fill: rgb(0%,0%,0%); stroke:none;" transform="translate(0,0) scale(1,-1)" x="0" y="0">Gene_01022</text>
			</g>
			<g transform=" matrix(0.707107,-0.707107,0.707107,0.707107,1277.487299,169.825647)">
				<text style="font-family: Helvetica; font-size: 10px;fill: rgb(0%,0%,0%); stroke:none;" transform="translate(0,0) scale(1,-1)" x="0" y="0">Gene_01023</text>
			</g>
			<g transform=" matrix(0.707107,-0.707107,0.707107,0.707107,1318.447888,169.825647)">
				<text style="font-family: Helvetica; font-size: 10px;fill: rgb(0%,0%,0%); stroke:none;" transform="translate(0,0) scale(1,-1)" x="0" y="0">Gene_01024</text>
			</g>
			<g transform=" matrix(0.707107,0.707107,-0.707107,0.707107,124.778515,538.835771)">
				<text style="font-family: Helvetica; font-size: 10px;fill: rgb(0%,0%,0%); stroke:none;" transform="translate(0,0) scale(1,-1)" x="0" y="0">Gene_00728</text>
			</g>
			<g transform=" matrix(0.707107,0.707107,-0.707107,0.707107,231.916771,538.835771)">
				<text style="font-family: Helvetica; font-size: 10px;fill: rgb(0%,0%,0%); stroke:none;" transform="translate(0,0) scale(1,-1)" x="0" y="0">Gene_00729</text>
			</g>
			<g transform=" matrix(0.707107,0.707107,-0.707107,0.707107,301.29806,538.835771)">
				<text style="font-family: Helvetica; font-size: 10px;fill: rgb(0%,0%,0%); stroke:none;" transform="translate(0,0) scale(1,-1)" x="0" y="0">Gene_00730</text>
			</g>
			<g transform=" matrix(0.707107,-0.707107,0.707107,0.707107,327.06433,456.833521)">
				<text style="font-family: Helvetica; font-size: 10px;fill: rgb(0%,0%,0%); stroke:none;" transform="translate(0,0) scale(1,-1)" x="0" y="0">Gene_00731</text>
			</g>
			<g transform=" matrix(0.707107,-0.707107,0.707107,0.707107,374.34063,456.833521)">
				<text style="font-family: Helvetica; font-size: 10px;fill: rgb(0%,0%,0%); stroke:none;" transform="translate(0,0) scale(1,-1)" x="0" y="0">Gene_00732</text>
			</g>
			<g transform=" matrix(0.707107,-0.707107,0.707107,0.707107,454.248104,456.833521)">
				<text style="font-family: Helvetica; font-size: 10px;fill: rgb(0%,0%,0%); stroke:none;" transform="translate(0,0) scale(1,-1)" x="0" y="0">Gene_00733</text>
			</g>
			<g transform=" matrix(0.707107,-0.707107,0.707107,0.707107,532.370703,456.833521)">
				<text style="font-family: Helvetica; font-size: 10px;fill: rgb(0%,0%,0%); stroke:none;" transform="translate(0,0) scale(1,-1)" x="0" y="0">Gene_00734</text>
			</g>
			<g transform=" matrix(0.707107,-0.707107,0.707107,0.707107,590.173188,456.833521)">
				<text style="font-family: Helvetica; font-size: 10px;fill: rgb(0%,0%,0%); stroke:none;" transform="translate(0,0) scale(1,-1)" x="0" y="0">Gene_00735</text>
			</g>
			<g transform=" matrix(0.707107,-0.707107,0.707107,0.707107,631.774501,456.833521)">
				<text style="font-family: Helvetica; font-size: 10px;fill: rgb(0%,0%,0%); stroke:none;" transform="translate(0,0) scale(1,-1)" x="0" y="0">Gene_00736</text>
			</g>
			<g transform=" matrix(0.707107,-0.707107,0.707107,0.707107,672.368962,456.833521)">
				<text style="font-family: Helvetica; font-size: 10px;fill: rgb(0%,0%,0%); stroke:none;" transform="translate(0,0) scale(1,-1)" x="0" y="0">Gene_00737</text>
			</g>
			<g transform=" matrix(0.707107,-0.707107,0.707107,0.707107,688.982028,456.833521)">
				<text style="font-family: Helvetica; font-size: 10px;fill: rgb(0%,0%,0%); stroke:none;" transform="translate(0,0) scale(1,-1)" x="0" y="0">Gene_00738</text>
			</g>
			<g transform=" matrix(0.707107,-0.707107,0.707107,0.707107,740.789164,456.833521)">
				<text style="font-family: Helvetica; font-size: 10px;fill: rgb(0%,0%,0%); stroke:none;" transform="translate(0,0) scale(1,-1)" x="0" y="0">Gene_00739</text>
			</g>
			<g transform=" matrix(0.707107,-0.707107,0.707107,0.707107,806.051511,456.833521)">
				<text style="font-family: Helvetica; font-size: 10px;fill: rgb(0%,0%,0%); stroke:none;" transform="translate(0,0) scale(1,-1)" x="0" y="0">Gene_00740</text>
			</g>
			<g transform=" matrix(0.707107,-0.707107,0.707107,0.707107,899.231131,456.833521)">
				<text style="font-family: Helvetica; font-size: 10px;fill: rgb(0%,0%,0%); stroke:none;" transform="translate(0,0) scale(1,-1)" x="0" y="0">Gene_00741</text>
			</g>
			<g transform=" matrix(0.707107,-0.707107,0.707107,0.707107,979.962393,456.833521)">
				<text style="font-family: Helvetica; font-size: 10px;fill: rgb(0%,0%,0%); stroke:none;" transform="translate(0,0) scale(1,-1)" x="0" y="0">Gene_00742</text>
			</g>
			<g transform=" matrix(0.707107,-0.707107,0.707107,0.707107,1024.218136,456.833521)">
				<text style="font-family: Helvetica; font-size: 16px;fill: rgb(0%,0%,100%); stroke:none;" transform="translate(0,0) scale(1,-1)" x="0" y="0">Gene_00743 (83.2)</text>
			</g>
			<g transform=" matrix(0.707107,-0.707107,0.707107,0.707107,1071.631734,456.833521)">
				<text style="font-family: Helvetica; font-size: 10px;fill: rgb(0%,0%,0%); stroke:none;" transform="translate(0,0) scale(1,-1)" x="0" y="0">Gene_00744</text>
			</g>
			<g transform=" matrix(0.707107,-0.707107,0.707107,0.707107,1137.626337,456.833521)">
				<text style="font-family: Helvetica; font-size: 10px;fill: rgb(0%,0%,0%); stroke:none;" transform="translate(0,0) scale(1,-1)" x="0" y="0">Gene_00745</text>
			</g>
			<g transform=" matrix(0.707107,-0.707107,0.707107,0.707107,1183.987317,456.833521)">
				<text style="font-family: Helvetica; font-size: 10px;fill: rgb(0%,0%,0%); stroke:none;" transform="translate(0,0) scale(1,-1)" x="0" y="0">Gene_00746</text>
			</g>
			<g transform=" matrix(0.707107,-0.707107,0.707107,0.707107,1221.652752,456.833521)">
				<text style="font-family: Helvetica; font-size: 10px;fill: rgb(0%,0%,0%); stroke:none;" transform="translate(0,0) scale(1,-1)" x="0" y="0">Gene_00747</text>
			</g>
			<g transform=" matrix(0.707107,-0.707107,0.707107,0.707107,1269.157883,456.833521)">
				<text style="font-family: Helvetica; font-size: 10px;fill: rgb(0%,0%,0%); stroke:none;" transform="translate(0,0) scale(1,-1)" x="0" y="0">Gene_00748</text>
			</g>
			<g transform=" matrix(1,0,-0,1,70,169.825647)">
				<text style="font-family: Helvetica; font-size: 12px;fill: rgb(60%,60%,60%); stroke:none;" transform="translate(0,0) scale(1,-1)" x="0" y="0">megahit_91991 (left 14351bp, right 2818bp)</text>
			</g>
			<g transform=" matrix(1,0,-0,1,70,456.833521)">
				<text style="font-family: Helvetica; font-size: 12px;fill: rgb(60%,60%,60%); stroke:none;" transform="translate(0,0) scale(1,-1)" x="0" y="0">megahit_157010 (left 42673bp, right 2966bp)</text>
			</g>
		</g>
	</g>
</svg>
