<?xml version="1.0" encoding="utf-8"?>
<!DOCTYPE svg
  PUBLIC '-//W3C//DTD SVG 1.0//EN'
  'http://www.w3.org/TR/2001/REC-SVG-20010904/DTD/svg10.dtd'>
<svg fill-rule="evenodd" height="708.6614173228346" preserveAspectRatio="xMinYMin meet" version="1.0" viewBox="0 0 1417 708" width="1417.3228346456692" xmlns="http://www.w3.org/2000/svg" xmlns:xlink="http://www.w3.org/1999/xlink">
	<title>...</title>
	<desc>...</desc>
	<clipPath id="clip">
		<rect height="708.6614173228346" width="1417.3228346456692" x="0" y="0"/>
	</clipPath>
	<g id="group" style="clip-path: url(#clip)" transform="scale(1,-1) translate(0,-708)">
		<g transform="">
			<polygon points="70.86614 169.8256, 1346.397 169.8256, 1346.397 251.8279, 70.86614 251.8279" style="stroke: rgb(96%,96%,96%); stroke-linecap: butt; stroke-width: 1; fill: rgb(96%,96%,96%); fill-rule: evenodd;"/>
			<polygon points="70.86614 456.8335, 234.6947 456.8335, 234.6947 538.8358, 70.86614 538.8358" style="stroke: rgb(96%,96%,96%); stroke-linecap: butt; stroke-width: 1; fill: rgb(96%,96%,96%); fill-rule: evenodd;"/>
			<polygon points="192.1612 456.8335, 226.069 456.8335, 682.5761 251.8279, 716.365 251.8279" style="stroke: rgb(100%,31%,31%); stroke-linecap: round; stroke-width: 1; fill: rgb(100%,31%,31%); fill-rule: evenodd;"/>
			<polygon points="148.7948 200.5765, 87.26659 200.5765, 87.26659 210.8268, 70.86614 190.3262, 87.26659 169.8256, 87.26659 180.0759, 148.7948 180.0759" style="stroke: rgb(56%,93%,56%); stroke-linecap: round; stroke-width: 1; fill: rgb(56%,93%,56%); fill-rule: evenodd;"/>
			<polygon points="178.6575 200.5765, 168.5265 200.5765, 168.5265 210.8268, 152.1261 190.3262, 168.5265 169.8256, 168.5265 180.0759, 178.6575 180.0759" style="stroke: rgb(56%,93%,56%); stroke-linecap: round; stroke-width: 1; fill: rgb(56%,93%,56%); fill-rule: evenodd;"/>
			<polygon points="189.9601 200.5765, 189.9601 210.8268, 179.3119 190.3262, 189.9601 169.8256, 189.9601 180.0759" style="stroke: rgb(56%,93%,56%); stroke-linecap: round; stroke-width: 1; fill: rgb(56%,93%,56%); fill-rule: evenodd;"/>
			<polygon points="221.8454 200.5765, 207.2529 200.5765, 207.2529 210.8268, 190.8524 190.3262, 207.2529 169.8256, 207.2529 180.0759, 221.8454 180.0759" style="stroke: rgb(56%,93%,56%); stroke-linecap: round; stroke-width: 1; fill: rgb(56%,93%,56%); fill-rule: evenodd;"/>
			<polygon points="244.4507 200.5765, 238.9597 200.5765, 238.9597 210.8268, 222.5593 190.3262, 238.9597 169.8256, 238.9597 180.0759, 244.4507 180.0759" style="stroke: rgb(56%,93%,56%); stroke-linecap: round; stroke-width: 1; fill: rgb(56%,93%,56%); fill-rule: evenodd;"/>
			<polygon points="277.3473 200.5765, 261.684 200.5765, 261.684 210.8268, 245.2835 190.3262, 261.684 169.8256, 261.684 180.0759, 277.3473 180.0759" style="stroke: rgb(56%,93%,56%); stroke-linecap: round; stroke-width: 1; fill: rgb(56%,93%,56%); fill-rule: evenodd;"/>
			<polygon points="301.3207 200.5765, 294.4021 200.5765, 294.4021 210.8268, 278.0016 190.3262, 294.4021 169.8256, 294.4021 180.0759, 301.3207 180.0759" style="stroke: rgb(56%,93%,56%); stroke-linecap: round; stroke-width: 1; fill: rgb(56%,93%,56%); fill-rule: evenodd;"/>
			<polygon points="313.0398 200.5765, 313.0398 210.8268, 302.0346 190.3262, 313.0398 169.8256, 313.0398 180.0759" style="stroke: rgb(56%,93%,56%); stroke-linecap: round; stroke-width: 1; fill: rgb(56%,93%,56%); fill-rule: evenodd;"/>
			<polygon points="347.0666 200.5765, 330.3325 200.5765, 330.3325 210.8268, 313.9321 190.3262, 330.3325 169.8256, 330.3325 180.0759, 347.0666 180.0759" style="stroke: rgb(56%,93%,56%); stroke-linecap: round; stroke-width: 1; fill: rgb(56%,93%,56%); fill-rule: evenodd;"/>
			<polygon points="373.8955 200.5765, 364.4784 200.5765, 364.4784 210.8268, 348.0779 190.3262, 364.4784 169.8256, 364.4784 180.0759, 373.8955 180.0759" style="stroke: rgb(56%,93%,56%); stroke-linecap: round; stroke-width: 1; fill: rgb(56%,93%,56%); fill-rule: evenodd;"/>
			<polygon points="396.5602 200.5765, 391.0693 200.5765, 391.0693 210.8268, 374.6688 190.3262, 391.0693 169.8256, 391.0693 180.0759, 396.5602 180.0759" style="stroke: rgb(56%,93%,56%); stroke-linecap: round; stroke-width: 1; fill: rgb(56%,93%,56%); fill-rule: evenodd;"/>
			<polygon points="412.8598 200.5765, 412.8598 210.8268, 397.75 190.3262, 412.8598 169.8256, 412.8598 180.0759" style="stroke: rgb(56%,93%,56%); stroke-linecap: round; stroke-width: 1; fill: rgb(56%,93%,56%); fill-rule: evenodd;"/>
			<polygon points="425.5306 200.5765, 425.5306 210.8268, 413.6331 190.3262, 425.5306 169.8256, 425.5306 180.0759" style="stroke: rgb(56%,93%,56%); stroke-linecap: round; stroke-width: 1; fill: rgb(56%,93%,56%); fill-rule: evenodd;"/>
			<polygon points="453.4898 200.5765, 441.7526 200.5765, 441.7526 210.8268, 425.3522 190.3262, 441.7526 169.8256, 441.7526 180.0759, 453.4898 180.0759" style="stroke: rgb(56%,93%,56%); stroke-linecap: round; stroke-width: 1; fill: rgb(56%,93%,56%); fill-rule: evenodd;"/>
			<polygon points="492.4541 200.5765, 469.1169 200.5765, 469.1169 210.8268, 452.7164 190.3262, 469.1169 169.8256, 469.1169 180.0759, 492.4541 180.0759" style="stroke: rgb(56%,93%,56%); stroke-linecap: round; stroke-width: 1; fill: rgb(56%,93%,56%); fill-rule: evenodd;"/>
			<polygon points="516.5465 200.5765, 509.8063 200.5765, 509.8063 210.8268, 493.4059 190.3262, 509.8063 169.8256, 509.8063 180.0759, 516.5465 180.0759" style="stroke: rgb(56%,93%,56%); stroke-linecap: round; stroke-width: 1; fill: rgb(56%,93%,56%); fill-rule: evenodd;"/>
			<polygon points="534.1548 200.5765, 534.0177 200.5765, 534.0177 210.8268, 517.6173 190.3262, 534.0177 169.8256, 534.0177 180.0759, 534.1548 180.0759" style="stroke: rgb(56%,93%,56%); stroke-linecap: round; stroke-width: 1; fill: rgb(56%,93%,56%); fill-rule: evenodd;"/>
			<polygon points="584.1243 200.5765, 551.5071 200.5765, 551.5071 210.8268, 535.1066 190.3262, 551.5071 169.8256, 551.5071 180.0759, 584.1243 180.0759" style="stroke: rgb(56%,93%,56%); stroke-linecap: round; stroke-width: 1; fill: rgb(56%,93%,56%); fill-rule: evenodd;"/>
			<polygon points="602.6844 200.5765, 601.8335 200.5765, 601.8335 210.8268, 585.4331 190.3262, 601.8335 169.8256, 601.8335 180.0759, 602.6844 180.0759" style="stroke: rgb(56%,93%,56%); stroke-linecap: round; stroke-width: 1; fill: rgb(56%,93%,56%); fill-rule: evenodd;"/>
			<polygon points="639.9236 200.5765, 619.0849 200.5765, 619.0849 210.8268, 602.6844 190.3262, 619.0849 169.8256, 619.0849 180.0759, 639.9236 180.0759" style="stroke: rgb(56%,93%,56%); stroke-linecap: round; stroke-width: 1; fill: rgb(56%,93%,56%); fill-rule: evenodd;"/>
			<polygon points="678.4715 200.5765, 657.0974 200.5765, 657.0974 210.8268, 640.6969 190.3262, 657.0974 169.8256, 657.0974 180.0759, 678.4715 180.0759" style="stroke: rgb(56%,93%,56%); stroke-linecap: round; stroke-width: 1; fill: rgb(56%,93%,56%); fill-rule: evenodd;"/>
			<polygon points="700.3629 200.5765, 698.9766 200.5765, 698.9766 210.8268, 682.5761 190.3262, 698.9766 169.8256, 698.9766 180.0759, 700.3629 180.0759" style="stroke: rgb(56%,93%,56%); stroke-linecap: round; stroke-width: 1; fill: rgb(56%,93%,56%); fill-rule: evenodd;"/>
			<polygon points="774.7818 200.5765, 749.8384 200.5765, 749.8384 210.8268, 733.438 190.3262, 749.8384 169.8256, 749.8384 180.0759, 774.7818 180.0759" style="stroke: rgb(56%,93%,56%); stroke-linecap: round; stroke-width: 1; fill: rgb(56%,93%,56%); fill-rule: evenodd;"/>
			<polygon points="827.8446 200.5765, 791.8366 200.5765, 791.8366 210.8268, 775.4361 190.3262, 791.8366 169.8256, 791.8366 180.0759, 827.8446 180.0759" style="stroke: rgb(56%,93%,56%); stroke-linecap: round; stroke-width: 1; fill: rgb(56%,93%,56%); fill-rule: evenodd;"/>
			<polygon points="862.6448 200.5765, 847.8738 200.5765, 847.8738 210.8268, 831.4734 190.3262, 847.8738 169.8256, 847.8738 180.0759, 862.6448 180.0759" style="stroke: rgb(56%,93%,56%); stroke-linecap: round; stroke-width: 1; fill: rgb(56%,93%,56%); fill-rule: evenodd;"/>
			<polygon points="882.1567 200.5765, 877.915 200.5765, 877.915 210.8268, 861.5146 190.3262, 877.915 169.8256, 877.915 180.0759, 882.1567 180.0759" style="stroke: rgb(56%,93%,56%); stroke-linecap: round; stroke-width: 1; fill: rgb(56%,93%,56%); fill-rule: evenodd;"/>
			<polygon points="894.2327 241.5776, 899.7236 241.5776, 899.7236 251.8279, 916.1241 231.3273, 899.7236 210.8268, 899.7236 221.0771, 894.2327 221.0771" style="stroke: rgb(67%,84%,90%); stroke-linecap: round; stroke-width: 1; fill: rgb(67%,84%,90%); fill-rule: evenodd;"/>
			<polygon points="957.5274 241.5776, 968.3722 241.5776, 968.3722 251.8279, 984.7727 231.3273, 968.3722 210.8268, 968.3722 221.0771, 957.5274 221.0771" style="stroke: rgb(67%,84%,90%); stroke-linecap: round; stroke-width: 1; fill: rgb(67%,84%,90%); fill-rule: evenodd;"/>
			<polygon points="1030.34 200.5765, 1030.34 210.8268, 1020.049 190.3262, 1030.34 169.8256, 1030.34 180.0759" style="stroke: rgb(56%,93%,56%); stroke-linecap: round; stroke-width: 1; fill: rgb(56%,93%,56%); fill-rule: evenodd;"/>
			<polygon points="1103.748 200.5765, 1053.463 200.5765, 1053.463 210.8268, 1037.062 190.3262, 1053.463 169.8256, 1053.463 180.0759, 1103.748 180.0759" style="stroke: rgb(56%,93%,56%); stroke-linecap: round; stroke-width: 1; fill: rgb(56%,93%,56%); fill-rule: evenodd;"/>
			<polygon points="1160.261 200.5765, 1119.97 200.5765, 1119.97 210.8268, 1103.569 190.3262, 1119.97 169.8256, 1119.97 180.0759, 1160.261 180.0759" style="stroke: rgb(56%,93%,56%); stroke-linecap: round; stroke-width: 1; fill: rgb(56%,93%,56%); fill-rule: evenodd;"/>
			<polygon points="1198.928 200.5765, 1176.483 200.5765, 1176.483 210.8268, 1160.082 190.3262, 1176.483 169.8256, 1176.483 180.0759, 1198.928 180.0759" style="stroke: rgb(56%,93%,56%); stroke-linecap: round; stroke-width: 1; fill: rgb(56%,93%,56%); fill-rule: evenodd;"/>
			<polygon points="1280.782 200.5765, 1215.15 200.5765, 1215.15 210.8268, 1198.749 190.3262, 1215.15 169.8256, 1215.15 180.0759, 1280.782 180.0759" style="stroke: rgb(56%,93%,56%); stroke-linecap: round; stroke-width: 1; fill: rgb(56%,93%,56%); fill-rule: evenodd;"/>
			<polygon points="1346.397 200.5765, 1297.004 200.5765, 1297.004 210.8268, 1280.604 190.3262, 1297.004 169.8256, 1297.004 180.0759, 1346.397 180.0759" style="stroke: rgb(56%,93%,56%); stroke-linecap: round; stroke-width: 1; fill: rgb(56%,93%,56%); fill-rule: evenodd;"/>
			<polygon points="125.7136 487.5844, 88.6348 487.5844, 88.6348 497.8346, 72.23435 477.3341, 88.6348 456.8335, 88.6348 467.0838, 125.7136 467.0838" style="stroke: rgb(56%,93%,56%); stroke-linecap: round; stroke-width: 1; fill: rgb(56%,93%,56%); fill-rule: evenodd;"/>
			<polygon points="141.3588 528.5855, 150.2406 528.5855, 150.2406 538.8358, 166.641 518.3352, 150.2406 497.8346, 150.2406 508.0849, 141.3588 508.0849" style="stroke: rgb(67%,84%,90%); stroke-linecap: round; stroke-width: 1; fill: rgb(67%,84%,90%); fill-rule: evenodd;"/>
			<polygon points="208.2823 528.5855, 209.6686 528.5855, 209.6686 538.8358, 226.069 518.3352, 209.6686 497.8346, 209.6686 508.0849, 208.2823 508.0849" style="stroke: rgb(67%,84%,90%); stroke-linecap: round; stroke-width: 1; fill: rgb(67%,84%,90%); fill-rule: evenodd;"/>
			<path d="M 1346.397205,169.825647 L 1346.397205,251.827897 Z" style="stroke: rgb(0%,0%,0%); stroke-linecap: butt; stroke-width: 1;"/>
			<path d="M 70.866142,210.826772 L 1346.397205,210.826772 Z" style="stroke: rgb(0%,0%,0%); stroke-linecap: butt; stroke-width: 1;"/>
			<path d="M 70.866142,169.825647 L 70.866142,251.827897 Z" style="stroke: rgb(0%,0%,0%); stroke-linecap: butt; stroke-width: 1;"/>
			<path d="M 665.741183,210.826772 L 665.741183,231.327334 Z" style="stroke: rgb(0%,0%,0%); stroke-linecap: butt; stroke-width: 1;"/>
			<path d="M 1260.616224,210.826772 L 1260.616224,231.327334 Z" style="stroke: rgb(0%,0%,0%); stroke-linecap: butt; stroke-width: 1;"/>
			<path d="M 665.741183,210.826772 L 665.741183,223.127109 Z" style="stroke: rgb(0%,0%,0%); stroke-linecap: butt; stroke-width: 1;"/>
			<path d="M 1260.616224,210.826772 L 1260.616224,223.127109 Z" style="stroke: rgb(0%,0%,0%); stroke-linecap: butt; stroke-width: 1;"/>
			<path d="M 234.694728,456.833521 L 234.694728,538.835771 Z" style="stroke: rgb(0%,0%,0%); stroke-linecap: butt; stroke-width: 1;"/>
			<path d="M 70.866142,497.834646 L 234.694728,497.834646 Z" style="stroke: rgb(0%,0%,0%); stroke-linecap: butt; stroke-width: 1;"/>
			<path d="M 70.866142,456.833521 L 70.866142,538.835771 Z" style="stroke: rgb(0%,0%,0%); stroke-linecap: butt; stroke-width: 1;"/>
			<g transform=" matrix(0.707107,0.707107,-0.707107,0.707107,665.741183,231.327334)">
				<text style="font-family: Helvetica; font-size: 6px;fill: rgb(0%,0%,0%); stroke:none;" transform="translate(0,0) scale(1,-1)" x="0" y="0">10000</text>
			</g>
			<g transform=" matrix(0.707107,0.707107,-0.707107,0.707107,1260.616224,231.327334)">
				<text style="font-family: Helvetica; font-size: 6px;fill: rgb(0%,0%,0%); stroke:none;" transform="translate(0,0) scale(1,-1)" x="0" y="0">20000</text>
			</g>
			<g transform=" matrix(0.707107,-0.707107,0.707107,0.707107,109.830457,169.825647)">
				<text style="font-family: Helvetica; font-size: 10px;fill: rgb(0%,0%,0%); stroke:none;" transform="translate(0,0) scale(1,-1)" x="0" y="0">Gene_00700</text>
			</g>
			<g transform=" matrix(0.707107,-0.707107,0.707107,0.707107,165.391786,169.825647)">
				<text style="font-family: Helvetica; font-size: 10px;fill: rgb(0%,0%,0%); stroke:none;" transform="translate(0,0) scale(1,-1)" x="0" y="0">Gene_00701</text>
			</g>
			<g transform=" matrix(0.707107,-0.707107,0.707107,0.707107,184.635993,169.825647)">
				<text style="font-family: Helvetica; font-size: 10px;fill: rgb(0%,0%,0%); stroke:none;" transform="translate(0,0) scale(1,-1)" x="0" y="0">Gene_00702</text>
			</g>
			<g transform=" matrix(0.707107,-0.707107,0.707107,0.707107,206.348932,169.825647)">
				<text style="font-family: Helvetica; font-size: 10px;fill: rgb(0%,0%,0%); stroke:none;" transform="translate(0,0) scale(1,-1)" x="0" y="0">Gene_00703</text>
			</g>
			<g transform=" matrix(0.707107,-0.707107,0.707107,0.707107,233.504978,169.825647)">
				<text style="font-family: Helvetica; font-size: 10px;fill: rgb(0%,0%,0%); stroke:none;" transform="translate(0,0) scale(1,-1)" x="0" y="0">Gene_00704</text>
			</g>
			<g transform=" matrix(0.707107,-0.707107,0.707107,0.707107,261.315386,169.825647)">
				<text style="font-family: Helvetica; font-size: 10px;fill: rgb(0%,0%,0%); stroke:none;" transform="translate(0,0) scale(1,-1)" x="0" y="0">Gene_00705</text>
			</g>
			<g transform=" matrix(0.707107,-0.707107,0.707107,0.707107,289.661182,169.825647)">
				<text style="font-family: Helvetica; font-size: 10px;fill: rgb(0%,0%,0%); stroke:none;" transform="translate(0,0) scale(1,-1)" x="0" y="0">Gene_00706</text>
			</g>
			<g transform=" matrix(0.707107,-0.707107,0.707107,0.707107,307.537177,169.825647)">
				<text style="font-family: Helvetica; font-size: 10px;fill: rgb(0%,0%,0%); stroke:none;" transform="translate(0,0) scale(1,-1)" x="0" y="0">Gene_00707</text>
			</g>
			<g transform=" matrix(0.707107,-0.707107,0.707107,0.707107,330.499354,169.825647)">
				<text style="font-family: Helvetica; font-size: 10px;fill: rgb(0%,0%,0%); stroke:none;" transform="translate(0,0) scale(1,-1)" x="0" y="0">Gene_00708</text>
			</g>
			<g transform=" matrix(0.707107,-0.707107,0.707107,0.707107,360.986699,169.825647)">
				<text style="font-family: Helvetica; font-size: 10px;fill: rgb(0%,0%,0%); stroke:none;" transform="translate(0,0) scale(1,-1)" x="0" y="0">Gene_00709</text>
			</g>
			<g transform=" matrix(0.707107,-0.707107,0.707107,0.707107,385.614526,169.825647)">
				<text style="font-family: Helvetica; font-size: 10px;fill: rgb(0%,0%,0%); stroke:none;" transform="translate(0,0) scale(1,-1)" x="0" y="0">Gene_00710</text>
			</g>
			<g transform=" matrix(0.707107,-0.707107,0.707107,0.707107,405.30489,169.825647)">
				<text style="font-family: Helvetica; font-size: 10px;fill: rgb(0%,0%,0%); stroke:none;" transform="translate(0,0) scale(1,-1)" x="0" y="0">Gene_00711</text>
			</g>
			<g transform=" matrix(0.707107,-0.707107,0.707107,0.707107,419.581891,169.825647)">
				<text style="font-family: Helvetica; font-size: 10px;fill: rgb(0%,0%,0%); stroke:none;" transform="translate(0,0) scale(1,-1)" x="0" y="0">Gene_00712</text>
			</g>
			<g transform=" matrix(0.707107,-0.707107,0.707107,0.707107,439.420974,169.825647)">
				<text style="font-family: Helvetica; font-size: 10px;fill: rgb(0%,0%,0%); stroke:none;" transform="translate(0,0) scale(1,-1)" x="0" y="0">Gene_00713</text>
			</g>
			<g transform=" matrix(0.707107,-0.707107,0.707107,0.707107,472.585257,169.825647)">
				<text style="font-family: Helvetica; font-size: 10px;fill: rgb(0%,0%,0%); stroke:none;" transform="translate(0,0) scale(1,-1)" x="0" y="0">Gene_00714</text>
			</g>
			<g transform=" matrix(0.707107,-0.707107,0.707107,0.707107,504.976203,169.825647)">
				<text style="font-family: Helvetica; font-size: 10px;fill: rgb(0%,0%,0%); stroke:none;" transform="translate(0,0) scale(1,-1)" x="0" y="0">Gene_00715</text>
			</g>
			<g transform=" matrix(0.707107,-0.707107,0.707107,0.707107,525.886061,169.825647)">
				<text style="font-family: Helvetica; font-size: 10px;fill: rgb(0%,0%,0%); stroke:none;" transform="translate(0,0) scale(1,-1)" x="0" y="0">Gene_00716</text>
			</g>
			<g transform=" matrix(0.707107,-0.707107,0.707107,0.707107,559.615476,169.825647)">
				<text style="font-family: Helvetica; font-size: 10px;fill: rgb(0%,0%,0%); stroke:none;" transform="translate(0,0) scale(1,-1)" x="0" y="0">Gene_00717</text>
			</g>
			<g transform=" matrix(0.707107,-0.707107,0.707107,0.707107,594.058741,169.825647)">
				<text style="font-family: Helvetica; font-size: 10px;fill: rgb(0%,0%,0%); stroke:none;" transform="translate(0,0) scale(1,-1)" x="0" y="0">Gene_00718</text>
			</g>
			<g transform=" matrix(0.707107,-0.707107,0.707107,0.707107,621.304017,169.825647)">
				<text style="font-family: Helvetica; font-size: 10px;fill: rgb(0%,0%,0%); stroke:none;" transform="translate(0,0) scale(1,-1)" x="0" y="0">Gene_00719</text>
			</g>
			<g transform=" matrix(0.707107,-0.707107,0.707107,0.707107,659.584226,169.825647)">
				<text style="font-family: Helvetica; font-size: 10px;fill: rgb(0%,0%,0%); stroke:none;" transform="translate(0,0) scale(1,-1)" x="0" y="0">Gene_00720</text>
			</g>
			<g transform=" matrix(0.707107,-0.707107,0.707107,0.707107,691.469529,169.825647)">
				<text style="font-family: Helvetica; font-size: 16px;fill: rgb(0%,0%,100%); stroke:none;" transform="translate(0,0) scale(1,-1)" x="0" y="0">Gene_00721 (89.0)</text>
			</g>
			<g transform=" matrix(0.707107,-0.707107,0.707107,0.707107,754.10987,169.825647)">
				<text style="font-family: Helvetica; font-size: 10px;fill: rgb(0%,0%,0%); stroke:none;" transform="translate(0,0) scale(1,-1)" x="0" y="0">Gene_00722</text>
			</g>
			<g transform=" matrix(0.707107,-0.707107,0.707107,0.707107,801.640386,169.825647)">
				<text style="font-family: Helvetica; font-size: 10px;fill: rgb(0%,0%,0%); stroke:none;" transform="translate(0,0) scale(1,-1)" x="0" y="0">Gene_00723</text>
			</g>
			<g transform=" matrix(0.707107,-0.707107,0.707107,0.707107,847.059096,169.825647)">
				<text style="font-family: Helvetica; font-size: 10px;fill: rgb(0%,0%,0%); stroke:none;" transform="translate(0,0) scale(1,-1)" x="0" y="0">Gene_00724</text>
			</g>
			<g transform=" matrix(0.707107,-0.707107,0.707107,0.707107,871.835641,169.825647)">
				<text style="font-family: Helvetica; font-size: 10px;fill: rgb(0%,0%,0%); stroke:none;" transform="translate(0,0) scale(1,-1)" x="0" y="0">Gene_00725</text>
			</g>
			<g transform=" matrix(0.707107,0.707107,-0.707107,0.707107,905.178387,251.827897)">
				<text style="font-family: Helvetica; font-size: 10px;fill: rgb(0%,0%,0%); stroke:none;" transform="translate(0,0) scale(1,-1)" x="0" y="0">Gene_00726</text>
			</g>
			<g transform=" matrix(0.707107,0.707107,-0.707107,0.707107,971.150029,251.827897)">
				<text style="font-family: Helvetica; font-size: 10px;fill: rgb(0%,0%,0%); stroke:none;" transform="translate(0,0) scale(1,-1)" x="0" y="0">Gene_00727</text>
			</g>
			<g transform=" matrix(0.707107,-0.707107,0.707107,0.707107,1025.194427,169.825647)">
				<text style="font-family: Helvetica; font-size: 10px;fill: rgb(0%,0%,0%); stroke:none;" transform="translate(0,0) scale(1,-1)" x="0" y="0">Gene_00728</text>
			</g>
			<g transform=" matrix(0.707107,-0.707107,0.707107,0.707107,1070.40493,169.825647)">
				<text style="font-family: Helvetica; font-size: 10px;fill: rgb(0%,0%,0%); stroke:none;" transform="translate(0,0) scale(1,-1)" x="0" y="0">Gene_00729</text>
			</g>
			<g transform=" matrix(0.707107,-0.707107,0.707107,0.707107,1131.915009,169.825647)">
				<text style="font-family: Helvetica; font-size: 10px;fill: rgb(0%,0%,0%); stroke:none;" transform="translate(0,0) scale(1,-1)" x="0" y="0">Gene_00730</text>
			</g>
			<g transform=" matrix(0.707107,-0.707107,0.707107,0.707107,1179.505013,169.825647)">
				<text style="font-family: Helvetica; font-size: 10px;fill: rgb(0%,0%,0%); stroke:none;" transform="translate(0,0) scale(1,-1)" x="0" y="0">Gene_00731</text>
			</g>
			<g transform=" matrix(0.707107,-0.707107,0.707107,0.707107,1239.765854,169.825647)">
				<text style="font-family: Helvetica; font-size: 10px;fill: rgb(0%,0%,0%); stroke:none;" transform="translate(0,0) scale(1,-1)" x="0" y="0">Gene_00732</text>
			</g>
			<g transform=" matrix(0.707107,-0.707107,0.707107,0.707107,1313.500616,169.825647)">
				<text style="font-family: Helvetica; font-size: 10px;fill: rgb(0%,0%,0%); stroke:none;" transform="translate(0,0) scale(1,-1)" x="0" y="0">Gene_00733</text>
			</g>
			<g transform=" matrix(0.707107,-0.707107,0.707107,0.707107,98.973987,456.833521)">
				<text style="font-family: Helvetica; font-size: 10px;fill: rgb(0%,0%,0%); stroke:none;" transform="translate(0,0) scale(1,-1)" x="0" y="0">Gene_00826</text>
			</g>
			<g transform=" matrix(0.707107,0.707107,-0.707107,0.707107,153.999929,538.835771)">
				<text style="font-family: Helvetica; font-size: 10px;fill: rgb(0%,0%,0%); stroke:none;" transform="translate(0,0) scale(1,-1)" x="0" y="0">Gene_00827</text>
			</g>
			<g transform=" matrix(0.707107,0.707107,-0.707107,0.707107,217.175658,538.835771)">
				<text style="font-family: Helvetica; font-size: 16px;fill: rgb(0%,0%,100%); stroke:none;" transform="translate(0,0) scale(1,-1)" x="0" y="0">Gene_00828 (89.0)</text>
			</g>
			<g transform=" matrix(1,0,-0,1,70,169.825647)">
				<text style="font-family: Helvetica; font-size: 12px;fill: rgb(60%,60%,60%); stroke:none;" transform="translate(0,0) scale(1,-1)" x="0" y="0">megahit_68943 (left 67948bp, right 22402bp)</text>
			</g>
		</g>
	</g>
</svg>
