<?xml version="1.0" encoding="utf-8"?>
<!DOCTYPE svg
  PUBLIC '-//W3C//DTD SVG 1.0//EN'
  'http://www.w3.org/TR/2001/REC-SVG-20010904/DTD/svg10.dtd'>
<svg fill-rule="evenodd" height="708.6614173228346" preserveAspectRatio="xMinYMin meet" version="1.0" viewBox="0 0 1417 708" width="1417.3228346456692" xmlns="http://www.w3.org/2000/svg" xmlns:xlink="http://www.w3.org/1999/xlink">
	<title>...</title>
	<desc>...</desc>
	<clipPath id="clip">
		<rect height="708.6614173228346" width="1417.3228346456692" x="0" y="0"/>
	</clipPath>
	<g id="group" style="clip-path: url(#clip)" transform="scale(1,-1) translate(0,-708)">
		<g transform="">
			<polygon points="70.86614 169.8256, 1346.395 169.8256, 1346.395 251.8279, 70.86614 251.8279" style="stroke: rgb(96%,96%,96%); stroke-linecap: butt; stroke-width: 1; fill: rgb(96%,96%,96%); fill-rule: evenodd;"/>
			<polygon points="70.86614 456.8335, 969.7636 456.8335, 969.7636 538.8358, 70.86614 538.8358" style="stroke: rgb(96%,96%,96%); stroke-linecap: butt; stroke-width: 1; fill: rgb(96%,96%,96%); fill-rule: evenodd;"/>
			<polygon points="284.2128 456.8335, 489.5644 456.8335, 527.3875 251.8279, 322.2819 251.8279" style="stroke: rgb(100%,50%,50%); stroke-linecap: round; stroke-width: 1; fill: rgb(100%,50%,50%); fill-rule: evenodd;"/>
			<polygon points="532.984 456.8335, 732.001 456.8335, 763.9815 251.8279, 564.7185 251.8279" style="stroke: rgb(100%,56%,56%); stroke-linecap: round; stroke-width: 1; fill: rgb(100%,56%,56%); fill-rule: evenodd;"/>
			<polygon points="732.0625 456.8335, 836.8601 456.8335, 966.4425 251.8279, 861.645 251.8279" style="stroke: rgb(100%,45%,45%); stroke-linecap: round; stroke-width: 1; fill: rgb(100%,45%,45%); fill-rule: evenodd;"/>
			<polygon points="442.5777 456.8335, 481.3848 456.8335, 761.46 251.8279, 722.6529 251.8279" style="stroke: rgb(100%,64%,64%); stroke-linecap: round; stroke-width: 1; fill: rgb(100%,64%,64%); fill-rule: evenodd;"/>
			<polygon points="690.9799 456.8335, 729.2335 456.8335, 519.8228 251.8279, 481.5693 251.8279" style="stroke: rgb(100%,65%,65%); stroke-linecap: round; stroke-width: 1; fill: rgb(100%,65%,65%); fill-rule: evenodd;"/>
			<polygon points="156.9674 200.5765, 87.26659 200.5765, 87.26659 210.8268, 70.86614 190.3262, 87.26659 169.8256, 87.26659 180.0759, 156.9674 180.0759" style="stroke: rgb(56%,93%,56%); stroke-linecap: round; stroke-width: 1; fill: rgb(56%,93%,56%); fill-rule: evenodd;"/>
			<polygon points="173.2652 241.5776, 192.0432 241.5776, 192.0432 251.8279, 208.4437 231.3273, 192.0432 210.8268, 192.0432 221.0771, 173.2652 221.0771" style="stroke: rgb(67%,84%,90%); stroke-linecap: round; stroke-width: 1; fill: rgb(67%,84%,90%); fill-rule: evenodd;"/>
			<polygon points="222.4659 241.5776, 273.3475 241.5776, 273.3475 251.8279, 289.7479 231.3273, 273.3475 210.8268, 273.3475 221.0771, 222.4659 221.0771" style="stroke: rgb(67%,84%,90%); stroke-linecap: round; stroke-width: 1; fill: rgb(67%,84%,90%); fill-rule: evenodd;"/>
			<polygon points="479.3552 200.5765, 337.6983 200.5765, 337.6983 210.8268, 321.2979 190.3262, 337.6983 169.8256, 337.6983 180.0759, 479.3552 180.0759" style="stroke: rgb(56%,93%,56%); stroke-linecap: round; stroke-width: 1; fill: rgb(56%,93%,56%); fill-rule: evenodd;"/>
			<polygon points="525.3579 200.5765, 496.8012 200.5765, 496.8012 210.8268, 480.4008 190.3262, 496.8012 169.8256, 496.8012 180.0759, 525.3579 180.0759" style="stroke: rgb(56%,93%,56%); stroke-linecap: round; stroke-width: 1; fill: rgb(56%,93%,56%); fill-rule: evenodd;"/>
			<polygon points="560.5365 200.5765, 547.478 200.5765, 547.478 210.8268, 531.0775 190.3262, 547.478 169.8256, 547.478 180.0759, 560.5365 180.0759" style="stroke: rgb(56%,93%,56%); stroke-linecap: round; stroke-width: 1; fill: rgb(56%,93%,56%); fill-rule: evenodd;"/>
			<polygon points="721.0539 200.5765, 581.242 200.5765, 581.242 210.8268, 564.8415 190.3262, 581.242 169.8256, 581.242 180.0759, 721.0539 180.0759" style="stroke: rgb(56%,93%,56%); stroke-linecap: round; stroke-width: 1; fill: rgb(56%,93%,56%); fill-rule: evenodd;"/>
			<polygon points="762.936 200.5765, 738.4383 200.5765, 738.4383 210.8268, 722.0379 190.3262, 738.4383 169.8256, 738.4383 180.0759, 762.936 180.0759" style="stroke: rgb(56%,93%,56%); stroke-linecap: round; stroke-width: 1; fill: rgb(56%,93%,56%); fill-rule: evenodd;"/>
			<polygon points="802.9731 200.5765, 782.35 200.5765, 782.35 210.8268, 765.9495 190.3262, 782.35 169.8256, 782.35 180.0759, 802.9731 180.0759" style="stroke: rgb(56%,93%,56%); stroke-linecap: round; stroke-width: 1; fill: rgb(56%,93%,56%); fill-rule: evenodd;"/>
			<polygon points="847.6227 200.5765, 823.1251 200.5765, 823.1251 210.8268, 806.7246 190.3262, 823.1251 169.8256, 823.1251 180.0759, 847.6227 180.0759" style="stroke: rgb(56%,93%,56%); stroke-linecap: round; stroke-width: 1; fill: rgb(56%,93%,56%); fill-rule: evenodd;"/>
			<polygon points="924.6219 200.5765, 878.1684 200.5765, 878.1684 210.8268, 861.768 190.3262, 878.1684 169.8256, 878.1684 180.0759, 924.6219 180.0759" style="stroke: rgb(56%,93%,56%); stroke-linecap: round; stroke-width: 1; fill: rgb(56%,93%,56%); fill-rule: evenodd;"/>
			<polygon points="966.996 200.5765, 940.8378 200.5765, 940.8378 210.8268, 924.4374 190.3262, 940.8378 169.8256, 940.8378 180.0759, 966.996 180.0759" style="stroke: rgb(56%,93%,56%); stroke-linecap: round; stroke-width: 1; fill: rgb(56%,93%,56%); fill-rule: evenodd;"/>
			<polygon points="1075.361 200.5765, 1028.354 200.5765, 1028.354 210.8268, 1011.953 190.3262, 1028.354 169.8256, 1028.354 180.0759, 1075.361 180.0759" style="stroke: rgb(56%,93%,56%); stroke-linecap: round; stroke-width: 1; fill: rgb(56%,93%,56%); fill-rule: evenodd;"/>
			<polygon points="1116.628 200.5765, 1091.577 200.5765, 1091.577 210.8268, 1075.176 190.3262, 1091.577 169.8256, 1091.577 180.0759, 1116.628 180.0759" style="stroke: rgb(56%,93%,56%); stroke-linecap: round; stroke-width: 1; fill: rgb(56%,93%,56%); fill-rule: evenodd;"/>
			<polygon points="1170.995 200.5765, 1133.028 200.5765, 1133.028 210.8268, 1116.628 190.3262, 1133.028 169.8256, 1133.028 180.0759, 1170.995 180.0759" style="stroke: rgb(56%,93%,56%); stroke-linecap: round; stroke-width: 1; fill: rgb(56%,93%,56%); fill-rule: evenodd;"/>
			<polygon points="1279.421 200.5765, 1187.58 200.5765, 1187.58 210.8268, 1171.179 190.3262, 1187.58 169.8256, 1187.58 180.0759, 1279.421 180.0759" style="stroke: rgb(56%,93%,56%); stroke-linecap: round; stroke-width: 1; fill: rgb(56%,93%,56%); fill-rule: evenodd;"/>
			<polygon points="1318.843 200.5765, 1295.637 200.5765, 1295.637 210.8268, 1279.236 190.3262, 1295.637 169.8256, 1295.637 180.0759, 1318.843 180.0759" style="stroke: rgb(56%,93%,56%); stroke-linecap: round; stroke-width: 1; fill: rgb(56%,93%,56%); fill-rule: evenodd;"/>
			<polygon points="70.86614 528.5855, 70.86614 538.8358, 84.45784 518.3352, 70.86614 497.8346, 70.86614 508.0849" style="stroke: rgb(67%,84%,90%); stroke-linecap: round; stroke-width: 1; fill: rgb(67%,84%,90%); fill-rule: evenodd;"/>
			<polygon points="89.86993 528.5855, 94.81029 528.5855, 94.81029 538.8358, 111.2107 518.3352, 94.81029 497.8346, 94.81029 508.0849, 89.86993 508.0849" style="stroke: rgb(67%,84%,90%); stroke-linecap: round; stroke-width: 1; fill: rgb(67%,84%,90%); fill-rule: evenodd;"/>
			<polygon points="114.9623 528.5855, 124.1462 528.5855, 124.1462 538.8358, 140.5467 518.3352, 124.1462 497.8346, 124.1462 508.0849, 114.9623 508.0849" style="stroke: rgb(67%,84%,90%); stroke-linecap: round; stroke-width: 1; fill: rgb(67%,84%,90%); fill-rule: evenodd;"/>
			<polygon points="141.6537 528.5855, 160.6163 528.5855, 160.6163 538.8358, 177.0167 518.3352, 160.6163 497.8346, 160.6163 508.0849, 141.6537 508.0849" style="stroke: rgb(67%,84%,90%); stroke-linecap: round; stroke-width: 1; fill: rgb(67%,84%,90%); fill-rule: evenodd;"/>
			<polygon points="180.7068 528.5855, 207.4185 528.5855, 207.4185 538.8358, 223.8189 518.3352, 207.4185 497.8346, 207.4185 508.0849, 180.7068 508.0849" style="stroke: rgb(67%,84%,90%); stroke-linecap: round; stroke-width: 1; fill: rgb(67%,84%,90%); fill-rule: evenodd;"/>
			<polygon points="223.6344 528.5855, 237.2464 528.5855, 237.2464 538.8358, 253.6469 518.3352, 237.2464 497.8346, 237.2464 508.0849, 223.6344 508.0849" style="stroke: rgb(67%,84%,90%); stroke-linecap: round; stroke-width: 1; fill: rgb(67%,84%,90%); fill-rule: evenodd;"/>
			<polygon points="282.3063 487.5844, 273.8604 487.5844, 273.8604 497.8346, 257.4599 477.3341, 273.8604 456.8335, 273.8604 467.0838, 282.3063 467.0838" style="stroke: rgb(56%,93%,56%); stroke-linecap: round; stroke-width: 1; fill: rgb(56%,93%,56%); fill-rule: evenodd;"/>
			<polygon points="442.5777 487.5844, 299.9983 487.5844, 299.9983 497.8346, 283.5978 477.3341, 299.9983 456.8335, 299.9983 467.0838, 442.5777 467.0838" style="stroke: rgb(56%,93%,56%); stroke-linecap: round; stroke-width: 1; fill: rgb(56%,93%,56%); fill-rule: evenodd;"/>
			<polygon points="483.0453 487.5844, 458.1786 487.5844, 458.1786 497.8346, 441.7782 477.3341, 458.1786 456.8335, 458.1786 467.0838, 483.0453 467.0838" style="stroke: rgb(56%,93%,56%); stroke-linecap: round; stroke-width: 1; fill: rgb(56%,93%,56%); fill-rule: evenodd;"/>
			<polygon points="494.2385 528.5855, 494.5663 528.5855, 494.5663 538.8358, 510.9667 518.3352, 494.5663 497.8346, 494.5663 508.0849, 494.2385 508.0849" style="stroke: rgb(67%,84%,90%); stroke-linecap: round; stroke-width: 1; fill: rgb(67%,84%,90%); fill-rule: evenodd;"/>
			<polygon points="509.7982 528.5855, 512.709 528.5855, 512.709 538.8358, 529.1095 518.3352, 512.709 497.8346, 512.709 508.0849, 509.7982 508.0849" style="stroke: rgb(67%,84%,90%); stroke-linecap: round; stroke-width: 1; fill: rgb(67%,84%,90%); fill-rule: evenodd;"/>
			<polygon points="689.1349 487.5844, 549.5075 487.5844, 549.5075 497.8346, 533.107 477.3341, 549.5075 456.8335, 549.5075 467.0838, 689.1349 467.0838" style="stroke: rgb(56%,93%,56%); stroke-linecap: round; stroke-width: 1; fill: rgb(56%,93%,56%); fill-rule: evenodd;"/>
			<polygon points="730.894 487.5844, 706.3963 487.5844, 706.3963 497.8346, 689.9959 477.3341, 706.3963 456.8335, 706.3963 467.0838, 730.894 467.0838" style="stroke: rgb(56%,93%,56%); stroke-linecap: round; stroke-width: 1; fill: rgb(56%,93%,56%); fill-rule: evenodd;"/>
			<polygon points="795.0395 487.5844, 748.586 487.5844, 748.586 497.8346, 732.1855 477.3341, 748.586 456.8335, 748.586 467.0838, 795.0395 467.0838" style="stroke: rgb(56%,93%,56%); stroke-linecap: round; stroke-width: 1; fill: rgb(56%,93%,56%); fill-rule: evenodd;"/>
			<polygon points="837.4136 487.5844, 811.2554 487.5844, 811.2554 497.8346, 794.855 477.3341, 811.2554 456.8335, 811.2554 467.0838, 837.4136 467.0838" style="stroke: rgb(56%,93%,56%); stroke-linecap: round; stroke-width: 1; fill: rgb(56%,93%,56%); fill-rule: evenodd;"/>
			<polygon points="852.4198 528.5855, 873.2274 528.5855, 873.2274 538.8358, 889.6279 518.3352, 873.2274 497.8346, 873.2274 508.0849, 852.4198 508.0849" style="stroke: rgb(67%,84%,90%); stroke-linecap: round; stroke-width: 1; fill: rgb(67%,84%,90%); fill-rule: evenodd;"/>
			<polygon points="906.6021 528.5855, 915.2325 528.5855, 915.2325 538.8358, 931.633 518.3352, 915.2325 497.8346, 915.2325 508.0849, 906.6021 508.0849" style="stroke: rgb(67%,84%,90%); stroke-linecap: round; stroke-width: 1; fill: rgb(67%,84%,90%); fill-rule: evenodd;"/>
			<path d="M 1346.395192,169.825647 L 1346.395192,251.827897 Z" style="stroke: rgb(0%,0%,0%); stroke-linecap: butt; stroke-width: 1;"/>
			<path d="M 70.866142,210.826772 L 1346.395192,210.826772 Z" style="stroke: rgb(0%,0%,0%); stroke-linecap: butt; stroke-width: 1;"/>
			<path d="M 70.866142,169.825647 L 70.866142,251.827897 Z" style="stroke: rgb(0%,0%,0%); stroke-linecap: butt; stroke-width: 1;"/>
			<path d="M 685.875327,210.826772 L 685.875327,231.327334 Z" style="stroke: rgb(0%,0%,0%); stroke-linecap: butt; stroke-width: 1;"/>
			<path d="M 1300.884512,210.826772 L 1300.884512,231.327334 Z" style="stroke: rgb(0%,0%,0%); stroke-linecap: butt; stroke-width: 1;"/>
			<path d="M 685.875327,210.826772 L 685.875327,223.127109 Z" style="stroke: rgb(0%,0%,0%); stroke-linecap: butt; stroke-width: 1;"/>
			<path d="M 1300.884512,210.826772 L 1300.884512,223.127109 Z" style="stroke: rgb(0%,0%,0%); stroke-linecap: butt; stroke-width: 1;"/>
			<path d="M 969.763567,456.833521 L 969.763567,538.835771 Z" style="stroke: rgb(0%,0%,0%); stroke-linecap: butt; stroke-width: 1;"/>
			<path d="M 70.866142,497.834646 L 969.763567,497.834646 Z" style="stroke: rgb(0%,0%,0%); stroke-linecap: butt; stroke-width: 1;"/>
			<path d="M 70.866142,456.833521 L 70.866142,538.835771 Z" style="stroke: rgb(0%,0%,0%); stroke-linecap: butt; stroke-width: 1;"/>
			<path d="M 685.875327,497.834646 L 685.875327,518.335208 Z" style="stroke: rgb(0%,0%,0%); stroke-linecap: butt; stroke-width: 1;"/>
			<path d="M 685.875327,497.834646 L 685.875327,510.134983 Z" style="stroke: rgb(0%,0%,0%); stroke-linecap: butt; stroke-width: 1;"/>
			<g transform=" matrix(0.707107,0.707107,-0.707107,0.707107,685.875327,231.327334)">
				<text style="font-family: Helvetica; font-size: 6px;fill: rgb(0%,0%,0%); stroke:none;" transform="translate(0,0) scale(1,-1)" x="0" y="0">10000</text>
			</g>
			<g transform=" matrix(0.707107,0.707107,-0.707107,0.707107,1300.884512,231.327334)">
				<text style="font-family: Helvetica; font-size: 6px;fill: rgb(0%,0%,0%); stroke:none;" transform="translate(0,0) scale(1,-1)" x="0" y="0">20000</text>
			</g>
			<g transform=" matrix(0.707107,0.707107,-0.707107,0.707107,685.875327,518.335208)">
				<text style="font-family: Helvetica; font-size: 6px;fill: rgb(0%,0%,0%); stroke:none;" transform="translate(0,0) scale(1,-1)" x="0" y="0">10000</text>
			</g>
			<g transform=" matrix(0.707107,-0.707107,0.707107,0.707107,113.916785,169.825647)">
				<text style="font-family: Helvetica; font-size: 10px;fill: rgb(0%,0%,0%); stroke:none;" transform="translate(0,0) scale(1,-1)" x="0" y="0">Gene_00916</text>
			</g>
			<g transform=" matrix(0.707107,0.707107,-0.707107,0.707107,190.854434,251.827897)">
				<text style="font-family: Helvetica; font-size: 10px;fill: rgb(0%,0%,0%); stroke:none;" transform="translate(0,0) scale(1,-1)" x="0" y="0">Gene_00917</text>
			</g>
			<g transform=" matrix(0.707107,0.707107,-0.707107,0.707107,256.106908,251.827897)">
				<text style="font-family: Helvetica; font-size: 10px;fill: rgb(0%,0%,0%); stroke:none;" transform="translate(0,0) scale(1,-1)" x="0" y="0">Gene_00918</text>
			</g>
			<g transform=" matrix(0.707107,-0.707107,0.707107,0.707107,400.326562,169.825647)">
				<text style="font-family: Helvetica; font-size: 10px;fill: rgb(0%,0%,0%); stroke:none;" transform="translate(0,0) scale(1,-1)" x="0" y="0">Gene_00919</text>
			</g>
			<g transform=" matrix(0.707107,-0.707107,0.707107,0.707107,502.879344,169.825647)">
				<text style="font-family: Helvetica; font-size: 10px;fill: rgb(0%,0%,0%); stroke:none;" transform="translate(0,0) scale(1,-1)" x="0" y="0">Gene_00920</text>
			</g>
			<g transform=" matrix(0.707107,-0.707107,0.707107,0.707107,545.806985,169.825647)">
				<text style="font-family: Helvetica; font-size: 10px;fill: rgb(0%,0%,0%); stroke:none;" transform="translate(0,0) scale(1,-1)" x="0" y="0">Gene_00921</text>
			</g>
			<g transform=" matrix(0.707107,-0.707107,0.707107,0.707107,642.947686,169.825647)">
				<text style="font-family: Helvetica; font-size: 10px;fill: rgb(0%,0%,0%); stroke:none;" transform="translate(0,0) scale(1,-1)" x="0" y="0">Gene_00922</text>
			</g>
			<g transform=" matrix(0.707107,-0.707107,0.707107,0.707107,742.486923,169.825647)">
				<text style="font-family: Helvetica; font-size: 16px;fill: rgb(0%,0%,100%); stroke:none;" transform="translate(0,0) scale(1,-1)" x="0" y="0">Gene_00923 (80.9)</text>
			</g>
			<g transform=" matrix(0.707107,-0.707107,0.707107,0.707107,784.461299,169.825647)">
				<text style="font-family: Helvetica; font-size: 10px;fill: rgb(0%,0%,0%); stroke:none;" transform="translate(0,0) scale(1,-1)" x="0" y="0">Gene_00924</text>
			</g>
			<g transform=" matrix(0.707107,-0.707107,0.707107,0.707107,827.173687,169.825647)">
				<text style="font-family: Helvetica; font-size: 10px;fill: rgb(0%,0%,0%); stroke:none;" transform="translate(0,0) scale(1,-1)" x="0" y="0">Gene_00925</text>
			</g>
			<g transform=" matrix(0.707107,-0.707107,0.707107,0.707107,893.194923,169.825647)">
				<text style="font-family: Helvetica; font-size: 10px;fill: rgb(0%,0%,0%); stroke:none;" transform="translate(0,0) scale(1,-1)" x="0" y="0">Gene_00926</text>
			</g>
			<g transform=" matrix(0.707107,-0.707107,0.707107,0.707107,945.716708,169.825647)">
				<text style="font-family: Helvetica; font-size: 10px;fill: rgb(0%,0%,0%); stroke:none;" transform="translate(0,0) scale(1,-1)" x="0" y="0">Gene_00927</text>
			</g>
			<g transform=" matrix(0.707107,-0.707107,0.707107,0.707107,1043.656921,169.825647)">
				<text style="font-family: Helvetica; font-size: 10px;fill: rgb(0%,0%,0%); stroke:none;" transform="translate(0,0) scale(1,-1)" x="0" y="0">Gene_00928</text>
			</g>
			<g transform=" matrix(0.707107,-0.707107,0.707107,0.707107,1095.901951,169.825647)">
				<text style="font-family: Helvetica; font-size: 10px;fill: rgb(0%,0%,0%); stroke:none;" transform="translate(0,0) scale(1,-1)" x="0" y="0">Gene_00929</text>
			</g>
			<g transform=" matrix(0.707107,-0.707107,0.707107,0.707107,1143.811166,169.825647)">
				<text style="font-family: Helvetica; font-size: 10px;fill: rgb(0%,0%,0%); stroke:none;" transform="translate(0,0) scale(1,-1)" x="0" y="0">Gene_00930</text>
			</g>
			<g transform=" matrix(0.707107,-0.707107,0.707107,0.707107,1225.299883,169.825647)">
				<text style="font-family: Helvetica; font-size: 10px;fill: rgb(0%,0%,0%); stroke:none;" transform="translate(0,0) scale(1,-1)" x="0" y="0">Gene_00931</text>
			</g>
			<g transform=" matrix(0.707107,-0.707107,0.707107,0.707107,1299.039485,169.825647)">
				<text style="font-family: Helvetica; font-size: 10px;fill: rgb(0%,0%,0%); stroke:none;" transform="translate(0,0) scale(1,-1)" x="0" y="0">Gene_00932</text>
			</g>
			<g transform=" matrix(0.707107,0.707107,-0.707107,0.707107,77.661993,538.835771)">
				<text style="font-family: Helvetica; font-size: 10px;fill: rgb(0%,0%,0%); stroke:none;" transform="translate(0,0) scale(1,-1)" x="0" y="0">Gene_01367</text>
			</g>
			<g transform=" matrix(0.707107,0.707107,-0.707107,0.707107,100.540335,538.835771)">
				<text style="font-family: Helvetica; font-size: 10px;fill: rgb(0%,0%,0%); stroke:none;" transform="translate(0,0) scale(1,-1)" x="0" y="0">Gene_01368</text>
			</g>
			<g transform=" matrix(0.707107,0.707107,-0.707107,0.707107,127.754491,538.835771)">
				<text style="font-family: Helvetica; font-size: 10px;fill: rgb(0%,0%,0%); stroke:none;" transform="translate(0,0) scale(1,-1)" x="0" y="0">Gene_01369</text>
			</g>
			<g transform=" matrix(0.707107,0.707107,-0.707107,0.707107,159.335213,538.835771)">
				<text style="font-family: Helvetica; font-size: 10px;fill: rgb(0%,0%,0%); stroke:none;" transform="translate(0,0) scale(1,-1)" x="0" y="0">Gene_01370</text>
			</g>
			<g transform=" matrix(0.707107,0.707107,-0.707107,0.707107,202.262854,538.835771)">
				<text style="font-family: Helvetica; font-size: 10px;fill: rgb(0%,0%,0%); stroke:none;" transform="translate(0,0) scale(1,-1)" x="0" y="0">Gene_01371</text>
			</g>
			<g transform=" matrix(0.707107,0.707107,-0.707107,0.707107,238.640647,538.835771)">
				<text style="font-family: Helvetica; font-size: 10px;fill: rgb(0%,0%,0%); stroke:none;" transform="translate(0,0) scale(1,-1)" x="0" y="0">Gene_01372</text>
			</g>
			<g transform=" matrix(0.707107,-0.707107,0.707107,0.707107,269.883114,456.833521)">
				<text style="font-family: Helvetica; font-size: 10px;fill: rgb(0%,0%,0%); stroke:none;" transform="translate(0,0) scale(1,-1)" x="0" y="0">Gene_01373</text>
			</g>
			<g transform=" matrix(0.707107,-0.707107,0.707107,0.707107,363.087756,456.833521)">
				<text style="font-family: Helvetica; font-size: 10px;fill: rgb(0%,0%,0%); stroke:none;" transform="translate(0,0) scale(1,-1)" x="0" y="0">Gene_01374</text>
			</g>
			<g transform=" matrix(0.707107,-0.707107,0.707107,0.707107,462.41174,456.833521)">
				<text style="font-family: Helvetica; font-size: 10px;fill: rgb(0%,0%,0%); stroke:none;" transform="translate(0,0) scale(1,-1)" x="0" y="0">Gene_01375</text>
			</g>
			<g transform=" matrix(0.707107,0.707107,-0.707107,0.707107,502.60259,538.835771)">
				<text style="font-family: Helvetica; font-size: 10px;fill: rgb(0%,0%,0%); stroke:none;" transform="translate(0,0) scale(1,-1)" x="0" y="0">Gene_01376</text>
			</g>
			<g transform=" matrix(0.707107,0.707107,-0.707107,0.707107,519.453841,538.835771)">
				<text style="font-family: Helvetica; font-size: 10px;fill: rgb(0%,0%,0%); stroke:none;" transform="translate(0,0) scale(1,-1)" x="0" y="0">Gene_01377</text>
			</g>
			<g transform=" matrix(0.707107,-0.707107,0.707107,0.707107,611.120961,456.833521)">
				<text style="font-family: Helvetica; font-size: 10px;fill: rgb(0%,0%,0%); stroke:none;" transform="translate(0,0) scale(1,-1)" x="0" y="0">Gene_01378</text>
			</g>
			<g transform=" matrix(0.707107,-0.707107,0.707107,0.707107,710.444944,456.833521)">
				<text style="font-family: Helvetica; font-size: 16px;fill: rgb(0%,0%,100%); stroke:none;" transform="translate(0,0) scale(1,-1)" x="0" y="0">Gene_01379 (80.9)</text>
			</g>
			<g transform=" matrix(0.707107,-0.707107,0.707107,0.707107,763.612488,456.833521)">
				<text style="font-family: Helvetica; font-size: 10px;fill: rgb(0%,0%,0%); stroke:none;" transform="translate(0,0) scale(1,-1)" x="0" y="0">Gene_01380</text>
			</g>
			<g transform=" matrix(0.707107,-0.707107,0.707107,0.707107,816.134272,456.833521)">
				<text style="font-family: Helvetica; font-size: 10px;fill: rgb(0%,0%,0%); stroke:none;" transform="translate(0,0) scale(1,-1)" x="0" y="0">Gene_01381</text>
			</g>
			<g transform=" matrix(0.707107,0.707107,-0.707107,0.707107,871.023842,538.835771)">
				<text style="font-family: Helvetica; font-size: 10px;fill: rgb(0%,0%,0%); stroke:none;" transform="translate(0,0) scale(1,-1)" x="0" y="0">Gene_01382</text>
			</g>
			<g transform=" matrix(0.707107,0.707107,-0.707107,0.707107,919.117561,538.835771)">
				<text style="font-family: Helvetica; font-size: 10px;fill: rgb(0%,0%,0%); stroke:none;" transform="translate(0,0) scale(1,-1)" x="0" y="0">Gene_01383</text>
			</g>
			<g transform=" matrix(1,0,-0,1,70,169.825647)">
				<text style="font-family: Helvetica; font-size: 12px;fill: rgb(60%,60%,60%); stroke:none;" transform="translate(0,0) scale(1,-1)" x="0" y="0">megahit_21412 (left 33039bp, right 9487bp)</text>
			</g>
			<g transform=" matrix(1,0,-0,1,70,456.833521)">
				<text style="font-family: Helvetica; font-size: 12px;fill: rgb(60%,60%,60%); stroke:none;" transform="translate(0,0) scale(1,-1)" x="0" y="0">megahit_72528 (left 16191bp, right 3884bp)</text>
			</g>
		</g>
	</g>
</svg>
