<?xml version="1.0" encoding="utf-8"?>
<!DOCTYPE svg
  PUBLIC '-//W3C//DTD SVG 1.0//EN'
  'http://www.w3.org/TR/2001/REC-SVG-20010904/DTD/svg10.dtd'>
<svg fill-rule="evenodd" height="708.6614173228346" preserveAspectRatio="xMinYMin meet" version="1.0" viewBox="0 0 1417 708" width="1417.3228346456692" xmlns="http://www.w3.org/2000/svg" xmlns:xlink="http://www.w3.org/1999/xlink">
	<title>...</title>
	<desc>...</desc>
	<clipPath id="clip">
		<rect height="708.6614173228346" width="1417.3228346456692" x="0" y="0"/>
	</clipPath>
	<g id="group" style="clip-path: url(#clip)" transform="scale(1,-1) translate(0,-708)">
		<g transform="">
			<polygon points="70.86614 169.8256, 678.0135 169.8256, 678.0135 251.8279, 70.86614 251.8279" style="stroke: rgb(96%,96%,96%); stroke-linecap: butt; stroke-width: 1; fill: rgb(96%,96%,96%); fill-rule: evenodd;"/>
			<polygon points="70.86614 456.8335, 1346.363 456.8335, 1346.363 538.8358, 70.86614 538.8358" style="stroke: rgb(96%,96%,96%); stroke-linecap: butt; stroke-width: 1; fill: rgb(96%,96%,96%); fill-rule: evenodd;"/>
			<polygon points="252.5042 456.8335, 345.4789 456.8335, 518.1195 251.8279, 425.426 251.8279" style="stroke: rgb(100%,24%,24%); stroke-linecap: round; stroke-width: 1; fill: rgb(100%,24%,24%); fill-rule: evenodd;"/>
			<polygon points="345.7601 456.8335, 429.6436 456.8335, 611.1879 251.8279, 527.4919 251.8279" style="stroke: rgb(100%,26%,26%); stroke-linecap: round; stroke-width: 1; fill: rgb(100%,26%,26%); fill-rule: evenodd;"/>
			<polygon points="131.3184 241.5776, 131.3184 251.8279, 146.4081 231.3273, 131.3184 210.8268, 131.3184 221.0771" style="stroke: rgb(67%,84%,90%); stroke-linecap: round; stroke-width: 1; fill: rgb(67%,84%,90%); fill-rule: evenodd;"/>
			<polygon points="151.6567 241.5776, 360.9448 241.5776, 360.9448 251.8279, 377.3453 231.3273, 360.9448 210.8268, 360.9448 221.0771, 151.6567 221.0771" style="stroke: rgb(67%,84%,90%); stroke-linecap: round; stroke-width: 1; fill: rgb(67%,84%,90%); fill-rule: evenodd;"/>
			<polygon points="411.5547 200.5765, 396.8386 200.5765, 396.8386 210.8268, 380.4382 190.3262, 396.8386 169.8256, 396.8386 180.0759, 411.5547 180.0759" style="stroke: rgb(56%,93%,56%); stroke-linecap: round; stroke-width: 1; fill: rgb(56%,93%,56%); fill-rule: evenodd;"/>
			<polygon points="439.2035 241.5776, 496.0956 241.5776, 496.0956 251.8279, 512.496 231.3273, 496.0956 210.8268, 496.0956 221.0771, 439.2035 221.0771" style="stroke: rgb(67%,84%,90%); stroke-linecap: round; stroke-width: 1; fill: rgb(67%,84%,90%); fill-rule: evenodd;"/>
			<polygon points="528.9915 241.5776, 594.6 241.5776, 594.6 251.8279, 611.0005 231.3273, 594.6 210.8268, 594.6 221.0771, 528.9915 221.0771" style="stroke: rgb(67%,84%,90%); stroke-linecap: round; stroke-width: 1; fill: rgb(67%,84%,90%); fill-rule: evenodd;"/>
			<polygon points="85.67461 528.5855, 147.6279 528.5855, 147.6279 538.8358, 164.0283 518.3352, 147.6279 497.8346, 147.6279 508.0849, 85.67461 508.0849" style="stroke: rgb(67%,84%,90%); stroke-linecap: round; stroke-width: 1; fill: rgb(67%,84%,90%); fill-rule: evenodd;"/>
			<polygon points="164.9655 528.5855, 234.7916 528.5855, 234.7916 538.8358, 251.1921 518.3352, 234.7916 497.8346, 234.7916 508.0849, 164.9655 508.0849" style="stroke: rgb(67%,84%,90%); stroke-linecap: round; stroke-width: 1; fill: rgb(67%,84%,90%); fill-rule: evenodd;"/>
			<polygon points="266.188 528.5855, 324.2048 528.5855, 324.2048 538.8358, 340.6053 518.3352, 324.2048 497.8346, 324.2048 508.0849, 266.188 508.0849" style="stroke: rgb(67%,84%,90%); stroke-linecap: round; stroke-width: 1; fill: rgb(67%,84%,90%); fill-rule: evenodd;"/>
			<polygon points="347.4472 528.5855, 413.0557 528.5855, 413.0557 538.8358, 429.4561 518.3352, 413.0557 497.8346, 413.0557 508.0849, 347.4472 508.0849" style="stroke: rgb(67%,84%,90%); stroke-linecap: round; stroke-width: 1; fill: rgb(67%,84%,90%); fill-rule: evenodd;"/>
			<polygon points="441.3591 528.5855, 495.7207 528.5855, 495.7207 538.8358, 512.1211 518.3352, 495.7207 497.8346, 495.7207 508.0849, 441.3591 508.0849" style="stroke: rgb(67%,84%,90%); stroke-linecap: round; stroke-width: 1; fill: rgb(67%,84%,90%); fill-rule: evenodd;"/>
			<polygon points="513.8082 528.5855, 604.7223 528.5855, 604.7223 538.8358, 621.1227 518.3352, 604.7223 497.8346, 604.7223 508.0849, 513.8082 508.0849" style="stroke: rgb(67%,84%,90%); stroke-linecap: round; stroke-width: 1; fill: rgb(67%,84%,90%); fill-rule: evenodd;"/>
			<polygon points="647.4593 528.5855, 721.2218 528.5855, 721.2218 538.8358, 737.6223 518.3352, 721.2218 497.8346, 721.2218 508.0849, 647.4593 508.0849" style="stroke: rgb(67%,84%,90%); stroke-linecap: round; stroke-width: 1; fill: rgb(67%,84%,90%); fill-rule: evenodd;"/>
			<polygon points="761.0534 528.5855, 1095.464 528.5855, 1095.464 538.8358, 1111.864 518.3352, 1095.464 497.8346, 1095.464 508.0849, 761.0534 508.0849" style="stroke: rgb(67%,84%,90%); stroke-linecap: round; stroke-width: 1; fill: rgb(67%,84%,90%); fill-rule: evenodd;"/>
			<polygon points="1263.042 487.5844, 1239.328 487.5844, 1239.328 497.8346, 1222.928 477.3341, 1239.328 456.8335, 1239.328 467.0838, 1263.042 467.0838" style="stroke: rgb(56%,93%,56%); stroke-linecap: round; stroke-width: 1; fill: rgb(56%,93%,56%); fill-rule: evenodd;"/>
			<path d="M 678.013503,169.825647 L 678.013503,251.827897 Z" style="stroke: rgb(0%,0%,0%); stroke-linecap: butt; stroke-width: 1;"/>
			<path d="M 70.866142,210.826772 L 678.013503,210.826772 Z" style="stroke: rgb(0%,0%,0%); stroke-linecap: butt; stroke-width: 1;"/>
			<path d="M 70.866142,169.825647 L 70.866142,251.827897 Z" style="stroke: rgb(0%,0%,0%); stroke-linecap: butt; stroke-width: 1;"/>
			<path d="M 1346.362968,456.833521 L 1346.362968,538.835771 Z" style="stroke: rgb(0%,0%,0%); stroke-linecap: butt; stroke-width: 1;"/>
			<path d="M 70.866142,497.834646 L 1346.362968,497.834646 Z" style="stroke: rgb(0%,0%,0%); stroke-linecap: butt; stroke-width: 1;"/>
			<path d="M 70.866142,456.833521 L 70.866142,538.835771 Z" style="stroke: rgb(0%,0%,0%); stroke-linecap: butt; stroke-width: 1;"/>
			<path d="M 1008.11122,497.834646 L 1008.11122,518.335208 Z" style="stroke: rgb(0%,0%,0%); stroke-linecap: butt; stroke-width: 1;"/>
			<path d="M 1008.11122,497.834646 L 1008.11122,510.134983 Z" style="stroke: rgb(0%,0%,0%); stroke-linecap: butt; stroke-width: 1;"/>
			<g transform=" matrix(0.707107,0.707107,-0.707107,0.707107,1008.11122,518.335208)">
				<text style="font-family: Helvetica; font-size: 6px;fill: rgb(0%,0%,0%); stroke:none;" transform="translate(0,0) scale(1,-1)" x="0" y="0">10000</text>
			</g>
			<g transform=" matrix(0.707107,0.707107,-0.707107,0.707107,138.863272,251.827897)">
				<text style="font-family: Helvetica; font-size: 10px;fill: rgb(0%,0%,0%); stroke:none;" transform="translate(0,0) scale(1,-1)" x="0" y="0">Gene_00398</text>
			</g>
			<g transform=" matrix(0.707107,0.707107,-0.707107,0.707107,264.500975,251.827897)">
				<text style="font-family: Helvetica; font-size: 10px;fill: rgb(0%,0%,0%); stroke:none;" transform="translate(0,0) scale(1,-1)" x="0" y="0">Gene_00399</text>
			</g>
			<g transform=" matrix(0.707107,-0.707107,0.707107,0.707107,395.996459,169.825647)">
				<text style="font-family: Helvetica; font-size: 10px;fill: rgb(0%,0%,0%); stroke:none;" transform="translate(0,0) scale(1,-1)" x="0" y="0">Gene_00400</text>
			</g>
			<g transform=" matrix(0.707107,0.707107,-0.707107,0.707107,475.84974,251.827897)">
				<text style="font-family: Helvetica; font-size: 10px;fill: rgb(0%,0%,0%); stroke:none;" transform="translate(0,0) scale(1,-1)" x="0" y="0">Gene_00401</text>
			</g>
			<g transform=" matrix(0.707107,0.707107,-0.707107,0.707107,569.996008,251.827897)">
				<text style="font-family: Helvetica; font-size: 16px;fill: rgb(0%,0%,100%); stroke:none;" transform="translate(0,0) scale(1,-1)" x="0" y="0">Gene_00402 (86.8)</text>
			</g>
			<g transform=" matrix(0.707107,0.707107,-0.707107,0.707107,124.851458,538.835771)">
				<text style="font-family: Helvetica; font-size: 10px;fill: rgb(0%,0%,0%); stroke:none;" transform="translate(0,0) scale(1,-1)" x="0" y="0">Gene_00133</text>
			</g>
			<g transform=" matrix(0.707107,0.707107,-0.707107,0.707107,208.078821,538.835771)">
				<text style="font-family: Helvetica; font-size: 10px;fill: rgb(0%,0%,0%); stroke:none;" transform="translate(0,0) scale(1,-1)" x="0" y="0">Gene_00134</text>
			</g>
			<g transform=" matrix(0.707107,0.707107,-0.707107,0.707107,303.396646,538.835771)">
				<text style="font-family: Helvetica; font-size: 10px;fill: rgb(0%,0%,0%); stroke:none;" transform="translate(0,0) scale(1,-1)" x="0" y="0">Gene_00135</text>
			</g>
			<g transform=" matrix(0.707107,0.707107,-0.707107,0.707107,388.451636,538.835771)">
				<text style="font-family: Helvetica; font-size: 16px;fill: rgb(0%,0%,100%); stroke:none;" transform="translate(0,0) scale(1,-1)" x="0" y="0">Gene_00136 (86.8)</text>
			</g>
			<g transform=" matrix(0.707107,0.707107,-0.707107,0.707107,476.740123,538.835771)">
				<text style="font-family: Helvetica; font-size: 10px;fill: rgb(0%,0%,0%); stroke:none;" transform="translate(0,0) scale(1,-1)" x="0" y="0">Gene_00137</text>
			</g>
			<g transform=" matrix(0.707107,0.707107,-0.707107,0.707107,567.465446,538.835771)">
				<text style="font-family: Helvetica; font-size: 10px;fill: rgb(0%,0%,0%); stroke:none;" transform="translate(0,0) scale(1,-1)" x="0" y="0">Gene_00138</text>
			</g>
			<g transform=" matrix(0.707107,0.707107,-0.707107,0.707107,692.540802,538.835771)">
				<text style="font-family: Helvetica; font-size: 10px;fill: rgb(0%,0%,0%); stroke:none;" transform="translate(0,0) scale(1,-1)" x="0" y="0">Gene_00139</text>
			</g>
			<g transform=" matrix(0.707107,0.707107,-0.707107,0.707107,936.458834,538.835771)">
				<text style="font-family: Helvetica; font-size: 10px;fill: rgb(0%,0%,0%); stroke:none;" transform="translate(0,0) scale(1,-1)" x="0" y="0">Gene_00140</text>
			</g>
			<g transform=" matrix(0.707107,-0.707107,0.707107,0.707107,1242.984836,456.833521)">
				<text style="font-family: Helvetica; font-size: 10px;fill: rgb(0%,0%,0%); stroke:none;" transform="translate(0,0) scale(1,-1)" x="0" y="0">Gene_00141</text>
			</g>
			<g transform=" matrix(1,0,-0,1,70,169.825647)">
				<text style="font-family: Helvetica; font-size: 12px;fill: rgb(60%,60%,60%); stroke:none;" transform="translate(0,0) scale(1,-1)" x="0" y="0">megahit_17820 (left 4888bp, right 715bp)</text>
			</g>
			<g transform=" matrix(1,0,-0,1,70,456.833521)">
				<text style="font-family: Helvetica; font-size: 12px;fill: rgb(60%,60%,60%); stroke:none;" transform="translate(0,0) scale(1,-1)" x="0" y="0">megahit_22831 (left 2951bp, right 9783bp)</text>
			</g>
		</g>
	</g>
</svg>
