<?xml version="1.0" encoding="utf-8"?>
<!DOCTYPE svg
  PUBLIC '-//W3C//DTD SVG 1.0//EN'
  'http://www.w3.org/TR/2001/REC-SVG-20010904/DTD/svg10.dtd'>
<svg fill-rule="evenodd" height="708.6614173228346" preserveAspectRatio="xMinYMin meet" version="1.0" viewBox="0 0 1417 708" width="1417.3228346456692" xmlns="http://www.w3.org/2000/svg" xmlns:xlink="http://www.w3.org/1999/xlink">
	<title>...</title>
	<desc>...</desc>
	<clipPath id="clip">
		<rect height="708.6614173228346" width="1417.3228346456692" x="0" y="0"/>
	</clipPath>
	<g id="group" style="clip-path: url(#clip)" transform="scale(1,-1) translate(0,-708)">
		<g transform="">
			<polygon points="70.86614 169.8256, 1346.401 169.8256, 1346.401 251.8279, 70.86614 251.8279" style="stroke: rgb(96%,96%,96%); stroke-linecap: butt; stroke-width: 1; fill: rgb(96%,96%,96%); fill-rule: evenodd;"/>
			<polygon points="70.86614 456.8335, 300.2045 456.8335, 300.2045 538.8358, 70.86614 538.8358" style="stroke: rgb(96%,96%,96%); stroke-linecap: butt; stroke-width: 1; fill: rgb(96%,96%,96%); fill-rule: evenodd;"/>
			<polygon points="199.6536 456.8335, 248.4005 456.8335, 675.2278 251.8279, 626.4253 251.8279" style="stroke: rgb(100%,33%,33%); stroke-linecap: round; stroke-width: 1; fill: rgb(100%,33%,33%); fill-rule: evenodd;"/>
			<polygon points="281.0837 456.8335, 300.2045 456.8335, 695.3491 251.8279, 676.2283 251.8279" style="stroke: rgb(100%,42%,42%); stroke-linecap: round; stroke-width: 1; fill: rgb(100%,42%,42%); fill-rule: evenodd;"/>
			<polygon points="102.9935 200.5765, 87.26659 200.5765, 87.26659 210.8268, 70.86614 190.3262, 87.26659 169.8256, 87.26659 180.0759, 102.9935 180.0759" style="stroke: rgb(56%,93%,56%); stroke-linecap: round; stroke-width: 1; fill: rgb(56%,93%,56%); fill-rule: evenodd;"/>
			<polygon points="156.2427 200.5765, 117.1706 200.5765, 117.1706 210.8268, 100.7702 190.3262, 117.1706 169.8256, 117.1706 180.0759, 156.2427 180.0759" style="stroke: rgb(56%,93%,56%); stroke-linecap: round; stroke-width: 1; fill: rgb(56%,93%,56%); fill-rule: evenodd;"/>
			<polygon points="205.1008 200.5765, 173.3658 200.5765, 173.3658 210.8268, 156.9653 190.3262, 173.3658 169.8256, 173.3658 180.0759, 205.1008 180.0759" style="stroke: rgb(56%,93%,56%); stroke-linecap: round; stroke-width: 1; fill: rgb(56%,93%,56%); fill-rule: evenodd;"/>
			<polygon points="260.1843 200.5765, 220.6119 200.5765, 220.6119 210.8268, 204.2115 190.3262, 220.6119 169.8256, 220.6119 180.0759, 260.1843 180.0759" style="stroke: rgb(56%,93%,56%); stroke-linecap: round; stroke-width: 1; fill: rgb(56%,93%,56%); fill-rule: evenodd;"/>
			<polygon points="284.252 200.5765, 284.252 210.8268, 270.8007 190.3262, 284.252 169.8256, 284.252 180.0759" style="stroke: rgb(56%,93%,56%); stroke-linecap: round; stroke-width: 1; fill: rgb(56%,93%,56%); fill-rule: evenodd;"/>
			<polygon points="346.1167 200.5765, 301.5418 200.5765, 301.5418 210.8268, 285.1413 190.3262, 301.5418 169.8256, 301.5418 180.0759, 346.1167 180.0759" style="stroke: rgb(56%,93%,56%); stroke-linecap: round; stroke-width: 1; fill: rgb(56%,93%,56%); fill-rule: evenodd;"/>
			<polygon points="411.3164 200.5765, 364.5737 200.5765, 364.5737 210.8268, 348.1733 190.3262, 364.5737 169.8256, 364.5737 180.0759, 411.3164 180.0759" style="stroke: rgb(56%,93%,56%); stroke-linecap: round; stroke-width: 1; fill: rgb(56%,93%,56%); fill-rule: evenodd;"/>
			<polygon points="471.5135 200.5765, 435.4429 200.5765, 435.4429 210.8268, 419.0425 190.3262, 435.4429 169.8256, 435.4429 180.0759, 471.5135 180.0759" style="stroke: rgb(56%,93%,56%); stroke-linecap: round; stroke-width: 1; fill: rgb(56%,93%,56%); fill-rule: evenodd;"/>
			<polygon points="531.6551 200.5765, 487.7472 200.5765, 487.7472 210.8268, 471.3468 190.3262, 487.7472 169.8256, 487.7472 180.0759, 531.6551 180.0759" style="stroke: rgb(56%,93%,56%); stroke-linecap: round; stroke-width: 1; fill: rgb(56%,93%,56%); fill-rule: evenodd;"/>
			<polygon points="571.5086 200.5765, 552.6134 200.5765, 552.6134 210.8268, 536.213 190.3262, 552.6134 169.8256, 552.6134 180.0759, 571.5086 180.0759" style="stroke: rgb(56%,93%,56%); stroke-linecap: round; stroke-width: 1; fill: rgb(56%,93%,56%); fill-rule: evenodd;"/>
			<polygon points="618.0878 200.5765, 591.6888 200.5765, 591.6888 210.8268, 575.2883 190.3262, 591.6888 169.8256, 591.6888 180.0759, 618.0878 180.0759" style="stroke: rgb(56%,93%,56%); stroke-linecap: round; stroke-width: 1; fill: rgb(56%,93%,56%); fill-rule: evenodd;"/>
			<polygon points="627.4258 241.5776, 658.6606 241.5776, 658.6606 251.8279, 675.0611 231.3273, 658.6606 210.8268, 658.6606 221.0771, 627.4258 221.0771" style="stroke: rgb(67%,84%,90%); stroke-linecap: round; stroke-width: 1; fill: rgb(67%,84%,90%); fill-rule: evenodd;"/>
			<polygon points="716.5821 200.5765, 692.6844 200.5765, 692.6844 210.8268, 676.2839 190.3262, 692.6844 169.8256, 692.6844 180.0759, 716.5821 180.0759" style="stroke: rgb(56%,93%,56%); stroke-linecap: round; stroke-width: 1; fill: rgb(56%,93%,56%); fill-rule: evenodd;"/>
			<polygon points="755.4907 200.5765, 732.5935 200.5765, 732.5935 210.8268, 716.193 190.3262, 732.5935 169.8256, 732.5935 180.0759, 755.4907 180.0759" style="stroke: rgb(56%,93%,56%); stroke-linecap: round; stroke-width: 1; fill: rgb(56%,93%,56%); fill-rule: evenodd;"/>
			<polygon points="787.7292 200.5765, 777.1716 200.5765, 777.1716 210.8268, 760.7711 190.3262, 777.1716 169.8256, 777.1716 180.0759, 787.7292 180.0759" style="stroke: rgb(56%,93%,56%); stroke-linecap: round; stroke-width: 1; fill: rgb(56%,93%,56%); fill-rule: evenodd;"/>
			<polygon points="819.6343 200.5765, 811.4112 200.5765, 811.4112 210.8268, 795.0107 190.3262, 811.4112 169.8256, 811.4112 180.0759, 819.6343 180.0759" style="stroke: rgb(56%,93%,56%); stroke-linecap: round; stroke-width: 1; fill: rgb(56%,93%,56%); fill-rule: evenodd;"/>
			<polygon points="879.1089 200.5765, 837.0353 200.5765, 837.0353 210.8268, 820.6348 190.3262, 837.0353 169.8256, 837.0353 180.0759, 879.1089 180.0759" style="stroke: rgb(56%,93%,56%); stroke-linecap: round; stroke-width: 1; fill: rgb(56%,93%,56%); fill-rule: evenodd;"/>
			<polygon points="981.4941 200.5765, 903.569 200.5765, 903.569 210.8268, 887.1685 190.3262, 903.569 169.8256, 903.569 180.0759, 981.4941 180.0759" style="stroke: rgb(56%,93%,56%); stroke-linecap: round; stroke-width: 1; fill: rgb(56%,93%,56%); fill-rule: evenodd;"/>
			<polygon points="1061.146 200.5765, 1003.397 200.5765, 1003.397 210.8268, 986.9968 190.3262, 1003.397 169.8256, 1003.397 180.0759, 1061.146 180.0759" style="stroke: rgb(56%,93%,56%); stroke-linecap: round; stroke-width: 1; fill: rgb(56%,93%,56%); fill-rule: evenodd;"/>
			<polygon points="1085.547 200.5765, 1077.991 200.5765, 1077.991 210.8268, 1061.59 190.3262, 1077.991 169.8256, 1077.991 180.0759, 1085.547 180.0759" style="stroke: rgb(56%,93%,56%); stroke-linecap: round; stroke-width: 1; fill: rgb(56%,93%,56%); fill-rule: evenodd;"/>
			<polygon points="1113.283 200.5765, 1103.226 200.5765, 1103.226 210.8268, 1086.825 190.3262, 1103.226 169.8256, 1103.226 180.0759, 1113.283 180.0759" style="stroke: rgb(56%,93%,56%); stroke-linecap: round; stroke-width: 1; fill: rgb(56%,93%,56%); fill-rule: evenodd;"/>
			<polygon points="1182.818 200.5765, 1130.406 200.5765, 1130.406 210.8268, 1114.006 190.3262, 1130.406 169.8256, 1130.406 180.0759, 1182.818 180.0759" style="stroke: rgb(56%,93%,56%); stroke-linecap: round; stroke-width: 1; fill: rgb(56%,93%,56%); fill-rule: evenodd;"/>
			<polygon points="1200.772 200.5765, 1200.772 210.8268, 1194.824 190.3262, 1200.772 169.8256, 1200.772 180.0759" style="stroke: rgb(56%,93%,56%); stroke-linecap: round; stroke-width: 1; fill: rgb(56%,93%,56%); fill-rule: evenodd;"/>
			<polygon points="1243.849 200.5765, 1219.118 200.5765, 1219.118 210.8268, 1202.717 190.3262, 1219.118 169.8256, 1219.118 180.0759, 1243.849 180.0759" style="stroke: rgb(56%,93%,56%); stroke-linecap: round; stroke-width: 1; fill: rgb(56%,93%,56%); fill-rule: evenodd;"/>
			<polygon points="1294.653 200.5765, 1259.916 200.5765, 1259.916 210.8268, 1243.516 190.3262, 1259.916 169.8256, 1259.916 180.0759, 1294.653 180.0759" style="stroke: rgb(56%,93%,56%); stroke-linecap: round; stroke-width: 1; fill: rgb(56%,93%,56%); fill-rule: evenodd;"/>
			<polygon points="1346.401 200.5765, 1310.664 200.5765, 1310.664 210.8268, 1294.264 190.3262, 1310.664 169.8256, 1310.664 180.0759, 1346.401 180.0759" style="stroke: rgb(56%,93%,56%); stroke-linecap: round; stroke-width: 1; fill: rgb(56%,93%,56%); fill-rule: evenodd;"/>
			<polygon points="74.53467 528.5855, 84.42531 528.5855, 84.42531 538.8358, 100.8258 518.3352, 84.42531 497.8346, 84.42531 508.0849, 74.53467 508.0849" style="stroke: rgb(67%,84%,90%); stroke-linecap: round; stroke-width: 1; fill: rgb(67%,84%,90%); fill-rule: evenodd;"/>
			<polygon points="144.2922 487.5844, 125.2303 487.5844, 125.2303 497.8346, 108.8298 477.3341, 125.2303 456.8335, 125.2303 467.0838, 144.2922 467.0838" style="stroke: rgb(56%,93%,56%); stroke-linecap: round; stroke-width: 1; fill: rgb(56%,93%,56%); fill-rule: evenodd;"/>
			<polygon points="200.5985 528.5855, 231.8333 528.5855, 231.8333 538.8358, 248.2338 518.3352, 231.8333 497.8346, 231.8333 508.0849, 200.5985 508.0849" style="stroke: rgb(67%,84%,90%); stroke-linecap: round; stroke-width: 1; fill: rgb(67%,84%,90%); fill-rule: evenodd;"/>
			<polygon points="246.5662 528.5855, 264.1274 528.5855, 264.1274 538.8358, 280.5279 518.3352, 264.1274 497.8346, 264.1274 508.0849, 246.5662 508.0849" style="stroke: rgb(67%,84%,90%); stroke-linecap: round; stroke-width: 1; fill: rgb(67%,84%,90%); fill-rule: evenodd;"/>
			<polygon points="299.7599 487.5844, 297.5398 487.5844, 297.5398 497.8346, 281.1393 477.3341, 297.5398 456.8335, 297.5398 467.0838, 299.7599 467.0838" style="stroke: rgb(56%,93%,56%); stroke-linecap: round; stroke-width: 1; fill: rgb(56%,93%,56%); fill-rule: evenodd;"/>
			<path d="M 1346.401109,169.825647 L 1346.401109,251.827897 Z" style="stroke: rgb(0%,0%,0%); stroke-linecap: butt; stroke-width: 1;"/>
			<path d="M 70.866142,210.826772 L 1346.401109,210.826772 Z" style="stroke: rgb(0%,0%,0%); stroke-linecap: butt; stroke-width: 1;"/>
			<path d="M 70.866142,169.825647 L 70.866142,251.827897 Z" style="stroke: rgb(0%,0%,0%); stroke-linecap: butt; stroke-width: 1;"/>
			<path d="M 626.703238,210.826772 L 626.703238,231.327334 Z" style="stroke: rgb(0%,0%,0%); stroke-linecap: butt; stroke-width: 1;"/>
			<path d="M 1182.540333,210.826772 L 1182.540333,231.327334 Z" style="stroke: rgb(0%,0%,0%); stroke-linecap: butt; stroke-width: 1;"/>
			<path d="M 626.703238,210.826772 L 626.703238,223.127109 Z" style="stroke: rgb(0%,0%,0%); stroke-linecap: butt; stroke-width: 1;"/>
			<path d="M 1182.540333,210.826772 L 1182.540333,223.127109 Z" style="stroke: rgb(0%,0%,0%); stroke-linecap: butt; stroke-width: 1;"/>
			<path d="M 300.204527,456.833521 L 300.204527,538.835771 Z" style="stroke: rgb(0%,0%,0%); stroke-linecap: butt; stroke-width: 1;"/>
			<path d="M 70.866142,497.834646 L 300.204527,497.834646 Z" style="stroke: rgb(0%,0%,0%); stroke-linecap: butt; stroke-width: 1;"/>
			<path d="M 70.866142,456.833521 L 70.866142,538.835771 Z" style="stroke: rgb(0%,0%,0%); stroke-linecap: butt; stroke-width: 1;"/>
			<g transform=" matrix(0.707107,0.707107,-0.707107,0.707107,626.703238,231.327334)">
				<text style="font-family: Helvetica; font-size: 6px;fill: rgb(0%,0%,0%); stroke:none;" transform="translate(0,0) scale(1,-1)" x="0" y="0">10000</text>
			</g>
			<g transform=" matrix(0.707107,0.707107,-0.707107,0.707107,1182.540333,231.327334)">
				<text style="font-family: Helvetica; font-size: 6px;fill: rgb(0%,0%,0%); stroke:none;" transform="translate(0,0) scale(1,-1)" x="0" y="0">20000</text>
			</g>
			<g transform=" matrix(0.707107,-0.707107,0.707107,0.707107,86.929834,169.825647)">
				<text style="font-family: Helvetica; font-size: 10px;fill: rgb(0%,0%,0%); stroke:none;" transform="translate(0,0) scale(1,-1)" x="0" y="0">Gene_01871</text>
			</g>
			<g transform=" matrix(0.707107,-0.707107,0.707107,0.707107,128.506449,169.825647)">
				<text style="font-family: Helvetica; font-size: 10px;fill: rgb(0%,0%,0%); stroke:none;" transform="translate(0,0) scale(1,-1)" x="0" y="0">Gene_01872</text>
			</g>
			<g transform=" matrix(0.707107,-0.707107,0.707107,0.707107,181.033054,169.825647)">
				<text style="font-family: Helvetica; font-size: 10px;fill: rgb(0%,0%,0%); stroke:none;" transform="translate(0,0) scale(1,-1)" x="0" y="0">Gene_01873</text>
			</g>
			<g transform=" matrix(0.707107,-0.707107,0.707107,0.707107,232.197859,169.825647)">
				<text style="font-family: Helvetica; font-size: 10px;fill: rgb(0%,0%,0%); stroke:none;" transform="translate(0,0) scale(1,-1)" x="0" y="0">Gene_01874</text>
			</g>
			<g transform=" matrix(0.707107,-0.707107,0.707107,0.707107,277.526374,169.825647)">
				<text style="font-family: Helvetica; font-size: 10px;fill: rgb(0%,0%,0%); stroke:none;" transform="translate(0,0) scale(1,-1)" x="0" y="0">Gene_01875</text>
			</g>
			<g transform=" matrix(0.707107,-0.707107,0.707107,0.707107,315.629007,169.825647)">
				<text style="font-family: Helvetica; font-size: 10px;fill: rgb(0%,0%,0%); stroke:none;" transform="translate(0,0) scale(1,-1)" x="0" y="0">Gene_01876</text>
			</g>
			<g transform=" matrix(0.707107,-0.707107,0.707107,0.707107,379.744816,169.825647)">
				<text style="font-family: Helvetica; font-size: 10px;fill: rgb(0%,0%,0%); stroke:none;" transform="translate(0,0) scale(1,-1)" x="0" y="0">Gene_01877</text>
			</g>
			<g transform=" matrix(0.707107,-0.707107,0.707107,0.707107,445.278009,169.825647)">
				<text style="font-family: Helvetica; font-size: 10px;fill: rgb(0%,0%,0%); stroke:none;" transform="translate(0,0) scale(1,-1)" x="0" y="0">Gene_01878</text>
			</g>
			<g transform=" matrix(0.707107,-0.707107,0.707107,0.707107,501.500932,169.825647)">
				<text style="font-family: Helvetica; font-size: 10px;fill: rgb(0%,0%,0%); stroke:none;" transform="translate(0,0) scale(1,-1)" x="0" y="0">Gene_01879</text>
			</g>
			<g transform=" matrix(0.707107,-0.707107,0.707107,0.707107,553.860786,169.825647)">
				<text style="font-family: Helvetica; font-size: 10px;fill: rgb(0%,0%,0%); stroke:none;" transform="translate(0,0) scale(1,-1)" x="0" y="0">Gene_01880</text>
			</g>
			<g transform=" matrix(0.707107,-0.707107,0.707107,0.707107,596.688034,169.825647)">
				<text style="font-family: Helvetica; font-size: 10px;fill: rgb(0%,0%,0%); stroke:none;" transform="translate(0,0) scale(1,-1)" x="0" y="0">Gene_01881</text>
			</g>
			<g transform=" matrix(0.707107,0.707107,-0.707107,0.707107,651.243445,251.827897)">
				<text style="font-family: Helvetica; font-size: 16px;fill: rgb(0%,0%,100%); stroke:none;" transform="translate(0,0) scale(1,-1)" x="0" y="0">Gene_01882 (83.8)</text>
			</g>
			<g transform=" matrix(0.707107,-0.707107,0.707107,0.707107,696.433001,169.825647)">
				<text style="font-family: Helvetica; font-size: 10px;fill: rgb(0%,0%,0%); stroke:none;" transform="translate(0,0) scale(1,-1)" x="0" y="0">Gene_01883</text>
			</g>
			<g transform=" matrix(0.707107,-0.707107,0.707107,0.707107,735.841851,169.825647)">
				<text style="font-family: Helvetica; font-size: 10px;fill: rgb(0%,0%,0%); stroke:none;" transform="translate(0,0) scale(1,-1)" x="0" y="0">Gene_01884</text>
			</g>
			<g transform=" matrix(0.707107,-0.707107,0.707107,0.707107,774.250195,169.825647)">
				<text style="font-family: Helvetica; font-size: 10px;fill: rgb(0%,0%,0%); stroke:none;" transform="translate(0,0) scale(1,-1)" x="0" y="0">Gene_01885</text>
			</g>
			<g transform=" matrix(0.707107,-0.707107,0.707107,0.707107,807.322502,169.825647)">
				<text style="font-family: Helvetica; font-size: 10px;fill: rgb(0%,0%,0%); stroke:none;" transform="translate(0,0) scale(1,-1)" x="0" y="0">Gene_01886</text>
			</g>
			<g transform=" matrix(0.707107,-0.707107,0.707107,0.707107,849.871832,169.825647)">
				<text style="font-family: Helvetica; font-size: 10px;fill: rgb(0%,0%,0%); stroke:none;" transform="translate(0,0) scale(1,-1)" x="0" y="0">Gene_01887</text>
			</g>
			<g transform=" matrix(0.707107,-0.707107,0.707107,0.707107,934.331278,169.825647)">
				<text style="font-family: Helvetica; font-size: 10px;fill: rgb(0%,0%,0%); stroke:none;" transform="translate(0,0) scale(1,-1)" x="0" y="0">Gene_01888</text>
			</g>
			<g transform=" matrix(0.707107,-0.707107,0.707107,0.707107,1024.071177,169.825647)">
				<text style="font-family: Helvetica; font-size: 10px;fill: rgb(0%,0%,0%); stroke:none;" transform="translate(0,0) scale(1,-1)" x="0" y="0">Gene_01889</text>
			</g>
			<g transform=" matrix(0.707107,-0.707107,0.707107,0.707107,1073.568471,169.825647)">
				<text style="font-family: Helvetica; font-size: 10px;fill: rgb(0%,0%,0%); stroke:none;" transform="translate(0,0) scale(1,-1)" x="0" y="0">Gene_01890</text>
			</g>
			<g transform=" matrix(0.707107,-0.707107,0.707107,0.707107,1100.054108,169.825647)">
				<text style="font-family: Helvetica; font-size: 10px;fill: rgb(0%,0%,0%); stroke:none;" transform="translate(0,0) scale(1,-1)" x="0" y="0">Gene_01891</text>
			</g>
			<g transform=" matrix(0.707107,-0.707107,0.707107,0.707107,1148.411936,169.825647)">
				<text style="font-family: Helvetica; font-size: 10px;fill: rgb(0%,0%,0%); stroke:none;" transform="translate(0,0) scale(1,-1)" x="0" y="0">Gene_01892</text>
			</g>
			<g transform=" matrix(0.707107,-0.707107,0.707107,0.707107,1197.798062,169.825647)">
				<text style="font-family: Helvetica; font-size: 10px;fill: rgb(0%,0%,0%); stroke:none;" transform="translate(0,0) scale(1,-1)" x="0" y="0">Gene_01893</text>
			</g>
			<g transform=" matrix(0.707107,-0.707107,0.707107,0.707107,1223.283192,169.825647)">
				<text style="font-family: Helvetica; font-size: 10px;fill: rgb(0%,0%,0%); stroke:none;" transform="translate(0,0) scale(1,-1)" x="0" y="0">Gene_01894</text>
			</g>
			<g transform=" matrix(0.707107,-0.707107,0.707107,0.707107,1269.084169,169.825647)">
				<text style="font-family: Helvetica; font-size: 10px;fill: rgb(0%,0%,0%); stroke:none;" transform="translate(0,0) scale(1,-1)" x="0" y="0">Gene_01895</text>
			</g>
			<g transform=" matrix(0.707107,-0.707107,0.707107,0.707107,1320.332349,169.825647)">
				<text style="font-family: Helvetica; font-size: 10px;fill: rgb(0%,0%,0%); stroke:none;" transform="translate(0,0) scale(1,-1)" x="0" y="0">Gene_01896</text>
			</g>
			<g transform=" matrix(0.707107,0.707107,-0.707107,0.707107,87.680214,538.835771)">
				<text style="font-family: Helvetica; font-size: 10px;fill: rgb(0%,0%,0%); stroke:none;" transform="translate(0,0) scale(1,-1)" x="0" y="0">Gene_01872</text>
			</g>
			<g transform=" matrix(0.707107,-0.707107,0.707107,0.707107,126.561019,456.833521)">
				<text style="font-family: Helvetica; font-size: 10px;fill: rgb(0%,0%,0%); stroke:none;" transform="translate(0,0) scale(1,-1)" x="0" y="0">Gene_01873</text>
			</g>
			<g transform=" matrix(0.707107,0.707107,-0.707107,0.707107,224.416139,538.835771)">
				<text style="font-family: Helvetica; font-size: 16px;fill: rgb(0%,0%,100%); stroke:none;" transform="translate(0,0) scale(1,-1)" x="0" y="0">Gene_01874 (83.8)</text>
			</g>
			<g transform=" matrix(0.707107,0.707107,-0.707107,0.707107,263.547071,538.835771)">
				<text style="font-family: Helvetica; font-size: 10px;fill: rgb(0%,0%,0%); stroke:none;" transform="translate(0,0) scale(1,-1)" x="0" y="0">Gene_01875</text>
			</g>
			<g transform=" matrix(0.707107,-0.707107,0.707107,0.707107,290.449586,456.833521)">
				<text style="font-family: Helvetica; font-size: 10px;fill: rgb(0%,0%,0%); stroke:none;" transform="translate(0,0) scale(1,-1)" x="0" y="0">Gene_01876</text>
			</g>
			<g transform=" matrix(1,0,-0,1,70,169.825647)">
				<text style="font-family: Helvetica; font-size: 12px;fill: rgb(60%,60%,60%); stroke:none;" transform="translate(0,0) scale(1,-1)" x="0" y="0">megahit_157214 (left 38446bp, right 23199bp)</text>
			</g>
		</g>
	</g>
</svg>
