<?xml version="1.0" encoding="utf-8"?>
<!DOCTYPE svg
  PUBLIC '-//W3C//DTD SVG 1.0//EN'
  'http://www.w3.org/TR/2001/REC-SVG-20010904/DTD/svg10.dtd'>
<svg fill-rule="evenodd" height="708.6614173228346" preserveAspectRatio="xMinYMin meet" version="1.0" viewBox="0 0 1417 708" width="1417.3228346456692" xmlns="http://www.w3.org/2000/svg" xmlns:xlink="http://www.w3.org/1999/xlink">
	<title>...</title>
	<desc>...</desc>
	<clipPath id="clip">
		<rect height="708.6614173228346" width="1417.3228346456692" x="0" y="0"/>
	</clipPath>
	<g id="group" style="clip-path: url(#clip)" transform="scale(1,-1) translate(0,-708)">
		<g transform="">
			<polygon points="70.86614 169.8256, 1346.403 169.8256, 1346.403 251.8279, 70.86614 251.8279" style="stroke: rgb(96%,96%,96%); stroke-linecap: butt; stroke-width: 1; fill: rgb(96%,96%,96%); fill-rule: evenodd;"/>
			<polygon points="70.86614 456.8335, 467.8874 456.8335, 467.8874 538.8358, 70.86614 538.8358" style="stroke: rgb(96%,96%,96%); stroke-linecap: butt; stroke-width: 1; fill: rgb(96%,96%,96%); fill-rule: evenodd;"/>
			<polygon points="171.3669 456.8335, 369.5526 456.8335, 579.8678 251.8279, 780.6527 251.8279" style="stroke: rgb(100%,43%,43%); stroke-linecap: round; stroke-width: 1; fill: rgb(100%,43%,43%); fill-rule: evenodd;"/>
			<polygon points="373.2348 456.8335, 414.7671 456.8335, 507.4163 251.8279, 548.6237 251.8279" style="stroke: rgb(100%,42%,42%); stroke-linecap: round; stroke-width: 1; fill: rgb(100%,42%,42%); fill-rule: evenodd;"/>
			<polygon points="70.86614 241.5776, 70.86614 251.8279, 84.62002 231.3273, 70.86614 210.8268, 70.86614 221.0771" style="stroke: rgb(67%,84%,90%); stroke-linecap: round; stroke-width: 1; fill: rgb(67%,84%,90%); fill-rule: evenodd;"/>
			<polygon points="96.31622 241.5776, 127.1338 241.5776, 127.1338 251.8279, 143.5342 231.3273, 127.1338 210.8268, 127.1338 221.0771, 96.31622 221.0771" style="stroke: rgb(67%,84%,90%); stroke-linecap: round; stroke-width: 1; fill: rgb(67%,84%,90%); fill-rule: evenodd;"/>
			<polygon points="148.6243 241.5776, 234.349 241.5776, 234.349 251.8279, 250.7495 231.3273, 234.349 210.8268, 234.349 221.0771, 148.6243 221.0771" style="stroke: rgb(67%,84%,90%); stroke-linecap: round; stroke-width: 1; fill: rgb(67%,84%,90%); fill-rule: evenodd;"/>
			<polygon points="253.132 241.5776, 314.0024 241.5776, 314.0024 251.8279, 330.4028 231.3273, 314.0024 210.8268, 314.0024 221.0771, 253.132 221.0771" style="stroke: rgb(67%,84%,90%); stroke-linecap: round; stroke-width: 1; fill: rgb(67%,84%,90%); fill-rule: evenodd;"/>
			<polygon points="340.5287 241.5776, 393.764 241.5776, 393.764 251.8279, 410.1645 231.3273, 393.764 210.8268, 393.764 221.0771, 340.5287 221.0771" style="stroke: rgb(67%,84%,90%); stroke-linecap: round; stroke-width: 1; fill: rgb(67%,84%,90%); fill-rule: evenodd;"/>
			<polygon points="420.4528 241.5776, 481.1607 241.5776, 481.1607 251.8279, 497.5611 231.3273, 481.1607 210.8268, 481.1607 221.0771, 420.4528 221.0771" style="stroke: rgb(67%,84%,90%); stroke-linecap: round; stroke-width: 1; fill: rgb(67%,84%,90%); fill-rule: evenodd;"/>
			<polygon points="547.7573 200.5765, 523.4377 200.5765, 523.4377 210.8268, 507.0372 190.3262, 523.4377 169.8256, 523.4377 180.0759, 547.7573 180.0759" style="stroke: rgb(56%,93%,56%); stroke-linecap: round; stroke-width: 1; fill: rgb(56%,93%,56%); fill-rule: evenodd;"/>
			<polygon points="577.1603 200.5765, 564.5368 200.5765, 564.5368 210.8268, 548.1364 190.3262, 564.5368 169.8256, 564.5368 180.0759, 577.1603 180.0759" style="stroke: rgb(56%,93%,56%); stroke-linecap: round; stroke-width: 1; fill: rgb(56%,93%,56%); fill-rule: evenodd;"/>
			<polygon points="617.6638 200.5765, 596.2682 200.5765, 596.2682 210.8268, 579.8678 190.3262, 596.2682 169.8256, 596.2682 180.0759, 617.6638 180.0759" style="stroke: rgb(56%,93%,56%); stroke-linecap: round; stroke-width: 1; fill: rgb(56%,93%,56%); fill-rule: evenodd;"/>
			<polygon points="699.6456 200.5765, 633.9018 200.5765, 633.9018 210.8268, 617.5014 190.3262, 633.9018 169.8256, 633.9018 180.0759, 699.6456 180.0759" style="stroke: rgb(56%,93%,56%); stroke-linecap: round; stroke-width: 1; fill: rgb(56%,93%,56%); fill-rule: evenodd;"/>
			<polygon points="714.1576 241.5776, 764.7937 241.5776, 764.7937 251.8279, 781.1941 231.3273, 764.7937 210.8268, 764.7937 221.0771, 714.1576 221.0771" style="stroke: rgb(67%,84%,90%); stroke-linecap: round; stroke-width: 1; fill: rgb(67%,84%,90%); fill-rule: evenodd;"/>
			<polygon points="879.0957 200.5765, 802.9554 200.5765, 802.9554 210.8268, 786.5549 190.3262, 802.9554 169.8256, 802.9554 180.0759, 879.0957 180.0759" style="stroke: rgb(56%,93%,56%); stroke-linecap: round; stroke-width: 1; fill: rgb(56%,93%,56%); fill-rule: evenodd;"/>
			<polygon points="910.6647 200.5765, 897.229 200.5765, 897.229 210.8268, 880.8285 190.3262, 897.229 169.8256, 897.229 180.0759, 910.6647 180.0759" style="stroke: rgb(56%,93%,56%); stroke-linecap: round; stroke-width: 1; fill: rgb(56%,93%,56%); fill-rule: evenodd;"/>
			<polygon points="933.678 241.5776, 948.7382 241.5776, 948.7382 251.8279, 965.1387 231.3273, 948.7382 210.8268, 948.7382 221.0771, 933.678 221.0771" style="stroke: rgb(67%,84%,90%); stroke-linecap: round; stroke-width: 1; fill: rgb(67%,84%,90%); fill-rule: evenodd;"/>
			<polygon points="996.3286 200.5765, 991.1777 200.5765, 991.1777 210.8268, 974.7772 190.3262, 991.1777 169.8256, 991.1777 180.0759, 996.3286 180.0759" style="stroke: rgb(56%,93%,56%); stroke-linecap: round; stroke-width: 1; fill: rgb(56%,93%,56%); fill-rule: evenodd;"/>
			<polygon points="1010.461 200.5765, 1010.461 210.8268, 996.5452 190.3262, 1010.461 169.8256, 1010.461 180.0759" style="stroke: rgb(56%,93%,56%); stroke-linecap: round; stroke-width: 1; fill: rgb(56%,93%,56%); fill-rule: evenodd;"/>
			<polygon points="1115.781 200.5765, 1034.118 200.5765, 1034.118 210.8268, 1017.717 190.3262, 1034.118 169.8256, 1034.118 180.0759, 1115.781 180.0759" style="stroke: rgb(56%,93%,56%); stroke-linecap: round; stroke-width: 1; fill: rgb(56%,93%,56%); fill-rule: evenodd;"/>
			<polygon points="1174.425 200.5765, 1137.759 200.5765, 1137.759 210.8268, 1121.359 190.3262, 1137.759 169.8256, 1137.759 180.0759, 1174.425 180.0759" style="stroke: rgb(56%,93%,56%); stroke-linecap: round; stroke-width: 1; fill: rgb(56%,93%,56%); fill-rule: evenodd;"/>
			<polygon points="1346.403 200.5765, 1190.013 200.5765, 1190.013 210.8268, 1173.613 190.3262, 1190.013 169.8256, 1190.013 180.0759, 1346.403 180.0759" style="stroke: rgb(56%,93%,56%); stroke-linecap: round; stroke-width: 1; fill: rgb(56%,93%,56%); fill-rule: evenodd;"/>
			<polygon points="113.2107 528.5855, 113.2107 538.8358, 121.6039 518.3352, 113.2107 497.8346, 113.2107 508.0849" style="stroke: rgb(67%,84%,90%); stroke-linecap: round; stroke-width: 1; fill: rgb(67%,84%,90%); fill-rule: evenodd;"/>
			<polygon points="123.4449 528.5855, 150.2013 528.5855, 150.2013 538.8358, 166.6018 518.3352, 150.2013 497.8346, 150.2013 508.0849, 123.4449 508.0849" style="stroke: rgb(67%,84%,90%); stroke-linecap: round; stroke-width: 1; fill: rgb(67%,84%,90%); fill-rule: evenodd;"/>
			<polygon points="237.862 487.5844, 187.0634 487.5844, 187.0634 497.8346, 170.6629 477.3341, 187.0634 456.8335, 187.0634 467.0838, 237.862 467.0838" style="stroke: rgb(56%,93%,56%); stroke-linecap: round; stroke-width: 1; fill: rgb(56%,93%,56%); fill-rule: evenodd;"/>
			<polygon points="249.7748 528.5855, 315.5185 528.5855, 315.5185 538.8358, 331.919 518.3352, 315.5185 497.8346, 315.5185 508.0849, 249.7748 508.0849" style="stroke: rgb(67%,84%,90%); stroke-linecap: round; stroke-width: 1; fill: rgb(67%,84%,90%); fill-rule: evenodd;"/>
			<polygon points="331.7565 528.5855, 353.1522 528.5855, 353.1522 538.8358, 369.5526 518.3352, 353.1522 497.8346, 353.1522 508.0849, 331.7565 508.0849" style="stroke: rgb(67%,84%,90%); stroke-linecap: round; stroke-width: 1; fill: rgb(67%,84%,90%); fill-rule: evenodd;"/>
			<polygon points="374.1011 528.5855, 398.9082 528.5855, 398.9082 538.8358, 415.3086 518.3352, 398.9082 497.8346, 398.9082 508.0849, 374.1011 508.0849" style="stroke: rgb(67%,84%,90%); stroke-linecap: round; stroke-width: 1; fill: rgb(67%,84%,90%); fill-rule: evenodd;"/>
			<polygon points="416.9331 528.5855, 416.9331 538.8358, 424.514 518.3352, 416.9331 497.8346, 416.9331 508.0849" style="stroke: rgb(67%,84%,90%); stroke-linecap: round; stroke-width: 1; fill: rgb(67%,84%,90%); fill-rule: evenodd;"/>
			<path d="M 1346.402544,169.825647 L 1346.402544,251.827897 Z" style="stroke: rgb(0%,0%,0%); stroke-linecap: butt; stroke-width: 1;"/>
			<path d="M 70.866142,210.826772 L 1346.402544,210.826772 Z" style="stroke: rgb(0%,0%,0%); stroke-linecap: butt; stroke-width: 1;"/>
			<path d="M 70.866142,169.825647 L 70.866142,251.827897 Z" style="stroke: rgb(0%,0%,0%); stroke-linecap: butt; stroke-width: 1;"/>
			<path d="M 612.357228,210.826772 L 612.357228,231.327334 Z" style="stroke: rgb(0%,0%,0%); stroke-linecap: butt; stroke-width: 1;"/>
			<path d="M 1153.848314,210.826772 L 1153.848314,231.327334 Z" style="stroke: rgb(0%,0%,0%); stroke-linecap: butt; stroke-width: 1;"/>
			<path d="M 612.357228,210.826772 L 612.357228,223.127109 Z" style="stroke: rgb(0%,0%,0%); stroke-linecap: butt; stroke-width: 1;"/>
			<path d="M 1153.848314,210.826772 L 1153.848314,223.127109 Z" style="stroke: rgb(0%,0%,0%); stroke-linecap: butt; stroke-width: 1;"/>
			<path d="M 467.887406,456.833521 L 467.887406,538.835771 Z" style="stroke: rgb(0%,0%,0%); stroke-linecap: butt; stroke-width: 1;"/>
			<path d="M 70.866142,497.834646 L 467.887406,497.834646 Z" style="stroke: rgb(0%,0%,0%); stroke-linecap: butt; stroke-width: 1;"/>
			<path d="M 70.866142,456.833521 L 70.866142,538.835771 Z" style="stroke: rgb(0%,0%,0%); stroke-linecap: butt; stroke-width: 1;"/>
			<g transform=" matrix(0.707107,0.707107,-0.707107,0.707107,612.357228,231.327334)">
				<text style="font-family: Helvetica; font-size: 6px;fill: rgb(0%,0%,0%); stroke:none;" transform="translate(0,0) scale(1,-1)" x="0" y="0">10000</text>
			</g>
			<g transform=" matrix(0.707107,0.707107,-0.707107,0.707107,1153.848314,231.327334)">
				<text style="font-family: Helvetica; font-size: 6px;fill: rgb(0%,0%,0%); stroke:none;" transform="translate(0,0) scale(1,-1)" x="0" y="0">20000</text>
			</g>
			<g transform=" matrix(0.707107,0.707107,-0.707107,0.707107,77.743079,251.827897)">
				<text style="font-family: Helvetica; font-size: 10px;fill: rgb(0%,0%,0%); stroke:none;" transform="translate(0,0) scale(1,-1)" x="0" y="0">Gene_02568</text>
			</g>
			<g transform=" matrix(0.707107,0.707107,-0.707107,0.707107,119.925234,251.827897)">
				<text style="font-family: Helvetica; font-size: 10px;fill: rgb(0%,0%,0%); stroke:none;" transform="translate(0,0) scale(1,-1)" x="0" y="0">Gene_02569</text>
			</g>
			<g transform=" matrix(0.707107,0.707107,-0.707107,0.707107,199.686871,251.827897)">
				<text style="font-family: Helvetica; font-size: 10px;fill: rgb(0%,0%,0%); stroke:none;" transform="translate(0,0) scale(1,-1)" x="0" y="0">Gene_02570</text>
			</g>
			<g transform=" matrix(0.707107,0.707107,-0.707107,0.707107,291.76743,251.827897)">
				<text style="font-family: Helvetica; font-size: 10px;fill: rgb(0%,0%,0%); stroke:none;" transform="translate(0,0) scale(1,-1)" x="0" y="0">Gene_02571</text>
			</g>
			<g transform=" matrix(0.707107,0.707107,-0.707107,0.707107,375.346579,251.827897)">
				<text style="font-family: Helvetica; font-size: 10px;fill: rgb(0%,0%,0%); stroke:none;" transform="translate(0,0) scale(1,-1)" x="0" y="0">Gene_02572</text>
			</g>
			<g transform=" matrix(0.707107,0.707107,-0.707107,0.707107,459.006952,251.827897)">
				<text style="font-family: Helvetica; font-size: 10px;fill: rgb(0%,0%,0%); stroke:none;" transform="translate(0,0) scale(1,-1)" x="0" y="0">Gene_02573</text>
			</g>
			<g transform=" matrix(0.707107,-0.707107,0.707107,0.707107,527.397276,169.825647)">
				<text style="font-family: Helvetica; font-size: 10px;fill: rgb(0%,0%,0%); stroke:none;" transform="translate(0,0) scale(1,-1)" x="0" y="0">Gene_02574</text>
			</g>
			<g transform=" matrix(0.707107,-0.707107,0.707107,0.707107,562.648346,169.825647)">
				<text style="font-family: Helvetica; font-size: 10px;fill: rgb(0%,0%,0%); stroke:none;" transform="translate(0,0) scale(1,-1)" x="0" y="0">Gene_02575</text>
			</g>
			<g transform=" matrix(0.707107,-0.707107,0.707107,0.707107,598.765801,169.825647)">
				<text style="font-family: Helvetica; font-size: 10px;fill: rgb(0%,0%,0%); stroke:none;" transform="translate(0,0) scale(1,-1)" x="0" y="0">Gene_02576</text>
			</g>
			<g transform=" matrix(0.707107,-0.707107,0.707107,0.707107,658.573492,169.825647)">
				<text style="font-family: Helvetica; font-size: 16px;fill: rgb(0%,0%,100%); stroke:none;" transform="translate(0,0) scale(1,-1)" x="0" y="0">Gene_02577 (80.4)</text>
			</g>
			<g transform=" matrix(0.707107,0.707107,-0.707107,0.707107,747.67585,251.827897)">
				<text style="font-family: Helvetica; font-size: 10px;fill: rgb(0%,0%,0%); stroke:none;" transform="translate(0,0) scale(1,-1)" x="0" y="0">Gene_02578</text>
			</g>
			<g transform=" matrix(0.707107,-0.707107,0.707107,0.707107,832.825323,169.825647)">
				<text style="font-family: Helvetica; font-size: 10px;fill: rgb(0%,0%,0%); stroke:none;" transform="translate(0,0) scale(1,-1)" x="0" y="0">Gene_02579</text>
			</g>
			<g transform=" matrix(0.707107,-0.707107,0.707107,0.707107,895.746588,169.825647)">
				<text style="font-family: Helvetica; font-size: 10px;fill: rgb(0%,0%,0%); stroke:none;" transform="translate(0,0) scale(1,-1)" x="0" y="0">Gene_02580</text>
			</g>
			<g transform=" matrix(0.707107,0.707107,-0.707107,0.707107,949.408354,251.827897)">
				<text style="font-family: Helvetica; font-size: 10px;fill: rgb(0%,0%,0%); stroke:none;" transform="translate(0,0) scale(1,-1)" x="0" y="0">Gene_02581</text>
			</g>
			<g transform=" matrix(0.707107,-0.707107,0.707107,0.707107,985.552884,169.825647)">
				<text style="font-family: Helvetica; font-size: 10px;fill: rgb(0%,0%,0%); stroke:none;" transform="translate(0,0) scale(1,-1)" x="0" y="0">Gene_02582</text>
			</g>
			<g transform=" matrix(0.707107,-0.707107,0.707107,0.707107,1003.503314,169.825647)">
				<text style="font-family: Helvetica; font-size: 10px;fill: rgb(0%,0%,0%); stroke:none;" transform="translate(0,0) scale(1,-1)" x="0" y="0">Gene_02583</text>
			</g>
			<g transform=" matrix(0.707107,-0.707107,0.707107,0.707107,1066.749472,169.825647)">
				<text style="font-family: Helvetica; font-size: 10px;fill: rgb(0%,0%,0%); stroke:none;" transform="translate(0,0) scale(1,-1)" x="0" y="0">Gene_02584</text>
			</g>
			<g transform=" matrix(0.707107,-0.707107,0.707107,0.707107,1147.891912,169.825647)">
				<text style="font-family: Helvetica; font-size: 10px;fill: rgb(0%,0%,0%); stroke:none;" transform="translate(0,0) scale(1,-1)" x="0" y="0">Gene_02585</text>
			</g>
			<g transform=" matrix(0.707107,-0.707107,0.707107,0.707107,1260.007641,169.825647)">
				<text style="font-family: Helvetica; font-size: 10px;fill: rgb(0%,0%,0%); stroke:none;" transform="translate(0,0) scale(1,-1)" x="0" y="0">Gene_02586</text>
			</g>
			<g transform=" matrix(0.707107,0.707107,-0.707107,0.707107,117.407301,538.835771)">
				<text style="font-family: Helvetica; font-size: 10px;fill: rgb(0%,0%,0%); stroke:none;" transform="translate(0,0) scale(1,-1)" x="0" y="0">Gene_00883</text>
			</g>
			<g transform=" matrix(0.707107,0.707107,-0.707107,0.707107,145.023346,538.835771)">
				<text style="font-family: Helvetica; font-size: 10px;fill: rgb(0%,0%,0%); stroke:none;" transform="translate(0,0) scale(1,-1)" x="0" y="0">Gene_00884</text>
			</g>
			<g transform=" matrix(0.707107,-0.707107,0.707107,0.707107,204.262471,456.833521)">
				<text style="font-family: Helvetica; font-size: 10px;fill: rgb(0%,0%,0%); stroke:none;" transform="translate(0,0) scale(1,-1)" x="0" y="0">Gene_00885</text>
			</g>
			<g transform=" matrix(0.707107,0.707107,-0.707107,0.707107,290.846895,538.835771)">
				<text style="font-family: Helvetica; font-size: 16px;fill: rgb(0%,0%,100%); stroke:none;" transform="translate(0,0) scale(1,-1)" x="0" y="0">Gene_00886 (80.4)</text>
			</g>
			<g transform=" matrix(0.707107,0.707107,-0.707107,0.707107,350.654586,538.835771)">
				<text style="font-family: Helvetica; font-size: 10px;fill: rgb(0%,0%,0%); stroke:none;" transform="translate(0,0) scale(1,-1)" x="0" y="0">Gene_00887</text>
			</g>
			<g transform=" matrix(0.707107,0.707107,-0.707107,0.707107,394.704886,538.835771)">
				<text style="font-family: Helvetica; font-size: 10px;fill: rgb(0%,0%,0%); stroke:none;" transform="translate(0,0) scale(1,-1)" x="0" y="0">Gene_00888</text>
			</g>
			<g transform=" matrix(0.707107,0.707107,-0.707107,0.707107,420.723532,538.835771)">
				<text style="font-family: Helvetica; font-size: 10px;fill: rgb(0%,0%,0%); stroke:none;" transform="translate(0,0) scale(1,-1)" x="0" y="0">Gene_00889</text>
			</g>
			<g transform=" matrix(1,0,-0,1,70,169.825647)">
				<text style="font-family: Helvetica; font-size: 12px;fill: rgb(60%,60%,60%); stroke:none;" transform="translate(0,0) scale(1,-1)" x="0" y="0">megahit_150824 (left 13480bp, right 28243bp)</text>
			</g>
			<g transform=" matrix(1,0,-0,1,70,456.833521)">
				<text style="font-family: Helvetica; font-size: 12px;fill: rgb(60%,60%,60%); stroke:none;" transform="translate(0,0) scale(1,-1)" x="0" y="0">megahit_29645 (left 3304bp, right 2511bp)</text>
			</g>
		</g>
	</g>
</svg>
