<?xml version="1.0" encoding="utf-8"?>
<!DOCTYPE svg
  PUBLIC '-//W3C//DTD SVG 1.0//EN'
  'http://www.w3.org/TR/2001/REC-SVG-20010904/DTD/svg10.dtd'>
<svg fill-rule="evenodd" height="708.6614173228346" preserveAspectRatio="xMinYMin meet" version="1.0" viewBox="0 0 1417 708" width="1417.3228346456692" xmlns="http://www.w3.org/2000/svg" xmlns:xlink="http://www.w3.org/1999/xlink">
	<title>...</title>
	<desc>...</desc>
	<clipPath id="clip">
		<rect height="708.6614173228346" width="1417.3228346456692" x="0" y="0"/>
	</clipPath>
	<g id="group" style="clip-path: url(#clip)" transform="scale(1,-1) translate(0,-708)">
		<g transform="">
			<polygon points="70.86614 169.8256, 695.2644 169.8256, 695.2644 251.8279, 70.86614 251.8279" style="stroke: rgb(96%,96%,96%); stroke-linecap: butt; stroke-width: 1; fill: rgb(96%,96%,96%); fill-rule: evenodd;"/>
			<polygon points="70.86614 456.8335, 1346.297 456.8335, 1346.297 538.8358, 70.86614 538.8358" style="stroke: rgb(96%,96%,96%); stroke-linecap: butt; stroke-width: 1; fill: rgb(96%,96%,96%); fill-rule: evenodd;"/>
			<polygon points="210.0998 456.8335, 735.934 456.8335, 169.4302 251.8279, 695.2644 251.8279" style="stroke: rgb(100%,14%,14%); stroke-linecap: round; stroke-width: 1; fill: rgb(100%,14%,14%); fill-rule: evenodd;"/>
			<polygon points="77.24569 241.5776, 133.4126 241.5776, 133.4126 251.8279, 149.813 231.3273, 133.4126 210.8268, 133.4126 221.0771, 77.24569 221.0771" style="stroke: rgb(67%,84%,90%); stroke-linecap: round; stroke-width: 1; fill: rgb(67%,84%,90%); fill-rule: evenodd;"/>
			<polygon points="370.7049 200.5765, 183.9167 200.5765, 183.9167 210.8268, 167.5163 190.3262, 183.9167 169.8256, 183.9167 180.0759, 370.7049 180.0759" style="stroke: rgb(56%,93%,56%); stroke-linecap: round; stroke-width: 1; fill: rgb(56%,93%,56%); fill-rule: evenodd;"/>
			<polygon points="437.2117 200.5765, 397.3126 200.5765, 397.3126 210.8268, 380.9122 190.3262, 397.3126 169.8256, 397.3126 180.0759, 437.2117 180.0759" style="stroke: rgb(56%,93%,56%); stroke-linecap: round; stroke-width: 1; fill: rgb(56%,93%,56%); fill-rule: evenodd;"/>
			<polygon points="669.7462 200.5765, 456.6424 200.5765, 456.6424 210.8268, 440.242 190.3262, 456.6424 169.8256, 456.6424 180.0759, 669.7462 180.0759" style="stroke: rgb(56%,93%,56%); stroke-linecap: round; stroke-width: 1; fill: rgb(56%,93%,56%); fill-rule: evenodd;"/>
			<polygon points="108.346 528.5855, 135.3265 528.5855, 135.3265 538.8358, 151.7269 518.3352, 135.3265 497.8346, 135.3265 508.0849, 108.346 508.0849" style="stroke: rgb(67%,84%,90%); stroke-linecap: round; stroke-width: 1; fill: rgb(67%,84%,90%); fill-rule: evenodd;"/>
			<polygon points="174.8528 528.5855, 448.7217 528.5855, 448.7217 538.8358, 465.1222 518.3352, 448.7217 497.8346, 448.7217 508.0849, 174.8528 508.0849" style="stroke: rgb(67%,84%,90%); stroke-linecap: round; stroke-width: 1; fill: rgb(67%,84%,90%); fill-rule: evenodd;"/>
			<polygon points="468.1525 528.5855, 508.0515 528.5855, 508.0515 538.8358, 524.452 518.3352, 508.0515 497.8346, 508.0515 508.0849, 468.1525 508.0849" style="stroke: rgb(67%,84%,90%); stroke-linecap: round; stroke-width: 1; fill: rgb(67%,84%,90%); fill-rule: evenodd;"/>
			<polygon points="534.6593 528.5855, 726.7105 528.5855, 726.7105 538.8358, 743.111 518.3352, 726.7105 497.8346, 726.7105 508.0849, 534.6593 508.0849" style="stroke: rgb(67%,84%,90%); stroke-linecap: round; stroke-width: 1; fill: rgb(67%,84%,90%); fill-rule: evenodd;"/>
			<polygon points="899.4099 487.5844, 762.3822 487.5844, 762.3822 497.8346, 745.9818 477.3341, 762.3822 456.8335, 762.3822 467.0838, 899.4099 467.0838" style="stroke: rgb(56%,93%,56%); stroke-linecap: round; stroke-width: 1; fill: rgb(56%,93%,56%); fill-rule: evenodd;"/>
			<polygon points="1005.47 487.5844, 918.2027 487.5844, 918.2027 497.8346, 901.8022 477.3341, 918.2027 456.8335, 918.2027 467.0838, 1005.47 467.0838" style="stroke: rgb(56%,93%,56%); stroke-linecap: round; stroke-width: 1; fill: rgb(56%,93%,56%); fill-rule: evenodd;"/>
			<polygon points="1030.031 528.5855, 1062.753 528.5855, 1062.753 538.8358, 1079.154 518.3352, 1062.753 497.8346, 1062.753 508.0849, 1030.031 508.0849" style="stroke: rgb(67%,84%,90%); stroke-linecap: round; stroke-width: 1; fill: rgb(67%,84%,90%); fill-rule: evenodd;"/>
			<polygon points="1076.602 528.5855, 1157.649 528.5855, 1157.649 538.8358, 1174.049 518.3352, 1157.649 497.8346, 1157.649 508.0849, 1076.602 508.0849" style="stroke: rgb(67%,84%,90%); stroke-linecap: round; stroke-width: 1; fill: rgb(67%,84%,90%); fill-rule: evenodd;"/>
			<polygon points="1175.644 528.5855, 1203.103 528.5855, 1203.103 538.8358, 1219.504 518.3352, 1203.103 497.8346, 1203.103 508.0849, 1175.644 508.0849" style="stroke: rgb(67%,84%,90%); stroke-linecap: round; stroke-width: 1; fill: rgb(67%,84%,90%); fill-rule: evenodd;"/>
			<polygon points="1251.88 528.5855, 1280.774 528.5855, 1280.774 538.8358, 1297.175 518.3352, 1280.774 497.8346, 1280.774 508.0849, 1251.88 508.0849" style="stroke: rgb(67%,84%,90%); stroke-linecap: round; stroke-width: 1; fill: rgb(67%,84%,90%); fill-rule: evenodd;"/>
			<path d="M 695.264367,169.825647 L 695.264367,251.827897 Z" style="stroke: rgb(0%,0%,0%); stroke-linecap: butt; stroke-width: 1;"/>
			<path d="M 70.866142,210.826772 L 695.264367,210.826772 Z" style="stroke: rgb(0%,0%,0%); stroke-linecap: butt; stroke-width: 1;"/>
			<path d="M 70.866142,169.825647 L 70.866142,251.827897 Z" style="stroke: rgb(0%,0%,0%); stroke-linecap: butt; stroke-width: 1;"/>
			<path d="M 1346.297204,456.833521 L 1346.297204,538.835771 Z" style="stroke: rgb(0%,0%,0%); stroke-linecap: butt; stroke-width: 1;"/>
			<path d="M 70.866142,497.834646 L 1346.297204,497.834646 Z" style="stroke: rgb(0%,0%,0%); stroke-linecap: butt; stroke-width: 1;"/>
			<path d="M 70.866142,456.833521 L 70.866142,538.835771 Z" style="stroke: rgb(0%,0%,0%); stroke-linecap: butt; stroke-width: 1;"/>
			<g transform=" matrix(0.707107,0.707107,-0.707107,0.707107,113.529367,251.827897)">
				<text style="font-family: Helvetica; font-size: 10px;fill: rgb(0%,0%,0%); stroke:none;" transform="translate(0,0) scale(1,-1)" x="0" y="0">Gene_00009</text>
			</g>
			<g transform=" matrix(0.707107,-0.707107,0.707107,0.707107,269.110585,169.825647)">
				<text style="font-family: Helvetica; font-size: 10px;fill: rgb(0%,0%,0%); stroke:none;" transform="translate(0,0) scale(1,-1)" x="0" y="0">Gene_00010</text>
			</g>
			<g transform=" matrix(0.707107,-0.707107,0.707107,0.707107,409.061911,169.825647)">
				<text style="font-family: Helvetica; font-size: 16px;fill: rgb(0%,0%,100%); stroke:none;" transform="translate(0,0) scale(1,-1)" x="0" y="0">Gene_00011 (91.5)</text>
			</g>
			<g transform=" matrix(0.707107,-0.707107,0.707107,0.707107,554.994063,169.825647)">
				<text style="font-family: Helvetica; font-size: 10px;fill: rgb(0%,0%,0%); stroke:none;" transform="translate(0,0) scale(1,-1)" x="0" y="0">Gene_00012</text>
			</g>
			<g transform=" matrix(0.707107,0.707107,-0.707107,0.707107,130.036446,538.835771)">
				<text style="font-family: Helvetica; font-size: 10px;fill: rgb(0%,0%,0%); stroke:none;" transform="translate(0,0) scale(1,-1)" x="0" y="0">Gene_00177</text>
			</g>
			<g transform=" matrix(0.707107,0.707107,-0.707107,0.707107,319.987477,538.835771)">
				<text style="font-family: Helvetica; font-size: 10px;fill: rgb(0%,0%,0%); stroke:none;" transform="translate(0,0) scale(1,-1)" x="0" y="0">Gene_00178</text>
			</g>
			<g transform=" matrix(0.707107,0.707107,-0.707107,0.707107,496.302225,538.835771)">
				<text style="font-family: Helvetica; font-size: 16px;fill: rgb(0%,0%,100%); stroke:none;" transform="translate(0,0) scale(1,-1)" x="0" y="0">Gene_00179 (91.5)</text>
			</g>
			<g transform=" matrix(0.707107,0.707107,-0.707107,0.707107,638.885115,538.835771)">
				<text style="font-family: Helvetica; font-size: 10px;fill: rgb(0%,0%,0%); stroke:none;" transform="translate(0,0) scale(1,-1)" x="0" y="0">Gene_00180</text>
			</g>
			<g transform=" matrix(0.707107,-0.707107,0.707107,0.707107,822.695831,456.833521)">
				<text style="font-family: Helvetica; font-size: 10px;fill: rgb(0%,0%,0%); stroke:none;" transform="translate(0,0) scale(1,-1)" x="0" y="0">Gene_00181</text>
			</g>
			<g transform=" matrix(0.707107,-0.707107,0.707107,0.707107,953.636047,456.833521)">
				<text style="font-family: Helvetica; font-size: 10px;fill: rgb(0%,0%,0%); stroke:none;" transform="translate(0,0) scale(1,-1)" x="0" y="0">Gene_00182</text>
			</g>
			<g transform=" matrix(0.707107,0.707107,-0.707107,0.707107,1054.592388,538.835771)">
				<text style="font-family: Helvetica; font-size: 10px;fill: rgb(0%,0%,0%); stroke:none;" transform="translate(0,0) scale(1,-1)" x="0" y="0">Gene_00183</text>
			</g>
			<g transform=" matrix(0.707107,0.707107,-0.707107,0.707107,1125.325623,538.835771)">
				<text style="font-family: Helvetica; font-size: 10px;fill: rgb(0%,0%,0%); stroke:none;" transform="translate(0,0) scale(1,-1)" x="0" y="0">Gene_00184</text>
			</g>
			<g transform=" matrix(0.707107,0.707107,-0.707107,0.707107,1197.574,538.835771)">
				<text style="font-family: Helvetica; font-size: 10px;fill: rgb(0%,0%,0%); stroke:none;" transform="translate(0,0) scale(1,-1)" x="0" y="0">Gene_00185</text>
			</g>
			<g transform=" matrix(0.707107,0.707107,-0.707107,0.707107,1274.527293,538.835771)">
				<text style="font-family: Helvetica; font-size: 10px;fill: rgb(0%,0%,0%); stroke:none;" transform="translate(0,0) scale(1,-1)" x="0" y="0">Gene_00186</text>
			</g>
			<g transform=" matrix(1,0,-0,1,70,169.825647)">
				<text style="font-family: Helvetica; font-size: 12px;fill: rgb(60%,60%,60%); stroke:none;" transform="translate(0,0) scale(1,-1)" x="0" y="0">megahit_1059 (left 1944bp, right 1618bp)</text>
			</g>
			<g transform=" matrix(1,0,-0,1,70,456.833521)">
				<text style="font-family: Helvetica; font-size: 12px;fill: rgb(60%,60%,60%); stroke:none;" transform="translate(0,0) scale(1,-1)" x="0" y="0">megahit_20916 (left 2491bp, right 5153bp)</text>
			</g>
		</g>
	</g>
</svg>
