<?xml version="1.0" encoding="utf-8"?>
<!DOCTYPE svg
  PUBLIC '-//W3C//DTD SVG 1.0//EN'
  'http://www.w3.org/TR/2001/REC-SVG-20010904/DTD/svg10.dtd'>
<svg fill-rule="evenodd" height="708.6614173228346" preserveAspectRatio="xMinYMin meet" version="1.0" viewBox="0 0 1417 708" width="1417.3228346456692" xmlns="http://www.w3.org/2000/svg" xmlns:xlink="http://www.w3.org/1999/xlink">
	<title>...</title>
	<desc>...</desc>
	<clipPath id="clip">
		<rect height="708.6614173228346" width="1417.3228346456692" x="0" y="0"/>
	</clipPath>
	<g id="group" style="clip-path: url(#clip)" transform="scale(1,-1) translate(0,-708)">
		<g transform="">
			<polygon points="70.86614 169.8256, 934.9893 169.8256, 934.9893 251.8279, 70.86614 251.8279" style="stroke: rgb(96%,96%,96%); stroke-linecap: butt; stroke-width: 1; fill: rgb(96%,96%,96%); fill-rule: evenodd;"/>
			<polygon points="70.86614 456.8335, 1346.397 456.8335, 1346.397 538.8358, 70.86614 538.8358" style="stroke: rgb(96%,96%,96%); stroke-linecap: butt; stroke-width: 1; fill: rgb(96%,96%,96%); fill-rule: evenodd;"/>
			<polygon points="686.3139 456.8335, 805.8374 456.8335, 895.6434 251.8279, 775.8228 251.8279" style="stroke: rgb(100%,18%,18%); stroke-linecap: round; stroke-width: 1; fill: rgb(100%,18%,18%); fill-rule: evenodd;"/>
			<polygon points="70.86614 241.5776, 208.1048 241.5776, 208.1048 251.8279, 224.5052 231.3273, 208.1048 210.8268, 208.1048 221.0771, 70.86614 221.0771" style="stroke: rgb(67%,84%,90%); stroke-linecap: round; stroke-width: 1; fill: rgb(67%,84%,90%); fill-rule: evenodd;"/>
			<polygon points="230.627 241.5776, 312.2346 241.5776, 312.2346 251.8279, 328.635 231.3273, 312.2346 210.8268, 312.2346 221.0771, 230.627 221.0771" style="stroke: rgb(67%,84%,90%); stroke-linecap: round; stroke-width: 1; fill: rgb(67%,84%,90%); fill-rule: evenodd;"/>
			<polygon points="355.6185 241.5776, 390.6886 241.5776, 390.6886 251.8279, 407.089 231.3273, 390.6886 210.8268, 390.6886 221.0771, 355.6185 221.0771" style="stroke: rgb(67%,84%,90%); stroke-linecap: round; stroke-width: 1; fill: rgb(67%,84%,90%); fill-rule: evenodd;"/>
			<polygon points="425.9299 200.5765, 425.9299 210.8268, 413.8646 190.3262, 425.9299 169.8256, 425.9299 180.0759" style="stroke: rgb(56%,93%,56%); stroke-linecap: round; stroke-width: 1; fill: rgb(56%,93%,56%); fill-rule: evenodd;"/>
			<polygon points="432.646 241.5776, 512.4706 241.5776, 512.4706 251.8279, 528.871 231.3273, 512.4706 210.8268, 512.4706 221.0771, 432.646 221.0771" style="stroke: rgb(67%,84%,90%); stroke-linecap: round; stroke-width: 1; fill: rgb(67%,84%,90%); fill-rule: evenodd;"/>
			<polygon points="536.3004 241.5776, 536.3004 251.8279, 545.8694 231.3273, 536.3004 210.8268, 536.3004 221.0771" style="stroke: rgb(67%,84%,90%); stroke-linecap: round; stroke-width: 1; fill: rgb(67%,84%,90%); fill-rule: evenodd;"/>
			<polygon points="554.7252 241.5776, 623.1382 241.5776, 623.1382 251.8279, 639.5387 231.3273, 623.1382 210.8268, 623.1382 221.0771, 554.7252 221.0771" style="stroke: rgb(67%,84%,90%); stroke-linecap: round; stroke-width: 1; fill: rgb(67%,84%,90%); fill-rule: evenodd;"/>
			<polygon points="641.4406 241.5776, 685.6043 241.5776, 685.6043 251.8279, 702.0047 231.3273, 685.6043 210.8268, 685.6043 221.0771, 641.4406 221.0771" style="stroke: rgb(67%,84%,90%); stroke-linecap: round; stroke-width: 1; fill: rgb(67%,84%,90%); fill-rule: evenodd;"/>
			<polygon points="705.5708 241.5776, 752.2307 241.5776, 752.2307 251.8279, 768.6312 231.3273, 752.2307 210.8268, 752.2307 221.0771, 705.5708 221.0771" style="stroke: rgb(67%,84%,90%); stroke-linecap: round; stroke-width: 1; fill: rgb(67%,84%,90%); fill-rule: evenodd;"/>
			<polygon points="780.5776 241.5776, 809.2287 241.5776, 809.2287 251.8279, 825.6292 231.3273, 809.2287 210.8268, 809.2287 221.0771, 780.5776 221.0771" style="stroke: rgb(67%,84%,90%); stroke-linecap: round; stroke-width: 1; fill: rgb(67%,84%,90%); fill-rule: evenodd;"/>
			<polygon points="825.0348 241.5776, 876.8656 241.5776, 876.8656 251.8279, 893.266 231.3273, 876.8656 210.8268, 876.8656 221.0771, 825.0348 221.0771" style="stroke: rgb(67%,84%,90%); stroke-linecap: round; stroke-width: 1; fill: rgb(67%,84%,90%); fill-rule: evenodd;"/>
			<polygon points="70.86614 528.5855, 80.61702 528.5855, 80.61702 538.8358, 97.01747 518.3352, 80.61702 497.8346, 80.61702 508.0849, 70.86614 508.0849" style="stroke: rgb(67%,84%,90%); stroke-linecap: round; stroke-width: 1; fill: rgb(67%,84%,90%); fill-rule: evenodd;"/>
			<polygon points="113.9564 487.5844, 113.6557 487.5844, 113.6557 497.8346, 97.25521 477.3341, 113.6557 456.8335, 113.6557 467.0838, 113.9564 467.0838" style="stroke: rgb(56%,93%,56%); stroke-linecap: round; stroke-width: 1; fill: rgb(56%,93%,56%); fill-rule: evenodd;"/>
			<polygon points="121.5046 528.5855, 145.3416 528.5855, 145.3416 538.8358, 161.742 518.3352, 145.3416 497.8346, 145.3416 508.0849, 121.5046 508.0849" style="stroke: rgb(67%,84%,90%); stroke-linecap: round; stroke-width: 1; fill: rgb(67%,84%,90%); fill-rule: evenodd;"/>
			<polygon points="243.0489 487.5844, 205.1259 487.5844, 205.1259 497.8346, 188.7254 477.3341, 205.1259 456.8335, 205.1259 467.0838, 243.0489 467.0838" style="stroke: rgb(56%,93%,56%); stroke-linecap: round; stroke-width: 1; fill: rgb(56%,93%,56%); fill-rule: evenodd;"/>
			<polygon points="277.6994 487.5844, 260.2814 487.5844, 260.2814 497.8346, 243.881 477.3341, 260.2814 456.8335, 260.2814 467.0838, 277.6994 467.0838" style="stroke: rgb(56%,93%,56%); stroke-linecap: round; stroke-width: 1; fill: rgb(56%,93%,56%); fill-rule: evenodd;"/>
			<polygon points="314.965 487.5844, 306.6406 487.5844, 306.6406 497.8346, 290.2401 477.3341, 306.6406 456.8335, 306.6406 467.0838, 314.965 467.0838" style="stroke: rgb(56%,93%,56%); stroke-linecap: round; stroke-width: 1; fill: rgb(56%,93%,56%); fill-rule: evenodd;"/>
			<polygon points="340.3437 528.5855, 383.2592 528.5855, 383.2592 538.8358, 399.6597 518.3352, 383.2592 497.8346, 383.2592 508.0849, 340.3437 508.0849" style="stroke: rgb(67%,84%,90%); stroke-linecap: round; stroke-width: 1; fill: rgb(67%,84%,90%); fill-rule: evenodd;"/>
			<polygon points="402.4531 528.5855, 456.9584 528.5855, 456.9584 538.8358, 473.3589 518.3352, 456.9584 497.8346, 456.9584 508.0849, 402.4531 508.0849" style="stroke: rgb(67%,84%,90%); stroke-linecap: round; stroke-width: 1; fill: rgb(67%,84%,90%); fill-rule: evenodd;"/>
			<polygon points="533.8041 487.5844, 492.1367 487.5844, 492.1367 497.8346, 475.7363 477.3341, 492.1367 456.8335, 492.1367 467.0838, 533.8041 467.0838" style="stroke: rgb(56%,93%,56%); stroke-linecap: round; stroke-width: 1; fill: rgb(56%,93%,56%); fill-rule: evenodd;"/>
			<polygon points="540.4014 528.5855, 566.9129 528.5855, 566.9129 538.8358, 583.3133 518.3352, 566.9129 497.8346, 566.9129 508.0849, 540.4014 508.0849" style="stroke: rgb(67%,84%,90%); stroke-linecap: round; stroke-width: 1; fill: rgb(67%,84%,90%); fill-rule: evenodd;"/>
			<polygon points="584.7398 528.5855, 667.0606 528.5855, 667.0606 538.8358, 683.461 518.3352, 667.0606 497.8346, 667.0606 508.0849, 584.7398 508.0849" style="stroke: rgb(67%,84%,90%); stroke-linecap: round; stroke-width: 1; fill: rgb(67%,84%,90%); fill-rule: evenodd;"/>
			<polygon points="691.0687 528.5855, 719.7199 528.5855, 719.7199 538.8358, 736.1203 518.3352, 719.7199 497.8346, 719.7199 508.0849, 691.0687 508.0849" style="stroke: rgb(67%,84%,90%); stroke-linecap: round; stroke-width: 1; fill: rgb(67%,84%,90%); fill-rule: evenodd;"/>
			<polygon points="735.526 528.5855, 787.3567 528.5855, 787.3567 538.8358, 803.7572 518.3352, 787.3567 497.8346, 787.3567 508.0849, 735.526 508.0849" style="stroke: rgb(67%,84%,90%); stroke-linecap: round; stroke-width: 1; fill: rgb(67%,84%,90%); fill-rule: evenodd;"/>
			<polygon points="807.561 528.5855, 807.561 538.8358, 820.1612 518.3352, 807.561 497.8346, 807.561 508.0849" style="stroke: rgb(67%,84%,90%); stroke-linecap: round; stroke-width: 1; fill: rgb(67%,84%,90%); fill-rule: evenodd;"/>
			<polygon points="828.7792 528.5855, 865.2758 528.5855, 865.2758 538.8358, 881.6762 518.3352, 865.2758 497.8346, 865.2758 508.0849, 828.7792 508.0849" style="stroke: rgb(67%,84%,90%); stroke-linecap: round; stroke-width: 1; fill: rgb(67%,84%,90%); fill-rule: evenodd;"/>
			<polygon points="882.5678 528.5855, 903.3735 528.5855, 903.3735 538.8358, 919.774 518.3352, 903.3735 497.8346, 903.3735 508.0849, 882.5678 508.0849" style="stroke: rgb(67%,84%,90%); stroke-linecap: round; stroke-width: 1; fill: rgb(67%,84%,90%); fill-rule: evenodd;"/>
			<polygon points="935.3459 528.5855, 963.4621 528.5855, 963.4621 538.8358, 979.8626 518.3352, 963.4621 497.8346, 963.4621 508.0849, 935.3459 508.0849" style="stroke: rgb(67%,84%,90%); stroke-linecap: round; stroke-width: 1; fill: rgb(67%,84%,90%); fill-rule: evenodd;"/>
			<polygon points="977.7229 528.5855, 999.4202 528.5855, 999.4202 538.8358, 1015.821 518.3352, 999.4202 497.8346, 999.4202 508.0849, 977.7229 508.0849" style="stroke: rgb(67%,84%,90%); stroke-linecap: round; stroke-width: 1; fill: rgb(67%,84%,90%); fill-rule: evenodd;"/>
			<polygon points="1025.509 528.5855, 1064.323 528.5855, 1064.323 538.8358, 1080.724 518.3352, 1064.323 497.8346, 1064.323 508.0849, 1025.509 508.0849" style="stroke: rgb(67%,84%,90%); stroke-linecap: round; stroke-width: 1; fill: rgb(67%,84%,90%); fill-rule: evenodd;"/>
			<polygon points="1109.549 487.5844, 1098.907 487.5844, 1098.907 497.8346, 1082.507 477.3341, 1098.907 456.8335, 1098.907 467.0838, 1109.549 467.0838" style="stroke: rgb(56%,93%,56%); stroke-linecap: round; stroke-width: 1; fill: rgb(56%,93%,56%); fill-rule: evenodd;"/>
			<polygon points="1144.2 487.5844, 1131.061 487.5844, 1131.061 497.8346, 1114.661 477.3341, 1131.061 456.8335, 1131.061 467.0838, 1144.2 467.0838" style="stroke: rgb(56%,93%,56%); stroke-linecap: round; stroke-width: 1; fill: rgb(56%,93%,56%); fill-rule: evenodd;"/>
			<polygon points="1179.029 487.5844, 1169.634 487.5844, 1169.634 497.8346, 1153.234 477.3341, 1169.634 456.8335, 1169.634 467.0838, 1179.029 467.0838" style="stroke: rgb(56%,93%,56%); stroke-linecap: round; stroke-width: 1; fill: rgb(56%,93%,56%); fill-rule: evenodd;"/>
			<polygon points="1188.122 528.5855, 1244.054 528.5855, 1244.054 538.8358, 1260.454 518.3352, 1244.054 497.8346, 1244.054 508.0849, 1188.122 508.0849" style="stroke: rgb(67%,84%,90%); stroke-linecap: round; stroke-width: 1; fill: rgb(67%,84%,90%); fill-rule: evenodd;"/>
			<polygon points="1274.184 487.5844, 1274.184 497.8346, 1260.871 477.3341, 1274.184 456.8335, 1274.184 467.0838" style="stroke: rgb(56%,93%,56%); stroke-linecap: round; stroke-width: 1; fill: rgb(56%,93%,56%); fill-rule: evenodd;"/>
			<polygon points="1281.376 528.5855, 1329.997 528.5855, 1329.997 538.8358, 1346.397 518.3352, 1329.997 497.8346, 1329.997 508.0849, 1281.376 508.0849" style="stroke: rgb(67%,84%,90%); stroke-linecap: round; stroke-width: 1; fill: rgb(67%,84%,90%); fill-rule: evenodd;"/>
			<path d="M 934.989291,169.825647 L 934.989291,251.827897 Z" style="stroke: rgb(0%,0%,0%); stroke-linecap: butt; stroke-width: 1;"/>
			<path d="M 70.866142,210.826772 L 934.989291,210.826772 Z" style="stroke: rgb(0%,0%,0%); stroke-linecap: butt; stroke-width: 1;"/>
			<path d="M 70.866142,169.825647 L 70.866142,251.827897 Z" style="stroke: rgb(0%,0%,0%); stroke-linecap: butt; stroke-width: 1;"/>
			<path d="M 665.214549,210.826772 L 665.214549,231.327334 Z" style="stroke: rgb(0%,0%,0%); stroke-linecap: butt; stroke-width: 1;"/>
			<path d="M 665.214549,210.826772 L 665.214549,223.127109 Z" style="stroke: rgb(0%,0%,0%); stroke-linecap: butt; stroke-width: 1;"/>
			<path d="M 1346.397258,456.833521 L 1346.397258,538.835771 Z" style="stroke: rgb(0%,0%,0%); stroke-linecap: butt; stroke-width: 1;"/>
			<path d="M 70.866142,497.834646 L 1346.397258,497.834646 Z" style="stroke: rgb(0%,0%,0%); stroke-linecap: butt; stroke-width: 1;"/>
			<path d="M 70.866142,456.833521 L 70.866142,538.835771 Z" style="stroke: rgb(0%,0%,0%); stroke-linecap: butt; stroke-width: 1;"/>
			<path d="M 665.214549,497.834646 L 665.214549,518.335208 Z" style="stroke: rgb(0%,0%,0%); stroke-linecap: butt; stroke-width: 1;"/>
			<path d="M 1259.562956,497.834646 L 1259.562956,518.335208 Z" style="stroke: rgb(0%,0%,0%); stroke-linecap: butt; stroke-width: 1;"/>
			<path d="M 665.214549,497.834646 L 665.214549,510.134983 Z" style="stroke: rgb(0%,0%,0%); stroke-linecap: butt; stroke-width: 1;"/>
			<path d="M 1259.562956,497.834646 L 1259.562956,510.134983 Z" style="stroke: rgb(0%,0%,0%); stroke-linecap: butt; stroke-width: 1;"/>
			<g transform=" matrix(0.707107,0.707107,-0.707107,0.707107,665.214549,231.327334)">
				<text style="font-family: Helvetica; font-size: 6px;fill: rgb(0%,0%,0%); stroke:none;" transform="translate(0,0) scale(1,-1)" x="0" y="0">10000</text>
			</g>
			<g transform=" matrix(0.707107,0.707107,-0.707107,0.707107,665.214549,518.335208)">
				<text style="font-family: Helvetica; font-size: 6px;fill: rgb(0%,0%,0%); stroke:none;" transform="translate(0,0) scale(1,-1)" x="0" y="0">10000</text>
			</g>
			<g transform=" matrix(0.707107,0.707107,-0.707107,0.707107,1259.562956,518.335208)">
				<text style="font-family: Helvetica; font-size: 6px;fill: rgb(0%,0%,0%); stroke:none;" transform="translate(0,0) scale(1,-1)" x="0" y="0">20000</text>
			</g>
			<g transform=" matrix(0.707107,0.707107,-0.707107,0.707107,147.685673,251.827897)">
				<text style="font-family: Helvetica; font-size: 10px;fill: rgb(0%,0%,0%); stroke:none;" transform="translate(0,0) scale(1,-1)" x="0" y="0">Gene_00890</text>
			</g>
			<g transform=" matrix(0.707107,0.707107,-0.707107,0.707107,279.63102,251.827897)">
				<text style="font-family: Helvetica; font-size: 10px;fill: rgb(0%,0%,0%); stroke:none;" transform="translate(0,0) scale(1,-1)" x="0" y="0">Gene_00891</text>
			</g>
			<g transform=" matrix(0.707107,0.707107,-0.707107,0.707107,381.35375,251.827897)">
				<text style="font-family: Helvetica; font-size: 10px;fill: rgb(0%,0%,0%); stroke:none;" transform="translate(0,0) scale(1,-1)" x="0" y="0">Gene_00892</text>
			</g>
			<g transform=" matrix(0.707107,-0.707107,0.707107,0.707107,419.897244,169.825647)">
				<text style="font-family: Helvetica; font-size: 10px;fill: rgb(0%,0%,0%); stroke:none;" transform="translate(0,0) scale(1,-1)" x="0" y="0">Gene_00893</text>
			</g>
			<g transform=" matrix(0.707107,0.707107,-0.707107,0.707107,480.758521,251.827897)">
				<text style="font-family: Helvetica; font-size: 10px;fill: rgb(0%,0%,0%); stroke:none;" transform="translate(0,0) scale(1,-1)" x="0" y="0">Gene_00894</text>
			</g>
			<g transform=" matrix(0.707107,0.707107,-0.707107,0.707107,541.084884,251.827897)">
				<text style="font-family: Helvetica; font-size: 10px;fill: rgb(0%,0%,0%); stroke:none;" transform="translate(0,0) scale(1,-1)" x="0" y="0">Gene_00895</text>
			</g>
			<g transform=" matrix(0.707107,0.707107,-0.707107,0.707107,597.131939,251.827897)">
				<text style="font-family: Helvetica; font-size: 10px;fill: rgb(0%,0%,0%); stroke:none;" transform="translate(0,0) scale(1,-1)" x="0" y="0">Gene_00896</text>
			</g>
			<g transform=" matrix(0.707107,0.707107,-0.707107,0.707107,671.722664,251.827897)">
				<text style="font-family: Helvetica; font-size: 10px;fill: rgb(0%,0%,0%); stroke:none;" transform="translate(0,0) scale(1,-1)" x="0" y="0">Gene_00897</text>
			</g>
			<g transform=" matrix(0.707107,0.707107,-0.707107,0.707107,737.100989,251.827897)">
				<text style="font-family: Helvetica; font-size: 10px;fill: rgb(0%,0%,0%); stroke:none;" transform="translate(0,0) scale(1,-1)" x="0" y="0">Gene_00898</text>
			</g>
			<g transform=" matrix(0.707107,0.707107,-0.707107,0.707107,803.103379,251.827897)">
				<text style="font-family: Helvetica; font-size: 16px;fill: rgb(0%,0%,100%); stroke:none;" transform="translate(0,0) scale(1,-1)" x="0" y="0">Gene_00899 (90.6)</text>
			</g>
			<g transform=" matrix(0.707107,0.707107,-0.707107,0.707107,859.150434,251.827897)">
				<text style="font-family: Helvetica; font-size: 10px;fill: rgb(0%,0%,0%); stroke:none;" transform="translate(0,0) scale(1,-1)" x="0" y="0">Gene_00900</text>
			</g>
			<g transform=" matrix(0.707107,0.707107,-0.707107,0.707107,83.941807,538.835771)">
				<text style="font-family: Helvetica; font-size: 10px;fill: rgb(0%,0%,0%); stroke:none;" transform="translate(0,0) scale(1,-1)" x="0" y="0">Gene_00246</text>
			</g>
			<g transform=" matrix(0.707107,-0.707107,0.707107,0.707107,105.605806,456.833521)">
				<text style="font-family: Helvetica; font-size: 10px;fill: rgb(0%,0%,0%); stroke:none;" transform="translate(0,0) scale(1,-1)" x="0" y="0">Gene_00247</text>
			</g>
			<g transform=" matrix(0.707107,0.707107,-0.707107,0.707107,141.62332,538.835771)">
				<text style="font-family: Helvetica; font-size: 10px;fill: rgb(0%,0%,0%); stroke:none;" transform="translate(0,0) scale(1,-1)" x="0" y="0">Gene_00248</text>
			</g>
			<g transform=" matrix(0.707107,-0.707107,0.707107,0.707107,215.887153,456.833521)">
				<text style="font-family: Helvetica; font-size: 10px;fill: rgb(0%,0%,0%); stroke:none;" transform="translate(0,0) scale(1,-1)" x="0" y="0">Gene_00249</text>
			</g>
			<g transform=" matrix(0.707107,-0.707107,0.707107,0.707107,260.790175,456.833521)">
				<text style="font-family: Helvetica; font-size: 10px;fill: rgb(0%,0%,0%); stroke:none;" transform="translate(0,0) scale(1,-1)" x="0" y="0">Gene_00250</text>
			</g>
			<g transform=" matrix(0.707107,-0.707107,0.707107,0.707107,302.602586,456.833521)">
				<text style="font-family: Helvetica; font-size: 10px;fill: rgb(0%,0%,0%); stroke:none;" transform="translate(0,0) scale(1,-1)" x="0" y="0">Gene_00251</text>
			</g>
			<g transform=" matrix(0.707107,0.707107,-0.707107,0.707107,370.001695,538.835771)">
				<text style="font-family: Helvetica; font-size: 10px;fill: rgb(0%,0%,0%); stroke:none;" transform="translate(0,0) scale(1,-1)" x="0" y="0">Gene_00252</text>
			</g>
			<g transform=" matrix(0.707107,0.707107,-0.707107,0.707107,437.906,538.835771)">
				<text style="font-family: Helvetica; font-size: 10px;fill: rgb(0%,0%,0%); stroke:none;" transform="translate(0,0) scale(1,-1)" x="0" y="0">Gene_00253</text>
			</g>
			<g transform=" matrix(0.707107,-0.707107,0.707107,0.707107,504.770196,456.833521)">
				<text style="font-family: Helvetica; font-size: 10px;fill: rgb(0%,0%,0%); stroke:none;" transform="translate(0,0) scale(1,-1)" x="0" y="0">Gene_00254</text>
			</g>
			<g transform=" matrix(0.707107,0.707107,-0.707107,0.707107,561.857361,538.835771)">
				<text style="font-family: Helvetica; font-size: 10px;fill: rgb(0%,0%,0%); stroke:none;" transform="translate(0,0) scale(1,-1)" x="0" y="0">Gene_00255</text>
			</g>
			<g transform=" matrix(0.707107,0.707107,-0.707107,0.707107,634.10041,538.835771)">
				<text style="font-family: Helvetica; font-size: 10px;fill: rgb(0%,0%,0%); stroke:none;" transform="translate(0,0) scale(1,-1)" x="0" y="0">Gene_00256</text>
			</g>
			<g transform=" matrix(0.707107,0.707107,-0.707107,0.707107,713.594509,538.835771)">
				<text style="font-family: Helvetica; font-size: 16px;fill: rgb(0%,0%,100%); stroke:none;" transform="translate(0,0) scale(1,-1)" x="0" y="0">Gene_00257 (90.6)</text>
			</g>
			<g transform=" matrix(0.707107,0.707107,-0.707107,0.707107,769.641564,538.835771)">
				<text style="font-family: Helvetica; font-size: 10px;fill: rgb(0%,0%,0%); stroke:none;" transform="translate(0,0) scale(1,-1)" x="0" y="0">Gene_00258</text>
			</g>
			<g transform=" matrix(0.707107,0.707107,-0.707107,0.707107,813.861085,538.835771)">
				<text style="font-family: Helvetica; font-size: 10px;fill: rgb(0%,0%,0%); stroke:none;" transform="translate(0,0) scale(1,-1)" x="0" y="0">Gene_00259</text>
			</g>
			<g transform=" matrix(0.707107,0.707107,-0.707107,0.707107,855.227734,538.835771)">
				<text style="font-family: Helvetica; font-size: 10px;fill: rgb(0%,0%,0%); stroke:none;" transform="translate(0,0) scale(1,-1)" x="0" y="0">Gene_00260</text>
			</g>
			<g transform=" matrix(0.707107,0.707107,-0.707107,0.707107,901.170866,538.835771)">
				<text style="font-family: Helvetica; font-size: 10px;fill: rgb(0%,0%,0%); stroke:none;" transform="translate(0,0) scale(1,-1)" x="0" y="0">Gene_00261</text>
			</g>
			<g transform=" matrix(0.707107,0.707107,-0.707107,0.707107,957.604248,538.835771)">
				<text style="font-family: Helvetica; font-size: 10px;fill: rgb(0%,0%,0%); stroke:none;" transform="translate(0,0) scale(1,-1)" x="0" y="0">Gene_00262</text>
			</g>
			<g transform=" matrix(0.707107,0.707107,-0.707107,0.707107,996.771808,538.835771)">
				<text style="font-family: Helvetica; font-size: 10px;fill: rgb(0%,0%,0%); stroke:none;" transform="translate(0,0) scale(1,-1)" x="0" y="0">Gene_00263</text>
			</g>
			<g transform=" matrix(0.707107,0.707107,-0.707107,0.707107,1053.116037,538.835771)">
				<text style="font-family: Helvetica; font-size: 10px;fill: rgb(0%,0%,0%); stroke:none;" transform="translate(0,0) scale(1,-1)" x="0" y="0">Gene_00264</text>
			</g>
			<g transform=" matrix(0.707107,-0.707107,0.707107,0.707107,1096.027992,456.833521)">
				<text style="font-family: Helvetica; font-size: 10px;fill: rgb(0%,0%,0%); stroke:none;" transform="translate(0,0) scale(1,-1)" x="0" y="0">Gene_00265</text>
			</g>
			<g transform=" matrix(0.707107,-0.707107,0.707107,0.707107,1129.430372,456.833521)">
				<text style="font-family: Helvetica; font-size: 10px;fill: rgb(0%,0%,0%); stroke:none;" transform="translate(0,0) scale(1,-1)" x="0" y="0">Gene_00266</text>
			</g>
			<g transform=" matrix(0.707107,-0.707107,0.707107,0.707107,1166.131386,456.833521)">
				<text style="font-family: Helvetica; font-size: 10px;fill: rgb(0%,0%,0%); stroke:none;" transform="translate(0,0) scale(1,-1)" x="0" y="0">Gene_00267</text>
			</g>
			<g transform=" matrix(0.707107,0.707107,-0.707107,0.707107,1224.288378,538.835771)">
				<text style="font-family: Helvetica; font-size: 10px;fill: rgb(0%,0%,0%); stroke:none;" transform="translate(0,0) scale(1,-1)" x="0" y="0">Gene_00268</text>
			</g>
			<g transform=" matrix(0.707107,-0.707107,0.707107,0.707107,1267.527224,456.833521)">
				<text style="font-family: Helvetica; font-size: 10px;fill: rgb(0%,0%,0%); stroke:none;" transform="translate(0,0) scale(1,-1)" x="0" y="0">Gene_00269</text>
			</g>
			<g transform=" matrix(0.707107,0.707107,-0.707107,0.707107,1313.8864,538.835771)">
				<text style="font-family: Helvetica; font-size: 10px;fill: rgb(0%,0%,0%); stroke:none;" transform="translate(0,0) scale(1,-1)" x="0" y="0">Gene_00270</text>
			</g>
			<g transform=" matrix(1,0,-0,1,70,169.825647)">
				<text style="font-family: Helvetica; font-size: 12px;fill: rgb(60%,60%,60%); stroke:none;" transform="translate(0,0) scale(1,-1)" x="0" y="0">megahit_75666 (left 15690bp, right 1840bp)</text>
			</g>
			<g transform=" matrix(1,0,-0,1,70,456.833521)">
				<text style="font-family: Helvetica; font-size: 12px;fill: rgb(60%,60%,60%); stroke:none;" transform="translate(0,0) scale(1,-1)" x="0" y="0">megahit_55278 (left 23422bp, right 24473bp)</text>
			</g>
		</g>
	</g>
</svg>
