<?xml version="1.0" encoding="utf-8"?>
<!DOCTYPE svg
  PUBLIC '-//W3C//DTD SVG 1.0//EN'
  'http://www.w3.org/TR/2001/REC-SVG-20010904/DTD/svg10.dtd'>
<svg fill-rule="evenodd" height="708.6614173228346" preserveAspectRatio="xMinYMin meet" version="1.0" viewBox="0 0 1417 708" width="1417.3228346456692" xmlns="http://www.w3.org/2000/svg" xmlns:xlink="http://www.w3.org/1999/xlink">
	<title>...</title>
	<desc>...</desc>
	<clipPath id="clip">
		<rect height="708.6614173228346" width="1417.3228346456692" x="0" y="0"/>
	</clipPath>
	<g id="group" style="clip-path: url(#clip)" transform="scale(1,-1) translate(0,-708)">
		<g transform="">
			<polygon points="70.86614 169.8256, 148.1828 169.8256, 148.1828 251.8279, 70.86614 251.8279" style="stroke: rgb(96%,96%,96%); stroke-linecap: butt; stroke-width: 1; fill: rgb(96%,96%,96%); fill-rule: evenodd;"/>
			<polygon points="70.86614 456.8335, 1346.403 456.8335, 1346.403 538.8358, 70.86614 538.8358" style="stroke: rgb(96%,96%,96%); stroke-linecap: butt; stroke-width: 1; fill: rgb(96%,96%,96%); fill-rule: evenodd;"/>
			<polygon points="686.613 456.8335, 746.2481 456.8335, 70.91972 251.8279, 130.5548 251.8279" style="stroke: rgb(100%,16%,16%); stroke-linecap: round; stroke-width: 1; fill: rgb(100%,16%,16%); fill-rule: evenodd;"/>
			<polygon points="77.45654 241.5776, 114.0472 241.5776, 114.0472 251.8279, 130.4476 231.3273, 114.0472 210.8268, 114.0472 221.0771, 77.45654 221.0771" style="stroke: rgb(67%,84%,90%); stroke-linecap: round; stroke-width: 1; fill: rgb(67%,84%,90%); fill-rule: evenodd;"/>
			<polygon points="144.325 200.5765, 144.325 210.8268, 133.6089 190.3262, 144.325 169.8256, 144.325 180.0759" style="stroke: rgb(56%,93%,56%); stroke-linecap: round; stroke-width: 1; fill: rgb(56%,93%,56%); fill-rule: evenodd;"/>
			<polygon points="182.8494 487.5844, 87.26659 487.5844, 87.26659 497.8346, 70.86614 477.3341, 87.26659 456.8335, 87.26659 467.0838, 182.8494 467.0838" style="stroke: rgb(56%,93%,56%); stroke-linecap: round; stroke-width: 1; fill: rgb(56%,93%,56%); fill-rule: evenodd;"/>
			<polygon points="199.7272 487.5844, 199.6249 487.5844, 199.6249 497.8346, 183.2244 477.3341, 199.6249 456.8335, 199.6249 467.0838, 199.7272 467.0838" style="stroke: rgb(56%,93%,56%); stroke-linecap: round; stroke-width: 1; fill: rgb(56%,93%,56%); fill-rule: evenodd;"/>
			<polygon points="236.9121 487.5844, 231.1838 487.5844, 231.1838 497.8346, 214.7833 477.3341, 231.1838 456.8335, 231.1838 467.0838, 236.9121 467.0838" style="stroke: rgb(56%,93%,56%); stroke-linecap: round; stroke-width: 1; fill: rgb(56%,93%,56%); fill-rule: evenodd;"/>
			<polygon points="259.8445 487.5844, 256.2059 487.5844, 256.2059 497.8346, 239.8054 477.3341, 256.2059 456.8335, 256.2059 467.0838, 259.8445 467.0838" style="stroke: rgb(56%,93%,56%); stroke-linecap: round; stroke-width: 1; fill: rgb(56%,93%,56%); fill-rule: evenodd;"/>
			<polygon points="375.3104 487.5844, 284.7107 487.5844, 284.7107 497.8346, 268.3102 477.3341, 284.7107 456.8335, 284.7107 467.0838, 375.3104 467.0838" style="stroke: rgb(56%,93%,56%); stroke-linecap: round; stroke-width: 1; fill: rgb(56%,93%,56%); fill-rule: evenodd;"/>
			<polygon points="391.4918 487.5844, 391.4918 497.8346, 380.1327 477.3341, 391.4918 456.8335, 391.4918 467.0838" style="stroke: rgb(56%,93%,56%); stroke-linecap: round; stroke-width: 1; fill: rgb(56%,93%,56%); fill-rule: evenodd;"/>
			<polygon points="407.941 528.5855, 411.0974 528.5855, 411.0974 538.8358, 427.4978 518.3352, 411.0974 497.8346, 411.0974 508.0849, 407.941 508.0849" style="stroke: rgb(67%,84%,90%); stroke-linecap: round; stroke-width: 1; fill: rgb(67%,84%,90%); fill-rule: evenodd;"/>
			<polygon points="483.168 487.5844, 448.9884 487.5844, 448.9884 497.8346, 432.588 477.3341, 448.9884 456.8335, 448.9884 467.0838, 483.168 467.0838" style="stroke: rgb(56%,93%,56%); stroke-linecap: round; stroke-width: 1; fill: rgb(56%,93%,56%); fill-rule: evenodd;"/>
			<polygon points="501.9747 528.5855, 530.0461 528.5855, 530.0461 538.8358, 546.4465 518.3352, 530.0461 497.8346, 530.0461 508.0849, 501.9747 508.0849" style="stroke: rgb(67%,84%,90%); stroke-linecap: round; stroke-width: 1; fill: rgb(67%,84%,90%); fill-rule: evenodd;"/>
			<polygon points="549.7685 528.5855, 586.1984 528.5855, 586.1984 538.8358, 602.5989 518.3352, 586.1984 497.8346, 586.1984 508.0849, 549.7685 508.0849" style="stroke: rgb(67%,84%,90%); stroke-linecap: round; stroke-width: 1; fill: rgb(67%,84%,90%); fill-rule: evenodd;"/>
			<polygon points="605.8137 528.5855, 615.0783 528.5855, 615.0783 538.8358, 631.4787 518.3352, 615.0783 497.8346, 615.0783 508.0849, 605.8137 508.0849" style="stroke: rgb(67%,84%,90%); stroke-linecap: round; stroke-width: 1; fill: rgb(67%,84%,90%); fill-rule: evenodd;"/>
			<polygon points="657.626 487.5844, 650.1296 487.5844, 650.1296 497.8346, 633.7291 477.3341, 650.1296 456.8335, 650.1296 467.0838, 657.626 467.0838" style="stroke: rgb(56%,93%,56%); stroke-linecap: round; stroke-width: 1; fill: rgb(56%,93%,56%); fill-rule: evenodd;"/>
			<polygon points="672.7893 528.5855, 672.7893 538.8358, 680.1298 518.3352, 672.7893 497.8346, 672.7893 508.0849" style="stroke: rgb(67%,84%,90%); stroke-linecap: round; stroke-width: 1; fill: rgb(67%,84%,90%); fill-rule: evenodd;"/>
			<polygon points="754.9817 487.5844, 703.1207 487.5844, 703.1207 497.8346, 686.7202 477.3341, 703.1207 456.8335, 703.1207 467.0838, 754.9817 467.0838" style="stroke: rgb(56%,93%,56%); stroke-linecap: round; stroke-width: 1; fill: rgb(56%,93%,56%); fill-rule: evenodd;"/>
			<polygon points="828.1727 487.5844, 812.3177 487.5844, 812.3177 497.8346, 795.9172 477.3341, 812.3177 456.8335, 812.3177 467.0838, 828.1727 467.0838" style="stroke: rgb(56%,93%,56%); stroke-linecap: round; stroke-width: 1; fill: rgb(56%,93%,56%); fill-rule: evenodd;"/>
			<polygon points="840.0676 487.5844, 840.0676 497.8346, 828.387 477.3341, 840.0676 456.8335, 840.0676 467.0838" style="stroke: rgb(56%,93%,56%); stroke-linecap: round; stroke-width: 1; fill: rgb(56%,93%,56%); fill-rule: evenodd;"/>
			<polygon points="881.9139 487.5844, 858.3433 487.5844, 858.3433 497.8346, 841.9429 477.3341, 858.3433 456.8335, 858.3433 467.0838, 881.9139 467.0838" style="stroke: rgb(56%,93%,56%); stroke-linecap: round; stroke-width: 1; fill: rgb(56%,93%,56%); fill-rule: evenodd;"/>
			<polygon points="987.3067 487.5844, 929.016 487.5844, 929.016 497.8346, 912.6155 477.3341, 929.016 456.8335, 929.016 467.0838, 987.3067 467.0838" style="stroke: rgb(56%,93%,56%); stroke-linecap: round; stroke-width: 1; fill: rgb(56%,93%,56%); fill-rule: evenodd;"/>
			<polygon points="1063.23 487.5844, 1003.975 487.5844, 1003.975 497.8346, 987.5746 477.3341, 1003.975 456.8335, 1003.975 467.0838, 1063.23 467.0838" style="stroke: rgb(56%,93%,56%); stroke-linecap: round; stroke-width: 1; fill: rgb(56%,93%,56%); fill-rule: evenodd;"/>
			<polygon points="1130.259 487.5844, 1085.31 487.5844, 1085.31 497.8346, 1068.91 477.3341, 1085.31 456.8335, 1085.31 467.0838, 1130.259 467.0838" style="stroke: rgb(56%,93%,56%); stroke-linecap: round; stroke-width: 1; fill: rgb(56%,93%,56%); fill-rule: evenodd;"/>
			<polygon points="1189.787 487.5844, 1145.963 487.5844, 1145.963 497.8346, 1129.563 477.3341, 1145.963 456.8335, 1145.963 467.0838, 1189.787 467.0838" style="stroke: rgb(56%,93%,56%); stroke-linecap: round; stroke-width: 1; fill: rgb(56%,93%,56%); fill-rule: evenodd;"/>
			<polygon points="1249.208 487.5844, 1208.117 487.5844, 1208.117 497.8346, 1191.716 477.3341, 1208.117 456.8335, 1208.117 467.0838, 1249.208 467.0838" style="stroke: rgb(56%,93%,56%); stroke-linecap: round; stroke-width: 1; fill: rgb(56%,93%,56%); fill-rule: evenodd;"/>
			<polygon points="1254.888 528.5855, 1296.461 528.5855, 1296.461 538.8358, 1312.862 518.3352, 1296.461 497.8346, 1296.461 508.0849, 1254.888 508.0849" style="stroke: rgb(67%,84%,90%); stroke-linecap: round; stroke-width: 1; fill: rgb(67%,84%,90%); fill-rule: evenodd;"/>
			<polygon points="1312.701 528.5855, 1330.003 528.5855, 1330.003 538.8358, 1346.403 518.3352, 1330.003 497.8346, 1330.003 508.0849, 1312.701 508.0849" style="stroke: rgb(67%,84%,90%); stroke-linecap: round; stroke-width: 1; fill: rgb(67%,84%,90%); fill-rule: evenodd;"/>
			<path d="M 148.182778,169.825647 L 148.182778,251.827897 Z" style="stroke: rgb(0%,0%,0%); stroke-linecap: butt; stroke-width: 1;"/>
			<path d="M 70.866142,210.826772 L 148.182778,210.826772 Z" style="stroke: rgb(0%,0%,0%); stroke-linecap: butt; stroke-width: 1;"/>
			<path d="M 70.866142,169.825647 L 70.866142,251.827897 Z" style="stroke: rgb(0%,0%,0%); stroke-linecap: butt; stroke-width: 1;"/>
			<path d="M 1346.403112,456.833521 L 1346.403112,538.835771 Z" style="stroke: rgb(0%,0%,0%); stroke-linecap: butt; stroke-width: 1;"/>
			<path d="M 70.866142,497.834646 L 1346.403112,497.834646 Z" style="stroke: rgb(0%,0%,0%); stroke-linecap: butt; stroke-width: 1;"/>
			<path d="M 70.866142,456.833521 L 70.866142,538.835771 Z" style="stroke: rgb(0%,0%,0%); stroke-linecap: butt; stroke-width: 1;"/>
			<path d="M 606.670969,497.834646 L 606.670969,518.335208 Z" style="stroke: rgb(0%,0%,0%); stroke-linecap: butt; stroke-width: 1;"/>
			<path d="M 1142.475795,497.834646 L 1142.475795,518.335208 Z" style="stroke: rgb(0%,0%,0%); stroke-linecap: butt; stroke-width: 1;"/>
			<path d="M 606.670969,497.834646 L 606.670969,510.134983 Z" style="stroke: rgb(0%,0%,0%); stroke-linecap: butt; stroke-width: 1;"/>
			<path d="M 1142.475795,497.834646 L 1142.475795,510.134983 Z" style="stroke: rgb(0%,0%,0%); stroke-linecap: butt; stroke-width: 1;"/>
			<g transform=" matrix(0.707107,0.707107,-0.707107,0.707107,606.670969,518.335208)">
				<text style="font-family: Helvetica; font-size: 6px;fill: rgb(0%,0%,0%); stroke:none;" transform="translate(0,0) scale(1,-1)" x="0" y="0">10000</text>
			</g>
			<g transform=" matrix(0.707107,0.707107,-0.707107,0.707107,1142.475795,518.335208)">
				<text style="font-family: Helvetica; font-size: 6px;fill: rgb(0%,0%,0%); stroke:none;" transform="translate(0,0) scale(1,-1)" x="0" y="0">20000</text>
			</g>
			<g transform=" matrix(0.707107,0.707107,-0.707107,0.707107,103.95209,251.827897)">
				<text style="font-family: Helvetica; font-size: 16px;fill: rgb(0%,0%,100%); stroke:none;" transform="translate(0,0) scale(1,-1)" x="0" y="0">Gene_02776 (91.5)</text>
			</g>
			<g transform=" matrix(0.707107,-0.707107,0.707107,0.707107,138.966935,169.825647)">
				<text style="font-family: Helvetica; font-size: 10px;fill: rgb(0%,0%,0%); stroke:none;" transform="translate(0,0) scale(1,-1)" x="0" y="0">Gene_02777</text>
			</g>
			<g transform=" matrix(0.707107,-0.707107,0.707107,0.707107,126.857746,456.833521)">
				<text style="font-family: Helvetica; font-size: 10px;fill: rgb(0%,0%,0%); stroke:none;" transform="translate(0,0) scale(1,-1)" x="0" y="0">Gene_00680</text>
			</g>
			<g transform=" matrix(0.707107,-0.707107,0.707107,0.707107,191.475808,456.833521)">
				<text style="font-family: Helvetica; font-size: 10px;fill: rgb(0%,0%,0%); stroke:none;" transform="translate(0,0) scale(1,-1)" x="0" y="0">Gene_00681</text>
			</g>
			<g transform=" matrix(0.707107,-0.707107,0.707107,0.707107,225.847688,456.833521)">
				<text style="font-family: Helvetica; font-size: 10px;fill: rgb(0%,0%,0%); stroke:none;" transform="translate(0,0) scale(1,-1)" x="0" y="0">Gene_00682</text>
			</g>
			<g transform=" matrix(0.707107,-0.707107,0.707107,0.707107,249.824954,456.833521)">
				<text style="font-family: Helvetica; font-size: 10px;fill: rgb(0%,0%,0%); stroke:none;" transform="translate(0,0) scale(1,-1)" x="0" y="0">Gene_00683</text>
			</g>
			<g transform=" matrix(0.707107,-0.707107,0.707107,0.707107,321.810332,456.833521)">
				<text style="font-family: Helvetica; font-size: 10px;fill: rgb(0%,0%,0%); stroke:none;" transform="translate(0,0) scale(1,-1)" x="0" y="0">Gene_00684</text>
			</g>
			<g transform=" matrix(0.707107,-0.707107,0.707107,0.707107,385.812219,456.833521)">
				<text style="font-family: Helvetica; font-size: 10px;fill: rgb(0%,0%,0%); stroke:none;" transform="translate(0,0) scale(1,-1)" x="0" y="0">Gene_00685</text>
			</g>
			<g transform=" matrix(0.707107,0.707107,-0.707107,0.707107,417.719396,538.835771)">
				<text style="font-family: Helvetica; font-size: 10px;fill: rgb(0%,0%,0%); stroke:none;" transform="translate(0,0) scale(1,-1)" x="0" y="0">Gene_00686</text>
			</g>
			<g transform=" matrix(0.707107,-0.707107,0.707107,0.707107,457.877968,456.833521)">
				<text style="font-family: Helvetica; font-size: 10px;fill: rgb(0%,0%,0%); stroke:none;" transform="translate(0,0) scale(1,-1)" x="0" y="0">Gene_00687</text>
			</g>
			<g transform=" matrix(0.707107,0.707107,-0.707107,0.707107,524.210606,538.835771)">
				<text style="font-family: Helvetica; font-size: 10px;fill: rgb(0%,0%,0%); stroke:none;" transform="translate(0,0) scale(1,-1)" x="0" y="0">Gene_00688</text>
			</g>
			<g transform=" matrix(0.707107,0.707107,-0.707107,0.707107,576.183674,538.835771)">
				<text style="font-family: Helvetica; font-size: 10px;fill: rgb(0%,0%,0%); stroke:none;" transform="translate(0,0) scale(1,-1)" x="0" y="0">Gene_00689</text>
			</g>
			<g transform=" matrix(0.707107,0.707107,-0.707107,0.707107,618.646206,538.835771)">
				<text style="font-family: Helvetica; font-size: 10px;fill: rgb(0%,0%,0%); stroke:none;" transform="translate(0,0) scale(1,-1)" x="0" y="0">Gene_00690</text>
			</g>
			<g transform=" matrix(0.707107,-0.707107,0.707107,0.707107,645.67756,456.833521)">
				<text style="font-family: Helvetica; font-size: 10px;fill: rgb(0%,0%,0%); stroke:none;" transform="translate(0,0) scale(1,-1)" x="0" y="0">Gene_00691</text>
			</g>
			<g transform=" matrix(0.707107,0.707107,-0.707107,0.707107,676.459547,538.835771)">
				<text style="font-family: Helvetica; font-size: 10px;fill: rgb(0%,0%,0%); stroke:none;" transform="translate(0,0) scale(1,-1)" x="0" y="0">Gene_00692</text>
			</g>
			<g transform=" matrix(0.707107,-0.707107,0.707107,0.707107,720.850977,456.833521)">
				<text style="font-family: Helvetica; font-size: 16px;fill: rgb(0%,0%,100%); stroke:none;" transform="translate(0,0) scale(1,-1)" x="0" y="0">Gene_00693 (91.5)</text>
			</g>
			<g transform=" matrix(0.707107,-0.707107,0.707107,0.707107,812.044959,456.833521)">
				<text style="font-family: Helvetica; font-size: 10px;fill: rgb(0%,0%,0%); stroke:none;" transform="translate(0,0) scale(1,-1)" x="0" y="0">Gene_00694</text>
			</g>
			<g transform=" matrix(0.707107,-0.707107,0.707107,0.707107,834.227278,456.833521)">
				<text style="font-family: Helvetica; font-size: 10px;fill: rgb(0%,0%,0%); stroke:none;" transform="translate(0,0) scale(1,-1)" x="0" y="0">Gene_00695</text>
			</g>
			<g transform=" matrix(0.707107,-0.707107,0.707107,0.707107,861.928388,456.833521)">
				<text style="font-family: Helvetica; font-size: 10px;fill: rgb(0%,0%,0%); stroke:none;" transform="translate(0,0) scale(1,-1)" x="0" y="0">Gene_00696</text>
			</g>
			<g transform=" matrix(0.707107,-0.707107,0.707107,0.707107,949.961121,456.833521)">
				<text style="font-family: Helvetica; font-size: 10px;fill: rgb(0%,0%,0%); stroke:none;" transform="translate(0,0) scale(1,-1)" x="0" y="0">Gene_00697</text>
			</g>
			<g transform=" matrix(0.707107,-0.707107,0.707107,0.707107,1025.402441,456.833521)">
				<text style="font-family: Helvetica; font-size: 10px;fill: rgb(0%,0%,0%); stroke:none;" transform="translate(0,0) scale(1,-1)" x="0" y="0">Gene_00698</text>
			</g>
			<g transform=" matrix(0.707107,-0.707107,0.707107,0.707107,1099.584619,456.833521)">
				<text style="font-family: Helvetica; font-size: 10px;fill: rgb(0%,0%,0%); stroke:none;" transform="translate(0,0) scale(1,-1)" x="0" y="0">Gene_00699</text>
			</g>
			<g transform=" matrix(0.707107,-0.707107,0.707107,0.707107,1159.67513,456.833521)">
				<text style="font-family: Helvetica; font-size: 10px;fill: rgb(0%,0%,0%); stroke:none;" transform="translate(0,0) scale(1,-1)" x="0" y="0">Gene_00700</text>
			</g>
			<g transform=" matrix(0.707107,-0.707107,0.707107,0.707107,1220.462188,456.833521)">
				<text style="font-family: Helvetica; font-size: 10px;fill: rgb(0%,0%,0%); stroke:none;" transform="translate(0,0) scale(1,-1)" x="0" y="0">Gene_00701</text>
			</g>
			<g transform=" matrix(0.707107,0.707107,-0.707107,0.707107,1283.874689,538.835771)">
				<text style="font-family: Helvetica; font-size: 10px;fill: rgb(0%,0%,0%); stroke:none;" transform="translate(0,0) scale(1,-1)" x="0" y="0">Gene_00702</text>
			</g>
			<g transform=" matrix(0.707107,0.707107,-0.707107,0.707107,1329.552051,538.835771)">
				<text style="font-family: Helvetica; font-size: 10px;fill: rgb(0%,0%,0%); stroke:none;" transform="translate(0,0) scale(1,-1)" x="0" y="0">Gene_00703</text>
			</g>
			<g transform=" matrix(1,0,-0,1,70,456.833521)">
				<text style="font-family: Helvetica; font-size: 12px;fill: rgb(60%,60%,60%); stroke:none;" transform="translate(0,0) scale(1,-1)" x="0" y="0">megahit_23084 (left 39391bp, right 33041bp)</text>
			</g>
		</g>
	</g>
</svg>
