<?xml version="1.0" encoding="utf-8"?>
<!DOCTYPE svg
  PUBLIC '-//W3C//DTD SVG 1.0//EN'
  'http://www.w3.org/TR/2001/REC-SVG-20010904/DTD/svg10.dtd'>
<svg fill-rule="evenodd" height="708.6614173228346" preserveAspectRatio="xMinYMin meet" version="1.0" viewBox="0 0 1417 708" width="1417.3228346456692" xmlns="http://www.w3.org/2000/svg" xmlns:xlink="http://www.w3.org/1999/xlink">
	<title>...</title>
	<desc>...</desc>
	<clipPath id="clip">
		<rect height="708.6614173228346" width="1417.3228346456692" x="0" y="0"/>
	</clipPath>
	<g id="group" style="clip-path: url(#clip)" transform="scale(1,-1) translate(0,-708)">
		<g transform="">
			<polygon points="70.86614 169.8256, 1204.638 169.8256, 1204.638 251.8279, 70.86614 251.8279" style="stroke: rgb(96%,96%,96%); stroke-linecap: butt; stroke-width: 1; fill: rgb(96%,96%,96%); fill-rule: evenodd;"/>
			<polygon points="70.86614 456.8335, 1346.401 456.8335, 1346.401 538.8358, 70.86614 538.8358" style="stroke: rgb(96%,96%,96%); stroke-linecap: butt; stroke-width: 1; fill: rgb(96%,96%,96%); fill-rule: evenodd;"/>
			<polygon points="640.2413 456.8335, 759.3266 456.8335, 600.0852 251.8279, 716.4603 251.8279" style="stroke: rgb(100%,38%,38%); stroke-linecap: round; stroke-width: 1; fill: rgb(100%,38%,38%); fill-rule: evenodd;"/>
			<polygon points="774.2054 456.8335, 840.8003 456.8335, 518.8881 251.8279, 585.8149 251.8279" style="stroke: rgb(100%,68%,68%); stroke-linecap: round; stroke-width: 1; fill: rgb(100%,68%,68%); fill-rule: evenodd;"/>
			<polygon points="853.5772 456.8335, 875.5911 456.8335, 484.927 251.8279, 506.9962 251.8279" style="stroke: rgb(100%,53%,53%); stroke-linecap: round; stroke-width: 1; fill: rgb(100%,53%,53%); fill-rule: evenodd;"/>
			<polygon points="117.1064 200.5765, 87.26659 200.5765, 87.26659 210.8268, 70.86614 190.3262, 87.26659 169.8256, 87.26659 180.0759, 117.1064 180.0759" style="stroke: rgb(56%,93%,56%); stroke-linecap: round; stroke-width: 1; fill: rgb(56%,93%,56%); fill-rule: evenodd;"/>
			<polygon points="130.4365 241.5776, 137.8752 241.5776, 137.8752 251.8279, 154.2757 231.3273, 137.8752 210.8268, 137.8752 221.0771, 130.4365 221.0771" style="stroke: rgb(67%,84%,90%); stroke-linecap: round; stroke-width: 1; fill: rgb(67%,84%,90%); fill-rule: evenodd;"/>
			<polygon points="158.2028 241.5776, 239.3163 241.5776, 239.3163 251.8279, 255.7167 231.3273, 239.3163 210.8268, 239.3163 221.0771, 158.2028 221.0771" style="stroke: rgb(67%,84%,90%); stroke-linecap: round; stroke-width: 1; fill: rgb(67%,84%,90%); fill-rule: evenodd;"/>
			<polygon points="271.7017 241.5776, 330.4141 241.5776, 330.4141 251.8279, 346.8145 231.3273, 330.4141 210.8268, 330.4141 221.0771, 271.7017 221.0771" style="stroke: rgb(67%,84%,90%); stroke-linecap: round; stroke-width: 1; fill: rgb(67%,84%,90%); fill-rule: evenodd;"/>
			<polygon points="347.6995 241.5776, 411.058 241.5776, 411.058 251.8279, 427.4585 231.3273, 411.058 210.8268, 411.058 221.0771, 347.6995 221.0771" style="stroke: rgb(67%,84%,90%); stroke-linecap: round; stroke-width: 1; fill: rgb(67%,84%,90%); fill-rule: evenodd;"/>
			<polygon points="470.2695 200.5765, 450.0538 200.5765, 450.0538 210.8268, 433.6533 190.3262, 450.0538 169.8256, 450.0538 180.0759, 470.2695 180.0759" style="stroke: rgb(56%,93%,56%); stroke-linecap: round; stroke-width: 1; fill: rgb(56%,93%,56%); fill-rule: evenodd;"/>
			<polygon points="626.8559 200.5765, 492.9754 200.5765, 492.9754 210.8268, 476.575 190.3262, 492.9754 169.8256, 492.9754 180.0759, 626.8559 180.0759" style="stroke: rgb(56%,93%,56%); stroke-linecap: round; stroke-width: 1; fill: rgb(56%,93%,56%); fill-rule: evenodd;"/>
			<polygon points="713.6948 200.5765, 648.1791 200.5765, 648.1791 210.8268, 631.7786 190.3262, 648.1791 169.8256, 648.1791 180.0759, 713.6948 180.0759" style="stroke: rgb(56%,93%,56%); stroke-linecap: round; stroke-width: 1; fill: rgb(56%,93%,56%); fill-rule: evenodd;"/>
			<polygon points="771.4951 200.5765, 738.6685 200.5765, 738.6685 210.8268, 722.268 190.3262, 738.6685 169.8256, 738.6685 180.0759, 771.4951 180.0759" style="stroke: rgb(56%,93%,56%); stroke-linecap: round; stroke-width: 1; fill: rgb(56%,93%,56%); fill-rule: evenodd;"/>
			<polygon points="787.9226 241.5776, 826.5569 241.5776, 826.5569 251.8279, 842.9574 231.3273, 826.5569 210.8268, 826.5569 221.0771, 787.9226 221.0771" style="stroke: rgb(67%,84%,90%); stroke-linecap: round; stroke-width: 1; fill: rgb(67%,84%,90%); fill-rule: evenodd;"/>
			<polygon points="884.3856 200.5765, 863.1743 200.5765, 863.1743 210.8268, 846.7739 190.3262, 863.1743 169.8256, 863.1743 180.0759, 884.3856 180.0759" style="stroke: rgb(56%,93%,56%); stroke-linecap: round; stroke-width: 1; fill: rgb(56%,93%,56%); fill-rule: evenodd;"/>
			<polygon points="961.5449 200.5765, 902.0029 200.5765, 902.0029 210.8268, 885.6025 190.3262, 902.0029 169.8256, 902.0029 180.0759, 961.5449 180.0759" style="stroke: rgb(56%,93%,56%); stroke-linecap: round; stroke-width: 1; fill: rgb(56%,93%,56%); fill-rule: evenodd;"/>
			<polygon points="1044.069 200.5765, 986.6846 200.5765, 986.6846 210.8268, 970.2841 190.3262, 986.6846 169.8256, 986.6846 180.0759, 1044.069 180.0759" style="stroke: rgb(56%,93%,56%); stroke-linecap: round; stroke-width: 1; fill: rgb(56%,93%,56%); fill-rule: evenodd;"/>
			<polygon points="1123.828 200.5765, 1063.623 200.5765, 1063.623 210.8268, 1047.222 190.3262, 1063.623 169.8256, 1063.623 180.0759, 1123.828 180.0759" style="stroke: rgb(56%,93%,56%); stroke-linecap: round; stroke-width: 1; fill: rgb(56%,93%,56%); fill-rule: evenodd;"/>
			<polygon points="1159.172 200.5765, 1149.577 200.5765, 1149.577 210.8268, 1133.176 190.3262, 1149.577 169.8256, 1149.577 180.0759, 1159.172 180.0759" style="stroke: rgb(56%,93%,56%); stroke-linecap: round; stroke-width: 1; fill: rgb(56%,93%,56%); fill-rule: evenodd;"/>
			<polygon points="1189.926 200.5765, 1176.513 200.5765, 1176.513 210.8268, 1160.113 190.3262, 1176.513 169.8256, 1176.513 180.0759, 1189.926 180.0759" style="stroke: rgb(56%,93%,56%); stroke-linecap: round; stroke-width: 1; fill: rgb(56%,93%,56%); fill-rule: evenodd;"/>
			<polygon points="1203.809 200.5765, 1203.809 210.8268, 1193.908 190.3262, 1203.809 169.8256, 1203.809 180.0759" style="stroke: rgb(56%,93%,56%); stroke-linecap: round; stroke-width: 1; fill: rgb(56%,93%,56%); fill-rule: evenodd;"/>
			<polygon points="114.6174 487.5844, 87.26659 487.5844, 87.26659 497.8346, 70.86614 477.3341, 87.26659 456.8335, 87.26659 467.0838, 114.6174 467.0838" style="stroke: rgb(56%,93%,56%); stroke-linecap: round; stroke-width: 1; fill: rgb(56%,93%,56%); fill-rule: evenodd;"/>
			<polygon points="126.5647 528.5855, 130.1869 528.5855, 130.1869 538.8358, 146.5874 518.3352, 130.1869 497.8346, 130.1869 508.0849, 126.5647 508.0849" style="stroke: rgb(67%,84%,90%); stroke-linecap: round; stroke-width: 1; fill: rgb(67%,84%,90%); fill-rule: evenodd;"/>
			<polygon points="146.4215 528.5855, 167.9646 528.5855, 167.9646 538.8358, 184.365 518.3352, 167.9646 497.8346, 167.9646 508.0849, 146.4215 508.0849" style="stroke: rgb(67%,84%,90%); stroke-linecap: round; stroke-width: 1; fill: rgb(67%,84%,90%); fill-rule: evenodd;"/>
			<polygon points="185.0288 528.5855, 210.3884 528.5855, 210.3884 538.8358, 226.7889 518.3352, 210.3884 497.8346, 210.3884 508.0849, 185.0288 508.0849" style="stroke: rgb(67%,84%,90%); stroke-linecap: round; stroke-width: 1; fill: rgb(67%,84%,90%); fill-rule: evenodd;"/>
			<polygon points="234.1453 528.5855, 336.6642 528.5855, 336.6642 538.8358, 353.0647 518.3352, 336.6642 497.8346, 336.6642 508.0849, 234.1453 508.0849" style="stroke: rgb(67%,84%,90%); stroke-linecap: round; stroke-width: 1; fill: rgb(67%,84%,90%); fill-rule: evenodd;"/>
			<polygon points="393.0548 487.5844, 374.4985 487.5844, 374.4985 497.8346, 358.098 477.3341, 374.4985 456.8335, 374.4985 467.0838, 393.0548 467.0838" style="stroke: rgb(56%,93%,56%); stroke-linecap: round; stroke-width: 1; fill: rgb(56%,93%,56%); fill-rule: evenodd;"/>
			<polygon points="403.7852 528.5855, 459.3448 528.5855, 459.3448 538.8358, 475.7453 518.3352, 459.3448 497.8346, 459.3448 508.0849, 403.7852 508.0849" style="stroke: rgb(67%,84%,90%); stroke-linecap: round; stroke-width: 1; fill: rgb(67%,84%,90%); fill-rule: evenodd;"/>
			<polygon points="482.1614 528.5855, 516.6474 528.5855, 516.6474 538.8358, 533.0479 518.3352, 516.6474 497.8346, 516.6474 508.0849, 482.1614 508.0849" style="stroke: rgb(67%,84%,90%); stroke-linecap: round; stroke-width: 1; fill: rgb(67%,84%,90%); fill-rule: evenodd;"/>
			<polygon points="534.2647 528.5855, 534.2647 538.8358, 547.1523 518.3352, 534.2647 497.8346, 534.2647 508.0849" style="stroke: rgb(67%,84%,90%); stroke-linecap: round; stroke-width: 1; fill: rgb(67%,84%,90%); fill-rule: evenodd;"/>
			<polygon points="549.2541 528.5855, 597.3467 528.5855, 597.3467 538.8358, 613.7471 518.3352, 597.3467 497.8346, 597.3467 508.0849, 549.2541 508.0849" style="stroke: rgb(67%,84%,90%); stroke-linecap: round; stroke-width: 1; fill: rgb(67%,84%,90%); fill-rule: evenodd;"/>
			<polygon points="643.1175 528.5855, 708.7991 528.5855, 708.7991 538.8358, 725.1995 518.3352, 708.7991 497.8346, 708.7991 508.0849, 643.1175 508.0849" style="stroke: rgb(67%,84%,90%); stroke-linecap: round; stroke-width: 1; fill: rgb(67%,84%,90%); fill-rule: evenodd;"/>
			<polygon points="732.5006 528.5855, 867.3767 528.5855, 867.3767 538.8358, 883.7772 518.3352, 867.3767 497.8346, 867.3767 508.0849, 732.5006 508.0849" style="stroke: rgb(67%,84%,90%); stroke-linecap: round; stroke-width: 1; fill: rgb(67%,84%,90%); fill-rule: evenodd;"/>
			<polygon points="888.534 528.5855, 915.5529 528.5855, 915.5529 538.8358, 931.9534 518.3352, 915.5529 497.8346, 915.5529 508.0849, 888.534 508.0849" style="stroke: rgb(67%,84%,90%); stroke-linecap: round; stroke-width: 1; fill: rgb(67%,84%,90%); fill-rule: evenodd;"/>
			<polygon points="935.2167 528.5855, 943.4852 528.5855, 943.4852 538.8358, 959.8856 518.3352, 943.4852 497.8346, 943.4852 508.0849, 935.2167 508.0849" style="stroke: rgb(67%,84%,90%); stroke-linecap: round; stroke-width: 1; fill: rgb(67%,84%,90%); fill-rule: evenodd;"/>
			<polygon points="1065.862 487.5844, 981.7619 487.5844, 981.7619 497.8346, 965.3614 477.3341, 981.7619 456.8335, 981.7619 467.0838, 1065.862 467.0838" style="stroke: rgb(56%,93%,56%); stroke-linecap: round; stroke-width: 1; fill: rgb(56%,93%,56%); fill-rule: evenodd;"/>
			<polygon points="1161.33 487.5844, 1081.875 487.5844, 1081.875 497.8346, 1065.475 477.3341, 1081.875 456.8335, 1081.875 467.0838, 1161.33 467.0838" style="stroke: rgb(56%,93%,56%); stroke-linecap: round; stroke-width: 1; fill: rgb(56%,93%,56%); fill-rule: evenodd;"/>
			<polygon points="1187.271 487.5844, 1178.504 487.5844, 1178.504 497.8346, 1162.104 477.3341, 1178.504 456.8335, 1178.504 467.0838, 1187.271 467.0838" style="stroke: rgb(56%,93%,56%); stroke-linecap: round; stroke-width: 1; fill: rgb(56%,93%,56%); fill-rule: evenodd;"/>
			<polygon points="1197.559 528.5855, 1232.376 528.5855, 1232.376 538.8358, 1248.777 518.3352, 1232.376 497.8346, 1232.376 508.0849, 1197.559 508.0849" style="stroke: rgb(67%,84%,90%); stroke-linecap: round; stroke-width: 1; fill: rgb(67%,84%,90%); fill-rule: evenodd;"/>
			<polygon points="1253.091 528.5855, 1280.11 528.5855, 1280.11 538.8358, 1296.511 518.3352, 1280.11 497.8346, 1280.11 508.0849, 1253.091 508.0849" style="stroke: rgb(67%,84%,90%); stroke-linecap: round; stroke-width: 1; fill: rgb(67%,84%,90%); fill-rule: evenodd;"/>
			<polygon points="1296.511 528.5855, 1330.001 528.5855, 1330.001 538.8358, 1346.401 518.3352, 1330.001 497.8346, 1330.001 508.0849, 1296.511 508.0849" style="stroke: rgb(67%,84%,90%); stroke-linecap: round; stroke-width: 1; fill: rgb(67%,84%,90%); fill-rule: evenodd;"/>
			<path d="M 1204.63837,169.825647 L 1204.63837,251.827897 Z" style="stroke: rgb(0%,0%,0%); stroke-linecap: butt; stroke-width: 1;"/>
			<path d="M 70.866142,210.826772 L 1204.63837,210.826772 Z" style="stroke: rgb(0%,0%,0%); stroke-linecap: butt; stroke-width: 1;"/>
			<path d="M 70.866142,169.825647 L 70.866142,251.827897 Z" style="stroke: rgb(0%,0%,0%); stroke-linecap: butt; stroke-width: 1;"/>
			<path d="M 623.979727,210.826772 L 623.979727,231.327334 Z" style="stroke: rgb(0%,0%,0%); stroke-linecap: butt; stroke-width: 1;"/>
			<path d="M 1177.093313,210.826772 L 1177.093313,231.327334 Z" style="stroke: rgb(0%,0%,0%); stroke-linecap: butt; stroke-width: 1;"/>
			<path d="M 623.979727,210.826772 L 623.979727,223.127109 Z" style="stroke: rgb(0%,0%,0%); stroke-linecap: butt; stroke-width: 1;"/>
			<path d="M 1177.093313,210.826772 L 1177.093313,223.127109 Z" style="stroke: rgb(0%,0%,0%); stroke-linecap: butt; stroke-width: 1;"/>
			<path d="M 1346.401382,456.833521 L 1346.401382,538.835771 Z" style="stroke: rgb(0%,0%,0%); stroke-linecap: butt; stroke-width: 1;"/>
			<path d="M 70.866142,497.834646 L 1346.401382,497.834646 Z" style="stroke: rgb(0%,0%,0%); stroke-linecap: butt; stroke-width: 1;"/>
			<path d="M 70.866142,456.833521 L 70.866142,538.835771 Z" style="stroke: rgb(0%,0%,0%); stroke-linecap: butt; stroke-width: 1;"/>
			<path d="M 623.979727,497.834646 L 623.979727,518.335208 Z" style="stroke: rgb(0%,0%,0%); stroke-linecap: butt; stroke-width: 1;"/>
			<path d="M 1177.093313,497.834646 L 1177.093313,518.335208 Z" style="stroke: rgb(0%,0%,0%); stroke-linecap: butt; stroke-width: 1;"/>
			<path d="M 623.979727,497.834646 L 623.979727,510.134983 Z" style="stroke: rgb(0%,0%,0%); stroke-linecap: butt; stroke-width: 1;"/>
			<path d="M 1177.093313,497.834646 L 1177.093313,510.134983 Z" style="stroke: rgb(0%,0%,0%); stroke-linecap: butt; stroke-width: 1;"/>
			<g transform=" matrix(0.707107,0.707107,-0.707107,0.707107,623.979727,231.327334)">
				<text style="font-family: Helvetica; font-size: 6px;fill: rgb(0%,0%,0%); stroke:none;" transform="translate(0,0) scale(1,-1)" x="0" y="0">10000</text>
			</g>
			<g transform=" matrix(0.707107,0.707107,-0.707107,0.707107,1177.093313,231.327334)">
				<text style="font-family: Helvetica; font-size: 6px;fill: rgb(0%,0%,0%); stroke:none;" transform="translate(0,0) scale(1,-1)" x="0" y="0">20000</text>
			</g>
			<g transform=" matrix(0.707107,0.707107,-0.707107,0.707107,623.979727,518.335208)">
				<text style="font-family: Helvetica; font-size: 6px;fill: rgb(0%,0%,0%); stroke:none;" transform="translate(0,0) scale(1,-1)" x="0" y="0">10000</text>
			</g>
			<g transform=" matrix(0.707107,0.707107,-0.707107,0.707107,1177.093313,518.335208)">
				<text style="font-family: Helvetica; font-size: 6px;fill: rgb(0%,0%,0%); stroke:none;" transform="translate(0,0) scale(1,-1)" x="0" y="0">20000</text>
			</g>
			<g transform=" matrix(0.707107,-0.707107,0.707107,0.707107,93.98629,169.825647)">
				<text style="font-family: Helvetica; font-size: 10px;fill: rgb(0%,0%,0%); stroke:none;" transform="translate(0,0) scale(1,-1)" x="0" y="0">Gene_00944</text>
			</g>
			<g transform=" matrix(0.707107,0.707107,-0.707107,0.707107,142.356073,251.827897)">
				<text style="font-family: Helvetica; font-size: 10px;fill: rgb(0%,0%,0%); stroke:none;" transform="translate(0,0) scale(1,-1)" x="0" y="0">Gene_00945</text>
			</g>
			<g transform=" matrix(0.707107,0.707107,-0.707107,0.707107,206.959739,251.827897)">
				<text style="font-family: Helvetica; font-size: 10px;fill: rgb(0%,0%,0%); stroke:none;" transform="translate(0,0) scale(1,-1)" x="0" y="0">Gene_00946</text>
			</g>
			<g transform=" matrix(0.707107,0.707107,-0.707107,0.707107,309.258097,251.827897)">
				<text style="font-family: Helvetica; font-size: 10px;fill: rgb(0%,0%,0%); stroke:none;" transform="translate(0,0) scale(1,-1)" x="0" y="0">Gene_00947</text>
			</g>
			<g transform=" matrix(0.707107,0.707107,-0.707107,0.707107,387.578981,251.827897)">
				<text style="font-family: Helvetica; font-size: 10px;fill: rgb(0%,0%,0%); stroke:none;" transform="translate(0,0) scale(1,-1)" x="0" y="0">Gene_00948</text>
			</g>
			<g transform=" matrix(0.707107,-0.707107,0.707107,0.707107,451.961402,169.825647)">
				<text style="font-family: Helvetica; font-size: 10px;fill: rgb(0%,0%,0%); stroke:none;" transform="translate(0,0) scale(1,-1)" x="0" y="0">Gene_00949</text>
			</g>
			<g transform=" matrix(0.707107,-0.707107,0.707107,0.707107,551.715437,169.825647)">
				<text style="font-family: Helvetica; font-size: 10px;fill: rgb(0%,0%,0%); stroke:none;" transform="translate(0,0) scale(1,-1)" x="0" y="0">Gene_00950</text>
			</g>
			<g transform=" matrix(0.707107,-0.707107,0.707107,0.707107,672.73669,169.825647)">
				<text style="font-family: Helvetica; font-size: 16px;fill: rgb(0%,0%,100%); stroke:none;" transform="translate(0,0) scale(1,-1)" x="0" y="0">Gene_00951 (86.7)</text>
			</g>
			<g transform=" matrix(0.707107,-0.707107,0.707107,0.707107,746.881566,169.825647)">
				<text style="font-family: Helvetica; font-size: 10px;fill: rgb(0%,0%,0%); stroke:none;" transform="translate(0,0) scale(1,-1)" x="0" y="0">Gene_00952</text>
			</g>
			<g transform=" matrix(0.707107,0.707107,-0.707107,0.707107,815.439995,251.827897)">
				<text style="font-family: Helvetica; font-size: 10px;fill: rgb(0%,0%,0%); stroke:none;" transform="translate(0,0) scale(1,-1)" x="0" y="0">Gene_00953</text>
			</g>
			<g transform=" matrix(0.707107,-0.707107,0.707107,0.707107,865.579742,169.825647)">
				<text style="font-family: Helvetica; font-size: 10px;fill: rgb(0%,0%,0%); stroke:none;" transform="translate(0,0) scale(1,-1)" x="0" y="0">Gene_00954</text>
			</g>
			<g transform=" matrix(0.707107,-0.707107,0.707107,0.707107,923.573701,169.825647)">
				<text style="font-family: Helvetica; font-size: 10px;fill: rgb(0%,0%,0%); stroke:none;" transform="translate(0,0) scale(1,-1)" x="0" y="0">Gene_00955</text>
			</g>
			<g transform=" matrix(0.707107,-0.707107,0.707107,0.707107,1007.176819,169.825647)">
				<text style="font-family: Helvetica; font-size: 10px;fill: rgb(0%,0%,0%); stroke:none;" transform="translate(0,0) scale(1,-1)" x="0" y="0">Gene_00956</text>
			</g>
			<g transform=" matrix(0.707107,-0.707107,0.707107,0.707107,1085.525359,169.825647)">
				<text style="font-family: Helvetica; font-size: 10px;fill: rgb(0%,0%,0%); stroke:none;" transform="translate(0,0) scale(1,-1)" x="0" y="0">Gene_00957</text>
			</g>
			<g transform=" matrix(0.707107,-0.707107,0.707107,0.707107,1146.174264,169.825647)">
				<text style="font-family: Helvetica; font-size: 10px;fill: rgb(0%,0%,0%); stroke:none;" transform="translate(0,0) scale(1,-1)" x="0" y="0">Gene_00958</text>
			</g>
			<g transform=" matrix(0.707107,-0.707107,0.707107,0.707107,1175.019137,169.825647)">
				<text style="font-family: Helvetica; font-size: 10px;fill: rgb(0%,0%,0%); stroke:none;" transform="translate(0,0) scale(1,-1)" x="0" y="0">Gene_00959</text>
			</g>
			<g transform=" matrix(0.707107,-0.707107,0.707107,0.707107,1198.858333,169.825647)">
				<text style="font-family: Helvetica; font-size: 10px;fill: rgb(0%,0%,0%); stroke:none;" transform="translate(0,0) scale(1,-1)" x="0" y="0">Gene_00960</text>
			</g>
			<g transform=" matrix(0.707107,-0.707107,0.707107,0.707107,92.741784,456.833521)">
				<text style="font-family: Helvetica; font-size: 10px;fill: rgb(0%,0%,0%); stroke:none;" transform="translate(0,0) scale(1,-1)" x="0" y="0">Gene_01927</text>
			</g>
			<g transform=" matrix(0.707107,0.707107,-0.707107,0.707107,136.576036,538.835771)">
				<text style="font-family: Helvetica; font-size: 10px;fill: rgb(0%,0%,0%); stroke:none;" transform="translate(0,0) scale(1,-1)" x="0" y="0">Gene_01928</text>
			</g>
			<g transform=" matrix(0.707107,0.707107,-0.707107,0.707107,165.393254,538.835771)">
				<text style="font-family: Helvetica; font-size: 10px;fill: rgb(0%,0%,0%); stroke:none;" transform="translate(0,0) scale(1,-1)" x="0" y="0">Gene_01929</text>
			</g>
			<g transform=" matrix(0.707107,0.707107,-0.707107,0.707107,205.908824,538.835771)">
				<text style="font-family: Helvetica; font-size: 10px;fill: rgb(0%,0%,0%); stroke:none;" transform="translate(0,0) scale(1,-1)" x="0" y="0">Gene_01930</text>
			</g>
			<g transform=" matrix(0.707107,0.707107,-0.707107,0.707107,293.604983,538.835771)">
				<text style="font-family: Helvetica; font-size: 10px;fill: rgb(0%,0%,0%); stroke:none;" transform="translate(0,0) scale(1,-1)" x="0" y="0">Gene_01931</text>
			</g>
			<g transform=" matrix(0.707107,-0.707107,0.707107,0.707107,375.576416,456.833521)">
				<text style="font-family: Helvetica; font-size: 10px;fill: rgb(0%,0%,0%); stroke:none;" transform="translate(0,0) scale(1,-1)" x="0" y="0">Gene_01932</text>
			</g>
			<g transform=" matrix(0.707107,0.707107,-0.707107,0.707107,439.765248,538.835771)">
				<text style="font-family: Helvetica; font-size: 10px;fill: rgb(0%,0%,0%); stroke:none;" transform="translate(0,0) scale(1,-1)" x="0" y="0">Gene_01933</text>
			</g>
			<g transform=" matrix(0.707107,0.707107,-0.707107,0.707107,507.604629,538.835771)">
				<text style="font-family: Helvetica; font-size: 10px;fill: rgb(0%,0%,0%); stroke:none;" transform="translate(0,0) scale(1,-1)" x="0" y="0">Gene_01934</text>
			</g>
			<g transform=" matrix(0.707107,0.707107,-0.707107,0.707107,540.708477,538.835771)">
				<text style="font-family: Helvetica; font-size: 10px;fill: rgb(0%,0%,0%); stroke:none;" transform="translate(0,0) scale(1,-1)" x="0" y="0">Gene_01935</text>
			</g>
			<g transform=" matrix(0.707107,0.707107,-0.707107,0.707107,581.500604,538.835771)">
				<text style="font-family: Helvetica; font-size: 10px;fill: rgb(0%,0%,0%); stroke:none;" transform="translate(0,0) scale(1,-1)" x="0" y="0">Gene_01936</text>
			</g>
			<g transform=" matrix(0.707107,0.707107,-0.707107,0.707107,684.158485,538.835771)">
				<text style="font-family: Helvetica; font-size: 16px;fill: rgb(0%,0%,100%); stroke:none;" transform="translate(0,0) scale(1,-1)" x="0" y="0">Gene_01937 (86.7)</text>
			</g>
			<g transform=" matrix(0.707107,0.707107,-0.707107,0.707107,808.138896,538.835771)">
				<text style="font-family: Helvetica; font-size: 10px;fill: rgb(0%,0%,0%); stroke:none;" transform="translate(0,0) scale(1,-1)" x="0" y="0">Gene_01938</text>
			</g>
			<g transform=" matrix(0.707107,0.707107,-0.707107,0.707107,910.243664,538.835771)">
				<text style="font-family: Helvetica; font-size: 10px;fill: rgb(0%,0%,0%); stroke:none;" transform="translate(0,0) scale(1,-1)" x="0" y="0">Gene_01939</text>
			</g>
			<g transform=" matrix(0.707107,0.707107,-0.707107,0.707107,947.551175,538.835771)">
				<text style="font-family: Helvetica; font-size: 10px;fill: rgb(0%,0%,0%); stroke:none;" transform="translate(0,0) scale(1,-1)" x="0" y="0">Gene_01940</text>
			</g>
			<g transform=" matrix(0.707107,-0.707107,0.707107,0.707107,1015.611802,456.833521)">
				<text style="font-family: Helvetica; font-size: 10px;fill: rgb(0%,0%,0%); stroke:none;" transform="translate(0,0) scale(1,-1)" x="0" y="0">Gene_01941</text>
			</g>
			<g transform=" matrix(0.707107,-0.707107,0.707107,0.707107,1113.402284,456.833521)">
				<text style="font-family: Helvetica; font-size: 10px;fill: rgb(0%,0%,0%); stroke:none;" transform="translate(0,0) scale(1,-1)" x="0" y="0">Gene_01942</text>
			</g>
			<g transform=" matrix(0.707107,-0.707107,0.707107,0.707107,1174.687269,456.833521)">
				<text style="font-family: Helvetica; font-size: 10px;fill: rgb(0%,0%,0%); stroke:none;" transform="translate(0,0) scale(1,-1)" x="0" y="0">Gene_01943</text>
			</g>
			<g transform=" matrix(0.707107,0.707107,-0.707107,0.707107,1223.167675,538.835771)">
				<text style="font-family: Helvetica; font-size: 10px;fill: rgb(0%,0%,0%); stroke:none;" transform="translate(0,0) scale(1,-1)" x="0" y="0">Gene_01944</text>
			</g>
			<g transform=" matrix(0.707107,0.707107,-0.707107,0.707107,1274.800828,538.835771)">
				<text style="font-family: Helvetica; font-size: 10px;fill: rgb(0%,0%,0%); stroke:none;" transform="translate(0,0) scale(1,-1)" x="0" y="0">Gene_01945</text>
			</g>
			<g transform=" matrix(0.707107,0.707107,-0.707107,0.707107,1321.455959,538.835771)">
				<text style="font-family: Helvetica; font-size: 10px;fill: rgb(0%,0%,0%); stroke:none;" transform="translate(0,0) scale(1,-1)" x="0" y="0">Gene_01946</text>
			</g>
			<g transform=" matrix(1,0,-0,1,70,169.825647)">
				<text style="font-family: Helvetica; font-size: 12px;fill: rgb(60%,60%,60%); stroke:none;" transform="translate(0,0) scale(1,-1)" x="0" y="0">megahit_23467 (left 46256bp, right 8876bp)</text>
			</g>
			<g transform=" matrix(1,0,-0,1,70,456.833521)">
				<text style="font-family: Helvetica; font-size: 12px;fill: rgb(60%,60%,60%); stroke:none;" transform="translate(0,0) scale(1,-1)" x="0" y="0">megahit_83290 (left 13020bp, right 24542bp)</text>
			</g>
		</g>
	</g>
</svg>
