<?xml version="1.0" encoding="utf-8"?>
<!DOCTYPE svg
  PUBLIC '-//W3C//DTD SVG 1.0//EN'
  'http://www.w3.org/TR/2001/REC-SVG-20010904/DTD/svg10.dtd'>
<svg fill-rule="evenodd" height="708.6614173228346" preserveAspectRatio="xMinYMin meet" version="1.0" viewBox="0 0 1417 708" width="1417.3228346456692" xmlns="http://www.w3.org/2000/svg" xmlns:xlink="http://www.w3.org/1999/xlink">
	<title>...</title>
	<desc>...</desc>
	<clipPath id="clip">
		<rect height="708.6614173228346" width="1417.3228346456692" x="0" y="0"/>
	</clipPath>
	<g id="group" style="clip-path: url(#clip)" transform="scale(1,-1) translate(0,-708)">
		<g transform="">
			<polygon points="70.86614 169.8256, 864.8032 169.8256, 864.8032 251.8279, 70.86614 251.8279" style="stroke: rgb(96%,96%,96%); stroke-linecap: butt; stroke-width: 1; fill: rgb(96%,96%,96%); fill-rule: evenodd;"/>
			<polygon points="70.86614 456.8335, 1346.393 456.8335, 1346.393 538.8358, 70.86614 538.8358" style="stroke: rgb(96%,96%,96%); stroke-linecap: butt; stroke-width: 1; fill: rgb(96%,96%,96%); fill-rule: evenodd;"/>
			<polygon points="715.0993 456.8335, 851.0307 456.8335, 290.4576 251.8279, 426.389 251.8279" style="stroke: rgb(100%,25%,25%); stroke-linecap: round; stroke-width: 1; fill: rgb(100%,25%,25%); fill-rule: evenodd;"/>
			<polygon points="629.7097 456.8335, 696.5224 456.8335, 438.6242 251.8279, 506.5258 251.8279" style="stroke: rgb(100%,51%,51%); stroke-linecap: round; stroke-width: 1; fill: rgb(100%,51%,51%); fill-rule: evenodd;"/>
			<polygon points="933.5377 456.8335, 982.8625 456.8335, 200.7761 251.8279, 250.1009 251.8279" style="stroke: rgb(100%,54%,54%); stroke-linecap: round; stroke-width: 1; fill: rgb(100%,54%,54%); fill-rule: evenodd;"/>
			<polygon points="73.04412 241.5776, 140.7521 241.5776, 140.7521 251.8279, 157.1525 231.3273, 140.7521 210.8268, 140.7521 221.0771, 73.04412 221.0771" style="stroke: rgb(67%,84%,90%); stroke-linecap: round; stroke-width: 1; fill: rgb(67%,84%,90%); fill-rule: evenodd;"/>
			<polygon points="200.8402 241.5776, 234.1489 241.5776, 234.1489 251.8279, 250.5493 231.3273, 234.1489 210.8268, 234.1489 221.0771, 200.8402 221.0771" style="stroke: rgb(67%,84%,90%); stroke-linecap: round; stroke-width: 1; fill: rgb(67%,84%,90%); fill-rule: evenodd;"/>
			<polygon points="251.1899 241.5776, 251.1899 251.8279, 266.1155 231.3273, 251.1899 210.8268, 251.1899 221.0771" style="stroke: rgb(67%,84%,90%); stroke-linecap: round; stroke-width: 1; fill: rgb(67%,84%,90%); fill-rule: evenodd;"/>
			<polygon points="290.3935 241.5776, 409.9886 241.5776, 409.9886 251.8279, 426.389 231.3273, 409.9886 210.8268, 409.9886 221.0771, 290.3935 221.0771" style="stroke: rgb(67%,84%,90%); stroke-linecap: round; stroke-width: 1; fill: rgb(67%,84%,90%); fill-rule: evenodd;"/>
			<polygon points="435.9337 241.5776, 455.9824 241.5776, 455.9824 251.8279, 472.3828 231.3273, 455.9824 210.8268, 455.9824 221.0771, 435.9337 221.0771" style="stroke: rgb(67%,84%,90%); stroke-linecap: round; stroke-width: 1; fill: rgb(67%,84%,90%); fill-rule: evenodd;"/>
			<polygon points="478.3402 241.5776, 490.5097 241.5776, 490.5097 251.8279, 506.9102 231.3273, 490.5097 210.8268, 490.5097 221.0771, 478.3402 221.0771" style="stroke: rgb(67%,84%,90%); stroke-linecap: round; stroke-width: 1; fill: rgb(67%,84%,90%); fill-rule: evenodd;"/>
			<polygon points="515.3659 241.5776, 515.3659 251.8279, 525.487 231.3273, 515.3659 210.8268, 515.3659 221.0771" style="stroke: rgb(67%,84%,90%); stroke-linecap: round; stroke-width: 1; fill: rgb(67%,84%,90%); fill-rule: evenodd;"/>
			<polygon points="539.3236 241.5776, 548.2261 241.5776, 548.2261 251.8279, 564.6266 231.3273, 548.2261 210.8268, 548.2261 221.0771, 539.3236 221.0771" style="stroke: rgb(67%,84%,90%); stroke-linecap: round; stroke-width: 1; fill: rgb(67%,84%,90%); fill-rule: evenodd;"/>
			<polygon points="564.4344 241.5776, 593.5153 241.5776, 593.5153 251.8279, 609.9157 231.3273, 593.5153 210.8268, 593.5153 221.0771, 564.4344 221.0771" style="stroke: rgb(67%,84%,90%); stroke-linecap: round; stroke-width: 1; fill: rgb(67%,84%,90%); fill-rule: evenodd;"/>
			<polygon points="609.7236 241.5776, 629.9644 241.5776, 629.9644 251.8279, 646.3648 231.3273, 629.9644 210.8268, 629.9644 221.0771, 609.7236 221.0771" style="stroke: rgb(67%,84%,90%); stroke-linecap: round; stroke-width: 1; fill: rgb(67%,84%,90%); fill-rule: evenodd;"/>
			<polygon points="668.0165 241.5776, 759.7463 241.5776, 759.7463 251.8279, 776.1467 231.3273, 759.7463 210.8268, 759.7463 221.0771, 668.0165 221.0771" style="stroke: rgb(67%,84%,90%); stroke-linecap: round; stroke-width: 1; fill: rgb(67%,84%,90%); fill-rule: evenodd;"/>
			<polygon points="779.798 241.5776, 784.8571 241.5776, 784.8571 251.8279, 801.2575 231.3273, 784.8571 210.8268, 784.8571 221.0771, 779.798 221.0771" style="stroke: rgb(67%,84%,90%); stroke-linecap: round; stroke-width: 1; fill: rgb(67%,84%,90%); fill-rule: evenodd;"/>
			<polygon points="801.8981 241.5776, 823.4842 241.5776, 823.4842 251.8279, 839.8846 231.3273, 823.4842 210.8268, 823.4842 221.0771, 801.8981 221.0771" style="stroke: rgb(67%,84%,90%); stroke-linecap: round; stroke-width: 1; fill: rgb(67%,84%,90%); fill-rule: evenodd;"/>
			<polygon points="444.5816 487.5844, 87.26659 487.5844, 87.26659 497.8346, 70.86614 477.3341, 87.26659 456.8335, 87.26659 467.0838, 444.5816 467.0838" style="stroke: rgb(56%,93%,56%); stroke-linecap: round; stroke-width: 1; fill: rgb(56%,93%,56%); fill-rule: evenodd;"/>
			<polygon points="608.3783 487.5844, 569.4966 487.5844, 569.4966 497.8346, 553.0961 477.3341, 569.4966 456.8335, 569.4966 467.0838, 608.3783 467.0838" style="stroke: rgb(56%,93%,56%); stroke-linecap: round; stroke-width: 1; fill: rgb(56%,93%,56%); fill-rule: evenodd;"/>
			<polygon points="624.5851 487.5844, 624.5851 497.8346, 614.2717 477.3341, 624.5851 456.8335, 624.5851 467.0838" style="stroke: rgb(56%,93%,56%); stroke-linecap: round; stroke-width: 1; fill: rgb(56%,93%,56%); fill-rule: evenodd;"/>
			<polygon points="658.0875 487.5844, 645.918 487.5844, 645.918 497.8346, 629.5175 477.3341, 645.918 456.8335, 645.918 467.0838, 658.0875 467.0838" style="stroke: rgb(56%,93%,56%); stroke-linecap: round; stroke-width: 1; fill: rgb(56%,93%,56%); fill-rule: evenodd;"/>
			<polygon points="696.5224 487.5844, 678.0111 487.5844, 678.0111 497.8346, 661.6107 477.3341, 678.0111 456.8335, 678.0111 467.0838, 696.5224 467.0838" style="stroke: rgb(56%,93%,56%); stroke-linecap: round; stroke-width: 1; fill: rgb(56%,93%,56%); fill-rule: evenodd;"/>
			<polygon points="851.0948 487.5844, 731.4997 487.5844, 731.4997 497.8346, 715.0993 477.3341, 731.4997 456.8335, 731.4997 467.0838, 851.0948 467.0838" style="stroke: rgb(56%,93%,56%); stroke-linecap: round; stroke-width: 1; fill: rgb(56%,93%,56%); fill-rule: evenodd;"/>
			<polygon points="876.0775 487.5844, 876.0775 497.8346, 861.5363 477.3341, 876.0775 456.8335, 876.0775 467.0838" style="stroke: rgb(56%,93%,56%); stroke-linecap: round; stroke-width: 1; fill: rgb(56%,93%,56%); fill-rule: evenodd;"/>
			<polygon points="883.6363 528.5855, 911.372 528.5855, 911.372 538.8358, 927.7724 518.3352, 911.372 497.8346, 911.372 508.0849, 883.6363 508.0849" style="stroke: rgb(67%,84%,90%); stroke-linecap: round; stroke-width: 1; fill: rgb(67%,84%,90%); fill-rule: evenodd;"/>
			<polygon points="982.7984 487.5844, 949.4897 487.5844, 949.4897 497.8346, 933.0893 477.3341, 949.4897 456.8335, 949.4897 467.0838, 982.7984 467.0838" style="stroke: rgb(56%,93%,56%); stroke-linecap: round; stroke-width: 1; fill: rgb(56%,93%,56%); fill-rule: evenodd;"/>
			<polygon points="1015.66 487.5844, 1009.64 487.5844, 1009.64 497.8346, 993.2399 477.3341, 1009.64 456.8335, 1009.64 467.0838, 1015.66 467.0838" style="stroke: rgb(56%,93%,56%); stroke-linecap: round; stroke-width: 1; fill: rgb(56%,93%,56%); fill-rule: evenodd;"/>
			<polygon points="1095.797 487.5844, 1033.278 487.5844, 1033.278 497.8346, 1016.877 477.3341, 1033.278 456.8335, 1033.278 467.0838, 1095.797 467.0838" style="stroke: rgb(56%,93%,56%); stroke-linecap: round; stroke-width: 1; fill: rgb(56%,93%,56%); fill-rule: evenodd;"/>
			<polygon points="1141.471 487.5844, 1112.005 487.5844, 1112.005 497.8346, 1095.605 477.3341, 1112.005 456.8335, 1112.005 467.0838, 1141.471 467.0838" style="stroke: rgb(56%,93%,56%); stroke-linecap: round; stroke-width: 1; fill: rgb(56%,93%,56%); fill-rule: evenodd;"/>
			<polygon points="1212.255 487.5844, 1158.768 487.5844, 1158.768 497.8346, 1142.367 477.3341, 1158.768 456.8335, 1158.768 467.0838, 1212.255 467.0838" style="stroke: rgb(56%,93%,56%); stroke-linecap: round; stroke-width: 1; fill: rgb(56%,93%,56%); fill-rule: evenodd;"/>
			<polygon points="1216.098 528.5855, 1318.013 528.5855, 1318.013 538.8358, 1334.414 518.3352, 1318.013 497.8346, 1318.013 508.0849, 1216.098 508.0849" style="stroke: rgb(67%,84%,90%); stroke-linecap: round; stroke-width: 1; fill: rgb(67%,84%,90%); fill-rule: evenodd;"/>
			<path d="M 864.803233,169.825647 L 864.803233,251.827897 Z" style="stroke: rgb(0%,0%,0%); stroke-linecap: butt; stroke-width: 1;"/>
			<path d="M 70.866142,210.826772 L 864.803233,210.826772 Z" style="stroke: rgb(0%,0%,0%); stroke-linecap: butt; stroke-width: 1;"/>
			<path d="M 70.866142,169.825647 L 70.866142,251.827897 Z" style="stroke: rgb(0%,0%,0%); stroke-linecap: butt; stroke-width: 1;"/>
			<path d="M 711.447948,210.826772 L 711.447948,231.327334 Z" style="stroke: rgb(0%,0%,0%); stroke-linecap: butt; stroke-width: 1;"/>
			<path d="M 711.447948,210.826772 L 711.447948,223.127109 Z" style="stroke: rgb(0%,0%,0%); stroke-linecap: butt; stroke-width: 1;"/>
			<path d="M 1346.392635,456.833521 L 1346.392635,538.835771 Z" style="stroke: rgb(0%,0%,0%); stroke-linecap: butt; stroke-width: 1;"/>
			<path d="M 70.866142,497.834646 L 1346.392635,497.834646 Z" style="stroke: rgb(0%,0%,0%); stroke-linecap: butt; stroke-width: 1;"/>
			<path d="M 70.866142,456.833521 L 70.866142,538.835771 Z" style="stroke: rgb(0%,0%,0%); stroke-linecap: butt; stroke-width: 1;"/>
			<path d="M 711.447948,497.834646 L 711.447948,518.335208 Z" style="stroke: rgb(0%,0%,0%); stroke-linecap: butt; stroke-width: 1;"/>
			<path d="M 711.447948,497.834646 L 711.447948,510.134983 Z" style="stroke: rgb(0%,0%,0%); stroke-linecap: butt; stroke-width: 1;"/>
			<g transform=" matrix(0.707107,0.707107,-0.707107,0.707107,711.447948,231.327334)">
				<text style="font-family: Helvetica; font-size: 6px;fill: rgb(0%,0%,0%); stroke:none;" transform="translate(0,0) scale(1,-1)" x="0" y="0">10000</text>
			</g>
			<g transform=" matrix(0.707107,0.707107,-0.707107,0.707107,711.447948,518.335208)">
				<text style="font-family: Helvetica; font-size: 6px;fill: rgb(0%,0%,0%); stroke:none;" transform="translate(0,0) scale(1,-1)" x="0" y="0">10000</text>
			</g>
			<g transform=" matrix(0.707107,0.707107,-0.707107,0.707107,115.098315,251.827897)">
				<text style="font-family: Helvetica; font-size: 10px;fill: rgb(0%,0%,0%); stroke:none;" transform="translate(0,0) scale(1,-1)" x="0" y="0">Gene_00334</text>
			</g>
			<g transform=" matrix(0.707107,0.707107,-0.707107,0.707107,225.694764,251.827897)">
				<text style="font-family: Helvetica; font-size: 10px;fill: rgb(0%,0%,0%); stroke:none;" transform="translate(0,0) scale(1,-1)" x="0" y="0">Gene_00335</text>
			</g>
			<g transform=" matrix(0.707107,0.707107,-0.707107,0.707107,258.652698,251.827897)">
				<text style="font-family: Helvetica; font-size: 10px;fill: rgb(0%,0%,0%); stroke:none;" transform="translate(0,0) scale(1,-1)" x="0" y="0">Gene_00336</text>
			</g>
			<g transform=" matrix(0.707107,0.707107,-0.707107,0.707107,358.391286,251.827897)">
				<text style="font-family: Helvetica; font-size: 16px;fill: rgb(0%,0%,100%); stroke:none;" transform="translate(0,0) scale(1,-1)" x="0" y="0">Gene_00337 (87.0)</text>
			</g>
			<g transform=" matrix(0.707107,0.707107,-0.707107,0.707107,454.158266,251.827897)">
				<text style="font-family: Helvetica; font-size: 10px;fill: rgb(0%,0%,0%); stroke:none;" transform="translate(0,0) scale(1,-1)" x="0" y="0">Gene_00338</text>
			</g>
			<g transform=" matrix(0.707107,0.707107,-0.707107,0.707107,492.625203,251.827897)">
				<text style="font-family: Helvetica; font-size: 10px;fill: rgb(0%,0%,0%); stroke:none;" transform="translate(0,0) scale(1,-1)" x="0" y="0">Gene_00339</text>
			</g>
			<g transform=" matrix(0.707107,0.707107,-0.707107,0.707107,520.426453,251.827897)">
				<text style="font-family: Helvetica; font-size: 10px;fill: rgb(0%,0%,0%); stroke:none;" transform="translate(0,0) scale(1,-1)" x="0" y="0">Gene_00340</text>
			</g>
			<g transform=" matrix(0.707107,0.707107,-0.707107,0.707107,551.975107,251.827897)">
				<text style="font-family: Helvetica; font-size: 10px;fill: rgb(0%,0%,0%); stroke:none;" transform="translate(0,0) scale(1,-1)" x="0" y="0">Gene_00341</text>
			</g>
			<g transform=" matrix(0.707107,0.707107,-0.707107,0.707107,587.175078,251.827897)">
				<text style="font-family: Helvetica; font-size: 10px;fill: rgb(0%,0%,0%); stroke:none;" transform="translate(0,0) scale(1,-1)" x="0" y="0">Gene_00342</text>
			</g>
			<g transform=" matrix(0.707107,0.707107,-0.707107,0.707107,628.044197,251.827897)">
				<text style="font-family: Helvetica; font-size: 10px;fill: rgb(0%,0%,0%); stroke:none;" transform="translate(0,0) scale(1,-1)" x="0" y="0">Gene_00343</text>
			</g>
			<g transform=" matrix(0.707107,0.707107,-0.707107,0.707107,722.081606,251.827897)">
				<text style="font-family: Helvetica; font-size: 10px;fill: rgb(0%,0%,0%); stroke:none;" transform="translate(0,0) scale(1,-1)" x="0" y="0">Gene_00344</text>
			</g>
			<g transform=" matrix(0.707107,0.707107,-0.707107,0.707107,790.527772,251.827897)">
				<text style="font-family: Helvetica; font-size: 10px;fill: rgb(0%,0%,0%); stroke:none;" transform="translate(0,0) scale(1,-1)" x="0" y="0">Gene_00345</text>
			</g>
			<g transform=" matrix(0.707107,0.707107,-0.707107,0.707107,820.89135,251.827897)">
				<text style="font-family: Helvetica; font-size: 10px;fill: rgb(0%,0%,0%); stroke:none;" transform="translate(0,0) scale(1,-1)" x="0" y="0">Gene_00346</text>
			</g>
			<g transform=" matrix(0.707107,-0.707107,0.707107,0.707107,257.723855,456.833521)">
				<text style="font-family: Helvetica; font-size: 10px;fill: rgb(0%,0%,0%); stroke:none;" transform="translate(0,0) scale(1,-1)" x="0" y="0">Gene_01952</text>
			</g>
			<g transform=" matrix(0.707107,-0.707107,0.707107,0.707107,580.737231,456.833521)">
				<text style="font-family: Helvetica; font-size: 10px;fill: rgb(0%,0%,0%); stroke:none;" transform="translate(0,0) scale(1,-1)" x="0" y="0">Gene_01953</text>
			</g>
			<g transform=" matrix(0.707107,-0.707107,0.707107,0.707107,619.428372,456.833521)">
				<text style="font-family: Helvetica; font-size: 10px;fill: rgb(0%,0%,0%); stroke:none;" transform="translate(0,0) scale(1,-1)" x="0" y="0">Gene_01954</text>
			</g>
			<g transform=" matrix(0.707107,-0.707107,0.707107,0.707107,643.802509,456.833521)">
				<text style="font-family: Helvetica; font-size: 10px;fill: rgb(0%,0%,0%); stroke:none;" transform="translate(0,0) scale(1,-1)" x="0" y="0">Gene_01955</text>
			</g>
			<g transform=" matrix(0.707107,-0.707107,0.707107,0.707107,679.066538,456.833521)">
				<text style="font-family: Helvetica; font-size: 10px;fill: rgb(0%,0%,0%); stroke:none;" transform="translate(0,0) scale(1,-1)" x="0" y="0">Gene_01956</text>
			</g>
			<g transform=" matrix(0.707107,-0.707107,0.707107,0.707107,783.097023,456.833521)">
				<text style="font-family: Helvetica; font-size: 16px;fill: rgb(0%,0%,100%); stroke:none;" transform="translate(0,0) scale(1,-1)" x="0" y="0">Gene_01957 (87.0)</text>
			</g>
			<g transform=" matrix(0.707107,-0.707107,0.707107,0.707107,868.806869,456.833521)">
				<text style="font-family: Helvetica; font-size: 10px;fill: rgb(0%,0%,0%); stroke:none;" transform="translate(0,0) scale(1,-1)" x="0" y="0">Gene_01958</text>
			</g>
			<g transform=" matrix(0.707107,0.707107,-0.707107,0.707107,905.704381,538.835771)">
				<text style="font-family: Helvetica; font-size: 10px;fill: rgb(0%,0%,0%); stroke:none;" transform="translate(0,0) scale(1,-1)" x="0" y="0">Gene_01959</text>
			</g>
			<g transform=" matrix(0.707107,-0.707107,0.707107,0.707107,957.943827,456.833521)">
				<text style="font-family: Helvetica; font-size: 10px;fill: rgb(0%,0%,0%); stroke:none;" transform="translate(0,0) scale(1,-1)" x="0" y="0">Gene_01960</text>
			</g>
			<g transform=" matrix(0.707107,-0.707107,0.707107,0.707107,1004.450066,456.833521)">
				<text style="font-family: Helvetica; font-size: 10px;fill: rgb(0%,0%,0%); stroke:none;" transform="translate(0,0) scale(1,-1)" x="0" y="0">Gene_01961</text>
			</g>
			<g transform=" matrix(0.707107,-0.707107,0.707107,0.707107,1056.337193,456.833521)">
				<text style="font-family: Helvetica; font-size: 10px;fill: rgb(0%,0%,0%); stroke:none;" transform="translate(0,0) scale(1,-1)" x="0" y="0">Gene_01962</text>
			</g>
			<g transform=" matrix(0.707107,-0.707107,0.707107,0.707107,1118.537686,456.833521)">
				<text style="font-family: Helvetica; font-size: 10px;fill: rgb(0%,0%,0%); stroke:none;" transform="translate(0,0) scale(1,-1)" x="0" y="0">Gene_01963</text>
			</g>
			<g transform=" matrix(0.707107,-0.707107,0.707107,0.707107,1177.311067,456.833521)">
				<text style="font-family: Helvetica; font-size: 10px;fill: rgb(0%,0%,0%); stroke:none;" transform="translate(0,0) scale(1,-1)" x="0" y="0">Gene_01964</text>
			</g>
			<g transform=" matrix(0.707107,0.707107,-0.707107,0.707107,1275.256025,538.835771)">
				<text style="font-family: Helvetica; font-size: 10px;fill: rgb(0%,0%,0%); stroke:none;" transform="translate(0,0) scale(1,-1)" x="0" y="0">Gene_01965</text>
			</g>
			<g transform=" matrix(1,0,-0,1,70,169.825647)">
				<text style="font-family: Helvetica; font-size: 12px;fill: rgb(60%,60%,60%); stroke:none;" transform="translate(0,0) scale(1,-1)" x="0" y="0">megahit_23593 (left 3427bp, right 6844bp)</text>
			</g>
			<g transform=" matrix(1,0,-0,1,70,456.833521)">
				<text style="font-family: Helvetica; font-size: 12px;fill: rgb(60%,60%,60%); stroke:none;" transform="translate(0,0) scale(1,-1)" x="0" y="0">megahit_106453 (left 17921bp, right 7732bp)</text>
			</g>
		</g>
	</g>
</svg>
