<?xml version="1.0" encoding="utf-8"?>
<!DOCTYPE svg
  PUBLIC '-//W3C//DTD SVG 1.0//EN'
  'http://www.w3.org/TR/2001/REC-SVG-20010904/DTD/svg10.dtd'>
<svg fill-rule="evenodd" height="708.6614173228346" preserveAspectRatio="xMinYMin meet" version="1.0" viewBox="0 0 1417 708" width="1417.3228346456692" xmlns="http://www.w3.org/2000/svg" xmlns:xlink="http://www.w3.org/1999/xlink">
	<title>...</title>
	<desc>...</desc>
	<clipPath id="clip">
		<rect height="708.6614173228346" width="1417.3228346456692" x="0" y="0"/>
	</clipPath>
	<g id="group" style="clip-path: url(#clip)" transform="scale(1,-1) translate(0,-708)">
		<g transform="">
			<polygon points="70.86614 169.8256, 353 169.8256, 353 251.8279, 70.86614 251.8279" style="stroke: rgb(96%,96%,96%); stroke-linecap: butt; stroke-width: 1; fill: rgb(96%,96%,96%); fill-rule: evenodd;"/>
			<polygon points="70.86614 456.8335, 1346.342 456.8335, 1346.342 538.8358, 70.86614 538.8358" style="stroke: rgb(96%,96%,96%); stroke-linecap: butt; stroke-width: 1; fill: rgb(96%,96%,96%); fill-rule: evenodd;"/>
			<polygon points="70.9813 456.8335, 195.9263 456.8335, 304.4039 251.8279, 179.4589 251.8279" style="stroke: rgb(100%,2%,2%); stroke-linecap: round; stroke-width: 1; fill: rgb(100%,2%,2%); fill-rule: evenodd;"/>
			<polygon points="158.5004 200.5765, 131.1413 200.5765, 131.1413 210.8268, 114.7408 190.3262, 131.1413 169.8256, 131.1413 180.0759, 158.5004 180.0759" style="stroke: rgb(56%,93%,56%); stroke-linecap: round; stroke-width: 1; fill: rgb(56%,93%,56%); fill-rule: evenodd;"/>
			<polygon points="209.3996 200.5765, 173.0583 200.5765, 173.0583 210.8268, 156.6579 190.3262, 173.0583 169.8256, 173.0583 180.0759, 209.3996 180.0759" style="stroke: rgb(56%,93%,56%); stroke-linecap: round; stroke-width: 1; fill: rgb(56%,93%,56%); fill-rule: evenodd;"/>
			<polygon points="260.8747 200.5765, 230.0609 200.5765, 230.0609 210.8268, 213.6604 190.3262, 230.0609 169.8256, 230.0609 180.0759, 260.8747 180.0759" style="stroke: rgb(56%,93%,56%); stroke-linecap: round; stroke-width: 1; fill: rgb(56%,93%,56%); fill-rule: evenodd;"/>
			<polygon points="286.6698 200.5765, 278.3115 200.5765, 278.3115 210.8268, 261.9111 190.3262, 278.3115 169.8256, 278.3115 180.0759, 286.6698 180.0759" style="stroke: rgb(56%,93%,56%); stroke-linecap: round; stroke-width: 1; fill: rgb(56%,93%,56%); fill-rule: evenodd;"/>
			<polygon points="349.8908 200.5765, 333.2413 200.5765, 333.2413 210.8268, 316.8408 190.3262, 333.2413 169.8256, 333.2413 180.0759, 349.8908 180.0759" style="stroke: rgb(56%,93%,56%); stroke-linecap: round; stroke-width: 1; fill: rgb(56%,93%,56%); fill-rule: evenodd;"/>
			<polygon points="152.3971 487.5844, 121.5833 487.5844, 121.5833 497.8346, 105.1828 477.3341, 121.5833 456.8335, 121.5833 467.0838, 152.3971 467.0838" style="stroke: rgb(56%,93%,56%); stroke-linecap: round; stroke-width: 1; fill: rgb(56%,93%,56%); fill-rule: evenodd;"/>
			<polygon points="178.1922 487.5844, 169.8339 487.5844, 169.8339 497.8346, 153.4335 477.3341, 169.8339 456.8335, 169.8339 467.0838, 178.1922 467.0838" style="stroke: rgb(56%,93%,56%); stroke-linecap: round; stroke-width: 1; fill: rgb(56%,93%,56%); fill-rule: evenodd;"/>
			<polygon points="196.0415 528.5855, 264.5115 528.5855, 264.5115 538.8358, 280.9119 518.3352, 264.5115 497.8346, 264.5115 508.0849, 196.0415 508.0849" style="stroke: rgb(67%,84%,90%); stroke-linecap: round; stroke-width: 1; fill: rgb(67%,84%,90%); fill-rule: evenodd;"/>
			<polygon points="371.0796 487.5844, 331.6291 487.5844, 331.6291 497.8346, 315.2286 477.3341, 331.6291 456.8335, 331.6291 467.0838, 371.0796 467.0838" style="stroke: rgb(56%,93%,56%); stroke-linecap: round; stroke-width: 1; fill: rgb(56%,93%,56%); fill-rule: evenodd;"/>
			<polygon points="504.3159 487.5844, 407.8628 487.5844, 407.8628 497.8346, 391.4623 477.3341, 407.8628 456.8335, 407.8628 467.0838, 504.3159 467.0838" style="stroke: rgb(56%,93%,56%); stroke-linecap: round; stroke-width: 1; fill: rgb(56%,93%,56%); fill-rule: evenodd;"/>
			<polygon points="658.6258 487.5844, 537.2989 487.5844, 537.2989 497.8346, 520.8984 477.3341, 537.2989 456.8335, 537.2989 467.0838, 658.6258 467.0838" style="stroke: rgb(56%,93%,56%); stroke-linecap: round; stroke-width: 1; fill: rgb(56%,93%,56%); fill-rule: evenodd;"/>
			<polygon points="687.1847 528.5855, 876.9147 528.5855, 876.9147 538.8358, 893.3152 518.3352, 876.9147 497.8346, 876.9147 508.0849, 687.1847 508.0849" style="stroke: rgb(67%,84%,90%); stroke-linecap: round; stroke-width: 1; fill: rgb(67%,84%,90%); fill-rule: evenodd;"/>
			<polygon points="1044.977 487.5844, 983.7614 487.5844, 983.7614 497.8346, 967.3609 477.3341, 983.7614 456.8335, 983.7614 467.0838, 1044.977 467.0838" style="stroke: rgb(56%,93%,56%); stroke-linecap: round; stroke-width: 1; fill: rgb(56%,93%,56%); fill-rule: evenodd;"/>
			<polygon points="1137.217 487.5844, 1067.02 487.5844, 1067.02 497.8346, 1050.619 477.3341, 1067.02 456.8335, 1067.02 467.0838, 1137.217 467.0838" style="stroke: rgb(56%,93%,56%); stroke-linecap: round; stroke-width: 1; fill: rgb(56%,93%,56%); fill-rule: evenodd;"/>
			<polygon points="1243.276 487.5844, 1154.424 487.5844, 1154.424 497.8346, 1138.023 477.3341, 1154.424 456.8335, 1154.424 467.0838, 1243.276 467.0838" style="stroke: rgb(56%,93%,56%); stroke-linecap: round; stroke-width: 1; fill: rgb(56%,93%,56%); fill-rule: evenodd;"/>
			<polygon points="1346.342 487.5844, 1258.871 487.5844, 1258.871 497.8346, 1242.47 477.3341, 1258.871 456.8335, 1258.871 467.0838, 1346.342 467.0838" style="stroke: rgb(56%,93%,56%); stroke-linecap: round; stroke-width: 1; fill: rgb(56%,93%,56%); fill-rule: evenodd;"/>
			<path d="M 353.000009,169.825647 L 353.000009,251.827897 Z" style="stroke: rgb(0%,0%,0%); stroke-linecap: butt; stroke-width: 1;"/>
			<path d="M 70.866142,210.826772 L 353.000009,210.826772 Z" style="stroke: rgb(0%,0%,0%); stroke-linecap: butt; stroke-width: 1;"/>
			<path d="M 70.866142,169.825647 L 70.866142,251.827897 Z" style="stroke: rgb(0%,0%,0%); stroke-linecap: butt; stroke-width: 1;"/>
			<path d="M 1346.341536,456.833521 L 1346.341536,538.835771 Z" style="stroke: rgb(0%,0%,0%); stroke-linecap: butt; stroke-width: 1;"/>
			<path d="M 70.866142,497.834646 L 1346.341536,497.834646 Z" style="stroke: rgb(0%,0%,0%); stroke-linecap: butt; stroke-width: 1;"/>
			<path d="M 70.866142,456.833521 L 70.866142,538.835771 Z" style="stroke: rgb(0%,0%,0%); stroke-linecap: butt; stroke-width: 1;"/>
			<path d="M 1222.432948,497.834646 L 1222.432948,518.335208 Z" style="stroke: rgb(0%,0%,0%); stroke-linecap: butt; stroke-width: 1;"/>
			<path d="M 1222.432948,497.834646 L 1222.432948,510.134983 Z" style="stroke: rgb(0%,0%,0%); stroke-linecap: butt; stroke-width: 1;"/>
			<g transform=" matrix(0.707107,0.707107,-0.707107,0.707107,1222.432948,518.335208)">
				<text style="font-family: Helvetica; font-size: 6px;fill: rgb(0%,0%,0%); stroke:none;" transform="translate(0,0) scale(1,-1)" x="0" y="0">10000</text>
			</g>
			<g transform=" matrix(0.707107,-0.707107,0.707107,0.707107,136.620606,169.825647)">
				<text style="font-family: Helvetica; font-size: 10px;fill: rgb(0%,0%,0%); stroke:none;" transform="translate(0,0) scale(1,-1)" x="0" y="0">Gene_00016</text>
			</g>
			<g transform=" matrix(0.707107,-0.707107,0.707107,0.707107,183.028749,169.825647)">
				<text style="font-family: Helvetica; font-size: 10px;fill: rgb(0%,0%,0%); stroke:none;" transform="translate(0,0) scale(1,-1)" x="0" y="0">Gene_00017</text>
			</g>
			<g transform=" matrix(0.707107,-0.707107,0.707107,0.707107,237.267545,169.825647)">
				<text style="font-family: Helvetica; font-size: 10px;fill: rgb(0%,0%,0%); stroke:none;" transform="translate(0,0) scale(1,-1)" x="0" y="0">Gene_00018</text>
			</g>
			<g transform=" matrix(0.707107,-0.707107,0.707107,0.707107,274.290418,169.825647)">
				<text style="font-family: Helvetica; font-size: 16px;fill: rgb(0%,0%,100%); stroke:none;" transform="translate(0,0) scale(1,-1)" x="0" y="0">Gene_00019 (99.5)</text>
			</g>
			<g transform=" matrix(0.707107,-0.707107,0.707107,0.707107,333.365795,169.825647)">
				<text style="font-family: Helvetica; font-size: 10px;fill: rgb(0%,0%,0%); stroke:none;" transform="translate(0,0) scale(1,-1)" x="0" y="0">Gene_00020</text>
			</g>
			<g transform=" matrix(0.707107,-0.707107,0.707107,0.707107,128.789952,456.833521)">
				<text style="font-family: Helvetica; font-size: 10px;fill: rgb(0%,0%,0%); stroke:none;" transform="translate(0,0) scale(1,-1)" x="0" y="0">Gene_00543</text>
			</g>
			<g transform=" matrix(0.707107,-0.707107,0.707107,0.707107,165.812825,456.833521)">
				<text style="font-family: Helvetica; font-size: 16px;fill: rgb(0%,0%,100%); stroke:none;" transform="translate(0,0) scale(1,-1)" x="0" y="0">Gene_00544 (99.5)</text>
			</g>
			<g transform=" matrix(0.707107,0.707107,-0.707107,0.707107,238.47669,538.835771)">
				<text style="font-family: Helvetica; font-size: 10px;fill: rgb(0%,0%,0%); stroke:none;" transform="translate(0,0) scale(1,-1)" x="0" y="0">Gene_00545</text>
			</g>
			<g transform=" matrix(0.707107,-0.707107,0.707107,0.707107,343.154113,456.833521)">
				<text style="font-family: Helvetica; font-size: 10px;fill: rgb(0%,0%,0%); stroke:none;" transform="translate(0,0) scale(1,-1)" x="0" y="0">Gene_00546</text>
			</g>
			<g transform=" matrix(0.707107,-0.707107,0.707107,0.707107,447.889114,456.833521)">
				<text style="font-family: Helvetica; font-size: 10px;fill: rgb(0%,0%,0%); stroke:none;" transform="translate(0,0) scale(1,-1)" x="0" y="0">Gene_00547</text>
			</g>
			<g transform=" matrix(0.707107,-0.707107,0.707107,0.707107,589.762145,456.833521)">
				<text style="font-family: Helvetica; font-size: 10px;fill: rgb(0%,0%,0%); stroke:none;" transform="translate(0,0) scale(1,-1)" x="0" y="0">Gene_00548</text>
			</g>
			<g transform=" matrix(0.707107,0.707107,-0.707107,0.707107,790.249926,538.835771)">
				<text style="font-family: Helvetica; font-size: 10px;fill: rgb(0%,0%,0%); stroke:none;" transform="translate(0,0) scale(1,-1)" x="0" y="0">Gene_00549</text>
			</g>
			<g transform=" matrix(0.707107,-0.707107,0.707107,0.707107,1006.168702,456.833521)">
				<text style="font-family: Helvetica; font-size: 10px;fill: rgb(0%,0%,0%); stroke:none;" transform="translate(0,0) scale(1,-1)" x="0" y="0">Gene_00550</text>
			</g>
			<g transform=" matrix(0.707107,-0.707107,0.707107,0.707107,1093.918092,456.833521)">
				<text style="font-family: Helvetica; font-size: 10px;fill: rgb(0%,0%,0%); stroke:none;" transform="translate(0,0) scale(1,-1)" x="0" y="0">Gene_00551</text>
			</g>
			<g transform=" matrix(0.707107,-0.707107,0.707107,0.707107,1190.649704,456.833521)">
				<text style="font-family: Helvetica; font-size: 10px;fill: rgb(0%,0%,0%); stroke:none;" transform="translate(0,0) scale(1,-1)" x="0" y="0">Gene_00552</text>
			</g>
			<g transform=" matrix(0.707107,-0.707107,0.707107,0.707107,1294.405873,456.833521)">
				<text style="font-family: Helvetica; font-size: 10px;fill: rgb(0%,0%,0%); stroke:none;" transform="translate(0,0) scale(1,-1)" x="0" y="0">Gene_00553</text>
			</g>
			<g transform=" matrix(1,0,-0,1,70,456.833521)">
				<text style="font-family: Helvetica; font-size: 12px;fill: rgb(60%,60%,60%); stroke:none;" transform="translate(0,0) scale(1,-1)" x="0" y="0">megahit_25576 (left 717bp, right 17756bp)</text>
			</g>
		</g>
	</g>
</svg>
