<?xml version="1.0" encoding="utf-8"?>
<!DOCTYPE svg
  PUBLIC '-//W3C//DTD SVG 1.0//EN'
  'http://www.w3.org/TR/2001/REC-SVG-20010904/DTD/svg10.dtd'>
<svg fill-rule="evenodd" height="708.6614173228346" preserveAspectRatio="xMinYMin meet" version="1.0" viewBox="0 0 1417 708" width="1417.3228346456692" xmlns="http://www.w3.org/2000/svg" xmlns:xlink="http://www.w3.org/1999/xlink">
	<title>...</title>
	<desc>...</desc>
	<clipPath id="clip">
		<rect height="708.6614173228346" width="1417.3228346456692" x="0" y="0"/>
	</clipPath>
	<g id="group" style="clip-path: url(#clip)" transform="scale(1,-1) translate(0,-708)">
		<g transform="">
			<polygon points="70.86614 169.8256, 1346.4 169.8256, 1346.4 251.8279, 70.86614 251.8279" style="stroke: rgb(96%,96%,96%); stroke-linecap: butt; stroke-width: 1; fill: rgb(96%,96%,96%); fill-rule: evenodd;"/>
			<polygon points="70.86614 456.8335, 412.0653 456.8335, 412.0653 538.8358, 70.86614 538.8358" style="stroke: rgb(96%,96%,96%); stroke-linecap: butt; stroke-width: 1; fill: rgb(96%,96%,96%); fill-rule: evenodd;"/>
			<polygon points="165.2996 456.8335, 398.9401 456.8335, 684.5133 251.8279, 451.2137 251.8279" style="stroke: rgb(100%,47%,47%); stroke-linecap: round; stroke-width: 1; fill: rgb(100%,47%,47%); fill-rule: evenodd;"/>
			<polygon points="141.0378 200.5765, 87.26659 200.5765, 87.26659 210.8268, 70.86614 190.3262, 87.26659 169.8256, 87.26659 180.0759, 141.0378 180.0759" style="stroke: rgb(56%,93%,56%); stroke-linecap: round; stroke-width: 1; fill: rgb(56%,93%,56%); fill-rule: evenodd;"/>
			<polygon points="171.152 200.5765, 157.2678 200.5765, 157.2678 210.8268, 140.8674 190.3262, 157.2678 169.8256, 157.2678 180.0759, 171.152 180.0759" style="stroke: rgb(56%,93%,56%); stroke-linecap: round; stroke-width: 1; fill: rgb(56%,93%,56%); fill-rule: evenodd;"/>
			<polygon points="219.6756 200.5765, 203.7459 200.5765, 203.7459 210.8268, 187.3455 190.3262, 203.7459 169.8256, 203.7459 180.0759, 219.6756 180.0759" style="stroke: rgb(56%,93%,56%); stroke-linecap: round; stroke-width: 1; fill: rgb(56%,93%,56%); fill-rule: evenodd;"/>
			<polygon points="317.3477 200.5765, 249.0876 200.5765, 249.0876 210.8268, 232.6872 190.3262, 249.0876 169.8256, 249.0876 180.0759, 317.3477 180.0759" style="stroke: rgb(56%,93%,56%); stroke-linecap: round; stroke-width: 1; fill: rgb(56%,93%,56%); fill-rule: evenodd;"/>
			<polygon points="353.4279 200.5765, 338.3505 200.5765, 338.3505 210.8268, 321.9501 190.3262, 338.3505 169.8256, 338.3505 180.0759, 353.4279 180.0759" style="stroke: rgb(56%,93%,56%); stroke-linecap: round; stroke-width: 1; fill: rgb(56%,93%,56%); fill-rule: evenodd;"/>
			<polygon points="410.4744 200.5765, 389.2605 200.5765, 389.2605 210.8268, 372.8601 190.3262, 389.2605 169.8256, 389.2605 180.0759, 410.4744 180.0759" style="stroke: rgb(56%,93%,56%); stroke-linecap: round; stroke-width: 1; fill: rgb(56%,93%,56%); fill-rule: evenodd;"/>
			<polygon points="438.7135 200.5765, 431.4772 200.5765, 431.4772 210.8268, 415.0767 190.3262, 431.4772 169.8256, 431.4772 180.0759, 438.7135 180.0759" style="stroke: rgb(56%,93%,56%); stroke-linecap: round; stroke-width: 1; fill: rgb(56%,93%,56%); fill-rule: evenodd;"/>
			<polygon points="549.4541 200.5765, 467.8983 200.5765, 467.8983 210.8268, 451.4978 190.3262, 467.8983 169.8256, 467.8983 180.0759, 549.4541 180.0759" style="stroke: rgb(56%,93%,56%); stroke-linecap: round; stroke-width: 1; fill: rgb(56%,93%,56%); fill-rule: evenodd;"/>
			<polygon points="657.581 200.5765, 566.4795 200.5765, 566.4795 210.8268, 550.0791 190.3262, 566.4795 169.8256, 566.4795 180.0759, 657.581 180.0759" style="stroke: rgb(56%,93%,56%); stroke-linecap: round; stroke-width: 1; fill: rgb(56%,93%,56%); fill-rule: evenodd;"/>
			<polygon points="685.6497 200.5765, 673.811 200.5765, 673.811 210.8268, 657.4105 190.3262, 673.811 169.8256, 673.811 180.0759, 685.6497 180.0759" style="stroke: rgb(56%,93%,56%); stroke-linecap: round; stroke-width: 1; fill: rgb(56%,93%,56%); fill-rule: evenodd;"/>
			<polygon points="754.8554 200.5765, 744.8918 200.5765, 744.8918 210.8268, 728.4913 190.3262, 744.8918 169.8256, 744.8918 180.0759, 754.8554 180.0759" style="stroke: rgb(56%,93%,56%); stroke-linecap: round; stroke-width: 1; fill: rgb(56%,93%,56%); fill-rule: evenodd;"/>
			<polygon points="758.2077 241.5776, 783.3421 241.5776, 783.3421 251.8279, 799.7426 231.3273, 783.3421 210.8268, 783.3421 221.0771, 758.2077 221.0771" style="stroke: rgb(67%,84%,90%); stroke-linecap: round; stroke-width: 1; fill: rgb(67%,84%,90%); fill-rule: evenodd;"/>
			<polygon points="811.3905 241.5776, 860.9003 241.5776, 860.9003 251.8279, 877.3007 231.3273, 860.9003 210.8268, 860.9003 221.0771, 811.3905 221.0771" style="stroke: rgb(67%,84%,90%); stroke-linecap: round; stroke-width: 1; fill: rgb(67%,84%,90%); fill-rule: evenodd;"/>
			<polygon points="891.5624 241.5776, 968.0044 241.5776, 968.0044 251.8279, 984.4049 231.3273, 968.0044 210.8268, 968.0044 221.0771, 891.5624 221.0771" style="stroke: rgb(67%,84%,90%); stroke-linecap: round; stroke-width: 1; fill: rgb(67%,84%,90%); fill-rule: evenodd;"/>
			<polygon points="984.5185 241.5776, 1029.596 241.5776, 1029.596 251.8279, 1045.997 231.3273, 1029.596 210.8268, 1029.596 221.0771, 984.5185 221.0771" style="stroke: rgb(67%,84%,90%); stroke-linecap: round; stroke-width: 1; fill: rgb(67%,84%,90%); fill-rule: evenodd;"/>
			<polygon points="1049.179 241.5776, 1138.235 241.5776, 1138.235 251.8279, 1154.635 231.3273, 1138.235 210.8268, 1138.235 221.0771, 1049.179 221.0771" style="stroke: rgb(67%,84%,90%); stroke-linecap: round; stroke-width: 1; fill: rgb(67%,84%,90%); fill-rule: evenodd;"/>
			<polygon points="1155.772 241.5776, 1207.668 241.5776, 1207.668 251.8279, 1224.068 231.3273, 1207.668 210.8268, 1207.668 221.0771, 1155.772 221.0771" style="stroke: rgb(67%,84%,90%); stroke-linecap: round; stroke-width: 1; fill: rgb(67%,84%,90%); fill-rule: evenodd;"/>
			<polygon points="1224.807 241.5776, 1266.816 241.5776, 1266.816 251.8279, 1283.217 231.3273, 1266.816 210.8268, 1266.816 221.0771, 1224.807 221.0771" style="stroke: rgb(67%,84%,90%); stroke-linecap: round; stroke-width: 1; fill: rgb(67%,84%,90%); fill-rule: evenodd;"/>
			<polygon points="1283.046 241.5776, 1329.999 241.5776, 1329.999 251.8279, 1346.4 231.3273, 1329.999 210.8268, 1329.999 221.0771, 1283.046 221.0771" style="stroke: rgb(67%,84%,90%); stroke-linecap: round; stroke-width: 1; fill: rgb(67%,84%,90%); fill-rule: evenodd;"/>
			<polygon points="85.07094 528.5855, 97.93236 528.5855, 97.93236 538.8358, 114.3328 518.3352, 97.93236 497.8346, 97.93236 508.0849, 85.07094 508.0849" style="stroke: rgb(67%,84%,90%); stroke-linecap: round; stroke-width: 1; fill: rgb(67%,84%,90%); fill-rule: evenodd;"/>
			<polygon points="112.06 528.5855, 112.06 538.8358, 124.6171 518.3352, 112.06 497.8346, 112.06 508.0849" style="stroke: rgb(67%,84%,90%); stroke-linecap: round; stroke-width: 1; fill: rgb(67%,84%,90%); fill-rule: evenodd;"/>
			<polygon points="263.9377 487.5844, 182.041 487.5844, 182.041 497.8346, 165.6405 477.3341, 182.041 456.8335, 182.041 467.0838, 263.9377 467.0838" style="stroke: rgb(56%,93%,56%); stroke-linecap: round; stroke-width: 1; fill: rgb(56%,93%,56%); fill-rule: evenodd;"/>
			<polygon points="372.0078 487.5844, 280.9064 487.5844, 280.9064 497.8346, 264.5059 477.3341, 280.9064 456.8335, 280.9064 467.0838, 372.0078 467.0838" style="stroke: rgb(56%,93%,56%); stroke-linecap: round; stroke-width: 1; fill: rgb(56%,93%,56%); fill-rule: evenodd;"/>
			<polygon points="400.0765 487.5844, 388.2378 487.5844, 388.2378 497.8346, 371.8373 477.3341, 388.2378 456.8335, 388.2378 467.0838, 400.0765 467.0838" style="stroke: rgb(56%,93%,56%); stroke-linecap: round; stroke-width: 1; fill: rgb(56%,93%,56%); fill-rule: evenodd;"/>
			<path d="M 1346.399874,169.825647 L 1346.399874,251.827897 Z" style="stroke: rgb(0%,0%,0%); stroke-linecap: butt; stroke-width: 1;"/>
			<path d="M 70.866142,210.826772 L 1346.399874,210.826772 Z" style="stroke: rgb(0%,0%,0%); stroke-linecap: butt; stroke-width: 1;"/>
			<path d="M 70.866142,169.825647 L 70.866142,251.827897 Z" style="stroke: rgb(0%,0%,0%); stroke-linecap: butt; stroke-width: 1;"/>
			<path d="M 639.057924,210.826772 L 639.057924,231.327334 Z" style="stroke: rgb(0%,0%,0%); stroke-linecap: butt; stroke-width: 1;"/>
			<path d="M 1207.249706,210.826772 L 1207.249706,231.327334 Z" style="stroke: rgb(0%,0%,0%); stroke-linecap: butt; stroke-width: 1;"/>
			<path d="M 639.057924,210.826772 L 639.057924,223.127109 Z" style="stroke: rgb(0%,0%,0%); stroke-linecap: butt; stroke-width: 1;"/>
			<path d="M 1207.249706,210.826772 L 1207.249706,223.127109 Z" style="stroke: rgb(0%,0%,0%); stroke-linecap: butt; stroke-width: 1;"/>
			<path d="M 412.065307,456.833521 L 412.065307,538.835771 Z" style="stroke: rgb(0%,0%,0%); stroke-linecap: butt; stroke-width: 1;"/>
			<path d="M 70.866142,497.834646 L 412.065307,497.834646 Z" style="stroke: rgb(0%,0%,0%); stroke-linecap: butt; stroke-width: 1;"/>
			<path d="M 70.866142,456.833521 L 70.866142,538.835771 Z" style="stroke: rgb(0%,0%,0%); stroke-linecap: butt; stroke-width: 1;"/>
			<g transform=" matrix(0.707107,0.707107,-0.707107,0.707107,639.057924,231.327334)">
				<text style="font-family: Helvetica; font-size: 6px;fill: rgb(0%,0%,0%); stroke:none;" transform="translate(0,0) scale(1,-1)" x="0" y="0">10000</text>
			</g>
			<g transform=" matrix(0.707107,0.707107,-0.707107,0.707107,1207.249706,231.327334)">
				<text style="font-family: Helvetica; font-size: 6px;fill: rgb(0%,0%,0%); stroke:none;" transform="translate(0,0) scale(1,-1)" x="0" y="0">20000</text>
			</g>
			<g transform=" matrix(0.707107,-0.707107,0.707107,0.707107,105.951984,169.825647)">
				<text style="font-family: Helvetica; font-size: 10px;fill: rgb(0%,0%,0%); stroke:none;" transform="translate(0,0) scale(1,-1)" x="0" y="0">Gene_01490</text>
			</g>
			<g transform=" matrix(0.707107,-0.707107,0.707107,0.707107,156.00968,169.825647)">
				<text style="font-family: Helvetica; font-size: 10px;fill: rgb(0%,0%,0%); stroke:none;" transform="translate(0,0) scale(1,-1)" x="0" y="0">Gene_01491</text>
			</g>
			<g transform=" matrix(0.707107,-0.707107,0.707107,0.707107,203.510513,169.825647)">
				<text style="font-family: Helvetica; font-size: 10px;fill: rgb(0%,0%,0%); stroke:none;" transform="translate(0,0) scale(1,-1)" x="0" y="0">Gene_01492</text>
			</g>
			<g transform=" matrix(0.707107,-0.707107,0.707107,0.707107,275.017449,169.825647)">
				<text style="font-family: Helvetica; font-size: 10px;fill: rgb(0%,0%,0%); stroke:none;" transform="translate(0,0) scale(1,-1)" x="0" y="0">Gene_01493</text>
			</g>
			<g transform=" matrix(0.707107,-0.707107,0.707107,0.707107,337.689003,169.825647)">
				<text style="font-family: Helvetica; font-size: 10px;fill: rgb(0%,0%,0%); stroke:none;" transform="translate(0,0) scale(1,-1)" x="0" y="0">Gene_01494</text>
			</g>
			<g transform=" matrix(0.707107,-0.707107,0.707107,0.707107,391.667222,169.825647)">
				<text style="font-family: Helvetica; font-size: 10px;fill: rgb(0%,0%,0%); stroke:none;" transform="translate(0,0) scale(1,-1)" x="0" y="0">Gene_01495</text>
			</g>
			<g transform=" matrix(0.707107,-0.707107,0.707107,0.707107,426.895112,169.825647)">
				<text style="font-family: Helvetica; font-size: 10px;fill: rgb(0%,0%,0%); stroke:none;" transform="translate(0,0) scale(1,-1)" x="0" y="0">Gene_01496</text>
			</g>
			<g transform=" matrix(0.707107,-0.707107,0.707107,0.707107,500.475948,169.825647)">
				<text style="font-family: Helvetica; font-size: 10px;fill: rgb(0%,0%,0%); stroke:none;" transform="translate(0,0) scale(1,-1)" x="0" y="0">Gene_01497</text>
			</g>
			<g transform=" matrix(0.707107,-0.707107,0.707107,0.707107,603.830033,169.825647)">
				<text style="font-family: Helvetica; font-size: 10px;fill: rgb(0%,0%,0%); stroke:none;" transform="translate(0,0) scale(1,-1)" x="0" y="0">Gene_01498</text>
			</g>
			<g transform=" matrix(0.707107,-0.707107,0.707107,0.707107,671.530084,169.825647)">
				<text style="font-family: Helvetica; font-size: 16px;fill: rgb(0%,0%,100%); stroke:none;" transform="translate(0,0) scale(1,-1)" x="0" y="0">Gene_01499 (76.9)</text>
			</g>
			<g transform=" matrix(0.707107,-0.707107,0.707107,0.707107,741.67336,169.825647)">
				<text style="font-family: Helvetica; font-size: 10px;fill: rgb(0%,0%,0%); stroke:none;" transform="translate(0,0) scale(1,-1)" x="0" y="0">Gene_01500</text>
			</g>
			<g transform=" matrix(0.707107,0.707107,-0.707107,0.707107,778.97515,251.827897)">
				<text style="font-family: Helvetica; font-size: 10px;fill: rgb(0%,0%,0%); stroke:none;" transform="translate(0,0) scale(1,-1)" x="0" y="0">Gene_01501</text>
			</g>
			<g transform=" matrix(0.707107,0.707107,-0.707107,0.707107,844.345615,251.827897)">
				<text style="font-family: Helvetica; font-size: 10px;fill: rgb(0%,0%,0%); stroke:none;" transform="translate(0,0) scale(1,-1)" x="0" y="0">Gene_01502</text>
			</g>
			<g transform=" matrix(0.707107,0.707107,-0.707107,0.707107,937.983621,251.827897)">
				<text style="font-family: Helvetica; font-size: 10px;fill: rgb(0%,0%,0%); stroke:none;" transform="translate(0,0) scale(1,-1)" x="0" y="0">Gene_01503</text>
			</g>
			<g transform=" matrix(0.707107,0.707107,-0.707107,0.707107,1015.257703,251.827897)">
				<text style="font-family: Helvetica; font-size: 10px;fill: rgb(0%,0%,0%); stroke:none;" transform="translate(0,0) scale(1,-1)" x="0" y="0">Gene_01504</text>
			</g>
			<g transform=" matrix(0.707107,0.707107,-0.707107,0.707107,1101.90695,251.827897)">
				<text style="font-family: Helvetica; font-size: 10px;fill: rgb(0%,0%,0%); stroke:none;" transform="translate(0,0) scale(1,-1)" x="0" y="0">Gene_01505</text>
			</g>
			<g transform=" matrix(0.707107,0.707107,-0.707107,0.707107,1189.919857,251.827897)">
				<text style="font-family: Helvetica; font-size: 10px;fill: rgb(0%,0%,0%); stroke:none;" transform="translate(0,0) scale(1,-1)" x="0" y="0">Gene_01506</text>
			</g>
			<g transform=" matrix(0.707107,0.707107,-0.707107,0.707107,1254.01189,251.827897)">
				<text style="font-family: Helvetica; font-size: 10px;fill: rgb(0%,0%,0%); stroke:none;" transform="translate(0,0) scale(1,-1)" x="0" y="0">Gene_01507</text>
			</g>
			<g transform=" matrix(0.707107,0.707107,-0.707107,0.707107,1314.723182,251.827897)">
				<text style="font-family: Helvetica; font-size: 10px;fill: rgb(0%,0%,0%); stroke:none;" transform="translate(0,0) scale(1,-1)" x="0" y="0">Gene_01508</text>
			</g>
			<g transform=" matrix(0.707107,0.707107,-0.707107,0.707107,99.701875,538.835771)">
				<text style="font-family: Helvetica; font-size: 10px;fill: rgb(0%,0%,0%); stroke:none;" transform="translate(0,0) scale(1,-1)" x="0" y="0">Gene_00789</text>
			</g>
			<g transform=" matrix(0.707107,0.707107,-0.707107,0.707107,118.338565,538.835771)">
				<text style="font-family: Helvetica; font-size: 10px;fill: rgb(0%,0%,0%); stroke:none;" transform="translate(0,0) scale(1,-1)" x="0" y="0">Gene_00790</text>
			</g>
			<g transform=" matrix(0.707107,-0.707107,0.707107,0.707107,214.78912,456.833521)">
				<text style="font-family: Helvetica; font-size: 10px;fill: rgb(0%,0%,0%); stroke:none;" transform="translate(0,0) scale(1,-1)" x="0" y="0">Gene_00791</text>
			</g>
			<g transform=" matrix(0.707107,-0.707107,0.707107,0.707107,318.256844,456.833521)">
				<text style="font-family: Helvetica; font-size: 10px;fill: rgb(0%,0%,0%); stroke:none;" transform="translate(0,0) scale(1,-1)" x="0" y="0">Gene_00792</text>
			</g>
			<g transform=" matrix(0.707107,-0.707107,0.707107,0.707107,385.956895,456.833521)">
				<text style="font-family: Helvetica; font-size: 16px;fill: rgb(0%,0%,100%); stroke:none;" transform="translate(0,0) scale(1,-1)" x="0" y="0">Gene_00793 (76.9)</text>
			</g>
			<g transform=" matrix(1,0,-0,1,70,169.825647)">
				<text style="font-family: Helvetica; font-size: 12px;fill: rgb(60%,60%,60%); stroke:none;" transform="translate(0,0) scale(1,-1)" x="0" y="0">megahit_154627 (left 48992bp, right 32218bp)</text>
			</g>
			<g transform=" matrix(1,0,-0,1,70,456.833521)">
				<text style="font-family: Helvetica; font-size: 12px;fill: rgb(60%,60%,60%); stroke:none;" transform="translate(0,0) scale(1,-1)" x="0" y="0">megahit_54496 (left 5297bp, right 211bp)</text>
			</g>
		</g>
	</g>
</svg>
