<?xml version="1.0" encoding="utf-8"?>
<!DOCTYPE svg
  PUBLIC '-//W3C//DTD SVG 1.0//EN'
  'http://www.w3.org/TR/2001/REC-SVG-20010904/DTD/svg10.dtd'>
<svg fill-rule="evenodd" height="708.6614173228346" preserveAspectRatio="xMinYMin meet" version="1.0" viewBox="0 0 1417 708" width="1417.3228346456692" xmlns="http://www.w3.org/2000/svg" xmlns:xlink="http://www.w3.org/1999/xlink">
	<title>...</title>
	<desc>...</desc>
	<clipPath id="clip">
		<rect height="708.6614173228346" width="1417.3228346456692" x="0" y="0"/>
	</clipPath>
	<g id="group" style="clip-path: url(#clip)" transform="scale(1,-1) translate(0,-708)">
		<g transform="">
			<polygon points="70.86614 169.8256, 1121.663 169.8256, 1121.663 251.8279, 70.86614 251.8279" style="stroke: rgb(96%,96%,96%); stroke-linecap: butt; stroke-width: 1; fill: rgb(96%,96%,96%); fill-rule: evenodd;"/>
			<polygon points="70.86614 456.8335, 1346.385 456.8335, 1346.385 538.8358, 70.86614 538.8358" style="stroke: rgb(96%,96%,96%); stroke-linecap: butt; stroke-width: 1; fill: rgb(96%,96%,96%); fill-rule: evenodd;"/>
			<polygon points="497.5607 456.8335, 612.4537 456.8335, 270.4847 251.8279, 385.0925 251.8279" style="stroke: rgb(100%,29%,29%); stroke-linecap: round; stroke-width: 1; fill: rgb(100%,29%,29%); fill-rule: evenodd;"/>
			<polygon points="649.4676 456.8335, 789.1079 456.8335, 86.05684 251.8279, 227.5514 251.8279" style="stroke: rgb(100%,43%,43%); stroke-linecap: round; stroke-width: 1; fill: rgb(100%,43%,43%); fill-rule: evenodd;"/>
			<polygon points="394.0785 456.8335, 497.8459 456.8335, 390.0134 251.8279, 494.3514 251.8279" style="stroke: rgb(100%,38%,38%); stroke-linecap: round; stroke-width: 1; fill: rgb(100%,38%,38%); fill-rule: evenodd;"/>
			<polygon points="115.0119 200.5765, 110.3022 200.5765, 110.3022 210.8268, 93.9018 190.3262, 110.3022 169.8256, 110.3022 180.0759, 115.0119 180.0759" style="stroke: rgb(56%,93%,56%); stroke-linecap: round; stroke-width: 1; fill: rgb(56%,93%,56%); fill-rule: evenodd;"/>
			<polygon points="254.8661 200.5765, 135.9053 200.5765, 135.9053 210.8268, 119.5049 190.3262, 135.9053 169.8256, 135.9053 180.0759, 254.8661 180.0759" style="stroke: rgb(56%,93%,56%); stroke-linecap: round; stroke-width: 1; fill: rgb(56%,93%,56%); fill-rule: evenodd;"/>
			<polygon points="265.4925 200.5765, 265.4925 210.8268, 254.8661 190.3262, 265.4925 169.8256, 265.4925 180.0759" style="stroke: rgb(56%,93%,56%); stroke-linecap: round; stroke-width: 1; fill: rgb(56%,93%,56%); fill-rule: evenodd;"/>
			<polygon points="383.6661 200.5765, 290.1658 200.5765, 290.1658 210.8268, 273.7653 190.3262, 290.1658 169.8256, 290.1658 180.0759, 383.6661 180.0759" style="stroke: rgb(56%,93%,56%); stroke-linecap: round; stroke-width: 1; fill: rgb(56%,93%,56%); fill-rule: evenodd;"/>
			<polygon points="488.7886 200.5765, 412.8324 200.5765, 412.8324 210.8268, 396.432 190.3262, 412.8324 169.8256, 412.8324 180.0759, 488.7886 180.0759" style="stroke: rgb(56%,93%,56%); stroke-linecap: round; stroke-width: 1; fill: rgb(56%,93%,56%); fill-rule: evenodd;"/>
			<polygon points="598.4754 200.5765, 529.5797 200.5765, 529.5797 210.8268, 513.1793 190.3262, 529.5797 169.8256, 529.5797 180.0759, 598.4754 180.0759" style="stroke: rgb(56%,93%,56%); stroke-linecap: round; stroke-width: 1; fill: rgb(56%,93%,56%); fill-rule: evenodd;"/>
			<polygon points="618.3017 200.5765, 618.3017 210.8268, 604.0382 190.3262, 618.3017 169.8256, 618.3017 180.0759" style="stroke: rgb(56%,93%,56%); stroke-linecap: round; stroke-width: 1; fill: rgb(56%,93%,56%); fill-rule: evenodd;"/>
			<polygon points="687.48 200.5765, 634.203 200.5765, 634.203 210.8268, 617.8025 190.3262, 634.203 169.8256, 634.203 180.0759, 687.48 180.0759" style="stroke: rgb(56%,93%,56%); stroke-linecap: round; stroke-width: 1; fill: rgb(56%,93%,56%); fill-rule: evenodd;"/>
			<polygon points="745.818 200.5765, 699.6014 200.5765, 699.6014 210.8268, 683.201 190.3262, 699.6014 169.8256, 699.6014 180.0759, 745.818 180.0759" style="stroke: rgb(56%,93%,56%); stroke-linecap: round; stroke-width: 1; fill: rgb(56%,93%,56%); fill-rule: evenodd;"/>
			<polygon points="912.773 200.5765, 813.0681 200.5765, 813.0681 210.8268, 796.6676 190.3262, 813.0681 169.8256, 813.0681 180.0759, 912.773 180.0759" style="stroke: rgb(56%,93%,56%); stroke-linecap: round; stroke-width: 1; fill: rgb(56%,93%,56%); fill-rule: evenodd;"/>
			<polygon points="949.2164 200.5765, 940.6556 200.5765, 940.6556 210.8268, 924.2552 190.3262, 940.6556 169.8256, 940.6556 180.0759, 949.2164 180.0759" style="stroke: rgb(56%,93%,56%); stroke-linecap: round; stroke-width: 1; fill: rgb(56%,93%,56%); fill-rule: evenodd;"/>
			<polygon points="985.6598 200.5765, 968.113 200.5765, 968.113 210.8268, 951.7126 190.3262, 968.113 169.8256, 968.113 180.0759, 985.6598 180.0759" style="stroke: rgb(56%,93%,56%); stroke-linecap: round; stroke-width: 1; fill: rgb(56%,93%,56%); fill-rule: evenodd;"/>
			<polygon points="1121.663 200.5765, 1037.577 200.5765, 1037.577 210.8268, 1021.176 190.3262, 1037.577 169.8256, 1037.577 180.0759, 1121.663 180.0759" style="stroke: rgb(56%,93%,56%); stroke-linecap: round; stroke-width: 1; fill: rgb(56%,93%,56%); fill-rule: evenodd;"/>
			<polygon points="71.22273 528.5855, 150.6021 528.5855, 150.6021 538.8358, 167.0026 518.3352, 150.6021 497.8346, 150.6021 508.0849, 71.22273 508.0849" style="stroke: rgb(67%,84%,90%); stroke-linecap: round; stroke-width: 1; fill: rgb(67%,84%,90%); fill-rule: evenodd;"/>
			<polygon points="166.7886 528.5855, 242.9587 528.5855, 242.9587 538.8358, 259.3591 518.3352, 242.9587 497.8346, 242.9587 508.0849, 166.7886 508.0849" style="stroke: rgb(67%,84%,90%); stroke-linecap: round; stroke-width: 1; fill: rgb(67%,84%,90%); fill-rule: evenodd;"/>
			<polygon points="260.6429 528.5855, 307.0734 528.5855, 307.0734 538.8358, 323.4739 518.3352, 307.0734 497.8346, 307.0734 508.0849, 260.6429 508.0849" style="stroke: rgb(67%,84%,90%); stroke-linecap: round; stroke-width: 1; fill: rgb(67%,84%,90%); fill-rule: evenodd;"/>
			<polygon points="323.2599 528.5855, 367.337 528.5855, 367.337 538.8358, 383.7374 518.3352, 367.337 497.8346, 367.337 508.0849, 323.2599 508.0849" style="stroke: rgb(67%,84%,90%); stroke-linecap: round; stroke-width: 1; fill: rgb(67%,84%,90%); fill-rule: evenodd;"/>
			<polygon points="399.9979 528.5855, 475.954 528.5855, 475.954 538.8358, 492.3545 518.3352, 475.954 497.8346, 475.954 508.0849, 399.9979 508.0849" style="stroke: rgb(67%,84%,90%); stroke-linecap: round; stroke-width: 1; fill: rgb(67%,84%,90%); fill-rule: evenodd;"/>
			<polygon points="498.987 528.5855, 592.4873 528.5855, 592.4873 538.8358, 608.8878 518.3352, 592.4873 497.8346, 592.4873 508.0849, 498.987 508.0849" style="stroke: rgb(67%,84%,90%); stroke-linecap: round; stroke-width: 1; fill: rgb(67%,84%,90%); fill-rule: evenodd;"/>
			<polygon points="627.9296 528.5855, 740.8997 528.5855, 740.8997 538.8358, 757.3002 518.3352, 740.8997 497.8346, 740.8997 508.0849, 627.9296 508.0849" style="stroke: rgb(67%,84%,90%); stroke-linecap: round; stroke-width: 1; fill: rgb(67%,84%,90%); fill-rule: evenodd;"/>
			<polygon points="762.1498 528.5855, 766.8594 528.5855, 766.8594 538.8358, 783.2599 518.3352, 766.8594 497.8346, 766.8594 508.0849, 762.1498 508.0849" style="stroke: rgb(67%,84%,90%); stroke-linecap: round; stroke-width: 1; fill: rgb(67%,84%,90%); fill-rule: evenodd;"/>
			<polygon points="835.3932 487.5844, 807.5766 487.5844, 807.5766 497.8346, 791.1761 477.3341, 807.5766 456.8335, 807.5766 467.0838, 835.3932 467.0838" style="stroke: rgb(56%,93%,56%); stroke-linecap: round; stroke-width: 1; fill: rgb(56%,93%,56%); fill-rule: evenodd;"/>
			<polygon points="843.3808 528.5855, 876.7602 528.5855, 876.7602 538.8358, 893.1606 518.3352, 876.7602 497.8346, 876.7602 508.0849, 843.3808 508.0849" style="stroke: rgb(67%,84%,90%); stroke-linecap: round; stroke-width: 1; fill: rgb(67%,84%,90%); fill-rule: evenodd;"/>
			<polygon points="892.7327 528.5855, 952.8563 528.5855, 952.8563 538.8358, 969.2567 518.3352, 952.8563 497.8346, 952.8563 508.0849, 892.7327 508.0849" style="stroke: rgb(67%,84%,90%); stroke-linecap: round; stroke-width: 1; fill: rgb(67%,84%,90%); fill-rule: evenodd;"/>
			<polygon points="969.0428 528.5855, 1025.101 528.5855, 1025.101 538.8358, 1041.502 518.3352, 1025.101 497.8346, 1025.101 508.0849, 969.0428 508.0849" style="stroke: rgb(67%,84%,90%); stroke-linecap: round; stroke-width: 1; fill: rgb(67%,84%,90%); fill-rule: evenodd;"/>
			<polygon points="1048.562 528.5855, 1079.588 528.5855, 1079.588 538.8358, 1095.989 518.3352, 1079.588 497.8346, 1079.588 508.0849, 1048.562 508.0849" style="stroke: rgb(67%,84%,90%); stroke-linecap: round; stroke-width: 1; fill: rgb(67%,84%,90%); fill-rule: evenodd;"/>
			<polygon points="1098.77 528.5855, 1239.126 528.5855, 1239.126 538.8358, 1255.526 518.3352, 1239.126 497.8346, 1239.126 508.0849, 1098.77 508.0849" style="stroke: rgb(67%,84%,90%); stroke-linecap: round; stroke-width: 1; fill: rgb(67%,84%,90%); fill-rule: evenodd;"/>
			<polygon points="1276.066 528.5855, 1329.985 528.5855, 1329.985 538.8358, 1346.385 518.3352, 1329.985 497.8346, 1329.985 508.0849, 1276.066 508.0849" style="stroke: rgb(67%,84%,90%); stroke-linecap: round; stroke-width: 1; fill: rgb(67%,84%,90%); fill-rule: evenodd;"/>
			<path d="M 1121.66292,169.825647 L 1121.66292,251.827897 Z" style="stroke: rgb(0%,0%,0%); stroke-linecap: butt; stroke-width: 1;"/>
			<path d="M 70.866142,210.826772 L 1121.66292,210.826772 Z" style="stroke: rgb(0%,0%,0%); stroke-linecap: butt; stroke-width: 1;"/>
			<path d="M 70.866142,169.825647 L 70.866142,251.827897 Z" style="stroke: rgb(0%,0%,0%); stroke-linecap: butt; stroke-width: 1;"/>
			<path d="M 784.044354,210.826772 L 784.044354,231.327334 Z" style="stroke: rgb(0%,0%,0%); stroke-linecap: butt; stroke-width: 1;"/>
			<path d="M 784.044354,210.826772 L 784.044354,223.127109 Z" style="stroke: rgb(0%,0%,0%); stroke-linecap: butt; stroke-width: 1;"/>
			<path d="M 1346.385375,456.833521 L 1346.385375,538.835771 Z" style="stroke: rgb(0%,0%,0%); stroke-linecap: butt; stroke-width: 1;"/>
			<path d="M 70.866142,497.834646 L 1346.385375,497.834646 Z" style="stroke: rgb(0%,0%,0%); stroke-linecap: butt; stroke-width: 1;"/>
			<path d="M 70.866142,456.833521 L 70.866142,538.835771 Z" style="stroke: rgb(0%,0%,0%); stroke-linecap: butt; stroke-width: 1;"/>
			<path d="M 784.044354,497.834646 L 784.044354,518.335208 Z" style="stroke: rgb(0%,0%,0%); stroke-linecap: butt; stroke-width: 1;"/>
			<path d="M 784.044354,497.834646 L 784.044354,510.134983 Z" style="stroke: rgb(0%,0%,0%); stroke-linecap: butt; stroke-width: 1;"/>
			<g transform=" matrix(0.707107,0.707107,-0.707107,0.707107,784.044354,231.327334)">
				<text style="font-family: Helvetica; font-size: 6px;fill: rgb(0%,0%,0%); stroke:none;" transform="translate(0,0) scale(1,-1)" x="0" y="0">10000</text>
			</g>
			<g transform=" matrix(0.707107,0.707107,-0.707107,0.707107,784.044354,518.335208)">
				<text style="font-family: Helvetica; font-size: 6px;fill: rgb(0%,0%,0%); stroke:none;" transform="translate(0,0) scale(1,-1)" x="0" y="0">10000</text>
			</g>
			<g transform=" matrix(0.707107,-0.707107,0.707107,0.707107,104.456836,169.825647)">
				<text style="font-family: Helvetica; font-size: 10px;fill: rgb(0%,0%,0%); stroke:none;" transform="translate(0,0) scale(1,-1)" x="0" y="0">Gene_01432</text>
			</g>
			<g transform=" matrix(0.707107,-0.707107,0.707107,0.707107,187.185508,169.825647)">
				<text style="font-family: Helvetica; font-size: 10px;fill: rgb(0%,0%,0%); stroke:none;" transform="translate(0,0) scale(1,-1)" x="0" y="0">Gene_01433</text>
			</g>
			<g transform=" matrix(0.707107,-0.707107,0.707107,0.707107,260.179298,169.825647)">
				<text style="font-family: Helvetica; font-size: 10px;fill: rgb(0%,0%,0%); stroke:none;" transform="translate(0,0) scale(1,-1)" x="0" y="0">Gene_01434</text>
			</g>
			<g transform=" matrix(0.707107,-0.707107,0.707107,0.707107,328.715725,169.825647)">
				<text style="font-family: Helvetica; font-size: 16px;fill: rgb(0%,0%,100%); stroke:none;" transform="translate(0,0) scale(1,-1)" x="0" y="0">Gene_01435 (85.3)</text>
			</g>
			<g transform=" matrix(0.707107,-0.707107,0.707107,0.707107,442.610285,169.825647)">
				<text style="font-family: Helvetica; font-size: 10px;fill: rgb(0%,0%,0%); stroke:none;" transform="translate(0,0) scale(1,-1)" x="0" y="0">Gene_01436</text>
			</g>
			<g transform=" matrix(0.707107,-0.707107,0.707107,0.707107,555.827326,169.825647)">
				<text style="font-family: Helvetica; font-size: 10px;fill: rgb(0%,0%,0%); stroke:none;" transform="translate(0,0) scale(1,-1)" x="0" y="0">Gene_01437</text>
			</g>
			<g transform=" matrix(0.707107,-0.707107,0.707107,0.707107,611.169956,169.825647)">
				<text style="font-family: Helvetica; font-size: 10px;fill: rgb(0%,0%,0%); stroke:none;" transform="translate(0,0) scale(1,-1)" x="0" y="0">Gene_01438</text>
			</g>
			<g transform=" matrix(0.707107,-0.707107,0.707107,0.707107,652.641269,169.825647)">
				<text style="font-family: Helvetica; font-size: 10px;fill: rgb(0%,0%,0%); stroke:none;" transform="translate(0,0) scale(1,-1)" x="0" y="0">Gene_01439</text>
			</g>
			<g transform=" matrix(0.707107,-0.707107,0.707107,0.707107,714.509479,169.825647)">
				<text style="font-family: Helvetica; font-size: 10px;fill: rgb(0%,0%,0%); stroke:none;" transform="translate(0,0) scale(1,-1)" x="0" y="0">Gene_01440</text>
			</g>
			<g transform=" matrix(0.707107,-0.707107,0.707107,0.707107,854.720315,169.825647)">
				<text style="font-family: Helvetica; font-size: 10px;fill: rgb(0%,0%,0%); stroke:none;" transform="translate(0,0) scale(1,-1)" x="0" y="0">Gene_01441</text>
			</g>
			<g transform=" matrix(0.707107,-0.707107,0.707107,0.707107,936.73581,169.825647)">
				<text style="font-family: Helvetica; font-size: 10px;fill: rgb(0%,0%,0%); stroke:none;" transform="translate(0,0) scale(1,-1)" x="0" y="0">Gene_01442</text>
			</g>
			<g transform=" matrix(0.707107,-0.707107,0.707107,0.707107,968.686194,169.825647)">
				<text style="font-family: Helvetica; font-size: 10px;fill: rgb(0%,0%,0%); stroke:none;" transform="translate(0,0) scale(1,-1)" x="0" y="0">Gene_01443</text>
			</g>
			<g transform=" matrix(0.707107,-0.707107,0.707107,0.707107,1071.419515,169.825647)">
				<text style="font-family: Helvetica; font-size: 10px;fill: rgb(0%,0%,0%); stroke:none;" transform="translate(0,0) scale(1,-1)" x="0" y="0">Gene_01444</text>
			</g>
			<g transform=" matrix(0.707107,0.707107,-0.707107,0.707107,119.112648,538.835771)">
				<text style="font-family: Helvetica; font-size: 10px;fill: rgb(0%,0%,0%); stroke:none;" transform="translate(0,0) scale(1,-1)" x="0" y="0">Gene_00402</text>
			</g>
			<g transform=" matrix(0.707107,0.707107,-0.707107,0.707107,213.073877,538.835771)">
				<text style="font-family: Helvetica; font-size: 10px;fill: rgb(0%,0%,0%); stroke:none;" transform="translate(0,0) scale(1,-1)" x="0" y="0">Gene_00403</text>
			</g>
			<g transform=" matrix(0.707107,0.707107,-0.707107,0.707107,292.058364,538.835771)">
				<text style="font-family: Helvetica; font-size: 10px;fill: rgb(0%,0%,0%); stroke:none;" transform="translate(0,0) scale(1,-1)" x="0" y="0">Gene_00404</text>
			</g>
			<g transform=" matrix(0.707107,0.707107,-0.707107,0.707107,353.498667,538.835771)">
				<text style="font-family: Helvetica; font-size: 10px;fill: rgb(0%,0%,0%); stroke:none;" transform="translate(0,0) scale(1,-1)" x="0" y="0">Gene_00405</text>
			</g>
			<g transform=" matrix(0.707107,0.707107,-0.707107,0.707107,446.176176,538.835771)">
				<text style="font-family: Helvetica; font-size: 10px;fill: rgb(0%,0%,0%); stroke:none;" transform="translate(0,0) scale(1,-1)" x="0" y="0">Gene_00406</text>
			</g>
			<g transform=" matrix(0.707107,0.707107,-0.707107,0.707107,553.937404,538.835771)">
				<text style="font-family: Helvetica; font-size: 16px;fill: rgb(0%,0%,100%); stroke:none;" transform="translate(0,0) scale(1,-1)" x="0" y="0">Gene_00407 (85.3)</text>
			</g>
			<g transform=" matrix(0.707107,0.707107,-0.707107,0.707107,692.614908,538.835771)">
				<text style="font-family: Helvetica; font-size: 10px;fill: rgb(0%,0%,0%); stroke:none;" transform="translate(0,0) scale(1,-1)" x="0" y="0">Gene_00408</text>
			</g>
			<g transform=" matrix(0.707107,0.707107,-0.707107,0.707107,772.704821,538.835771)">
				<text style="font-family: Helvetica; font-size: 10px;fill: rgb(0%,0%,0%); stroke:none;" transform="translate(0,0) scale(1,-1)" x="0" y="0">Gene_00409</text>
			</g>
			<g transform=" matrix(0.707107,-0.707107,0.707107,0.707107,813.284661,456.833521)">
				<text style="font-family: Helvetica; font-size: 10px;fill: rgb(0%,0%,0%); stroke:none;" transform="translate(0,0) scale(1,-1)" x="0" y="0">Gene_00410</text>
			</g>
			<g transform=" matrix(0.707107,0.707107,-0.707107,0.707107,868.270701,538.835771)">
				<text style="font-family: Helvetica; font-size: 10px;fill: rgb(0%,0%,0%); stroke:none;" transform="translate(0,0) scale(1,-1)" x="0" y="0">Gene_00411</text>
			</g>
			<g transform=" matrix(0.707107,0.707107,-0.707107,0.707107,930.994725,538.835771)">
				<text style="font-family: Helvetica; font-size: 10px;fill: rgb(0%,0%,0%); stroke:none;" transform="translate(0,0) scale(1,-1)" x="0" y="0">Gene_00412</text>
			</g>
			<g transform=" matrix(0.707107,0.707107,-0.707107,0.707107,1005.272236,538.835771)">
				<text style="font-family: Helvetica; font-size: 10px;fill: rgb(0%,0%,0%); stroke:none;" transform="translate(0,0) scale(1,-1)" x="0" y="0">Gene_00413</text>
			</g>
			<g transform=" matrix(0.707107,0.707107,-0.707107,0.707107,1072.275329,538.835771)">
				<text style="font-family: Helvetica; font-size: 10px;fill: rgb(0%,0%,0%); stroke:none;" transform="translate(0,0) scale(1,-1)" x="0" y="0">Gene_00414</text>
			</g>
			<g transform=" matrix(0.707107,0.707107,-0.707107,0.707107,1177.148185,538.835771)">
				<text style="font-family: Helvetica; font-size: 10px;fill: rgb(0%,0%,0%); stroke:none;" transform="translate(0,0) scale(1,-1)" x="0" y="0">Gene_00415</text>
			</g>
			<g transform=" matrix(0.707107,0.707107,-0.707107,0.707107,1311.225689,538.835771)">
				<text style="font-family: Helvetica; font-size: 10px;fill: rgb(0%,0%,0%); stroke:none;" transform="translate(0,0) scale(1,-1)" x="0" y="0">Gene_00416</text>
			</g>
			<g transform=" matrix(1,0,-0,1,70,169.825647)">
				<text style="font-family: Helvetica; font-size: 12px;fill: rgb(60%,60%,60%); stroke:none;" transform="translate(0,0) scale(1,-1)" x="0" y="0">megahit_42194 (left 2845bp, right 19735bp)</text>
			</g>
			<g transform=" matrix(1,0,-0,1,70,456.833521)">
				<text style="font-family: Helvetica; font-size: 12px;fill: rgb(60%,60%,60%); stroke:none;" transform="translate(0,0) scale(1,-1)" x="0" y="0">megahit_18111 (left 6003bp, right 62988bp)</text>
			</g>
		</g>
	</g>
</svg>
