<?xml version="1.0" encoding="utf-8"?>
<!DOCTYPE svg
  PUBLIC '-//W3C//DTD SVG 1.0//EN'
  'http://www.w3.org/TR/2001/REC-SVG-20010904/DTD/svg10.dtd'>
<svg fill-rule="evenodd" height="708.6614173228346" preserveAspectRatio="xMinYMin meet" version="1.0" viewBox="0 0 1417 708" width="1417.3228346456692" xmlns="http://www.w3.org/2000/svg" xmlns:xlink="http://www.w3.org/1999/xlink">
	<title>...</title>
	<desc>...</desc>
	<clipPath id="clip">
		<rect height="708.6614173228346" width="1417.3228346456692" x="0" y="0"/>
	</clipPath>
	<g id="group" style="clip-path: url(#clip)" transform="scale(1,-1) translate(0,-708)">
		<g transform="">
			<polygon points="70.86614 169.8256, 977.3226 169.8256, 977.3226 251.8279, 70.86614 251.8279" style="stroke: rgb(96%,96%,96%); stroke-linecap: butt; stroke-width: 1; fill: rgb(96%,96%,96%); fill-rule: evenodd;"/>
			<polygon points="70.86614 456.8335, 1346.4 456.8335, 1346.4 538.8358, 70.86614 538.8358" style="stroke: rgb(96%,96%,96%); stroke-linecap: butt; stroke-width: 1; fill: rgb(96%,96%,96%); fill-rule: evenodd;"/>
			<polygon points="663.4701 456.8335, 757.8545 456.8335, 742.8193 251.8279, 648.2634 251.8279" style="stroke: rgb(100%,37%,37%); stroke-linecap: round; stroke-width: 1; fill: rgb(100%,37%,37%); fill-rule: evenodd;"/>
			<polygon points="599.9564 456.8335, 648.7779 456.8335, 637.0584 251.8279, 588.2369 251.8279" style="stroke: rgb(100%,59%,59%); stroke-linecap: round; stroke-width: 1; fill: rgb(100%,59%,59%); fill-rule: evenodd;"/>
			<polygon points="113.8565 200.5765, 87.26659 200.5765, 87.26659 210.8268, 70.86614 190.3262, 87.26659 169.8256, 87.26659 180.0759, 113.8565 180.0759" style="stroke: rgb(56%,93%,56%); stroke-linecap: round; stroke-width: 1; fill: rgb(56%,93%,56%); fill-rule: evenodd;"/>
			<polygon points="150.5012 200.5765, 130.943 200.5765, 130.943 210.8268, 114.5425 190.3262, 130.943 169.8256, 130.943 180.0759, 150.5012 180.0759" style="stroke: rgb(56%,93%,56%); stroke-linecap: round; stroke-width: 1; fill: rgb(56%,93%,56%); fill-rule: evenodd;"/>
			<polygon points="164.1644 200.5765, 164.1644 210.8268, 151.0157 190.3262, 164.1644 169.8256, 164.1644 180.0759" style="stroke: rgb(56%,93%,56%); stroke-linecap: round; stroke-width: 1; fill: rgb(56%,93%,56%); fill-rule: evenodd;"/>
			<polygon points="179.5426 200.5765, 179.5426 210.8268, 165.5364 190.3262, 179.5426 169.8256, 179.5426 180.0759" style="stroke: rgb(56%,93%,56%); stroke-linecap: round; stroke-width: 1; fill: rgb(56%,93%,56%); fill-rule: evenodd;"/>
			<polygon points="262.6078 200.5765, 201.717 200.5765, 201.717 210.8268, 185.3166 190.3262, 201.717 169.8256, 201.717 180.0759, 262.6078 180.0759" style="stroke: rgb(56%,93%,56%); stroke-linecap: round; stroke-width: 1; fill: rgb(56%,93%,56%); fill-rule: evenodd;"/>
			<polygon points="287.19 200.5765, 279.1225 200.5765, 279.1225 210.8268, 262.7221 190.3262, 279.1225 169.8256, 279.1225 180.0759, 287.19 180.0759" style="stroke: rgb(56%,93%,56%); stroke-linecap: round; stroke-width: 1; fill: rgb(56%,93%,56%); fill-rule: evenodd;"/>
			<polygon points="338.8699 200.5765, 304.3908 200.5765, 304.3908 210.8268, 287.9904 190.3262, 304.3908 169.8256, 304.3908 180.0759, 338.8699 180.0759" style="stroke: rgb(56%,93%,56%); stroke-linecap: round; stroke-width: 1; fill: rgb(56%,93%,56%); fill-rule: evenodd;"/>
			<polygon points="346.3589 241.5776, 366.0887 241.5776, 366.0887 251.8279, 382.4891 231.3273, 366.0887 210.8268, 366.0887 221.0771, 346.3589 221.0771" style="stroke: rgb(67%,84%,90%); stroke-linecap: round; stroke-width: 1; fill: rgb(67%,84%,90%); fill-rule: evenodd;"/>
			<polygon points="386.6624 241.5776, 386.6624 251.8279, 399.8111 231.3273, 386.6624 210.8268, 386.6624 221.0771" style="stroke: rgb(67%,84%,90%); stroke-linecap: round; stroke-width: 1; fill: rgb(67%,84%,90%); fill-rule: evenodd;"/>
			<polygon points="411.1303 200.5765, 411.1303 210.8268, 402.0978 190.3262, 411.1303 169.8256, 411.1303 180.0759" style="stroke: rgb(56%,93%,56%); stroke-linecap: round; stroke-width: 1; fill: rgb(56%,93%,56%); fill-rule: evenodd;"/>
			<polygon points="417.4188 241.5776, 425.3148 241.5776, 425.3148 251.8279, 441.7152 231.3273, 425.3148 210.8268, 425.3148 221.0771, 417.4188 221.0771" style="stroke: rgb(67%,84%,90%); stroke-linecap: round; stroke-width: 1; fill: rgb(67%,84%,90%); fill-rule: evenodd;"/>
			<polygon points="438.571 241.5776, 438.571 251.8279, 452.9202 231.3273, 438.571 210.8268, 438.571 221.0771" style="stroke: rgb(67%,84%,90%); stroke-linecap: round; stroke-width: 1; fill: rgb(67%,84%,90%); fill-rule: evenodd;"/>
			<polygon points="481.0469 200.5765, 470.2353 200.5765, 470.2353 210.8268, 453.8349 190.3262, 470.2353 169.8256, 470.2353 180.0759, 481.0469 180.0759" style="stroke: rgb(56%,93%,56%); stroke-linecap: round; stroke-width: 1; fill: rgb(56%,93%,56%); fill-rule: evenodd;"/>
			<polygon points="487.6783 241.5776, 513.7538 241.5776, 513.7538 251.8279, 530.1542 231.3273, 513.7538 210.8268, 513.7538 221.0771, 487.6783 221.0771" style="stroke: rgb(67%,84%,90%); stroke-linecap: round; stroke-width: 1; fill: rgb(67%,84%,90%); fill-rule: evenodd;"/>
			<polygon points="586.8649 200.5765, 545.8686 200.5765, 545.8686 210.8268, 529.4682 190.3262, 545.8686 169.8256, 545.8686 180.0759, 586.8649 180.0759" style="stroke: rgb(56%,93%,56%); stroke-linecap: round; stroke-width: 1; fill: rgb(56%,93%,56%); fill-rule: evenodd;"/>
			<polygon points="637.4015 200.5765, 604.8089 200.5765, 604.8089 210.8268, 588.4084 190.3262, 604.8089 169.8256, 604.8089 180.0759, 637.4015 180.0759" style="stroke: rgb(56%,93%,56%); stroke-linecap: round; stroke-width: 1; fill: rgb(56%,93%,56%); fill-rule: evenodd;"/>
			<polygon points="649.4067 241.5776, 726.4189 241.5776, 726.4189 251.8279, 742.8193 231.3273, 726.4189 210.8268, 726.4189 221.0771, 649.4067 221.0771" style="stroke: rgb(67%,84%,90%); stroke-linecap: round; stroke-width: 1; fill: rgb(67%,84%,90%); fill-rule: evenodd;"/>
			<polygon points="850.7526 200.5765, 763.2787 200.5765, 763.2787 210.8268, 746.8783 190.3262, 763.2787 169.8256, 763.2787 180.0759, 850.7526 180.0759" style="stroke: rgb(56%,93%,56%); stroke-linecap: round; stroke-width: 1; fill: rgb(56%,93%,56%); fill-rule: evenodd;"/>
			<polygon points="950.8538 200.5765, 867.3245 200.5765, 867.3245 210.8268, 850.9241 190.3262, 867.3245 169.8256, 867.3245 180.0759, 950.8538 180.0759" style="stroke: rgb(56%,93%,56%); stroke-linecap: round; stroke-width: 1; fill: rgb(56%,93%,56%); fill-rule: evenodd;"/>
			<polygon points="976.3508 200.5765, 967.0828 200.5765, 967.0828 210.8268, 950.6823 190.3262, 967.0828 169.8256, 967.0828 180.0759, 976.3508 180.0759" style="stroke: rgb(56%,93%,56%); stroke-linecap: round; stroke-width: 1; fill: rgb(56%,93%,56%); fill-rule: evenodd;"/>
			<polygon points="133.9225 487.5844, 87.26659 487.5844, 87.26659 497.8346, 70.86614 477.3341, 87.26659 456.8335, 87.26659 467.0838, 133.9225 467.0838" style="stroke: rgb(56%,93%,56%); stroke-linecap: round; stroke-width: 1; fill: rgb(56%,93%,56%); fill-rule: evenodd;"/>
			<polygon points="241.5699 487.5844, 170.3889 487.5844, 170.3889 497.8346, 153.9885 477.3341, 170.3889 456.8335, 170.3889 467.0838, 241.5699 467.0838" style="stroke: rgb(56%,93%,56%); stroke-linecap: round; stroke-width: 1; fill: rgb(56%,93%,56%); fill-rule: evenodd;"/>
			<polygon points="290.0484 487.5844, 268.4321 487.5844, 268.4321 497.8346, 252.0317 477.3341, 268.4321 456.8335, 268.4321 467.0838, 290.0484 467.0838" style="stroke: rgb(56%,93%,56%); stroke-linecap: round; stroke-width: 1; fill: rgb(56%,93%,56%); fill-rule: evenodd;"/>
			<polygon points="415.0749 487.5844, 311.3082 487.5844, 311.3082 497.8346, 294.9077 477.3341, 311.3082 456.8335, 311.3082 467.0838, 415.0749 467.0838" style="stroke: rgb(56%,93%,56%); stroke-linecap: round; stroke-width: 1; fill: rgb(56%,93%,56%); fill-rule: evenodd;"/>
			<polygon points="476.7592 487.5844, 433.1904 487.5844, 433.1904 497.8346, 416.79 477.3341, 433.1904 456.8335, 433.1904 467.0838, 476.7592 467.0838" style="stroke: rgb(56%,93%,56%); stroke-linecap: round; stroke-width: 1; fill: rgb(56%,93%,56%); fill-rule: evenodd;"/>
			<polygon points="599.2132 487.5844, 494.2459 487.5844, 494.2459 497.8346, 477.8454 477.3341, 494.2459 456.8335, 494.2459 467.0838, 599.2132 467.0838" style="stroke: rgb(56%,93%,56%); stroke-linecap: round; stroke-width: 1; fill: rgb(56%,93%,56%); fill-rule: evenodd;"/>
			<polygon points="649.4639 487.5844, 616.5283 487.5844, 616.5283 497.8346, 600.1279 477.3341, 616.5283 456.8335, 616.5283 467.0838, 649.4639 467.0838" style="stroke: rgb(56%,93%,56%); stroke-linecap: round; stroke-width: 1; fill: rgb(56%,93%,56%); fill-rule: evenodd;"/>
			<polygon points="664.4419 528.5855, 741.4541 528.5855, 741.4541 538.8358, 757.8545 518.3352, 741.4541 497.8346, 741.4541 508.0849, 664.4419 508.0849" style="stroke: rgb(67%,84%,90%); stroke-linecap: round; stroke-width: 1; fill: rgb(67%,84%,90%); fill-rule: evenodd;"/>
			<polygon points="796.3858 487.5844, 776.656 487.5844, 776.656 497.8346, 760.2556 477.3341, 776.656 456.8335, 776.656 467.0838, 796.3858 467.0838" style="stroke: rgb(56%,93%,56%); stroke-linecap: round; stroke-width: 1; fill: rgb(56%,93%,56%); fill-rule: evenodd;"/>
			<polygon points="825.027 487.5844, 813.7009 487.5844, 813.7009 497.8346, 797.3005 477.3341, 813.7009 456.8335, 813.7009 467.0838, 825.027 467.0838" style="stroke: rgb(56%,93%,56%); stroke-linecap: round; stroke-width: 1; fill: rgb(56%,93%,56%); fill-rule: evenodd;"/>
			<polygon points="856.2979 487.5844, 840.6842 487.5844, 840.6842 497.8346, 824.2838 477.3341, 840.6842 456.8335, 840.6842 467.0838, 856.2979 467.0838" style="stroke: rgb(56%,93%,56%); stroke-linecap: round; stroke-width: 1; fill: rgb(56%,93%,56%); fill-rule: evenodd;"/>
			<polygon points="961.1441 487.5844, 870.4116 487.5844, 870.4116 497.8346, 854.0112 477.3341, 870.4116 456.8335, 870.4116 467.0838, 961.1441 467.0838" style="stroke: rgb(56%,93%,56%); stroke-linecap: round; stroke-width: 1; fill: rgb(56%,93%,56%); fill-rule: evenodd;"/>
			<polygon points="1018.484 487.5844, 978.3449 487.5844, 978.3449 497.8346, 961.9444 477.3341, 978.3449 456.8335, 978.3449 467.0838, 1018.484 467.0838" style="stroke: rgb(56%,93%,56%); stroke-linecap: round; stroke-width: 1; fill: rgb(56%,93%,56%); fill-rule: evenodd;"/>
			<polygon points="1030.718 528.5855, 1031.753 528.5855, 1031.753 538.8358, 1048.154 518.3352, 1031.753 497.8346, 1031.753 508.0849, 1030.718 508.0849" style="stroke: rgb(67%,84%,90%); stroke-linecap: round; stroke-width: 1; fill: rgb(67%,84%,90%); fill-rule: evenodd;"/>
			<polygon points="1151.914 487.5844, 1063.582 487.5844, 1063.582 497.8346, 1047.182 477.3341, 1063.582 456.8335, 1063.582 467.0838, 1151.914 467.0838" style="stroke: rgb(56%,93%,56%); stroke-linecap: round; stroke-width: 1; fill: rgb(56%,93%,56%); fill-rule: evenodd;"/>
			<polygon points="1236.866 487.5844, 1169.286 487.5844, 1169.286 497.8346, 1152.886 477.3341, 1169.286 456.8335, 1169.286 467.0838, 1236.866 467.0838" style="stroke: rgb(56%,93%,56%); stroke-linecap: round; stroke-width: 1; fill: rgb(56%,93%,56%); fill-rule: evenodd;"/>
			<polygon points="1281.457 487.5844, 1254.695 487.5844, 1254.695 497.8346, 1238.295 477.3341, 1254.695 456.8335, 1254.695 467.0838, 1281.457 467.0838" style="stroke: rgb(56%,93%,56%); stroke-linecap: round; stroke-width: 1; fill: rgb(56%,93%,56%); fill-rule: evenodd;"/>
			<polygon points="1346.4 487.5844, 1304.031 487.5844, 1304.031 497.8346, 1287.631 477.3341, 1304.031 456.8335, 1304.031 467.0838, 1346.4 467.0838" style="stroke: rgb(56%,93%,56%); stroke-linecap: round; stroke-width: 1; fill: rgb(56%,93%,56%); fill-rule: evenodd;"/>
			<path d="M 977.322637,169.825647 L 977.322637,251.827897 Z" style="stroke: rgb(0%,0%,0%); stroke-linecap: butt; stroke-width: 1;"/>
			<path d="M 70.866142,210.826772 L 977.322637,210.826772 Z" style="stroke: rgb(0%,0%,0%); stroke-linecap: butt; stroke-width: 1;"/>
			<path d="M 70.866142,169.825647 L 70.866142,251.827897 Z" style="stroke: rgb(0%,0%,0%); stroke-linecap: butt; stroke-width: 1;"/>
			<path d="M 642.546575,210.826772 L 642.546575,231.327334 Z" style="stroke: rgb(0%,0%,0%); stroke-linecap: butt; stroke-width: 1;"/>
			<path d="M 642.546575,210.826772 L 642.546575,223.127109 Z" style="stroke: rgb(0%,0%,0%); stroke-linecap: butt; stroke-width: 1;"/>
			<path d="M 1346.399525,456.833521 L 1346.399525,538.835771 Z" style="stroke: rgb(0%,0%,0%); stroke-linecap: butt; stroke-width: 1;"/>
			<path d="M 70.866142,497.834646 L 1346.399525,497.834646 Z" style="stroke: rgb(0%,0%,0%); stroke-linecap: butt; stroke-width: 1;"/>
			<path d="M 70.866142,456.833521 L 70.866142,538.835771 Z" style="stroke: rgb(0%,0%,0%); stroke-linecap: butt; stroke-width: 1;"/>
			<path d="M 642.546575,497.834646 L 642.546575,518.335208 Z" style="stroke: rgb(0%,0%,0%); stroke-linecap: butt; stroke-width: 1;"/>
			<path d="M 1214.227009,497.834646 L 1214.227009,518.335208 Z" style="stroke: rgb(0%,0%,0%); stroke-linecap: butt; stroke-width: 1;"/>
			<path d="M 642.546575,497.834646 L 642.546575,510.134983 Z" style="stroke: rgb(0%,0%,0%); stroke-linecap: butt; stroke-width: 1;"/>
			<path d="M 1214.227009,497.834646 L 1214.227009,510.134983 Z" style="stroke: rgb(0%,0%,0%); stroke-linecap: butt; stroke-width: 1;"/>
			<g transform=" matrix(0.707107,0.707107,-0.707107,0.707107,642.546575,231.327334)">
				<text style="font-family: Helvetica; font-size: 6px;fill: rgb(0%,0%,0%); stroke:none;" transform="translate(0,0) scale(1,-1)" x="0" y="0">10000</text>
			</g>
			<g transform=" matrix(0.707107,0.707107,-0.707107,0.707107,642.546575,518.335208)">
				<text style="font-family: Helvetica; font-size: 6px;fill: rgb(0%,0%,0%); stroke:none;" transform="translate(0,0) scale(1,-1)" x="0" y="0">10000</text>
			</g>
			<g transform=" matrix(0.707107,0.707107,-0.707107,0.707107,1214.227009,518.335208)">
				<text style="font-family: Helvetica; font-size: 6px;fill: rgb(0%,0%,0%); stroke:none;" transform="translate(0,0) scale(1,-1)" x="0" y="0">20000</text>
			</g>
			<g transform=" matrix(0.707107,-0.707107,0.707107,0.707107,92.361326,169.825647)">
				<text style="font-family: Helvetica; font-size: 10px;fill: rgb(0%,0%,0%); stroke:none;" transform="translate(0,0) scale(1,-1)" x="0" y="0">Gene_00450</text>
			</g>
			<g transform=" matrix(0.707107,-0.707107,0.707107,0.707107,132.521876,169.825647)">
				<text style="font-family: Helvetica; font-size: 10px;fill: rgb(0%,0%,0%); stroke:none;" transform="translate(0,0) scale(1,-1)" x="0" y="0">Gene_00451</text>
			</g>
			<g transform=" matrix(0.707107,-0.707107,0.707107,0.707107,157.590063,169.825647)">
				<text style="font-family: Helvetica; font-size: 10px;fill: rgb(0%,0%,0%); stroke:none;" transform="translate(0,0) scale(1,-1)" x="0" y="0">Gene_00452</text>
			</g>
			<g transform=" matrix(0.707107,-0.707107,0.707107,0.707107,172.539507,169.825647)">
				<text style="font-family: Helvetica; font-size: 10px;fill: rgb(0%,0%,0%); stroke:none;" transform="translate(0,0) scale(1,-1)" x="0" y="0">Gene_00453</text>
			</g>
			<g transform=" matrix(0.707107,-0.707107,0.707107,0.707107,223.962162,169.825647)">
				<text style="font-family: Helvetica; font-size: 10px;fill: rgb(0%,0%,0%); stroke:none;" transform="translate(0,0) scale(1,-1)" x="0" y="0">Gene_00454</text>
			</g>
			<g transform=" matrix(0.707107,-0.707107,0.707107,0.707107,274.956056,169.825647)">
				<text style="font-family: Helvetica; font-size: 10px;fill: rgb(0%,0%,0%); stroke:none;" transform="translate(0,0) scale(1,-1)" x="0" y="0">Gene_00455</text>
			</g>
			<g transform=" matrix(0.707107,-0.707107,0.707107,0.707107,313.43015,169.825647)">
				<text style="font-family: Helvetica; font-size: 10px;fill: rgb(0%,0%,0%); stroke:none;" transform="translate(0,0) scale(1,-1)" x="0" y="0">Gene_00456</text>
			</g>
			<g transform=" matrix(0.707107,0.707107,-0.707107,0.707107,364.424044,251.827897)">
				<text style="font-family: Helvetica; font-size: 10px;fill: rgb(0%,0%,0%); stroke:none;" transform="translate(0,0) scale(1,-1)" x="0" y="0">Gene_00457</text>
			</g>
			<g transform=" matrix(0.707107,0.707107,-0.707107,0.707107,393.236738,251.827897)">
				<text style="font-family: Helvetica; font-size: 10px;fill: rgb(0%,0%,0%); stroke:none;" transform="translate(0,0) scale(1,-1)" x="0" y="0">Gene_00458</text>
			</g>
			<g transform=" matrix(0.707107,-0.707107,0.707107,0.707107,406.61406,169.825647)">
				<text style="font-family: Helvetica; font-size: 10px;fill: rgb(0%,0%,0%); stroke:none;" transform="translate(0,0) scale(1,-1)" x="0" y="0">Gene_00459</text>
			</g>
			<g transform=" matrix(0.707107,0.707107,-0.707107,0.707107,429.56703,251.827897)">
				<text style="font-family: Helvetica; font-size: 10px;fill: rgb(0%,0%,0%); stroke:none;" transform="translate(0,0) scale(1,-1)" x="0" y="0">Gene_00460</text>
			</g>
			<g transform=" matrix(0.707107,0.707107,-0.707107,0.707107,445.745586,251.827897)">
				<text style="font-family: Helvetica; font-size: 10px;fill: rgb(0%,0%,0%); stroke:none;" transform="translate(0,0) scale(1,-1)" x="0" y="0">Gene_00461</text>
			</g>
			<g transform=" matrix(0.707107,-0.707107,0.707107,0.707107,467.440858,169.825647)">
				<text style="font-family: Helvetica; font-size: 10px;fill: rgb(0%,0%,0%); stroke:none;" transform="translate(0,0) scale(1,-1)" x="0" y="0">Gene_00462</text>
			</g>
			<g transform=" matrix(0.707107,0.707107,-0.707107,0.707107,508.916274,251.827897)">
				<text style="font-family: Helvetica; font-size: 10px;fill: rgb(0%,0%,0%); stroke:none;" transform="translate(0,0) scale(1,-1)" x="0" y="0">Gene_00463</text>
			</g>
			<g transform=" matrix(0.707107,-0.707107,0.707107,0.707107,558.166543,169.825647)">
				<text style="font-family: Helvetica; font-size: 10px;fill: rgb(0%,0%,0%); stroke:none;" transform="translate(0,0) scale(1,-1)" x="0" y="0">Gene_00464</text>
			</g>
			<g transform=" matrix(0.707107,-0.707107,0.707107,0.707107,612.904945,169.825647)">
				<text style="font-family: Helvetica; font-size: 10px;fill: rgb(0%,0%,0%); stroke:none;" transform="translate(0,0) scale(1,-1)" x="0" y="0">Gene_00465</text>
			</g>
			<g transform=" matrix(0.707107,0.707107,-0.707107,0.707107,696.113032,251.827897)">
				<text style="font-family: Helvetica; font-size: 16px;fill: rgb(0%,0%,100%); stroke:none;" transform="translate(0,0) scale(1,-1)" x="0" y="0">Gene_00466 (81.6)</text>
			</g>
			<g transform=" matrix(0.707107,-0.707107,0.707107,0.707107,798.815422,169.825647)">
				<text style="font-family: Helvetica; font-size: 10px;fill: rgb(0%,0%,0%); stroke:none;" transform="translate(0,0) scale(1,-1)" x="0" y="0">Gene_00467</text>
			</g>
			<g transform=" matrix(0.707107,-0.707107,0.707107,0.707107,900.888963,169.825647)">
				<text style="font-family: Helvetica; font-size: 10px;fill: rgb(0%,0%,0%); stroke:none;" transform="translate(0,0) scale(1,-1)" x="0" y="0">Gene_00468</text>
			</g>
			<g transform=" matrix(0.707107,-0.707107,0.707107,0.707107,963.516555,169.825647)">
				<text style="font-family: Helvetica; font-size: 10px;fill: rgb(0%,0%,0%); stroke:none;" transform="translate(0,0) scale(1,-1)" x="0" y="0">Gene_00469</text>
			</g>
			<g transform=" matrix(0.707107,-0.707107,0.707107,0.707107,102.394318,456.833521)">
				<text style="font-family: Helvetica; font-size: 10px;fill: rgb(0%,0%,0%); stroke:none;" transform="translate(0,0) scale(1,-1)" x="0" y="0">Gene_01839</text>
			</g>
			<g transform=" matrix(0.707107,-0.707107,0.707107,0.707107,197.779198,456.833521)">
				<text style="font-family: Helvetica; font-size: 10px;fill: rgb(0%,0%,0%); stroke:none;" transform="translate(0,0) scale(1,-1)" x="0" y="0">Gene_01840</text>
			</g>
			<g transform=" matrix(0.707107,-0.707107,0.707107,0.707107,271.040046,456.833521)">
				<text style="font-family: Helvetica; font-size: 10px;fill: rgb(0%,0%,0%); stroke:none;" transform="translate(0,0) scale(1,-1)" x="0" y="0">Gene_01841</text>
			</g>
			<g transform=" matrix(0.707107,-0.707107,0.707107,0.707107,354.991317,456.833521)">
				<text style="font-family: Helvetica; font-size: 10px;fill: rgb(0%,0%,0%); stroke:none;" transform="translate(0,0) scale(1,-1)" x="0" y="0">Gene_01842</text>
			</g>
			<g transform=" matrix(0.707107,-0.707107,0.707107,0.707107,446.774611,456.833521)">
				<text style="font-family: Helvetica; font-size: 10px;fill: rgb(0%,0%,0%); stroke:none;" transform="translate(0,0) scale(1,-1)" x="0" y="0">Gene_01843</text>
			</g>
			<g transform=" matrix(0.707107,-0.707107,0.707107,0.707107,538.52932,456.833521)">
				<text style="font-family: Helvetica; font-size: 10px;fill: rgb(0%,0%,0%); stroke:none;" transform="translate(0,0) scale(1,-1)" x="0" y="0">Gene_01844</text>
			</g>
			<g transform=" matrix(0.707107,-0.707107,0.707107,0.707107,624.795898,456.833521)">
				<text style="font-family: Helvetica; font-size: 10px;fill: rgb(0%,0%,0%); stroke:none;" transform="translate(0,0) scale(1,-1)" x="0" y="0">Gene_01845</text>
			</g>
			<g transform=" matrix(0.707107,0.707107,-0.707107,0.707107,711.148227,538.835771)">
				<text style="font-family: Helvetica; font-size: 16px;fill: rgb(0%,0%,100%); stroke:none;" transform="translate(0,0) scale(1,-1)" x="0" y="0">Gene_01846 (81.6)</text>
			</g>
			<g transform=" matrix(0.707107,-0.707107,0.707107,0.707107,778.320678,456.833521)">
				<text style="font-family: Helvetica; font-size: 10px;fill: rgb(0%,0%,0%); stroke:none;" transform="translate(0,0) scale(1,-1)" x="0" y="0">Gene_01847</text>
			</g>
			<g transform=" matrix(0.707107,-0.707107,0.707107,0.707107,811.163719,456.833521)">
				<text style="font-family: Helvetica; font-size: 10px;fill: rgb(0%,0%,0%); stroke:none;" transform="translate(0,0) scale(1,-1)" x="0" y="0">Gene_01848</text>
			</g>
			<g transform=" matrix(0.707107,-0.707107,0.707107,0.707107,840.290837,456.833521)">
				<text style="font-family: Helvetica; font-size: 10px;fill: rgb(0%,0%,0%); stroke:none;" transform="translate(0,0) scale(1,-1)" x="0" y="0">Gene_01849</text>
			</g>
			<g transform=" matrix(0.707107,-0.707107,0.707107,0.707107,907.577624,456.833521)">
				<text style="font-family: Helvetica; font-size: 10px;fill: rgb(0%,0%,0%); stroke:none;" transform="translate(0,0) scale(1,-1)" x="0" y="0">Gene_01850</text>
			</g>
			<g transform=" matrix(0.707107,-0.707107,0.707107,0.707107,990.214031,456.833521)">
				<text style="font-family: Helvetica; font-size: 10px;fill: rgb(0%,0%,0%); stroke:none;" transform="translate(0,0) scale(1,-1)" x="0" y="0">Gene_01851</text>
			</g>
			<g transform=" matrix(0.707107,0.707107,-0.707107,0.707107,1039.435716,538.835771)">
				<text style="font-family: Helvetica; font-size: 10px;fill: rgb(0%,0%,0%); stroke:none;" transform="translate(0,0) scale(1,-1)" x="0" y="0">Gene_01852</text>
			</g>
			<g transform=" matrix(0.707107,-0.707107,0.707107,0.707107,1099.547914,456.833521)">
				<text style="font-family: Helvetica; font-size: 10px;fill: rgb(0%,0%,0%); stroke:none;" transform="translate(0,0) scale(1,-1)" x="0" y="0">Gene_01853</text>
			</g>
			<g transform=" matrix(0.707107,-0.707107,0.707107,0.707107,1194.875626,456.833521)">
				<text style="font-family: Helvetica; font-size: 10px;fill: rgb(0%,0%,0%); stroke:none;" transform="translate(0,0) scale(1,-1)" x="0" y="0">Gene_01854</text>
			</g>
			<g transform=" matrix(0.707107,-0.707107,0.707107,0.707107,1259.875691,456.833521)">
				<text style="font-family: Helvetica; font-size: 10px;fill: rgb(0%,0%,0%); stroke:none;" transform="translate(0,0) scale(1,-1)" x="0" y="0">Gene_01855</text>
			</g>
			<g transform=" matrix(0.707107,-0.707107,0.707107,0.707107,1317.015151,456.833521)">
				<text style="font-family: Helvetica; font-size: 10px;fill: rgb(0%,0%,0%); stroke:none;" transform="translate(0,0) scale(1,-1)" x="0" y="0">Gene_01856</text>
			</g>
			<g transform=" matrix(1,0,-0,1,70,169.825647)">
				<text style="font-family: Helvetica; font-size: 12px;fill: rgb(60%,60%,60%); stroke:none;" transform="translate(0,0) scale(1,-1)" x="0" y="0">megahit_8345 (left 24561bp, right 4102bp)</text>
			</g>
			<g transform=" matrix(1,0,-0,1,70,456.833521)">
				<text style="font-family: Helvetica; font-size: 12px;fill: rgb(60%,60%,60%); stroke:none;" transform="translate(0,0) scale(1,-1)" x="0" y="0">megahit_77812 (left 22412bp, right 36198bp)</text>
			</g>
		</g>
	</g>
</svg>
