<?xml version="1.0" encoding="utf-8"?>
<!DOCTYPE svg
  PUBLIC '-//W3C//DTD SVG 1.0//EN'
  'http://www.w3.org/TR/2001/REC-SVG-20010904/DTD/svg10.dtd'>
<svg fill-rule="evenodd" height="708.6614173228346" preserveAspectRatio="xMinYMin meet" version="1.0" viewBox="0 0 1417 708" width="1417.3228346456692" xmlns="http://www.w3.org/2000/svg" xmlns:xlink="http://www.w3.org/1999/xlink">
	<title>...</title>
	<desc>...</desc>
	<clipPath id="clip">
		<rect height="708.6614173228346" width="1417.3228346456692" x="0" y="0"/>
	</clipPath>
	<g id="group" style="clip-path: url(#clip)" transform="scale(1,-1) translate(0,-708)">
		<g transform="">
			<polygon points="70.86614 169.8256, 1346.397 169.8256, 1346.397 251.8279, 70.86614 251.8279" style="stroke: rgb(96%,96%,96%); stroke-linecap: butt; stroke-width: 1; fill: rgb(96%,96%,96%); fill-rule: evenodd;"/>
			<polygon points="70.86614 456.8335, 879.844 456.8335, 879.844 538.8358, 70.86614 538.8358" style="stroke: rgb(96%,96%,96%); stroke-linecap: butt; stroke-width: 1; fill: rgb(96%,96%,96%); fill-rule: evenodd;"/>
			<polygon points="232.2805 456.8335, 293.8682 456.8335, 1198.086 251.8279, 1259.257 251.8279" style="stroke: rgb(100%,32%,32%); stroke-linecap: round; stroke-width: 1; fill: rgb(100%,32%,32%); fill-rule: evenodd;"/>
			<polygon points="662.6196 456.8335, 752.3207 456.8335, 687.8741 251.8279, 780.0173 251.8279" style="stroke: rgb(100%,48%,48%); stroke-linecap: round; stroke-width: 1; fill: rgb(100%,48%,48%); fill-rule: evenodd;"/>
			<polygon points="427.3477 456.8335, 510.5565 456.8335, 947.2688 251.8279, 1029.763 251.8279" style="stroke: rgb(100%,56%,56%); stroke-linecap: round; stroke-width: 1; fill: rgb(100%,56%,56%); fill-rule: evenodd;"/>
			<polygon points="152.8241 456.8335, 200.2359 456.8335, 1296.365 251.8279, 1343.776 251.8279" style="stroke: rgb(100%,49%,49%); stroke-linecap: round; stroke-width: 1; fill: rgb(100%,49%,49%); fill-rule: evenodd;"/>
			<polygon points="511.9265 456.8335, 583.8184 456.8335, 865.3704 251.8279, 937.441 251.8279" style="stroke: rgb(100%,59%,59%); stroke-linecap: round; stroke-width: 1; fill: rgb(100%,59%,59%); fill-rule: evenodd;"/>
			<polygon points="813.1936 456.8335, 867.3359 456.8335, 565.4136 251.8279, 619.3772 251.8279" style="stroke: rgb(100%,68%,68%); stroke-linecap: round; stroke-width: 1; fill: rgb(100%,68%,68%); fill-rule: evenodd;"/>
			<polygon points="589.596 456.8335, 624.857 456.8335, 817.9586 251.8279, 852.8622 251.8279" style="stroke: rgb(100%,64%,64%); stroke-linecap: round; stroke-width: 1; fill: rgb(100%,64%,64%); fill-rule: evenodd;"/>
			<polygon points="755.1797 456.8335, 778.9452 456.8335, 653.6257 251.8279, 677.3911 251.8279" style="stroke: rgb(100%,71%,71%); stroke-linecap: round; stroke-width: 1; fill: rgb(100%,71%,71%); fill-rule: evenodd;"/>
			<polygon points="148.357 200.5765, 87.26659 200.5765, 87.26659 210.8268, 70.86614 190.3262, 87.26659 169.8256, 87.26659 180.0759, 148.357 180.0759" style="stroke: rgb(56%,93%,56%); stroke-linecap: round; stroke-width: 1; fill: rgb(56%,93%,56%); fill-rule: evenodd;"/>
			<polygon points="190.825 200.5765, 164.5787 200.5765, 164.5787 210.8268, 148.1783 190.3262, 164.5787 169.8256, 164.5787 180.0759, 190.825 180.0759" style="stroke: rgb(56%,93%,56%); stroke-linecap: round; stroke-width: 1; fill: rgb(56%,93%,56%); fill-rule: evenodd;"/>
			<polygon points="270.2814 200.5765, 225.0942 200.5765, 225.0942 210.8268, 208.6938 190.3262, 225.0942 169.8256, 225.0942 180.0759, 270.2814 180.0759" style="stroke: rgb(56%,93%,56%); stroke-linecap: round; stroke-width: 1; fill: rgb(56%,93%,56%); fill-rule: evenodd;"/>
			<polygon points="423.0592 200.5765, 291.0299 200.5765, 291.0299 210.8268, 274.6295 190.3262, 291.0299 169.8256, 291.0299 180.0759, 423.0592 180.0759" style="stroke: rgb(56%,93%,56%); stroke-linecap: round; stroke-width: 1; fill: rgb(56%,93%,56%); fill-rule: evenodd;"/>
			<polygon points="549.153 200.5765, 469.6579 200.5765, 469.6579 210.8268, 453.2574 190.3262, 469.6579 169.8256, 469.6579 180.0759, 549.153 180.0759" style="stroke: rgb(56%,93%,56%); stroke-linecap: round; stroke-width: 1; fill: rgb(56%,93%,56%); fill-rule: evenodd;"/>
			<polygon points="676.7955 200.5765, 579.4315 200.5765, 579.4315 210.8268, 563.0311 190.3262, 579.4315 169.8256, 579.4315 180.0759, 676.7955 180.0759" style="stroke: rgb(56%,93%,56%); stroke-linecap: round; stroke-width: 1; fill: rgb(56%,93%,56%); fill-rule: evenodd;"/>
			<polygon points="746.5432 200.5765, 701.8921 200.5765, 701.8921 210.8268, 685.4916 190.3262, 701.8921 169.8256, 701.8921 180.0759, 746.5432 180.0759" style="stroke: rgb(56%,93%,56%); stroke-linecap: round; stroke-width: 1; fill: rgb(56%,93%,56%); fill-rule: evenodd;"/>
			<polygon points="815.3974 200.5765, 768.2447 200.5765, 768.2447 210.8268, 751.8442 190.3262, 768.2447 169.8256, 768.2447 180.0759, 815.3974 180.0759" style="stroke: rgb(56%,93%,56%); stroke-linecap: round; stroke-width: 1; fill: rgb(56%,93%,56%); fill-rule: evenodd;"/>
			<polygon points="852.8622 200.5765, 833.5847 200.5765, 833.5847 210.8268, 817.1843 190.3262, 833.5847 169.8256, 833.5847 180.0759, 852.8622 180.0759" style="stroke: rgb(56%,93%,56%); stroke-linecap: round; stroke-width: 1; fill: rgb(56%,93%,56%); fill-rule: evenodd;"/>
			<polygon points="937.0836 200.5765, 875.8146 200.5765, 875.8146 210.8268, 859.4141 190.3262, 875.8146 169.8256, 875.8146 180.0759, 937.0836 180.0759" style="stroke: rgb(56%,93%,56%); stroke-linecap: round; stroke-width: 1; fill: rgb(56%,93%,56%); fill-rule: evenodd;"/>
			<polygon points="1175.453 200.5765, 963.7288 200.5765, 963.7288 210.8268, 947.3284 190.3262, 963.7288 169.8256, 963.7288 180.0759, 1175.453 180.0759" style="stroke: rgb(56%,93%,56%); stroke-linecap: round; stroke-width: 1; fill: rgb(56%,93%,56%); fill-rule: evenodd;"/>
			<polygon points="1257.887 200.5765, 1214.487 200.5765, 1214.487 210.8268, 1198.086 190.3262, 1214.487 169.8256, 1214.487 180.0759, 1257.887 180.0759" style="stroke: rgb(56%,93%,56%); stroke-linecap: round; stroke-width: 1; fill: rgb(56%,93%,56%); fill-rule: evenodd;"/>
			<polygon points="1274.624 241.5776, 1329.997 241.5776, 1329.997 251.8279, 1346.397 231.3273, 1329.997 210.8268, 1329.997 221.0771, 1274.624 221.0771" style="stroke: rgb(67%,84%,90%); stroke-linecap: round; stroke-width: 1; fill: rgb(67%,84%,90%); fill-rule: evenodd;"/>
			<polygon points="70.86614 528.5855, 130.1696 528.5855, 130.1696 538.8358, 146.5701 518.3352, 130.1696 497.8346, 130.1696 508.0849, 70.86614 508.0849" style="stroke: rgb(67%,84%,90%); stroke-linecap: round; stroke-width: 1; fill: rgb(67%,84%,90%); fill-rule: evenodd;"/>
			<polygon points="221.9762 487.5844, 166.6038 487.5844, 166.6038 497.8346, 150.2034 477.3341, 166.6038 456.8335, 166.6038 467.0838, 221.9762 467.0838" style="stroke: rgb(56%,93%,56%); stroke-linecap: round; stroke-width: 1; fill: rgb(56%,93%,56%); fill-rule: evenodd;"/>
			<polygon points="233.71 528.5855, 277.4677 528.5855, 277.4677 538.8358, 293.8682 518.3352, 277.4677 497.8346, 277.4677 508.0849, 233.71 508.0849" style="stroke: rgb(67%,84%,90%); stroke-linecap: round; stroke-width: 1; fill: rgb(67%,84%,90%); fill-rule: evenodd;"/>
			<polygon points="305.0659 528.5855, 494.0965 528.5855, 494.0965 538.8358, 510.497 518.3352, 494.0965 497.8346, 494.0965 508.0849, 305.0659 508.0849" style="stroke: rgb(67%,84%,90%); stroke-linecap: round; stroke-width: 1; fill: rgb(67%,84%,90%); fill-rule: evenodd;"/>
			<polygon points="510.8543 528.5855, 573.3742 528.5855, 573.3742 538.8358, 589.7747 518.3352, 573.3742 497.8346, 573.3742 508.0849, 510.8543 508.0849" style="stroke: rgb(67%,84%,90%); stroke-linecap: round; stroke-width: 1; fill: rgb(67%,84%,90%); fill-rule: evenodd;"/>
			<polygon points="589.596 528.5855, 610.6603 528.5855, 610.6603 538.8358, 627.0608 518.3352, 610.6603 497.8346, 610.6603 508.0849, 589.596 508.0849" style="stroke: rgb(67%,84%,90%); stroke-linecap: round; stroke-width: 1; fill: rgb(67%,84%,90%); fill-rule: evenodd;"/>
			<polygon points="626.8821 528.5855, 674.3922 528.5855, 674.3922 538.8358, 690.7927 518.3352, 674.3922 497.8346, 674.3922 508.0849, 626.8821 508.0849" style="stroke: rgb(67%,84%,90%); stroke-linecap: round; stroke-width: 1; fill: rgb(67%,84%,90%); fill-rule: evenodd;"/>
			<polygon points="694.009 528.5855, 738.3028 528.5855, 738.3028 538.8358, 754.7032 518.3352, 738.3028 497.8346, 738.3028 508.0849, 694.009 508.0849" style="stroke: rgb(67%,84%,90%); stroke-linecap: round; stroke-width: 1; fill: rgb(67%,84%,90%); fill-rule: evenodd;"/>
			<polygon points="755.7754 528.5855, 853.318 528.5855, 853.318 538.8358, 869.7184 518.3352, 853.318 497.8346, 853.318 508.0849, 755.7754 508.0849" style="stroke: rgb(67%,84%,90%); stroke-linecap: round; stroke-width: 1; fill: rgb(67%,84%,90%); fill-rule: evenodd;"/>
			<path d="M 1346.39713,169.825647 L 1346.39713,251.827897 Z" style="stroke: rgb(0%,0%,0%); stroke-linecap: butt; stroke-width: 1;"/>
			<path d="M 70.866142,210.826772 L 1346.39713,210.826772 Z" style="stroke: rgb(0%,0%,0%); stroke-linecap: butt; stroke-width: 1;"/>
			<path d="M 70.866142,169.825647 L 70.866142,251.827897 Z" style="stroke: rgb(0%,0%,0%); stroke-linecap: butt; stroke-width: 1;"/>
			<path d="M 666.491166,210.826772 L 666.491166,231.327334 Z" style="stroke: rgb(0%,0%,0%); stroke-linecap: butt; stroke-width: 1;"/>
			<path d="M 1262.11619,210.826772 L 1262.11619,231.327334 Z" style="stroke: rgb(0%,0%,0%); stroke-linecap: butt; stroke-width: 1;"/>
			<path d="M 666.491166,210.826772 L 666.491166,223.127109 Z" style="stroke: rgb(0%,0%,0%); stroke-linecap: butt; stroke-width: 1;"/>
			<path d="M 1262.11619,210.826772 L 1262.11619,223.127109 Z" style="stroke: rgb(0%,0%,0%); stroke-linecap: butt; stroke-width: 1;"/>
			<path d="M 879.844049,456.833521 L 879.844049,538.835771 Z" style="stroke: rgb(0%,0%,0%); stroke-linecap: butt; stroke-width: 1;"/>
			<path d="M 70.866142,497.834646 L 879.844049,497.834646 Z" style="stroke: rgb(0%,0%,0%); stroke-linecap: butt; stroke-width: 1;"/>
			<path d="M 70.866142,456.833521 L 70.866142,538.835771 Z" style="stroke: rgb(0%,0%,0%); stroke-linecap: butt; stroke-width: 1;"/>
			<path d="M 666.491166,497.834646 L 666.491166,518.335208 Z" style="stroke: rgb(0%,0%,0%); stroke-linecap: butt; stroke-width: 1;"/>
			<path d="M 666.491166,497.834646 L 666.491166,510.134983 Z" style="stroke: rgb(0%,0%,0%); stroke-linecap: butt; stroke-width: 1;"/>
			<g transform=" matrix(0.707107,0.707107,-0.707107,0.707107,666.491166,231.327334)">
				<text style="font-family: Helvetica; font-size: 6px;fill: rgb(0%,0%,0%); stroke:none;" transform="translate(0,0) scale(1,-1)" x="0" y="0">10000</text>
			</g>
			<g transform=" matrix(0.707107,0.707107,-0.707107,0.707107,1262.11619,231.327334)">
				<text style="font-family: Helvetica; font-size: 6px;fill: rgb(0%,0%,0%); stroke:none;" transform="translate(0,0) scale(1,-1)" x="0" y="0">20000</text>
			</g>
			<g transform=" matrix(0.707107,0.707107,-0.707107,0.707107,666.491166,518.335208)">
				<text style="font-family: Helvetica; font-size: 6px;fill: rgb(0%,0%,0%); stroke:none;" transform="translate(0,0) scale(1,-1)" x="0" y="0">10000</text>
			</g>
			<g transform=" matrix(0.707107,-0.707107,0.707107,0.707107,109.61155,169.825647)">
				<text style="font-family: Helvetica; font-size: 10px;fill: rgb(0%,0%,0%); stroke:none;" transform="translate(0,0) scale(1,-1)" x="0" y="0">Gene_00123</text>
			</g>
			<g transform=" matrix(0.707107,-0.707107,0.707107,0.707107,169.501646,169.825647)">
				<text style="font-family: Helvetica; font-size: 10px;fill: rgb(0%,0%,0%); stroke:none;" transform="translate(0,0) scale(1,-1)" x="0" y="0">Gene_00124</text>
			</g>
			<g transform=" matrix(0.707107,-0.707107,0.707107,0.707107,239.487586,169.825647)">
				<text style="font-family: Helvetica; font-size: 10px;fill: rgb(0%,0%,0%); stroke:none;" transform="translate(0,0) scale(1,-1)" x="0" y="0">Gene_00125</text>
			</g>
			<g transform=" matrix(0.707107,-0.707107,0.707107,0.707107,348.84434,169.825647)">
				<text style="font-family: Helvetica; font-size: 10px;fill: rgb(0%,0%,0%); stroke:none;" transform="translate(0,0) scale(1,-1)" x="0" y="0">Gene_00126</text>
			</g>
			<g transform=" matrix(0.707107,-0.707107,0.707107,0.707107,501.205221,169.825647)">
				<text style="font-family: Helvetica; font-size: 10px;fill: rgb(0%,0%,0%); stroke:none;" transform="translate(0,0) scale(1,-1)" x="0" y="0">Gene_00127</text>
			</g>
			<g transform=" matrix(0.707107,-0.707107,0.707107,0.707107,619.913289,169.825647)">
				<text style="font-family: Helvetica; font-size: 10px;fill: rgb(0%,0%,0%); stroke:none;" transform="translate(0,0) scale(1,-1)" x="0" y="0">Gene_00128</text>
			</g>
			<g transform=" matrix(0.707107,-0.707107,0.707107,0.707107,716.017386,169.825647)">
				<text style="font-family: Helvetica; font-size: 16px;fill: rgb(0%,0%,100%); stroke:none;" transform="translate(0,0) scale(1,-1)" x="0" y="0">Gene_00129 (82.7)</text>
			</g>
			<g transform=" matrix(0.707107,-0.707107,0.707107,0.707107,783.620827,169.825647)">
				<text style="font-family: Helvetica; font-size: 10px;fill: rgb(0%,0%,0%); stroke:none;" transform="translate(0,0) scale(1,-1)" x="0" y="0">Gene_00130</text>
			</g>
			<g transform=" matrix(0.707107,-0.707107,0.707107,0.707107,835.023266,169.825647)">
				<text style="font-family: Helvetica; font-size: 10px;fill: rgb(0%,0%,0%); stroke:none;" transform="translate(0,0) scale(1,-1)" x="0" y="0">Gene_00131</text>
			</g>
			<g transform=" matrix(0.707107,-0.707107,0.707107,0.707107,898.248862,169.825647)">
				<text style="font-family: Helvetica; font-size: 10px;fill: rgb(0%,0%,0%); stroke:none;" transform="translate(0,0) scale(1,-1)" x="0" y="0">Gene_00132</text>
			</g>
			<g transform=" matrix(0.707107,-0.707107,0.707107,0.707107,1061.390556,169.825647)">
				<text style="font-family: Helvetica; font-size: 10px;fill: rgb(0%,0%,0%); stroke:none;" transform="translate(0,0) scale(1,-1)" x="0" y="0">Gene_00133</text>
			</g>
			<g transform=" matrix(0.707107,-0.707107,0.707107,0.707107,1227.986876,169.825647)">
				<text style="font-family: Helvetica; font-size: 10px;fill: rgb(0%,0%,0%); stroke:none;" transform="translate(0,0) scale(1,-1)" x="0" y="0">Gene_00134</text>
			</g>
			<g transform=" matrix(0.707107,0.707107,-0.707107,0.707107,1310.510723,251.827897)">
				<text style="font-family: Helvetica; font-size: 10px;fill: rgb(0%,0%,0%); stroke:none;" transform="translate(0,0) scale(1,-1)" x="0" y="0">Gene_00135</text>
			</g>
			<g transform=" matrix(0.707107,0.707107,-0.707107,0.707107,108.718112,538.835771)">
				<text style="font-family: Helvetica; font-size: 10px;fill: rgb(0%,0%,0%); stroke:none;" transform="translate(0,0) scale(1,-1)" x="0" y="0">Gene_02516</text>
			</g>
			<g transform=" matrix(0.707107,-0.707107,0.707107,0.707107,186.089803,456.833521)">
				<text style="font-family: Helvetica; font-size: 10px;fill: rgb(0%,0%,0%); stroke:none;" transform="translate(0,0) scale(1,-1)" x="0" y="0">Gene_02517</text>
			</g>
			<g transform=" matrix(0.707107,0.707107,-0.707107,0.707107,263.789087,538.835771)">
				<text style="font-family: Helvetica; font-size: 10px;fill: rgb(0%,0%,0%); stroke:none;" transform="translate(0,0) scale(1,-1)" x="0" y="0">Gene_02518</text>
			</g>
			<g transform=" matrix(0.707107,0.707107,-0.707107,0.707107,407.781437,538.835771)">
				<text style="font-family: Helvetica; font-size: 10px;fill: rgb(0%,0%,0%); stroke:none;" transform="translate(0,0) scale(1,-1)" x="0" y="0">Gene_02519</text>
			</g>
			<g transform=" matrix(0.707107,0.707107,-0.707107,0.707107,550.314505,538.835771)">
				<text style="font-family: Helvetica; font-size: 10px;fill: rgb(0%,0%,0%); stroke:none;" transform="translate(0,0) scale(1,-1)" x="0" y="0">Gene_02520</text>
			</g>
			<g transform=" matrix(0.707107,0.707107,-0.707107,0.707107,608.328382,538.835771)">
				<text style="font-family: Helvetica; font-size: 10px;fill: rgb(0%,0%,0%); stroke:none;" transform="translate(0,0) scale(1,-1)" x="0" y="0">Gene_02521</text>
			</g>
			<g transform=" matrix(0.707107,0.707107,-0.707107,0.707107,658.837384,538.835771)">
				<text style="font-family: Helvetica; font-size: 10px;fill: rgb(0%,0%,0%); stroke:none;" transform="translate(0,0) scale(1,-1)" x="0" y="0">Gene_02522</text>
			</g>
			<g transform=" matrix(0.707107,0.707107,-0.707107,0.707107,724.356137,538.835771)">
				<text style="font-family: Helvetica; font-size: 16px;fill: rgb(0%,0%,100%); stroke:none;" transform="translate(0,0) scale(1,-1)" x="0" y="0">Gene_02523 (82.7)</text>
			</g>
			<g transform=" matrix(0.707107,0.707107,-0.707107,0.707107,812.74689,538.835771)">
				<text style="font-family: Helvetica; font-size: 10px;fill: rgb(0%,0%,0%); stroke:none;" transform="translate(0,0) scale(1,-1)" x="0" y="0">Gene_02524</text>
			</g>
			<g transform=" matrix(1,0,-0,1,70,169.825647)">
				<text style="font-family: Helvetica; font-size: 12px;fill: rgb(60%,60%,60%); stroke:none;" transform="translate(0,0) scale(1,-1)" x="0" y="0">megahit_9912 (left 10728bp, right 17441bp)</text>
			</g>
			<g transform=" matrix(1,0,-0,1,70,456.833521)">
				<text style="font-family: Helvetica; font-size: 12px;fill: rgb(60%,60%,60%); stroke:none;" transform="translate(0,0) scale(1,-1)" x="0" y="0">megahit_138015 (left 16991bp, right 2101bp)</text>
			</g>
		</g>
	</g>
</svg>
