<?xml version="1.0" encoding="utf-8"?>
<!DOCTYPE svg
  PUBLIC '-//W3C//DTD SVG 1.0//EN'
  'http://www.w3.org/TR/2001/REC-SVG-20010904/DTD/svg10.dtd'>
<svg fill-rule="evenodd" height="708.6614173228346" preserveAspectRatio="xMinYMin meet" version="1.0" viewBox="0 0 1417 708" width="1417.3228346456692" xmlns="http://www.w3.org/2000/svg" xmlns:xlink="http://www.w3.org/1999/xlink">
	<title>...</title>
	<desc>...</desc>
	<clipPath id="clip">
		<rect height="708.6614173228346" width="1417.3228346456692" x="0" y="0"/>
	</clipPath>
	<g id="group" style="clip-path: url(#clip)" transform="scale(1,-1) translate(0,-708)">
		<g transform="">
			<polygon points="70.86614 169.8256, 1346.387 169.8256, 1346.387 251.8279, 70.86614 251.8279" style="stroke: rgb(96%,96%,96%); stroke-linecap: butt; stroke-width: 1; fill: rgb(96%,96%,96%); fill-rule: evenodd;"/>
			<polygon points="70.86614 456.8335, 882.0699 456.8335, 882.0699 538.8358, 70.86614 538.8358" style="stroke: rgb(96%,96%,96%); stroke-linecap: butt; stroke-width: 1; fill: rgb(96%,96%,96%); fill-rule: evenodd;"/>
			<polygon points="771.7096 456.8335, 882.0699 456.8335, 521.8738 251.8279, 632.4421 251.8279" style="stroke: rgb(100%,32%,32%); stroke-linecap: round; stroke-width: 1; fill: rgb(100%,32%,32%); fill-rule: evenodd;"/>
			<polygon points="100.1893 241.5776, 149.0206 241.5776, 149.0206 251.8279, 165.4211 231.3273, 149.0206 210.8268, 149.0206 221.0771, 100.1893 221.0771" style="stroke: rgb(67%,84%,90%); stroke-linecap: round; stroke-width: 1; fill: rgb(67%,84%,90%); fill-rule: evenodd;"/>
			<polygon points="167.0155 241.5776, 243.9222 241.5776, 243.9222 251.8279, 260.3226 231.3273, 243.9222 210.8268, 243.9222 221.0771, 167.0155 221.0771" style="stroke: rgb(67%,84%,90%); stroke-linecap: round; stroke-width: 1; fill: rgb(67%,84%,90%); fill-rule: evenodd;"/>
			<polygon points="264.8979 241.5776, 302.915 241.5776, 302.915 251.8279, 319.3155 231.3273, 302.915 210.8268, 302.915 221.0771, 264.8979 221.0771" style="stroke: rgb(67%,84%,90%); stroke-linecap: round; stroke-width: 1; fill: rgb(67%,84%,90%); fill-rule: evenodd;"/>
			<polygon points="326.9409 241.5776, 444.4009 241.5776, 444.4009 251.8279, 460.8013 231.3273, 444.4009 210.8268, 444.4009 221.0771, 326.9409 221.0771" style="stroke: rgb(67%,84%,90%); stroke-linecap: round; stroke-width: 1; fill: rgb(67%,84%,90%); fill-rule: evenodd;"/>
			<polygon points="460.8706 241.5776, 488.9054 241.5776, 488.9054 251.8279, 505.3059 231.3273, 488.9054 210.8268, 488.9054 221.0771, 460.8706 221.0771" style="stroke: rgb(67%,84%,90%); stroke-linecap: round; stroke-width: 1; fill: rgb(67%,84%,90%); fill-rule: evenodd;"/>
			<polygon points="510.2277 241.5776, 616.0416 241.5776, 616.0416 251.8279, 632.4421 231.3273, 616.0416 210.8268, 616.0416 221.0771, 510.2277 221.0771" style="stroke: rgb(67%,84%,90%); stroke-linecap: round; stroke-width: 1; fill: rgb(67%,84%,90%); fill-rule: evenodd;"/>
			<polygon points="642.771 241.5776, 669.974 241.5776, 669.974 251.8279, 686.3745 231.3273, 669.974 210.8268, 669.974 221.0771, 642.771 221.0771" style="stroke: rgb(67%,84%,90%); stroke-linecap: round; stroke-width: 1; fill: rgb(67%,84%,90%); fill-rule: evenodd;"/>
			<polygon points="687.2756 241.5776, 729.868 241.5776, 729.868 251.8279, 746.2685 231.3273, 729.868 210.8268, 729.868 221.0771, 687.2756 221.0771" style="stroke: rgb(67%,84%,90%); stroke-linecap: round; stroke-width: 1; fill: rgb(67%,84%,90%); fill-rule: evenodd;"/>
			<polygon points="759.7862 241.5776, 847.5072 241.5776, 847.5072 251.8279, 863.9076 231.3273, 847.5072 210.8268, 847.5072 221.0771, 759.7862 221.0771" style="stroke: rgb(67%,84%,90%); stroke-linecap: round; stroke-width: 1; fill: rgb(67%,84%,90%); fill-rule: evenodd;"/>
			<polygon points="999.7783 200.5765, 883.3582 200.5765, 883.3582 210.8268, 866.9578 190.3262, 883.3582 169.8256, 883.3582 180.0759, 999.7783 180.0759" style="stroke: rgb(56%,93%,56%); stroke-linecap: round; stroke-width: 1; fill: rgb(56%,93%,56%); fill-rule: evenodd;"/>
			<polygon points="1009.206 241.5776, 1037.241 241.5776, 1037.241 251.8279, 1053.641 231.3273, 1037.241 210.8268, 1037.241 221.0771, 1009.206 221.0771" style="stroke: rgb(67%,84%,90%); stroke-linecap: round; stroke-width: 1; fill: rgb(67%,84%,90%); fill-rule: evenodd;"/>
			<polygon points="1058.009 241.5776, 1101.017 241.5776, 1101.017 251.8279, 1117.417 231.3273, 1101.017 210.8268, 1101.017 221.0771, 1058.009 221.0771" style="stroke: rgb(67%,84%,90%); stroke-linecap: round; stroke-width: 1; fill: rgb(67%,84%,90%); fill-rule: evenodd;"/>
			<polygon points="1117.209 241.5776, 1183.094 241.5776, 1183.094 251.8279, 1199.494 231.3273, 1183.094 210.8268, 1183.094 221.0771, 1117.209 221.0771" style="stroke: rgb(67%,84%,90%); stroke-linecap: round; stroke-width: 1; fill: rgb(67%,84%,90%); fill-rule: evenodd;"/>
			<polygon points="1202.683 241.5776, 1210.545 241.5776, 1210.545 251.8279, 1226.946 231.3273, 1210.545 210.8268, 1210.545 221.0771, 1202.683 221.0771" style="stroke: rgb(67%,84%,90%); stroke-linecap: round; stroke-width: 1; fill: rgb(67%,84%,90%); fill-rule: evenodd;"/>
			<polygon points="1231.521 241.5776, 1265.587 241.5776, 1265.587 251.8279, 1281.987 231.3273, 1265.587 210.8268, 1265.587 221.0771, 1231.521 221.0771" style="stroke: rgb(67%,84%,90%); stroke-linecap: round; stroke-width: 1; fill: rgb(67%,84%,90%); fill-rule: evenodd;"/>
			<polygon points="1282.403 241.5776, 1329.987 241.5776, 1329.987 251.8279, 1346.387 231.3273, 1329.987 210.8268, 1329.987 221.0771, 1282.403 221.0771" style="stroke: rgb(67%,84%,90%); stroke-linecap: round; stroke-width: 1; fill: rgb(67%,84%,90%); fill-rule: evenodd;"/>
			<polygon points="70.86614 528.5855, 166.9057 528.5855, 166.9057 538.8358, 183.3061 518.3352, 166.9057 497.8346, 166.9057 508.0849, 70.86614 508.0849" style="stroke: rgb(67%,84%,90%); stroke-linecap: round; stroke-width: 1; fill: rgb(67%,84%,90%); fill-rule: evenodd;"/>
			<polygon points="183.0981 528.5855, 207.5976 528.5855, 207.5976 538.8358, 223.998 518.3352, 207.5976 497.8346, 207.5976 508.0849, 183.0981 508.0849" style="stroke: rgb(67%,84%,90%); stroke-linecap: round; stroke-width: 1; fill: rgb(67%,84%,90%); fill-rule: evenodd;"/>
			<polygon points="236.1293 528.5855, 289.7439 528.5855, 289.7439 538.8358, 306.1444 518.3352, 289.7439 497.8346, 289.7439 508.0849, 236.1293 508.0849" style="stroke: rgb(67%,84%,90%); stroke-linecap: round; stroke-width: 1; fill: rgb(67%,84%,90%); fill-rule: evenodd;"/>
			<polygon points="310.373 528.5855, 358.3725 528.5855, 358.3725 538.8358, 374.7729 518.3352, 358.3725 497.8346, 358.3725 508.0849, 310.373 508.0849" style="stroke: rgb(67%,84%,90%); stroke-linecap: round; stroke-width: 1; fill: rgb(67%,84%,90%); fill-rule: evenodd;"/>
			<polygon points="376.8526 528.5855, 408.4228 528.5855, 408.4228 538.8358, 424.8233 518.3352, 408.4228 497.8346, 408.4228 508.0849, 376.8526 508.0849" style="stroke: rgb(67%,84%,90%); stroke-linecap: round; stroke-width: 1; fill: rgb(67%,84%,90%); fill-rule: evenodd;"/>
			<polygon points="430.5077 528.5855, 496.1842 528.5855, 496.1842 538.8358, 512.5847 518.3352, 496.1842 497.8346, 496.1842 508.0849, 430.5077 508.0849" style="stroke: rgb(67%,84%,90%); stroke-linecap: round; stroke-width: 1; fill: rgb(67%,84%,90%); fill-rule: evenodd;"/>
			<polygon points="512.0994 528.5855, 549.2847 528.5855, 549.2847 538.8358, 565.6852 518.3352, 549.2847 497.8346, 549.2847 508.0849, 512.0994 508.0849" style="stroke: rgb(67%,84%,90%); stroke-linecap: round; stroke-width: 1; fill: rgb(67%,84%,90%); fill-rule: evenodd;"/>
			<polygon points="595.7709 528.5855, 699.2971 528.5855, 699.2971 538.8358, 715.6976 518.3352, 699.2971 497.8346, 699.2971 508.0849, 595.7709 508.0849" style="stroke: rgb(67%,84%,90%); stroke-linecap: round; stroke-width: 1; fill: rgb(67%,84%,90%); fill-rule: evenodd;"/>
			<polygon points="740.2375 528.5855, 748.9315 528.5855, 748.9315 538.8358, 765.332 518.3352, 748.9315 497.8346, 748.9315 508.0849, 740.2375 508.0849" style="stroke: rgb(67%,84%,90%); stroke-linecap: round; stroke-width: 1; fill: rgb(67%,84%,90%); fill-rule: evenodd;"/>
			<polygon points="876.2469 487.5844, 788.11 487.5844, 788.11 497.8346, 771.7096 477.3341, 788.11 456.8335, 788.11 467.0838, 876.2469 467.0838" style="stroke: rgb(56%,93%,56%); stroke-linecap: round; stroke-width: 1; fill: rgb(56%,93%,56%); fill-rule: evenodd;"/>
			<path d="M 1346.387371,169.825647 L 1346.387371,251.827897 Z" style="stroke: rgb(0%,0%,0%); stroke-linecap: butt; stroke-width: 1;"/>
			<path d="M 70.866142,210.826772 L 1346.387371,210.826772 Z" style="stroke: rgb(0%,0%,0%); stroke-linecap: butt; stroke-width: 1;"/>
			<path d="M 70.866142,169.825647 L 70.866142,251.827897 Z" style="stroke: rgb(0%,0%,0%); stroke-linecap: butt; stroke-width: 1;"/>
			<path d="M 764.084201,210.826772 L 764.084201,231.327334 Z" style="stroke: rgb(0%,0%,0%); stroke-linecap: butt; stroke-width: 1;"/>
			<path d="M 764.084201,210.826772 L 764.084201,223.127109 Z" style="stroke: rgb(0%,0%,0%); stroke-linecap: butt; stroke-width: 1;"/>
			<path d="M 882.069915,456.833521 L 882.069915,538.835771 Z" style="stroke: rgb(0%,0%,0%); stroke-linecap: butt; stroke-width: 1;"/>
			<path d="M 70.866142,497.834646 L 882.069915,497.834646 Z" style="stroke: rgb(0%,0%,0%); stroke-linecap: butt; stroke-width: 1;"/>
			<path d="M 70.866142,456.833521 L 70.866142,538.835771 Z" style="stroke: rgb(0%,0%,0%); stroke-linecap: butt; stroke-width: 1;"/>
			<path d="M 764.084201,497.834646 L 764.084201,518.335208 Z" style="stroke: rgb(0%,0%,0%); stroke-linecap: butt; stroke-width: 1;"/>
			<path d="M 764.084201,497.834646 L 764.084201,510.134983 Z" style="stroke: rgb(0%,0%,0%); stroke-linecap: butt; stroke-width: 1;"/>
			<g transform=" matrix(0.707107,0.707107,-0.707107,0.707107,764.084201,231.327334)">
				<text style="font-family: Helvetica; font-size: 6px;fill: rgb(0%,0%,0%); stroke:none;" transform="translate(0,0) scale(1,-1)" x="0" y="0">10000</text>
			</g>
			<g transform=" matrix(0.707107,0.707107,-0.707107,0.707107,764.084201,518.335208)">
				<text style="font-family: Helvetica; font-size: 6px;fill: rgb(0%,0%,0%); stroke:none;" transform="translate(0,0) scale(1,-1)" x="0" y="0">10000</text>
			</g>
			<g transform=" matrix(0.707107,0.707107,-0.707107,0.707107,132.805175,251.827897)">
				<text style="font-family: Helvetica; font-size: 10px;fill: rgb(0%,0%,0%); stroke:none;" transform="translate(0,0) scale(1,-1)" x="0" y="0">Gene_02259</text>
			</g>
			<g transform=" matrix(0.707107,0.707107,-0.707107,0.707107,213.669062,251.827897)">
				<text style="font-family: Helvetica; font-size: 10px;fill: rgb(0%,0%,0%); stroke:none;" transform="translate(0,0) scale(1,-1)" x="0" y="0">Gene_02260</text>
			</g>
			<g transform=" matrix(0.707107,0.707107,-0.707107,0.707107,292.106685,251.827897)">
				<text style="font-family: Helvetica; font-size: 10px;fill: rgb(0%,0%,0%); stroke:none;" transform="translate(0,0) scale(1,-1)" x="0" y="0">Gene_02261</text>
			</g>
			<g transform=" matrix(0.707107,0.707107,-0.707107,0.707107,393.871097,251.827897)">
				<text style="font-family: Helvetica; font-size: 10px;fill: rgb(0%,0%,0%); stroke:none;" transform="translate(0,0) scale(1,-1)" x="0" y="0">Gene_02262</text>
			</g>
			<g transform=" matrix(0.707107,0.707107,-0.707107,0.707107,483.088261,251.827897)">
				<text style="font-family: Helvetica; font-size: 10px;fill: rgb(0%,0%,0%); stroke:none;" transform="translate(0,0) scale(1,-1)" x="0" y="0">Gene_02263</text>
			</g>
			<g transform=" matrix(0.707107,0.707107,-0.707107,0.707107,571.33492,251.827897)">
				<text style="font-family: Helvetica; font-size: 16px;fill: rgb(0%,0%,100%); stroke:none;" transform="translate(0,0) scale(1,-1)" x="0" y="0">Gene_02264 (84.0)</text>
			</g>
			<g transform=" matrix(0.707107,0.707107,-0.707107,0.707107,664.572749,251.827897)">
				<text style="font-family: Helvetica; font-size: 10px;fill: rgb(0%,0%,0%); stroke:none;" transform="translate(0,0) scale(1,-1)" x="0" y="0">Gene_02265</text>
			</g>
			<g transform=" matrix(0.707107,0.707107,-0.707107,0.707107,716.772069,251.827897)">
				<text style="font-family: Helvetica; font-size: 10px;fill: rgb(0%,0%,0%); stroke:none;" transform="translate(0,0) scale(1,-1)" x="0" y="0">Gene_02266</text>
			</g>
			<g transform=" matrix(0.707107,0.707107,-0.707107,0.707107,811.846925,251.827897)">
				<text style="font-family: Helvetica; font-size: 10px;fill: rgb(0%,0%,0%); stroke:none;" transform="translate(0,0) scale(1,-1)" x="0" y="0">Gene_02267</text>
			</g>
			<g transform=" matrix(0.707107,-0.707107,0.707107,0.707107,933.368051,169.825647)">
				<text style="font-family: Helvetica; font-size: 10px;fill: rgb(0%,0%,0%); stroke:none;" transform="translate(0,0) scale(1,-1)" x="0" y="0">Gene_02268</text>
			</g>
			<g transform=" matrix(0.707107,0.707107,-0.707107,0.707107,1031.423746,251.827897)">
				<text style="font-family: Helvetica; font-size: 10px;fill: rgb(0%,0%,0%); stroke:none;" transform="translate(0,0) scale(1,-1)" x="0" y="0">Gene_02269</text>
			</g>
			<g transform=" matrix(0.707107,0.707107,-0.707107,0.707107,1087.713052,251.827897)">
				<text style="font-family: Helvetica; font-size: 10px;fill: rgb(0%,0%,0%); stroke:none;" transform="translate(0,0) scale(1,-1)" x="0" y="0">Gene_02270</text>
			</g>
			<g transform=" matrix(0.707107,0.707107,-0.707107,0.707107,1158.351972,251.827897)">
				<text style="font-family: Helvetica; font-size: 10px;fill: rgb(0%,0%,0%); stroke:none;" transform="translate(0,0) scale(1,-1)" x="0" y="0">Gene_02271</text>
			</g>
			<g transform=" matrix(0.707107,0.707107,-0.707107,0.707107,1214.814583,251.827897)">
				<text style="font-family: Helvetica; font-size: 10px;fill: rgb(0%,0%,0%); stroke:none;" transform="translate(0,0) scale(1,-1)" x="0" y="0">Gene_02272</text>
			</g>
			<g transform=" matrix(0.707107,0.707107,-0.707107,0.707107,1256.754276,251.827897)">
				<text style="font-family: Helvetica; font-size: 10px;fill: rgb(0%,0%,0%); stroke:none;" transform="translate(0,0) scale(1,-1)" x="0" y="0">Gene_02273</text>
			</g>
			<g transform=" matrix(0.707107,0.707107,-0.707107,0.707107,1314.395358,251.827897)">
				<text style="font-family: Helvetica; font-size: 10px;fill: rgb(0%,0%,0%); stroke:none;" transform="translate(0,0) scale(1,-1)" x="0" y="0">Gene_02274</text>
			</g>
			<g transform=" matrix(0.707107,0.707107,-0.707107,0.707107,127.086126,538.835771)">
				<text style="font-family: Helvetica; font-size: 10px;fill: rgb(0%,0%,0%); stroke:none;" transform="translate(0,0) scale(1,-1)" x="0" y="0">Gene_02342</text>
			</g>
			<g transform=" matrix(0.707107,0.707107,-0.707107,0.707107,203.548078,538.835771)">
				<text style="font-family: Helvetica; font-size: 10px;fill: rgb(0%,0%,0%); stroke:none;" transform="translate(0,0) scale(1,-1)" x="0" y="0">Gene_02343</text>
			</g>
			<g transform=" matrix(0.707107,0.707107,-0.707107,0.707107,271.136839,538.835771)">
				<text style="font-family: Helvetica; font-size: 10px;fill: rgb(0%,0%,0%); stroke:none;" transform="translate(0,0) scale(1,-1)" x="0" y="0">Gene_02344</text>
			</g>
			<g transform=" matrix(0.707107,0.707107,-0.707107,0.707107,342.57296,538.835771)">
				<text style="font-family: Helvetica; font-size: 10px;fill: rgb(0%,0%,0%); stroke:none;" transform="translate(0,0) scale(1,-1)" x="0" y="0">Gene_02345</text>
			</g>
			<g transform=" matrix(0.707107,0.707107,-0.707107,0.707107,400.837938,538.835771)">
				<text style="font-family: Helvetica; font-size: 10px;fill: rgb(0%,0%,0%); stroke:none;" transform="translate(0,0) scale(1,-1)" x="0" y="0">Gene_02346</text>
			</g>
			<g transform=" matrix(0.707107,0.707107,-0.707107,0.707107,471.54618,538.835771)">
				<text style="font-family: Helvetica; font-size: 10px;fill: rgb(0%,0%,0%); stroke:none;" transform="translate(0,0) scale(1,-1)" x="0" y="0">Gene_02347</text>
			</g>
			<g transform=" matrix(0.707107,0.707107,-0.707107,0.707107,538.892315,538.835771)">
				<text style="font-family: Helvetica; font-size: 10px;fill: rgb(0%,0%,0%); stroke:none;" transform="translate(0,0) scale(1,-1)" x="0" y="0">Gene_02348</text>
			</g>
			<g transform=" matrix(0.707107,0.707107,-0.707107,0.707107,655.734218,538.835771)">
				<text style="font-family: Helvetica; font-size: 10px;fill: rgb(0%,0%,0%); stroke:none;" transform="translate(0,0) scale(1,-1)" x="0" y="0">Gene_02349</text>
			</g>
			<g transform=" matrix(0.707107,0.707107,-0.707107,0.707107,752.784747,538.835771)">
				<text style="font-family: Helvetica; font-size: 10px;fill: rgb(0%,0%,0%); stroke:none;" transform="translate(0,0) scale(1,-1)" x="0" y="0">Gene_02350</text>
			</g>
			<g transform=" matrix(0.707107,-0.707107,0.707107,0.707107,823.978242,456.833521)">
				<text style="font-family: Helvetica; font-size: 16px;fill: rgb(0%,0%,100%); stroke:none;" transform="translate(0,0) scale(1,-1)" x="0" y="0">Gene_02351 (84.0)</text>
			</g>
			<g transform=" matrix(1,0,-0,1,70,169.825647)">
				<text style="font-family: Helvetica; font-size: 12px;fill: rgb(60%,60%,60%); stroke:none;" transform="translate(0,0) scale(1,-1)" x="0" y="0">megahit_105512 (left 6338bp, right 15916bp)</text>
			</g>
			<g transform=" matrix(1,0,-0,1,70,456.833521)">
				<text style="font-family: Helvetica; font-size: 12px;fill: rgb(60%,60%,60%); stroke:none;" transform="translate(0,0) scale(1,-1)" x="0" y="0">megahit_118348 (left 10724bp, right 84bp)</text>
			</g>
		</g>
	</g>
</svg>
