<?xml version="1.0" encoding="utf-8"?>
<!DOCTYPE svg
  PUBLIC '-//W3C//DTD SVG 1.0//EN'
  'http://www.w3.org/TR/2001/REC-SVG-20010904/DTD/svg10.dtd'>
<svg fill-rule="evenodd" height="708.6614173228346" preserveAspectRatio="xMinYMin meet" version="1.0" viewBox="0 0 1417 708" width="1417.3228346456692" xmlns="http://www.w3.org/2000/svg" xmlns:xlink="http://www.w3.org/1999/xlink">
	<title>...</title>
	<desc>...</desc>
	<clipPath id="clip">
		<rect height="708.6614173228346" width="1417.3228346456692" x="0" y="0"/>
	</clipPath>
	<g id="group" style="clip-path: url(#clip)" transform="scale(1,-1) translate(0,-708)">
		<g transform="">
			<polygon points="70.86614 169.8256, 1195.348 169.8256, 1195.348 251.8279, 70.86614 251.8279" style="stroke: rgb(96%,96%,96%); stroke-linecap: butt; stroke-width: 1; fill: rgb(96%,96%,96%); fill-rule: evenodd;"/>
			<polygon points="70.86614 456.8335, 1346.399 456.8335, 1346.399 538.8358, 70.86614 538.8358" style="stroke: rgb(96%,96%,96%); stroke-linecap: butt; stroke-width: 1; fill: rgb(96%,96%,96%); fill-rule: evenodd;"/>
			<polygon points="888.6395 456.8335, 1202.198 456.8335, 253.0605 251.8279, 566.9067 251.8279" style="stroke: rgb(100%,58%,58%); stroke-linecap: round; stroke-width: 1; fill: rgb(100%,58%,58%); fill-rule: evenodd;"/>
			<polygon points="683.8795 456.8335, 770.6881 456.8335, 677.8352 251.8279, 764.6437 251.8279" style="stroke: rgb(100%,35%,35%); stroke-linecap: round; stroke-width: 1; fill: rgb(100%,35%,35%); fill-rule: evenodd;"/>
			<polygon points="775.6387 456.8335, 871.1396 456.8335, 581.183 251.8279, 677.0293 251.8279" style="stroke: rgb(100%,46%,46%); stroke-linecap: round; stroke-width: 1; fill: rgb(100%,46%,46%); fill-rule: evenodd;"/>
			<polygon points="609.5627 456.8335, 676.3385 456.8335, 771.6667 251.8279, 838.4425 251.8279" style="stroke: rgb(100%,33%,33%); stroke-linecap: round; stroke-width: 1; fill: rgb(100%,33%,33%); fill-rule: evenodd;"/>
			<polygon points="109.6652 200.5765, 87.26659 200.5765, 87.26659 210.8268, 70.86614 190.3262, 87.26659 169.8256, 87.26659 180.0759, 109.6652 180.0759" style="stroke: rgb(56%,93%,56%); stroke-linecap: round; stroke-width: 1; fill: rgb(56%,93%,56%); fill-rule: evenodd;"/>
			<polygon points="186.8603 200.5765, 128.1956 200.5765, 128.1956 210.8268, 111.7951 190.3262, 128.1956 169.8256, 128.1956 180.0759, 186.8603 180.0759" style="stroke: rgb(56%,93%,56%); stroke-linecap: round; stroke-width: 1; fill: rgb(56%,93%,56%); fill-rule: evenodd;"/>
			<polygon points="216.5065 200.5765, 205.1604 200.5765, 205.1604 210.8268, 188.76 190.3262, 205.1604 169.8256, 205.1604 180.0759, 216.5065 180.0759" style="stroke: rgb(56%,93%,56%); stroke-linecap: round; stroke-width: 1; fill: rgb(56%,93%,56%); fill-rule: evenodd;"/>
			<polygon points="250.2398 200.5765, 239.5845 200.5765, 239.5845 210.8268, 223.1841 190.3262, 239.5845 169.8256, 239.5845 180.0759, 250.2398 180.0759" style="stroke: rgb(56%,93%,56%); stroke-linecap: round; stroke-width: 1; fill: rgb(56%,93%,56%); fill-rule: evenodd;"/>
			<polygon points="311.4893 200.5765, 266.4675 200.5765, 266.4675 210.8268, 250.0671 190.3262, 266.4675 169.8256, 266.4675 180.0759, 311.4893 180.0759" style="stroke: rgb(56%,93%,56%); stroke-linecap: round; stroke-width: 1; fill: rgb(56%,93%,56%); fill-rule: evenodd;"/>
			<polygon points="368.3063 200.5765, 329.5016 200.5765, 329.5016 210.8268, 313.1011 190.3262, 329.5016 169.8256, 329.5016 180.0759, 368.3063 180.0759" style="stroke: rgb(56%,93%,56%); stroke-linecap: round; stroke-width: 1; fill: rgb(56%,93%,56%); fill-rule: evenodd;"/>
			<polygon points="475.2627 200.5765, 384.1311 200.5765, 384.1311 210.8268, 367.7306 190.3262, 384.1311 169.8256, 384.1311 180.0759, 475.2627 180.0759" style="stroke: rgb(56%,93%,56%); stroke-linecap: round; stroke-width: 1; fill: rgb(56%,93%,56%); fill-rule: evenodd;"/>
			<polygon points="567.7127 200.5765, 491.0875 200.5765, 491.0875 210.8268, 474.6871 190.3262, 491.0875 169.8256, 491.0875 180.0759, 567.7127 180.0759" style="stroke: rgb(56%,93%,56%); stroke-linecap: round; stroke-width: 1; fill: rgb(56%,93%,56%); fill-rule: evenodd;"/>
			<polygon points="676.799 200.5765, 597.9288 200.5765, 597.9288 210.8268, 581.5283 190.3262, 597.9288 169.8256, 597.9288 180.0759, 676.799 180.0759" style="stroke: rgb(56%,93%,56%); stroke-linecap: round; stroke-width: 1; fill: rgb(56%,93%,56%); fill-rule: evenodd;"/>
			<polygon points="764.5862 200.5765, 694.1781 200.5765, 694.1781 210.8268, 677.7776 190.3262, 694.1781 169.8256, 694.1781 180.0759, 764.5862 180.0759" style="stroke: rgb(56%,93%,56%); stroke-linecap: round; stroke-width: 1; fill: rgb(56%,93%,56%); fill-rule: evenodd;"/>
			<polygon points="842.9326 200.5765, 788.0671 200.5765, 788.0671 210.8268, 771.6667 190.3262, 788.0671 169.8256, 788.0671 180.0759, 842.9326 180.0759" style="stroke: rgb(56%,93%,56%); stroke-linecap: round; stroke-width: 1; fill: rgb(56%,93%,56%); fill-rule: evenodd;"/>
			<polygon points="861.8716 241.5776, 870.2818 241.5776, 870.2818 251.8279, 886.6823 231.3273, 870.2818 210.8268, 870.2818 221.0771, 861.8716 221.0771" style="stroke: rgb(67%,84%,90%); stroke-linecap: round; stroke-width: 1; fill: rgb(67%,84%,90%); fill-rule: evenodd;"/>
			<polygon points="886.5096 241.5776, 895.6106 241.5776, 895.6106 251.8279, 912.011 231.3273, 895.6106 210.8268, 895.6106 221.0771, 886.5096 221.0771" style="stroke: rgb(67%,84%,90%); stroke-linecap: round; stroke-width: 1; fill: rgb(67%,84%,90%); fill-rule: evenodd;"/>
			<polygon points="939.0667 200.5765, 927.7207 200.5765, 927.7207 210.8268, 911.3202 190.3262, 927.7207 169.8256, 927.7207 180.0759, 939.0667 180.0759" style="stroke: rgb(56%,93%,56%); stroke-linecap: round; stroke-width: 1; fill: rgb(56%,93%,56%); fill-rule: evenodd;"/>
			<polygon points="968.828 200.5765, 956.9639 200.5765, 956.9639 210.8268, 940.5634 190.3262, 956.9639 169.8256, 956.9639 180.0759, 968.828 180.0759" style="stroke: rgb(56%,93%,56%); stroke-linecap: round; stroke-width: 1; fill: rgb(56%,93%,56%); fill-rule: evenodd;"/>
			<polygon points="1081.886 200.5765, 985.0558 200.5765, 985.0558 210.8268, 968.6553 190.3262, 985.0558 169.8256, 985.0558 180.0759, 1081.886 180.0759" style="stroke: rgb(56%,93%,56%); stroke-linecap: round; stroke-width: 1; fill: rgb(56%,93%,56%); fill-rule: evenodd;"/>
			<polygon points="1160.521 200.5765, 1134.495 200.5765, 1134.495 210.8268, 1118.095 190.3262, 1134.495 169.8256, 1134.495 180.0759, 1160.521 180.0759" style="stroke: rgb(56%,93%,56%); stroke-linecap: round; stroke-width: 1; fill: rgb(56%,93%,56%); fill-rule: evenodd;"/>
			<polygon points="1191.663 200.5765, 1176.345 200.5765, 1176.345 210.8268, 1159.945 190.3262, 1176.345 169.8256, 1176.345 180.0759, 1191.663 180.0759" style="stroke: rgb(56%,93%,56%); stroke-linecap: round; stroke-width: 1; fill: rgb(56%,93%,56%); fill-rule: evenodd;"/>
			<polygon points="115.0188 487.5844, 87.26659 487.5844, 87.26659 497.8346, 70.86614 477.3341, 87.26659 456.8335, 87.26659 467.0838, 115.0188 467.0838" style="stroke: rgb(56%,93%,56%); stroke-linecap: round; stroke-width: 1; fill: rgb(56%,93%,56%); fill-rule: evenodd;"/>
			<polygon points="194.1136 487.5844, 146.674 487.5844, 146.674 497.8346, 130.2736 477.3341, 146.674 456.8335, 146.674 467.0838, 194.1136 467.0838" style="stroke: rgb(56%,93%,56%); stroke-linecap: round; stroke-width: 1; fill: rgb(56%,93%,56%); fill-rule: evenodd;"/>
			<polygon points="350.6337 487.5844, 213.0469 487.5844, 213.0469 497.8346, 196.6464 477.3341, 213.0469 456.8335, 213.0469 467.0838, 350.6337 467.0838" style="stroke: rgb(56%,93%,56%); stroke-linecap: round; stroke-width: 1; fill: rgb(56%,93%,56%); fill-rule: evenodd;"/>
			<polygon points="394.7864 487.5844, 367.725 487.5844, 367.725 497.8346, 351.3245 477.3341, 367.725 456.8335, 367.725 467.0838, 394.7864 467.0838" style="stroke: rgb(56%,93%,56%); stroke-linecap: round; stroke-width: 1; fill: rgb(56%,93%,56%); fill-rule: evenodd;"/>
			<polygon points="455.2875 487.5844, 421.1456 487.5844, 421.1456 497.8346, 404.7452 477.3341, 421.1456 456.8335, 421.1456 467.0838, 455.2875 467.0838" style="stroke: rgb(56%,93%,56%); stroke-linecap: round; stroke-width: 1; fill: rgb(56%,93%,56%); fill-rule: evenodd;"/>
			<polygon points="500.8217 487.5844, 479.1139 487.5844, 479.1139 497.8346, 462.7135 477.3341, 479.1139 456.8335, 479.1139 467.0838, 500.8217 467.0838" style="stroke: rgb(56%,93%,56%); stroke-linecap: round; stroke-width: 1; fill: rgb(56%,93%,56%); fill-rule: evenodd;"/>
			<polygon points="581.5859 487.5844, 518.9491 487.5844, 518.9491 497.8346, 502.5487 477.3341, 518.9491 456.8335, 518.9491 467.0838, 581.5859 467.0838" style="stroke: rgb(56%,93%,56%); stroke-linecap: round; stroke-width: 1; fill: rgb(56%,93%,56%); fill-rule: evenodd;"/>
			<polygon points="601.2733 528.5855, 659.938 528.5855, 659.938 538.8358, 676.3385 518.3352, 659.938 497.8346, 659.938 508.0849, 601.2733 508.0849" style="stroke: rgb(67%,84%,90%); stroke-linecap: round; stroke-width: 1; fill: rgb(67%,84%,90%); fill-rule: evenodd;"/>
			<polygon points="683.9371 528.5855, 754.3452 528.5855, 754.3452 538.8358, 770.7456 518.3352, 754.3452 497.8346, 754.3452 508.0849, 683.9371 508.0849" style="stroke: rgb(67%,84%,90%); stroke-linecap: round; stroke-width: 1; fill: rgb(67%,84%,90%); fill-rule: evenodd;"/>
			<polygon points="775.869 528.5855, 854.3938 528.5855, 854.3938 538.8358, 870.7942 518.3352, 854.3938 497.8346, 854.3938 508.0849, 775.869 508.0849" style="stroke: rgb(67%,84%,90%); stroke-linecap: round; stroke-width: 1; fill: rgb(67%,84%,90%); fill-rule: evenodd;"/>
			<polygon points="888.179 528.5855, 964.4587 528.5855, 964.4587 538.8358, 980.8592 518.3352, 964.4587 497.8346, 964.4587 508.0849, 888.179 508.0849" style="stroke: rgb(67%,84%,90%); stroke-linecap: round; stroke-width: 1; fill: rgb(67%,84%,90%); fill-rule: evenodd;"/>
			<polygon points="979.7654 528.5855, 1071.415 528.5855, 1071.415 538.8358, 1087.816 518.3352, 1071.415 497.8346, 1071.415 508.0849, 979.7654 508.0849" style="stroke: rgb(67%,84%,90%); stroke-linecap: round; stroke-width: 1; fill: rgb(67%,84%,90%); fill-rule: evenodd;"/>
			<polygon points="1087.067 528.5855, 1126.563 528.5855, 1126.563 538.8358, 1142.963 518.3352, 1126.563 497.8346, 1126.563 508.0849, 1087.067 508.0849" style="stroke: rgb(67%,84%,90%); stroke-linecap: round; stroke-width: 1; fill: rgb(67%,84%,90%); fill-rule: evenodd;"/>
			<polygon points="1143.769 528.5855, 1187.927 528.5855, 1187.927 538.8358, 1204.328 518.3352, 1187.927 497.8346, 1187.927 508.0849, 1143.769 508.0849" style="stroke: rgb(67%,84%,90%); stroke-linecap: round; stroke-width: 1; fill: rgb(67%,84%,90%); fill-rule: evenodd;"/>
			<polygon points="1213.135 528.5855, 1240.715 528.5855, 1240.715 538.8358, 1257.115 518.3352, 1240.715 497.8346, 1240.715 508.0849, 1213.135 508.0849" style="stroke: rgb(67%,84%,90%); stroke-linecap: round; stroke-width: 1; fill: rgb(67%,84%,90%); fill-rule: evenodd;"/>
			<polygon points="1264.426 528.5855, 1305.13 528.5855, 1305.13 538.8358, 1321.531 518.3352, 1305.13 497.8346, 1305.13 508.0849, 1264.426 508.0849" style="stroke: rgb(67%,84%,90%); stroke-linecap: round; stroke-width: 1; fill: rgb(67%,84%,90%); fill-rule: evenodd;"/>
			<path d="M 1195.347654,169.825647 L 1195.347654,251.827897 Z" style="stroke: rgb(0%,0%,0%); stroke-linecap: butt; stroke-width: 1;"/>
			<path d="M 70.866142,210.826772 L 1195.347654,210.826772 Z" style="stroke: rgb(0%,0%,0%); stroke-linecap: butt; stroke-width: 1;"/>
			<path d="M 70.866142,169.825647 L 70.866142,251.827897 Z" style="stroke: rgb(0%,0%,0%); stroke-linecap: butt; stroke-width: 1;"/>
			<path d="M 646.519624,210.826772 L 646.519624,231.327334 Z" style="stroke: rgb(0%,0%,0%); stroke-linecap: butt; stroke-width: 1;"/>
			<path d="M 646.519624,210.826772 L 646.519624,223.127109 Z" style="stroke: rgb(0%,0%,0%); stroke-linecap: butt; stroke-width: 1;"/>
			<path d="M 1346.399128,456.833521 L 1346.399128,538.835771 Z" style="stroke: rgb(0%,0%,0%); stroke-linecap: butt; stroke-width: 1;"/>
			<path d="M 70.866142,497.834646 L 1346.399128,497.834646 Z" style="stroke: rgb(0%,0%,0%); stroke-linecap: butt; stroke-width: 1;"/>
			<path d="M 70.866142,456.833521 L 70.866142,538.835771 Z" style="stroke: rgb(0%,0%,0%); stroke-linecap: butt; stroke-width: 1;"/>
			<path d="M 646.519624,497.834646 L 646.519624,518.335208 Z" style="stroke: rgb(0%,0%,0%); stroke-linecap: butt; stroke-width: 1;"/>
			<path d="M 1222.173106,497.834646 L 1222.173106,518.335208 Z" style="stroke: rgb(0%,0%,0%); stroke-linecap: butt; stroke-width: 1;"/>
			<path d="M 646.519624,497.834646 L 646.519624,510.134983 Z" style="stroke: rgb(0%,0%,0%); stroke-linecap: butt; stroke-width: 1;"/>
			<path d="M 1222.173106,497.834646 L 1222.173106,510.134983 Z" style="stroke: rgb(0%,0%,0%); stroke-linecap: butt; stroke-width: 1;"/>
			<g transform=" matrix(0.707107,0.707107,-0.707107,0.707107,646.519624,231.327334)">
				<text style="font-family: Helvetica; font-size: 6px;fill: rgb(0%,0%,0%); stroke:none;" transform="translate(0,0) scale(1,-1)" x="0" y="0">10000</text>
			</g>
			<g transform=" matrix(0.707107,0.707107,-0.707107,0.707107,646.519624,518.335208)">
				<text style="font-family: Helvetica; font-size: 6px;fill: rgb(0%,0%,0%); stroke:none;" transform="translate(0,0) scale(1,-1)" x="0" y="0">10000</text>
			</g>
			<g transform=" matrix(0.707107,0.707107,-0.707107,0.707107,1222.173106,518.335208)">
				<text style="font-family: Helvetica; font-size: 6px;fill: rgb(0%,0%,0%); stroke:none;" transform="translate(0,0) scale(1,-1)" x="0" y="0">20000</text>
			</g>
			<g transform=" matrix(0.707107,-0.707107,0.707107,0.707107,90.265664,169.825647)">
				<text style="font-family: Helvetica; font-size: 10px;fill: rgb(0%,0%,0%); stroke:none;" transform="translate(0,0) scale(1,-1)" x="0" y="0">Gene_00368</text>
			</g>
			<g transform=" matrix(0.707107,-0.707107,0.707107,0.707107,149.327711,169.825647)">
				<text style="font-family: Helvetica; font-size: 10px;fill: rgb(0%,0%,0%); stroke:none;" transform="translate(0,0) scale(1,-1)" x="0" y="0">Gene_00369</text>
			</g>
			<g transform=" matrix(0.707107,-0.707107,0.707107,0.707107,202.633224,169.825647)">
				<text style="font-family: Helvetica; font-size: 10px;fill: rgb(0%,0%,0%); stroke:none;" transform="translate(0,0) scale(1,-1)" x="0" y="0">Gene_00370</text>
			</g>
			<g transform=" matrix(0.707107,-0.707107,0.707107,0.707107,236.71191,169.825647)">
				<text style="font-family: Helvetica; font-size: 10px;fill: rgb(0%,0%,0%); stroke:none;" transform="translate(0,0) scale(1,-1)" x="0" y="0">Gene_00371</text>
			</g>
			<g transform=" matrix(0.707107,-0.707107,0.707107,0.707107,280.778184,169.825647)">
				<text style="font-family: Helvetica; font-size: 10px;fill: rgb(0%,0%,0%); stroke:none;" transform="translate(0,0) scale(1,-1)" x="0" y="0">Gene_00372</text>
			</g>
			<g transform=" matrix(0.707107,-0.707107,0.707107,0.707107,340.703712,169.825647)">
				<text style="font-family: Helvetica; font-size: 10px;fill: rgb(0%,0%,0%); stroke:none;" transform="translate(0,0) scale(1,-1)" x="0" y="0">Gene_00373</text>
			</g>
			<g transform=" matrix(0.707107,-0.707107,0.707107,0.707107,421.496678,169.825647)">
				<text style="font-family: Helvetica; font-size: 10px;fill: rgb(0%,0%,0%); stroke:none;" transform="translate(0,0) scale(1,-1)" x="0" y="0">Gene_00374</text>
			</g>
			<g transform=" matrix(0.707107,-0.707107,0.707107,0.707107,521.199861,169.825647)">
				<text style="font-family: Helvetica; font-size: 10px;fill: rgb(0%,0%,0%); stroke:none;" transform="translate(0,0) scale(1,-1)" x="0" y="0">Gene_00375</text>
			</g>
			<g transform=" matrix(0.707107,-0.707107,0.707107,0.707107,629.163671,169.825647)">
				<text style="font-family: Helvetica; font-size: 10px;fill: rgb(0%,0%,0%); stroke:none;" transform="translate(0,0) scale(1,-1)" x="0" y="0">Gene_00376</text>
			</g>
			<g transform=" matrix(0.707107,-0.707107,0.707107,0.707107,721.181881,169.825647)">
				<text style="font-family: Helvetica; font-size: 16px;fill: rgb(0%,0%,100%); stroke:none;" transform="translate(0,0) scale(1,-1)" x="0" y="0">Gene_00377 (82.2)</text>
			</g>
			<g transform=" matrix(0.707107,-0.707107,0.707107,0.707107,807.299641,169.825647)">
				<text style="font-family: Helvetica; font-size: 10px;fill: rgb(0%,0%,0%); stroke:none;" transform="translate(0,0) scale(1,-1)" x="0" y="0">Gene_00378</text>
			</g>
			<g transform=" matrix(0.707107,0.707107,-0.707107,0.707107,874.276924,251.827897)">
				<text style="font-family: Helvetica; font-size: 10px;fill: rgb(0%,0%,0%); stroke:none;" transform="translate(0,0) scale(1,-1)" x="0" y="0">Gene_00379</text>
			</g>
			<g transform=" matrix(0.707107,0.707107,-0.707107,0.707107,899.260285,251.827897)">
				<text style="font-family: Helvetica; font-size: 10px;fill: rgb(0%,0%,0%); stroke:none;" transform="translate(0,0) scale(1,-1)" x="0" y="0">Gene_00380</text>
			</g>
			<g transform=" matrix(0.707107,-0.707107,0.707107,0.707107,925.193475,169.825647)">
				<text style="font-family: Helvetica; font-size: 10px;fill: rgb(0%,0%,0%); stroke:none;" transform="translate(0,0) scale(1,-1)" x="0" y="0">Gene_00381</text>
			</g>
			<g transform=" matrix(0.707107,-0.707107,0.707107,0.707107,954.695716,169.825647)">
				<text style="font-family: Helvetica; font-size: 10px;fill: rgb(0%,0%,0%); stroke:none;" transform="translate(0,0) scale(1,-1)" x="0" y="0">Gene_00382</text>
			</g>
			<g transform=" matrix(0.707107,-0.707107,0.707107,0.707107,1025.270833,169.825647)">
				<text style="font-family: Helvetica; font-size: 10px;fill: rgb(0%,0%,0%); stroke:none;" transform="translate(0,0) scale(1,-1)" x="0" y="0">Gene_00383</text>
			</g>
			<g transform=" matrix(0.707107,-0.707107,0.707107,0.707107,1139.307787,169.825647)">
				<text style="font-family: Helvetica; font-size: 10px;fill: rgb(0%,0%,0%); stroke:none;" transform="translate(0,0) scale(1,-1)" x="0" y="0">Gene_00384</text>
			</g>
			<g transform=" matrix(0.707107,-0.707107,0.707107,0.707107,1175.804218,169.825647)">
				<text style="font-family: Helvetica; font-size: 10px;fill: rgb(0%,0%,0%); stroke:none;" transform="translate(0,0) scale(1,-1)" x="0" y="0">Gene_00385</text>
			</g>
			<g transform=" matrix(0.707107,-0.707107,0.707107,0.707107,92.942453,456.833521)">
				<text style="font-family: Helvetica; font-size: 10px;fill: rgb(0%,0%,0%); stroke:none;" transform="translate(0,0) scale(1,-1)" x="0" y="0">Gene_01583</text>
			</g>
			<g transform=" matrix(0.707107,-0.707107,0.707107,0.707107,162.193567,456.833521)">
				<text style="font-family: Helvetica; font-size: 10px;fill: rgb(0%,0%,0%); stroke:none;" transform="translate(0,0) scale(1,-1)" x="0" y="0">Gene_01584</text>
			</g>
			<g transform=" matrix(0.707107,-0.707107,0.707107,0.707107,273.640081,456.833521)">
				<text style="font-family: Helvetica; font-size: 10px;fill: rgb(0%,0%,0%); stroke:none;" transform="translate(0,0) scale(1,-1)" x="0" y="0">Gene_01585</text>
			</g>
			<g transform=" matrix(0.707107,-0.707107,0.707107,0.707107,373.055437,456.833521)">
				<text style="font-family: Helvetica; font-size: 10px;fill: rgb(0%,0%,0%); stroke:none;" transform="translate(0,0) scale(1,-1)" x="0" y="0">Gene_01586</text>
			</g>
			<g transform=" matrix(0.707107,-0.707107,0.707107,0.707107,430.016349,456.833521)">
				<text style="font-family: Helvetica; font-size: 10px;fill: rgb(0%,0%,0%); stroke:none;" transform="translate(0,0) scale(1,-1)" x="0" y="0">Gene_01587</text>
			</g>
			<g transform=" matrix(0.707107,-0.707107,0.707107,0.707107,481.767597,456.833521)">
				<text style="font-family: Helvetica; font-size: 10px;fill: rgb(0%,0%,0%); stroke:none;" transform="translate(0,0) scale(1,-1)" x="0" y="0">Gene_01588</text>
			</g>
			<g transform=" matrix(0.707107,-0.707107,0.707107,0.707107,542.0673,456.833521)">
				<text style="font-family: Helvetica; font-size: 10px;fill: rgb(0%,0%,0%); stroke:none;" transform="translate(0,0) scale(1,-1)" x="0" y="0">Gene_01589</text>
			</g>
			<g transform=" matrix(0.707107,0.707107,-0.707107,0.707107,638.805867,538.835771)">
				<text style="font-family: Helvetica; font-size: 10px;fill: rgb(0%,0%,0%); stroke:none;" transform="translate(0,0) scale(1,-1)" x="0" y="0">Gene_01590</text>
			</g>
			<g transform=" matrix(0.707107,0.707107,-0.707107,0.707107,727.341373,538.835771)">
				<text style="font-family: Helvetica; font-size: 16px;fill: rgb(0%,0%,100%); stroke:none;" transform="translate(0,0) scale(1,-1)" x="0" y="0">Gene_01591 (82.2)</text>
			</g>
			<g transform=" matrix(0.707107,0.707107,-0.707107,0.707107,823.331591,538.835771)">
				<text style="font-family: Helvetica; font-size: 10px;fill: rgb(0%,0%,0%); stroke:none;" transform="translate(0,0) scale(1,-1)" x="0" y="0">Gene_01592</text>
			</g>
			<g transform=" matrix(0.707107,0.707107,-0.707107,0.707107,934.519061,538.835771)">
				<text style="font-family: Helvetica; font-size: 10px;fill: rgb(0%,0%,0%); stroke:none;" transform="translate(0,0) scale(1,-1)" x="0" y="0">Gene_01593</text>
			</g>
			<g transform=" matrix(0.707107,0.707107,-0.707107,0.707107,1033.790504,538.835771)">
				<text style="font-family: Helvetica; font-size: 10px;fill: rgb(0%,0%,0%); stroke:none;" transform="translate(0,0) scale(1,-1)" x="0" y="0">Gene_01594</text>
			</g>
			<g transform=" matrix(0.707107,0.707107,-0.707107,0.707107,1115.01521,538.835771)">
				<text style="font-family: Helvetica; font-size: 10px;fill: rgb(0%,0%,0%); stroke:none;" transform="translate(0,0) scale(1,-1)" x="0" y="0">Gene_01595</text>
			</g>
			<g transform=" matrix(0.707107,0.707107,-0.707107,0.707107,1174.048475,538.835771)">
				<text style="font-family: Helvetica; font-size: 10px;fill: rgb(0%,0%,0%); stroke:none;" transform="translate(0,0) scale(1,-1)" x="0" y="0">Gene_01596</text>
			</g>
			<g transform=" matrix(0.707107,0.707107,-0.707107,0.707107,1235.125309,538.835771)">
				<text style="font-family: Helvetica; font-size: 10px;fill: rgb(0%,0%,0%); stroke:none;" transform="translate(0,0) scale(1,-1)" x="0" y="0">Gene_01597</text>
			</g>
			<g transform=" matrix(0.707107,0.707107,-0.707107,0.707107,1292.978484,538.835771)">
				<text style="font-family: Helvetica; font-size: 10px;fill: rgb(0%,0%,0%); stroke:none;" transform="translate(0,0) scale(1,-1)" x="0" y="0">Gene_01598</text>
			</g>
			<g transform=" matrix(1,0,-0,1,70,169.825647)">
				<text style="font-family: Helvetica; font-size: 12px;fill: rgb(60%,60%,60%); stroke:none;" transform="translate(0,0) scale(1,-1)" x="0" y="0">megahit_11876 (left 17611bp, right 7483bp)</text>
			</g>
			<g transform=" matrix(1,0,-0,1,70,456.833521)">
				<text style="font-family: Helvetica; font-size: 12px;fill: rgb(60%,60%,60%); stroke:none;" transform="translate(0,0) scale(1,-1)" x="0" y="0">megahit_68717 (left 43840bp, right 60124bp)</text>
			</g>
		</g>
	</g>
</svg>
