<?xml version="1.0" encoding="utf-8"?>
<!DOCTYPE svg
  PUBLIC '-//W3C//DTD SVG 1.0//EN'
  'http://www.w3.org/TR/2001/REC-SVG-20010904/DTD/svg10.dtd'>
<svg fill-rule="evenodd" height="708.6614173228346" preserveAspectRatio="xMinYMin meet" version="1.0" viewBox="0 0 1417 708" width="1417.3228346456692" xmlns="http://www.w3.org/2000/svg" xmlns:xlink="http://www.w3.org/1999/xlink">
	<title>...</title>
	<desc>...</desc>
	<clipPath id="clip">
		<rect height="708.6614173228346" width="1417.3228346456692" x="0" y="0"/>
	</clipPath>
	<g id="group" style="clip-path: url(#clip)" transform="scale(1,-1) translate(0,-708)">
		<g transform="">
			<polygon points="70.86614 169.8256, 1346.296 169.8256, 1346.296 251.8279, 70.86614 251.8279" style="stroke: rgb(96%,96%,96%); stroke-linecap: butt; stroke-width: 1; fill: rgb(96%,96%,96%); fill-rule: evenodd;"/>
			<polygon points="70.86614 456.8335, 538.3156 456.8335, 538.3156 538.8358, 70.86614 538.8358" style="stroke: rgb(96%,96%,96%); stroke-linecap: butt; stroke-width: 1; fill: rgb(96%,96%,96%); fill-rule: evenodd;"/>
			<polygon points="211.4055 456.8335, 310.9207 456.8335, 71.02639 251.8279, 170.5417 251.8279" style="stroke: rgb(100%,2%,2%); stroke-linecap: round; stroke-width: 1; fill: rgb(100%,2%,2%); fill-rule: evenodd;"/>
			<polygon points="93.7819 241.5776, 153.6605 241.5776, 153.6605 251.8279, 170.0609 231.3273, 153.6605 210.8268, 153.6605 221.0771, 93.7819 221.0771" style="stroke: rgb(67%,84%,90%); stroke-linecap: round; stroke-width: 1; fill: rgb(67%,84%,90%); fill-rule: evenodd;"/>
			<polygon points="409.3143 200.5765, 197.5186 200.5765, 197.5186 210.8268, 181.1182 190.3262, 197.5186 169.8256, 197.5186 180.0759, 409.3143 180.0759" style="stroke: rgb(56%,93%,56%); stroke-linecap: round; stroke-width: 1; fill: rgb(56%,93%,56%); fill-rule: evenodd;"/>
			<polygon points="527.5788 200.5765, 432.6055 200.5765, 432.6055 210.8268, 416.205 190.3262, 432.6055 169.8256, 432.6055 180.0759, 527.5788 180.0759" style="stroke: rgb(56%,93%,56%); stroke-linecap: round; stroke-width: 1; fill: rgb(56%,93%,56%); fill-rule: evenodd;"/>
			<polygon points="646.8049 200.5765, 566.254 200.5765, 566.254 210.8268, 549.8536 190.3262, 566.254 169.8256, 566.254 180.0759, 646.8049 180.0759" style="stroke: rgb(56%,93%,56%); stroke-linecap: round; stroke-width: 1; fill: rgb(56%,93%,56%); fill-rule: evenodd;"/>
			<polygon points="871.9562 200.5765, 675.5446 200.5765, 675.5446 210.8268, 659.1441 190.3262, 675.5446 169.8256, 675.5446 180.0759, 871.9562 180.0759" style="stroke: rgb(56%,93%,56%); stroke-linecap: round; stroke-width: 1; fill: rgb(56%,93%,56%); fill-rule: evenodd;"/>
			<polygon points="1013.938 200.5765, 885.7927 200.5765, 885.7927 210.8268, 869.3922 190.3262, 885.7927 169.8256, 885.7927 180.0759, 1013.938 180.0759" style="stroke: rgb(56%,93%,56%); stroke-linecap: round; stroke-width: 1; fill: rgb(56%,93%,56%); fill-rule: evenodd;"/>
			<polygon points="1047.751 241.5776, 1152.82 241.5776, 1152.82 251.8279, 1169.22 231.3273, 1152.82 210.8268, 1152.82 221.0771, 1047.751 221.0771" style="stroke: rgb(67%,84%,90%); stroke-linecap: round; stroke-width: 1; fill: rgb(67%,84%,90%); fill-rule: evenodd;"/>
			<polygon points="1173.387 241.5776, 1279.417 241.5776, 1279.417 251.8279, 1295.818 231.3273, 1279.417 210.8268, 1279.417 221.0771, 1173.387 221.0771" style="stroke: rgb(67%,84%,90%); stroke-linecap: round; stroke-width: 1; fill: rgb(67%,84%,90%); fill-rule: evenodd;"/>
			<polygon points="78.39789 528.5855, 94.04746 528.5855, 94.04746 538.8358, 110.4479 518.3352, 94.04746 497.8346, 94.04746 508.0849, 78.39789 508.0849" style="stroke: rgb(67%,84%,90%); stroke-linecap: round; stroke-width: 1; fill: rgb(67%,84%,90%); fill-rule: evenodd;"/>
			<polygon points="112.8517 528.5855, 162.6345 528.5855, 162.6345 538.8358, 179.0349 518.3352, 162.6345 497.8346, 162.6345 508.0849, 112.8517 508.0849" style="stroke: rgb(67%,84%,90%); stroke-linecap: round; stroke-width: 1; fill: rgb(67%,84%,90%); fill-rule: evenodd;"/>
			<polygon points="288.1652 487.5844, 228.2867 487.5844, 228.2867 497.8346, 211.8862 477.3341, 228.2867 456.8335, 228.2867 467.0838, 288.1652 467.0838" style="stroke: rgb(56%,93%,56%); stroke-linecap: round; stroke-width: 1; fill: rgb(56%,93%,56%); fill-rule: evenodd;"/>
			<polygon points="483.3498 487.5844, 384.5305 487.5844, 384.5305 497.8346, 368.13 477.3341, 384.5305 456.8335, 384.5305 467.0838, 483.3498 467.0838" style="stroke: rgb(56%,93%,56%); stroke-linecap: round; stroke-width: 1; fill: rgb(56%,93%,56%); fill-rule: evenodd;"/>
			<path d="M 1346.296443,169.825647 L 1346.296443,251.827897 Z" style="stroke: rgb(0%,0%,0%); stroke-linecap: butt; stroke-width: 1;"/>
			<path d="M 70.866142,210.826772 L 1346.296443,210.826772 Z" style="stroke: rgb(0%,0%,0%); stroke-linecap: butt; stroke-width: 1;"/>
			<path d="M 70.866142,169.825647 L 70.866142,251.827897 Z" style="stroke: rgb(0%,0%,0%); stroke-linecap: butt; stroke-width: 1;"/>
			<path d="M 538.315594,456.833521 L 538.315594,538.835771 Z" style="stroke: rgb(0%,0%,0%); stroke-linecap: butt; stroke-width: 1;"/>
			<path d="M 70.866142,497.834646 L 538.315594,497.834646 Z" style="stroke: rgb(0%,0%,0%); stroke-linecap: butt; stroke-width: 1;"/>
			<path d="M 70.866142,456.833521 L 70.866142,538.835771 Z" style="stroke: rgb(0%,0%,0%); stroke-linecap: butt; stroke-width: 1;"/>
			<g transform=" matrix(0.707107,0.707107,-0.707107,0.707107,131.921418,251.827897)">
				<text style="font-family: Helvetica; font-size: 16px;fill: rgb(0%,0%,100%); stroke:none;" transform="translate(0,0) scale(1,-1)" x="0" y="0">Gene_00866 (98.7)</text>
			</g>
			<g transform=" matrix(0.707107,-0.707107,0.707107,0.707107,295.216239,169.825647)">
				<text style="font-family: Helvetica; font-size: 10px;fill: rgb(0%,0%,0%); stroke:none;" transform="translate(0,0) scale(1,-1)" x="0" y="0">Gene_00867</text>
			</g>
			<g transform=" matrix(0.707107,-0.707107,0.707107,0.707107,471.89194,169.825647)">
				<text style="font-family: Helvetica; font-size: 10px;fill: rgb(0%,0%,0%); stroke:none;" transform="translate(0,0) scale(1,-1)" x="0" y="0">Gene_00868</text>
			</g>
			<g transform=" matrix(0.707107,-0.707107,0.707107,0.707107,598.329245,169.825647)">
				<text style="font-family: Helvetica; font-size: 10px;fill: rgb(0%,0%,0%); stroke:none;" transform="translate(0,0) scale(1,-1)" x="0" y="0">Gene_00869</text>
			</g>
			<g transform=" matrix(0.707107,-0.707107,0.707107,0.707107,765.550192,169.825647)">
				<text style="font-family: Helvetica; font-size: 10px;fill: rgb(0%,0%,0%); stroke:none;" transform="translate(0,0) scale(1,-1)" x="0" y="0">Gene_00870</text>
			</g>
			<g transform=" matrix(0.707107,-0.707107,0.707107,0.707107,941.665018,169.825647)">
				<text style="font-family: Helvetica; font-size: 10px;fill: rgb(0%,0%,0%); stroke:none;" transform="translate(0,0) scale(1,-1)" x="0" y="0">Gene_00871</text>
			</g>
			<g transform=" matrix(0.707107,0.707107,-0.707107,0.707107,1108.48534,251.827897)">
				<text style="font-family: Helvetica; font-size: 10px;fill: rgb(0%,0%,0%); stroke:none;" transform="translate(0,0) scale(1,-1)" x="0" y="0">Gene_00872</text>
			</g>
			<g transform=" matrix(0.707107,0.707107,-0.707107,0.707107,1234.602145,251.827897)">
				<text style="font-family: Helvetica; font-size: 10px;fill: rgb(0%,0%,0%); stroke:none;" transform="translate(0,0) scale(1,-1)" x="0" y="0">Gene_00873</text>
			</g>
			<g transform=" matrix(0.707107,0.707107,-0.707107,0.707107,94.422902,538.835771)">
				<text style="font-family: Helvetica; font-size: 10px;fill: rgb(0%,0%,0%); stroke:none;" transform="translate(0,0) scale(1,-1)" x="0" y="0">Gene_00044</text>
			</g>
			<g transform=" matrix(0.707107,0.707107,-0.707107,0.707107,145.943299,538.835771)">
				<text style="font-family: Helvetica; font-size: 10px;fill: rgb(0%,0%,0%); stroke:none;" transform="translate(0,0) scale(1,-1)" x="0" y="0">Gene_00045</text>
			</g>
			<g transform=" matrix(0.707107,-0.707107,0.707107,0.707107,250.025719,456.833521)">
				<text style="font-family: Helvetica; font-size: 16px;fill: rgb(0%,0%,100%); stroke:none;" transform="translate(0,0) scale(1,-1)" x="0" y="0">Gene_00046 (98.7)</text>
			</g>
			<g transform=" matrix(0.707107,-0.707107,0.707107,0.707107,425.73992,456.833521)">
				<text style="font-family: Helvetica; font-size: 10px;fill: rgb(0%,0%,0%); stroke:none;" transform="translate(0,0) scale(1,-1)" x="0" y="0">Gene_00047</text>
			</g>
			<g transform=" matrix(1,0,-0,1,70,169.825647)">
				<text style="font-family: Helvetica; font-size: 12px;fill: rgb(60%,60%,60%); stroke:none;" transform="translate(0,0) scale(1,-1)" x="0" y="0">megahit_42224 (left 143bp, right 7340bp)</text>
			</g>
			<g transform=" matrix(1,0,-0,1,70,456.833521)">
				<text style="font-family: Helvetica; font-size: 12px;fill: rgb(60%,60%,60%); stroke:none;" transform="translate(0,0) scale(1,-1)" x="0" y="0">megahit_3613 (left 880bp, right 1561bp)</text>
			</g>
		</g>
	</g>
</svg>
