<?xml version="1.0" encoding="utf-8"?>
<!DOCTYPE svg
  PUBLIC '-//W3C//DTD SVG 1.0//EN'
  'http://www.w3.org/TR/2001/REC-SVG-20010904/DTD/svg10.dtd'>
<svg fill-rule="evenodd" height="708.6614173228346" preserveAspectRatio="xMinYMin meet" version="1.0" viewBox="0 0 1417 708" width="1417.3228346456692" xmlns="http://www.w3.org/2000/svg" xmlns:xlink="http://www.w3.org/1999/xlink">
	<title>...</title>
	<desc>...</desc>
	<clipPath id="clip">
		<rect height="708.6614173228346" width="1417.3228346456692" x="0" y="0"/>
	</clipPath>
	<g id="group" style="clip-path: url(#clip)" transform="scale(1,-1) translate(0,-708)">
		<g transform="">
			<polygon points="70.86614 169.8256, 1147.568 169.8256, 1147.568 251.8279, 70.86614 251.8279" style="stroke: rgb(96%,96%,96%); stroke-linecap: butt; stroke-width: 1; fill: rgb(96%,96%,96%); fill-rule: evenodd;"/>
			<polygon points="70.86614 456.8335, 1346.396 456.8335, 1346.396 538.8358, 70.86614 538.8358" style="stroke: rgb(96%,96%,96%); stroke-linecap: butt; stroke-width: 1; fill: rgb(96%,96%,96%); fill-rule: evenodd;"/>
			<polygon points="689.2435 456.8335, 837.1256 456.8335, 627.1672 251.8279, 479.4074 251.8279" style="stroke: rgb(100%,34%,34%); stroke-linecap: round; stroke-width: 1; fill: rgb(100%,34%,34%); fill-rule: evenodd;"/>
			<polygon points="81.50779 241.5776, 263.0174 241.5776, 263.0174 251.8279, 279.4179 231.3273, 263.0174 210.8268, 263.0174 221.0771, 81.50779 221.0771" style="stroke: rgb(67%,84%,90%); stroke-linecap: round; stroke-width: 1; fill: rgb(67%,84%,90%); fill-rule: evenodd;"/>
			<polygon points="303.2698 241.5776, 353.5937 241.5776, 353.5937 251.8279, 369.9942 231.3273, 353.5937 210.8268, 353.5937 221.0771, 303.2698 221.0771" style="stroke: rgb(67%,84%,90%); stroke-linecap: round; stroke-width: 1; fill: rgb(67%,84%,90%); fill-rule: evenodd;"/>
			<polygon points="377.0886 241.5776, 412.3674 241.5776, 412.3674 251.8279, 428.7678 231.3273, 412.3674 210.8268, 412.3674 221.0771, 377.0886 221.0771" style="stroke: rgb(67%,84%,90%); stroke-linecap: round; stroke-width: 1; fill: rgb(67%,84%,90%); fill-rule: evenodd;"/>
			<polygon points="438.6144 241.5776, 453.1604 241.5776, 453.1604 251.8279, 469.5608 231.3273, 453.1604 210.8268, 453.1604 221.0771, 438.6144 221.0771" style="stroke: rgb(67%,84%,90%); stroke-linecap: round; stroke-width: 1; fill: rgb(67%,84%,90%); fill-rule: evenodd;"/>
			<polygon points="479.4074 241.5776, 507.1636 241.5776, 507.1636 251.8279, 523.5641 231.3273, 507.1636 210.8268, 507.1636 221.0771, 479.4074 221.0771" style="stroke: rgb(67%,84%,90%); stroke-linecap: round; stroke-width: 1; fill: rgb(67%,84%,90%); fill-rule: evenodd;"/>
			<polygon points="524.9096 241.5776, 610.094 241.5776, 610.094 251.8279, 626.4945 231.3273, 610.094 210.8268, 610.094 221.0771, 524.9096 221.0771" style="stroke: rgb(67%,84%,90%); stroke-linecap: round; stroke-width: 1; fill: rgb(67%,84%,90%); fill-rule: evenodd;"/>
			<polygon points="661.1104 241.5776, 680.4267 241.5776, 680.4267 251.8279, 696.8272 231.3273, 680.4267 210.8268, 680.4267 221.0771, 661.1104 221.0771" style="stroke: rgb(67%,84%,90%); stroke-linecap: round; stroke-width: 1; fill: rgb(67%,84%,90%); fill-rule: evenodd;"/>
			<polygon points="696.4602 241.5776, 732.2894 241.5776, 732.2894 251.8279, 748.6899 231.3273, 732.2894 210.8268, 732.2894 221.0771, 696.4602 221.0771" style="stroke: rgb(67%,84%,90%); stroke-linecap: round; stroke-width: 1; fill: rgb(67%,84%,90%); fill-rule: evenodd;"/>
			<polygon points="775.0494 241.5776, 802.9891 241.5776, 802.9891 251.8279, 819.3896 231.3273, 802.9891 210.8268, 802.9891 221.0771, 775.0494 221.0771" style="stroke: rgb(67%,84%,90%); stroke-linecap: round; stroke-width: 1; fill: rgb(67%,84%,90%); fill-rule: evenodd;"/>
			<polygon points="843.2415 241.5776, 864.0257 241.5776, 864.0257 251.8279, 880.4261 231.3273, 864.0257 210.8268, 864.0257 221.0771, 843.2415 221.0771" style="stroke: rgb(67%,84%,90%); stroke-linecap: round; stroke-width: 1; fill: rgb(67%,84%,90%); fill-rule: evenodd;"/>
			<polygon points="885.1353 241.5776, 888.6727 241.5776, 888.6727 251.8279, 905.0731 231.3273, 888.6727 210.8268, 888.6727 221.0771, 885.1353 221.0771" style="stroke: rgb(67%,84%,90%); stroke-linecap: round; stroke-width: 1; fill: rgb(67%,84%,90%); fill-rule: evenodd;"/>
			<polygon points="904.1557 241.5776, 919.0686 241.5776, 919.0686 251.8279, 935.4691 231.3273, 919.0686 210.8268, 919.0686 221.0771, 904.1557 221.0771" style="stroke: rgb(67%,84%,90%); stroke-linecap: round; stroke-width: 1; fill: rgb(67%,84%,90%); fill-rule: evenodd;"/>
			<polygon points="945.3157 241.5776, 945.3157 251.8279, 957.1805 231.3273, 945.3157 210.8268, 945.3157 221.0771" style="stroke: rgb(67%,84%,90%); stroke-linecap: round; stroke-width: 1; fill: rgb(67%,84%,90%); fill-rule: evenodd;"/>
			<polygon points="968.3726 241.5776, 975.7629 241.5776, 975.7629 251.8279, 992.1634 231.3273, 975.7629 210.8268, 975.7629 221.0771, 968.3726 221.0771" style="stroke: rgb(67%,84%,90%); stroke-linecap: round; stroke-width: 1; fill: rgb(67%,84%,90%); fill-rule: evenodd;"/>
			<polygon points="993.1419 241.5776, 1050.988 241.5776, 1050.988 251.8279, 1067.389 231.3273, 1050.988 210.8268, 1050.988 221.0771, 993.1419 221.0771" style="stroke: rgb(67%,84%,90%); stroke-linecap: round; stroke-width: 1; fill: rgb(67%,84%,90%); fill-rule: evenodd;"/>
			<polygon points="1067.022 241.5776, 1083.586 241.5776, 1083.586 251.8279, 1099.986 231.3273, 1083.586 210.8268, 1083.586 221.0771, 1067.022 221.0771" style="stroke: rgb(67%,84%,90%); stroke-linecap: round; stroke-width: 1; fill: rgb(67%,84%,90%); fill-rule: evenodd;"/>
			<polygon points="1111.117 241.5776, 1131.168 241.5776, 1131.168 251.8279, 1147.568 231.3273, 1131.168 210.8268, 1131.168 221.0771, 1111.117 221.0771" style="stroke: rgb(67%,84%,90%); stroke-linecap: round; stroke-width: 1; fill: rgb(67%,84%,90%); fill-rule: evenodd;"/>
			<polygon points="70.86614 528.5855, 93.30157 528.5855, 93.30157 538.8358, 109.702 518.3352, 93.30157 497.8346, 93.30157 508.0849, 70.86614 508.0849" style="stroke: rgb(67%,84%,90%); stroke-linecap: round; stroke-width: 1; fill: rgb(67%,84%,90%); fill-rule: evenodd;"/>
			<polygon points="111.4756 528.5855, 155.1944 528.5855, 155.1944 538.8358, 171.5948 518.3352, 155.1944 497.8346, 155.1944 508.0849, 111.4756 508.0849" style="stroke: rgb(67%,84%,90%); stroke-linecap: round; stroke-width: 1; fill: rgb(67%,84%,90%); fill-rule: evenodd;"/>
			<polygon points="175.6924 528.5855, 188.4036 528.5855, 188.4036 538.8358, 204.8041 518.3352, 188.4036 497.8346, 188.4036 508.0849, 175.6924 508.0849" style="stroke: rgb(67%,84%,90%); stroke-linecap: round; stroke-width: 1; fill: rgb(67%,84%,90%); fill-rule: evenodd;"/>
			<polygon points="206.0884 528.5855, 216.5979 528.5855, 216.5979 538.8358, 232.9983 518.3352, 216.5979 497.8346, 216.5979 508.0849, 206.0884 508.0849" style="stroke: rgb(67%,84%,90%); stroke-linecap: round; stroke-width: 1; fill: rgb(67%,84%,90%); fill-rule: evenodd;"/>
			<polygon points="250.4286 487.5844, 249.6434 487.5844, 249.6434 497.8346, 233.2429 477.3341, 249.6434 456.8335, 249.6434 467.0838, 250.4286 467.0838" style="stroke: rgb(56%,93%,56%); stroke-linecap: round; stroke-width: 1; fill: rgb(56%,93%,56%); fill-rule: evenodd;"/>
			<polygon points="258.1958 528.5855, 283.1999 528.5855, 283.1999 538.8358, 299.6003 518.3352, 283.1999 497.8346, 283.1999 508.0849, 258.1958 508.0849" style="stroke: rgb(67%,84%,90%); stroke-linecap: round; stroke-width: 1; fill: rgb(67%,84%,90%); fill-rule: evenodd;"/>
			<polygon points="383.2656 487.5844, 343.7669 487.5844, 343.7669 497.8346, 327.3664 477.3341, 343.7669 456.8335, 343.7669 467.0838, 383.2656 467.0838" style="stroke: rgb(56%,93%,56%); stroke-linecap: round; stroke-width: 1; fill: rgb(56%,93%,56%); fill-rule: evenodd;"/>
			<polygon points="418.9213 487.5844, 400.5223 487.5844, 400.5223 497.8346, 384.1219 477.3341, 400.5223 456.8335, 400.5223 467.0838, 418.9213 467.0838" style="stroke: rgb(56%,93%,56%); stroke-linecap: round; stroke-width: 1; fill: rgb(56%,93%,56%); fill-rule: evenodd;"/>
			<polygon points="457.2679 487.5844, 448.2262 487.5844, 448.2262 497.8346, 431.8258 477.3341, 448.2262 456.8335, 448.2262 467.0838, 457.2679 467.0838" style="stroke: rgb(56%,93%,56%); stroke-linecap: round; stroke-width: 1; fill: rgb(56%,93%,56%); fill-rule: evenodd;"/>
			<polygon points="483.3827 528.5855, 528.0188 528.5855, 528.0188 538.8358, 544.4193 518.3352, 528.0188 497.8346, 528.0188 508.0849, 483.3827 508.0849" style="stroke: rgb(67%,84%,90%); stroke-linecap: round; stroke-width: 1; fill: rgb(67%,84%,90%); fill-rule: evenodd;"/>
			<polygon points="547.2937 528.5855, 603.8558 528.5855, 603.8558 538.8358, 620.2563 518.3352, 603.8558 497.8346, 603.8558 508.0849, 547.2937 508.0849" style="stroke: rgb(67%,84%,90%); stroke-linecap: round; stroke-width: 1; fill: rgb(67%,84%,90%); fill-rule: evenodd;"/>
			<polygon points="682.4548 487.5844, 639.1031 487.5844, 639.1031 497.8346, 622.7026 477.3341, 639.1031 456.8335, 639.1031 467.0838, 682.4548 467.0838" style="stroke: rgb(56%,93%,56%); stroke-linecap: round; stroke-width: 1; fill: rgb(56%,93%,56%); fill-rule: evenodd;"/>
			<polygon points="689.2435 528.5855, 716.9997 528.5855, 716.9997 538.8358, 733.4002 518.3352, 716.9997 497.8346, 716.9997 508.0849, 689.2435 508.0849" style="stroke: rgb(67%,84%,90%); stroke-linecap: round; stroke-width: 1; fill: rgb(67%,84%,90%); fill-rule: evenodd;"/>
			<polygon points="734.868 528.5855, 820.0524 528.5855, 820.0524 538.8358, 836.4529 518.3352, 820.0524 497.8346, 820.0524 508.0849, 734.868 508.0849" style="stroke: rgb(67%,84%,90%); stroke-linecap: round; stroke-width: 1; fill: rgb(67%,84%,90%); fill-rule: evenodd;"/>
			<polygon points="844.2812 528.5855, 874.2392 528.5855, 874.2392 538.8358, 890.6396 518.3352, 874.2392 497.8346, 874.2392 508.0849, 844.2812 508.0849" style="stroke: rgb(67%,84%,90%); stroke-linecap: round; stroke-width: 1; fill: rgb(67%,84%,90%); fill-rule: evenodd;"/>
			<polygon points="890.028 528.5855, 943.838 528.5855, 943.838 538.8358, 960.2384 518.3352, 943.838 497.8346, 943.838 508.0849, 890.028 508.0849" style="stroke: rgb(67%,84%,90%); stroke-linecap: round; stroke-width: 1; fill: rgb(67%,84%,90%); fill-rule: evenodd;"/>
			<polygon points="964.1526 528.5855, 964.1526 538.8358, 977.1183 518.3352, 964.1526 497.8346, 964.1526 508.0849" style="stroke: rgb(67%,84%,90%); stroke-linecap: round; stroke-width: 1; fill: rgb(67%,84%,90%); fill-rule: evenodd;"/>
			<polygon points="985.9863 528.5855, 1024.017 528.5855, 1024.017 538.8358, 1040.418 518.3352, 1024.017 497.8346, 1024.017 508.0849, 985.9863 508.0849" style="stroke: rgb(67%,84%,90%); stroke-linecap: round; stroke-width: 1; fill: rgb(67%,84%,90%); fill-rule: evenodd;"/>
			<polygon points="1041.335 528.5855, 1063.22 528.5855, 1063.22 538.8358, 1079.621 518.3352, 1063.22 497.8346, 1063.22 508.0849, 1041.335 508.0849" style="stroke: rgb(67%,84%,90%); stroke-linecap: round; stroke-width: 1; fill: rgb(67%,84%,90%); fill-rule: evenodd;"/>
			<polygon points="1095.644 528.5855, 1125.052 528.5855, 1125.052 538.8358, 1141.452 518.3352, 1125.052 497.8346, 1125.052 508.0849, 1095.644 508.0849" style="stroke: rgb(67%,84%,90%); stroke-linecap: round; stroke-width: 1; fill: rgb(67%,84%,90%); fill-rule: evenodd;"/>
			<polygon points="1139.25 528.5855, 1162.053 528.5855, 1162.053 538.8358, 1178.453 518.3352, 1162.053 497.8346, 1162.053 508.0849, 1139.25 508.0849" style="stroke: rgb(67%,84%,90%); stroke-linecap: round; stroke-width: 1; fill: rgb(67%,84%,90%); fill-rule: evenodd;"/>
			<polygon points="1188.422 528.5855, 1228.838 528.5855, 1228.838 538.8358, 1245.239 518.3352, 1228.838 497.8346, 1228.838 508.0849, 1188.422 508.0849" style="stroke: rgb(67%,84%,90%); stroke-linecap: round; stroke-width: 1; fill: rgb(67%,84%,90%); fill-rule: evenodd;"/>
			<polygon points="1274.901 487.5844, 1263.474 487.5844, 1263.474 497.8346, 1247.074 477.3341, 1263.474 456.8335, 1263.474 467.0838, 1274.901 467.0838" style="stroke: rgb(56%,93%,56%); stroke-linecap: round; stroke-width: 1; fill: rgb(56%,93%,56%); fill-rule: evenodd;"/>
			<polygon points="1310.556 487.5844, 1296.561 487.5844, 1296.561 497.8346, 1280.16 477.3341, 1296.561 456.8335, 1296.561 467.0838, 1310.556 467.0838" style="stroke: rgb(56%,93%,56%); stroke-linecap: round; stroke-width: 1; fill: rgb(56%,93%,56%); fill-rule: evenodd;"/>
			<polygon points="1346.396 487.5844, 1336.253 487.5844, 1336.253 497.8346, 1319.853 477.3341, 1336.253 456.8335, 1336.253 467.0838, 1346.396 467.0838" style="stroke: rgb(56%,93%,56%); stroke-linecap: round; stroke-width: 1; fill: rgb(56%,93%,56%); fill-rule: evenodd;"/>
			<path d="M 1147.568048,169.825647 L 1147.568048,251.827897 Z" style="stroke: rgb(0%,0%,0%); stroke-linecap: butt; stroke-width: 1;"/>
			<path d="M 70.866142,210.826772 L 1147.568048,210.826772 Z" style="stroke: rgb(0%,0%,0%); stroke-linecap: butt; stroke-width: 1;"/>
			<path d="M 70.866142,169.825647 L 70.866142,251.827897 Z" style="stroke: rgb(0%,0%,0%); stroke-linecap: butt; stroke-width: 1;"/>
			<path d="M 682.454842,210.826772 L 682.454842,231.327334 Z" style="stroke: rgb(0%,0%,0%); stroke-linecap: butt; stroke-width: 1;"/>
			<path d="M 682.454842,210.826772 L 682.454842,223.127109 Z" style="stroke: rgb(0%,0%,0%); stroke-linecap: butt; stroke-width: 1;"/>
			<path d="M 1346.395534,456.833521 L 1346.395534,538.835771 Z" style="stroke: rgb(0%,0%,0%); stroke-linecap: butt; stroke-width: 1;"/>
			<path d="M 70.866142,497.834646 L 1346.395534,497.834646 Z" style="stroke: rgb(0%,0%,0%); stroke-linecap: butt; stroke-width: 1;"/>
			<path d="M 70.866142,456.833521 L 70.866142,538.835771 Z" style="stroke: rgb(0%,0%,0%); stroke-linecap: butt; stroke-width: 1;"/>
			<path d="M 682.454842,497.834646 L 682.454842,518.335208 Z" style="stroke: rgb(0%,0%,0%); stroke-linecap: butt; stroke-width: 1;"/>
			<path d="M 1294.043541,497.834646 L 1294.043541,518.335208 Z" style="stroke: rgb(0%,0%,0%); stroke-linecap: butt; stroke-width: 1;"/>
			<path d="M 682.454842,497.834646 L 682.454842,510.134983 Z" style="stroke: rgb(0%,0%,0%); stroke-linecap: butt; stroke-width: 1;"/>
			<path d="M 1294.043541,497.834646 L 1294.043541,510.134983 Z" style="stroke: rgb(0%,0%,0%); stroke-linecap: butt; stroke-width: 1;"/>
			<g transform=" matrix(0.707107,0.707107,-0.707107,0.707107,682.454842,231.327334)">
				<text style="font-family: Helvetica; font-size: 6px;fill: rgb(0%,0%,0%); stroke:none;" transform="translate(0,0) scale(1,-1)" x="0" y="0">10000</text>
			</g>
			<g transform=" matrix(0.707107,0.707107,-0.707107,0.707107,682.454842,518.335208)">
				<text style="font-family: Helvetica; font-size: 6px;fill: rgb(0%,0%,0%); stroke:none;" transform="translate(0,0) scale(1,-1)" x="0" y="0">10000</text>
			</g>
			<g transform=" matrix(0.707107,0.707107,-0.707107,0.707107,1294.043541,518.335208)">
				<text style="font-family: Helvetica; font-size: 6px;fill: rgb(0%,0%,0%); stroke:none;" transform="translate(0,0) scale(1,-1)" x="0" y="0">20000</text>
			</g>
			<g transform=" matrix(0.707107,0.707107,-0.707107,0.707107,180.462837,251.827897)">
				<text style="font-family: Helvetica; font-size: 10px;fill: rgb(0%,0%,0%); stroke:none;" transform="translate(0,0) scale(1,-1)" x="0" y="0">Gene_01638</text>
			</g>
			<g transform=" matrix(0.707107,0.707107,-0.707107,0.707107,336.632011,251.827897)">
				<text style="font-family: Helvetica; font-size: 10px;fill: rgb(0%,0%,0%); stroke:none;" transform="translate(0,0) scale(1,-1)" x="0" y="0">Gene_01639</text>
			</g>
			<g transform=" matrix(0.707107,0.707107,-0.707107,0.707107,402.928226,251.827897)">
				<text style="font-family: Helvetica; font-size: 10px;fill: rgb(0%,0%,0%); stroke:none;" transform="translate(0,0) scale(1,-1)" x="0" y="0">Gene_01640</text>
			</g>
			<g transform=" matrix(0.707107,0.707107,-0.707107,0.707107,454.087621,251.827897)">
				<text style="font-family: Helvetica; font-size: 10px;fill: rgb(0%,0%,0%); stroke:none;" transform="translate(0,0) scale(1,-1)" x="0" y="0">Gene_01641</text>
			</g>
			<g transform=" matrix(0.707107,0.707107,-0.707107,0.707107,501.485745,251.827897)">
				<text style="font-family: Helvetica; font-size: 16px;fill: rgb(0%,0%,100%); stroke:none;" transform="translate(0,0) scale(1,-1)" x="0" y="0">Gene_01642 (87.8)</text>
			</g>
			<g transform=" matrix(0.707107,0.707107,-0.707107,0.707107,575.702034,251.827897)">
				<text style="font-family: Helvetica; font-size: 10px;fill: rgb(0%,0%,0%); stroke:none;" transform="translate(0,0) scale(1,-1)" x="0" y="0">Gene_01643</text>
			</g>
			<g transform=" matrix(0.707107,0.707107,-0.707107,0.707107,678.968786,251.827897)">
				<text style="font-family: Helvetica; font-size: 10px;fill: rgb(0%,0%,0%); stroke:none;" transform="translate(0,0) scale(1,-1)" x="0" y="0">Gene_01644</text>
			</g>
			<g transform=" matrix(0.707107,0.707107,-0.707107,0.707107,722.57506,251.827897)">
				<text style="font-family: Helvetica; font-size: 10px;fill: rgb(0%,0%,0%); stroke:none;" transform="translate(0,0) scale(1,-1)" x="0" y="0">Gene_01645</text>
			</g>
			<g transform=" matrix(0.707107,0.707107,-0.707107,0.707107,797.219461,251.827897)">
				<text style="font-family: Helvetica; font-size: 10px;fill: rgb(0%,0%,0%); stroke:none;" transform="translate(0,0) scale(1,-1)" x="0" y="0">Gene_01646</text>
			</g>
			<g transform=" matrix(0.707107,0.707107,-0.707107,0.707107,861.833807,251.827897)">
				<text style="font-family: Helvetica; font-size: 10px;fill: rgb(0%,0%,0%); stroke:none;" transform="translate(0,0) scale(1,-1)" x="0" y="0">Gene_01647</text>
			</g>
			<g transform=" matrix(0.707107,0.707107,-0.707107,0.707107,895.104232,251.827897)">
				<text style="font-family: Helvetica; font-size: 10px;fill: rgb(0%,0%,0%); stroke:none;" transform="translate(0,0) scale(1,-1)" x="0" y="0">Gene_01648</text>
			</g>
			<g transform=" matrix(0.707107,0.707107,-0.707107,0.707107,919.812416,251.827897)">
				<text style="font-family: Helvetica; font-size: 10px;fill: rgb(0%,0%,0%); stroke:none;" transform="translate(0,0) scale(1,-1)" x="0" y="0">Gene_01649</text>
			</g>
			<g transform=" matrix(0.707107,0.707107,-0.707107,0.707107,951.248075,251.827897)">
				<text style="font-family: Helvetica; font-size: 10px;fill: rgb(0%,0%,0%); stroke:none;" transform="translate(0,0) scale(1,-1)" x="0" y="0">Gene_01650</text>
			</g>
			<g transform=" matrix(0.707107,0.707107,-0.707107,0.707107,980.267959,251.827897)">
				<text style="font-family: Helvetica; font-size: 10px;fill: rgb(0%,0%,0%); stroke:none;" transform="translate(0,0) scale(1,-1)" x="0" y="0">Gene_01651</text>
			</g>
			<g transform=" matrix(0.707107,0.707107,-0.707107,0.707107,1030.265335,251.827897)">
				<text style="font-family: Helvetica; font-size: 10px;fill: rgb(0%,0%,0%); stroke:none;" transform="translate(0,0) scale(1,-1)" x="0" y="0">Gene_01652</text>
			</g>
			<g transform=" matrix(0.707107,0.707107,-0.707107,0.707107,1083.504131,251.827897)">
				<text style="font-family: Helvetica; font-size: 10px;fill: rgb(0%,0%,0%); stroke:none;" transform="translate(0,0) scale(1,-1)" x="0" y="0">Gene_01653</text>
			</g>
			<g transform=" matrix(0.707107,0.707107,-0.707107,0.707107,1129.342704,251.827897)">
				<text style="font-family: Helvetica; font-size: 10px;fill: rgb(0%,0%,0%); stroke:none;" transform="translate(0,0) scale(1,-1)" x="0" y="0">Gene_01654</text>
			</g>
			<g transform=" matrix(0.707107,0.707107,-0.707107,0.707107,90.284083,538.835771)">
				<text style="font-family: Helvetica; font-size: 10px;fill: rgb(0%,0%,0%); stroke:none;" transform="translate(0,0) scale(1,-1)" x="0" y="0">Gene_00243</text>
			</g>
			<g transform=" matrix(0.707107,0.707107,-0.707107,0.707107,141.535216,538.835771)">
				<text style="font-family: Helvetica; font-size: 10px;fill: rgb(0%,0%,0%); stroke:none;" transform="translate(0,0) scale(1,-1)" x="0" y="0">Gene_00244</text>
			</g>
			<g transform=" matrix(0.707107,0.707107,-0.707107,0.707107,190.248256,538.835771)">
				<text style="font-family: Helvetica; font-size: 10px;fill: rgb(0%,0%,0%); stroke:none;" transform="translate(0,0) scale(1,-1)" x="0" y="0">Gene_00245</text>
			</g>
			<g transform=" matrix(0.707107,0.707107,-0.707107,0.707107,219.543355,538.835771)">
				<text style="font-family: Helvetica; font-size: 10px;fill: rgb(0%,0%,0%); stroke:none;" transform="translate(0,0) scale(1,-1)" x="0" y="0">Gene_00246</text>
			</g>
			<g transform=" matrix(0.707107,-0.707107,0.707107,0.707107,241.835763,456.833521)">
				<text style="font-family: Helvetica; font-size: 10px;fill: rgb(0%,0%,0%); stroke:none;" transform="translate(0,0) scale(1,-1)" x="0" y="0">Gene_00247</text>
			</g>
			<g transform=" matrix(0.707107,0.707107,-0.707107,0.707107,278.898038,538.835771)">
				<text style="font-family: Helvetica; font-size: 10px;fill: rgb(0%,0%,0%); stroke:none;" transform="translate(0,0) scale(1,-1)" x="0" y="0">Gene_00248</text>
			</g>
			<g transform=" matrix(0.707107,-0.707107,0.707107,0.707107,355.316046,456.833521)">
				<text style="font-family: Helvetica; font-size: 10px;fill: rgb(0%,0%,0%); stroke:none;" transform="translate(0,0) scale(1,-1)" x="0" y="0">Gene_00249</text>
			</g>
			<g transform=" matrix(0.707107,-0.707107,0.707107,0.707107,401.521572,456.833521)">
				<text style="font-family: Helvetica; font-size: 10px;fill: rgb(0%,0%,0%); stroke:none;" transform="translate(0,0) scale(1,-1)" x="0" y="0">Gene_00250</text>
			</g>
			<g transform=" matrix(0.707107,-0.707107,0.707107,0.707107,444.546837,456.833521)">
				<text style="font-family: Helvetica; font-size: 10px;fill: rgb(0%,0%,0%); stroke:none;" transform="translate(0,0) scale(1,-1)" x="0" y="0">Gene_00251</text>
			</g>
			<g transform=" matrix(0.707107,0.707107,-0.707107,0.707107,513.900996,538.835771)">
				<text style="font-family: Helvetica; font-size: 10px;fill: rgb(0%,0%,0%); stroke:none;" transform="translate(0,0) scale(1,-1)" x="0" y="0">Gene_00252</text>
			</g>
			<g transform=" matrix(0.707107,0.707107,-0.707107,0.707107,583.775005,538.835771)">
				<text style="font-family: Helvetica; font-size: 10px;fill: rgb(0%,0%,0%); stroke:none;" transform="translate(0,0) scale(1,-1)" x="0" y="0">Gene_00253</text>
			</g>
			<g transform=" matrix(0.707107,-0.707107,0.707107,0.707107,652.578734,456.833521)">
				<text style="font-family: Helvetica; font-size: 10px;fill: rgb(0%,0%,0%); stroke:none;" transform="translate(0,0) scale(1,-1)" x="0" y="0">Gene_00254</text>
			</g>
			<g transform=" matrix(0.707107,0.707107,-0.707107,0.707107,711.321828,538.835771)">
				<text style="font-family: Helvetica; font-size: 16px;fill: rgb(0%,0%,100%); stroke:none;" transform="translate(0,0) scale(1,-1)" x="0" y="0">Gene_00255 (87.8)</text>
			</g>
			<g transform=" matrix(0.707107,0.707107,-0.707107,0.707107,785.660435,538.835771)">
				<text style="font-family: Helvetica; font-size: 10px;fill: rgb(0%,0%,0%); stroke:none;" transform="translate(0,0) scale(1,-1)" x="0" y="0">Gene_00256</text>
			</g>
			<g transform=" matrix(0.707107,0.707107,-0.707107,0.707107,867.460423,538.835771)">
				<text style="font-family: Helvetica; font-size: 10px;fill: rgb(0%,0%,0%); stroke:none;" transform="translate(0,0) scale(1,-1)" x="0" y="0">Gene_00257</text>
			</g>
			<g transform=" matrix(0.707107,0.707107,-0.707107,0.707107,925.133238,538.835771)">
				<text style="font-family: Helvetica; font-size: 10px;fill: rgb(0%,0%,0%); stroke:none;" transform="translate(0,0) scale(1,-1)" x="0" y="0">Gene_00258</text>
			</g>
			<g transform=" matrix(0.707107,0.707107,-0.707107,0.707107,970.635437,538.835771)">
				<text style="font-family: Helvetica; font-size: 10px;fill: rgb(0%,0%,0%); stroke:none;" transform="translate(0,0) scale(1,-1)" x="0" y="0">Gene_00259</text>
			</g>
			<g transform=" matrix(0.707107,0.707107,-0.707107,0.707107,1013.20201,538.835771)">
				<text style="font-family: Helvetica; font-size: 10px;fill: rgb(0%,0%,0%); stroke:none;" transform="translate(0,0) scale(1,-1)" x="0" y="0">Gene_00260</text>
			</g>
			<g transform=" matrix(0.707107,0.707107,-0.707107,0.707107,1060.477817,538.835771)">
				<text style="font-family: Helvetica; font-size: 10px;fill: rgb(0%,0%,0%); stroke:none;" transform="translate(0,0) scale(1,-1)" x="0" y="0">Gene_00261</text>
			</g>
			<g transform=" matrix(0.707107,0.707107,-0.707107,0.707107,1118.548164,538.835771)">
				<text style="font-family: Helvetica; font-size: 10px;fill: rgb(0%,0%,0%); stroke:none;" transform="translate(0,0) scale(1,-1)" x="0" y="0">Gene_00262</text>
			</g>
			<g transform=" matrix(0.707107,0.707107,-0.707107,0.707107,1158.851859,538.835771)">
				<text style="font-family: Helvetica; font-size: 10px;fill: rgb(0%,0%,0%); stroke:none;" transform="translate(0,0) scale(1,-1)" x="0" y="0">Gene_00263</text>
			</g>
			<g transform=" matrix(0.707107,0.707107,-0.707107,0.707107,1216.830468,538.835771)">
				<text style="font-family: Helvetica; font-size: 10px;fill: rgb(0%,0%,0%); stroke:none;" transform="translate(0,0) scale(1,-1)" x="0" y="0">Gene_00264</text>
			</g>
			<g transform=" matrix(0.707107,-0.707107,0.707107,0.707107,1260.987172,456.833521)">
				<text style="font-family: Helvetica; font-size: 10px;fill: rgb(0%,0%,0%); stroke:none;" transform="translate(0,0) scale(1,-1)" x="0" y="0">Gene_00265</text>
			</g>
			<g transform=" matrix(0.707107,-0.707107,0.707107,0.707107,1295.358457,456.833521)">
				<text style="font-family: Helvetica; font-size: 10px;fill: rgb(0%,0%,0%); stroke:none;" transform="translate(0,0) scale(1,-1)" x="0" y="0">Gene_00266</text>
			</g>
			<g transform=" matrix(0.707107,-0.707107,0.707107,0.707107,1333.124059,456.833521)">
				<text style="font-family: Helvetica; font-size: 10px;fill: rgb(0%,0%,0%); stroke:none;" transform="translate(0,0) scale(1,-1)" x="0" y="0">Gene_00267</text>
			</g>
			<g transform=" matrix(1,0,-0,1,70,169.825647)">
				<text style="font-family: Helvetica; font-size: 12px;fill: rgb(60%,60%,60%); stroke:none;" transform="translate(0,0) scale(1,-1)" x="0" y="0">megahit_93708 (left 6680bp, right 32923bp)</text>
			</g>
			<g transform=" matrix(1,0,-0,1,70,456.833521)">
				<text style="font-family: Helvetica; font-size: 12px;fill: rgb(60%,60%,60%); stroke:none;" transform="translate(0,0) scale(1,-1)" x="0" y="0">megahit_55278 (left 20887bp, right 27044bp)</text>
			</g>
		</g>
	</g>
</svg>
