<?xml version="1.0" encoding="utf-8"?>
<!DOCTYPE svg
  PUBLIC '-//W3C//DTD SVG 1.0//EN'
  'http://www.w3.org/TR/2001/REC-SVG-20010904/DTD/svg10.dtd'>
<svg fill-rule="evenodd" height="708.6614173228346" preserveAspectRatio="xMinYMin meet" version="1.0" viewBox="0 0 1417 708" width="1417.3228346456692" xmlns="http://www.w3.org/2000/svg" xmlns:xlink="http://www.w3.org/1999/xlink">
	<title>...</title>
	<desc>...</desc>
	<clipPath id="clip">
		<rect height="708.6614173228346" width="1417.3228346456692" x="0" y="0"/>
	</clipPath>
	<g id="group" style="clip-path: url(#clip)" transform="scale(1,-1) translate(0,-708)">
		<g transform="">
			<polygon points="70.86614 169.8256, 1346.395 169.8256, 1346.395 251.8279, 70.86614 251.8279" style="stroke: rgb(96%,96%,96%); stroke-linecap: butt; stroke-width: 1; fill: rgb(96%,96%,96%); fill-rule: evenodd;"/>
			<polygon points="70.86614 456.8335, 1320.849 456.8335, 1320.849 538.8358, 70.86614 538.8358" style="stroke: rgb(96%,96%,96%); stroke-linecap: butt; stroke-width: 1; fill: rgb(96%,96%,96%); fill-rule: evenodd;"/>
			<polygon points="258.1367 456.8335, 403.2046 456.8335, 1060.672 251.8279, 1204.372 251.8279" style="stroke: rgb(100%,54%,54%); stroke-linecap: round; stroke-width: 1; fill: rgb(100%,54%,54%); fill-rule: evenodd;"/>
			<polygon points="645.1088 456.8335, 709.3762 456.8335, 733.5542 251.8279, 797.3865 251.8279" style="stroke: rgb(100%,32%,32%); stroke-linecap: round; stroke-width: 1; fill: rgb(100%,32%,32%); fill-rule: evenodd;"/>
			<polygon points="1094.173 456.8335, 1187.777 456.8335, 201.1413 251.8279, 297.2939 251.8279" style="stroke: rgb(100%,48%,48%); stroke-linecap: round; stroke-width: 1; fill: rgb(100%,48%,48%); fill-rule: evenodd;"/>
			<polygon points="122.2677 456.8335, 200.0226 456.8335, 1267.086 251.8279, 1345.027 251.8279" style="stroke: rgb(100%,47%,47%); stroke-linecap: round; stroke-width: 1; fill: rgb(100%,47%,47%); fill-rule: evenodd;"/>
			<polygon points="848.6637 456.8335, 935.4932 456.8335, 471.8229 251.8279, 557.9064 251.8279" style="stroke: rgb(100%,56%,56%); stroke-linecap: round; stroke-width: 1; fill: rgb(100%,56%,56%); fill-rule: evenodd;"/>
			<polygon points="562.1951 456.8335, 611.6698 456.8335, 836.1086 251.8279, 885.5833 251.8279" style="stroke: rgb(100%,49%,49%); stroke-linecap: round; stroke-width: 1; fill: rgb(100%,49%,49%); fill-rule: evenodd;"/>
			<polygon points="936.9227 456.8335, 1011.943 456.8335, 386.3608 251.8279, 461.5674 251.8279" style="stroke: rgb(100%,59%,59%); stroke-linecap: round; stroke-width: 1; fill: rgb(100%,59%,59%); fill-rule: evenodd;"/>
			<polygon points="445.7181 456.8335, 554.3015 456.8335, 905.1619 251.8279, 1014.429 251.8279" style="stroke: rgb(100%,68%,68%); stroke-linecap: round; stroke-width: 1; fill: rgb(100%,68%,68%); fill-rule: evenodd;"/>
			<polygon points="1251.299 456.8335, 1307.797 456.8335, 73.35231 251.8279, 129.664 251.8279" style="stroke: rgb(100%,68%,68%); stroke-linecap: round; stroke-width: 1; fill: rgb(100%,68%,68%); fill-rule: evenodd;"/>
			<polygon points="1017.972 456.8335, 1054.767 456.8335, 336.8861 251.8279, 373.3085 251.8279" style="stroke: rgb(100%,64%,64%); stroke-linecap: round; stroke-width: 1; fill: rgb(100%,64%,64%); fill-rule: evenodd;"/>
			<polygon points="1190.76 456.8335, 1215.56 456.8335, 165.4027 251.8279, 190.2022 251.8279" style="stroke: rgb(100%,71%,71%); stroke-linecap: round; stroke-width: 1; fill: rgb(100%,71%,71%); fill-rule: evenodd;"/>
			<polygon points="189.5807 200.5765, 87.26659 200.5765, 87.26659 210.8268, 70.86614 190.3262, 87.26659 169.8256, 87.26659 180.0759, 189.5807 180.0759" style="stroke: rgb(56%,93%,56%); stroke-linecap: round; stroke-width: 1; fill: rgb(56%,93%,56%); fill-rule: evenodd;"/>
			<polygon points="262.3632 200.5765, 215.0556 200.5765, 215.0556 210.8268, 198.6552 190.3262, 215.0556 169.8256, 215.0556 180.0759, 262.3632 180.0759" style="stroke: rgb(56%,93%,56%); stroke-linecap: round; stroke-width: 1; fill: rgb(56%,93%,56%); fill-rule: evenodd;"/>
			<polygon points="334.2135 200.5765, 284.2954 200.5765, 284.2954 210.8268, 267.8949 190.3262, 284.2954 169.8256, 284.2954 180.0759, 334.2135 180.0759" style="stroke: rgb(56%,93%,56%); stroke-linecap: round; stroke-width: 1; fill: rgb(56%,93%,56%); fill-rule: evenodd;"/>
			<polygon points="373.3085 200.5765, 352.4785 200.5765, 352.4785 210.8268, 336.0781 190.3262, 352.4785 169.8256, 352.4785 180.0759, 373.3085 180.0759" style="stroke: rgb(56%,93%,56%); stroke-linecap: round; stroke-width: 1; fill: rgb(56%,93%,56%); fill-rule: evenodd;"/>
			<polygon points="461.1945 200.5765, 396.5459 200.5765, 396.5459 210.8268, 380.1454 190.3262, 396.5459 169.8256, 396.5459 180.0759, 461.1945 180.0759" style="stroke: rgb(56%,93%,56%); stroke-linecap: round; stroke-width: 1; fill: rgb(56%,93%,56%); fill-rule: evenodd;"/>
			<polygon points="709.9356 200.5765, 488.2855 200.5765, 488.2855 210.8268, 471.885 190.3262, 488.2855 169.8256, 488.2855 180.0759, 709.9356 180.0759" style="stroke: rgb(56%,93%,56%); stroke-linecap: round; stroke-width: 1; fill: rgb(56%,93%,56%); fill-rule: evenodd;"/>
			<polygon points="795.957 200.5765, 749.9546 200.5765, 749.9546 210.8268, 733.5542 190.3262, 749.9546 169.8256, 749.9546 180.0759, 795.957 180.0759" style="stroke: rgb(56%,93%,56%); stroke-linecap: round; stroke-width: 1; fill: rgb(56%,93%,56%); fill-rule: evenodd;"/>
			<polygon points="813.4223 241.5776, 871.9177 241.5776, 871.9177 251.8279, 888.3181 231.3273, 871.9177 210.8268, 871.9177 221.0771, 813.4223 221.0771" style="stroke: rgb(67%,84%,90%); stroke-linecap: round; stroke-width: 1; fill: rgb(67%,84%,90%); fill-rule: evenodd;"/>
			<polygon points="986.7082 200.5765, 919.822 200.5765, 919.822 210.8268, 903.4216 190.3262, 919.822 169.8256, 919.822 180.0759, 986.7082 180.0759" style="stroke: rgb(56%,93%,56%); stroke-linecap: round; stroke-width: 1; fill: rgb(56%,93%,56%); fill-rule: evenodd;"/>
			<polygon points="996.5907 241.5776, 996.9098 241.5776, 996.9098 251.8279, 1013.31 231.3273, 996.9098 210.8268, 996.9098 221.0771, 996.5907 221.0771" style="stroke: rgb(67%,84%,90%); stroke-linecap: round; stroke-width: 1; fill: rgb(67%,84%,90%); fill-rule: evenodd;"/>
			<polygon points="1124.131 200.5765, 1053.329 200.5765, 1053.329 210.8268, 1036.929 190.3262, 1053.329 169.8256, 1053.329 180.0759, 1124.131 180.0759" style="stroke: rgb(56%,93%,56%); stroke-linecap: round; stroke-width: 1; fill: rgb(56%,93%,56%); fill-rule: evenodd;"/>
			<polygon points="1196.852 200.5765, 1140.967 200.5765, 1140.967 210.8268, 1124.566 190.3262, 1140.967 169.8256, 1140.967 180.0759, 1196.852 180.0759" style="stroke: rgb(56%,93%,56%); stroke-linecap: round; stroke-width: 1; fill: rgb(56%,93%,56%); fill-rule: evenodd;"/>
			<polygon points="1256.892 200.5765, 1222.078 200.5765, 1222.078 210.8268, 1205.677 190.3262, 1222.078 169.8256, 1222.078 180.0759, 1256.892 180.0759" style="stroke: rgb(56%,93%,56%); stroke-linecap: round; stroke-width: 1; fill: rgb(56%,93%,56%); fill-rule: evenodd;"/>
			<polygon points="1345.027 200.5765, 1283.362 200.5765, 1283.362 210.8268, 1266.961 190.3262, 1283.362 169.8256, 1283.362 180.0759, 1345.027 180.0759" style="stroke: rgb(56%,93%,56%); stroke-linecap: round; stroke-width: 1; fill: rgb(56%,93%,56%); fill-rule: evenodd;"/>
			<polygon points="71.30122 528.5855, 95.11454 528.5855, 95.11454 538.8358, 111.515 518.3352, 95.11454 497.8346, 95.11454 508.0849, 71.30122 508.0849" style="stroke: rgb(67%,84%,90%); stroke-linecap: round; stroke-width: 1; fill: rgb(67%,84%,90%); fill-rule: evenodd;"/>
			<polygon points="122.2677 528.5855, 183.7464 528.5855, 183.7464 538.8358, 200.1469 518.3352, 183.7464 497.8346, 183.7464 508.0849, 122.2677 508.0849" style="stroke: rgb(67%,84%,90%); stroke-linecap: round; stroke-width: 1; fill: rgb(67%,84%,90%); fill-rule: evenodd;"/>
			<polygon points="202.0115 528.5855, 239.8095 528.5855, 239.8095 538.8358, 256.21 518.3352, 239.8095 497.8346, 239.8095 508.0849, 202.0115 508.0849" style="stroke: rgb(67%,84%,90%); stroke-linecap: round; stroke-width: 1; fill: rgb(67%,84%,90%); fill-rule: evenodd;"/>
			<polygon points="260.5607 528.5855, 322.4124 528.5855, 322.4124 538.8358, 338.8129 518.3352, 322.4124 497.8346, 322.4124 508.0849, 260.5607 508.0849" style="stroke: rgb(67%,84%,90%); stroke-linecap: round; stroke-width: 1; fill: rgb(67%,84%,90%); fill-rule: evenodd;"/>
			<polygon points="339.3723 528.5855, 411.6659 528.5855, 411.6659 538.8358, 428.0663 518.3352, 411.6659 497.8346, 411.6659 508.0849, 339.3723 508.0849" style="stroke: rgb(67%,84%,90%); stroke-linecap: round; stroke-width: 1; fill: rgb(67%,84%,90%); fill-rule: evenodd;"/>
			<polygon points="463.4942 487.5844, 463.1752 487.5844, 463.1752 497.8346, 446.7747 477.3341, 463.1752 456.8335, 463.1752 467.0838, 463.4942 467.0838" style="stroke: rgb(56%,93%,56%); stroke-linecap: round; stroke-width: 1; fill: rgb(56%,93%,56%); fill-rule: evenodd;"/>
			<polygon points="476.6709 528.5855, 539.2684 528.5855, 539.2684 538.8358, 555.6689 518.3352, 539.2684 497.8346, 539.2684 508.0849, 476.6709 508.0849" style="stroke: rgb(67%,84%,90%); stroke-linecap: round; stroke-width: 1; fill: rgb(67%,84%,90%); fill-rule: evenodd;"/>
			<polygon points="634.3561 487.5844, 575.8607 487.5844, 575.8607 497.8346, 559.4603 477.3341, 575.8607 456.8335, 575.8607 467.0838, 634.3561 467.0838" style="stroke: rgb(56%,93%,56%); stroke-linecap: round; stroke-width: 1; fill: rgb(56%,93%,56%); fill-rule: evenodd;"/>
			<polygon points="646.6005 528.5855, 692.9757 528.5855, 692.9757 538.8358, 709.3762 518.3352, 692.9757 497.8346, 692.9757 508.0849, 646.6005 508.0849" style="stroke: rgb(67%,84%,90%); stroke-linecap: round; stroke-width: 1; fill: rgb(67%,84%,90%); fill-rule: evenodd;"/>
			<polygon points="721.0612 528.5855, 919.0305 528.5855, 919.0305 538.8358, 935.431 518.3352, 919.0305 497.8346, 919.0305 508.0849, 721.0612 508.0849" style="stroke: rgb(67%,84%,90%); stroke-linecap: round; stroke-width: 1; fill: rgb(67%,84%,90%); fill-rule: evenodd;"/>
			<polygon points="935.8039 528.5855, 1001.758 528.5855, 1001.758 538.8358, 1018.158 518.3352, 1001.758 497.8346, 1001.758 508.0849, 935.8039 508.0849" style="stroke: rgb(67%,84%,90%); stroke-linecap: round; stroke-width: 1; fill: rgb(67%,84%,90%); fill-rule: evenodd;"/>
			<polygon points="1017.972 528.5855, 1040.666 528.5855, 1040.666 538.8358, 1057.067 518.3352, 1040.666 497.8346, 1040.666 508.0849, 1017.972 508.0849" style="stroke: rgb(67%,84%,90%); stroke-linecap: round; stroke-width: 1; fill: rgb(67%,84%,90%); fill-rule: evenodd;"/>
			<polygon points="1056.88 528.5855, 1107.171 528.5855, 1107.171 538.8358, 1123.572 518.3352, 1107.171 497.8346, 1107.171 508.0849, 1056.88 508.0849" style="stroke: rgb(67%,84%,90%); stroke-linecap: round; stroke-width: 1; fill: rgb(67%,84%,90%); fill-rule: evenodd;"/>
			<polygon points="1126.928 528.5855, 1173.863 528.5855, 1173.863 538.8358, 1190.263 518.3352, 1173.863 497.8346, 1173.863 508.0849, 1126.928 508.0849" style="stroke: rgb(67%,84%,90%); stroke-linecap: round; stroke-width: 1; fill: rgb(67%,84%,90%); fill-rule: evenodd;"/>
			<polygon points="1191.382 528.5855, 1293.883 528.5855, 1293.883 538.8358, 1310.283 518.3352, 1293.883 497.8346, 1293.883 508.0849, 1191.382 508.0849" style="stroke: rgb(67%,84%,90%); stroke-linecap: round; stroke-width: 1; fill: rgb(67%,84%,90%); fill-rule: evenodd;"/>
			<path d="M 1346.394539,169.825647 L 1346.394539,251.827897 Z" style="stroke: rgb(0%,0%,0%); stroke-linecap: butt; stroke-width: 1;"/>
			<path d="M 70.866142,210.826772 L 1346.394539,210.826772 Z" style="stroke: rgb(0%,0%,0%); stroke-linecap: butt; stroke-width: 1;"/>
			<path d="M 70.866142,169.825647 L 70.866142,251.827897 Z" style="stroke: rgb(0%,0%,0%); stroke-linecap: butt; stroke-width: 1;"/>
			<path d="M 692.408095,210.826772 L 692.408095,231.327334 Z" style="stroke: rgb(0%,0%,0%); stroke-linecap: butt; stroke-width: 1;"/>
			<path d="M 1313.950049,210.826772 L 1313.950049,231.327334 Z" style="stroke: rgb(0%,0%,0%); stroke-linecap: butt; stroke-width: 1;"/>
			<path d="M 692.408095,210.826772 L 692.408095,223.127109 Z" style="stroke: rgb(0%,0%,0%); stroke-linecap: butt; stroke-width: 1;"/>
			<path d="M 1313.950049,210.826772 L 1313.950049,223.127109 Z" style="stroke: rgb(0%,0%,0%); stroke-linecap: butt; stroke-width: 1;"/>
			<path d="M 1320.849164,456.833521 L 1320.849164,538.835771 Z" style="stroke: rgb(0%,0%,0%); stroke-linecap: butt; stroke-width: 1;"/>
			<path d="M 70.866142,497.834646 L 1320.849164,497.834646 Z" style="stroke: rgb(0%,0%,0%); stroke-linecap: butt; stroke-width: 1;"/>
			<path d="M 70.866142,456.833521 L 70.866142,538.835771 Z" style="stroke: rgb(0%,0%,0%); stroke-linecap: butt; stroke-width: 1;"/>
			<path d="M 692.408095,497.834646 L 692.408095,518.335208 Z" style="stroke: rgb(0%,0%,0%); stroke-linecap: butt; stroke-width: 1;"/>
			<path d="M 1313.950049,497.834646 L 1313.950049,518.335208 Z" style="stroke: rgb(0%,0%,0%); stroke-linecap: butt; stroke-width: 1;"/>
			<path d="M 692.408095,497.834646 L 692.408095,510.134983 Z" style="stroke: rgb(0%,0%,0%); stroke-linecap: butt; stroke-width: 1;"/>
			<path d="M 1313.950049,497.834646 L 1313.950049,510.134983 Z" style="stroke: rgb(0%,0%,0%); stroke-linecap: butt; stroke-width: 1;"/>
			<g transform=" matrix(0.707107,0.707107,-0.707107,0.707107,692.408095,231.327334)">
				<text style="font-family: Helvetica; font-size: 6px;fill: rgb(0%,0%,0%); stroke:none;" transform="translate(0,0) scale(1,-1)" x="0" y="0">10000</text>
			</g>
			<g transform=" matrix(0.707107,0.707107,-0.707107,0.707107,1313.950049,231.327334)">
				<text style="font-family: Helvetica; font-size: 6px;fill: rgb(0%,0%,0%); stroke:none;" transform="translate(0,0) scale(1,-1)" x="0" y="0">20000</text>
			</g>
			<g transform=" matrix(0.707107,0.707107,-0.707107,0.707107,692.408095,518.335208)">
				<text style="font-family: Helvetica; font-size: 6px;fill: rgb(0%,0%,0%); stroke:none;" transform="translate(0,0) scale(1,-1)" x="0" y="0">10000</text>
			</g>
			<g transform=" matrix(0.707107,0.707107,-0.707107,0.707107,1313.950049,518.335208)">
				<text style="font-family: Helvetica; font-size: 6px;fill: rgb(0%,0%,0%); stroke:none;" transform="translate(0,0) scale(1,-1)" x="0" y="0">20000</text>
			</g>
			<g transform=" matrix(0.707107,-0.707107,0.707107,0.707107,130.223398,169.825647)">
				<text style="font-family: Helvetica; font-size: 10px;fill: rgb(0%,0%,0%); stroke:none;" transform="translate(0,0) scale(1,-1)" x="0" y="0">Gene_00128</text>
			</g>
			<g transform=" matrix(0.707107,-0.707107,0.707107,0.707107,230.509192,169.825647)">
				<text style="font-family: Helvetica; font-size: 10px;fill: rgb(0%,0%,0%); stroke:none;" transform="translate(0,0) scale(1,-1)" x="0" y="0">Gene_00129</text>
			</g>
			<g transform=" matrix(0.707107,-0.707107,0.707107,0.707107,301.054204,169.825647)">
				<text style="font-family: Helvetica; font-size: 10px;fill: rgb(0%,0%,0%); stroke:none;" transform="translate(0,0) scale(1,-1)" x="0" y="0">Gene_00130</text>
			</g>
			<g transform=" matrix(0.707107,-0.707107,0.707107,0.707107,354.693275,169.825647)">
				<text style="font-family: Helvetica; font-size: 10px;fill: rgb(0%,0%,0%); stroke:none;" transform="translate(0,0) scale(1,-1)" x="0" y="0">Gene_00131</text>
			</g>
			<g transform=" matrix(0.707107,-0.707107,0.707107,0.707107,420.669953,169.825647)">
				<text style="font-family: Helvetica; font-size: 10px;fill: rgb(0%,0%,0%); stroke:none;" transform="translate(0,0) scale(1,-1)" x="0" y="0">Gene_00132</text>
			</g>
			<g transform=" matrix(0.707107,-0.707107,0.707107,0.707107,590.910294,169.825647)">
				<text style="font-family: Helvetica; font-size: 10px;fill: rgb(0%,0%,0%); stroke:none;" transform="translate(0,0) scale(1,-1)" x="0" y="0">Gene_00133</text>
			</g>
			<g transform=" matrix(0.707107,-0.707107,0.707107,0.707107,764.755579,169.825647)">
				<text style="font-family: Helvetica; font-size: 16px;fill: rgb(0%,0%,100%); stroke:none;" transform="translate(0,0) scale(1,-1)" x="0" y="0">Gene_00134 (84.3)</text>
			</g>
			<g transform=" matrix(0.707107,0.707107,-0.707107,0.707107,850.870216,251.827897)">
				<text style="font-family: Helvetica; font-size: 10px;fill: rgb(0%,0%,0%); stroke:none;" transform="translate(0,0) scale(1,-1)" x="0" y="0">Gene_00135</text>
			</g>
			<g transform=" matrix(0.707107,-0.707107,0.707107,0.707107,945.064899,169.825647)">
				<text style="font-family: Helvetica; font-size: 10px;fill: rgb(0%,0%,0%); stroke:none;" transform="translate(0,0) scale(1,-1)" x="0" y="0">Gene_00136</text>
			</g>
			<g transform=" matrix(0.707107,0.707107,-0.707107,0.707107,1004.950467,251.827897)">
				<text style="font-family: Helvetica; font-size: 10px;fill: rgb(0%,0%,0%); stroke:none;" transform="translate(0,0) scale(1,-1)" x="0" y="0">Gene_00137</text>
			</g>
			<g transform=" matrix(0.707107,-0.707107,0.707107,0.707107,1080.529968,169.825647)">
				<text style="font-family: Helvetica; font-size: 10px;fill: rgb(0%,0%,0%); stroke:none;" transform="translate(0,0) scale(1,-1)" x="0" y="0">Gene_00138</text>
			</g>
			<g transform=" matrix(0.707107,-0.707107,0.707107,0.707107,1160.70888,169.825647)">
				<text style="font-family: Helvetica; font-size: 10px;fill: rgb(0%,0%,0%); stroke:none;" transform="translate(0,0) scale(1,-1)" x="0" y="0">Gene_00139</text>
			</g>
			<g transform=" matrix(0.707107,-0.707107,0.707107,0.707107,1231.284969,169.825647)">
				<text style="font-family: Helvetica; font-size: 10px;fill: rgb(0%,0%,0%); stroke:none;" transform="translate(0,0) scale(1,-1)" x="0" y="0">Gene_00140</text>
			</g>
			<g transform=" matrix(0.707107,-0.707107,0.707107,0.707107,1305.994312,169.825647)">
				<text style="font-family: Helvetica; font-size: 10px;fill: rgb(0%,0%,0%); stroke:none;" transform="translate(0,0) scale(1,-1)" x="0" y="0">Gene_00141</text>
			</g>
			<g transform=" matrix(0.707107,0.707107,-0.707107,0.707107,91.408103,538.835771)">
				<text style="font-family: Helvetica; font-size: 10px;fill: rgb(0%,0%,0%); stroke:none;" transform="translate(0,0) scale(1,-1)" x="0" y="0">Gene_02510</text>
			</g>
			<g transform=" matrix(0.707107,0.707107,-0.707107,0.707107,161.207265,538.835771)">
				<text style="font-family: Helvetica; font-size: 10px;fill: rgb(0%,0%,0%); stroke:none;" transform="translate(0,0) scale(1,-1)" x="0" y="0">Gene_02511</text>
			</g>
			<g transform=" matrix(0.707107,0.707107,-0.707107,0.707107,229.110723,538.835771)">
				<text style="font-family: Helvetica; font-size: 10px;fill: rgb(0%,0%,0%); stroke:none;" transform="translate(0,0) scale(1,-1)" x="0" y="0">Gene_02512</text>
			</g>
			<g transform=" matrix(0.707107,0.707107,-0.707107,0.707107,299.686812,538.835771)">
				<text style="font-family: Helvetica; font-size: 10px;fill: rgb(0%,0%,0%); stroke:none;" transform="translate(0,0) scale(1,-1)" x="0" y="0">Gene_02513</text>
			</g>
			<g transform=" matrix(0.707107,0.707107,-0.707107,0.707107,383.719284,538.835771)">
				<text style="font-family: Helvetica; font-size: 10px;fill: rgb(0%,0%,0%); stroke:none;" transform="translate(0,0) scale(1,-1)" x="0" y="0">Gene_02514</text>
			</g>
			<g transform=" matrix(0.707107,-0.707107,0.707107,0.707107,455.134454,456.833521)">
				<text style="font-family: Helvetica; font-size: 10px;fill: rgb(0%,0%,0%); stroke:none;" transform="translate(0,0) scale(1,-1)" x="0" y="0">Gene_02515</text>
			</g>
			<g transform=" matrix(0.707107,0.707107,-0.707107,0.707107,516.169874,538.835771)">
				<text style="font-family: Helvetica; font-size: 10px;fill: rgb(0%,0%,0%); stroke:none;" transform="translate(0,0) scale(1,-1)" x="0" y="0">Gene_02516</text>
			</g>
			<g transform=" matrix(0.707107,-0.707107,0.707107,0.707107,596.908174,456.833521)">
				<text style="font-family: Helvetica; font-size: 10px;fill: rgb(0%,0%,0%); stroke:none;" transform="translate(0,0) scale(1,-1)" x="0" y="0">Gene_02517</text>
			</g>
			<g transform=" matrix(0.707107,0.707107,-0.707107,0.707107,677.988322,538.835771)">
				<text style="font-family: Helvetica; font-size: 16px;fill: rgb(0%,0%,100%); stroke:none;" transform="translate(0,0) scale(1,-1)" x="0" y="0">Gene_02518 (84.3)</text>
			</g>
			<g transform=" matrix(0.707107,0.707107,-0.707107,0.707107,828.246089,538.835771)">
				<text style="font-family: Helvetica; font-size: 10px;fill: rgb(0%,0%,0%); stroke:none;" transform="translate(0,0) scale(1,-1)" x="0" y="0">Gene_02519</text>
			</g>
			<g transform=" matrix(0.707107,0.707107,-0.707107,0.707107,976.981079,538.835771)">
				<text style="font-family: Helvetica; font-size: 10px;fill: rgb(0%,0%,0%); stroke:none;" transform="translate(0,0) scale(1,-1)" x="0" y="0">Gene_02520</text>
			</g>
			<g transform=" matrix(0.707107,0.707107,-0.707107,0.707107,1037.519265,538.835771)">
				<text style="font-family: Helvetica; font-size: 10px;fill: rgb(0%,0%,0%); stroke:none;" transform="translate(0,0) scale(1,-1)" x="0" y="0">Gene_02521</text>
			</g>
			<g transform=" matrix(0.707107,0.707107,-0.707107,0.707107,1090.226023,538.835771)">
				<text style="font-family: Helvetica; font-size: 10px;fill: rgb(0%,0%,0%); stroke:none;" transform="translate(0,0) scale(1,-1)" x="0" y="0">Gene_02522</text>
			</g>
			<g transform=" matrix(0.707107,0.707107,-0.707107,0.707107,1158.595637,538.835771)">
				<text style="font-family: Helvetica; font-size: 10px;fill: rgb(0%,0%,0%); stroke:none;" transform="translate(0,0) scale(1,-1)" x="0" y="0">Gene_02523</text>
			</g>
			<g transform=" matrix(0.707107,0.707107,-0.707107,0.707107,1250.832463,538.835771)">
				<text style="font-family: Helvetica; font-size: 10px;fill: rgb(0%,0%,0%); stroke:none;" transform="translate(0,0) scale(1,-1)" x="0" y="0">Gene_02524</text>
			</g>
			<g transform=" matrix(1,0,-0,1,70,169.825647)">
				<text style="font-family: Helvetica; font-size: 12px;fill: rgb(60%,60%,60%); stroke:none;" transform="translate(0,0) scale(1,-1)" x="0" y="0">megahit_9912 (left 19334bp, right 8856bp)</text>
			</g>
			<g transform=" matrix(1,0,-0,1,70,456.833521)">
				<text style="font-family: Helvetica; font-size: 12px;fill: rgb(60%,60%,60%); stroke:none;" transform="translate(0,0) scale(1,-1)" x="0" y="0">megahit_138015 (left 9263bp, right 9838bp)</text>
			</g>
		</g>
	</g>
</svg>
