<?xml version="1.0" encoding="utf-8"?>
<!DOCTYPE svg
  PUBLIC '-//W3C//DTD SVG 1.0//EN'
  'http://www.w3.org/TR/2001/REC-SVG-20010904/DTD/svg10.dtd'>
<svg fill-rule="evenodd" height="708.6614173228346" preserveAspectRatio="xMinYMin meet" version="1.0" viewBox="0 0 1417 708" width="1417.3228346456692" xmlns="http://www.w3.org/2000/svg" xmlns:xlink="http://www.w3.org/1999/xlink">
	<title>...</title>
	<desc>...</desc>
	<clipPath id="clip">
		<rect height="708.6614173228346" width="1417.3228346456692" x="0" y="0"/>
	</clipPath>
	<g id="group" style="clip-path: url(#clip)" transform="scale(1,-1) translate(0,-708)">
		<g transform="">
			<polygon points="70.86614 169.8256, 324.5493 169.8256, 324.5493 251.8279, 70.86614 251.8279" style="stroke: rgb(96%,96%,96%); stroke-linecap: butt; stroke-width: 1; fill: rgb(96%,96%,96%); fill-rule: evenodd;"/>
			<polygon points="70.86614 456.8335, 1346.393 456.8335, 1346.393 538.8358, 70.86614 538.8358" style="stroke: rgb(96%,96%,96%); stroke-linecap: butt; stroke-width: 1; fill: rgb(96%,96%,96%); fill-rule: evenodd;"/>
			<polygon points="674.7089 456.8335, 698.3475 456.8335, 71.763 251.8279, 95.46572 251.8279" style="stroke: rgb(100%,9%,9%); stroke-linecap: round; stroke-width: 1; fill: rgb(100%,9%,9%); fill-rule: evenodd;"/>
			<polygon points="71.763 241.5776, 74.13254 241.5776, 74.13254 251.8279, 90.53299 231.3273, 74.13254 210.8268, 74.13254 221.0771, 71.763 221.0771" style="stroke: rgb(67%,84%,90%); stroke-linecap: round; stroke-width: 1; fill: rgb(67%,84%,90%); fill-rule: evenodd;"/>
			<polygon points="143.1915 200.5765, 118.9129 200.5765, 118.9129 210.8268, 102.5125 190.3262, 118.9129 169.8256, 118.9129 180.0759, 143.1915 180.0759" style="stroke: rgb(56%,93%,56%); stroke-linecap: round; stroke-width: 1; fill: rgb(56%,93%,56%); fill-rule: evenodd;"/>
			<polygon points="257.2207 200.5765, 160.1044 200.5765, 160.1044 210.8268, 143.704 190.3262, 160.1044 169.8256, 160.1044 180.0759, 257.2207 180.0759" style="stroke: rgb(56%,93%,56%); stroke-linecap: round; stroke-width: 1; fill: rgb(56%,93%,56%); fill-rule: evenodd;"/>
			<polygon points="303.9856 200.5765, 279.1305 200.5765, 279.1305 210.8268, 262.73 190.3262, 279.1305 169.8256, 279.1305 180.0759, 303.9856 180.0759" style="stroke: rgb(56%,93%,56%); stroke-linecap: round; stroke-width: 1; fill: rgb(56%,93%,56%); fill-rule: evenodd;"/>
			<polygon points="72.53174 528.5855, 102.9602 528.5855, 102.9602 538.8358, 119.3606 518.3352, 102.9602 497.8346, 102.9602 508.0849, 72.53174 508.0849" style="stroke: rgb(67%,84%,90%); stroke-linecap: round; stroke-width: 1; fill: rgb(67%,84%,90%); fill-rule: evenodd;"/>
			<polygon points="128.0089 528.5855, 204.5615 528.5855, 204.5615 538.8358, 220.962 518.3352, 204.5615 497.8346, 204.5615 508.0849, 128.0089 508.0849" style="stroke: rgb(67%,84%,90%); stroke-linecap: round; stroke-width: 1; fill: rgb(67%,84%,90%); fill-rule: evenodd;"/>
			<polygon points="220.5136 528.5855, 376.8226 528.5855, 376.8226 538.8358, 393.2231 518.3352, 376.8226 497.8346, 376.8226 508.0849, 220.5136 508.0849" style="stroke: rgb(67%,84%,90%); stroke-linecap: round; stroke-width: 1; fill: rgb(67%,84%,90%); fill-rule: evenodd;"/>
			<polygon points="393.2231 528.5855, 435.5669 528.5855, 435.5669 538.8358, 451.9674 518.3352, 435.5669 497.8346, 435.5669 508.0849, 393.2231 508.0849" style="stroke: rgb(67%,84%,90%); stroke-linecap: round; stroke-width: 1; fill: rgb(67%,84%,90%); fill-rule: evenodd;"/>
			<polygon points="452.1596 528.5855, 567.1491 528.5855, 567.1491 538.8358, 583.5495 518.3352, 567.1491 497.8346, 567.1491 508.0849, 452.1596 508.0849" style="stroke: rgb(67%,84%,90%); stroke-linecap: round; stroke-width: 1; fill: rgb(67%,84%,90%); fill-rule: evenodd;"/>
			<polygon points="589.251 528.5855, 601.0375 528.5855, 601.0375 538.8358, 617.438 518.3352, 601.0375 497.8346, 601.0375 508.0849, 589.251 508.0849" style="stroke: rgb(67%,84%,90%); stroke-linecap: round; stroke-width: 1; fill: rgb(67%,84%,90%); fill-rule: evenodd;"/>
			<polygon points="615.8365 528.5855, 652.9913 528.5855, 652.9913 538.8358, 669.3918 518.3352, 652.9913 497.8346, 652.9913 508.0849, 615.8365 508.0849" style="stroke: rgb(67%,84%,90%); stroke-linecap: round; stroke-width: 1; fill: rgb(67%,84%,90%); fill-rule: evenodd;"/>
			<polygon points="698.3475 487.5844, 695.978 487.5844, 695.978 497.8346, 679.5775 477.3341, 695.978 456.8335, 695.978 467.0838, 698.3475 467.0838" style="stroke: rgb(56%,93%,56%); stroke-linecap: round; stroke-width: 1; fill: rgb(56%,93%,56%); fill-rule: evenodd;"/>
			<polygon points="721.6018 528.5855, 730.3134 528.5855, 730.3134 538.8358, 746.7139 518.3352, 730.3134 497.8346, 730.3134 508.0849, 721.6018 508.0849" style="stroke: rgb(67%,84%,90%); stroke-linecap: round; stroke-width: 1; fill: rgb(67%,84%,90%); fill-rule: evenodd;"/>
			<polygon points="766.3167 528.5855, 766.3167 538.8358, 773.5556 518.3352, 766.3167 497.8346, 766.3167 508.0849" style="stroke: rgb(67%,84%,90%); stroke-linecap: round; stroke-width: 1; fill: rgb(67%,84%,90%); fill-rule: evenodd;"/>
			<polygon points="773.1072 528.5855, 782.011 528.5855, 782.011 538.8358, 798.4114 518.3352, 782.011 497.8346, 782.011 508.0849, 773.1072 508.0849" style="stroke: rgb(67%,84%,90%); stroke-linecap: round; stroke-width: 1; fill: rgb(67%,84%,90%); fill-rule: evenodd;"/>
			<polygon points="800.7817 528.5855, 800.7817 538.8358, 811.8643 518.3352, 800.7817 497.8346, 800.7817 508.0849" style="stroke: rgb(67%,84%,90%); stroke-linecap: round; stroke-width: 1; fill: rgb(67%,84%,90%); fill-rule: evenodd;"/>
			<polygon points="816.0283 528.5855, 840.3069 528.5855, 840.3069 538.8358, 856.7073 518.3352, 840.3069 497.8346, 840.3069 508.0849, 816.0283 508.0849" style="stroke: rgb(67%,84%,90%); stroke-linecap: round; stroke-width: 1; fill: rgb(67%,84%,90%); fill-rule: evenodd;"/>
			<polygon points="857.412 528.5855, 870.1595 528.5855, 870.1595 538.8358, 886.5599 518.3352, 870.1595 497.8346, 870.1595 508.0849, 857.412 508.0849" style="stroke: rgb(67%,84%,90%); stroke-linecap: round; stroke-width: 1; fill: rgb(67%,84%,90%); fill-rule: evenodd;"/>
			<polygon points="899.3722 528.5855, 899.3722 538.8358, 912.1845 518.3352, 899.3722 497.8346, 899.3722 508.0849" style="stroke: rgb(67%,84%,90%); stroke-linecap: round; stroke-width: 1; fill: rgb(67%,84%,90%); fill-rule: evenodd;"/>
			<polygon points="916.0922 528.5855, 921.5367 528.5855, 921.5367 538.8358, 937.9372 518.3352, 921.5367 497.8346, 921.5367 508.0849, 916.0922 508.0849" style="stroke: rgb(67%,84%,90%); stroke-linecap: round; stroke-width: 1; fill: rgb(67%,84%,90%); fill-rule: evenodd;"/>
			<polygon points="946.7776 528.5855, 956.6424 528.5855, 956.6424 538.8358, 973.0428 518.3352, 956.6424 497.8346, 956.6424 508.0849, 946.7776 508.0849" style="stroke: rgb(67%,84%,90%); stroke-linecap: round; stroke-width: 1; fill: rgb(67%,84%,90%); fill-rule: evenodd;"/>
			<polygon points="980.1536 528.5855, 1021.344 528.5855, 1021.344 538.8358, 1037.745 518.3352, 1021.344 497.8346, 1021.344 508.0849, 980.1536 508.0849" style="stroke: rgb(67%,84%,90%); stroke-linecap: round; stroke-width: 1; fill: rgb(67%,84%,90%); fill-rule: evenodd;"/>
			<polygon points="1044.599 528.5855, 1068.109 528.5855, 1068.109 538.8358, 1084.51 518.3352, 1068.109 497.8346, 1068.109 508.0849, 1044.599 508.0849" style="stroke: rgb(67%,84%,90%); stroke-linecap: round; stroke-width: 1; fill: rgb(67%,84%,90%); fill-rule: evenodd;"/>
			<polygon points="1119.295 528.5855, 1127.046 528.5855, 1127.046 538.8358, 1143.446 518.3352, 1127.046 497.8346, 1127.046 508.0849, 1119.295 508.0849" style="stroke: rgb(67%,84%,90%); stroke-linecap: round; stroke-width: 1; fill: rgb(67%,84%,90%); fill-rule: evenodd;"/>
			<polygon points="1143.895 528.5855, 1164.714 528.5855, 1164.714 538.8358, 1181.114 518.3352, 1164.714 497.8346, 1164.714 508.0849, 1143.895 508.0849" style="stroke: rgb(67%,84%,90%); stroke-linecap: round; stroke-width: 1; fill: rgb(67%,84%,90%); fill-rule: evenodd;"/>
			<polygon points="1186.944 528.5855, 1187.584 528.5855, 1187.584 538.8358, 1203.984 518.3352, 1187.584 497.8346, 1187.584 508.0849, 1186.944 508.0849" style="stroke: rgb(67%,84%,90%); stroke-linecap: round; stroke-width: 1; fill: rgb(67%,84%,90%); fill-rule: evenodd;"/>
			<polygon points="1202.767 528.5855, 1210.518 528.5855, 1210.518 538.8358, 1226.918 518.3352, 1210.518 497.8346, 1210.518 508.0849, 1202.767 508.0849" style="stroke: rgb(67%,84%,90%); stroke-linecap: round; stroke-width: 1; fill: rgb(67%,84%,90%); fill-rule: evenodd;"/>
			<polygon points="1227.559 528.5855, 1289.89 528.5855, 1289.89 538.8358, 1306.29 518.3352, 1289.89 497.8346, 1289.89 508.0849, 1227.559 508.0849" style="stroke: rgb(67%,84%,90%); stroke-linecap: round; stroke-width: 1; fill: rgb(67%,84%,90%); fill-rule: evenodd;"/>
			<polygon points="1307.059 528.5855, 1329.992 528.5855, 1329.992 538.8358, 1346.393 518.3352, 1329.992 497.8346, 1329.992 508.0849, 1307.059 508.0849" style="stroke: rgb(67%,84%,90%); stroke-linecap: round; stroke-width: 1; fill: rgb(67%,84%,90%); fill-rule: evenodd;"/>
			<path d="M 324.549277,169.825647 L 324.549277,251.827897 Z" style="stroke: rgb(0%,0%,0%); stroke-linecap: butt; stroke-width: 1;"/>
			<path d="M 70.866142,210.826772 L 324.549277,210.826772 Z" style="stroke: rgb(0%,0%,0%); stroke-linecap: butt; stroke-width: 1;"/>
			<path d="M 70.866142,169.825647 L 70.866142,251.827897 Z" style="stroke: rgb(0%,0%,0%); stroke-linecap: butt; stroke-width: 1;"/>
			<path d="M 1346.392632,456.833521 L 1346.392632,538.835771 Z" style="stroke: rgb(0%,0%,0%); stroke-linecap: butt; stroke-width: 1;"/>
			<path d="M 70.866142,497.834646 L 1346.392632,497.834646 Z" style="stroke: rgb(0%,0%,0%); stroke-linecap: butt; stroke-width: 1;"/>
			<path d="M 70.866142,456.833521 L 70.866142,538.835771 Z" style="stroke: rgb(0%,0%,0%); stroke-linecap: butt; stroke-width: 1;"/>
			<path d="M 711.480119,497.834646 L 711.480119,518.335208 Z" style="stroke: rgb(0%,0%,0%); stroke-linecap: butt; stroke-width: 1;"/>
			<path d="M 711.480119,497.834646 L 711.480119,510.134983 Z" style="stroke: rgb(0%,0%,0%); stroke-linecap: butt; stroke-width: 1;"/>
			<g transform=" matrix(0.707107,0.707107,-0.707107,0.707107,711.480119,518.335208)">
				<text style="font-family: Helvetica; font-size: 6px;fill: rgb(0%,0%,0%); stroke:none;" transform="translate(0,0) scale(1,-1)" x="0" y="0">10000</text>
			</g>
			<g transform=" matrix(0.707107,0.707107,-0.707107,0.707107,81.147996,251.827897)">
				<text style="font-family: Helvetica; font-size: 16px;fill: rgb(0%,0%,100%); stroke:none;" transform="translate(0,0) scale(1,-1)" x="0" y="0">Gene_00272 (95.2)</text>
			</g>
			<g transform=" matrix(0.707107,-0.707107,0.707107,0.707107,122.851966,169.825647)">
				<text style="font-family: Helvetica; font-size: 10px;fill: rgb(0%,0%,0%); stroke:none;" transform="translate(0,0) scale(1,-1)" x="0" y="0">Gene_00273</text>
			</g>
			<g transform=" matrix(0.707107,-0.707107,0.707107,0.707107,200.462349,169.825647)">
				<text style="font-family: Helvetica; font-size: 10px;fill: rgb(0%,0%,0%); stroke:none;" transform="translate(0,0) scale(1,-1)" x="0" y="0">Gene_00274</text>
			</g>
			<g transform=" matrix(0.707107,-0.707107,0.707107,0.707107,283.357798,169.825647)">
				<text style="font-family: Helvetica; font-size: 10px;fill: rgb(0%,0%,0%); stroke:none;" transform="translate(0,0) scale(1,-1)" x="0" y="0">Gene_00275</text>
			</g>
			<g transform=" matrix(0.707107,0.707107,-0.707107,0.707107,95.946179,538.835771)">
				<text style="font-family: Helvetica; font-size: 10px;fill: rgb(0%,0%,0%); stroke:none;" transform="translate(0,0) scale(1,-1)" x="0" y="0">Gene_00403</text>
			</g>
			<g transform=" matrix(0.707107,0.707107,-0.707107,0.707107,174.485453,538.835771)">
				<text style="font-family: Helvetica; font-size: 10px;fill: rgb(0%,0%,0%); stroke:none;" transform="translate(0,0) scale(1,-1)" x="0" y="0">Gene_00404</text>
			</g>
			<g transform=" matrix(0.707107,0.707107,-0.707107,0.707107,306.868331,538.835771)">
				<text style="font-family: Helvetica; font-size: 10px;fill: rgb(0%,0%,0%); stroke:none;" transform="translate(0,0) scale(1,-1)" x="0" y="0">Gene_00405</text>
			</g>
			<g transform=" matrix(0.707107,0.707107,-0.707107,0.707107,422.595246,538.835771)">
				<text style="font-family: Helvetica; font-size: 10px;fill: rgb(0%,0%,0%); stroke:none;" transform="translate(0,0) scale(1,-1)" x="0" y="0">Gene_00406</text>
			</g>
			<g transform=" matrix(0.707107,0.707107,-0.707107,0.707107,517.854544,538.835771)">
				<text style="font-family: Helvetica; font-size: 10px;fill: rgb(0%,0%,0%); stroke:none;" transform="translate(0,0) scale(1,-1)" x="0" y="0">Gene_00407</text>
			</g>
			<g transform=" matrix(0.707107,0.707107,-0.707107,0.707107,603.344479,538.835771)">
				<text style="font-family: Helvetica; font-size: 10px;fill: rgb(0%,0%,0%); stroke:none;" transform="translate(0,0) scale(1,-1)" x="0" y="0">Gene_00408</text>
			</g>
			<g transform=" matrix(0.707107,0.707107,-0.707107,0.707107,642.614116,538.835771)">
				<text style="font-family: Helvetica; font-size: 10px;fill: rgb(0%,0%,0%); stroke:none;" transform="translate(0,0) scale(1,-1)" x="0" y="0">Gene_00409</text>
			</g>
			<g transform=" matrix(0.707107,-0.707107,0.707107,0.707107,688.962538,456.833521)">
				<text style="font-family: Helvetica; font-size: 16px;fill: rgb(0%,0%,100%); stroke:none;" transform="translate(0,0) scale(1,-1)" x="0" y="0">Gene_00410 (95.2)</text>
			</g>
			<g transform=" matrix(0.707107,0.707107,-0.707107,0.707107,734.157854,538.835771)">
				<text style="font-family: Helvetica; font-size: 10px;fill: rgb(0%,0%,0%); stroke:none;" transform="translate(0,0) scale(1,-1)" x="0" y="0">Gene_00411</text>
			</g>
			<g transform=" matrix(0.707107,0.707107,-0.707107,0.707107,769.936144,538.835771)">
				<text style="font-family: Helvetica; font-size: 10px;fill: rgb(0%,0%,0%); stroke:none;" transform="translate(0,0) scale(1,-1)" x="0" y="0">Gene_00412</text>
			</g>
			<g transform=" matrix(0.707107,0.707107,-0.707107,0.707107,785.759309,538.835771)">
				<text style="font-family: Helvetica; font-size: 10px;fill: rgb(0%,0%,0%); stroke:none;" transform="translate(0,0) scale(1,-1)" x="0" y="0">Gene_00413</text>
			</g>
			<g transform=" matrix(0.707107,0.707107,-0.707107,0.707107,806.323018,538.835771)">
				<text style="font-family: Helvetica; font-size: 10px;fill: rgb(0%,0%,0%); stroke:none;" transform="translate(0,0) scale(1,-1)" x="0" y="0">Gene_00414</text>
			</g>
			<g transform=" matrix(0.707107,0.707107,-0.707107,0.707107,836.367814,538.835771)">
				<text style="font-family: Helvetica; font-size: 10px;fill: rgb(0%,0%,0%); stroke:none;" transform="translate(0,0) scale(1,-1)" x="0" y="0">Gene_00415</text>
			</g>
			<g transform=" matrix(0.707107,0.707107,-0.707107,0.707107,871.985951,538.835771)">
				<text style="font-family: Helvetica; font-size: 10px;fill: rgb(0%,0%,0%); stroke:none;" transform="translate(0,0) scale(1,-1)" x="0" y="0">Gene_00416</text>
			</g>
			<g transform=" matrix(0.707107,0.707107,-0.707107,0.707107,905.778338,538.835771)">
				<text style="font-family: Helvetica; font-size: 10px;fill: rgb(0%,0%,0%); stroke:none;" transform="translate(0,0) scale(1,-1)" x="0" y="0">Gene_00417</text>
			</g>
			<g transform=" matrix(0.707107,0.707107,-0.707107,0.707107,927.014691,538.835771)">
				<text style="font-family: Helvetica; font-size: 10px;fill: rgb(0%,0%,0%); stroke:none;" transform="translate(0,0) scale(1,-1)" x="0" y="0">Gene_00418</text>
			</g>
			<g transform=" matrix(0.707107,0.707107,-0.707107,0.707107,959.910219,538.835771)">
				<text style="font-family: Helvetica; font-size: 10px;fill: rgb(0%,0%,0%); stroke:none;" transform="translate(0,0) scale(1,-1)" x="0" y="0">Gene_00419</text>
			</g>
			<g transform=" matrix(0.707107,0.707107,-0.707107,0.707107,1008.949219,538.835771)">
				<text style="font-family: Helvetica; font-size: 10px;fill: rgb(0%,0%,0%); stroke:none;" transform="translate(0,0) scale(1,-1)" x="0" y="0">Gene_00420</text>
			</g>
			<g transform=" matrix(0.707107,0.707107,-0.707107,0.707107,1064.554512,538.835771)">
				<text style="font-family: Helvetica; font-size: 10px;fill: rgb(0%,0%,0%); stroke:none;" transform="translate(0,0) scale(1,-1)" x="0" y="0">Gene_00421</text>
			</g>
			<g transform=" matrix(0.707107,0.707107,-0.707107,0.707107,1131.37055,538.835771)">
				<text style="font-family: Helvetica; font-size: 10px;fill: rgb(0%,0%,0%); stroke:none;" transform="translate(0,0) scale(1,-1)" x="0" y="0">Gene_00422</text>
			</g>
			<g transform=" matrix(0.707107,0.707107,-0.707107,0.707107,1162.504389,538.835771)">
				<text style="font-family: Helvetica; font-size: 10px;fill: rgb(0%,0%,0%); stroke:none;" transform="translate(0,0) scale(1,-1)" x="0" y="0">Gene_00423</text>
			</g>
			<g transform=" matrix(0.707107,0.707107,-0.707107,0.707107,1195.463979,538.835771)">
				<text style="font-family: Helvetica; font-size: 10px;fill: rgb(0%,0%,0%); stroke:none;" transform="translate(0,0) scale(1,-1)" x="0" y="0">Gene_00424</text>
			</g>
			<g transform=" matrix(0.707107,0.707107,-0.707107,0.707107,1214.842551,538.835771)">
				<text style="font-family: Helvetica; font-size: 10px;fill: rgb(0%,0%,0%); stroke:none;" transform="translate(0,0) scale(1,-1)" x="0" y="0">Gene_00425</text>
			</g>
			<g transform=" matrix(0.707107,0.707107,-0.707107,0.707107,1266.924468,538.835771)">
				<text style="font-family: Helvetica; font-size: 10px;fill: rgb(0%,0%,0%); stroke:none;" transform="translate(0,0) scale(1,-1)" x="0" y="0">Gene_00426</text>
			</g>
			<g transform=" matrix(0.707107,0.707107,-0.707107,0.707107,1326.725782,538.835771)">
				<text style="font-family: Helvetica; font-size: 10px;fill: rgb(0%,0%,0%); stroke:none;" transform="translate(0,0) scale(1,-1)" x="0" y="0">Gene_00427</text>
			</g>
			<g transform=" matrix(1,0,-0,1,70,456.833521)">
				<text style="font-family: Helvetica; font-size: 12px;fill: rgb(60%,60%,60%); stroke:none;" transform="translate(0,0) scale(1,-1)" x="0" y="0">megahit_62684 (left 9502bp, right 44069bp)</text>
			</g>
		</g>
	</g>
</svg>
