<?xml version="1.0" encoding="utf-8"?>
<!DOCTYPE svg
  PUBLIC '-//W3C//DTD SVG 1.0//EN'
  'http://www.w3.org/TR/2001/REC-SVG-20010904/DTD/svg10.dtd'>
<svg fill-rule="evenodd" height="708.6614173228346" preserveAspectRatio="xMinYMin meet" version="1.0" viewBox="0 0 1417 708" width="1417.3228346456692" xmlns="http://www.w3.org/2000/svg" xmlns:xlink="http://www.w3.org/1999/xlink">
	<title>...</title>
	<desc>...</desc>
	<clipPath id="clip">
		<rect height="708.6614173228346" width="1417.3228346456692" x="0" y="0"/>
	</clipPath>
	<g id="group" style="clip-path: url(#clip)" transform="scale(1,-1) translate(0,-708)">
		<g transform="">
			<polygon points="70.86614 169.8256, 1206.805 169.8256, 1206.805 251.8279, 70.86614 251.8279" style="stroke: rgb(96%,96%,96%); stroke-linecap: butt; stroke-width: 1; fill: rgb(96%,96%,96%); fill-rule: evenodd;"/>
			<polygon points="70.86614 456.8335, 1346.396 456.8335, 1346.396 538.8358, 70.86614 538.8358" style="stroke: rgb(96%,96%,96%); stroke-linecap: butt; stroke-width: 1; fill: rgb(96%,96%,96%); fill-rule: evenodd;"/>
			<polygon points="409.8121 456.8335, 579.0411 456.8335, 620.5708 251.8279, 451.2808 251.8279" style="stroke: rgb(100%,47%,47%); stroke-linecap: round; stroke-width: 1; fill: rgb(100%,47%,47%); fill-rule: evenodd;"/>
			<polygon points="586.2372 456.8335, 649.294 456.8335, 746.7456 251.8279, 683.6887 251.8279" style="stroke: rgb(100%,39%,39%); stroke-linecap: round; stroke-width: 1; fill: rgb(100%,39%,39%); fill-rule: evenodd;"/>
			<polygon points="115.2621 200.5765, 87.26659 200.5765, 87.26659 210.8268, 70.86614 190.3262, 87.26659 169.8256, 87.26659 180.0759, 115.2621 180.0759" style="stroke: rgb(56%,93%,56%); stroke-linecap: round; stroke-width: 1; fill: rgb(56%,93%,56%); fill-rule: evenodd;"/>
			<polygon points="187.8324 200.5765, 131.4796 200.5765, 131.4796 210.8268, 115.0791 190.3262, 131.4796 169.8256, 131.4796 180.0759, 187.8324 180.0759" style="stroke: rgb(56%,93%,56%); stroke-linecap: round; stroke-width: 1; fill: rgb(56%,93%,56%); fill-rule: evenodd;"/>
			<polygon points="249.7915 200.5765, 204.0499 200.5765, 204.0499 210.8268, 187.6494 190.3262, 204.0499 169.8256, 204.0499 180.0759, 249.7915 180.0759" style="stroke: rgb(56%,93%,56%); stroke-linecap: round; stroke-width: 1; fill: rgb(56%,93%,56%); fill-rule: evenodd;"/>
			<polygon points="295.6511 200.5765, 266.009 200.5765, 266.009 210.8268, 249.6086 190.3262, 266.009 169.8256, 266.009 180.0759, 295.6511 180.0759" style="stroke: rgb(56%,93%,56%); stroke-linecap: round; stroke-width: 1; fill: rgb(56%,93%,56%); fill-rule: evenodd;"/>
			<polygon points="337.6687 200.5765, 311.8686 200.5765, 311.8686 210.8268, 295.4681 190.3262, 311.8686 169.8256, 311.8686 180.0759, 337.6687 180.0759" style="stroke: rgb(56%,93%,56%); stroke-linecap: round; stroke-width: 1; fill: rgb(56%,93%,56%); fill-rule: evenodd;"/>
			<polygon points="406.397 200.5765, 353.8862 200.5765, 353.8862 210.8268, 337.4857 190.3262, 353.8862 169.8256, 353.8862 180.0759, 406.397 180.0759" style="stroke: rgb(56%,93%,56%); stroke-linecap: round; stroke-width: 1; fill: rgb(56%,93%,56%); fill-rule: evenodd;"/>
			<polygon points="530.2544 200.5765, 467.3154 200.5765, 467.3154 210.8268, 450.9149 190.3262, 467.3154 169.8256, 467.3154 180.0759, 530.2544 180.0759" style="stroke: rgb(56%,93%,56%); stroke-linecap: round; stroke-width: 1; fill: rgb(56%,93%,56%); fill-rule: evenodd;"/>
			<polygon points="560.4412 200.5765, 546.8988 200.5765, 546.8988 210.8268, 530.4983 190.3262, 546.8988 169.8256, 546.8988 180.0759, 560.4412 180.0759" style="stroke: rgb(56%,93%,56%); stroke-linecap: round; stroke-width: 1; fill: rgb(56%,93%,56%); fill-rule: evenodd;"/>
			<polygon points="624.2908 200.5765, 577.8174 200.5765, 577.8174 210.8268, 561.4169 190.3262, 577.8174 169.8256, 577.8174 180.0759, 624.2908 180.0759" style="stroke: rgb(56%,93%,56%); stroke-linecap: round; stroke-width: 1; fill: rgb(56%,93%,56%); fill-rule: evenodd;"/>
			<polygon points="678.6271 200.5765, 643.3136 200.5765, 643.3136 210.8268, 626.9131 190.3262, 643.3136 169.8256, 643.3136 180.0759, 678.6271 180.0759" style="stroke: rgb(56%,93%,56%); stroke-linecap: round; stroke-width: 1; fill: rgb(56%,93%,56%); fill-rule: evenodd;"/>
			<polygon points="746.7456 200.5765, 699.1744 200.5765, 699.1744 210.8268, 682.7739 190.3262, 699.1744 169.8256, 699.1744 180.0759, 746.7456 180.0759" style="stroke: rgb(56%,93%,56%); stroke-linecap: round; stroke-width: 1; fill: rgb(56%,93%,56%); fill-rule: evenodd;"/>
			<polygon points="833.464 200.5765, 764.1218 200.5765, 764.1218 210.8268, 747.7213 190.3262, 764.1218 169.8256, 764.1218 180.0759, 833.464 180.0759" style="stroke: rgb(56%,93%,56%); stroke-linecap: round; stroke-width: 1; fill: rgb(56%,93%,56%); fill-rule: evenodd;"/>
			<polygon points="843.6483 241.5776, 879.6936 241.5776, 879.6936 251.8279, 896.094 231.3273, 879.6936 210.8268, 879.6936 221.0771, 843.6483 221.0771" style="stroke: rgb(67%,84%,90%); stroke-linecap: round; stroke-width: 1; fill: rgb(67%,84%,90%); fill-rule: evenodd;"/>
			<polygon points="953.6624 200.5765, 923.8374 200.5765, 923.8374 210.8268, 907.4369 190.3262, 923.8374 169.8256, 923.8374 180.0759, 953.6624 180.0759" style="stroke: rgb(56%,93%,56%); stroke-linecap: round; stroke-width: 1; fill: rgb(56%,93%,56%); fill-rule: evenodd;"/>
			<polygon points="984.8249 200.5765, 970.7336 200.5765, 970.7336 210.8268, 954.3332 190.3262, 970.7336 169.8256, 970.7336 180.0759, 984.8249 180.0759" style="stroke: rgb(56%,93%,56%); stroke-linecap: round; stroke-width: 1; fill: rgb(56%,93%,56%); fill-rule: evenodd;"/>
			<polygon points="1045.808 200.5765, 1002.811 200.5765, 1002.811 210.8268, 986.4105 190.3262, 1002.811 169.8256, 1002.811 180.0759, 1045.808 180.0759" style="stroke: rgb(56%,93%,56%); stroke-linecap: round; stroke-width: 1; fill: rgb(56%,93%,56%); fill-rule: evenodd;"/>
			<polygon points="1079.776 200.5765, 1065.136 200.5765, 1065.136 210.8268, 1048.736 190.3262, 1065.136 169.8256, 1065.136 180.0759, 1079.776 180.0759" style="stroke: rgb(56%,93%,56%); stroke-linecap: round; stroke-width: 1; fill: rgb(56%,93%,56%); fill-rule: evenodd;"/>
			<polygon points="1115.025 200.5765, 1095.994 200.5765, 1095.994 210.8268, 1079.593 190.3262, 1095.994 169.8256, 1095.994 180.0759, 1115.025 180.0759" style="stroke: rgb(56%,93%,56%); stroke-linecap: round; stroke-width: 1; fill: rgb(56%,93%,56%); fill-rule: evenodd;"/>
			<polygon points="1123.562 241.5776, 1161.437 241.5776, 1161.437 251.8279, 1177.837 231.3273, 1161.437 210.8268, 1161.437 221.0771, 1123.562 221.0771" style="stroke: rgb(67%,84%,90%); stroke-linecap: round; stroke-width: 1; fill: rgb(67%,84%,90%); fill-rule: evenodd;"/>
			<polygon points="113.3106 487.5844, 113.3106 497.8346, 98.55262 477.3341, 113.3106 456.8335, 113.3106 467.0838" style="stroke: rgb(56%,93%,56%); stroke-linecap: round; stroke-width: 1; fill: rgb(56%,93%,56%); fill-rule: evenodd;"/>
			<polygon points="119.104 528.5855, 126.0602 528.5855, 126.0602 538.8358, 142.4607 518.3352, 126.0602 497.8346, 126.0602 508.0849, 119.104 508.0849" style="stroke: rgb(67%,84%,90%); stroke-linecap: round; stroke-width: 1; fill: rgb(67%,84%,90%); fill-rule: evenodd;"/>
			<polygon points="145.3879 528.5855, 170.6391 528.5855, 170.6391 538.8358, 187.0396 518.3352, 170.6391 497.8346, 170.6391 508.0849, 145.3879 508.0849" style="stroke: rgb(67%,84%,90%); stroke-linecap: round; stroke-width: 1; fill: rgb(67%,84%,90%); fill-rule: evenodd;"/>
			<polygon points="202.0415 528.5855, 228.7564 528.5855, 228.7564 538.8358, 245.1568 518.3352, 228.7564 497.8346, 228.7564 508.0849, 202.0415 508.0849" style="stroke: rgb(67%,84%,90%); stroke-linecap: round; stroke-width: 1; fill: rgb(67%,84%,90%); fill-rule: evenodd;"/>
			<polygon points="253.9994 528.5855, 253.9994 538.8358, 260.7076 518.3352, 253.9994 497.8346, 253.9994 508.0849" style="stroke: rgb(67%,84%,90%); stroke-linecap: round; stroke-width: 1; fill: rgb(67%,84%,90%); fill-rule: evenodd;"/>
			<polygon points="345.5965 487.5844, 283.9382 487.5844, 283.9382 497.8346, 267.5377 477.3341, 283.9382 456.8335, 283.9382 467.0838, 345.5965 467.0838" style="stroke: rgb(56%,93%,56%); stroke-linecap: round; stroke-width: 1; fill: rgb(56%,93%,56%); fill-rule: evenodd;"/>
			<polygon points="389.9925 487.5844, 361.997 487.5844, 361.997 497.8346, 345.5965 477.3341, 361.997 456.8335, 361.997 467.0838, 389.9925 467.0838" style="stroke: rgb(56%,93%,56%); stroke-linecap: round; stroke-width: 1; fill: rgb(56%,93%,56%); fill-rule: evenodd;"/>
			<polygon points="488.7856 487.5844, 425.8466 487.5844, 425.8466 497.8346, 409.4462 477.3341, 425.8466 456.8335, 425.8466 467.0838, 488.7856 467.0838" style="stroke: rgb(56%,93%,56%); stroke-linecap: round; stroke-width: 1; fill: rgb(56%,93%,56%); fill-rule: evenodd;"/>
			<polygon points="518.9724 487.5844, 505.613 487.5844, 505.613 497.8346, 489.2125 477.3341, 505.613 456.8335, 505.613 467.0838, 518.9724 467.0838" style="stroke: rgb(56%,93%,56%); stroke-linecap: round; stroke-width: 1; fill: rgb(56%,93%,56%); fill-rule: evenodd;"/>
			<polygon points="583.127 487.5844, 535.1899 487.5844, 535.1899 497.8346, 518.7895 477.3341, 535.1899 456.8335, 535.1899 467.0838, 583.127 467.0838" style="stroke: rgb(56%,93%,56%); stroke-linecap: round; stroke-width: 1; fill: rgb(56%,93%,56%); fill-rule: evenodd;"/>
			<polygon points="649.294 487.5844, 600.9911 487.5844, 600.9911 497.8346, 584.5906 477.3341, 600.9911 456.8335, 600.9911 467.0838, 649.294 467.0838" style="stroke: rgb(56%,93%,56%); stroke-linecap: round; stroke-width: 1; fill: rgb(56%,93%,56%); fill-rule: evenodd;"/>
			<polygon points="729.6702 487.5844, 704.0531 487.5844, 704.0531 497.8346, 687.6526 477.3341, 704.0531 456.8335, 704.0531 467.0838, 729.6702 467.0838" style="stroke: rgb(56%,93%,56%); stroke-linecap: round; stroke-width: 1; fill: rgb(56%,93%,56%); fill-rule: evenodd;"/>
			<polygon points="759.1862 528.5855, 771.9968 528.5855, 771.9968 538.8358, 788.3973 518.3352, 771.9968 497.8346, 771.9968 508.0849, 759.1862 508.0849" style="stroke: rgb(67%,84%,90%); stroke-linecap: round; stroke-width: 1; fill: rgb(67%,84%,90%); fill-rule: evenodd;"/>
			<polygon points="788.3973 528.5855, 818.4052 528.5855, 818.4052 538.8358, 834.8057 518.3352, 818.4052 497.8346, 818.4052 508.0849, 788.3973 508.0849" style="stroke: rgb(67%,84%,90%); stroke-linecap: round; stroke-width: 1; fill: rgb(67%,84%,90%); fill-rule: evenodd;"/>
			<polygon points="833.647 528.5855, 856.3369 528.5855, 856.3369 538.8358, 872.7374 518.3352, 856.3369 497.8346, 856.3369 508.0849, 833.647 508.0849" style="stroke: rgb(67%,84%,90%); stroke-linecap: round; stroke-width: 1; fill: rgb(67%,84%,90%); fill-rule: evenodd;"/>
			<polygon points="898.8383 487.5844, 890.2355 487.5844, 890.2355 497.8346, 873.8351 477.3341, 890.2355 456.8335, 890.2355 467.0838, 898.8383 467.0838" style="stroke: rgb(56%,93%,56%); stroke-linecap: round; stroke-width: 1; fill: rgb(56%,93%,56%); fill-rule: evenodd;"/>
			<polygon points="941.7706 487.5844, 916.5194 487.5844, 916.5194 497.8346, 900.1189 477.3341, 916.5194 456.8335, 916.5194 467.0838, 941.7706 467.0838" style="stroke: rgb(56%,93%,56%); stroke-linecap: round; stroke-width: 1; fill: rgb(56%,93%,56%); fill-rule: evenodd;"/>
			<polygon points="989.8256 487.5844, 959.8176 487.5844, 959.8176 497.8346, 943.4172 477.3341, 959.8176 456.8335, 959.8176 467.0838, 989.8256 467.0838" style="stroke: rgb(56%,93%,56%); stroke-linecap: round; stroke-width: 1; fill: rgb(56%,93%,56%); fill-rule: evenodd;"/>
			<polygon points="1028.855 487.5844, 1008.36 487.5844, 1008.36 497.8346, 991.96 477.3341, 1008.36 456.8335, 1008.36 467.0838, 1028.855 467.0838" style="stroke: rgb(56%,93%,56%); stroke-linecap: round; stroke-width: 1; fill: rgb(56%,93%,56%); fill-rule: evenodd;"/>
			<polygon points="1083.74 487.5844, 1050.988 487.5844, 1050.988 497.8346, 1034.587 477.3341, 1050.988 456.8335, 1050.988 467.0838, 1083.74 467.0838" style="stroke: rgb(56%,93%,56%); stroke-linecap: round; stroke-width: 1; fill: rgb(56%,93%,56%); fill-rule: evenodd;"/>
			<polygon points="1253.457 487.5844, 1116.606 487.5844, 1116.606 497.8346, 1100.206 477.3341, 1116.606 456.8335, 1116.606 467.0838, 1253.457 467.0838" style="stroke: rgb(56%,93%,56%); stroke-linecap: round; stroke-width: 1; fill: rgb(56%,93%,56%); fill-rule: evenodd;"/>
			<polygon points="1346.396 487.5844, 1270.65 487.5844, 1270.65 497.8346, 1254.25 477.3341, 1270.65 456.8335, 1270.65 467.0838, 1346.396 467.0838" style="stroke: rgb(56%,93%,56%); stroke-linecap: round; stroke-width: 1; fill: rgb(56%,93%,56%); fill-rule: evenodd;"/>
			<path d="M 1206.804622,169.825647 L 1206.804622,251.827897 Z" style="stroke: rgb(0%,0%,0%); stroke-linecap: butt; stroke-width: 1;"/>
			<path d="M 70.866142,210.826772 L 1206.804622,210.826772 Z" style="stroke: rgb(0%,0%,0%); stroke-linecap: butt; stroke-width: 1;"/>
			<path d="M 70.866142,169.825647 L 70.866142,251.827897 Z" style="stroke: rgb(0%,0%,0%); stroke-linecap: butt; stroke-width: 1;"/>
			<path d="M 680.700511,210.826772 L 680.700511,231.327334 Z" style="stroke: rgb(0%,0%,0%); stroke-linecap: butt; stroke-width: 1;"/>
			<path d="M 680.700511,210.826772 L 680.700511,223.127109 Z" style="stroke: rgb(0%,0%,0%); stroke-linecap: butt; stroke-width: 1;"/>
			<path d="M 1346.395709,456.833521 L 1346.395709,538.835771 Z" style="stroke: rgb(0%,0%,0%); stroke-linecap: butt; stroke-width: 1;"/>
			<path d="M 70.866142,497.834646 L 1346.395709,497.834646 Z" style="stroke: rgb(0%,0%,0%); stroke-linecap: butt; stroke-width: 1;"/>
			<path d="M 70.866142,456.833521 L 70.866142,538.835771 Z" style="stroke: rgb(0%,0%,0%); stroke-linecap: butt; stroke-width: 1;"/>
			<path d="M 680.700511,497.834646 L 680.700511,518.335208 Z" style="stroke: rgb(0%,0%,0%); stroke-linecap: butt; stroke-width: 1;"/>
			<path d="M 1290.534881,497.834646 L 1290.534881,518.335208 Z" style="stroke: rgb(0%,0%,0%); stroke-linecap: butt; stroke-width: 1;"/>
			<path d="M 680.700511,497.834646 L 680.700511,510.134983 Z" style="stroke: rgb(0%,0%,0%); stroke-linecap: butt; stroke-width: 1;"/>
			<path d="M 1290.534881,497.834646 L 1290.534881,510.134983 Z" style="stroke: rgb(0%,0%,0%); stroke-linecap: butt; stroke-width: 1;"/>
			<g transform=" matrix(0.707107,0.707107,-0.707107,0.707107,680.700511,231.327334)">
				<text style="font-family: Helvetica; font-size: 6px;fill: rgb(0%,0%,0%); stroke:none;" transform="translate(0,0) scale(1,-1)" x="0" y="0">10000</text>
			</g>
			<g transform=" matrix(0.707107,0.707107,-0.707107,0.707107,680.700511,518.335208)">
				<text style="font-family: Helvetica; font-size: 6px;fill: rgb(0%,0%,0%); stroke:none;" transform="translate(0,0) scale(1,-1)" x="0" y="0">10000</text>
			</g>
			<g transform=" matrix(0.707107,0.707107,-0.707107,0.707107,1290.534881,518.335208)">
				<text style="font-family: Helvetica; font-size: 6px;fill: rgb(0%,0%,0%); stroke:none;" transform="translate(0,0) scale(1,-1)" x="0" y="0">20000</text>
			</g>
			<g transform=" matrix(0.707107,-0.707107,0.707107,0.707107,93.064113,169.825647)">
				<text style="font-family: Helvetica; font-size: 10px;fill: rgb(0%,0%,0%); stroke:none;" transform="translate(0,0) scale(1,-1)" x="0" y="0">Gene_01511</text>
			</g>
			<g transform=" matrix(0.707107,-0.707107,0.707107,0.707107,151.455754,169.825647)">
				<text style="font-family: Helvetica; font-size: 10px;fill: rgb(0%,0%,0%); stroke:none;" transform="translate(0,0) scale(1,-1)" x="0" y="0">Gene_01512</text>
			</g>
			<g transform=" matrix(0.707107,-0.707107,0.707107,0.707107,218.720485,169.825647)">
				<text style="font-family: Helvetica; font-size: 10px;fill: rgb(0%,0%,0%); stroke:none;" transform="translate(0,0) scale(1,-1)" x="0" y="0">Gene_01513</text>
			</g>
			<g transform=" matrix(0.707107,-0.707107,0.707107,0.707107,272.629843,169.825647)">
				<text style="font-family: Helvetica; font-size: 10px;fill: rgb(0%,0%,0%); stroke:none;" transform="translate(0,0) scale(1,-1)" x="0" y="0">Gene_01514</text>
			</g>
			<g transform=" matrix(0.707107,-0.707107,0.707107,0.707107,316.568409,169.825647)">
				<text style="font-family: Helvetica; font-size: 10px;fill: rgb(0%,0%,0%); stroke:none;" transform="translate(0,0) scale(1,-1)" x="0" y="0">Gene_01515</text>
			</g>
			<g transform=" matrix(0.707107,-0.707107,0.707107,0.707107,371.94137,169.825647)">
				<text style="font-family: Helvetica; font-size: 10px;fill: rgb(0%,0%,0%); stroke:none;" transform="translate(0,0) scale(1,-1)" x="0" y="0">Gene_01516</text>
			</g>
			<g transform=" matrix(0.707107,-0.707107,0.707107,0.707107,490.584647,169.825647)">
				<text style="font-family: Helvetica; font-size: 10px;fill: rgb(0%,0%,0%); stroke:none;" transform="translate(0,0) scale(1,-1)" x="0" y="0">Gene_01517</text>
			</g>
			<g transform=" matrix(0.707107,-0.707107,0.707107,0.707107,545.46974,169.825647)">
				<text style="font-family: Helvetica; font-size: 10px;fill: rgb(0%,0%,0%); stroke:none;" transform="translate(0,0) scale(1,-1)" x="0" y="0">Gene_01518</text>
			</g>
			<g transform=" matrix(0.707107,-0.707107,0.707107,0.707107,592.853871,169.825647)">
				<text style="font-family: Helvetica; font-size: 10px;fill: rgb(0%,0%,0%); stroke:none;" transform="translate(0,0) scale(1,-1)" x="0" y="0">Gene_01519</text>
			</g>
			<g transform=" matrix(0.707107,-0.707107,0.707107,0.707107,652.770097,169.825647)">
				<text style="font-family: Helvetica; font-size: 10px;fill: rgb(0%,0%,0%); stroke:none;" transform="translate(0,0) scale(1,-1)" x="0" y="0">Gene_01520</text>
			</g>
			<g transform=" matrix(0.707107,-0.707107,0.707107,0.707107,714.759761,169.825647)">
				<text style="font-family: Helvetica; font-size: 16px;fill: rgb(0%,0%,100%); stroke:none;" transform="translate(0,0) scale(1,-1)" x="0" y="0">Gene_01521 (80.2)</text>
			</g>
			<g transform=" matrix(0.707107,-0.707107,0.707107,0.707107,790.592665,169.825647)">
				<text style="font-family: Helvetica; font-size: 10px;fill: rgb(0%,0%,0%); stroke:none;" transform="translate(0,0) scale(1,-1)" x="0" y="0">Gene_01522</text>
			</g>
			<g transform=" matrix(0.707107,0.707107,-0.707107,0.707107,869.871133,251.827897)">
				<text style="font-family: Helvetica; font-size: 10px;fill: rgb(0%,0%,0%); stroke:none;" transform="translate(0,0) scale(1,-1)" x="0" y="0">Gene_01523</text>
			</g>
			<g transform=" matrix(0.707107,-0.707107,0.707107,0.707107,930.549653,169.825647)">
				<text style="font-family: Helvetica; font-size: 10px;fill: rgb(0%,0%,0%); stroke:none;" transform="translate(0,0) scale(1,-1)" x="0" y="0">Gene_01524</text>
			</g>
			<g transform=" matrix(0.707107,-0.707107,0.707107,0.707107,969.579052,169.825647)">
				<text style="font-family: Helvetica; font-size: 10px;fill: rgb(0%,0%,0%); stroke:none;" transform="translate(0,0) scale(1,-1)" x="0" y="0">Gene_01525</text>
			</g>
			<g transform=" matrix(0.707107,-0.707107,0.707107,0.707107,1016.109415,169.825647)">
				<text style="font-family: Helvetica; font-size: 10px;fill: rgb(0%,0%,0%); stroke:none;" transform="translate(0,0) scale(1,-1)" x="0" y="0">Gene_01526</text>
			</g>
			<g transform=" matrix(0.707107,-0.707107,0.707107,0.707107,1064.255838,169.825647)">
				<text style="font-family: Helvetica; font-size: 10px;fill: rgb(0%,0%,0%); stroke:none;" transform="translate(0,0) scale(1,-1)" x="0" y="0">Gene_01527</text>
			</g>
			<g transform=" matrix(0.707107,-0.707107,0.707107,0.707107,1097.308861,169.825647)">
				<text style="font-family: Helvetica; font-size: 10px;fill: rgb(0%,0%,0%); stroke:none;" transform="translate(0,0) scale(1,-1)" x="0" y="0">Gene_01528</text>
			</g>
			<g transform=" matrix(0.707107,0.707107,-0.707107,0.707107,1150.69986,251.827897)">
				<text style="font-family: Helvetica; font-size: 10px;fill: rgb(0%,0%,0%); stroke:none;" transform="translate(0,0) scale(1,-1)" x="0" y="0">Gene_01529</text>
			</g>
			<g transform=" matrix(0.707107,-0.707107,0.707107,0.707107,105.931618,456.833521)">
				<text style="font-family: Helvetica; font-size: 10px;fill: rgb(0%,0%,0%); stroke:none;" transform="translate(0,0) scale(1,-1)" x="0" y="0">Gene_02438</text>
			</g>
			<g transform=" matrix(0.707107,0.707107,-0.707107,0.707107,130.782369,538.835771)">
				<text style="font-family: Helvetica; font-size: 10px;fill: rgb(0%,0%,0%); stroke:none;" transform="translate(0,0) scale(1,-1)" x="0" y="0">Gene_02439</text>
			</g>
			<g transform=" matrix(0.707107,0.707107,-0.707107,0.707107,166.213745,538.835771)">
				<text style="font-family: Helvetica; font-size: 10px;fill: rgb(0%,0%,0%); stroke:none;" transform="translate(0,0) scale(1,-1)" x="0" y="0">Gene_02440</text>
			</g>
			<g transform=" matrix(0.707107,0.707107,-0.707107,0.707107,223.59916,538.835771)">
				<text style="font-family: Helvetica; font-size: 10px;fill: rgb(0%,0%,0%); stroke:none;" transform="translate(0,0) scale(1,-1)" x="0" y="0">Gene_02441</text>
			</g>
			<g transform=" matrix(0.707107,0.707107,-0.707107,0.707107,257.353492,538.835771)">
				<text style="font-family: Helvetica; font-size: 10px;fill: rgb(0%,0%,0%); stroke:none;" transform="translate(0,0) scale(1,-1)" x="0" y="0">Gene_02442</text>
			</g>
			<g transform=" matrix(0.707107,-0.707107,0.707107,0.707107,306.567126,456.833521)">
				<text style="font-family: Helvetica; font-size: 10px;fill: rgb(0%,0%,0%); stroke:none;" transform="translate(0,0) scale(1,-1)" x="0" y="0">Gene_02443</text>
			</g>
			<g transform=" matrix(0.707107,-0.707107,0.707107,0.707107,367.794496,456.833521)">
				<text style="font-family: Helvetica; font-size: 10px;fill: rgb(0%,0%,0%); stroke:none;" transform="translate(0,0) scale(1,-1)" x="0" y="0">Gene_02444</text>
			</g>
			<g transform=" matrix(0.707107,-0.707107,0.707107,0.707107,449.11591,456.833521)">
				<text style="font-family: Helvetica; font-size: 10px;fill: rgb(0%,0%,0%); stroke:none;" transform="translate(0,0) scale(1,-1)" x="0" y="0">Gene_02445</text>
			</g>
			<g transform=" matrix(0.707107,-0.707107,0.707107,0.707107,504.092478,456.833521)">
				<text style="font-family: Helvetica; font-size: 10px;fill: rgb(0%,0%,0%); stroke:none;" transform="translate(0,0) scale(1,-1)" x="0" y="0">Gene_02446</text>
			</g>
			<g transform=" matrix(0.707107,-0.707107,0.707107,0.707107,550.958249,456.833521)">
				<text style="font-family: Helvetica; font-size: 10px;fill: rgb(0%,0%,0%); stroke:none;" transform="translate(0,0) scale(1,-1)" x="0" y="0">Gene_02447</text>
			</g>
			<g transform=" matrix(0.707107,-0.707107,0.707107,0.707107,616.942328,456.833521)">
				<text style="font-family: Helvetica; font-size: 16px;fill: rgb(0%,0%,100%); stroke:none;" transform="translate(0,0) scale(1,-1)" x="0" y="0">Gene_02448 (80.2)</text>
			</g>
			<g transform=" matrix(0.707107,-0.707107,0.707107,0.707107,708.661417,456.833521)">
				<text style="font-family: Helvetica; font-size: 10px;fill: rgb(0%,0%,0%); stroke:none;" transform="translate(0,0) scale(1,-1)" x="0" y="0">Gene_02449</text>
			</g>
			<g transform=" matrix(0.707107,0.707107,-0.707107,0.707107,773.791728,538.835771)">
				<text style="font-family: Helvetica; font-size: 10px;fill: rgb(0%,0%,0%); stroke:none;" transform="translate(0,0) scale(1,-1)" x="0" y="0">Gene_02450</text>
			</g>
			<g transform=" matrix(0.707107,0.707107,-0.707107,0.707107,811.601459,538.835771)">
				<text style="font-family: Helvetica; font-size: 10px;fill: rgb(0%,0%,0%); stroke:none;" transform="translate(0,0) scale(1,-1)" x="0" y="0">Gene_02451</text>
			</g>
			<g transform=" matrix(0.707107,0.707107,-0.707107,0.707107,853.192163,538.835771)">
				<text style="font-family: Helvetica; font-size: 10px;fill: rgb(0%,0%,0%); stroke:none;" transform="translate(0,0) scale(1,-1)" x="0" y="0">Gene_02452</text>
			</g>
			<g transform=" matrix(0.707107,-0.707107,0.707107,0.707107,886.336661,456.833521)">
				<text style="font-family: Helvetica; font-size: 10px;fill: rgb(0%,0%,0%); stroke:none;" transform="translate(0,0) scale(1,-1)" x="0" y="0">Gene_02453</text>
			</g>
			<g transform=" matrix(0.707107,-0.707107,0.707107,0.707107,920.944761,456.833521)">
				<text style="font-family: Helvetica; font-size: 10px;fill: rgb(0%,0%,0%); stroke:none;" transform="translate(0,0) scale(1,-1)" x="0" y="0">Gene_02454</text>
			</g>
			<g transform=" matrix(0.707107,-0.707107,0.707107,0.707107,966.621356,456.833521)">
				<text style="font-family: Helvetica; font-size: 10px;fill: rgb(0%,0%,0%); stroke:none;" transform="translate(0,0) scale(1,-1)" x="0" y="0">Gene_02455</text>
			</g>
			<g transform=" matrix(0.707107,-0.707107,0.707107,0.707107,1010.407463,456.833521)">
				<text style="font-family: Helvetica; font-size: 10px;fill: rgb(0%,0%,0%); stroke:none;" transform="translate(0,0) scale(1,-1)" x="0" y="0">Gene_02456</text>
			</g>
			<g transform=" matrix(0.707107,-0.707107,0.707107,0.707107,1059.163721,456.833521)">
				<text style="font-family: Helvetica; font-size: 10px;fill: rgb(0%,0%,0%); stroke:none;" transform="translate(0,0) scale(1,-1)" x="0" y="0">Gene_02457</text>
			</g>
			<g transform=" matrix(0.707107,-0.707107,0.707107,0.707107,1176.831263,456.833521)">
				<text style="font-family: Helvetica; font-size: 10px;fill: rgb(0%,0%,0%); stroke:none;" transform="translate(0,0) scale(1,-1)" x="0" y="0">Gene_02458</text>
			</g>
			<g transform=" matrix(0.707107,-0.707107,0.707107,0.707107,1300.322723,456.833521)">
				<text style="font-family: Helvetica; font-size: 10px;fill: rgb(0%,0%,0%); stroke:none;" transform="translate(0,0) scale(1,-1)" x="0" y="0">Gene_02459</text>
			</g>
			<g transform=" matrix(1,0,-0,1,70,169.825647)">
				<text style="font-family: Helvetica; font-size: 12px;fill: rgb(60%,60%,60%); stroke:none;" transform="translate(0,0) scale(1,-1)" x="0" y="0">megahit_52825 (left 23933bp, right 7544bp)</text>
			</g>
			<g transform=" matrix(1,0,-0,1,70,456.833521)">
				<text style="font-family: Helvetica; font-size: 12px;fill: rgb(60%,60%,60%); stroke:none;" transform="translate(0,0) scale(1,-1)" x="0" y="0">megahit_98717 (left 8424bp, right 16291bp)</text>
			</g>
		</g>
	</g>
</svg>
