<?xml version="1.0" encoding="utf-8"?>
<!DOCTYPE svg
  PUBLIC '-//W3C//DTD SVG 1.0//EN'
  'http://www.w3.org/TR/2001/REC-SVG-20010904/DTD/svg10.dtd'>
<svg fill-rule="evenodd" height="708.6614173228346" preserveAspectRatio="xMinYMin meet" version="1.0" viewBox="0 0 1417 708" width="1417.3228346456692" xmlns="http://www.w3.org/2000/svg" xmlns:xlink="http://www.w3.org/1999/xlink">
	<title>...</title>
	<desc>...</desc>
	<clipPath id="clip">
		<rect height="708.6614173228346" width="1417.3228346456692" x="0" y="0"/>
	</clipPath>
	<g id="group" style="clip-path: url(#clip)" transform="scale(1,-1) translate(0,-708)">
		<g transform="">
			<polygon points="70.86614 169.8256, 559.9434 169.8256, 559.9434 251.8279, 70.86614 251.8279" style="stroke: rgb(96%,96%,96%); stroke-linecap: butt; stroke-width: 1; fill: rgb(96%,96%,96%); fill-rule: evenodd;"/>
			<polygon points="70.86614 456.8335, 1346.368 456.8335, 1346.368 538.8358, 70.86614 538.8358" style="stroke: rgb(96%,96%,96%); stroke-linecap: butt; stroke-width: 1; fill: rgb(96%,96%,96%); fill-rule: evenodd;"/>
			<polygon points="989.2664 456.8335, 1099.87 456.8335, 245.7656 251.8279, 356.369 251.8279" style="stroke: rgb(100%,2%,2%); stroke-linecap: round; stroke-width: 1; fill: rgb(100%,2%,2%); fill-rule: evenodd;"/>
			<polygon points="99.80826 241.5776, 103.3556 241.5776, 103.3556 251.8279, 119.7561 231.3273, 103.3556 210.8268, 103.3556 221.0771, 99.80826 221.0771" style="stroke: rgb(67%,84%,90%); stroke-linecap: round; stroke-width: 1; fill: rgb(67%,84%,90%); fill-rule: evenodd;"/>
			<polygon points="121.4481 241.5776, 142.3607 241.5776, 142.3607 251.8279, 158.7611 231.3273, 142.3607 210.8268, 142.3607 221.0771, 121.4481 221.0771" style="stroke: rgb(67%,84%,90%); stroke-linecap: round; stroke-width: 1; fill: rgb(67%,84%,90%); fill-rule: evenodd;"/>
			<polygon points="161.7889 241.5776, 203.0056 241.5776, 203.0056 251.8279, 219.406 231.3273, 203.0056 210.8268, 203.0056 221.0771, 161.7889 221.0771" style="stroke: rgb(67%,84%,90%); stroke-linecap: round; stroke-width: 1; fill: rgb(67%,84%,90%); fill-rule: evenodd;"/>
			<polygon points="219.7622 241.5776, 227.0498 241.5776, 227.0498 251.8279, 243.4502 231.3273, 227.0498 210.8268, 227.0498 221.0771, 219.7622 221.0771" style="stroke: rgb(67%,84%,90%); stroke-linecap: round; stroke-width: 1; fill: rgb(67%,84%,90%); fill-rule: evenodd;"/>
			<polygon points="321.7275 200.5765, 265.8172 200.5765, 265.8172 210.8268, 249.4168 190.3262, 265.8172 169.8256, 265.8172 180.0759, 321.7275 180.0759" style="stroke: rgb(56%,93%,56%); stroke-linecap: round; stroke-width: 1; fill: rgb(56%,93%,56%); fill-rule: evenodd;"/>
			<polygon points="386.3798 241.5776, 400.0791 241.5776, 400.0791 251.8279, 416.4796 231.3273, 400.0791 210.8268, 400.0791 221.0771, 386.3798 221.0771" style="stroke: rgb(67%,84%,90%); stroke-linecap: round; stroke-width: 1; fill: rgb(67%,84%,90%); fill-rule: evenodd;"/>
			<polygon points="416.2124 241.5776, 426.4387 241.5776, 426.4387 251.8279, 442.8392 231.3273, 426.4387 210.8268, 426.4387 221.0771, 416.2124 221.0771" style="stroke: rgb(67%,84%,90%); stroke-linecap: round; stroke-width: 1; fill: rgb(67%,84%,90%); fill-rule: evenodd;"/>
			<polygon points="442.572 241.5776, 454.6684 241.5776, 454.6684 251.8279, 471.0689 231.3273, 454.6684 210.8268, 454.6684 221.0771, 442.572 221.0771" style="stroke: rgb(67%,84%,90%); stroke-linecap: round; stroke-width: 1; fill: rgb(67%,84%,90%); fill-rule: evenodd;"/>
			<polygon points="500.7234 241.5776, 500.7234 251.8279, 516.1295 231.3273, 500.7234 210.8268, 500.7234 221.0771" style="stroke: rgb(67%,84%,90%); stroke-linecap: round; stroke-width: 1; fill: rgb(67%,84%,90%); fill-rule: evenodd;"/>
			<polygon points="246.8342 487.5844, 87.26659 487.5844, 87.26659 497.8346, 70.86614 477.3341, 87.26659 456.8335, 87.26659 467.0838, 246.8342 467.0838" style="stroke: rgb(56%,93%,56%); stroke-linecap: round; stroke-width: 1; fill: rgb(56%,93%,56%); fill-rule: evenodd;"/>
			<polygon points="439.6333 487.5844, 271.7837 487.5844, 271.7837 497.8346, 255.3833 477.3341, 271.7837 456.8335, 271.7837 467.0838, 439.6333 467.0838" style="stroke: rgb(56%,93%,56%); stroke-linecap: round; stroke-width: 1; fill: rgb(56%,93%,56%); fill-rule: evenodd;"/>
			<polygon points="459.3139 528.5855, 576.1363 528.5855, 576.1363 538.8358, 592.5367 518.3352, 576.1363 497.8346, 576.1363 508.0849, 459.3139 508.0849" style="stroke: rgb(67%,84%,90%); stroke-linecap: round; stroke-width: 1; fill: rgb(67%,84%,90%); fill-rule: evenodd;"/>
			<polygon points="646.5917 487.5844, 613.9241 487.5844, 613.9241 497.8346, 597.5237 477.3341, 613.9241 456.8335, 613.9241 467.0838, 646.5917 467.0838" style="stroke: rgb(56%,93%,56%); stroke-linecap: round; stroke-width: 1; fill: rgb(56%,93%,56%); fill-rule: evenodd;"/>
			<polygon points="655.7641 528.5855, 758.6943 528.5855, 758.6943 538.8358, 775.0947 518.3352, 758.6943 497.8346, 758.6943 508.0849, 655.7641 508.0849" style="stroke: rgb(67%,84%,90%); stroke-linecap: round; stroke-width: 1; fill: rgb(67%,84%,90%); fill-rule: evenodd;"/>
			<polygon points="789.9665 528.5855, 895.5682 528.5855, 895.5682 538.8358, 911.9687 518.3352, 895.5682 497.8346, 895.5682 508.0849, 789.9665 508.0849" style="stroke: rgb(67%,84%,90%); stroke-linecap: round; stroke-width: 1; fill: rgb(67%,84%,90%); fill-rule: evenodd;"/>
			<polygon points="984.4576 487.5844, 932.8218 487.5844, 932.8218 497.8346, 916.4213 477.3341, 932.8218 456.8335, 932.8218 467.0838, 984.4576 467.0838" style="stroke: rgb(56%,93%,56%); stroke-linecap: round; stroke-width: 1; fill: rgb(56%,93%,56%); fill-rule: evenodd;"/>
			<polygon points="1023.908 528.5855, 1079.818 528.5855, 1079.818 538.8358, 1096.219 518.3352, 1079.818 497.8346, 1079.818 508.0849, 1023.908 508.0849" style="stroke: rgb(67%,84%,90%); stroke-linecap: round; stroke-width: 1; fill: rgb(67%,84%,90%); fill-rule: evenodd;"/>
			<polygon points="1221.338 487.5844, 1120.278 487.5844, 1120.278 497.8346, 1103.877 477.3341, 1120.278 456.8335, 1120.278 467.0838, 1221.338 467.0838" style="stroke: rgb(56%,93%,56%); stroke-linecap: round; stroke-width: 1; fill: rgb(56%,93%,56%); fill-rule: evenodd;"/>
			<polygon points="1317.247 487.5844, 1269.886 487.5844, 1269.886 497.8346, 1253.486 477.3341, 1269.886 456.8335, 1269.886 467.0838, 1317.247 467.0838" style="stroke: rgb(56%,93%,56%); stroke-linecap: round; stroke-width: 1; fill: rgb(56%,93%,56%); fill-rule: evenodd;"/>
			<path d="M 559.943446,169.825647 L 559.943446,251.827897 Z" style="stroke: rgb(0%,0%,0%); stroke-linecap: butt; stroke-width: 1;"/>
			<path d="M 70.866142,210.826772 L 559.943446,210.826772 Z" style="stroke: rgb(0%,0%,0%); stroke-linecap: butt; stroke-width: 1;"/>
			<path d="M 70.866142,169.825647 L 70.866142,251.827897 Z" style="stroke: rgb(0%,0%,0%); stroke-linecap: butt; stroke-width: 1;"/>
			<path d="M 1346.36764,456.833521 L 1346.36764,538.835771 Z" style="stroke: rgb(0%,0%,0%); stroke-linecap: butt; stroke-width: 1;"/>
			<path d="M 70.866142,497.834646 L 1346.36764,497.834646 Z" style="stroke: rgb(0%,0%,0%); stroke-linecap: butt; stroke-width: 1;"/>
			<path d="M 70.866142,456.833521 L 70.866142,538.835771 Z" style="stroke: rgb(0%,0%,0%); stroke-linecap: butt; stroke-width: 1;"/>
			<path d="M 961.392916,497.834646 L 961.392916,518.335208 Z" style="stroke: rgb(0%,0%,0%); stroke-linecap: butt; stroke-width: 1;"/>
			<path d="M 961.392916,497.834646 L 961.392916,510.134983 Z" style="stroke: rgb(0%,0%,0%); stroke-linecap: butt; stroke-width: 1;"/>
			<g transform=" matrix(0.707107,0.707107,-0.707107,0.707107,961.392916,518.335208)">
				<text style="font-family: Helvetica; font-size: 6px;fill: rgb(0%,0%,0%); stroke:none;" transform="translate(0,0) scale(1,-1)" x="0" y="0">10000</text>
			</g>
			<g transform=" matrix(0.707107,0.707107,-0.707107,0.707107,109.782162,251.827897)">
				<text style="font-family: Helvetica; font-size: 10px;fill: rgb(0%,0%,0%); stroke:none;" transform="translate(0,0) scale(1,-1)" x="0" y="0">Gene_01840</text>
			</g>
			<g transform=" matrix(0.707107,0.707107,-0.707107,0.707107,140.104598,251.827897)">
				<text style="font-family: Helvetica; font-size: 10px;fill: rgb(0%,0%,0%); stroke:none;" transform="translate(0,0) scale(1,-1)" x="0" y="0">Gene_01841</text>
			</g>
			<g transform=" matrix(0.707107,0.707107,-0.707107,0.707107,190.597467,251.827897)">
				<text style="font-family: Helvetica; font-size: 10px;fill: rgb(0%,0%,0%); stroke:none;" transform="translate(0,0) scale(1,-1)" x="0" y="0">Gene_01842</text>
			</g>
			<g transform=" matrix(0.707107,0.707107,-0.707107,0.707107,231.606224,251.827897)">
				<text style="font-family: Helvetica; font-size: 10px;fill: rgb(0%,0%,0%); stroke:none;" transform="translate(0,0) scale(1,-1)" x="0" y="0">Gene_01843</text>
			</g>
			<g transform=" matrix(0.707107,-0.707107,0.707107,0.707107,285.572147,169.825647)">
				<text style="font-family: Helvetica; font-size: 16px;fill: rgb(0%,0%,100%); stroke:none;" transform="translate(0,0) scale(1,-1)" x="0" y="0">Gene_01844 (99.1)</text>
			</g>
			<g transform=" matrix(0.707107,0.707107,-0.707107,0.707107,401.42968,251.827897)">
				<text style="font-family: Helvetica; font-size: 10px;fill: rgb(0%,0%,0%); stroke:none;" transform="translate(0,0) scale(1,-1)" x="0" y="0">Gene_01845</text>
			</g>
			<g transform=" matrix(0.707107,0.707107,-0.707107,0.707107,429.5258,251.827897)">
				<text style="font-family: Helvetica; font-size: 10px;fill: rgb(0%,0%,0%); stroke:none;" transform="translate(0,0) scale(1,-1)" x="0" y="0">Gene_01846</text>
			</g>
			<g transform=" matrix(0.707107,0.707107,-0.707107,0.707107,456.820446,251.827897)">
				<text style="font-family: Helvetica; font-size: 10px;fill: rgb(0%,0%,0%); stroke:none;" transform="translate(0,0) scale(1,-1)" x="0" y="0">Gene_01847</text>
			</g>
			<g transform=" matrix(0.707107,0.707107,-0.707107,0.707107,508.426472,251.827897)">
				<text style="font-family: Helvetica; font-size: 10px;fill: rgb(0%,0%,0%); stroke:none;" transform="translate(0,0) scale(1,-1)" x="0" y="0">Gene_01848</text>
			</g>
			<g transform=" matrix(0.707107,-0.707107,0.707107,0.707107,158.850187,456.833521)">
				<text style="font-family: Helvetica; font-size: 10px;fill: rgb(0%,0%,0%); stroke:none;" transform="translate(0,0) scale(1,-1)" x="0" y="0">Gene_00434</text>
			</g>
			<g transform=" matrix(0.707107,-0.707107,0.707107,0.707107,347.508284,456.833521)">
				<text style="font-family: Helvetica; font-size: 10px;fill: rgb(0%,0%,0%); stroke:none;" transform="translate(0,0) scale(1,-1)" x="0" y="0">Gene_00435</text>
			</g>
			<g transform=" matrix(0.707107,0.707107,-0.707107,0.707107,525.925323,538.835771)">
				<text style="font-family: Helvetica; font-size: 10px;fill: rgb(0%,0%,0%); stroke:none;" transform="translate(0,0) scale(1,-1)" x="0" y="0">Gene_00436</text>
			</g>
			<g transform=" matrix(0.707107,-0.707107,0.707107,0.707107,622.057689,456.833521)">
				<text style="font-family: Helvetica; font-size: 10px;fill: rgb(0%,0%,0%); stroke:none;" transform="translate(0,0) scale(1,-1)" x="0" y="0">Gene_00437</text>
			</g>
			<g transform=" matrix(0.707107,0.707107,-0.707107,0.707107,715.429421,538.835771)">
				<text style="font-family: Helvetica; font-size: 10px;fill: rgb(0%,0%,0%); stroke:none;" transform="translate(0,0) scale(1,-1)" x="0" y="0">Gene_00438</text>
			</g>
			<g transform=" matrix(0.707107,0.707107,-0.707107,0.707107,850.967596,538.835771)">
				<text style="font-family: Helvetica; font-size: 10px;fill: rgb(0%,0%,0%); stroke:none;" transform="translate(0,0) scale(1,-1)" x="0" y="0">Gene_00439</text>
			</g>
			<g transform=" matrix(0.707107,-0.707107,0.707107,0.707107,950.439436,456.833521)">
				<text style="font-family: Helvetica; font-size: 10px;fill: rgb(0%,0%,0%); stroke:none;" transform="translate(0,0) scale(1,-1)" x="0" y="0">Gene_00440</text>
			</g>
			<g transform=" matrix(0.707107,0.707107,-0.707107,0.707107,1060.063282,538.835771)">
				<text style="font-family: Helvetica; font-size: 16px;fill: rgb(0%,0%,100%); stroke:none;" transform="translate(0,0) scale(1,-1)" x="0" y="0">Gene_00441 (99.1)</text>
			</g>
			<g transform=" matrix(0.707107,-0.707107,0.707107,0.707107,1162.60744,456.833521)">
				<text style="font-family: Helvetica; font-size: 10px;fill: rgb(0%,0%,0%); stroke:none;" transform="translate(0,0) scale(1,-1)" x="0" y="0">Gene_00442</text>
			</g>
			<g transform=" matrix(0.707107,-0.707107,0.707107,0.707107,1285.366556,456.833521)">
				<text style="font-family: Helvetica; font-size: 10px;fill: rgb(0%,0%,0%); stroke:none;" transform="translate(0,0) scale(1,-1)" x="0" y="0">Gene_00443</text>
			</g>
			<g transform=" matrix(1,0,-0,1,70,169.825647)">
				<text style="font-family: Helvetica; font-size: 12px;fill: rgb(60%,60%,60%); stroke:none;" transform="translate(0,0) scale(1,-1)" x="0" y="0">megahit_3850 (left 2005bp, right 2675bp)</text>
			</g>
			<g transform=" matrix(1,0,-0,1,70,456.833521)">
				<text style="font-family: Helvetica; font-size: 12px;fill: rgb(60%,60%,60%); stroke:none;" transform="translate(0,0) scale(1,-1)" x="0" y="0">megahit_18799 (left 31181bp, right 2809bp)</text>
			</g>
		</g>
	</g>
</svg>
