<?xml version="1.0" encoding="utf-8"?>
<!DOCTYPE svg
  PUBLIC '-//W3C//DTD SVG 1.0//EN'
  'http://www.w3.org/TR/2001/REC-SVG-20010904/DTD/svg10.dtd'>
<svg fill-rule="evenodd" height="708.6614173228346" preserveAspectRatio="xMinYMin meet" version="1.0" viewBox="0 0 1417 708" width="1417.3228346456692" xmlns="http://www.w3.org/2000/svg" xmlns:xlink="http://www.w3.org/1999/xlink">
	<title>...</title>
	<desc>...</desc>
	<clipPath id="clip">
		<rect height="708.6614173228346" width="1417.3228346456692" x="0" y="0"/>
	</clipPath>
	<g id="group" style="clip-path: url(#clip)" transform="scale(1,-1) translate(0,-708)">
		<g transform="">
			<polygon points="70.86614 169.8256, 907.4139 169.8256, 907.4139 251.8279, 70.86614 251.8279" style="stroke: rgb(96%,96%,96%); stroke-linecap: butt; stroke-width: 1; fill: rgb(96%,96%,96%); fill-rule: evenodd;"/>
			<polygon points="70.86614 456.8335, 1346.395 456.8335, 1346.395 538.8358, 70.86614 538.8358" style="stroke: rgb(96%,96%,96%); stroke-linecap: butt; stroke-width: 1; fill: rgb(96%,96%,96%); fill-rule: evenodd;"/>
			<polygon points="493.1459 456.8335, 573.9411 456.8335, 343.5115 251.8279, 262.7162 251.8279" style="stroke: rgb(100%,39%,39%); stroke-linecap: round; stroke-width: 1; fill: rgb(100%,39%,39%); fill-rule: evenodd;"/>
			<polygon points="658.9271 456.8335, 699.109 456.8335, 458.6955 251.8279, 418.6984 251.8279" style="stroke: rgb(100%,45%,45%); stroke-linecap: round; stroke-width: 1; fill: rgb(100%,45%,45%); fill-rule: evenodd;"/>
			<polygon points="703.423 456.8335, 730.4163 456.8335, 494.3785 251.8279, 467.2002 251.8279" style="stroke: rgb(100%,35%,35%); stroke-linecap: round; stroke-width: 1; fill: rgb(100%,35%,35%); fill-rule: evenodd;"/>
			<polygon points="611.3497 456.8335, 657.7561 456.8335, 408.8379 251.8279, 362.0001 251.8279" style="stroke: rgb(100%,65%,65%); stroke-linecap: round; stroke-width: 1; fill: rgb(100%,65%,65%); fill-rule: evenodd;"/>
			<polygon points="454.5663 456.8335, 483.2853 456.8335, 261.3604 251.8279, 231.6554 251.8279" style="stroke: rgb(100%,57%,57%); stroke-linecap: round; stroke-width: 1; fill: rgb(100%,57%,57%); fill-rule: evenodd;"/>
			<polygon points="586.8215 456.8335, 599.7635 456.8335, 358.7954 251.8279, 345.8533 251.8279" style="stroke: rgb(100%,39%,39%); stroke-linecap: round; stroke-width: 1; fill: rgb(100%,39%,39%); fill-rule: evenodd;"/>
			<polygon points="88.73846 241.5776, 172.6695 241.5776, 172.6695 251.8279, 189.07 231.3273, 172.6695 210.8268, 172.6695 221.0771, 88.73846 221.0771" style="stroke: rgb(67%,84%,90%); stroke-linecap: round; stroke-width: 1; fill: rgb(67%,84%,90%); fill-rule: evenodd;"/>
			<polygon points="198.6224 241.5776, 198.6224 251.8279, 210.5784 231.3273, 198.6224 210.8268, 198.6224 221.0771" style="stroke: rgb(67%,84%,90%); stroke-linecap: round; stroke-width: 1; fill: rgb(67%,84%,90%); fill-rule: evenodd;"/>
			<polygon points="239.9136 241.5776, 244.8983 241.5776, 244.8983 251.8279, 261.2988 231.3273, 244.8983 210.8268, 244.8983 221.0771, 239.9136 221.0771" style="stroke: rgb(67%,84%,90%); stroke-linecap: round; stroke-width: 1; fill: rgb(67%,84%,90%); fill-rule: evenodd;"/>
			<polygon points="262.7162 241.5776, 330.0075 241.5776, 330.0075 251.8279, 346.408 231.3273, 330.0075 210.8268, 330.0075 221.0771, 262.7162 221.0771" style="stroke: rgb(67%,84%,90%); stroke-linecap: round; stroke-width: 1; fill: rgb(67%,84%,90%); fill-rule: evenodd;"/>
			<polygon points="346.0382 241.5776, 346.0382 251.8279, 360.3977 231.3273, 346.0382 210.8268, 346.0382 221.0771" style="stroke: rgb(67%,84%,90%); stroke-linecap: round; stroke-width: 1; fill: rgb(67%,84%,90%); fill-rule: evenodd;"/>
			<polygon points="362.0001 241.5776, 362.0001 251.8279, 375.62 231.3273, 362.0001 210.8268, 362.0001 221.0771" style="stroke: rgb(67%,84%,90%); stroke-linecap: round; stroke-width: 1; fill: rgb(67%,84%,90%); fill-rule: evenodd;"/>
			<polygon points="377.5921 241.5776, 392.3758 241.5776, 392.3758 251.8279, 408.7762 231.3273, 392.3758 210.8268, 392.3758 221.0771, 377.5921 221.0771" style="stroke: rgb(67%,84%,90%); stroke-linecap: round; stroke-width: 1; fill: rgb(67%,84%,90%); fill-rule: evenodd;"/>
			<polygon points="418.6984 241.5776, 446.7939 241.5776, 446.7939 251.8279, 463.1944 231.3273, 446.7939 210.8268, 446.7939 221.0771, 418.6984 221.0771" style="stroke: rgb(67%,84%,90%); stroke-linecap: round; stroke-width: 1; fill: rgb(67%,84%,90%); fill-rule: evenodd;"/>
			<polygon points="467.2002 241.5776, 482.9083 241.5776, 482.9083 251.8279, 499.3088 231.3273, 482.9083 210.8268, 482.9083 221.0771, 467.2002 221.0771" style="stroke: rgb(67%,84%,90%); stroke-linecap: round; stroke-width: 1; fill: rgb(67%,84%,90%); fill-rule: evenodd;"/>
			<polygon points="507.6903 241.5776, 546.3242 241.5776, 546.3242 251.8279, 562.7247 231.3273, 546.3242 210.8268, 546.3242 221.0771, 507.6903 221.0771" style="stroke: rgb(67%,84%,90%); stroke-linecap: round; stroke-width: 1; fill: rgb(67%,84%,90%); fill-rule: evenodd;"/>
			<polygon points="572.955 200.5765, 572.955 210.8268, 563.7724 190.3262, 572.955 169.8256, 572.955 180.0759" style="stroke: rgb(56%,93%,56%); stroke-linecap: round; stroke-width: 1; fill: rgb(56%,93%,56%); fill-rule: evenodd;"/>
			<polygon points="608.0218 200.5765, 595.8265 200.5765, 595.8265 210.8268, 579.4261 190.3262, 595.8265 169.8256, 595.8265 180.0759, 608.0218 180.0759" style="stroke: rgb(56%,93%,56%); stroke-linecap: round; stroke-width: 1; fill: rgb(56%,93%,56%); fill-rule: evenodd;"/>
			<polygon points="625.4627 241.5776, 656.3314 241.5776, 656.3314 251.8279, 672.7319 231.3273, 656.3314 210.8268, 656.3314 221.0771, 625.4627 221.0771" style="stroke: rgb(67%,84%,90%); stroke-linecap: round; stroke-width: 1; fill: rgb(67%,84%,90%); fill-rule: evenodd;"/>
			<polygon points="678.032 241.5776, 701.3204 241.5776, 701.3204 251.8279, 717.7208 231.3273, 701.3204 210.8268, 701.3204 221.0771, 678.032 221.0771" style="stroke: rgb(67%,84%,90%); stroke-linecap: round; stroke-width: 1; fill: rgb(67%,84%,90%); fill-rule: evenodd;"/>
			<polygon points="732.0187 241.5776, 789.6959 241.5776, 789.6959 251.8279, 806.0964 231.3273, 789.6959 210.8268, 789.6959 221.0771, 732.0187 221.0771" style="stroke: rgb(67%,84%,90%); stroke-linecap: round; stroke-width: 1; fill: rgb(67%,84%,90%); fill-rule: evenodd;"/>
			<polygon points="818.4221 241.5776, 843.0047 241.5776, 843.0047 251.8279, 859.4052 231.3273, 843.0047 210.8268, 843.0047 221.0771, 818.4221 221.0771" style="stroke: rgb(67%,84%,90%); stroke-linecap: round; stroke-width: 1; fill: rgb(67%,84%,90%); fill-rule: evenodd;"/>
			<polygon points="862.9796 241.5776, 880.7215 241.5776, 880.7215 251.8279, 897.1219 231.3273, 880.7215 210.8268, 880.7215 221.0771, 862.9796 221.0771" style="stroke: rgb(67%,84%,90%); stroke-linecap: round; stroke-width: 1; fill: rgb(67%,84%,90%); fill-rule: evenodd;"/>
			<polygon points="96.31879 487.5844, 87.26659 487.5844, 87.26659 497.8346, 70.86614 477.3341, 87.26659 456.8335, 87.26659 467.0838, 96.31879 467.0838" style="stroke: rgb(56%,93%,56%); stroke-linecap: round; stroke-width: 1; fill: rgb(56%,93%,56%); fill-rule: evenodd;"/>
			<polygon points="107.6585 528.5855, 156.2763 528.5855, 156.2763 538.8358, 172.6767 518.3352, 156.2763 497.8346, 156.2763 508.0849, 107.6585 508.0849" style="stroke: rgb(67%,84%,90%); stroke-linecap: round; stroke-width: 1; fill: rgb(67%,84%,90%); fill-rule: evenodd;"/>
			<polygon points="176.9907 528.5855, 192.1442 528.5855, 192.1442 538.8358, 208.5446 518.3352, 192.1442 497.8346, 192.1442 508.0849, 176.9907 508.0849" style="stroke: rgb(67%,84%,90%); stroke-linecap: round; stroke-width: 1; fill: rgb(67%,84%,90%); fill-rule: evenodd;"/>
			<polygon points="260.5592 487.5844, 230.7998 487.5844, 230.7998 497.8346, 214.3994 477.3341, 230.7998 456.8335, 230.7998 467.0838, 260.5592 467.0838" style="stroke: rgb(56%,93%,56%); stroke-linecap: round; stroke-width: 1; fill: rgb(56%,93%,56%); fill-rule: evenodd;"/>
			<polygon points="271.5908 528.5855, 308.0061 528.5855, 308.0061 538.8358, 324.4066 518.3352, 308.0061 497.8346, 308.0061 508.0849, 271.5908 508.0849" style="stroke: rgb(67%,84%,90%); stroke-linecap: round; stroke-width: 1; fill: rgb(67%,84%,90%); fill-rule: evenodd;"/>
			<polygon points="327.2415 528.5855, 340.9158 528.5855, 340.9158 538.8358, 357.3163 518.3352, 340.9158 497.8346, 340.9158 508.0849, 327.2415 508.0849" style="stroke: rgb(67%,84%,90%); stroke-linecap: round; stroke-width: 1; fill: rgb(67%,84%,90%); fill-rule: evenodd;"/>
			<polygon points="411.1181 487.5844, 385.2413 487.5844, 385.2413 497.8346, 368.8408 477.3341, 385.2413 456.8335, 385.2413 467.0838, 411.1181 467.0838" style="stroke: rgb(56%,93%,56%); stroke-linecap: round; stroke-width: 1; fill: rgb(56%,93%,56%); fill-rule: evenodd;"/>
			<polygon points="419.8078 528.5855, 437.7345 528.5855, 437.7345 538.8358, 454.1349 518.3352, 437.7345 497.8346, 437.7345 508.0849, 419.8078 508.0849" style="stroke: rgb(67%,84%,90%); stroke-linecap: round; stroke-width: 1; fill: rgb(67%,84%,90%); fill-rule: evenodd;"/>
			<polygon points="461.8385 528.5855, 466.8232 528.5855, 466.8232 538.8358, 483.2237 518.3352, 466.8232 497.8346, 466.8232 508.0849, 461.8385 508.0849" style="stroke: rgb(67%,84%,90%); stroke-linecap: round; stroke-width: 1; fill: rgb(67%,84%,90%); fill-rule: evenodd;"/>
			<polygon points="493.1459 528.5855, 560.0674 528.5855, 560.0674 538.8358, 576.4679 518.3352, 560.0674 497.8346, 560.0674 508.0849, 493.1459 508.0849" style="stroke: rgb(67%,84%,90%); stroke-linecap: round; stroke-width: 1; fill: rgb(67%,84%,90%); fill-rule: evenodd;"/>
			<polygon points="587.0064 528.5855, 587.0064 538.8358, 601.5508 518.3352, 587.0064 497.8346, 587.0064 508.0849" style="stroke: rgb(67%,84%,90%); stroke-linecap: round; stroke-width: 1; fill: rgb(67%,84%,90%); fill-rule: evenodd;"/>
			<polygon points="611.3497 528.5855, 611.3497 538.8358, 625.5243 518.3352, 611.3497 497.8346, 611.3497 508.0849" style="stroke: rgb(67%,84%,90%); stroke-linecap: round; stroke-width: 1; fill: rgb(67%,84%,90%); fill-rule: evenodd;"/>
			<polygon points="626.3255 528.5855, 641.294 528.5855, 641.294 538.8358, 657.6945 518.3352, 641.294 497.8346, 641.294 508.0849, 626.3255 508.0849" style="stroke: rgb(67%,84%,90%); stroke-linecap: round; stroke-width: 1; fill: rgb(67%,84%,90%); fill-rule: evenodd;"/>
			<polygon points="658.9271 528.5855, 687.7621 528.5855, 687.7621 538.8358, 704.1625 518.3352, 687.7621 497.8346, 687.7621 508.0849, 658.9271 508.0849" style="stroke: rgb(67%,84%,90%); stroke-linecap: round; stroke-width: 1; fill: rgb(67%,84%,90%); fill-rule: evenodd;"/>
			<polygon points="703.423 528.5855, 721.9044 528.5855, 721.9044 538.8358, 738.3048 518.3352, 721.9044 497.8346, 721.9044 508.0849, 703.423 508.0849" style="stroke: rgb(67%,84%,90%); stroke-linecap: round; stroke-width: 1; fill: rgb(67%,84%,90%); fill-rule: evenodd;"/>
			<polygon points="763.5726 487.5844, 758.2181 487.5844, 758.2181 497.8346, 741.8177 477.3341, 758.2181 456.8335, 758.2181 467.0838, 763.5726 467.0838" style="stroke: rgb(56%,93%,56%); stroke-linecap: round; stroke-width: 1; fill: rgb(56%,93%,56%); fill-rule: evenodd;"/>
			<polygon points="773.8029 528.5855, 786.7377 528.5855, 786.7377 538.8358, 803.1382 518.3352, 786.7377 497.8346, 786.7377 508.0849, 773.8029 508.0849" style="stroke: rgb(67%,84%,90%); stroke-linecap: round; stroke-width: 1; fill: rgb(67%,84%,90%); fill-rule: evenodd;"/>
			<polygon points="801.6591 528.5855, 806.8287 528.5855, 806.8287 538.8358, 823.2291 518.3352, 806.8287 497.8346, 806.8287 508.0849, 801.6591 508.0849" style="stroke: rgb(67%,84%,90%); stroke-linecap: round; stroke-width: 1; fill: rgb(67%,84%,90%); fill-rule: evenodd;"/>
			<polygon points="826.4955 528.5855, 833.8837 528.5855, 833.8837 538.8358, 850.2841 518.3352, 833.8837 497.8346, 833.8837 508.0849, 826.4955 508.0849" style="stroke: rgb(67%,84%,90%); stroke-linecap: round; stroke-width: 1; fill: rgb(67%,84%,90%); fill-rule: evenodd;"/>
			<polygon points="850.2841 528.5855, 850.2841 538.8358, 860.2064 518.3352, 850.2841 497.8346, 850.2841 508.0849" style="stroke: rgb(67%,84%,90%); stroke-linecap: round; stroke-width: 1; fill: rgb(67%,84%,90%); fill-rule: evenodd;"/>
			<polygon points="863.4727 528.5855, 863.4727 538.8358, 877.8322 518.3352, 863.4727 497.8346, 863.4727 508.0849" style="stroke: rgb(67%,84%,90%); stroke-linecap: round; stroke-width: 1; fill: rgb(67%,84%,90%); fill-rule: evenodd;"/>
			<polygon points="878.8798 528.5855, 1011.806 528.5855, 1011.806 538.8358, 1028.206 518.3352, 1011.806 497.8346, 1011.806 508.0849, 878.8798 508.0849" style="stroke: rgb(67%,84%,90%); stroke-linecap: round; stroke-width: 1; fill: rgb(67%,84%,90%); fill-rule: evenodd;"/>
			<polygon points="1030.548 528.5855, 1037.012 528.5855, 1037.012 538.8358, 1053.412 518.3352, 1037.012 497.8346, 1037.012 508.0849, 1030.548 508.0849" style="stroke: rgb(67%,84%,90%); stroke-linecap: round; stroke-width: 1; fill: rgb(67%,84%,90%); fill-rule: evenodd;"/>
			<polygon points="1057.726 528.5855, 1057.726 538.8358, 1073.01 518.3352, 1057.726 497.8346, 1057.726 508.0849" style="stroke: rgb(67%,84%,90%); stroke-linecap: round; stroke-width: 1; fill: rgb(67%,84%,90%); fill-rule: evenodd;"/>
			<polygon points="1099.018 487.5844, 1091.26 487.5844, 1091.26 497.8346, 1074.859 477.3341, 1091.26 456.8335, 1091.26 467.0838, 1099.018 467.0838" style="stroke: rgb(56%,93%,56%); stroke-linecap: round; stroke-width: 1; fill: rgb(56%,93%,56%); fill-rule: evenodd;"/>
			<polygon points="1100.373 528.5855, 1195.582 528.5855, 1195.582 538.8358, 1211.983 518.3352, 1195.582 497.8346, 1195.582 508.0849, 1100.373 508.0849" style="stroke: rgb(67%,84%,90%); stroke-linecap: round; stroke-width: 1; fill: rgb(67%,84%,90%); fill-rule: evenodd;"/>
			<polygon points="1213.462 528.5855, 1243.037 528.5855, 1243.037 538.8358, 1259.437 518.3352, 1243.037 497.8346, 1243.037 508.0849, 1213.462 508.0849" style="stroke: rgb(67%,84%,90%); stroke-linecap: round; stroke-width: 1; fill: rgb(67%,84%,90%); fill-rule: evenodd;"/>
			<polygon points="1263.073 528.5855, 1273.789 528.5855, 1273.789 538.8358, 1290.19 518.3352, 1273.789 497.8346, 1273.789 508.0849, 1263.073 508.0849" style="stroke: rgb(67%,84%,90%); stroke-linecap: round; stroke-width: 1; fill: rgb(67%,84%,90%); fill-rule: evenodd;"/>
			<path d="M 907.413931,169.825647 L 907.413931,251.827897 Z" style="stroke: rgb(0%,0%,0%); stroke-linecap: butt; stroke-width: 1;"/>
			<path d="M 70.866142,210.826772 L 907.413931,210.826772 Z" style="stroke: rgb(0%,0%,0%); stroke-linecap: butt; stroke-width: 1;"/>
			<path d="M 70.866142,169.825647 L 70.866142,251.827897 Z" style="stroke: rgb(0%,0%,0%); stroke-linecap: butt; stroke-width: 1;"/>
			<path d="M 687.153006,210.826772 L 687.153006,231.327334 Z" style="stroke: rgb(0%,0%,0%); stroke-linecap: butt; stroke-width: 1;"/>
			<path d="M 687.153006,210.826772 L 687.153006,223.127109 Z" style="stroke: rgb(0%,0%,0%); stroke-linecap: butt; stroke-width: 1;"/>
			<path d="M 1346.395064,456.833521 L 1346.395064,538.835771 Z" style="stroke: rgb(0%,0%,0%); stroke-linecap: butt; stroke-width: 1;"/>
			<path d="M 70.866142,497.834646 L 1346.395064,497.834646 Z" style="stroke: rgb(0%,0%,0%); stroke-linecap: butt; stroke-width: 1;"/>
			<path d="M 70.866142,456.833521 L 70.866142,538.835771 Z" style="stroke: rgb(0%,0%,0%); stroke-linecap: butt; stroke-width: 1;"/>
			<path d="M 687.153006,497.834646 L 687.153006,518.335208 Z" style="stroke: rgb(0%,0%,0%); stroke-linecap: butt; stroke-width: 1;"/>
			<path d="M 1303.43987,497.834646 L 1303.43987,518.335208 Z" style="stroke: rgb(0%,0%,0%); stroke-linecap: butt; stroke-width: 1;"/>
			<path d="M 687.153006,497.834646 L 687.153006,510.134983 Z" style="stroke: rgb(0%,0%,0%); stroke-linecap: butt; stroke-width: 1;"/>
			<path d="M 1303.43987,497.834646 L 1303.43987,510.134983 Z" style="stroke: rgb(0%,0%,0%); stroke-linecap: butt; stroke-width: 1;"/>
			<g transform=" matrix(0.707107,0.707107,-0.707107,0.707107,687.153006,231.327334)">
				<text style="font-family: Helvetica; font-size: 6px;fill: rgb(0%,0%,0%); stroke:none;" transform="translate(0,0) scale(1,-1)" x="0" y="0">10000</text>
			</g>
			<g transform=" matrix(0.707107,0.707107,-0.707107,0.707107,687.153006,518.335208)">
				<text style="font-family: Helvetica; font-size: 6px;fill: rgb(0%,0%,0%); stroke:none;" transform="translate(0,0) scale(1,-1)" x="0" y="0">10000</text>
			</g>
			<g transform=" matrix(0.707107,0.707107,-0.707107,0.707107,1303.43987,518.335208)">
				<text style="font-family: Helvetica; font-size: 6px;fill: rgb(0%,0%,0%); stroke:none;" transform="translate(0,0) scale(1,-1)" x="0" y="0">20000</text>
			</g>
			<g transform=" matrix(0.707107,0.707107,-0.707107,0.707107,138.904212,251.827897)">
				<text style="font-family: Helvetica; font-size: 10px;fill: rgb(0%,0%,0%); stroke:none;" transform="translate(0,0) scale(1,-1)" x="0" y="0">Gene_01588</text>
			</g>
			<g transform=" matrix(0.707107,0.707107,-0.707107,0.707107,204.600391,251.827897)">
				<text style="font-family: Helvetica; font-size: 10px;fill: rgb(0%,0%,0%); stroke:none;" transform="translate(0,0) scale(1,-1)" x="0" y="0">Gene_01589</text>
			</g>
			<g transform=" matrix(0.707107,0.707107,-0.707107,0.707107,250.606206,251.827897)">
				<text style="font-family: Helvetica; font-size: 10px;fill: rgb(0%,0%,0%); stroke:none;" transform="translate(0,0) scale(1,-1)" x="0" y="0">Gene_01590</text>
			</g>
			<g transform=" matrix(0.707107,0.707107,-0.707107,0.707107,304.562121,251.827897)">
				<text style="font-family: Helvetica; font-size: 10px;fill: rgb(0%,0%,0%); stroke:none;" transform="translate(0,0) scale(1,-1)" x="0" y="0">Gene_01591</text>
			</g>
			<g transform=" matrix(0.707107,0.707107,-0.707107,0.707107,353.217968,251.827897)">
				<text style="font-family: Helvetica; font-size: 10px;fill: rgb(0%,0%,0%); stroke:none;" transform="translate(0,0) scale(1,-1)" x="0" y="0">Gene_01592</text>
			</g>
			<g transform=" matrix(0.707107,0.707107,-0.707107,0.707107,368.810026,251.827897)">
				<text style="font-family: Helvetica; font-size: 10px;fill: rgb(0%,0%,0%); stroke:none;" transform="translate(0,0) scale(1,-1)" x="0" y="0">Gene_01593</text>
			</g>
			<g transform=" matrix(0.707107,0.707107,-0.707107,0.707107,393.184172,251.827897)">
				<text style="font-family: Helvetica; font-size: 10px;fill: rgb(0%,0%,0%); stroke:none;" transform="translate(0,0) scale(1,-1)" x="0" y="0">Gene_01594</text>
			</g>
			<g transform=" matrix(0.707107,0.707107,-0.707107,0.707107,440.946404,251.827897)">
				<text style="font-family: Helvetica; font-size: 10px;fill: rgb(0%,0%,0%); stroke:none;" transform="translate(0,0) scale(1,-1)" x="0" y="0">Gene_01595</text>
			</g>
			<g transform=" matrix(0.707107,0.707107,-0.707107,0.707107,483.254497,251.827897)">
				<text style="font-family: Helvetica; font-size: 16px;fill: rgb(0%,0%,100%); stroke:none;" transform="translate(0,0) scale(1,-1)" x="0" y="0">Gene_01596 (82.5)</text>
			</g>
			<g transform=" matrix(0.707107,0.707107,-0.707107,0.707107,535.207479,251.827897)">
				<text style="font-family: Helvetica; font-size: 10px;fill: rgb(0%,0%,0%); stroke:none;" transform="translate(0,0) scale(1,-1)" x="0" y="0">Gene_01597</text>
			</g>
			<g transform=" matrix(0.707107,-0.707107,0.707107,0.707107,568.363713,169.825647)">
				<text style="font-family: Helvetica; font-size: 10px;fill: rgb(0%,0%,0%); stroke:none;" transform="translate(0,0) scale(1,-1)" x="0" y="0">Gene_01598</text>
			</g>
			<g transform=" matrix(0.707107,-0.707107,0.707107,0.707107,593.723917,169.825647)">
				<text style="font-family: Helvetica; font-size: 10px;fill: rgb(0%,0%,0%); stroke:none;" transform="translate(0,0) scale(1,-1)" x="0" y="0">Gene_01599</text>
			</g>
			<g transform=" matrix(0.707107,0.707107,-0.707107,0.707107,649.097292,251.827897)">
				<text style="font-family: Helvetica; font-size: 10px;fill: rgb(0%,0%,0%); stroke:none;" transform="translate(0,0) scale(1,-1)" x="0" y="0">Gene_01600</text>
			</g>
			<g transform=" matrix(0.707107,0.707107,-0.707107,0.707107,697.876397,251.827897)">
				<text style="font-family: Helvetica; font-size: 10px;fill: rgb(0%,0%,0%); stroke:none;" transform="translate(0,0) scale(1,-1)" x="0" y="0">Gene_01601</text>
			</g>
			<g transform=" matrix(0.707107,0.707107,-0.707107,0.707107,769.05753,251.827897)">
				<text style="font-family: Helvetica; font-size: 10px;fill: rgb(0%,0%,0%); stroke:none;" transform="translate(0,0) scale(1,-1)" x="0" y="0">Gene_01602</text>
			</g>
			<g transform=" matrix(0.707107,0.707107,-0.707107,0.707107,838.913646,251.827897)">
				<text style="font-family: Helvetica; font-size: 10px;fill: rgb(0%,0%,0%); stroke:none;" transform="translate(0,0) scale(1,-1)" x="0" y="0">Gene_01603</text>
			</g>
			<g transform=" matrix(0.707107,0.707107,-0.707107,0.707107,880.050794,251.827897)">
				<text style="font-family: Helvetica; font-size: 10px;fill: rgb(0%,0%,0%); stroke:none;" transform="translate(0,0) scale(1,-1)" x="0" y="0">Gene_01604</text>
			</g>
			<g transform=" matrix(0.707107,-0.707107,0.707107,0.707107,83.592465,456.833521)">
				<text style="font-family: Helvetica; font-size: 10px;fill: rgb(0%,0%,0%); stroke:none;" transform="translate(0,0) scale(1,-1)" x="0" y="0">Gene_00090</text>
			</g>
			<g transform=" matrix(0.707107,0.707107,-0.707107,0.707107,140.1676,538.835771)">
				<text style="font-family: Helvetica; font-size: 10px;fill: rgb(0%,0%,0%); stroke:none;" transform="translate(0,0) scale(1,-1)" x="0" y="0">Gene_00091</text>
			</g>
			<g transform=" matrix(0.707107,0.707107,-0.707107,0.707107,192.767683,538.835771)">
				<text style="font-family: Helvetica; font-size: 10px;fill: rgb(0%,0%,0%); stroke:none;" transform="translate(0,0) scale(1,-1)" x="0" y="0">Gene_00092</text>
			</g>
			<g transform=" matrix(0.707107,-0.707107,0.707107,0.707107,237.479295,456.833521)">
				<text style="font-family: Helvetica; font-size: 10px;fill: rgb(0%,0%,0%); stroke:none;" transform="translate(0,0) scale(1,-1)" x="0" y="0">Gene_00093</text>
			</g>
			<g transform=" matrix(0.707107,0.707107,-0.707107,0.707107,297.998665,538.835771)">
				<text style="font-family: Helvetica; font-size: 10px;fill: rgb(0%,0%,0%); stroke:none;" transform="translate(0,0) scale(1,-1)" x="0" y="0">Gene_00094</text>
			</g>
			<g transform=" matrix(0.707107,0.707107,-0.707107,0.707107,342.278877,538.835771)">
				<text style="font-family: Helvetica; font-size: 10px;fill: rgb(0%,0%,0%); stroke:none;" transform="translate(0,0) scale(1,-1)" x="0" y="0">Gene_00095</text>
			</g>
			<g transform=" matrix(0.707107,-0.707107,0.707107,0.707107,389.97948,456.833521)">
				<text style="font-family: Helvetica; font-size: 10px;fill: rgb(0%,0%,0%); stroke:none;" transform="translate(0,0) scale(1,-1)" x="0" y="0">Gene_00096</text>
			</g>
			<g transform=" matrix(0.707107,0.707107,-0.707107,0.707107,436.971353,538.835771)">
				<text style="font-family: Helvetica; font-size: 10px;fill: rgb(0%,0%,0%); stroke:none;" transform="translate(0,0) scale(1,-1)" x="0" y="0">Gene_00097</text>
			</g>
			<g transform=" matrix(0.707107,0.707107,-0.707107,0.707107,472.531105,538.835771)">
				<text style="font-family: Helvetica; font-size: 10px;fill: rgb(0%,0%,0%); stroke:none;" transform="translate(0,0) scale(1,-1)" x="0" y="0">Gene_00098</text>
			</g>
			<g transform=" matrix(0.707107,0.707107,-0.707107,0.707107,534.806893,538.835771)">
				<text style="font-family: Helvetica; font-size: 10px;fill: rgb(0%,0%,0%); stroke:none;" transform="translate(0,0) scale(1,-1)" x="0" y="0">Gene_00099</text>
			</g>
			<g transform=" matrix(0.707107,0.707107,-0.707107,0.707107,594.278575,538.835771)">
				<text style="font-family: Helvetica; font-size: 10px;fill: rgb(0%,0%,0%); stroke:none;" transform="translate(0,0) scale(1,-1)" x="0" y="0">Gene_00100</text>
			</g>
			<g transform=" matrix(0.707107,0.707107,-0.707107,0.707107,618.43702,538.835771)">
				<text style="font-family: Helvetica; font-size: 10px;fill: rgb(0%,0%,0%); stroke:none;" transform="translate(0,0) scale(1,-1)" x="0" y="0">Gene_00101</text>
			</g>
			<g transform=" matrix(0.707107,0.707107,-0.707107,0.707107,642.009993,538.835771)">
				<text style="font-family: Helvetica; font-size: 10px;fill: rgb(0%,0%,0%); stroke:none;" transform="translate(0,0) scale(1,-1)" x="0" y="0">Gene_00102</text>
			</g>
			<g transform=" matrix(0.707107,0.707107,-0.707107,0.707107,681.544795,538.835771)">
				<text style="font-family: Helvetica; font-size: 10px;fill: rgb(0%,0%,0%); stroke:none;" transform="translate(0,0) scale(1,-1)" x="0" y="0">Gene_00103</text>
			</g>
			<g transform=" matrix(0.707107,0.707107,-0.707107,0.707107,720.863897,538.835771)">
				<text style="font-family: Helvetica; font-size: 16px;fill: rgb(0%,0%,100%); stroke:none;" transform="translate(0,0) scale(1,-1)" x="0" y="0">Gene_00104 (82.5)</text>
			</g>
			<g transform=" matrix(0.707107,-0.707107,0.707107,0.707107,752.695114,456.833521)">
				<text style="font-family: Helvetica; font-size: 10px;fill: rgb(0%,0%,0%); stroke:none;" transform="translate(0,0) scale(1,-1)" x="0" y="0">Gene_00105</text>
			</g>
			<g transform=" matrix(0.707107,0.707107,-0.707107,0.707107,788.470566,538.835771)">
				<text style="font-family: Helvetica; font-size: 10px;fill: rgb(0%,0%,0%); stroke:none;" transform="translate(0,0) scale(1,-1)" x="0" y="0">Gene_00106</text>
			</g>
			<g transform=" matrix(0.707107,0.707107,-0.707107,0.707107,812.444125,538.835771)">
				<text style="font-family: Helvetica; font-size: 10px;fill: rgb(0%,0%,0%); stroke:none;" transform="translate(0,0) scale(1,-1)" x="0" y="0">Gene_00107</text>
			</g>
			<g transform=" matrix(0.707107,0.707107,-0.707107,0.707107,838.389802,538.835771)">
				<text style="font-family: Helvetica; font-size: 10px;fill: rgb(0%,0%,0%); stroke:none;" transform="translate(0,0) scale(1,-1)" x="0" y="0">Gene_00108</text>
			</g>
			<g transform=" matrix(0.707107,0.707107,-0.707107,0.707107,855.245248,538.835771)">
				<text style="font-family: Helvetica; font-size: 10px;fill: rgb(0%,0%,0%); stroke:none;" transform="translate(0,0) scale(1,-1)" x="0" y="0">Gene_00109</text>
			</g>
			<g transform=" matrix(0.707107,0.707107,-0.707107,0.707107,870.65242,538.835771)">
				<text style="font-family: Helvetica; font-size: 10px;fill: rgb(0%,0%,0%); stroke:none;" transform="translate(0,0) scale(1,-1)" x="0" y="0">Gene_00110</text>
			</g>
			<g transform=" matrix(0.707107,0.707107,-0.707107,0.707107,953.543003,538.835771)">
				<text style="font-family: Helvetica; font-size: 10px;fill: rgb(0%,0%,0%); stroke:none;" transform="translate(0,0) scale(1,-1)" x="0" y="0">Gene_00111</text>
			</g>
			<g transform=" matrix(0.707107,0.707107,-0.707107,0.707107,1041.980168,538.835771)">
				<text style="font-family: Helvetica; font-size: 10px;fill: rgb(0%,0%,0%); stroke:none;" transform="translate(0,0) scale(1,-1)" x="0" y="0">Gene_00112</text>
			</g>
			<g transform=" matrix(0.707107,0.707107,-0.707107,0.707107,1065.368254,538.835771)">
				<text style="font-family: Helvetica; font-size: 10px;fill: rgb(0%,0%,0%); stroke:none;" transform="translate(0,0) scale(1,-1)" x="0" y="0">Gene_00113</text>
			</g>
			<g transform=" matrix(0.707107,-0.707107,0.707107,0.707107,1086.938294,456.833521)">
				<text style="font-family: Helvetica; font-size: 10px;fill: rgb(0%,0%,0%); stroke:none;" transform="translate(0,0) scale(1,-1)" x="0" y="0">Gene_00114</text>
			</g>
			<g transform=" matrix(0.707107,0.707107,-0.707107,0.707107,1156.178124,538.835771)">
				<text style="font-family: Helvetica; font-size: 10px;fill: rgb(0%,0%,0%); stroke:none;" transform="translate(0,0) scale(1,-1)" x="0" y="0">Gene_00115</text>
			</g>
			<g transform=" matrix(0.707107,0.707107,-0.707107,0.707107,1236.449488,538.835771)">
				<text style="font-family: Helvetica; font-size: 10px;fill: rgb(0%,0%,0%); stroke:none;" transform="translate(0,0) scale(1,-1)" x="0" y="0">Gene_00116</text>
			</g>
			<g transform=" matrix(0.707107,0.707107,-0.707107,0.707107,1276.631391,538.835771)">
				<text style="font-family: Helvetica; font-size: 10px;fill: rgb(0%,0%,0%); stroke:none;" transform="translate(0,0) scale(1,-1)" x="0" y="0">Gene_00117</text>
			</g>
			<g transform=" matrix(1,0,-0,1,70,169.825647)">
				<text style="font-family: Helvetica; font-size: 12px;fill: rgb(60%,60%,60%); stroke:none;" transform="translate(0,0) scale(1,-1)" x="0" y="0">megahit_87923 (left 6431bp, right 6622bp)</text>
			</g>
			<g transform=" matrix(1,0,-0,1,70,456.833521)">
				<text style="font-family: Helvetica; font-size: 12px;fill: rgb(60%,60%,60%); stroke:none;" transform="translate(0,0) scale(1,-1)" x="0" y="0">megahit_17101 (left 11706bp, right 9867bp)</text>
			</g>
		</g>
	</g>
</svg>
