<?xml version="1.0" encoding="utf-8"?>
<!DOCTYPE svg
  PUBLIC '-//W3C//DTD SVG 1.0//EN'
  'http://www.w3.org/TR/2001/REC-SVG-20010904/DTD/svg10.dtd'>
<svg fill-rule="evenodd" height="708.6614173228346" preserveAspectRatio="xMinYMin meet" version="1.0" viewBox="0 0 1417 708" width="1417.3228346456692" xmlns="http://www.w3.org/2000/svg" xmlns:xlink="http://www.w3.org/1999/xlink">
	<title>...</title>
	<desc>...</desc>
	<clipPath id="clip">
		<rect height="708.6614173228346" width="1417.3228346456692" x="0" y="0"/>
	</clipPath>
	<g id="group" style="clip-path: url(#clip)" transform="scale(1,-1) translate(0,-708)">
		<g transform="">
			<polygon points="70.86614 169.8256, 700.0633 169.8256, 700.0633 251.8279, 70.86614 251.8279" style="stroke: rgb(96%,96%,96%); stroke-linecap: butt; stroke-width: 1; fill: rgb(96%,96%,96%); fill-rule: evenodd;"/>
			<polygon points="70.86614 456.8335, 1346.4 456.8335, 1346.4 538.8358, 70.86614 538.8358" style="stroke: rgb(96%,96%,96%); stroke-linecap: butt; stroke-width: 1; fill: rgb(96%,96%,96%); fill-rule: evenodd;"/>
			<polygon points="1028.385 456.8335, 1308.022 456.8335, 196.8195 251.8279, 477.9937 251.8279" style="stroke: rgb(100%,57%,57%); stroke-linecap: round; stroke-width: 1; fill: rgb(100%,57%,57%); fill-rule: evenodd;"/>
			<polygon points="857.5619 456.8335, 960.5111 456.8335, 550.9351 251.8279, 652.176 251.8279" style="stroke: rgb(100%,58%,58%); stroke-linecap: round; stroke-width: 1; fill: rgb(100%,58%,58%); fill-rule: evenodd;"/>
			<polygon points="968.5967 456.8335, 1013.466 456.8335, 491.0902 251.8279, 537.6678 251.8279" style="stroke: rgb(100%,63%,63%); stroke-linecap: round; stroke-width: 1; fill: rgb(100%,63%,63%); fill-rule: evenodd;"/>
			<polygon points="815.7673 456.8335, 835.6397 456.8335, 667.9487 251.8279, 687.821 251.8279" style="stroke: rgb(100%,50%,50%); stroke-linecap: round; stroke-width: 1; fill: rgb(100%,50%,50%); fill-rule: evenodd;"/>
			<polygon points="81.68492 200.5765, 81.68492 210.8268, 72.17578 190.3262, 81.68492 169.8256, 81.68492 180.0759" style="stroke: rgb(56%,93%,56%); stroke-linecap: round; stroke-width: 1; fill: rgb(56%,93%,56%); fill-rule: evenodd;"/>
			<polygon points="96.31873 241.5776, 146.4822 241.5776, 146.4822 251.8279, 162.8827 231.3273, 146.4822 210.8268, 146.4822 221.0771, 96.31873 221.0771" style="stroke: rgb(67%,84%,90%); stroke-linecap: round; stroke-width: 1; fill: rgb(67%,84%,90%); fill-rule: evenodd;"/>
			<polygon points="180.9329 200.5765, 179.1123 200.5765, 179.1123 210.8268, 162.7119 190.3262, 179.1123 169.8256, 179.1123 180.0759, 180.9329 180.0759" style="stroke: rgb(56%,93%,56%); stroke-linecap: round; stroke-width: 1; fill: rgb(56%,93%,56%); fill-rule: evenodd;"/>
			<polygon points="231.2118 200.5765, 211.9672 200.5765, 211.9672 210.8268, 195.5668 190.3262, 211.9672 169.8256, 211.9672 180.0759, 231.2118 180.0759" style="stroke: rgb(56%,93%,56%); stroke-linecap: round; stroke-width: 1; fill: rgb(56%,93%,56%); fill-rule: evenodd;"/>
			<polygon points="284.7932 200.5765, 247.4414 200.5765, 247.4414 210.8268, 231.041 190.3262, 247.4414 169.8256, 247.4414 180.0759, 284.7932 180.0759" style="stroke: rgb(56%,93%,56%); stroke-linecap: round; stroke-width: 1; fill: rgb(56%,93%,56%); fill-rule: evenodd;"/>
			<polygon points="332.9083 200.5765, 302.0478 200.5765, 302.0478 210.8268, 285.6473 190.3262, 302.0478 169.8256, 302.0478 180.0759, 332.9083 180.0759" style="stroke: rgb(56%,93%,56%); stroke-linecap: round; stroke-width: 1; fill: rgb(56%,93%,56%); fill-rule: evenodd;"/>
			<polygon points="389.052 200.5765, 349.1379 200.5765, 349.1379 210.8268, 332.7374 190.3262, 349.1379 169.8256, 349.1379 180.0759, 389.052 180.0759" style="stroke: rgb(56%,93%,56%); stroke-linecap: round; stroke-width: 1; fill: rgb(56%,93%,56%); fill-rule: evenodd;"/>
			<polygon points="484.7697 200.5765, 408.2995 200.5765, 408.2995 210.8268, 391.8991 190.3262, 408.2995 169.8256, 408.2995 180.0759, 484.7697 180.0759" style="stroke: rgb(56%,93%,56%); stroke-linecap: round; stroke-width: 1; fill: rgb(56%,93%,56%); fill-rule: evenodd;"/>
			<polygon points="563.9745 200.5765, 503.3909 200.5765, 503.3909 210.8268, 486.9904 190.3262, 503.3909 169.8256, 503.3909 180.0759, 563.9745 180.0759" style="stroke: rgb(56%,93%,56%); stroke-linecap: round; stroke-width: 1; fill: rgb(56%,93%,56%); fill-rule: evenodd;"/>
			<polygon points="607.6482 200.5765, 580.2042 200.5765, 580.2042 210.8268, 563.8037 190.3262, 580.2042 169.8256, 580.2042 180.0759, 607.6482 180.0759" style="stroke: rgb(56%,93%,56%); stroke-linecap: round; stroke-width: 1; fill: rgb(56%,93%,56%); fill-rule: evenodd;"/>
			<polygon points="651.5497 200.5765, 624.9597 200.5765, 624.9597 210.8268, 608.5593 190.3262, 624.9597 169.8256, 624.9597 180.0759, 651.5497 180.0759" style="stroke: rgb(56%,93%,56%); stroke-linecap: round; stroke-width: 1; fill: rgb(56%,93%,56%); fill-rule: evenodd;"/>
			<polygon points="687.1377 200.5765, 680.3632 200.5765, 680.3632 210.8268, 663.9628 190.3262, 680.3632 169.8256, 680.3632 180.0759, 687.1377 180.0759" style="stroke: rgb(56%,93%,56%); stroke-linecap: round; stroke-width: 1; fill: rgb(56%,93%,56%); fill-rule: evenodd;"/>
			<polygon points="70.86614 528.5855, 505.3809 528.5855, 505.3809 538.8358, 521.7813 518.3352, 505.3809 497.8346, 505.3809 508.0849, 70.86614 508.0849" style="stroke: rgb(67%,84%,90%); stroke-linecap: round; stroke-width: 1; fill: rgb(67%,84%,90%); fill-rule: evenodd;"/>
			<polygon points="667.0376 487.5844, 541.5413 487.5844, 541.5413 497.8346, 525.1408 477.3341, 541.5413 456.8335, 541.5413 467.0838, 667.0376 467.0838" style="stroke: rgb(56%,93%,56%); stroke-linecap: round; stroke-width: 1; fill: rgb(56%,93%,56%); fill-rule: evenodd;"/>
			<polygon points="707.8073 528.5855, 715.6067 528.5855, 715.6067 538.8358, 732.0072 518.3352, 715.6067 497.8346, 715.6067 508.0849, 707.8073 508.0849" style="stroke: rgb(67%,84%,90%); stroke-linecap: round; stroke-width: 1; fill: rgb(67%,84%,90%); fill-rule: evenodd;"/>
			<polygon points="730.5837 528.5855, 792.5339 528.5855, 792.5339 538.8358, 808.9344 518.3352, 792.5339 497.8346, 792.5339 508.0849, 730.5837 508.0849" style="stroke: rgb(67%,84%,90%); stroke-linecap: round; stroke-width: 1; fill: rgb(67%,84%,90%); fill-rule: evenodd;"/>
			<polygon points="814.7424 528.5855, 823.0543 528.5855, 823.0543 538.8358, 839.4547 518.3352, 823.0543 497.8346, 823.0543 508.0849, 814.7424 508.0849" style="stroke: rgb(67%,84%,90%); stroke-linecap: round; stroke-width: 1; fill: rgb(67%,84%,90%); fill-rule: evenodd;"/>
			<polygon points="851.9248 528.5855, 884.8352 528.5855, 884.8352 538.8358, 901.2356 518.3352, 884.8352 497.8346, 884.8352 508.0849, 851.9248 508.0849" style="stroke: rgb(67%,84%,90%); stroke-linecap: round; stroke-width: 1; fill: rgb(67%,84%,90%); fill-rule: evenodd;"/>
			<polygon points="903.8549 528.5855, 930.9573 528.5855, 930.9573 538.8358, 947.3578 518.3352, 930.9573 497.8346, 930.9573 508.0849, 903.8549 508.0849" style="stroke: rgb(67%,84%,90%); stroke-linecap: round; stroke-width: 1; fill: rgb(67%,84%,90%); fill-rule: evenodd;"/>
			<polygon points="948.9521 528.5855, 1001.336 528.5855, 1001.336 538.8358, 1017.737 518.3352, 1001.336 497.8346, 1001.336 508.0849, 948.9521 508.0849" style="stroke: rgb(67%,84%,90%); stroke-linecap: round; stroke-width: 1; fill: rgb(67%,84%,90%); fill-rule: evenodd;"/>
			<polygon points="1021.267 528.5855, 1097.054 528.5855, 1097.054 538.8358, 1113.454 518.3352, 1097.054 497.8346, 1097.054 508.0849, 1021.267 508.0849" style="stroke: rgb(67%,84%,90%); stroke-linecap: round; stroke-width: 1; fill: rgb(67%,84%,90%); fill-rule: evenodd;"/>
			<polygon points="1117.269 528.5855, 1154.963 528.5855, 1154.963 538.8358, 1171.363 518.3352, 1154.963 497.8346, 1154.963 508.0849, 1117.269 508.0849" style="stroke: rgb(67%,84%,90%); stroke-linecap: round; stroke-width: 1; fill: rgb(67%,84%,90%); fill-rule: evenodd;"/>
			<polygon points="1171.193 528.5855, 1201.711 528.5855, 1201.711 538.8358, 1218.112 518.3352, 1201.711 497.8346, 1201.711 508.0849, 1171.193 508.0849" style="stroke: rgb(67%,84%,90%); stroke-linecap: round; stroke-width: 1; fill: rgb(67%,84%,90%); fill-rule: evenodd;"/>
			<polygon points="1218.852 528.5855, 1257.57 528.5855, 1257.57 538.8358, 1273.971 518.3352, 1257.57 497.8346, 1257.57 508.0849, 1218.852 508.0849" style="stroke: rgb(67%,84%,90%); stroke-linecap: round; stroke-width: 1; fill: rgb(67%,84%,90%); fill-rule: evenodd;"/>
			<polygon points="1273.8 528.5855, 1292.361 528.5855, 1292.361 538.8358, 1308.762 518.3352, 1292.361 497.8346, 1292.361 508.0849, 1273.8 508.0849" style="stroke: rgb(67%,84%,90%); stroke-linecap: round; stroke-width: 1; fill: rgb(67%,84%,90%); fill-rule: evenodd;"/>
			<polygon points="1341.332 487.5844, 1341.332 497.8346, 1326.869 477.3341, 1341.332 456.8335, 1341.332 467.0838" style="stroke: rgb(56%,93%,56%); stroke-linecap: round; stroke-width: 1; fill: rgb(56%,93%,56%); fill-rule: evenodd;"/>
			<path d="M 700.063338,169.825647 L 700.063338,251.827897 Z" style="stroke: rgb(0%,0%,0%); stroke-linecap: butt; stroke-width: 1;"/>
			<path d="M 70.866142,210.826772 L 700.063338,210.826772 Z" style="stroke: rgb(0%,0%,0%); stroke-linecap: butt; stroke-width: 1;"/>
			<path d="M 70.866142,169.825647 L 70.866142,251.827897 Z" style="stroke: rgb(0%,0%,0%); stroke-linecap: butt; stroke-width: 1;"/>
			<path d="M 640.275369,210.826772 L 640.275369,231.327334 Z" style="stroke: rgb(0%,0%,0%); stroke-linecap: butt; stroke-width: 1;"/>
			<path d="M 640.275369,210.826772 L 640.275369,223.127109 Z" style="stroke: rgb(0%,0%,0%); stroke-linecap: butt; stroke-width: 1;"/>
			<path d="M 1346.399752,456.833521 L 1346.399752,538.835771 Z" style="stroke: rgb(0%,0%,0%); stroke-linecap: butt; stroke-width: 1;"/>
			<path d="M 70.866142,497.834646 L 1346.399752,497.834646 Z" style="stroke: rgb(0%,0%,0%); stroke-linecap: butt; stroke-width: 1;"/>
			<path d="M 70.866142,456.833521 L 70.866142,538.835771 Z" style="stroke: rgb(0%,0%,0%); stroke-linecap: butt; stroke-width: 1;"/>
			<path d="M 640.275369,497.834646 L 640.275369,518.335208 Z" style="stroke: rgb(0%,0%,0%); stroke-linecap: butt; stroke-width: 1;"/>
			<path d="M 1209.684596,497.834646 L 1209.684596,518.335208 Z" style="stroke: rgb(0%,0%,0%); stroke-linecap: butt; stroke-width: 1;"/>
			<path d="M 640.275369,497.834646 L 640.275369,510.134983 Z" style="stroke: rgb(0%,0%,0%); stroke-linecap: butt; stroke-width: 1;"/>
			<path d="M 1209.684596,497.834646 L 1209.684596,510.134983 Z" style="stroke: rgb(0%,0%,0%); stroke-linecap: butt; stroke-width: 1;"/>
			<g transform=" matrix(0.707107,0.707107,-0.707107,0.707107,640.275369,231.327334)">
				<text style="font-family: Helvetica; font-size: 6px;fill: rgb(0%,0%,0%); stroke:none;" transform="translate(0,0) scale(1,-1)" x="0" y="0">10000</text>
			</g>
			<g transform=" matrix(0.707107,0.707107,-0.707107,0.707107,640.275369,518.335208)">
				<text style="font-family: Helvetica; font-size: 6px;fill: rgb(0%,0%,0%); stroke:none;" transform="translate(0,0) scale(1,-1)" x="0" y="0">10000</text>
			</g>
			<g transform=" matrix(0.707107,0.707107,-0.707107,0.707107,1209.684596,518.335208)">
				<text style="font-family: Helvetica; font-size: 6px;fill: rgb(0%,0%,0%); stroke:none;" transform="translate(0,0) scale(1,-1)" x="0" y="0">20000</text>
			</g>
			<g transform=" matrix(0.707107,-0.707107,0.707107,0.707107,76.93035,169.825647)">
				<text style="font-family: Helvetica; font-size: 10px;fill: rgb(0%,0%,0%); stroke:none;" transform="translate(0,0) scale(1,-1)" x="0" y="0">Gene_01334</text>
			</g>
			<g transform=" matrix(0.707107,0.707107,-0.707107,0.707107,129.600704,251.827897)">
				<text style="font-family: Helvetica; font-size: 10px;fill: rgb(0%,0%,0%); stroke:none;" transform="translate(0,0) scale(1,-1)" x="0" y="0">Gene_01335</text>
			</g>
			<g transform=" matrix(0.707107,-0.707107,0.707107,0.707107,171.822398,169.825647)">
				<text style="font-family: Helvetica; font-size: 10px;fill: rgb(0%,0%,0%); stroke:none;" transform="translate(0,0) scale(1,-1)" x="0" y="0">Gene_01336</text>
			</g>
			<g transform=" matrix(0.707107,-0.707107,0.707107,0.707107,213.389271,169.825647)">
				<text style="font-family: Helvetica; font-size: 10px;fill: rgb(0%,0%,0%); stroke:none;" transform="translate(0,0) scale(1,-1)" x="0" y="0">Gene_01337</text>
			</g>
			<g transform=" matrix(0.707107,-0.707107,0.707107,0.707107,257.917073,169.825647)">
				<text style="font-family: Helvetica; font-size: 10px;fill: rgb(0%,0%,0%); stroke:none;" transform="translate(0,0) scale(1,-1)" x="0" y="0">Gene_01338</text>
			</g>
			<g transform=" matrix(0.707107,-0.707107,0.707107,0.707107,309.277785,169.825647)">
				<text style="font-family: Helvetica; font-size: 10px;fill: rgb(0%,0%,0%); stroke:none;" transform="translate(0,0) scale(1,-1)" x="0" y="0">Gene_01339</text>
			</g>
			<g transform=" matrix(0.707107,-0.707107,0.707107,0.707107,360.894732,169.825647)">
				<text style="font-family: Helvetica; font-size: 10px;fill: rgb(0%,0%,0%); stroke:none;" transform="translate(0,0) scale(1,-1)" x="0" y="0">Gene_01340</text>
			</g>
			<g transform=" matrix(0.707107,-0.707107,0.707107,0.707107,438.334387,169.825647)">
				<text style="font-family: Helvetica; font-size: 16px;fill: rgb(0%,0%,100%); stroke:none;" transform="translate(0,0) scale(1,-1)" x="0" y="0">Gene_01341 (78.1)</text>
			</g>
			<g transform=" matrix(0.707107,-0.707107,0.707107,0.707107,525.482469,169.825647)">
				<text style="font-family: Helvetica; font-size: 10px;fill: rgb(0%,0%,0%); stroke:none;" transform="translate(0,0) scale(1,-1)" x="0" y="0">Gene_01342</text>
			</g>
			<g transform=" matrix(0.707107,-0.707107,0.707107,0.707107,585.725965,169.825647)">
				<text style="font-family: Helvetica; font-size: 10px;fill: rgb(0%,0%,0%); stroke:none;" transform="translate(0,0) scale(1,-1)" x="0" y="0">Gene_01343</text>
			</g>
			<g transform=" matrix(0.707107,-0.707107,0.707107,0.707107,630.054473,169.825647)">
				<text style="font-family: Helvetica; font-size: 10px;fill: rgb(0%,0%,0%); stroke:none;" transform="translate(0,0) scale(1,-1)" x="0" y="0">Gene_01344</text>
			</g>
			<g transform=" matrix(0.707107,-0.707107,0.707107,0.707107,675.550271,169.825647)">
				<text style="font-family: Helvetica; font-size: 10px;fill: rgb(0%,0%,0%); stroke:none;" transform="translate(0,0) scale(1,-1)" x="0" y="0">Gene_01345</text>
			</g>
			<g transform=" matrix(0.707107,0.707107,-0.707107,0.707107,296.323725,538.835771)">
				<text style="font-family: Helvetica; font-size: 10px;fill: rgb(0%,0%,0%); stroke:none;" transform="translate(0,0) scale(1,-1)" x="0" y="0">Gene_00028</text>
			</g>
			<g transform=" matrix(0.707107,-0.707107,0.707107,0.707107,596.089213,456.833521)">
				<text style="font-family: Helvetica; font-size: 10px;fill: rgb(0%,0%,0%); stroke:none;" transform="translate(0,0) scale(1,-1)" x="0" y="0">Gene_00029</text>
			</g>
			<g transform=" matrix(0.707107,0.707107,-0.707107,0.707107,719.90725,538.835771)">
				<text style="font-family: Helvetica; font-size: 10px;fill: rgb(0%,0%,0%); stroke:none;" transform="translate(0,0) scale(1,-1)" x="0" y="0">Gene_00030</text>
			</g>
			<g transform=" matrix(0.707107,0.707107,-0.707107,0.707107,769.759027,538.835771)">
				<text style="font-family: Helvetica; font-size: 10px;fill: rgb(0%,0%,0%); stroke:none;" transform="translate(0,0) scale(1,-1)" x="0" y="0">Gene_00031</text>
			</g>
			<g transform=" matrix(0.707107,0.707107,-0.707107,0.707107,827.098537,538.835771)">
				<text style="font-family: Helvetica; font-size: 10px;fill: rgb(0%,0%,0%); stroke:none;" transform="translate(0,0) scale(1,-1)" x="0" y="0">Gene_00032</text>
			</g>
			<g transform=" matrix(0.707107,0.707107,-0.707107,0.707107,876.580198,538.835771)">
				<text style="font-family: Helvetica; font-size: 10px;fill: rgb(0%,0%,0%); stroke:none;" transform="translate(0,0) scale(1,-1)" x="0" y="0">Gene_00033</text>
			</g>
			<g transform=" matrix(0.707107,0.707107,-0.707107,0.707107,925.606333,538.835771)">
				<text style="font-family: Helvetica; font-size: 10px;fill: rgb(0%,0%,0%); stroke:none;" transform="translate(0,0) scale(1,-1)" x="0" y="0">Gene_00034</text>
			</g>
			<g transform=" matrix(0.707107,0.707107,-0.707107,0.707107,983.344429,538.835771)">
				<text style="font-family: Helvetica; font-size: 10px;fill: rgb(0%,0%,0%); stroke:none;" transform="translate(0,0) scale(1,-1)" x="0" y="0">Gene_00035</text>
			</g>
			<g transform=" matrix(0.707107,0.707107,-0.707107,0.707107,1067.36076,538.835771)">
				<text style="font-family: Helvetica; font-size: 16px;fill: rgb(0%,0%,100%); stroke:none;" transform="translate(0,0) scale(1,-1)" x="0" y="0">Gene_00036 (78.1)</text>
			</g>
			<g transform=" matrix(0.707107,0.707107,-0.707107,0.707107,1144.316417,538.835771)">
				<text style="font-family: Helvetica; font-size: 10px;fill: rgb(0%,0%,0%); stroke:none;" transform="translate(0,0) scale(1,-1)" x="0" y="0">Gene_00037</text>
			</g>
			<g transform=" matrix(0.707107,0.707107,-0.707107,0.707107,1194.652193,538.835771)">
				<text style="font-family: Helvetica; font-size: 10px;fill: rgb(0%,0%,0%); stroke:none;" transform="translate(0,0) scale(1,-1)" x="0" y="0">Gene_00038</text>
			</g>
			<g transform=" matrix(0.707107,0.707107,-0.707107,0.707107,1246.411492,538.835771)">
				<text style="font-family: Helvetica; font-size: 10px;fill: rgb(0%,0%,0%); stroke:none;" transform="translate(0,0) scale(1,-1)" x="0" y="0">Gene_00039</text>
			</g>
			<g transform=" matrix(0.707107,0.707107,-0.707107,0.707107,1291.280939,538.835771)">
				<text style="font-family: Helvetica; font-size: 10px;fill: rgb(0%,0%,0%); stroke:none;" transform="translate(0,0) scale(1,-1)" x="0" y="0">Gene_00040</text>
			</g>
			<g transform=" matrix(0.707107,-0.707107,0.707107,0.707107,1334.100513,456.833521)">
				<text style="font-family: Helvetica; font-size: 10px;fill: rgb(0%,0%,0%); stroke:none;" transform="translate(0,0) scale(1,-1)" x="0" y="0">Gene_00041</text>
			</g>
			<g transform=" matrix(1,0,-0,1,70,169.825647)">
				<text style="font-family: Helvetica; font-size: 12px;fill: rgb(60%,60%,60%); stroke:none;" transform="translate(0,0) scale(1,-1)" x="0" y="0">megahit_60013 (left 5638bp, right 3781bp)</text>
			</g>
			<g transform=" matrix(1,0,-0,1,70,456.833521)">
				<text style="font-family: Helvetica; font-size: 12px;fill: rgb(60%,60%,60%); stroke:none;" transform="translate(0,0) scale(1,-1)" x="0" y="0">megahit_3470 (left 17938bp, right 4091bp)</text>
			</g>
		</g>
	</g>
</svg>
