<?xml version="1.0" encoding="utf-8"?>
<!DOCTYPE svg
  PUBLIC '-//W3C//DTD SVG 1.0//EN'
  'http://www.w3.org/TR/2001/REC-SVG-20010904/DTD/svg10.dtd'>
<svg fill-rule="evenodd" height="708.6614173228346" preserveAspectRatio="xMinYMin meet" version="1.0" viewBox="0 0 1417 708" width="1417.3228346456692" xmlns="http://www.w3.org/2000/svg" xmlns:xlink="http://www.w3.org/1999/xlink">
	<title>...</title>
	<desc>...</desc>
	<clipPath id="clip">
		<rect height="708.6614173228346" width="1417.3228346456692" x="0" y="0"/>
	</clipPath>
	<g id="group" style="clip-path: url(#clip)" transform="scale(1,-1) translate(0,-708)">
		<g transform="">
			<polygon points="70.86614 169.8256, 1346.398 169.8256, 1346.398 251.8279, 70.86614 251.8279" style="stroke: rgb(96%,96%,96%); stroke-linecap: butt; stroke-width: 1; fill: rgb(96%,96%,96%); fill-rule: evenodd;"/>
			<polygon points="70.86614 456.8335, 372.805 456.8335, 372.805 538.8358, 70.86614 538.8358" style="stroke: rgb(96%,96%,96%); stroke-linecap: butt; stroke-width: 1; fill: rgb(96%,96%,96%); fill-rule: evenodd;"/>
			<polygon points="73.2154 456.8335, 178.3449 456.8335, 713.8592 251.8279, 818.9886 251.8279" style="stroke: rgb(100%,38%,38%); stroke-linecap: round; stroke-width: 1; fill: rgb(100%,38%,38%); fill-rule: evenodd;"/>
			<polygon points="70.86614 241.5776, 115.5465 241.5776, 115.5465 251.8279, 131.947 231.3273, 115.5465 210.8268, 115.5465 221.0771, 70.86614 221.0771" style="stroke: rgb(67%,84%,90%); stroke-linecap: round; stroke-width: 1; fill: rgb(67%,84%,90%); fill-rule: evenodd;"/>
			<polygon points="137.4677 241.5776, 165.2334 241.5776, 165.2334 251.8279, 181.6338 231.3273, 165.2334 210.8268, 165.2334 221.0771, 137.4677 221.0771" style="stroke: rgb(67%,84%,90%); stroke-linecap: round; stroke-width: 1; fill: rgb(67%,84%,90%); fill-rule: evenodd;"/>
			<polygon points="244.5941 200.5765, 201.4995 200.5765, 201.4995 210.8268, 185.099 190.3262, 201.4995 169.8256, 201.4995 180.0759, 244.5941 180.0759" style="stroke: rgb(56%,93%,56%); stroke-linecap: round; stroke-width: 1; fill: rgb(56%,93%,56%); fill-rule: evenodd;"/>
			<polygon points="273.9011 200.5765, 262.3453 200.5765, 262.3453 210.8268, 245.9449 190.3262, 262.3453 169.8256, 262.3453 180.0759, 273.9011 180.0759" style="stroke: rgb(56%,93%,56%); stroke-linecap: round; stroke-width: 1; fill: rgb(56%,93%,56%); fill-rule: evenodd;"/>
			<polygon points="280.2441 241.5776, 286.3379 241.5776, 286.3379 251.8279, 302.7383 231.3273, 286.3379 210.8268, 286.3379 221.0771, 280.2441 221.0771" style="stroke: rgb(67%,84%,90%); stroke-linecap: round; stroke-width: 1; fill: rgb(67%,84%,90%); fill-rule: evenodd;"/>
			<polygon points="351.7204 200.5765, 324.1309 200.5765, 324.1309 210.8268, 307.7305 190.3262, 324.1309 169.8256, 324.1309 180.0759, 351.7204 180.0759" style="stroke: rgb(56%,93%,56%); stroke-linecap: round; stroke-width: 1; fill: rgb(56%,93%,56%); fill-rule: evenodd;"/>
			<polygon points="404.4026 200.5765, 372.2321 200.5765, 372.2321 210.8268, 355.8316 190.3262, 372.2321 169.8256, 372.2321 180.0759, 404.4026 180.0759" style="stroke: rgb(56%,93%,56%); stroke-linecap: round; stroke-width: 1; fill: rgb(56%,93%,56%); fill-rule: evenodd;"/>
			<polygon points="411.4504 241.5776, 422.3014 241.5776, 422.3014 251.8279, 438.7018 231.3273, 422.3014 210.8268, 422.3014 221.0771, 411.4504 221.0771" style="stroke: rgb(67%,84%,90%); stroke-linecap: round; stroke-width: 1; fill: rgb(67%,84%,90%); fill-rule: evenodd;"/>
			<polygon points="438.8193 241.5776, 460.0658 241.5776, 460.0658 251.8279, 476.4662 231.3273, 460.0658 210.8268, 460.0658 221.0771, 438.8193 221.0771" style="stroke: rgb(67%,84%,90%); stroke-linecap: round; stroke-width: 1; fill: rgb(67%,84%,90%); fill-rule: evenodd;"/>
			<polygon points="493.3222 241.5776, 510.8686 241.5776, 510.8686 251.8279, 527.269 231.3273, 510.8686 210.8268, 510.8686 221.0771, 493.3222 221.0771" style="stroke: rgb(67%,84%,90%); stroke-linecap: round; stroke-width: 1; fill: rgb(67%,84%,90%); fill-rule: evenodd;"/>
			<polygon points="526.5642 241.5776, 557.6776 241.5776, 557.6776 251.8279, 574.0781 231.3273, 557.6776 210.8268, 557.6776 221.0771, 526.5642 221.0771" style="stroke: rgb(67%,84%,90%); stroke-linecap: round; stroke-width: 1; fill: rgb(67%,84%,90%); fill-rule: evenodd;"/>
			<polygon points="574.9003 241.5776, 574.9003 251.8279, 589.8181 231.3273, 574.9003 210.8268, 574.9003 221.0771" style="stroke: rgb(67%,84%,90%); stroke-linecap: round; stroke-width: 1; fill: rgb(67%,84%,90%); fill-rule: evenodd;"/>
			<polygon points="628.1111 200.5765, 607.5694 200.5765, 607.5694 210.8268, 591.169 190.3262, 607.5694 169.8256, 607.5694 180.0759, 628.1111 180.0759" style="stroke: rgb(56%,93%,56%); stroke-linecap: round; stroke-width: 1; fill: rgb(56%,93%,56%); fill-rule: evenodd;"/>
			<polygon points="647.2576 200.5765, 644.6877 200.5765, 644.6877 210.8268, 628.2873 190.3262, 644.6877 169.8256, 644.6877 180.0759, 647.2576 180.0759" style="stroke: rgb(56%,93%,56%); stroke-linecap: round; stroke-width: 1; fill: rgb(56%,93%,56%); fill-rule: evenodd;"/>
			<polygon points="700.8795 200.5765, 662.8945 200.5765, 662.8945 210.8268, 646.4941 190.3262, 662.8945 169.8256, 662.8945 180.0759, 700.8795 180.0759" style="stroke: rgb(56%,93%,56%); stroke-linecap: round; stroke-width: 1; fill: rgb(56%,93%,56%); fill-rule: evenodd;"/>
			<polygon points="813.2917 200.5765, 729.6723 200.5765, 729.6723 210.8268, 713.2718 190.3262, 729.6723 169.8256, 729.6723 180.0759, 813.2917 180.0759" style="stroke: rgb(56%,93%,56%); stroke-linecap: round; stroke-width: 1; fill: rgb(56%,93%,56%); fill-rule: evenodd;"/>
			<polygon points="833.7303 200.5765, 833.7303 210.8268, 819.341 190.3262, 833.7303 169.8256, 833.7303 180.0759" style="stroke: rgb(56%,93%,56%); stroke-linecap: round; stroke-width: 1; fill: rgb(56%,93%,56%); fill-rule: evenodd;"/>
			<polygon points="844.5369 200.5765, 844.5369 210.8268, 833.1429 190.3262, 844.5369 169.8256, 844.5369 180.0759" style="stroke: rgb(56%,93%,56%); stroke-linecap: round; stroke-width: 1; fill: rgb(56%,93%,56%); fill-rule: evenodd;"/>
			<polygon points="851.8196 241.5776, 851.8196 251.8279, 867.0898 231.3273, 851.8196 210.8268, 851.8196 221.0771" style="stroke: rgb(67%,84%,90%); stroke-linecap: round; stroke-width: 1; fill: rgb(67%,84%,90%); fill-rule: evenodd;"/>
			<polygon points="898.5112 200.5765, 881.6695 200.5765, 881.6695 210.8268, 865.2691 190.3262, 881.6695 169.8256, 881.6695 180.0759, 898.5112 180.0759" style="stroke: rgb(56%,93%,56%); stroke-linecap: round; stroke-width: 1; fill: rgb(56%,93%,56%); fill-rule: evenodd;"/>
			<polygon points="975.7431 200.5765, 916.4386 200.5765, 916.4386 210.8268, 900.0382 190.3262, 916.4386 169.8256, 916.4386 180.0759, 975.7431 180.0759" style="stroke: rgb(56%,93%,56%); stroke-linecap: round; stroke-width: 1; fill: rgb(56%,93%,56%); fill-rule: evenodd;"/>
			<polygon points="1044.635 200.5765, 1010.35 200.5765, 1010.35 210.8268, 993.9499 190.3262, 1010.35 169.8256, 1010.35 180.0759, 1044.635 180.0759" style="stroke: rgb(56%,93%,56%); stroke-linecap: round; stroke-width: 1; fill: rgb(56%,93%,56%); fill-rule: evenodd;"/>
			<polygon points="1074.177 200.5765, 1060.86 200.5765, 1060.86 210.8268, 1044.459 190.3262, 1060.86 169.8256, 1060.86 180.0759, 1074.177 180.0759" style="stroke: rgb(56%,93%,56%); stroke-linecap: round; stroke-width: 1; fill: rgb(56%,93%,56%); fill-rule: evenodd;"/>
			<polygon points="1082.517 241.5776, 1113.278 241.5776, 1113.278 251.8279, 1129.679 231.3273, 1113.278 210.8268, 1113.278 221.0771, 1082.517 221.0771" style="stroke: rgb(67%,84%,90%); stroke-linecap: round; stroke-width: 1; fill: rgb(67%,84%,90%); fill-rule: evenodd;"/>
			<polygon points="1133.379 241.5776, 1134.539 241.5776, 1134.539 251.8279, 1150.939 231.3273, 1134.539 210.8268, 1134.539 221.0771, 1133.379 221.0771" style="stroke: rgb(67%,84%,90%); stroke-linecap: round; stroke-width: 1; fill: rgb(67%,84%,90%); fill-rule: evenodd;"/>
			<polygon points="1188.058 200.5765, 1170.864 200.5765, 1170.864 210.8268, 1154.463 190.3262, 1170.864 169.8256, 1170.864 180.0759, 1188.058 180.0759" style="stroke: rgb(56%,93%,56%); stroke-linecap: round; stroke-width: 1; fill: rgb(56%,93%,56%); fill-rule: evenodd;"/>
			<polygon points="1245.967 200.5765, 1206.572 200.5765, 1206.572 210.8268, 1190.172 190.3262, 1206.572 169.8256, 1206.572 180.0759, 1245.967 180.0759" style="stroke: rgb(56%,93%,56%); stroke-linecap: round; stroke-width: 1; fill: rgb(56%,93%,56%); fill-rule: evenodd;"/>
			<polygon points="1262.236 241.5776, 1317.84 241.5776, 1317.84 251.8279, 1334.241 231.3273, 1317.84 210.8268, 1317.84 221.0771, 1262.236 221.0771" style="stroke: rgb(67%,84%,90%); stroke-linecap: round; stroke-width: 1; fill: rgb(67%,84%,90%); fill-rule: evenodd;"/>
			<polygon points="78.91236 528.5855, 162.5317 528.5855, 162.5317 538.8358, 178.9322 518.3352, 162.5317 497.8346, 162.5317 508.0849, 78.91236 508.0849" style="stroke: rgb(67%,84%,90%); stroke-linecap: round; stroke-width: 1; fill: rgb(67%,84%,90%); fill-rule: evenodd;"/>
			<polygon points="187.9769 528.5855, 203.9375 528.5855, 203.9375 538.8358, 220.3379 518.3352, 203.9375 497.8346, 203.9375 508.0849, 187.9769 508.0849" style="stroke: rgb(67%,84%,90%); stroke-linecap: round; stroke-width: 1; fill: rgb(67%,84%,90%); fill-rule: evenodd;"/>
			<polygon points="309.4924 487.5844, 243.3163 487.5844, 243.3163 497.8346, 226.9159 477.3341, 243.3163 456.8335, 243.3163 467.0838, 309.4924 467.0838" style="stroke: rgb(56%,93%,56%); stroke-linecap: round; stroke-width: 1; fill: rgb(56%,93%,56%); fill-rule: evenodd;"/>
			<polygon points="315.9529 528.5855, 346.5377 528.5855, 346.5377 538.8358, 362.9381 518.3352, 346.5377 497.8346, 346.5377 508.0849, 315.9529 508.0849" style="stroke: rgb(67%,84%,90%); stroke-linecap: round; stroke-width: 1; fill: rgb(67%,84%,90%); fill-rule: evenodd;"/>
			<path d="M 1346.397961,169.825647 L 1346.397961,251.827897 Z" style="stroke: rgb(0%,0%,0%); stroke-linecap: butt; stroke-width: 1;"/>
			<path d="M 70.866142,210.826772 L 1346.397961,210.826772 Z" style="stroke: rgb(0%,0%,0%); stroke-linecap: butt; stroke-width: 1;"/>
			<path d="M 70.866142,169.825647 L 70.866142,251.827897 Z" style="stroke: rgb(0%,0%,0%); stroke-linecap: butt; stroke-width: 1;"/>
			<path d="M 658.181649,210.826772 L 658.181649,231.327334 Z" style="stroke: rgb(0%,0%,0%); stroke-linecap: butt; stroke-width: 1;"/>
			<path d="M 1245.497157,210.826772 L 1245.497157,231.327334 Z" style="stroke: rgb(0%,0%,0%); stroke-linecap: butt; stroke-width: 1;"/>
			<path d="M 658.181649,210.826772 L 658.181649,223.127109 Z" style="stroke: rgb(0%,0%,0%); stroke-linecap: butt; stroke-width: 1;"/>
			<path d="M 1245.497157,210.826772 L 1245.497157,223.127109 Z" style="stroke: rgb(0%,0%,0%); stroke-linecap: butt; stroke-width: 1;"/>
			<path d="M 372.805044,456.833521 L 372.805044,538.835771 Z" style="stroke: rgb(0%,0%,0%); stroke-linecap: butt; stroke-width: 1;"/>
			<path d="M 70.866142,497.834646 L 372.805044,497.834646 Z" style="stroke: rgb(0%,0%,0%); stroke-linecap: butt; stroke-width: 1;"/>
			<path d="M 70.866142,456.833521 L 70.866142,538.835771 Z" style="stroke: rgb(0%,0%,0%); stroke-linecap: butt; stroke-width: 1;"/>
			<g transform=" matrix(0.707107,0.707107,-0.707107,0.707107,658.181649,231.327334)">
				<text style="font-family: Helvetica; font-size: 6px;fill: rgb(0%,0%,0%); stroke:none;" transform="translate(0,0) scale(1,-1)" x="0" y="0">10000</text>
			</g>
			<g transform=" matrix(0.707107,0.707107,-0.707107,0.707107,1245.497157,231.327334)">
				<text style="font-family: Helvetica; font-size: 6px;fill: rgb(0%,0%,0%); stroke:none;" transform="translate(0,0) scale(1,-1)" x="0" y="0">20000</text>
			</g>
			<g transform=" matrix(0.707107,0.707107,-0.707107,0.707107,101.406548,251.827897)">
				<text style="font-family: Helvetica; font-size: 10px;fill: rgb(0%,0%,0%); stroke:none;" transform="translate(0,0) scale(1,-1)" x="0" y="0">Gene_00053</text>
			</g>
			<g transform=" matrix(0.707107,0.707107,-0.707107,0.707107,159.550783,251.827897)">
				<text style="font-family: Helvetica; font-size: 10px;fill: rgb(0%,0%,0%); stroke:none;" transform="translate(0,0) scale(1,-1)" x="0" y="0">Gene_00054</text>
			</g>
			<g transform=" matrix(0.707107,-0.707107,0.707107,0.707107,214.846538,169.825647)">
				<text style="font-family: Helvetica; font-size: 10px;fill: rgb(0%,0%,0%); stroke:none;" transform="translate(0,0) scale(1,-1)" x="0" y="0">Gene_00055</text>
			</g>
			<g transform=" matrix(0.707107,-0.707107,0.707107,0.707107,259.923004,169.825647)">
				<text style="font-family: Helvetica; font-size: 10px;fill: rgb(0%,0%,0%); stroke:none;" transform="translate(0,0) scale(1,-1)" x="0" y="0">Gene_00056</text>
			</g>
			<g transform=" matrix(0.707107,0.707107,-0.707107,0.707107,291.491212,251.827897)">
				<text style="font-family: Helvetica; font-size: 10px;fill: rgb(0%,0%,0%); stroke:none;" transform="translate(0,0) scale(1,-1)" x="0" y="0">Gene_00057</text>
			</g>
			<g transform=" matrix(0.707107,-0.707107,0.707107,0.707107,329.725452,169.825647)">
				<text style="font-family: Helvetica; font-size: 10px;fill: rgb(0%,0%,0%); stroke:none;" transform="translate(0,0) scale(1,-1)" x="0" y="0">Gene_00058</text>
			</g>
			<g transform=" matrix(0.707107,-0.707107,0.707107,0.707107,380.117122,169.825647)">
				<text style="font-family: Helvetica; font-size: 10px;fill: rgb(0%,0%,0%); stroke:none;" transform="translate(0,0) scale(1,-1)" x="0" y="0">Gene_00059</text>
			</g>
			<g transform=" matrix(0.707107,0.707107,-0.707107,0.707107,425.076124,251.827897)">
				<text style="font-family: Helvetica; font-size: 10px;fill: rgb(0%,0%,0%); stroke:none;" transform="translate(0,0) scale(1,-1)" x="0" y="0">Gene_00060</text>
			</g>
			<g transform=" matrix(0.707107,0.707107,-0.707107,0.707107,457.642769,251.827897)">
				<text style="font-family: Helvetica; font-size: 10px;fill: rgb(0%,0%,0%); stroke:none;" transform="translate(0,0) scale(1,-1)" x="0" y="0">Gene_00061</text>
			</g>
			<g transform=" matrix(0.707107,0.707107,-0.707107,0.707107,510.295605,251.827897)">
				<text style="font-family: Helvetica; font-size: 10px;fill: rgb(0%,0%,0%); stroke:none;" transform="translate(0,0) scale(1,-1)" x="0" y="0">Gene_00062</text>
			</g>
			<g transform=" matrix(0.707107,0.707107,-0.707107,0.707107,550.321156,251.827897)">
				<text style="font-family: Helvetica; font-size: 10px;fill: rgb(0%,0%,0%); stroke:none;" transform="translate(0,0) scale(1,-1)" x="0" y="0">Gene_00063</text>
			</g>
			<g transform=" matrix(0.707107,0.707107,-0.707107,0.707107,582.359217,251.827897)">
				<text style="font-family: Helvetica; font-size: 10px;fill: rgb(0%,0%,0%); stroke:none;" transform="translate(0,0) scale(1,-1)" x="0" y="0">Gene_00064</text>
			</g>
			<g transform=" matrix(0.707107,-0.707107,0.707107,0.707107,609.640023,169.825647)">
				<text style="font-family: Helvetica; font-size: 10px;fill: rgb(0%,0%,0%); stroke:none;" transform="translate(0,0) scale(1,-1)" x="0" y="0">Gene_00065</text>
			</g>
			<g transform=" matrix(0.707107,-0.707107,0.707107,0.707107,637.772436,169.825647)">
				<text style="font-family: Helvetica; font-size: 10px;fill: rgb(0%,0%,0%); stroke:none;" transform="translate(0,0) scale(1,-1)" x="0" y="0">Gene_00066</text>
			</g>
			<g transform=" matrix(0.707107,-0.707107,0.707107,0.707107,673.686779,169.825647)">
				<text style="font-family: Helvetica; font-size: 10px;fill: rgb(0%,0%,0%); stroke:none;" transform="translate(0,0) scale(1,-1)" x="0" y="0">Gene_00067</text>
			</g>
			<g transform=" matrix(0.707107,-0.707107,0.707107,0.707107,763.28176,169.825647)">
				<text style="font-family: Helvetica; font-size: 16px;fill: rgb(0%,0%,100%); stroke:none;" transform="translate(0,0) scale(1,-1)" x="0" y="0">Gene_00068 (80.2)</text>
			</g>
			<g transform=" matrix(0.707107,-0.707107,0.707107,0.707107,826.53564,169.825647)">
				<text style="font-family: Helvetica; font-size: 10px;fill: rgb(0%,0%,0%); stroke:none;" transform="translate(0,0) scale(1,-1)" x="0" y="0">Gene_00069</text>
			</g>
			<g transform=" matrix(0.707107,-0.707107,0.707107,0.707107,838.8399,169.825647)">
				<text style="font-family: Helvetica; font-size: 10px;fill: rgb(0%,0%,0%); stroke:none;" transform="translate(0,0) scale(1,-1)" x="0" y="0">Gene_00070</text>
			</g>
			<g transform=" matrix(0.707107,0.707107,-0.707107,0.707107,859.454674,251.827897)">
				<text style="font-family: Helvetica; font-size: 10px;fill: rgb(0%,0%,0%); stroke:none;" transform="translate(0,0) scale(1,-1)" x="0" y="0">Gene_00071</text>
			</g>
			<g transform=" matrix(0.707107,-0.707107,0.707107,0.707107,881.890126,169.825647)">
				<text style="font-family: Helvetica; font-size: 10px;fill: rgb(0%,0%,0%); stroke:none;" transform="translate(0,0) scale(1,-1)" x="0" y="0">Gene_00072</text>
			</g>
			<g transform=" matrix(0.707107,-0.707107,0.707107,0.707107,937.89066,169.825647)">
				<text style="font-family: Helvetica; font-size: 10px;fill: rgb(0%,0%,0%); stroke:none;" transform="translate(0,0) scale(1,-1)" x="0" y="0">Gene_00073</text>
			</g>
			<g transform=" matrix(0.707107,-0.707107,0.707107,0.707107,1019.292589,169.825647)">
				<text style="font-family: Helvetica; font-size: 10px;fill: rgb(0%,0%,0%); stroke:none;" transform="translate(0,0) scale(1,-1)" x="0" y="0">Gene_00074</text>
			</g>
			<g transform=" matrix(0.707107,-0.707107,0.707107,0.707107,1059.318141,169.825647)">
				<text style="font-family: Helvetica; font-size: 10px;fill: rgb(0%,0%,0%); stroke:none;" transform="translate(0,0) scale(1,-1)" x="0" y="0">Gene_00075</text>
			</g>
			<g transform=" matrix(0.707107,0.707107,-0.707107,0.707107,1106.097821,251.827897)">
				<text style="font-family: Helvetica; font-size: 10px;fill: rgb(0%,0%,0%); stroke:none;" transform="translate(0,0) scale(1,-1)" x="0" y="0">Gene_00076</text>
			</g>
			<g transform=" matrix(0.707107,0.707107,-0.707107,0.707107,1142.158994,251.827897)">
				<text style="font-family: Helvetica; font-size: 10px;fill: rgb(0%,0%,0%); stroke:none;" transform="translate(0,0) scale(1,-1)" x="0" y="0">Gene_00077</text>
			</g>
			<g transform=" matrix(0.707107,-0.707107,0.707107,0.707107,1171.260477,169.825647)">
				<text style="font-family: Helvetica; font-size: 10px;fill: rgb(0%,0%,0%); stroke:none;" transform="translate(0,0) scale(1,-1)" x="0" y="0">Gene_00078</text>
			</g>
			<g transform=" matrix(0.707107,-0.707107,0.707107,0.707107,1218.069523,169.825647)">
				<text style="font-family: Helvetica; font-size: 10px;fill: rgb(0%,0%,0%); stroke:none;" transform="translate(0,0) scale(1,-1)" x="0" y="0">Gene_00079</text>
			</g>
			<g transform=" matrix(0.707107,0.707107,-0.707107,0.707107,1298.23809,251.827897)">
				<text style="font-family: Helvetica; font-size: 10px;fill: rgb(0%,0%,0%); stroke:none;" transform="translate(0,0) scale(1,-1)" x="0" y="0">Gene_00080</text>
			</g>
			<g transform=" matrix(0.707107,0.707107,-0.707107,0.707107,128.92228,538.835771)">
				<text style="font-family: Helvetica; font-size: 16px;fill: rgb(0%,0%,100%); stroke:none;" transform="translate(0,0) scale(1,-1)" x="0" y="0">Gene_00641 (80.2)</text>
			</g>
			<g transform=" matrix(0.707107,0.707107,-0.707107,0.707107,204.157396,538.835771)">
				<text style="font-family: Helvetica; font-size: 10px;fill: rgb(0%,0%,0%); stroke:none;" transform="translate(0,0) scale(1,-1)" x="0" y="0">Gene_00642</text>
			</g>
			<g transform=" matrix(0.707107,-0.707107,0.707107,0.707107,268.204152,456.833521)">
				<text style="font-family: Helvetica; font-size: 10px;fill: rgb(0%,0%,0%); stroke:none;" transform="translate(0,0) scale(1,-1)" x="0" y="0">Gene_00643</text>
			</g>
			<g transform=" matrix(0.707107,0.707107,-0.707107,0.707107,339.445523,538.835771)">
				<text style="font-family: Helvetica; font-size: 10px;fill: rgb(0%,0%,0%); stroke:none;" transform="translate(0,0) scale(1,-1)" x="0" y="0">Gene_00644</text>
			</g>
			<g transform=" matrix(1,0,-0,1,70,169.825647)">
				<text style="font-family: Helvetica; font-size: 12px;fill: rgb(60%,60%,60%); stroke:none;" transform="translate(0,0) scale(1,-1)" x="0" y="0">megahit_647 (left 65903bp, right 9077bp)</text>
			</g>
			<g transform=" matrix(1,0,-0,1,70,456.833521)">
				<text style="font-family: Helvetica; font-size: 12px;fill: rgb(60%,60%,60%); stroke:none;" transform="translate(0,0) scale(1,-1)" x="0" y="0">megahit_33750 (left 137bp, right 3301bp)</text>
			</g>
		</g>
	</g>
</svg>
