<?xml version="1.0" encoding="utf-8"?>
<!DOCTYPE svg
  PUBLIC '-//W3C//DTD SVG 1.0//EN'
  'http://www.w3.org/TR/2001/REC-SVG-20010904/DTD/svg10.dtd'>
<svg fill-rule="evenodd" height="708.6614173228346" preserveAspectRatio="xMinYMin meet" version="1.0" viewBox="0 0 1417 708" width="1417.3228346456692" xmlns="http://www.w3.org/2000/svg" xmlns:xlink="http://www.w3.org/1999/xlink">
	<title>...</title>
	<desc>...</desc>
	<clipPath id="clip">
		<rect height="708.6614173228346" width="1417.3228346456692" x="0" y="0"/>
	</clipPath>
	<g id="group" style="clip-path: url(#clip)" transform="scale(1,-1) translate(0,-708)">
		<g transform="">
			<polygon points="70.86614 169.8256, 319.5953 169.8256, 319.5953 251.8279, 70.86614 251.8279" style="stroke: rgb(96%,96%,96%); stroke-linecap: butt; stroke-width: 1; fill: rgb(96%,96%,96%); fill-rule: evenodd;"/>
			<polygon points="70.86614 456.8335, 1346.397 456.8335, 1346.397 538.8358, 70.86614 538.8358" style="stroke: rgb(96%,96%,96%); stroke-linecap: butt; stroke-width: 1; fill: rgb(96%,96%,96%); fill-rule: evenodd;"/>
			<polygon points="724.6634 456.8335, 863.8425 456.8335, 237.7148 251.8279, 98.47633 251.8279" style="stroke: rgb(100%,9%,9%); stroke-linecap: round; stroke-width: 1; fill: rgb(100%,9%,9%); fill-rule: evenodd;"/>
			<polygon points="73.47872 241.5776, 79.4633 241.5776, 79.4633 251.8279, 95.86375 231.3273, 79.4633 210.8268, 79.4633 221.0771, 73.47872 221.0771" style="stroke: rgb(67%,84%,90%); stroke-linecap: round; stroke-width: 1; fill: rgb(67%,84%,90%); fill-rule: evenodd;"/>
			<polygon points="103.1077 241.5776, 103.1077 251.8279, 119.4363 231.3273, 103.1077 210.8268, 103.1077 221.0771" style="stroke: rgb(67%,84%,90%); stroke-linecap: round; stroke-width: 1; fill: rgb(67%,84%,90%); fill-rule: evenodd;"/>
			<polygon points="126.6209 241.5776, 221.8487 241.5776, 221.8487 251.8279, 238.2492 231.3273, 221.8487 210.8268, 221.8487 221.0771, 126.6209 221.0771" style="stroke: rgb(67%,84%,90%); stroke-linecap: round; stroke-width: 1; fill: rgb(67%,84%,90%); fill-rule: evenodd;"/>
			<polygon points="238.071 241.5776, 238.071 251.8279, 248.5214 231.3273, 238.071 210.8268, 238.071 221.0771" style="stroke: rgb(67%,84%,90%); stroke-linecap: round; stroke-width: 1; fill: rgb(67%,84%,90%); fill-rule: evenodd;"/>
			<polygon points="313.6576 200.5765, 279.7066 200.5765, 279.7066 210.8268, 263.3062 190.3262, 279.7066 169.8256, 279.7066 180.0759, 313.6576 180.0759" style="stroke: rgb(56%,93%,56%); stroke-linecap: round; stroke-width: 1; fill: rgb(56%,93%,56%); fill-rule: evenodd;"/>
			<polygon points="70.86614 528.5855, 154.5155 528.5855, 154.5155 538.8358, 170.916 518.3352, 154.5155 497.8346, 154.5155 508.0849, 70.86614 508.0849" style="stroke: rgb(67%,84%,90%); stroke-linecap: round; stroke-width: 1; fill: rgb(67%,84%,90%); fill-rule: evenodd;"/>
			<polygon points="174.8348 528.5855, 220.8987 528.5855, 220.8987 538.8358, 237.2991 518.3352, 220.8987 497.8346, 220.8987 508.0849, 174.8348 508.0849" style="stroke: rgb(67%,84%,90%); stroke-linecap: round; stroke-width: 1; fill: rgb(67%,84%,90%); fill-rule: evenodd;"/>
			<polygon points="239.1992 528.5855, 251.7746 528.5855, 251.7746 538.8358, 268.1751 518.3352, 251.7746 497.8346, 251.7746 508.0849, 239.1992 508.0849" style="stroke: rgb(67%,84%,90%); stroke-linecap: round; stroke-width: 1; fill: rgb(67%,84%,90%); fill-rule: evenodd;"/>
			<polygon points="277.616 528.5855, 291.082 528.5855, 291.082 538.8358, 307.4825 518.3352, 291.082 497.8346, 291.082 508.0849, 277.616 508.0849" style="stroke: rgb(67%,84%,90%); stroke-linecap: round; stroke-width: 1; fill: rgb(67%,84%,90%); fill-rule: evenodd;"/>
			<polygon points="318.5265 528.5855, 338.4053 528.5855, 338.4053 538.8358, 354.8057 518.3352, 338.4053 497.8346, 338.4053 508.0849, 318.5265 508.0849" style="stroke: rgb(67%,84%,90%); stroke-linecap: round; stroke-width: 1; fill: rgb(67%,84%,90%); fill-rule: evenodd;"/>
			<polygon points="358.2496 528.5855, 385.0754 528.5855, 385.0754 538.8358, 401.4758 518.3352, 385.0754 497.8346, 385.0754 508.0849, 358.2496 508.0849" style="stroke: rgb(67%,84%,90%); stroke-linecap: round; stroke-width: 1; fill: rgb(67%,84%,90%); fill-rule: evenodd;"/>
			<polygon points="435.7362 487.5844, 417.1044 487.5844, 417.1044 497.8346, 400.7039 477.3341, 417.1044 456.8335, 417.1044 467.0838, 435.7362 467.0838" style="stroke: rgb(56%,93%,56%); stroke-linecap: round; stroke-width: 1; fill: rgb(56%,93%,56%); fill-rule: evenodd;"/>
			<polygon points="485.9096 487.5844, 451.4242 487.5844, 451.4242 497.8346, 435.0237 477.3341, 451.4242 456.8335, 451.4242 467.0838, 485.9096 467.0838" style="stroke: rgb(56%,93%,56%); stroke-linecap: round; stroke-width: 1; fill: rgb(56%,93%,56%); fill-rule: evenodd;"/>
			<polygon points="494.8161 528.5855, 586.125 528.5855, 586.125 538.8358, 602.5255 518.3352, 586.125 497.8346, 586.125 508.0849, 494.8161 508.0849" style="stroke: rgb(67%,84%,90%); stroke-linecap: round; stroke-width: 1; fill: rgb(67%,84%,90%); fill-rule: evenodd;"/>
			<polygon points="602.1099 528.5855, 620.5636 528.5855, 620.5636 538.8358, 636.964 518.3352, 620.5636 497.8346, 620.5636 508.0849, 602.1099 508.0849" style="stroke: rgb(67%,84%,90%); stroke-linecap: round; stroke-width: 1; fill: rgb(67%,84%,90%); fill-rule: evenodd;"/>
			<polygon points="637.0828 528.5855, 693.8345 528.5855, 693.8345 538.8358, 710.2349 518.3352, 693.8345 497.8346, 693.8345 508.0849, 637.0828 508.0849" style="stroke: rgb(67%,84%,90%); stroke-linecap: round; stroke-width: 1; fill: rgb(67%,84%,90%); fill-rule: evenodd;"/>
			<polygon points="729.2948 528.5855, 729.2948 538.8358, 745.6234 518.3352, 729.2948 497.8346, 729.2948 508.0849" style="stroke: rgb(67%,84%,90%); stroke-linecap: round; stroke-width: 1; fill: rgb(67%,84%,90%); fill-rule: evenodd;"/>
			<polygon points="752.7486 528.5855, 849.2234 528.5855, 849.2234 538.8358, 865.6238 518.3352, 849.2234 497.8346, 849.2234 508.0849, 752.7486 508.0849" style="stroke: rgb(67%,84%,90%); stroke-linecap: round; stroke-width: 1; fill: rgb(67%,84%,90%); fill-rule: evenodd;"/>
			<polygon points="863.3081 528.5855, 863.3081 538.8358, 875.5398 518.3352, 863.3081 497.8346, 863.3081 508.0849" style="stroke: rgb(67%,84%,90%); stroke-linecap: round; stroke-width: 1; fill: rgb(67%,84%,90%); fill-rule: evenodd;"/>
			<polygon points="901.4874 487.5844, 899.5998 487.5844, 899.5998 497.8346, 883.1994 477.3341, 899.5998 456.8335, 899.5998 467.0838, 901.4874 467.0838" style="stroke: rgb(56%,93%,56%); stroke-linecap: round; stroke-width: 1; fill: rgb(56%,93%,56%); fill-rule: evenodd;"/>
			<polygon points="945.5449 487.5844, 917.1159 487.5844, 917.1159 497.8346, 900.7155 477.3341, 917.1159 456.8335, 917.1159 467.0838, 945.5449 467.0838" style="stroke: rgb(56%,93%,56%); stroke-linecap: round; stroke-width: 1; fill: rgb(56%,93%,56%); fill-rule: evenodd;"/>
			<polygon points="964.5455 528.5855, 985.1367 528.5855, 985.1367 538.8358, 1001.537 518.3352, 985.1367 497.8346, 985.1367 508.0849, 964.5455 508.0849" style="stroke: rgb(67%,84%,90%); stroke-linecap: round; stroke-width: 1; fill: rgb(67%,84%,90%); fill-rule: evenodd;"/>
			<polygon points="1022.022 528.5855, 1054.904 528.5855, 1054.904 538.8358, 1071.305 518.3352, 1054.904 497.8346, 1054.904 508.0849, 1022.022 508.0849" style="stroke: rgb(67%,84%,90%); stroke-linecap: round; stroke-width: 1; fill: rgb(67%,84%,90%); fill-rule: evenodd;"/>
			<polygon points="1080.39 528.5855, 1151.926 528.5855, 1151.926 538.8358, 1168.326 518.3352, 1151.926 497.8346, 1151.926 508.0849, 1080.39 508.0849" style="stroke: rgb(67%,84%,90%); stroke-linecap: round; stroke-width: 1; fill: rgb(67%,84%,90%); fill-rule: evenodd;"/>
			<polygon points="1168.148 528.5855, 1272.639 528.5855, 1272.639 538.8358, 1289.039 518.3352, 1272.639 497.8346, 1272.639 508.0849, 1168.148 508.0849" style="stroke: rgb(67%,84%,90%); stroke-linecap: round; stroke-width: 1; fill: rgb(67%,84%,90%); fill-rule: evenodd;"/>
			<polygon points="1289.099 528.5855, 1329.997 528.5855, 1329.997 538.8358, 1346.397 518.3352, 1329.997 497.8346, 1329.997 508.0849, 1289.099 508.0849" style="stroke: rgb(67%,84%,90%); stroke-linecap: round; stroke-width: 1; fill: rgb(67%,84%,90%); fill-rule: evenodd;"/>
			<path d="M 319.595315,169.825647 L 319.595315,251.827897 Z" style="stroke: rgb(0%,0%,0%); stroke-linecap: butt; stroke-width: 1;"/>
			<path d="M 70.866142,210.826772 L 319.595315,210.826772 Z" style="stroke: rgb(0%,0%,0%); stroke-linecap: butt; stroke-width: 1;"/>
			<path d="M 70.866142,169.825647 L 70.866142,251.827897 Z" style="stroke: rgb(0%,0%,0%); stroke-linecap: butt; stroke-width: 1;"/>
			<path d="M 1346.397316,456.833521 L 1346.397316,538.835771 Z" style="stroke: rgb(0%,0%,0%); stroke-linecap: butt; stroke-width: 1;"/>
			<path d="M 70.866142,497.834646 L 1346.397316,497.834646 Z" style="stroke: rgb(0%,0%,0%); stroke-linecap: butt; stroke-width: 1;"/>
			<path d="M 70.866142,456.833521 L 70.866142,538.835771 Z" style="stroke: rgb(0%,0%,0%); stroke-linecap: butt; stroke-width: 1;"/>
			<path d="M 664.633563,497.834646 L 664.633563,518.335208 Z" style="stroke: rgb(0%,0%,0%); stroke-linecap: butt; stroke-width: 1;"/>
			<path d="M 1258.400984,497.834646 L 1258.400984,518.335208 Z" style="stroke: rgb(0%,0%,0%); stroke-linecap: butt; stroke-width: 1;"/>
			<path d="M 664.633563,497.834646 L 664.633563,510.134983 Z" style="stroke: rgb(0%,0%,0%); stroke-linecap: butt; stroke-width: 1;"/>
			<path d="M 1258.400984,497.834646 L 1258.400984,510.134983 Z" style="stroke: rgb(0%,0%,0%); stroke-linecap: butt; stroke-width: 1;"/>
			<g transform=" matrix(0.707107,0.707107,-0.707107,0.707107,664.633563,518.335208)">
				<text style="font-family: Helvetica; font-size: 6px;fill: rgb(0%,0%,0%); stroke:none;" transform="translate(0,0) scale(1,-1)" x="0" y="0">10000</text>
			</g>
			<g transform=" matrix(0.707107,0.707107,-0.707107,0.707107,1258.400984,518.335208)">
				<text style="font-family: Helvetica; font-size: 6px;fill: rgb(0%,0%,0%); stroke:none;" transform="translate(0,0) scale(1,-1)" x="0" y="0">20000</text>
			</g>
			<g transform=" matrix(0.707107,0.707107,-0.707107,0.707107,84.671234,251.827897)">
				<text style="font-family: Helvetica; font-size: 10px;fill: rgb(0%,0%,0%); stroke:none;" transform="translate(0,0) scale(1,-1)" x="0" y="0">Gene_00730</text>
			</g>
			<g transform=" matrix(0.707107,0.707107,-0.707107,0.707107,111.272015,251.827897)">
				<text style="font-family: Helvetica; font-size: 16px;fill: rgb(0%,0%,100%); stroke:none;" transform="translate(0,0) scale(1,-1)" x="0" y="0">Gene_00731 (99.3)</text>
			</g>
			<g transform=" matrix(0.707107,0.707107,-0.707107,0.707107,182.43504,251.827897)">
				<text style="font-family: Helvetica; font-size: 10px;fill: rgb(0%,0%,0%); stroke:none;" transform="translate(0,0) scale(1,-1)" x="0" y="0">Gene_00732</text>
			</g>
			<g transform=" matrix(0.707107,0.707107,-0.707107,0.707107,243.296201,251.827897)">
				<text style="font-family: Helvetica; font-size: 10px;fill: rgb(0%,0%,0%); stroke:none;" transform="translate(0,0) scale(1,-1)" x="0" y="0">Gene_00733</text>
			</g>
			<g transform=" matrix(0.707107,-0.707107,0.707107,0.707107,288.481902,169.825647)">
				<text style="font-family: Helvetica; font-size: 10px;fill: rgb(0%,0%,0%); stroke:none;" transform="translate(0,0) scale(1,-1)" x="0" y="0">Gene_00734</text>
			</g>
			<g transform=" matrix(0.707107,0.707107,-0.707107,0.707107,120.891047,538.835771)">
				<text style="font-family: Helvetica; font-size: 10px;fill: rgb(0%,0%,0%); stroke:none;" transform="translate(0,0) scale(1,-1)" x="0" y="0">Gene_00335</text>
			</g>
			<g transform=" matrix(0.707107,0.707107,-0.707107,0.707107,206.066984,538.835771)">
				<text style="font-family: Helvetica; font-size: 10px;fill: rgb(0%,0%,0%); stroke:none;" transform="translate(0,0) scale(1,-1)" x="0" y="0">Gene_00336</text>
			</g>
			<g transform=" matrix(0.707107,0.707107,-0.707107,0.707107,253.687131,538.835771)">
				<text style="font-family: Helvetica; font-size: 10px;fill: rgb(0%,0%,0%); stroke:none;" transform="translate(0,0) scale(1,-1)" x="0" y="0">Gene_00337</text>
			</g>
			<g transform=" matrix(0.707107,0.707107,-0.707107,0.707107,292.549208,538.835771)">
				<text style="font-family: Helvetica; font-size: 10px;fill: rgb(0%,0%,0%); stroke:none;" transform="translate(0,0) scale(1,-1)" x="0" y="0">Gene_00338</text>
			</g>
			<g transform=" matrix(0.707107,0.707107,-0.707107,0.707107,336.666128,538.835771)">
				<text style="font-family: Helvetica; font-size: 10px;fill: rgb(0%,0%,0%); stroke:none;" transform="translate(0,0) scale(1,-1)" x="0" y="0">Gene_00339</text>
			</g>
			<g transform=" matrix(0.707107,0.707107,-0.707107,0.707107,379.862708,538.835771)">
				<text style="font-family: Helvetica; font-size: 10px;fill: rgb(0%,0%,0%); stroke:none;" transform="translate(0,0) scale(1,-1)" x="0" y="0">Gene_00340</text>
			</g>
			<g transform=" matrix(0.707107,-0.707107,0.707107,0.707107,418.220083,456.833521)">
				<text style="font-family: Helvetica; font-size: 10px;fill: rgb(0%,0%,0%); stroke:none;" transform="translate(0,0) scale(1,-1)" x="0" y="0">Gene_00341</text>
			</g>
			<g transform=" matrix(0.707107,-0.707107,0.707107,0.707107,460.466635,456.833521)">
				<text style="font-family: Helvetica; font-size: 10px;fill: rgb(0%,0%,0%); stroke:none;" transform="translate(0,0) scale(1,-1)" x="0" y="0">Gene_00342</text>
			</g>
			<g transform=" matrix(0.707107,0.707107,-0.707107,0.707107,548.670786,538.835771)">
				<text style="font-family: Helvetica; font-size: 10px;fill: rgb(0%,0%,0%); stroke:none;" transform="translate(0,0) scale(1,-1)" x="0" y="0">Gene_00343</text>
			</g>
			<g transform=" matrix(0.707107,0.707107,-0.707107,0.707107,619.536927,538.835771)">
				<text style="font-family: Helvetica; font-size: 10px;fill: rgb(0%,0%,0%); stroke:none;" transform="translate(0,0) scale(1,-1)" x="0" y="0">Gene_00344</text>
			</g>
			<g transform=" matrix(0.707107,0.707107,-0.707107,0.707107,673.658828,538.835771)">
				<text style="font-family: Helvetica; font-size: 10px;fill: rgb(0%,0%,0%); stroke:none;" transform="translate(0,0) scale(1,-1)" x="0" y="0">Gene_00345</text>
			</g>
			<g transform=" matrix(0.707107,0.707107,-0.707107,0.707107,737.459137,538.835771)">
				<text style="font-family: Helvetica; font-size: 16px;fill: rgb(0%,0%,100%); stroke:none;" transform="translate(0,0) scale(1,-1)" x="0" y="0">Gene_00346 (99.3)</text>
			</g>
			<g transform=" matrix(0.707107,0.707107,-0.707107,0.707107,809.186242,538.835771)">
				<text style="font-family: Helvetica; font-size: 10px;fill: rgb(0%,0%,0%); stroke:none;" transform="translate(0,0) scale(1,-1)" x="0" y="0">Gene_00347</text>
			</g>
			<g transform=" matrix(0.707107,0.707107,-0.707107,0.707107,869.423947,538.835771)">
				<text style="font-family: Helvetica; font-size: 10px;fill: rgb(0%,0%,0%); stroke:none;" transform="translate(0,0) scale(1,-1)" x="0" y="0">Gene_00348</text>
			</g>
			<g transform=" matrix(0.707107,-0.707107,0.707107,0.707107,892.343369,456.833521)">
				<text style="font-family: Helvetica; font-size: 10px;fill: rgb(0%,0%,0%); stroke:none;" transform="translate(0,0) scale(1,-1)" x="0" y="0">Gene_00349</text>
			</g>
			<g transform=" matrix(0.707107,-0.707107,0.707107,0.707107,923.13021,456.833521)">
				<text style="font-family: Helvetica; font-size: 10px;fill: rgb(0%,0%,0%); stroke:none;" transform="translate(0,0) scale(1,-1)" x="0" y="0">Gene_00350</text>
			</g>
			<g transform=" matrix(0.707107,0.707107,-0.707107,0.707107,983.041343,538.835771)">
				<text style="font-family: Helvetica; font-size: 10px;fill: rgb(0%,0%,0%); stroke:none;" transform="translate(0,0) scale(1,-1)" x="0" y="0">Gene_00351</text>
			</g>
			<g transform=" matrix(0.707107,0.707107,-0.707107,0.707107,1046.663522,538.835771)">
				<text style="font-family: Helvetica; font-size: 10px;fill: rgb(0%,0%,0%); stroke:none;" transform="translate(0,0) scale(1,-1)" x="0" y="0">Gene_00352</text>
			</g>
			<g transform=" matrix(0.707107,0.707107,-0.707107,0.707107,1124.357989,538.835771)">
				<text style="font-family: Helvetica; font-size: 10px;fill: rgb(0%,0%,0%); stroke:none;" transform="translate(0,0) scale(1,-1)" x="0" y="0">Gene_00353</text>
			</g>
			<g transform=" matrix(0.707107,0.707107,-0.707107,0.707107,1228.59386,538.835771)">
				<text style="font-family: Helvetica; font-size: 10px;fill: rgb(0%,0%,0%); stroke:none;" transform="translate(0,0) scale(1,-1)" x="0" y="0">Gene_00354</text>
			</g>
			<g transform=" matrix(0.707107,0.707107,-0.707107,0.707107,1317.748038,538.835771)">
				<text style="font-family: Helvetica; font-size: 10px;fill: rgb(0%,0%,0%); stroke:none;" transform="translate(0,0) scale(1,-1)" x="0" y="0">Gene_00355</text>
			</g>
			<g transform=" matrix(1,0,-0,1,70,456.833521)">
				<text style="font-family: Helvetica; font-size: 12px;fill: rgb(60%,60%,60%); stroke:none;" transform="translate(0,0) scale(1,-1)" x="0" y="0">megahit_9962 (left 17882bp, right 18559bp)</text>
			</g>
		</g>
	</g>
</svg>
