<?xml version="1.0" encoding="utf-8"?>
<!DOCTYPE svg
  PUBLIC '-//W3C//DTD SVG 1.0//EN'
  'http://www.w3.org/TR/2001/REC-SVG-20010904/DTD/svg10.dtd'>
<svg fill-rule="evenodd" height="708.6614173228346" preserveAspectRatio="xMinYMin meet" version="1.0" viewBox="0 0 1417 708" width="1417.3228346456692" xmlns="http://www.w3.org/2000/svg" xmlns:xlink="http://www.w3.org/1999/xlink">
	<title>...</title>
	<desc>...</desc>
	<clipPath id="clip">
		<rect height="708.6614173228346" width="1417.3228346456692" x="0" y="0"/>
	</clipPath>
	<g id="group" style="clip-path: url(#clip)" transform="scale(1,-1) translate(0,-708)">
		<g transform="">
			<polygon points="70.86614 169.8256, 1280.901 169.8256, 1280.901 251.8279, 70.86614 251.8279" style="stroke: rgb(96%,96%,96%); stroke-linecap: butt; stroke-width: 1; fill: rgb(96%,96%,96%); fill-rule: evenodd;"/>
			<polygon points="70.86614 456.8335, 1346.401 456.8335, 1346.401 538.8358, 70.86614 538.8358" style="stroke: rgb(96%,96%,96%); stroke-linecap: butt; stroke-width: 1; fill: rgb(96%,96%,96%); fill-rule: evenodd;"/>
			<polygon points="71.08988 456.8335, 442.7759 456.8335, 792.3677 251.8279, 1161.257 251.8279" style="stroke: rgb(100%,37%,37%); stroke-linecap: round; stroke-width: 1; fill: rgb(100%,37%,37%); fill-rule: evenodd;"/>
			<polygon points="817.6502 456.8335, 1012.974 456.8335, 421.6885 251.8279, 617.0684 251.8279" style="stroke: rgb(100%,27%,27%); stroke-linecap: round; stroke-width: 1; fill: rgb(100%,27%,27%); fill-rule: evenodd;"/>
			<polygon points="655.4396 456.8335, 741.1874 456.8335, 620.9279 251.8279, 706.6757 251.8279" style="stroke: rgb(100%,31%,31%); stroke-linecap: round; stroke-width: 1; fill: rgb(100%,31%,31%); fill-rule: evenodd;"/>
			<polygon points="453.4035 456.8335, 479.5809 456.8335, 756.5695 251.8279, 782.7469 251.8279" style="stroke: rgb(100%,27%,27%); stroke-linecap: round; stroke-width: 1; fill: rgb(100%,27%,27%); fill-rule: evenodd;"/>
			<polygon points="505.9261 456.8335, 527.1254 456.8335, 717.4152 251.8279, 738.6144 251.8279" style="stroke: rgb(100%,39%,39%); stroke-linecap: round; stroke-width: 1; fill: rgb(100%,39%,39%); fill-rule: evenodd;"/>
			<polygon points="98.38601 241.5776, 122.2026 241.5776, 122.2026 251.8279, 138.603 231.3273, 122.2026 210.8268, 122.2026 221.0771, 98.38601 221.0771" style="stroke: rgb(67%,84%,90%); stroke-linecap: round; stroke-width: 1; fill: rgb(67%,84%,90%); fill-rule: evenodd;"/>
			<polygon points="146.5458 241.5776, 190.8345 241.5776, 190.8345 251.8279, 207.2349 231.3273, 190.8345 210.8268, 190.8345 221.0771, 146.5458 221.0771" style="stroke: rgb(67%,84%,90%); stroke-linecap: round; stroke-width: 1; fill: rgb(67%,84%,90%); fill-rule: evenodd;"/>
			<polygon points="212.7165 241.5776, 278.6519 241.5776, 278.6519 251.8279, 295.0524 231.3273, 278.6519 210.8268, 278.6519 221.0771, 212.7165 221.0771" style="stroke: rgb(67%,84%,90%); stroke-linecap: round; stroke-width: 1; fill: rgb(67%,84%,90%); fill-rule: evenodd;"/>
			<polygon points="295.7795 241.5776, 345.9413 241.5776, 345.9413 251.8279, 362.3418 231.3273, 345.9413 210.8268, 345.9413 221.0771, 295.7795 221.0771" style="stroke: rgb(67%,84%,90%); stroke-linecap: round; stroke-width: 1; fill: rgb(67%,84%,90%); fill-rule: evenodd;"/>
			<polygon points="409.1591 200.5765, 386.685 200.5765, 386.685 210.8268, 370.2845 190.3262, 386.685 169.8256, 386.685 180.0759, 409.1591 180.0759" style="stroke: rgb(56%,93%,56%); stroke-linecap: round; stroke-width: 1; fill: rgb(56%,93%,56%); fill-rule: evenodd;"/>
			<polygon points="426.9464 241.5776, 556.9829 241.5776, 556.9829 251.8279, 573.3834 231.3273, 556.9829 210.8268, 556.9829 221.0771, 426.9464 221.0771" style="stroke: rgb(67%,84%,90%); stroke-linecap: round; stroke-width: 1; fill: rgb(67%,84%,90%); fill-rule: evenodd;"/>
			<polygon points="574.6699 241.5776, 600.6679 241.5776, 600.6679 251.8279, 617.0684 231.3273, 600.6679 210.8268, 600.6679 221.0771, 574.6699 221.0771" style="stroke: rgb(67%,84%,90%); stroke-linecap: round; stroke-width: 1; fill: rgb(67%,84%,90%); fill-rule: evenodd;"/>
			<polygon points="630.213 241.5776, 689.9397 241.5776, 689.9397 251.8279, 706.3401 231.3273, 689.9397 210.8268, 689.9397 221.0771, 630.213 221.0771" style="stroke: rgb(67%,84%,90%); stroke-linecap: round; stroke-width: 1; fill: rgb(67%,84%,90%); fill-rule: evenodd;"/>
			<polygon points="760.9324 200.5765, 733.7597 200.5765, 733.7597 210.8268, 717.3593 190.3262, 733.7597 169.8256, 733.7597 180.0759, 760.9324 180.0759" style="stroke: rgb(56%,93%,56%); stroke-linecap: round; stroke-width: 1; fill: rgb(56%,93%,56%); fill-rule: evenodd;"/>
			<polygon points="767.9242 241.5776, 767.9242 251.8279, 783.4741 231.3273, 767.9242 210.8268, 767.9242 221.0771" style="stroke: rgb(67%,84%,90%); stroke-linecap: round; stroke-width: 1; fill: rgb(67%,84%,90%); fill-rule: evenodd;"/>
			<polygon points="903.5658 200.5765, 817.6617 200.5765, 817.6617 210.8268, 801.2613 190.3262, 817.6617 169.8256, 817.6617 180.0759, 903.5658 180.0759" style="stroke: rgb(56%,93%,56%); stroke-linecap: round; stroke-width: 1; fill: rgb(56%,93%,56%); fill-rule: evenodd;"/>
			<polygon points="914.2494 241.5776, 932.864 241.5776, 932.864 251.8279, 949.2645 231.3273, 932.864 210.8268, 932.864 221.0771, 914.2494 221.0771" style="stroke: rgb(67%,84%,90%); stroke-linecap: round; stroke-width: 1; fill: rgb(67%,84%,90%); fill-rule: evenodd;"/>
			<polygon points="955.4173 241.5776, 967.6554 241.5776, 967.6554 251.8279, 984.0559 231.3273, 967.6554 210.8268, 967.6554 221.0771, 955.4173 221.0771" style="stroke: rgb(67%,84%,90%); stroke-linecap: round; stroke-width: 1; fill: rgb(67%,84%,90%); fill-rule: evenodd;"/>
			<polygon points="986.0136 241.5776, 1019.563 241.5776, 1019.563 251.8279, 1035.963 231.3273, 1019.563 210.8268, 1019.563 221.0771, 986.0136 221.0771" style="stroke: rgb(67%,84%,90%); stroke-linecap: round; stroke-width: 1; fill: rgb(67%,84%,90%); fill-rule: evenodd;"/>
			<polygon points="1037.026 241.5776, 1063.024 241.5776, 1063.024 251.8279, 1079.424 231.3273, 1063.024 210.8268, 1063.024 221.0771, 1037.026 221.0771" style="stroke: rgb(67%,84%,90%); stroke-linecap: round; stroke-width: 1; fill: rgb(67%,84%,90%); fill-rule: evenodd;"/>
			<polygon points="1088.71 241.5776, 1096.417 241.5776, 1096.417 251.8279, 1112.818 231.3273, 1096.417 210.8268, 1096.417 221.0771, 1088.71 221.0771" style="stroke: rgb(67%,84%,90%); stroke-linecap: round; stroke-width: 1; fill: rgb(67%,84%,90%); fill-rule: evenodd;"/>
			<polygon points="1118.579 241.5776, 1145.751 241.5776, 1145.751 251.8279, 1162.152 231.3273, 1145.751 210.8268, 1145.751 221.0771, 1118.579 221.0771" style="stroke: rgb(67%,84%,90%); stroke-linecap: round; stroke-width: 1; fill: rgb(67%,84%,90%); fill-rule: evenodd;"/>
			<polygon points="1161.984 241.5776, 1175.9 241.5776, 1175.9 251.8279, 1192.301 231.3273, 1175.9 210.8268, 1175.9 221.0771, 1161.984 221.0771" style="stroke: rgb(67%,84%,90%); stroke-linecap: round; stroke-width: 1; fill: rgb(67%,84%,90%); fill-rule: evenodd;"/>
			<polygon points="1203.264 241.5776, 1264.501 241.5776, 1264.501 251.8279, 1280.901 231.3273, 1264.501 210.8268, 1264.501 221.0771, 1203.264 221.0771" style="stroke: rgb(67%,84%,90%); stroke-linecap: round; stroke-width: 1; fill: rgb(67%,84%,90%); fill-rule: evenodd;"/>
			<polygon points="113.768 487.5844, 87.26659 487.5844, 87.26659 497.8346, 70.86614 477.3341, 87.26659 456.8335, 87.26659 467.0838, 113.768 467.0838" style="stroke: rgb(56%,93%,56%); stroke-linecap: round; stroke-width: 1; fill: rgb(56%,93%,56%); fill-rule: evenodd;"/>
			<polygon points="143.1338 487.5844, 134.5873 487.5844, 134.5873 497.8346, 118.1869 477.3341, 134.5873 456.8335, 134.5873 467.0838, 143.1338 467.0838" style="stroke: rgb(56%,93%,56%); stroke-linecap: round; stroke-width: 1; fill: rgb(56%,93%,56%); fill-rule: evenodd;"/>
			<polygon points="196.6633 487.5844, 169.994 487.5844, 169.994 497.8346, 153.5935 477.3341, 169.994 456.8335, 169.994 467.0838, 196.6633 467.0838" style="stroke: rgb(56%,93%,56%); stroke-linecap: round; stroke-width: 1; fill: rgb(56%,93%,56%); fill-rule: evenodd;"/>
			<polygon points="247.5638 487.5844, 214.0146 487.5844, 214.0146 497.8346, 197.6141 477.3341, 214.0146 456.8335, 214.0146 467.0838, 247.5638 467.0838" style="stroke: rgb(56%,93%,56%); stroke-linecap: round; stroke-width: 1; fill: rgb(56%,93%,56%); fill-rule: evenodd;"/>
			<polygon points="277.9923 487.5844, 265.7542 487.5844, 265.7542 497.8346, 249.3537 477.3341, 265.7542 456.8335, 265.7542 467.0838, 277.9923 467.0838" style="stroke: rgb(56%,93%,56%); stroke-linecap: round; stroke-width: 1; fill: rgb(56%,93%,56%); fill-rule: evenodd;"/>
			<polygon points="320.7264 487.5844, 302.1117 487.5844, 302.1117 497.8346, 285.7113 477.3341, 302.1117 456.8335, 302.1117 467.0838, 320.7264 467.0838" style="stroke: rgb(56%,93%,56%); stroke-linecap: round; stroke-width: 1; fill: rgb(56%,93%,56%); fill-rule: evenodd;"/>
			<polygon points="331.5777 528.5855, 417.4818 528.5855, 417.4818 538.8358, 433.8823 518.3352, 417.4818 497.8346, 417.4818 508.0849, 331.5777 508.0849" style="stroke: rgb(67%,84%,90%); stroke-linecap: round; stroke-width: 1; fill: rgb(67%,84%,90%); fill-rule: evenodd;"/>
			<polygon points="468.2262 487.5844, 468.2262 497.8346, 452.0051 477.3341, 468.2262 456.8335, 468.2262 467.0838" style="stroke: rgb(56%,93%,56%); stroke-linecap: round; stroke-width: 1; fill: rgb(56%,93%,56%); fill-rule: evenodd;"/>
			<polygon points="475.218 528.5855, 510.7809 528.5855, 510.7809 538.8358, 527.1813 518.3352, 510.7809 497.8346, 510.7809 508.0849, 475.218 508.0849" style="stroke: rgb(67%,84%,90%); stroke-linecap: round; stroke-width: 1; fill: rgb(67%,84%,90%); fill-rule: evenodd;"/>
			<polygon points="636.0862 487.5844, 548.504 487.5844, 548.504 497.8346, 532.1036 477.3341, 548.504 456.8335, 548.504 467.0838, 636.0862 467.0838" style="stroke: rgb(56%,93%,56%); stroke-linecap: round; stroke-width: 1; fill: rgb(56%,93%,56%); fill-rule: evenodd;"/>
			<polygon points="731.9023 487.5844, 672.1756 487.5844, 672.1756 497.8346, 655.7752 477.3341, 672.1756 456.8335, 672.1756 467.0838, 731.9023 467.0838" style="stroke: rgb(56%,93%,56%); stroke-linecap: round; stroke-width: 1; fill: rgb(56%,93%,56%); fill-rule: evenodd;"/>
			<polygon points="800.9816 487.5844, 761.5593 487.5844, 761.5593 497.8346, 745.1588 477.3341, 761.5593 456.8335, 761.5593 467.0838, 800.9816 467.0838" style="stroke: rgb(56%,93%,56%); stroke-linecap: round; stroke-width: 1; fill: rgb(56%,93%,56%); fill-rule: evenodd;"/>
			<polygon points="860.0486 487.5844, 834.0506 487.5844, 834.0506 497.8346, 817.6502 477.3341, 834.0506 456.8335, 834.0506 467.0838, 860.0486 467.0838" style="stroke: rgb(56%,93%,56%); stroke-linecap: round; stroke-width: 1; fill: rgb(56%,93%,56%); fill-rule: evenodd;"/>
			<polygon points="1007.772 487.5844, 877.7356 487.5844, 877.7356 497.8346, 861.3351 477.3341, 877.7356 456.8335, 877.7356 467.0838, 1007.772 467.0838" style="stroke: rgb(56%,93%,56%); stroke-linecap: round; stroke-width: 1; fill: rgb(56%,93%,56%); fill-rule: evenodd;"/>
			<polygon points="1149.734 487.5844, 1039.499 487.5844, 1039.499 497.8346, 1023.098 477.3341, 1039.499 456.8335, 1039.499 467.0838, 1149.734 467.0838" style="stroke: rgb(56%,93%,56%); stroke-linecap: round; stroke-width: 1; fill: rgb(56%,93%,56%); fill-rule: evenodd;"/>
			<polygon points="1163.271 528.5855, 1163.271 538.8358, 1178.149 518.3352, 1163.271 497.8346, 1163.271 508.0849" style="stroke: rgb(67%,84%,90%); stroke-linecap: round; stroke-width: 1; fill: rgb(67%,84%,90%); fill-rule: evenodd;"/>
			<polygon points="1225.246 487.5844, 1194.382 487.5844, 1194.382 497.8346, 1177.981 477.3341, 1194.382 456.8335, 1194.382 467.0838, 1225.246 467.0838" style="stroke: rgb(56%,93%,56%); stroke-linecap: round; stroke-width: 1; fill: rgb(56%,93%,56%); fill-rule: evenodd;"/>
			<polygon points="1290.13 487.5844, 1246.681 487.5844, 1246.681 497.8346, 1230.28 477.3341, 1246.681 456.8335, 1246.681 467.0838, 1290.13 467.0838" style="stroke: rgb(56%,93%,56%); stroke-linecap: round; stroke-width: 1; fill: rgb(56%,93%,56%); fill-rule: evenodd;"/>
			<polygon points="1346.401 487.5844, 1306.643 487.5844, 1306.643 497.8346, 1290.242 477.3341, 1306.643 456.8335, 1306.643 467.0838, 1346.401 467.0838" style="stroke: rgb(56%,93%,56%); stroke-linecap: round; stroke-width: 1; fill: rgb(56%,93%,56%); fill-rule: evenodd;"/>
			<path d="M 1280.901239,169.825647 L 1280.901239,251.827897 Z" style="stroke: rgb(0%,0%,0%); stroke-linecap: butt; stroke-width: 1;"/>
			<path d="M 70.866142,210.826772 L 1280.901239,210.826772 Z" style="stroke: rgb(0%,0%,0%); stroke-linecap: butt; stroke-width: 1;"/>
			<path d="M 70.866142,169.825647 L 70.866142,251.827897 Z" style="stroke: rgb(0%,0%,0%); stroke-linecap: butt; stroke-width: 1;"/>
			<path d="M 630.213018,210.826772 L 630.213018,231.327334 Z" style="stroke: rgb(0%,0%,0%); stroke-linecap: butt; stroke-width: 1;"/>
			<path d="M 1189.559894,210.826772 L 1189.559894,231.327334 Z" style="stroke: rgb(0%,0%,0%); stroke-linecap: butt; stroke-width: 1;"/>
			<path d="M 630.213018,210.826772 L 630.213018,223.127109 Z" style="stroke: rgb(0%,0%,0%); stroke-linecap: butt; stroke-width: 1;"/>
			<path d="M 1189.559894,210.826772 L 1189.559894,223.127109 Z" style="stroke: rgb(0%,0%,0%); stroke-linecap: butt; stroke-width: 1;"/>
			<path d="M 1346.400758,456.833521 L 1346.400758,538.835771 Z" style="stroke: rgb(0%,0%,0%); stroke-linecap: butt; stroke-width: 1;"/>
			<path d="M 70.866142,497.834646 L 1346.400758,497.834646 Z" style="stroke: rgb(0%,0%,0%); stroke-linecap: butt; stroke-width: 1;"/>
			<path d="M 70.866142,456.833521 L 70.866142,538.835771 Z" style="stroke: rgb(0%,0%,0%); stroke-linecap: butt; stroke-width: 1;"/>
			<path d="M 630.213018,497.834646 L 630.213018,518.335208 Z" style="stroke: rgb(0%,0%,0%); stroke-linecap: butt; stroke-width: 1;"/>
			<path d="M 1189.559894,497.834646 L 1189.559894,518.335208 Z" style="stroke: rgb(0%,0%,0%); stroke-linecap: butt; stroke-width: 1;"/>
			<path d="M 630.213018,497.834646 L 630.213018,510.134983 Z" style="stroke: rgb(0%,0%,0%); stroke-linecap: butt; stroke-width: 1;"/>
			<path d="M 1189.559894,497.834646 L 1189.559894,510.134983 Z" style="stroke: rgb(0%,0%,0%); stroke-linecap: butt; stroke-width: 1;"/>
			<g transform=" matrix(0.707107,0.707107,-0.707107,0.707107,630.213018,231.327334)">
				<text style="font-family: Helvetica; font-size: 6px;fill: rgb(0%,0%,0%); stroke:none;" transform="translate(0,0) scale(1,-1)" x="0" y="0">10000</text>
			</g>
			<g transform=" matrix(0.707107,0.707107,-0.707107,0.707107,1189.559894,231.327334)">
				<text style="font-family: Helvetica; font-size: 6px;fill: rgb(0%,0%,0%); stroke:none;" transform="translate(0,0) scale(1,-1)" x="0" y="0">20000</text>
			</g>
			<g transform=" matrix(0.707107,0.707107,-0.707107,0.707107,630.213018,518.335208)">
				<text style="font-family: Helvetica; font-size: 6px;fill: rgb(0%,0%,0%); stroke:none;" transform="translate(0,0) scale(1,-1)" x="0" y="0">10000</text>
			</g>
			<g transform=" matrix(0.707107,0.707107,-0.707107,0.707107,1189.559894,518.335208)">
				<text style="font-family: Helvetica; font-size: 6px;fill: rgb(0%,0%,0%); stroke:none;" transform="translate(0,0) scale(1,-1)" x="0" y="0">20000</text>
			</g>
			<g transform=" matrix(0.707107,0.707107,-0.707107,0.707107,118.494528,251.827897)">
				<text style="font-family: Helvetica; font-size: 10px;fill: rgb(0%,0%,0%); stroke:none;" transform="translate(0,0) scale(1,-1)" x="0" y="0">Gene_00598</text>
			</g>
			<g transform=" matrix(0.707107,0.707107,-0.707107,0.707107,176.890342,251.827897)">
				<text style="font-family: Helvetica; font-size: 10px;fill: rgb(0%,0%,0%); stroke:none;" transform="translate(0,0) scale(1,-1)" x="0" y="0">Gene_00599</text>
			</g>
			<g transform=" matrix(0.707107,0.707107,-0.707107,0.707107,253.88444,251.827897)">
				<text style="font-family: Helvetica; font-size: 10px;fill: rgb(0%,0%,0%); stroke:none;" transform="translate(0,0) scale(1,-1)" x="0" y="0">Gene_00600</text>
			</g>
			<g transform=" matrix(0.707107,0.707107,-0.707107,0.707107,329.06066,251.827897)">
				<text style="font-family: Helvetica; font-size: 10px;fill: rgb(0%,0%,0%); stroke:none;" transform="translate(0,0) scale(1,-1)" x="0" y="0">Gene_00601</text>
			</g>
			<g transform=" matrix(0.707107,-0.707107,0.707107,0.707107,389.721829,169.825647)">
				<text style="font-family: Helvetica; font-size: 10px;fill: rgb(0%,0%,0%); stroke:none;" transform="translate(0,0) scale(1,-1)" x="0" y="0">Gene_00602</text>
			</g>
			<g transform=" matrix(0.707107,0.707107,-0.707107,0.707107,500.164869,251.827897)">
				<text style="font-family: Helvetica; font-size: 10px;fill: rgb(0%,0%,0%); stroke:none;" transform="translate(0,0) scale(1,-1)" x="0" y="0">Gene_00603</text>
			</g>
			<g transform=" matrix(0.707107,0.707107,-0.707107,0.707107,595.86912,251.827897)">
				<text style="font-family: Helvetica; font-size: 10px;fill: rgb(0%,0%,0%); stroke:none;" transform="translate(0,0) scale(1,-1)" x="0" y="0">Gene_00604</text>
			</g>
			<g transform=" matrix(0.707107,0.707107,-0.707107,0.707107,668.276573,251.827897)">
				<text style="font-family: Helvetica; font-size: 16px;fill: rgb(0%,0%,100%); stroke:none;" transform="translate(0,0) scale(1,-1)" x="0" y="0">Gene_00605 (84.3)</text>
			</g>
			<g transform=" matrix(0.707107,-0.707107,0.707107,0.707107,739.145822,169.825647)">
				<text style="font-family: Helvetica; font-size: 10px;fill: rgb(0%,0%,0%); stroke:none;" transform="translate(0,0) scale(1,-1)" x="0" y="0">Gene_00606</text>
			</g>
			<g transform=" matrix(0.707107,0.707107,-0.707107,0.707107,775.69914,251.827897)">
				<text style="font-family: Helvetica; font-size: 10px;fill: rgb(0%,0%,0%); stroke:none;" transform="translate(0,0) scale(1,-1)" x="0" y="0">Gene_00607</text>
			</g>
			<g transform=" matrix(0.707107,-0.707107,0.707107,0.707107,852.413565,169.825647)">
				<text style="font-family: Helvetica; font-size: 10px;fill: rgb(0%,0%,0%); stroke:none;" transform="translate(0,0) scale(1,-1)" x="0" y="0">Gene_00608</text>
			</g>
			<g transform=" matrix(0.707107,0.707107,-0.707107,0.707107,931.756919,251.827897)">
				<text style="font-family: Helvetica; font-size: 10px;fill: rgb(0%,0%,0%); stroke:none;" transform="translate(0,0) scale(1,-1)" x="0" y="0">Gene_00609</text>
			</g>
			<g transform=" matrix(0.707107,0.707107,-0.707107,0.707107,969.736572,251.827897)">
				<text style="font-family: Helvetica; font-size: 10px;fill: rgb(0%,0%,0%); stroke:none;" transform="translate(0,0) scale(1,-1)" x="0" y="0">Gene_00610</text>
			</g>
			<g transform=" matrix(0.707107,0.707107,-0.707107,0.707107,1010.988404,251.827897)">
				<text style="font-family: Helvetica; font-size: 10px;fill: rgb(0%,0%,0%); stroke:none;" transform="translate(0,0) scale(1,-1)" x="0" y="0">Gene_00611</text>
			</g>
			<g transform=" matrix(0.707107,0.707107,-0.707107,0.707107,1058.225248,251.827897)">
				<text style="font-family: Helvetica; font-size: 10px;fill: rgb(0%,0%,0%); stroke:none;" transform="translate(0,0) scale(1,-1)" x="0" y="0">Gene_00612</text>
			</g>
			<g transform=" matrix(0.707107,0.707107,-0.707107,0.707107,1100.763578,251.827897)">
				<text style="font-family: Helvetica; font-size: 10px;fill: rgb(0%,0%,0%); stroke:none;" transform="translate(0,0) scale(1,-1)" x="0" y="0">Gene_00613</text>
			</g>
			<g transform=" matrix(0.707107,0.707107,-0.707107,0.707107,1140.365336,251.827897)">
				<text style="font-family: Helvetica; font-size: 10px;fill: rgb(0%,0%,0%); stroke:none;" transform="translate(0,0) scale(1,-1)" x="0" y="0">Gene_00614</text>
			</g>
			<g transform=" matrix(0.707107,0.707107,-0.707107,0.707107,1177.142393,251.827897)">
				<text style="font-family: Helvetica; font-size: 10px;fill: rgb(0%,0%,0%); stroke:none;" transform="translate(0,0) scale(1,-1)" x="0" y="0">Gene_00615</text>
			</g>
			<g transform=" matrix(0.707107,0.707107,-0.707107,0.707107,1242.082566,251.827897)">
				<text style="font-family: Helvetica; font-size: 10px;fill: rgb(0%,0%,0%); stroke:none;" transform="translate(0,0) scale(1,-1)" x="0" y="0">Gene_00616</text>
			</g>
			<g transform=" matrix(0.707107,-0.707107,0.707107,0.707107,92.317094,456.833521)">
				<text style="font-family: Helvetica; font-size: 10px;fill: rgb(0%,0%,0%); stroke:none;" transform="translate(0,0) scale(1,-1)" x="0" y="0">Gene_01333</text>
			</g>
			<g transform=" matrix(0.707107,-0.707107,0.707107,0.707107,130.660323,456.833521)">
				<text style="font-family: Helvetica; font-size: 10px;fill: rgb(0%,0%,0%); stroke:none;" transform="translate(0,0) scale(1,-1)" x="0" y="0">Gene_01334</text>
			</g>
			<g transform=" matrix(0.707107,-0.707107,0.707107,0.707107,175.128399,456.833521)">
				<text style="font-family: Helvetica; font-size: 10px;fill: rgb(0%,0%,0%); stroke:none;" transform="translate(0,0) scale(1,-1)" x="0" y="0">Gene_01335</text>
			</g>
			<g transform=" matrix(0.707107,-0.707107,0.707107,0.707107,222.588982,456.833521)">
				<text style="font-family: Helvetica; font-size: 10px;fill: rgb(0%,0%,0%); stroke:none;" transform="translate(0,0) scale(1,-1)" x="0" y="0">Gene_01336</text>
			</g>
			<g transform=" matrix(0.707107,-0.707107,0.707107,0.707107,263.67301,456.833521)">
				<text style="font-family: Helvetica; font-size: 10px;fill: rgb(0%,0%,0%); stroke:none;" transform="translate(0,0) scale(1,-1)" x="0" y="0">Gene_01337</text>
			</g>
			<g transform=" matrix(0.707107,-0.707107,0.707107,0.707107,303.218834,456.833521)">
				<text style="font-family: Helvetica; font-size: 10px;fill: rgb(0%,0%,0%); stroke:none;" transform="translate(0,0) scale(1,-1)" x="0" y="0">Gene_01338</text>
			</g>
			<g transform=" matrix(0.707107,0.707107,-0.707107,0.707107,382.729993,538.835771)">
				<text style="font-family: Helvetica; font-size: 10px;fill: rgb(0%,0%,0%); stroke:none;" transform="translate(0,0) scale(1,-1)" x="0" y="0">Gene_01339</text>
			</g>
			<g transform=" matrix(0.707107,-0.707107,0.707107,0.707107,460.115633,456.833521)">
				<text style="font-family: Helvetica; font-size: 10px;fill: rgb(0%,0%,0%); stroke:none;" transform="translate(0,0) scale(1,-1)" x="0" y="0">Gene_01340</text>
			</g>
			<g transform=" matrix(0.707107,0.707107,-0.707107,0.707107,501.199661,538.835771)">
				<text style="font-family: Helvetica; font-size: 10px;fill: rgb(0%,0%,0%); stroke:none;" transform="translate(0,0) scale(1,-1)" x="0" y="0">Gene_01341</text>
			</g>
			<g transform=" matrix(0.707107,-0.707107,0.707107,0.707107,584.094868,456.833521)">
				<text style="font-family: Helvetica; font-size: 10px;fill: rgb(0%,0%,0%); stroke:none;" transform="translate(0,0) scale(1,-1)" x="0" y="0">Gene_01342</text>
			</g>
			<g transform=" matrix(0.707107,-0.707107,0.707107,0.707107,693.838725,456.833521)">
				<text style="font-family: Helvetica; font-size: 16px;fill: rgb(0%,0%,100%); stroke:none;" transform="translate(0,0) scale(1,-1)" x="0" y="0">Gene_01343 (84.3)</text>
			</g>
			<g transform=" matrix(0.707107,-0.707107,0.707107,0.707107,773.07021,456.833521)">
				<text style="font-family: Helvetica; font-size: 10px;fill: rgb(0%,0%,0%); stroke:none;" transform="translate(0,0) scale(1,-1)" x="0" y="0">Gene_01344</text>
			</g>
			<g transform=" matrix(0.707107,-0.707107,0.707107,0.707107,838.849403,456.833521)">
				<text style="font-family: Helvetica; font-size: 10px;fill: rgb(0%,0%,0%); stroke:none;" transform="translate(0,0) scale(1,-1)" x="0" y="0">Gene_01345</text>
			</g>
			<g transform=" matrix(0.707107,-0.707107,0.707107,0.707107,934.553653,456.833521)">
				<text style="font-family: Helvetica; font-size: 10px;fill: rgb(0%,0%,0%); stroke:none;" transform="translate(0,0) scale(1,-1)" x="0" y="0">Gene_01346</text>
			</g>
			<g transform=" matrix(0.707107,-0.707107,0.707107,0.707107,1086.41633,456.833521)">
				<text style="font-family: Helvetica; font-size: 10px;fill: rgb(0%,0%,0%); stroke:none;" transform="translate(0,0) scale(1,-1)" x="0" y="0">Gene_01347</text>
			</g>
			<g transform=" matrix(0.707107,0.707107,-0.707107,0.707107,1170.709904,538.835771)">
				<text style="font-family: Helvetica; font-size: 10px;fill: rgb(0%,0%,0%); stroke:none;" transform="translate(0,0) scale(1,-1)" x="0" y="0">Gene_01348</text>
			</g>
			<g transform=" matrix(0.707107,-0.707107,0.707107,0.707107,1201.613819,456.833521)">
				<text style="font-family: Helvetica; font-size: 10px;fill: rgb(0%,0%,0%); stroke:none;" transform="translate(0,0) scale(1,-1)" x="0" y="0">Gene_01349</text>
			</g>
			<g transform=" matrix(0.707107,-0.707107,0.707107,0.707107,1260.205405,456.833521)">
				<text style="font-family: Helvetica; font-size: 10px;fill: rgb(0%,0%,0%); stroke:none;" transform="translate(0,0) scale(1,-1)" x="0" y="0">Gene_01350</text>
			</g>
			<g transform=" matrix(0.707107,-0.707107,0.707107,0.707107,1318.321545,456.833521)">
				<text style="font-family: Helvetica; font-size: 10px;fill: rgb(0%,0%,0%); stroke:none;" transform="translate(0,0) scale(1,-1)" x="0" y="0">Gene_01351</text>
			</g>
			<g transform=" matrix(1,0,-0,1,70,169.825647)">
				<text style="font-family: Helvetica; font-size: 12px;fill: rgb(60%,60%,60%); stroke:none;" transform="translate(0,0) scale(1,-1)" x="0" y="0">megahit_17858 (left 22712bp, right 29062bp)</text>
			</g>
			<g transform=" matrix(1,0,-0,1,70,456.833521)">
				<text style="font-family: Helvetica; font-size: 12px;fill: rgb(60%,60%,60%); stroke:none;" transform="translate(0,0) scale(1,-1)" x="0" y="0">megahit_61166 (left 27449bp, right 14367bp)</text>
			</g>
		</g>
	</g>
</svg>
