<?xml version="1.0" encoding="utf-8"?>
<!DOCTYPE svg
  PUBLIC '-//W3C//DTD SVG 1.0//EN'
  'http://www.w3.org/TR/2001/REC-SVG-20010904/DTD/svg10.dtd'>
<svg fill-rule="evenodd" height="708.6614173228346" preserveAspectRatio="xMinYMin meet" version="1.0" viewBox="0 0 1417 708" width="1417.3228346456692" xmlns="http://www.w3.org/2000/svg" xmlns:xlink="http://www.w3.org/1999/xlink">
	<title>...</title>
	<desc>...</desc>
	<clipPath id="clip">
		<rect height="708.6614173228346" width="1417.3228346456692" x="0" y="0"/>
	</clipPath>
	<g id="group" style="clip-path: url(#clip)" transform="scale(1,-1) translate(0,-708)">
		<g transform="">
			<polygon points="70.86614 169.8256, 1254.658 169.8256, 1254.658 251.8279, 70.86614 251.8279" style="stroke: rgb(96%,96%,96%); stroke-linecap: butt; stroke-width: 1; fill: rgb(96%,96%,96%); fill-rule: evenodd;"/>
			<polygon points="70.86614 456.8335, 1346.399 456.8335, 1346.399 538.8358, 70.86614 538.8358" style="stroke: rgb(96%,96%,96%); stroke-linecap: butt; stroke-width: 1; fill: rgb(96%,96%,96%); fill-rule: evenodd;"/>
			<polygon points="674.6341 456.8335, 1260.377 456.8335, 1254.658 251.8279, 671.1101 251.8279" style="stroke: rgb(100%,36%,36%); stroke-linecap: round; stroke-width: 1; fill: rgb(100%,36%,36%); fill-rule: evenodd;"/>
			<polygon points="189.1818 456.8335, 662.04 456.8335, 655.974 251.8279, 182.9425 251.8279" style="stroke: rgb(100%,42%,42%); stroke-linecap: round; stroke-width: 1; fill: rgb(100%,42%,42%); fill-rule: evenodd;"/>
			<polygon points="70.98168 456.8335, 181.9604 456.8335, 182.1337 251.8279, 71.155 251.8279" style="stroke: rgb(100%,39%,39%); stroke-linecap: round; stroke-width: 1; fill: rgb(100%,39%,39%); fill-rule: evenodd;"/>
			<polygon points="104.9512 200.5765, 87.26659 200.5765, 87.26659 210.8268, 70.86614 190.3262, 87.26659 169.8256, 87.26659 180.0759, 104.9512 180.0759" style="stroke: rgb(56%,93%,56%); stroke-linecap: round; stroke-width: 1; fill: rgb(56%,93%,56%); fill-rule: evenodd;"/>
			<polygon points="181.1516 200.5765, 122.3915 200.5765, 122.3915 210.8268, 105.9911 190.3262, 122.3915 169.8256, 122.3915 180.0759, 181.1516 180.0759" style="stroke: rgb(56%,93%,56%); stroke-linecap: round; stroke-width: 1; fill: rgb(56%,93%,56%); fill-rule: evenodd;"/>
			<polygon points="218.2985 200.5765, 197.6676 200.5765, 197.6676 210.8268, 181.2671 190.3262, 197.6676 169.8256, 197.6676 180.0759, 218.2985 180.0759" style="stroke: rgb(56%,93%,56%); stroke-linecap: round; stroke-width: 1; fill: rgb(56%,93%,56%); fill-rule: evenodd;"/>
			<polygon points="283.0024 200.5765, 234.8145 200.5765, 234.8145 210.8268, 218.4141 190.3262, 234.8145 169.8256, 234.8145 180.0759, 283.0024 180.0759" style="stroke: rgb(56%,93%,56%); stroke-linecap: round; stroke-width: 1; fill: rgb(56%,93%,56%); fill-rule: evenodd;"/>
			<polygon points="319.3406 200.5765, 304.9489 200.5765, 304.9489 210.8268, 288.5484 190.3262, 304.9489 169.8256, 304.9489 180.0759, 319.3406 180.0759" style="stroke: rgb(56%,93%,56%); stroke-linecap: round; stroke-width: 1; fill: rgb(56%,93%,56%); fill-rule: evenodd;"/>
			<polygon points="349.4394 200.5765, 336.4343 200.5765, 336.4343 210.8268, 320.0338 190.3262, 336.4343 169.8256, 336.4343 180.0759, 349.4394 180.0759" style="stroke: rgb(56%,93%,56%); stroke-linecap: round; stroke-width: 1; fill: rgb(56%,93%,56%); fill-rule: evenodd;"/>
			<polygon points="408.9439 200.5765, 364.2223 200.5765, 364.2223 210.8268, 347.8218 190.3262, 364.2223 169.8256, 364.2223 180.0759, 408.9439 180.0759" style="stroke: rgb(56%,93%,56%); stroke-linecap: round; stroke-width: 1; fill: rgb(56%,93%,56%); fill-rule: evenodd;"/>
			<polygon points="445.5131 200.5765, 425.922 200.5765, 425.922 210.8268, 409.5216 190.3262, 425.922 169.8256, 425.922 180.0759, 445.5131 180.0759" style="stroke: rgb(56%,93%,56%); stroke-linecap: round; stroke-width: 1; fill: rgb(56%,93%,56%); fill-rule: evenodd;"/>
			<polygon points="557.3006 200.5765, 462.8379 200.5765, 462.8379 210.8268, 446.4374 190.3262, 462.8379 169.8256, 462.8379 180.0759, 557.3006 180.0759" style="stroke: rgb(56%,93%,56%); stroke-linecap: round; stroke-width: 1; fill: rgb(56%,93%,56%); fill-rule: evenodd;"/>
			<polygon points="604.4997 200.5765, 574.3365 200.5765, 574.3365 210.8268, 557.9361 190.3262, 574.3365 169.8256, 574.3365 180.0759, 604.4997 180.0759" style="stroke: rgb(56%,93%,56%); stroke-linecap: round; stroke-width: 1; fill: rgb(56%,93%,56%); fill-rule: evenodd;"/>
			<polygon points="657.7071 200.5765, 627.3706 200.5765, 627.3706 210.8268, 610.9701 190.3262, 627.3706 169.8256, 627.3706 180.0759, 657.7071 180.0759" style="stroke: rgb(56%,93%,56%); stroke-linecap: round; stroke-width: 1; fill: rgb(56%,93%,56%); fill-rule: evenodd;"/>
			<polygon points="754.9362 200.5765, 687.5105 200.5765, 687.5105 210.8268, 671.1101 190.3262, 687.5105 169.8256, 687.5105 180.0759, 754.9362 180.0759" style="stroke: rgb(56%,93%,56%); stroke-linecap: round; stroke-width: 1; fill: rgb(56%,93%,56%); fill-rule: evenodd;"/>
			<polygon points="761.4644 241.5776, 797.1737 241.5776, 797.1737 251.8279, 813.5741 231.3273, 797.1737 210.8268, 797.1737 221.0771, 761.4644 221.0771" style="stroke: rgb(67%,84%,90%); stroke-linecap: round; stroke-width: 1; fill: rgb(67%,84%,90%); fill-rule: evenodd;"/>
			<polygon points="848.5835 200.5765, 828.6458 200.5765, 828.6458 210.8268, 812.2454 190.3262, 828.6458 169.8256, 828.6458 180.0759, 848.5835 180.0759" style="stroke: rgb(56%,93%,56%); stroke-linecap: round; stroke-width: 1; fill: rgb(56%,93%,56%); fill-rule: evenodd;"/>
			<polygon points="877.5847 200.5765, 865.0995 200.5765, 865.0995 210.8268, 848.6991 190.3262, 865.0995 169.8256, 865.0995 180.0759, 877.5847 180.0759" style="stroke: rgb(56%,93%,56%); stroke-linecap: round; stroke-width: 1; fill: rgb(56%,93%,56%); fill-rule: evenodd;"/>
			<polygon points="910.11 200.5765, 894.5051 200.5765, 894.5051 210.8268, 878.1047 190.3262, 894.5051 169.8256, 894.5051 180.0759, 910.11 180.0759" style="stroke: rgb(56%,93%,56%); stroke-linecap: round; stroke-width: 1; fill: rgb(56%,93%,56%); fill-rule: evenodd;"/>
			<polygon points="932.7563 200.5765, 926.3371 200.5765, 926.3371 210.8268, 909.9367 190.3262, 926.3371 169.8256, 926.3371 180.0759, 932.7563 180.0759" style="stroke: rgb(56%,93%,56%); stroke-linecap: round; stroke-width: 1; fill: rgb(56%,93%,56%); fill-rule: evenodd;"/>
			<polygon points="945.7549 241.5776, 945.7549 251.8279, 958.869 231.3273, 945.7549 210.8268, 945.7549 221.0771" style="stroke: rgb(67%,84%,90%); stroke-linecap: round; stroke-width: 1; fill: rgb(67%,84%,90%); fill-rule: evenodd;"/>
			<polygon points="991.5675 200.5765, 983.4152 200.5765, 983.4152 210.8268, 967.0147 190.3262, 983.4152 169.8256, 983.4152 180.0759, 991.5675 180.0759" style="stroke: rgb(56%,93%,56%); stroke-linecap: round; stroke-width: 1; fill: rgb(56%,93%,56%); fill-rule: evenodd;"/>
			<polygon points="1115.198 200.5765, 1013.11 200.5765, 1013.11 210.8268, 996.7092 190.3262, 1013.11 169.8256, 1013.11 180.0759, 1115.198 180.0759" style="stroke: rgb(56%,93%,56%); stroke-linecap: round; stroke-width: 1; fill: rgb(56%,93%,56%); fill-rule: evenodd;"/>
			<polygon points="1212.427 200.5765, 1131.83 200.5765, 1131.83 210.8268, 1115.429 190.3262, 1131.83 169.8256, 1131.83 180.0759, 1212.427 180.0759" style="stroke: rgb(56%,93%,56%); stroke-linecap: round; stroke-width: 1; fill: rgb(56%,93%,56%); fill-rule: evenodd;"/>
			<polygon points="1234.323 200.5765, 1229.983 200.5765, 1229.983 210.8268, 1213.583 190.3262, 1229.983 169.8256, 1229.983 180.0759, 1234.323 180.0759" style="stroke: rgb(56%,93%,56%); stroke-linecap: round; stroke-width: 1; fill: rgb(56%,93%,56%); fill-rule: evenodd;"/>
			<polygon points="1243.393 241.5776, 1243.393 251.8279, 1254.254 231.3273, 1243.393 210.8268, 1243.393 221.0771" style="stroke: rgb(67%,84%,90%); stroke-linecap: round; stroke-width: 1; fill: rgb(67%,84%,90%); fill-rule: evenodd;"/>
			<polygon points="104.7779 487.5844, 87.26659 487.5844, 87.26659 497.8346, 70.86614 477.3341, 87.26659 456.8335, 87.26659 467.0838, 104.7779 467.0838" style="stroke: rgb(56%,93%,56%); stroke-linecap: round; stroke-width: 1; fill: rgb(56%,93%,56%); fill-rule: evenodd;"/>
			<polygon points="180.9783 487.5844, 122.2182 487.5844, 122.2182 497.8346, 105.8178 477.3341, 122.2182 456.8335, 122.2182 467.0838, 180.9783 467.0838" style="stroke: rgb(56%,93%,56%); stroke-linecap: round; stroke-width: 1; fill: rgb(56%,93%,56%); fill-rule: evenodd;"/>
			<polygon points="224.5378 487.5844, 203.7336 487.5844, 203.7336 497.8346, 187.3331 477.3341, 203.7336 456.8335, 203.7336 467.0838, 224.5378 467.0838" style="stroke: rgb(56%,93%,56%); stroke-linecap: round; stroke-width: 1; fill: rgb(56%,93%,56%); fill-rule: evenodd;"/>
			<polygon points="289.1262 487.5844, 240.765 487.5844, 240.765 497.8346, 224.3645 477.3341, 240.765 456.8335, 240.765 467.0838, 289.1262 467.0838" style="stroke: rgb(56%,93%,56%); stroke-linecap: round; stroke-width: 1; fill: rgb(56%,93%,56%); fill-rule: evenodd;"/>
			<polygon points="326.8508 487.5844, 311.7659 487.5844, 311.7659 497.8346, 295.3655 477.3341, 311.7659 456.8335, 311.7659 467.0838, 326.8508 467.0838" style="stroke: rgb(56%,93%,56%); stroke-linecap: round; stroke-width: 1; fill: rgb(56%,93%,56%); fill-rule: evenodd;"/>
			<polygon points="357.5852 487.5844, 343.8868 487.5844, 343.8868 497.8346, 327.4863 477.3341, 343.8868 456.8335, 343.8868 467.0838, 357.5852 467.0838" style="stroke: rgb(56%,93%,56%); stroke-linecap: round; stroke-width: 1; fill: rgb(56%,93%,56%); fill-rule: evenodd;"/>
			<polygon points="416.743 487.5844, 371.6748 487.5844, 371.6748 497.8346, 355.2743 477.3341, 371.6748 456.8335, 371.6748 467.0838, 416.743 467.0838" style="stroke: rgb(56%,93%,56%); stroke-linecap: round; stroke-width: 1; fill: rgb(56%,93%,56%); fill-rule: evenodd;"/>
			<polygon points="453.1967 487.5844, 433.6056 487.5844, 433.6056 497.8346, 417.2052 477.3341, 433.6056 456.8335, 433.6056 467.0838, 453.1967 467.0838" style="stroke: rgb(56%,93%,56%); stroke-linecap: round; stroke-width: 1; fill: rgb(56%,93%,56%); fill-rule: evenodd;"/>
			<polygon points="561.229 487.5844, 470.4059 487.5844, 470.4059 497.8346, 454.0055 477.3341, 470.4059 456.8335, 470.4059 467.0838, 561.229 467.0838" style="stroke: rgb(56%,93%,56%); stroke-linecap: round; stroke-width: 1; fill: rgb(56%,93%,56%); fill-rule: evenodd;"/>
			<polygon points="610.3346 487.5844, 580.1714 487.5844, 580.1714 497.8346, 563.771 477.3341, 580.1714 456.8335, 580.1714 467.0838, 610.3346 467.0838" style="stroke: rgb(56%,93%,56%); stroke-linecap: round; stroke-width: 1; fill: rgb(56%,93%,56%); fill-rule: evenodd;"/>
			<polygon points="663.7731 487.5844, 633.2633 487.5844, 633.2633 497.8346, 616.8628 477.3341, 633.2633 456.8335, 633.2633 467.0838, 663.7731 467.0838" style="stroke: rgb(56%,93%,56%); stroke-linecap: round; stroke-width: 1; fill: rgb(56%,93%,56%); fill-rule: evenodd;"/>
			<polygon points="759.3269 487.5844, 691.0346 487.5844, 691.0346 497.8346, 674.6341 477.3341, 691.0346 456.8335, 691.0346 467.0838, 759.3269 467.0838" style="stroke: rgb(56%,93%,56%); stroke-linecap: round; stroke-width: 1; fill: rgb(56%,93%,56%); fill-rule: evenodd;"/>
			<polygon points="762.7931 528.5855, 800.5822 528.5855, 800.5822 538.8358, 816.9826 518.3352, 800.5822 497.8346, 800.5822 508.0849, 762.7931 508.0849" style="stroke: rgb(67%,84%,90%); stroke-linecap: round; stroke-width: 1; fill: rgb(67%,84%,90%); fill-rule: evenodd;"/>
			<polygon points="851.992 487.5844, 832.0543 487.5844, 832.0543 497.8346, 815.6539 477.3341, 832.0543 456.8335, 832.0543 467.0838, 851.992 467.0838" style="stroke: rgb(56%,93%,56%); stroke-linecap: round; stroke-width: 1; fill: rgb(56%,93%,56%); fill-rule: evenodd;"/>
			<polygon points="881.2243 487.5844, 869.6057 487.5844, 869.6057 497.8346, 853.2052 477.3341, 869.6057 456.8335, 869.6057 467.0838, 881.2243 467.0838" style="stroke: rgb(56%,93%,56%); stroke-linecap: round; stroke-width: 1; fill: rgb(56%,93%,56%); fill-rule: evenodd;"/>
			<polygon points="913.7496 487.5844, 898.1447 487.5844, 898.1447 497.8346, 881.7443 477.3341, 898.1447 456.8335, 898.1447 467.0838, 913.7496 467.0838" style="stroke: rgb(56%,93%,56%); stroke-linecap: round; stroke-width: 1; fill: rgb(56%,93%,56%); fill-rule: evenodd;"/>
			<polygon points="937.2625 487.5844, 929.9767 487.5844, 929.9767 497.8346, 913.5763 477.3341, 929.9767 456.8335, 929.9767 467.0838, 937.2625 467.0838" style="stroke: rgb(56%,93%,56%); stroke-linecap: round; stroke-width: 1; fill: rgb(56%,93%,56%); fill-rule: evenodd;"/>
			<polygon points="949.5678 528.5855, 949.5678 538.8358, 963.0285 518.3352, 949.5678 497.8346, 949.5678 508.0849" style="stroke: rgb(67%,84%,90%); stroke-linecap: round; stroke-width: 1; fill: rgb(67%,84%,90%); fill-rule: evenodd;"/>
			<polygon points="995.6693 487.5844, 986.4771 487.5844, 986.4771 497.8346, 970.0766 477.3341, 986.4771 456.8335, 986.4771 467.0838, 995.6693 467.0838" style="stroke: rgb(56%,93%,56%); stroke-linecap: round; stroke-width: 1; fill: rgb(56%,93%,56%); fill-rule: evenodd;"/>
			<polygon points="1120.86 487.5844, 1018.771 487.5844, 1018.771 497.8346, 1002.371 477.3341, 1018.771 456.8335, 1018.771 467.0838, 1120.86 467.0838" style="stroke: rgb(56%,93%,56%); stroke-linecap: round; stroke-width: 1; fill: rgb(56%,93%,56%); fill-rule: evenodd;"/>
			<polygon points="1218.204 487.5844, 1137.607 487.5844, 1137.607 497.8346, 1121.206 477.3341, 1137.607 456.8335, 1137.607 467.0838, 1218.204 467.0838" style="stroke: rgb(56%,93%,56%); stroke-linecap: round; stroke-width: 1; fill: rgb(56%,93%,56%); fill-rule: evenodd;"/>
			<polygon points="1240.1 487.5844, 1235.76 487.5844, 1235.76 497.8346, 1219.36 477.3341, 1235.76 456.8335, 1235.76 467.0838, 1240.1 467.0838" style="stroke: rgb(56%,93%,56%); stroke-linecap: round; stroke-width: 1; fill: rgb(56%,93%,56%); fill-rule: evenodd;"/>
			<polygon points="1346.399 487.5844, 1280.36 487.5844, 1280.36 497.8346, 1263.959 477.3341, 1280.36 456.8335, 1280.36 467.0838, 1346.399 467.0838" style="stroke: rgb(56%,93%,56%); stroke-linecap: round; stroke-width: 1; fill: rgb(56%,93%,56%); fill-rule: evenodd;"/>
			<path d="M 1254.658079,169.825647 L 1254.658079,251.827897 Z" style="stroke: rgb(0%,0%,0%); stroke-linecap: butt; stroke-width: 1;"/>
			<path d="M 70.866142,210.826772 L 1254.658079,210.826772 Z" style="stroke: rgb(0%,0%,0%); stroke-linecap: butt; stroke-width: 1;"/>
			<path d="M 70.866142,169.825647 L 70.866142,251.827897 Z" style="stroke: rgb(0%,0%,0%); stroke-linecap: butt; stroke-width: 1;"/>
			<path d="M 648.579254,210.826772 L 648.579254,231.327334 Z" style="stroke: rgb(0%,0%,0%); stroke-linecap: butt; stroke-width: 1;"/>
			<path d="M 1226.292366,210.826772 L 1226.292366,231.327334 Z" style="stroke: rgb(0%,0%,0%); stroke-linecap: butt; stroke-width: 1;"/>
			<path d="M 648.579254,210.826772 L 648.579254,223.127109 Z" style="stroke: rgb(0%,0%,0%); stroke-linecap: butt; stroke-width: 1;"/>
			<path d="M 1226.292366,210.826772 L 1226.292366,223.127109 Z" style="stroke: rgb(0%,0%,0%); stroke-linecap: butt; stroke-width: 1;"/>
			<path d="M 1346.398922,456.833521 L 1346.398922,538.835771 Z" style="stroke: rgb(0%,0%,0%); stroke-linecap: butt; stroke-width: 1;"/>
			<path d="M 70.866142,497.834646 L 1346.398922,497.834646 Z" style="stroke: rgb(0%,0%,0%); stroke-linecap: butt; stroke-width: 1;"/>
			<path d="M 70.866142,456.833521 L 70.866142,538.835771 Z" style="stroke: rgb(0%,0%,0%); stroke-linecap: butt; stroke-width: 1;"/>
			<path d="M 648.579254,497.834646 L 648.579254,518.335208 Z" style="stroke: rgb(0%,0%,0%); stroke-linecap: butt; stroke-width: 1;"/>
			<path d="M 1226.292366,497.834646 L 1226.292366,518.335208 Z" style="stroke: rgb(0%,0%,0%); stroke-linecap: butt; stroke-width: 1;"/>
			<path d="M 648.579254,497.834646 L 648.579254,510.134983 Z" style="stroke: rgb(0%,0%,0%); stroke-linecap: butt; stroke-width: 1;"/>
			<path d="M 1226.292366,497.834646 L 1226.292366,510.134983 Z" style="stroke: rgb(0%,0%,0%); stroke-linecap: butt; stroke-width: 1;"/>
			<g transform=" matrix(0.707107,0.707107,-0.707107,0.707107,648.579254,231.327334)">
				<text style="font-family: Helvetica; font-size: 6px;fill: rgb(0%,0%,0%); stroke:none;" transform="translate(0,0) scale(1,-1)" x="0" y="0">10000</text>
			</g>
			<g transform=" matrix(0.707107,0.707107,-0.707107,0.707107,1226.292366,231.327334)">
				<text style="font-family: Helvetica; font-size: 6px;fill: rgb(0%,0%,0%); stroke:none;" transform="translate(0,0) scale(1,-1)" x="0" y="0">20000</text>
			</g>
			<g transform=" matrix(0.707107,0.707107,-0.707107,0.707107,648.579254,518.335208)">
				<text style="font-family: Helvetica; font-size: 6px;fill: rgb(0%,0%,0%); stroke:none;" transform="translate(0,0) scale(1,-1)" x="0" y="0">10000</text>
			</g>
			<g transform=" matrix(0.707107,0.707107,-0.707107,0.707107,1226.292366,518.335208)">
				<text style="font-family: Helvetica; font-size: 6px;fill: rgb(0%,0%,0%); stroke:none;" transform="translate(0,0) scale(1,-1)" x="0" y="0">20000</text>
			</g>
			<g transform=" matrix(0.707107,-0.707107,0.707107,0.707107,87.908679,169.825647)">
				<text style="font-family: Helvetica; font-size: 10px;fill: rgb(0%,0%,0%); stroke:none;" transform="translate(0,0) scale(1,-1)" x="0" y="0">Gene_00230</text>
			</g>
			<g transform=" matrix(0.707107,-0.707107,0.707107,0.707107,143.571337,169.825647)">
				<text style="font-family: Helvetica; font-size: 10px;fill: rgb(0%,0%,0%); stroke:none;" transform="translate(0,0) scale(1,-1)" x="0" y="0">Gene_00231</text>
			</g>
			<g transform=" matrix(0.707107,-0.707107,0.707107,0.707107,199.782823,169.825647)">
				<text style="font-family: Helvetica; font-size: 10px;fill: rgb(0%,0%,0%); stroke:none;" transform="translate(0,0) scale(1,-1)" x="0" y="0">Gene_00232</text>
			</g>
			<g transform=" matrix(0.707107,-0.707107,0.707107,0.707107,250.708233,169.825647)">
				<text style="font-family: Helvetica; font-size: 10px;fill: rgb(0%,0%,0%); stroke:none;" transform="translate(0,0) scale(1,-1)" x="0" y="0">Gene_00233</text>
			</g>
			<g transform=" matrix(0.707107,-0.707107,0.707107,0.707107,303.944497,169.825647)">
				<text style="font-family: Helvetica; font-size: 10px;fill: rgb(0%,0%,0%); stroke:none;" transform="translate(0,0) scale(1,-1)" x="0" y="0">Gene_00234</text>
			</g>
			<g transform=" matrix(0.707107,-0.707107,0.707107,0.707107,334.736606,169.825647)">
				<text style="font-family: Helvetica; font-size: 10px;fill: rgb(0%,0%,0%); stroke:none;" transform="translate(0,0) scale(1,-1)" x="0" y="0">Gene_00235</text>
			</g>
			<g transform=" matrix(0.707107,-0.707107,0.707107,0.707107,378.382831,169.825647)">
				<text style="font-family: Helvetica; font-size: 10px;fill: rgb(0%,0%,0%); stroke:none;" transform="translate(0,0) scale(1,-1)" x="0" y="0">Gene_00236</text>
			</g>
			<g transform=" matrix(0.707107,-0.707107,0.707107,0.707107,427.517331,169.825647)">
				<text style="font-family: Helvetica; font-size: 10px;fill: rgb(0%,0%,0%); stroke:none;" transform="translate(0,0) scale(1,-1)" x="0" y="0">Gene_00237</text>
			</g>
			<g transform=" matrix(0.707107,-0.707107,0.707107,0.707107,501.869009,169.825647)">
				<text style="font-family: Helvetica; font-size: 10px;fill: rgb(0%,0%,0%); stroke:none;" transform="translate(0,0) scale(1,-1)" x="0" y="0">Gene_00238</text>
			</g>
			<g transform=" matrix(0.707107,-0.707107,0.707107,0.707107,581.217905,169.825647)">
				<text style="font-family: Helvetica; font-size: 10px;fill: rgb(0%,0%,0%); stroke:none;" transform="translate(0,0) scale(1,-1)" x="0" y="0">Gene_00239</text>
			</g>
			<g transform=" matrix(0.707107,-0.707107,0.707107,0.707107,634.338625,169.825647)">
				<text style="font-family: Helvetica; font-size: 10px;fill: rgb(0%,0%,0%); stroke:none;" transform="translate(0,0) scale(1,-1)" x="0" y="0">Gene_00240</text>
			</g>
			<g transform=" matrix(0.707107,-0.707107,0.707107,0.707107,713.023151,169.825647)">
				<text style="font-family: Helvetica; font-size: 16px;fill: rgb(0%,0%,100%); stroke:none;" transform="translate(0,0) scale(1,-1)" x="0" y="0">Gene_00241 (83.5)</text>
			</g>
			<g transform=" matrix(0.707107,0.707107,-0.707107,0.707107,787.519257,251.827897)">
				<text style="font-family: Helvetica; font-size: 10px;fill: rgb(0%,0%,0%); stroke:none;" transform="translate(0,0) scale(1,-1)" x="0" y="0">Gene_00242</text>
			</g>
			<g transform=" matrix(0.707107,-0.707107,0.707107,0.707107,830.414456,169.825647)">
				<text style="font-family: Helvetica; font-size: 10px;fill: rgb(0%,0%,0%); stroke:none;" transform="translate(0,0) scale(1,-1)" x="0" y="0">Gene_00243</text>
			</g>
			<g transform=" matrix(0.707107,-0.707107,0.707107,0.707107,863.141903,169.825647)">
				<text style="font-family: Helvetica; font-size: 10px;fill: rgb(0%,0%,0%); stroke:none;" transform="translate(0,0) scale(1,-1)" x="0" y="0">Gene_00244</text>
			</g>
			<g transform=" matrix(0.707107,-0.707107,0.707107,0.707107,894.107326,169.825647)">
				<text style="font-family: Helvetica; font-size: 10px;fill: rgb(0%,0%,0%); stroke:none;" transform="translate(0,0) scale(1,-1)" x="0" y="0">Gene_00245</text>
			</g>
			<g transform=" matrix(0.707107,-0.707107,0.707107,0.707107,921.346499,169.825647)">
				<text style="font-family: Helvetica; font-size: 10px;fill: rgb(0%,0%,0%); stroke:none;" transform="translate(0,0) scale(1,-1)" x="0" y="0">Gene_00246</text>
			</g>
			<g transform=" matrix(0.707107,0.707107,-0.707107,0.707107,952.311922,251.827897)">
				<text style="font-family: Helvetica; font-size: 10px;fill: rgb(0%,0%,0%); stroke:none;" transform="translate(0,0) scale(1,-1)" x="0" y="0">Gene_00247</text>
			</g>
			<g transform=" matrix(0.707107,-0.707107,0.707107,0.707107,979.291125,169.825647)">
				<text style="font-family: Helvetica; font-size: 10px;fill: rgb(0%,0%,0%); stroke:none;" transform="translate(0,0) scale(1,-1)" x="0" y="0">Gene_00248</text>
			</g>
			<g transform=" matrix(0.707107,-0.707107,0.707107,0.707107,1055.953655,169.825647)">
				<text style="font-family: Helvetica; font-size: 10px;fill: rgb(0%,0%,0%); stroke:none;" transform="translate(0,0) scale(1,-1)" x="0" y="0">Gene_00249</text>
			</g>
			<g transform=" matrix(0.707107,-0.707107,0.707107,0.707107,1163.928235,169.825647)">
				<text style="font-family: Helvetica; font-size: 10px;fill: rgb(0%,0%,0%); stroke:none;" transform="translate(0,0) scale(1,-1)" x="0" y="0">Gene_00250</text>
			</g>
			<g transform=" matrix(0.707107,-0.707107,0.707107,0.707107,1223.952628,169.825647)">
				<text style="font-family: Helvetica; font-size: 10px;fill: rgb(0%,0%,0%); stroke:none;" transform="translate(0,0) scale(1,-1)" x="0" y="0">Gene_00251</text>
			</g>
			<g transform=" matrix(0.707107,0.707107,-0.707107,0.707107,1248.823177,251.827897)">
				<text style="font-family: Helvetica; font-size: 10px;fill: rgb(0%,0%,0%); stroke:none;" transform="translate(0,0) scale(1,-1)" x="0" y="0">Gene_00252</text>
			</g>
			<g transform=" matrix(0.707107,-0.707107,0.707107,0.707107,87.822022,456.833521)">
				<text style="font-family: Helvetica; font-size: 10px;fill: rgb(0%,0%,0%); stroke:none;" transform="translate(0,0) scale(1,-1)" x="0" y="0">Gene_01851</text>
			</g>
			<g transform=" matrix(0.707107,-0.707107,0.707107,0.707107,143.398023,456.833521)">
				<text style="font-family: Helvetica; font-size: 10px;fill: rgb(0%,0%,0%); stroke:none;" transform="translate(0,0) scale(1,-1)" x="0" y="0">Gene_01852</text>
			</g>
			<g transform=" matrix(0.707107,-0.707107,0.707107,0.707107,205.935467,456.833521)">
				<text style="font-family: Helvetica; font-size: 10px;fill: rgb(0%,0%,0%); stroke:none;" transform="translate(0,0) scale(1,-1)" x="0" y="0">Gene_01853</text>
			</g>
			<g transform=" matrix(0.707107,-0.707107,0.707107,0.707107,256.745336,456.833521)">
				<text style="font-family: Helvetica; font-size: 10px;fill: rgb(0%,0%,0%); stroke:none;" transform="translate(0,0) scale(1,-1)" x="0" y="0">Gene_01854</text>
			</g>
			<g transform=" matrix(0.707107,-0.707107,0.707107,0.707107,311.108139,456.833521)">
				<text style="font-family: Helvetica; font-size: 10px;fill: rgb(0%,0%,0%); stroke:none;" transform="translate(0,0) scale(1,-1)" x="0" y="0">Gene_01855</text>
			</g>
			<g transform=" matrix(0.707107,-0.707107,0.707107,0.707107,342.535733,456.833521)">
				<text style="font-family: Helvetica; font-size: 10px;fill: rgb(0%,0%,0%); stroke:none;" transform="translate(0,0) scale(1,-1)" x="0" y="0">Gene_01856</text>
			</g>
			<g transform=" matrix(0.707107,-0.707107,0.707107,0.707107,386.008644,456.833521)">
				<text style="font-family: Helvetica; font-size: 10px;fill: rgb(0%,0%,0%); stroke:none;" transform="translate(0,0) scale(1,-1)" x="0" y="0">Gene_01857</text>
			</g>
			<g transform=" matrix(0.707107,-0.707107,0.707107,0.707107,435.200916,456.833521)">
				<text style="font-family: Helvetica; font-size: 10px;fill: rgb(0%,0%,0%); stroke:none;" transform="translate(0,0) scale(1,-1)" x="0" y="0">Gene_01858</text>
			</g>
			<g transform=" matrix(0.707107,-0.707107,0.707107,0.707107,507.617254,456.833521)">
				<text style="font-family: Helvetica; font-size: 10px;fill: rgb(0%,0%,0%); stroke:none;" transform="translate(0,0) scale(1,-1)" x="0" y="0">Gene_01859</text>
			</g>
			<g transform=" matrix(0.707107,-0.707107,0.707107,0.707107,587.052807,456.833521)">
				<text style="font-family: Helvetica; font-size: 10px;fill: rgb(0%,0%,0%); stroke:none;" transform="translate(0,0) scale(1,-1)" x="0" y="0">Gene_01860</text>
			</g>
			<g transform=" matrix(0.707107,-0.707107,0.707107,0.707107,640.317956,456.833521)">
				<text style="font-family: Helvetica; font-size: 10px;fill: rgb(0%,0%,0%); stroke:none;" transform="translate(0,0) scale(1,-1)" x="0" y="0">Gene_01861</text>
			</g>
			<g transform=" matrix(0.707107,-0.707107,0.707107,0.707107,716.980486,456.833521)">
				<text style="font-family: Helvetica; font-size: 16px;fill: rgb(0%,0%,100%); stroke:none;" transform="translate(0,0) scale(1,-1)" x="0" y="0">Gene_01862 (83.5)</text>
			</g>
			<g transform=" matrix(0.707107,0.707107,-0.707107,0.707107,789.887881,538.835771)">
				<text style="font-family: Helvetica; font-size: 10px;fill: rgb(0%,0%,0%); stroke:none;" transform="translate(0,0) scale(1,-1)" x="0" y="0">Gene_01863</text>
			</g>
			<g transform=" matrix(0.707107,-0.707107,0.707107,0.707107,833.822963,456.833521)">
				<text style="font-family: Helvetica; font-size: 10px;fill: rgb(0%,0%,0%); stroke:none;" transform="translate(0,0) scale(1,-1)" x="0" y="0">Gene_01864</text>
			</g>
			<g transform=" matrix(0.707107,-0.707107,0.707107,0.707107,867.214781,456.833521)">
				<text style="font-family: Helvetica; font-size: 10px;fill: rgb(0%,0%,0%); stroke:none;" transform="translate(0,0) scale(1,-1)" x="0" y="0">Gene_01865</text>
			</g>
			<g transform=" matrix(0.707107,-0.707107,0.707107,0.707107,897.746919,456.833521)">
				<text style="font-family: Helvetica; font-size: 10px;fill: rgb(0%,0%,0%); stroke:none;" transform="translate(0,0) scale(1,-1)" x="0" y="0">Gene_01866</text>
			</g>
			<g transform=" matrix(0.707107,-0.707107,0.707107,0.707107,925.419377,456.833521)">
				<text style="font-family: Helvetica; font-size: 10px;fill: rgb(0%,0%,0%); stroke:none;" transform="translate(0,0) scale(1,-1)" x="0" y="0">Gene_01867</text>
			</g>
			<g transform=" matrix(0.707107,0.707107,-0.707107,0.707107,956.298143,538.835771)">
				<text style="font-family: Helvetica; font-size: 10px;fill: rgb(0%,0%,0%); stroke:none;" transform="translate(0,0) scale(1,-1)" x="0" y="0">Gene_01868</text>
			</g>
			<g transform=" matrix(0.707107,-0.707107,0.707107,0.707107,982.872946,456.833521)">
				<text style="font-family: Helvetica; font-size: 10px;fill: rgb(0%,0%,0%); stroke:none;" transform="translate(0,0) scale(1,-1)" x="0" y="0">Gene_01869</text>
			</g>
			<g transform=" matrix(0.707107,-0.707107,0.707107,0.707107,1061.615243,456.833521)">
				<text style="font-family: Helvetica; font-size: 10px;fill: rgb(0%,0%,0%); stroke:none;" transform="translate(0,0) scale(1,-1)" x="0" y="0">Gene_01870</text>
			</g>
			<g transform=" matrix(0.707107,-0.707107,0.707107,0.707107,1169.705366,456.833521)">
				<text style="font-family: Helvetica; font-size: 10px;fill: rgb(0%,0%,0%); stroke:none;" transform="translate(0,0) scale(1,-1)" x="0" y="0">Gene_01871</text>
			</g>
			<g transform=" matrix(0.707107,-0.707107,0.707107,0.707107,1229.729759,456.833521)">
				<text style="font-family: Helvetica; font-size: 10px;fill: rgb(0%,0%,0%); stroke:none;" transform="translate(0,0) scale(1,-1)" x="0" y="0">Gene_01872</text>
			</g>
			<g transform=" matrix(0.707107,-0.707107,0.707107,0.707107,1305.179091,456.833521)">
				<text style="font-family: Helvetica; font-size: 10px;fill: rgb(0%,0%,0%); stroke:none;" transform="translate(0,0) scale(1,-1)" x="0" y="0">Gene_01873</text>
			</g>
			<g transform=" matrix(1,0,-0,1,70,169.825647)">
				<text style="font-family: Helvetica; font-size: 12px;fill: rgb(60%,60%,60%); stroke:none;" transform="translate(0,0) scale(1,-1)" x="0" y="0">megahit_8495 (left 70693bp, right 8650bp)</text>
			</g>
			<g transform=" matrix(1,0,-0,1,70,456.833521)">
				<text style="font-family: Helvetica; font-size: 12px;fill: rgb(60%,60%,60%); stroke:none;" transform="translate(0,0) scale(1,-1)" x="0" y="0">megahit_105683 (left 18227bp, right 50250bp)</text>
			</g>
		</g>
	</g>
</svg>
