<?xml version="1.0" encoding="utf-8"?>
<!DOCTYPE svg
  PUBLIC '-//W3C//DTD SVG 1.0//EN'
  'http://www.w3.org/TR/2001/REC-SVG-20010904/DTD/svg10.dtd'>
<svg fill-rule="evenodd" height="708.6614173228346" preserveAspectRatio="xMinYMin meet" version="1.0" viewBox="0 0 1417 708" width="1417.3228346456692" xmlns="http://www.w3.org/2000/svg" xmlns:xlink="http://www.w3.org/1999/xlink">
	<title>...</title>
	<desc>...</desc>
	<clipPath id="clip">
		<rect height="708.6614173228346" width="1417.3228346456692" x="0" y="0"/>
	</clipPath>
	<g id="group" style="clip-path: url(#clip)" transform="scale(1,-1) translate(0,-708)">
		<g transform="">
			<polygon points="70.86614 169.8256, 169.8914 169.8256, 169.8914 251.8279, 70.86614 251.8279" style="stroke: rgb(96%,96%,96%); stroke-linecap: butt; stroke-width: 1; fill: rgb(96%,96%,96%); fill-rule: evenodd;"/>
			<polygon points="70.86614 456.8335, 1346.394 456.8335, 1346.394 538.8358, 70.86614 538.8358" style="stroke: rgb(96%,96%,96%); stroke-linecap: butt; stroke-width: 1; fill: rgb(96%,96%,96%); fill-rule: evenodd;"/>
			<polygon points="680.315 456.8335, 722.2103 456.8335, 136.55 251.8279, 94.71713 251.8279" style="stroke: rgb(100%,21%,21%); stroke-linecap: round; stroke-width: 1; fill: rgb(100%,21%,21%); fill-rule: evenodd;"/>
			<polygon points="79.98196 241.5776, 79.98196 251.8279, 92.28208 231.3273, 79.98196 210.8268, 79.98196 221.0771" style="stroke: rgb(67%,84%,90%); stroke-linecap: round; stroke-width: 1; fill: rgb(67%,84%,90%); fill-rule: evenodd;"/>
			<polygon points="98.83798 241.5776, 112.3449 241.5776, 112.3449 251.8279, 128.7454 231.3273, 112.3449 210.8268, 112.3449 221.0771, 98.83798 221.0771" style="stroke: rgb(67%,84%,90%); stroke-linecap: round; stroke-width: 1; fill: rgb(67%,84%,90%); fill-rule: evenodd;"/>
			<polygon points="73.36363 528.5855, 85.934 528.5855, 85.934 538.8358, 102.3345 518.3352, 85.934 497.8346, 85.934 508.0849, 73.36363 508.0849" style="stroke: rgb(67%,84%,90%); stroke-linecap: round; stroke-width: 1; fill: rgb(67%,84%,90%); fill-rule: evenodd;"/>
			<polygon points="102.1471 528.5855, 109.0982 528.5855, 109.0982 538.8358, 125.4986 518.3352, 109.0982 497.8346, 109.0982 508.0849, 102.1471 508.0849" style="stroke: rgb(67%,84%,90%); stroke-linecap: round; stroke-width: 1; fill: rgb(67%,84%,90%); fill-rule: evenodd;"/>
			<polygon points="125.0616 528.5855, 217.052 528.5855, 217.052 538.8358, 233.4524 518.3352, 217.052 497.8346, 217.052 508.0849, 125.0616 508.0849" style="stroke: rgb(67%,84%,90%); stroke-linecap: round; stroke-width: 1; fill: rgb(67%,84%,90%); fill-rule: evenodd;"/>
			<polygon points="235.3255 528.5855, 235.3255 538.8358, 251.1846 518.3352, 235.3255 497.8346, 235.3255 508.0849" style="stroke: rgb(67%,84%,90%); stroke-linecap: round; stroke-width: 1; fill: rgb(67%,84%,90%); fill-rule: evenodd;"/>
			<polygon points="250.5602 528.5855, 282.2363 528.5855, 282.2363 538.8358, 298.6368 518.3352, 282.2363 497.8346, 282.2363 508.0849, 250.5602 508.0849" style="stroke: rgb(67%,84%,90%); stroke-linecap: round; stroke-width: 1; fill: rgb(67%,84%,90%); fill-rule: evenodd;"/>
			<polygon points="310.7496 528.5855, 427.0905 528.5855, 427.0905 538.8358, 443.4909 518.3352, 427.0905 497.8346, 427.0905 508.0849, 310.7496 508.0849" style="stroke: rgb(67%,84%,90%); stroke-linecap: round; stroke-width: 1; fill: rgb(67%,84%,90%); fill-rule: evenodd;"/>
			<polygon points="443.3036 528.5855, 444.448 528.5855, 444.448 538.8358, 460.8485 518.3352, 444.448 497.8346, 444.448 508.0849, 443.3036 508.0849" style="stroke: rgb(67%,84%,90%); stroke-linecap: round; stroke-width: 1; fill: rgb(67%,84%,90%); fill-rule: evenodd;"/>
			<polygon points="461.0358 528.5855, 639.1894 528.5855, 639.1894 538.8358, 655.5899 518.3352, 639.1894 497.8346, 639.1894 508.0849, 461.0358 508.0849" style="stroke: rgb(67%,84%,90%); stroke-linecap: round; stroke-width: 1; fill: rgb(67%,84%,90%); fill-rule: evenodd;"/>
			<polygon points="655.7147 528.5855, 655.7147 538.8358, 669.1387 518.3352, 655.7147 497.8346, 655.7147 508.0849" style="stroke: rgb(67%,84%,90%); stroke-linecap: round; stroke-width: 1; fill: rgb(67%,84%,90%); fill-rule: evenodd;"/>
			<polygon points="684.4358 528.5855, 697.9427 528.5855, 697.9427 538.8358, 714.3432 518.3352, 697.9427 497.8346, 697.9427 508.0849, 684.4358 508.0849" style="stroke: rgb(67%,84%,90%); stroke-linecap: round; stroke-width: 1; fill: rgb(67%,84%,90%); fill-rule: evenodd;"/>
			<polygon points="724.2707 528.5855, 1194.255 528.5855, 1194.255 538.8358, 1210.656 518.3352, 1194.255 497.8346, 1194.255 508.0849, 724.2707 508.0849" style="stroke: rgb(67%,84%,90%); stroke-linecap: round; stroke-width: 1; fill: rgb(67%,84%,90%); fill-rule: evenodd;"/>
			<polygon points="1210.781 528.5855, 1261.563 528.5855, 1261.563 538.8358, 1277.963 518.3352, 1261.563 497.8346, 1261.563 508.0849, 1210.781 508.0849" style="stroke: rgb(67%,84%,90%); stroke-linecap: round; stroke-width: 1; fill: rgb(67%,84%,90%); fill-rule: evenodd;"/>
			<polygon points="1277.776 528.5855, 1282.854 528.5855, 1282.854 538.8358, 1299.254 518.3352, 1282.854 497.8346, 1282.854 508.0849, 1277.776 508.0849" style="stroke: rgb(67%,84%,90%); stroke-linecap: round; stroke-width: 1; fill: rgb(67%,84%,90%); fill-rule: evenodd;"/>
			<polygon points="1308.12 528.5855, 1310.763 528.5855, 1310.763 538.8358, 1327.164 518.3352, 1310.763 497.8346, 1310.763 508.0849, 1308.12 508.0849" style="stroke: rgb(67%,84%,90%); stroke-linecap: round; stroke-width: 1; fill: rgb(67%,84%,90%); fill-rule: evenodd;"/>
			<polygon points="1326.976 528.5855, 1329.994 528.5855, 1329.994 538.8358, 1346.394 518.3352, 1329.994 497.8346, 1329.994 508.0849, 1326.976 508.0849" style="stroke: rgb(67%,84%,90%); stroke-linecap: round; stroke-width: 1; fill: rgb(67%,84%,90%); fill-rule: evenodd;"/>
			<path d="M 169.891429,169.825647 L 169.891429,251.827897 Z" style="stroke: rgb(0%,0%,0%); stroke-linecap: butt; stroke-width: 1;"/>
			<path d="M 70.866142,210.826772 L 169.891429,210.826772 Z" style="stroke: rgb(0%,0%,0%); stroke-linecap: butt; stroke-width: 1;"/>
			<path d="M 70.866142,169.825647 L 70.866142,251.827897 Z" style="stroke: rgb(0%,0%,0%); stroke-linecap: butt; stroke-width: 1;"/>
			<path d="M 1346.394256,456.833521 L 1346.394256,538.835771 Z" style="stroke: rgb(0%,0%,0%); stroke-linecap: butt; stroke-width: 1;"/>
			<path d="M 70.866142,497.834646 L 1346.394256,497.834646 Z" style="stroke: rgb(0%,0%,0%); stroke-linecap: butt; stroke-width: 1;"/>
			<path d="M 70.866142,456.833521 L 70.866142,538.835771 Z" style="stroke: rgb(0%,0%,0%); stroke-linecap: butt; stroke-width: 1;"/>
			<path d="M 695.237435,497.834646 L 695.237435,518.335208 Z" style="stroke: rgb(0%,0%,0%); stroke-linecap: butt; stroke-width: 1;"/>
			<path d="M 1319.608727,497.834646 L 1319.608727,518.335208 Z" style="stroke: rgb(0%,0%,0%); stroke-linecap: butt; stroke-width: 1;"/>
			<path d="M 695.237435,497.834646 L 695.237435,510.134983 Z" style="stroke: rgb(0%,0%,0%); stroke-linecap: butt; stroke-width: 1;"/>
			<path d="M 1319.608727,497.834646 L 1319.608727,510.134983 Z" style="stroke: rgb(0%,0%,0%); stroke-linecap: butt; stroke-width: 1;"/>
			<g transform=" matrix(0.707107,0.707107,-0.707107,0.707107,695.237435,518.335208)">
				<text style="font-family: Helvetica; font-size: 6px;fill: rgb(0%,0%,0%); stroke:none;" transform="translate(0,0) scale(1,-1)" x="0" y="0">10000</text>
			</g>
			<g transform=" matrix(0.707107,0.707107,-0.707107,0.707107,1319.608727,518.335208)">
				<text style="font-family: Helvetica; font-size: 6px;fill: rgb(0%,0%,0%); stroke:none;" transform="translate(0,0) scale(1,-1)" x="0" y="0">20000</text>
			</g>
			<g transform=" matrix(0.707107,0.707107,-0.707107,0.707107,86.13202,251.827897)">
				<text style="font-family: Helvetica; font-size: 10px;fill: rgb(0%,0%,0%); stroke:none;" transform="translate(0,0) scale(1,-1)" x="0" y="0">Gene_02329</text>
			</g>
			<g transform=" matrix(0.707107,0.707107,-0.707107,0.707107,113.791668,251.827897)">
				<text style="font-family: Helvetica; font-size: 16px;fill: rgb(0%,0%,100%); stroke:none;" transform="translate(0,0) scale(1,-1)" x="0" y="0">Gene_02330 (94.6)</text>
			</g>
			<g transform=" matrix(0.707107,0.707107,-0.707107,0.707107,87.849041,538.835771)">
				<text style="font-family: Helvetica; font-size: 10px;fill: rgb(0%,0%,0%); stroke:none;" transform="translate(0,0) scale(1,-1)" x="0" y="0">Gene_01211</text>
			</g>
			<g transform=" matrix(0.707107,0.707107,-0.707107,0.707107,113.822887,538.835771)">
				<text style="font-family: Helvetica; font-size: 10px;fill: rgb(0%,0%,0%); stroke:none;" transform="translate(0,0) scale(1,-1)" x="0" y="0">Gene_01212</text>
			</g>
			<g transform=" matrix(0.707107,0.707107,-0.707107,0.707107,179.256998,538.835771)">
				<text style="font-family: Helvetica; font-size: 10px;fill: rgb(0%,0%,0%); stroke:none;" transform="translate(0,0) scale(1,-1)" x="0" y="0">Gene_01213</text>
			</g>
			<g transform=" matrix(0.707107,0.707107,-0.707107,0.707107,243.255056,538.835771)">
				<text style="font-family: Helvetica; font-size: 10px;fill: rgb(0%,0%,0%); stroke:none;" transform="translate(0,0) scale(1,-1)" x="0" y="0">Gene_01214</text>
			</g>
			<g transform=" matrix(0.707107,0.707107,-0.707107,0.707107,274.598495,538.835771)">
				<text style="font-family: Helvetica; font-size: 10px;fill: rgb(0%,0%,0%); stroke:none;" transform="translate(0,0) scale(1,-1)" x="0" y="0">Gene_01215</text>
			</g>
			<g transform=" matrix(0.707107,0.707107,-0.707107,0.707107,377.120261,538.835771)">
				<text style="font-family: Helvetica; font-size: 10px;fill: rgb(0%,0%,0%); stroke:none;" transform="translate(0,0) scale(1,-1)" x="0" y="0">Gene_01216</text>
			</g>
			<g transform=" matrix(0.707107,0.707107,-0.707107,0.707107,452.076035,538.835771)">
				<text style="font-family: Helvetica; font-size: 10px;fill: rgb(0%,0%,0%); stroke:none;" transform="translate(0,0) scale(1,-1)" x="0" y="0">Gene_01217</text>
			</g>
			<g transform=" matrix(0.707107,0.707107,-0.707107,0.707107,558.31281,538.835771)">
				<text style="font-family: Helvetica; font-size: 10px;fill: rgb(0%,0%,0%); stroke:none;" transform="translate(0,0) scale(1,-1)" x="0" y="0">Gene_01218</text>
			</g>
			<g transform=" matrix(0.707107,0.707107,-0.707107,0.707107,662.426723,538.835771)">
				<text style="font-family: Helvetica; font-size: 10px;fill: rgb(0%,0%,0%); stroke:none;" transform="translate(0,0) scale(1,-1)" x="0" y="0">Gene_01219</text>
			</g>
			<g transform=" matrix(0.707107,0.707107,-0.707107,0.707107,699.389504,538.835771)">
				<text style="font-family: Helvetica; font-size: 16px;fill: rgb(0%,0%,100%); stroke:none;" transform="translate(0,0) scale(1,-1)" x="0" y="0">Gene_01220 (94.6)</text>
			</g>
			<g transform=" matrix(0.707107,0.707107,-0.707107,0.707107,967.463318,538.835771)">
				<text style="font-family: Helvetica; font-size: 10px;fill: rgb(0%,0%,0%); stroke:none;" transform="translate(0,0) scale(1,-1)" x="0" y="0">Gene_01221</text>
			</g>
			<g transform=" matrix(0.707107,0.707107,-0.707107,0.707107,1244.371987,538.835771)">
				<text style="font-family: Helvetica; font-size: 10px;fill: rgb(0%,0%,0%); stroke:none;" transform="translate(0,0) scale(1,-1)" x="0" y="0">Gene_01222</text>
			</g>
			<g transform=" matrix(0.707107,0.707107,-0.707107,0.707107,1288.515037,538.835771)">
				<text style="font-family: Helvetica; font-size: 10px;fill: rgb(0%,0%,0%); stroke:none;" transform="translate(0,0) scale(1,-1)" x="0" y="0">Gene_01223</text>
			</g>
			<g transform=" matrix(0.707107,0.707107,-0.707107,0.707107,1317.641958,538.835771)">
				<text style="font-family: Helvetica; font-size: 10px;fill: rgb(0%,0%,0%); stroke:none;" transform="translate(0,0) scale(1,-1)" x="0" y="0">Gene_01224</text>
			</g>
			<g transform=" matrix(0.707107,0.707107,-0.707107,0.707107,1336.685282,538.835771)">
				<text style="font-family: Helvetica; font-size: 10px;fill: rgb(0%,0%,0%); stroke:none;" transform="translate(0,0) scale(1,-1)" x="0" y="0">Gene_01225</text>
			</g>
			<g transform=" matrix(1,0,-0,1,70,456.833521)">
				<text style="font-family: Helvetica; font-size: 12px;fill: rgb(60%,60%,60%); stroke:none;" transform="translate(0,0) scale(1,-1)" x="0" y="0">megahit_98846 (left 9827bp, right 14756bp)</text>
			</g>
		</g>
	</g>
</svg>
