<?xml version="1.0" encoding="utf-8"?>
<!DOCTYPE svg
  PUBLIC '-//W3C//DTD SVG 1.0//EN'
  'http://www.w3.org/TR/2001/REC-SVG-20010904/DTD/svg10.dtd'>
<svg fill-rule="evenodd" height="708.6614173228346" preserveAspectRatio="xMinYMin meet" version="1.0" viewBox="0 0 1417 708" width="1417.3228346456692" xmlns="http://www.w3.org/2000/svg" xmlns:xlink="http://www.w3.org/1999/xlink">
	<title>...</title>
	<desc>...</desc>
	<clipPath id="clip">
		<rect height="708.6614173228346" width="1417.3228346456692" x="0" y="0"/>
	</clipPath>
	<g id="group" style="clip-path: url(#clip)" transform="scale(1,-1) translate(0,-708)">
		<g transform="">
			<polygon points="70.86614 169.8256, 1346.401 169.8256, 1346.401 251.8279, 70.86614 251.8279" style="stroke: rgb(96%,96%,96%); stroke-linecap: butt; stroke-width: 1; fill: rgb(96%,96%,96%); fill-rule: evenodd;"/>
			<polygon points="70.86614 456.8335, 1315.006 456.8335, 1315.006 538.8358, 70.86614 538.8358" style="stroke: rgb(96%,96%,96%); stroke-linecap: butt; stroke-width: 1; fill: rgb(96%,96%,96%); fill-rule: evenodd;"/>
			<polygon points="409.4838 456.8335, 955.9812 456.8335, 437.1226 251.8279, 976.6683 251.8279" style="stroke: rgb(100%,39%,39%); stroke-linecap: round; stroke-width: 1; fill: rgb(100%,39%,39%); fill-rule: evenodd;"/>
			<polygon points="1169.131 456.8335, 1255.075 456.8335, 265.291 251.8279, 351.2348 251.8279" style="stroke: rgb(100%,31%,31%); stroke-linecap: round; stroke-width: 1; fill: rgb(100%,31%,31%); fill-rule: evenodd;"/>
			<polygon points="360.8215 456.8335, 406.12 456.8335, 1079.823 251.8279, 1125.122 251.8279" style="stroke: rgb(100%,46%,46%); stroke-linecap: round; stroke-width: 1; fill: rgb(100%,46%,46%); fill-rule: evenodd;"/>
			<polygon points="966.6331 456.8335, 992.8704 456.8335, 401.2426 251.8279, 427.4798 251.8279" style="stroke: rgb(100%,27%,27%); stroke-linecap: round; stroke-width: 1; fill: rgb(100%,27%,27%); fill-rule: evenodd;"/>
			<polygon points="1019.276 456.8335, 1040.524 456.8335, 361.9988 251.8279, 383.2465 251.8279" style="stroke: rgb(100%,39%,39%); stroke-linecap: round; stroke-width: 1; fill: rgb(100%,39%,39%); fill-rule: evenodd;"/>
			<polygon points="269.1593 456.8335, 285.8098 456.8335, 1137.848 251.8279, 1154.162 251.8279" style="stroke: rgb(100%,59%,59%); stroke-linecap: round; stroke-width: 1; fill: rgb(100%,59%,59%); fill-rule: evenodd;"/>
			<polygon points="70.86614 241.5776, 201.2374 241.5776, 201.2374 251.8279, 217.6378 231.3273, 201.2374 210.8268, 201.2374 221.0771, 70.86614 221.0771" style="stroke: rgb(67%,84%,90%); stroke-linecap: round; stroke-width: 1; fill: rgb(67%,84%,90%); fill-rule: evenodd;"/>
			<polygon points="218.9273 241.5776, 245.0222 241.5776, 245.0222 251.8279, 261.4227 231.3273, 245.0222 210.8268, 245.0222 221.0771, 218.9273 221.0771" style="stroke: rgb(67%,84%,90%); stroke-linecap: round; stroke-width: 1; fill: rgb(67%,84%,90%); fill-rule: evenodd;"/>
			<polygon points="274.5973 241.5776, 334.498 241.5776, 334.498 251.8279, 350.8984 231.3273, 334.498 210.8268, 334.498 221.0771, 274.5973 221.0771" style="stroke: rgb(67%,84%,90%); stroke-linecap: round; stroke-width: 1; fill: rgb(67%,84%,90%); fill-rule: evenodd;"/>
			<polygon points="405.6155 200.5765, 378.3432 200.5765, 378.3432 210.8268, 361.9428 190.3262, 378.3432 169.8256, 378.3432 180.0759, 405.6155 180.0759" style="stroke: rgb(56%,93%,56%); stroke-linecap: round; stroke-width: 1; fill: rgb(56%,93%,56%); fill-rule: evenodd;"/>
			<polygon points="412.6233 241.5776, 412.6233 251.8279, 428.2087 231.3273, 412.6233 210.8268, 412.6233 221.0771" style="stroke: rgb(67%,84%,90%); stroke-linecap: round; stroke-width: 1; fill: rgb(67%,84%,90%); fill-rule: evenodd;"/>
			<polygon points="548.5749 200.5765, 462.437 200.5765, 462.437 210.8268, 446.0365 190.3262, 462.437 169.8256, 462.437 180.0759, 548.5749 180.0759" style="stroke: rgb(56%,93%,56%); stroke-linecap: round; stroke-width: 1; fill: rgb(56%,93%,56%); fill-rule: evenodd;"/>
			<polygon points="559.2828 241.5776, 577.9775 241.5776, 577.9775 251.8279, 594.378 231.3273, 577.9775 210.8268, 577.9775 221.0771, 559.2828 221.0771" style="stroke: rgb(67%,84%,90%); stroke-linecap: round; stroke-width: 1; fill: rgb(67%,84%,90%); fill-rule: evenodd;"/>
			<polygon points="600.5448 241.5776, 612.8484 241.5776, 612.8484 251.8279, 629.2489 231.3273, 612.8484 210.8268, 612.8484 221.0771, 600.5448 221.0771" style="stroke: rgb(67%,84%,90%); stroke-linecap: round; stroke-width: 1; fill: rgb(67%,84%,90%); fill-rule: evenodd;"/>
			<polygon points="631.211 241.5776, 664.8744 241.5776, 664.8744 251.8279, 681.2749 231.3273, 664.8744 210.8268, 664.8744 221.0771, 631.211 221.0771" style="stroke: rgb(67%,84%,90%); stroke-linecap: round; stroke-width: 1; fill: rgb(67%,84%,90%); fill-rule: evenodd;"/>
			<polygon points="682.3401 241.5776, 708.435 241.5776, 708.435 251.8279, 724.8355 231.3273, 708.435 210.8268, 708.435 221.0771, 682.3401 221.0771" style="stroke: rgb(67%,84%,90%); stroke-linecap: round; stroke-width: 1; fill: rgb(67%,84%,90%); fill-rule: evenodd;"/>
			<polygon points="734.1418 241.5776, 741.9043 241.5776, 741.9043 251.8279, 758.3048 231.3273, 741.9043 210.8268, 741.9043 221.0771, 734.1418 221.0771" style="stroke: rgb(67%,84%,90%); stroke-linecap: round; stroke-width: 1; fill: rgb(67%,84%,90%); fill-rule: evenodd;"/>
			<polygon points="764.0792 241.5776, 791.3515 241.5776, 791.3515 251.8279, 807.7519 231.3273, 791.3515 210.8268, 791.3515 221.0771, 764.0792 221.0771" style="stroke: rgb(67%,84%,90%); stroke-linecap: round; stroke-width: 1; fill: rgb(67%,84%,90%); fill-rule: evenodd;"/>
			<polygon points="807.5837 241.5776, 821.5692 241.5776, 821.5692 251.8279, 837.9696 231.3273, 821.5692 210.8268, 821.5692 221.0771, 807.5837 221.0771" style="stroke: rgb(67%,84%,90%); stroke-linecap: round; stroke-width: 1; fill: rgb(67%,84%,90%); fill-rule: evenodd;"/>
			<polygon points="848.9579 241.5776, 910.3722 241.5776, 910.3722 251.8279, 926.7727 231.3273, 910.3722 210.8268, 910.3722 221.0771, 848.9579 221.0771" style="stroke: rgb(67%,84%,90%); stroke-linecap: round; stroke-width: 1; fill: rgb(67%,84%,90%); fill-rule: evenodd;"/>
			<polygon points="929.9122 241.5776, 960.38 241.5776, 960.38 251.8279, 976.7804 231.3273, 960.38 210.8268, 960.38 221.0771, 929.9122 221.0771" style="stroke: rgb(67%,84%,90%); stroke-linecap: round; stroke-width: 1; fill: rgb(67%,84%,90%); fill-rule: evenodd;"/>
			<polygon points="980.9291 241.5776, 995.5872 241.5776, 995.5872 251.8279, 1011.988 231.3273, 995.5872 210.8268, 995.5872 221.0771, 980.9291 221.0771" style="stroke: rgb(67%,84%,90%); stroke-linecap: round; stroke-width: 1; fill: rgb(67%,84%,90%); fill-rule: evenodd;"/>
			<polygon points="1015.912 241.5776, 1033.429 241.5776, 1033.429 251.8279, 1049.83 231.3273, 1033.429 210.8268, 1033.429 221.0771, 1015.912 221.0771" style="stroke: rgb(67%,84%,90%); stroke-linecap: round; stroke-width: 1; fill: rgb(67%,84%,90%); fill-rule: evenodd;"/>
			<polygon points="1051.175 241.5776, 1062.638 241.5776, 1062.638 251.8279, 1079.038 231.3273, 1062.638 210.8268, 1062.638 221.0771, 1051.175 221.0771" style="stroke: rgb(67%,84%,90%); stroke-linecap: round; stroke-width: 1; fill: rgb(67%,84%,90%); fill-rule: evenodd;"/>
			<polygon points="1079.319 241.5776, 1108.946 241.5776, 1108.946 251.8279, 1125.346 231.3273, 1108.946 210.8268, 1108.946 221.0771, 1079.319 221.0771" style="stroke: rgb(67%,84%,90%); stroke-linecap: round; stroke-width: 1; fill: rgb(67%,84%,90%); fill-rule: evenodd;"/>
			<polygon points="1139.698 241.5776, 1194.553 241.5776, 1194.553 251.8279, 1210.954 231.3273, 1194.553 210.8268, 1194.553 221.0771, 1139.698 221.0771" style="stroke: rgb(67%,84%,90%); stroke-linecap: round; stroke-width: 1; fill: rgb(67%,84%,90%); fill-rule: evenodd;"/>
			<polygon points="1223.063 241.5776, 1246.131 241.5776, 1246.131 251.8279, 1262.531 231.3273, 1246.131 210.8268, 1246.131 221.0771, 1223.063 221.0771" style="stroke: rgb(67%,84%,90%); stroke-linecap: round; stroke-width: 1; fill: rgb(67%,84%,90%); fill-rule: evenodd;"/>
			<polygon points="1262.867 241.5776, 1330 241.5776, 1330 251.8279, 1346.401 231.3273, 1330 210.8268, 1330 221.0771, 1262.867 221.0771" style="stroke: rgb(67%,84%,90%); stroke-linecap: round; stroke-width: 1; fill: rgb(67%,84%,90%); fill-rule: evenodd;"/>
			<polygon points="148.1764 487.5844, 87.26659 487.5844, 87.26659 497.8346, 70.86614 477.3341, 87.26659 456.8335, 87.26659 467.0838, 148.1764 467.0838" style="stroke: rgb(56%,93%,56%); stroke-linecap: round; stroke-width: 1; fill: rgb(56%,93%,56%); fill-rule: evenodd;"/>
			<polygon points="186.6352 487.5844, 164.4086 487.5844, 164.4086 497.8346, 148.0082 477.3341, 164.4086 456.8335, 164.4086 467.0838, 186.6352 467.0838" style="stroke: rgb(56%,93%,56%); stroke-linecap: round; stroke-width: 1; fill: rgb(56%,93%,56%); fill-rule: evenodd;"/>
			<polygon points="223.132 487.5844, 208.3056 487.5844, 208.3056 497.8346, 191.9051 477.3341, 208.3056 456.8335, 208.3056 467.0838, 223.132 467.0838" style="stroke: rgb(56%,93%,56%); stroke-linecap: round; stroke-width: 1; fill: rgb(56%,93%,56%); fill-rule: evenodd;"/>
			<polygon points="283.7916 487.5844, 281.7475 487.5844, 281.7475 497.8346, 265.347 477.3341, 281.7475 456.8335, 281.7475 467.0838, 283.7916 467.0838" style="stroke: rgb(56%,93%,56%); stroke-linecap: round; stroke-width: 1; fill: rgb(56%,93%,56%); fill-rule: evenodd;"/>
			<polygon points="358.8593 487.5844, 308.5454 487.5844, 308.5454 497.8346, 292.1449 477.3341, 308.5454 456.8335, 308.5454 467.0838, 358.8593 467.0838" style="stroke: rgb(56%,93%,56%); stroke-linecap: round; stroke-width: 1; fill: rgb(56%,93%,56%); fill-rule: evenodd;"/>
			<polygon points="406.7928 487.5844, 376.9977 487.5844, 376.9977 497.8346, 360.5973 477.3341, 376.9977 456.8335, 376.9977 467.0838, 406.7928 467.0838" style="stroke: rgb(56%,93%,56%); stroke-linecap: round; stroke-width: 1; fill: rgb(56%,93%,56%); fill-rule: evenodd;"/>
			<polygon points="452.8762 487.5844, 425.7721 487.5844, 425.7721 497.8346, 409.3716 477.3341, 425.7721 456.8335, 425.7721 467.0838, 452.8762 467.0838" style="stroke: rgb(56%,93%,56%); stroke-linecap: round; stroke-width: 1; fill: rgb(56%,93%,56%); fill-rule: evenodd;"/>
			<polygon points="540.0534 487.5844, 478.6391 487.5844, 478.6391 497.8346, 462.2386 477.3341, 478.6391 456.8335, 478.6391 467.0838, 540.0534 467.0838" style="stroke: rgb(56%,93%,56%); stroke-linecap: round; stroke-width: 1; fill: rgb(56%,93%,56%); fill-rule: evenodd;"/>
			<polygon points="582.717 487.5844, 567.7224 487.5844, 567.7224 497.8346, 551.322 477.3341, 567.7224 456.8335, 567.7224 467.0838, 582.717 467.0838" style="stroke: rgb(56%,93%,56%); stroke-linecap: round; stroke-width: 1; fill: rgb(56%,93%,56%); fill-rule: evenodd;"/>
			<polygon points="626.2215 487.5844, 599.622 487.5844, 599.622 497.8346, 583.2215 477.3341, 599.622 456.8335, 599.622 467.0838, 626.2215 467.0838" style="stroke: rgb(56%,93%,56%); stroke-linecap: round; stroke-width: 1; fill: rgb(56%,93%,56%); fill-rule: evenodd;"/>
			<polygon points="655.6543 487.5844, 647.0509 487.5844, 647.0509 497.8346, 630.6504 477.3341, 647.0509 456.8335, 647.0509 467.0838, 655.6543 467.0838" style="stroke: rgb(56%,93%,56%); stroke-linecap: round; stroke-width: 1; fill: rgb(56%,93%,56%); fill-rule: evenodd;"/>
			<polygon points="709.3061 487.5844, 682.5384 487.5844, 682.5384 497.8346, 666.138 477.3341, 682.5384 456.8335, 682.5384 467.0838, 709.3061 467.0838" style="stroke: rgb(56%,93%,56%); stroke-linecap: round; stroke-width: 1; fill: rgb(56%,93%,56%); fill-rule: evenodd;"/>
			<polygon points="760.323 487.5844, 726.6596 487.5844, 726.6596 497.8346, 710.2592 477.3341, 726.6596 456.8335, 726.6596 467.0838, 760.323 467.0838" style="stroke: rgb(56%,93%,56%); stroke-linecap: round; stroke-width: 1; fill: rgb(56%,93%,56%); fill-rule: evenodd;"/>
			<polygon points="790.821 487.5844, 778.5175 487.5844, 778.5175 497.8346, 762.117 477.3341, 778.5175 456.8335, 778.5175 467.0838, 790.821 467.0838" style="stroke: rgb(56%,93%,56%); stroke-linecap: round; stroke-width: 1; fill: rgb(56%,93%,56%); fill-rule: evenodd;"/>
			<polygon points="833.6528 487.5844, 814.9581 487.5844, 814.9581 497.8346, 798.5577 477.3341, 814.9581 456.8335, 814.9581 467.0838, 833.6528 467.0838" style="stroke: rgb(56%,93%,56%); stroke-linecap: round; stroke-width: 1; fill: rgb(56%,93%,56%); fill-rule: evenodd;"/>
			<polygon points="844.5289 528.5855, 930.6668 528.5855, 930.6668 538.8358, 947.0673 518.3352, 930.6668 497.8346, 930.6668 508.0849, 844.5289 508.0849" style="stroke: rgb(67%,84%,90%); stroke-linecap: round; stroke-width: 1; fill: rgb(67%,84%,90%); fill-rule: evenodd;"/>
			<polygon points="981.4897 487.5844, 981.4897 497.8346, 965.2315 477.3341, 981.4897 456.8335, 981.4897 467.0838" style="stroke: rgb(56%,93%,56%); stroke-linecap: round; stroke-width: 1; fill: rgb(56%,93%,56%); fill-rule: evenodd;"/>
			<polygon points="988.4975 528.5855, 1024.179 528.5855, 1024.179 538.8358, 1040.58 518.3352, 1024.179 497.8346, 1024.179 508.0849, 988.4975 508.0849" style="stroke: rgb(67%,84%,90%); stroke-linecap: round; stroke-width: 1; fill: rgb(67%,84%,90%); fill-rule: evenodd;"/>
			<polygon points="1149.733 487.5844, 1061.914 487.5844, 1061.914 497.8346, 1045.513 477.3341, 1061.914 456.8335, 1061.914 467.0838, 1149.733 467.0838" style="stroke: rgb(56%,93%,56%); stroke-linecap: round; stroke-width: 1; fill: rgb(56%,93%,56%); fill-rule: evenodd;"/>
			<polygon points="1245.768 487.5844, 1185.868 487.5844, 1185.868 497.8346, 1169.467 477.3341, 1185.868 456.8335, 1185.868 467.0838, 1245.768 467.0838" style="stroke: rgb(56%,93%,56%); stroke-linecap: round; stroke-width: 1; fill: rgb(56%,93%,56%); fill-rule: evenodd;"/>
			<polygon points="1315.006 487.5844, 1275.456 487.5844, 1275.456 497.8346, 1259.055 477.3341, 1275.456 456.8335, 1275.456 467.0838, 1315.006 467.0838" style="stroke: rgb(56%,93%,56%); stroke-linecap: round; stroke-width: 1; fill: rgb(56%,93%,56%); fill-rule: evenodd;"/>
			<path d="M 1346.40063,169.825647 L 1346.40063,251.827897 Z" style="stroke: rgb(0%,0%,0%); stroke-linecap: butt; stroke-width: 1;"/>
			<path d="M 70.866142,210.826772 L 1346.40063,210.826772 Z" style="stroke: rgb(0%,0%,0%); stroke-linecap: butt; stroke-width: 1;"/>
			<path d="M 70.866142,169.825647 L 70.866142,251.827897 Z" style="stroke: rgb(0%,0%,0%); stroke-linecap: butt; stroke-width: 1;"/>
			<path d="M 631.491357,210.826772 L 631.491357,231.327334 Z" style="stroke: rgb(0%,0%,0%); stroke-linecap: butt; stroke-width: 1;"/>
			<path d="M 1192.116571,210.826772 L 1192.116571,231.327334 Z" style="stroke: rgb(0%,0%,0%); stroke-linecap: butt; stroke-width: 1;"/>
			<path d="M 631.491357,210.826772 L 631.491357,223.127109 Z" style="stroke: rgb(0%,0%,0%); stroke-linecap: butt; stroke-width: 1;"/>
			<path d="M 1192.116571,210.826772 L 1192.116571,223.127109 Z" style="stroke: rgb(0%,0%,0%); stroke-linecap: butt; stroke-width: 1;"/>
			<path d="M 1315.005618,456.833521 L 1315.005618,538.835771 Z" style="stroke: rgb(0%,0%,0%); stroke-linecap: butt; stroke-width: 1;"/>
			<path d="M 70.866142,497.834646 L 1315.005618,497.834646 Z" style="stroke: rgb(0%,0%,0%); stroke-linecap: butt; stroke-width: 1;"/>
			<path d="M 70.866142,456.833521 L 70.866142,538.835771 Z" style="stroke: rgb(0%,0%,0%); stroke-linecap: butt; stroke-width: 1;"/>
			<path d="M 631.491357,497.834646 L 631.491357,518.335208 Z" style="stroke: rgb(0%,0%,0%); stroke-linecap: butt; stroke-width: 1;"/>
			<path d="M 1192.116571,497.834646 L 1192.116571,518.335208 Z" style="stroke: rgb(0%,0%,0%); stroke-linecap: butt; stroke-width: 1;"/>
			<path d="M 631.491357,497.834646 L 631.491357,510.134983 Z" style="stroke: rgb(0%,0%,0%); stroke-linecap: butt; stroke-width: 1;"/>
			<path d="M 1192.116571,497.834646 L 1192.116571,510.134983 Z" style="stroke: rgb(0%,0%,0%); stroke-linecap: butt; stroke-width: 1;"/>
			<g transform=" matrix(0.707107,0.707107,-0.707107,0.707107,631.491357,231.327334)">
				<text style="font-family: Helvetica; font-size: 6px;fill: rgb(0%,0%,0%); stroke:none;" transform="translate(0,0) scale(1,-1)" x="0" y="0">10000</text>
			</g>
			<g transform=" matrix(0.707107,0.707107,-0.707107,0.707107,1192.116571,231.327334)">
				<text style="font-family: Helvetica; font-size: 6px;fill: rgb(0%,0%,0%); stroke:none;" transform="translate(0,0) scale(1,-1)" x="0" y="0">20000</text>
			</g>
			<g transform=" matrix(0.707107,0.707107,-0.707107,0.707107,631.491357,518.335208)">
				<text style="font-family: Helvetica; font-size: 6px;fill: rgb(0%,0%,0%); stroke:none;" transform="translate(0,0) scale(1,-1)" x="0" y="0">10000</text>
			</g>
			<g transform=" matrix(0.707107,0.707107,-0.707107,0.707107,1192.116571,518.335208)">
				<text style="font-family: Helvetica; font-size: 6px;fill: rgb(0%,0%,0%); stroke:none;" transform="translate(0,0) scale(1,-1)" x="0" y="0">20000</text>
			</g>
			<g transform=" matrix(0.707107,0.707107,-0.707107,0.707107,144.251982,251.827897)">
				<text style="font-family: Helvetica; font-size: 10px;fill: rgb(0%,0%,0%); stroke:none;" transform="translate(0,0) scale(1,-1)" x="0" y="0">Gene_00603</text>
			</g>
			<g transform=" matrix(0.707107,0.707107,-0.707107,0.707107,240.174957,251.827897)">
				<text style="font-family: Helvetica; font-size: 10px;fill: rgb(0%,0%,0%); stroke:none;" transform="translate(0,0) scale(1,-1)" x="0" y="0">Gene_00604</text>
			</g>
			<g transform=" matrix(0.707107,0.707107,-0.707107,0.707107,312.747891,251.827897)">
				<text style="font-family: Helvetica; font-size: 10px;fill: rgb(0%,0%,0%); stroke:none;" transform="translate(0,0) scale(1,-1)" x="0" y="0">Gene_00605</text>
			</g>
			<g transform=" matrix(0.707107,-0.707107,0.707107,0.707107,383.779105,169.825647)">
				<text style="font-family: Helvetica; font-size: 10px;fill: rgb(0%,0%,0%); stroke:none;" transform="translate(0,0) scale(1,-1)" x="0" y="0">Gene_00606</text>
			</g>
			<g transform=" matrix(0.707107,0.707107,-0.707107,0.707107,420.415963,251.827897)">
				<text style="font-family: Helvetica; font-size: 10px;fill: rgb(0%,0%,0%); stroke:none;" transform="translate(0,0) scale(1,-1)" x="0" y="0">Gene_00607</text>
			</g>
			<g transform=" matrix(0.707107,-0.707107,0.707107,0.707107,497.305711,169.825647)">
				<text style="font-family: Helvetica; font-size: 10px;fill: rgb(0%,0%,0%); stroke:none;" transform="translate(0,0) scale(1,-1)" x="0" y="0">Gene_00608</text>
			</g>
			<g transform=" matrix(0.707107,0.707107,-0.707107,0.707107,576.830398,251.827897)">
				<text style="font-family: Helvetica; font-size: 10px;fill: rgb(0%,0%,0%); stroke:none;" transform="translate(0,0) scale(1,-1)" x="0" y="0">Gene_00609</text>
			</g>
			<g transform=" matrix(0.707107,0.707107,-0.707107,0.707107,614.89685,251.827897)">
				<text style="font-family: Helvetica; font-size: 10px;fill: rgb(0%,0%,0%); stroke:none;" transform="translate(0,0) scale(1,-1)" x="0" y="0">Gene_00610</text>
			</g>
			<g transform=" matrix(0.707107,0.707107,-0.707107,0.707107,656.24296,251.827897)">
				<text style="font-family: Helvetica; font-size: 10px;fill: rgb(0%,0%,0%); stroke:none;" transform="translate(0,0) scale(1,-1)" x="0" y="0">Gene_00611</text>
			</g>
			<g transform=" matrix(0.707107,0.707107,-0.707107,0.707107,703.587759,251.827897)">
				<text style="font-family: Helvetica; font-size: 16px;fill: rgb(0%,0%,100%); stroke:none;" transform="translate(0,0) scale(1,-1)" x="0" y="0">Gene_00612 (84.0)</text>
			</g>
			<g transform=" matrix(0.707107,0.707107,-0.707107,0.707107,746.223307,251.827897)">
				<text style="font-family: Helvetica; font-size: 10px;fill: rgb(0%,0%,0%); stroke:none;" transform="translate(0,0) scale(1,-1)" x="0" y="0">Gene_00613</text>
			</g>
			<g transform=" matrix(0.707107,0.707107,-0.707107,0.707107,785.915572,251.827897)">
				<text style="font-family: Helvetica; font-size: 10px;fill: rgb(0%,0%,0%); stroke:none;" transform="translate(0,0) scale(1,-1)" x="0" y="0">Gene_00614</text>
			</g>
			<g transform=" matrix(0.707107,0.707107,-0.707107,0.707107,822.77668,251.827897)">
				<text style="font-family: Helvetica; font-size: 10px;fill: rgb(0%,0%,0%); stroke:none;" transform="translate(0,0) scale(1,-1)" x="0" y="0">Gene_00615</text>
			</g>
			<g transform=" matrix(0.707107,0.707107,-0.707107,0.707107,887.865267,251.827897)">
				<text style="font-family: Helvetica; font-size: 10px;fill: rgb(0%,0%,0%); stroke:none;" transform="translate(0,0) scale(1,-1)" x="0" y="0">Gene_00616</text>
			</g>
			<g transform=" matrix(0.707107,0.707107,-0.707107,0.707107,953.346292,251.827897)">
				<text style="font-family: Helvetica; font-size: 10px;fill: rgb(0%,0%,0%); stroke:none;" transform="translate(0,0) scale(1,-1)" x="0" y="0">Gene_00617</text>
			</g>
			<g transform=" matrix(0.707107,0.707107,-0.707107,0.707107,996.458371,251.827897)">
				<text style="font-family: Helvetica; font-size: 10px;fill: rgb(0%,0%,0%); stroke:none;" transform="translate(0,0) scale(1,-1)" x="0" y="0">Gene_00618</text>
			</g>
			<g transform=" matrix(0.707107,0.707107,-0.707107,0.707107,1032.870979,251.827897)">
				<text style="font-family: Helvetica; font-size: 10px;fill: rgb(0%,0%,0%); stroke:none;" transform="translate(0,0) scale(1,-1)" x="0" y="0">Gene_00619</text>
			</g>
			<g transform=" matrix(0.707107,0.707107,-0.707107,0.707107,1065.106929,251.827897)">
				<text style="font-family: Helvetica; font-size: 10px;fill: rgb(0%,0%,0%); stroke:none;" transform="translate(0,0) scale(1,-1)" x="0" y="0">Gene_00620</text>
			</g>
			<g transform=" matrix(0.707107,0.707107,-0.707107,0.707107,1102.332443,251.827897)">
				<text style="font-family: Helvetica; font-size: 10px;fill: rgb(0%,0%,0%); stroke:none;" transform="translate(0,0) scale(1,-1)" x="0" y="0">Gene_00621</text>
			</g>
			<g transform=" matrix(0.707107,0.707107,-0.707107,0.707107,1175.325846,251.827897)">
				<text style="font-family: Helvetica; font-size: 10px;fill: rgb(0%,0%,0%); stroke:none;" transform="translate(0,0) scale(1,-1)" x="0" y="0">Gene_00622</text>
			</g>
			<g transform=" matrix(0.707107,0.707107,-0.707107,0.707107,1242.797091,251.827897)">
				<text style="font-family: Helvetica; font-size: 10px;fill: rgb(0%,0%,0%); stroke:none;" transform="translate(0,0) scale(1,-1)" x="0" y="0">Gene_00623</text>
			</g>
			<g transform=" matrix(0.707107,0.707107,-0.707107,0.707107,1304.634052,251.827897)">
				<text style="font-family: Helvetica; font-size: 10px;fill: rgb(0%,0%,0%); stroke:none;" transform="translate(0,0) scale(1,-1)" x="0" y="0">Gene_00624</text>
			</g>
			<g transform=" matrix(0.707107,-0.707107,0.707107,0.707107,109.52125,456.833521)">
				<text style="font-family: Helvetica; font-size: 10px;fill: rgb(0%,0%,0%); stroke:none;" transform="translate(0,0) scale(1,-1)" x="0" y="0">Gene_01324</text>
			</g>
			<g transform=" matrix(0.707107,-0.707107,0.707107,0.707107,167.32171,456.833521)">
				<text style="font-family: Helvetica; font-size: 10px;fill: rgb(0%,0%,0%); stroke:none;" transform="translate(0,0) scale(1,-1)" x="0" y="0">Gene_01325</text>
			</g>
			<g transform=" matrix(0.707107,-0.707107,0.707107,0.707107,207.518538,456.833521)">
				<text style="font-family: Helvetica; font-size: 10px;fill: rgb(0%,0%,0%); stroke:none;" transform="translate(0,0) scale(1,-1)" x="0" y="0">Gene_01326</text>
			</g>
			<g transform=" matrix(0.707107,-0.707107,0.707107,0.707107,274.569314,456.833521)">
				<text style="font-family: Helvetica; font-size: 10px;fill: rgb(0%,0%,0%); stroke:none;" transform="translate(0,0) scale(1,-1)" x="0" y="0">Gene_01327</text>
			</g>
			<g transform=" matrix(0.707107,-0.707107,0.707107,0.707107,325.502114,456.833521)">
				<text style="font-family: Helvetica; font-size: 10px;fill: rgb(0%,0%,0%); stroke:none;" transform="translate(0,0) scale(1,-1)" x="0" y="0">Gene_01328</text>
			</g>
			<g transform=" matrix(0.707107,-0.707107,0.707107,0.707107,383.695012,456.833521)">
				<text style="font-family: Helvetica; font-size: 10px;fill: rgb(0%,0%,0%); stroke:none;" transform="translate(0,0) scale(1,-1)" x="0" y="0">Gene_01329</text>
			</g>
			<g transform=" matrix(0.707107,-0.707107,0.707107,0.707107,431.123905,456.833521)">
				<text style="font-family: Helvetica; font-size: 10px;fill: rgb(0%,0%,0%); stroke:none;" transform="translate(0,0) scale(1,-1)" x="0" y="0">Gene_01330</text>
			</g>
			<g transform=" matrix(0.707107,-0.707107,0.707107,0.707107,501.145994,456.833521)">
				<text style="font-family: Helvetica; font-size: 10px;fill: rgb(0%,0%,0%); stroke:none;" transform="translate(0,0) scale(1,-1)" x="0" y="0">Gene_01331</text>
			</g>
			<g transform=" matrix(0.707107,-0.707107,0.707107,0.707107,567.019457,456.833521)">
				<text style="font-family: Helvetica; font-size: 10px;fill: rgb(0%,0%,0%); stroke:none;" transform="translate(0,0) scale(1,-1)" x="0" y="0">Gene_01332</text>
			</g>
			<g transform=" matrix(0.707107,-0.707107,0.707107,0.707107,604.721503,456.833521)">
				<text style="font-family: Helvetica; font-size: 10px;fill: rgb(0%,0%,0%); stroke:none;" transform="translate(0,0) scale(1,-1)" x="0" y="0">Gene_01333</text>
			</g>
			<g transform=" matrix(0.707107,-0.707107,0.707107,0.707107,643.152361,456.833521)">
				<text style="font-family: Helvetica; font-size: 10px;fill: rgb(0%,0%,0%); stroke:none;" transform="translate(0,0) scale(1,-1)" x="0" y="0">Gene_01334</text>
			</g>
			<g transform=" matrix(0.707107,-0.707107,0.707107,0.707107,687.722066,456.833521)">
				<text style="font-family: Helvetica; font-size: 16px;fill: rgb(0%,0%,100%); stroke:none;" transform="translate(0,0) scale(1,-1)" x="0" y="0">Gene_01335 (84.0)</text>
			</g>
			<g transform=" matrix(0.707107,-0.707107,0.707107,0.707107,735.291115,456.833521)">
				<text style="font-family: Helvetica; font-size: 10px;fill: rgb(0%,0%,0%); stroke:none;" transform="translate(0,0) scale(1,-1)" x="0" y="0">Gene_01336</text>
			</g>
			<g transform=" matrix(0.707107,-0.707107,0.707107,0.707107,776.469037,456.833521)">
				<text style="font-family: Helvetica; font-size: 10px;fill: rgb(0%,0%,0%); stroke:none;" transform="translate(0,0) scale(1,-1)" x="0" y="0">Gene_01337</text>
			</g>
			<g transform=" matrix(0.707107,-0.707107,0.707107,0.707107,816.10524,456.833521)">
				<text style="font-family: Helvetica; font-size: 10px;fill: rgb(0%,0%,0%); stroke:none;" transform="translate(0,0) scale(1,-1)" x="0" y="0">Gene_01338</text>
			</g>
			<g transform=" matrix(0.707107,0.707107,-0.707107,0.707107,895.798114,538.835771)">
				<text style="font-family: Helvetica; font-size: 10px;fill: rgb(0%,0%,0%); stroke:none;" transform="translate(0,0) scale(1,-1)" x="0" y="0">Gene_01339</text>
			</g>
			<g transform=" matrix(0.707107,-0.707107,0.707107,0.707107,973.360612,456.833521)">
				<text style="font-family: Helvetica; font-size: 10px;fill: rgb(0%,0%,0%); stroke:none;" transform="translate(0,0) scale(1,-1)" x="0" y="0">Gene_01340</text>
			</g>
			<g transform=" matrix(0.707107,0.707107,-0.707107,0.707107,1014.538535,538.835771)">
				<text style="font-family: Helvetica; font-size: 10px;fill: rgb(0%,0%,0%); stroke:none;" transform="translate(0,0) scale(1,-1)" x="0" y="0">Gene_01341</text>
			</g>
			<g transform=" matrix(0.707107,-0.707107,0.707107,0.707107,1097.623191,456.833521)">
				<text style="font-family: Helvetica; font-size: 10px;fill: rgb(0%,0%,0%); stroke:none;" transform="translate(0,0) scale(1,-1)" x="0" y="0">Gene_01342</text>
			</g>
			<g transform=" matrix(0.707107,-0.707107,0.707107,0.707107,1207.617858,456.833521)">
				<text style="font-family: Helvetica; font-size: 10px;fill: rgb(0%,0%,0%); stroke:none;" transform="translate(0,0) scale(1,-1)" x="0" y="0">Gene_01343</text>
			</g>
			<g transform=" matrix(0.707107,-0.707107,0.707107,0.707107,1287.03042,456.833521)">
				<text style="font-family: Helvetica; font-size: 10px;fill: rgb(0%,0%,0%); stroke:none;" transform="translate(0,0) scale(1,-1)" x="0" y="0">Gene_01344</text>
			</g>
			<g transform=" matrix(1,0,-0,1,70,169.825647)">
				<text style="font-family: Helvetica; font-size: 12px;fill: rgb(60%,60%,60%); stroke:none;" transform="translate(0,0) scale(1,-1)" x="0" y="0">megahit_17858 (left 29985bp, right 22392bp)</text>
			</g>
			<g transform=" matrix(1,0,-0,1,70,456.833521)">
				<text style="font-family: Helvetica; font-size: 12px;fill: rgb(60%,60%,60%); stroke:none;" transform="translate(0,0) scale(1,-1)" x="0" y="0">megahit_61166 (left 18471bp, right 23936bp)</text>
			</g>
		</g>
	</g>
</svg>
