<?xml version="1.0" encoding="utf-8"?>
<!DOCTYPE svg
  PUBLIC '-//W3C//DTD SVG 1.0//EN'
  'http://www.w3.org/TR/2001/REC-SVG-20010904/DTD/svg10.dtd'>
<svg fill-rule="evenodd" height="708.6614173228346" preserveAspectRatio="xMinYMin meet" version="1.0" viewBox="0 0 1417 708" width="1417.3228346456692" xmlns="http://www.w3.org/2000/svg" xmlns:xlink="http://www.w3.org/1999/xlink">
	<title>...</title>
	<desc>...</desc>
	<clipPath id="clip">
		<rect height="708.6614173228346" width="1417.3228346456692" x="0" y="0"/>
	</clipPath>
	<g id="group" style="clip-path: url(#clip)" transform="scale(1,-1) translate(0,-708)">
		<g transform="">
			<polygon points="70.86614 169.8256, 248.9178 169.8256, 248.9178 251.8279, 70.86614 251.8279" style="stroke: rgb(96%,96%,96%); stroke-linecap: butt; stroke-width: 1; fill: rgb(96%,96%,96%); fill-rule: evenodd;"/>
			<polygon points="70.86614 456.8335, 1346.373 456.8335, 1346.373 538.8358, 70.86614 538.8358" style="stroke: rgb(96%,96%,96%); stroke-linecap: butt; stroke-width: 1; fill: rgb(96%,96%,96%); fill-rule: evenodd;"/>
			<polygon points="1067.235 456.8335, 1214.802 456.8335, 74.46738 251.8279, 222.0342 251.8279" style="stroke: rgb(100%,25%,25%); stroke-linecap: round; stroke-width: 1; fill: rgb(100%,25%,25%); fill-rule: evenodd;"/>
			<polygon points="73.37863 241.5776, 205.6338 241.5776, 205.6338 251.8279, 222.0342 231.3273, 205.6338 210.8268, 205.6338 221.0771, 73.37863 221.0771" style="stroke: rgb(67%,84%,90%); stroke-linecap: round; stroke-width: 1; fill: rgb(67%,84%,90%); fill-rule: evenodd;"/>
			<polygon points="326.3025 487.5844, 87.26659 487.5844, 87.26659 497.8346, 70.86614 477.3341, 87.26659 456.8335, 87.26659 467.0838, 326.3025 467.0838" style="stroke: rgb(56%,93%,56%); stroke-linecap: round; stroke-width: 1; fill: rgb(56%,93%,56%); fill-rule: evenodd;"/>
			<polygon points="405.8646 487.5844, 344.7129 487.5844, 344.7129 497.8346, 328.3125 477.3341, 344.7129 456.8335, 344.7129 467.0838, 405.8646 467.0838" style="stroke: rgb(56%,93%,56%); stroke-linecap: round; stroke-width: 1; fill: rgb(56%,93%,56%); fill-rule: evenodd;"/>
			<polygon points="489.6143 487.5844, 423.1863 487.5844, 423.1863 497.8346, 406.7859 477.3341, 423.1863 456.8335, 423.1863 467.0838, 489.6143 467.0838" style="stroke: rgb(56%,93%,56%); stroke-linecap: round; stroke-width: 1; fill: rgb(56%,93%,56%); fill-rule: evenodd;"/>
			<polygon points="637.3486 487.5844, 507.606 487.5844, 507.606 497.8346, 491.2055 477.3341, 507.606 456.8335, 507.606 467.0838, 637.3486 467.0838" style="stroke: rgb(56%,93%,56%); stroke-linecap: round; stroke-width: 1; fill: rgb(56%,93%,56%); fill-rule: evenodd;"/>
			<polygon points="746.3906 487.5844, 664.8878 487.5844, 664.8878 497.8346, 648.4873 477.3341, 664.8878 456.8335, 664.8878 467.0838, 746.3906 467.0838" style="stroke: rgb(56%,93%,56%); stroke-linecap: round; stroke-width: 1; fill: rgb(56%,93%,56%); fill-rule: evenodd;"/>
			<polygon points="817.1591 487.5844, 761.7861 487.5844, 761.7861 497.8346, 745.3856 477.3341, 761.7861 456.8335, 761.7861 467.0838, 817.1591 467.0838" style="stroke: rgb(56%,93%,56%); stroke-linecap: round; stroke-width: 1; fill: rgb(56%,93%,56%); fill-rule: evenodd;"/>
			<polygon points="827.2928 528.5855, 877.1383 528.5855, 877.1383 538.8358, 893.5387 518.3352, 877.1383 497.8346, 877.1383 508.0849, 827.2928 508.0849" style="stroke: rgb(67%,84%,90%); stroke-linecap: round; stroke-width: 1; fill: rgb(67%,84%,90%); fill-rule: evenodd;"/>
			<polygon points="1046.549 487.5844, 937.1578 487.5844, 937.1578 497.8346, 920.7573 477.3341, 937.1578 456.8335, 937.1578 467.0838, 1046.549 467.0838" style="stroke: rgb(56%,93%,56%); stroke-linecap: round; stroke-width: 1; fill: rgb(56%,93%,56%); fill-rule: evenodd;"/>
			<polygon points="1216.645 487.5844, 1083.636 487.5844, 1083.636 497.8346, 1067.235 477.3341, 1083.636 456.8335, 1083.636 467.0838, 1216.645 467.0838" style="stroke: rgb(56%,93%,56%); stroke-linecap: round; stroke-width: 1; fill: rgb(56%,93%,56%); fill-rule: evenodd;"/>
			<polygon points="1236.242 528.5855, 1308.198 528.5855, 1308.198 538.8358, 1324.598 518.3352, 1308.198 497.8346, 1308.198 508.0849, 1236.242 508.0849" style="stroke: rgb(67%,84%,90%); stroke-linecap: round; stroke-width: 1; fill: rgb(67%,84%,90%); fill-rule: evenodd;"/>
			<path d="M 248.917846,169.825647 L 248.917846,251.827897 Z" style="stroke: rgb(0%,0%,0%); stroke-linecap: butt; stroke-width: 1;"/>
			<path d="M 70.866142,210.826772 L 248.917846,210.826772 Z" style="stroke: rgb(0%,0%,0%); stroke-linecap: butt; stroke-width: 1;"/>
			<path d="M 70.866142,169.825647 L 70.866142,251.827897 Z" style="stroke: rgb(0%,0%,0%); stroke-linecap: butt; stroke-width: 1;"/>
			<path d="M 1346.372943,456.833521 L 1346.372943,538.835771 Z" style="stroke: rgb(0%,0%,0%); stroke-linecap: butt; stroke-width: 1;"/>
			<path d="M 70.866142,497.834646 L 1346.372943,497.834646 Z" style="stroke: rgb(0%,0%,0%); stroke-linecap: butt; stroke-width: 1;"/>
			<path d="M 70.866142,456.833521 L 70.866142,538.835771 Z" style="stroke: rgb(0%,0%,0%); stroke-linecap: butt; stroke-width: 1;"/>
			<path d="M 908.3624,497.834646 L 908.3624,518.335208 Z" style="stroke: rgb(0%,0%,0%); stroke-linecap: butt; stroke-width: 1;"/>
			<path d="M 908.3624,497.834646 L 908.3624,510.134983 Z" style="stroke: rgb(0%,0%,0%); stroke-linecap: butt; stroke-width: 1;"/>
			<g transform=" matrix(0.707107,0.707107,-0.707107,0.707107,908.3624,518.335208)">
				<text style="font-family: Helvetica; font-size: 6px;fill: rgb(0%,0%,0%); stroke:none;" transform="translate(0,0) scale(1,-1)" x="0" y="0">10000</text>
			</g>
			<g transform=" matrix(0.707107,0.707107,-0.707107,0.707107,147.706423,251.827897)">
				<text style="font-family: Helvetica; font-size: 16px;fill: rgb(0%,0%,100%); stroke:none;" transform="translate(0,0) scale(1,-1)" x="0" y="0">Gene_00491 (87.4)</text>
			</g>
			<g transform=" matrix(0.707107,-0.707107,0.707107,0.707107,198.584321,456.833521)">
				<text style="font-family: Helvetica; font-size: 10px;fill: rgb(0%,0%,0%); stroke:none;" transform="translate(0,0) scale(1,-1)" x="0" y="0">Gene_00203</text>
			</g>
			<g transform=" matrix(0.707107,-0.707107,0.707107,0.707107,367.088568,456.833521)">
				<text style="font-family: Helvetica; font-size: 10px;fill: rgb(0%,0%,0%); stroke:none;" transform="translate(0,0) scale(1,-1)" x="0" y="0">Gene_00204</text>
			</g>
			<g transform=" matrix(0.707107,-0.707107,0.707107,0.707107,448.200081,456.833521)">
				<text style="font-family: Helvetica; font-size: 10px;fill: rgb(0%,0%,0%); stroke:none;" transform="translate(0,0) scale(1,-1)" x="0" y="0">Gene_00205</text>
			</g>
			<g transform=" matrix(0.707107,-0.707107,0.707107,0.707107,564.277062,456.833521)">
				<text style="font-family: Helvetica; font-size: 10px;fill: rgb(0%,0%,0%); stroke:none;" transform="translate(0,0) scale(1,-1)" x="0" y="0">Gene_00206</text>
			</g>
			<g transform=" matrix(0.707107,-0.707107,0.707107,0.707107,697.438967,456.833521)">
				<text style="font-family: Helvetica; font-size: 10px;fill: rgb(0%,0%,0%); stroke:none;" transform="translate(0,0) scale(1,-1)" x="0" y="0">Gene_00207</text>
			</g>
			<g transform=" matrix(0.707107,-0.707107,0.707107,0.707107,781.272343,456.833521)">
				<text style="font-family: Helvetica; font-size: 10px;fill: rgb(0%,0%,0%); stroke:none;" transform="translate(0,0) scale(1,-1)" x="0" y="0">Gene_00208</text>
			</g>
			<g transform=" matrix(0.707107,0.707107,-0.707107,0.707107,860.415739,538.835771)">
				<text style="font-family: Helvetica; font-size: 10px;fill: rgb(0%,0%,0%); stroke:none;" transform="translate(0,0) scale(1,-1)" x="0" y="0">Gene_00209</text>
			</g>
			<g transform=" matrix(0.707107,-0.707107,0.707107,0.707107,983.653314,456.833521)">
				<text style="font-family: Helvetica; font-size: 10px;fill: rgb(0%,0%,0%); stroke:none;" transform="translate(0,0) scale(1,-1)" x="0" y="0">Gene_00210</text>
			</g>
			<g transform=" matrix(0.707107,-0.707107,0.707107,0.707107,1141.940107,456.833521)">
				<text style="font-family: Helvetica; font-size: 16px;fill: rgb(0%,0%,100%); stroke:none;" transform="translate(0,0) scale(1,-1)" x="0" y="0">Gene_00211 (87.4)</text>
			</g>
			<g transform=" matrix(0.707107,0.707107,-0.707107,0.707107,1280.420113,538.835771)">
				<text style="font-family: Helvetica; font-size: 10px;fill: rgb(0%,0%,0%); stroke:none;" transform="translate(0,0) scale(1,-1)" x="0" y="0">Gene_00212</text>
			</g>
			<g transform=" matrix(1,0,-0,1,70,456.833521)">
				<text style="font-family: Helvetica; font-size: 12px;fill: rgb(60%,60%,60%); stroke:none;" transform="translate(0,0) scale(1,-1)" x="0" y="0">megahit_15732 (left 18387bp, right 1549bp)</text>
			</g>
		</g>
	</g>
</svg>
