<?xml version="1.0" encoding="utf-8"?>
<!DOCTYPE svg
  PUBLIC '-//W3C//DTD SVG 1.0//EN'
  'http://www.w3.org/TR/2001/REC-SVG-20010904/DTD/svg10.dtd'>
<svg fill-rule="evenodd" height="708.6614173228346" preserveAspectRatio="xMinYMin meet" version="1.0" viewBox="0 0 1417 708" width="1417.3228346456692" xmlns="http://www.w3.org/2000/svg" xmlns:xlink="http://www.w3.org/1999/xlink">
	<title>...</title>
	<desc>...</desc>
	<clipPath id="clip">
		<rect height="708.6614173228346" width="1417.3228346456692" x="0" y="0"/>
	</clipPath>
	<g id="group" style="clip-path: url(#clip)" transform="scale(1,-1) translate(0,-708)">
		<g transform="">
			<polygon points="70.86614 169.8256, 1257.918 169.8256, 1257.918 251.8279, 70.86614 251.8279" style="stroke: rgb(96%,96%,96%); stroke-linecap: butt; stroke-width: 1; fill: rgb(96%,96%,96%); fill-rule: evenodd;"/>
			<polygon points="70.86614 456.8335, 1346.398 456.8335, 1346.398 538.8358, 70.86614 538.8358" style="stroke: rgb(96%,96%,96%); stroke-linecap: butt; stroke-width: 1; fill: rgb(96%,96%,96%); fill-rule: evenodd;"/>
			<polygon points="950.4607 456.8335, 1200.511 456.8335, 215.9925 251.8279, 464.0533 251.8279" style="stroke: rgb(100%,52%,52%); stroke-linecap: round; stroke-width: 1; fill: rgb(100%,52%,52%); fill-rule: evenodd;"/>
			<polygon points="543.6387 456.8335, 670.4487 456.8335, 735.463 251.8279, 864.1456 251.8279" style="stroke: rgb(100%,40%,40%); stroke-linecap: round; stroke-width: 1; fill: rgb(100%,40%,40%); fill-rule: evenodd;"/>
			<polygon points="707.9007 456.8335, 806.3291 456.8335, 597.8855 251.8279, 696.8406 251.8279" style="stroke: rgb(100%,40%,40%); stroke-linecap: round; stroke-width: 1; fill: rgb(100%,40%,40%); fill-rule: evenodd;"/>
			<polygon points="1202.267 456.8335, 1311.111 456.8335, 99.8329 251.8279, 209.3214 251.8279" style="stroke: rgb(100%,53%,53%); stroke-linecap: round; stroke-width: 1; fill: rgb(100%,53%,53%); fill-rule: evenodd;"/>
			<polygon points="837.9292 456.8335, 896.682 456.8335, 516.7201 251.8279, 575.4729 251.8279" style="stroke: rgb(100%,59%,59%); stroke-linecap: round; stroke-width: 1; fill: rgb(100%,59%,59%); fill-rule: evenodd;"/>
			<polygon points="1318.309 456.8335, 1335.455 456.8335, 81.22395 251.8279, 98.13585 251.8279" style="stroke: rgb(100%,28%,28%); stroke-linecap: round; stroke-width: 1; fill: rgb(100%,28%,28%); fill-rule: evenodd;"/>
			<polygon points="900.0761 456.8335, 941.6829 456.8335, 468.4422 251.8279, 509.9904 251.8279" style="stroke: rgb(100%,58%,58%); stroke-linecap: round; stroke-width: 1; fill: rgb(100%,58%,58%); fill-rule: evenodd;"/>
			<polygon points="671.9702 456.8335, 702.8681 456.8335, 697.4258 251.8279, 728.3822 251.8279" style="stroke: rgb(100%,54%,54%); stroke-linecap: round; stroke-width: 1; fill: rgb(100%,54%,54%); fill-rule: evenodd;"/>
			<polygon points="88.65583 241.5776, 88.65583 251.8279, 96.49733 231.3273, 88.65583 210.8268, 88.65583 221.0771" style="stroke: rgb(67%,84%,90%); stroke-linecap: round; stroke-width: 1; fill: rgb(67%,84%,90%); fill-rule: evenodd;"/>
			<polygon points="99.89142 241.5776, 103.0947 241.5776, 103.0947 251.8279, 119.4952 231.3273, 103.0947 210.8268, 103.0947 221.0771, 99.89142 221.0771" style="stroke: rgb(67%,84%,90%); stroke-linecap: round; stroke-width: 1; fill: rgb(67%,84%,90%); fill-rule: evenodd;"/>
			<polygon points="134.476 241.5776, 197.0172 241.5776, 197.0172 251.8279, 213.4177 231.3273, 197.0172 210.8268, 197.0172 221.0771, 134.476 221.0771" style="stroke: rgb(67%,84%,90%); stroke-linecap: round; stroke-width: 1; fill: rgb(67%,84%,90%); fill-rule: evenodd;"/>
			<polygon points="217.0458 241.5776, 249.3915 241.5776, 249.3915 251.8279, 265.7919 231.3273, 249.3915 210.8268, 249.3915 221.0771, 217.0458 221.0771" style="stroke: rgb(67%,84%,90%); stroke-linecap: round; stroke-width: 1; fill: rgb(67%,84%,90%); fill-rule: evenodd;"/>
			<polygon points="273.926 241.5776, 339.6273 241.5776, 339.6273 251.8279, 356.0278 231.3273, 339.6273 210.8268, 339.6273 221.0771, 273.926 221.0771" style="stroke: rgb(67%,84%,90%); stroke-linecap: round; stroke-width: 1; fill: rgb(67%,84%,90%); fill-rule: evenodd;"/>
			<polygon points="354.0381 241.5776, 448.355 241.5776, 448.355 251.8279, 464.7555 231.3273, 448.355 210.8268, 448.355 221.0771, 354.0381 221.0771" style="stroke: rgb(67%,84%,90%); stroke-linecap: round; stroke-width: 1; fill: rgb(67%,84%,90%); fill-rule: evenodd;"/>
			<polygon points="462.5903 241.5776, 493.3559 241.5776, 493.3559 251.8279, 509.7564 231.3273, 493.3559 210.8268, 493.3559 221.0771, 462.5903 221.0771" style="stroke: rgb(67%,84%,90%); stroke-linecap: round; stroke-width: 1; fill: rgb(67%,84%,90%); fill-rule: evenodd;"/>
			<polygon points="571.9032 200.5765, 532.0087 200.5765, 532.0087 210.8268, 515.6082 190.3262, 532.0087 169.8256, 532.0087 180.0759, 571.9032 180.0759" style="stroke: rgb(56%,93%,56%); stroke-linecap: round; stroke-width: 1; fill: rgb(56%,93%,56%); fill-rule: evenodd;"/>
			<polygon points="598.0026 241.5776, 626.486 241.5776, 626.486 251.8279, 642.8864 231.3273, 626.486 210.8268, 626.486 221.0771, 598.0026 221.0771" style="stroke: rgb(67%,84%,90%); stroke-linecap: round; stroke-width: 1; fill: rgb(67%,84%,90%); fill-rule: evenodd;"/>
			<polygon points="643.0034 241.5776, 680.4402 241.5776, 680.4402 251.8279, 696.8406 231.3273, 680.4402 210.8268, 680.4402 221.0771, 643.0034 221.0771" style="stroke: rgb(67%,84%,90%); stroke-linecap: round; stroke-width: 1; fill: rgb(67%,84%,90%); fill-rule: evenodd;"/>
			<polygon points="699.474 241.5776, 713.9129 241.5776, 713.9129 251.8279, 730.3133 231.3273, 713.9129 210.8268, 713.9129 221.0771, 699.474 221.0771" style="stroke: rgb(67%,84%,90%); stroke-linecap: round; stroke-width: 1; fill: rgb(67%,84%,90%); fill-rule: evenodd;"/>
			<polygon points="736.3408 241.5776, 795.1954 241.5776, 795.1954 251.8279, 811.5958 231.3273, 795.1954 210.8268, 795.1954 221.0771, 736.3408 221.0771" style="stroke: rgb(67%,84%,90%); stroke-linecap: round; stroke-width: 1; fill: rgb(67%,84%,90%); fill-rule: evenodd;"/>
			<polygon points="812.8247 241.5776, 847.6281 241.5776, 847.6281 251.8279, 864.0286 231.3273, 847.6281 210.8268, 847.6281 221.0771, 812.8247 221.0771" style="stroke: rgb(67%,84%,90%); stroke-linecap: round; stroke-width: 1; fill: rgb(67%,84%,90%); fill-rule: evenodd;"/>
			<polygon points="896.1553 241.5776, 934.4699 241.5776, 934.4699 251.8279, 950.8703 231.3273, 934.4699 210.8268, 934.4699 221.0771, 896.1553 221.0771" style="stroke: rgb(67%,84%,90%); stroke-linecap: round; stroke-width: 1; fill: rgb(67%,84%,90%); fill-rule: evenodd;"/>
			<polygon points="957.834 241.5776, 991.4085 241.5776, 991.4085 251.8279, 1007.809 231.3273, 991.4085 210.8268, 991.4085 221.0771, 957.834 221.0771" style="stroke: rgb(67%,84%,90%); stroke-linecap: round; stroke-width: 1; fill: rgb(67%,84%,90%); fill-rule: evenodd;"/>
			<polygon points="1007.633 241.5776, 1021.546 241.5776, 1021.546 251.8279, 1037.946 231.3273, 1021.546 210.8268, 1021.546 221.0771, 1007.633 221.0771" style="stroke: rgb(67%,84%,90%); stroke-linecap: round; stroke-width: 1; fill: rgb(67%,84%,90%); fill-rule: evenodd;"/>
			<polygon points="1038.765 241.5776, 1070.058 241.5776, 1070.058 251.8279, 1086.458 231.3273, 1070.058 210.8268, 1070.058 221.0771, 1038.765 221.0771" style="stroke: rgb(67%,84%,90%); stroke-linecap: round; stroke-width: 1; fill: rgb(67%,84%,90%); fill-rule: evenodd;"/>
			<polygon points="1087.921 241.5776, 1118.687 241.5776, 1118.687 251.8279, 1135.087 231.3273, 1118.687 210.8268, 1118.687 221.0771, 1087.921 221.0771" style="stroke: rgb(67%,84%,90%); stroke-linecap: round; stroke-width: 1; fill: rgb(67%,84%,90%); fill-rule: evenodd;"/>
			<polygon points="1202.618 200.5765, 1187.301 200.5765, 1187.301 210.8268, 1170.901 190.3262, 1187.301 169.8256, 1187.301 180.0759, 1202.618 180.0759" style="stroke: rgb(56%,93%,56%); stroke-linecap: round; stroke-width: 1; fill: rgb(56%,93%,56%); fill-rule: evenodd;"/>
			<polygon points="1219.881 200.5765, 1218.609 200.5765, 1218.609 210.8268, 1202.208 190.3262, 1218.609 169.8256, 1218.609 180.0759, 1219.881 180.0759" style="stroke: rgb(56%,93%,56%); stroke-linecap: round; stroke-width: 1; fill: rgb(56%,93%,56%); fill-rule: evenodd;"/>
			<polygon points="1244.751 200.5765, 1236.106 200.5765, 1236.106 210.8268, 1219.705 190.3262, 1236.106 169.8256, 1236.106 180.0759, 1244.751 180.0759" style="stroke: rgb(56%,93%,56%); stroke-linecap: round; stroke-width: 1; fill: rgb(56%,93%,56%); fill-rule: evenodd;"/>
			<polygon points="124.1767 487.5844, 87.26659 487.5844, 87.26659 497.8346, 70.86614 477.3341, 87.26659 456.8335, 87.26659 467.0838, 124.1767 467.0838" style="stroke: rgb(56%,93%,56%); stroke-linecap: round; stroke-width: 1; fill: rgb(56%,93%,56%); fill-rule: evenodd;"/>
			<polygon points="185.6798 487.5844, 146.1364 487.5844, 146.1364 497.8346, 129.736 477.3341, 146.1364 456.8335, 146.1364 467.0838, 185.6798 467.0838" style="stroke: rgb(56%,93%,56%); stroke-linecap: round; stroke-width: 1; fill: rgb(56%,93%,56%); fill-rule: evenodd;"/>
			<polygon points="243.3793 487.5844, 202.9581 487.5844, 202.9581 497.8346, 186.5576 477.3341, 202.9581 456.8335, 202.9581 467.0838, 243.3793 467.0838" style="stroke: rgb(56%,93%,56%); stroke-linecap: round; stroke-width: 1; fill: rgb(56%,93%,56%); fill-rule: evenodd;"/>
			<polygon points="296.4557 487.5844, 264.8123 487.5844, 264.8123 497.8346, 248.4119 477.3341, 264.8123 456.8335, 264.8123 467.0838, 296.4557 467.0838" style="stroke: rgb(56%,93%,56%); stroke-linecap: round; stroke-width: 1; fill: rgb(56%,93%,56%); fill-rule: evenodd;"/>
			<polygon points="345.3773 487.5844, 316.7184 487.5844, 316.7184 497.8346, 300.318 477.3341, 316.7184 456.8335, 316.7184 467.0838, 345.3773 467.0838" style="stroke: rgb(56%,93%,56%); stroke-linecap: round; stroke-width: 1; fill: rgb(56%,93%,56%); fill-rule: evenodd;"/>
			<polygon points="436.2569 487.5844, 362.1289 487.5844, 362.1289 497.8346, 345.7285 477.3341, 362.1289 456.8335, 362.1289 467.0838, 436.2569 467.0838" style="stroke: rgb(56%,93%,56%); stroke-linecap: round; stroke-width: 1; fill: rgb(56%,93%,56%); fill-rule: evenodd;"/>
			<polygon points="516.9542 487.5844, 454.5885 487.5844, 454.5885 497.8346, 438.188 477.3341, 454.5885 456.8335, 454.5885 467.0838, 516.9542 467.0838" style="stroke: rgb(56%,93%,56%); stroke-linecap: round; stroke-width: 1; fill: rgb(56%,93%,56%); fill-rule: evenodd;"/>
			<polygon points="594.9596 487.5844, 560.1562 487.5844, 560.1562 497.8346, 543.7557 477.3341, 560.1562 456.8335, 560.1562 467.0838, 594.9596 467.0838" style="stroke: rgb(56%,93%,56%); stroke-linecap: round; stroke-width: 1; fill: rgb(56%,93%,56%); fill-rule: evenodd;"/>
			<polygon points="669.5124 487.5844, 610.4823 487.5844, 610.4823 497.8346, 594.0818 477.3341, 610.4823 456.8335, 610.4823 467.0838, 669.5124 467.0838" style="stroke: rgb(56%,93%,56%); stroke-linecap: round; stroke-width: 1; fill: rgb(56%,93%,56%); fill-rule: evenodd;"/>
			<polygon points="700.8784 487.5844, 686.6151 487.5844, 686.6151 497.8346, 670.2146 477.3341, 686.6151 456.8335, 686.6151 467.0838, 700.8784 467.0838" style="stroke: rgb(56%,93%,56%); stroke-linecap: round; stroke-width: 1; fill: rgb(56%,93%,56%); fill-rule: evenodd;"/>
			<polygon points="761.2112 487.5844, 724.3011 487.5844, 724.3011 497.8346, 707.9007 477.3341, 724.3011 456.8335, 724.3011 467.0838, 761.2112 467.0838" style="stroke: rgb(56%,93%,56%); stroke-linecap: round; stroke-width: 1; fill: rgb(56%,93%,56%); fill-rule: evenodd;"/>
			<polygon points="806.2121 487.5844, 777.7287 487.5844, 777.7287 497.8346, 761.3282 477.3341, 777.7287 456.8335, 777.7287 467.0838, 806.2121 467.0838" style="stroke: rgb(56%,93%,56%); stroke-linecap: round; stroke-width: 1; fill: rgb(56%,93%,56%); fill-rule: evenodd;"/>
			<polygon points="841.4989 528.5855, 881.3934 528.5855, 881.3934 538.8358, 897.7938 518.3352, 881.3934 497.8346, 881.3934 508.0849, 841.4989 508.0849" style="stroke: rgb(67%,84%,90%); stroke-linecap: round; stroke-width: 1; fill: rgb(67%,84%,90%); fill-rule: evenodd;"/>
			<polygon points="942.0925 487.5844, 916.9447 487.5844, 916.9447 497.8346, 900.5442 477.3341, 916.9447 456.8335, 916.9447 467.0838, 942.0925 467.0838" style="stroke: rgb(56%,93%,56%); stroke-linecap: round; stroke-width: 1; fill: rgb(56%,93%,56%); fill-rule: evenodd;"/>
			<polygon points="1060.476 487.5844, 964.5789 487.5844, 964.5789 497.8346, 948.1784 477.3341, 964.5789 456.8335, 964.5789 467.0838, 1060.476 467.0838" style="stroke: rgb(56%,93%,56%); stroke-linecap: round; stroke-width: 1; fill: rgb(56%,93%,56%); fill-rule: evenodd;"/>
			<polygon points="1138.657 487.5844, 1074.887 487.5844, 1074.887 497.8346, 1058.486 477.3341, 1074.887 456.8335, 1074.887 467.0838, 1138.657 467.0838" style="stroke: rgb(56%,93%,56%); stroke-linecap: round; stroke-width: 1; fill: rgb(56%,93%,56%); fill-rule: evenodd;"/>
			<polygon points="1199.458 487.5844, 1164.654 487.5844, 1164.654 497.8346, 1148.254 477.3341, 1164.654 456.8335, 1164.654 467.0838, 1199.458 467.0838" style="stroke: rgb(56%,93%,56%); stroke-linecap: round; stroke-width: 1; fill: rgb(56%,93%,56%); fill-rule: evenodd;"/>
			<polygon points="1277.112 487.5844, 1215.975 487.5844, 1215.975 497.8346, 1199.575 477.3341, 1215.975 456.8335, 1215.975 467.0838, 1277.112 467.0838" style="stroke: rgb(56%,93%,56%); stroke-linecap: round; stroke-width: 1; fill: rgb(56%,93%,56%); fill-rule: evenodd;"/>
			<polygon points="1290.279 487.5844, 1290.279 497.8346, 1277.873 477.3341, 1290.279 456.8335, 1290.279 467.0838" style="stroke: rgb(56%,93%,56%); stroke-linecap: round; stroke-width: 1; fill: rgb(56%,93%,56%); fill-rule: evenodd;"/>
			<polygon points="1311.053 487.5844, 1307.674 487.5844, 1307.674 497.8346, 1291.274 477.3341, 1307.674 456.8335, 1307.674 467.0838, 1311.053 467.0838" style="stroke: rgb(56%,93%,56%); stroke-linecap: round; stroke-width: 1; fill: rgb(56%,93%,56%); fill-rule: evenodd;"/>
			<polygon points="1327.789 487.5844, 1327.789 497.8346, 1319.948 477.3341, 1327.789 456.8335, 1327.789 467.0838" style="stroke: rgb(56%,93%,56%); stroke-linecap: round; stroke-width: 1; fill: rgb(56%,93%,56%); fill-rule: evenodd;"/>
			<path d="M 1257.917905,169.825647 L 1257.917905,251.827897 Z" style="stroke: rgb(0%,0%,0%); stroke-linecap: butt; stroke-width: 1;"/>
			<path d="M 70.866142,210.826772 L 1257.917905,210.826772 Z" style="stroke: rgb(0%,0%,0%); stroke-linecap: butt; stroke-width: 1;"/>
			<path d="M 70.866142,169.825647 L 70.866142,251.827897 Z" style="stroke: rgb(0%,0%,0%); stroke-linecap: butt; stroke-width: 1;"/>
			<path d="M 656.053109,210.826772 L 656.053109,231.327334 Z" style="stroke: rgb(0%,0%,0%); stroke-linecap: butt; stroke-width: 1;"/>
			<path d="M 1241.240076,210.826772 L 1241.240076,231.327334 Z" style="stroke: rgb(0%,0%,0%); stroke-linecap: butt; stroke-width: 1;"/>
			<path d="M 656.053109,210.826772 L 656.053109,223.127109 Z" style="stroke: rgb(0%,0%,0%); stroke-linecap: butt; stroke-width: 1;"/>
			<path d="M 1241.240076,210.826772 L 1241.240076,223.127109 Z" style="stroke: rgb(0%,0%,0%); stroke-linecap: butt; stroke-width: 1;"/>
			<path d="M 1346.398174,456.833521 L 1346.398174,538.835771 Z" style="stroke: rgb(0%,0%,0%); stroke-linecap: butt; stroke-width: 1;"/>
			<path d="M 70.866142,497.834646 L 1346.398174,497.834646 Z" style="stroke: rgb(0%,0%,0%); stroke-linecap: butt; stroke-width: 1;"/>
			<path d="M 70.866142,456.833521 L 70.866142,538.835771 Z" style="stroke: rgb(0%,0%,0%); stroke-linecap: butt; stroke-width: 1;"/>
			<path d="M 656.053109,497.834646 L 656.053109,518.335208 Z" style="stroke: rgb(0%,0%,0%); stroke-linecap: butt; stroke-width: 1;"/>
			<path d="M 1241.240076,497.834646 L 1241.240076,518.335208 Z" style="stroke: rgb(0%,0%,0%); stroke-linecap: butt; stroke-width: 1;"/>
			<path d="M 656.053109,497.834646 L 656.053109,510.134983 Z" style="stroke: rgb(0%,0%,0%); stroke-linecap: butt; stroke-width: 1;"/>
			<path d="M 1241.240076,497.834646 L 1241.240076,510.134983 Z" style="stroke: rgb(0%,0%,0%); stroke-linecap: butt; stroke-width: 1;"/>
			<g transform=" matrix(0.707107,0.707107,-0.707107,0.707107,656.053109,231.327334)">
				<text style="font-family: Helvetica; font-size: 6px;fill: rgb(0%,0%,0%); stroke:none;" transform="translate(0,0) scale(1,-1)" x="0" y="0">10000</text>
			</g>
			<g transform=" matrix(0.707107,0.707107,-0.707107,0.707107,1241.240076,231.327334)">
				<text style="font-family: Helvetica; font-size: 6px;fill: rgb(0%,0%,0%); stroke:none;" transform="translate(0,0) scale(1,-1)" x="0" y="0">20000</text>
			</g>
			<g transform=" matrix(0.707107,0.707107,-0.707107,0.707107,656.053109,518.335208)">
				<text style="font-family: Helvetica; font-size: 6px;fill: rgb(0%,0%,0%); stroke:none;" transform="translate(0,0) scale(1,-1)" x="0" y="0">10000</text>
			</g>
			<g transform=" matrix(0.707107,0.707107,-0.707107,0.707107,1241.240076,518.335208)">
				<text style="font-family: Helvetica; font-size: 6px;fill: rgb(0%,0%,0%); stroke:none;" transform="translate(0,0) scale(1,-1)" x="0" y="0">20000</text>
			</g>
			<g transform=" matrix(0.707107,0.707107,-0.707107,0.707107,92.576578,251.827897)">
				<text style="font-family: Helvetica; font-size: 10px;fill: rgb(0%,0%,0%); stroke:none;" transform="translate(0,0) scale(1,-1)" x="0" y="0">Gene_03259</text>
			</g>
			<g transform=" matrix(0.707107,0.707107,-0.707107,0.707107,109.693297,251.827897)">
				<text style="font-family: Helvetica; font-size: 10px;fill: rgb(0%,0%,0%); stroke:none;" transform="translate(0,0) scale(1,-1)" x="0" y="0">Gene_03260</text>
			</g>
			<g transform=" matrix(0.707107,0.707107,-0.707107,0.707107,173.946826,251.827897)">
				<text style="font-family: Helvetica; font-size: 10px;fill: rgb(0%,0%,0%); stroke:none;" transform="translate(0,0) scale(1,-1)" x="0" y="0">Gene_03261</text>
			</g>
			<g transform=" matrix(0.707107,0.707107,-0.707107,0.707107,241.418883,251.827897)">
				<text style="font-family: Helvetica; font-size: 10px;fill: rgb(0%,0%,0%); stroke:none;" transform="translate(0,0) scale(1,-1)" x="0" y="0">Gene_03262</text>
			</g>
			<g transform=" matrix(0.707107,0.707107,-0.707107,0.707107,314.976885,251.827897)">
				<text style="font-family: Helvetica; font-size: 10px;fill: rgb(0%,0%,0%); stroke:none;" transform="translate(0,0) scale(1,-1)" x="0" y="0">Gene_03263</text>
			</g>
			<g transform=" matrix(0.707107,0.707107,-0.707107,0.707107,409.396802,251.827897)">
				<text style="font-family: Helvetica; font-size: 10px;fill: rgb(0%,0%,0%); stroke:none;" transform="translate(0,0) scale(1,-1)" x="0" y="0">Gene_03264</text>
			</g>
			<g transform=" matrix(0.707107,0.707107,-0.707107,0.707107,486.173332,251.827897)">
				<text style="font-family: Helvetica; font-size: 10px;fill: rgb(0%,0%,0%); stroke:none;" transform="translate(0,0) scale(1,-1)" x="0" y="0">Gene_03265</text>
			</g>
			<g transform=" matrix(0.707107,-0.707107,0.707107,0.707107,543.75573,169.825647)">
				<text style="font-family: Helvetica; font-size: 10px;fill: rgb(0%,0%,0%); stroke:none;" transform="translate(0,0) scale(1,-1)" x="0" y="0">Gene_03266</text>
			</g>
			<g transform=" matrix(0.707107,0.707107,-0.707107,0.707107,620.444482,251.827897)">
				<text style="font-family: Helvetica; font-size: 10px;fill: rgb(0%,0%,0%); stroke:none;" transform="translate(0,0) scale(1,-1)" x="0" y="0">Gene_03267</text>
			</g>
			<g transform=" matrix(0.707107,0.707107,-0.707107,0.707107,669.92204,251.827897)">
				<text style="font-family: Helvetica; font-size: 16px;fill: rgb(0%,0%,100%); stroke:none;" transform="translate(0,0) scale(1,-1)" x="0" y="0">Gene_03268 (79.0)</text>
			</g>
			<g transform=" matrix(0.707107,0.707107,-0.707107,0.707107,714.893659,251.827897)">
				<text style="font-family: Helvetica; font-size: 10px;fill: rgb(0%,0%,0%); stroke:none;" transform="translate(0,0) scale(1,-1)" x="0" y="0">Gene_03269</text>
			</g>
			<g transform=" matrix(0.707107,0.707107,-0.707107,0.707107,773.968283,251.827897)">
				<text style="font-family: Helvetica; font-size: 10px;fill: rgb(0%,0%,0%); stroke:none;" transform="translate(0,0) scale(1,-1)" x="0" y="0">Gene_03270</text>
			</g>
			<g transform=" matrix(0.707107,0.707107,-0.707107,0.707107,838.426627,251.827897)">
				<text style="font-family: Helvetica; font-size: 10px;fill: rgb(0%,0%,0%); stroke:none;" transform="translate(0,0) scale(1,-1)" x="0" y="0">Gene_03271</text>
			</g>
			<g transform=" matrix(0.707107,0.707107,-0.707107,0.707107,923.512812,251.827897)">
				<text style="font-family: Helvetica; font-size: 10px;fill: rgb(0%,0%,0%); stroke:none;" transform="translate(0,0) scale(1,-1)" x="0" y="0">Gene_03272</text>
			</g>
			<g transform=" matrix(0.707107,0.707107,-0.707107,0.707107,982.821511,251.827897)">
				<text style="font-family: Helvetica; font-size: 10px;fill: rgb(0%,0%,0%); stroke:none;" transform="translate(0,0) scale(1,-1)" x="0" y="0">Gene_03273</text>
			</g>
			<g transform=" matrix(0.707107,0.707107,-0.707107,0.707107,1022.789781,251.827897)">
				<text style="font-family: Helvetica; font-size: 10px;fill: rgb(0%,0%,0%); stroke:none;" transform="translate(0,0) scale(1,-1)" x="0" y="0">Gene_03274</text>
			</g>
			<g transform=" matrix(0.707107,0.707107,-0.707107,0.707107,1062.611754,251.827897)">
				<text style="font-family: Helvetica; font-size: 10px;fill: rgb(0%,0%,0%); stroke:none;" transform="translate(0,0) scale(1,-1)" x="0" y="0">Gene_03275</text>
			</g>
			<g transform=" matrix(0.707107,0.707107,-0.707107,0.707107,1111.504126,251.827897)">
				<text style="font-family: Helvetica; font-size: 10px;fill: rgb(0%,0%,0%); stroke:none;" transform="translate(0,0) scale(1,-1)" x="0" y="0">Gene_03276</text>
			</g>
			<g transform=" matrix(0.707107,-0.707107,0.707107,0.707107,1186.75917,169.825647)">
				<text style="font-family: Helvetica; font-size: 10px;fill: rgb(0%,0%,0%); stroke:none;" transform="translate(0,0) scale(1,-1)" x="0" y="0">Gene_03277</text>
			</g>
			<g transform=" matrix(0.707107,-0.707107,0.707107,0.707107,1211.044429,169.825647)">
				<text style="font-family: Helvetica; font-size: 10px;fill: rgb(0%,0%,0%); stroke:none;" transform="translate(0,0) scale(1,-1)" x="0" y="0">Gene_03278</text>
			</g>
			<g transform=" matrix(0.707107,-0.707107,0.707107,0.707107,1232.228197,169.825647)">
				<text style="font-family: Helvetica; font-size: 10px;fill: rgb(0%,0%,0%); stroke:none;" transform="translate(0,0) scale(1,-1)" x="0" y="0">Gene_03279</text>
			</g>
			<g transform=" matrix(0.707107,-0.707107,0.707107,0.707107,97.521408,456.833521)">
				<text style="font-family: Helvetica; font-size: 10px;fill: rgb(0%,0%,0%); stroke:none;" transform="translate(0,0) scale(1,-1)" x="0" y="0">Gene_00962</text>
			</g>
			<g transform=" matrix(0.707107,-0.707107,0.707107,0.707107,157.707888,456.833521)">
				<text style="font-family: Helvetica; font-size: 10px;fill: rgb(0%,0%,0%); stroke:none;" transform="translate(0,0) scale(1,-1)" x="0" y="0">Gene_00963</text>
			</g>
			<g transform=" matrix(0.707107,-0.707107,0.707107,0.707107,214.968432,456.833521)">
				<text style="font-family: Helvetica; font-size: 10px;fill: rgb(0%,0%,0%); stroke:none;" transform="translate(0,0) scale(1,-1)" x="0" y="0">Gene_00964</text>
			</g>
			<g transform=" matrix(0.707107,-0.707107,0.707107,0.707107,272.433793,456.833521)">
				<text style="font-family: Helvetica; font-size: 10px;fill: rgb(0%,0%,0%); stroke:none;" transform="translate(0,0) scale(1,-1)" x="0" y="0">Gene_00965</text>
			</g>
			<g transform=" matrix(0.707107,-0.707107,0.707107,0.707107,322.84765,456.833521)">
				<text style="font-family: Helvetica; font-size: 10px;fill: rgb(0%,0%,0%); stroke:none;" transform="translate(0,0) scale(1,-1)" x="0" y="0">Gene_00966</text>
			</g>
			<g transform=" matrix(0.707107,-0.707107,0.707107,0.707107,390.992672,456.833521)">
				<text style="font-family: Helvetica; font-size: 10px;fill: rgb(0%,0%,0%); stroke:none;" transform="translate(0,0) scale(1,-1)" x="0" y="0">Gene_00967</text>
			</g>
			<g transform=" matrix(0.707107,-0.707107,0.707107,0.707107,477.571084,456.833521)">
				<text style="font-family: Helvetica; font-size: 10px;fill: rgb(0%,0%,0%); stroke:none;" transform="translate(0,0) scale(1,-1)" x="0" y="0">Gene_00968</text>
			</g>
			<g transform=" matrix(0.707107,-0.707107,0.707107,0.707107,569.35766,456.833521)">
				<text style="font-family: Helvetica; font-size: 10px;fill: rgb(0%,0%,0%); stroke:none;" transform="translate(0,0) scale(1,-1)" x="0" y="0">Gene_00969</text>
			</g>
			<g transform=" matrix(0.707107,-0.707107,0.707107,0.707107,631.797109,456.833521)">
				<text style="font-family: Helvetica; font-size: 10px;fill: rgb(0%,0%,0%); stroke:none;" transform="translate(0,0) scale(1,-1)" x="0" y="0">Gene_00970</text>
			</g>
			<g transform=" matrix(0.707107,-0.707107,0.707107,0.707107,685.546532,456.833521)">
				<text style="font-family: Helvetica; font-size: 10px;fill: rgb(0%,0%,0%); stroke:none;" transform="translate(0,0) scale(1,-1)" x="0" y="0">Gene_00971</text>
			</g>
			<g transform=" matrix(0.707107,-0.707107,0.707107,0.707107,734.555941,456.833521)">
				<text style="font-family: Helvetica; font-size: 16px;fill: rgb(0%,0%,100%); stroke:none;" transform="translate(0,0) scale(1,-1)" x="0" y="0">Gene_00972 (79.0)</text>
			</g>
			<g transform=" matrix(0.707107,-0.707107,0.707107,0.707107,783.770165,456.833521)">
				<text style="font-family: Helvetica; font-size: 10px;fill: rgb(0%,0%,0%); stroke:none;" transform="translate(0,0) scale(1,-1)" x="0" y="0">Gene_00973</text>
			</g>
			<g transform=" matrix(0.707107,0.707107,-0.707107,0.707107,869.646352,538.835771)">
				<text style="font-family: Helvetica; font-size: 10px;fill: rgb(0%,0%,0%); stroke:none;" transform="translate(0,0) scale(1,-1)" x="0" y="0">Gene_00974</text>
			</g>
			<g transform=" matrix(0.707107,-0.707107,0.707107,0.707107,921.318361,456.833521)">
				<text style="font-family: Helvetica; font-size: 10px;fill: rgb(0%,0%,0%); stroke:none;" transform="translate(0,0) scale(1,-1)" x="0" y="0">Gene_00975</text>
			</g>
			<g transform=" matrix(0.707107,-0.707107,0.707107,0.707107,1004.327133,456.833521)">
				<text style="font-family: Helvetica; font-size: 10px;fill: rgb(0%,0%,0%); stroke:none;" transform="translate(0,0) scale(1,-1)" x="0" y="0">Gene_00976</text>
			</g>
			<g transform=" matrix(0.707107,-0.707107,0.707107,0.707107,1098.571494,456.833521)">
				<text style="font-family: Helvetica; font-size: 10px;fill: rgb(0%,0%,0%); stroke:none;" transform="translate(0,0) scale(1,-1)" x="0" y="0">Gene_00977</text>
			</g>
			<g transform=" matrix(0.707107,-0.707107,0.707107,0.707107,1173.855797,456.833521)">
				<text style="font-family: Helvetica; font-size: 10px;fill: rgb(0%,0%,0%); stroke:none;" transform="translate(0,0) scale(1,-1)" x="0" y="0">Gene_00978</text>
			</g>
			<g transform=" matrix(0.707107,-0.707107,0.707107,0.707107,1238.343401,456.833521)">
				<text style="font-family: Helvetica; font-size: 10px;fill: rgb(0%,0%,0%); stroke:none;" transform="translate(0,0) scale(1,-1)" x="0" y="0">Gene_00979</text>
			</g>
			<g transform=" matrix(0.707107,-0.707107,0.707107,0.707107,1284.075762,456.833521)">
				<text style="font-family: Helvetica; font-size: 10px;fill: rgb(0%,0%,0%); stroke:none;" transform="translate(0,0) scale(1,-1)" x="0" y="0">Gene_00980</text>
			</g>
			<g transform=" matrix(0.707107,-0.707107,0.707107,0.707107,1301.163222,456.833521)">
				<text style="font-family: Helvetica; font-size: 10px;fill: rgb(0%,0%,0%); stroke:none;" transform="translate(0,0) scale(1,-1)" x="0" y="0">Gene_00981</text>
			</g>
			<g transform=" matrix(0.707107,-0.707107,0.707107,0.707107,1323.868476,456.833521)">
				<text style="font-family: Helvetica; font-size: 10px;fill: rgb(0%,0%,0%); stroke:none;" transform="translate(0,0) scale(1,-1)" x="0" y="0">Gene_00982</text>
			</g>
			<g transform=" matrix(1,0,-0,1,70,169.825647)">
				<text style="font-family: Helvetica; font-size: 12px;fill: rgb(60%,60%,60%); stroke:none;" transform="translate(0,0) scale(1,-1)" x="0" y="0">megahit_32699 (left 9777bp, right 9588bp)</text>
			</g>
			<g transform=" matrix(1,0,-0,1,70,456.833521)">
				<text style="font-family: Helvetica; font-size: 12px;fill: rgb(60%,60%,60%); stroke:none;" transform="translate(0,0) scale(1,-1)" x="0" y="0">megahit_32173 (left 20809bp, right 49885bp)</text>
			</g>
		</g>
	</g>
</svg>
