<?xml version="1.0" encoding="utf-8"?>
<!DOCTYPE svg
  PUBLIC '-//W3C//DTD SVG 1.0//EN'
  'http://www.w3.org/TR/2001/REC-SVG-20010904/DTD/svg10.dtd'>
<svg fill-rule="evenodd" height="708.6614173228346" preserveAspectRatio="xMinYMin meet" version="1.0" viewBox="0 0 1417 708" width="1417.3228346456692" xmlns="http://www.w3.org/2000/svg" xmlns:xlink="http://www.w3.org/1999/xlink">
	<title>...</title>
	<desc>...</desc>
	<clipPath id="clip">
		<rect height="708.6614173228346" width="1417.3228346456692" x="0" y="0"/>
	</clipPath>
	<g id="group" style="clip-path: url(#clip)" transform="scale(1,-1) translate(0,-708)">
		<g transform="">
			<polygon points="70.86614 169.8256, 670.7362 169.8256, 670.7362 251.8279, 70.86614 251.8279" style="stroke: rgb(96%,96%,96%); stroke-linecap: butt; stroke-width: 1; fill: rgb(96%,96%,96%); fill-rule: evenodd;"/>
			<polygon points="70.86614 456.8335, 1346.373 456.8335, 1346.373 538.8358, 70.86614 538.8358" style="stroke: rgb(96%,96%,96%); stroke-linecap: butt; stroke-width: 1; fill: rgb(96%,96%,96%); fill-rule: evenodd;"/>
			<polygon points="271.6025 456.8335, 508.0921 456.8335, 429.3179 251.8279, 670.7362 251.8279" style="stroke: rgb(100%,38%,38%); stroke-linecap: round; stroke-width: 1; fill: rgb(100%,38%,38%); fill-rule: evenodd;"/>
			<polygon points="79.05264 241.5776, 90.38605 241.5776, 90.38605 251.8279, 106.7865 231.3273, 90.38605 210.8268, 90.38605 221.0771, 79.05264 221.0771" style="stroke: rgb(67%,84%,90%); stroke-linecap: round; stroke-width: 1; fill: rgb(67%,84%,90%); fill-rule: evenodd;"/>
			<polygon points="113.2188 241.5776, 129.8149 241.5776, 129.8149 251.8279, 146.2154 231.3273, 129.8149 210.8268, 129.8149 221.0771, 113.2188 221.0771" style="stroke: rgb(67%,84%,90%); stroke-linecap: round; stroke-width: 1; fill: rgb(67%,84%,90%); fill-rule: evenodd;"/>
			<polygon points="154.4854 241.5776, 208.6726 241.5776, 208.6726 251.8279, 225.0731 231.3273, 208.6726 210.8268, 208.6726 221.0771, 154.4854 221.0771" style="stroke: rgb(67%,84%,90%); stroke-linecap: round; stroke-width: 1; fill: rgb(67%,84%,90%); fill-rule: evenodd;"/>
			<polygon points="225.1566 241.5776, 283.103 241.5776, 283.103 251.8279, 299.5034 231.3273, 283.103 210.8268, 283.103 221.0771, 225.1566 221.0771" style="stroke: rgb(67%,84%,90%); stroke-linecap: round; stroke-width: 1; fill: rgb(67%,84%,90%); fill-rule: evenodd;"/>
			<polygon points="299.2528 241.5776, 346.6737 241.5776, 346.6737 251.8279, 363.0741 231.3273, 346.6737 210.8268, 346.6737 221.0771, 299.2528 221.0771" style="stroke: rgb(67%,84%,90%); stroke-linecap: round; stroke-width: 1; fill: rgb(67%,84%,90%); fill-rule: evenodd;"/>
			<polygon points="364.2436 241.5776, 390.1122 241.5776, 390.1122 251.8279, 406.5127 231.3273, 390.1122 210.8268, 390.1122 221.0771, 364.2436 221.0771" style="stroke: rgb(67%,84%,90%); stroke-linecap: round; stroke-width: 1; fill: rgb(67%,84%,90%); fill-rule: evenodd;"/>
			<polygon points="565.6483 200.5765, 446.0525 200.5765, 446.0525 210.8268, 429.6521 190.3262, 446.0525 169.8256, 446.0525 180.0759, 565.6483 180.0759" style="stroke: rgb(56%,93%,56%); stroke-linecap: round; stroke-width: 1; fill: rgb(56%,93%,56%); fill-rule: evenodd;"/>
			<polygon points="593.4656 200.5765, 586.142 200.5765, 586.142 210.8268, 569.7415 190.3262, 586.142 169.8256, 586.142 180.0759, 593.4656 180.0759" style="stroke: rgb(56%,93%,56%); stroke-linecap: round; stroke-width: 1; fill: rgb(56%,93%,56%); fill-rule: evenodd;"/>
			<polygon points="617.1063 241.5776, 639.2158 241.5776, 639.2158 251.8279, 655.6162 231.3273, 639.2158 210.8268, 639.2158 221.0771, 617.1063 221.0771" style="stroke: rgb(67%,84%,90%); stroke-linecap: round; stroke-width: 1; fill: rgb(67%,84%,90%); fill-rule: evenodd;"/>
			<polygon points="172.5291 487.5844, 121.0986 487.5844, 121.0986 497.8346, 104.6981 477.3341, 121.0986 456.8335, 121.0986 467.0838, 172.5291 467.0838" style="stroke: rgb(56%,93%,56%); stroke-linecap: round; stroke-width: 1; fill: rgb(56%,93%,56%); fill-rule: evenodd;"/>
			<polygon points="239.9425 487.5844, 197.5338 487.5844, 197.5338 497.8346, 181.1333 477.3341, 197.5338 456.8335, 197.5338 467.0838, 239.9425 467.0838" style="stroke: rgb(56%,93%,56%); stroke-linecap: round; stroke-width: 1; fill: rgb(56%,93%,56%); fill-rule: evenodd;"/>
			<polygon points="286.2212 487.5844, 259.0996 487.5844, 259.0996 497.8346, 242.6991 477.3341, 259.0996 456.8335, 259.0996 467.0838, 286.2212 467.0838" style="stroke: rgb(56%,93%,56%); stroke-linecap: round; stroke-width: 1; fill: rgb(56%,93%,56%); fill-rule: evenodd;"/>
			<polygon points="325.9843 487.5844, 303.8747 487.5844, 303.8747 497.8346, 287.4743 477.3341, 303.8747 456.8335, 303.8747 467.0838, 325.9843 467.0838" style="stroke: rgb(56%,93%,56%); stroke-linecap: round; stroke-width: 1; fill: rgb(56%,93%,56%); fill-rule: evenodd;"/>
			<polygon points="346.4505 528.5855, 353.7742 528.5855, 353.7742 538.8358, 370.1747 518.3352, 353.7742 497.8346, 353.7742 508.0849, 346.4505 508.0849" style="stroke: rgb(67%,84%,90%); stroke-linecap: round; stroke-width: 1; fill: rgb(67%,84%,90%); fill-rule: evenodd;"/>
			<polygon points="371.7618 528.5855, 491.3575 528.5855, 491.3575 538.8358, 507.758 518.3352, 491.3575 497.8346, 491.3575 508.0849, 371.7618 508.0849" style="stroke: rgb(67%,84%,90%); stroke-linecap: round; stroke-width: 1; fill: rgb(67%,84%,90%); fill-rule: evenodd;"/>
			<polygon points="607.4161 487.5844, 536.6888 487.5844, 536.6888 497.8346, 520.2884 477.3341, 536.6888 456.8335, 536.6888 467.0838, 607.4161 467.0838" style="stroke: rgb(56%,93%,56%); stroke-linecap: round; stroke-width: 1; fill: rgb(56%,93%,56%); fill-rule: evenodd;"/>
			<polygon points="624.3739 528.5855, 649.2401 528.5855, 649.2401 538.8358, 665.6405 518.3352, 649.2401 497.8346, 649.2401 508.0849, 624.3739 508.0849" style="stroke: rgb(67%,84%,90%); stroke-linecap: round; stroke-width: 1; fill: rgb(67%,84%,90%); fill-rule: evenodd;"/>
			<polygon points="776.2418 487.5844, 688.7238 487.5844, 688.7238 497.8346, 672.3234 477.3341, 688.7238 456.8335, 688.7238 467.0838, 776.2418 467.0838" style="stroke: rgb(56%,93%,56%); stroke-linecap: round; stroke-width: 1; fill: rgb(56%,93%,56%); fill-rule: evenodd;"/>
			<polygon points="850.8392 487.5844, 791.6398 487.5844, 791.6398 497.8346, 775.2394 477.3341, 791.6398 456.8335, 791.6398 467.0838, 850.8392 467.0838" style="stroke: rgb(56%,93%,56%); stroke-linecap: round; stroke-width: 1; fill: rgb(56%,93%,56%); fill-rule: evenodd;"/>
			<polygon points="1019.08 487.5844, 867.4067 487.5844, 867.4067 497.8346, 851.0063 477.3341, 867.4067 456.8335, 867.4067 467.0838, 1019.08 467.0838" style="stroke: rgb(56%,93%,56%); stroke-linecap: round; stroke-width: 1; fill: rgb(56%,93%,56%); fill-rule: evenodd;"/>
			<polygon points="1234.936 487.5844, 1033.643 487.5844, 1033.643 497.8346, 1017.242 477.3341, 1033.643 456.8335, 1033.643 467.0838, 1234.936 467.0838" style="stroke: rgb(56%,93%,56%); stroke-linecap: round; stroke-width: 1; fill: rgb(56%,93%,56%); fill-rule: evenodd;"/>
			<polygon points="1346.373 487.5844, 1251.086 487.5844, 1251.086 497.8346, 1234.686 477.3341, 1251.086 456.8335, 1251.086 467.0838, 1346.373 467.0838" style="stroke: rgb(56%,93%,56%); stroke-linecap: round; stroke-width: 1; fill: rgb(56%,93%,56%); fill-rule: evenodd;"/>
			<path d="M 670.736197,169.825647 L 670.736197,251.827897 Z" style="stroke: rgb(0%,0%,0%); stroke-linecap: butt; stroke-width: 1;"/>
			<path d="M 70.866142,210.826772 L 670.736197,210.826772 Z" style="stroke: rgb(0%,0%,0%); stroke-linecap: butt; stroke-width: 1;"/>
			<path d="M 70.866142,169.825647 L 70.866142,251.827897 Z" style="stroke: rgb(0%,0%,0%); stroke-linecap: butt; stroke-width: 1;"/>
			<path d="M 1346.373157,456.833521 L 1346.373157,538.835771 Z" style="stroke: rgb(0%,0%,0%); stroke-linecap: butt; stroke-width: 1;"/>
			<path d="M 70.866142,497.834646 L 1346.373157,497.834646 Z" style="stroke: rgb(0%,0%,0%); stroke-linecap: butt; stroke-width: 1;"/>
			<path d="M 70.866142,456.833521 L 70.866142,538.835771 Z" style="stroke: rgb(0%,0%,0%); stroke-linecap: butt; stroke-width: 1;"/>
			<path d="M 906.223412,497.834646 L 906.223412,518.335208 Z" style="stroke: rgb(0%,0%,0%); stroke-linecap: butt; stroke-width: 1;"/>
			<path d="M 906.223412,497.834646 L 906.223412,510.134983 Z" style="stroke: rgb(0%,0%,0%); stroke-linecap: butt; stroke-width: 1;"/>
			<g transform=" matrix(0.707107,0.707107,-0.707107,0.707107,906.223412,518.335208)">
				<text style="font-family: Helvetica; font-size: 6px;fill: rgb(0%,0%,0%); stroke:none;" transform="translate(0,0) scale(1,-1)" x="0" y="0">10000</text>
			</g>
			<g transform=" matrix(0.707107,0.707107,-0.707107,0.707107,92.919574,251.827897)">
				<text style="font-family: Helvetica; font-size: 10px;fill: rgb(0%,0%,0%); stroke:none;" transform="translate(0,0) scale(1,-1)" x="0" y="0">Gene_00383</text>
			</g>
			<g transform=" matrix(0.707107,0.707107,-0.707107,0.707107,129.717061,251.827897)">
				<text style="font-family: Helvetica; font-size: 10px;fill: rgb(0%,0%,0%); stroke:none;" transform="translate(0,0) scale(1,-1)" x="0" y="0">Gene_00384</text>
			</g>
			<g transform=" matrix(0.707107,0.707107,-0.707107,0.707107,189.779249,251.827897)">
				<text style="font-family: Helvetica; font-size: 10px;fill: rgb(0%,0%,0%); stroke:none;" transform="translate(0,0) scale(1,-1)" x="0" y="0">Gene_00385</text>
			</g>
			<g transform=" matrix(0.707107,0.707107,-0.707107,0.707107,262.330028,251.827897)">
				<text style="font-family: Helvetica; font-size: 10px;fill: rgb(0%,0%,0%); stroke:none;" transform="translate(0,0) scale(1,-1)" x="0" y="0">Gene_00386</text>
			</g>
			<g transform=" matrix(0.707107,0.707107,-0.707107,0.707107,331.163467,251.827897)">
				<text style="font-family: Helvetica; font-size: 10px;fill: rgb(0%,0%,0%); stroke:none;" transform="translate(0,0) scale(1,-1)" x="0" y="0">Gene_00387</text>
			</g>
			<g transform=" matrix(0.707107,0.707107,-0.707107,0.707107,385.378154,251.827897)">
				<text style="font-family: Helvetica; font-size: 10px;fill: rgb(0%,0%,0%); stroke:none;" transform="translate(0,0) scale(1,-1)" x="0" y="0">Gene_00388</text>
			</g>
			<g transform=" matrix(0.707107,-0.707107,0.707107,0.707107,497.650171,169.825647)">
				<text style="font-family: Helvetica; font-size: 16px;fill: rgb(0%,0%,100%); stroke:none;" transform="translate(0,0) scale(1,-1)" x="0" y="0">Gene_00389 (85.5)</text>
			</g>
			<g transform=" matrix(0.707107,-0.707107,0.707107,0.707107,581.603577,169.825647)">
				<text style="font-family: Helvetica; font-size: 10px;fill: rgb(0%,0%,0%); stroke:none;" transform="translate(0,0) scale(1,-1)" x="0" y="0">Gene_00390</text>
			</g>
			<g transform=" matrix(0.707107,0.707107,-0.707107,0.707107,636.361246,251.827897)">
				<text style="font-family: Helvetica; font-size: 10px;fill: rgb(0%,0%,0%); stroke:none;" transform="translate(0,0) scale(1,-1)" x="0" y="0">Gene_00391</text>
			</g>
			<g transform=" matrix(0.707107,-0.707107,0.707107,0.707107,138.613616,456.833521)">
				<text style="font-family: Helvetica; font-size: 10px;fill: rgb(0%,0%,0%); stroke:none;" transform="translate(0,0) scale(1,-1)" x="0" y="0">Gene_00279</text>
			</g>
			<g transform=" matrix(0.707107,-0.707107,0.707107,0.707107,210.537877,456.833521)">
				<text style="font-family: Helvetica; font-size: 10px;fill: rgb(0%,0%,0%); stroke:none;" transform="translate(0,0) scale(1,-1)" x="0" y="0">Gene_00280</text>
			</g>
			<g transform=" matrix(0.707107,-0.707107,0.707107,0.707107,264.460189,456.833521)">
				<text style="font-family: Helvetica; font-size: 10px;fill: rgb(0%,0%,0%); stroke:none;" transform="translate(0,0) scale(1,-1)" x="0" y="0">Gene_00281</text>
			</g>
			<g transform=" matrix(0.707107,-0.707107,0.707107,0.707107,306.729267,456.833521)">
				<text style="font-family: Helvetica; font-size: 10px;fill: rgb(0%,0%,0%); stroke:none;" transform="translate(0,0) scale(1,-1)" x="0" y="0">Gene_00282</text>
			</g>
			<g transform=" matrix(0.707107,0.707107,-0.707107,0.707107,358.312578,538.835771)">
				<text style="font-family: Helvetica; font-size: 10px;fill: rgb(0%,0%,0%); stroke:none;" transform="translate(0,0) scale(1,-1)" x="0" y="0">Gene_00283</text>
			</g>
			<g transform=" matrix(0.707107,0.707107,-0.707107,0.707107,439.759912,538.835771)">
				<text style="font-family: Helvetica; font-size: 16px;fill: rgb(0%,0%,100%); stroke:none;" transform="translate(0,0) scale(1,-1)" x="0" y="0">Gene_00284 (85.5)</text>
			</g>
			<g transform=" matrix(0.707107,-0.707107,0.707107,0.707107,563.852235,456.833521)">
				<text style="font-family: Helvetica; font-size: 10px;fill: rgb(0%,0%,0%); stroke:none;" transform="translate(0,0) scale(1,-1)" x="0" y="0">Gene_00285</text>
			</g>
			<g transform=" matrix(0.707107,0.707107,-0.707107,0.707107,645.007193,538.835771)">
				<text style="font-family: Helvetica; font-size: 10px;fill: rgb(0%,0%,0%); stroke:none;" transform="translate(0,0) scale(1,-1)" x="0" y="0">Gene_00286</text>
			</g>
			<g transform=" matrix(0.707107,-0.707107,0.707107,0.707107,724.282598,456.833521)">
				<text style="font-family: Helvetica; font-size: 10px;fill: rgb(0%,0%,0%); stroke:none;" transform="translate(0,0) scale(1,-1)" x="0" y="0">Gene_00287</text>
			</g>
			<g transform=" matrix(0.707107,-0.707107,0.707107,0.707107,813.039308,456.833521)">
				<text style="font-family: Helvetica; font-size: 10px;fill: rgb(0%,0%,0%); stroke:none;" transform="translate(0,0) scale(1,-1)" x="0" y="0">Gene_00288</text>
			</g>
			<g transform=" matrix(0.707107,-0.707107,0.707107,0.707107,935.043237,456.833521)">
				<text style="font-family: Helvetica; font-size: 10px;fill: rgb(0%,0%,0%); stroke:none;" transform="translate(0,0) scale(1,-1)" x="0" y="0">Gene_00289</text>
			</g>
			<g transform=" matrix(0.707107,-0.707107,0.707107,0.707107,1126.089445,456.833521)">
				<text style="font-family: Helvetica; font-size: 10px;fill: rgb(0%,0%,0%); stroke:none;" transform="translate(0,0) scale(1,-1)" x="0" y="0">Gene_00290</text>
			</g>
			<g transform=" matrix(0.707107,-0.707107,0.707107,0.707107,1290.529524,456.833521)">
				<text style="font-family: Helvetica; font-size: 10px;fill: rgb(0%,0%,0%); stroke:none;" transform="translate(0,0) scale(1,-1)" x="0" y="0">Gene_00291</text>
			</g>
			<g transform=" matrix(1,0,-0,1,70,169.825647)">
				<text style="font-family: Helvetica; font-size: 12px;fill: rgb(60%,60%,60%); stroke:none;" transform="translate(0,0) scale(1,-1)" x="0" y="0">megahit_27554 (left 4295bp, right 1258bp)</text>
			</g>
			<g transform=" matrix(1,0,-0,1,70,456.833521)">
				<text style="font-family: Helvetica; font-size: 12px;fill: rgb(60%,60%,60%); stroke:none;" transform="translate(0,0) scale(1,-1)" x="0" y="0">megahit_21197 (left 3602bp, right 23811bp)</text>
			</g>
		</g>
	</g>
</svg>
