<?xml version="1.0" encoding="utf-8"?>
<!DOCTYPE svg
  PUBLIC '-//W3C//DTD SVG 1.0//EN'
  'http://www.w3.org/TR/2001/REC-SVG-20010904/DTD/svg10.dtd'>
<svg fill-rule="evenodd" height="708.6614173228346" preserveAspectRatio="xMinYMin meet" version="1.0" viewBox="0 0 1417 708" width="1417.3228346456692" xmlns="http://www.w3.org/2000/svg" xmlns:xlink="http://www.w3.org/1999/xlink">
	<title>...</title>
	<desc>...</desc>
	<clipPath id="clip">
		<rect height="708.6614173228346" width="1417.3228346456692" x="0" y="0"/>
	</clipPath>
	<g id="group" style="clip-path: url(#clip)" transform="scale(1,-1) translate(0,-708)">
		<g transform="">
			<polygon points="70.86614 169.8256, 135.7074 169.8256, 135.7074 251.8279, 70.86614 251.8279" style="stroke: rgb(96%,96%,96%); stroke-linecap: butt; stroke-width: 1; fill: rgb(96%,96%,96%); fill-rule: evenodd;"/>
			<polygon points="70.86614 456.8335, 1346.4 456.8335, 1346.4 538.8358, 70.86614 538.8358" style="stroke: rgb(96%,96%,96%); stroke-linecap: butt; stroke-width: 1; fill: rgb(96%,96%,96%); fill-rule: evenodd;"/>
			<polygon points="664.3428 456.8335, 699.2398 456.8335, 135.1381 251.8279, 100.4119 251.8279" style="stroke: rgb(100%,44%,44%); stroke-linecap: round; stroke-width: 1; fill: rgb(100%,44%,44%); fill-rule: evenodd;"/>
			<polygon points="1157.74 456.8335, 1184.325 456.8335, 100.4688 251.8279, 127.0543 251.8279" style="stroke: rgb(100%,43%,43%); stroke-linecap: round; stroke-width: 1; fill: rgb(100%,43%,43%); fill-rule: evenodd;"/>
			<polygon points="72.4032 241.5776, 83.95451 241.5776, 83.95451 251.8279, 100.355 231.3273, 83.95451 210.8268, 83.95451 221.0771, 72.4032 221.0771" style="stroke: rgb(67%,84%,90%); stroke-linecap: round; stroke-width: 1; fill: rgb(67%,84%,90%); fill-rule: evenodd;"/>
			<polygon points="100.4688 241.5776, 118.1684 241.5776, 118.1684 251.8279, 134.5688 231.3273, 118.1684 210.8268, 118.1684 221.0771, 100.4688 221.0771" style="stroke: rgb(67%,84%,90%); stroke-linecap: round; stroke-width: 1; fill: rgb(67%,84%,90%); fill-rule: evenodd;"/>
			<polygon points="70.86614 528.5855, 97.27571 528.5855, 97.27571 538.8358, 113.6762 518.3352, 97.27571 497.8346, 97.27571 508.0849, 70.86614 508.0849" style="stroke: rgb(67%,84%,90%); stroke-linecap: round; stroke-width: 1; fill: rgb(67%,84%,90%); fill-rule: evenodd;"/>
			<polygon points="134.8535 528.5855, 163.654 528.5855, 163.654 538.8358, 180.0545 518.3352, 163.654 497.8346, 163.654 508.0849, 134.8535 508.0849" style="stroke: rgb(67%,84%,90%); stroke-linecap: round; stroke-width: 1; fill: rgb(67%,84%,90%); fill-rule: evenodd;"/>
			<polygon points="235.8441 487.5844, 232.832 487.5844, 232.832 497.8346, 216.4316 477.3341, 232.832 456.8335, 232.832 467.0838, 235.8441 467.0838" style="stroke: rgb(56%,93%,56%); stroke-linecap: round; stroke-width: 1; fill: rgb(56%,93%,56%); fill-rule: evenodd;"/>
			<polygon points="264.2513 487.5844, 253.7247 487.5844, 253.7247 497.8346, 237.3242 477.3341, 253.7247 456.8335, 253.7247 467.0838, 264.2513 467.0838" style="stroke: rgb(56%,93%,56%); stroke-linecap: round; stroke-width: 1; fill: rgb(56%,93%,56%); fill-rule: evenodd;"/>
			<polygon points="275.58 528.5855, 336.1465 528.5855, 336.1465 538.8358, 352.547 518.3352, 336.1465 497.8346, 336.1465 508.0849, 275.58 508.0849" style="stroke: rgb(67%,84%,90%); stroke-linecap: round; stroke-width: 1; fill: rgb(67%,84%,90%); fill-rule: evenodd;"/>
			<polygon points="359.0937 528.5855, 419.3186 528.5855, 419.3186 538.8358, 435.7191 518.3352, 419.3186 497.8346, 419.3186 508.0849, 359.0937 508.0849" style="stroke: rgb(67%,84%,90%); stroke-linecap: round; stroke-width: 1; fill: rgb(67%,84%,90%); fill-rule: evenodd;"/>
			<polygon points="466.5742 528.5855, 603.9938 528.5855, 603.9938 538.8358, 620.3942 518.3352, 603.9938 497.8346, 603.9938 508.0849, 466.5742 508.0849" style="stroke: rgb(67%,84%,90%); stroke-linecap: round; stroke-width: 1; fill: rgb(67%,84%,90%); fill-rule: evenodd;"/>
			<polygon points="624.7777 528.5855, 644.3559 528.5855, 644.3559 538.8358, 660.7563 518.3352, 644.3559 497.8346, 644.3559 508.0849, 624.7777 508.0849" style="stroke: rgb(67%,84%,90%); stroke-linecap: round; stroke-width: 1; fill: rgb(67%,84%,90%); fill-rule: evenodd;"/>
			<polygon points="664.3997 528.5855, 679.7083 528.5855, 679.7083 538.8358, 696.1087 518.3352, 679.7083 497.8346, 679.7083 508.0849, 664.3997 508.0849" style="stroke: rgb(67%,84%,90%); stroke-linecap: round; stroke-width: 1; fill: rgb(67%,84%,90%); fill-rule: evenodd;"/>
			<polygon points="703.9079 528.5855, 799.656 528.5855, 799.656 538.8358, 816.0565 518.3352, 799.656 497.8346, 799.656 508.0849, 703.9079 508.0849" style="stroke: rgb(67%,84%,90%); stroke-linecap: round; stroke-width: 1; fill: rgb(67%,84%,90%); fill-rule: evenodd;"/>
			<polygon points="952.855 487.5844, 846.8598 487.5844, 846.8598 497.8346, 830.4593 477.3341, 846.8598 456.8335, 846.8598 467.0838, 952.855 467.0838" style="stroke: rgb(56%,93%,56%); stroke-linecap: round; stroke-width: 1; fill: rgb(56%,93%,56%); fill-rule: evenodd;"/>
			<polygon points="1012.174 487.5844, 979.4456 487.5844, 979.4456 497.8346, 963.0452 477.3341, 979.4456 456.8335, 979.4456 467.0838, 1012.174 467.0838" style="stroke: rgb(56%,93%,56%); stroke-linecap: round; stroke-width: 1; fill: rgb(56%,93%,56%); fill-rule: evenodd;"/>
			<polygon points="1141.117 487.5844, 1045.198 487.5844, 1045.198 497.8346, 1028.797 477.3341, 1045.198 456.8335, 1045.198 467.0838, 1141.117 467.0838" style="stroke: rgb(56%,93%,56%); stroke-linecap: round; stroke-width: 1; fill: rgb(56%,93%,56%); fill-rule: evenodd;"/>
			<polygon points="1184.325 487.5844, 1168.163 487.5844, 1168.163 497.8346, 1151.762 477.3341, 1168.163 456.8335, 1168.163 467.0838, 1184.325 467.0838" style="stroke: rgb(56%,93%,56%); stroke-linecap: round; stroke-width: 1; fill: rgb(56%,93%,56%); fill-rule: evenodd;"/>
			<polygon points="1208.747 487.5844, 1201.978 487.5844, 1201.978 497.8346, 1185.578 477.3341, 1201.978 456.8335, 1201.978 467.0838, 1208.747 467.0838" style="stroke: rgb(56%,93%,56%); stroke-linecap: round; stroke-width: 1; fill: rgb(56%,93%,56%); fill-rule: evenodd;"/>
			<polygon points="1226.395 487.5844, 1226.395 497.8346, 1211.935 477.3341, 1226.395 456.8335, 1226.395 467.0838" style="stroke: rgb(56%,93%,56%); stroke-linecap: round; stroke-width: 1; fill: rgb(56%,93%,56%); fill-rule: evenodd;"/>
			<polygon points="1346.4 487.5844, 1274.903 487.5844, 1274.903 497.8346, 1258.503 477.3341, 1274.903 456.8335, 1274.903 467.0838, 1346.4 467.0838" style="stroke: rgb(56%,93%,56%); stroke-linecap: round; stroke-width: 1; fill: rgb(56%,93%,56%); fill-rule: evenodd;"/>
			<path d="M 135.707381,169.825647 L 135.707381,251.827897 Z" style="stroke: rgb(0%,0%,0%); stroke-linecap: butt; stroke-width: 1;"/>
			<path d="M 70.866142,210.826772 L 135.707381,210.826772 Z" style="stroke: rgb(0%,0%,0%); stroke-linecap: butt; stroke-width: 1;"/>
			<path d="M 70.866142,169.825647 L 70.866142,251.827897 Z" style="stroke: rgb(0%,0%,0%); stroke-linecap: butt; stroke-width: 1;"/>
			<path d="M 1346.399765,456.833521 L 1346.399765,538.835771 Z" style="stroke: rgb(0%,0%,0%); stroke-linecap: butt; stroke-width: 1;"/>
			<path d="M 70.866142,497.834646 L 1346.399765,497.834646 Z" style="stroke: rgb(0%,0%,0%); stroke-linecap: butt; stroke-width: 1;"/>
			<path d="M 70.866142,456.833521 L 70.866142,538.835771 Z" style="stroke: rgb(0%,0%,0%); stroke-linecap: butt; stroke-width: 1;"/>
			<path d="M 640.148309,497.834646 L 640.148309,518.335208 Z" style="stroke: rgb(0%,0%,0%); stroke-linecap: butt; stroke-width: 1;"/>
			<path d="M 1209.430475,497.834646 L 1209.430475,518.335208 Z" style="stroke: rgb(0%,0%,0%); stroke-linecap: butt; stroke-width: 1;"/>
			<path d="M 640.148309,497.834646 L 640.148309,510.134983 Z" style="stroke: rgb(0%,0%,0%); stroke-linecap: butt; stroke-width: 1;"/>
			<path d="M 1209.430475,497.834646 L 1209.430475,510.134983 Z" style="stroke: rgb(0%,0%,0%); stroke-linecap: butt; stroke-width: 1;"/>
			<g transform=" matrix(0.707107,0.707107,-0.707107,0.707107,640.148309,518.335208)">
				<text style="font-family: Helvetica; font-size: 6px;fill: rgb(0%,0%,0%); stroke:none;" transform="translate(0,0) scale(1,-1)" x="0" y="0">10000</text>
			</g>
			<g transform=" matrix(0.707107,0.707107,-0.707107,0.707107,1209.430475,518.335208)">
				<text style="font-family: Helvetica; font-size: 6px;fill: rgb(0%,0%,0%); stroke:none;" transform="translate(0,0) scale(1,-1)" x="0" y="0">20000</text>
			</g>
			<g transform=" matrix(0.707107,0.707107,-0.707107,0.707107,86.379081,251.827897)">
				<text style="font-family: Helvetica; font-size: 10px;fill: rgb(0%,0%,0%); stroke:none;" transform="translate(0,0) scale(1,-1)" x="0" y="0">Gene_00232</text>
			</g>
			<g transform=" matrix(0.707107,0.707107,-0.707107,0.707107,117.518815,251.827897)">
				<text style="font-family: Helvetica; font-size: 16px;fill: rgb(0%,0%,100%); stroke:none;" transform="translate(0,0) scale(1,-1)" x="0" y="0">Gene_00233 (79.1)</text>
			</g>
			<g transform=" matrix(0.707107,0.707107,-0.707107,0.707107,92.271151,538.835771)">
				<text style="font-family: Helvetica; font-size: 10px;fill: rgb(0%,0%,0%); stroke:none;" transform="translate(0,0) scale(1,-1)" x="0" y="0">Gene_00877</text>
			</g>
			<g transform=" matrix(0.707107,0.707107,-0.707107,0.707107,157.453959,538.835771)">
				<text style="font-family: Helvetica; font-size: 10px;fill: rgb(0%,0%,0%); stroke:none;" transform="translate(0,0) scale(1,-1)" x="0" y="0">Gene_00878</text>
			</g>
			<g transform=" matrix(0.707107,-0.707107,0.707107,0.707107,226.137853,456.833521)">
				<text style="font-family: Helvetica; font-size: 10px;fill: rgb(0%,0%,0%); stroke:none;" transform="translate(0,0) scale(1,-1)" x="0" y="0">Gene_00879</text>
			</g>
			<g transform=" matrix(0.707107,-0.707107,0.707107,0.707107,250.787771,456.833521)">
				<text style="font-family: Helvetica; font-size: 10px;fill: rgb(0%,0%,0%); stroke:none;" transform="translate(0,0) scale(1,-1)" x="0" y="0">Gene_00880</text>
			</g>
			<g transform=" matrix(0.707107,0.707107,-0.707107,0.707107,314.063483,538.835771)">
				<text style="font-family: Helvetica; font-size: 10px;fill: rgb(0%,0%,0%); stroke:none;" transform="translate(0,0) scale(1,-1)" x="0" y="0">Gene_00881</text>
			</g>
			<g transform=" matrix(0.707107,0.707107,-0.707107,0.707107,397.406393,538.835771)">
				<text style="font-family: Helvetica; font-size: 10px;fill: rgb(0%,0%,0%); stroke:none;" transform="translate(0,0) scale(1,-1)" x="0" y="0">Gene_00882</text>
			</g>
			<g transform=" matrix(0.707107,0.707107,-0.707107,0.707107,543.484197,538.835771)">
				<text style="font-family: Helvetica; font-size: 10px;fill: rgb(0%,0%,0%); stroke:none;" transform="translate(0,0) scale(1,-1)" x="0" y="0">Gene_00883</text>
			</g>
			<g transform=" matrix(0.707107,0.707107,-0.707107,0.707107,642.767007,538.835771)">
				<text style="font-family: Helvetica; font-size: 10px;fill: rgb(0%,0%,0%); stroke:none;" transform="translate(0,0) scale(1,-1)" x="0" y="0">Gene_00884</text>
			</g>
			<g transform=" matrix(0.707107,0.707107,-0.707107,0.707107,680.254237,538.835771)">
				<text style="font-family: Helvetica; font-size: 16px;fill: rgb(0%,0%,100%); stroke:none;" transform="translate(0,0) scale(1,-1)" x="0" y="0">Gene_00885 (79.1)</text>
			</g>
			<g transform=" matrix(0.707107,0.707107,-0.707107,0.707107,759.982205,538.835771)">
				<text style="font-family: Helvetica; font-size: 10px;fill: rgb(0%,0%,0%); stroke:none;" transform="translate(0,0) scale(1,-1)" x="0" y="0">Gene_00886</text>
			</g>
			<g transform=" matrix(0.707107,-0.707107,0.707107,0.707107,891.65717,456.833521)">
				<text style="font-family: Helvetica; font-size: 10px;fill: rgb(0%,0%,0%); stroke:none;" transform="translate(0,0) scale(1,-1)" x="0" y="0">Gene_00887</text>
			</g>
			<g transform=" matrix(0.707107,-0.707107,0.707107,0.707107,987.609679,456.833521)">
				<text style="font-family: Helvetica; font-size: 10px;fill: rgb(0%,0%,0%); stroke:none;" transform="translate(0,0) scale(1,-1)" x="0" y="0">Gene_00888</text>
			</g>
			<g transform=" matrix(0.707107,-0.707107,0.707107,0.707107,1084.95693,456.833521)">
				<text style="font-family: Helvetica; font-size: 10px;fill: rgb(0%,0%,0%); stroke:none;" transform="translate(0,0) scale(1,-1)" x="0" y="0">Gene_00889</text>
			</g>
			<g transform=" matrix(0.707107,-0.707107,0.707107,0.707107,1168.043662,456.833521)">
				<text style="font-family: Helvetica; font-size: 10px;fill: rgb(0%,0%,0%); stroke:none;" transform="translate(0,0) scale(1,-1)" x="0" y="0">Gene_00890</text>
			</g>
			<g transform=" matrix(0.707107,-0.707107,0.707107,0.707107,1197.162445,456.833521)">
				<text style="font-family: Helvetica; font-size: 10px;fill: rgb(0%,0%,0%); stroke:none;" transform="translate(0,0) scale(1,-1)" x="0" y="0">Gene_00891</text>
			</g>
			<g transform=" matrix(0.707107,-0.707107,0.707107,0.707107,1219.1652,456.833521)">
				<text style="font-family: Helvetica; font-size: 10px;fill: rgb(0%,0%,0%); stroke:none;" transform="translate(0,0) scale(1,-1)" x="0" y="0">Gene_00892</text>
			</g>
			<g transform=" matrix(0.707107,-0.707107,0.707107,0.707107,1302.451181,456.833521)">
				<text style="font-family: Helvetica; font-size: 10px;fill: rgb(0%,0%,0%); stroke:none;" transform="translate(0,0) scale(1,-1)" x="0" y="0">Gene_00893</text>
			</g>
			<g transform=" matrix(1,0,-0,1,70,456.833521)">
				<text style="font-family: Helvetica; font-size: 12px;fill: rgb(60%,60%,60%); stroke:none;" transform="translate(0,0) scale(1,-1)" x="0" y="0">megahit_63213 (left 12951bp, right 24654bp)</text>
			</g>
		</g>
	</g>
</svg>
