<?xml version="1.0" encoding="utf-8"?>
<!DOCTYPE svg
  PUBLIC '-//W3C//DTD SVG 1.0//EN'
  'http://www.w3.org/TR/2001/REC-SVG-20010904/DTD/svg10.dtd'>
<svg fill-rule="evenodd" height="708.6614173228346" preserveAspectRatio="xMinYMin meet" version="1.0" viewBox="0 0 1417 708" width="1417.3228346456692" xmlns="http://www.w3.org/2000/svg" xmlns:xlink="http://www.w3.org/1999/xlink">
	<title>...</title>
	<desc>...</desc>
	<clipPath id="clip">
		<rect height="708.6614173228346" width="1417.3228346456692" x="0" y="0"/>
	</clipPath>
	<g id="group" style="clip-path: url(#clip)" transform="scale(1,-1) translate(0,-708)">
		<g transform="">
			<polygon points="70.86614 169.8256, 701.6348 169.8256, 701.6348 251.8279, 70.86614 251.8279" style="stroke: rgb(96%,96%,96%); stroke-linecap: butt; stroke-width: 1; fill: rgb(96%,96%,96%); fill-rule: evenodd;"/>
			<polygon points="70.86614 456.8335, 1346.4 456.8335, 1346.4 538.8358, 70.86614 538.8358" style="stroke: rgb(96%,96%,96%); stroke-linecap: butt; stroke-width: 1; fill: rgb(96%,96%,96%); fill-rule: evenodd;"/>
			<polygon points="701.6348 456.8335, 755.5432 456.8335, 701.6348 251.8279, 648.0636 251.8279" style="stroke: rgb(100%,43%,43%); stroke-linecap: round; stroke-width: 1; fill: rgb(100%,43%,43%); fill-rule: evenodd;"/>
			<polygon points="91.21533 200.5765, 87.26659 200.5765, 87.26659 210.8268, 70.86614 190.3262, 87.26659 169.8256, 87.26659 180.0759, 91.21533 180.0759" style="stroke: rgb(56%,93%,56%); stroke-linecap: round; stroke-width: 1; fill: rgb(56%,93%,56%); fill-rule: evenodd;"/>
			<polygon points="147.9907 200.5765, 147.752 200.5765, 147.752 210.8268, 131.3516 190.3262, 147.752 169.8256, 147.752 180.0759, 147.9907 180.0759" style="stroke: rgb(56%,93%,56%); stroke-linecap: round; stroke-width: 1; fill: rgb(56%,93%,56%); fill-rule: evenodd;"/>
			<polygon points="209.769 200.5765, 163.6604 200.5765, 163.6604 210.8268, 147.2599 190.3262, 163.6604 169.8256, 163.6604 180.0759, 209.769 180.0759" style="stroke: rgb(56%,93%,56%); stroke-linecap: round; stroke-width: 1; fill: rgb(56%,93%,56%); fill-rule: evenodd;"/>
			<polygon points="242.1478 200.5765, 232.9713 200.5765, 232.9713 210.8268, 216.5708 190.3262, 232.9713 169.8256, 232.9713 180.0759, 242.1478 180.0759" style="stroke: rgb(56%,93%,56%); stroke-linecap: round; stroke-width: 1; fill: rgb(56%,93%,56%); fill-rule: evenodd;"/>
			<polygon points="271.4349 241.5776, 306.7507 241.5776, 306.7507 251.8279, 323.1511 231.3273, 306.7507 210.8268, 306.7507 221.0771, 271.4349 221.0771" style="stroke: rgb(67%,84%,90%); stroke-linecap: round; stroke-width: 1; fill: rgb(67%,84%,90%); fill-rule: evenodd;"/>
			<polygon points="325.0061 241.5776, 328.7862 241.5776, 328.7862 251.8279, 345.1867 231.3273, 328.7862 210.8268, 328.7862 221.0771, 325.0061 221.0771" style="stroke: rgb(67%,84%,90%); stroke-linecap: round; stroke-width: 1; fill: rgb(67%,84%,90%); fill-rule: evenodd;"/>
			<polygon points="418.6574 200.5765, 364.9599 200.5765, 364.9599 210.8268, 348.5595 190.3262, 364.9599 169.8256, 364.9599 180.0759, 418.6574 180.0759" style="stroke: rgb(56%,93%,56%); stroke-linecap: round; stroke-width: 1; fill: rgb(56%,93%,56%); fill-rule: evenodd;"/>
			<polygon points="472.5096 200.5765, 441.2413 200.5765, 441.2413 210.8268, 424.8408 190.3262, 441.2413 169.8256, 441.2413 180.0759, 472.5096 180.0759" style="stroke: rgb(56%,93%,56%); stroke-linecap: round; stroke-width: 1; fill: rgb(56%,93%,56%); fill-rule: evenodd;"/>
			<polygon points="483.2464 241.5776, 488.7129 241.5776, 488.7129 251.8279, 505.1133 231.3273, 488.7129 210.8268, 488.7129 221.0771, 483.2464 221.0771" style="stroke: rgb(67%,84%,90%); stroke-linecap: round; stroke-width: 1; fill: rgb(67%,84%,90%); fill-rule: evenodd;"/>
			<polygon points="504.9447 241.5776, 589.3345 241.5776, 589.3345 251.8279, 605.735 231.3273, 589.3345 210.8268, 589.3345 221.0771, 504.9447 221.0771" style="stroke: rgb(67%,84%,90%); stroke-linecap: round; stroke-width: 1; fill: rgb(67%,84%,90%); fill-rule: evenodd;"/>
			<polygon points="622.3179 200.5765, 622.3179 210.8268, 610.4007 190.3262, 622.3179 169.8256, 622.3179 180.0759" style="stroke: rgb(56%,93%,56%); stroke-linecap: round; stroke-width: 1; fill: rgb(56%,93%,56%); fill-rule: evenodd;"/>
			<polygon points="647.2204 200.5765, 643.103 200.5765, 643.103 210.8268, 626.7025 190.3262, 643.103 169.8256, 643.103 180.0759, 647.2204 180.0759" style="stroke: rgb(56%,93%,56%); stroke-linecap: round; stroke-width: 1; fill: rgb(56%,93%,56%); fill-rule: evenodd;"/>
			<polygon points="701.1288 200.5765, 663.7894 200.5765, 663.7894 210.8268, 647.389 190.3262, 663.7894 169.8256, 663.7894 180.0759, 701.1288 180.0759" style="stroke: rgb(56%,93%,56%); stroke-linecap: round; stroke-width: 1; fill: rgb(56%,93%,56%); fill-rule: evenodd;"/>
			<polygon points="149.2274 487.5844, 87.26659 487.5844, 87.26659 497.8346, 70.86614 477.3341, 87.26659 456.8335, 87.26659 467.0838, 149.2274 467.0838" style="stroke: rgb(56%,93%,56%); stroke-linecap: round; stroke-width: 1; fill: rgb(56%,93%,56%); fill-rule: evenodd;"/>
			<polygon points="228.8815 487.5844, 165.9089 487.5844, 165.9089 497.8346, 149.5084 477.3341, 165.9089 456.8335, 165.9089 467.0838, 228.8815 467.0838" style="stroke: rgb(56%,93%,56%); stroke-linecap: round; stroke-width: 1; fill: rgb(56%,93%,56%); fill-rule: evenodd;"/>
			<polygon points="299.2043 487.5844, 251.2406 487.5844, 251.2406 497.8346, 234.8401 477.3341, 251.2406 456.8335, 251.2406 467.0838, 299.2043 467.0838" style="stroke: rgb(56%,93%,56%); stroke-linecap: round; stroke-width: 1; fill: rgb(56%,93%,56%); fill-rule: evenodd;"/>
			<polygon points="361.6572 487.5844, 314.8739 487.5844, 314.8739 497.8346, 298.4735 477.3341, 314.8739 456.8335, 314.8739 467.0838, 361.6572 467.0838" style="stroke: rgb(56%,93%,56%); stroke-linecap: round; stroke-width: 1; fill: rgb(56%,93%,56%); fill-rule: evenodd;"/>
			<polygon points="423.9976 487.5844, 380.0813 487.5844, 380.0813 497.8346, 363.6808 477.3341, 380.0813 456.8335, 380.0813 467.0838, 423.9976 467.0838" style="stroke: rgb(56%,93%,56%); stroke-linecap: round; stroke-width: 1; fill: rgb(56%,93%,56%); fill-rule: evenodd;"/>
			<polygon points="429.9562 528.5855, 474.3785 528.5855, 474.3785 538.8358, 490.7789 518.3352, 474.3785 497.8346, 474.3785 508.0849, 429.9562 508.0849" style="stroke: rgb(67%,84%,90%); stroke-linecap: round; stroke-width: 1; fill: rgb(67%,84%,90%); fill-rule: evenodd;"/>
			<polygon points="490.6103 528.5855, 509.568 528.5855, 509.568 538.8358, 525.9684 518.3352, 509.568 497.8346, 509.568 508.0849, 490.6103 508.0849" style="stroke: rgb(67%,84%,90%); stroke-linecap: round; stroke-width: 1; fill: rgb(67%,84%,90%); fill-rule: evenodd;"/>
			<polygon points="527.2613 528.5855, 630.2016 528.5855, 630.2016 538.8358, 646.602 518.3352, 630.2016 497.8346, 630.2016 508.0849, 527.2613 508.0849" style="stroke: rgb(67%,84%,90%); stroke-linecap: round; stroke-width: 1; fill: rgb(67%,84%,90%); fill-rule: evenodd;"/>
			<polygon points="700.6229 487.5844, 687.2304 487.5844, 687.2304 497.8346, 670.8299 477.3341, 687.2304 456.8335, 687.2304 467.0838, 700.6229 467.0838" style="stroke: rgb(56%,93%,56%); stroke-linecap: round; stroke-width: 1; fill: rgb(56%,93%,56%); fill-rule: evenodd;"/>
			<polygon points="768.0226 487.5844, 717.8666 487.5844, 717.8666 497.8346, 701.4661 477.3341, 717.8666 456.8335, 717.8666 467.0838, 768.0226 467.0838" style="stroke: rgb(56%,93%,56%); stroke-linecap: round; stroke-width: 1; fill: rgb(56%,93%,56%); fill-rule: evenodd;"/>
			<polygon points="800.9073 487.5844, 787.5148 487.5844, 787.5148 497.8346, 771.1143 477.3341, 787.5148 456.8335, 787.5148 467.0838, 800.9073 467.0838" style="stroke: rgb(56%,93%,56%); stroke-linecap: round; stroke-width: 1; fill: rgb(56%,93%,56%); fill-rule: evenodd;"/>
			<polygon points="812.6559 487.5844, 812.6559 497.8346, 800.7387 477.3341, 812.6559 456.8335, 812.6559 467.0838" style="stroke: rgb(56%,93%,56%); stroke-linecap: round; stroke-width: 1; fill: rgb(56%,93%,56%); fill-rule: evenodd;"/>
			<polygon points="906.9255 487.5844, 846.3138 487.5844, 846.3138 497.8346, 829.9133 477.3341, 846.3138 456.8335, 846.3138 467.0838, 906.9255 467.0838" style="stroke: rgb(56%,93%,56%); stroke-linecap: round; stroke-width: 1; fill: rgb(56%,93%,56%); fill-rule: evenodd;"/>
			<polygon points="989.1654 487.5844, 931.0833 487.5844, 931.0833 497.8346, 914.6829 477.3341, 931.0833 456.8335, 931.0833 467.0838, 989.1654 467.0838" style="stroke: rgb(56%,93%,56%); stroke-linecap: round; stroke-width: 1; fill: rgb(56%,93%,56%); fill-rule: evenodd;"/>
			<polygon points="998.6092 528.5855, 1030.046 528.5855, 1030.046 538.8358, 1046.447 518.3352, 1030.046 497.8346, 1030.046 508.0849, 998.6092 508.0849" style="stroke: rgb(67%,84%,90%); stroke-linecap: round; stroke-width: 1; fill: rgb(67%,84%,90%); fill-rule: evenodd;"/>
			<polygon points="1086.639 487.5844, 1068.693 487.5844, 1068.693 497.8346, 1052.293 477.3341, 1068.693 456.8335, 1068.693 467.0838, 1086.639 467.0838" style="stroke: rgb(56%,93%,56%); stroke-linecap: round; stroke-width: 1; fill: rgb(56%,93%,56%); fill-rule: evenodd;"/>
			<polygon points="1152.915 487.5844, 1104.445 487.5844, 1104.445 497.8346, 1088.044 477.3341, 1104.445 456.8335, 1104.445 467.0838, 1152.915 467.0838" style="stroke: rgb(56%,93%,56%); stroke-linecap: round; stroke-width: 1; fill: rgb(56%,93%,56%); fill-rule: evenodd;"/>
			<polygon points="1160.784 528.5855, 1211.278 528.5855, 1211.278 538.8358, 1227.678 518.3352, 1211.278 497.8346, 1211.278 508.0849, 1160.784 508.0849" style="stroke: rgb(67%,84%,90%); stroke-linecap: round; stroke-width: 1; fill: rgb(67%,84%,90%); fill-rule: evenodd;"/>
			<polygon points="1247.802 487.5844, 1247.802 497.8346, 1231.838 477.3341, 1247.802 456.8335, 1247.802 467.0838" style="stroke: rgb(56%,93%,56%); stroke-linecap: round; stroke-width: 1; fill: rgb(56%,93%,56%); fill-rule: evenodd;"/>
			<polygon points="1319.306 487.5844, 1268.306 487.5844, 1268.306 497.8346, 1251.906 477.3341, 1268.306 456.8335, 1268.306 467.0838, 1319.306 467.0838" style="stroke: rgb(56%,93%,56%); stroke-linecap: round; stroke-width: 1; fill: rgb(56%,93%,56%); fill-rule: evenodd;"/>
			<polygon points="1346.4 487.5844, 1338.742 487.5844, 1338.742 497.8346, 1322.341 477.3341, 1338.742 456.8335, 1338.742 467.0838, 1346.4 467.0838" style="stroke: rgb(56%,93%,56%); stroke-linecap: round; stroke-width: 1; fill: rgb(56%,93%,56%); fill-rule: evenodd;"/>
			<path d="M 701.634764,169.825647 L 701.634764,251.827897 Z" style="stroke: rgb(0%,0%,0%); stroke-linecap: butt; stroke-width: 1;"/>
			<path d="M 70.866142,210.826772 L 701.634764,210.826772 Z" style="stroke: rgb(0%,0%,0%); stroke-linecap: butt; stroke-width: 1;"/>
			<path d="M 70.866142,169.825647 L 70.866142,251.827897 Z" style="stroke: rgb(0%,0%,0%); stroke-linecap: butt; stroke-width: 1;"/>
			<path d="M 632.998414,210.826772 L 632.998414,231.327334 Z" style="stroke: rgb(0%,0%,0%); stroke-linecap: butt; stroke-width: 1;"/>
			<path d="M 632.998414,210.826772 L 632.998414,223.127109 Z" style="stroke: rgb(0%,0%,0%); stroke-linecap: butt; stroke-width: 1;"/>
			<path d="M 1346.40048,456.833521 L 1346.40048,538.835771 Z" style="stroke: rgb(0%,0%,0%); stroke-linecap: butt; stroke-width: 1;"/>
			<path d="M 70.866142,497.834646 L 1346.40048,497.834646 Z" style="stroke: rgb(0%,0%,0%); stroke-linecap: butt; stroke-width: 1;"/>
			<path d="M 70.866142,456.833521 L 70.866142,538.835771 Z" style="stroke: rgb(0%,0%,0%); stroke-linecap: butt; stroke-width: 1;"/>
			<path d="M 632.998414,497.834646 L 632.998414,518.335208 Z" style="stroke: rgb(0%,0%,0%); stroke-linecap: butt; stroke-width: 1;"/>
			<path d="M 1195.130685,497.834646 L 1195.130685,518.335208 Z" style="stroke: rgb(0%,0%,0%); stroke-linecap: butt; stroke-width: 1;"/>
			<path d="M 632.998414,497.834646 L 632.998414,510.134983 Z" style="stroke: rgb(0%,0%,0%); stroke-linecap: butt; stroke-width: 1;"/>
			<path d="M 1195.130685,497.834646 L 1195.130685,510.134983 Z" style="stroke: rgb(0%,0%,0%); stroke-linecap: butt; stroke-width: 1;"/>
			<g transform=" matrix(0.707107,0.707107,-0.707107,0.707107,632.998414,231.327334)">
				<text style="font-family: Helvetica; font-size: 6px;fill: rgb(0%,0%,0%); stroke:none;" transform="translate(0,0) scale(1,-1)" x="0" y="0">10000</text>
			</g>
			<g transform=" matrix(0.707107,0.707107,-0.707107,0.707107,632.998414,518.335208)">
				<text style="font-family: Helvetica; font-size: 6px;fill: rgb(0%,0%,0%); stroke:none;" transform="translate(0,0) scale(1,-1)" x="0" y="0">10000</text>
			</g>
			<g transform=" matrix(0.707107,0.707107,-0.707107,0.707107,1195.130685,518.335208)">
				<text style="font-family: Helvetica; font-size: 6px;fill: rgb(0%,0%,0%); stroke:none;" transform="translate(0,0) scale(1,-1)" x="0" y="0">20000</text>
			</g>
			<g transform=" matrix(0.707107,-0.707107,0.707107,0.707107,81.040736,169.825647)">
				<text style="font-family: Helvetica; font-size: 10px;fill: rgb(0%,0%,0%); stroke:none;" transform="translate(0,0) scale(1,-1)" x="0" y="0">Gene_02237</text>
			</g>
			<g transform=" matrix(0.707107,-0.707107,0.707107,0.707107,139.671132,169.825647)">
				<text style="font-family: Helvetica; font-size: 10px;fill: rgb(0%,0%,0%); stroke:none;" transform="translate(0,0) scale(1,-1)" x="0" y="0">Gene_02238</text>
			</g>
			<g transform=" matrix(0.707107,-0.707107,0.707107,0.707107,178.514472,169.825647)">
				<text style="font-family: Helvetica; font-size: 10px;fill: rgb(0%,0%,0%); stroke:none;" transform="translate(0,0) scale(1,-1)" x="0" y="0">Gene_02239</text>
			</g>
			<g transform=" matrix(0.707107,-0.707107,0.707107,0.707107,229.359336,169.825647)">
				<text style="font-family: Helvetica; font-size: 10px;fill: rgb(0%,0%,0%); stroke:none;" transform="translate(0,0) scale(1,-1)" x="0" y="0">Gene_02240</text>
			</g>
			<g transform=" matrix(0.707107,0.707107,-0.707107,0.707107,297.293021,251.827897)">
				<text style="font-family: Helvetica; font-size: 10px;fill: rgb(0%,0%,0%); stroke:none;" transform="translate(0,0) scale(1,-1)" x="0" y="0">Gene_02241</text>
			</g>
			<g transform=" matrix(0.707107,0.707107,-0.707107,0.707107,335.096416,251.827897)">
				<text style="font-family: Helvetica; font-size: 10px;fill: rgb(0%,0%,0%); stroke:none;" transform="translate(0,0) scale(1,-1)" x="0" y="0">Gene_02242</text>
			</g>
			<g transform=" matrix(0.707107,-0.707107,0.707107,0.707107,383.608431,169.825647)">
				<text style="font-family: Helvetica; font-size: 10px;fill: rgb(0%,0%,0%); stroke:none;" transform="translate(0,0) scale(1,-1)" x="0" y="0">Gene_02243</text>
			</g>
			<g transform=" matrix(0.707107,-0.707107,0.707107,0.707107,448.675242,169.825647)">
				<text style="font-family: Helvetica; font-size: 10px;fill: rgb(0%,0%,0%); stroke:none;" transform="translate(0,0) scale(1,-1)" x="0" y="0">Gene_02244</text>
			</g>
			<g transform=" matrix(0.707107,0.707107,-0.707107,0.707107,494.179849,251.827897)">
				<text style="font-family: Helvetica; font-size: 10px;fill: rgb(0%,0%,0%); stroke:none;" transform="translate(0,0) scale(1,-1)" x="0" y="0">Gene_02245</text>
			</g>
			<g transform=" matrix(0.707107,0.707107,-0.707107,0.707107,555.33984,251.827897)">
				<text style="font-family: Helvetica; font-size: 10px;fill: rgb(0%,0%,0%); stroke:none;" transform="translate(0,0) scale(1,-1)" x="0" y="0">Gene_02246</text>
			</g>
			<g transform=" matrix(0.707107,-0.707107,0.707107,0.707107,616.359298,169.825647)">
				<text style="font-family: Helvetica; font-size: 10px;fill: rgb(0%,0%,0%); stroke:none;" transform="translate(0,0) scale(1,-1)" x="0" y="0">Gene_02247</text>
			</g>
			<g transform=" matrix(0.707107,-0.707107,0.707107,0.707107,636.961446,169.825647)">
				<text style="font-family: Helvetica; font-size: 10px;fill: rgb(0%,0%,0%); stroke:none;" transform="translate(0,0) scale(1,-1)" x="0" y="0">Gene_02248</text>
			</g>
			<g transform=" matrix(0.707107,-0.707107,0.707107,0.707107,674.258922,169.825647)">
				<text style="font-family: Helvetica; font-size: 16px;fill: rgb(0%,0%,100%); stroke:none;" transform="translate(0,0) scale(1,-1)" x="0" y="0">Gene_02249 (78.7)</text>
			</g>
			<g transform=" matrix(0.707107,-0.707107,0.707107,0.707107,110.046761,456.833521)">
				<text style="font-family: Helvetica; font-size: 10px;fill: rgb(0%,0%,0%); stroke:none;" transform="translate(0,0) scale(1,-1)" x="0" y="0">Gene_00697</text>
			</g>
			<g transform=" matrix(0.707107,-0.707107,0.707107,0.707107,189.194985,456.833521)">
				<text style="font-family: Helvetica; font-size: 10px;fill: rgb(0%,0%,0%); stroke:none;" transform="translate(0,0) scale(1,-1)" x="0" y="0">Gene_00698</text>
			</g>
			<g transform=" matrix(0.707107,-0.707107,0.707107,0.707107,267.022198,456.833521)">
				<text style="font-family: Helvetica; font-size: 10px;fill: rgb(0%,0%,0%); stroke:none;" transform="translate(0,0) scale(1,-1)" x="0" y="0">Gene_00699</text>
			</g>
			<g transform=" matrix(0.707107,-0.707107,0.707107,0.707107,330.065332,456.833521)">
				<text style="font-family: Helvetica; font-size: 10px;fill: rgb(0%,0%,0%); stroke:none;" transform="translate(0,0) scale(1,-1)" x="0" y="0">Gene_00700</text>
			</g>
			<g transform=" matrix(0.707107,-0.707107,0.707107,0.707107,393.839238,456.833521)">
				<text style="font-family: Helvetica; font-size: 10px;fill: rgb(0%,0%,0%); stroke:none;" transform="translate(0,0) scale(1,-1)" x="0" y="0">Gene_00701</text>
			</g>
			<g transform=" matrix(0.707107,0.707107,-0.707107,0.707107,460.367593,538.835771)">
				<text style="font-family: Helvetica; font-size: 10px;fill: rgb(0%,0%,0%); stroke:none;" transform="translate(0,0) scale(1,-1)" x="0" y="0">Gene_00702</text>
			</g>
			<g transform=" matrix(0.707107,0.707107,-0.707107,0.707107,508.289369,538.835771)">
				<text style="font-family: Helvetica; font-size: 10px;fill: rgb(0%,0%,0%); stroke:none;" transform="translate(0,0) scale(1,-1)" x="0" y="0">Gene_00703</text>
			</g>
			<g transform=" matrix(0.707107,0.707107,-0.707107,0.707107,586.931674,538.835771)">
				<text style="font-family: Helvetica; font-size: 10px;fill: rgb(0%,0%,0%); stroke:none;" transform="translate(0,0) scale(1,-1)" x="0" y="0">Gene_00704</text>
			</g>
			<g transform=" matrix(0.707107,-0.707107,0.707107,0.707107,685.726421,456.833521)">
				<text style="font-family: Helvetica; font-size: 10px;fill: rgb(0%,0%,0%); stroke:none;" transform="translate(0,0) scale(1,-1)" x="0" y="0">Gene_00705</text>
			</g>
			<g transform=" matrix(0.707107,-0.707107,0.707107,0.707107,734.744355,456.833521)">
				<text style="font-family: Helvetica; font-size: 16px;fill: rgb(0%,0%,100%); stroke:none;" transform="translate(0,0) scale(1,-1)" x="0" y="0">Gene_00706 (78.7)</text>
			</g>
			<g transform=" matrix(0.707107,-0.707107,0.707107,0.707107,786.010818,456.833521)">
				<text style="font-family: Helvetica; font-size: 10px;fill: rgb(0%,0%,0%); stroke:none;" transform="translate(0,0) scale(1,-1)" x="0" y="0">Gene_00707</text>
			</g>
			<g transform=" matrix(0.707107,-0.707107,0.707107,0.707107,806.697286,456.833521)">
				<text style="font-family: Helvetica; font-size: 10px;fill: rgb(0%,0%,0%); stroke:none;" transform="translate(0,0) scale(1,-1)" x="0" y="0">Gene_00708</text>
			</g>
			<g transform=" matrix(0.707107,-0.707107,0.707107,0.707107,868.419409,456.833521)">
				<text style="font-family: Helvetica; font-size: 10px;fill: rgb(0%,0%,0%); stroke:none;" transform="translate(0,0) scale(1,-1)" x="0" y="0">Gene_00709</text>
			</g>
			<g transform=" matrix(0.707107,-0.707107,0.707107,0.707107,951.924158,456.833521)">
				<text style="font-family: Helvetica; font-size: 10px;fill: rgb(0%,0%,0%); stroke:none;" transform="translate(0,0) scale(1,-1)" x="0" y="0">Gene_00710</text>
			</g>
			<g transform=" matrix(0.707107,0.707107,-0.707107,0.707107,1022.527971,538.835771)">
				<text style="font-family: Helvetica; font-size: 10px;fill: rgb(0%,0%,0%); stroke:none;" transform="translate(0,0) scale(1,-1)" x="0" y="0">Gene_00711</text>
			</g>
			<g transform=" matrix(0.707107,-0.707107,0.707107,0.707107,1069.466016,456.833521)">
				<text style="font-family: Helvetica; font-size: 10px;fill: rgb(0%,0%,0%); stroke:none;" transform="translate(0,0) scale(1,-1)" x="0" y="0">Gene_00712</text>
			</g>
			<g transform=" matrix(0.707107,-0.707107,0.707107,0.707107,1120.47952,456.833521)">
				<text style="font-family: Helvetica; font-size: 10px;fill: rgb(0%,0%,0%); stroke:none;" transform="translate(0,0) scale(1,-1)" x="0" y="0">Gene_00713</text>
			</g>
			<g transform=" matrix(0.707107,0.707107,-0.707107,0.707107,1194.231274,538.835771)">
				<text style="font-family: Helvetica; font-size: 10px;fill: rgb(0%,0%,0%); stroke:none;" transform="translate(0,0) scale(1,-1)" x="0" y="0">Gene_00714</text>
			</g>
			<g transform=" matrix(0.707107,-0.707107,0.707107,0.707107,1239.820201,456.833521)">
				<text style="font-family: Helvetica; font-size: 10px;fill: rgb(0%,0%,0%); stroke:none;" transform="translate(0,0) scale(1,-1)" x="0" y="0">Gene_00715</text>
			</g>
			<g transform=" matrix(0.707107,-0.707107,0.707107,0.707107,1285.605874,456.833521)">
				<text style="font-family: Helvetica; font-size: 10px;fill: rgb(0%,0%,0%); stroke:none;" transform="translate(0,0) scale(1,-1)" x="0" y="0">Gene_00716</text>
			</g>
			<g transform=" matrix(0.707107,-0.707107,0.707107,0.707107,1334.370849,456.833521)">
				<text style="font-family: Helvetica; font-size: 10px;fill: rgb(0%,0%,0%); stroke:none;" transform="translate(0,0) scale(1,-1)" x="0" y="0">Gene_00717</text>
			</g>
			<g transform=" matrix(1,0,-0,1,70,169.825647)">
				<text style="font-family: Helvetica; font-size: 12px;fill: rgb(60%,60%,60%); stroke:none;" transform="translate(0,0) scale(1,-1)" x="0" y="0">megahit_21884 (left 39577bp, right 9bp)</text>
			</g>
			<g transform=" matrix(1,0,-0,1,70,456.833521)">
				<text style="font-family: Helvetica; font-size: 12px;fill: rgb(60%,60%,60%); stroke:none;" transform="translate(0,0) scale(1,-1)" x="0" y="0">megahit_23084 (left 54825bp, right 17697bp)</text>
			</g>
		</g>
	</g>
</svg>
