<?xml version="1.0" encoding="utf-8"?>
<!DOCTYPE svg
  PUBLIC '-//W3C//DTD SVG 1.0//EN'
  'http://www.w3.org/TR/2001/REC-SVG-20010904/DTD/svg10.dtd'>
<svg fill-rule="evenodd" height="708.6614173228346" preserveAspectRatio="xMinYMin meet" version="1.0" viewBox="0 0 1417 708" width="1417.3228346456692" xmlns="http://www.w3.org/2000/svg" xmlns:xlink="http://www.w3.org/1999/xlink">
	<title>...</title>
	<desc>...</desc>
	<clipPath id="clip">
		<rect height="708.6614173228346" width="1417.3228346456692" x="0" y="0"/>
	</clipPath>
	<g id="group" style="clip-path: url(#clip)" transform="scale(1,-1) translate(0,-708)">
		<g transform="">
			<polygon points="70.86614 169.8256, 894.9005 169.8256, 894.9005 251.8279, 70.86614 251.8279" style="stroke: rgb(96%,96%,96%); stroke-linecap: butt; stroke-width: 1; fill: rgb(96%,96%,96%); fill-rule: evenodd;"/>
			<polygon points="70.86614 456.8335, 1346.339 456.8335, 1346.339 538.8358, 70.86614 538.8358" style="stroke: rgb(96%,96%,96%); stroke-linecap: butt; stroke-width: 1; fill: rgb(96%,96%,96%); fill-rule: evenodd;"/>
			<polygon points="494.5746 456.8335, 536.405 456.8335, 696.7938 251.8279, 655.081 251.8279" style="stroke: rgb(100%,41%,41%); stroke-linecap: round; stroke-width: 1; fill: rgb(100%,41%,41%); fill-rule: evenodd;"/>
			<polygon points="456.8568 456.8335, 480.4745 456.8335, 625.9407 251.8279, 601.383 251.8279" style="stroke: rgb(100%,40%,40%); stroke-linecap: round; stroke-width: 1; fill: rgb(100%,40%,40%); fill-rule: evenodd;"/>
			<polygon points="123.0366 200.5765, 109.5918 200.5765, 109.5918 210.8268, 93.19133 190.3262, 109.5918 169.8256, 109.5918 180.0759, 123.0366 180.0759" style="stroke: rgb(56%,93%,56%); stroke-linecap: round; stroke-width: 1; fill: rgb(56%,93%,56%); fill-rule: evenodd;"/>
			<polygon points="435.1192 200.5765, 146.0171 200.5765, 146.0171 210.8268, 129.6166 190.3262, 146.0171 169.8256, 146.0171 180.0759, 435.1192 180.0759" style="stroke: rgb(56%,93%,56%); stroke-linecap: round; stroke-width: 1; fill: rgb(56%,93%,56%); fill-rule: evenodd;"/>
			<polygon points="474.012 200.5765, 454.2221 200.5765, 454.2221 210.8268, 437.8217 190.3262, 454.2221 169.8256, 454.2221 180.0759, 474.012 180.0759" style="stroke: rgb(56%,93%,56%); stroke-linecap: round; stroke-width: 1; fill: rgb(56%,93%,56%); fill-rule: evenodd;"/>
			<polygon points="589.2804 200.5765, 513.7951 200.5765, 513.7951 210.8268, 497.3947 190.3262, 513.7951 169.8256, 513.7951 180.0759, 589.2804 180.0759" style="stroke: rgb(56%,93%,56%); stroke-linecap: round; stroke-width: 1; fill: rgb(56%,93%,56%); fill-rule: evenodd;"/>
			<polygon points="624.1782 200.5765, 616.726 200.5765, 616.726 210.8268, 600.3255 190.3262, 616.726 169.8256, 616.726 180.0759, 624.1782 180.0759" style="stroke: rgb(56%,93%,56%); stroke-linecap: round; stroke-width: 1; fill: rgb(56%,93%,56%); fill-rule: evenodd;"/>
			<polygon points="656.8435 241.5776, 678.7484 241.5776, 678.7484 251.8279, 695.1488 231.3273, 678.7484 210.8268, 678.7484 221.0771, 656.8435 221.0771" style="stroke: rgb(67%,84%,90%); stroke-linecap: round; stroke-width: 1; fill: rgb(67%,84%,90%); fill-rule: evenodd;"/>
			<polygon points="753.7818 200.5765, 714.6043 200.5765, 714.6043 210.8268, 698.2038 190.3262, 714.6043 169.8256, 714.6043 180.0759, 753.7818 180.0759" style="stroke: rgb(56%,93%,56%); stroke-linecap: round; stroke-width: 1; fill: rgb(56%,93%,56%); fill-rule: evenodd;"/>
			<polygon points="893.8429 200.5765, 775.7048 200.5765, 775.7048 210.8268, 759.3043 190.3262, 775.7048 169.8256, 775.7048 180.0759, 893.8429 180.0759" style="stroke: rgb(56%,93%,56%); stroke-linecap: round; stroke-width: 1; fill: rgb(56%,93%,56%); fill-rule: evenodd;"/>
			<polygon points="262.7452 487.5844, 178.4473 487.5844, 178.4473 497.8346, 162.0469 477.3341, 178.4473 456.8335, 178.4473 467.0838, 262.7452 467.0838" style="stroke: rgb(56%,93%,56%); stroke-linecap: round; stroke-width: 1; fill: rgb(56%,93%,56%); fill-rule: evenodd;"/>
			<polygon points="279.3129 528.5855, 310.3828 528.5855, 310.3828 538.8358, 326.7833 518.3352, 310.3828 497.8346, 310.3828 508.0849, 279.3129 508.0849" style="stroke: rgb(67%,84%,90%); stroke-linecap: round; stroke-width: 1; fill: rgb(67%,84%,90%); fill-rule: evenodd;"/>
			<polygon points="402.3364 487.5844, 345.5337 487.5844, 345.5337 497.8346, 329.1333 477.3341, 345.5337 456.8335, 345.5337 467.0838, 402.3364 467.0838" style="stroke: rgb(56%,93%,56%); stroke-linecap: round; stroke-width: 1; fill: rgb(56%,93%,56%); fill-rule: evenodd;"/>
			<polygon points="478.712 487.5844, 447.9946 487.5844, 447.9946 497.8346, 431.5941 477.3341, 447.9946 456.8335, 447.9946 467.0838, 478.712 467.0838" style="stroke: rgb(56%,93%,56%); stroke-linecap: round; stroke-width: 1; fill: rgb(56%,93%,56%); fill-rule: evenodd;"/>
			<polygon points="496.2197 528.5855, 520.592 528.5855, 520.592 538.8358, 536.9925 518.3352, 520.592 497.8346, 520.592 508.0849, 496.2197 508.0849" style="stroke: rgb(67%,84%,90%); stroke-linecap: round; stroke-width: 1; fill: rgb(67%,84%,90%); fill-rule: evenodd;"/>
			<polygon points="622.0632 487.5844, 568.7856 487.5844, 568.7856 497.8346, 552.3851 477.3341, 568.7856 456.8335, 568.7856 467.0838, 622.0632 467.0838" style="stroke: rgb(56%,93%,56%); stroke-linecap: round; stroke-width: 1; fill: rgb(56%,93%,56%); fill-rule: evenodd;"/>
			<polygon points="640.1584 528.5855, 664.5307 528.5855, 664.5307 538.8358, 680.9312 518.3352, 664.5307 497.8346, 664.5307 508.0849, 640.1584 508.0849" style="stroke: rgb(67%,84%,90%); stroke-linecap: round; stroke-width: 1; fill: rgb(67%,84%,90%); fill-rule: evenodd;"/>
			<polygon points="803.1322 487.5844, 722.7118 487.5844, 722.7118 497.8346, 706.3114 477.3341, 722.7118 456.8335, 722.7118 467.0838, 803.1322 467.0838" style="stroke: rgb(56%,93%,56%); stroke-linecap: round; stroke-width: 1; fill: rgb(56%,93%,56%); fill-rule: evenodd;"/>
			<polygon points="908.8831 487.5844, 831.6352 487.5844, 831.6352 497.8346, 815.2348 477.3341, 831.6352 456.8335, 831.6352 467.0838, 908.8831 467.0838" style="stroke: rgb(56%,93%,56%); stroke-linecap: round; stroke-width: 1; fill: rgb(56%,93%,56%); fill-rule: evenodd;"/>
			<polygon points="1009.464 487.5844, 927.6335 487.5844, 927.6335 497.8346, 911.2331 477.3341, 927.6335 456.8335, 927.6335 467.0838, 1009.464 467.0838" style="stroke: rgb(56%,93%,56%); stroke-linecap: round; stroke-width: 1; fill: rgb(56%,93%,56%); fill-rule: evenodd;"/>
			<polygon points="1120.502 487.5844, 1026.334 487.5844, 1026.334 497.8346, 1009.934 477.3341, 1026.334 456.8335, 1026.334 467.0838, 1120.502 467.0838" style="stroke: rgb(56%,93%,56%); stroke-linecap: round; stroke-width: 1; fill: rgb(56%,93%,56%); fill-rule: evenodd;"/>
			<polygon points="1209.333 487.5844, 1141.603 487.5844, 1141.603 497.8346, 1125.202 477.3341, 1141.603 456.8335, 1141.603 467.0838, 1209.333 467.0838" style="stroke: rgb(56%,93%,56%); stroke-linecap: round; stroke-width: 1; fill: rgb(56%,93%,56%); fill-rule: evenodd;"/>
			<polygon points="1308.504 487.5844, 1225.969 487.5844, 1225.969 497.8346, 1209.568 477.3341, 1225.969 456.8335, 1225.969 467.0838, 1308.504 467.0838" style="stroke: rgb(56%,93%,56%); stroke-linecap: round; stroke-width: 1; fill: rgb(56%,93%,56%); fill-rule: evenodd;"/>
			<path d="M 894.900458,169.825647 L 894.900458,251.827897 Z" style="stroke: rgb(0%,0%,0%); stroke-linecap: butt; stroke-width: 1;"/>
			<path d="M 70.866142,210.826772 L 894.900458,210.826772 Z" style="stroke: rgb(0%,0%,0%); stroke-linecap: butt; stroke-width: 1;"/>
			<path d="M 70.866142,169.825647 L 70.866142,251.827897 Z" style="stroke: rgb(0%,0%,0%); stroke-linecap: butt; stroke-width: 1;"/>
			<path d="M 1346.339192,456.833521 L 1346.339192,538.835771 Z" style="stroke: rgb(0%,0%,0%); stroke-linecap: butt; stroke-width: 1;"/>
			<path d="M 70.866142,497.834646 L 1346.339192,497.834646 Z" style="stroke: rgb(0%,0%,0%); stroke-linecap: butt; stroke-width: 1;"/>
			<path d="M 70.866142,456.833521 L 70.866142,538.835771 Z" style="stroke: rgb(0%,0%,0%); stroke-linecap: butt; stroke-width: 1;"/>
			<path d="M 1245.875861,497.834646 L 1245.875861,518.335208 Z" style="stroke: rgb(0%,0%,0%); stroke-linecap: butt; stroke-width: 1;"/>
			<path d="M 1245.875861,497.834646 L 1245.875861,510.134983 Z" style="stroke: rgb(0%,0%,0%); stroke-linecap: butt; stroke-width: 1;"/>
			<g transform=" matrix(0.707107,0.707107,-0.707107,0.707107,1245.875861,518.335208)">
				<text style="font-family: Helvetica; font-size: 6px;fill: rgb(0%,0%,0%); stroke:none;" transform="translate(0,0) scale(1,-1)" x="0" y="0">10000</text>
			</g>
			<g transform=" matrix(0.707107,-0.707107,0.707107,0.707107,108.11395,169.825647)">
				<text style="font-family: Helvetica; font-size: 10px;fill: rgb(0%,0%,0%); stroke:none;" transform="translate(0,0) scale(1,-1)" x="0" y="0">Gene_01827</text>
			</g>
			<g transform=" matrix(0.707107,-0.707107,0.707107,0.707107,282.367891,169.825647)">
				<text style="font-family: Helvetica; font-size: 10px;fill: rgb(0%,0%,0%); stroke:none;" transform="translate(0,0) scale(1,-1)" x="0" y="0">Gene_01828</text>
			</g>
			<g transform=" matrix(0.707107,-0.707107,0.707107,0.707107,455.916827,169.825647)">
				<text style="font-family: Helvetica; font-size: 10px;fill: rgb(0%,0%,0%); stroke:none;" transform="translate(0,0) scale(1,-1)" x="0" y="0">Gene_01829</text>
			</g>
			<g transform=" matrix(0.707107,-0.707107,0.707107,0.707107,543.33755,169.825647)">
				<text style="font-family: Helvetica; font-size: 10px;fill: rgb(0%,0%,0%); stroke:none;" transform="translate(0,0) scale(1,-1)" x="0" y="0">Gene_01830</text>
			</g>
			<g transform=" matrix(0.707107,-0.707107,0.707107,0.707107,612.25187,169.825647)">
				<text style="font-family: Helvetica; font-size: 10px;fill: rgb(0%,0%,0%); stroke:none;" transform="translate(0,0) scale(1,-1)" x="0" y="0">Gene_01831</text>
			</g>
			<g transform=" matrix(0.707107,0.707107,-0.707107,0.707107,675.996147,251.827897)">
				<text style="font-family: Helvetica; font-size: 16px;fill: rgb(0%,0%,100%); stroke:none;" transform="translate(0,0) scale(1,-1)" x="0" y="0">Gene_01832 (81.2)</text>
			</g>
			<g transform=" matrix(0.707107,-0.707107,0.707107,0.707107,725.992811,169.825647)">
				<text style="font-family: Helvetica; font-size: 10px;fill: rgb(0%,0%,0%); stroke:none;" transform="translate(0,0) scale(1,-1)" x="0" y="0">Gene_01833</text>
			</g>
			<g transform=" matrix(0.707107,-0.707107,0.707107,0.707107,826.573643,169.825647)">
				<text style="font-family: Helvetica; font-size: 10px;fill: rgb(0%,0%,0%); stroke:none;" transform="translate(0,0) scale(1,-1)" x="0" y="0">Gene_01834</text>
			</g>
			<g transform=" matrix(0.707107,-0.707107,0.707107,0.707107,212.396062,456.833521)">
				<text style="font-family: Helvetica; font-size: 10px;fill: rgb(0%,0%,0%); stroke:none;" transform="translate(0,0) scale(1,-1)" x="0" y="0">Gene_01563</text>
			</g>
			<g transform=" matrix(0.707107,0.707107,-0.707107,0.707107,303.048062,538.835771)">
				<text style="font-family: Helvetica; font-size: 10px;fill: rgb(0%,0%,0%); stroke:none;" transform="translate(0,0) scale(1,-1)" x="0" y="0">Gene_01564</text>
			</g>
			<g transform=" matrix(0.707107,-0.707107,0.707107,0.707107,365.734831,456.833521)">
				<text style="font-family: Helvetica; font-size: 10px;fill: rgb(0%,0%,0%); stroke:none;" transform="translate(0,0) scale(1,-1)" x="0" y="0">Gene_01565</text>
			</g>
			<g transform=" matrix(0.707107,-0.707107,0.707107,0.707107,455.15307,456.833521)">
				<text style="font-family: Helvetica; font-size: 10px;fill: rgb(0%,0%,0%); stroke:none;" transform="translate(0,0) scale(1,-1)" x="0" y="0">Gene_01566</text>
			</g>
			<g transform=" matrix(0.707107,0.707107,-0.707107,0.707107,516.606079,538.835771)">
				<text style="font-family: Helvetica; font-size: 16px;fill: rgb(0%,0%,100%); stroke:none;" transform="translate(0,0) scale(1,-1)" x="0" y="0">Gene_01567 (81.2)</text>
			</g>
			<g transform=" matrix(0.707107,-0.707107,0.707107,0.707107,587.224163,456.833521)">
				<text style="font-family: Helvetica; font-size: 10px;fill: rgb(0%,0%,0%); stroke:none;" transform="translate(0,0) scale(1,-1)" x="0" y="0">Gene_01568</text>
			</g>
			<g transform=" matrix(0.707107,0.707107,-0.707107,0.707107,660.544769,538.835771)">
				<text style="font-family: Helvetica; font-size: 10px;fill: rgb(0%,0%,0%); stroke:none;" transform="translate(0,0) scale(1,-1)" x="0" y="0">Gene_01569</text>
			</g>
			<g transform=" matrix(0.707107,-0.707107,0.707107,0.707107,754.721798,456.833521)">
				<text style="font-family: Helvetica; font-size: 10px;fill: rgb(0%,0%,0%); stroke:none;" transform="translate(0,0) scale(1,-1)" x="0" y="0">Gene_01570</text>
			</g>
			<g transform=" matrix(0.707107,-0.707107,0.707107,0.707107,862.058936,456.833521)">
				<text style="font-family: Helvetica; font-size: 10px;fill: rgb(0%,0%,0%); stroke:none;" transform="translate(0,0) scale(1,-1)" x="0" y="0">Gene_01571</text>
			</g>
			<g transform=" matrix(0.707107,-0.707107,0.707107,0.707107,960.348499,456.833521)">
				<text style="font-family: Helvetica; font-size: 10px;fill: rgb(0%,0%,0%); stroke:none;" transform="translate(0,0) scale(1,-1)" x="0" y="0">Gene_01572</text>
			</g>
			<g transform=" matrix(0.707107,-0.707107,0.707107,0.707107,1065.218117,456.833521)">
				<text style="font-family: Helvetica; font-size: 10px;fill: rgb(0%,0%,0%); stroke:none;" transform="translate(0,0) scale(1,-1)" x="0" y="0">Gene_01573</text>
			</g>
			<g transform=" matrix(0.707107,-0.707107,0.707107,0.707107,1167.267711,456.833521)">
				<text style="font-family: Helvetica; font-size: 10px;fill: rgb(0%,0%,0%); stroke:none;" transform="translate(0,0) scale(1,-1)" x="0" y="0">Gene_01574</text>
			</g>
			<g transform=" matrix(0.707107,-0.707107,0.707107,0.707107,1259.03597,456.833521)">
				<text style="font-family: Helvetica; font-size: 10px;fill: rgb(0%,0%,0%); stroke:none;" transform="translate(0,0) scale(1,-1)" x="0" y="0">Gene_01575</text>
			</g>
			<g transform=" matrix(1,0,-0,1,70,169.825647)">
				<text style="font-family: Helvetica; font-size: 12px;fill: rgb(60%,60%,60%); stroke:none;" transform="translate(0,0) scale(1,-1)" x="0" y="0">megahit_100173 (left 4987bp, right 1700bp)</text>
			</g>
			<g transform=" matrix(1,0,-0,1,70,456.833521)">
				<text style="font-family: Helvetica; font-size: 12px;fill: rgb(60%,60%,60%); stroke:none;" transform="translate(0,0) scale(1,-1)" x="0" y="0">megahit_53233 (left 3620bp, right 6888bp)</text>
			</g>
		</g>
	</g>
</svg>
