<?xml version="1.0" encoding="utf-8"?>
<!DOCTYPE svg
  PUBLIC '-//W3C//DTD SVG 1.0//EN'
  'http://www.w3.org/TR/2001/REC-SVG-20010904/DTD/svg10.dtd'>
<svg fill-rule="evenodd" height="708.6614173228346" preserveAspectRatio="xMinYMin meet" version="1.0" viewBox="0 0 1417 708" width="1417.3228346456692" xmlns="http://www.w3.org/2000/svg" xmlns:xlink="http://www.w3.org/1999/xlink">
	<title>...</title>
	<desc>...</desc>
	<clipPath id="clip">
		<rect height="708.6614173228346" width="1417.3228346456692" x="0" y="0"/>
	</clipPath>
	<g id="group" style="clip-path: url(#clip)" transform="scale(1,-1) translate(0,-708)">
		<g transform="">
			<polygon points="70.86614 169.8256, 712.4746 169.8256, 712.4746 251.8279, 70.86614 251.8279" style="stroke: rgb(96%,96%,96%); stroke-linecap: butt; stroke-width: 1; fill: rgb(96%,96%,96%); fill-rule: evenodd;"/>
			<polygon points="70.86614 456.8335, 1346.358 456.8335, 1346.358 538.8358, 70.86614 538.8358" style="stroke: rgb(96%,96%,96%); stroke-linecap: butt; stroke-width: 1; fill: rgb(96%,96%,96%); fill-rule: evenodd;"/>
			<polygon points="262.8138 456.8335, 361.0657 456.8335, 543.5052 251.8279, 445.5504 251.8279" style="stroke: rgb(100%,24%,24%); stroke-linecap: round; stroke-width: 1; fill: rgb(100%,24%,24%); fill-rule: evenodd;"/>
			<polygon points="361.3628 456.8335, 450.0074 456.8335, 641.8561 251.8279, 553.4096 251.8279" style="stroke: rgb(100%,26%,26%); stroke-linecap: round; stroke-width: 1; fill: rgb(100%,26%,26%); fill-rule: evenodd;"/>
			<polygon points="134.7497 241.5776, 134.7497 251.8279, 150.6958 231.3273, 134.7497 210.8268, 134.7497 221.0771" style="stroke: rgb(67%,84%,90%); stroke-linecap: round; stroke-width: 1; fill: rgb(67%,84%,90%); fill-rule: evenodd;"/>
			<polygon points="156.2423 241.5776, 378.3403 241.5776, 378.3403 251.8279, 394.7408 231.3273, 378.3403 210.8268, 378.3403 221.0771, 156.2423 221.0771" style="stroke: rgb(67%,84%,90%); stroke-linecap: round; stroke-width: 1; fill: rgb(67%,84%,90%); fill-rule: evenodd;"/>
			<polygon points="430.8919 200.5765, 414.4097 200.5765, 414.4097 210.8268, 398.0092 190.3262, 414.4097 169.8256, 414.4097 180.0759, 430.8919 180.0759" style="stroke: rgb(56%,93%,56%); stroke-linecap: round; stroke-width: 1; fill: rgb(56%,93%,56%); fill-rule: evenodd;"/>
			<polygon points="460.1099 241.5776, 521.1621 241.5776, 521.1621 251.8279, 537.5625 231.3273, 521.1621 210.8268, 521.1621 221.0771, 460.1099 221.0771" style="stroke: rgb(67%,84%,90%); stroke-linecap: round; stroke-width: 1; fill: rgb(67%,84%,90%); fill-rule: evenodd;"/>
			<polygon points="554.9943 241.5776, 625.2576 241.5776, 625.2576 251.8279, 641.658 231.3273, 625.2576 210.8268, 625.2576 221.0771, 554.9943 221.0771" style="stroke: rgb(67%,84%,90%); stroke-linecap: round; stroke-width: 1; fill: rgb(67%,84%,90%); fill-rule: evenodd;"/>
			<polygon points="86.51513 528.5855, 152.9156 528.5855, 152.9156 538.8358, 169.3161 518.3352, 152.9156 497.8346, 152.9156 508.0849, 86.51513 508.0849" style="stroke: rgb(67%,84%,90%); stroke-linecap: round; stroke-width: 1; fill: rgb(67%,84%,90%); fill-rule: evenodd;"/>
			<polygon points="170.3065 528.5855, 245.0268 528.5855, 245.0268 538.8358, 261.4272 518.3352, 245.0268 497.8346, 245.0268 508.0849, 170.3065 508.0849" style="stroke: rgb(67%,84%,90%); stroke-linecap: round; stroke-width: 1; fill: rgb(67%,84%,90%); fill-rule: evenodd;"/>
			<polygon points="277.2743 528.5855, 339.515 528.5855, 339.515 538.8358, 355.9154 518.3352, 339.515 497.8346, 339.515 508.0849, 277.2743 508.0849" style="stroke: rgb(67%,84%,90%); stroke-linecap: round; stroke-width: 1; fill: rgb(67%,84%,90%); fill-rule: evenodd;"/>
			<polygon points="363.1456 528.5855, 433.4089 528.5855, 433.4089 538.8358, 449.8093 518.3352, 433.4089 497.8346, 433.4089 508.0849, 363.1456 508.0849" style="stroke: rgb(67%,84%,90%); stroke-linecap: round; stroke-width: 1; fill: rgb(67%,84%,90%); fill-rule: evenodd;"/>
			<polygon points="462.388 528.5855, 520.7659 528.5855, 520.7659 538.8358, 537.1663 518.3352, 520.7659 497.8346, 520.7659 508.0849, 462.388 508.0849" style="stroke: rgb(67%,84%,90%); stroke-linecap: round; stroke-width: 1; fill: rgb(67%,84%,90%); fill-rule: evenodd;"/>
			<polygon points="538.9491 528.5855, 635.9543 528.5855, 635.9543 538.8358, 652.3548 518.3352, 635.9543 497.8346, 635.9543 508.0849, 538.9491 508.0849" style="stroke: rgb(67%,84%,90%); stroke-linecap: round; stroke-width: 1; fill: rgb(67%,84%,90%); fill-rule: evenodd;"/>
			<polygon points="680.1862 528.5855, 759.0663 528.5855, 759.0663 538.8358, 775.4667 518.3352, 759.0663 497.8346, 759.0663 508.0849, 680.1862 508.0849" style="stroke: rgb(67%,84%,90%); stroke-linecap: round; stroke-width: 1; fill: rgb(67%,84%,90%); fill-rule: evenodd;"/>
			<polygon points="800.2278 528.5855, 1154.55 528.5855, 1154.55 538.8358, 1170.95 518.3352, 1154.55 497.8346, 1154.55 508.0849, 800.2278 508.0849" style="stroke: rgb(67%,84%,90%); stroke-linecap: round; stroke-width: 1; fill: rgb(67%,84%,90%); fill-rule: evenodd;"/>
			<polygon points="1330.709 487.5844, 1304.718 487.5844, 1304.718 497.8346, 1288.318 477.3341, 1304.718 456.8335, 1304.718 467.0838, 1330.709 467.0838" style="stroke: rgb(56%,93%,56%); stroke-linecap: round; stroke-width: 1; fill: rgb(56%,93%,56%); fill-rule: evenodd;"/>
			<path d="M 712.47462,169.825647 L 712.47462,251.827897 Z" style="stroke: rgb(0%,0%,0%); stroke-linecap: butt; stroke-width: 1;"/>
			<path d="M 70.866142,210.826772 L 712.47462,210.826772 Z" style="stroke: rgb(0%,0%,0%); stroke-linecap: butt; stroke-width: 1;"/>
			<path d="M 70.866142,169.825647 L 70.866142,251.827897 Z" style="stroke: rgb(0%,0%,0%); stroke-linecap: butt; stroke-width: 1;"/>
			<path d="M 1346.357649,456.833521 L 1346.357649,538.835771 Z" style="stroke: rgb(0%,0%,0%); stroke-linecap: butt; stroke-width: 1;"/>
			<path d="M 70.866142,497.834646 L 1346.357649,497.834646 Z" style="stroke: rgb(0%,0%,0%); stroke-linecap: butt; stroke-width: 1;"/>
			<path d="M 70.866142,456.833521 L 70.866142,538.835771 Z" style="stroke: rgb(0%,0%,0%); stroke-linecap: butt; stroke-width: 1;"/>
			<path d="M 1061.308374,497.834646 L 1061.308374,518.335208 Z" style="stroke: rgb(0%,0%,0%); stroke-linecap: butt; stroke-width: 1;"/>
			<path d="M 1061.308374,497.834646 L 1061.308374,510.134983 Z" style="stroke: rgb(0%,0%,0%); stroke-linecap: butt; stroke-width: 1;"/>
			<g transform=" matrix(0.707107,0.707107,-0.707107,0.707107,1061.308374,518.335208)">
				<text style="font-family: Helvetica; font-size: 6px;fill: rgb(0%,0%,0%); stroke:none;" transform="translate(0,0) scale(1,-1)" x="0" y="0">10000</text>
			</g>
			<g transform=" matrix(0.707107,0.707107,-0.707107,0.707107,142.722726,251.827897)">
				<text style="font-family: Helvetica; font-size: 10px;fill: rgb(0%,0%,0%); stroke:none;" transform="translate(0,0) scale(1,-1)" x="0" y="0">Gene_00398</text>
			</g>
			<g transform=" matrix(0.707107,0.707107,-0.707107,0.707107,275.491507,251.827897)">
				<text style="font-family: Helvetica; font-size: 10px;fill: rgb(0%,0%,0%); stroke:none;" transform="translate(0,0) scale(1,-1)" x="0" y="0">Gene_00399</text>
			</g>
			<g transform=" matrix(0.707107,-0.707107,0.707107,0.707107,414.450552,169.825647)">
				<text style="font-family: Helvetica; font-size: 10px;fill: rgb(0%,0%,0%); stroke:none;" transform="translate(0,0) scale(1,-1)" x="0" y="0">Gene_00400</text>
			</g>
			<g transform=" matrix(0.707107,0.707107,-0.707107,0.707107,498.83623,251.827897)">
				<text style="font-family: Helvetica; font-size: 16px;fill: rgb(0%,0%,100%); stroke:none;" transform="translate(0,0) scale(1,-1)" x="0" y="0">Gene_00401 (90.3)</text>
			</g>
			<g transform=" matrix(0.707107,0.707107,-0.707107,0.707107,598.326153,251.827897)">
				<text style="font-family: Helvetica; font-size: 10px;fill: rgb(0%,0%,0%); stroke:none;" transform="translate(0,0) scale(1,-1)" x="0" y="0">Gene_00402</text>
			</g>
			<g transform=" matrix(0.707107,0.707107,-0.707107,0.707107,127.915614,538.835771)">
				<text style="font-family: Helvetica; font-size: 10px;fill: rgb(0%,0%,0%); stroke:none;" transform="translate(0,0) scale(1,-1)" x="0" y="0">Gene_00133</text>
			</g>
			<g transform=" matrix(0.707107,0.707107,-0.707107,0.707107,215.866885,538.835771)">
				<text style="font-family: Helvetica; font-size: 10px;fill: rgb(0%,0%,0%); stroke:none;" transform="translate(0,0) scale(1,-1)" x="0" y="0">Gene_00134</text>
			</g>
			<g transform=" matrix(0.707107,0.707107,-0.707107,0.707107,316.59486,538.835771)">
				<text style="font-family: Helvetica; font-size: 16px;fill: rgb(0%,0%,100%); stroke:none;" transform="translate(0,0) scale(1,-1)" x="0" y="0">Gene_00135 (90.3)</text>
			</g>
			<g transform=" matrix(0.707107,0.707107,-0.707107,0.707107,406.477492,538.835771)">
				<text style="font-family: Helvetica; font-size: 10px;fill: rgb(0%,0%,0%); stroke:none;" transform="translate(0,0) scale(1,-1)" x="0" y="0">Gene_00136</text>
			</g>
			<g transform=" matrix(0.707107,0.707107,-0.707107,0.707107,499.77715,538.835771)">
				<text style="font-family: Helvetica; font-size: 10px;fill: rgb(0%,0%,0%); stroke:none;" transform="translate(0,0) scale(1,-1)" x="0" y="0">Gene_00137</text>
			</g>
			<g transform=" matrix(0.707107,0.707107,-0.707107,0.707107,595.651959,538.835771)">
				<text style="font-family: Helvetica; font-size: 10px;fill: rgb(0%,0%,0%); stroke:none;" transform="translate(0,0) scale(1,-1)" x="0" y="0">Gene_00138</text>
			</g>
			<g transform=" matrix(0.707107,0.707107,-0.707107,0.707107,727.826475,538.835771)">
				<text style="font-family: Helvetica; font-size: 10px;fill: rgb(0%,0%,0%); stroke:none;" transform="translate(0,0) scale(1,-1)" x="0" y="0">Gene_00139</text>
			</g>
			<g transform=" matrix(0.707107,0.707107,-0.707107,0.707107,985.589066,538.835771)">
				<text style="font-family: Helvetica; font-size: 10px;fill: rgb(0%,0%,0%); stroke:none;" transform="translate(0,0) scale(1,-1)" x="0" y="0">Gene_00140</text>
			</g>
			<g transform=" matrix(0.707107,-0.707107,0.707107,0.707107,1309.513198,456.833521)">
				<text style="font-family: Helvetica; font-size: 10px;fill: rgb(0%,0%,0%); stroke:none;" transform="translate(0,0) scale(1,-1)" x="0" y="0">Gene_00141</text>
			</g>
			<g transform=" matrix(1,0,-0,1,70,169.825647)">
				<text style="font-family: Helvetica; font-size: 12px;fill: rgb(60%,60%,60%); stroke:none;" transform="translate(0,0) scale(1,-1)" x="0" y="0">megahit_17820 (left 3930bp, right 1766bp)</text>
			</g>
			<g transform=" matrix(1,0,-0,1,70,456.833521)">
				<text style="font-family: Helvetica; font-size: 12px;fill: rgb(60%,60%,60%); stroke:none;" transform="translate(0,0) scale(1,-1)" x="0" y="0">megahit_22831 (left 2084bp, right 10731bp)</text>
			</g>
		</g>
	</g>
</svg>
