<?xml version="1.0" encoding="utf-8"?>
<!DOCTYPE svg
  PUBLIC '-//W3C//DTD SVG 1.0//EN'
  'http://www.w3.org/TR/2001/REC-SVG-20010904/DTD/svg10.dtd'>
<svg fill-rule="evenodd" height="708.6614173228346" preserveAspectRatio="xMinYMin meet" version="1.0" viewBox="0 0 1417 708" width="1417.3228346456692" xmlns="http://www.w3.org/2000/svg" xmlns:xlink="http://www.w3.org/1999/xlink">
	<title>...</title>
	<desc>...</desc>
	<clipPath id="clip">
		<rect height="708.6614173228346" width="1417.3228346456692" x="0" y="0"/>
	</clipPath>
	<g id="group" style="clip-path: url(#clip)" transform="scale(1,-1) translate(0,-708)">
		<g transform="">
			<polygon points="70.86614 169.8256, 476.4163 169.8256, 476.4163 251.8279, 70.86614 251.8279" style="stroke: rgb(96%,96%,96%); stroke-linecap: butt; stroke-width: 1; fill: rgb(96%,96%,96%); fill-rule: evenodd;"/>
			<polygon points="70.86614 456.8335, 1346.4 456.8335, 1346.4 538.8358, 70.86614 538.8358" style="stroke: rgb(96%,96%,96%); stroke-linecap: butt; stroke-width: 1; fill: rgb(96%,96%,96%); fill-rule: evenodd;"/>
			<polygon points="548.9665 456.8335, 619.3234 456.8335, 209.4989 251.8279, 279.9683 251.8279" style="stroke: rgb(100%,43%,43%); stroke-linecap: round; stroke-width: 1; fill: rgb(100%,43%,43%); fill-rule: evenodd;"/>
			<polygon points="479.847 456.8335, 539.012 456.8335, 289.6416 251.8279, 348.4692 251.8279" style="stroke: rgb(100%,38%,38%); stroke-linecap: round; stroke-width: 1; fill: rgb(100%,38%,38%); fill-rule: evenodd;"/>
			<polygon points="632.4274 456.8335, 675.3952 456.8335, 162.0882 251.8279, 205.056 251.8279" style="stroke: rgb(100%,32%,32%); stroke-linecap: round; stroke-width: 1; fill: rgb(100%,32%,32%); fill-rule: evenodd;"/>
			<polygon points="85.99483 241.5776, 128.2532 241.5776, 128.2532 251.8279, 144.6537 231.3273, 128.2532 210.8268, 128.2532 221.0771, 85.99483 221.0771" style="stroke: rgb(67%,84%,90%); stroke-linecap: round; stroke-width: 1; fill: rgb(67%,84%,90%); fill-rule: evenodd;"/>
			<polygon points="204.2123 200.5765, 178.4887 200.5765, 178.4887 210.8268, 162.0882 190.3262, 178.4887 169.8256, 178.4887 180.0759, 204.2123 180.0759" style="stroke: rgb(56%,93%,56%); stroke-linecap: round; stroke-width: 1; fill: rgb(56%,93%,56%); fill-rule: evenodd;"/>
			<polygon points="280.137 200.5765, 228.7677 200.5765, 228.7677 210.8268, 212.3672 190.3262, 228.7677 169.8256, 228.7677 180.0759, 280.137 180.0759" style="stroke: rgb(56%,93%,56%); stroke-linecap: round; stroke-width: 1; fill: rgb(56%,93%,56%); fill-rule: evenodd;"/>
			<polygon points="347.1194 200.5765, 306.5483 200.5765, 306.5483 210.8268, 290.1478 190.3262, 306.5483 169.8256, 306.5483 180.0759, 347.1194 180.0759" style="stroke: rgb(56%,93%,56%); stroke-linecap: round; stroke-width: 1; fill: rgb(56%,93%,56%); fill-rule: evenodd;"/>
			<polygon points="363.6541 241.5776, 393.0897 241.5776, 393.0897 251.8279, 409.4901 231.3273, 393.0897 210.8268, 393.0897 221.0771, 363.6541 221.0771" style="stroke: rgb(67%,84%,90%); stroke-linecap: round; stroke-width: 1; fill: rgb(67%,84%,90%); fill-rule: evenodd;"/>
			<polygon points="473.7168 200.5765, 429.4337 200.5765, 429.4337 210.8268, 413.0333 190.3262, 429.4337 169.8256, 429.4337 180.0759, 473.7168 180.0759" style="stroke: rgb(56%,93%,56%); stroke-linecap: round; stroke-width: 1; fill: rgb(56%,93%,56%); fill-rule: evenodd;"/>
			<polygon points="79.02101 528.5855, 145.744 528.5855, 145.744 538.8358, 162.1445 518.3352, 145.744 497.8346, 145.744 508.0849, 79.02101 508.0849" style="stroke: rgb(67%,84%,90%); stroke-linecap: round; stroke-width: 1; fill: rgb(67%,84%,90%); fill-rule: evenodd;"/>
			<polygon points="163.213 528.5855, 197.2041 528.5855, 197.2041 538.8358, 213.6045 518.3352, 197.2041 497.8346, 197.2041 508.0849, 163.213 508.0849" style="stroke: rgb(67%,84%,90%); stroke-linecap: round; stroke-width: 1; fill: rgb(67%,84%,90%); fill-rule: evenodd;"/>
			<polygon points="213.6045 528.5855, 244.896 528.5855, 244.896 538.8358, 261.2964 518.3352, 244.896 497.8346, 244.896 508.0849, 213.6045 508.0849" style="stroke: rgb(67%,84%,90%); stroke-linecap: round; stroke-width: 1; fill: rgb(67%,84%,90%); fill-rule: evenodd;"/>
			<polygon points="262.0838 528.5855, 340.6173 528.5855, 340.6173 538.8358, 357.0178 518.3352, 340.6173 497.8346, 340.6173 508.0849, 262.0838 508.0849" style="stroke: rgb(67%,84%,90%); stroke-linecap: round; stroke-width: 1; fill: rgb(67%,84%,90%); fill-rule: evenodd;"/>
			<polygon points="411.796 487.5844, 382.1917 487.5844, 382.1917 497.8346, 365.7913 477.3341, 382.1917 456.8335, 382.1917 467.0838, 411.796 467.0838" style="stroke: rgb(56%,93%,56%); stroke-linecap: round; stroke-width: 1; fill: rgb(56%,93%,56%); fill-rule: evenodd;"/>
			<polygon points="469.2738 487.5844, 437.8136 487.5844, 437.8136 497.8346, 421.4131 477.3341, 437.8136 456.8335, 437.8136 467.0838, 469.2738 467.0838" style="stroke: rgb(56%,93%,56%); stroke-linecap: round; stroke-width: 1; fill: rgb(56%,93%,56%); fill-rule: evenodd;"/>
			<polygon points="481.1405 528.5855, 522.0491 528.5855, 522.0491 538.8358, 538.4496 518.3352, 522.0491 497.8346, 522.0491 508.0849, 481.1405 508.0849" style="stroke: rgb(67%,84%,90%); stroke-linecap: round; stroke-width: 1; fill: rgb(67%,84%,90%); fill-rule: evenodd;"/>
			<polygon points="548.6291 528.5855, 600.1672 528.5855, 600.1672 538.8358, 616.5676 518.3352, 600.1672 497.8346, 600.1672 508.0849, 548.6291 508.0849" style="stroke: rgb(67%,84%,90%); stroke-linecap: round; stroke-width: 1; fill: rgb(67%,84%,90%); fill-rule: evenodd;"/>
			<polygon points="633.271 528.5855, 658.9947 528.5855, 658.9947 538.8358, 675.3952 518.3352, 658.9947 497.8346, 658.9947 508.0849, 633.271 508.0849" style="stroke: rgb(67%,84%,90%); stroke-linecap: round; stroke-width: 1; fill: rgb(67%,84%,90%); fill-rule: evenodd;"/>
			<polygon points="693.4484 528.5855, 716.4725 528.5855, 716.4725 538.8358, 732.8729 518.3352, 716.4725 497.8346, 716.4725 508.0849, 693.4484 508.0849" style="stroke: rgb(67%,84%,90%); stroke-linecap: round; stroke-width: 1; fill: rgb(67%,84%,90%); fill-rule: evenodd;"/>
			<polygon points="783.7706 487.5844, 750.4544 487.5844, 750.4544 497.8346, 734.054 477.3341, 750.4544 456.8335, 750.4544 467.0838, 783.7706 467.0838" style="stroke: rgb(56%,93%,56%); stroke-linecap: round; stroke-width: 1; fill: rgb(56%,93%,56%); fill-rule: evenodd;"/>
			<polygon points="796.1435 528.5855, 796.1435 538.8358, 810.0911 518.3352, 796.1435 497.8346, 796.1435 508.0849" style="stroke: rgb(67%,84%,90%); stroke-linecap: round; stroke-width: 1; fill: rgb(67%,84%,90%); fill-rule: evenodd;"/>
			<polygon points="811.3284 528.5855, 825.0729 528.5855, 825.0729 538.8358, 841.4733 518.3352, 825.0729 497.8346, 825.0729 508.0849, 811.3284 508.0849" style="stroke: rgb(67%,84%,90%); stroke-linecap: round; stroke-width: 1; fill: rgb(67%,84%,90%); fill-rule: evenodd;"/>
			<polygon points="868.4125 528.5855, 873.3835 528.5855, 873.3835 538.8358, 889.7839 518.3352, 873.3835 497.8346, 873.3835 508.0849, 868.4125 508.0849" style="stroke: rgb(67%,84%,90%); stroke-linecap: round; stroke-width: 1; fill: rgb(67%,84%,90%); fill-rule: evenodd;"/>
			<polygon points="912.4488 528.5855, 918.6008 528.5855, 918.6008 538.8358, 935.0013 518.3352, 918.6008 497.8346, 918.6008 508.0849, 912.4488 508.0849" style="stroke: rgb(67%,84%,90%); stroke-linecap: round; stroke-width: 1; fill: rgb(67%,84%,90%); fill-rule: evenodd;"/>
			<polygon points="960.6469 528.5855, 967.98 528.5855, 967.98 538.8358, 984.3804 518.3352, 967.98 497.8346, 967.98 508.0849, 960.6469 508.0849" style="stroke: rgb(67%,84%,90%); stroke-linecap: round; stroke-width: 1; fill: rgb(67%,84%,90%); fill-rule: evenodd;"/>
			<polygon points="1038.428 487.5844, 1006.461 487.5844, 1006.461 497.8346, 990.0607 477.3341, 1006.461 456.8335, 1006.461 467.0838, 1038.428 467.0838" style="stroke: rgb(56%,93%,56%); stroke-linecap: round; stroke-width: 1; fill: rgb(56%,93%,56%); fill-rule: evenodd;"/>
			<polygon points="1055.918 528.5855, 1157.567 528.5855, 1157.567 538.8358, 1173.967 518.3352, 1157.567 497.8346, 1157.567 508.0849, 1055.918 508.0849" style="stroke: rgb(67%,84%,90%); stroke-linecap: round; stroke-width: 1; fill: rgb(67%,84%,90%); fill-rule: evenodd;"/>
			<polygon points="1176.835 528.5855, 1211.67 528.5855, 1211.67 538.8358, 1228.07 518.3352, 1211.67 497.8346, 1211.67 508.0849, 1176.835 508.0849" style="stroke: rgb(67%,84%,90%); stroke-linecap: round; stroke-width: 1; fill: rgb(67%,84%,90%); fill-rule: evenodd;"/>
			<polygon points="1229.758 528.5855, 1272.185 528.5855, 1272.185 538.8358, 1288.585 518.3352, 1272.185 497.8346, 1272.185 508.0849, 1229.758 508.0849" style="stroke: rgb(67%,84%,90%); stroke-linecap: round; stroke-width: 1; fill: rgb(67%,84%,90%); fill-rule: evenodd;"/>
			<polygon points="1288.417 528.5855, 1330 528.5855, 1330 538.8358, 1346.4 518.3352, 1330 497.8346, 1330 508.0849, 1288.417 508.0849" style="stroke: rgb(67%,84%,90%); stroke-linecap: round; stroke-width: 1; fill: rgb(67%,84%,90%); fill-rule: evenodd;"/>
			<path d="M 476.416314,169.825647 L 476.416314,251.827897 Z" style="stroke: rgb(0%,0%,0%); stroke-linecap: butt; stroke-width: 1;"/>
			<path d="M 70.866142,210.826772 L 476.416314,210.826772 Z" style="stroke: rgb(0%,0%,0%); stroke-linecap: butt; stroke-width: 1;"/>
			<path d="M 70.866142,169.825647 L 70.866142,251.827897 Z" style="stroke: rgb(0%,0%,0%); stroke-linecap: butt; stroke-width: 1;"/>
			<path d="M 1346.400452,456.833521 L 1346.400452,538.835771 Z" style="stroke: rgb(0%,0%,0%); stroke-linecap: butt; stroke-width: 1;"/>
			<path d="M 70.866142,497.834646 L 1346.400452,497.834646 Z" style="stroke: rgb(0%,0%,0%); stroke-linecap: butt; stroke-width: 1;"/>
			<path d="M 70.866142,456.833521 L 70.866142,538.835771 Z" style="stroke: rgb(0%,0%,0%); stroke-linecap: butt; stroke-width: 1;"/>
			<path d="M 633.271041,497.834646 L 633.271041,518.335208 Z" style="stroke: rgb(0%,0%,0%); stroke-linecap: butt; stroke-width: 1;"/>
			<path d="M 1195.67594,497.834646 L 1195.67594,518.335208 Z" style="stroke: rgb(0%,0%,0%); stroke-linecap: butt; stroke-width: 1;"/>
			<path d="M 633.271041,497.834646 L 633.271041,510.134983 Z" style="stroke: rgb(0%,0%,0%); stroke-linecap: butt; stroke-width: 1;"/>
			<path d="M 1195.67594,497.834646 L 1195.67594,510.134983 Z" style="stroke: rgb(0%,0%,0%); stroke-linecap: butt; stroke-width: 1;"/>
			<g transform=" matrix(0.707107,0.707107,-0.707107,0.707107,633.271041,518.335208)">
				<text style="font-family: Helvetica; font-size: 6px;fill: rgb(0%,0%,0%); stroke:none;" transform="translate(0,0) scale(1,-1)" x="0" y="0">10000</text>
			</g>
			<g transform=" matrix(0.707107,0.707107,-0.707107,0.707107,1195.67594,518.335208)">
				<text style="font-family: Helvetica; font-size: 6px;fill: rgb(0%,0%,0%); stroke:none;" transform="translate(0,0) scale(1,-1)" x="0" y="0">20000</text>
			</g>
			<g transform=" matrix(0.707107,0.707107,-0.707107,0.707107,115.324249,251.827897)">
				<text style="font-family: Helvetica; font-size: 10px;fill: rgb(0%,0%,0%); stroke:none;" transform="translate(0,0) scale(1,-1)" x="0" y="0">Gene_00502</text>
			</g>
			<g transform=" matrix(0.707107,-0.707107,0.707107,0.707107,183.15028,169.825647)">
				<text style="font-family: Helvetica; font-size: 16px;fill: rgb(0%,0%,100%); stroke:none;" transform="translate(0,0) scale(1,-1)" x="0" y="0">Gene_00503 (83.7)</text>
			</g>
			<g transform=" matrix(0.707107,-0.707107,0.707107,0.707107,246.252109,169.825647)">
				<text style="font-family: Helvetica; font-size: 10px;fill: rgb(0%,0%,0%); stroke:none;" transform="translate(0,0) scale(1,-1)" x="0" y="0">Gene_00504</text>
			</g>
			<g transform=" matrix(0.707107,-0.707107,0.707107,0.707107,318.63362,169.825647)">
				<text style="font-family: Helvetica; font-size: 10px;fill: rgb(0%,0%,0%); stroke:none;" transform="translate(0,0) scale(1,-1)" x="0" y="0">Gene_00505</text>
			</g>
			<g transform=" matrix(0.707107,0.707107,-0.707107,0.707107,386.572132,251.827897)">
				<text style="font-family: Helvetica; font-size: 10px;fill: rgb(0%,0%,0%); stroke:none;" transform="translate(0,0) scale(1,-1)" x="0" y="0">Gene_00506</text>
			</g>
			<g transform=" matrix(0.707107,-0.707107,0.707107,0.707107,443.375027,169.825647)">
				<text style="font-family: Helvetica; font-size: 10px;fill: rgb(0%,0%,0%); stroke:none;" transform="translate(0,0) scale(1,-1)" x="0" y="0">Gene_00507</text>
			</g>
			<g transform=" matrix(0.707107,0.707107,-0.707107,0.707107,120.582735,538.835771)">
				<text style="font-family: Helvetica; font-size: 10px;fill: rgb(0%,0%,0%); stroke:none;" transform="translate(0,0) scale(1,-1)" x="0" y="0">Gene_00197</text>
			</g>
			<g transform=" matrix(0.707107,0.707107,-0.707107,0.707107,188.408766,538.835771)">
				<text style="font-family: Helvetica; font-size: 10px;fill: rgb(0%,0%,0%); stroke:none;" transform="translate(0,0) scale(1,-1)" x="0" y="0">Gene_00198</text>
			</g>
			<g transform=" matrix(0.707107,0.707107,-0.707107,0.707107,237.450473,538.835771)">
				<text style="font-family: Helvetica; font-size: 10px;fill: rgb(0%,0%,0%); stroke:none;" transform="translate(0,0) scale(1,-1)" x="0" y="0">Gene_00199</text>
			</g>
			<g transform=" matrix(0.707107,0.707107,-0.707107,0.707107,309.550781,538.835771)">
				<text style="font-family: Helvetica; font-size: 10px;fill: rgb(0%,0%,0%); stroke:none;" transform="translate(0,0) scale(1,-1)" x="0" y="0">Gene_00200</text>
			</g>
			<g transform=" matrix(0.707107,-0.707107,0.707107,0.707107,388.793631,456.833521)">
				<text style="font-family: Helvetica; font-size: 10px;fill: rgb(0%,0%,0%); stroke:none;" transform="translate(0,0) scale(1,-1)" x="0" y="0">Gene_00201</text>
			</g>
			<g transform=" matrix(0.707107,-0.707107,0.707107,0.707107,445.343444,456.833521)">
				<text style="font-family: Helvetica; font-size: 10px;fill: rgb(0%,0%,0%); stroke:none;" transform="translate(0,0) scale(1,-1)" x="0" y="0">Gene_00202</text>
			</g>
			<g transform=" matrix(0.707107,0.707107,-0.707107,0.707107,509.795045,538.835771)">
				<text style="font-family: Helvetica; font-size: 10px;fill: rgb(0%,0%,0%); stroke:none;" transform="translate(0,0) scale(1,-1)" x="0" y="0">Gene_00203</text>
			</g>
			<g transform=" matrix(0.707107,0.707107,-0.707107,0.707107,582.598359,538.835771)">
				<text style="font-family: Helvetica; font-size: 10px;fill: rgb(0%,0%,0%); stroke:none;" transform="translate(0,0) scale(1,-1)" x="0" y="0">Gene_00204</text>
			</g>
			<g transform=" matrix(0.707107,0.707107,-0.707107,0.707107,654.333104,538.835771)">
				<text style="font-family: Helvetica; font-size: 16px;fill: rgb(0%,0%,100%); stroke:none;" transform="translate(0,0) scale(1,-1)" x="0" y="0">Gene_00205 (83.7)</text>
			</g>
			<g transform=" matrix(0.707107,0.707107,-0.707107,0.707107,713.160657,538.835771)">
				<text style="font-family: Helvetica; font-size: 10px;fill: rgb(0%,0%,0%); stroke:none;" transform="translate(0,0) scale(1,-1)" x="0" y="0">Gene_00206</text>
			</g>
			<g transform=" matrix(0.707107,-0.707107,0.707107,0.707107,758.912295,456.833521)">
				<text style="font-family: Helvetica; font-size: 10px;fill: rgb(0%,0%,0%); stroke:none;" transform="translate(0,0) scale(1,-1)" x="0" y="0">Gene_00207</text>
			</g>
			<g transform=" matrix(0.707107,0.707107,-0.707107,0.707107,803.11732,538.835771)">
				<text style="font-family: Helvetica; font-size: 10px;fill: rgb(0%,0%,0%); stroke:none;" transform="translate(0,0) scale(1,-1)" x="0" y="0">Gene_00208</text>
			</g>
			<g transform=" matrix(0.707107,0.707107,-0.707107,0.707107,826.400883,538.835771)">
				<text style="font-family: Helvetica; font-size: 10px;fill: rgb(0%,0%,0%); stroke:none;" transform="translate(0,0) scale(1,-1)" x="0" y="0">Gene_00209</text>
			</g>
			<g transform=" matrix(0.707107,0.707107,-0.707107,0.707107,879.098222,538.835771)">
				<text style="font-family: Helvetica; font-size: 10px;fill: rgb(0%,0%,0%); stroke:none;" transform="translate(0,0) scale(1,-1)" x="0" y="0">Gene_00210</text>
			</g>
			<g transform=" matrix(0.707107,0.707107,-0.707107,0.707107,923.725051,538.835771)">
				<text style="font-family: Helvetica; font-size: 10px;fill: rgb(0%,0%,0%); stroke:none;" transform="translate(0,0) scale(1,-1)" x="0" y="0">Gene_00211</text>
			</g>
			<g transform=" matrix(0.707107,0.707107,-0.707107,0.707107,972.513676,538.835771)">
				<text style="font-family: Helvetica; font-size: 10px;fill: rgb(0%,0%,0%); stroke:none;" transform="translate(0,0) scale(1,-1)" x="0" y="0">Gene_00212</text>
			</g>
			<g transform=" matrix(0.707107,-0.707107,0.707107,0.707107,1014.244119,456.833521)">
				<text style="font-family: Helvetica; font-size: 10px;fill: rgb(0%,0%,0%); stroke:none;" transform="translate(0,0) scale(1,-1)" x="0" y="0">Gene_00213</text>
			</g>
			<g transform=" matrix(0.707107,0.707107,-0.707107,0.707107,1114.942716,538.835771)">
				<text style="font-family: Helvetica; font-size: 10px;fill: rgb(0%,0%,0%); stroke:none;" transform="translate(0,0) scale(1,-1)" x="0" y="0">Gene_00214</text>
			</g>
			<g transform=" matrix(0.707107,0.707107,-0.707107,0.707107,1202.452919,538.835771)">
				<text style="font-family: Helvetica; font-size: 10px;fill: rgb(0%,0%,0%); stroke:none;" transform="translate(0,0) scale(1,-1)" x="0" y="0">Gene_00215</text>
			</g>
			<g transform=" matrix(0.707107,0.707107,-0.707107,0.707107,1259.171453,538.835771)">
				<text style="font-family: Helvetica; font-size: 10px;fill: rgb(0%,0%,0%); stroke:none;" transform="translate(0,0) scale(1,-1)" x="0" y="0">Gene_00216</text>
			</g>
			<g transform=" matrix(0.707107,0.707107,-0.707107,0.707107,1317.40848,538.835771)">
				<text style="font-family: Helvetica; font-size: 10px;fill: rgb(0%,0%,0%); stroke:none;" transform="translate(0,0) scale(1,-1)" x="0" y="0">Gene_00217</text>
			</g>
			<g transform=" matrix(1,0,-0,1,70,169.825647)">
				<text style="font-family: Helvetica; font-size: 12px;fill: rgb(60%,60%,60%); stroke:none;" transform="translate(0,0) scale(1,-1)" x="0" y="0">megahit_13185 (left 1622bp, right 4840bp)</text>
			</g>
			<g transform=" matrix(1,0,-0,1,70,456.833521)">
				<text style="font-family: Helvetica; font-size: 12px;fill: rgb(60%,60%,60%); stroke:none;" transform="translate(0,0) scale(1,-1)" x="0" y="0">megahit_8491 (left 24334bp, right 23205bp)</text>
			</g>
		</g>
	</g>
</svg>
