<?xml version="1.0" encoding="utf-8"?>
<!DOCTYPE svg
  PUBLIC '-//W3C//DTD SVG 1.0//EN'
  'http://www.w3.org/TR/2001/REC-SVG-20010904/DTD/svg10.dtd'>
<svg fill-rule="evenodd" height="708.6614173228346" preserveAspectRatio="xMinYMin meet" version="1.0" viewBox="0 0 1417 708" width="1417.3228346456692" xmlns="http://www.w3.org/2000/svg" xmlns:xlink="http://www.w3.org/1999/xlink">
	<title>...</title>
	<desc>...</desc>
	<clipPath id="clip">
		<rect height="708.6614173228346" width="1417.3228346456692" x="0" y="0"/>
	</clipPath>
	<g id="group" style="clip-path: url(#clip)" transform="scale(1,-1) translate(0,-708)">
		<g transform="">
			<polygon points="70.86614 169.8256, 1086.151 169.8256, 1086.151 251.8279, 70.86614 251.8279" style="stroke: rgb(96%,96%,96%); stroke-linecap: butt; stroke-width: 1; fill: rgb(96%,96%,96%); fill-rule: evenodd;"/>
			<polygon points="70.86614 456.8335, 1346.34 456.8335, 1346.34 538.8358, 70.86614 538.8358" style="stroke: rgb(96%,96%,96%); stroke-linecap: butt; stroke-width: 1; fill: rgb(96%,96%,96%); fill-rule: evenodd;"/>
			<polygon points="366.4555 456.8335, 650.9456 456.8335, 691.0195 251.8279, 406.5294 251.8279" style="stroke: rgb(100%,18%,18%); stroke-linecap: round; stroke-width: 1; fill: rgb(100%,18%,18%); fill-rule: evenodd;"/>
			<polygon points="71.09981 241.5776, 119.4252 241.5776, 119.4252 251.8279, 135.8257 231.3273, 119.4252 210.8268, 119.4252 221.0771, 71.09981 221.0771" style="stroke: rgb(67%,84%,90%); stroke-linecap: round; stroke-width: 1; fill: rgb(67%,84%,90%); fill-rule: evenodd;"/>
			<polygon points="135.8257 241.5776, 180.2956 241.5776, 180.2956 251.8279, 196.6961 231.3273, 180.2956 210.8268, 180.2956 221.0771, 135.8257 221.0771" style="stroke: rgb(67%,84%,90%); stroke-linecap: round; stroke-width: 1; fill: rgb(67%,84%,90%); fill-rule: evenodd;"/>
			<polygon points="260.8378 200.5765, 209.7083 200.5765, 209.7083 210.8268, 193.3079 190.3262, 209.7083 169.8256, 209.7083 180.0759, 260.8378 180.0759" style="stroke: rgb(56%,93%,56%); stroke-linecap: round; stroke-width: 1; fill: rgb(56%,93%,56%); fill-rule: evenodd;"/>
			<polygon points="325.9142 200.5765, 276.8877 200.5765, 276.8877 210.8268, 260.4873 190.3262, 276.8877 169.8256, 276.8877 180.0759, 325.9142 180.0759" style="stroke: rgb(56%,93%,56%); stroke-linecap: round; stroke-width: 1; fill: rgb(56%,93%,56%); fill-rule: evenodd;"/>
			<polygon points="404.5432 200.5765, 367.7844 200.5765, 367.7844 210.8268, 351.3839 190.3262, 367.7844 169.8256, 367.7844 180.0759, 404.5432 180.0759" style="stroke: rgb(56%,93%,56%); stroke-linecap: round; stroke-width: 1; fill: rgb(56%,93%,56%); fill-rule: evenodd;"/>
			<polygon points="661.9279 200.5765, 419.7754 200.5765, 419.7754 210.8268, 403.3749 190.3262, 419.7754 169.8256, 419.7754 180.0759, 661.9279 180.0759" style="stroke: rgb(56%,93%,56%); stroke-linecap: round; stroke-width: 1; fill: rgb(56%,93%,56%); fill-rule: evenodd;"/>
			<polygon points="750.3711 200.5765, 677.16 200.5765, 677.16 210.8268, 660.7596 190.3262, 677.16 169.8256, 677.16 180.0759, 750.3711 180.0759" style="stroke: rgb(56%,93%,56%); stroke-linecap: round; stroke-width: 1; fill: rgb(56%,93%,56%); fill-rule: evenodd;"/>
			<polygon points="882.1595 200.5765, 780.2074 200.5765, 780.2074 210.8268, 763.8069 190.3262, 780.2074 169.8256, 780.2074 180.0759, 882.1595 180.0759" style="stroke: rgb(56%,93%,56%); stroke-linecap: round; stroke-width: 1; fill: rgb(56%,93%,56%); fill-rule: evenodd;"/>
			<polygon points="959.8539 200.5765, 898.2094 200.5765, 898.2094 210.8268, 881.809 190.3262, 898.2094 169.8256, 898.2094 180.0759, 959.8539 180.0759" style="stroke: rgb(56%,93%,56%); stroke-linecap: round; stroke-width: 1; fill: rgb(56%,93%,56%); fill-rule: evenodd;"/>
			<polygon points="1042.572 200.5765, 991.0922 200.5765, 991.0922 210.8268, 974.6918 190.3262, 991.0922 169.8256, 991.0922 180.0759, 1042.572 180.0759" style="stroke: rgb(56%,93%,56%); stroke-linecap: round; stroke-width: 1; fill: rgb(56%,93%,56%); fill-rule: evenodd;"/>
			<polygon points="1082.88 200.5765, 1062.244 200.5765, 1062.244 210.8268, 1045.844 190.3262, 1062.244 169.8256, 1062.244 180.0759, 1082.88 180.0759" style="stroke: rgb(56%,93%,56%); stroke-linecap: round; stroke-width: 1; fill: rgb(56%,93%,56%); fill-rule: evenodd;"/>
			<polygon points="81.14751 528.5855, 102.4844 528.5855, 102.4844 538.8358, 118.8848 518.3352, 102.4844 497.8346, 102.4844 508.0849, 81.14751 508.0849" style="stroke: rgb(67%,84%,90%); stroke-linecap: round; stroke-width: 1; fill: rgb(67%,84%,90%); fill-rule: evenodd;"/>
			<polygon points="118.5343 528.5855, 254.485 528.5855, 254.485 538.8358, 270.8855 518.3352, 254.485 497.8346, 254.485 508.0849, 118.5343 508.0849" style="stroke: rgb(67%,84%,90%); stroke-linecap: round; stroke-width: 1; fill: rgb(67%,84%,90%); fill-rule: evenodd;"/>
			<polygon points="270.535 528.5855, 297.1293 528.5855, 297.1293 538.8358, 313.5298 518.3352, 297.1293 497.8346, 297.1293 508.0849, 270.535 508.0849" style="stroke: rgb(67%,84%,90%); stroke-linecap: round; stroke-width: 1; fill: rgb(67%,84%,90%); fill-rule: evenodd;"/>
			<polygon points="621.854 487.5844, 379.7014 487.5844, 379.7014 497.8346, 363.3009 477.3341, 379.7014 456.8335, 379.7014 467.0838, 621.854 467.0838" style="stroke: rgb(56%,93%,56%); stroke-linecap: round; stroke-width: 1; fill: rgb(56%,93%,56%); fill-rule: evenodd;"/>
			<polygon points="860.6621 487.5844, 674.2392 487.5844, 674.2392 497.8346, 657.8387 477.3341, 674.2392 456.8335, 674.2392 467.0838, 860.6621 467.0838" style="stroke: rgb(56%,93%,56%); stroke-linecap: round; stroke-width: 1; fill: rgb(56%,93%,56%); fill-rule: evenodd;"/>
			<polygon points="905.0589 487.5844, 877.413 487.5844, 877.413 497.8346, 861.0126 477.3341, 877.413 456.8335, 877.413 467.0838, 905.0589 467.0838" style="stroke: rgb(56%,93%,56%); stroke-linecap: round; stroke-width: 1; fill: rgb(56%,93%,56%); fill-rule: evenodd;"/>
			<polygon points="931.4633 487.5844, 918.188 487.5844, 918.188 497.8346, 901.7876 477.3341, 918.188 456.8335, 918.188 467.0838, 931.4633 467.0838" style="stroke: rgb(56%,93%,56%); stroke-linecap: round; stroke-width: 1; fill: rgb(56%,93%,56%); fill-rule: evenodd;"/>
			<polygon points="999.9279 487.5844, 951.6024 487.5844, 951.6024 497.8346, 935.202 477.3341, 951.6024 456.8335, 951.6024 467.0838, 999.9279 467.0838" style="stroke: rgb(56%,93%,56%); stroke-linecap: round; stroke-width: 1; fill: rgb(56%,93%,56%); fill-rule: evenodd;"/>
			<polygon points="1031.122 487.5844, 1025.909 487.5844, 1025.909 497.8346, 1009.508 477.3341, 1025.909 456.8335, 1025.909 467.0838, 1031.122 467.0838" style="stroke: rgb(56%,93%,56%); stroke-linecap: round; stroke-width: 1; fill: rgb(56%,93%,56%); fill-rule: evenodd;"/>
			<polygon points="1081.478 487.5844, 1047.172 487.5844, 1047.172 497.8346, 1030.772 477.3341, 1047.172 456.8335, 1047.172 467.0838, 1081.478 467.0838" style="stroke: rgb(56%,93%,56%); stroke-linecap: round; stroke-width: 1; fill: rgb(56%,93%,56%); fill-rule: evenodd;"/>
			<polygon points="1167.234 487.5844, 1097.528 487.5844, 1097.528 497.8346, 1081.127 477.3341, 1097.528 456.8335, 1097.528 467.0838, 1167.234 467.0838" style="stroke: rgb(56%,93%,56%); stroke-linecap: round; stroke-width: 1; fill: rgb(56%,93%,56%); fill-rule: evenodd;"/>
			<polygon points="1310.005 487.5844, 1180.012 487.5844, 1180.012 497.8346, 1163.612 477.3341, 1180.012 456.8335, 1180.012 467.0838, 1310.005 467.0838" style="stroke: rgb(56%,93%,56%); stroke-linecap: round; stroke-width: 1; fill: rgb(56%,93%,56%); fill-rule: evenodd;"/>
			<path d="M 1086.151166,169.825647 L 1086.151166,251.827897 Z" style="stroke: rgb(0%,0%,0%); stroke-linecap: butt; stroke-width: 1;"/>
			<path d="M 70.866142,210.826772 L 1086.151166,210.826772 Z" style="stroke: rgb(0%,0%,0%); stroke-linecap: butt; stroke-width: 1;"/>
			<path d="M 70.866142,169.825647 L 70.866142,251.827897 Z" style="stroke: rgb(0%,0%,0%); stroke-linecap: butt; stroke-width: 1;"/>
			<path d="M 1346.339859,456.833521 L 1346.339859,538.835771 Z" style="stroke: rgb(0%,0%,0%); stroke-linecap: butt; stroke-width: 1;"/>
			<path d="M 70.866142,497.834646 L 1346.339859,497.834646 Z" style="stroke: rgb(0%,0%,0%); stroke-linecap: butt; stroke-width: 1;"/>
			<path d="M 70.866142,456.833521 L 70.866142,538.835771 Z" style="stroke: rgb(0%,0%,0%); stroke-linecap: butt; stroke-width: 1;"/>
			<path d="M 1239.203338,497.834646 L 1239.203338,518.335208 Z" style="stroke: rgb(0%,0%,0%); stroke-linecap: butt; stroke-width: 1;"/>
			<path d="M 1239.203338,497.834646 L 1239.203338,510.134983 Z" style="stroke: rgb(0%,0%,0%); stroke-linecap: butt; stroke-width: 1;"/>
			<g transform=" matrix(0.707107,0.707107,-0.707107,0.707107,1239.203338,518.335208)">
				<text style="font-family: Helvetica; font-size: 6px;fill: rgb(0%,0%,0%); stroke:none;" transform="translate(0,0) scale(1,-1)" x="0" y="0">10000</text>
			</g>
			<g transform=" matrix(0.707107,0.707107,-0.707107,0.707107,103.46275,251.827897)">
				<text style="font-family: Helvetica; font-size: 10px;fill: rgb(0%,0%,0%); stroke:none;" transform="translate(0,0) scale(1,-1)" x="0" y="0">Gene_03348</text>
			</g>
			<g transform=" matrix(0.707107,0.707107,-0.707107,0.707107,166.260874,251.827897)">
				<text style="font-family: Helvetica; font-size: 10px;fill: rgb(0%,0%,0%); stroke:none;" transform="translate(0,0) scale(1,-1)" x="0" y="0">Gene_03349</text>
			</g>
			<g transform=" matrix(0.707107,-0.707107,0.707107,0.707107,227.072825,169.825647)">
				<text style="font-family: Helvetica; font-size: 10px;fill: rgb(0%,0%,0%); stroke:none;" transform="translate(0,0) scale(1,-1)" x="0" y="0">Gene_03350</text>
			</g>
			<g transform=" matrix(0.707107,-0.707107,0.707107,0.707107,293.20071,169.825647)">
				<text style="font-family: Helvetica; font-size: 10px;fill: rgb(0%,0%,0%); stroke:none;" transform="translate(0,0) scale(1,-1)" x="0" y="0">Gene_03351</text>
			</g>
			<g transform=" matrix(0.707107,-0.707107,0.707107,0.707107,377.963574,169.825647)">
				<text style="font-family: Helvetica; font-size: 10px;fill: rgb(0%,0%,0%); stroke:none;" transform="translate(0,0) scale(1,-1)" x="0" y="0">Gene_03352</text>
			</g>
			<g transform=" matrix(0.707107,-0.707107,0.707107,0.707107,532.651419,169.825647)">
				<text style="font-family: Helvetica; font-size: 16px;fill: rgb(0%,0%,100%); stroke:none;" transform="translate(0,0) scale(1,-1)" x="0" y="0">Gene_03353 (89.9)</text>
			</g>
			<g transform=" matrix(0.707107,-0.707107,0.707107,0.707107,705.565324,169.825647)">
				<text style="font-family: Helvetica; font-size: 10px;fill: rgb(0%,0%,0%); stroke:none;" transform="translate(0,0) scale(1,-1)" x="0" y="0">Gene_03354</text>
			</g>
			<g transform=" matrix(0.707107,-0.707107,0.707107,0.707107,822.983212,169.825647)">
				<text style="font-family: Helvetica; font-size: 10px;fill: rgb(0%,0%,0%); stroke:none;" transform="translate(0,0) scale(1,-1)" x="0" y="0">Gene_03355</text>
			</g>
			<g transform=" matrix(0.707107,-0.707107,0.707107,0.707107,920.831452,169.825647)">
				<text style="font-family: Helvetica; font-size: 10px;fill: rgb(0%,0%,0%); stroke:none;" transform="translate(0,0) scale(1,-1)" x="0" y="0">Gene_03356</text>
			</g>
			<g transform=" matrix(0.707107,-0.707107,0.707107,0.707107,1008.631993,169.825647)">
				<text style="font-family: Helvetica; font-size: 10px;fill: rgb(0%,0%,0%); stroke:none;" transform="translate(0,0) scale(1,-1)" x="0" y="0">Gene_03357</text>
			</g>
			<g transform=" matrix(0.707107,-0.707107,0.707107,0.707107,1064.361677,169.825647)">
				<text style="font-family: Helvetica; font-size: 10px;fill: rgb(0%,0%,0%); stroke:none;" transform="translate(0,0) scale(1,-1)" x="0" y="0">Gene_03358</text>
			</g>
			<g transform=" matrix(0.707107,0.707107,-0.707107,0.707107,100.016155,538.835771)">
				<text style="font-family: Helvetica; font-size: 10px;fill: rgb(0%,0%,0%); stroke:none;" transform="translate(0,0) scale(1,-1)" x="0" y="0">Gene_00887</text>
			</g>
			<g transform=" matrix(0.707107,0.707107,-0.707107,0.707107,194.709885,538.835771)">
				<text style="font-family: Helvetica; font-size: 10px;fill: rgb(0%,0%,0%); stroke:none;" transform="translate(0,0) scale(1,-1)" x="0" y="0">Gene_00888</text>
			</g>
			<g transform=" matrix(0.707107,0.707107,-0.707107,0.707107,292.032373,538.835771)">
				<text style="font-family: Helvetica; font-size: 10px;fill: rgb(0%,0%,0%); stroke:none;" transform="translate(0,0) scale(1,-1)" x="0" y="0">Gene_00889</text>
			</g>
			<g transform=" matrix(0.707107,-0.707107,0.707107,0.707107,492.577453,456.833521)">
				<text style="font-family: Helvetica; font-size: 16px;fill: rgb(0%,0%,100%); stroke:none;" transform="translate(0,0) scale(1,-1)" x="0" y="0">Gene_00890 (89.9)</text>
			</g>
			<g transform=" matrix(0.707107,-0.707107,0.707107,0.707107,759.250418,456.833521)">
				<text style="font-family: Helvetica; font-size: 10px;fill: rgb(0%,0%,0%); stroke:none;" transform="translate(0,0) scale(1,-1)" x="0" y="0">Gene_00891</text>
			</g>
			<g transform=" matrix(0.707107,-0.707107,0.707107,0.707107,883.035744,456.833521)">
				<text style="font-family: Helvetica; font-size: 10px;fill: rgb(0%,0%,0%); stroke:none;" transform="translate(0,0) scale(1,-1)" x="0" y="0">Gene_00892</text>
			</g>
			<g transform=" matrix(0.707107,-0.707107,0.707107,0.707107,916.625438,456.833521)">
				<text style="font-family: Helvetica; font-size: 10px;fill: rgb(0%,0%,0%); stroke:none;" transform="translate(0,0) scale(1,-1)" x="0" y="0">Gene_00893</text>
			</g>
			<g transform=" matrix(0.707107,-0.707107,0.707107,0.707107,967.56494,456.833521)">
				<text style="font-family: Helvetica; font-size: 10px;fill: rgb(0%,0%,0%); stroke:none;" transform="translate(0,0) scale(1,-1)" x="0" y="0">Gene_00894</text>
			</g>
			<g transform=" matrix(0.707107,-0.707107,0.707107,0.707107,1020.315364,456.833521)">
				<text style="font-family: Helvetica; font-size: 10px;fill: rgb(0%,0%,0%); stroke:none;" transform="translate(0,0) scale(1,-1)" x="0" y="0">Gene_00895</text>
			</g>
			<g transform=" matrix(0.707107,-0.707107,0.707107,0.707107,1056.1249,456.833521)">
				<text style="font-family: Helvetica; font-size: 10px;fill: rgb(0%,0%,0%); stroke:none;" transform="translate(0,0) scale(1,-1)" x="0" y="0">Gene_00896</text>
			</g>
			<g transform=" matrix(0.707107,-0.707107,0.707107,0.707107,1124.180541,456.833521)">
				<text style="font-family: Helvetica; font-size: 10px;fill: rgb(0%,0%,0%); stroke:none;" transform="translate(0,0) scale(1,-1)" x="0" y="0">Gene_00897</text>
			</g>
			<g transform=" matrix(0.707107,-0.707107,0.707107,0.707107,1236.808247,456.833521)">
				<text style="font-family: Helvetica; font-size: 10px;fill: rgb(0%,0%,0%); stroke:none;" transform="translate(0,0) scale(1,-1)" x="0" y="0">Gene_00898</text>
			</g>
			<g transform=" matrix(1,0,-0,1,70,169.825647)">
				<text style="font-family: Helvetica; font-size: 12px;fill: rgb(60%,60%,60%); stroke:none;" transform="translate(0,0) scale(1,-1)" x="0" y="0">megahit_34340 (left 2846bp, right 3631bp)</text>
			</g>
			<g transform=" matrix(1,0,-0,1,70,456.833521)">
				<text style="font-family: Helvetica; font-size: 12px;fill: rgb(60%,60%,60%); stroke:none;" transform="translate(0,0) scale(1,-1)" x="0" y="0">megahit_35911 (left 2503bp, right 6201bp)</text>
			</g>
		</g>
	</g>
</svg>
