<?xml version="1.0" encoding="utf-8"?>
<!DOCTYPE svg
  PUBLIC '-//W3C//DTD SVG 1.0//EN'
  'http://www.w3.org/TR/2001/REC-SVG-20010904/DTD/svg10.dtd'>
<svg fill-rule="evenodd" height="708.6614173228346" preserveAspectRatio="xMinYMin meet" version="1.0" viewBox="0 0 1417 708" width="1417.3228346456692" xmlns="http://www.w3.org/2000/svg" xmlns:xlink="http://www.w3.org/1999/xlink">
	<title>...</title>
	<desc>...</desc>
	<clipPath id="clip">
		<rect height="708.6614173228346" width="1417.3228346456692" x="0" y="0"/>
	</clipPath>
	<g id="group" style="clip-path: url(#clip)" transform="scale(1,-1) translate(0,-708)">
		<g transform="">
			<polygon points="70.86614 169.8256, 253.3732 169.8256, 253.3732 251.8279, 70.86614 251.8279" style="stroke: rgb(96%,96%,96%); stroke-linecap: butt; stroke-width: 1; fill: rgb(96%,96%,96%); fill-rule: evenodd;"/>
			<polygon points="70.86614 456.8335, 1346.348 456.8335, 1346.348 538.8358, 70.86614 538.8358" style="stroke: rgb(96%,96%,96%); stroke-linecap: butt; stroke-width: 1; fill: rgb(96%,96%,96%); fill-rule: evenodd;"/>
			<polygon points="1054.032 456.8335, 1146.319 456.8335, 163.3712 251.8279, 70.97497 251.8279" style="stroke: rgb(100%,32%,32%); stroke-linecap: round; stroke-width: 1; fill: rgb(100%,32%,32%); fill-rule: evenodd;"/>
			<polygon points="155.209 200.5765, 144.2932 200.5765, 144.2932 210.8268, 127.8928 190.3262, 144.2932 169.8256, 144.2932 180.0759, 155.209 180.0759" style="stroke: rgb(56%,93%,56%); stroke-linecap: round; stroke-width: 1; fill: rgb(56%,93%,56%); fill-rule: evenodd;"/>
			<polygon points="248.4759 200.5765, 195.1166 200.5765, 195.1166 210.8268, 178.7162 190.3262, 195.1166 169.8256, 195.1166 180.0759, 248.4759 180.0759" style="stroke: rgb(56%,93%,56%); stroke-linecap: round; stroke-width: 1; fill: rgb(56%,93%,56%); fill-rule: evenodd;"/>
			<polygon points="210.4944 528.5855, 221.7366 528.5855, 221.7366 538.8358, 238.1371 518.3352, 221.7366 497.8346, 221.7366 508.0849, 210.4944 508.0849" style="stroke: rgb(67%,84%,90%); stroke-linecap: round; stroke-width: 1; fill: rgb(67%,84%,90%); fill-rule: evenodd;"/>
			<polygon points="255.7675 528.5855, 293.4553 528.5855, 293.4553 538.8358, 309.8557 518.3352, 293.4553 497.8346, 293.4553 508.0849, 255.7675 508.0849" style="stroke: rgb(67%,84%,90%); stroke-linecap: round; stroke-width: 1; fill: rgb(67%,84%,90%); fill-rule: evenodd;"/>
			<polygon points="334.8865 487.5844, 334.0919 487.5844, 334.0919 497.8346, 317.6914 477.3341, 334.0919 456.8335, 334.0919 467.0838, 334.8865 467.0838" style="stroke: rgb(56%,93%,56%); stroke-linecap: round; stroke-width: 1; fill: rgb(56%,93%,56%); fill-rule: evenodd;"/>
			<polygon points="397.79 487.5844, 374.7941 487.5844, 374.7941 497.8346, 358.3937 477.3341, 374.7941 456.8335, 374.7941 467.0838, 397.79 467.0838" style="stroke: rgb(56%,93%,56%); stroke-linecap: round; stroke-width: 1; fill: rgb(56%,93%,56%); fill-rule: evenodd;"/>
			<polygon points="457.102 487.5844, 414.1904 487.5844, 414.1904 497.8346, 397.79 477.3341, 414.1904 456.8335, 414.1904 467.0838, 457.102 467.0838" style="stroke: rgb(56%,93%,56%); stroke-linecap: round; stroke-width: 1; fill: rgb(56%,93%,56%); fill-rule: evenodd;"/>
			<polygon points="556.8987 487.5844, 481.9912 487.5844, 481.9912 497.8346, 465.5907 477.3341, 481.9912 456.8335, 481.9912 467.0838, 556.8987 467.0838" style="stroke: rgb(56%,93%,56%); stroke-linecap: round; stroke-width: 1; fill: rgb(56%,93%,56%); fill-rule: evenodd;"/>
			<polygon points="617.7344 487.5844, 568.6195 487.5844, 568.6195 497.8346, 552.219 477.3341, 568.6195 456.8335, 568.6195 467.0838, 617.7344 467.0838" style="stroke: rgb(56%,93%,56%); stroke-linecap: round; stroke-width: 1; fill: rgb(56%,93%,56%); fill-rule: evenodd;"/>
			<polygon points="677.2641 487.5844, 635.3319 487.5844, 635.3319 497.8346, 618.9315 477.3341, 635.3319 456.8335, 635.3319 467.0838, 677.2641 467.0838" style="stroke: rgb(56%,93%,56%); stroke-linecap: round; stroke-width: 1; fill: rgb(56%,93%,56%); fill-rule: evenodd;"/>
			<polygon points="690.4325 487.5844, 690.4325 497.8346, 675.1963 477.3341, 690.4325 456.8335, 690.4325 467.0838" style="stroke: rgb(56%,93%,56%); stroke-linecap: round; stroke-width: 1; fill: rgb(56%,93%,56%); fill-rule: evenodd;"/>
			<polygon points="729.0669 487.5844, 709.0095 487.5844, 709.0095 497.8346, 692.6091 477.3341, 709.0095 456.8335, 709.0095 467.0838, 729.0669 467.0838" style="stroke: rgb(56%,93%,56%); stroke-linecap: round; stroke-width: 1; fill: rgb(56%,93%,56%); fill-rule: evenodd;"/>
			<polygon points="958.0442 487.5844, 744.7056 487.5844, 744.7056 497.8346, 728.3051 477.3341, 744.7056 456.8335, 744.7056 467.0838, 958.0442 467.0838" style="stroke: rgb(56%,93%,56%); stroke-linecap: round; stroke-width: 1; fill: rgb(56%,93%,56%); fill-rule: evenodd;"/>
			<polygon points="989.4959 487.5844, 977.6007 487.5844, 977.6007 497.8346, 961.2003 477.3341, 977.6007 456.8335, 977.6007 467.0838, 989.4959 467.0838" style="stroke: rgb(56%,93%,56%); stroke-linecap: round; stroke-width: 1; fill: rgb(56%,93%,56%); fill-rule: evenodd;"/>
			<polygon points="1110.514 487.5844, 1005.896 487.5844, 1005.896 497.8346, 989.4959 477.3341, 1005.896 456.8335, 1005.896 467.0838, 1110.514 467.0838" style="stroke: rgb(56%,93%,56%); stroke-linecap: round; stroke-width: 1; fill: rgb(56%,93%,56%); fill-rule: evenodd;"/>
			<polygon points="1138.266 487.5844, 1127.35 487.5844, 1127.35 497.8346, 1110.95 477.3341, 1127.35 456.8335, 1127.35 467.0838, 1138.266 467.0838" style="stroke: rgb(56%,93%,56%); stroke-linecap: round; stroke-width: 1; fill: rgb(56%,93%,56%); fill-rule: evenodd;"/>
			<polygon points="1205.305 487.5844, 1201.245 487.5844, 1201.245 497.8346, 1184.845 477.3341, 1201.245 456.8335, 1201.245 467.0838, 1205.305 467.0838" style="stroke: rgb(56%,93%,56%); stroke-linecap: round; stroke-width: 1; fill: rgb(56%,93%,56%); fill-rule: evenodd;"/>
			<polygon points="1219.888 487.5844, 1218.767 487.5844, 1218.767 497.8346, 1202.366 477.3341, 1218.767 456.8335, 1218.767 467.0838, 1219.888 467.0838" style="stroke: rgb(56%,93%,56%); stroke-linecap: round; stroke-width: 1; fill: rgb(56%,93%,56%); fill-rule: evenodd;"/>
			<polygon points="1291.715 487.5844, 1252.395 487.5844, 1252.395 497.8346, 1235.995 477.3341, 1252.395 456.8335, 1252.395 467.0838, 1291.715 467.0838" style="stroke: rgb(56%,93%,56%); stroke-linecap: round; stroke-width: 1; fill: rgb(56%,93%,56%); fill-rule: evenodd;"/>
			<polygon points="1315.114 487.5844, 1309.422 487.5844, 1309.422 497.8346, 1293.021 477.3341, 1309.422 456.8335, 1309.422 467.0838, 1315.114 467.0838" style="stroke: rgb(56%,93%,56%); stroke-linecap: round; stroke-width: 1; fill: rgb(56%,93%,56%); fill-rule: evenodd;"/>
			<path d="M 253.373211,169.825647 L 253.373211,251.827897 Z" style="stroke: rgb(0%,0%,0%); stroke-linecap: butt; stroke-width: 1;"/>
			<path d="M 70.866142,210.826772 L 253.373211,210.826772 Z" style="stroke: rgb(0%,0%,0%); stroke-linecap: butt; stroke-width: 1;"/>
			<path d="M 70.866142,169.825647 L 70.866142,251.827897 Z" style="stroke: rgb(0%,0%,0%); stroke-linecap: butt; stroke-width: 1;"/>
			<path d="M 1346.347863,456.833521 L 1346.347863,538.835771 Z" style="stroke: rgb(0%,0%,0%); stroke-linecap: butt; stroke-width: 1;"/>
			<path d="M 70.866142,497.834646 L 1346.347863,497.834646 Z" style="stroke: rgb(0%,0%,0%); stroke-linecap: butt; stroke-width: 1;"/>
			<path d="M 70.866142,456.833521 L 70.866142,538.835771 Z" style="stroke: rgb(0%,0%,0%); stroke-linecap: butt; stroke-width: 1;"/>
			<path d="M 1159.161126,497.834646 L 1159.161126,518.335208 Z" style="stroke: rgb(0%,0%,0%); stroke-linecap: butt; stroke-width: 1;"/>
			<path d="M 1159.161126,497.834646 L 1159.161126,510.134983 Z" style="stroke: rgb(0%,0%,0%); stroke-linecap: butt; stroke-width: 1;"/>
			<g transform=" matrix(0.707107,0.707107,-0.707107,0.707107,1159.161126,518.335208)">
				<text style="font-family: Helvetica; font-size: 6px;fill: rgb(0%,0%,0%); stroke:none;" transform="translate(0,0) scale(1,-1)" x="0" y="0">10000</text>
			</g>
			<g transform=" matrix(0.707107,-0.707107,0.707107,0.707107,141.550901,169.825647)">
				<text style="font-family: Helvetica; font-size: 16px;fill: rgb(0%,0%,100%); stroke:none;" transform="translate(0,0) scale(1,-1)" x="0" y="0">Gene_00614 (82.1)</text>
			</g>
			<g transform=" matrix(0.707107,-0.707107,0.707107,0.707107,213.596029,169.825647)">
				<text style="font-family: Helvetica; font-size: 10px;fill: rgb(0%,0%,0%); stroke:none;" transform="translate(0,0) scale(1,-1)" x="0" y="0">Gene_00615</text>
			</g>
			<g transform=" matrix(0.707107,0.707107,-0.707107,0.707107,224.315735,538.835771)">
				<text style="font-family: Helvetica; font-size: 10px;fill: rgb(0%,0%,0%); stroke:none;" transform="translate(0,0) scale(1,-1)" x="0" y="0">Gene_00553</text>
			</g>
			<g transform=" matrix(0.707107,0.707107,-0.707107,0.707107,282.81159,538.835771)">
				<text style="font-family: Helvetica; font-size: 10px;fill: rgb(0%,0%,0%); stroke:none;" transform="translate(0,0) scale(1,-1)" x="0" y="0">Gene_00554</text>
			</g>
			<g transform=" matrix(0.707107,-0.707107,0.707107,0.707107,326.288975,456.833521)">
				<text style="font-family: Helvetica; font-size: 10px;fill: rgb(0%,0%,0%); stroke:none;" transform="translate(0,0) scale(1,-1)" x="0" y="0">Gene_00555</text>
			</g>
			<g transform=" matrix(0.707107,-0.707107,0.707107,0.707107,378.091816,456.833521)">
				<text style="font-family: Helvetica; font-size: 10px;fill: rgb(0%,0%,0%); stroke:none;" transform="translate(0,0) scale(1,-1)" x="0" y="0">Gene_00556</text>
			</g>
			<g transform=" matrix(0.707107,-0.707107,0.707107,0.707107,427.445993,456.833521)">
				<text style="font-family: Helvetica; font-size: 10px;fill: rgb(0%,0%,0%); stroke:none;" transform="translate(0,0) scale(1,-1)" x="0" y="0">Gene_00557</text>
			</g>
			<g transform=" matrix(0.707107,-0.707107,0.707107,0.707107,511.244707,456.833521)">
				<text style="font-family: Helvetica; font-size: 10px;fill: rgb(0%,0%,0%); stroke:none;" transform="translate(0,0) scale(1,-1)" x="0" y="0">Gene_00558</text>
			</g>
			<g transform=" matrix(0.707107,-0.707107,0.707107,0.707107,584.976692,456.833521)">
				<text style="font-family: Helvetica; font-size: 10px;fill: rgb(0%,0%,0%); stroke:none;" transform="translate(0,0) scale(1,-1)" x="0" y="0">Gene_00559</text>
			</g>
			<g transform=" matrix(0.707107,-0.707107,0.707107,0.707107,648.097801,456.833521)">
				<text style="font-family: Helvetica; font-size: 10px;fill: rgb(0%,0%,0%); stroke:none;" transform="translate(0,0) scale(1,-1)" x="0" y="0">Gene_00560</text>
			</g>
			<g transform=" matrix(0.707107,-0.707107,0.707107,0.707107,682.814411,456.833521)">
				<text style="font-family: Helvetica; font-size: 10px;fill: rgb(0%,0%,0%); stroke:none;" transform="translate(0,0) scale(1,-1)" x="0" y="0">Gene_00561</text>
			</g>
			<g transform=" matrix(0.707107,-0.707107,0.707107,0.707107,710.838007,456.833521)">
				<text style="font-family: Helvetica; font-size: 10px;fill: rgb(0%,0%,0%); stroke:none;" transform="translate(0,0) scale(1,-1)" x="0" y="0">Gene_00562</text>
			</g>
			<g transform=" matrix(0.707107,-0.707107,0.707107,0.707107,843.174677,456.833521)">
				<text style="font-family: Helvetica; font-size: 10px;fill: rgb(0%,0%,0%); stroke:none;" transform="translate(0,0) scale(1,-1)" x="0" y="0">Gene_00563</text>
			</g>
			<g transform=" matrix(0.707107,-0.707107,0.707107,0.707107,975.348103,456.833521)">
				<text style="font-family: Helvetica; font-size: 10px;fill: rgb(0%,0%,0%); stroke:none;" transform="translate(0,0) scale(1,-1)" x="0" y="0">Gene_00564</text>
			</g>
			<g transform=" matrix(0.707107,-0.707107,0.707107,0.707107,1050.005139,456.833521)">
				<text style="font-family: Helvetica; font-size: 10px;fill: rgb(0%,0%,0%); stroke:none;" transform="translate(0,0) scale(1,-1)" x="0" y="0">Gene_00565</text>
			</g>
			<g transform=" matrix(0.707107,-0.707107,0.707107,0.707107,1124.60776,456.833521)">
				<text style="font-family: Helvetica; font-size: 16px;fill: rgb(0%,0%,100%); stroke:none;" transform="translate(0,0) scale(1,-1)" x="0" y="0">Gene_00566 (82.1)</text>
			</g>
			<g transform=" matrix(0.707107,-0.707107,0.707107,0.707107,1195.074861,456.833521)">
				<text style="font-family: Helvetica; font-size: 10px;fill: rgb(0%,0%,0%); stroke:none;" transform="translate(0,0) scale(1,-1)" x="0" y="0">Gene_00567</text>
			</g>
			<g transform=" matrix(0.707107,-0.707107,0.707107,0.707107,1211.127212,456.833521)">
				<text style="font-family: Helvetica; font-size: 10px;fill: rgb(0%,0%,0%); stroke:none;" transform="translate(0,0) scale(1,-1)" x="0" y="0">Gene_00568</text>
			</g>
			<g transform=" matrix(0.707107,-0.707107,0.707107,0.707107,1263.855104,456.833521)">
				<text style="font-family: Helvetica; font-size: 10px;fill: rgb(0%,0%,0%); stroke:none;" transform="translate(0,0) scale(1,-1)" x="0" y="0">Gene_00569</text>
			</g>
			<g transform=" matrix(0.707107,-0.707107,0.707107,0.707107,1304.067603,456.833521)">
				<text style="font-family: Helvetica; font-size: 10px;fill: rgb(0%,0%,0%); stroke:none;" transform="translate(0,0) scale(1,-1)" x="0" y="0">Gene_00570</text>
			</g>
			<g transform=" matrix(1,0,-0,1,70,456.833521)">
				<text style="font-family: Helvetica; font-size: 12px;fill: rgb(60%,60%,60%); stroke:none;" transform="translate(0,0) scale(1,-1)" x="0" y="0">megahit_72302 (left 9557bp, right 1912bp)</text>
			</g>
		</g>
	</g>
</svg>
