<?xml version="1.0" encoding="utf-8"?>
<!DOCTYPE svg
  PUBLIC '-//W3C//DTD SVG 1.0//EN'
  'http://www.w3.org/TR/2001/REC-SVG-20010904/DTD/svg10.dtd'>
<svg fill-rule="evenodd" height="708.6614173228346" preserveAspectRatio="xMinYMin meet" version="1.0" viewBox="0 0 1417 708" width="1417.3228346456692" xmlns="http://www.w3.org/2000/svg" xmlns:xlink="http://www.w3.org/1999/xlink">
	<title>...</title>
	<desc>...</desc>
	<clipPath id="clip">
		<rect height="708.6614173228346" width="1417.3228346456692" x="0" y="0"/>
	</clipPath>
	<g id="group" style="clip-path: url(#clip)" transform="scale(1,-1) translate(0,-708)">
		<g transform="">
			<polygon points="70.86614 169.8256, 383.3558 169.8256, 383.3558 251.8279, 70.86614 251.8279" style="stroke: rgb(96%,96%,96%); stroke-linecap: butt; stroke-width: 1; fill: rgb(96%,96%,96%); fill-rule: evenodd;"/>
			<polygon points="70.86614 456.8335, 1346.334 456.8335, 1346.334 538.8358, 70.86614 538.8358" style="stroke: rgb(96%,96%,96%); stroke-linecap: butt; stroke-width: 1; fill: rgb(96%,96%,96%); fill-rule: evenodd;"/>
			<polygon points="1019.25 456.8335, 1164.703 456.8335, 130.3471 251.8279, 275.9221 251.8279" style="stroke: rgb(100%,32%,32%); stroke-linecap: round; stroke-width: 1; fill: rgb(100%,32%,32%); fill-rule: evenodd;"/>
			<polygon points="577.9873 456.8335, 677.3266 456.8335, 282.1768 251.8279, 383.3558 251.8279" style="stroke: rgb(100%,26%,26%); stroke-linecap: round; stroke-width: 1; fill: rgb(100%,26%,26%); fill-rule: evenodd;"/>
			<polygon points="123.6018 200.5765, 89.71941 200.5765, 89.71941 210.8268, 73.31896 190.3262, 89.71941 169.8256, 89.71941 180.0759, 123.6018 180.0759" style="stroke: rgb(56%,93%,56%); stroke-linecap: round; stroke-width: 1; fill: rgb(56%,93%,56%); fill-rule: evenodd;"/>
			<polygon points="224.2902 200.5765, 162.0777 200.5765, 162.0777 210.8268, 145.6772 190.3262, 162.0777 169.8256, 162.0777 180.0759, 224.2902 180.0759" style="stroke: rgb(56%,93%,56%); stroke-linecap: round; stroke-width: 1; fill: rgb(56%,93%,56%); fill-rule: evenodd;"/>
			<polygon points="265.0071 200.5765, 240.6907 200.5765, 240.6907 210.8268, 224.2902 190.3262, 240.6907 169.8256, 240.6907 180.0759, 265.0071 180.0759" style="stroke: rgb(56%,93%,56%); stroke-linecap: round; stroke-width: 1; fill: rgb(56%,93%,56%); fill-rule: evenodd;"/>
			<polygon points="308.5447 200.5765, 298.5773 200.5765, 298.5773 210.8268, 282.1768 190.3262, 298.5773 169.8256, 298.5773 180.0759, 308.5447 180.0759" style="stroke: rgb(56%,93%,56%); stroke-linecap: round; stroke-width: 1; fill: rgb(56%,93%,56%); fill-rule: evenodd;"/>
			<polygon points="376.2426 200.5765, 327.6432 200.5765, 327.6432 210.8268, 311.2428 190.3262, 327.6432 169.8256, 327.6432 180.0759, 376.2426 180.0759" style="stroke: rgb(56%,93%,56%); stroke-linecap: round; stroke-width: 1; fill: rgb(56%,93%,56%); fill-rule: evenodd;"/>
			<polygon points="145.432 487.5844, 145.432 497.8346, 134.149 477.3341, 145.432 456.8335, 145.432 467.0838" style="stroke: rgb(56%,93%,56%); stroke-linecap: round; stroke-width: 1; fill: rgb(56%,93%,56%); fill-rule: evenodd;"/>
			<polygon points="228.3374 487.5844, 181.2097 487.5844, 181.2097 497.8346, 164.8093 477.3341, 181.2097 456.8335, 181.2097 467.0838, 228.3374 467.0838" style="stroke: rgb(56%,93%,56%); stroke-linecap: round; stroke-width: 1; fill: rgb(56%,93%,56%); fill-rule: evenodd;"/>
			<polygon points="290.5164 487.5844, 247.068 487.5844, 247.068 497.8346, 230.6676 477.3341, 247.068 456.8335, 247.068 467.0838, 290.5164 467.0838" style="stroke: rgb(56%,93%,56%); stroke-linecap: round; stroke-width: 1; fill: rgb(56%,93%,56%); fill-rule: evenodd;"/>
			<polygon points="305.4787 528.5855, 360.3327 528.5855, 360.3327 538.8358, 376.7332 518.3352, 360.3327 497.8346, 360.3327 508.0849, 305.4787 508.0849" style="stroke: rgb(67%,84%,90%); stroke-linecap: round; stroke-width: 1; fill: rgb(67%,84%,90%); fill-rule: evenodd;"/>
			<polygon points="403.8369 528.5855, 514.6153 528.5855, 514.6153 538.8358, 531.0157 518.3352, 514.6153 497.8346, 514.6153 508.0849, 403.8369 508.0849" style="stroke: rgb(67%,84%,90%); stroke-linecap: round; stroke-width: 1; fill: rgb(67%,84%,90%); fill-rule: evenodd;"/>
			<polygon points="549.044 528.5855, 568.2094 528.5855, 568.2094 538.8358, 584.6099 518.3352, 568.2094 497.8346, 568.2094 508.0849, 549.044 508.0849" style="stroke: rgb(67%,84%,90%); stroke-linecap: round; stroke-width: 1; fill: rgb(67%,84%,90%); fill-rule: evenodd;"/>
			<polygon points="585.1005 528.5855, 632.2281 528.5855, 632.2281 538.8358, 648.6286 518.3352, 632.2281 497.8346, 632.2281 508.0849, 585.1005 508.0849" style="stroke: rgb(67%,84%,90%); stroke-linecap: round; stroke-width: 1; fill: rgb(67%,84%,90%); fill-rule: evenodd;"/>
			<polygon points="650.9588 528.5855, 660.9262 528.5855, 660.9262 538.8358, 677.3266 518.3352, 660.9262 497.8346, 660.9262 508.0849, 650.9588 508.0849" style="stroke: rgb(67%,84%,90%); stroke-linecap: round; stroke-width: 1; fill: rgb(67%,84%,90%); fill-rule: evenodd;"/>
			<polygon points="792.364 487.5844, 701.8214 487.5844, 701.8214 497.8346, 685.4209 477.3341, 701.8214 456.8335, 701.8214 467.0838, 792.364 467.0838" style="stroke: rgb(56%,93%,56%); stroke-linecap: round; stroke-width: 1; fill: rgb(56%,93%,56%); fill-rule: evenodd;"/>
			<polygon points="931.9296 487.5844, 809.0097 487.5844, 809.0097 497.8346, 792.6093 477.3341, 809.0097 456.8335, 809.0097 467.0838, 931.9296 467.0838" style="stroke: rgb(56%,93%,56%); stroke-linecap: round; stroke-width: 1; fill: rgb(56%,93%,56%); fill-rule: evenodd;"/>
			<polygon points="1013.363 487.5844, 948.5754 487.5844, 948.5754 497.8346, 932.1749 477.3341, 948.5754 456.8335, 948.5754 467.0838, 1013.363 467.0838" style="stroke: rgb(56%,93%,56%); stroke-linecap: round; stroke-width: 1; fill: rgb(56%,93%,56%); fill-rule: evenodd;"/>
			<polygon points="1030.043 528.5855, 1054.359 528.5855, 1054.359 538.8358, 1070.759 518.3352, 1054.359 497.8346, 1054.359 508.0849, 1030.043 508.0849" style="stroke: rgb(67%,84%,90%); stroke-linecap: round; stroke-width: 1; fill: rgb(67%,84%,90%); fill-rule: evenodd;"/>
			<polygon points="1070.759 528.5855, 1132.972 528.5855, 1132.972 538.8358, 1149.372 518.3352, 1132.972 497.8346, 1132.972 508.0849, 1070.759 508.0849" style="stroke: rgb(67%,84%,90%); stroke-linecap: round; stroke-width: 1; fill: rgb(67%,84%,90%); fill-rule: evenodd;"/>
			<polygon points="1190.089 528.5855, 1211.094 528.5855, 1211.094 538.8358, 1227.495 518.3352, 1211.094 497.8346, 1211.094 508.0849, 1190.089 508.0849" style="stroke: rgb(67%,84%,90%); stroke-linecap: round; stroke-width: 1; fill: rgb(67%,84%,90%); fill-rule: evenodd;"/>
			<polygon points="1231.542 528.5855, 1311.415 528.5855, 1311.415 538.8358, 1327.815 518.3352, 1311.415 497.8346, 1311.415 508.0849, 1231.542 508.0849" style="stroke: rgb(67%,84%,90%); stroke-linecap: round; stroke-width: 1; fill: rgb(67%,84%,90%); fill-rule: evenodd;"/>
			<path d="M 383.35578,169.825647 L 383.35578,251.827897 Z" style="stroke: rgb(0%,0%,0%); stroke-linecap: butt; stroke-width: 1;"/>
			<path d="M 70.866142,210.826772 L 383.35578,210.826772 Z" style="stroke: rgb(0%,0%,0%); stroke-linecap: butt; stroke-width: 1;"/>
			<path d="M 70.866142,169.825647 L 70.866142,251.827897 Z" style="stroke: rgb(0%,0%,0%); stroke-linecap: butt; stroke-width: 1;"/>
			<path d="M 1346.334052,456.833521 L 1346.334052,538.835771 Z" style="stroke: rgb(0%,0%,0%); stroke-linecap: butt; stroke-width: 1;"/>
			<path d="M 70.866142,497.834646 L 1346.334052,497.834646 Z" style="stroke: rgb(0%,0%,0%); stroke-linecap: butt; stroke-width: 1;"/>
			<path d="M 70.866142,456.833521 L 70.866142,538.835771 Z" style="stroke: rgb(0%,0%,0%); stroke-linecap: butt; stroke-width: 1;"/>
			<path d="M 1297.277594,497.834646 L 1297.277594,518.335208 Z" style="stroke: rgb(0%,0%,0%); stroke-linecap: butt; stroke-width: 1;"/>
			<path d="M 1297.277594,497.834646 L 1297.277594,510.134983 Z" style="stroke: rgb(0%,0%,0%); stroke-linecap: butt; stroke-width: 1;"/>
			<g transform=" matrix(0.707107,0.707107,-0.707107,0.707107,1297.277594,518.335208)">
				<text style="font-family: Helvetica; font-size: 6px;fill: rgb(0%,0%,0%); stroke:none;" transform="translate(0,0) scale(1,-1)" x="0" y="0">10000</text>
			</g>
			<g transform=" matrix(0.707107,-0.707107,0.707107,0.707107,98.460399,169.825647)">
				<text style="font-family: Helvetica; font-size: 10px;fill: rgb(0%,0%,0%); stroke:none;" transform="translate(0,0) scale(1,-1)" x="0" y="0">Gene_00178</text>
			</g>
			<g transform=" matrix(0.707107,-0.707107,0.707107,0.707107,184.983727,169.825647)">
				<text style="font-family: Helvetica; font-size: 10px;fill: rgb(0%,0%,0%); stroke:none;" transform="translate(0,0) scale(1,-1)" x="0" y="0">Gene_00179</text>
			</g>
			<g transform=" matrix(0.707107,-0.707107,0.707107,0.707107,244.648644,169.825647)">
				<text style="font-family: Helvetica; font-size: 10px;fill: rgb(0%,0%,0%); stroke:none;" transform="translate(0,0) scale(1,-1)" x="0" y="0">Gene_00180</text>
			</g>
			<g transform=" matrix(0.707107,-0.707107,0.707107,0.707107,295.360758,169.825647)">
				<text style="font-family: Helvetica; font-size: 16px;fill: rgb(0%,0%,100%); stroke:none;" transform="translate(0,0) scale(1,-1)" x="0" y="0">Gene_00181 (96.3)</text>
			</g>
			<g transform=" matrix(0.707107,-0.707107,0.707107,0.707107,343.74269,169.825647)">
				<text style="font-family: Helvetica; font-size: 10px;fill: rgb(0%,0%,0%); stroke:none;" transform="translate(0,0) scale(1,-1)" x="0" y="0">Gene_00182</text>
			</g>
			<g transform=" matrix(0.707107,-0.707107,0.707107,0.707107,139.790465,456.833521)">
				<text style="font-family: Helvetica; font-size: 10px;fill: rgb(0%,0%,0%); stroke:none;" transform="translate(0,0) scale(1,-1)" x="0" y="0">Gene_00665</text>
			</g>
			<g transform=" matrix(0.707107,-0.707107,0.707107,0.707107,196.573316,456.833521)">
				<text style="font-family: Helvetica; font-size: 10px;fill: rgb(0%,0%,0%); stroke:none;" transform="translate(0,0) scale(1,-1)" x="0" y="0">Gene_00666</text>
			</g>
			<g transform=" matrix(0.707107,-0.707107,0.707107,0.707107,260.591993,456.833521)">
				<text style="font-family: Helvetica; font-size: 10px;fill: rgb(0%,0%,0%); stroke:none;" transform="translate(0,0) scale(1,-1)" x="0" y="0">Gene_00667</text>
			</g>
			<g transform=" matrix(0.707107,0.707107,-0.707107,0.707107,341.105905,538.835771)">
				<text style="font-family: Helvetica; font-size: 10px;fill: rgb(0%,0%,0%); stroke:none;" transform="translate(0,0) scale(1,-1)" x="0" y="0">Gene_00668</text>
			</g>
			<g transform=" matrix(0.707107,0.707107,-0.707107,0.707107,467.426285,538.835771)">
				<text style="font-family: Helvetica; font-size: 10px;fill: rgb(0%,0%,0%); stroke:none;" transform="translate(0,0) scale(1,-1)" x="0" y="0">Gene_00669</text>
			</g>
			<g transform=" matrix(0.707107,0.707107,-0.707107,0.707107,566.826933,538.835771)">
				<text style="font-family: Helvetica; font-size: 10px;fill: rgb(0%,0%,0%); stroke:none;" transform="translate(0,0) scale(1,-1)" x="0" y="0">Gene_00670</text>
			</g>
			<g transform=" matrix(0.707107,0.707107,-0.707107,0.707107,616.86452,538.835771)">
				<text style="font-family: Helvetica; font-size: 10px;fill: rgb(0%,0%,0%); stroke:none;" transform="translate(0,0) scale(1,-1)" x="0" y="0">Gene_00671</text>
			</g>
			<g transform=" matrix(0.707107,0.707107,-0.707107,0.707107,664.142682,538.835771)">
				<text style="font-family: Helvetica; font-size: 16px;fill: rgb(0%,0%,100%); stroke:none;" transform="translate(0,0) scale(1,-1)" x="0" y="0">Gene_00672 (96.3)</text>
			</g>
			<g transform=" matrix(0.707107,-0.707107,0.707107,0.707107,738.89246,456.833521)">
				<text style="font-family: Helvetica; font-size: 10px;fill: rgb(0%,0%,0%); stroke:none;" transform="translate(0,0) scale(1,-1)" x="0" y="0">Gene_00673</text>
			</g>
			<g transform=" matrix(0.707107,-0.707107,0.707107,0.707107,862.269452,456.833521)">
				<text style="font-family: Helvetica; font-size: 10px;fill: rgb(0%,0%,0%); stroke:none;" transform="translate(0,0) scale(1,-1)" x="0" y="0">Gene_00674</text>
			</g>
			<g transform=" matrix(0.707107,-0.707107,0.707107,0.707107,972.769124,456.833521)">
				<text style="font-family: Helvetica; font-size: 10px;fill: rgb(0%,0%,0%); stroke:none;" transform="translate(0,0) scale(1,-1)" x="0" y="0">Gene_00675</text>
			</g>
			<g transform=" matrix(0.707107,0.707107,-0.707107,0.707107,1050.400968,538.835771)">
				<text style="font-family: Helvetica; font-size: 10px;fill: rgb(0%,0%,0%); stroke:none;" transform="translate(0,0) scale(1,-1)" x="0" y="0">Gene_00676</text>
			</g>
			<g transform=" matrix(0.707107,0.707107,-0.707107,0.707107,1110.065886,538.835771)">
				<text style="font-family: Helvetica; font-size: 10px;fill: rgb(0%,0%,0%); stroke:none;" transform="translate(0,0) scale(1,-1)" x="0" y="0">Gene_00677</text>
			</g>
			<g transform=" matrix(0.707107,0.707107,-0.707107,0.707107,1208.792007,538.835771)">
				<text style="font-family: Helvetica; font-size: 10px;fill: rgb(0%,0%,0%); stroke:none;" transform="translate(0,0) scale(1,-1)" x="0" y="0">Gene_00678</text>
			</g>
			<g transform=" matrix(0.707107,0.707107,-0.707107,0.707107,1279.678589,538.835771)">
				<text style="font-family: Helvetica; font-size: 10px;fill: rgb(0%,0%,0%); stroke:none;" transform="translate(0,0) scale(1,-1)" x="0" y="0">Gene_00679</text>
			</g>
			<g transform=" matrix(1,0,-0,1,70,169.825647)">
				<text style="font-family: Helvetica; font-size: 12px;fill: rgb(60%,60%,60%); stroke:none;" transform="translate(0,0) scale(1,-1)" x="0" y="0">megahit_45618 (left 1723bp, right 610bp)</text>
			</g>
			<g transform=" matrix(1,0,-0,1,70,456.833521)">
				<text style="font-family: Helvetica; font-size: 12px;fill: rgb(60%,60%,60%); stroke:none;" transform="translate(0,0) scale(1,-1)" x="0" y="0">megahit_100723 (left 4730bp, right 5455bp)</text>
			</g>
		</g>
	</g>
</svg>
