<?xml version="1.0" encoding="utf-8"?>
<!DOCTYPE svg
  PUBLIC '-//W3C//DTD SVG 1.0//EN'
  'http://www.w3.org/TR/2001/REC-SVG-20010904/DTD/svg10.dtd'>
<svg fill-rule="evenodd" height="708.6614173228346" preserveAspectRatio="xMinYMin meet" version="1.0" viewBox="0 0 1417 708" width="1417.3228346456692" xmlns="http://www.w3.org/2000/svg" xmlns:xlink="http://www.w3.org/1999/xlink">
	<title>...</title>
	<desc>...</desc>
	<clipPath id="clip">
		<rect height="708.6614173228346" width="1417.3228346456692" x="0" y="0"/>
	</clipPath>
	<g id="group" style="clip-path: url(#clip)" transform="scale(1,-1) translate(0,-708)">
		<g transform="">
			<polygon points="70.86614 169.8256, 1346.401 169.8256, 1346.401 251.8279, 70.86614 251.8279" style="stroke: rgb(96%,96%,96%); stroke-linecap: butt; stroke-width: 1; fill: rgb(96%,96%,96%); fill-rule: evenodd;"/>
			<polygon points="70.86614 456.8335, 589.9498 456.8335, 589.9498 538.8358, 70.86614 538.8358" style="stroke: rgb(96%,96%,96%); stroke-linecap: butt; stroke-width: 1; fill: rgb(96%,96%,96%); fill-rule: evenodd;"/>
			<polygon points="231.4126 456.8335, 248.1466 456.8335, 716.3657 251.8279, 699.6869 251.8279" style="stroke: rgb(100%,43%,43%); stroke-linecap: round; stroke-width: 1; fill: rgb(100%,43%,43%); fill-rule: evenodd;"/>
			<polygon points="157.2972 200.5765, 87.26659 200.5765, 87.26659 210.8268, 70.86614 190.3262, 87.26659 169.8256, 87.26659 180.0759, 157.2972 180.0759" style="stroke: rgb(56%,93%,56%); stroke-linecap: round; stroke-width: 1; fill: rgb(56%,93%,56%); fill-rule: evenodd;"/>
			<polygon points="223.1837 200.5765, 176.3486 200.5765, 176.3486 210.8268, 159.9482 190.3262, 176.3486 169.8256, 176.3486 180.0759, 223.1837 180.0759" style="stroke: rgb(56%,93%,56%); stroke-linecap: round; stroke-width: 1; fill: rgb(56%,93%,56%); fill-rule: evenodd;"/>
			<polygon points="264.1073 200.5765, 241.2962 200.5765, 241.2962 210.8268, 224.8958 190.3262, 241.2962 169.8256, 241.2962 180.0759, 264.1073 180.0759" style="stroke: rgb(56%,93%,56%); stroke-linecap: round; stroke-width: 1; fill: rgb(56%,93%,56%); fill-rule: evenodd;"/>
			<polygon points="341.4259 200.5765, 280.3421 200.5765, 280.3421 210.8268, 263.9416 190.3262, 280.3421 169.8256, 280.3421 180.0759, 341.4259 180.0759" style="stroke: rgb(56%,93%,56%); stroke-linecap: round; stroke-width: 1; fill: rgb(56%,93%,56%); fill-rule: evenodd;"/>
			<polygon points="400.5193 200.5765, 356.9979 200.5765, 356.9979 210.8268, 340.5975 190.3262, 356.9979 169.8256, 356.9979 180.0759, 400.5193 180.0759" style="stroke: rgb(56%,93%,56%); stroke-linecap: round; stroke-width: 1; fill: rgb(56%,93%,56%); fill-rule: evenodd;"/>
			<polygon points="520.1422 200.5765, 417.1407 200.5765, 417.1407 210.8268, 400.7403 190.3262, 417.1407 169.8256, 417.1407 180.0759, 520.1422 180.0759" style="stroke: rgb(56%,93%,56%); stroke-linecap: round; stroke-width: 1; fill: rgb(56%,93%,56%); fill-rule: evenodd;"/>
			<polygon points="606.9047 200.5765, 538.0338 200.5765, 538.0338 210.8268, 521.6333 190.3262, 538.0338 169.8256, 538.0338 180.0759, 606.9047 180.0759" style="stroke: rgb(56%,93%,56%); stroke-linecap: round; stroke-width: 1; fill: rgb(56%,93%,56%); fill-rule: evenodd;"/>
			<polygon points="644.128 200.5765, 623.1394 200.5765, 623.1394 210.8268, 606.739 190.3262, 623.1394 169.8256, 623.1394 180.0759, 644.128 180.0759" style="stroke: rgb(56%,93%,56%); stroke-linecap: round; stroke-width: 1; fill: rgb(56%,93%,56%); fill-rule: evenodd;"/>
			<polygon points="687.6473 200.5765, 665.6646 200.5765, 665.6646 210.8268, 649.2642 190.3262, 665.6646 169.8256, 665.6646 180.0759, 687.6473 180.0759" style="stroke: rgb(56%,93%,56%); stroke-linecap: round; stroke-width: 1; fill: rgb(56%,93%,56%); fill-rule: evenodd;"/>
			<polygon points="713.1625 200.5765, 713.1625 210.8268, 699.3003 190.3262, 713.1625 169.8256, 713.1625 180.0759" style="stroke: rgb(56%,93%,56%); stroke-linecap: round; stroke-width: 1; fill: rgb(56%,93%,56%); fill-rule: evenodd;"/>
			<polygon points="722.8273 241.5776, 726.9163 241.5776, 726.9163 251.8279, 743.3167 231.3273, 726.9163 210.8268, 726.9163 221.0771, 722.8273 221.0771" style="stroke: rgb(67%,84%,90%); stroke-linecap: round; stroke-width: 1; fill: rgb(67%,84%,90%); fill-rule: evenodd;"/>
			<polygon points="865.7562 200.5765, 766.234 200.5765, 766.234 210.8268, 749.8336 190.3262, 766.234 169.8256, 766.234 180.0759, 865.7562 180.0759" style="stroke: rgb(56%,93%,56%); stroke-linecap: round; stroke-width: 1; fill: rgb(56%,93%,56%); fill-rule: evenodd;"/>
			<polygon points="984.1088 200.5765, 894.1962 200.5765, 894.1962 210.8268, 877.7958 190.3262, 894.1962 169.8256, 894.1962 180.0759, 984.1088 180.0759" style="stroke: rgb(56%,93%,56%); stroke-linecap: round; stroke-width: 1; fill: rgb(56%,93%,56%); fill-rule: evenodd;"/>
			<polygon points="1170.667 200.5765, 1011.665 200.5765, 1011.665 210.8268, 995.2647 190.3262, 1011.665 169.8256, 1011.665 180.0759, 1170.667 180.0759" style="stroke: rgb(56%,93%,56%); stroke-linecap: round; stroke-width: 1; fill: rgb(56%,93%,56%); fill-rule: evenodd;"/>
			<polygon points="1210.818 200.5765, 1210.818 210.8268, 1205.406 190.3262, 1210.818 169.8256, 1210.818 180.0759" style="stroke: rgb(56%,93%,56%); stroke-linecap: round; stroke-width: 1; fill: rgb(56%,93%,56%); fill-rule: evenodd;"/>
			<polygon points="1302.606 200.5765, 1239.534 200.5765, 1239.534 210.8268, 1223.134 190.3262, 1239.534 169.8256, 1239.534 180.0759, 1302.606 180.0759" style="stroke: rgb(56%,93%,56%); stroke-linecap: round; stroke-width: 1; fill: rgb(56%,93%,56%); fill-rule: evenodd;"/>
			<polygon points="1346.401 200.5765, 1318.62 200.5765, 1318.62 210.8268, 1302.219 190.3262, 1318.62 169.8256, 1318.62 180.0759, 1346.401 180.0759" style="stroke: rgb(56%,93%,56%); stroke-linecap: round; stroke-width: 1; fill: rgb(56%,93%,56%); fill-rule: evenodd;"/>
			<polygon points="71.63933 528.5855, 115.6578 528.5855, 115.6578 538.8358, 132.0583 518.3352, 115.6578 497.8346, 115.6578 508.0849, 71.63933 508.0849" style="stroke: rgb(67%,84%,90%); stroke-linecap: round; stroke-width: 1; fill: rgb(67%,84%,90%); fill-rule: evenodd;"/>
			<polygon points="223.736 487.5844, 153.0426 487.5844, 153.0426 497.8346, 136.6421 477.3341, 153.0426 456.8335, 153.0426 467.0838, 223.736 467.0838" style="stroke: rgb(56%,93%,56%); stroke-linecap: round; stroke-width: 1; fill: rgb(56%,93%,56%); fill-rule: evenodd;"/>
			<polygon points="244.8881 487.5844, 244.8881 497.8346, 230.8603 477.3341, 244.8881 456.8335, 244.8881 467.0838" style="stroke: rgb(56%,93%,56%); stroke-linecap: round; stroke-width: 1; fill: rgb(56%,93%,56%); fill-rule: evenodd;"/>
			<polygon points="334.6881 487.5844, 263.9947 487.5844, 263.9947 497.8346, 247.5943 477.3341, 263.9947 456.8335, 263.9947 467.0838, 334.6881 467.0838" style="stroke: rgb(56%,93%,56%); stroke-linecap: round; stroke-width: 1; fill: rgb(56%,93%,56%); fill-rule: evenodd;"/>
			<polygon points="420.4565 487.5844, 356.3904 487.5844, 356.3904 497.8346, 339.99 477.3341, 356.3904 456.8335, 356.3904 467.0838, 420.4565 467.0838" style="stroke: rgb(56%,93%,56%); stroke-linecap: round; stroke-width: 1; fill: rgb(56%,93%,56%); fill-rule: evenodd;"/>
			<polygon points="478.2797 487.5844, 451.6579 487.5844, 451.6579 497.8346, 435.2575 477.3341, 451.6579 456.8335, 451.6579 467.0838, 478.2797 467.0838" style="stroke: rgb(56%,93%,56%); stroke-linecap: round; stroke-width: 1; fill: rgb(56%,93%,56%); fill-rule: evenodd;"/>
			<polygon points="551.2353 487.5844, 495.619 487.5844, 495.619 497.8346, 479.2186 477.3341, 495.619 456.8335, 495.619 467.0838, 551.2353 467.0838" style="stroke: rgb(56%,93%,56%); stroke-linecap: round; stroke-width: 1; fill: rgb(56%,93%,56%); fill-rule: evenodd;"/>
			<polygon points="579.7879 487.5844, 571.5569 487.5844, 571.5569 497.8346, 555.1565 477.3341, 571.5569 456.8335, 571.5569 467.0838, 579.7879 467.0838" style="stroke: rgb(56%,93%,56%); stroke-linecap: round; stroke-width: 1; fill: rgb(56%,93%,56%); fill-rule: evenodd;"/>
			<polygon points="589.7841 487.5844, 589.7841 497.8346, 579.8984 477.3341, 589.7841 456.8335, 589.7841 467.0838" style="stroke: rgb(56%,93%,56%); stroke-linecap: round; stroke-width: 1; fill: rgb(56%,93%,56%); fill-rule: evenodd;"/>
			<path d="M 1346.401465,169.825647 L 1346.401465,251.827897 Z" style="stroke: rgb(0%,0%,0%); stroke-linecap: butt; stroke-width: 1;"/>
			<path d="M 70.866142,210.826772 L 1346.401465,210.826772 Z" style="stroke: rgb(0%,0%,0%); stroke-linecap: butt; stroke-width: 1;"/>
			<path d="M 70.866142,169.825647 L 70.866142,251.827897 Z" style="stroke: rgb(0%,0%,0%); stroke-linecap: butt; stroke-width: 1;"/>
			<path d="M 623.141568,210.826772 L 623.141568,231.327334 Z" style="stroke: rgb(0%,0%,0%); stroke-linecap: butt; stroke-width: 1;"/>
			<path d="M 1175.416994,210.826772 L 1175.416994,231.327334 Z" style="stroke: rgb(0%,0%,0%); stroke-linecap: butt; stroke-width: 1;"/>
			<path d="M 623.141568,210.826772 L 623.141568,223.127109 Z" style="stroke: rgb(0%,0%,0%); stroke-linecap: butt; stroke-width: 1;"/>
			<path d="M 1175.416994,210.826772 L 1175.416994,223.127109 Z" style="stroke: rgb(0%,0%,0%); stroke-linecap: butt; stroke-width: 1;"/>
			<path d="M 589.949815,456.833521 L 589.949815,538.835771 Z" style="stroke: rgb(0%,0%,0%); stroke-linecap: butt; stroke-width: 1;"/>
			<path d="M 70.866142,497.834646 L 589.949815,497.834646 Z" style="stroke: rgb(0%,0%,0%); stroke-linecap: butt; stroke-width: 1;"/>
			<path d="M 70.866142,456.833521 L 70.866142,538.835771 Z" style="stroke: rgb(0%,0%,0%); stroke-linecap: butt; stroke-width: 1;"/>
			<g transform=" matrix(0.707107,0.707107,-0.707107,0.707107,623.141568,231.327334)">
				<text style="font-family: Helvetica; font-size: 6px;fill: rgb(0%,0%,0%); stroke:none;" transform="translate(0,0) scale(1,-1)" x="0" y="0">10000</text>
			</g>
			<g transform=" matrix(0.707107,0.707107,-0.707107,0.707107,1175.416994,231.327334)">
				<text style="font-family: Helvetica; font-size: 6px;fill: rgb(0%,0%,0%); stroke:none;" transform="translate(0,0) scale(1,-1)" x="0" y="0">20000</text>
			</g>
			<g transform=" matrix(0.707107,-0.707107,0.707107,0.707107,114.081694,169.825647)">
				<text style="font-family: Helvetica; font-size: 10px;fill: rgb(0%,0%,0%); stroke:none;" transform="translate(0,0) scale(1,-1)" x="0" y="0">Gene_00704</text>
			</g>
			<g transform=" matrix(0.707107,-0.707107,0.707107,0.707107,191.565936,169.825647)">
				<text style="font-family: Helvetica; font-size: 10px;fill: rgb(0%,0%,0%); stroke:none;" transform="translate(0,0) scale(1,-1)" x="0" y="0">Gene_00705</text>
			</g>
			<g transform=" matrix(0.707107,-0.707107,0.707107,0.707107,244.501536,169.825647)">
				<text style="font-family: Helvetica; font-size: 10px;fill: rgb(0%,0%,0%); stroke:none;" transform="translate(0,0) scale(1,-1)" x="0" y="0">Gene_00706</text>
			</g>
			<g transform=" matrix(0.707107,-0.707107,0.707107,0.707107,302.683752,169.825647)">
				<text style="font-family: Helvetica; font-size: 10px;fill: rgb(0%,0%,0%); stroke:none;" transform="translate(0,0) scale(1,-1)" x="0" y="0">Gene_00707</text>
			</g>
			<g transform=" matrix(0.707107,-0.707107,0.707107,0.707107,370.558402,169.825647)">
				<text style="font-family: Helvetica; font-size: 10px;fill: rgb(0%,0%,0%); stroke:none;" transform="translate(0,0) scale(1,-1)" x="0" y="0">Gene_00708</text>
			</g>
			<g transform=" matrix(0.707107,-0.707107,0.707107,0.707107,460.441227,169.825647)">
				<text style="font-family: Helvetica; font-size: 10px;fill: rgb(0%,0%,0%); stroke:none;" transform="translate(0,0) scale(1,-1)" x="0" y="0">Gene_00709</text>
			</g>
			<g transform=" matrix(0.707107,-0.707107,0.707107,0.707107,564.269007,169.825647)">
				<text style="font-family: Helvetica; font-size: 10px;fill: rgb(0%,0%,0%); stroke:none;" transform="translate(0,0) scale(1,-1)" x="0" y="0">Gene_00710</text>
			</g>
			<g transform=" matrix(0.707107,-0.707107,0.707107,0.707107,625.433511,169.825647)">
				<text style="font-family: Helvetica; font-size: 10px;fill: rgb(0%,0%,0%); stroke:none;" transform="translate(0,0) scale(1,-1)" x="0" y="0">Gene_00711</text>
			</g>
			<g transform=" matrix(0.707107,-0.707107,0.707107,0.707107,668.455766,169.825647)">
				<text style="font-family: Helvetica; font-size: 10px;fill: rgb(0%,0%,0%); stroke:none;" transform="translate(0,0) scale(1,-1)" x="0" y="0">Gene_00712</text>
			</g>
			<g transform=" matrix(0.707107,-0.707107,0.707107,0.707107,706.231405,169.825647)">
				<text style="font-family: Helvetica; font-size: 16px;fill: rgb(0%,0%,100%); stroke:none;" transform="translate(0,0) scale(1,-1)" x="0" y="0">Gene_00713 (79.6)</text>
			</g>
			<g transform=" matrix(0.707107,0.707107,-0.707107,0.707107,733.071991,251.827897)">
				<text style="font-family: Helvetica; font-size: 10px;fill: rgb(0%,0%,0%); stroke:none;" transform="translate(0,0) scale(1,-1)" x="0" y="0">Gene_00714</text>
			</g>
			<g transform=" matrix(0.707107,-0.707107,0.707107,0.707107,807.794856,169.825647)">
				<text style="font-family: Helvetica; font-size: 10px;fill: rgb(0%,0%,0%); stroke:none;" transform="translate(0,0) scale(1,-1)" x="0" y="0">Gene_00715</text>
			</g>
			<g transform=" matrix(0.707107,-0.707107,0.707107,0.707107,930.952276,169.825647)">
				<text style="font-family: Helvetica; font-size: 10px;fill: rgb(0%,0%,0%); stroke:none;" transform="translate(0,0) scale(1,-1)" x="0" y="0">Gene_00716</text>
			</g>
			<g transform=" matrix(0.707107,-0.707107,0.707107,0.707107,1082.966087,169.825647)">
				<text style="font-family: Helvetica; font-size: 10px;fill: rgb(0%,0%,0%); stroke:none;" transform="translate(0,0) scale(1,-1)" x="0" y="0">Gene_00717</text>
			</g>
			<g transform=" matrix(0.707107,-0.707107,0.707107,0.707107,1208.111699,169.825647)">
				<text style="font-family: Helvetica; font-size: 10px;fill: rgb(0%,0%,0%); stroke:none;" transform="translate(0,0) scale(1,-1)" x="0" y="0">Gene_00718</text>
			</g>
			<g transform=" matrix(0.707107,-0.707107,0.707107,0.707107,1262.869807,169.825647)">
				<text style="font-family: Helvetica; font-size: 10px;fill: rgb(0%,0%,0%); stroke:none;" transform="translate(0,0) scale(1,-1)" x="0" y="0">Gene_00719</text>
			</g>
			<g transform=" matrix(0.707107,-0.707107,0.707107,0.707107,1324.310448,169.825647)">
				<text style="font-family: Helvetica; font-size: 10px;fill: rgb(0%,0%,0%); stroke:none;" transform="translate(0,0) scale(1,-1)" x="0" y="0">Gene_00720</text>
			</g>
			<g transform=" matrix(0.707107,0.707107,-0.707107,0.707107,101.848793,538.835771)">
				<text style="font-family: Helvetica; font-size: 10px;fill: rgb(0%,0%,0%); stroke:none;" transform="translate(0,0) scale(1,-1)" x="0" y="0">Gene_01358</text>
			</g>
			<g transform=" matrix(0.707107,-0.707107,0.707107,0.707107,180.189062,456.833521)">
				<text style="font-family: Helvetica; font-size: 10px;fill: rgb(0%,0%,0%); stroke:none;" transform="translate(0,0) scale(1,-1)" x="0" y="0">Gene_01359</text>
			</g>
			<g transform=" matrix(0.707107,-0.707107,0.707107,0.707107,237.874231,456.833521)">
				<text style="font-family: Helvetica; font-size: 16px;fill: rgb(0%,0%,100%); stroke:none;" transform="translate(0,0) scale(1,-1)" x="0" y="0">Gene_01360 (79.6)</text>
			</g>
			<g transform=" matrix(0.707107,-0.707107,0.707107,0.707107,291.141195,456.833521)">
				<text style="font-family: Helvetica; font-size: 10px;fill: rgb(0%,0%,0%); stroke:none;" transform="translate(0,0) scale(1,-1)" x="0" y="0">Gene_01361</text>
			</g>
			<g transform=" matrix(0.707107,-0.707107,0.707107,0.707107,380.223222,456.833521)">
				<text style="font-family: Helvetica; font-size: 10px;fill: rgb(0%,0%,0%); stroke:none;" transform="translate(0,0) scale(1,-1)" x="0" y="0">Gene_01362</text>
			</g>
			<g transform=" matrix(0.707107,-0.707107,0.707107,0.707107,456.768596,456.833521)">
				<text style="font-family: Helvetica; font-size: 10px;fill: rgb(0%,0%,0%); stroke:none;" transform="translate(0,0) scale(1,-1)" x="0" y="0">Gene_01363</text>
			</g>
			<g transform=" matrix(0.707107,-0.707107,0.707107,0.707107,515.226949,456.833521)">
				<text style="font-family: Helvetica; font-size: 10px;fill: rgb(0%,0%,0%); stroke:none;" transform="translate(0,0) scale(1,-1)" x="0" y="0">Gene_01364</text>
			</g>
			<g transform=" matrix(0.707107,-0.707107,0.707107,0.707107,567.472205,456.833521)">
				<text style="font-family: Helvetica; font-size: 10px;fill: rgb(0%,0%,0%); stroke:none;" transform="translate(0,0) scale(1,-1)" x="0" y="0">Gene_01365</text>
			</g>
			<g transform=" matrix(0.707107,-0.707107,0.707107,0.707107,584.841267,456.833521)">
				<text style="font-family: Helvetica; font-size: 10px;fill: rgb(0%,0%,0%); stroke:none;" transform="translate(0,0) scale(1,-1)" x="0" y="0">Gene_01366</text>
			</g>
			<g transform=" matrix(1,0,-0,1,70,169.825647)">
				<text style="font-family: Helvetica; font-size: 12px;fill: rgb(60%,60%,60%); stroke:none;" transform="translate(0,0) scale(1,-1)" x="0" y="0">megahit_8464 (left 13565bp, right 34101bp)</text>
			</g>
			<g transform=" matrix(1,0,-0,1,70,456.833521)">
				<text style="font-family: Helvetica; font-size: 12px;fill: rgb(60%,60%,60%); stroke:none;" transform="translate(0,0) scale(1,-1)" x="0" y="0">megahit_65640 (left 2897bp, right 6248bp)</text>
			</g>
		</g>
	</g>
</svg>
