<?xml version="1.0" encoding="utf-8"?>
<!DOCTYPE svg
  PUBLIC '-//W3C//DTD SVG 1.0//EN'
  'http://www.w3.org/TR/2001/REC-SVG-20010904/DTD/svg10.dtd'>
<svg fill-rule="evenodd" height="708.6614173228346" preserveAspectRatio="xMinYMin meet" version="1.0" viewBox="0 0 1417 708" width="1417.3228346456692" xmlns="http://www.w3.org/2000/svg" xmlns:xlink="http://www.w3.org/1999/xlink">
	<title>...</title>
	<desc>...</desc>
	<clipPath id="clip">
		<rect height="708.6614173228346" width="1417.3228346456692" x="0" y="0"/>
	</clipPath>
	<g id="group" style="clip-path: url(#clip)" transform="scale(1,-1) translate(0,-708)">
		<g transform="">
			<polygon points="70.86614 169.8256, 1346.374 169.8256, 1346.374 251.8279, 70.86614 251.8279" style="stroke: rgb(96%,96%,96%); stroke-linecap: butt; stroke-width: 1; fill: rgb(96%,96%,96%); fill-rule: evenodd;"/>
			<polygon points="70.86614 456.8335, 306.7104 456.8335, 306.7104 538.8358, 70.86614 538.8358" style="stroke: rgb(96%,96%,96%); stroke-linecap: butt; stroke-width: 1; fill: rgb(96%,96%,96%); fill-rule: evenodd;"/>
			<polygon points="70.94872 456.8335, 148.4074 456.8335, 1038.934 251.8279, 1116.475 251.8279" style="stroke: rgb(100%,4%,4%); stroke-linecap: round; stroke-width: 1; fill: rgb(100%,4%,4%); fill-rule: evenodd;"/>
			<polygon points="237.2619 456.8335, 278.0557 456.8335, 992.4425 251.8279, 1033.236 251.8279" style="stroke: rgb(100%,50%,50%); stroke-linecap: round; stroke-width: 1; fill: rgb(100%,50%,50%); fill-rule: evenodd;"/>
			<polygon points="284.0013 456.8335, 306.6278 456.8335, 968.4948 251.8279, 991.1213 251.8279" style="stroke: rgb(100%,48%,48%); stroke-linecap: round; stroke-width: 1; fill: rgb(100%,48%,48%); fill-rule: evenodd;"/>
			<polygon points="70.86614 241.5776, 210.7043 241.5776, 210.7043 251.8279, 227.1047 231.3273, 210.7043 210.8268, 210.7043 221.0771, 70.86614 221.0771" style="stroke: rgb(67%,84%,90%); stroke-linecap: round; stroke-width: 1; fill: rgb(67%,84%,90%); fill-rule: evenodd;"/>
			<polygon points="224.0493 241.5776, 274.2072 241.5776, 274.2072 251.8279, 290.6076 231.3273, 274.2072 210.8268, 274.2072 221.0771, 224.0493 221.0771" style="stroke: rgb(67%,84%,90%); stroke-linecap: round; stroke-width: 1; fill: rgb(67%,84%,90%); fill-rule: evenodd;"/>
			<polygon points="378.306 200.5765, 315.2659 200.5765, 315.2659 210.8268, 298.8655 190.3262, 315.2659 169.8256, 315.2659 180.0759, 378.306 180.0759" style="stroke: rgb(56%,93%,56%); stroke-linecap: round; stroke-width: 1; fill: rgb(56%,93%,56%); fill-rule: evenodd;"/>
			<polygon points="415.136 241.5776, 462.0733 241.5776, 462.0733 251.8279, 478.4738 231.3273, 462.0733 210.8268, 462.0733 221.0771, 415.136 221.0771" style="stroke: rgb(67%,84%,90%); stroke-linecap: round; stroke-width: 1; fill: rgb(67%,84%,90%); fill-rule: evenodd;"/>
			<polygon points="478.6389 241.5776, 538.2107 241.5776, 538.2107 251.8279, 554.6112 231.3273, 538.2107 210.8268, 538.2107 221.0771, 478.6389 221.0771" style="stroke: rgb(67%,84%,90%); stroke-linecap: round; stroke-width: 1; fill: rgb(67%,84%,90%); fill-rule: evenodd;"/>
			<polygon points="558.3272 241.5776, 585.4456 241.5776, 585.4456 251.8279, 601.8461 231.3273, 585.4456 210.8268, 585.4456 221.0771, 558.3272 221.0771" style="stroke: rgb(67%,84%,90%); stroke-linecap: round; stroke-width: 1; fill: rgb(67%,84%,90%); fill-rule: evenodd;"/>
			<polygon points="610.3517 241.5776, 700.1472 241.5776, 700.1472 251.8279, 716.5477 231.3273, 700.1472 210.8268, 700.1472 221.0771, 610.3517 221.0771" style="stroke: rgb(67%,84%,90%); stroke-linecap: round; stroke-width: 1; fill: rgb(67%,84%,90%); fill-rule: evenodd;"/>
			<polygon points="718.2818 241.5776, 774.1376 241.5776, 774.1376 251.8279, 790.538 231.3273, 774.1376 210.8268, 774.1376 221.0771, 718.2818 221.0771" style="stroke: rgb(67%,84%,90%); stroke-linecap: round; stroke-width: 1; fill: rgb(67%,84%,90%); fill-rule: evenodd;"/>
			<polygon points="835.8736 241.5776, 896.6841 241.5776, 896.6841 251.8279, 913.0846 231.3273, 896.6841 210.8268, 896.6841 221.0771, 835.8736 221.0771" style="stroke: rgb(67%,84%,90%); stroke-linecap: round; stroke-width: 1; fill: rgb(67%,84%,90%); fill-rule: evenodd;"/>
			<polygon points="922.9114 241.5776, 977.033 241.5776, 977.033 251.8279, 993.4335 231.3273, 977.033 210.8268, 977.033 221.0771, 922.9114 221.0771" style="stroke: rgb(67%,84%,90%); stroke-linecap: round; stroke-width: 1; fill: rgb(67%,84%,90%); fill-rule: evenodd;"/>
			<polygon points="993.1857 241.5776, 1019.561 241.5776, 1019.561 251.8279, 1035.961 231.3273, 1019.561 210.8268, 1019.561 221.0771, 993.1857 221.0771" style="stroke: rgb(67%,84%,90%); stroke-linecap: round; stroke-width: 1; fill: rgb(67%,84%,90%); fill-rule: evenodd;"/>
			<polygon points="1037.118 241.5776, 1088.019 241.5776, 1088.019 251.8279, 1104.419 231.3273, 1088.019 210.8268, 1088.019 221.0771, 1037.118 221.0771" style="stroke: rgb(67%,84%,90%); stroke-linecap: round; stroke-width: 1; fill: rgb(67%,84%,90%); fill-rule: evenodd;"/>
			<polygon points="1106.483 241.5776, 1156.641 241.5776, 1156.641 251.8279, 1173.042 231.3273, 1156.641 210.8268, 1156.641 221.0771, 1106.483 221.0771" style="stroke: rgb(67%,84%,90%); stroke-linecap: round; stroke-width: 1; fill: rgb(67%,84%,90%); fill-rule: evenodd;"/>
			<polygon points="1268.337 200.5765, 1239.98 200.5765, 1239.98 210.8268, 1223.58 190.3262, 1239.98 169.8256, 1239.98 180.0759, 1268.337 180.0759" style="stroke: rgb(56%,93%,56%); stroke-linecap: round; stroke-width: 1; fill: rgb(56%,93%,56%); fill-rule: evenodd;"/>
			<polygon points="1292.698 200.5765, 1284.16 200.5765, 1284.16 210.8268, 1267.759 190.3262, 1284.16 169.8256, 1284.16 180.0759, 1292.698 180.0759" style="stroke: rgb(56%,93%,56%); stroke-linecap: round; stroke-width: 1; fill: rgb(56%,93%,56%); fill-rule: evenodd;"/>
			<polygon points="1327.794 200.5765, 1308.851 200.5765, 1308.851 210.8268, 1292.45 190.3262, 1308.851 169.8256, 1308.851 180.0759, 1327.794 180.0759" style="stroke: rgb(56%,93%,56%); stroke-linecap: round; stroke-width: 1; fill: rgb(56%,93%,56%); fill-rule: evenodd;"/>
			<polygon points="150.3067 487.5844, 99.40564 487.5844, 99.40564 497.8346, 83.00519 477.3341, 99.40564 456.8335, 99.40564 467.0838, 150.3067 467.0838" style="stroke: rgb(56%,93%,56%); stroke-linecap: round; stroke-width: 1; fill: rgb(56%,93%,56%); fill-rule: evenodd;"/>
			<polygon points="221.0765 487.5844, 170.1754 487.5844, 170.1754 497.8346, 153.775 477.3341, 170.1754 456.8335, 170.1754 467.0838, 221.0765 467.0838" style="stroke: rgb(56%,93%,56%); stroke-linecap: round; stroke-width: 1; fill: rgb(56%,93%,56%); fill-rule: evenodd;"/>
			<polygon points="277.3125 487.5844, 251.185 487.5844, 251.185 497.8346, 234.7845 477.3341, 251.185 456.8335, 251.185 467.0838, 277.3125 467.0838" style="stroke: rgb(56%,93%,56%); stroke-linecap: round; stroke-width: 1; fill: rgb(56%,93%,56%); fill-rule: evenodd;"/>
			<polygon points="302.1686 487.5844, 298.8328 487.5844, 298.8328 497.8346, 282.4323 477.3341, 298.8328 456.8335, 298.8328 467.0838, 302.1686 467.0838" style="stroke: rgb(56%,93%,56%); stroke-linecap: round; stroke-width: 1; fill: rgb(56%,93%,56%); fill-rule: evenodd;"/>
			<path d="M 1346.374114,169.825647 L 1346.374114,251.827897 Z" style="stroke: rgb(0%,0%,0%); stroke-linecap: butt; stroke-width: 1;"/>
			<path d="M 70.866142,210.826772 L 1346.374114,210.826772 Z" style="stroke: rgb(0%,0%,0%); stroke-linecap: butt; stroke-width: 1;"/>
			<path d="M 70.866142,169.825647 L 70.866142,251.827897 Z" style="stroke: rgb(0%,0%,0%); stroke-linecap: butt; stroke-width: 1;"/>
			<path d="M 896.651441,210.826772 L 896.651441,231.327334 Z" style="stroke: rgb(0%,0%,0%); stroke-linecap: butt; stroke-width: 1;"/>
			<path d="M 896.651441,210.826772 L 896.651441,223.127109 Z" style="stroke: rgb(0%,0%,0%); stroke-linecap: butt; stroke-width: 1;"/>
			<path d="M 306.710423,456.833521 L 306.710423,538.835771 Z" style="stroke: rgb(0%,0%,0%); stroke-linecap: butt; stroke-width: 1;"/>
			<path d="M 70.866142,497.834646 L 306.710423,497.834646 Z" style="stroke: rgb(0%,0%,0%); stroke-linecap: butt; stroke-width: 1;"/>
			<path d="M 70.866142,456.833521 L 70.866142,538.835771 Z" style="stroke: rgb(0%,0%,0%); stroke-linecap: butt; stroke-width: 1;"/>
			<g transform=" matrix(0.707107,0.707107,-0.707107,0.707107,896.651441,231.327334)">
				<text style="font-family: Helvetica; font-size: 6px;fill: rgb(0%,0%,0%); stroke:none;" transform="translate(0,0) scale(1,-1)" x="0" y="0">10000</text>
			</g>
			<g transform=" matrix(0.707107,0.707107,-0.707107,0.707107,148.985431,251.827897)">
				<text style="font-family: Helvetica; font-size: 10px;fill: rgb(0%,0%,0%); stroke:none;" transform="translate(0,0) scale(1,-1)" x="0" y="0">Gene_03264</text>
			</g>
			<g transform=" matrix(0.707107,0.707107,-0.707107,0.707107,257.328462,251.827897)">
				<text style="font-family: Helvetica; font-size: 10px;fill: rgb(0%,0%,0%); stroke:none;" transform="translate(0,0) scale(1,-1)" x="0" y="0">Gene_03265</text>
			</g>
			<g transform=" matrix(0.707107,-0.707107,0.707107,0.707107,338.585736,169.825647)">
				<text style="font-family: Helvetica; font-size: 10px;fill: rgb(0%,0%,0%); stroke:none;" transform="translate(0,0) scale(1,-1)" x="0" y="0">Gene_03266</text>
			</g>
			<g transform=" matrix(0.707107,0.707107,-0.707107,0.707107,446.804899,251.827897)">
				<text style="font-family: Helvetica; font-size: 10px;fill: rgb(0%,0%,0%); stroke:none;" transform="translate(0,0) scale(1,-1)" x="0" y="0">Gene_03267</text>
			</g>
			<g transform=" matrix(0.707107,0.707107,-0.707107,0.707107,516.625046,251.827897)">
				<text style="font-family: Helvetica; font-size: 10px;fill: rgb(0%,0%,0%); stroke:none;" transform="translate(0,0) scale(1,-1)" x="0" y="0">Gene_03268</text>
			</g>
			<g transform=" matrix(0.707107,0.707107,-0.707107,0.707107,580.086646,251.827897)">
				<text style="font-family: Helvetica; font-size: 10px;fill: rgb(0%,0%,0%); stroke:none;" transform="translate(0,0) scale(1,-1)" x="0" y="0">Gene_03269</text>
			</g>
			<g transform=" matrix(0.707107,0.707107,-0.707107,0.707107,663.449672,251.827897)">
				<text style="font-family: Helvetica; font-size: 10px;fill: rgb(0%,0%,0%); stroke:none;" transform="translate(0,0) scale(1,-1)" x="0" y="0">Gene_03270</text>
			</g>
			<g transform=" matrix(0.707107,0.707107,-0.707107,0.707107,754.409923,251.827897)">
				<text style="font-family: Helvetica; font-size: 10px;fill: rgb(0%,0%,0%); stroke:none;" transform="translate(0,0) scale(1,-1)" x="0" y="0">Gene_03271</text>
			</g>
			<g transform=" matrix(0.707107,0.707107,-0.707107,0.707107,874.479105,251.827897)">
				<text style="font-family: Helvetica; font-size: 10px;fill: rgb(0%,0%,0%); stroke:none;" transform="translate(0,0) scale(1,-1)" x="0" y="0">Gene_03272</text>
			</g>
			<g transform=" matrix(0.707107,0.707107,-0.707107,0.707107,958.172445,251.827897)">
				<text style="font-family: Helvetica; font-size: 10px;fill: rgb(0%,0%,0%); stroke:none;" transform="translate(0,0) scale(1,-1)" x="0" y="0">Gene_03273</text>
			</g>
			<g transform=" matrix(0.707107,0.707107,-0.707107,0.707107,1014.573581,251.827897)">
				<text style="font-family: Helvetica; font-size: 10px;fill: rgb(0%,0%,0%); stroke:none;" transform="translate(0,0) scale(1,-1)" x="0" y="0">Gene_03274</text>
			</g>
			<g transform=" matrix(0.707107,0.707107,-0.707107,0.707107,1070.768271,251.827897)">
				<text style="font-family: Helvetica; font-size: 16px;fill: rgb(0%,0%,100%); stroke:none;" transform="translate(0,0) scale(1,-1)" x="0" y="0">Gene_03275 (97.4)</text>
			</g>
			<g transform=" matrix(0.707107,0.707107,-0.707107,0.707107,1139.762633,251.827897)">
				<text style="font-family: Helvetica; font-size: 10px;fill: rgb(0%,0%,0%); stroke:none;" transform="translate(0,0) scale(1,-1)" x="0" y="0">Gene_03276</text>
			</g>
			<g transform=" matrix(0.707107,-0.707107,0.707107,0.707107,1245.958622,169.825647)">
				<text style="font-family: Helvetica; font-size: 10px;fill: rgb(0%,0%,0%); stroke:none;" transform="translate(0,0) scale(1,-1)" x="0" y="0">Gene_03277</text>
			</g>
			<g transform=" matrix(0.707107,-0.707107,0.707107,0.707107,1280.228712,169.825647)">
				<text style="font-family: Helvetica; font-size: 10px;fill: rgb(0%,0%,0%); stroke:none;" transform="translate(0,0) scale(1,-1)" x="0" y="0">Gene_03278</text>
			</g>
			<g transform=" matrix(0.707107,-0.707107,0.707107,0.707107,1310.12214,169.825647)">
				<text style="font-family: Helvetica; font-size: 10px;fill: rgb(0%,0%,0%); stroke:none;" transform="translate(0,0) scale(1,-1)" x="0" y="0">Gene_03279</text>
			</g>
			<g transform=" matrix(0.707107,-0.707107,0.707107,0.707107,116.655937,456.833521)">
				<text style="font-family: Helvetica; font-size: 16px;fill: rgb(0%,0%,100%); stroke:none;" transform="translate(0,0) scale(1,-1)" x="0" y="0">Gene_00364 (97.4)</text>
			</g>
			<g transform=" matrix(0.707107,-0.707107,0.707107,0.707107,187.425737,456.833521)">
				<text style="font-family: Helvetica; font-size: 10px;fill: rgb(0%,0%,0%); stroke:none;" transform="translate(0,0) scale(1,-1)" x="0" y="0">Gene_00365</text>
			</g>
			<g transform=" matrix(0.707107,-0.707107,0.707107,0.707107,256.048495,456.833521)">
				<text style="font-family: Helvetica; font-size: 10px;fill: rgb(0%,0%,0%); stroke:none;" transform="translate(0,0) scale(1,-1)" x="0" y="0">Gene_00366</text>
			</g>
			<g transform=" matrix(0.707107,-0.707107,0.707107,0.707107,292.30047,456.833521)">
				<text style="font-family: Helvetica; font-size: 10px;fill: rgb(0%,0%,0%); stroke:none;" transform="translate(0,0) scale(1,-1)" x="0" y="0">Gene_00367</text>
			</g>
			<g transform=" matrix(1,0,-0,1,70,169.825647)">
				<text style="font-family: Helvetica; font-size: 12px;fill: rgb(60%,60%,60%); stroke:none;" transform="translate(0,0) scale(1,-1)" x="0" y="0">megahit_32699 (left 16540bp, right 2930bp)</text>
			</g>
		</g>
	</g>
</svg>
