<?xml version="1.0" encoding="utf-8"?>
<!DOCTYPE svg
  PUBLIC '-//W3C//DTD SVG 1.0//EN'
  'http://www.w3.org/TR/2001/REC-SVG-20010904/DTD/svg10.dtd'>
<svg fill-rule="evenodd" height="708.6614173228346" preserveAspectRatio="xMinYMin meet" version="1.0" viewBox="0 0 1417 708" width="1417.3228346456692" xmlns="http://www.w3.org/2000/svg" xmlns:xlink="http://www.w3.org/1999/xlink">
	<title>...</title>
	<desc>...</desc>
	<clipPath id="clip">
		<rect height="708.6614173228346" width="1417.3228346456692" x="0" y="0"/>
	</clipPath>
	<g id="group" style="clip-path: url(#clip)" transform="scale(1,-1) translate(0,-708)">
		<g transform="">
			<polygon points="70.86614 169.8256, 638.6747 169.8256, 638.6747 251.8279, 70.86614 251.8279" style="stroke: rgb(96%,96%,96%); stroke-linecap: butt; stroke-width: 1; fill: rgb(96%,96%,96%); fill-rule: evenodd;"/>
			<polygon points="70.86614 456.8335, 1346.368 456.8335, 1346.368 538.8358, 70.86614 538.8358" style="stroke: rgb(96%,96%,96%); stroke-linecap: butt; stroke-width: 1; fill: rgb(96%,96%,96%); fill-rule: evenodd;"/>
			<polygon points="713.4636 456.8335, 971.0005 456.8335, 369.9327 251.8279, 628.9815 251.8279" style="stroke: rgb(100%,54%,54%); stroke-linecap: round; stroke-width: 1; fill: rgb(100%,54%,54%); fill-rule: evenodd;"/>
			<polygon points="75.57935 241.5776, 144.4613 241.5776, 144.4613 251.8279, 160.8618 231.3273, 144.4613 210.8268, 144.4613 221.0771, 75.57935 221.0771" style="stroke: rgb(67%,84%,90%); stroke-linecap: round; stroke-width: 1; fill: rgb(67%,84%,90%); fill-rule: evenodd;"/>
			<polygon points="279.1367 200.5765, 181.9755 200.5765, 181.9755 210.8268, 165.575 190.3262, 181.9755 169.8256, 181.9755 180.0759, 279.1367 180.0759" style="stroke: rgb(56%,93%,56%); stroke-linecap: round; stroke-width: 1; fill: rgb(56%,93%,56%); fill-rule: evenodd;"/>
			<polygon points="285.8064 241.5776, 345.6176 241.5776, 345.6176 251.8279, 362.0181 231.3273, 345.6176 210.8268, 345.6176 221.0771, 285.8064 221.0771" style="stroke: rgb(67%,84%,90%); stroke-linecap: round; stroke-width: 1; fill: rgb(67%,84%,90%); fill-rule: evenodd;"/>
			<polygon points="371.6224 241.5776, 382.6119 241.5776, 382.6119 251.8279, 399.0123 231.3273, 382.6119 210.8268, 382.6119 221.0771, 371.6224 221.0771" style="stroke: rgb(67%,84%,90%); stroke-linecap: round; stroke-width: 1; fill: rgb(67%,84%,90%); fill-rule: evenodd;"/>
			<polygon points="403.4588 241.5776, 612.67 241.5776, 612.67 251.8279, 629.0704 231.3273, 612.67 210.8268, 612.67 221.0771, 403.4588 221.0771" style="stroke: rgb(67%,84%,90%); stroke-linecap: round; stroke-width: 1; fill: rgb(67%,84%,90%); fill-rule: evenodd;"/>
			<polygon points="76.20185 528.5855, 103.9989 528.5855, 103.9989 538.8358, 120.3993 518.3352, 103.9989 497.8346, 103.9989 508.0849, 76.20185 508.0849" style="stroke: rgb(67%,84%,90%); stroke-linecap: round; stroke-width: 1; fill: rgb(67%,84%,90%); fill-rule: evenodd;"/>
			<polygon points="130.6261 528.5855, 130.6261 538.8358, 145.2104 518.3352, 130.6261 497.8346, 130.6261 508.0849" style="stroke: rgb(67%,84%,90%); stroke-linecap: round; stroke-width: 1; fill: rgb(67%,84%,90%); fill-rule: evenodd;"/>
			<polygon points="210.6618 528.5855, 228.5877 528.5855, 228.5877 538.8358, 244.9882 518.3352, 228.5877 497.8346, 228.5877 508.0849, 210.6618 508.0849" style="stroke: rgb(67%,84%,90%); stroke-linecap: round; stroke-width: 1; fill: rgb(67%,84%,90%); fill-rule: evenodd;"/>
			<polygon points="328.4031 487.5844, 285.3993 487.5844, 285.3993 497.8346, 268.9989 477.3341, 285.3993 456.8335, 285.3993 467.0838, 328.4031 467.0838" style="stroke: rgb(56%,93%,56%); stroke-linecap: round; stroke-width: 1; fill: rgb(56%,93%,56%); fill-rule: evenodd;"/>
			<polygon points="344.677 528.5855, 373.2744 528.5855, 373.2744 538.8358, 389.6749 518.3352, 373.2744 497.8346, 373.2744 508.0849, 344.677 508.0849" style="stroke: rgb(67%,84%,90%); stroke-linecap: round; stroke-width: 1; fill: rgb(67%,84%,90%); fill-rule: evenodd;"/>
			<polygon points="442.0537 487.5844, 413.9899 487.5844, 413.9899 497.8346, 397.5895 477.3341, 413.9899 456.8335, 413.9899 467.0838, 442.0537 467.0838" style="stroke: rgb(56%,93%,56%); stroke-linecap: round; stroke-width: 1; fill: rgb(56%,93%,56%); fill-rule: evenodd;"/>
			<polygon points="534.0948 487.5844, 458.8099 487.5844, 458.8099 497.8346, 442.4095 477.3341, 458.8099 456.8335, 458.8099 467.0838, 534.0948 467.0838" style="stroke: rgb(56%,93%,56%); stroke-linecap: round; stroke-width: 1; fill: rgb(56%,93%,56%); fill-rule: evenodd;"/>
			<polygon points="635.9179 487.5844, 553.4298 487.5844, 553.4298 497.8346, 537.0294 477.3341, 553.4298 456.8335, 553.4298 467.0838, 635.9179 467.0838" style="stroke: rgb(56%,93%,56%); stroke-linecap: round; stroke-width: 1; fill: rgb(56%,93%,56%); fill-rule: evenodd;"/>
			<polygon points="658.4168 528.5855, 688.0813 528.5855, 688.0813 538.8358, 704.4818 518.3352, 688.0813 497.8346, 688.0813 508.0849, 658.4168 508.0849" style="stroke: rgb(67%,84%,90%); stroke-linecap: round; stroke-width: 1; fill: rgb(67%,84%,90%); fill-rule: evenodd;"/>
			<polygon points="936.0516 487.5844, 729.7751 487.5844, 729.7751 497.8346, 713.3746 477.3341, 729.7751 456.8335, 729.7751 467.0838, 936.0516 467.0838" style="stroke: rgb(56%,93%,56%); stroke-linecap: round; stroke-width: 1; fill: rgb(56%,93%,56%); fill-rule: evenodd;"/>
			<polygon points="969.7555 487.5844, 958.2324 487.5844, 958.2324 497.8346, 941.832 477.3341, 958.2324 456.8335, 958.2324 467.0838, 969.7555 467.0838" style="stroke: rgb(56%,93%,56%); stroke-linecap: round; stroke-width: 1; fill: rgb(56%,93%,56%); fill-rule: evenodd;"/>
			<polygon points="1271.49 487.5844, 1009.722 487.5844, 1009.722 497.8346, 993.3216 477.3341, 1009.722 456.8335, 1009.722 467.0838, 1271.49 467.0838" style="stroke: rgb(56%,93%,56%); stroke-linecap: round; stroke-width: 1; fill: rgb(56%,93%,56%); fill-rule: evenodd;"/>
			<polygon points="1334.985 487.5844, 1288.78 487.5844, 1288.78 497.8346, 1272.379 477.3341, 1288.78 456.8335, 1288.78 467.0838, 1334.985 467.0838" style="stroke: rgb(56%,93%,56%); stroke-linecap: round; stroke-width: 1; fill: rgb(56%,93%,56%); fill-rule: evenodd;"/>
			<polygon points="1343.344 487.5844, 1343.344 497.8346, 1331.161 477.3341, 1343.344 456.8335, 1343.344 467.0838" style="stroke: rgb(56%,93%,56%); stroke-linecap: round; stroke-width: 1; fill: rgb(56%,93%,56%); fill-rule: evenodd;"/>
			<path d="M 638.67468,169.825647 L 638.67468,251.827897 Z" style="stroke: rgb(0%,0%,0%); stroke-linecap: butt; stroke-width: 1;"/>
			<path d="M 70.866142,210.826772 L 638.67468,210.826772 Z" style="stroke: rgb(0%,0%,0%); stroke-linecap: butt; stroke-width: 1;"/>
			<path d="M 70.866142,169.825647 L 70.866142,251.827897 Z" style="stroke: rgb(0%,0%,0%); stroke-linecap: butt; stroke-width: 1;"/>
			<path d="M 1346.367764,456.833521 L 1346.367764,538.835771 Z" style="stroke: rgb(0%,0%,0%); stroke-linecap: butt; stroke-width: 1;"/>
			<path d="M 70.866142,497.834646 L 1346.367764,497.834646 Z" style="stroke: rgb(0%,0%,0%); stroke-linecap: butt; stroke-width: 1;"/>
			<path d="M 70.866142,456.833521 L 70.866142,538.835771 Z" style="stroke: rgb(0%,0%,0%); stroke-linecap: butt; stroke-width: 1;"/>
			<path d="M 960.151244,497.834646 L 960.151244,518.335208 Z" style="stroke: rgb(0%,0%,0%); stroke-linecap: butt; stroke-width: 1;"/>
			<path d="M 960.151244,497.834646 L 960.151244,510.134983 Z" style="stroke: rgb(0%,0%,0%); stroke-linecap: butt; stroke-width: 1;"/>
			<g transform=" matrix(0.707107,0.707107,-0.707107,0.707107,960.151244,518.335208)">
				<text style="font-family: Helvetica; font-size: 6px;fill: rgb(0%,0%,0%); stroke:none;" transform="translate(0,0) scale(1,-1)" x="0" y="0">10000</text>
			</g>
			<g transform=" matrix(0.707107,0.707107,-0.707107,0.707107,118.220573,251.827897)">
				<text style="font-family: Helvetica; font-size: 10px;fill: rgb(0%,0%,0%); stroke:none;" transform="translate(0,0) scale(1,-1)" x="0" y="0">Gene_00959</text>
			</g>
			<g transform=" matrix(0.707107,-0.707107,0.707107,0.707107,222.355859,169.825647)">
				<text style="font-family: Helvetica; font-size: 10px;fill: rgb(0%,0%,0%); stroke:none;" transform="translate(0,0) scale(1,-1)" x="0" y="0">Gene_00960</text>
			</g>
			<g transform=" matrix(0.707107,0.707107,-0.707107,0.707107,323.912218,251.827897)">
				<text style="font-family: Helvetica; font-size: 10px;fill: rgb(0%,0%,0%); stroke:none;" transform="translate(0,0) scale(1,-1)" x="0" y="0">Gene_00961</text>
			</g>
			<g transform=" matrix(0.707107,0.707107,-0.707107,0.707107,385.317354,251.827897)">
				<text style="font-family: Helvetica; font-size: 16px;fill: rgb(0%,0%,100%); stroke:none;" transform="translate(0,0) scale(1,-1)" x="0" y="0">Gene_00962 (79.6)</text>
			</g>
			<g transform=" matrix(0.707107,0.707107,-0.707107,0.707107,516.264585,251.827897)">
				<text style="font-family: Helvetica; font-size: 10px;fill: rgb(0%,0%,0%); stroke:none;" transform="translate(0,0) scale(1,-1)" x="0" y="0">Gene_00963</text>
			</g>
			<g transform=" matrix(0.707107,0.707107,-0.707107,0.707107,98.300587,538.835771)">
				<text style="font-family: Helvetica; font-size: 10px;fill: rgb(0%,0%,0%); stroke:none;" transform="translate(0,0) scale(1,-1)" x="0" y="0">Gene_00869</text>
			</g>
			<g transform=" matrix(0.707107,0.707107,-0.707107,0.707107,137.918238,538.835771)">
				<text style="font-family: Helvetica; font-size: 10px;fill: rgb(0%,0%,0%); stroke:none;" transform="translate(0,0) scale(1,-1)" x="0" y="0">Gene_00870</text>
			</g>
			<g transform=" matrix(0.707107,0.707107,-0.707107,0.707107,227.824962,538.835771)">
				<text style="font-family: Helvetica; font-size: 10px;fill: rgb(0%,0%,0%); stroke:none;" transform="translate(0,0) scale(1,-1)" x="0" y="0">Gene_00871</text>
			</g>
			<g transform=" matrix(0.707107,-0.707107,0.707107,0.707107,298.700985,456.833521)">
				<text style="font-family: Helvetica; font-size: 10px;fill: rgb(0%,0%,0%); stroke:none;" transform="translate(0,0) scale(1,-1)" x="0" y="0">Gene_00872</text>
			</g>
			<g transform=" matrix(0.707107,0.707107,-0.707107,0.707107,367.175938,538.835771)">
				<text style="font-family: Helvetica; font-size: 10px;fill: rgb(0%,0%,0%); stroke:none;" transform="translate(0,0) scale(1,-1)" x="0" y="0">Gene_00873</text>
			</g>
			<g transform=" matrix(0.707107,-0.707107,0.707107,0.707107,419.821616,456.833521)">
				<text style="font-family: Helvetica; font-size: 10px;fill: rgb(0%,0%,0%); stroke:none;" transform="translate(0,0) scale(1,-1)" x="0" y="0">Gene_00874</text>
			</g>
			<g transform=" matrix(0.707107,-0.707107,0.707107,0.707107,488.252105,456.833521)">
				<text style="font-family: Helvetica; font-size: 10px;fill: rgb(0%,0%,0%); stroke:none;" transform="translate(0,0) scale(1,-1)" x="0" y="0">Gene_00875</text>
			</g>
			<g transform=" matrix(0.707107,-0.707107,0.707107,0.707107,586.473644,456.833521)">
				<text style="font-family: Helvetica; font-size: 10px;fill: rgb(0%,0%,0%); stroke:none;" transform="translate(0,0) scale(1,-1)" x="0" y="0">Gene_00876</text>
			</g>
			<g transform=" matrix(0.707107,0.707107,-0.707107,0.707107,681.449293,538.835771)">
				<text style="font-family: Helvetica; font-size: 10px;fill: rgb(0%,0%,0%); stroke:none;" transform="translate(0,0) scale(1,-1)" x="0" y="0">Gene_00877</text>
			</g>
			<g transform=" matrix(0.707107,-0.707107,0.707107,0.707107,824.713123,456.833521)">
				<text style="font-family: Helvetica; font-size: 10px;fill: rgb(0%,0%,0%); stroke:none;" transform="translate(0,0) scale(1,-1)" x="0" y="0">Gene_00878</text>
			</g>
			<g transform=" matrix(0.707107,-0.707107,0.707107,0.707107,955.793747,456.833521)">
				<text style="font-family: Helvetica; font-size: 16px;fill: rgb(0%,0%,100%); stroke:none;" transform="translate(0,0) scale(1,-1)" x="0" y="0">Gene_00879 (79.6)</text>
			</g>
			<g transform=" matrix(0.707107,-0.707107,0.707107,0.707107,1132.405769,456.833521)">
				<text style="font-family: Helvetica; font-size: 10px;fill: rgb(0%,0%,0%); stroke:none;" transform="translate(0,0) scale(1,-1)" x="0" y="0">Gene_00880</text>
			</g>
			<g transform=" matrix(0.707107,-0.707107,0.707107,0.707107,1303.682079,456.833521)">
				<text style="font-family: Helvetica; font-size: 10px;fill: rgb(0%,0%,0%); stroke:none;" transform="translate(0,0) scale(1,-1)" x="0" y="0">Gene_00881</text>
			</g>
			<g transform=" matrix(0.707107,-0.707107,0.707107,0.707107,1337.252592,456.833521)">
				<text style="font-family: Helvetica; font-size: 10px;fill: rgb(0%,0%,0%); stroke:none;" transform="translate(0,0) scale(1,-1)" x="0" y="0">Gene_00882</text>
			</g>
			<g transform=" matrix(1,0,-0,1,70,169.825647)">
				<text style="font-family: Helvetica; font-size: 12px;fill: rgb(60%,60%,60%); stroke:none;" transform="translate(0,0) scale(1,-1)" x="0" y="0">megahit_59210 (left 3382bp, right 2695bp)</text>
			</g>
			<g transform=" matrix(1,0,-0,1,70,456.833521)">
				<text style="font-family: Helvetica; font-size: 12px;fill: rgb(60%,60%,60%); stroke:none;" transform="translate(0,0) scale(1,-1)" x="0" y="0">megahit_29184 (left 9794bp, right 4235bp)</text>
			</g>
		</g>
	</g>
</svg>
