<?xml version="1.0" encoding="utf-8"?>
<!DOCTYPE svg
  PUBLIC '-//W3C//DTD SVG 1.0//EN'
  'http://www.w3.org/TR/2001/REC-SVG-20010904/DTD/svg10.dtd'>
<svg fill-rule="evenodd" height="708.6614173228346" preserveAspectRatio="xMinYMin meet" version="1.0" viewBox="0 0 1417 708" width="1417.3228346456692" xmlns="http://www.w3.org/2000/svg" xmlns:xlink="http://www.w3.org/1999/xlink">
	<title>...</title>
	<desc>...</desc>
	<clipPath id="clip">
		<rect height="708.6614173228346" width="1417.3228346456692" x="0" y="0"/>
	</clipPath>
	<g id="group" style="clip-path: url(#clip)" transform="scale(1,-1) translate(0,-708)">
		<g transform="">
			<polygon points="70.86614 169.8256, 1346.384 169.8256, 1346.384 251.8279, 70.86614 251.8279" style="stroke: rgb(96%,96%,96%); stroke-linecap: butt; stroke-width: 1; fill: rgb(96%,96%,96%); fill-rule: evenodd;"/>
			<polygon points="70.86614 456.8335, 1059.829 456.8335, 1059.829 538.8358, 70.86614 538.8358" style="stroke: rgb(96%,96%,96%); stroke-linecap: butt; stroke-width: 1; fill: rgb(96%,96%,96%); fill-rule: evenodd;"/>
			<polygon points="70.93858 456.8335, 789.7168 456.8335, 1072.795 251.8279, 353.8719 251.8279" style="stroke: rgb(100%,10%,10%); stroke-linecap: round; stroke-width: 1; fill: rgb(100%,10%,10%); fill-rule: evenodd;"/>
			<polygon points="905.9759 456.8335, 923.288 456.8335, 436.0139 251.8279, 453.1811 251.8279" style="stroke: rgb(100%,57%,57%); stroke-linecap: round; stroke-width: 1; fill: rgb(100%,57%,57%); fill-rule: evenodd;"/>
			<polygon points="82.96288 241.5776, 106.6917 241.5776, 106.6917 251.8279, 123.0922 231.3273, 106.6917 210.8268, 106.6917 221.0771, 82.96288 221.0771" style="stroke: rgb(67%,84%,90%); stroke-linecap: round; stroke-width: 1; fill: rgb(67%,84%,90%); fill-rule: evenodd;"/>
			<polygon points="127.3659 241.5776, 155.0063 241.5776, 155.0063 251.8279, 171.4067 231.3273, 155.0063 210.8268, 155.0063 221.0771, 127.3659 221.0771" style="stroke: rgb(67%,84%,90%); stroke-linecap: round; stroke-width: 1; fill: rgb(67%,84%,90%); fill-rule: evenodd;"/>
			<polygon points="173.5798 241.5776, 189.2683 241.5776, 189.2683 251.8279, 205.6688 231.3273, 189.2683 210.8268, 189.2683 221.0771, 173.5798 221.0771" style="stroke: rgb(67%,84%,90%); stroke-linecap: round; stroke-width: 1; fill: rgb(67%,84%,90%); fill-rule: evenodd;"/>
			<polygon points="210.3046 241.5776, 300.7467 241.5776, 300.7467 251.8279, 317.1471 231.3273, 300.7467 210.8268, 300.7467 221.0771, 210.3046 221.0771" style="stroke: rgb(67%,84%,90%); stroke-linecap: round; stroke-width: 1; fill: rgb(67%,84%,90%); fill-rule: evenodd;"/>
			<polygon points="388.134 200.5765, 370.2724 200.5765, 370.2724 210.8268, 353.8719 190.3262, 370.2724 169.8256, 370.2724 180.0759, 388.134 180.0759" style="stroke: rgb(56%,93%,56%); stroke-linecap: round; stroke-width: 1; fill: rgb(56%,93%,56%); fill-rule: evenodd;"/>
			<polygon points="404.939 241.5776, 431.7102 241.5776, 431.7102 251.8279, 448.1106 231.3273, 431.7102 210.8268, 431.7102 221.0771, 404.939 221.0771" style="stroke: rgb(67%,84%,90%); stroke-linecap: round; stroke-width: 1; fill: rgb(67%,84%,90%); fill-rule: evenodd;"/>
			<polygon points="447.6036 241.5776, 479.3728 241.5776, 479.3728 251.8279, 495.7732 231.3273, 479.3728 210.8268, 479.3728 221.0771, 447.6036 221.0771" style="stroke: rgb(67%,84%,90%); stroke-linecap: round; stroke-width: 1; fill: rgb(67%,84%,90%); fill-rule: evenodd;"/>
			<polygon points="495.5559 241.5776, 537.104 241.5776, 537.104 251.8279, 553.5044 231.3273, 537.104 210.8268, 537.104 221.0771, 495.5559 221.0771" style="stroke: rgb(67%,84%,90%); stroke-linecap: round; stroke-width: 1; fill: rgb(67%,84%,90%); fill-rule: evenodd;"/>
			<polygon points="552.9974 241.5776, 555.6475 241.5776, 555.6475 251.8279, 572.0479 231.3273, 555.6475 210.8268, 555.6475 221.0771, 552.9974 221.0771" style="stroke: rgb(67%,84%,90%); stroke-linecap: round; stroke-width: 1; fill: rgb(67%,84%,90%); fill-rule: evenodd;"/>
			<polygon points="574.6556 241.5776, 657.4919 241.5776, 657.4919 251.8279, 673.8923 231.3273, 657.4919 210.8268, 657.4919 221.0771, 574.6556 221.0771" style="stroke: rgb(67%,84%,90%); stroke-linecap: round; stroke-width: 1; fill: rgb(67%,84%,90%); fill-rule: evenodd;"/>
			<polygon points="692.1461 241.5776, 892.5453 241.5776, 892.5453 251.8279, 908.9458 231.3273, 892.5453 210.8268, 892.5453 221.0771, 692.1461 221.0771" style="stroke: rgb(67%,84%,90%); stroke-linecap: round; stroke-width: 1; fill: rgb(67%,84%,90%); fill-rule: evenodd;"/>
			<polygon points="1063.306 200.5765, 928.7507 200.5765, 928.7507 210.8268, 912.3503 190.3262, 928.7507 169.8256, 928.7507 180.0759, 1063.306 180.0759" style="stroke: rgb(56%,93%,56%); stroke-linecap: round; stroke-width: 1; fill: rgb(56%,93%,56%); fill-rule: evenodd;"/>
			<polygon points="1110.172 200.5765, 1089.92 200.5765, 1089.92 210.8268, 1073.519 190.3262, 1089.92 169.8256, 1089.92 180.0759, 1110.172 180.0759" style="stroke: rgb(56%,93%,56%); stroke-linecap: round; stroke-width: 1; fill: rgb(56%,93%,56%); fill-rule: evenodd;"/>
			<polygon points="1121.617 241.5776, 1166.207 241.5776, 1166.207 251.8279, 1182.607 231.3273, 1166.207 210.8268, 1166.207 221.0771, 1121.617 221.0771" style="stroke: rgb(67%,84%,90%); stroke-linecap: round; stroke-width: 1; fill: rgb(67%,84%,90%); fill-rule: evenodd;"/>
			<polygon points="1188.33 241.5776, 1190.545 241.5776, 1190.545 251.8279, 1206.946 231.3273, 1190.545 210.8268, 1190.545 221.0771, 1188.33 221.0771" style="stroke: rgb(67%,84%,90%); stroke-linecap: round; stroke-width: 1; fill: rgb(67%,84%,90%); fill-rule: evenodd;"/>
			<polygon points="1226.648 200.5765, 1226.648 210.8268, 1212.161 190.3262, 1226.648 169.8256, 1226.648 180.0759" style="stroke: rgb(56%,93%,56%); stroke-linecap: round; stroke-width: 1; fill: rgb(56%,93%,56%); fill-rule: evenodd;"/>
			<polygon points="1253.232 241.5776, 1329.984 241.5776, 1329.984 251.8279, 1346.384 231.3273, 1329.984 210.8268, 1329.984 221.0771, 1253.232 221.0771" style="stroke: rgb(67%,84%,90%); stroke-linecap: round; stroke-width: 1; fill: rgb(67%,84%,90%); fill-rule: evenodd;"/>
			<polygon points="105.2006 487.5844, 87.33903 487.5844, 87.33903 497.8346, 70.93858 477.3341, 87.33903 456.8335, 87.33903 467.0838, 105.2006 467.0838" style="stroke: rgb(56%,93%,56%); stroke-linecap: round; stroke-width: 1; fill: rgb(56%,93%,56%); fill-rule: evenodd;"/>
			<polygon points="122.0057 528.5855, 148.7768 528.5855, 148.7768 538.8358, 165.1773 518.3352, 148.7768 497.8346, 148.7768 508.0849, 122.0057 508.0849" style="stroke: rgb(67%,84%,90%); stroke-linecap: round; stroke-width: 1; fill: rgb(67%,84%,90%); fill-rule: evenodd;"/>
			<polygon points="164.6702 528.5855, 196.4394 528.5855, 196.4394 538.8358, 212.8399 518.3352, 196.4394 497.8346, 196.4394 508.0849, 164.6702 508.0849" style="stroke: rgb(67%,84%,90%); stroke-linecap: round; stroke-width: 1; fill: rgb(67%,84%,90%); fill-rule: evenodd;"/>
			<polygon points="212.6226 528.5855, 254.1706 528.5855, 254.1706 538.8358, 270.571 518.3352, 254.1706 497.8346, 254.1706 508.0849, 212.6226 508.0849" style="stroke: rgb(67%,84%,90%); stroke-linecap: round; stroke-width: 1; fill: rgb(67%,84%,90%); fill-rule: evenodd;"/>
			<polygon points="270.064 528.5855, 272.7141 528.5855, 272.7141 538.8358, 289.1145 518.3352, 272.7141 497.8346, 272.7141 508.0849, 270.064 508.0849" style="stroke: rgb(67%,84%,90%); stroke-linecap: round; stroke-width: 1; fill: rgb(67%,84%,90%); fill-rule: evenodd;"/>
			<polygon points="291.7222 528.5855, 374.5585 528.5855, 374.5585 538.8358, 390.959 518.3352, 374.5585 497.8346, 374.5585 508.0849, 291.7222 508.0849" style="stroke: rgb(67%,84%,90%); stroke-linecap: round; stroke-width: 1; fill: rgb(67%,84%,90%); fill-rule: evenodd;"/>
			<polygon points="409.2127 528.5855, 609.612 528.5855, 609.612 538.8358, 626.0124 518.3352, 609.612 497.8346, 609.612 508.0849, 409.2127 508.0849" style="stroke: rgb(67%,84%,90%); stroke-linecap: round; stroke-width: 1; fill: rgb(67%,84%,90%); fill-rule: evenodd;"/>
			<polygon points="779.7207 487.5844, 645.8173 487.5844, 645.8173 497.8346, 629.4169 477.3341, 645.8173 456.8335, 645.8173 467.0838, 779.7207 467.0838" style="stroke: rgb(56%,93%,56%); stroke-linecap: round; stroke-width: 1; fill: rgb(56%,93%,56%); fill-rule: evenodd;"/>
			<polygon points="836.8 487.5844, 806.3346 487.5844, 806.3346 497.8346, 789.9341 477.3341, 806.3346 456.8335, 806.3346 467.0838, 836.8 467.0838" style="stroke: rgb(56%,93%,56%); stroke-linecap: round; stroke-width: 1; fill: rgb(56%,93%,56%); fill-rule: evenodd;"/>
			<polygon points="858.096 487.5844, 855.4459 487.5844, 855.4459 497.8346, 839.0455 477.3341, 855.4459 456.8335, 855.4459 467.0838, 858.096 467.0838" style="stroke: rgb(56%,93%,56%); stroke-linecap: round; stroke-width: 1; fill: rgb(56%,93%,56%); fill-rule: evenodd;"/>
			<polygon points="911.5535 487.5844, 878.915 487.5844, 878.915 497.8346, 862.5146 477.3341, 878.915 456.8335, 878.915 467.0838, 911.5535 467.0838" style="stroke: rgb(56%,93%,56%); stroke-linecap: round; stroke-width: 1; fill: rgb(56%,93%,56%); fill-rule: evenodd;"/>
			<polygon points="954.3629 487.5844, 928.461 487.5844, 928.461 497.8346, 912.0605 477.3341, 928.461 456.8335, 928.461 467.0838, 954.3629 467.0838" style="stroke: rgb(56%,93%,56%); stroke-linecap: round; stroke-width: 1; fill: rgb(56%,93%,56%); fill-rule: evenodd;"/>
			<polygon points="996.5204 487.5844, 982.353 487.5844, 982.353 497.8346, 965.9526 477.3341, 982.353 456.8335, 982.353 467.0838, 996.5204 467.0838" style="stroke: rgb(56%,93%,56%); stroke-linecap: round; stroke-width: 1; fill: rgb(56%,93%,56%); fill-rule: evenodd;"/>
			<polygon points="1038.895 487.5844, 1015.384 487.5844, 1015.384 497.8346, 998.9832 477.3341, 1015.384 456.8335, 1015.384 467.0838, 1038.895 467.0838" style="stroke: rgb(56%,93%,56%); stroke-linecap: round; stroke-width: 1; fill: rgb(56%,93%,56%); fill-rule: evenodd;"/>
			<polygon points="1059.829 487.5844, 1054.571 487.5844, 1054.571 497.8346, 1038.171 477.3341, 1054.571 456.8335, 1054.571 467.0838, 1059.829 467.0838" style="stroke: rgb(56%,93%,56%); stroke-linecap: round; stroke-width: 1; fill: rgb(56%,93%,56%); fill-rule: evenodd;"/>
			<path d="M 1346.384257,169.825647 L 1346.384257,251.827897 Z" style="stroke: rgb(0%,0%,0%); stroke-linecap: butt; stroke-width: 1;"/>
			<path d="M 70.866142,210.826772 L 1346.384257,210.826772 Z" style="stroke: rgb(0%,0%,0%); stroke-linecap: butt; stroke-width: 1;"/>
			<path d="M 70.866142,169.825647 L 70.866142,251.827897 Z" style="stroke: rgb(0%,0%,0%); stroke-linecap: butt; stroke-width: 1;"/>
			<path d="M 795.221935,210.826772 L 795.221935,231.327334 Z" style="stroke: rgb(0%,0%,0%); stroke-linecap: butt; stroke-width: 1;"/>
			<path d="M 795.221935,210.826772 L 795.221935,223.127109 Z" style="stroke: rgb(0%,0%,0%); stroke-linecap: butt; stroke-width: 1;"/>
			<path d="M 1059.829106,456.833521 L 1059.829106,538.835771 Z" style="stroke: rgb(0%,0%,0%); stroke-linecap: butt; stroke-width: 1;"/>
			<path d="M 70.866142,497.834646 L 1059.829106,497.834646 Z" style="stroke: rgb(0%,0%,0%); stroke-linecap: butt; stroke-width: 1;"/>
			<path d="M 70.866142,456.833521 L 70.866142,538.835771 Z" style="stroke: rgb(0%,0%,0%); stroke-linecap: butt; stroke-width: 1;"/>
			<path d="M 795.221935,497.834646 L 795.221935,518.335208 Z" style="stroke: rgb(0%,0%,0%); stroke-linecap: butt; stroke-width: 1;"/>
			<path d="M 795.221935,497.834646 L 795.221935,510.134983 Z" style="stroke: rgb(0%,0%,0%); stroke-linecap: butt; stroke-width: 1;"/>
			<g transform=" matrix(0.707107,0.707107,-0.707107,0.707107,795.221935,231.327334)">
				<text style="font-family: Helvetica; font-size: 6px;fill: rgb(0%,0%,0%); stroke:none;" transform="translate(0,0) scale(1,-1)" x="0" y="0">10000</text>
			</g>
			<g transform=" matrix(0.707107,0.707107,-0.707107,0.707107,795.221935,518.335208)">
				<text style="font-family: Helvetica; font-size: 6px;fill: rgb(0%,0%,0%); stroke:none;" transform="translate(0,0) scale(1,-1)" x="0" y="0">10000</text>
			</g>
			<g transform=" matrix(0.707107,0.707107,-0.707107,0.707107,103.027539,251.827897)">
				<text style="font-family: Helvetica; font-size: 10px;fill: rgb(0%,0%,0%); stroke:none;" transform="translate(0,0) scale(1,-1)" x="0" y="0">Gene_01898</text>
			</g>
			<g transform=" matrix(0.707107,0.707107,-0.707107,0.707107,149.38631,251.827897)">
				<text style="font-family: Helvetica; font-size: 10px;fill: rgb(0%,0%,0%); stroke:none;" transform="translate(0,0) scale(1,-1)" x="0" y="0">Gene_01899</text>
			</g>
			<g transform=" matrix(0.707107,0.707107,-0.707107,0.707107,189.624274,251.827897)">
				<text style="font-family: Helvetica; font-size: 10px;fill: rgb(0%,0%,0%); stroke:none;" transform="translate(0,0) scale(1,-1)" x="0" y="0">Gene_01900</text>
			</g>
			<g transform=" matrix(0.707107,0.707107,-0.707107,0.707107,263.725872,251.827897)">
				<text style="font-family: Helvetica; font-size: 10px;fill: rgb(0%,0%,0%); stroke:none;" transform="translate(0,0) scale(1,-1)" x="0" y="0">Gene_01901</text>
			</g>
			<g transform=" matrix(0.707107,-0.707107,0.707107,0.707107,371.002964,169.825647)">
				<text style="font-family: Helvetica; font-size: 10px;fill: rgb(0%,0%,0%); stroke:none;" transform="translate(0,0) scale(1,-1)" x="0" y="0">Gene_01902</text>
			</g>
			<g transform=" matrix(0.707107,0.707107,-0.707107,0.707107,426.524836,251.827897)">
				<text style="font-family: Helvetica; font-size: 10px;fill: rgb(0%,0%,0%); stroke:none;" transform="translate(0,0) scale(1,-1)" x="0" y="0">Gene_01903</text>
			</g>
			<g transform=" matrix(0.707107,0.707107,-0.707107,0.707107,471.68842,251.827897)">
				<text style="font-family: Helvetica; font-size: 10px;fill: rgb(0%,0%,0%); stroke:none;" transform="translate(0,0) scale(1,-1)" x="0" y="0">Gene_01904</text>
			</g>
			<g transform=" matrix(0.707107,0.707107,-0.707107,0.707107,524.530175,251.827897)">
				<text style="font-family: Helvetica; font-size: 10px;fill: rgb(0%,0%,0%); stroke:none;" transform="translate(0,0) scale(1,-1)" x="0" y="0">Gene_01905</text>
			</g>
			<g transform=" matrix(0.707107,0.707107,-0.707107,0.707107,562.522636,251.827897)">
				<text style="font-family: Helvetica; font-size: 16px;fill: rgb(0%,0%,100%); stroke:none;" transform="translate(0,0) scale(1,-1)" x="0" y="0">Gene_01906 (100.0)</text>
			</g>
			<g transform=" matrix(0.707107,0.707107,-0.707107,0.707107,624.273967,251.827897)">
				<text style="font-family: Helvetica; font-size: 10px;fill: rgb(0%,0%,0%); stroke:none;" transform="translate(0,0) scale(1,-1)" x="0" y="0">Gene_01907</text>
			</g>
			<g transform=" matrix(0.707107,0.707107,-0.707107,0.707107,800.54595,251.827897)">
				<text style="font-family: Helvetica; font-size: 10px;fill: rgb(0%,0%,0%); stroke:none;" transform="translate(0,0) scale(1,-1)" x="0" y="0">Gene_01908</text>
			</g>
			<g transform=" matrix(0.707107,-0.707107,0.707107,0.707107,987.82814,169.825647)">
				<text style="font-family: Helvetica; font-size: 10px;fill: rgb(0%,0%,0%); stroke:none;" transform="translate(0,0) scale(1,-1)" x="0" y="0">Gene_01909</text>
			</g>
			<g transform=" matrix(0.707107,-0.707107,0.707107,0.707107,1091.845632,169.825647)">
				<text style="font-family: Helvetica; font-size: 10px;fill: rgb(0%,0%,0%); stroke:none;" transform="translate(0,0) scale(1,-1)" x="0" y="0">Gene_01910</text>
			</g>
			<g transform=" matrix(0.707107,0.707107,-0.707107,0.707107,1152.112034,251.827897)">
				<text style="font-family: Helvetica; font-size: 10px;fill: rgb(0%,0%,0%); stroke:none;" transform="translate(0,0) scale(1,-1)" x="0" y="0">Gene_01911</text>
			</g>
			<g transform=" matrix(0.707107,0.707107,-0.707107,0.707107,1197.637795,251.827897)">
				<text style="font-family: Helvetica; font-size: 10px;fill: rgb(0%,0%,0%); stroke:none;" transform="translate(0,0) scale(1,-1)" x="0" y="0">Gene_01912</text>
			</g>
			<g transform=" matrix(0.707107,-0.707107,0.707107,0.707107,1219.404687,169.825647)">
				<text style="font-family: Helvetica; font-size: 10px;fill: rgb(0%,0%,0%); stroke:none;" transform="translate(0,0) scale(1,-1)" x="0" y="0">Gene_01913</text>
			</g>
			<g transform=" matrix(0.707107,0.707107,-0.707107,0.707107,1299.80818,251.827897)">
				<text style="font-family: Helvetica; font-size: 10px;fill: rgb(0%,0%,0%); stroke:none;" transform="translate(0,0) scale(1,-1)" x="0" y="0">Gene_01914</text>
			</g>
			<g transform=" matrix(0.707107,-0.707107,0.707107,0.707107,88.069592,456.833521)">
				<text style="font-family: Helvetica; font-size: 10px;fill: rgb(0%,0%,0%); stroke:none;" transform="translate(0,0) scale(1,-1)" x="0" y="0">Gene_01325</text>
			</g>
			<g transform=" matrix(0.707107,0.707107,-0.707107,0.707107,143.591463,538.835771)">
				<text style="font-family: Helvetica; font-size: 10px;fill: rgb(0%,0%,0%); stroke:none;" transform="translate(0,0) scale(1,-1)" x="0" y="0">Gene_01326</text>
			</g>
			<g transform=" matrix(0.707107,0.707107,-0.707107,0.707107,188.755047,538.835771)">
				<text style="font-family: Helvetica; font-size: 10px;fill: rgb(0%,0%,0%); stroke:none;" transform="translate(0,0) scale(1,-1)" x="0" y="0">Gene_01327</text>
			</g>
			<g transform=" matrix(0.707107,0.707107,-0.707107,0.707107,241.596802,538.835771)">
				<text style="font-family: Helvetica; font-size: 10px;fill: rgb(0%,0%,0%); stroke:none;" transform="translate(0,0) scale(1,-1)" x="0" y="0">Gene_01328</text>
			</g>
			<g transform=" matrix(0.707107,0.707107,-0.707107,0.707107,279.589263,538.835771)">
				<text style="font-family: Helvetica; font-size: 16px;fill: rgb(0%,0%,100%); stroke:none;" transform="translate(0,0) scale(1,-1)" x="0" y="0">Gene_01329 (100.0)</text>
			</g>
			<g transform=" matrix(0.707107,0.707107,-0.707107,0.707107,341.340595,538.835771)">
				<text style="font-family: Helvetica; font-size: 10px;fill: rgb(0%,0%,0%); stroke:none;" transform="translate(0,0) scale(1,-1)" x="0" y="0">Gene_01330</text>
			</g>
			<g transform=" matrix(0.707107,0.707107,-0.707107,0.707107,517.612577,538.835771)">
				<text style="font-family: Helvetica; font-size: 10px;fill: rgb(0%,0%,0%); stroke:none;" transform="translate(0,0) scale(1,-1)" x="0" y="0">Gene_01331</text>
			</g>
			<g transform=" matrix(0.707107,-0.707107,0.707107,0.707107,704.568807,456.833521)">
				<text style="font-family: Helvetica; font-size: 10px;fill: rgb(0%,0%,0%); stroke:none;" transform="translate(0,0) scale(1,-1)" x="0" y="0">Gene_01332</text>
			</g>
			<g transform=" matrix(0.707107,-0.707107,0.707107,0.707107,813.367047,456.833521)">
				<text style="font-family: Helvetica; font-size: 10px;fill: rgb(0%,0%,0%); stroke:none;" transform="translate(0,0) scale(1,-1)" x="0" y="0">Gene_01333</text>
			</g>
			<g transform=" matrix(0.707107,-0.707107,0.707107,0.707107,848.570739,456.833521)">
				<text style="font-family: Helvetica; font-size: 10px;fill: rgb(0%,0%,0%); stroke:none;" transform="translate(0,0) scale(1,-1)" x="0" y="0">Gene_01334</text>
			</g>
			<g transform=" matrix(0.707107,-0.707107,0.707107,0.707107,887.034031,456.833521)">
				<text style="font-family: Helvetica; font-size: 10px;fill: rgb(0%,0%,0%); stroke:none;" transform="translate(0,0) scale(1,-1)" x="0" y="0">Gene_01335</text>
			</g>
			<g transform=" matrix(0.707107,-0.707107,0.707107,0.707107,933.211713,456.833521)">
				<text style="font-family: Helvetica; font-size: 10px;fill: rgb(0%,0%,0%); stroke:none;" transform="translate(0,0) scale(1,-1)" x="0" y="0">Gene_01336</text>
			</g>
			<g transform=" matrix(0.707107,-0.707107,0.707107,0.707107,981.236502,456.833521)">
				<text style="font-family: Helvetica; font-size: 10px;fill: rgb(0%,0%,0%); stroke:none;" transform="translate(0,0) scale(1,-1)" x="0" y="0">Gene_01337</text>
			</g>
			<g transform=" matrix(0.707107,-0.707107,0.707107,0.707107,1018.939221,456.833521)">
				<text style="font-family: Helvetica; font-size: 10px;fill: rgb(0%,0%,0%); stroke:none;" transform="translate(0,0) scale(1,-1)" x="0" y="0">Gene_01338</text>
			</g>
			<g transform=" matrix(0.707107,-0.707107,0.707107,0.707107,1048.999987,456.833521)">
				<text style="font-family: Helvetica; font-size: 10px;fill: rgb(0%,0%,0%); stroke:none;" transform="translate(0,0) scale(1,-1)" x="0" y="0">Gene_01339</text>
			</g>
			<g transform=" matrix(1,0,-0,1,70,169.825647)">
				<text style="font-family: Helvetica; font-size: 12px;fill: rgb(60%,60%,60%); stroke:none;" transform="translate(0,0) scale(1,-1)" x="0" y="0">megahit_15692 (left 6656bp, right 40169bp)</text>
			</g>
			<g transform=" matrix(1,0,-0,1,70,456.833521)">
				<text style="font-family: Helvetica; font-size: 12px;fill: rgb(60%,60%,60%); stroke:none;" transform="translate(0,0) scale(1,-1)" x="0" y="0">megahit_35323 (left 2750bp, right 45817bp)</text>
			</g>
		</g>
	</g>
</svg>
