<?xml version="1.0" encoding="utf-8"?>
<!DOCTYPE svg
  PUBLIC '-//W3C//DTD SVG 1.0//EN'
  'http://www.w3.org/TR/2001/REC-SVG-20010904/DTD/svg10.dtd'>
<svg fill-rule="evenodd" height="708.6614173228346" preserveAspectRatio="xMinYMin meet" version="1.0" viewBox="0 0 1417 708" width="1417.3228346456692" xmlns="http://www.w3.org/2000/svg" xmlns:xlink="http://www.w3.org/1999/xlink">
	<title>...</title>
	<desc>...</desc>
	<clipPath id="clip">
		<rect height="708.6614173228346" width="1417.3228346456692" x="0" y="0"/>
	</clipPath>
	<g id="group" style="clip-path: url(#clip)" transform="scale(1,-1) translate(0,-708)">
		<g transform="">
			<polygon points="70.86614 169.8256, 1346.396 169.8256, 1346.396 251.8279, 70.86614 251.8279" style="stroke: rgb(96%,96%,96%); stroke-linecap: butt; stroke-width: 1; fill: rgb(96%,96%,96%); fill-rule: evenodd;"/>
			<polygon points="70.86614 456.8335, 416.6244 456.8335, 416.6244 538.8358, 70.86614 538.8358" style="stroke: rgb(96%,96%,96%); stroke-linecap: butt; stroke-width: 1; fill: rgb(96%,96%,96%); fill-rule: evenodd;"/>
			<polygon points="70.92684 456.8335, 285.0833 456.8335, 739.1338 251.8279, 525.0381 251.8279" style="stroke: rgb(100%,38%,38%); stroke-linecap: round; stroke-width: 1; fill: rgb(100%,38%,38%); fill-rule: evenodd;"/>
			<polygon points="291.2142 456.8335, 374.8615 456.8335, 825.0877 251.8279, 741.4405 251.8279" style="stroke: rgb(100%,35%,35%); stroke-linecap: round; stroke-width: 1; fill: rgb(100%,35%,35%); fill-rule: evenodd;"/>
			<polygon points="75.9651 241.5776, 116.8673 241.5776, 116.8673 251.8279, 133.2677 231.3273, 116.8673 210.8268, 116.8673 221.0771, 75.9651 221.0771" style="stroke: rgb(67%,84%,90%); stroke-linecap: round; stroke-width: 1; fill: rgb(67%,84%,90%); fill-rule: evenodd;"/>
			<polygon points="134.9067 241.5776, 166.8857 241.5776, 166.8857 251.8279, 183.2861 231.3273, 166.8857 210.8268, 166.8857 221.0771, 134.9067 221.0771" style="stroke: rgb(67%,84%,90%); stroke-linecap: round; stroke-width: 1; fill: rgb(67%,84%,90%); fill-rule: evenodd;"/>
			<polygon points="183.104 241.5776, 190.3166 241.5776, 190.3166 251.8279, 206.7171 231.3273, 190.3166 210.8268, 190.3166 221.0771, 183.104 221.0771" style="stroke: rgb(67%,84%,90%); stroke-linecap: round; stroke-width: 1; fill: rgb(67%,84%,90%); fill-rule: evenodd;"/>
			<polygon points="207.142 241.5776, 311.417 241.5776, 311.417 251.8279, 327.8175 231.3273, 311.417 210.8268, 311.417 221.0771, 207.142 221.0771" style="stroke: rgb(67%,84%,90%); stroke-linecap: round; stroke-width: 1; fill: rgb(67%,84%,90%); fill-rule: evenodd;"/>
			<polygon points="327.2711 241.5776, 337.7616 241.5776, 337.7616 251.8279, 354.1621 231.3273, 337.7616 210.8268, 337.7616 221.0771, 327.2711 221.0771" style="stroke: rgb(67%,84%,90%); stroke-linecap: round; stroke-width: 1; fill: rgb(67%,84%,90%); fill-rule: evenodd;"/>
			<polygon points="353.4337 241.5776, 396.1569 241.5776, 396.1569 251.8279, 412.5574 231.3273, 396.1569 210.8268, 396.1569 221.0771, 353.4337 221.0771" style="stroke: rgb(67%,84%,90%); stroke-linecap: round; stroke-width: 1; fill: rgb(67%,84%,90%); fill-rule: evenodd;"/>
			<polygon points="412.8002 241.5776, 459.3476 241.5776, 459.3476 251.8279, 475.7481 231.3273, 459.3476 210.8268, 459.3476 221.0771, 412.8002 221.0771" style="stroke: rgb(67%,84%,90%); stroke-linecap: round; stroke-width: 1; fill: rgb(67%,84%,90%); fill-rule: evenodd;"/>
			<polygon points="476.173 241.5776, 511.612 241.5776, 511.612 251.8279, 528.0124 231.3273, 511.612 210.8268, 511.612 221.0771, 476.173 221.0771" style="stroke: rgb(67%,84%,90%); stroke-linecap: round; stroke-width: 1; fill: rgb(67%,84%,90%); fill-rule: evenodd;"/>
			<polygon points="529.1658 241.5776, 553.6784 241.5776, 553.6784 251.8279, 570.0789 231.3273, 553.6784 210.8268, 553.6784 221.0771, 529.1658 221.0771" style="stroke: rgb(67%,84%,90%); stroke-linecap: round; stroke-width: 1; fill: rgb(67%,84%,90%); fill-rule: evenodd;"/>
			<polygon points="570.9894 241.5776, 651.7728 241.5776, 651.7728 251.8279, 668.1732 231.3273, 651.7728 210.8268, 651.7728 221.0771, 570.9894 221.0771" style="stroke: rgb(67%,84%,90%); stroke-linecap: round; stroke-width: 1; fill: rgb(67%,84%,90%); fill-rule: evenodd;"/>
			<polygon points="669.1445 241.5776, 722.9761 241.5776, 722.9761 251.8279, 739.3766 231.3273, 722.9761 210.8268, 722.9761 221.0771, 669.1445 221.0771" style="stroke: rgb(67%,84%,90%); stroke-linecap: round; stroke-width: 1; fill: rgb(67%,84%,90%); fill-rule: evenodd;"/>
			<polygon points="742.351 241.5776, 777.0616 241.5776, 777.0616 251.8279, 793.462 231.3273, 777.0616 210.8268, 777.0616 221.0771, 742.351 221.0771" style="stroke: rgb(67%,84%,90%); stroke-linecap: round; stroke-width: 1; fill: rgb(67%,84%,90%); fill-rule: evenodd;"/>
			<polygon points="793.5227 241.5776, 810.7512 241.5776, 810.7512 251.8279, 827.1516 231.3273, 810.7512 210.8268, 810.7512 221.0771, 793.5227 221.0771" style="stroke: rgb(67%,84%,90%); stroke-linecap: round; stroke-width: 1; fill: rgb(67%,84%,90%); fill-rule: evenodd;"/>
			<polygon points="838.7457 241.5776, 845.0477 241.5776, 845.0477 251.8279, 861.4482 231.3273, 845.0477 210.8268, 845.0477 221.0771, 838.7457 221.0771" style="stroke: rgb(67%,84%,90%); stroke-linecap: round; stroke-width: 1; fill: rgb(67%,84%,90%); fill-rule: evenodd;"/>
			<polygon points="864.9689 241.5776, 865.9899 241.5776, 865.9899 251.8279, 882.3904 231.3273, 865.9899 210.8268, 865.9899 221.0771, 864.9689 221.0771" style="stroke: rgb(67%,84%,90%); stroke-linecap: round; stroke-width: 1; fill: rgb(67%,84%,90%); fill-rule: evenodd;"/>
			<polygon points="893.256 241.5776, 958.0141 241.5776, 958.0141 251.8279, 974.4145 231.3273, 958.0141 210.8268, 958.0141 221.0771, 893.256 221.0771" style="stroke: rgb(67%,84%,90%); stroke-linecap: round; stroke-width: 1; fill: rgb(67%,84%,90%); fill-rule: evenodd;"/>
			<polygon points="982.1237 241.5776, 1018.473 241.5776, 1018.473 251.8279, 1034.874 231.3273, 1018.473 210.8268, 1018.473 221.0771, 982.1237 221.0771" style="stroke: rgb(67%,84%,90%); stroke-linecap: round; stroke-width: 1; fill: rgb(67%,84%,90%); fill-rule: evenodd;"/>
			<polygon points="1050.595 241.5776, 1062.179 241.5776, 1062.179 251.8279, 1078.579 231.3273, 1062.179 210.8268, 1062.179 221.0771, 1050.595 221.0771" style="stroke: rgb(67%,84%,90%); stroke-linecap: round; stroke-width: 1; fill: rgb(67%,84%,90%); fill-rule: evenodd;"/>
			<polygon points="1084.285 241.5776, 1093.865 241.5776, 1093.865 251.8279, 1110.265 231.3273, 1093.865 210.8268, 1093.865 221.0771, 1084.285 221.0771" style="stroke: rgb(67%,84%,90%); stroke-linecap: round; stroke-width: 1; fill: rgb(67%,84%,90%); fill-rule: evenodd;"/>
			<polygon points="1146.201 200.5765, 1131.886 200.5765, 1131.886 210.8268, 1115.486 190.3262, 1131.886 169.8256, 1131.886 180.0759, 1146.201 180.0759" style="stroke: rgb(56%,93%,56%); stroke-linecap: round; stroke-width: 1; fill: rgb(56%,93%,56%); fill-rule: evenodd;"/>
			<polygon points="1160.891 200.5765, 1160.891 210.8268, 1146.019 190.3262, 1160.891 169.8256, 1160.891 180.0759" style="stroke: rgb(56%,93%,56%); stroke-linecap: round; stroke-width: 1; fill: rgb(56%,93%,56%); fill-rule: evenodd;"/>
			<polygon points="1191.242 200.5765, 1178.566 200.5765, 1178.566 210.8268, 1162.166 190.3262, 1178.566 169.8256, 1178.566 180.0759, 1191.242 180.0759" style="stroke: rgb(56%,93%,56%); stroke-linecap: round; stroke-width: 1; fill: rgb(56%,93%,56%); fill-rule: evenodd;"/>
			<polygon points="1321.144 200.5765, 1204.85 200.5765, 1204.85 210.8268, 1188.45 190.3262, 1204.85 169.8256, 1204.85 180.0759, 1321.144 180.0759" style="stroke: rgb(56%,93%,56%); stroke-linecap: round; stroke-width: 1; fill: rgb(56%,93%,56%); fill-rule: evenodd;"/>
			<polygon points="1340.447 200.5765, 1340.447 210.8268, 1325.757 190.3262, 1340.447 169.8256, 1340.447 180.0759" style="stroke: rgb(56%,93%,56%); stroke-linecap: round; stroke-width: 1; fill: rgb(56%,93%,56%); fill-rule: evenodd;"/>
			<polygon points="75.54019 528.5855, 99.50653 528.5855, 99.50653 538.8358, 115.907 518.3352, 99.50653 497.8346, 99.50653 508.0849, 75.54019 508.0849" style="stroke: rgb(67%,84%,90%); stroke-linecap: round; stroke-width: 1; fill: rgb(67%,84%,90%); fill-rule: evenodd;"/>
			<polygon points="116.6961 528.5855, 197.4795 528.5855, 197.4795 538.8358, 213.8799 518.3352, 197.4795 497.8346, 197.4795 508.0849, 116.6961 508.0849" style="stroke: rgb(67%,84%,90%); stroke-linecap: round; stroke-width: 1; fill: rgb(67%,84%,90%); fill-rule: evenodd;"/>
			<polygon points="215.0939 528.5855, 268.9256 528.5855, 268.9256 538.8358, 285.3261 518.3352, 268.9256 497.8346, 268.9256 508.0849, 215.0939 508.0849" style="stroke: rgb(67%,84%,90%); stroke-linecap: round; stroke-width: 1; fill: rgb(67%,84%,90%); fill-rule: evenodd;"/>
			<polygon points="292.1247 528.5855, 326.8353 528.5855, 326.8353 538.8358, 343.2357 518.3352, 326.8353 497.8346, 326.8353 508.0849, 292.1247 508.0849" style="stroke: rgb(67%,84%,90%); stroke-linecap: round; stroke-width: 1; fill: rgb(67%,84%,90%); fill-rule: evenodd;"/>
			<polygon points="343.2964 528.5855, 360.707 528.5855, 360.707 538.8358, 377.1074 518.3352, 360.707 497.8346, 360.707 508.0849, 343.2964 508.0849" style="stroke: rgb(67%,84%,90%); stroke-linecap: round; stroke-width: 1; fill: rgb(67%,84%,90%); fill-rule: evenodd;"/>
			<path d="M 1346.395991,169.825647 L 1346.395991,251.827897 Z" style="stroke: rgb(0%,0%,0%); stroke-linecap: butt; stroke-width: 1;"/>
			<path d="M 70.866142,210.826772 L 1346.395991,210.826772 Z" style="stroke: rgb(0%,0%,0%); stroke-linecap: butt; stroke-width: 1;"/>
			<path d="M 70.866142,169.825647 L 70.866142,251.827897 Z" style="stroke: rgb(0%,0%,0%); stroke-linecap: butt; stroke-width: 1;"/>
			<path d="M 677.885534,210.826772 L 677.885534,231.327334 Z" style="stroke: rgb(0%,0%,0%); stroke-linecap: butt; stroke-width: 1;"/>
			<path d="M 1284.904927,210.826772 L 1284.904927,231.327334 Z" style="stroke: rgb(0%,0%,0%); stroke-linecap: butt; stroke-width: 1;"/>
			<path d="M 677.885534,210.826772 L 677.885534,223.127109 Z" style="stroke: rgb(0%,0%,0%); stroke-linecap: butt; stroke-width: 1;"/>
			<path d="M 1284.904927,210.826772 L 1284.904927,223.127109 Z" style="stroke: rgb(0%,0%,0%); stroke-linecap: butt; stroke-width: 1;"/>
			<path d="M 416.624388,456.833521 L 416.624388,538.835771 Z" style="stroke: rgb(0%,0%,0%); stroke-linecap: butt; stroke-width: 1;"/>
			<path d="M 70.866142,497.834646 L 416.624388,497.834646 Z" style="stroke: rgb(0%,0%,0%); stroke-linecap: butt; stroke-width: 1;"/>
			<path d="M 70.866142,456.833521 L 70.866142,538.835771 Z" style="stroke: rgb(0%,0%,0%); stroke-linecap: butt; stroke-width: 1;"/>
			<g transform=" matrix(0.707107,0.707107,-0.707107,0.707107,677.885534,231.327334)">
				<text style="font-family: Helvetica; font-size: 6px;fill: rgb(0%,0%,0%); stroke:none;" transform="translate(0,0) scale(1,-1)" x="0" y="0">10000</text>
			</g>
			<g transform=" matrix(0.707107,0.707107,-0.707107,0.707107,1284.904927,231.327334)">
				<text style="font-family: Helvetica; font-size: 6px;fill: rgb(0%,0%,0%); stroke:none;" transform="translate(0,0) scale(1,-1)" x="0" y="0">20000</text>
			</g>
			<g transform=" matrix(0.707107,0.707107,-0.707107,0.707107,104.61642,251.827897)">
				<text style="font-family: Helvetica; font-size: 10px;fill: rgb(0%,0%,0%); stroke:none;" transform="translate(0,0) scale(1,-1)" x="0" y="0">Gene_01703</text>
			</g>
			<g transform=" matrix(0.707107,0.707107,-0.707107,0.707107,159.09641,251.827897)">
				<text style="font-family: Helvetica; font-size: 10px;fill: rgb(0%,0%,0%); stroke:none;" transform="translate(0,0) scale(1,-1)" x="0" y="0">Gene_01704</text>
			</g>
			<g transform=" matrix(0.707107,0.707107,-0.707107,0.707107,194.910555,251.827897)">
				<text style="font-family: Helvetica; font-size: 10px;fill: rgb(0%,0%,0%); stroke:none;" transform="translate(0,0) scale(1,-1)" x="0" y="0">Gene_01705</text>
			</g>
			<g transform=" matrix(0.707107,0.707107,-0.707107,0.707107,267.479723,251.827897)">
				<text style="font-family: Helvetica; font-size: 10px;fill: rgb(0%,0%,0%); stroke:none;" transform="translate(0,0) scale(1,-1)" x="0" y="0">Gene_01706</text>
			</g>
			<g transform=" matrix(0.707107,0.707107,-0.707107,0.707107,340.716613,251.827897)">
				<text style="font-family: Helvetica; font-size: 10px;fill: rgb(0%,0%,0%); stroke:none;" transform="translate(0,0) scale(1,-1)" x="0" y="0">Gene_01707</text>
			</g>
			<g transform=" matrix(0.707107,0.707107,-0.707107,0.707107,382.995513,251.827897)">
				<text style="font-family: Helvetica; font-size: 10px;fill: rgb(0%,0%,0%); stroke:none;" transform="translate(0,0) scale(1,-1)" x="0" y="0">Gene_01708</text>
			</g>
			<g transform=" matrix(0.707107,0.707107,-0.707107,0.707107,444.274121,251.827897)">
				<text style="font-family: Helvetica; font-size: 10px;fill: rgb(0%,0%,0%); stroke:none;" transform="translate(0,0) scale(1,-1)" x="0" y="0">Gene_01709</text>
			</g>
			<g transform=" matrix(0.707107,0.707107,-0.707107,0.707107,502.092718,251.827897)">
				<text style="font-family: Helvetica; font-size: 10px;fill: rgb(0%,0%,0%); stroke:none;" transform="translate(0,0) scale(1,-1)" x="0" y="0">Gene_01710</text>
			</g>
			<g transform=" matrix(0.707107,0.707107,-0.707107,0.707107,549.622337,251.827897)">
				<text style="font-family: Helvetica; font-size: 10px;fill: rgb(0%,0%,0%); stroke:none;" transform="translate(0,0) scale(1,-1)" x="0" y="0">Gene_01711</text>
			</g>
			<g transform=" matrix(0.707107,0.707107,-0.707107,0.707107,619.581321,251.827897)">
				<text style="font-family: Helvetica; font-size: 10px;fill: rgb(0%,0%,0%); stroke:none;" transform="translate(0,0) scale(1,-1)" x="0" y="0">Gene_01712</text>
			</g>
			<g transform=" matrix(0.707107,0.707107,-0.707107,0.707107,704.260527,251.827897)">
				<text style="font-family: Helvetica; font-size: 16px;fill: rgb(0%,0%,100%); stroke:none;" transform="translate(0,0) scale(1,-1)" x="0" y="0">Gene_01713 (79.3)</text>
			</g>
			<g transform=" matrix(0.707107,0.707107,-0.707107,0.707107,767.90651,251.827897)">
				<text style="font-family: Helvetica; font-size: 10px;fill: rgb(0%,0%,0%); stroke:none;" transform="translate(0,0) scale(1,-1)" x="0" y="0">Gene_01714</text>
			</g>
			<g transform=" matrix(0.707107,0.707107,-0.707107,0.707107,810.337166,251.827897)">
				<text style="font-family: Helvetica; font-size: 10px;fill: rgb(0%,0%,0%); stroke:none;" transform="translate(0,0) scale(1,-1)" x="0" y="0">Gene_01715</text>
			</g>
			<g transform=" matrix(0.707107,0.707107,-0.707107,0.707107,850.096936,251.827897)">
				<text style="font-family: Helvetica; font-size: 10px;fill: rgb(0%,0%,0%); stroke:none;" transform="translate(0,0) scale(1,-1)" x="0" y="0">Gene_01716</text>
			</g>
			<g transform=" matrix(0.707107,0.707107,-0.707107,0.707107,873.679639,251.827897)">
				<text style="font-family: Helvetica; font-size: 10px;fill: rgb(0%,0%,0%); stroke:none;" transform="translate(0,0) scale(1,-1)" x="0" y="0">Gene_01717</text>
			</g>
			<g transform=" matrix(0.707107,0.707107,-0.707107,0.707107,933.835261,251.827897)">
				<text style="font-family: Helvetica; font-size: 10px;fill: rgb(0%,0%,0%); stroke:none;" transform="translate(0,0) scale(1,-1)" x="0" y="0">Gene_01718</text>
			</g>
			<g transform=" matrix(0.707107,0.707107,-0.707107,0.707107,1008.498646,251.827897)">
				<text style="font-family: Helvetica; font-size: 10px;fill: rgb(0%,0%,0%); stroke:none;" transform="translate(0,0) scale(1,-1)" x="0" y="0">Gene_01719</text>
			</g>
			<g transform=" matrix(0.707107,0.707107,-0.707107,0.707107,1064.587238,251.827897)">
				<text style="font-family: Helvetica; font-size: 10px;fill: rgb(0%,0%,0%); stroke:none;" transform="translate(0,0) scale(1,-1)" x="0" y="0">Gene_01720</text>
			</g>
			<g transform=" matrix(0.707107,0.707107,-0.707107,0.707107,1097.275232,251.827897)">
				<text style="font-family: Helvetica; font-size: 10px;fill: rgb(0%,0%,0%); stroke:none;" transform="translate(0,0) scale(1,-1)" x="0" y="0">Gene_01721</text>
			</g>
			<g transform=" matrix(0.707107,-0.707107,0.707107,0.707107,1130.843405,169.825647)">
				<text style="font-family: Helvetica; font-size: 10px;fill: rgb(0%,0%,0%); stroke:none;" transform="translate(0,0) scale(1,-1)" x="0" y="0">Gene_01722</text>
			</g>
			<g transform=" matrix(0.707107,-0.707107,0.707107,0.707107,1153.454877,169.825647)">
				<text style="font-family: Helvetica; font-size: 10px;fill: rgb(0%,0%,0%); stroke:none;" transform="translate(0,0) scale(1,-1)" x="0" y="0">Gene_01723</text>
			</g>
			<g transform=" matrix(0.707107,-0.707107,0.707107,0.707107,1176.70372,169.825647)">
				<text style="font-family: Helvetica; font-size: 10px;fill: rgb(0%,0%,0%); stroke:none;" transform="translate(0,0) scale(1,-1)" x="0" y="0">Gene_01724</text>
			</g>
			<g transform=" matrix(0.707107,-0.707107,0.707107,0.707107,1254.796765,169.825647)">
				<text style="font-family: Helvetica; font-size: 10px;fill: rgb(0%,0%,0%); stroke:none;" transform="translate(0,0) scale(1,-1)" x="0" y="0">Gene_01725</text>
			</g>
			<g transform=" matrix(0.707107,-0.707107,0.707107,0.707107,1333.102266,169.825647)">
				<text style="font-family: Helvetica; font-size: 10px;fill: rgb(0%,0%,0%); stroke:none;" transform="translate(0,0) scale(1,-1)" x="0" y="0">Gene_01726</text>
			</g>
			<g transform=" matrix(0.707107,0.707107,-0.707107,0.707107,95.723586,538.835771)">
				<text style="font-family: Helvetica; font-size: 10px;fill: rgb(0%,0%,0%); stroke:none;" transform="translate(0,0) scale(1,-1)" x="0" y="0">Gene_01192</text>
			</g>
			<g transform=" matrix(0.707107,0.707107,-0.707107,0.707107,165.288008,538.835771)">
				<text style="font-family: Helvetica; font-size: 10px;fill: rgb(0%,0%,0%); stroke:none;" transform="translate(0,0) scale(1,-1)" x="0" y="0">Gene_01193</text>
			</g>
			<g transform=" matrix(0.707107,0.707107,-0.707107,0.707107,250.210021,538.835771)">
				<text style="font-family: Helvetica; font-size: 16px;fill: rgb(0%,0%,100%); stroke:none;" transform="translate(0,0) scale(1,-1)" x="0" y="0">Gene_01194 (79.3)</text>
			</g>
			<g transform=" matrix(0.707107,0.707107,-0.707107,0.707107,317.680227,538.835771)">
				<text style="font-family: Helvetica; font-size: 10px;fill: rgb(0%,0%,0%); stroke:none;" transform="translate(0,0) scale(1,-1)" x="0" y="0">Gene_01195</text>
			</g>
			<g transform=" matrix(0.707107,0.707107,-0.707107,0.707107,360.201935,538.835771)">
				<text style="font-family: Helvetica; font-size: 10px;fill: rgb(0%,0%,0%); stroke:none;" transform="translate(0,0) scale(1,-1)" x="0" y="0">Gene_01196</text>
			</g>
			<g transform=" matrix(1,0,-0,1,70,169.825647)">
				<text style="font-family: Helvetica; font-size: 12px;fill: rgb(60%,60%,60%); stroke:none;" transform="translate(0,0) scale(1,-1)" x="0" y="0">megahit_27200 (left 9856bp, right 31422bp)</text>
			</g>
			<g transform=" matrix(1,0,-0,1,70,456.833521)">
				<text style="font-family: Helvetica; font-size: 12px;fill: rgb(60%,60%,60%); stroke:none;" transform="translate(0,0) scale(1,-1)" x="0" y="0">megahit_38809 (left 2376bp, right 2163bp)</text>
			</g>
		</g>
	</g>
</svg>
