<?xml version="1.0" encoding="utf-8"?>
<!DOCTYPE svg
  PUBLIC '-//W3C//DTD SVG 1.0//EN'
  'http://www.w3.org/TR/2001/REC-SVG-20010904/DTD/svg10.dtd'>
<svg fill-rule="evenodd" height="708.6614173228346" preserveAspectRatio="xMinYMin meet" version="1.0" viewBox="0 0 1417 708" width="1417.3228346456692" xmlns="http://www.w3.org/2000/svg" xmlns:xlink="http://www.w3.org/1999/xlink">
	<title>...</title>
	<desc>...</desc>
	<clipPath id="clip">
		<rect height="708.6614173228346" width="1417.3228346456692" x="0" y="0"/>
	</clipPath>
	<g id="group" style="clip-path: url(#clip)" transform="scale(1,-1) translate(0,-708)">
		<g transform="">
			<polygon points="70.86614 169.8256, 357.8345 169.8256, 357.8345 251.8279, 70.86614 251.8279" style="stroke: rgb(96%,96%,96%); stroke-linecap: butt; stroke-width: 1; fill: rgb(96%,96%,96%); fill-rule: evenodd;"/>
			<polygon points="70.86614 456.8335, 1346.407 456.8335, 1346.407 538.8358, 70.86614 538.8358" style="stroke: rgb(96%,96%,96%); stroke-linecap: butt; stroke-width: 1; fill: rgb(96%,96%,96%); fill-rule: evenodd;"/>
			<polygon points="577.3855 456.8335, 693.9324 456.8335, 349.6792 251.8279, 232.2426 251.8279" style="stroke: rgb(100%,43%,43%); stroke-linecap: round; stroke-width: 1; fill: rgb(100%,43%,43%); fill-rule: evenodd;"/>
			<polygon points="489.5552 456.8335, 528.3053 456.8335, 225.7183 251.8279, 186.9682 251.8279" style="stroke: rgb(100%,42%,42%); stroke-linecap: round; stroke-width: 1; fill: rgb(100%,42%,42%); fill-rule: evenodd;"/>
			<polygon points="430.7875 456.8335, 448.8281 456.8335, 107.6392 251.8279, 89.64809 251.8279" style="stroke: rgb(100%,46%,46%); stroke-linecap: round; stroke-width: 1; fill: rgb(100%,46%,46%); fill-rule: evenodd;"/>
			<polygon points="139.2225 241.5776, 168.2942 241.5776, 168.2942 251.8279, 184.6946 231.3273, 168.2942 210.8268, 168.2942 221.0771, 139.2225 221.0771" style="stroke: rgb(67%,84%,90%); stroke-linecap: round; stroke-width: 1; fill: rgb(67%,84%,90%); fill-rule: evenodd;"/>
			<polygon points="225.6689 200.5765, 202.5284 200.5765, 202.5284 210.8268, 186.128 190.3262, 202.5284 169.8256, 202.5284 180.0759, 225.6689 180.0759" style="stroke: rgb(56%,93%,56%); stroke-linecap: round; stroke-width: 1; fill: rgb(56%,93%,56%); fill-rule: evenodd;"/>
			<polygon points="236.1472 241.5776, 291.909 241.5776, 291.909 251.8279, 308.3095 231.3273, 291.909 210.8268, 291.909 221.0771, 236.1472 221.0771" style="stroke: rgb(67%,84%,90%); stroke-linecap: round; stroke-width: 1; fill: rgb(67%,84%,90%); fill-rule: evenodd;"/>
			<polygon points="309.1497 241.5776, 335.1075 241.5776, 335.1075 251.8279, 351.5079 231.3273, 335.1075 210.8268, 335.1075 221.0771, 309.1497 221.0771" style="stroke: rgb(67%,84%,90%); stroke-linecap: round; stroke-width: 1; fill: rgb(67%,84%,90%); fill-rule: evenodd;"/>
			<polygon points="120.9349 487.5844, 87.26659 487.5844, 87.26659 497.8346, 70.86614 477.3341, 87.26659 456.8335, 87.26659 467.0838, 120.9349 467.0838" style="stroke: rgb(56%,93%,56%); stroke-linecap: round; stroke-width: 1; fill: rgb(56%,93%,56%); fill-rule: evenodd;"/>
			<polygon points="193.0476 487.5844, 143.5136 487.5844, 143.5136 497.8346, 127.1131 477.3341, 143.5136 456.8335, 143.5136 467.0838, 193.0476 467.0838" style="stroke: rgb(56%,93%,56%); stroke-linecap: round; stroke-width: 1; fill: rgb(56%,93%,56%); fill-rule: evenodd;"/>
			<polygon points="270.8444 487.5844, 209.2998 487.5844, 209.2998 497.8346, 192.8994 477.3341, 209.2998 456.8335, 209.2998 467.0838, 270.8444 467.0838" style="stroke: rgb(56%,93%,56%); stroke-linecap: round; stroke-width: 1; fill: rgb(56%,93%,56%); fill-rule: evenodd;"/>
			<polygon points="326.4983 487.5844, 288.3817 487.5844, 288.3817 497.8346, 271.9812 477.3341, 288.3817 456.8335, 288.3817 467.0838, 326.4983 467.0838" style="stroke: rgb(56%,93%,56%); stroke-linecap: round; stroke-width: 1; fill: rgb(56%,93%,56%); fill-rule: evenodd;"/>
			<polygon points="397.2271 487.5844, 344.8758 487.5844, 344.8758 497.8346, 328.4753 477.3341, 344.8758 456.8335, 344.8758 467.0838, 397.2271 467.0838" style="stroke: rgb(56%,93%,56%); stroke-linecap: round; stroke-width: 1; fill: rgb(56%,93%,56%); fill-rule: evenodd;"/>
			<polygon points="402.0709 487.5844, 402.0709 497.8346, 397.3754 477.3341, 402.0709 456.8335, 402.0709 467.0838" style="stroke: rgb(56%,93%,56%); stroke-linecap: round; stroke-width: 1; fill: rgb(56%,93%,56%); fill-rule: evenodd;"/>
			<polygon points="409.4354 487.5844, 409.4354 497.8346, 401.9226 477.3341, 409.4354 456.8335, 409.4354 467.0838" style="stroke: rgb(56%,93%,56%); stroke-linecap: round; stroke-width: 1; fill: rgb(56%,93%,56%); fill-rule: evenodd;"/>
			<polygon points="431.8254 487.5844, 427.5163 487.5844, 427.5163 497.8346, 411.1159 477.3341, 427.5163 456.8335, 427.5163 467.0838, 431.8254 467.0838" style="stroke: rgb(56%,93%,56%); stroke-linecap: round; stroke-width: 1; fill: rgb(56%,93%,56%); fill-rule: evenodd;"/>
			<polygon points="451.0028 487.5844, 446.2489 487.5844, 446.2489 497.8346, 429.8484 477.3341, 446.2489 456.8335, 446.2489 467.0838, 451.0028 467.0838" style="stroke: rgb(56%,93%,56%); stroke-linecap: round; stroke-width: 1; fill: rgb(56%,93%,56%); fill-rule: evenodd;"/>
			<polygon points="464.3973 487.5844, 464.3973 497.8346, 448.2844 477.3341, 464.3973 456.8335, 464.3973 467.0838" style="stroke: rgb(56%,93%,56%); stroke-linecap: round; stroke-width: 1; fill: rgb(56%,93%,56%); fill-rule: evenodd;"/>
			<polygon points="470.1307 528.5855, 472.5122 528.5855, 472.5122 538.8358, 488.9127 518.3352, 472.5122 497.8346, 472.5122 508.0849, 470.1307 508.0849" style="stroke: rgb(67%,84%,90%); stroke-linecap: round; stroke-width: 1; fill: rgb(67%,84%,90%); fill-rule: evenodd;"/>
			<polygon points="528.2559 487.5844, 505.7085 487.5844, 505.7085 497.8346, 489.3081 477.3341, 505.7085 456.8335, 505.7085 467.0838, 528.2559 467.0838" style="stroke: rgb(56%,93%,56%); stroke-linecap: round; stroke-width: 1; fill: rgb(56%,93%,56%); fill-rule: evenodd;"/>
			<polygon points="538.0423 528.5855, 560.4414 528.5855, 560.4414 538.8358, 576.8418 518.3352, 560.4414 497.8346, 560.4414 508.0849, 538.0423 508.0849" style="stroke: rgb(67%,84%,90%); stroke-linecap: round; stroke-width: 1; fill: rgb(67%,84%,90%); fill-rule: evenodd;"/>
			<polygon points="581.0925 528.5855, 637.1508 528.5855, 637.1508 538.8358, 653.5512 518.3352, 637.1508 497.8346, 637.1508 508.0849, 581.0925 508.0849" style="stroke: rgb(67%,84%,90%); stroke-linecap: round; stroke-width: 1; fill: rgb(67%,84%,90%); fill-rule: evenodd;"/>
			<polygon points="653.403 528.5855, 678.1745 528.5855, 678.1745 538.8358, 694.575 518.3352, 678.1745 497.8346, 678.1745 508.0849, 653.403 508.0849" style="stroke: rgb(67%,84%,90%); stroke-linecap: round; stroke-width: 1; fill: rgb(67%,84%,90%); fill-rule: evenodd;"/>
			<polygon points="770.8395 487.5844, 715.2261 487.5844, 715.2261 497.8346, 698.8256 477.3341, 715.2261 456.8335, 715.2261 467.0838, 770.8395 467.0838" style="stroke: rgb(56%,93%,56%); stroke-linecap: round; stroke-width: 1; fill: rgb(56%,93%,56%); fill-rule: evenodd;"/>
			<polygon points="815.5702 487.5844, 788.5745 487.5844, 788.5745 497.8346, 772.174 477.3341, 788.5745 456.8335, 788.5745 467.0838, 815.5702 467.0838" style="stroke: rgb(56%,93%,56%); stroke-linecap: round; stroke-width: 1; fill: rgb(56%,93%,56%); fill-rule: evenodd;"/>
			<polygon points="861.1906 487.5844, 833.4535 487.5844, 833.4535 497.8346, 817.053 477.3341, 833.4535 456.8335, 833.4535 467.0838, 861.1906 467.0838" style="stroke: rgb(56%,93%,56%); stroke-linecap: round; stroke-width: 1; fill: rgb(56%,93%,56%); fill-rule: evenodd;"/>
			<polygon points="927.1745 487.5844, 881.1991 487.5844, 881.1991 497.8346, 864.7987 477.3341, 881.1991 456.8335, 881.1991 467.0838, 927.1745 467.0838" style="stroke: rgb(56%,93%,56%); stroke-linecap: round; stroke-width: 1; fill: rgb(56%,93%,56%); fill-rule: evenodd;"/>
			<polygon points="1045.946 487.5844, 955.4867 487.5844, 955.4867 497.8346, 939.0862 477.3341, 955.4867 456.8335, 955.4867 467.0838, 1045.946 467.0838" style="stroke: rgb(56%,93%,56%); stroke-linecap: round; stroke-width: 1; fill: rgb(56%,93%,56%); fill-rule: evenodd;"/>
			<polygon points="1346.407 487.5844, 1081.869 487.5844, 1081.869 497.8346, 1065.469 477.3341, 1081.869 456.8335, 1081.869 467.0838, 1346.407 467.0838" style="stroke: rgb(56%,93%,56%); stroke-linecap: round; stroke-width: 1; fill: rgb(56%,93%,56%); fill-rule: evenodd;"/>
			<path d="M 357.834475,169.825647 L 357.834475,251.827897 Z" style="stroke: rgb(0%,0%,0%); stroke-linecap: butt; stroke-width: 1;"/>
			<path d="M 70.866142,210.826772 L 357.834475,210.826772 Z" style="stroke: rgb(0%,0%,0%); stroke-linecap: butt; stroke-width: 1;"/>
			<path d="M 70.866142,169.825647 L 70.866142,251.827897 Z" style="stroke: rgb(0%,0%,0%); stroke-linecap: butt; stroke-width: 1;"/>
			<path d="M 1346.407267,456.833521 L 1346.407267,538.835771 Z" style="stroke: rgb(0%,0%,0%); stroke-linecap: butt; stroke-width: 1;"/>
			<path d="M 70.866142,497.834646 L 1346.407267,497.834646 Z" style="stroke: rgb(0%,0%,0%); stroke-linecap: butt; stroke-width: 1;"/>
			<path d="M 70.866142,456.833521 L 70.866142,538.835771 Z" style="stroke: rgb(0%,0%,0%); stroke-linecap: butt; stroke-width: 1;"/>
			<path d="M 565.127825,497.834646 L 565.127825,518.335208 Z" style="stroke: rgb(0%,0%,0%); stroke-linecap: butt; stroke-width: 1;"/>
			<path d="M 1059.389507,497.834646 L 1059.389507,518.335208 Z" style="stroke: rgb(0%,0%,0%); stroke-linecap: butt; stroke-width: 1;"/>
			<path d="M 565.127825,497.834646 L 565.127825,510.134983 Z" style="stroke: rgb(0%,0%,0%); stroke-linecap: butt; stroke-width: 1;"/>
			<path d="M 1059.389507,497.834646 L 1059.389507,510.134983 Z" style="stroke: rgb(0%,0%,0%); stroke-linecap: butt; stroke-width: 1;"/>
			<g transform=" matrix(0.707107,0.707107,-0.707107,0.707107,565.127825,518.335208)">
				<text style="font-family: Helvetica; font-size: 6px;fill: rgb(0%,0%,0%); stroke:none;" transform="translate(0,0) scale(1,-1)" x="0" y="0">10000</text>
			</g>
			<g transform=" matrix(0.707107,0.707107,-0.707107,0.707107,1059.389507,518.335208)">
				<text style="font-family: Helvetica; font-size: 6px;fill: rgb(0%,0%,0%); stroke:none;" transform="translate(0,0) scale(1,-1)" x="0" y="0">20000</text>
			</g>
			<g transform=" matrix(0.707107,0.707107,-0.707107,0.707107,161.95857,251.827897)">
				<text style="font-family: Helvetica; font-size: 10px;fill: rgb(0%,0%,0%); stroke:none;" transform="translate(0,0) scale(1,-1)" x="0" y="0">Gene_00404</text>
			</g>
			<g transform=" matrix(0.707107,-0.707107,0.707107,0.707107,205.898433,169.825647)">
				<text style="font-family: Helvetica; font-size: 10px;fill: rgb(0%,0%,0%); stroke:none;" transform="translate(0,0) scale(1,-1)" x="0" y="0">Gene_00405</text>
			</g>
			<g transform=" matrix(0.707107,0.707107,-0.707107,0.707107,272.228351,251.827897)">
				<text style="font-family: Helvetica; font-size: 16px;fill: rgb(0%,0%,100%); stroke:none;" transform="translate(0,0) scale(1,-1)" x="0" y="0">Gene_00406 (79.5)</text>
			</g>
			<g transform=" matrix(0.707107,0.707107,-0.707107,0.707107,330.328812,251.827897)">
				<text style="font-family: Helvetica; font-size: 10px;fill: rgb(0%,0%,0%); stroke:none;" transform="translate(0,0) scale(1,-1)" x="0" y="0">Gene_00407</text>
			</g>
			<g transform=" matrix(0.707107,-0.707107,0.707107,0.707107,95.900496,456.833521)">
				<text style="font-family: Helvetica; font-size: 10px;fill: rgb(0%,0%,0%); stroke:none;" transform="translate(0,0) scale(1,-1)" x="0" y="0">Gene_00357</text>
			</g>
			<g transform=" matrix(0.707107,-0.707107,0.707107,0.707107,160.080375,456.833521)">
				<text style="font-family: Helvetica; font-size: 10px;fill: rgb(0%,0%,0%); stroke:none;" transform="translate(0,0) scale(1,-1)" x="0" y="0">Gene_00358</text>
			</g>
			<g transform=" matrix(0.707107,-0.707107,0.707107,0.707107,231.871885,456.833521)">
				<text style="font-family: Helvetica; font-size: 10px;fill: rgb(0%,0%,0%); stroke:none;" transform="translate(0,0) scale(1,-1)" x="0" y="0">Gene_00359</text>
			</g>
			<g transform=" matrix(0.707107,-0.707107,0.707107,0.707107,299.239752,456.833521)">
				<text style="font-family: Helvetica; font-size: 10px;fill: rgb(0%,0%,0%); stroke:none;" transform="translate(0,0) scale(1,-1)" x="0" y="0">Gene_00360</text>
			</g>
			<g transform=" matrix(0.707107,-0.707107,0.707107,0.707107,362.851231,456.833521)">
				<text style="font-family: Helvetica; font-size: 10px;fill: rgb(0%,0%,0%); stroke:none;" transform="translate(0,0) scale(1,-1)" x="0" y="0">Gene_00361</text>
			</g>
			<g transform=" matrix(0.707107,-0.707107,0.707107,0.707107,399.723152,456.833521)">
				<text style="font-family: Helvetica; font-size: 10px;fill: rgb(0%,0%,0%); stroke:none;" transform="translate(0,0) scale(1,-1)" x="0" y="0">Gene_00362</text>
			</g>
			<g transform=" matrix(0.707107,-0.707107,0.707107,0.707107,405.679006,456.833521)">
				<text style="font-family: Helvetica; font-size: 10px;fill: rgb(0%,0%,0%); stroke:none;" transform="translate(0,0) scale(1,-1)" x="0" y="0">Gene_00363</text>
			</g>
			<g transform=" matrix(0.707107,-0.707107,0.707107,0.707107,421.470666,456.833521)">
				<text style="font-family: Helvetica; font-size: 10px;fill: rgb(0%,0%,0%); stroke:none;" transform="translate(0,0) scale(1,-1)" x="0" y="0">Gene_00364</text>
			</g>
			<g transform=" matrix(0.707107,-0.707107,0.707107,0.707107,440.425602,456.833521)">
				<text style="font-family: Helvetica; font-size: 10px;fill: rgb(0%,0%,0%); stroke:none;" transform="translate(0,0) scale(1,-1)" x="0" y="0">Gene_00365</text>
			</g>
			<g transform=" matrix(0.707107,-0.707107,0.707107,0.707107,456.340828,456.833521)">
				<text style="font-family: Helvetica; font-size: 10px;fill: rgb(0%,0%,0%); stroke:none;" transform="translate(0,0) scale(1,-1)" x="0" y="0">Gene_00366</text>
			</g>
			<g transform=" matrix(0.707107,0.707107,-0.707107,0.707107,479.521701,538.835771)">
				<text style="font-family: Helvetica; font-size: 10px;fill: rgb(0%,0%,0%); stroke:none;" transform="translate(0,0) scale(1,-1)" x="0" y="0">Gene_00367</text>
			</g>
			<g transform=" matrix(0.707107,-0.707107,0.707107,0.707107,508.781993,456.833521)">
				<text style="font-family: Helvetica; font-size: 10px;fill: rgb(0%,0%,0%); stroke:none;" transform="translate(0,0) scale(1,-1)" x="0" y="0">Gene_00368</text>
			</g>
			<g transform=" matrix(0.707107,0.707107,-0.707107,0.707107,557.442055,538.835771)">
				<text style="font-family: Helvetica; font-size: 10px;fill: rgb(0%,0%,0%); stroke:none;" transform="translate(0,0) scale(1,-1)" x="0" y="0">Gene_00369</text>
			</g>
			<g transform=" matrix(0.707107,0.707107,-0.707107,0.707107,617.321858,538.835771)">
				<text style="font-family: Helvetica; font-size: 16px;fill: rgb(0%,0%,100%); stroke:none;" transform="translate(0,0) scale(1,-1)" x="0" y="0">Gene_00370 (79.5)</text>
			</g>
			<g transform=" matrix(0.707107,0.707107,-0.707107,0.707107,673.98896,538.835771)">
				<text style="font-family: Helvetica; font-size: 10px;fill: rgb(0%,0%,0%); stroke:none;" transform="translate(0,0) scale(1,-1)" x="0" y="0">Gene_00371</text>
			</g>
			<g transform=" matrix(0.707107,-0.707107,0.707107,0.707107,734.832573,456.833521)">
				<text style="font-family: Helvetica; font-size: 10px;fill: rgb(0%,0%,0%); stroke:none;" transform="translate(0,0) scale(1,-1)" x="0" y="0">Gene_00372</text>
			</g>
			<g transform=" matrix(0.707107,-0.707107,0.707107,0.707107,793.872131,456.833521)">
				<text style="font-family: Helvetica; font-size: 10px;fill: rgb(0%,0%,0%); stroke:none;" transform="translate(0,0) scale(1,-1)" x="0" y="0">Gene_00373</text>
			</g>
			<g transform=" matrix(0.707107,-0.707107,0.707107,0.707107,839.121789,456.833521)">
				<text style="font-family: Helvetica; font-size: 10px;fill: rgb(0%,0%,0%); stroke:none;" transform="translate(0,0) scale(1,-1)" x="0" y="0">Gene_00374</text>
			</g>
			<g transform=" matrix(0.707107,-0.707107,0.707107,0.707107,895.986595,456.833521)">
				<text style="font-family: Helvetica; font-size: 10px;fill: rgb(0%,0%,0%); stroke:none;" transform="translate(0,0) scale(1,-1)" x="0" y="0">Gene_00375</text>
			</g>
			<g transform=" matrix(0.707107,-0.707107,0.707107,0.707107,992.515902,456.833521)">
				<text style="font-family: Helvetica; font-size: 10px;fill: rgb(0%,0%,0%); stroke:none;" transform="translate(0,0) scale(1,-1)" x="0" y="0">Gene_00376</text>
			</g>
			<g transform=" matrix(0.707107,-0.707107,0.707107,0.707107,1205.938096,456.833521)">
				<text style="font-family: Helvetica; font-size: 10px;fill: rgb(0%,0%,0%); stroke:none;" transform="translate(0,0) scale(1,-1)" x="0" y="0">Gene_00377</text>
			</g>
			<g transform=" matrix(1,0,-0,1,70,456.833521)">
				<text style="font-family: Helvetica; font-size: 12px;fill: rgb(60%,60%,60%); stroke:none;" transform="translate(0,0) scale(1,-1)" x="0" y="0">megahit_15214 (left 62591bp, right 20041bp)</text>
			</g>
		</g>
	</g>
</svg>
