<?xml version="1.0" encoding="utf-8"?>
<!DOCTYPE svg
  PUBLIC '-//W3C//DTD SVG 1.0//EN'
  'http://www.w3.org/TR/2001/REC-SVG-20010904/DTD/svg10.dtd'>
<svg fill-rule="evenodd" height="708.6614173228346" preserveAspectRatio="xMinYMin meet" version="1.0" viewBox="0 0 1417 708" width="1417.3228346456692" xmlns="http://www.w3.org/2000/svg" xmlns:xlink="http://www.w3.org/1999/xlink">
	<title>...</title>
	<desc>...</desc>
	<clipPath id="clip">
		<rect height="708.6614173228346" width="1417.3228346456692" x="0" y="0"/>
	</clipPath>
	<g id="group" style="clip-path: url(#clip)" transform="scale(1,-1) translate(0,-708)">
		<g transform="">
			<polygon points="70.86614 169.8256, 509.9197 169.8256, 509.9197 251.8279, 70.86614 251.8279" style="stroke: rgb(96%,96%,96%); stroke-linecap: butt; stroke-width: 1; fill: rgb(96%,96%,96%); fill-rule: evenodd;"/>
			<polygon points="70.86614 456.8335, 1346.394 456.8335, 1346.394 538.8358, 70.86614 538.8358" style="stroke: rgb(96%,96%,96%); stroke-linecap: butt; stroke-width: 1; fill: rgb(96%,96%,96%); fill-rule: evenodd;"/>
			<polygon points="552.4916 456.8335, 616.7876 456.8335, 509.9197 251.8279, 445.8115 251.8279" style="stroke: rgb(100%,40%,40%); stroke-linecap: round; stroke-width: 1; fill: rgb(100%,40%,40%); fill-rule: evenodd;"/>
			<polygon points="98.66306 200.5765, 98.66306 210.8268, 82.76122 190.3262, 98.66306 169.8256, 98.66306 180.0759" style="stroke: rgb(56%,93%,56%); stroke-linecap: round; stroke-width: 1; fill: rgb(56%,93%,56%); fill-rule: evenodd;"/>
			<polygon points="264.9437 200.5765, 118.5694 200.5765, 118.5694 210.8268, 102.169 190.3262, 118.5694 169.8256, 118.5694 180.0759, 264.9437 180.0759" style="stroke: rgb(56%,93%,56%); stroke-linecap: round; stroke-width: 1; fill: rgb(56%,93%,56%); fill-rule: evenodd;"/>
			<polygon points="285.6662 200.5765, 282.7841 200.5765, 282.7841 210.8268, 266.3837 190.3262, 282.7841 169.8256, 282.7841 180.0759, 285.6662 180.0759" style="stroke: rgb(56%,93%,56%); stroke-linecap: round; stroke-width: 1; fill: rgb(56%,93%,56%); fill-rule: evenodd;"/>
			<polygon points="347.0824 200.5765, 314.5252 200.5765, 314.5252 210.8268, 298.1247 190.3262, 314.5252 169.8256, 314.5252 180.0759, 347.0824 180.0759" style="stroke: rgb(56%,93%,56%); stroke-linecap: round; stroke-width: 1; fill: rgb(56%,93%,56%); fill-rule: evenodd;"/>
			<polygon points="365.6762 200.5765, 365.6762 210.8268, 352.9673 190.3262, 365.6762 169.8256, 365.6762 180.0759" style="stroke: rgb(56%,93%,56%); stroke-linecap: round; stroke-width: 1; fill: rgb(56%,93%,56%); fill-rule: evenodd;"/>
			<polygon points="383.0806 241.5776, 387.0896 241.5776, 387.0896 251.8279, 403.4901 231.3273, 387.0896 210.8268, 387.0896 221.0771, 383.0806 221.0771" style="stroke: rgb(67%,84%,90%); stroke-linecap: round; stroke-width: 1; fill: rgb(67%,84%,90%); fill-rule: evenodd;"/>
			<polygon points="434.7303 200.5765, 421.5183 200.5765, 421.5183 210.8268, 405.1178 190.3262, 421.5183 169.8256, 421.5183 180.0759, 434.7303 180.0759" style="stroke: rgb(56%,93%,56%); stroke-linecap: round; stroke-width: 1; fill: rgb(56%,93%,56%); fill-rule: evenodd;"/>
			<polygon points="509.3563 200.5765, 454.0732 200.5765, 454.0732 210.8268, 437.6728 190.3262, 454.0732 169.8256, 454.0732 180.0759, 509.3563 180.0759" style="stroke: rgb(56%,93%,56%); stroke-linecap: round; stroke-width: 1; fill: rgb(56%,93%,56%); fill-rule: evenodd;"/>
			<polygon points="71.93044 528.5855, 72.37091 528.5855, 72.37091 538.8358, 88.77136 518.3352, 72.37091 497.8346, 72.37091 508.0849, 71.93044 508.0849" style="stroke: rgb(67%,84%,90%); stroke-linecap: round; stroke-width: 1; fill: rgb(67%,84%,90%); fill-rule: evenodd;"/>
			<polygon points="87.76967 528.5855, 88.7736 528.5855, 88.7736 538.8358, 105.174 518.3352, 88.7736 497.8346, 88.7736 508.0849, 87.76967 508.0849" style="stroke: rgb(67%,84%,90%); stroke-linecap: round; stroke-width: 1; fill: rgb(67%,84%,90%); fill-rule: evenodd;"/>
			<polygon points="119.5734 528.5855, 119.5734 538.8358, 133.9727 518.3352, 119.5734 497.8346, 119.5734 508.0849" style="stroke: rgb(67%,84%,90%); stroke-linecap: round; stroke-width: 1; fill: rgb(67%,84%,90%); fill-rule: evenodd;"/>
			<polygon points="136.6021 528.5855, 137.7938 528.5855, 137.7938 538.8358, 154.1943 518.3352, 137.7938 497.8346, 137.7938 508.0849, 136.6021 508.0849" style="stroke: rgb(67%,84%,90%); stroke-linecap: round; stroke-width: 1; fill: rgb(67%,84%,90%); fill-rule: evenodd;"/>
			<polygon points="171.5361 528.5855, 183.4334 528.5855, 183.4334 538.8358, 199.8338 518.3352, 183.4334 497.8346, 183.4334 508.0849, 171.5361 508.0849" style="stroke: rgb(67%,84%,90%); stroke-linecap: round; stroke-width: 1; fill: rgb(67%,84%,90%); fill-rule: evenodd;"/>
			<polygon points="199.646 528.5855, 212.6702 528.5855, 212.6702 538.8358, 229.0707 518.3352, 212.6702 497.8346, 212.6702 508.0849, 199.646 508.0849" style="stroke: rgb(67%,84%,90%); stroke-linecap: round; stroke-width: 1; fill: rgb(67%,84%,90%); fill-rule: evenodd;"/>
			<polygon points="233.8287 528.5855, 261.8783 528.5855, 261.8783 538.8358, 278.2787 518.3352, 261.8783 497.8346, 261.8783 508.0849, 233.8287 508.0849" style="stroke: rgb(67%,84%,90%); stroke-linecap: round; stroke-width: 1; fill: rgb(67%,84%,90%); fill-rule: evenodd;"/>
			<polygon points="277.8405 528.5855, 360.1692 528.5855, 360.1692 538.8358, 376.5696 518.3352, 360.1692 497.8346, 360.1692 508.0849, 277.8405 508.0849" style="stroke: rgb(67%,84%,90%); stroke-linecap: round; stroke-width: 1; fill: rgb(67%,84%,90%); fill-rule: evenodd;"/>
			<polygon points="393.661 528.5855, 432.2283 528.5855, 432.2283 538.8358, 448.6288 518.3352, 432.2283 497.8346, 432.2283 508.0849, 393.661 508.0849" style="stroke: rgb(67%,84%,90%); stroke-linecap: round; stroke-width: 1; fill: rgb(67%,84%,90%); fill-rule: evenodd;"/>
			<polygon points="471.0416 528.5855, 477.68 528.5855, 477.68 538.8358, 494.0805 518.3352, 477.68 497.8346, 477.68 508.0849, 471.0416 508.0849" style="stroke: rgb(67%,84%,90%); stroke-linecap: round; stroke-width: 1; fill: rgb(67%,84%,90%); fill-rule: evenodd;"/>
			<polygon points="493.8927 528.5855, 501.8458 528.5855, 501.8458 538.8358, 518.2463 518.3352, 501.8458 497.8346, 501.8458 508.0849, 493.8927 508.0849" style="stroke: rgb(67%,84%,90%); stroke-linecap: round; stroke-width: 1; fill: rgb(67%,84%,90%); fill-rule: evenodd;"/>
			<polygon points="526.7606 528.5855, 533.0234 528.5855, 533.0234 538.8358, 549.4239 518.3352, 533.0234 497.8346, 533.0234 508.0849, 526.7606 508.0849" style="stroke: rgb(67%,84%,90%); stroke-linecap: round; stroke-width: 1; fill: rgb(67%,84%,90%); fill-rule: evenodd;"/>
			<polygon points="552.6168 528.5855, 601.514 528.5855, 601.514 538.8358, 617.9145 518.3352, 601.514 497.8346, 601.514 508.0849, 552.6168 508.0849" style="stroke: rgb(67%,84%,90%); stroke-linecap: round; stroke-width: 1; fill: rgb(67%,84%,90%); fill-rule: evenodd;"/>
			<polygon points="625.4272 528.5855, 642.2077 528.5855, 642.2077 538.8358, 658.6082 518.3352, 642.2077 497.8346, 642.2077 508.0849, 625.4272 508.0849" style="stroke: rgb(67%,84%,90%); stroke-linecap: round; stroke-width: 1; fill: rgb(67%,84%,90%); fill-rule: evenodd;"/>
			<polygon points="672.7571 528.5855, 745.3193 528.5855, 745.3193 538.8358, 761.7197 518.3352, 745.3193 497.8346, 745.3193 508.0849, 672.7571 508.0849" style="stroke: rgb(67%,84%,90%); stroke-linecap: round; stroke-width: 1; fill: rgb(67%,84%,90%); fill-rule: evenodd;"/>
			<polygon points="762.784 528.5855, 830.0874 528.5855, 830.0874 538.8358, 846.4878 518.3352, 830.0874 497.8346, 830.0874 508.0849, 762.784 508.0849" style="stroke: rgb(67%,84%,90%); stroke-linecap: round; stroke-width: 1; fill: rgb(67%,84%,90%); fill-rule: evenodd;"/>
			<polygon points="852.0597 528.5855, 872.7844 528.5855, 872.7844 538.8358, 889.1849 518.3352, 872.7844 497.8346, 872.7844 508.0849, 852.0597 508.0849" style="stroke: rgb(67%,84%,90%); stroke-linecap: round; stroke-width: 1; fill: rgb(67%,84%,90%); fill-rule: evenodd;"/>
			<polygon points="890.2492 528.5855, 906.8419 528.5855, 906.8419 538.8358, 923.2424 518.3352, 906.8419 497.8346, 906.8419 508.0849, 890.2492 508.0849" style="stroke: rgb(67%,84%,90%); stroke-linecap: round; stroke-width: 1; fill: rgb(67%,84%,90%); fill-rule: evenodd;"/>
			<polygon points="924.8701 528.5855, 981.4679 528.5855, 981.4679 538.8358, 997.8683 518.3352, 981.4679 497.8346, 981.4679 508.0849, 924.8701 508.0849" style="stroke: rgb(67%,84%,90%); stroke-linecap: round; stroke-width: 1; fill: rgb(67%,84%,90%); fill-rule: evenodd;"/>
			<polygon points="997.6805 528.5855, 1181.618 528.5855, 1181.618 538.8358, 1198.019 518.3352, 1181.618 497.8346, 1181.618 508.0849, 997.6805 508.0849" style="stroke: rgb(67%,84%,90%); stroke-linecap: round; stroke-width: 1; fill: rgb(67%,84%,90%); fill-rule: evenodd;"/>
			<polygon points="1212.418 528.5855, 1253.239 528.5855, 1253.239 538.8358, 1269.64 518.3352, 1253.239 497.8346, 1253.239 508.0849, 1212.418 508.0849" style="stroke: rgb(67%,84%,90%); stroke-linecap: round; stroke-width: 1; fill: rgb(67%,84%,90%); fill-rule: evenodd;"/>
			<polygon points="1269.452 528.5855, 1329.994 528.5855, 1329.994 538.8358, 1346.394 518.3352, 1329.994 497.8346, 1329.994 508.0849, 1269.452 508.0849" style="stroke: rgb(67%,84%,90%); stroke-linecap: round; stroke-width: 1; fill: rgb(67%,84%,90%); fill-rule: evenodd;"/>
			<path d="M 509.919714,169.825647 L 509.919714,251.827897 Z" style="stroke: rgb(0%,0%,0%); stroke-linecap: butt; stroke-width: 1;"/>
			<path d="M 70.866142,210.826772 L 509.919714,210.826772 Z" style="stroke: rgb(0%,0%,0%); stroke-linecap: butt; stroke-width: 1;"/>
			<path d="M 70.866142,169.825647 L 70.866142,251.827897 Z" style="stroke: rgb(0%,0%,0%); stroke-linecap: butt; stroke-width: 1;"/>
			<path d="M 1346.394087,456.833521 L 1346.394087,538.835771 Z" style="stroke: rgb(0%,0%,0%); stroke-linecap: butt; stroke-width: 1;"/>
			<path d="M 70.866142,497.834646 L 1346.394087,497.834646 Z" style="stroke: rgb(0%,0%,0%); stroke-linecap: butt; stroke-width: 1;"/>
			<path d="M 70.866142,456.833521 L 70.866142,538.835771 Z" style="stroke: rgb(0%,0%,0%); stroke-linecap: butt; stroke-width: 1;"/>
			<path d="M 696.922854,497.834646 L 696.922854,518.335208 Z" style="stroke: rgb(0%,0%,0%); stroke-linecap: butt; stroke-width: 1;"/>
			<path d="M 1322.979566,497.834646 L 1322.979566,518.335208 Z" style="stroke: rgb(0%,0%,0%); stroke-linecap: butt; stroke-width: 1;"/>
			<path d="M 696.922854,497.834646 L 696.922854,510.134983 Z" style="stroke: rgb(0%,0%,0%); stroke-linecap: butt; stroke-width: 1;"/>
			<path d="M 1322.979566,497.834646 L 1322.979566,510.134983 Z" style="stroke: rgb(0%,0%,0%); stroke-linecap: butt; stroke-width: 1;"/>
			<g transform=" matrix(0.707107,0.707107,-0.707107,0.707107,696.922854,518.335208)">
				<text style="font-family: Helvetica; font-size: 6px;fill: rgb(0%,0%,0%); stroke:none;" transform="translate(0,0) scale(1,-1)" x="0" y="0">10000</text>
			</g>
			<g transform=" matrix(0.707107,0.707107,-0.707107,0.707107,1322.979566,518.335208)">
				<text style="font-family: Helvetica; font-size: 6px;fill: rgb(0%,0%,0%); stroke:none;" transform="translate(0,0) scale(1,-1)" x="0" y="0">20000</text>
			</g>
			<g transform=" matrix(0.707107,-0.707107,0.707107,0.707107,90.71214,169.825647)">
				<text style="font-family: Helvetica; font-size: 10px;fill: rgb(0%,0%,0%); stroke:none;" transform="translate(0,0) scale(1,-1)" x="0" y="0">Gene_01827</text>
			</g>
			<g transform=" matrix(0.707107,-0.707107,0.707107,0.707107,183.55635,169.825647)">
				<text style="font-family: Helvetica; font-size: 10px;fill: rgb(0%,0%,0%); stroke:none;" transform="translate(0,0) scale(1,-1)" x="0" y="0">Gene_01828</text>
			</g>
			<g transform=" matrix(0.707107,-0.707107,0.707107,0.707107,276.024926,169.825647)">
				<text style="font-family: Helvetica; font-size: 10px;fill: rgb(0%,0%,0%); stroke:none;" transform="translate(0,0) scale(1,-1)" x="0" y="0">Gene_01829</text>
			</g>
			<g transform=" matrix(0.707107,-0.707107,0.707107,0.707107,322.603546,169.825647)">
				<text style="font-family: Helvetica; font-size: 10px;fill: rgb(0%,0%,0%); stroke:none;" transform="translate(0,0) scale(1,-1)" x="0" y="0">Gene_01830</text>
			</g>
			<g transform=" matrix(0.707107,-0.707107,0.707107,0.707107,359.321772,169.825647)">
				<text style="font-family: Helvetica; font-size: 10px;fill: rgb(0%,0%,0%); stroke:none;" transform="translate(0,0) scale(1,-1)" x="0" y="0">Gene_01831</text>
			</g>
			<g transform=" matrix(0.707107,0.707107,-0.707107,0.707107,393.285349,251.827897)">
				<text style="font-family: Helvetica; font-size: 10px;fill: rgb(0%,0%,0%); stroke:none;" transform="translate(0,0) scale(1,-1)" x="0" y="0">Gene_01832</text>
			</g>
			<g transform=" matrix(0.707107,-0.707107,0.707107,0.707107,419.924062,169.825647)">
				<text style="font-family: Helvetica; font-size: 10px;fill: rgb(0%,0%,0%); stroke:none;" transform="translate(0,0) scale(1,-1)" x="0" y="0">Gene_01833</text>
			</g>
			<g transform=" matrix(0.707107,-0.707107,0.707107,0.707107,473.514516,169.825647)">
				<text style="font-family: Helvetica; font-size: 16px;fill: rgb(0%,0%,100%); stroke:none;" transform="translate(0,0) scale(1,-1)" x="0" y="0">Gene_01834 (79.9)</text>
			</g>
			<g transform=" matrix(0.707107,0.707107,-0.707107,0.707107,80.350901,538.835771)">
				<text style="font-family: Helvetica; font-size: 10px;fill: rgb(0%,0%,0%); stroke:none;" transform="translate(0,0) scale(1,-1)" x="0" y="0">Gene_02183</text>
			</g>
			<g transform=" matrix(0.707107,0.707107,-0.707107,0.707107,96.471861,538.835771)">
				<text style="font-family: Helvetica; font-size: 10px;fill: rgb(0%,0%,0%); stroke:none;" transform="translate(0,0) scale(1,-1)" x="0" y="0">Gene_02184</text>
			</g>
			<g transform=" matrix(0.707107,0.707107,-0.707107,0.707107,126.773006,538.835771)">
				<text style="font-family: Helvetica; font-size: 10px;fill: rgb(0%,0%,0%); stroke:none;" transform="translate(0,0) scale(1,-1)" x="0" y="0">Gene_02185</text>
			</g>
			<g transform=" matrix(0.707107,0.707107,-0.707107,0.707107,145.398193,538.835771)">
				<text style="font-family: Helvetica; font-size: 10px;fill: rgb(0%,0%,0%); stroke:none;" transform="translate(0,0) scale(1,-1)" x="0" y="0">Gene_02186</text>
			</g>
			<g transform=" matrix(0.707107,0.707107,-0.707107,0.707107,185.684943,538.835771)">
				<text style="font-family: Helvetica; font-size: 10px;fill: rgb(0%,0%,0%); stroke:none;" transform="translate(0,0) scale(1,-1)" x="0" y="0">Gene_02187</text>
			</g>
			<g transform=" matrix(0.707107,0.707107,-0.707107,0.707107,214.35834,538.835771)">
				<text style="font-family: Helvetica; font-size: 10px;fill: rgb(0%,0%,0%); stroke:none;" transform="translate(0,0) scale(1,-1)" x="0" y="0">Gene_02188</text>
			</g>
			<g transform=" matrix(0.707107,0.707107,-0.707107,0.707107,256.053717,538.835771)">
				<text style="font-family: Helvetica; font-size: 10px;fill: rgb(0%,0%,0%); stroke:none;" transform="translate(0,0) scale(1,-1)" x="0" y="0">Gene_02189</text>
			</g>
			<g transform=" matrix(0.707107,0.707107,-0.707107,0.707107,327.205063,538.835771)">
				<text style="font-family: Helvetica; font-size: 10px;fill: rgb(0%,0%,0%); stroke:none;" transform="translate(0,0) scale(1,-1)" x="0" y="0">Gene_02190</text>
			</g>
			<g transform=" matrix(0.707107,0.707107,-0.707107,0.707107,421.144872,538.835771)">
				<text style="font-family: Helvetica; font-size: 10px;fill: rgb(0%,0%,0%); stroke:none;" transform="translate(0,0) scale(1,-1)" x="0" y="0">Gene_02191</text>
			</g>
			<g transform=" matrix(0.707107,0.707107,-0.707107,0.707107,482.561036,538.835771)">
				<text style="font-family: Helvetica; font-size: 10px;fill: rgb(0%,0%,0%); stroke:none;" transform="translate(0,0) scale(1,-1)" x="0" y="0">Gene_02192</text>
			</g>
			<g transform=" matrix(0.707107,0.707107,-0.707107,0.707107,506.069465,538.835771)">
				<text style="font-family: Helvetica; font-size: 10px;fill: rgb(0%,0%,0%); stroke:none;" transform="translate(0,0) scale(1,-1)" x="0" y="0">Gene_02193</text>
			</g>
			<g transform=" matrix(0.707107,0.707107,-0.707107,0.707107,538.092266,538.835771)">
				<text style="font-family: Helvetica; font-size: 10px;fill: rgb(0%,0%,0%); stroke:none;" transform="translate(0,0) scale(1,-1)" x="0" y="0">Gene_02194</text>
			</g>
			<g transform=" matrix(0.707107,0.707107,-0.707107,0.707107,585.265639,538.835771)">
				<text style="font-family: Helvetica; font-size: 16px;fill: rgb(0%,0%,100%); stroke:none;" transform="translate(0,0) scale(1,-1)" x="0" y="0">Gene_02195 (79.9)</text>
			</g>
			<g transform=" matrix(0.707107,0.707107,-0.707107,0.707107,642.01768,538.835771)">
				<text style="font-family: Helvetica; font-size: 10px;fill: rgb(0%,0%,0%); stroke:none;" transform="translate(0,0) scale(1,-1)" x="0" y="0">Gene_02196</text>
			</g>
			<g transform=" matrix(0.707107,0.707107,-0.707107,0.707107,717.238394,538.835771)">
				<text style="font-family: Helvetica; font-size: 10px;fill: rgb(0%,0%,0%); stroke:none;" transform="translate(0,0) scale(1,-1)" x="0" y="0">Gene_02197</text>
			</g>
			<g transform=" matrix(0.707107,0.707107,-0.707107,0.707107,804.635911,538.835771)">
				<text style="font-family: Helvetica; font-size: 10px;fill: rgb(0%,0%,0%); stroke:none;" transform="translate(0,0) scale(1,-1)" x="0" y="0">Gene_02198</text>
			</g>
			<g transform=" matrix(0.707107,0.707107,-0.707107,0.707107,870.622289,538.835771)">
				<text style="font-family: Helvetica; font-size: 10px;fill: rgb(0%,0%,0%); stroke:none;" transform="translate(0,0) scale(1,-1)" x="0" y="0">Gene_02199</text>
			</g>
			<g transform=" matrix(0.707107,0.707107,-0.707107,0.707107,906.745761,538.835771)">
				<text style="font-family: Helvetica; font-size: 10px;fill: rgb(0%,0%,0%); stroke:none;" transform="translate(0,0) scale(1,-1)" x="0" y="0">Gene_02200</text>
			</g>
			<g transform=" matrix(0.707107,0.707107,-0.707107,0.707107,961.369209,538.835771)">
				<text style="font-family: Helvetica; font-size: 10px;fill: rgb(0%,0%,0%); stroke:none;" transform="translate(0,0) scale(1,-1)" x="0" y="0">Gene_02201</text>
			</g>
			<g transform=" matrix(0.707107,0.707107,-0.707107,0.707107,1097.849572,538.835771)">
				<text style="font-family: Helvetica; font-size: 10px;fill: rgb(0%,0%,0%); stroke:none;" transform="translate(0,0) scale(1,-1)" x="0" y="0">Gene_02202</text>
			</g>
			<g transform=" matrix(0.707107,0.707107,-0.707107,0.707107,1241.028743,538.835771)">
				<text style="font-family: Helvetica; font-size: 10px;fill: rgb(0%,0%,0%); stroke:none;" transform="translate(0,0) scale(1,-1)" x="0" y="0">Gene_02203</text>
			</g>
			<g transform=" matrix(0.707107,0.707107,-0.707107,0.707107,1307.922902,538.835771)">
				<text style="font-family: Helvetica; font-size: 10px;fill: rgb(0%,0%,0%); stroke:none;" transform="translate(0,0) scale(1,-1)" x="0" y="0">Gene_02204</text>
			</g>
			<g transform=" matrix(1,0,-0,1,70,169.825647)">
				<text style="font-family: Helvetica; font-size: 12px;fill: rgb(60%,60%,60%); stroke:none;" transform="translate(0,0) scale(1,-1)" x="0" y="0">megahit_100173 (left 5859bp, right 9bp)</text>
			</g>
			<g transform=" matrix(1,0,-0,1,70,456.833521)">
				<text style="font-family: Helvetica; font-size: 12px;fill: rgb(60%,60%,60%); stroke:none;" transform="translate(0,0) scale(1,-1)" x="0" y="0">megahit_112547 (left 7695bp, right 21587bp)</text>
			</g>
		</g>
	</g>
</svg>
