<?xml version="1.0" encoding="utf-8"?>
<!DOCTYPE svg
  PUBLIC '-//W3C//DTD SVG 1.0//EN'
  'http://www.w3.org/TR/2001/REC-SVG-20010904/DTD/svg10.dtd'>
<svg fill-rule="evenodd" height="708.6614173228346" preserveAspectRatio="xMinYMin meet" version="1.0" viewBox="0 0 1417 708" width="1417.3228346456692" xmlns="http://www.w3.org/2000/svg" xmlns:xlink="http://www.w3.org/1999/xlink">
	<title>...</title>
	<desc>...</desc>
	<clipPath id="clip">
		<rect height="708.6614173228346" width="1417.3228346456692" x="0" y="0"/>
	</clipPath>
	<g id="group" style="clip-path: url(#clip)" transform="scale(1,-1) translate(0,-708)">
		<g transform="">
			<polygon points="70.86614 169.8256, 1346.397 169.8256, 1346.397 251.8279, 70.86614 251.8279" style="stroke: rgb(96%,96%,96%); stroke-linecap: butt; stroke-width: 1; fill: rgb(96%,96%,96%); fill-rule: evenodd;"/>
			<polygon points="70.86614 456.8335, 1307.822 456.8335, 1307.822 538.8358, 70.86614 538.8358" style="stroke: rgb(96%,96%,96%); stroke-linecap: butt; stroke-width: 1; fill: rgb(96%,96%,96%); fill-rule: evenodd;"/>
			<polygon points="546.035 456.8335, 822.1651 456.8335, 571.0408 251.8279, 844.0896 251.8279" style="stroke: rgb(100%,42%,42%); stroke-linecap: round; stroke-width: 1; fill: rgb(100%,42%,42%); fill-rule: evenodd;"/>
			<polygon points="835.8531 456.8335, 854.9333 456.8335, 547.7534 251.8279, 567.0707 251.8279" style="stroke: rgb(100%,31%,31%); stroke-linecap: round; stroke-width: 1; fill: rgb(100%,31%,31%); fill-rule: evenodd;"/>
			<polygon points="858.3701 456.8335, 900.6192 456.8335, 408.5625 251.8279, 449.9228 251.8279" style="stroke: rgb(100%,64%,64%); stroke-linecap: round; stroke-width: 1; fill: rgb(100%,64%,64%); fill-rule: evenodd;"/>
			<polygon points="930.1284 456.8335, 943.8756 456.8335, 365.1284 251.8279, 378.8756 251.8279" style="stroke: rgb(100%,48%,48%); stroke-linecap: round; stroke-width: 1; fill: rgb(100%,48%,48%); fill-rule: evenodd;"/>
			<polygon points="70.86614 241.5776, 195.1972 241.5776, 195.1972 251.8279, 211.5977 231.3273, 195.1972 210.8268, 195.1972 221.0771, 70.86614 221.0771" style="stroke: rgb(67%,84%,90%); stroke-linecap: round; stroke-width: 1; fill: rgb(67%,84%,90%); fill-rule: evenodd;"/>
			<polygon points="214.3234 241.5776, 239.461 241.5776, 239.461 251.8279, 255.8614 231.3273, 239.461 210.8268, 239.461 221.0771, 214.3234 221.0771" style="stroke: rgb(67%,84%,90%); stroke-linecap: round; stroke-width: 1; fill: rgb(67%,84%,90%); fill-rule: evenodd;"/>
			<polygon points="256.8688 241.5776, 323.7814 241.5776, 323.7814 251.8279, 340.1818 231.3273, 323.7814 210.8268, 323.7814 221.0771, 256.8688 221.0771" style="stroke: rgb(67%,84%,90%); stroke-linecap: round; stroke-width: 1; fill: rgb(67%,84%,90%); fill-rule: evenodd;"/>
			<polygon points="439.7309 200.5765, 381.5288 200.5765, 381.5288 210.8268, 365.1284 190.3262, 381.5288 169.8256, 381.5288 180.0759, 439.7309 180.0759" style="stroke: rgb(56%,93%,56%); stroke-linecap: round; stroke-width: 1; fill: rgb(56%,93%,56%); fill-rule: evenodd;"/>
			<polygon points="456.7372 241.5776, 530.5827 241.5776, 530.5827 251.8279, 546.9831 231.3273, 530.5827 210.8268, 530.5827 221.0771, 456.7372 221.0771" style="stroke: rgb(67%,84%,90%); stroke-linecap: round; stroke-width: 1; fill: rgb(67%,84%,90%); fill-rule: evenodd;"/>
			<polygon points="554.5678 241.5776, 554.5678 251.8279, 564.6412 231.3273, 554.5678 210.8268, 554.5678 221.0771" style="stroke: rgb(67%,84%,90%); stroke-linecap: round; stroke-width: 1; fill: rgb(67%,84%,90%); fill-rule: evenodd;"/>
			<polygon points="575.959 241.5776, 597.8968 241.5776, 597.8968 251.8279, 614.2972 231.3273, 597.8968 210.8268, 597.8968 221.0771, 575.959 221.0771" style="stroke: rgb(67%,84%,90%); stroke-linecap: round; stroke-width: 1; fill: rgb(67%,84%,90%); fill-rule: evenodd;"/>
			<polygon points="695.0031 200.5765, 631.468 200.5765, 631.468 210.8268, 615.0675 190.3262, 631.468 169.8256, 631.468 180.0759, 695.0031 180.0759" style="stroke: rgb(56%,93%,56%); stroke-linecap: round; stroke-width: 1; fill: rgb(56%,93%,56%); fill-rule: evenodd;"/>
			<polygon points="722.5568 200.5765, 712.3516 200.5765, 712.3516 210.8268, 695.9511 190.3262, 712.3516 169.8256, 712.3516 180.0759, 722.5568 180.0759" style="stroke: rgb(56%,93%,56%); stroke-linecap: round; stroke-width: 1; fill: rgb(56%,93%,56%); fill-rule: evenodd;"/>
			<polygon points="843.9118 200.5765, 739.135 200.5765, 739.135 210.8268, 722.7346 190.3262, 739.135 169.8256, 739.135 180.0759, 843.9118 180.0759" style="stroke: rgb(56%,93%,56%); stroke-linecap: round; stroke-width: 1; fill: rgb(56%,93%,56%); fill-rule: evenodd;"/>
			<polygon points="872.2951 200.5765, 872.2951 210.8268, 857.0665 190.3262, 872.2951 169.8256, 872.2951 180.0759" style="stroke: rgb(56%,93%,56%); stroke-linecap: round; stroke-width: 1; fill: rgb(56%,93%,56%); fill-rule: evenodd;"/>
			<polygon points="950.7493 200.5765, 891.1251 200.5765, 891.1251 210.8268, 874.7246 190.3262, 891.1251 169.8256, 891.1251 180.0759, 950.7493 180.0759" style="stroke: rgb(56%,93%,56%); stroke-linecap: round; stroke-width: 1; fill: rgb(56%,93%,56%); fill-rule: evenodd;"/>
			<polygon points="998.0351 200.5765, 971.8309 200.5765, 971.8309 210.8268, 955.4304 190.3262, 971.8309 169.8256, 971.8309 180.0759, 998.0351 180.0759" style="stroke: rgb(56%,93%,56%); stroke-linecap: round; stroke-width: 1; fill: rgb(56%,93%,56%); fill-rule: evenodd;"/>
			<polygon points="1041.291 200.5765, 1014.554 200.5765, 1014.554 210.8268, 998.1536 190.3262, 1014.554 169.8256, 1014.554 180.0759, 1041.291 180.0759" style="stroke: rgb(56%,93%,56%); stroke-linecap: round; stroke-width: 1; fill: rgb(56%,93%,56%); fill-rule: evenodd;"/>
			<polygon points="1101.554 200.5765, 1058.64 200.5765, 1058.64 210.8268, 1042.24 190.3262, 1058.64 169.8256, 1058.64 180.0759, 1101.554 180.0759" style="stroke: rgb(56%,93%,56%); stroke-linecap: round; stroke-width: 1; fill: rgb(56%,93%,56%); fill-rule: evenodd;"/>
			<polygon points="1153.58 200.5765, 1118.31 200.5765, 1118.31 210.8268, 1101.91 190.3262, 1118.31 169.8256, 1118.31 180.0759, 1153.58 180.0759" style="stroke: rgb(56%,93%,56%); stroke-linecap: round; stroke-width: 1; fill: rgb(56%,93%,56%); fill-rule: evenodd;"/>
			<polygon points="1235.768 200.5765, 1185.565 200.5765, 1185.565 210.8268, 1169.165 190.3262, 1185.565 169.8256, 1185.565 180.0759, 1235.768 180.0759" style="stroke: rgb(56%,93%,56%); stroke-linecap: round; stroke-width: 1; fill: rgb(56%,93%,56%); fill-rule: evenodd;"/>
			<polygon points="1250.641 241.5776, 1329.997 241.5776, 1329.997 251.8279, 1346.397 231.3273, 1329.997 210.8268, 1329.997 221.0771, 1250.641 221.0771" style="stroke: rgb(67%,84%,90%); stroke-linecap: round; stroke-width: 1; fill: rgb(67%,84%,90%); fill-rule: evenodd;"/>
			<polygon points="70.86614 528.5855, 207.4631 528.5855, 207.4631 538.8358, 223.8635 518.3352, 207.4631 497.8346, 207.4631 508.0849, 70.86614 508.0849" style="stroke: rgb(67%,84%,90%); stroke-linecap: round; stroke-width: 1; fill: rgb(67%,84%,90%); fill-rule: evenodd;"/>
			<polygon points="237.433 528.5855, 300.9681 528.5855, 300.9681 538.8358, 317.3685 518.3352, 300.9681 497.8346, 300.9681 508.0849, 237.433 508.0849" style="stroke: rgb(67%,84%,90%); stroke-linecap: round; stroke-width: 1; fill: rgb(67%,84%,90%); fill-rule: evenodd;"/>
			<polygon points="317.1908 528.5855, 337.5286 528.5855, 337.5286 538.8358, 353.9291 518.3352, 337.5286 497.8346, 337.5286 508.0849, 317.1908 508.0849" style="stroke: rgb(67%,84%,90%); stroke-linecap: round; stroke-width: 1; fill: rgb(67%,84%,90%); fill-rule: evenodd;"/>
			<polygon points="355.1735 528.5855, 374.8003 528.5855, 374.8003 538.8358, 391.2007 518.3352, 374.8003 497.8346, 374.8003 508.0849, 355.1735 508.0849" style="stroke: rgb(67%,84%,90%); stroke-linecap: round; stroke-width: 1; fill: rgb(67%,84%,90%); fill-rule: evenodd;"/>
			<polygon points="392.4451 528.5855, 412.783 528.5855, 412.783 538.8358, 429.1834 518.3352, 412.783 497.8346, 412.783 508.0849, 392.4451 508.0849" style="stroke: rgb(67%,84%,90%); stroke-linecap: round; stroke-width: 1; fill: rgb(67%,84%,90%); fill-rule: evenodd;"/>
			<polygon points="430.487 528.5855, 450.4694 528.5855, 450.4694 538.8358, 466.8698 518.3352, 450.4694 497.8346, 450.4694 508.0849, 430.487 508.0849" style="stroke: rgb(67%,84%,90%); stroke-linecap: round; stroke-width: 1; fill: rgb(67%,84%,90%); fill-rule: evenodd;"/>
			<polygon points="468.292 528.5855, 479.386 528.5855, 479.386 538.8358, 495.7865 518.3352, 479.386 497.8346, 479.386 508.0849, 468.292 508.0849" style="stroke: rgb(67%,84%,90%); stroke-linecap: round; stroke-width: 1; fill: rgb(67%,84%,90%); fill-rule: evenodd;"/>
			<polygon points="495.8457 528.5855, 500.718 528.5855, 500.718 538.8358, 517.1184 518.3352, 500.718 497.8346, 500.718 508.0849, 495.8457 508.0849" style="stroke: rgb(67%,84%,90%); stroke-linecap: round; stroke-width: 1; fill: rgb(67%,84%,90%); fill-rule: evenodd;"/>
			<polygon points="516.7036 528.5855, 516.7036 538.8358, 532.6433 518.3352, 516.7036 497.8346, 516.7036 508.0849" style="stroke: rgb(67%,84%,90%); stroke-linecap: round; stroke-width: 1; fill: rgb(67%,84%,90%); fill-rule: evenodd;"/>
			<polygon points="546.2128 528.5855, 651.3451 528.5855, 651.3451 538.8358, 667.7456 518.3352, 651.3451 497.8346, 651.3451 508.0849, 546.2128 508.0849" style="stroke: rgb(67%,84%,90%); stroke-linecap: round; stroke-width: 1; fill: rgb(67%,84%,90%); fill-rule: evenodd;"/>
			<polygon points="667.9233 528.5855, 678.1286 528.5855, 678.1286 538.8358, 694.529 518.3352, 678.1286 497.8346, 678.1286 508.0849, 667.9233 508.0849" style="stroke: rgb(67%,84%,90%); stroke-linecap: round; stroke-width: 1; fill: rgb(67%,84%,90%); fill-rule: evenodd;"/>
			<polygon points="695.4771 528.5855, 758.4789 528.5855, 758.4789 538.8358, 774.8793 518.3352, 758.4789 497.8346, 758.4789 508.0849, 695.4771 508.0849" style="stroke: rgb(67%,84%,90%); stroke-linecap: round; stroke-width: 1; fill: rgb(67%,84%,90%); fill-rule: evenodd;"/>
			<polygon points="817.2469 487.5844, 795.4869 487.5844, 795.4869 497.8346, 779.0864 477.3341, 795.4869 456.8335, 795.4869 467.0838, 817.2469 467.0838" style="stroke: rgb(56%,93%,56%); stroke-linecap: round; stroke-width: 1; fill: rgb(56%,93%,56%); fill-rule: evenodd;"/>
			<polygon points="848.2375 487.5844, 848.2375 497.8346, 838.164 477.3341, 848.2375 456.8335, 848.2375 467.0838" style="stroke: rgb(56%,93%,56%); stroke-linecap: round; stroke-width: 1; fill: rgb(56%,93%,56%); fill-rule: evenodd;"/>
			<polygon points="869.6287 528.5855, 927.4752 528.5855, 927.4752 538.8358, 943.8756 518.3352, 927.4752 497.8346, 927.4752 508.0849, 869.6287 508.0849" style="stroke: rgb(67%,84%,90%); stroke-linecap: round; stroke-width: 1; fill: rgb(67%,84%,90%); fill-rule: evenodd;"/>
			<polygon points="957.5044 528.5855, 1037.038 528.5855, 1037.038 538.8358, 1053.439 518.3352, 1037.038 497.8346, 1037.038 508.0849, 957.5044 508.0849" style="stroke: rgb(67%,84%,90%); stroke-linecap: round; stroke-width: 1; fill: rgb(67%,84%,90%); fill-rule: evenodd;"/>
			<polygon points="1053.557 528.5855, 1074.251 528.5855, 1074.251 538.8358, 1090.651 518.3352, 1074.251 497.8346, 1074.251 508.0849, 1053.557 508.0849" style="stroke: rgb(67%,84%,90%); stroke-linecap: round; stroke-width: 1; fill: rgb(67%,84%,90%); fill-rule: evenodd;"/>
			<polygon points="1100.073 528.5855, 1140.676 528.5855, 1140.676 538.8358, 1157.077 518.3352, 1140.676 497.8346, 1140.676 508.0849, 1100.073 508.0849" style="stroke: rgb(67%,84%,90%); stroke-linecap: round; stroke-width: 1; fill: rgb(67%,84%,90%); fill-rule: evenodd;"/>
			<polygon points="1161.284 528.5855, 1230.152 528.5855, 1230.152 538.8358, 1246.552 518.3352, 1230.152 497.8346, 1230.152 508.0849, 1161.284 508.0849" style="stroke: rgb(67%,84%,90%); stroke-linecap: round; stroke-width: 1; fill: rgb(67%,84%,90%); fill-rule: evenodd;"/>
			<polygon points="1307.822 487.5844, 1266.152 487.5844, 1266.152 497.8346, 1249.752 477.3341, 1266.152 456.8335, 1266.152 467.0838, 1307.822 467.0838" style="stroke: rgb(56%,93%,56%); stroke-linecap: round; stroke-width: 1; fill: rgb(56%,93%,56%); fill-rule: evenodd;"/>
			<path d="M 1346.397438,169.825647 L 1346.397438,251.827897 Z" style="stroke: rgb(0%,0%,0%); stroke-linecap: butt; stroke-width: 1;"/>
			<path d="M 70.866142,210.826772 L 1346.397438,210.826772 Z" style="stroke: rgb(0%,0%,0%); stroke-linecap: butt; stroke-width: 1;"/>
			<path d="M 70.866142,169.825647 L 70.866142,251.827897 Z" style="stroke: rgb(0%,0%,0%); stroke-linecap: butt; stroke-width: 1;"/>
			<path d="M 663.419935,210.826772 L 663.419935,231.327334 Z" style="stroke: rgb(0%,0%,0%); stroke-linecap: butt; stroke-width: 1;"/>
			<path d="M 1255.973729,210.826772 L 1255.973729,231.327334 Z" style="stroke: rgb(0%,0%,0%); stroke-linecap: butt; stroke-width: 1;"/>
			<path d="M 663.419935,210.826772 L 663.419935,223.127109 Z" style="stroke: rgb(0%,0%,0%); stroke-linecap: butt; stroke-width: 1;"/>
			<path d="M 1255.973729,210.826772 L 1255.973729,223.127109 Z" style="stroke: rgb(0%,0%,0%); stroke-linecap: butt; stroke-width: 1;"/>
			<path d="M 1307.822186,456.833521 L 1307.822186,538.835771 Z" style="stroke: rgb(0%,0%,0%); stroke-linecap: butt; stroke-width: 1;"/>
			<path d="M 70.866142,497.834646 L 1307.822186,497.834646 Z" style="stroke: rgb(0%,0%,0%); stroke-linecap: butt; stroke-width: 1;"/>
			<path d="M 70.866142,456.833521 L 70.866142,538.835771 Z" style="stroke: rgb(0%,0%,0%); stroke-linecap: butt; stroke-width: 1;"/>
			<path d="M 663.419935,497.834646 L 663.419935,518.335208 Z" style="stroke: rgb(0%,0%,0%); stroke-linecap: butt; stroke-width: 1;"/>
			<path d="M 1255.973729,497.834646 L 1255.973729,518.335208 Z" style="stroke: rgb(0%,0%,0%); stroke-linecap: butt; stroke-width: 1;"/>
			<path d="M 663.419935,497.834646 L 663.419935,510.134983 Z" style="stroke: rgb(0%,0%,0%); stroke-linecap: butt; stroke-width: 1;"/>
			<path d="M 1255.973729,497.834646 L 1255.973729,510.134983 Z" style="stroke: rgb(0%,0%,0%); stroke-linecap: butt; stroke-width: 1;"/>
			<g transform=" matrix(0.707107,0.707107,-0.707107,0.707107,663.419935,231.327334)">
				<text style="font-family: Helvetica; font-size: 6px;fill: rgb(0%,0%,0%); stroke:none;" transform="translate(0,0) scale(1,-1)" x="0" y="0">10000</text>
			</g>
			<g transform=" matrix(0.707107,0.707107,-0.707107,0.707107,1255.973729,231.327334)">
				<text style="font-family: Helvetica; font-size: 6px;fill: rgb(0%,0%,0%); stroke:none;" transform="translate(0,0) scale(1,-1)" x="0" y="0">20000</text>
			</g>
			<g transform=" matrix(0.707107,0.707107,-0.707107,0.707107,663.419935,518.335208)">
				<text style="font-family: Helvetica; font-size: 6px;fill: rgb(0%,0%,0%); stroke:none;" transform="translate(0,0) scale(1,-1)" x="0" y="0">10000</text>
			</g>
			<g transform=" matrix(0.707107,0.707107,-0.707107,0.707107,1255.973729,518.335208)">
				<text style="font-family: Helvetica; font-size: 6px;fill: rgb(0%,0%,0%); stroke:none;" transform="translate(0,0) scale(1,-1)" x="0" y="0">20000</text>
			</g>
			<g transform=" matrix(0.707107,0.707107,-0.707107,0.707107,141.231905,251.827897)">
				<text style="font-family: Helvetica; font-size: 10px;fill: rgb(0%,0%,0%); stroke:none;" transform="translate(0,0) scale(1,-1)" x="0" y="0">Gene_02055</text>
			</g>
			<g transform=" matrix(0.707107,0.707107,-0.707107,0.707107,235.092426,251.827897)">
				<text style="font-family: Helvetica; font-size: 10px;fill: rgb(0%,0%,0%); stroke:none;" transform="translate(0,0) scale(1,-1)" x="0" y="0">Gene_02056</text>
			</g>
			<g transform=" matrix(0.707107,0.707107,-0.707107,0.707107,298.525309,251.827897)">
				<text style="font-family: Helvetica; font-size: 10px;fill: rgb(0%,0%,0%); stroke:none;" transform="translate(0,0) scale(1,-1)" x="0" y="0">Gene_02057</text>
			</g>
			<g transform=" matrix(0.707107,-0.707107,0.707107,0.707107,402.429617,169.825647)">
				<text style="font-family: Helvetica; font-size: 10px;fill: rgb(0%,0%,0%); stroke:none;" transform="translate(0,0) scale(1,-1)" x="0" y="0">Gene_02058</text>
			</g>
			<g transform=" matrix(0.707107,0.707107,-0.707107,0.707107,501.860143,251.827897)">
				<text style="font-family: Helvetica; font-size: 10px;fill: rgb(0%,0%,0%); stroke:none;" transform="translate(0,0) scale(1,-1)" x="0" y="0">Gene_02059</text>
			</g>
			<g transform=" matrix(0.707107,0.707107,-0.707107,0.707107,559.604511,251.827897)">
				<text style="font-family: Helvetica; font-size: 10px;fill: rgb(0%,0%,0%); stroke:none;" transform="translate(0,0) scale(1,-1)" x="0" y="0">Gene_02060</text>
			</g>
			<g transform=" matrix(0.707107,0.707107,-0.707107,0.707107,595.12811,251.827897)">
				<text style="font-family: Helvetica; font-size: 10px;fill: rgb(0%,0%,0%); stroke:none;" transform="translate(0,0) scale(1,-1)" x="0" y="0">Gene_02061</text>
			</g>
			<g transform=" matrix(0.707107,-0.707107,0.707107,0.707107,655.035299,169.825647)">
				<text style="font-family: Helvetica; font-size: 10px;fill: rgb(0%,0%,0%); stroke:none;" transform="translate(0,0) scale(1,-1)" x="0" y="0">Gene_02062</text>
			</g>
			<g transform=" matrix(0.707107,-0.707107,0.707107,0.707107,709.253971,169.825647)">
				<text style="font-family: Helvetica; font-size: 16px;fill: rgb(0%,0%,100%); stroke:none;" transform="translate(0,0) scale(1,-1)" x="0" y="0">Gene_02063 (80.5)</text>
			</g>
			<g transform=" matrix(0.707107,-0.707107,0.707107,0.707107,783.323195,169.825647)">
				<text style="font-family: Helvetica; font-size: 10px;fill: rgb(0%,0%,0%); stroke:none;" transform="translate(0,0) scale(1,-1)" x="0" y="0">Gene_02064</text>
			</g>
			<g transform=" matrix(0.707107,-0.707107,0.707107,0.707107,864.680831,169.825647)">
				<text style="font-family: Helvetica; font-size: 10px;fill: rgb(0%,0%,0%); stroke:none;" transform="translate(0,0) scale(1,-1)" x="0" y="0">Gene_02065</text>
			</g>
			<g transform=" matrix(0.707107,-0.707107,0.707107,0.707107,912.736944,169.825647)">
				<text style="font-family: Helvetica; font-size: 10px;fill: rgb(0%,0%,0%); stroke:none;" transform="translate(0,0) scale(1,-1)" x="0" y="0">Gene_02066</text>
			</g>
			<g transform=" matrix(0.707107,-0.707107,0.707107,0.707107,976.732753,169.825647)">
				<text style="font-family: Helvetica; font-size: 10px;fill: rgb(0%,0%,0%); stroke:none;" transform="translate(0,0) scale(1,-1)" x="0" y="0">Gene_02067</text>
			</g>
			<g transform=" matrix(0.707107,-0.707107,0.707107,0.707107,1019.722531,169.825647)">
				<text style="font-family: Helvetica; font-size: 10px;fill: rgb(0%,0%,0%); stroke:none;" transform="translate(0,0) scale(1,-1)" x="0" y="0">Gene_02068</text>
			</g>
			<g transform=" matrix(0.707107,-0.707107,0.707107,0.707107,1071.896893,169.825647)">
				<text style="font-family: Helvetica; font-size: 10px;fill: rgb(0%,0%,0%); stroke:none;" transform="translate(0,0) scale(1,-1)" x="0" y="0">Gene_02069</text>
			</g>
			<g transform=" matrix(0.707107,-0.707107,0.707107,0.707107,1127.745088,169.825647)">
				<text style="font-family: Helvetica; font-size: 10px;fill: rgb(0%,0%,0%); stroke:none;" transform="translate(0,0) scale(1,-1)" x="0" y="0">Gene_02070</text>
			</g>
			<g transform=" matrix(0.707107,-0.707107,0.707107,0.707107,1202.466121,169.825647)">
				<text style="font-family: Helvetica; font-size: 10px;fill: rgb(0%,0%,0%); stroke:none;" transform="translate(0,0) scale(1,-1)" x="0" y="0">Gene_02071</text>
			</g>
			<g transform=" matrix(0.707107,0.707107,-0.707107,0.707107,1298.519091,251.827897)">
				<text style="font-family: Helvetica; font-size: 10px;fill: rgb(0%,0%,0%); stroke:none;" transform="translate(0,0) scale(1,-1)" x="0" y="0">Gene_02072</text>
			</g>
			<g transform=" matrix(0.707107,0.707107,-0.707107,0.707107,147.364836,538.835771)">
				<text style="font-family: Helvetica; font-size: 10px;fill: rgb(0%,0%,0%); stroke:none;" transform="translate(0,0) scale(1,-1)" x="0" y="0">Gene_00007</text>
			</g>
			<g transform=" matrix(0.707107,0.707107,-0.707107,0.707107,277.400766,538.835771)">
				<text style="font-family: Helvetica; font-size: 10px;fill: rgb(0%,0%,0%); stroke:none;" transform="translate(0,0) scale(1,-1)" x="0" y="0">Gene_00008</text>
			</g>
			<g transform=" matrix(0.707107,0.707107,-0.707107,0.707107,335.559921,538.835771)">
				<text style="font-family: Helvetica; font-size: 10px;fill: rgb(0%,0%,0%); stroke:none;" transform="translate(0,0) scale(1,-1)" x="0" y="0">Gene_00009</text>
			</g>
			<g transform=" matrix(0.707107,0.707107,-0.707107,0.707107,373.187087,538.835771)">
				<text style="font-family: Helvetica; font-size: 10px;fill: rgb(0%,0%,0%); stroke:none;" transform="translate(0,0) scale(1,-1)" x="0" y="0">Gene_00010</text>
			</g>
			<g transform=" matrix(0.707107,0.707107,-0.707107,0.707107,410.814253,538.835771)">
				<text style="font-family: Helvetica; font-size: 10px;fill: rgb(0%,0%,0%); stroke:none;" transform="translate(0,0) scale(1,-1)" x="0" y="0">Gene_00011</text>
			</g>
			<g transform=" matrix(0.707107,0.707107,-0.707107,0.707107,448.67844,538.835771)">
				<text style="font-family: Helvetica; font-size: 10px;fill: rgb(0%,0%,0%); stroke:none;" transform="translate(0,0) scale(1,-1)" x="0" y="0">Gene_00012</text>
			</g>
			<g transform=" matrix(0.707107,0.707107,-0.707107,0.707107,482.039219,538.835771)">
				<text style="font-family: Helvetica; font-size: 10px;fill: rgb(0%,0%,0%); stroke:none;" transform="translate(0,0) scale(1,-1)" x="0" y="0">Gene_00013</text>
			</g>
			<g transform=" matrix(0.707107,0.707107,-0.707107,0.707107,506.482063,538.835771)">
				<text style="font-family: Helvetica; font-size: 10px;fill: rgb(0%,0%,0%); stroke:none;" transform="translate(0,0) scale(1,-1)" x="0" y="0">Gene_00014</text>
			</g>
			<g transform=" matrix(0.707107,0.707107,-0.707107,0.707107,524.673464,538.835771)">
				<text style="font-family: Helvetica; font-size: 10px;fill: rgb(0%,0%,0%); stroke:none;" transform="translate(0,0) scale(1,-1)" x="0" y="0">Gene_00015</text>
			</g>
			<g transform=" matrix(0.707107,0.707107,-0.707107,0.707107,606.979186,538.835771)">
				<text style="font-family: Helvetica; font-size: 10px;fill: rgb(0%,0%,0%); stroke:none;" transform="translate(0,0) scale(1,-1)" x="0" y="0">Gene_00016</text>
			</g>
			<g transform=" matrix(0.707107,0.707107,-0.707107,0.707107,681.226177,538.835771)">
				<text style="font-family: Helvetica; font-size: 16px;fill: rgb(0%,0%,100%); stroke:none;" transform="translate(0,0) scale(1,-1)" x="0" y="0">Gene_00017 (80.5)</text>
			</g>
			<g transform=" matrix(0.707107,0.707107,-0.707107,0.707107,735.1782,538.835771)">
				<text style="font-family: Helvetica; font-size: 10px;fill: rgb(0%,0%,0%); stroke:none;" transform="translate(0,0) scale(1,-1)" x="0" y="0">Gene_00018</text>
			</g>
			<g transform=" matrix(0.707107,-0.707107,0.707107,0.707107,798.166668,456.833521)">
				<text style="font-family: Helvetica; font-size: 10px;fill: rgb(0%,0%,0%); stroke:none;" transform="translate(0,0) scale(1,-1)" x="0" y="0">Gene_00019</text>
			</g>
			<g transform=" matrix(0.707107,-0.707107,0.707107,0.707107,843.200756,456.833521)">
				<text style="font-family: Helvetica; font-size: 10px;fill: rgb(0%,0%,0%); stroke:none;" transform="translate(0,0) scale(1,-1)" x="0" y="0">Gene_00020</text>
			</g>
			<g transform=" matrix(0.707107,0.707107,-0.707107,0.707107,906.75215,538.835771)">
				<text style="font-family: Helvetica; font-size: 10px;fill: rgb(0%,0%,0%); stroke:none;" transform="translate(0,0) scale(1,-1)" x="0" y="0">Gene_00021</text>
			</g>
			<g transform=" matrix(0.707107,0.707107,-0.707107,0.707107,1005.471612,538.835771)">
				<text style="font-family: Helvetica; font-size: 10px;fill: rgb(0%,0%,0%); stroke:none;" transform="translate(0,0) scale(1,-1)" x="0" y="0">Gene_00022</text>
			</g>
			<g transform=" matrix(0.707107,0.707107,-0.707107,0.707107,1072.104287,538.835771)">
				<text style="font-family: Helvetica; font-size: 10px;fill: rgb(0%,0%,0%); stroke:none;" transform="translate(0,0) scale(1,-1)" x="0" y="0">Gene_00023</text>
			</g>
			<g transform=" matrix(0.707107,0.707107,-0.707107,0.707107,1128.574663,538.835771)">
				<text style="font-family: Helvetica; font-size: 10px;fill: rgb(0%,0%,0%); stroke:none;" transform="translate(0,0) scale(1,-1)" x="0" y="0">Gene_00024</text>
			</g>
			<g transform=" matrix(0.707107,0.707107,-0.707107,0.707107,1203.917878,538.835771)">
				<text style="font-family: Helvetica; font-size: 10px;fill: rgb(0%,0%,0%); stroke:none;" transform="translate(0,0) scale(1,-1)" x="0" y="0">Gene_00025</text>
			</g>
			<g transform=" matrix(0.707107,-0.707107,0.707107,0.707107,1278.78705,456.833521)">
				<text style="font-family: Helvetica; font-size: 10px;fill: rgb(0%,0%,0%); stroke:none;" transform="translate(0,0) scale(1,-1)" x="0" y="0">Gene_00026</text>
			</g>
			<g transform=" matrix(1,0,-0,1,70,169.825647)">
				<text style="font-family: Helvetica; font-size: 12px;fill: rgb(60%,60%,60%); stroke:none;" transform="translate(0,0) scale(1,-1)" x="0" y="0">megahit_34893 (left 54821bp, right 22579bp)</text>
			</g>
			<g transform=" matrix(1,0,-0,1,70,456.833521)">
				<text style="font-family: Helvetica; font-size: 12px;fill: rgb(60%,60%,60%); stroke:none;" transform="translate(0,0) scale(1,-1)" x="0" y="0">megahit_1158 (left 11910bp, right 23204bp)</text>
			</g>
		</g>
	</g>
</svg>
