<?xml version="1.0" encoding="utf-8"?>
<!DOCTYPE svg
  PUBLIC '-//W3C//DTD SVG 1.0//EN'
  'http://www.w3.org/TR/2001/REC-SVG-20010904/DTD/svg10.dtd'>
<svg fill-rule="evenodd" height="708.6614173228346" preserveAspectRatio="xMinYMin meet" version="1.0" viewBox="0 0 1417 708" width="1417.3228346456692" xmlns="http://www.w3.org/2000/svg" xmlns:xlink="http://www.w3.org/1999/xlink">
	<title>...</title>
	<desc>...</desc>
	<clipPath id="clip">
		<rect height="708.6614173228346" width="1417.3228346456692" x="0" y="0"/>
	</clipPath>
	<g id="group" style="clip-path: url(#clip)" transform="scale(1,-1) translate(0,-708)">
		<g transform="">
			<polygon points="70.86614 169.8256, 843.449 169.8256, 843.449 251.8279, 70.86614 251.8279" style="stroke: rgb(96%,96%,96%); stroke-linecap: butt; stroke-width: 1; fill: rgb(96%,96%,96%); fill-rule: evenodd;"/>
			<polygon points="70.86614 456.8335, 1346.404 456.8335, 1346.404 538.8358, 70.86614 538.8358" style="stroke: rgb(96%,96%,96%); stroke-linecap: butt; stroke-width: 1; fill: rgb(96%,96%,96%); fill-rule: evenodd;"/>
			<polygon points="526.925 456.8335, 694.3145 456.8335, 646.474 251.8279, 480.1336 251.8279" style="stroke: rgb(100%,37%,37%); stroke-linecap: round; stroke-width: 1; fill: rgb(100%,37%,37%); fill-rule: evenodd;"/>
			<polygon points="698.3537 456.8335, 788.4743 456.8335, 771.2161 251.8279, 680.8856 251.8279" style="stroke: rgb(100%,32%,32%); stroke-linecap: round; stroke-width: 1; fill: rgb(100%,32%,32%); fill-rule: evenodd;"/>
			<polygon points="666.2501 456.8335, 678.9971 456.8335, 463.0852 251.8279, 475.8322 251.8279" style="stroke: rgb(100%,62%,62%); stroke-linecap: round; stroke-width: 1; fill: rgb(100%,62%,62%); fill-rule: evenodd;"/>
			<polygon points="162.5605 200.5765, 87.26659 200.5765, 87.26659 210.8268, 70.86614 190.3262, 87.26659 169.8256, 87.26659 180.0759, 162.5605 180.0759" style="stroke: rgb(56%,93%,56%); stroke-linecap: round; stroke-width: 1; fill: rgb(56%,93%,56%); fill-rule: evenodd;"/>
			<polygon points="215.0697 200.5765, 179.7478 200.5765, 179.7478 210.8268, 163.3474 190.3262, 179.7478 169.8256, 179.7478 180.0759, 215.0697 180.0759" style="stroke: rgb(56%,93%,56%); stroke-linecap: round; stroke-width: 1; fill: rgb(56%,93%,56%); fill-rule: evenodd;"/>
			<polygon points="297.8465 200.5765, 231.8374 200.5765, 231.8374 210.8268, 215.4369 190.3262, 231.8374 169.8256, 231.8374 180.0759, 297.8465 180.0759" style="stroke: rgb(56%,93%,56%); stroke-linecap: round; stroke-width: 1; fill: rgb(56%,93%,56%); fill-rule: evenodd;"/>
			<polygon points="414.9299 200.5765, 318.391 200.5765, 318.391 210.8268, 301.9905 190.3262, 318.391 169.8256, 318.391 180.0759, 414.9299 180.0759" style="stroke: rgb(56%,93%,56%); stroke-linecap: round; stroke-width: 1; fill: rgb(56%,93%,56%); fill-rule: evenodd;"/>
			<polygon points="476.5666 200.5765, 464.6928 200.5765, 464.6928 210.8268, 448.2924 190.3262, 464.6928 169.8256, 464.6928 180.0759, 476.5666 180.0759" style="stroke: rgb(56%,93%,56%); stroke-linecap: round; stroke-width: 1; fill: rgb(56%,93%,56%); fill-rule: evenodd;"/>
			<polygon points="595.5909 200.5765, 496.5341 200.5765, 496.5341 210.8268, 480.1336 190.3262, 496.5341 169.8256, 496.5341 180.0759, 595.5909 180.0759" style="stroke: rgb(56%,93%,56%); stroke-linecap: round; stroke-width: 1; fill: rgb(56%,93%,56%); fill-rule: evenodd;"/>
			<polygon points="617.6752 241.5776, 630.021 241.5776, 630.021 251.8279, 646.4215 231.3273, 630.021 210.8268, 630.021 221.0771, 617.6752 221.0771" style="stroke: rgb(67%,84%,90%); stroke-linecap: round; stroke-width: 1; fill: rgb(67%,84%,90%); fill-rule: evenodd;"/>
			<polygon points="673.1744 200.5765, 663.6613 200.5765, 663.6613 210.8268, 647.2608 190.3262, 663.6613 169.8256, 663.6613 180.0759, 673.1744 180.0759" style="stroke: rgb(56%,93%,56%); stroke-linecap: round; stroke-width: 1; fill: rgb(56%,93%,56%); fill-rule: evenodd;"/>
			<polygon points="756.5282 200.5765, 697.286 200.5765, 697.286 210.8268, 680.8856 190.3262, 697.286 169.8256, 697.286 180.0759, 756.5282 180.0759" style="stroke: rgb(56%,93%,56%); stroke-linecap: round; stroke-width: 1; fill: rgb(56%,93%,56%); fill-rule: evenodd;"/>
			<polygon points="826.0858 200.5765, 779.2759 200.5765, 779.2759 210.8268, 762.8755 190.3262, 779.2759 169.8256, 779.2759 180.0759, 826.0858 180.0759" style="stroke: rgb(56%,93%,56%); stroke-linecap: round; stroke-width: 1; fill: rgb(56%,93%,56%); fill-rule: evenodd;"/>
			<polygon points="838.9377 200.5765, 838.9377 210.8268, 824.04 190.3262, 838.9377 169.8256, 838.9377 180.0759" style="stroke: rgb(56%,93%,56%); stroke-linecap: round; stroke-width: 1; fill: rgb(56%,93%,56%); fill-rule: evenodd;"/>
			<polygon points="70.86614 528.5855, 165.5166 528.5855, 165.5166 538.8358, 181.9171 518.3352, 165.5166 497.8346, 165.5166 508.0849, 70.86614 508.0849" style="stroke: rgb(67%,84%,90%); stroke-linecap: round; stroke-width: 1; fill: rgb(67%,84%,90%); fill-rule: evenodd;"/>
			<polygon points="182.0744 528.5855, 219.5995 528.5855, 219.5995 538.8358, 236 518.3352, 219.5995 497.8346, 219.5995 508.0849, 182.0744 508.0849" style="stroke: rgb(67%,84%,90%); stroke-linecap: round; stroke-width: 1; fill: rgb(67%,84%,90%); fill-rule: evenodd;"/>
			<polygon points="236 528.5855, 494.4728 528.5855, 494.4728 538.8358, 510.8733 518.3352, 494.4728 497.8346, 494.4728 508.0849, 236 508.0849" style="stroke: rgb(67%,84%,90%); stroke-linecap: round; stroke-width: 1; fill: rgb(67%,84%,90%); fill-rule: evenodd;"/>
			<polygon points="643.4839 487.5844, 543.3255 487.5844, 543.3255 497.8346, 526.925 477.3341, 543.3255 456.8335, 543.3255 467.0838, 643.4839 467.0838" style="stroke: rgb(56%,93%,56%); stroke-linecap: round; stroke-width: 1; fill: rgb(56%,93%,56%); fill-rule: evenodd;"/>
			<polygon points="665.5157 528.5855, 677.8616 528.5855, 677.8616 538.8358, 694.262 518.3352, 677.8616 497.8346, 677.8616 508.0849, 665.5157 508.0849" style="stroke: rgb(67%,84%,90%); stroke-linecap: round; stroke-width: 1; fill: rgb(67%,84%,90%); fill-rule: evenodd;"/>
			<polygon points="773.9963 487.5844, 714.7541 487.5844, 714.7541 497.8346, 698.3537 477.3341, 714.7541 456.8335, 714.7541 467.0838, 773.9963 467.0838" style="stroke: rgb(56%,93%,56%); stroke-linecap: round; stroke-width: 1; fill: rgb(56%,93%,56%); fill-rule: evenodd;"/>
			<polygon points="796.133 528.5855, 825.4749 528.5855, 825.4749 538.8358, 841.8753 518.3352, 825.4749 497.8346, 825.4749 508.0849, 796.133 508.0849" style="stroke: rgb(67%,84%,90%); stroke-linecap: round; stroke-width: 1; fill: rgb(67%,84%,90%); fill-rule: evenodd;"/>
			<polygon points="857.8746 528.5855, 904.6845 528.5855, 904.6845 538.8358, 921.085 518.3352, 904.6845 497.8346, 904.6845 508.0849, 857.8746 508.0849" style="stroke: rgb(67%,84%,90%); stroke-linecap: round; stroke-width: 1; fill: rgb(67%,84%,90%); fill-rule: evenodd;"/>
			<polygon points="985.2396 487.5844, 940.0034 487.5844, 940.0034 497.8346, 923.6029 477.3341, 940.0034 456.8335, 940.0034 467.0838, 985.2396 467.0838" style="stroke: rgb(56%,93%,56%); stroke-linecap: round; stroke-width: 1; fill: rgb(56%,93%,56%); fill-rule: evenodd;"/>
			<polygon points="1009.16 528.5855, 1080.047 528.5855, 1080.047 538.8358, 1096.448 518.3352, 1080.047 497.8346, 1080.047 508.0849, 1009.16 508.0849" style="stroke: rgb(67%,84%,90%); stroke-linecap: round; stroke-width: 1; fill: rgb(67%,84%,90%); fill-rule: evenodd;"/>
			<polygon points="1097.025 528.5855, 1111.259 528.5855, 1111.259 538.8358, 1127.66 518.3352, 1111.259 497.8346, 1111.259 508.0849, 1097.025 508.0849" style="stroke: rgb(67%,84%,90%); stroke-linecap: round; stroke-width: 1; fill: rgb(67%,84%,90%); fill-rule: evenodd;"/>
			<polygon points="1131.174 528.5855, 1168.227 528.5855, 1168.227 538.8358, 1184.628 518.3352, 1168.227 497.8346, 1168.227 508.0849, 1131.174 508.0849" style="stroke: rgb(67%,84%,90%); stroke-linecap: round; stroke-width: 1; fill: rgb(67%,84%,90%); fill-rule: evenodd;"/>
			<polygon points="1189.768 528.5855, 1260.341 528.5855, 1260.341 538.8358, 1276.742 518.3352, 1260.341 497.8346, 1260.341 508.0849, 1189.768 508.0849" style="stroke: rgb(67%,84%,90%); stroke-linecap: round; stroke-width: 1; fill: rgb(67%,84%,90%); fill-rule: evenodd;"/>
			<polygon points="1284.453 528.5855, 1330.004 528.5855, 1330.004 538.8358, 1346.404 518.3352, 1330.004 497.8346, 1330.004 508.0849, 1284.453 508.0849" style="stroke: rgb(67%,84%,90%); stroke-linecap: round; stroke-width: 1; fill: rgb(67%,84%,90%); fill-rule: evenodd;"/>
			<path d="M 843.449011,169.825647 L 843.449011,251.827897 Z" style="stroke: rgb(0%,0%,0%); stroke-linecap: butt; stroke-width: 1;"/>
			<path d="M 70.866142,210.826772 L 843.449011,210.826772 Z" style="stroke: rgb(0%,0%,0%); stroke-linecap: butt; stroke-width: 1;"/>
			<path d="M 70.866142,169.825647 L 70.866142,251.827897 Z" style="stroke: rgb(0%,0%,0%); stroke-linecap: butt; stroke-width: 1;"/>
			<path d="M 595.433544,210.826772 L 595.433544,231.327334 Z" style="stroke: rgb(0%,0%,0%); stroke-linecap: butt; stroke-width: 1;"/>
			<path d="M 595.433544,210.826772 L 595.433544,223.127109 Z" style="stroke: rgb(0%,0%,0%); stroke-linecap: butt; stroke-width: 1;"/>
			<path d="M 1346.404236,456.833521 L 1346.404236,538.835771 Z" style="stroke: rgb(0%,0%,0%); stroke-linecap: butt; stroke-width: 1;"/>
			<path d="M 70.866142,497.834646 L 1346.404236,497.834646 Z" style="stroke: rgb(0%,0%,0%); stroke-linecap: butt; stroke-width: 1;"/>
			<path d="M 70.866142,456.833521 L 70.866142,538.835771 Z" style="stroke: rgb(0%,0%,0%); stroke-linecap: butt; stroke-width: 1;"/>
			<path d="M 595.433544,497.834646 L 595.433544,518.335208 Z" style="stroke: rgb(0%,0%,0%); stroke-linecap: butt; stroke-width: 1;"/>
			<path d="M 1120.000946,497.834646 L 1120.000946,518.335208 Z" style="stroke: rgb(0%,0%,0%); stroke-linecap: butt; stroke-width: 1;"/>
			<path d="M 595.433544,497.834646 L 595.433544,510.134983 Z" style="stroke: rgb(0%,0%,0%); stroke-linecap: butt; stroke-width: 1;"/>
			<path d="M 1120.000946,497.834646 L 1120.000946,510.134983 Z" style="stroke: rgb(0%,0%,0%); stroke-linecap: butt; stroke-width: 1;"/>
			<g transform=" matrix(0.707107,0.707107,-0.707107,0.707107,595.433544,231.327334)">
				<text style="font-family: Helvetica; font-size: 6px;fill: rgb(0%,0%,0%); stroke:none;" transform="translate(0,0) scale(1,-1)" x="0" y="0">10000</text>
			</g>
			<g transform=" matrix(0.707107,0.707107,-0.707107,0.707107,595.433544,518.335208)">
				<text style="font-family: Helvetica; font-size: 6px;fill: rgb(0%,0%,0%); stroke:none;" transform="translate(0,0) scale(1,-1)" x="0" y="0">10000</text>
			</g>
			<g transform=" matrix(0.707107,0.707107,-0.707107,0.707107,1120.000946,518.335208)">
				<text style="font-family: Helvetica; font-size: 6px;fill: rgb(0%,0%,0%); stroke:none;" transform="translate(0,0) scale(1,-1)" x="0" y="0">20000</text>
			</g>
			<g transform=" matrix(0.707107,-0.707107,0.707107,0.707107,116.713333,169.825647)">
				<text style="font-family: Helvetica; font-size: 10px;fill: rgb(0%,0%,0%); stroke:none;" transform="translate(0,0) scale(1,-1)" x="0" y="0">Gene_00450</text>
			</g>
			<g transform=" matrix(0.707107,-0.707107,0.707107,0.707107,189.208548,169.825647)">
				<text style="font-family: Helvetica; font-size: 10px;fill: rgb(0%,0%,0%); stroke:none;" transform="translate(0,0) scale(1,-1)" x="0" y="0">Gene_00451</text>
			</g>
			<g transform=" matrix(0.707107,-0.707107,0.707107,0.707107,256.641687,169.825647)">
				<text style="font-family: Helvetica; font-size: 10px;fill: rgb(0%,0%,0%); stroke:none;" transform="translate(0,0) scale(1,-1)" x="0" y="0">Gene_00452</text>
			</g>
			<g transform=" matrix(0.707107,-0.707107,0.707107,0.707107,358.46022,169.825647)">
				<text style="font-family: Helvetica; font-size: 10px;fill: rgb(0%,0%,0%); stroke:none;" transform="translate(0,0) scale(1,-1)" x="0" y="0">Gene_00453</text>
			</g>
			<g transform=" matrix(0.707107,-0.707107,0.707107,0.707107,462.429479,169.825647)">
				<text style="font-family: Helvetica; font-size: 10px;fill: rgb(0%,0%,0%); stroke:none;" transform="translate(0,0) scale(1,-1)" x="0" y="0">Gene_00454</text>
			</g>
			<g transform=" matrix(0.707107,-0.707107,0.707107,0.707107,537.862271,169.825647)">
				<text style="font-family: Helvetica; font-size: 10px;fill: rgb(0%,0%,0%); stroke:none;" transform="translate(0,0) scale(1,-1)" x="0" y="0">Gene_00455</text>
			</g>
			<g transform=" matrix(0.707107,0.707107,-0.707107,0.707107,632.048348,251.827897)">
				<text style="font-family: Helvetica; font-size: 10px;fill: rgb(0%,0%,0%); stroke:none;" transform="translate(0,0) scale(1,-1)" x="0" y="0">Gene_00456</text>
			</g>
			<g transform=" matrix(0.707107,-0.707107,0.707107,0.707107,660.217618,169.825647)">
				<text style="font-family: Helvetica; font-size: 10px;fill: rgb(0%,0%,0%); stroke:none;" transform="translate(0,0) scale(1,-1)" x="0" y="0">Gene_00457</text>
			</g>
			<g transform=" matrix(0.707107,-0.707107,0.707107,0.707107,718.706883,169.825647)">
				<text style="font-family: Helvetica; font-size: 16px;fill: rgb(0%,0%,100%); stroke:none;" transform="translate(0,0) scale(1,-1)" x="0" y="0">Gene_00458 (86.0)</text>
			</g>
			<g transform=" matrix(0.707107,-0.707107,0.707107,0.707107,794.480644,169.825647)">
				<text style="font-family: Helvetica; font-size: 10px;fill: rgb(0%,0%,0%); stroke:none;" transform="translate(0,0) scale(1,-1)" x="0" y="0">Gene_00459</text>
			</g>
			<g transform=" matrix(0.707107,-0.707107,0.707107,0.707107,831.488874,169.825647)">
				<text style="font-family: Helvetica; font-size: 10px;fill: rgb(0%,0%,0%); stroke:none;" transform="translate(0,0) scale(1,-1)" x="0" y="0">Gene_00460</text>
			</g>
			<g transform=" matrix(0.707107,0.707107,-0.707107,0.707107,126.391601,538.835771)">
				<text style="font-family: Helvetica; font-size: 10px;fill: rgb(0%,0%,0%); stroke:none;" transform="translate(0,0) scale(1,-1)" x="0" y="0">Gene_01476</text>
			</g>
			<g transform=" matrix(0.707107,0.707107,-0.707107,0.707107,209.037195,538.835771)">
				<text style="font-family: Helvetica; font-size: 10px;fill: rgb(0%,0%,0%); stroke:none;" transform="translate(0,0) scale(1,-1)" x="0" y="0">Gene_01477</text>
			</g>
			<g transform=" matrix(0.707107,0.707107,-0.707107,0.707107,373.436619,538.835771)">
				<text style="font-family: Helvetica; font-size: 10px;fill: rgb(0%,0%,0%); stroke:none;" transform="translate(0,0) scale(1,-1)" x="0" y="0">Gene_01478</text>
			</g>
			<g transform=" matrix(0.707107,-0.707107,0.707107,0.707107,585.204479,456.833521)">
				<text style="font-family: Helvetica; font-size: 10px;fill: rgb(0%,0%,0%); stroke:none;" transform="translate(0,0) scale(1,-1)" x="0" y="0">Gene_01479</text>
			</g>
			<g transform=" matrix(0.707107,0.707107,-0.707107,0.707107,679.888895,538.835771)">
				<text style="font-family: Helvetica; font-size: 10px;fill: rgb(0%,0%,0%); stroke:none;" transform="translate(0,0) scale(1,-1)" x="0" y="0">Gene_01480</text>
			</g>
			<g transform=" matrix(0.707107,-0.707107,0.707107,0.707107,736.174978,456.833521)">
				<text style="font-family: Helvetica; font-size: 16px;fill: rgb(0%,0%,100%); stroke:none;" transform="translate(0,0) scale(1,-1)" x="0" y="0">Gene_01481 (86.0)</text>
			</g>
			<g transform=" matrix(0.707107,0.707107,-0.707107,0.707107,819.00417,538.835771)">
				<text style="font-family: Helvetica; font-size: 10px;fill: rgb(0%,0%,0%); stroke:none;" transform="translate(0,0) scale(1,-1)" x="0" y="0">Gene_01482</text>
			</g>
			<g transform=" matrix(0.707107,0.707107,-0.707107,0.707107,889.479801,538.835771)">
				<text style="font-family: Helvetica; font-size: 10px;fill: rgb(0%,0%,0%); stroke:none;" transform="translate(0,0) scale(1,-1)" x="0" y="0">Gene_01483</text>
			</g>
			<g transform=" matrix(0.707107,-0.707107,0.707107,0.707107,954.421245,456.833521)">
				<text style="font-family: Helvetica; font-size: 10px;fill: rgb(0%,0%,0%); stroke:none;" transform="translate(0,0) scale(1,-1)" x="0" y="0">Gene_01484</text>
			</g>
			<g transform=" matrix(0.707107,0.707107,-0.707107,0.707107,1052.803861,538.835771)">
				<text style="font-family: Helvetica; font-size: 10px;fill: rgb(0%,0%,0%); stroke:none;" transform="translate(0,0) scale(1,-1)" x="0" y="0">Gene_01485</text>
			</g>
			<g transform=" matrix(0.707107,0.707107,-0.707107,0.707107,1112.342261,538.835771)">
				<text style="font-family: Helvetica; font-size: 10px;fill: rgb(0%,0%,0%); stroke:none;" transform="translate(0,0) scale(1,-1)" x="0" y="0">Gene_01486</text>
			</g>
			<g transform=" matrix(0.707107,0.707107,-0.707107,0.707107,1157.90094,538.835771)">
				<text style="font-family: Helvetica; font-size: 10px;fill: rgb(0%,0%,0%); stroke:none;" transform="translate(0,0) scale(1,-1)" x="0" y="0">Gene_01487</text>
			</g>
			<g transform=" matrix(0.707107,0.707107,-0.707107,0.707107,1233.255048,538.835771)">
				<text style="font-family: Helvetica; font-size: 10px;fill: rgb(0%,0%,0%); stroke:none;" transform="translate(0,0) scale(1,-1)" x="0" y="0">Gene_01488</text>
			</g>
			<g transform=" matrix(0.707107,0.707107,-0.707107,0.707107,1315.428531,538.835771)">
				<text style="font-family: Helvetica; font-size: 10px;fill: rgb(0%,0%,0%); stroke:none;" transform="translate(0,0) scale(1,-1)" x="0" y="0">Gene_01489</text>
			</g>
			<g transform=" matrix(1,0,-0,1,70,169.825647)">
				<text style="font-family: Helvetica; font-size: 12px;fill: rgb(60%,60%,60%); stroke:none;" transform="translate(0,0) scale(1,-1)" x="0" y="0">megahit_17669 (left 50476bp, right 1657bp)</text>
			</g>
			<g transform=" matrix(1,0,-0,1,70,456.833521)">
				<text style="font-family: Helvetica; font-size: 12px;fill: rgb(60%,60%,60%); stroke:none;" transform="translate(0,0) scale(1,-1)" x="0" y="0">megahit_72927 (left 120597bp, right 46885bp)</text>
			</g>
		</g>
	</g>
</svg>
