<?xml version="1.0" encoding="utf-8"?>
<!DOCTYPE svg
  PUBLIC '-//W3C//DTD SVG 1.0//EN'
  'http://www.w3.org/TR/2001/REC-SVG-20010904/DTD/svg10.dtd'>
<svg fill-rule="evenodd" height="708.6614173228346" preserveAspectRatio="xMinYMin meet" version="1.0" viewBox="0 0 1417 708" width="1417.3228346456692" xmlns="http://www.w3.org/2000/svg" xmlns:xlink="http://www.w3.org/1999/xlink">
	<title>...</title>
	<desc>...</desc>
	<clipPath id="clip">
		<rect height="708.6614173228346" width="1417.3228346456692" x="0" y="0"/>
	</clipPath>
	<g id="group" style="clip-path: url(#clip)" transform="scale(1,-1) translate(0,-708)">
		<g transform="">
			<polygon points="70.86614 169.8256, 727.7612 169.8256, 727.7612 251.8279, 70.86614 251.8279" style="stroke: rgb(96%,96%,96%); stroke-linecap: butt; stroke-width: 1; fill: rgb(96%,96%,96%); fill-rule: evenodd;"/>
			<polygon points="70.86614 456.8335, 1346.341 456.8335, 1346.341 538.8358, 70.86614 538.8358" style="stroke: rgb(96%,96%,96%); stroke-linecap: butt; stroke-width: 1; fill: rgb(96%,96%,96%); fill-rule: evenodd;"/>
			<polygon points="741.4946 456.8335, 1001.506 456.8335, 70.98155 251.8279, 330.8775 251.8279" style="stroke: rgb(100%,20%,20%); stroke-linecap: round; stroke-width: 1; fill: rgb(100%,20%,20%); fill-rule: evenodd;"/>
			<polygon points="617.4324 456.8335, 646.3995 456.8335, 698.6787 251.8279, 727.6458 251.8279" style="stroke: rgb(100%,22%,22%); stroke-linecap: round; stroke-width: 1; fill: rgb(100%,22%,22%); fill-rule: evenodd;"/>
			<polygon points="116.798 200.5765, 95.9221 200.5765, 95.9221 210.8268, 79.52165 190.3262, 95.9221 169.8256, 95.9221 180.0759, 116.798 180.0759" style="stroke: rgb(56%,93%,56%); stroke-linecap: round; stroke-width: 1; fill: rgb(56%,93%,56%); fill-rule: evenodd;"/>
			<polygon points="313.7973 200.5765, 135.3912 200.5765, 135.3912 210.8268, 118.9907 190.3262, 135.3912 169.8256, 135.3912 180.0759, 313.7973 180.0759" style="stroke: rgb(56%,93%,56%); stroke-linecap: round; stroke-width: 1; fill: rgb(56%,93%,56%); fill-rule: evenodd;"/>
			<polygon points="328.1077 200.5765, 328.1077 210.8268, 312.6432 190.3262, 328.1077 169.8256, 328.1077 180.0759" style="stroke: rgb(56%,93%,56%); stroke-linecap: round; stroke-width: 1; fill: rgb(56%,93%,56%); fill-rule: evenodd;"/>
			<polygon points="330.6467 241.5776, 416.9582 241.5776, 416.9582 251.8279, 433.3587 231.3273, 416.9582 210.8268, 416.9582 221.0771, 330.6467 221.0771" style="stroke: rgb(67%,84%,90%); stroke-linecap: round; stroke-width: 1; fill: rgb(67%,84%,90%); fill-rule: evenodd;"/>
			<polygon points="499.6021 241.5776, 612.2264 241.5776, 612.2264 251.8279, 628.6269 231.3273, 612.2264 210.8268, 612.2264 221.0771, 499.6021 221.0771" style="stroke: rgb(67%,84%,90%); stroke-linecap: round; stroke-width: 1; fill: rgb(67%,84%,90%); fill-rule: evenodd;"/>
			<polygon points="630.0117 241.5776, 672.6995 241.5776, 672.6995 251.8279, 689.1 231.3273, 672.6995 210.8268, 672.6995 221.0771, 630.0117 221.0771" style="stroke: rgb(67%,84%,90%); stroke-linecap: round; stroke-width: 1; fill: rgb(67%,84%,90%); fill-rule: evenodd;"/>
			<polygon points="718.9903 200.5765, 711.617 200.5765, 711.617 210.8268, 695.2165 190.3262, 711.617 169.8256, 711.617 180.0759, 718.9903 180.0759" style="stroke: rgb(56%,93%,56%); stroke-linecap: round; stroke-width: 1; fill: rgb(56%,93%,56%); fill-rule: evenodd;"/>
			<polygon points="77.67514 528.5855, 633.115 528.5855, 633.115 538.8358, 649.5155 518.3352, 633.115 497.8346, 633.115 508.0849, 77.67514 508.0849" style="stroke: rgb(67%,84%,90%); stroke-linecap: round; stroke-width: 1; fill: rgb(67%,84%,90%); fill-rule: evenodd;"/>
			<polygon points="700.2944 487.5844, 670.4168 487.5844, 670.4168 497.8346, 654.0163 477.3341, 670.4168 456.8335, 670.4168 467.0838, 700.2944 467.0838" style="stroke: rgb(56%,93%,56%); stroke-linecap: round; stroke-width: 1; fill: rgb(56%,93%,56%); fill-rule: evenodd;"/>
			<polygon points="731.9159 487.5844, 714.8484 487.5844, 714.8484 497.8346, 698.4479 477.3341, 714.8484 456.8335, 714.8484 467.0838, 731.9159 467.0838" style="stroke: rgb(56%,93%,56%); stroke-linecap: round; stroke-width: 1; fill: rgb(56%,93%,56%); fill-rule: evenodd;"/>
			<polygon points="744.3798 528.5855, 744.3798 538.8358, 759.8443 518.3352, 744.3798 497.8346, 744.3798 508.0849" style="stroke: rgb(67%,84%,90%); stroke-linecap: round; stroke-width: 1; fill: rgb(67%,84%,90%); fill-rule: evenodd;"/>
			<polygon points="758.6902 528.5855, 937.0963 528.5855, 937.0963 538.8358, 953.4968 518.3352, 937.0963 497.8346, 937.0963 508.0849, 758.6902 508.0849" style="stroke: rgb(67%,84%,90%); stroke-linecap: round; stroke-width: 1; fill: rgb(67%,84%,90%); fill-rule: evenodd;"/>
			<polygon points="955.6895 528.5855, 976.5654 528.5855, 976.5654 538.8358, 992.9659 518.3352, 976.5654 497.8346, 976.5654 508.0849, 955.6895 508.0849" style="stroke: rgb(67%,84%,90%); stroke-linecap: round; stroke-width: 1; fill: rgb(67%,84%,90%); fill-rule: evenodd;"/>
			<polygon points="992.158 528.5855, 1084.702 528.5855, 1084.702 538.8358, 1101.102 518.3352, 1084.702 497.8346, 1084.702 508.0849, 992.158 508.0849" style="stroke: rgb(67%,84%,90%); stroke-linecap: round; stroke-width: 1; fill: rgb(67%,84%,90%); fill-rule: evenodd;"/>
			<polygon points="1114.028 528.5855, 1149.791 528.5855, 1149.791 538.8358, 1166.191 518.3352, 1149.791 497.8346, 1149.791 508.0849, 1114.028 508.0849" style="stroke: rgb(67%,84%,90%); stroke-linecap: round; stroke-width: 1; fill: rgb(67%,84%,90%); fill-rule: evenodd;"/>
			<polygon points="1165.845 528.5855, 1300.281 528.5855, 1300.281 538.8358, 1316.682 518.3352, 1300.281 497.8346, 1300.281 508.0849, 1165.845 508.0849" style="stroke: rgb(67%,84%,90%); stroke-linecap: round; stroke-width: 1; fill: rgb(67%,84%,90%); fill-rule: evenodd;"/>
			<polygon points="1319.105 528.5855, 1328.556 528.5855, 1328.556 538.8358, 1344.956 518.3352, 1328.556 497.8346, 1328.556 508.0849, 1319.105 508.0849" style="stroke: rgb(67%,84%,90%); stroke-linecap: round; stroke-width: 1; fill: rgb(67%,84%,90%); fill-rule: evenodd;"/>
			<path d="M 727.761231,169.825647 L 727.761231,251.827897 Z" style="stroke: rgb(0%,0%,0%); stroke-linecap: butt; stroke-width: 1;"/>
			<path d="M 70.866142,210.826772 L 727.761231,210.826772 Z" style="stroke: rgb(0%,0%,0%); stroke-linecap: butt; stroke-width: 1;"/>
			<path d="M 70.866142,169.825647 L 70.866142,251.827897 Z" style="stroke: rgb(0%,0%,0%); stroke-linecap: butt; stroke-width: 1;"/>
			<path d="M 1346.341286,456.833521 L 1346.341286,538.835771 Z" style="stroke: rgb(0%,0%,0%); stroke-linecap: butt; stroke-width: 1;"/>
			<path d="M 70.866142,497.834646 L 1346.341286,497.834646 Z" style="stroke: rgb(0%,0%,0%); stroke-linecap: butt; stroke-width: 1;"/>
			<path d="M 70.866142,456.833521 L 70.866142,538.835771 Z" style="stroke: rgb(0%,0%,0%); stroke-linecap: butt; stroke-width: 1;"/>
			<path d="M 1224.93341,497.834646 L 1224.93341,518.335208 Z" style="stroke: rgb(0%,0%,0%); stroke-linecap: butt; stroke-width: 1;"/>
			<path d="M 1224.93341,497.834646 L 1224.93341,510.134983 Z" style="stroke: rgb(0%,0%,0%); stroke-linecap: butt; stroke-width: 1;"/>
			<g transform=" matrix(0.707107,0.707107,-0.707107,0.707107,1224.93341,518.335208)">
				<text style="font-family: Helvetica; font-size: 6px;fill: rgb(0%,0%,0%); stroke:none;" transform="translate(0,0) scale(1,-1)" x="0" y="0">10000</text>
			</g>
			<g transform=" matrix(0.707107,-0.707107,0.707107,0.707107,98.159833,169.825647)">
				<text style="font-family: Helvetica; font-size: 10px;fill: rgb(0%,0%,0%); stroke:none;" transform="translate(0,0) scale(1,-1)" x="0" y="0">Gene_01268</text>
			</g>
			<g transform=" matrix(0.707107,-0.707107,0.707107,0.707107,216.394024,169.825647)">
				<text style="font-family: Helvetica; font-size: 16px;fill: rgb(0%,0%,100%); stroke:none;" transform="translate(0,0) scale(1,-1)" x="0" y="0">Gene_01269 (91.5)</text>
			</g>
			<g transform=" matrix(0.707107,-0.707107,0.707107,0.707107,320.375485,169.825647)">
				<text style="font-family: Helvetica; font-size: 10px;fill: rgb(0%,0%,0%); stroke:none;" transform="translate(0,0) scale(1,-1)" x="0" y="0">Gene_01270</text>
			</g>
			<g transform=" matrix(0.707107,0.707107,-0.707107,0.707107,382.002677,251.827897)">
				<text style="font-family: Helvetica; font-size: 10px;fill: rgb(0%,0%,0%); stroke:none;" transform="translate(0,0) scale(1,-1)" x="0" y="0">Gene_01271</text>
			</g>
			<g transform=" matrix(0.707107,0.707107,-0.707107,0.707107,564.114492,251.827897)">
				<text style="font-family: Helvetica; font-size: 10px;fill: rgb(0%,0%,0%); stroke:none;" transform="translate(0,0) scale(1,-1)" x="0" y="0">Gene_01272</text>
			</g>
			<g transform=" matrix(0.707107,0.707107,-0.707107,0.707107,659.555855,251.827897)">
				<text style="font-family: Helvetica; font-size: 10px;fill: rgb(0%,0%,0%); stroke:none;" transform="translate(0,0) scale(1,-1)" x="0" y="0">Gene_01273</text>
			</g>
			<g transform=" matrix(0.707107,-0.707107,0.707107,0.707107,707.103427,169.825647)">
				<text style="font-family: Helvetica; font-size: 10px;fill: rgb(0%,0%,0%); stroke:none;" transform="translate(0,0) scale(1,-1)" x="0" y="0">Gene_01274</text>
			</g>
			<g transform=" matrix(0.707107,0.707107,-0.707107,0.707107,363.595304,538.835771)">
				<text style="font-family: Helvetica; font-size: 10px;fill: rgb(0%,0%,0%); stroke:none;" transform="translate(0,0) scale(1,-1)" x="0" y="0">Gene_01205</text>
			</g>
			<g transform=" matrix(0.707107,-0.707107,0.707107,0.707107,677.155381,456.833521)">
				<text style="font-family: Helvetica; font-size: 10px;fill: rgb(0%,0%,0%); stroke:none;" transform="translate(0,0) scale(1,-1)" x="0" y="0">Gene_01206</text>
			</g>
			<g transform=" matrix(0.707107,-0.707107,0.707107,0.707107,715.181897,456.833521)">
				<text style="font-family: Helvetica; font-size: 10px;fill: rgb(0%,0%,0%); stroke:none;" transform="translate(0,0) scale(1,-1)" x="0" y="0">Gene_01207</text>
			</g>
			<g transform=" matrix(0.707107,0.707107,-0.707107,0.707107,752.11205,538.835771)">
				<text style="font-family: Helvetica; font-size: 10px;fill: rgb(0%,0%,0%); stroke:none;" transform="translate(0,0) scale(1,-1)" x="0" y="0">Gene_01208</text>
			</g>
			<g transform=" matrix(0.707107,0.707107,-0.707107,0.707107,856.093511,538.835771)">
				<text style="font-family: Helvetica; font-size: 16px;fill: rgb(0%,0%,100%); stroke:none;" transform="translate(0,0) scale(1,-1)" x="0" y="0">Gene_01209 (91.5)</text>
			</g>
			<g transform=" matrix(0.707107,0.707107,-0.707107,0.707107,974.327702,538.835771)">
				<text style="font-family: Helvetica; font-size: 10px;fill: rgb(0%,0%,0%); stroke:none;" transform="translate(0,0) scale(1,-1)" x="0" y="0">Gene_01210</text>
			</g>
			<g transform=" matrix(0.707107,0.707107,-0.707107,0.707107,1046.630017,538.835771)">
				<text style="font-family: Helvetica; font-size: 10px;fill: rgb(0%,0%,0%); stroke:none;" transform="translate(0,0) scale(1,-1)" x="0" y="0">Gene_01211</text>
			</g>
			<g transform=" matrix(0.707107,0.707107,-0.707107,0.707107,1140.109465,538.835771)">
				<text style="font-family: Helvetica; font-size: 10px;fill: rgb(0%,0%,0%); stroke:none;" transform="translate(0,0) scale(1,-1)" x="0" y="0">Gene_01212</text>
			</g>
			<g transform=" matrix(0.707107,0.707107,-0.707107,0.707107,1241.263461,538.835771)">
				<text style="font-family: Helvetica; font-size: 10px;fill: rgb(0%,0%,0%); stroke:none;" transform="translate(0,0) scale(1,-1)" x="0" y="0">Gene_01213</text>
			</g>
			<g transform=" matrix(0.707107,0.707107,-0.707107,0.707107,1332.030852,538.835771)">
				<text style="font-family: Helvetica; font-size: 10px;fill: rgb(0%,0%,0%); stroke:none;" transform="translate(0,0) scale(1,-1)" x="0" y="0">Gene_01214</text>
			</g>
			<g transform=" matrix(1,0,-0,1,70,169.825647)">
				<text style="font-family: Helvetica; font-size: 12px;fill: rgb(60%,60%,60%); stroke:none;" transform="translate(0,0) scale(1,-1)" x="0" y="0">megahit_109914 (left 417bp, right 3587bp)</text>
			</g>
			<g transform=" matrix(1,0,-0,1,70,456.833521)">
				<text style="font-family: Helvetica; font-size: 12px;fill: rgb(60%,60%,60%); stroke:none;" transform="translate(0,0) scale(1,-1)" x="0" y="0">megahit_111755 (left 5960bp, right 3404bp)</text>
			</g>
		</g>
	</g>
</svg>
