<?xml version="1.0" encoding="utf-8"?>
<!DOCTYPE svg
  PUBLIC '-//W3C//DTD SVG 1.0//EN'
  'http://www.w3.org/TR/2001/REC-SVG-20010904/DTD/svg10.dtd'>
<svg fill-rule="evenodd" height="708.6614173228346" preserveAspectRatio="xMinYMin meet" version="1.0" viewBox="0 0 1417 708" width="1417.3228346456692" xmlns="http://www.w3.org/2000/svg" xmlns:xlink="http://www.w3.org/1999/xlink">
	<title>...</title>
	<desc>...</desc>
	<clipPath id="clip">
		<rect height="708.6614173228346" width="1417.3228346456692" x="0" y="0"/>
	</clipPath>
	<g id="group" style="clip-path: url(#clip)" transform="scale(1,-1) translate(0,-708)">
		<g transform="">
			<polygon points="70.86614 169.8256, 1337.533 169.8256, 1337.533 251.8279, 70.86614 251.8279" style="stroke: rgb(96%,96%,96%); stroke-linecap: butt; stroke-width: 1; fill: rgb(96%,96%,96%); fill-rule: evenodd;"/>
			<polygon points="70.86614 456.8335, 1346.178 456.8335, 1346.178 538.8358, 70.86614 538.8358" style="stroke: rgb(96%,96%,96%); stroke-linecap: butt; stroke-width: 1; fill: rgb(96%,96%,96%); fill-rule: evenodd;"/>
			<polygon points="520.4184 456.8335, 894.3945 456.8335, 877.9407 251.8279, 503.9646 251.8279" style="stroke: rgb(100%,47%,47%); stroke-linecap: round; stroke-width: 1; fill: rgb(100%,47%,47%); fill-rule: evenodd;"/>
			<polygon points="319.0681 456.8335, 373.4494 456.8335, 481.3754 251.8279, 424.2053 251.8279" style="stroke: rgb(100%,66%,66%); stroke-linecap: round; stroke-width: 1; fill: rgb(100%,66%,66%); fill-rule: evenodd;"/>
			<polygon points="94.8497 241.5776, 216.2153 241.5776, 216.2153 251.8279, 232.6157 231.3273, 216.2153 210.8268, 216.2153 221.0771, 94.8497 221.0771" style="stroke: rgb(67%,84%,90%); stroke-linecap: round; stroke-width: 1; fill: rgb(67%,84%,90%); fill-rule: evenodd;"/>
			<polygon points="263.2924 241.5776, 395.5342 241.5776, 395.5342 251.8279, 411.9346 231.3273, 395.5342 210.8268, 395.5342 221.0771, 263.2924 221.0771" style="stroke: rgb(67%,84%,90%); stroke-linecap: round; stroke-width: 1; fill: rgb(67%,84%,90%); fill-rule: evenodd;"/>
			<polygon points="501.1758 241.5776, 922.8935 241.5776, 922.8935 251.8279, 939.294 231.3273, 922.8935 210.8268, 922.8935 221.0771, 501.1758 221.0771" style="stroke: rgb(67%,84%,90%); stroke-linecap: round; stroke-width: 1; fill: rgb(67%,84%,90%); fill-rule: evenodd;"/>
			<polygon points="999.5318 241.5776, 1037.234 241.5776, 1037.234 251.8279, 1053.634 231.3273, 1037.234 210.8268, 1037.234 221.0771, 999.5318 221.0771" style="stroke: rgb(67%,84%,90%); stroke-linecap: round; stroke-width: 1; fill: rgb(67%,84%,90%); fill-rule: evenodd;"/>
			<polygon points="1067.299 241.5776, 1261.452 241.5776, 1261.452 251.8279, 1277.853 231.3273, 1261.452 210.8268, 1261.452 221.0771, 1067.299 221.0771" style="stroke: rgb(67%,84%,90%); stroke-linecap: round; stroke-width: 1; fill: rgb(67%,84%,90%); fill-rule: evenodd;"/>
			<polygon points="88.99325 528.5855, 205.339 528.5855, 205.339 538.8358, 221.7394 518.3352, 205.339 497.8346, 205.339 508.0849, 88.99325 508.0849" style="stroke: rgb(67%,84%,90%); stroke-linecap: round; stroke-width: 1; fill: rgb(67%,84%,90%); fill-rule: evenodd;"/>
			<polygon points="224.5282 528.5855, 291.5125 528.5855, 291.5125 538.8358, 307.9129 518.3352, 291.5125 497.8346, 291.5125 508.0849, 224.5282 508.0849" style="stroke: rgb(67%,84%,90%); stroke-linecap: round; stroke-width: 1; fill: rgb(67%,84%,90%); fill-rule: evenodd;"/>
			<polygon points="383.489 528.5855, 504.0179 528.5855, 504.0179 538.8358, 520.4184 518.3352, 504.0179 497.8346, 504.0179 508.0849, 383.489 508.0849" style="stroke: rgb(67%,84%,90%); stroke-linecap: round; stroke-width: 1; fill: rgb(67%,84%,90%); fill-rule: evenodd;"/>
			<polygon points="518.4662 528.5855, 930.1444 528.5855, 930.1444 538.8358, 946.5448 518.3352, 930.1444 497.8346, 930.1444 508.0849, 518.4662 508.0849" style="stroke: rgb(67%,84%,90%); stroke-linecap: round; stroke-width: 1; fill: rgb(67%,84%,90%); fill-rule: evenodd;"/>
			<polygon points="972.2017 528.5855, 1108.627 528.5855, 1108.627 538.8358, 1125.027 518.3352, 1108.627 497.8346, 1108.627 508.0849, 972.2017 508.0849" style="stroke: rgb(67%,84%,90%); stroke-linecap: round; stroke-width: 1; fill: rgb(67%,84%,90%); fill-rule: evenodd;"/>
			<polygon points="1157.377 528.5855, 1186.713 528.5855, 1186.713 538.8358, 1203.113 518.3352, 1186.713 497.8346, 1186.713 508.0849, 1157.377 508.0849" style="stroke: rgb(67%,84%,90%); stroke-linecap: round; stroke-width: 1; fill: rgb(67%,84%,90%); fill-rule: evenodd;"/>
			<path d="M 1337.532579,169.825647 L 1337.532579,251.827897 Z" style="stroke: rgb(0%,0%,0%); stroke-linecap: butt; stroke-width: 1;"/>
			<path d="M 70.866142,210.826772 L 1337.532579,210.826772 Z" style="stroke: rgb(0%,0%,0%); stroke-linecap: butt; stroke-width: 1;"/>
			<path d="M 70.866142,169.825647 L 70.866142,251.827897 Z" style="stroke: rgb(0%,0%,0%); stroke-linecap: butt; stroke-width: 1;"/>
			<path d="M 1346.177814,456.833521 L 1346.177814,538.835771 Z" style="stroke: rgb(0%,0%,0%); stroke-linecap: butt; stroke-width: 1;"/>
			<path d="M 70.866142,497.834646 L 1346.177814,497.834646 Z" style="stroke: rgb(0%,0%,0%); stroke-linecap: butt; stroke-width: 1;"/>
			<path d="M 70.866142,456.833521 L 70.866142,538.835771 Z" style="stroke: rgb(0%,0%,0%); stroke-linecap: butt; stroke-width: 1;"/>
			<g transform=" matrix(0.707107,0.707107,-0.707107,0.707107,163.732704,251.827897)">
				<text style="font-family: Helvetica; font-size: 10px;fill: rgb(0%,0%,0%); stroke:none;" transform="translate(0,0) scale(1,-1)" x="0" y="0">Gene_00544</text>
			</g>
			<g transform=" matrix(0.707107,0.707107,-0.707107,0.707107,337.613488,251.827897)">
				<text style="font-family: Helvetica; font-size: 10px;fill: rgb(0%,0%,0%); stroke:none;" transform="translate(0,0) scale(1,-1)" x="0" y="0">Gene_00545</text>
			</g>
			<g transform=" matrix(0.707107,0.707107,-0.707107,0.707107,720.234878,251.827897)">
				<text style="font-family: Helvetica; font-size: 16px;fill: rgb(0%,0%,100%); stroke:none;" transform="translate(0,0) scale(1,-1)" x="0" y="0">Gene_00546 (76.3)</text>
			</g>
			<g transform=" matrix(0.707107,0.707107,-0.707107,0.707107,1026.58298,251.827897)">
				<text style="font-family: Helvetica; font-size: 10px;fill: rgb(0%,0%,0%); stroke:none;" transform="translate(0,0) scale(1,-1)" x="0" y="0">Gene_00547</text>
			</g>
			<g transform=" matrix(0.707107,0.707107,-0.707107,0.707107,1172.575908,251.827897)">
				<text style="font-family: Helvetica; font-size: 10px;fill: rgb(0%,0%,0%); stroke:none;" transform="translate(0,0) scale(1,-1)" x="0" y="0">Gene_00548</text>
			</g>
			<g transform=" matrix(0.707107,0.707107,-0.707107,0.707107,155.366347,538.835771)">
				<text style="font-family: Helvetica; font-size: 10px;fill: rgb(0%,0%,0%); stroke:none;" transform="translate(0,0) scale(1,-1)" x="0" y="0">Gene_00611</text>
			</g>
			<g transform=" matrix(0.707107,0.707107,-0.707107,0.707107,266.220576,538.835771)">
				<text style="font-family: Helvetica; font-size: 10px;fill: rgb(0%,0%,0%); stroke:none;" transform="translate(0,0) scale(1,-1)" x="0" y="0">Gene_00612</text>
			</g>
			<g transform=" matrix(0.707107,0.707107,-0.707107,0.707107,451.953699,538.835771)">
				<text style="font-family: Helvetica; font-size: 10px;fill: rgb(0%,0%,0%); stroke:none;" transform="translate(0,0) scale(1,-1)" x="0" y="0">Gene_00613</text>
			</g>
			<g transform=" matrix(0.707107,0.707107,-0.707107,0.707107,732.505535,538.835771)">
				<text style="font-family: Helvetica; font-size: 16px;fill: rgb(0%,0%,100%); stroke:none;" transform="translate(0,0) scale(1,-1)" x="0" y="0">Gene_00614 (76.3)</text>
			</g>
			<g transform=" matrix(0.707107,0.707107,-0.707107,0.707107,1048.614387,538.835771)">
				<text style="font-family: Helvetica; font-size: 10px;fill: rgb(0%,0%,0%); stroke:none;" transform="translate(0,0) scale(1,-1)" x="0" y="0">Gene_00615</text>
			</g>
			<g transform=" matrix(0.707107,0.707107,-0.707107,0.707107,1180.245069,538.835771)">
				<text style="font-family: Helvetica; font-size: 10px;fill: rgb(0%,0%,0%); stroke:none;" transform="translate(0,0) scale(1,-1)" x="0" y="0">Gene_00616</text>
			</g>
			<g transform=" matrix(1,0,-0,1,70,169.825647)">
				<text style="font-family: Helvetica; font-size: 12px;fill: rgb(60%,60%,60%); stroke:none;" transform="translate(0,0) scale(1,-1)" x="0" y="0">megahit_116551 (left 1543bp, right 1428bp)</text>
			</g>
			<g transform=" matrix(1,0,-0,1,70,456.833521)">
				<text style="font-family: Helvetica; font-size: 12px;fill: rgb(60%,60%,60%); stroke:none;" transform="translate(0,0) scale(1,-1)" x="0" y="0">megahit_29971 (left 1605bp, right 1433bp)</text>
			</g>
		</g>
	</g>
</svg>
