<?xml version="1.0" encoding="utf-8"?>
<!DOCTYPE svg
  PUBLIC '-//W3C//DTD SVG 1.0//EN'
  'http://www.w3.org/TR/2001/REC-SVG-20010904/DTD/svg10.dtd'>
<svg fill-rule="evenodd" height="708.6614173228346" preserveAspectRatio="xMinYMin meet" version="1.0" viewBox="0 0 1417 708" width="1417.3228346456692" xmlns="http://www.w3.org/2000/svg" xmlns:xlink="http://www.w3.org/1999/xlink">
	<title>...</title>
	<desc>...</desc>
	<clipPath id="clip">
		<rect height="708.6614173228346" width="1417.3228346456692" x="0" y="0"/>
	</clipPath>
	<g id="group" style="clip-path: url(#clip)" transform="scale(1,-1) translate(0,-708)">
		<g transform="">
			<polygon points="70.86614 169.8256, 1346.377 169.8256, 1346.377 251.8279, 70.86614 251.8279" style="stroke: rgb(96%,96%,96%); stroke-linecap: butt; stroke-width: 1; fill: rgb(96%,96%,96%); fill-rule: evenodd;"/>
			<polygon points="70.86614 456.8335, 1328.183 456.8335, 1328.183 538.8358, 70.86614 538.8358" style="stroke: rgb(96%,96%,96%); stroke-linecap: butt; stroke-width: 1; fill: rgb(96%,96%,96%); fill-rule: evenodd;"/>
			<polygon points="268.848 456.8335, 594.748 456.8335, 326.3034 251.8279, 649.8095 251.8279" style="stroke: rgb(100%,56%,56%); stroke-linecap: round; stroke-width: 1; fill: rgb(100%,56%,56%); fill-rule: evenodd;"/>
			<polygon points="85.3896 456.8335, 262.5439 456.8335, 650.8469 251.8279, 827.1234 251.8279" style="stroke: rgb(100%,49%,49%); stroke-linecap: round; stroke-width: 1; fill: rgb(100%,49%,49%); fill-rule: evenodd;"/>
			<polygon points="73.49952 241.5776, 96.04109 241.5776, 96.04109 251.8279, 112.4415 231.3273, 96.04109 210.8268, 96.04109 221.0771, 73.49952 221.0771" style="stroke: rgb(67%,84%,90%); stroke-linecap: round; stroke-width: 1; fill: rgb(67%,84%,90%); fill-rule: evenodd;"/>
			<polygon points="126.7256 241.5776, 147.352 241.5776, 147.352 251.8279, 163.7524 231.3273, 147.352 210.8268, 147.352 221.0771, 126.7256 221.0771" style="stroke: rgb(67%,84%,90%); stroke-linecap: round; stroke-width: 1; fill: rgb(67%,84%,90%); fill-rule: evenodd;"/>
			<polygon points="164.2312 241.5776, 261.7043 241.5776, 261.7043 251.8279, 278.1047 231.3273, 261.7043 210.8268, 261.7043 221.0771, 164.2312 221.0771" style="stroke: rgb(67%,84%,90%); stroke-linecap: round; stroke-width: 1; fill: rgb(67%,84%,90%); fill-rule: evenodd;"/>
			<polygon points="286.2442 241.5776, 300.1675 241.5776, 300.1675 251.8279, 316.5679 231.3273, 300.1675 210.8268, 300.1675 221.0771, 286.2442 221.0771" style="stroke: rgb(67%,84%,90%); stroke-linecap: round; stroke-width: 1; fill: rgb(67%,84%,90%); fill-rule: evenodd;"/>
			<polygon points="408.9754 200.5765, 336.6392 200.5765, 336.6392 210.8268, 320.2387 190.3262, 336.6392 169.8256, 336.6392 180.0759, 408.9754 180.0759" style="stroke: rgb(56%,93%,56%); stroke-linecap: round; stroke-width: 1; fill: rgb(56%,93%,56%); fill-rule: evenodd;"/>
			<polygon points="509.9215 200.5765, 425.8547 200.5765, 425.8547 210.8268, 409.4542 190.3262, 425.8547 169.8256, 425.8547 180.0759, 509.9215 180.0759" style="stroke: rgb(56%,93%,56%); stroke-linecap: round; stroke-width: 1; fill: rgb(56%,93%,56%); fill-rule: evenodd;"/>
			<polygon points="582.1398 200.5765, 530.1523 200.5765, 530.1523 210.8268, 513.7518 190.3262, 530.1523 169.8256, 530.1523 180.0759, 582.1398 180.0759" style="stroke: rgb(56%,93%,56%); stroke-linecap: round; stroke-width: 1; fill: rgb(56%,93%,56%); fill-rule: evenodd;"/>
			<polygon points="649.4903 200.5765, 597.024 200.5765, 597.024 210.8268, 580.6236 190.3262, 597.024 169.8256, 597.024 180.0759, 649.4903 180.0759" style="stroke: rgb(56%,93%,56%); stroke-linecap: round; stroke-width: 1; fill: rgb(56%,93%,56%); fill-rule: evenodd;"/>
			<polygon points="765.9174 200.5765, 666.0503 200.5765, 666.0503 210.8268, 649.6499 190.3262, 666.0503 169.8256, 666.0503 180.0759, 765.9174 180.0759" style="stroke: rgb(56%,93%,56%); stroke-linecap: round; stroke-width: 1; fill: rgb(56%,93%,56%); fill-rule: evenodd;"/>
			<polygon points="827.1234 200.5765, 783.5148 200.5765, 783.5148 210.8268, 767.1143 190.3262, 783.5148 169.8256, 783.5148 180.0759, 827.1234 180.0759" style="stroke: rgb(56%,93%,56%); stroke-linecap: round; stroke-width: 1; fill: rgb(56%,93%,56%); fill-rule: evenodd;"/>
			<polygon points="886.095 241.5776, 1116.194 241.5776, 1116.194 251.8279, 1132.595 231.3273, 1116.194 210.8268, 1116.194 221.0771, 886.095 221.0771" style="stroke: rgb(67%,84%,90%); stroke-linecap: round; stroke-width: 1; fill: rgb(67%,84%,90%); fill-rule: evenodd;"/>
			<polygon points="1146.799 241.5776, 1207.884 241.5776, 1207.884 251.8279, 1224.284 231.3273, 1207.884 210.8268, 1207.884 221.0771, 1146.799 221.0771" style="stroke: rgb(67%,84%,90%); stroke-linecap: round; stroke-width: 1; fill: rgb(67%,84%,90%); fill-rule: evenodd;"/>
			<polygon points="1224.045 241.5776, 1272.681 241.5776, 1272.681 251.8279, 1289.081 231.3273, 1272.681 210.8268, 1272.681 221.0771, 1224.045 221.0771" style="stroke: rgb(67%,84%,90%); stroke-linecap: round; stroke-width: 1; fill: rgb(67%,84%,90%); fill-rule: evenodd;"/>
			<polygon points="1346.377 200.5765, 1309.232 200.5765, 1309.232 210.8268, 1292.832 190.3262, 1309.232 169.8256, 1309.232 180.0759, 1346.377 180.0759" style="stroke: rgb(56%,93%,56%); stroke-linecap: round; stroke-width: 1; fill: rgb(56%,93%,56%); fill-rule: evenodd;"/>
			<polygon points="85.3896 528.5855, 129.477 528.5855, 129.477 538.8358, 145.8774 518.3352, 129.477 497.8346, 129.477 508.0849, 85.3896 508.0849" style="stroke: rgb(67%,84%,90%); stroke-linecap: round; stroke-width: 1; fill: rgb(67%,84%,90%); fill-rule: evenodd;"/>
			<polygon points="147.4734 528.5855, 246.3828 528.5855, 246.3828 538.8358, 262.7833 518.3352, 246.3828 497.8346, 246.3828 508.0849, 147.4734 508.0849" style="stroke: rgb(67%,84%,90%); stroke-linecap: round; stroke-width: 1; fill: rgb(67%,84%,90%); fill-rule: evenodd;"/>
			<polygon points="269.1672 528.5855, 321.3941 528.5855, 321.3941 538.8358, 337.7945 518.3352, 321.3941 497.8346, 321.3941 508.0849, 269.1672 508.0849" style="stroke: rgb(67%,84%,90%); stroke-linecap: round; stroke-width: 1; fill: rgb(67%,84%,90%); fill-rule: evenodd;"/>
			<polygon points="336.9965 528.5855, 388.0264 528.5855, 388.0264 538.8358, 404.4269 518.3352, 388.0264 497.8346, 388.0264 508.0849, 336.9965 508.0849" style="stroke: rgb(67%,84%,90%); stroke-linecap: round; stroke-width: 1; fill: rgb(67%,84%,90%); fill-rule: evenodd;"/>
			<polygon points="411.529 528.5855, 495.5958 528.5855, 495.5958 538.8358, 511.9962 518.3352, 495.5958 497.8346, 495.5958 508.0849, 411.529 508.0849" style="stroke: rgb(67%,84%,90%); stroke-linecap: round; stroke-width: 1; fill: rgb(67%,84%,90%); fill-rule: evenodd;"/>
			<polygon points="512.076 528.5855, 584.1729 528.5855, 584.1729 538.8358, 600.5734 518.3352, 584.1729 497.8346, 584.1729 508.0849, 512.076 508.0849" style="stroke: rgb(67%,84%,90%); stroke-linecap: round; stroke-width: 1; fill: rgb(67%,84%,90%); fill-rule: evenodd;"/>
			<polygon points="639.5154 528.5855, 839.4506 528.5855, 839.4506 538.8358, 855.8511 518.3352, 839.4506 497.8346, 839.4506 508.0849, 639.5154 508.0849" style="stroke: rgb(67%,84%,90%); stroke-linecap: round; stroke-width: 1; fill: rgb(67%,84%,90%); fill-rule: evenodd;"/>
			<polygon points="898.0649 487.5844, 883.9022 487.5844, 883.9022 497.8346, 867.5018 477.3341, 883.9022 456.8335, 883.9022 467.0838, 898.0649 467.0838" style="stroke: rgb(56%,93%,56%); stroke-linecap: round; stroke-width: 1; fill: rgb(56%,93%,56%); fill-rule: evenodd;"/>
			<polygon points="910.1146 528.5855, 952.2867 528.5855, 952.2867 538.8358, 968.6872 518.3352, 952.2867 497.8346, 952.2867 508.0849, 910.1146 508.0849" style="stroke: rgb(67%,84%,90%); stroke-linecap: round; stroke-width: 1; fill: rgb(67%,84%,90%); fill-rule: evenodd;"/>
			<polygon points="980.1783 528.5855, 998.6501 528.5855, 998.6501 538.8358, 1015.051 518.3352, 998.6501 497.8346, 998.6501 508.0849, 980.1783 508.0849" style="stroke: rgb(67%,84%,90%); stroke-linecap: round; stroke-width: 1; fill: rgb(67%,84%,90%); fill-rule: evenodd;"/>
			<polygon points="1014.811 528.5855, 1073.981 528.5855, 1073.981 538.8358, 1090.381 518.3352, 1073.981 497.8346, 1073.981 508.0849, 1014.811 508.0849" style="stroke: rgb(67%,84%,90%); stroke-linecap: round; stroke-width: 1; fill: rgb(67%,84%,90%); fill-rule: evenodd;"/>
			<polygon points="1091.418 528.5855, 1137.9 528.5855, 1137.9 538.8358, 1154.3 518.3352, 1137.9 497.8346, 1137.9 508.0849, 1091.418 508.0849" style="stroke: rgb(67%,84%,90%); stroke-linecap: round; stroke-width: 1; fill: rgb(67%,84%,90%); fill-rule: evenodd;"/>
			<polygon points="1159.966 528.5855, 1287.842 528.5855, 1287.842 538.8358, 1304.243 518.3352, 1287.842 497.8346, 1287.842 508.0849, 1159.966 508.0849" style="stroke: rgb(67%,84%,90%); stroke-linecap: round; stroke-width: 1; fill: rgb(67%,84%,90%); fill-rule: evenodd;"/>
			<polygon points="1328.183 487.5844, 1321.92 487.5844, 1321.92 497.8346, 1305.52 477.3341, 1321.92 456.8335, 1321.92 467.0838, 1328.183 467.0838" style="stroke: rgb(56%,93%,56%); stroke-linecap: round; stroke-width: 1; fill: rgb(56%,93%,56%); fill-rule: evenodd;"/>
			<path d="M 1346.376894,169.825647 L 1346.376894,251.827897 Z" style="stroke: rgb(0%,0%,0%); stroke-linecap: butt; stroke-width: 1;"/>
			<path d="M 70.866142,210.826772 L 1346.376894,210.826772 Z" style="stroke: rgb(0%,0%,0%); stroke-linecap: butt; stroke-width: 1;"/>
			<path d="M 70.866142,169.825647 L 70.866142,251.827897 Z" style="stroke: rgb(0%,0%,0%); stroke-linecap: butt; stroke-width: 1;"/>
			<path d="M 868.858354,210.826772 L 868.858354,231.327334 Z" style="stroke: rgb(0%,0%,0%); stroke-linecap: butt; stroke-width: 1;"/>
			<path d="M 868.858354,210.826772 L 868.858354,223.127109 Z" style="stroke: rgb(0%,0%,0%); stroke-linecap: butt; stroke-width: 1;"/>
			<path d="M 1328.182671,456.833521 L 1328.182671,538.835771 Z" style="stroke: rgb(0%,0%,0%); stroke-linecap: butt; stroke-width: 1;"/>
			<path d="M 70.866142,497.834646 L 1328.182671,497.834646 Z" style="stroke: rgb(0%,0%,0%); stroke-linecap: butt; stroke-width: 1;"/>
			<path d="M 70.866142,456.833521 L 70.866142,538.835771 Z" style="stroke: rgb(0%,0%,0%); stroke-linecap: butt; stroke-width: 1;"/>
			<path d="M 868.858354,497.834646 L 868.858354,518.335208 Z" style="stroke: rgb(0%,0%,0%); stroke-linecap: butt; stroke-width: 1;"/>
			<path d="M 868.858354,497.834646 L 868.858354,510.134983 Z" style="stroke: rgb(0%,0%,0%); stroke-linecap: butt; stroke-width: 1;"/>
			<g transform=" matrix(0.707107,0.707107,-0.707107,0.707107,868.858354,231.327334)">
				<text style="font-family: Helvetica; font-size: 6px;fill: rgb(0%,0%,0%); stroke:none;" transform="translate(0,0) scale(1,-1)" x="0" y="0">10000</text>
			</g>
			<g transform=" matrix(0.707107,0.707107,-0.707107,0.707107,868.858354,518.335208)">
				<text style="font-family: Helvetica; font-size: 6px;fill: rgb(0%,0%,0%); stroke:none;" transform="translate(0,0) scale(1,-1)" x="0" y="0">10000</text>
			</g>
			<g transform=" matrix(0.707107,0.707107,-0.707107,0.707107,92.970526,251.827897)">
				<text style="font-family: Helvetica; font-size: 10px;fill: rgb(0%,0%,0%); stroke:none;" transform="translate(0,0) scale(1,-1)" x="0" y="0">Gene_02075</text>
			</g>
			<g transform=" matrix(0.707107,0.707107,-0.707107,0.707107,145.239016,251.827897)">
				<text style="font-family: Helvetica; font-size: 10px;fill: rgb(0%,0%,0%); stroke:none;" transform="translate(0,0) scale(1,-1)" x="0" y="0">Gene_02076</text>
			</g>
			<g transform=" matrix(0.707107,0.707107,-0.707107,0.707107,221.167975,251.827897)">
				<text style="font-family: Helvetica; font-size: 10px;fill: rgb(0%,0%,0%); stroke:none;" transform="translate(0,0) scale(1,-1)" x="0" y="0">Gene_02077</text>
			</g>
			<g transform=" matrix(0.707107,0.707107,-0.707107,0.707107,301.406092,251.827897)">
				<text style="font-family: Helvetica; font-size: 10px;fill: rgb(0%,0%,0%); stroke:none;" transform="translate(0,0) scale(1,-1)" x="0" y="0">Gene_02078</text>
			</g>
			<g transform=" matrix(0.707107,-0.707107,0.707107,0.707107,364.607075,169.825647)">
				<text style="font-family: Helvetica; font-size: 10px;fill: rgb(0%,0%,0%); stroke:none;" transform="translate(0,0) scale(1,-1)" x="0" y="0">Gene_02079</text>
			</g>
			<g transform=" matrix(0.707107,-0.707107,0.707107,0.707107,459.687847,169.825647)">
				<text style="font-family: Helvetica; font-size: 16px;fill: rgb(0%,0%,100%); stroke:none;" transform="translate(0,0) scale(1,-1)" x="0" y="0">Gene_02080 (76.8)</text>
			</g>
			<g transform=" matrix(0.707107,-0.707107,0.707107,0.707107,547.945786,169.825647)">
				<text style="font-family: Helvetica; font-size: 10px;fill: rgb(0%,0%,0%); stroke:none;" transform="translate(0,0) scale(1,-1)" x="0" y="0">Gene_02081</text>
			</g>
			<g transform=" matrix(0.707107,-0.707107,0.707107,0.707107,615.056931,169.825647)">
				<text style="font-family: Helvetica; font-size: 10px;fill: rgb(0%,0%,0%); stroke:none;" transform="translate(0,0) scale(1,-1)" x="0" y="0">Gene_02082</text>
			</g>
			<g transform=" matrix(0.707107,-0.707107,0.707107,0.707107,707.783626,169.825647)">
				<text style="font-family: Helvetica; font-size: 10px;fill: rgb(0%,0%,0%); stroke:none;" transform="translate(0,0) scale(1,-1)" x="0" y="0">Gene_02083</text>
			</g>
			<g transform=" matrix(0.707107,-0.707107,0.707107,0.707107,797.118854,169.825647)">
				<text style="font-family: Helvetica; font-size: 10px;fill: rgb(0%,0%,0%); stroke:none;" transform="translate(0,0) scale(1,-1)" x="0" y="0">Gene_02084</text>
			</g>
			<g transform=" matrix(0.707107,0.707107,-0.707107,0.707107,1009.344883,251.827897)">
				<text style="font-family: Helvetica; font-size: 10px;fill: rgb(0%,0%,0%); stroke:none;" transform="translate(0,0) scale(1,-1)" x="0" y="0">Gene_02085</text>
			</g>
			<g transform=" matrix(0.707107,0.707107,-0.707107,0.707107,1185.541563,251.827897)">
				<text style="font-family: Helvetica; font-size: 10px;fill: rgb(0%,0%,0%); stroke:none;" transform="translate(0,0) scale(1,-1)" x="0" y="0">Gene_02086</text>
			</g>
			<g transform=" matrix(0.707107,0.707107,-0.707107,0.707107,1256.56287,251.827897)">
				<text style="font-family: Helvetica; font-size: 10px;fill: rgb(0%,0%,0%); stroke:none;" transform="translate(0,0) scale(1,-1)" x="0" y="0">Gene_02087</text>
			</g>
			<g transform=" matrix(0.707107,-0.707107,0.707107,0.707107,1319.604255,169.825647)">
				<text style="font-family: Helvetica; font-size: 10px;fill: rgb(0%,0%,0%); stroke:none;" transform="translate(0,0) scale(1,-1)" x="0" y="0">Gene_02088</text>
			</g>
			<g transform=" matrix(0.707107,0.707107,-0.707107,0.707107,115.633505,538.835771)">
				<text style="font-family: Helvetica; font-size: 10px;fill: rgb(0%,0%,0%); stroke:none;" transform="translate(0,0) scale(1,-1)" x="0" y="0">Gene_00426</text>
			</g>
			<g transform=" matrix(0.707107,0.707107,-0.707107,0.707107,205.128331,538.835771)">
				<text style="font-family: Helvetica; font-size: 10px;fill: rgb(0%,0%,0%); stroke:none;" transform="translate(0,0) scale(1,-1)" x="0" y="0">Gene_00427</text>
			</g>
			<g transform=" matrix(0.707107,0.707107,-0.707107,0.707107,303.480872,538.835771)">
				<text style="font-family: Helvetica; font-size: 10px;fill: rgb(0%,0%,0%); stroke:none;" transform="translate(0,0) scale(1,-1)" x="0" y="0">Gene_00428</text>
			</g>
			<g transform=" matrix(0.707107,0.707107,-0.707107,0.707107,370.711715,538.835771)">
				<text style="font-family: Helvetica; font-size: 10px;fill: rgb(0%,0%,0%); stroke:none;" transform="translate(0,0) scale(1,-1)" x="0" y="0">Gene_00429</text>
			</g>
			<g transform=" matrix(0.707107,0.707107,-0.707107,0.707107,461.762627,538.835771)">
				<text style="font-family: Helvetica; font-size: 16px;fill: rgb(0%,0%,100%); stroke:none;" transform="translate(0,0) scale(1,-1)" x="0" y="0">Gene_00430 (76.8)</text>
			</g>
			<g transform=" matrix(0.707107,0.707107,-0.707107,0.707107,556.324704,538.835771)">
				<text style="font-family: Helvetica; font-size: 10px;fill: rgb(0%,0%,0%); stroke:none;" transform="translate(0,0) scale(1,-1)" x="0" y="0">Gene_00431</text>
			</g>
			<g transform=" matrix(0.707107,0.707107,-0.707107,0.707107,747.683236,538.835771)">
				<text style="font-family: Helvetica; font-size: 10px;fill: rgb(0%,0%,0%); stroke:none;" transform="translate(0,0) scale(1,-1)" x="0" y="0">Gene_00432</text>
			</g>
			<g transform=" matrix(0.707107,-0.707107,0.707107,0.707107,882.783318,456.833521)">
				<text style="font-family: Helvetica; font-size: 10px;fill: rgb(0%,0%,0%); stroke:none;" transform="translate(0,0) scale(1,-1)" x="0" y="0">Gene_00433</text>
			</g>
			<g transform=" matrix(0.707107,0.707107,-0.707107,0.707107,939.400865,538.835771)">
				<text style="font-family: Helvetica; font-size: 10px;fill: rgb(0%,0%,0%); stroke:none;" transform="translate(0,0) scale(1,-1)" x="0" y="0">Gene_00434</text>
			</g>
			<g transform=" matrix(0.707107,0.707107,-0.707107,0.707107,997.614397,538.835771)">
				<text style="font-family: Helvetica; font-size: 10px;fill: rgb(0%,0%,0%); stroke:none;" transform="translate(0,0) scale(1,-1)" x="0" y="0">Gene_00435</text>
			</g>
			<g transform=" matrix(0.707107,0.707107,-0.707107,0.707107,1052.596061,538.835771)">
				<text style="font-family: Helvetica; font-size: 10px;fill: rgb(0%,0%,0%); stroke:none;" transform="translate(0,0) scale(1,-1)" x="0" y="0">Gene_00436</text>
			</g>
			<g transform=" matrix(0.707107,0.707107,-0.707107,0.707107,1122.859275,538.835771)">
				<text style="font-family: Helvetica; font-size: 10px;fill: rgb(0%,0%,0%); stroke:none;" transform="translate(0,0) scale(1,-1)" x="0" y="0">Gene_00437</text>
			</g>
			<g transform=" matrix(0.707107,0.707107,-0.707107,0.707107,1232.104409,538.835771)">
				<text style="font-family: Helvetica; font-size: 10px;fill: rgb(0%,0%,0%); stroke:none;" transform="translate(0,0) scale(1,-1)" x="0" y="0">Gene_00438</text>
			</g>
			<g transform=" matrix(0.707107,-0.707107,0.707107,0.707107,1316.851182,456.833521)">
				<text style="font-family: Helvetica; font-size: 10px;fill: rgb(0%,0%,0%); stroke:none;" transform="translate(0,0) scale(1,-1)" x="0" y="0">Gene_00439</text>
			</g>
			<g transform=" matrix(1,0,-0,1,70,169.825647)">
				<text style="font-family: Helvetica; font-size: 12px;fill: rgb(60%,60%,60%); stroke:none;" transform="translate(0,0) scale(1,-1)" x="0" y="0">megahit_127363 (left 4243bp, right 18825bp)</text>
			</g>
			<g transform=" matrix(1,0,-0,1,70,456.833521)">
				<text style="font-family: Helvetica; font-size: 12px;fill: rgb(60%,60%,60%); stroke:none;" transform="translate(0,0) scale(1,-1)" x="0" y="0">megahit_36880 (left 4269bp, right 10678bp)</text>
			</g>
		</g>
	</g>
</svg>
