<?xml version="1.0" encoding="utf-8"?>
<!DOCTYPE svg
  PUBLIC '-//W3C//DTD SVG 1.0//EN'
  'http://www.w3.org/TR/2001/REC-SVG-20010904/DTD/svg10.dtd'>
<svg fill-rule="evenodd" height="708.6614173228346" preserveAspectRatio="xMinYMin meet" version="1.0" viewBox="0 0 1417 708" width="1417.3228346456692" xmlns="http://www.w3.org/2000/svg" xmlns:xlink="http://www.w3.org/1999/xlink">
	<title>...</title>
	<desc>...</desc>
	<clipPath id="clip">
		<rect height="708.6614173228346" width="1417.3228346456692" x="0" y="0"/>
	</clipPath>
	<g id="group" style="clip-path: url(#clip)" transform="scale(1,-1) translate(0,-708)">
		<g transform="">
			<polygon points="70.86614 169.8256, 1317.632 169.8256, 1317.632 251.8279, 70.86614 251.8279" style="stroke: rgb(96%,96%,96%); stroke-linecap: butt; stroke-width: 1; fill: rgb(96%,96%,96%); fill-rule: evenodd;"/>
			<polygon points="70.86614 456.8335, 1346.402 456.8335, 1346.402 538.8358, 70.86614 538.8358" style="stroke: rgb(96%,96%,96%); stroke-linecap: butt; stroke-width: 1; fill: rgb(96%,96%,96%); fill-rule: evenodd;"/>
			<polygon points="625.5728 456.8335, 1157.733 456.8335, 229.1276 251.8279, 754.5185 251.8279" style="stroke: rgb(100%,39%,39%); stroke-linecap: round; stroke-width: 1; fill: rgb(100%,39%,39%); fill-rule: evenodd;"/>
			<polygon points="578.1872 456.8335, 622.2973 456.8335, 854.9673 251.8279, 899.0774 251.8279" style="stroke: rgb(100%,46%,46%); stroke-linecap: round; stroke-width: 1; fill: rgb(100%,46%,46%); fill-rule: evenodd;"/>
			<polygon points="1168.105 456.8335, 1193.654 456.8335, 194.1889 251.8279, 219.7378 251.8279" style="stroke: rgb(100%,27%,27%); stroke-linecap: round; stroke-width: 1; fill: rgb(100%,27%,27%); fill-rule: evenodd;"/>
			<polygon points="1219.367 456.8335, 1240.057 456.8335, 155.9747 251.8279, 176.6649 251.8279" style="stroke: rgb(100%,39%,39%); stroke-linecap: round; stroke-width: 1; fill: rgb(100%,39%,39%); fill-rule: evenodd;"/>
			<polygon points="488.9297 456.8335, 505.1434 456.8335, 911.4697 251.8279, 927.3559 251.8279" style="stroke: rgb(100%,59%,59%); stroke-linecap: round; stroke-width: 1; fill: rgb(100%,59%,59%); fill-rule: evenodd;"/>
			<polygon points="70.86614 241.5776, 128.765 241.5776, 128.765 251.8279, 145.1655 231.3273, 128.765 210.8268, 128.765 221.0771, 70.86614 221.0771" style="stroke: rgb(67%,84%,90%); stroke-linecap: round; stroke-width: 1; fill: rgb(67%,84%,90%); fill-rule: evenodd;"/>
			<polygon points="198.447 200.5765, 172.3205 200.5765, 172.3205 210.8268, 155.9201 190.3262, 172.3205 169.8256, 172.3205 180.0759, 198.447 180.0759" style="stroke: rgb(56%,93%,56%); stroke-linecap: round; stroke-width: 1; fill: rgb(56%,93%,56%); fill-rule: evenodd;"/>
			<polygon points="205.271 241.5776, 205.271 251.8279, 220.4475 231.3273, 205.271 210.8268, 205.271 221.0771" style="stroke: rgb(67%,84%,90%); stroke-linecap: round; stroke-width: 1; fill: rgb(67%,84%,90%); fill-rule: evenodd;"/>
			<polygon points="337.656 200.5765, 254.2081 200.5765, 254.2081 210.8268, 237.8077 190.3262, 254.2081 169.8256, 254.2081 180.0759, 337.656 180.0759" style="stroke: rgb(56%,93%,56%); stroke-linecap: round; stroke-width: 1; fill: rgb(56%,93%,56%); fill-rule: evenodd;"/>
			<polygon points="348.083 241.5776, 365.857 241.5776, 365.857 251.8279, 382.2574 231.3273, 365.857 210.8268, 365.857 221.0771, 348.083 221.0771" style="stroke: rgb(67%,84%,90%); stroke-linecap: round; stroke-width: 1; fill: rgb(67%,84%,90%); fill-rule: evenodd;"/>
			<polygon points="388.2625 241.5776, 399.813 241.5776, 399.813 251.8279, 416.2135 231.3273, 399.813 210.8268, 399.813 221.0771, 388.2625 221.0771" style="stroke: rgb(67%,84%,90%); stroke-linecap: round; stroke-width: 1; fill: rgb(67%,84%,90%); fill-rule: evenodd;"/>
			<polygon points="418.1242 241.5776, 450.4742 241.5776, 450.4742 251.8279, 466.8746 231.3273, 450.4742 210.8268, 450.4742 221.0771, 418.1242 221.0771" style="stroke: rgb(67%,84%,90%); stroke-linecap: round; stroke-width: 1; fill: rgb(67%,84%,90%); fill-rule: evenodd;"/>
			<polygon points="467.9119 241.5776, 492.8919 241.5776, 492.8919 251.8279, 509.2924 231.3273, 492.8919 210.8268, 492.8919 221.0771, 467.9119 221.0771" style="stroke: rgb(67%,84%,90%); stroke-linecap: round; stroke-width: 1; fill: rgb(67%,84%,90%); fill-rule: evenodd;"/>
			<polygon points="518.3546 241.5776, 525.4832 241.5776, 525.4832 251.8279, 541.8837 231.3273, 525.4832 210.8268, 525.4832 221.0771, 518.3546 221.0771" style="stroke: rgb(67%,84%,90%); stroke-linecap: round; stroke-width: 1; fill: rgb(67%,84%,90%); fill-rule: evenodd;"/>
			<polygon points="547.5066 241.5776, 573.6331 241.5776, 573.6331 251.8279, 590.0336 231.3273, 573.6331 210.8268, 573.6331 221.0771, 547.5066 221.0771" style="stroke: rgb(67%,84%,90%); stroke-linecap: round; stroke-width: 1; fill: rgb(67%,84%,90%); fill-rule: evenodd;"/>
			<polygon points="589.8698 241.5776, 603.0581 241.5776, 603.0581 251.8279, 619.4585 231.3273, 603.0581 210.8268, 603.0581 221.0771, 589.8698 221.0771" style="stroke: rgb(67%,84%,90%); stroke-linecap: round; stroke-width: 1; fill: rgb(67%,84%,90%); fill-rule: evenodd;"/>
			<polygon points="630.1585 241.5776, 689.5314 241.5776, 689.5314 251.8279, 705.9318 231.3273, 689.5314 210.8268, 689.5314 221.0771, 630.1585 221.0771" style="stroke: rgb(67%,84%,90%); stroke-linecap: round; stroke-width: 1; fill: rgb(67%,84%,90%); fill-rule: evenodd;"/>
			<polygon points="708.989 241.5776, 738.2272 241.5776, 738.2272 251.8279, 754.6277 231.3273, 738.2272 210.8268, 738.2272 221.0771, 708.989 221.0771" style="stroke: rgb(67%,84%,90%); stroke-linecap: round; stroke-width: 1; fill: rgb(67%,84%,90%); fill-rule: evenodd;"/>
			<polygon points="758.6674 241.5776, 772.5108 241.5776, 772.5108 251.8279, 788.9113 231.3273, 772.5108 210.8268, 772.5108 221.0771, 758.6674 221.0771" style="stroke: rgb(67%,84%,90%); stroke-linecap: round; stroke-width: 1; fill: rgb(67%,84%,90%); fill-rule: evenodd;"/>
			<polygon points="792.7327 241.5776, 809.3602 241.5776, 809.3602 251.8279, 825.7607 231.3273, 809.3602 210.8268, 809.3602 221.0771, 792.7327 221.0771" style="stroke: rgb(67%,84%,90%); stroke-linecap: round; stroke-width: 1; fill: rgb(67%,84%,90%); fill-rule: evenodd;"/>
			<polygon points="827.0709 241.5776, 837.8025 241.5776, 837.8025 251.8279, 854.203 231.3273, 837.8025 210.8268, 837.8025 221.0771, 827.0709 221.0771" style="stroke: rgb(67%,84%,90%); stroke-linecap: round; stroke-width: 1; fill: rgb(67%,84%,90%); fill-rule: evenodd;"/>
			<polygon points="854.4759 241.5776, 882.8953 241.5776, 882.8953 251.8279, 899.2958 231.3273, 882.8953 210.8268, 882.8953 221.0771, 854.4759 221.0771" style="stroke: rgb(67%,84%,90%); stroke-linecap: round; stroke-width: 1; fill: rgb(67%,84%,90%); fill-rule: evenodd;"/>
			<polygon points="913.2713 241.5776, 966.2569 241.5776, 966.2569 251.8279, 982.6574 231.3273, 966.2569 210.8268, 966.2569 221.0771, 913.2713 221.0771" style="stroke: rgb(67%,84%,90%); stroke-linecap: round; stroke-width: 1; fill: rgb(67%,84%,90%); fill-rule: evenodd;"/>
			<polygon points="994.4492 241.5776, 1016.481 241.5776, 1016.481 251.8279, 1032.882 231.3273, 1016.481 210.8268, 1016.481 221.0771, 994.4492 221.0771" style="stroke: rgb(67%,84%,90%); stroke-linecap: round; stroke-width: 1; fill: rgb(67%,84%,90%); fill-rule: evenodd;"/>
			<polygon points="1033.209 241.5776, 1098.151 241.5776, 1098.151 251.8279, 1114.551 231.3273, 1098.151 210.8268, 1098.151 221.0771, 1033.209 221.0771" style="stroke: rgb(67%,84%,90%); stroke-linecap: round; stroke-width: 1; fill: rgb(67%,84%,90%); fill-rule: evenodd;"/>
			<polygon points="1117.772 241.5776, 1184.842 241.5776, 1184.842 251.8279, 1201.243 231.3273, 1184.842 210.8268, 1184.842 221.0771, 1117.772 221.0771" style="stroke: rgb(67%,84%,90%); stroke-linecap: round; stroke-width: 1; fill: rgb(67%,84%,90%); fill-rule: evenodd;"/>
			<polygon points="1201.952 241.5776, 1209.736 241.5776, 1209.736 251.8279, 1226.137 231.3273, 1209.736 210.8268, 1209.736 221.0771, 1201.952 221.0771" style="stroke: rgb(67%,84%,90%); stroke-linecap: round; stroke-width: 1; fill: rgb(67%,84%,90%); fill-rule: evenodd;"/>
			<polygon points="1231.214 241.5776, 1301.232 241.5776, 1301.232 251.8279, 1317.632 231.3273, 1301.232 210.8268, 1301.232 221.0771, 1231.214 221.0771" style="stroke: rgb(67%,84%,90%); stroke-linecap: round; stroke-width: 1; fill: rgb(67%,84%,90%); fill-rule: evenodd;"/>
			<polygon points="145.3293 487.5844, 87.26659 487.5844, 87.26659 497.8346, 70.86614 477.3341, 87.26659 456.8335, 87.26659 467.0838, 145.3293 467.0838" style="stroke: rgb(56%,93%,56%); stroke-linecap: round; stroke-width: 1; fill: rgb(56%,93%,56%); fill-rule: evenodd;"/>
			<polygon points="246.7607 487.5844, 161.8389 487.5844, 161.8389 497.8346, 145.4385 477.3341, 161.8389 456.8335, 161.8389 467.0838, 246.7607 467.0838" style="stroke: rgb(56%,93%,56%); stroke-linecap: round; stroke-width: 1; fill: rgb(56%,93%,56%); fill-rule: evenodd;"/>
			<polygon points="289.4515 487.5844, 262.9974 487.5844, 262.9974 497.8346, 246.5969 477.3341, 262.9974 456.8335, 262.9974 467.0838, 289.4515 467.0838" style="stroke: rgb(56%,93%,56%); stroke-linecap: round; stroke-width: 1; fill: rgb(56%,93%,56%); fill-rule: evenodd;"/>
			<polygon points="371.1207 487.5844, 312.2391 487.5844, 312.2391 497.8346, 295.8387 477.3341, 312.2391 456.8335, 312.2391 467.0838, 371.1207 467.0838" style="stroke: rgb(56%,93%,56%); stroke-linecap: round; stroke-width: 1; fill: rgb(56%,93%,56%); fill-rule: evenodd;"/>
			<polygon points="408.5706 487.5844, 387.3574 487.5844, 387.3574 497.8346, 370.9569 477.3341, 387.3574 456.8335, 387.3574 467.0838, 408.5706 467.0838" style="stroke: rgb(56%,93%,56%); stroke-linecap: round; stroke-width: 1; fill: rgb(56%,93%,56%); fill-rule: evenodd;"/>
			<polygon points="444.1099 487.5844, 430.1027 487.5844, 430.1027 497.8346, 413.7023 477.3341, 430.1027 456.8335, 430.1027 467.0838, 444.1099 467.0838" style="stroke: rgb(56%,93%,56%); stroke-linecap: round; stroke-width: 1; fill: rgb(56%,93%,56%); fill-rule: evenodd;"/>
			<polygon points="503.1781 487.5844, 501.6179 487.5844, 501.6179 497.8346, 485.2174 477.3341, 501.6179 456.8335, 501.6179 467.0838, 503.1781 467.0838" style="stroke: rgb(56%,93%,56%); stroke-linecap: round; stroke-width: 1; fill: rgb(56%,93%,56%); fill-rule: evenodd;"/>
			<polygon points="576.2765 487.5844, 527.7127 487.5844, 527.7127 497.8346, 511.3123 477.3341, 527.7127 456.8335, 527.7127 467.0838, 576.2765 467.0838" style="stroke: rgb(56%,93%,56%); stroke-linecap: round; stroke-width: 1; fill: rgb(56%,93%,56%); fill-rule: evenodd;"/>
			<polygon points="622.9524 487.5844, 594.3692 487.5844, 594.3692 497.8346, 577.9688 477.3341, 594.3692 456.8335, 594.3692 467.0838, 622.9524 467.0838" style="stroke: rgb(56%,93%,56%); stroke-linecap: round; stroke-width: 1; fill: rgb(56%,93%,56%); fill-rule: evenodd;"/>
			<polygon points="667.8268 487.5844, 641.8641 487.5844, 641.8641 497.8346, 625.4636 477.3341, 641.8641 456.8335, 641.8641 467.0838, 667.8268 467.0838" style="stroke: rgb(56%,93%,56%); stroke-linecap: round; stroke-width: 1; fill: rgb(56%,93%,56%); fill-rule: evenodd;"/>
			<polygon points="752.7169 487.5844, 693.3441 487.5844, 693.3441 497.8346, 676.9436 477.3341, 693.3441 456.8335, 693.3441 467.0838, 752.7169 467.0838" style="stroke: rgb(56%,93%,56%); stroke-linecap: round; stroke-width: 1; fill: rgb(56%,93%,56%); fill-rule: evenodd;"/>
			<polygon points="794.2613 487.5844, 780.0903 487.5844, 780.0903 497.8346, 763.6899 477.3341, 780.0903 456.8335, 780.0903 467.0838, 794.2613 467.0838" style="stroke: rgb(56%,93%,56%); stroke-linecap: round; stroke-width: 1; fill: rgb(56%,93%,56%); fill-rule: evenodd;"/>
			<polygon points="836.6245 487.5844, 811.153 487.5844, 811.153 497.8346, 794.7526 477.3341, 811.153 456.8335, 811.153 467.0838, 836.6245 467.0838" style="stroke: rgb(56%,93%,56%); stroke-linecap: round; stroke-width: 1; fill: rgb(56%,93%,56%); fill-rule: evenodd;"/>
			<polygon points="865.2851 487.5844, 857.3376 487.5844, 857.3376 497.8346, 840.9372 477.3341, 857.3376 456.8335, 857.3376 467.0838, 865.2851 467.0838" style="stroke: rgb(56%,93%,56%); stroke-linecap: round; stroke-width: 1; fill: rgb(56%,93%,56%); fill-rule: evenodd;"/>
			<polygon points="917.5294 487.5844, 891.8942 487.5844, 891.8942 497.8346, 875.4938 477.3341, 891.8942 456.8335, 891.8942 467.0838, 917.5294 467.0838" style="stroke: rgb(56%,93%,56%); stroke-linecap: round; stroke-width: 1; fill: rgb(56%,93%,56%); fill-rule: evenodd;"/>
			<polygon points="967.2079 487.5844, 934.8579 487.5844, 934.8579 497.8346, 918.4575 477.3341, 934.8579 456.8335, 934.8579 467.0838, 967.2079 467.0838" style="stroke: rgb(56%,93%,56%); stroke-linecap: round; stroke-width: 1; fill: rgb(56%,93%,56%); fill-rule: evenodd;"/>
			<polygon points="996.9058 487.5844, 985.3553 487.5844, 985.3553 497.8346, 968.9548 477.3341, 985.3553 456.8335, 985.3553 467.0838, 996.9058 467.0838" style="stroke: rgb(56%,93%,56%); stroke-linecap: round; stroke-width: 1; fill: rgb(56%,93%,56%); fill-rule: evenodd;"/>
			<polygon points="1038.614 487.5844, 1020.84 487.5844, 1020.84 497.8346, 1004.439 477.3341, 1020.84 456.8335, 1020.84 467.0838, 1038.614 467.0838" style="stroke: rgb(56%,93%,56%); stroke-linecap: round; stroke-width: 1; fill: rgb(56%,93%,56%); fill-rule: evenodd;"/>
			<polygon points="1049.205 528.5855, 1132.653 528.5855, 1132.653 538.8358, 1149.053 518.3352, 1132.653 497.8346, 1132.653 508.0849, 1049.205 508.0849" style="stroke: rgb(67%,84%,90%); stroke-linecap: round; stroke-width: 1; fill: rgb(67%,84%,90%); fill-rule: evenodd;"/>
			<polygon points="1182.572 487.5844, 1182.572 497.8346, 1166.741 477.3341, 1182.572 456.8335, 1182.572 467.0838" style="stroke: rgb(56%,93%,56%); stroke-linecap: round; stroke-width: 1; fill: rgb(56%,93%,56%); fill-rule: evenodd;"/>
			<polygon points="1189.396 528.5855, 1223.712 528.5855, 1223.712 538.8358, 1240.112 518.3352, 1223.712 497.8346, 1223.712 508.0849, 1189.396 508.0849" style="stroke: rgb(67%,84%,90%); stroke-linecap: round; stroke-width: 1; fill: rgb(67%,84%,90%); fill-rule: evenodd;"/>
			<polygon points="1346.402 487.5844, 1261.317 487.5844, 1261.317 497.8346, 1244.916 477.3341, 1261.317 456.8335, 1261.317 467.0838, 1346.402 467.0838" style="stroke: rgb(56%,93%,56%); stroke-linecap: round; stroke-width: 1; fill: rgb(56%,93%,56%); fill-rule: evenodd;"/>
			<path d="M 1317.632255,169.825647 L 1317.632255,251.827897 Z" style="stroke: rgb(0%,0%,0%); stroke-linecap: butt; stroke-width: 1;"/>
			<path d="M 70.866142,210.826772 L 1317.632255,210.826772 Z" style="stroke: rgb(0%,0%,0%); stroke-linecap: butt; stroke-width: 1;"/>
			<path d="M 70.866142,169.825647 L 70.866142,251.827897 Z" style="stroke: rgb(0%,0%,0%); stroke-linecap: butt; stroke-width: 1;"/>
			<path d="M 616.783522,210.826772 L 616.783522,231.327334 Z" style="stroke: rgb(0%,0%,0%); stroke-linecap: butt; stroke-width: 1;"/>
			<path d="M 1162.700903,210.826772 L 1162.700903,231.327334 Z" style="stroke: rgb(0%,0%,0%); stroke-linecap: butt; stroke-width: 1;"/>
			<path d="M 616.783522,210.826772 L 616.783522,223.127109 Z" style="stroke: rgb(0%,0%,0%); stroke-linecap: butt; stroke-width: 1;"/>
			<path d="M 1162.700903,210.826772 L 1162.700903,223.127109 Z" style="stroke: rgb(0%,0%,0%); stroke-linecap: butt; stroke-width: 1;"/>
			<path d="M 1346.402101,456.833521 L 1346.402101,538.835771 Z" style="stroke: rgb(0%,0%,0%); stroke-linecap: butt; stroke-width: 1;"/>
			<path d="M 70.866142,497.834646 L 1346.402101,497.834646 Z" style="stroke: rgb(0%,0%,0%); stroke-linecap: butt; stroke-width: 1;"/>
			<path d="M 70.866142,456.833521 L 70.866142,538.835771 Z" style="stroke: rgb(0%,0%,0%); stroke-linecap: butt; stroke-width: 1;"/>
			<path d="M 616.783522,497.834646 L 616.783522,518.335208 Z" style="stroke: rgb(0%,0%,0%); stroke-linecap: butt; stroke-width: 1;"/>
			<path d="M 1162.700903,497.834646 L 1162.700903,518.335208 Z" style="stroke: rgb(0%,0%,0%); stroke-linecap: butt; stroke-width: 1;"/>
			<path d="M 616.783522,497.834646 L 616.783522,510.134983 Z" style="stroke: rgb(0%,0%,0%); stroke-linecap: butt; stroke-width: 1;"/>
			<path d="M 1162.700903,497.834646 L 1162.700903,510.134983 Z" style="stroke: rgb(0%,0%,0%); stroke-linecap: butt; stroke-width: 1;"/>
			<g transform=" matrix(0.707107,0.707107,-0.707107,0.707107,616.783522,231.327334)">
				<text style="font-family: Helvetica; font-size: 6px;fill: rgb(0%,0%,0%); stroke:none;" transform="translate(0,0) scale(1,-1)" x="0" y="0">10000</text>
			</g>
			<g transform=" matrix(0.707107,0.707107,-0.707107,0.707107,1162.700903,231.327334)">
				<text style="font-family: Helvetica; font-size: 6px;fill: rgb(0%,0%,0%); stroke:none;" transform="translate(0,0) scale(1,-1)" x="0" y="0">20000</text>
			</g>
			<g transform=" matrix(0.707107,0.707107,-0.707107,0.707107,616.783522,518.335208)">
				<text style="font-family: Helvetica; font-size: 6px;fill: rgb(0%,0%,0%); stroke:none;" transform="translate(0,0) scale(1,-1)" x="0" y="0">10000</text>
			</g>
			<g transform=" matrix(0.707107,0.707107,-0.707107,0.707107,1162.700903,518.335208)">
				<text style="font-family: Helvetica; font-size: 6px;fill: rgb(0%,0%,0%); stroke:none;" transform="translate(0,0) scale(1,-1)" x="0" y="0">20000</text>
			</g>
			<g transform=" matrix(0.707107,0.707107,-0.707107,0.707107,108.015819,251.827897)">
				<text style="font-family: Helvetica; font-size: 10px;fill: rgb(0%,0%,0%); stroke:none;" transform="translate(0,0) scale(1,-1)" x="0" y="0">Gene_00605</text>
			</g>
			<g transform=" matrix(0.707107,-0.707107,0.707107,0.707107,177.183552,169.825647)">
				<text style="font-family: Helvetica; font-size: 10px;fill: rgb(0%,0%,0%); stroke:none;" transform="translate(0,0) scale(1,-1)" x="0" y="0">Gene_00606</text>
			</g>
			<g transform=" matrix(0.707107,0.707107,-0.707107,0.707107,212.859252,251.827897)">
				<text style="font-family: Helvetica; font-size: 10px;fill: rgb(0%,0%,0%); stroke:none;" transform="translate(0,0) scale(1,-1)" x="0" y="0">Gene_00607</text>
			</g>
			<g transform=" matrix(0.707107,-0.707107,0.707107,0.707107,287.731821,169.825647)">
				<text style="font-family: Helvetica; font-size: 10px;fill: rgb(0%,0%,0%); stroke:none;" transform="translate(0,0) scale(1,-1)" x="0" y="0">Gene_00608</text>
			</g>
			<g transform=" matrix(0.707107,0.707107,-0.707107,0.707107,365.170202,251.827897)">
				<text style="font-family: Helvetica; font-size: 10px;fill: rgb(0%,0%,0%); stroke:none;" transform="translate(0,0) scale(1,-1)" x="0" y="0">Gene_00609</text>
			</g>
			<g transform=" matrix(0.707107,0.707107,-0.707107,0.707107,402.237992,251.827897)">
				<text style="font-family: Helvetica; font-size: 10px;fill: rgb(0%,0%,0%); stroke:none;" transform="translate(0,0) scale(1,-1)" x="0" y="0">Gene_00610</text>
			</g>
			<g transform=" matrix(0.707107,0.707107,-0.707107,0.707107,442.499398,251.827897)">
				<text style="font-family: Helvetica; font-size: 10px;fill: rgb(0%,0%,0%); stroke:none;" transform="translate(0,0) scale(1,-1)" x="0" y="0">Gene_00611</text>
			</g>
			<g transform=" matrix(0.707107,0.707107,-0.707107,0.707107,488.602121,251.827897)">
				<text style="font-family: Helvetica; font-size: 10px;fill: rgb(0%,0%,0%); stroke:none;" transform="translate(0,0) scale(1,-1)" x="0" y="0">Gene_00612</text>
			</g>
			<g transform=" matrix(0.707107,0.707107,-0.707107,0.707107,530.119138,251.827897)">
				<text style="font-family: Helvetica; font-size: 10px;fill: rgb(0%,0%,0%); stroke:none;" transform="translate(0,0) scale(1,-1)" x="0" y="0">Gene_00613</text>
			</g>
			<g transform=" matrix(0.707107,0.707107,-0.707107,0.707107,568.770089,251.827897)">
				<text style="font-family: Helvetica; font-size: 10px;fill: rgb(0%,0%,0%); stroke:none;" transform="translate(0,0) scale(1,-1)" x="0" y="0">Gene_00614</text>
			</g>
			<g transform=" matrix(0.707107,0.707107,-0.707107,0.707107,604.664156,251.827897)">
				<text style="font-family: Helvetica; font-size: 10px;fill: rgb(0%,0%,0%); stroke:none;" transform="translate(0,0) scale(1,-1)" x="0" y="0">Gene_00615</text>
			</g>
			<g transform=" matrix(0.707107,0.707107,-0.707107,0.707107,668.045164,251.827897)">
				<text style="font-family: Helvetica; font-size: 16px;fill: rgb(0%,0%,100%); stroke:none;" transform="translate(0,0) scale(1,-1)" x="0" y="0">Gene_00616 (84.4)</text>
			</g>
			<g transform=" matrix(0.707107,0.707107,-0.707107,0.707107,731.808314,251.827897)">
				<text style="font-family: Helvetica; font-size: 10px;fill: rgb(0%,0%,0%); stroke:none;" transform="translate(0,0) scale(1,-1)" x="0" y="0">Gene_00617</text>
			</g>
			<g transform=" matrix(0.707107,0.707107,-0.707107,0.707107,773.789361,251.827897)">
				<text style="font-family: Helvetica; font-size: 10px;fill: rgb(0%,0%,0%); stroke:none;" transform="translate(0,0) scale(1,-1)" x="0" y="0">Gene_00618</text>
			</g>
			<g transform=" matrix(0.707107,0.707107,-0.707107,0.707107,809.246695,251.827897)">
				<text style="font-family: Helvetica; font-size: 10px;fill: rgb(0%,0%,0%); stroke:none;" transform="translate(0,0) scale(1,-1)" x="0" y="0">Gene_00619</text>
			</g>
			<g transform=" matrix(0.707107,0.707107,-0.707107,0.707107,840.636944,251.827897)">
				<text style="font-family: Helvetica; font-size: 10px;fill: rgb(0%,0%,0%); stroke:none;" transform="translate(0,0) scale(1,-1)" x="0" y="0">Gene_00620</text>
			</g>
			<g transform=" matrix(0.707107,0.707107,-0.707107,0.707107,876.885858,251.827897)">
				<text style="font-family: Helvetica; font-size: 10px;fill: rgb(0%,0%,0%); stroke:none;" transform="translate(0,0) scale(1,-1)" x="0" y="0">Gene_00621</text>
			</g>
			<g transform=" matrix(0.707107,0.707107,-0.707107,0.707107,947.964301,251.827897)">
				<text style="font-family: Helvetica; font-size: 10px;fill: rgb(0%,0%,0%); stroke:none;" transform="translate(0,0) scale(1,-1)" x="0" y="0">Gene_00622</text>
			</g>
			<g transform=" matrix(0.707107,0.707107,-0.707107,0.707107,1013.665458,251.827897)">
				<text style="font-family: Helvetica; font-size: 10px;fill: rgb(0%,0%,0%); stroke:none;" transform="translate(0,0) scale(1,-1)" x="0" y="0">Gene_00623</text>
			</g>
			<g transform=" matrix(0.707107,0.707107,-0.707107,0.707107,1073.880145,251.827897)">
				<text style="font-family: Helvetica; font-size: 10px;fill: rgb(0%,0%,0%); stroke:none;" transform="translate(0,0) scale(1,-1)" x="0" y="0">Gene_00624</text>
			</g>
			<g transform=" matrix(0.707107,0.707107,-0.707107,0.707107,1159.507286,251.827897)">
				<text style="font-family: Helvetica; font-size: 10px;fill: rgb(0%,0%,0%); stroke:none;" transform="translate(0,0) scale(1,-1)" x="0" y="0">Gene_00625</text>
			</g>
			<g transform=" matrix(0.707107,0.707107,-0.707107,0.707107,1214.044432,251.827897)">
				<text style="font-family: Helvetica; font-size: 10px;fill: rgb(0%,0%,0%); stroke:none;" transform="translate(0,0) scale(1,-1)" x="0" y="0">Gene_00626</text>
			</g>
			<g transform=" matrix(0.707107,0.707107,-0.707107,0.707107,1274.422895,251.827897)">
				<text style="font-family: Helvetica; font-size: 10px;fill: rgb(0%,0%,0%); stroke:none;" transform="translate(0,0) scale(1,-1)" x="0" y="0">Gene_00627</text>
			</g>
			<g transform=" matrix(0.707107,-0.707107,0.707107,0.707107,108.097707,456.833521)">
				<text style="font-family: Helvetica; font-size: 10px;fill: rgb(0%,0%,0%); stroke:none;" transform="translate(0,0) scale(1,-1)" x="0" y="0">Gene_01321</text>
			</g>
			<g transform=" matrix(0.707107,-0.707107,0.707107,0.707107,196.099589,456.833521)">
				<text style="font-family: Helvetica; font-size: 10px;fill: rgb(0%,0%,0%); stroke:none;" transform="translate(0,0) scale(1,-1)" x="0" y="0">Gene_01322</text>
			</g>
			<g transform=" matrix(0.707107,-0.707107,0.707107,0.707107,268.024204,456.833521)">
				<text style="font-family: Helvetica; font-size: 10px;fill: rgb(0%,0%,0%); stroke:none;" transform="translate(0,0) scale(1,-1)" x="0" y="0">Gene_01323</text>
			</g>
			<g transform=" matrix(0.707107,-0.707107,0.707107,0.707107,333.479698,456.833521)">
				<text style="font-family: Helvetica; font-size: 10px;fill: rgb(0%,0%,0%); stroke:none;" transform="translate(0,0) scale(1,-1)" x="0" y="0">Gene_01324</text>
			</g>
			<g transform=" matrix(0.707107,-0.707107,0.707107,0.707107,389.76378,456.833521)">
				<text style="font-family: Helvetica; font-size: 10px;fill: rgb(0%,0%,0%); stroke:none;" transform="translate(0,0) scale(1,-1)" x="0" y="0">Gene_01325</text>
			</g>
			<g transform=" matrix(0.707107,-0.707107,0.707107,0.707107,428.906056,456.833521)">
				<text style="font-family: Helvetica; font-size: 10px;fill: rgb(0%,0%,0%); stroke:none;" transform="translate(0,0) scale(1,-1)" x="0" y="0">Gene_01326</text>
			</g>
			<g transform=" matrix(0.707107,-0.707107,0.707107,0.707107,494.197774,456.833521)">
				<text style="font-family: Helvetica; font-size: 10px;fill: rgb(0%,0%,0%); stroke:none;" transform="translate(0,0) scale(1,-1)" x="0" y="0">Gene_01327</text>
			</g>
			<g transform=" matrix(0.707107,-0.707107,0.707107,0.707107,543.794368,456.833521)">
				<text style="font-family: Helvetica; font-size: 10px;fill: rgb(0%,0%,0%); stroke:none;" transform="translate(0,0) scale(1,-1)" x="0" y="0">Gene_01328</text>
			</g>
			<g transform=" matrix(0.707107,-0.707107,0.707107,0.707107,600.460593,456.833521)">
				<text style="font-family: Helvetica; font-size: 10px;fill: rgb(0%,0%,0%); stroke:none;" transform="translate(0,0) scale(1,-1)" x="0" y="0">Gene_01329</text>
			</g>
			<g transform=" matrix(0.707107,-0.707107,0.707107,0.707107,646.645203,456.833521)">
				<text style="font-family: Helvetica; font-size: 10px;fill: rgb(0%,0%,0%); stroke:none;" transform="translate(0,0) scale(1,-1)" x="0" y="0">Gene_01330</text>
			</g>
			<g transform=" matrix(0.707107,-0.707107,0.707107,0.707107,714.830284,456.833521)">
				<text style="font-family: Helvetica; font-size: 16px;fill: rgb(0%,0%,100%); stroke:none;" transform="translate(0,0) scale(1,-1)" x="0" y="0">Gene_01331 (84.4)</text>
			</g>
			<g transform=" matrix(0.707107,-0.707107,0.707107,0.707107,778.975576,456.833521)">
				<text style="font-family: Helvetica; font-size: 10px;fill: rgb(0%,0%,0%); stroke:none;" transform="translate(0,0) scale(1,-1)" x="0" y="0">Gene_01332</text>
			</g>
			<g transform=" matrix(0.707107,-0.707107,0.707107,0.707107,815.68852,456.833521)">
				<text style="font-family: Helvetica; font-size: 10px;fill: rgb(0%,0%,0%); stroke:none;" transform="translate(0,0) scale(1,-1)" x="0" y="0">Gene_01333</text>
			</g>
			<g transform=" matrix(0.707107,-0.707107,0.707107,0.707107,853.111156,456.833521)">
				<text style="font-family: Helvetica; font-size: 10px;fill: rgb(0%,0%,0%); stroke:none;" transform="translate(0,0) scale(1,-1)" x="0" y="0">Gene_01334</text>
			</g>
			<g transform=" matrix(0.707107,-0.707107,0.707107,0.707107,896.511588,456.833521)">
				<text style="font-family: Helvetica; font-size: 10px;fill: rgb(0%,0%,0%); stroke:none;" transform="translate(0,0) scale(1,-1)" x="0" y="0">Gene_01335</text>
			</g>
			<g transform=" matrix(0.707107,-0.707107,0.707107,0.707107,942.832678,456.833521)">
				<text style="font-family: Helvetica; font-size: 10px;fill: rgb(0%,0%,0%); stroke:none;" transform="translate(0,0) scale(1,-1)" x="0" y="0">Gene_01336</text>
			</g>
			<g transform=" matrix(0.707107,-0.707107,0.707107,0.707107,982.930309,456.833521)">
				<text style="font-family: Helvetica; font-size: 10px;fill: rgb(0%,0%,0%); stroke:none;" transform="translate(0,0) scale(1,-1)" x="0" y="0">Gene_01337</text>
			</g>
			<g transform=" matrix(0.707107,-0.707107,0.707107,0.707107,1021.526668,456.833521)">
				<text style="font-family: Helvetica; font-size: 10px;fill: rgb(0%,0%,0%); stroke:none;" transform="translate(0,0) scale(1,-1)" x="0" y="0">Gene_01338</text>
			</g>
			<g transform=" matrix(0.707107,0.707107,-0.707107,0.707107,1099.128824,538.835771)">
				<text style="font-family: Helvetica; font-size: 10px;fill: rgb(0%,0%,0%); stroke:none;" transform="translate(0,0) scale(1,-1)" x="0" y="0">Gene_01339</text>
			</g>
			<g transform=" matrix(0.707107,-0.707107,0.707107,0.707107,1174.656493,456.833521)">
				<text style="font-family: Helvetica; font-size: 10px;fill: rgb(0%,0%,0%); stroke:none;" transform="translate(0,0) scale(1,-1)" x="0" y="0">Gene_01340</text>
			</g>
			<g transform=" matrix(0.707107,0.707107,-0.707107,0.707107,1214.754125,538.835771)">
				<text style="font-family: Helvetica; font-size: 10px;fill: rgb(0%,0%,0%); stroke:none;" transform="translate(0,0) scale(1,-1)" x="0" y="0">Gene_01341</text>
			</g>
			<g transform=" matrix(0.707107,-0.707107,0.707107,0.707107,1295.659081,456.833521)">
				<text style="font-family: Helvetica; font-size: 10px;fill: rgb(0%,0%,0%); stroke:none;" transform="translate(0,0) scale(1,-1)" x="0" y="0">Gene_01342</text>
			</g>
			<g transform=" matrix(1,0,-0,1,70,169.825647)">
				<text style="font-family: Helvetica; font-size: 12px;fill: rgb(60%,60%,60%); stroke:none;" transform="translate(0,0) scale(1,-1)" x="0" y="0">megahit_17858 (left 32957bp, right 18790bp)</text>
			</g>
			<g transform=" matrix(1,0,-0,1,70,456.833521)">
				<text style="font-family: Helvetica; font-size: 12px;fill: rgb(60%,60%,60%); stroke:none;" transform="translate(0,0) scale(1,-1)" x="0" y="0">megahit_61166 (left 14834bp, right 26955bp)</text>
			</g>
		</g>
	</g>
</svg>
