<?xml version="1.0" encoding="utf-8"?>
<!DOCTYPE svg
  PUBLIC '-//W3C//DTD SVG 1.0//EN'
  'http://www.w3.org/TR/2001/REC-SVG-20010904/DTD/svg10.dtd'>
<svg fill-rule="evenodd" height="708.6614173228346" preserveAspectRatio="xMinYMin meet" version="1.0" viewBox="0 0 1417 708" width="1417.3228346456692" xmlns="http://www.w3.org/2000/svg" xmlns:xlink="http://www.w3.org/1999/xlink">
	<title>...</title>
	<desc>...</desc>
	<clipPath id="clip">
		<rect height="708.6614173228346" width="1417.3228346456692" x="0" y="0"/>
	</clipPath>
	<g id="group" style="clip-path: url(#clip)" transform="scale(1,-1) translate(0,-708)">
		<g transform="">
			<polygon points="70.86614 169.8256, 1292.685 169.8256, 1292.685 251.8279, 70.86614 251.8279" style="stroke: rgb(96%,96%,96%); stroke-linecap: butt; stroke-width: 1; fill: rgb(96%,96%,96%); fill-rule: evenodd;"/>
			<polygon points="70.86614 456.8335, 1346.401 456.8335, 1346.401 538.8358, 70.86614 538.8358" style="stroke: rgb(96%,96%,96%); stroke-linecap: butt; stroke-width: 1; fill: rgb(96%,96%,96%); fill-rule: evenodd;"/>
			<polygon points="646.1585 456.8335, 725.0194 456.8335, 626.6505 251.8279, 705.5114 251.8279" style="stroke: rgb(100%,43%,43%); stroke-linecap: round; stroke-width: 1; fill: rgb(100%,43%,43%); fill-rule: evenodd;"/>
			<polygon points="117.2322 200.5765, 87.26659 200.5765, 87.26659 210.8268, 70.86614 190.3262, 87.26659 169.8256, 87.26659 180.0759, 117.2322 180.0759" style="stroke: rgb(56%,93%,56%); stroke-linecap: round; stroke-width: 1; fill: rgb(56%,93%,56%); fill-rule: evenodd;"/>
			<polygon points="169.1798 200.5765, 134.4063 200.5765, 134.4063 210.8268, 118.0058 190.3262, 134.4063 169.8256, 134.4063 180.0759, 169.1798 180.0759" style="stroke: rgb(56%,93%,56%); stroke-linecap: round; stroke-width: 1; fill: rgb(56%,93%,56%); fill-rule: evenodd;"/>
			<polygon points="177.8561 241.5776, 187.4295 241.5776, 187.4295 251.8279, 203.83 231.3273, 187.4295 210.8268, 187.4295 221.0771, 177.8561 221.0771" style="stroke: rgb(67%,84%,90%); stroke-linecap: round; stroke-width: 1; fill: rgb(67%,84%,90%); fill-rule: evenodd;"/>
			<polygon points="255.3907 200.5765, 228.0778 200.5765, 228.0778 210.8268, 211.6774 190.3262, 228.0778 169.8256, 228.0778 180.0759, 255.3907 180.0759" style="stroke: rgb(56%,93%,56%); stroke-linecap: round; stroke-width: 1; fill: rgb(56%,93%,56%); fill-rule: evenodd;"/>
			<polygon points="277.7724 241.5776, 328.6276 241.5776, 328.6276 251.8279, 345.028 231.3273, 328.6276 210.8268, 328.6276 221.0771, 277.7724 221.0771" style="stroke: rgb(67%,84%,90%); stroke-linecap: round; stroke-width: 1; fill: rgb(67%,84%,90%); fill-rule: evenodd;"/>
			<polygon points="345.9122 241.5776, 349.1856 241.5776, 349.1856 251.8279, 365.586 231.3273, 349.1856 210.8268, 349.1856 221.0771, 345.9122 221.0771" style="stroke: rgb(67%,84%,90%); stroke-linecap: round; stroke-width: 1; fill: rgb(67%,84%,90%); fill-rule: evenodd;"/>
			<polygon points="375.9756 241.5776, 394.0042 241.5776, 394.0042 251.8279, 410.4047 231.3273, 394.0042 210.8268, 394.0042 221.0771, 375.9756 221.0771" style="stroke: rgb(67%,84%,90%); stroke-linecap: round; stroke-width: 1; fill: rgb(67%,84%,90%); fill-rule: evenodd;"/>
			<polygon points="448.4259 200.5765, 426.0867 200.5765, 426.0867 210.8268, 409.6862 190.3262, 426.0867 169.8256, 426.0867 180.0759, 448.4259 180.0759" style="stroke: rgb(56%,93%,56%); stroke-linecap: round; stroke-width: 1; fill: rgb(56%,93%,56%); fill-rule: evenodd;"/>
			<polygon points="461.5233 241.5776, 492.4837 241.5776, 492.4837 251.8279, 508.8841 231.3273, 492.4837 210.8268, 492.4837 221.0771, 461.5233 221.0771" style="stroke: rgb(67%,84%,90%); stroke-linecap: round; stroke-width: 1; fill: rgb(67%,84%,90%); fill-rule: evenodd;"/>
			<polygon points="508.3315 241.5776, 527.0233 241.5776, 527.0233 251.8279, 543.4238 231.3273, 527.0233 210.8268, 527.0233 221.0771, 508.3315 221.0771" style="stroke: rgb(67%,84%,90%); stroke-linecap: round; stroke-width: 1; fill: rgb(67%,84%,90%); fill-rule: evenodd;"/>
			<polygon points="542.9264 241.5776, 556.3129 241.5776, 556.3129 251.8279, 572.7134 231.3273, 556.3129 210.8268, 556.3129 221.0771, 542.9264 221.0771" style="stroke: rgb(67%,84%,90%); stroke-linecap: round; stroke-width: 1; fill: rgb(67%,84%,90%); fill-rule: evenodd;"/>
			<polygon points="573.4318 241.5776, 606.7132 241.5776, 606.7132 251.8279, 623.1136 231.3273, 606.7132 210.8268, 606.7132 221.0771, 573.4318 221.0771" style="stroke: rgb(67%,84%,90%); stroke-linecap: round; stroke-width: 1; fill: rgb(67%,84%,90%); fill-rule: evenodd;"/>
			<polygon points="704.0746 200.5765, 642.9404 200.5765, 642.9404 210.8268, 626.54 190.3262, 642.9404 169.8256, 642.9404 180.0759, 704.0746 180.0759" style="stroke: rgb(56%,93%,56%); stroke-linecap: round; stroke-width: 1; fill: rgb(56%,93%,56%); fill-rule: evenodd;"/>
			<polygon points="715.9562 241.5776, 754.3771 241.5776, 754.3771 251.8279, 770.7775 231.3273, 754.3771 210.8268, 754.3771 221.0771, 715.9562 221.0771" style="stroke: rgb(67%,84%,90%); stroke-linecap: round; stroke-width: 1; fill: rgb(67%,84%,90%); fill-rule: evenodd;"/>
			<polygon points="770.6117 241.5776, 770.6117 251.8279, 781.996 231.3273, 770.6117 210.8268, 770.6117 221.0771" style="stroke: rgb(67%,84%,90%); stroke-linecap: round; stroke-width: 1; fill: rgb(67%,84%,90%); fill-rule: evenodd;"/>
			<polygon points="781.8302 241.5776, 837.6591 241.5776, 837.6591 251.8279, 854.0595 231.3273, 837.6591 210.8268, 837.6591 221.0771, 781.8302 221.0771" style="stroke: rgb(67%,84%,90%); stroke-linecap: round; stroke-width: 1; fill: rgb(67%,84%,90%); fill-rule: evenodd;"/>
			<polygon points="857.9832 241.5776, 890.2698 241.5776, 890.2698 251.8279, 906.6703 231.3273, 890.2698 210.8268, 890.2698 221.0771, 857.9832 221.0771" style="stroke: rgb(67%,84%,90%); stroke-linecap: round; stroke-width: 1; fill: rgb(67%,84%,90%); fill-rule: evenodd;"/>
			<polygon points="907.6098 241.5776, 937.4096 241.5776, 937.4096 251.8279, 953.81 231.3273, 937.4096 210.8268, 937.4096 221.0771, 907.6098 221.0771" style="stroke: rgb(67%,84%,90%); stroke-linecap: round; stroke-width: 1; fill: rgb(67%,84%,90%); fill-rule: evenodd;"/>
			<polygon points="954.9153 241.5776, 984.5493 241.5776, 984.5493 251.8279, 1000.95 231.3273, 984.5493 210.8268, 984.5493 221.0771, 954.9153 221.0771" style="stroke: rgb(67%,84%,90%); stroke-linecap: round; stroke-width: 1; fill: rgb(67%,84%,90%); fill-rule: evenodd;"/>
			<polygon points="1003.713 241.5776, 1082.089 241.5776, 1082.089 251.8279, 1098.49 231.3273, 1082.089 210.8268, 1082.089 221.0771, 1003.713 221.0771" style="stroke: rgb(67%,84%,90%); stroke-linecap: round; stroke-width: 1; fill: rgb(67%,84%,90%); fill-rule: evenodd;"/>
			<polygon points="1098.324 241.5776, 1195.435 241.5776, 1195.435 251.8279, 1211.835 231.3273, 1195.435 210.8268, 1195.435 221.0771, 1098.324 221.0771" style="stroke: rgb(67%,84%,90%); stroke-linecap: round; stroke-width: 1; fill: rgb(67%,84%,90%); fill-rule: evenodd;"/>
			<polygon points="1215.482 241.5776, 1218.093 241.5776, 1218.093 251.8279, 1234.493 231.3273, 1218.093 210.8268, 1218.093 221.0771, 1215.482 221.0771" style="stroke: rgb(67%,84%,90%); stroke-linecap: round; stroke-width: 1; fill: rgb(67%,84%,90%); fill-rule: evenodd;"/>
			<polygon points="1241.346 241.5776, 1276.285 241.5776, 1276.285 251.8279, 1292.685 231.3273, 1276.285 210.8268, 1276.285 221.0771, 1241.346 221.0771" style="stroke: rgb(67%,84%,90%); stroke-linecap: round; stroke-width: 1; fill: rgb(67%,84%,90%); fill-rule: evenodd;"/>
			<polygon points="103.4716 487.5844, 87.26659 487.5844, 87.26659 497.8346, 70.86614 477.3341, 87.26659 456.8335, 87.26659 467.0838, 103.4716 467.0838" style="stroke: rgb(56%,93%,56%); stroke-linecap: round; stroke-width: 1; fill: rgb(56%,93%,56%); fill-rule: evenodd;"/>
			<polygon points="124.0848 487.5844, 119.3194 487.5844, 119.3194 497.8346, 102.9189 477.3341, 119.3194 456.8335, 119.3194 467.0838, 124.0848 467.0838" style="stroke: rgb(56%,93%,56%); stroke-linecap: round; stroke-width: 1; fill: rgb(56%,93%,56%); fill-rule: evenodd;"/>
			<polygon points="193.4957 487.5844, 141.6458 487.5844, 141.6458 497.8346, 125.2454 477.3341, 141.6458 456.8335, 141.6458 467.0838, 193.4957 467.0838" style="stroke: rgb(56%,93%,56%); stroke-linecap: round; stroke-width: 1; fill: rgb(56%,93%,56%); fill-rule: evenodd;"/>
			<polygon points="214.6616 487.5844, 209.7304 487.5844, 209.7304 497.8346, 193.3299 477.3341, 209.7304 456.8335, 209.7304 467.0838, 214.6616 467.0838" style="stroke: rgb(56%,93%,56%); stroke-linecap: round; stroke-width: 1; fill: rgb(56%,93%,56%); fill-rule: evenodd;"/>
			<polygon points="226.1011 487.5844, 226.1011 497.8346, 215.38 477.3341, 226.1011 456.8335, 226.1011 467.0838" style="stroke: rgb(56%,93%,56%); stroke-linecap: round; stroke-width: 1; fill: rgb(56%,93%,56%); fill-rule: evenodd;"/>
			<polygon points="255.5013 487.5844, 243.2753 487.5844, 243.2753 497.8346, 226.8748 477.3341, 243.2753 456.8335, 243.2753 467.0838, 255.5013 467.0838" style="stroke: rgb(56%,93%,56%); stroke-linecap: round; stroke-width: 1; fill: rgb(56%,93%,56%); fill-rule: evenodd;"/>
			<polygon points="306.6752 487.5844, 271.2386 487.5844, 271.2386 497.8346, 254.8381 477.3341, 271.2386 456.8335, 271.2386 467.0838, 306.6752 467.0838" style="stroke: rgb(56%,93%,56%); stroke-linecap: round; stroke-width: 1; fill: rgb(56%,93%,56%); fill-rule: evenodd;"/>
			<polygon points="335.6332 487.5844, 328.3809 487.5844, 328.3809 497.8346, 311.9805 477.3341, 328.3809 456.8335, 328.3809 467.0838, 335.6332 467.0838" style="stroke: rgb(56%,93%,56%); stroke-linecap: round; stroke-width: 1; fill: rgb(56%,93%,56%); fill-rule: evenodd;"/>
			<polygon points="356.5228 528.5855, 414.507 528.5855, 414.507 538.8358, 430.9074 518.3352, 414.507 497.8346, 414.507 508.0849, 356.5228 508.0849" style="stroke: rgb(67%,84%,90%); stroke-linecap: round; stroke-width: 1; fill: rgb(67%,84%,90%); fill-rule: evenodd;"/>
			<polygon points="510.9841 487.5844, 454.8237 487.5844, 454.8237 497.8346, 438.4232 477.3341, 454.8237 456.8335, 454.8237 467.0838, 510.9841 467.0838" style="stroke: rgb(56%,93%,56%); stroke-linecap: round; stroke-width: 1; fill: rgb(56%,93%,56%); fill-rule: evenodd;"/>
			<polygon points="632.3426 487.5844, 533.4083 487.5844, 533.4083 497.8346, 517.0078 477.3341, 533.4083 456.8335, 533.4083 467.0838, 632.3426 467.0838" style="stroke: rgb(56%,93%,56%); stroke-linecap: round; stroke-width: 1; fill: rgb(56%,93%,56%); fill-rule: evenodd;"/>
			<polygon points="647.5953 528.5855, 708.7295 528.5855, 708.7295 538.8358, 725.1299 518.3352, 708.7295 497.8346, 708.7295 508.0849, 647.5953 508.0849" style="stroke: rgb(67%,84%,90%); stroke-linecap: round; stroke-width: 1; fill: rgb(67%,84%,90%); fill-rule: evenodd;"/>
			<polygon points="744.0853 487.5844, 744.0853 497.8346, 729.3852 477.3341, 744.0853 456.8335, 744.0853 467.0838" style="stroke: rgb(56%,93%,56%); stroke-linecap: round; stroke-width: 1; fill: rgb(56%,93%,56%); fill-rule: evenodd;"/>
			<polygon points="801.1171 487.5844, 767.67 487.5844, 767.67 497.8346, 751.2695 477.3341, 767.67 456.8335, 767.67 467.0838, 801.1171 467.0838" style="stroke: rgb(56%,93%,56%); stroke-linecap: round; stroke-width: 1; fill: rgb(56%,93%,56%); fill-rule: evenodd;"/>
			<polygon points="853.5069 487.5844, 819.065 487.5844, 819.065 497.8346, 802.6645 477.3341, 819.065 456.8335, 819.065 467.0838, 853.5069 467.0838" style="stroke: rgb(56%,93%,56%); stroke-linecap: round; stroke-width: 1; fill: rgb(56%,93%,56%); fill-rule: evenodd;"/>
			<polygon points="908.1624 487.5844, 869.7415 487.5844, 869.7415 497.8346, 853.3411 477.3341, 869.7415 456.8335, 869.7415 467.0838, 908.1624 467.0838" style="stroke: rgb(56%,93%,56%); stroke-linecap: round; stroke-width: 1; fill: rgb(56%,93%,56%); fill-rule: evenodd;"/>
			<polygon points="927.9467 487.5844, 923.6786 487.5844, 923.6786 497.8346, 907.2782 477.3341, 923.6786 456.8335, 923.6786 467.0838, 927.9467 467.0838" style="stroke: rgb(56%,93%,56%); stroke-linecap: round; stroke-width: 1; fill: rgb(56%,93%,56%); fill-rule: evenodd;"/>
			<polygon points="1084.508 487.5844, 945.784 487.5844, 945.784 497.8346, 929.3836 477.3341, 945.784 456.8335, 945.784 467.0838, 1084.508 467.0838" style="stroke: rgb(56%,93%,56%); stroke-linecap: round; stroke-width: 1; fill: rgb(56%,93%,56%); fill-rule: evenodd;"/>
			<polygon points="1103.021 487.5844, 1101.24 487.5844, 1101.24 497.8346, 1084.84 477.3341, 1101.24 456.8335, 1101.24 467.0838, 1103.021 467.0838" style="stroke: rgb(56%,93%,56%); stroke-linecap: round; stroke-width: 1; fill: rgb(56%,93%,56%); fill-rule: evenodd;"/>
			<polygon points="1117.5 487.5844, 1117.5 497.8346, 1102.303 477.3341, 1117.5 456.8335, 1117.5 467.0838" style="stroke: rgb(56%,93%,56%); stroke-linecap: round; stroke-width: 1; fill: rgb(56%,93%,56%); fill-rule: evenodd;"/>
			<polygon points="1184.922 487.5844, 1135.061 487.5844, 1135.061 497.8346, 1118.661 477.3341, 1135.061 456.8335, 1135.061 467.0838, 1184.922 467.0838" style="stroke: rgb(56%,93%,56%); stroke-linecap: round; stroke-width: 1; fill: rgb(56%,93%,56%); fill-rule: evenodd;"/>
			<polygon points="1211.835 487.5844, 1202.427 487.5844, 1202.427 497.8346, 1186.027 477.3341, 1202.427 456.8335, 1202.427 467.0838, 1211.835 467.0838" style="stroke: rgb(56%,93%,56%); stroke-linecap: round; stroke-width: 1; fill: rgb(56%,93%,56%); fill-rule: evenodd;"/>
			<polygon points="1346.401 487.5844, 1238.514 487.5844, 1238.514 497.8346, 1222.114 477.3341, 1238.514 456.8335, 1238.514 467.0838, 1346.401 467.0838" style="stroke: rgb(56%,93%,56%); stroke-linecap: round; stroke-width: 1; fill: rgb(56%,93%,56%); fill-rule: evenodd;"/>
			<path d="M 1292.685373,169.825647 L 1292.685373,251.827897 Z" style="stroke: rgb(0%,0%,0%); stroke-linecap: butt; stroke-width: 1;"/>
			<path d="M 70.866142,210.826772 L 1292.685373,210.826772 Z" style="stroke: rgb(0%,0%,0%); stroke-linecap: butt; stroke-width: 1;"/>
			<path d="M 70.866142,169.825647 L 70.866142,251.827897 Z" style="stroke: rgb(0%,0%,0%); stroke-linecap: butt; stroke-width: 1;"/>
			<path d="M 623.500468,210.826772 L 623.500468,231.327334 Z" style="stroke: rgb(0%,0%,0%); stroke-linecap: butt; stroke-width: 1;"/>
			<path d="M 1176.134794,210.826772 L 1176.134794,231.327334 Z" style="stroke: rgb(0%,0%,0%); stroke-linecap: butt; stroke-width: 1;"/>
			<path d="M 623.500468,210.826772 L 623.500468,223.127109 Z" style="stroke: rgb(0%,0%,0%); stroke-linecap: butt; stroke-width: 1;"/>
			<path d="M 1176.134794,210.826772 L 1176.134794,223.127109 Z" style="stroke: rgb(0%,0%,0%); stroke-linecap: butt; stroke-width: 1;"/>
			<path d="M 1346.401429,456.833521 L 1346.401429,538.835771 Z" style="stroke: rgb(0%,0%,0%); stroke-linecap: butt; stroke-width: 1;"/>
			<path d="M 70.866142,497.834646 L 1346.401429,497.834646 Z" style="stroke: rgb(0%,0%,0%); stroke-linecap: butt; stroke-width: 1;"/>
			<path d="M 70.866142,456.833521 L 70.866142,538.835771 Z" style="stroke: rgb(0%,0%,0%); stroke-linecap: butt; stroke-width: 1;"/>
			<path d="M 623.500468,497.834646 L 623.500468,518.335208 Z" style="stroke: rgb(0%,0%,0%); stroke-linecap: butt; stroke-width: 1;"/>
			<path d="M 1176.134794,497.834646 L 1176.134794,518.335208 Z" style="stroke: rgb(0%,0%,0%); stroke-linecap: butt; stroke-width: 1;"/>
			<path d="M 623.500468,497.834646 L 623.500468,510.134983 Z" style="stroke: rgb(0%,0%,0%); stroke-linecap: butt; stroke-width: 1;"/>
			<path d="M 1176.134794,497.834646 L 1176.134794,510.134983 Z" style="stroke: rgb(0%,0%,0%); stroke-linecap: butt; stroke-width: 1;"/>
			<g transform=" matrix(0.707107,0.707107,-0.707107,0.707107,623.500468,231.327334)">
				<text style="font-family: Helvetica; font-size: 6px;fill: rgb(0%,0%,0%); stroke:none;" transform="translate(0,0) scale(1,-1)" x="0" y="0">10000</text>
			</g>
			<g transform=" matrix(0.707107,0.707107,-0.707107,0.707107,1176.134794,231.327334)">
				<text style="font-family: Helvetica; font-size: 6px;fill: rgb(0%,0%,0%); stroke:none;" transform="translate(0,0) scale(1,-1)" x="0" y="0">20000</text>
			</g>
			<g transform=" matrix(0.707107,0.707107,-0.707107,0.707107,623.500468,518.335208)">
				<text style="font-family: Helvetica; font-size: 6px;fill: rgb(0%,0%,0%); stroke:none;" transform="translate(0,0) scale(1,-1)" x="0" y="0">10000</text>
			</g>
			<g transform=" matrix(0.707107,0.707107,-0.707107,0.707107,1176.134794,518.335208)">
				<text style="font-family: Helvetica; font-size: 6px;fill: rgb(0%,0%,0%); stroke:none;" transform="translate(0,0) scale(1,-1)" x="0" y="0">20000</text>
			</g>
			<g transform=" matrix(0.707107,-0.707107,0.707107,0.707107,94.049152,169.825647)">
				<text style="font-family: Helvetica; font-size: 10px;fill: rgb(0%,0%,0%); stroke:none;" transform="translate(0,0) scale(1,-1)" x="0" y="0">Gene_01820</text>
			</g>
			<g transform=" matrix(0.707107,-0.707107,0.707107,0.707107,143.592819,169.825647)">
				<text style="font-family: Helvetica; font-size: 10px;fill: rgb(0%,0%,0%); stroke:none;" transform="translate(0,0) scale(1,-1)" x="0" y="0">Gene_01821</text>
			</g>
			<g transform=" matrix(0.707107,0.707107,-0.707107,0.707107,190.843054,251.827897)">
				<text style="font-family: Helvetica; font-size: 10px;fill: rgb(0%,0%,0%); stroke:none;" transform="translate(0,0) scale(1,-1)" x="0" y="0">Gene_01822</text>
			</g>
			<g transform=" matrix(0.707107,-0.707107,0.707107,0.707107,233.534056,169.825647)">
				<text style="font-family: Helvetica; font-size: 10px;fill: rgb(0%,0%,0%); stroke:none;" transform="translate(0,0) scale(1,-1)" x="0" y="0">Gene_01823</text>
			</g>
			<g transform=" matrix(0.707107,0.707107,-0.707107,0.707107,311.400232,251.827897)">
				<text style="font-family: Helvetica; font-size: 10px;fill: rgb(0%,0%,0%); stroke:none;" transform="translate(0,0) scale(1,-1)" x="0" y="0">Gene_01824</text>
			</g>
			<g transform=" matrix(0.707107,0.707107,-0.707107,0.707107,355.749137,251.827897)">
				<text style="font-family: Helvetica; font-size: 10px;fill: rgb(0%,0%,0%); stroke:none;" transform="translate(0,0) scale(1,-1)" x="0" y="0">Gene_01825</text>
			</g>
			<g transform=" matrix(0.707107,0.707107,-0.707107,0.707107,393.190112,251.827897)">
				<text style="font-family: Helvetica; font-size: 10px;fill: rgb(0%,0%,0%); stroke:none;" transform="translate(0,0) scale(1,-1)" x="0" y="0">Gene_01826</text>
			</g>
			<g transform=" matrix(0.707107,-0.707107,0.707107,0.707107,429.05608,169.825647)">
				<text style="font-family: Helvetica; font-size: 10px;fill: rgb(0%,0%,0%); stroke:none;" transform="translate(0,0) scale(1,-1)" x="0" y="0">Gene_01827</text>
			</g>
			<g transform=" matrix(0.707107,0.707107,-0.707107,0.707107,485.203728,251.827897)">
				<text style="font-family: Helvetica; font-size: 10px;fill: rgb(0%,0%,0%); stroke:none;" transform="translate(0,0) scale(1,-1)" x="0" y="0">Gene_01828</text>
			</g>
			<g transform=" matrix(0.707107,0.707107,-0.707107,0.707107,525.877614,251.827897)">
				<text style="font-family: Helvetica; font-size: 10px;fill: rgb(0%,0%,0%); stroke:none;" transform="translate(0,0) scale(1,-1)" x="0" y="0">Gene_01829</text>
			</g>
			<g transform=" matrix(0.707107,0.707107,-0.707107,0.707107,557.819878,251.827897)">
				<text style="font-family: Helvetica; font-size: 10px;fill: rgb(0%,0%,0%); stroke:none;" transform="translate(0,0) scale(1,-1)" x="0" y="0">Gene_01830</text>
			</g>
			<g transform=" matrix(0.707107,0.707107,-0.707107,0.707107,598.272711,251.827897)">
				<text style="font-family: Helvetica; font-size: 10px;fill: rgb(0%,0%,0%); stroke:none;" transform="translate(0,0) scale(1,-1)" x="0" y="0">Gene_01831</text>
			</g>
			<g transform=" matrix(0.707107,-0.707107,0.707107,0.707107,665.307254,169.825647)">
				<text style="font-family: Helvetica; font-size: 16px;fill: rgb(0%,0%,100%); stroke:none;" transform="translate(0,0) scale(1,-1)" x="0" y="0">Gene_01832 (78.4)</text>
			</g>
			<g transform=" matrix(0.707107,0.707107,-0.707107,0.707107,743.366853,251.827897)">
				<text style="font-family: Helvetica; font-size: 10px;fill: rgb(0%,0%,0%); stroke:none;" transform="translate(0,0) scale(1,-1)" x="0" y="0">Gene_01833</text>
			</g>
			<g transform=" matrix(0.707107,0.707107,-0.707107,0.707107,776.303859,251.827897)">
				<text style="font-family: Helvetica; font-size: 10px;fill: rgb(0%,0%,0%); stroke:none;" transform="translate(0,0) scale(1,-1)" x="0" y="0">Gene_01834</text>
			</g>
			<g transform=" matrix(0.707107,0.707107,-0.707107,0.707107,817.944855,251.827897)">
				<text style="font-family: Helvetica; font-size: 10px;fill: rgb(0%,0%,0%); stroke:none;" transform="translate(0,0) scale(1,-1)" x="0" y="0">Gene_01835</text>
			</g>
			<g transform=" matrix(0.707107,0.707107,-0.707107,0.707107,882.326754,251.827897)">
				<text style="font-family: Helvetica; font-size: 10px;fill: rgb(0%,0%,0%); stroke:none;" transform="translate(0,0) scale(1,-1)" x="0" y="0">Gene_01836</text>
			</g>
			<g transform=" matrix(0.707107,0.707107,-0.707107,0.707107,930.709889,251.827897)">
				<text style="font-family: Helvetica; font-size: 10px;fill: rgb(0%,0%,0%); stroke:none;" transform="translate(0,0) scale(1,-1)" x="0" y="0">Gene_01837</text>
			</g>
			<g transform=" matrix(0.707107,0.707107,-0.707107,0.707107,977.932493,251.827897)">
				<text style="font-family: Helvetica; font-size: 10px;fill: rgb(0%,0%,0%); stroke:none;" transform="translate(0,0) scale(1,-1)" x="0" y="0">Gene_01838</text>
			</g>
			<g transform=" matrix(0.707107,0.707107,-0.707107,0.707107,1051.101277,251.827897)">
				<text style="font-family: Helvetica; font-size: 10px;fill: rgb(0%,0%,0%); stroke:none;" transform="translate(0,0) scale(1,-1)" x="0" y="0">Gene_01839</text>
			</g>
			<g transform=" matrix(0.707107,0.707107,-0.707107,0.707107,1155.079426,251.827897)">
				<text style="font-family: Helvetica; font-size: 10px;fill: rgb(0%,0%,0%); stroke:none;" transform="translate(0,0) scale(1,-1)" x="0" y="0">Gene_01840</text>
			</g>
			<g transform=" matrix(0.707107,0.707107,-0.707107,0.707107,1224.987668,251.827897)">
				<text style="font-family: Helvetica; font-size: 10px;fill: rgb(0%,0%,0%); stroke:none;" transform="translate(0,0) scale(1,-1)" x="0" y="0">Gene_01841</text>
			</g>
			<g transform=" matrix(0.707107,0.707107,-0.707107,0.707107,1267.015509,251.827897)">
				<text style="font-family: Helvetica; font-size: 10px;fill: rgb(0%,0%,0%); stroke:none;" transform="translate(0,0) scale(1,-1)" x="0" y="0">Gene_01842</text>
			</g>
			<g transform=" matrix(0.707107,-0.707107,0.707107,0.707107,87.168854,456.833521)">
				<text style="font-family: Helvetica; font-size: 10px;fill: rgb(0%,0%,0%); stroke:none;" transform="translate(0,0) scale(1,-1)" x="0" y="0">Gene_02486</text>
			</g>
			<g transform=" matrix(0.707107,-0.707107,0.707107,0.707107,113.50188,456.833521)">
				<text style="font-family: Helvetica; font-size: 10px;fill: rgb(0%,0%,0%); stroke:none;" transform="translate(0,0) scale(1,-1)" x="0" y="0">Gene_02487</text>
			</g>
			<g transform=" matrix(0.707107,-0.707107,0.707107,0.707107,159.370529,456.833521)">
				<text style="font-family: Helvetica; font-size: 10px;fill: rgb(0%,0%,0%); stroke:none;" transform="translate(0,0) scale(1,-1)" x="0" y="0">Gene_02488</text>
			</g>
			<g transform=" matrix(0.707107,-0.707107,0.707107,0.707107,203.995751,456.833521)">
				<text style="font-family: Helvetica; font-size: 10px;fill: rgb(0%,0%,0%); stroke:none;" transform="translate(0,0) scale(1,-1)" x="0" y="0">Gene_02489</text>
			</g>
			<g transform=" matrix(0.707107,-0.707107,0.707107,0.707107,220.740571,456.833521)">
				<text style="font-family: Helvetica; font-size: 10px;fill: rgb(0%,0%,0%); stroke:none;" transform="translate(0,0) scale(1,-1)" x="0" y="0">Gene_02490</text>
			</g>
			<g transform=" matrix(0.707107,-0.707107,0.707107,0.707107,241.188041,456.833521)">
				<text style="font-family: Helvetica; font-size: 10px;fill: rgb(0%,0%,0%); stroke:none;" transform="translate(0,0) scale(1,-1)" x="0" y="0">Gene_02491</text>
			</g>
			<g transform=" matrix(0.707107,-0.707107,0.707107,0.707107,280.756659,456.833521)">
				<text style="font-family: Helvetica; font-size: 10px;fill: rgb(0%,0%,0%); stroke:none;" transform="translate(0,0) scale(1,-1)" x="0" y="0">Gene_02492</text>
			</g>
			<g transform=" matrix(0.707107,-0.707107,0.707107,0.707107,323.806873,456.833521)">
				<text style="font-family: Helvetica; font-size: 10px;fill: rgb(0%,0%,0%); stroke:none;" transform="translate(0,0) scale(1,-1)" x="0" y="0">Gene_02493</text>
			</g>
			<g transform=" matrix(0.707107,0.707107,-0.707107,0.707107,393.715115,538.835771)">
				<text style="font-family: Helvetica; font-size: 10px;fill: rgb(0%,0%,0%); stroke:none;" transform="translate(0,0) scale(1,-1)" x="0" y="0">Gene_02494</text>
			</g>
			<g transform=" matrix(0.707107,-0.707107,0.707107,0.707107,474.703675,456.833521)">
				<text style="font-family: Helvetica; font-size: 10px;fill: rgb(0%,0%,0%); stroke:none;" transform="translate(0,0) scale(1,-1)" x="0" y="0">Gene_02495</text>
			</g>
			<g transform=" matrix(0.707107,-0.707107,0.707107,0.707107,574.675225,456.833521)">
				<text style="font-family: Helvetica; font-size: 10px;fill: rgb(0%,0%,0%); stroke:none;" transform="translate(0,0) scale(1,-1)" x="0" y="0">Gene_02496</text>
			</g>
			<g transform=" matrix(0.707107,0.707107,-0.707107,0.707107,686.362622,538.835771)">
				<text style="font-family: Helvetica; font-size: 16px;fill: rgb(0%,0%,100%); stroke:none;" transform="translate(0,0) scale(1,-1)" x="0" y="0">Gene_02497 (78.4)</text>
			</g>
			<g transform=" matrix(0.707107,-0.707107,0.707107,0.707107,736.735241,456.833521)">
				<text style="font-family: Helvetica; font-size: 10px;fill: rgb(0%,0%,0%); stroke:none;" transform="translate(0,0) scale(1,-1)" x="0" y="0">Gene_02498</text>
			</g>
			<g transform=" matrix(0.707107,-0.707107,0.707107,0.707107,776.193332,456.833521)">
				<text style="font-family: Helvetica; font-size: 10px;fill: rgb(0%,0%,0%); stroke:none;" transform="translate(0,0) scale(1,-1)" x="0" y="0">Gene_02499</text>
			</g>
			<g transform=" matrix(0.707107,-0.707107,0.707107,0.707107,828.085695,456.833521)">
				<text style="font-family: Helvetica; font-size: 10px;fill: rgb(0%,0%,0%); stroke:none;" transform="translate(0,0) scale(1,-1)" x="0" y="0">Gene_02500</text>
			</g>
			<g transform=" matrix(0.707107,-0.707107,0.707107,0.707107,880.751746,456.833521)">
				<text style="font-family: Helvetica; font-size: 10px;fill: rgb(0%,0%,0%); stroke:none;" transform="translate(0,0) scale(1,-1)" x="0" y="0">Gene_02501</text>
			</g>
			<g transform=" matrix(0.707107,-0.707107,0.707107,0.707107,917.612456,456.833521)">
				<text style="font-family: Helvetica; font-size: 10px;fill: rgb(0%,0%,0%); stroke:none;" transform="translate(0,0) scale(1,-1)" x="0" y="0">Gene_02502</text>
			</g>
			<g transform=" matrix(0.707107,-0.707107,0.707107,0.707107,1006.945795,456.833521)">
				<text style="font-family: Helvetica; font-size: 10px;fill: rgb(0%,0%,0%); stroke:none;" transform="translate(0,0) scale(1,-1)" x="0" y="0">Gene_02503</text>
			</g>
			<g transform=" matrix(0.707107,-0.707107,0.707107,0.707107,1093.930438,456.833521)">
				<text style="font-family: Helvetica; font-size: 10px;fill: rgb(0%,0%,0%); stroke:none;" transform="translate(0,0) scale(1,-1)" x="0" y="0">Gene_02504</text>
			</g>
			<g transform=" matrix(0.707107,-0.707107,0.707107,0.707107,1109.90157,456.833521)">
				<text style="font-family: Helvetica; font-size: 10px;fill: rgb(0%,0%,0%); stroke:none;" transform="translate(0,0) scale(1,-1)" x="0" y="0">Gene_02505</text>
			</g>
			<g transform=" matrix(0.707107,-0.707107,0.707107,0.707107,1151.791252,456.833521)">
				<text style="font-family: Helvetica; font-size: 10px;fill: rgb(0%,0%,0%); stroke:none;" transform="translate(0,0) scale(1,-1)" x="0" y="0">Gene_02506</text>
			</g>
			<g transform=" matrix(0.707107,-0.707107,0.707107,0.707107,1198.93096,456.833521)">
				<text style="font-family: Helvetica; font-size: 10px;fill: rgb(0%,0%,0%); stroke:none;" transform="translate(0,0) scale(1,-1)" x="0" y="0">Gene_02507</text>
			</g>
			<g transform=" matrix(0.707107,-0.707107,0.707107,0.707107,1284.2577,456.833521)">
				<text style="font-family: Helvetica; font-size: 10px;fill: rgb(0%,0%,0%); stroke:none;" transform="translate(0,0) scale(1,-1)" x="0" y="0">Gene_02508</text>
			</g>
			<g transform=" matrix(1,0,-0,1,70,169.825647)">
				<text style="font-family: Helvetica; font-size: 12px;fill: rgb(60%,60%,60%); stroke:none;" transform="translate(0,0) scale(1,-1)" x="0" y="0">megahit_52867 (left 24338bp, right 54342bp)</text>
			</g>
			<g transform=" matrix(1,0,-0,1,70,456.833521)">
				<text style="font-family: Helvetica; font-size: 12px;fill: rgb(60%,60%,60%); stroke:none;" transform="translate(0,0) scale(1,-1)" x="0" y="0">megahit_153989 (left 32985bp, right 19841bp)</text>
			</g>
		</g>
	</g>
</svg>
