<?xml version="1.0" encoding="utf-8"?>
<!DOCTYPE svg
  PUBLIC '-//W3C//DTD SVG 1.0//EN'
  'http://www.w3.org/TR/2001/REC-SVG-20010904/DTD/svg10.dtd'>
<svg fill-rule="evenodd" height="708.6614173228346" preserveAspectRatio="xMinYMin meet" version="1.0" viewBox="0 0 1417 708" width="1417.3228346456692" xmlns="http://www.w3.org/2000/svg" xmlns:xlink="http://www.w3.org/1999/xlink">
	<title>...</title>
	<desc>...</desc>
	<clipPath id="clip">
		<rect height="708.6614173228346" width="1417.3228346456692" x="0" y="0"/>
	</clipPath>
	<g id="group" style="clip-path: url(#clip)" transform="scale(1,-1) translate(0,-708)">
		<g transform="">
			<polygon points="70.86614 169.8256, 651.2587 169.8256, 651.2587 251.8279, 70.86614 251.8279" style="stroke: rgb(96%,96%,96%); stroke-linecap: butt; stroke-width: 1; fill: rgb(96%,96%,96%); fill-rule: evenodd;"/>
			<polygon points="70.86614 456.8335, 1346.399 456.8335, 1346.399 538.8358, 70.86614 538.8358" style="stroke: rgb(96%,96%,96%); stroke-linecap: butt; stroke-width: 1; fill: rgb(96%,96%,96%); fill-rule: evenodd;"/>
			<polygon points="688.4185 456.8335, 893.7723 456.8335, 275.5318 251.8279, 481.9751 251.8279" style="stroke: rgb(100%,41%,41%); stroke-linecap: round; stroke-width: 1; fill: rgb(100%,41%,41%); fill-rule: evenodd;"/>
			<polygon points="516.0956 456.8335, 678.8992 456.8335, 488.1111 251.8279, 651.2587 251.8279" style="stroke: rgb(100%,38%,38%); stroke-linecap: round; stroke-width: 1; fill: rgb(100%,38%,38%); fill-rule: evenodd;"/>
			<polygon points="981.9695 456.8335, 1054.053 456.8335, 201.9003 251.8279, 273.2953 251.8279" style="stroke: rgb(100%,38%,38%); stroke-linecap: round; stroke-width: 1; fill: rgb(100%,38%,38%); fill-rule: evenodd;"/>
			<polygon points="1141.275 456.8335, 1187.782 456.8335, 74.36421 251.8279, 120.7566 251.8279" style="stroke: rgb(100%,61%,61%); stroke-linecap: round; stroke-width: 1; fill: rgb(100%,61%,61%); fill-rule: evenodd;"/>
			<polygon points="1102.395 456.8335, 1131.928 456.8335, 124.9428 251.8279, 153.2714 251.8279" style="stroke: rgb(100%,59%,59%); stroke-linecap: round; stroke-width: 1; fill: rgb(100%,59%,59%); fill-rule: evenodd;"/>
			<polygon points="78.49308 241.5776, 105.5604 241.5776, 105.5604 251.8279, 121.9609 231.3273, 105.5604 210.8268, 105.5604 221.0771, 78.49308 221.0771" style="stroke: rgb(67%,84%,90%); stroke-linecap: round; stroke-width: 1; fill: rgb(67%,84%,90%); fill-rule: evenodd;"/>
			<polygon points="124.0253 241.5776, 140.2544 241.5776, 140.2544 251.8279, 156.6548 231.3273, 140.2544 210.8268, 140.2544 221.0771, 124.0253 221.0771" style="stroke: rgb(67%,84%,90%); stroke-linecap: round; stroke-width: 1; fill: rgb(67%,84%,90%); fill-rule: evenodd;"/>
			<polygon points="196.3952 200.5765, 195.4773 200.5765, 195.4773 210.8268, 179.0769 190.3262, 195.4773 169.8256, 195.4773 180.0759, 196.3952 180.0759" style="stroke: rgb(56%,93%,56%); stroke-linecap: round; stroke-width: 1; fill: rgb(56%,93%,56%); fill-rule: evenodd;"/>
			<polygon points="201.9003 241.5776, 214.0005 241.5776, 214.0005 251.8279, 230.401 231.3273, 214.0005 210.8268, 214.0005 221.0771, 201.9003 221.0771" style="stroke: rgb(67%,84%,90%); stroke-linecap: round; stroke-width: 1; fill: rgb(67%,84%,90%); fill-rule: evenodd;"/>
			<polygon points="232.6374 241.5776, 256.7802 241.5776, 256.7802 251.8279, 273.1806 231.3273, 256.7802 210.8268, 256.7802 221.0771, 232.6374 221.0771" style="stroke: rgb(67%,84%,90%); stroke-linecap: round; stroke-width: 1; fill: rgb(67%,84%,90%); fill-rule: evenodd;"/>
			<polygon points="275.5318 241.5776, 318.0824 241.5776, 318.0824 251.8279, 334.4828 231.3273, 318.0824 210.8268, 318.0824 221.0771, 275.5318 221.0771" style="stroke: rgb(67%,84%,90%); stroke-linecap: round; stroke-width: 1; fill: rgb(67%,84%,90%); fill-rule: evenodd;"/>
			<polygon points="334.3108 241.5776, 353.2924 241.5776, 353.2924 251.8279, 369.6929 231.3273, 353.2924 210.8268, 353.2924 221.0771, 334.3108 221.0771" style="stroke: rgb(67%,84%,90%); stroke-linecap: round; stroke-width: 1; fill: rgb(67%,84%,90%); fill-rule: evenodd;"/>
			<polygon points="372.1587 241.5776, 396.9896 241.5776, 396.9896 251.8279, 413.3901 231.3273, 396.9896 210.8268, 396.9896 221.0771, 372.1587 221.0771" style="stroke: rgb(67%,84%,90%); stroke-linecap: round; stroke-width: 1; fill: rgb(67%,84%,90%); fill-rule: evenodd;"/>
			<polygon points="414.0782 241.5776, 465.5747 241.5776, 465.5747 251.8279, 481.9751 231.3273, 465.5747 210.8268, 465.5747 221.0771, 414.0782 221.0771" style="stroke: rgb(67%,84%,90%); stroke-linecap: round; stroke-width: 1; fill: rgb(67%,84%,90%); fill-rule: evenodd;"/>
			<polygon points="488.1111 241.5776, 545.4568 241.5776, 545.4568 251.8279, 561.8573 231.3273, 545.4568 210.8268, 545.4568 221.0771, 488.1111 221.0771" style="stroke: rgb(67%,84%,90%); stroke-linecap: round; stroke-width: 1; fill: rgb(67%,84%,90%); fill-rule: evenodd;"/>
			<polygon points="602.6298 200.5765, 567.3047 200.5765, 567.3047 210.8268, 550.9043 190.3262, 567.3047 169.8256, 567.3047 180.0759, 602.6298 180.0759" style="stroke: rgb(56%,93%,56%); stroke-linecap: round; stroke-width: 1; fill: rgb(56%,93%,56%); fill-rule: evenodd;"/>
			<polygon points="130.8494 487.5844, 87.26659 487.5844, 87.26659 497.8346, 70.86614 477.3341, 87.26659 456.8335, 87.26659 467.0838, 130.8494 467.0838" style="stroke: rgb(56%,93%,56%); stroke-linecap: round; stroke-width: 1; fill: rgb(56%,93%,56%); fill-rule: evenodd;"/>
			<polygon points="165.486 487.5844, 153.7299 487.5844, 153.7299 497.8346, 137.3294 477.3341, 153.7299 456.8335, 153.7299 467.0838, 165.486 467.0838" style="stroke: rgb(56%,93%,56%); stroke-linecap: round; stroke-width: 1; fill: rgb(56%,93%,56%); fill-rule: evenodd;"/>
			<polygon points="185.7289 487.5844, 185.7289 497.8346, 174.0878 477.3341, 185.7289 456.8335, 185.7289 467.0838" style="stroke: rgb(56%,93%,56%); stroke-linecap: round; stroke-width: 1; fill: rgb(56%,93%,56%); fill-rule: evenodd;"/>
			<polygon points="221.7992 487.5844, 210.3871 487.5844, 210.3871 497.8346, 193.9867 477.3341, 210.3871 456.8335, 210.3871 467.0838, 221.7992 467.0838" style="stroke: rgb(56%,93%,56%); stroke-linecap: round; stroke-width: 1; fill: rgb(56%,93%,56%); fill-rule: evenodd;"/>
			<polygon points="271.2882 487.5844, 238.3717 487.5844, 238.3717 497.8346, 221.9712 477.3341, 238.3717 456.8335, 238.3717 467.0838, 271.2882 467.0838" style="stroke: rgb(56%,93%,56%); stroke-linecap: round; stroke-width: 1; fill: rgb(56%,93%,56%); fill-rule: evenodd;"/>
			<polygon points="383.3984 487.5844, 288.3768 487.5844, 288.3768 497.8346, 271.9764 477.3341, 288.3768 456.8335, 288.3768 467.0838, 383.3984 467.0838" style="stroke: rgb(56%,93%,56%); stroke-linecap: round; stroke-width: 1; fill: rgb(56%,93%,56%); fill-rule: evenodd;"/>
			<polygon points="605.0957 487.5844, 410.1211 487.5844, 410.1211 497.8346, 393.7206 477.3341, 410.1211 456.8335, 410.1211 467.0838, 605.0957 467.0838" style="stroke: rgb(56%,93%,56%); stroke-linecap: round; stroke-width: 1; fill: rgb(56%,93%,56%); fill-rule: evenodd;"/>
			<polygon points="678.8992 487.5844, 621.7255 487.5844, 621.7255 497.8346, 605.325 477.3341, 621.7255 456.8335, 621.7255 467.0838, 678.8992 467.0838" style="stroke: rgb(56%,93%,56%); stroke-linecap: round; stroke-width: 1; fill: rgb(56%,93%,56%); fill-rule: evenodd;"/>
			<polygon points="756.3154 487.5844, 704.8189 487.5844, 704.8189 497.8346, 688.4185 477.3341, 704.8189 456.8335, 704.8189 467.0838, 756.3154 467.0838" style="stroke: rgb(56%,93%,56%); stroke-linecap: round; stroke-width: 1; fill: rgb(56%,93%,56%); fill-rule: evenodd;"/>
			<polygon points="798.2922 487.5844, 773.4614 487.5844, 773.4614 497.8346, 757.0609 477.3341, 773.4614 456.8335, 773.4614 467.0838, 798.2922 467.0838" style="stroke: rgb(56%,93%,56%); stroke-linecap: round; stroke-width: 1; fill: rgb(56%,93%,56%); fill-rule: evenodd;"/>
			<polygon points="834.9933 487.5844, 815.8396 487.5844, 815.8396 497.8346, 799.4391 477.3341, 815.8396 456.8335, 815.8396 467.0838, 834.9933 467.0838" style="stroke: rgb(56%,93%,56%); stroke-linecap: round; stroke-width: 1; fill: rgb(56%,93%,56%); fill-rule: evenodd;"/>
			<polygon points="893.7723 487.5844, 851.2217 487.5844, 851.2217 497.8346, 834.8212 477.3341, 851.2217 456.8335, 851.2217 467.0838, 893.7723 467.0838" style="stroke: rgb(56%,93%,56%); stroke-linecap: round; stroke-width: 1; fill: rgb(56%,93%,56%); fill-rule: evenodd;"/>
			<polygon points="976.9804 487.5844, 911.377 487.5844, 911.377 497.8346, 894.9765 477.3341, 911.377 456.8335, 911.377 467.0838, 976.9804 467.0838" style="stroke: rgb(56%,93%,56%); stroke-linecap: round; stroke-width: 1; fill: rgb(56%,93%,56%); fill-rule: evenodd;"/>
			<polygon points="1022.627 487.5844, 998.4846 487.5844, 998.4846 497.8346, 982.0842 477.3341, 998.4846 456.8335, 998.4846 467.0838, 1022.627 467.0838" style="stroke: rgb(56%,93%,56%); stroke-linecap: round; stroke-width: 1; fill: rgb(56%,93%,56%); fill-rule: evenodd;"/>
			<polygon points="1054.053 487.5844, 1042.469 487.5844, 1042.469 497.8346, 1026.068 477.3341, 1042.469 456.8335, 1042.469 467.0838, 1054.053 467.0838" style="stroke: rgb(56%,93%,56%); stroke-linecap: round; stroke-width: 1; fill: rgb(56%,93%,56%); fill-rule: evenodd;"/>
			<polygon points="1058.87 528.5855, 1059.271 528.5855, 1059.271 538.8358, 1075.672 518.3352, 1059.271 497.8346, 1059.271 508.0849, 1058.87 508.0849" style="stroke: rgb(67%,84%,90%); stroke-linecap: round; stroke-width: 1; fill: rgb(67%,84%,90%); fill-rule: evenodd;"/>
			<polygon points="1137.318 487.5844, 1111.111 487.5844, 1111.111 497.8346, 1094.71 477.3341, 1111.111 456.8335, 1111.111 467.0838, 1137.318 467.0838" style="stroke: rgb(56%,93%,56%); stroke-linecap: round; stroke-width: 1; fill: rgb(56%,93%,56%); fill-rule: evenodd;"/>
			<polygon points="1187.782 487.5844, 1156.586 487.5844, 1156.586 497.8346, 1140.185 477.3341, 1156.586 456.8335, 1156.586 467.0838, 1187.782 467.0838" style="stroke: rgb(56%,93%,56%); stroke-linecap: round; stroke-width: 1; fill: rgb(56%,93%,56%); fill-rule: evenodd;"/>
			<polygon points="1237.042 487.5844, 1214.447 487.5844, 1214.447 497.8346, 1198.047 477.3341, 1214.447 456.8335, 1214.447 467.0838, 1237.042 467.0838" style="stroke: rgb(56%,93%,56%); stroke-linecap: round; stroke-width: 1; fill: rgb(56%,93%,56%); fill-rule: evenodd;"/>
			<polygon points="1284.81 487.5844, 1253.27 487.5844, 1253.27 497.8346, 1236.87 477.3341, 1253.27 456.8335, 1253.27 467.0838, 1284.81 467.0838" style="stroke: rgb(56%,93%,56%); stroke-linecap: round; stroke-width: 1; fill: rgb(56%,93%,56%); fill-rule: evenodd;"/>
			<polygon points="1346.399 487.5844, 1302.472 487.5844, 1302.472 497.8346, 1286.072 477.3341, 1302.472 456.8335, 1302.472 467.0838, 1346.399 467.0838" style="stroke: rgb(56%,93%,56%); stroke-linecap: round; stroke-width: 1; fill: rgb(56%,93%,56%); fill-rule: evenodd;"/>
			<path d="M 651.258696,169.825647 L 651.258696,251.827897 Z" style="stroke: rgb(0%,0%,0%); stroke-linecap: butt; stroke-width: 1;"/>
			<path d="M 70.866142,210.826772 L 651.258696,210.826772 Z" style="stroke: rgb(0%,0%,0%); stroke-linecap: butt; stroke-width: 1;"/>
			<path d="M 70.866142,169.825647 L 70.866142,251.827897 Z" style="stroke: rgb(0%,0%,0%); stroke-linecap: butt; stroke-width: 1;"/>
			<path d="M 644.319905,210.826772 L 644.319905,231.327334 Z" style="stroke: rgb(0%,0%,0%); stroke-linecap: butt; stroke-width: 1;"/>
			<path d="M 644.319905,210.826772 L 644.319905,223.127109 Z" style="stroke: rgb(0%,0%,0%); stroke-linecap: butt; stroke-width: 1;"/>
			<path d="M 1346.399348,456.833521 L 1346.399348,538.835771 Z" style="stroke: rgb(0%,0%,0%); stroke-linecap: butt; stroke-width: 1;"/>
			<path d="M 70.866142,497.834646 L 1346.399348,497.834646 Z" style="stroke: rgb(0%,0%,0%); stroke-linecap: butt; stroke-width: 1;"/>
			<path d="M 70.866142,456.833521 L 70.866142,538.835771 Z" style="stroke: rgb(0%,0%,0%); stroke-linecap: butt; stroke-width: 1;"/>
			<path d="M 644.319905,497.834646 L 644.319905,518.335208 Z" style="stroke: rgb(0%,0%,0%); stroke-linecap: butt; stroke-width: 1;"/>
			<path d="M 1217.773668,497.834646 L 1217.773668,518.335208 Z" style="stroke: rgb(0%,0%,0%); stroke-linecap: butt; stroke-width: 1;"/>
			<path d="M 644.319905,497.834646 L 644.319905,510.134983 Z" style="stroke: rgb(0%,0%,0%); stroke-linecap: butt; stroke-width: 1;"/>
			<path d="M 1217.773668,497.834646 L 1217.773668,510.134983 Z" style="stroke: rgb(0%,0%,0%); stroke-linecap: butt; stroke-width: 1;"/>
			<g transform=" matrix(0.707107,0.707107,-0.707107,0.707107,644.319905,231.327334)">
				<text style="font-family: Helvetica; font-size: 6px;fill: rgb(0%,0%,0%); stroke:none;" transform="translate(0,0) scale(1,-1)" x="0" y="0">10000</text>
			</g>
			<g transform=" matrix(0.707107,0.707107,-0.707107,0.707107,644.319905,518.335208)">
				<text style="font-family: Helvetica; font-size: 6px;fill: rgb(0%,0%,0%); stroke:none;" transform="translate(0,0) scale(1,-1)" x="0" y="0">10000</text>
			</g>
			<g transform=" matrix(0.707107,0.707107,-0.707107,0.707107,1217.773668,518.335208)">
				<text style="font-family: Helvetica; font-size: 6px;fill: rgb(0%,0%,0%); stroke:none;" transform="translate(0,0) scale(1,-1)" x="0" y="0">20000</text>
			</g>
			<g transform=" matrix(0.707107,0.707107,-0.707107,0.707107,100.226974,251.827897)">
				<text style="font-family: Helvetica; font-size: 10px;fill: rgb(0%,0%,0%); stroke:none;" transform="translate(0,0) scale(1,-1)" x="0" y="0">Gene_00772</text>
			</g>
			<g transform=" matrix(0.707107,0.707107,-0.707107,0.707107,140.340065,251.827897)">
				<text style="font-family: Helvetica; font-size: 10px;fill: rgb(0%,0%,0%); stroke:none;" transform="translate(0,0) scale(1,-1)" x="0" y="0">Gene_00773</text>
			</g>
			<g transform=" matrix(0.707107,-0.707107,0.707107,0.707107,187.736019,169.825647)">
				<text style="font-family: Helvetica; font-size: 10px;fill: rgb(0%,0%,0%); stroke:none;" transform="translate(0,0) scale(1,-1)" x="0" y="0">Gene_00774</text>
			</g>
			<g transform=" matrix(0.707107,0.707107,-0.707107,0.707107,216.150653,251.827897)">
				<text style="font-family: Helvetica; font-size: 10px;fill: rgb(0%,0%,0%); stroke:none;" transform="translate(0,0) scale(1,-1)" x="0" y="0">Gene_00775</text>
			</g>
			<g transform=" matrix(0.707107,0.707107,-0.707107,0.707107,252.909039,251.827897)">
				<text style="font-family: Helvetica; font-size: 10px;fill: rgb(0%,0%,0%); stroke:none;" transform="translate(0,0) scale(1,-1)" x="0" y="0">Gene_00776</text>
			</g>
			<g transform=" matrix(0.707107,0.707107,-0.707107,0.707107,305.007313,251.827897)">
				<text style="font-family: Helvetica; font-size: 10px;fill: rgb(0%,0%,0%); stroke:none;" transform="translate(0,0) scale(1,-1)" x="0" y="0">Gene_00777</text>
			</g>
			<g transform=" matrix(0.707107,0.707107,-0.707107,0.707107,352.001849,251.827897)">
				<text style="font-family: Helvetica; font-size: 10px;fill: rgb(0%,0%,0%); stroke:none;" transform="translate(0,0) scale(1,-1)" x="0" y="0">Gene_00778</text>
			</g>
			<g transform=" matrix(0.707107,0.707107,-0.707107,0.707107,392.774412,251.827897)">
				<text style="font-family: Helvetica; font-size: 10px;fill: rgb(0%,0%,0%); stroke:none;" transform="translate(0,0) scale(1,-1)" x="0" y="0">Gene_00779</text>
			</g>
			<g transform=" matrix(0.707107,0.707107,-0.707107,0.707107,448.026682,251.827897)">
				<text style="font-family: Helvetica; font-size: 16px;fill: rgb(0%,0%,100%); stroke:none;" transform="translate(0,0) scale(1,-1)" x="0" y="0">Gene_00780 (83.6)</text>
			</g>
			<g transform=" matrix(0.707107,0.707107,-0.707107,0.707107,524.984177,251.827897)">
				<text style="font-family: Helvetica; font-size: 10px;fill: rgb(0%,0%,0%); stroke:none;" transform="translate(0,0) scale(1,-1)" x="0" y="0">Gene_00781</text>
			</g>
			<g transform=" matrix(0.707107,-0.707107,0.707107,0.707107,576.767052,169.825647)">
				<text style="font-family: Helvetica; font-size: 10px;fill: rgb(0%,0%,0%); stroke:none;" transform="translate(0,0) scale(1,-1)" x="0" y="0">Gene_00782</text>
			</g>
			<g transform=" matrix(0.707107,-0.707107,0.707107,0.707107,100.857774,456.833521)">
				<text style="font-family: Helvetica; font-size: 10px;fill: rgb(0%,0%,0%); stroke:none;" transform="translate(0,0) scale(1,-1)" x="0" y="0">Gene_00862</text>
			</g>
			<g transform=" matrix(0.707107,-0.707107,0.707107,0.707107,151.407723,456.833521)">
				<text style="font-family: Helvetica; font-size: 10px;fill: rgb(0%,0%,0%); stroke:none;" transform="translate(0,0) scale(1,-1)" x="0" y="0">Gene_00863</text>
			</g>
			<g transform=" matrix(0.707107,-0.707107,0.707107,0.707107,179.908375,456.833521)">
				<text style="font-family: Helvetica; font-size: 10px;fill: rgb(0%,0%,0%); stroke:none;" transform="translate(0,0) scale(1,-1)" x="0" y="0">Gene_00864</text>
			</g>
			<g transform=" matrix(0.707107,-0.707107,0.707107,0.707107,207.892918,456.833521)">
				<text style="font-family: Helvetica; font-size: 10px;fill: rgb(0%,0%,0%); stroke:none;" transform="translate(0,0) scale(1,-1)" x="0" y="0">Gene_00865</text>
			</g>
			<g transform=" matrix(0.707107,-0.707107,0.707107,0.707107,246.62972,456.833521)">
				<text style="font-family: Helvetica; font-size: 10px;fill: rgb(0%,0%,0%); stroke:none;" transform="translate(0,0) scale(1,-1)" x="0" y="0">Gene_00866</text>
			</g>
			<g transform=" matrix(0.707107,-0.707107,0.707107,0.707107,327.68741,456.833521)">
				<text style="font-family: Helvetica; font-size: 10px;fill: rgb(0%,0%,0%); stroke:none;" transform="translate(0,0) scale(1,-1)" x="0" y="0">Gene_00867</text>
			</g>
			<g transform=" matrix(0.707107,-0.707107,0.707107,0.707107,499.408139,456.833521)">
				<text style="font-family: Helvetica; font-size: 10px;fill: rgb(0%,0%,0%); stroke:none;" transform="translate(0,0) scale(1,-1)" x="0" y="0">Gene_00868</text>
			</g>
			<g transform=" matrix(0.707107,-0.707107,0.707107,0.707107,642.112108,456.833521)">
				<text style="font-family: Helvetica; font-size: 10px;fill: rgb(0%,0%,0%); stroke:none;" transform="translate(0,0) scale(1,-1)" x="0" y="0">Gene_00869</text>
			</g>
			<g transform=" matrix(0.707107,-0.707107,0.707107,0.707107,722.366962,456.833521)">
				<text style="font-family: Helvetica; font-size: 16px;fill: rgb(0%,0%,100%); stroke:none;" transform="translate(0,0) scale(1,-1)" x="0" y="0">Gene_00870 (83.6)</text>
			</g>
			<g transform=" matrix(0.707107,-0.707107,0.707107,0.707107,777.676578,456.833521)">
				<text style="font-family: Helvetica; font-size: 10px;fill: rgb(0%,0%,0%); stroke:none;" transform="translate(0,0) scale(1,-1)" x="0" y="0">Gene_00871</text>
			</g>
			<g transform=" matrix(0.707107,-0.707107,0.707107,0.707107,817.216215,456.833521)">
				<text style="font-family: Helvetica; font-size: 10px;fill: rgb(0%,0%,0%); stroke:none;" transform="translate(0,0) scale(1,-1)" x="0" y="0">Gene_00872</text>
			</g>
			<g transform=" matrix(0.707107,-0.707107,0.707107,0.707107,864.296769,456.833521)">
				<text style="font-family: Helvetica; font-size: 10px;fill: rgb(0%,0%,0%); stroke:none;" transform="translate(0,0) scale(1,-1)" x="0" y="0">Gene_00873</text>
			</g>
			<g transform=" matrix(0.707107,-0.707107,0.707107,0.707107,935.978489,456.833521)">
				<text style="font-family: Helvetica; font-size: 10px;fill: rgb(0%,0%,0%); stroke:none;" transform="translate(0,0) scale(1,-1)" x="0" y="0">Gene_00874</text>
			</g>
			<g transform=" matrix(0.707107,-0.707107,0.707107,0.707107,1002.355762,456.833521)">
				<text style="font-family: Helvetica; font-size: 10px;fill: rgb(0%,0%,0%); stroke:none;" transform="translate(0,0) scale(1,-1)" x="0" y="0">Gene_00875</text>
			</g>
			<g transform=" matrix(0.707107,-0.707107,0.707107,0.707107,1040.060347,456.833521)">
				<text style="font-family: Helvetica; font-size: 10px;fill: rgb(0%,0%,0%); stroke:none;" transform="translate(0,0) scale(1,-1)" x="0" y="0">Gene_00876</text>
			</g>
			<g transform=" matrix(0.707107,0.707107,-0.707107,0.707107,1067.270728,538.835771)">
				<text style="font-family: Helvetica; font-size: 10px;fill: rgb(0%,0%,0%); stroke:none;" transform="translate(0,0) scale(1,-1)" x="0" y="0">Gene_00877</text>
			</g>
			<g transform=" matrix(0.707107,-0.707107,0.707107,0.707107,1116.014298,456.833521)">
				<text style="font-family: Helvetica; font-size: 10px;fill: rgb(0%,0%,0%); stroke:none;" transform="translate(0,0) scale(1,-1)" x="0" y="0">Gene_00878</text>
			</g>
			<g transform=" matrix(0.707107,-0.707107,0.707107,0.707107,1163.983705,456.833521)">
				<text style="font-family: Helvetica; font-size: 10px;fill: rgb(0%,0%,0%); stroke:none;" transform="translate(0,0) scale(1,-1)" x="0" y="0">Gene_00879</text>
			</g>
			<g transform=" matrix(0.707107,-0.707107,0.707107,0.707107,1217.544287,456.833521)">
				<text style="font-family: Helvetica; font-size: 10px;fill: rgb(0%,0%,0%); stroke:none;" transform="translate(0,0) scale(1,-1)" x="0" y="0">Gene_00880</text>
			</g>
			<g transform=" matrix(0.707107,-0.707107,0.707107,0.707107,1260.840046,456.833521)">
				<text style="font-family: Helvetica; font-size: 10px;fill: rgb(0%,0%,0%); stroke:none;" transform="translate(0,0) scale(1,-1)" x="0" y="0">Gene_00881</text>
			</g>
			<g transform=" matrix(0.707107,-0.707107,0.707107,0.707107,1316.23568,456.833521)">
				<text style="font-family: Helvetica; font-size: 10px;fill: rgb(0%,0%,0%); stroke:none;" transform="translate(0,0) scale(1,-1)" x="0" y="0">Gene_00882</text>
			</g>
			<g transform=" matrix(1,0,-0,1,70,169.825647)">
				<text style="font-family: Helvetica; font-size: 12px;fill: rgb(60%,60%,60%); stroke:none;" transform="translate(0,0) scale(1,-1)" x="0" y="0">megahit_60197 (left 5985bp, right 2952bp)</text>
			</g>
			<g transform=" matrix(1,0,-0,1,70,456.833521)">
				<text style="font-family: Helvetica; font-size: 12px;fill: rgb(60%,60%,60%); stroke:none;" transform="translate(0,0) scale(1,-1)" x="0" y="0">megahit_56422 (left 19066bp, right 68906bp)</text>
			</g>
		</g>
	</g>
</svg>
