<?xml version="1.0" encoding="utf-8"?>
<!DOCTYPE svg
  PUBLIC '-//W3C//DTD SVG 1.0//EN'
  'http://www.w3.org/TR/2001/REC-SVG-20010904/DTD/svg10.dtd'>
<svg fill-rule="evenodd" height="708.6614173228346" preserveAspectRatio="xMinYMin meet" version="1.0" viewBox="0 0 1417 708" width="1417.3228346456692" xmlns="http://www.w3.org/2000/svg" xmlns:xlink="http://www.w3.org/1999/xlink">
	<title>...</title>
	<desc>...</desc>
	<clipPath id="clip">
		<rect height="708.6614173228346" width="1417.3228346456692" x="0" y="0"/>
	</clipPath>
	<g id="group" style="clip-path: url(#clip)" transform="scale(1,-1) translate(0,-708)">
		<g transform="">
			<polygon points="70.86614 169.8256, 494.7457 169.8256, 494.7457 251.8279, 70.86614 251.8279" style="stroke: rgb(96%,96%,96%); stroke-linecap: butt; stroke-width: 1; fill: rgb(96%,96%,96%); fill-rule: evenodd;"/>
			<polygon points="70.86614 456.8335, 1346.399 456.8335, 1346.399 538.8358, 70.86614 538.8358" style="stroke: rgb(96%,96%,96%); stroke-linecap: butt; stroke-width: 1; fill: rgb(96%,96%,96%); fill-rule: evenodd;"/>
			<polygon points="1030.709 456.8335, 1213.984 456.8335, 442.0543 251.8279, 256.2025 251.8279" style="stroke: rgb(100%,53%,53%); stroke-linecap: round; stroke-width: 1; fill: rgb(100%,53%,53%); fill-rule: evenodd;"/>
			<polygon points="650.8154 456.8335, 700.9868 456.8335, 250.2461 251.8279, 200.0747 251.8279" style="stroke: rgb(100%,36%,36%); stroke-linecap: round; stroke-width: 1; fill: rgb(100%,36%,36%); fill-rule: evenodd;"/>
			<polygon points="72.06888 241.5776, 72.06888 251.8279, 83.35172 231.3273, 72.06888 210.8268, 72.06888 221.0771" style="stroke: rgb(67%,84%,90%); stroke-linecap: round; stroke-width: 1; fill: rgb(67%,84%,90%); fill-rule: evenodd;"/>
			<polygon points="86.50175 241.5776, 86.50175 251.8279, 98.98732 231.3273, 86.50175 210.8268, 86.50175 221.0771" style="stroke: rgb(67%,84%,90%); stroke-linecap: round; stroke-width: 1; fill: rgb(67%,84%,90%); fill-rule: evenodd;"/>
			<polygon points="247.1533 200.5765, 214.6424 200.5765, 214.6424 210.8268, 198.2419 190.3262, 214.6424 169.8256, 214.6424 180.0759, 247.1533 180.0759" style="stroke: rgb(56%,93%,56%); stroke-linecap: round; stroke-width: 1; fill: rgb(56%,93%,56%); fill-rule: evenodd;"/>
			<polygon points="441.1952 200.5765, 272.2593 200.5765, 272.2593 210.8268, 255.8588 190.3262, 272.2593 169.8256, 272.2593 180.0759, 441.1952 180.0759" style="stroke: rgb(56%,93%,56%); stroke-linecap: round; stroke-width: 1; fill: rgb(56%,93%,56%); fill-rule: evenodd;"/>
			<polygon points="493.8866 200.5765, 473.9185 200.5765, 473.9185 210.8268, 457.5181 190.3262, 473.9185 169.8256, 473.9185 180.0759, 493.8866 180.0759" style="stroke: rgb(56%,93%,56%); stroke-linecap: round; stroke-width: 1; fill: rgb(56%,93%,56%); fill-rule: evenodd;"/>
			<polygon points="132.1486 487.5844, 87.26659 487.5844, 87.26659 497.8346, 70.86614 477.3341, 87.26659 456.8335, 87.26659 467.0838, 132.1486 467.0838" style="stroke: rgb(56%,93%,56%); stroke-linecap: round; stroke-width: 1; fill: rgb(56%,93%,56%); fill-rule: evenodd;"/>
			<polygon points="219.2612 487.5844, 151.1836 487.5844, 151.1836 497.8346, 134.7831 477.3341, 151.1836 456.8335, 151.1836 467.0838, 219.2612 467.0838" style="stroke: rgb(56%,93%,56%); stroke-linecap: round; stroke-width: 1; fill: rgb(56%,93%,56%); fill-rule: evenodd;"/>
			<polygon points="241.7696 528.5855, 250.2258 528.5855, 250.2258 538.8358, 266.6262 518.3352, 250.2258 497.8346, 250.2258 508.0849, 241.7696 508.0849" style="stroke: rgb(67%,84%,90%); stroke-linecap: round; stroke-width: 1; fill: rgb(67%,84%,90%); fill-rule: evenodd;"/>
			<polygon points="298.4129 487.5844, 287.0358 487.5844, 287.0358 497.8346, 270.6354 477.3341, 287.0358 456.8335, 287.0358 467.0838, 298.4129 467.0838" style="stroke: rgb(56%,93%,56%); stroke-linecap: round; stroke-width: 1; fill: rgb(56%,93%,56%); fill-rule: evenodd;"/>
			<polygon points="346.007 487.5844, 315.0424 487.5844, 315.0424 497.8346, 298.642 477.3341, 315.0424 456.8335, 315.0424 467.0838, 346.007 467.0838" style="stroke: rgb(56%,93%,56%); stroke-linecap: round; stroke-width: 1; fill: rgb(56%,93%,56%); fill-rule: evenodd;"/>
			<polygon points="409.4085 487.5844, 367.4475 487.5844, 367.4475 497.8346, 351.047 477.3341, 367.4475 456.8335, 367.4475 467.0838, 409.4085 467.0838" style="stroke: rgb(56%,93%,56%); stroke-linecap: round; stroke-width: 1; fill: rgb(56%,93%,56%); fill-rule: evenodd;"/>
			<polygon points="612.0414 487.5844, 429.5317 487.5844, 429.5317 497.8346, 413.1313 477.3341, 429.5317 456.8335, 429.5317 467.0838, 612.0414 467.0838" style="stroke: rgb(56%,93%,56%); stroke-linecap: round; stroke-width: 1; fill: rgb(56%,93%,56%); fill-rule: evenodd;"/>
			<polygon points="634.7216 487.5844, 634.7216 497.8346, 621.0333 477.3341, 634.7216 456.8335, 634.7216 467.0838" style="stroke: rgb(56%,93%,56%); stroke-linecap: round; stroke-width: 1; fill: rgb(56%,93%,56%); fill-rule: evenodd;"/>
			<polygon points="696.3477 487.5844, 665.7267 487.5844, 665.7267 497.8346, 649.3263 477.3341, 665.7267 456.8335, 665.7267 467.0838, 696.3477 467.0838" style="stroke: rgb(56%,93%,56%); stroke-linecap: round; stroke-width: 1; fill: rgb(56%,93%,56%); fill-rule: evenodd;"/>
			<polygon points="706.7714 528.5855, 776.7391 528.5855, 776.7391 538.8358, 793.1395 518.3352, 776.7391 497.8346, 776.7391 508.0849, 706.7714 508.0849" style="stroke: rgb(67%,84%,90%); stroke-linecap: round; stroke-width: 1; fill: rgb(67%,84%,90%); fill-rule: evenodd;"/>
			<polygon points="923.7226 487.5844, 809.7691 487.5844, 809.7691 497.8346, 793.3686 477.3341, 809.7691 456.8335, 809.7691 467.0838, 923.7226 467.0838" style="stroke: rgb(56%,93%,56%); stroke-linecap: round; stroke-width: 1; fill: rgb(56%,93%,56%); fill-rule: evenodd;"/>
			<polygon points="952.5311 487.5844, 939.9512 487.5844, 939.9512 497.8346, 923.5508 477.3341, 939.9512 456.8335, 939.9512 467.0838, 952.5311 467.0838" style="stroke: rgb(56%,93%,56%); stroke-linecap: round; stroke-width: 1; fill: rgb(56%,93%,56%); fill-rule: evenodd;"/>
			<polygon points="961.3511 528.5855, 998.8448 528.5855, 998.8448 538.8358, 1015.245 518.3352, 998.8448 497.8346, 998.8448 508.0849, 961.3511 508.0849" style="stroke: rgb(67%,84%,90%); stroke-linecap: round; stroke-width: 1; fill: rgb(67%,84%,90%); fill-rule: evenodd;"/>
			<polygon points="1213.296 487.5844, 1046.938 487.5844, 1046.938 497.8346, 1030.537 477.3341, 1046.938 456.8335, 1046.938 467.0838, 1213.296 467.0838" style="stroke: rgb(56%,93%,56%); stroke-linecap: round; stroke-width: 1; fill: rgb(56%,93%,56%); fill-rule: evenodd;"/>
			<polygon points="1220.742 528.5855, 1242.772 528.5855, 1242.772 538.8358, 1259.172 518.3352, 1242.772 497.8346, 1242.772 508.0849, 1220.742 508.0849" style="stroke: rgb(67%,84%,90%); stroke-linecap: round; stroke-width: 1; fill: rgb(67%,84%,90%); fill-rule: evenodd;"/>
			<polygon points="1346.399 487.5844, 1280.04 487.5844, 1280.04 497.8346, 1263.64 477.3341, 1280.04 456.8335, 1280.04 467.0838, 1346.399 467.0838" style="stroke: rgb(56%,93%,56%); stroke-linecap: round; stroke-width: 1; fill: rgb(56%,93%,56%); fill-rule: evenodd;"/>
			<path d="M 494.745707,169.825647 L 494.745707,251.827897 Z" style="stroke: rgb(0%,0%,0%); stroke-linecap: butt; stroke-width: 1;"/>
			<path d="M 70.866142,210.826772 L 494.745707,210.826772 Z" style="stroke: rgb(0%,0%,0%); stroke-linecap: butt; stroke-width: 1;"/>
			<path d="M 70.866142,169.825647 L 70.866142,251.827897 Z" style="stroke: rgb(0%,0%,0%); stroke-linecap: butt; stroke-width: 1;"/>
			<path d="M 1346.39942,456.833521 L 1346.39942,538.835771 Z" style="stroke: rgb(0%,0%,0%); stroke-linecap: butt; stroke-width: 1;"/>
			<path d="M 70.866142,497.834646 L 1346.39942,497.834646 Z" style="stroke: rgb(0%,0%,0%); stroke-linecap: butt; stroke-width: 1;"/>
			<path d="M 70.866142,456.833521 L 70.866142,538.835771 Z" style="stroke: rgb(0%,0%,0%); stroke-linecap: butt; stroke-width: 1;"/>
			<path d="M 643.598968,497.834646 L 643.598968,518.335208 Z" style="stroke: rgb(0%,0%,0%); stroke-linecap: butt; stroke-width: 1;"/>
			<path d="M 1216.331795,497.834646 L 1216.331795,518.335208 Z" style="stroke: rgb(0%,0%,0%); stroke-linecap: butt; stroke-width: 1;"/>
			<path d="M 643.598968,497.834646 L 643.598968,510.134983 Z" style="stroke: rgb(0%,0%,0%); stroke-linecap: butt; stroke-width: 1;"/>
			<path d="M 1216.331795,497.834646 L 1216.331795,510.134983 Z" style="stroke: rgb(0%,0%,0%); stroke-linecap: butt; stroke-width: 1;"/>
			<g transform=" matrix(0.707107,0.707107,-0.707107,0.707107,643.598968,518.335208)">
				<text style="font-family: Helvetica; font-size: 6px;fill: rgb(0%,0%,0%); stroke:none;" transform="translate(0,0) scale(1,-1)" x="0" y="0">10000</text>
			</g>
			<g transform=" matrix(0.707107,0.707107,-0.707107,0.707107,1216.331795,518.335208)">
				<text style="font-family: Helvetica; font-size: 6px;fill: rgb(0%,0%,0%); stroke:none;" transform="translate(0,0) scale(1,-1)" x="0" y="0">20000</text>
			</g>
			<g transform=" matrix(0.707107,0.707107,-0.707107,0.707107,77.710299,251.827897)">
				<text style="font-family: Helvetica; font-size: 10px;fill: rgb(0%,0%,0%); stroke:none;" transform="translate(0,0) scale(1,-1)" x="0" y="0">Gene_01688</text>
			</g>
			<g transform=" matrix(0.707107,0.707107,-0.707107,0.707107,92.744536,251.827897)">
				<text style="font-family: Helvetica; font-size: 10px;fill: rgb(0%,0%,0%); stroke:none;" transform="translate(0,0) scale(1,-1)" x="0" y="0">Gene_01689</text>
			</g>
			<g transform=" matrix(0.707107,-0.707107,0.707107,0.707107,222.697614,169.825647)">
				<text style="font-family: Helvetica; font-size: 16px;fill: rgb(0%,0%,100%); stroke:none;" transform="translate(0,0) scale(1,-1)" x="0" y="0">Gene_01690 (80.8)</text>
			</g>
			<g transform=" matrix(0.707107,-0.707107,0.707107,0.707107,348.527016,169.825647)">
				<text style="font-family: Helvetica; font-size: 10px;fill: rgb(0%,0%,0%); stroke:none;" transform="translate(0,0) scale(1,-1)" x="0" y="0">Gene_01691</text>
			</g>
			<g transform=" matrix(0.707107,-0.707107,0.707107,0.707107,475.70234,169.825647)">
				<text style="font-family: Helvetica; font-size: 10px;fill: rgb(0%,0%,0%); stroke:none;" transform="translate(0,0) scale(1,-1)" x="0" y="0">Gene_01692</text>
			</g>
			<g transform=" matrix(0.707107,-0.707107,0.707107,0.707107,101.507348,456.833521)">
				<text style="font-family: Helvetica; font-size: 10px;fill: rgb(0%,0%,0%); stroke:none;" transform="translate(0,0) scale(1,-1)" x="0" y="0">Gene_01907</text>
			</g>
			<g transform=" matrix(0.707107,-0.707107,0.707107,0.707107,177.022171,456.833521)">
				<text style="font-family: Helvetica; font-size: 10px;fill: rgb(0%,0%,0%); stroke:none;" transform="translate(0,0) scale(1,-1)" x="0" y="0">Gene_01908</text>
			</g>
			<g transform=" matrix(0.707107,0.707107,-0.707107,0.707107,254.197919,538.835771)">
				<text style="font-family: Helvetica; font-size: 10px;fill: rgb(0%,0%,0%); stroke:none;" transform="translate(0,0) scale(1,-1)" x="0" y="0">Gene_01909</text>
			</g>
			<g transform=" matrix(0.707107,-0.707107,0.707107,0.707107,284.524123,456.833521)">
				<text style="font-family: Helvetica; font-size: 10px;fill: rgb(0%,0%,0%); stroke:none;" transform="translate(0,0) scale(1,-1)" x="0" y="0">Gene_01910</text>
			</g>
			<g transform=" matrix(0.707107,-0.707107,0.707107,0.707107,322.324489,456.833521)">
				<text style="font-family: Helvetica; font-size: 10px;fill: rgb(0%,0%,0%); stroke:none;" transform="translate(0,0) scale(1,-1)" x="0" y="0">Gene_01911</text>
			</g>
			<g transform=" matrix(0.707107,-0.707107,0.707107,0.707107,380.227778,456.833521)">
				<text style="font-family: Helvetica; font-size: 10px;fill: rgb(0%,0%,0%); stroke:none;" transform="translate(0,0) scale(1,-1)" x="0" y="0">Gene_01912</text>
			</g>
			<g transform=" matrix(0.707107,-0.707107,0.707107,0.707107,512.586334,456.833521)">
				<text style="font-family: Helvetica; font-size: 10px;fill: rgb(0%,0%,0%); stroke:none;" transform="translate(0,0) scale(1,-1)" x="0" y="0">Gene_01913</text>
			</g>
			<g transform=" matrix(0.707107,-0.707107,0.707107,0.707107,627.877452,456.833521)">
				<text style="font-family: Helvetica; font-size: 10px;fill: rgb(0%,0%,0%); stroke:none;" transform="translate(0,0) scale(1,-1)" x="0" y="0">Gene_01914</text>
			</g>
			<g transform=" matrix(0.707107,-0.707107,0.707107,0.707107,672.836979,456.833521)">
				<text style="font-family: Helvetica; font-size: 16px;fill: rgb(0%,0%,100%); stroke:none;" transform="translate(0,0) scale(1,-1)" x="0" y="0">Gene_01915 (80.8)</text>
			</g>
			<g transform=" matrix(0.707107,0.707107,-0.707107,0.707107,749.955454,538.835771)">
				<text style="font-family: Helvetica; font-size: 10px;fill: rgb(0%,0%,0%); stroke:none;" transform="translate(0,0) scale(1,-1)" x="0" y="0">Gene_01916</text>
			</g>
			<g transform=" matrix(0.707107,-0.707107,0.707107,0.707107,858.545598,456.833521)">
				<text style="font-family: Helvetica; font-size: 10px;fill: rgb(0%,0%,0%); stroke:none;" transform="translate(0,0) scale(1,-1)" x="0" y="0">Gene_01917</text>
			</g>
			<g transform=" matrix(0.707107,-0.707107,0.707107,0.707107,938.040914,456.833521)">
				<text style="font-family: Helvetica; font-size: 10px;fill: rgb(0%,0%,0%); stroke:none;" transform="translate(0,0) scale(1,-1)" x="0" y="0">Gene_01918</text>
			</g>
			<g transform=" matrix(0.707107,0.707107,-0.707107,0.707107,988.29822,538.835771)">
				<text style="font-family: Helvetica; font-size: 10px;fill: rgb(0%,0%,0%); stroke:none;" transform="translate(0,0) scale(1,-1)" x="0" y="0">Gene_01919</text>
			</g>
			<g transform=" matrix(0.707107,-0.707107,0.707107,0.707107,1121.916788,456.833521)">
				<text style="font-family: Helvetica; font-size: 10px;fill: rgb(0%,0%,0%); stroke:none;" transform="translate(0,0) scale(1,-1)" x="0" y="0">Gene_01920</text>
			</g>
			<g transform=" matrix(0.707107,0.707107,-0.707107,0.707107,1239.957024,538.835771)">
				<text style="font-family: Helvetica; font-size: 10px;fill: rgb(0%,0%,0%); stroke:none;" transform="translate(0,0) scale(1,-1)" x="0" y="0">Gene_01921</text>
			</g>
			<g transform=" matrix(0.707107,-0.707107,0.707107,0.707107,1305.019473,456.833521)">
				<text style="font-family: Helvetica; font-size: 10px;fill: rgb(0%,0%,0%); stroke:none;" transform="translate(0,0) scale(1,-1)" x="0" y="0">Gene_01922</text>
			</g>
			<g transform=" matrix(1,0,-0,1,70,169.825647)">
				<text style="font-family: Helvetica; font-size: 12px;fill: rgb(60%,60%,60%); stroke:none;" transform="translate(0,0) scale(1,-1)" x="0" y="0">megahit_57822 (left 2224bp, right 4323bp)</text>
			</g>
			<g transform=" matrix(1,0,-0,1,70,456.833521)">
				<text style="font-family: Helvetica; font-size: 12px;fill: rgb(60%,60%,60%); stroke:none;" transform="translate(0,0) scale(1,-1)" x="0" y="0">megahit_82312 (left 14002bp, right 12783bp)</text>
			</g>
		</g>
	</g>
</svg>
