<?xml version="1.0" encoding="utf-8"?>
<!DOCTYPE svg
  PUBLIC '-//W3C//DTD SVG 1.0//EN'
  'http://www.w3.org/TR/2001/REC-SVG-20010904/DTD/svg10.dtd'>
<svg fill-rule="evenodd" height="708.6614173228346" preserveAspectRatio="xMinYMin meet" version="1.0" viewBox="0 0 1417 708" width="1417.3228346456692" xmlns="http://www.w3.org/2000/svg" xmlns:xlink="http://www.w3.org/1999/xlink">
	<title>...</title>
	<desc>...</desc>
	<clipPath id="clip">
		<rect height="708.6614173228346" width="1417.3228346456692" x="0" y="0"/>
	</clipPath>
	<g id="group" style="clip-path: url(#clip)" transform="scale(1,-1) translate(0,-708)">
		<g transform="">
			<polygon points="70.86614 169.8256, 1346.395 169.8256, 1346.395 251.8279, 70.86614 251.8279" style="stroke: rgb(96%,96%,96%); stroke-linecap: butt; stroke-width: 1; fill: rgb(96%,96%,96%); fill-rule: evenodd;"/>
			<polygon points="70.86614 456.8335, 853.7108 456.8335, 853.7108 538.8358, 70.86614 538.8358" style="stroke: rgb(96%,96%,96%); stroke-linecap: butt; stroke-width: 1; fill: rgb(96%,96%,96%); fill-rule: evenodd;"/>
			<polygon points="264.3274 456.8335, 301.1949 456.8335, 788.1686 251.8279, 751.3011 251.8279" style="stroke: rgb(100%,39%,39%); stroke-linecap: round; stroke-width: 1; fill: rgb(100%,39%,39%); fill-rule: evenodd;"/>
			<polygon points="219.143 456.8335, 253.9002 456.8335, 726.2883 251.8279, 691.5311 251.8279" style="stroke: rgb(100%,37%,37%); stroke-linecap: round; stroke-width: 1; fill: rgb(100%,37%,37%); fill-rule: evenodd;"/>
			<polygon points="72.2316 241.5776, 135.6487 241.5776, 135.6487 251.8279, 152.0491 231.3273, 135.6487 210.8268, 135.6487 221.0771, 72.2316 221.0771" style="stroke: rgb(67%,84%,90%); stroke-linecap: round; stroke-width: 1; fill: rgb(67%,84%,90%); fill-rule: evenodd;"/>
			<polygon points="163.8417 241.5776, 235.824 241.5776, 235.824 251.8279, 252.2244 231.3273, 235.824 210.8268, 235.824 221.0771, 163.8417 221.0771" style="stroke: rgb(67%,84%,90%); stroke-linecap: round; stroke-width: 1; fill: rgb(67%,84%,90%); fill-rule: evenodd;"/>
			<polygon points="309.7601 200.5765, 279.4865 200.5765, 279.4865 210.8268, 263.0861 190.3262, 279.4865 169.8256, 279.4865 180.0759, 309.7601 180.0759" style="stroke: rgb(56%,93%,56%); stroke-linecap: round; stroke-width: 1; fill: rgb(56%,93%,56%); fill-rule: evenodd;"/>
			<polygon points="343.4622 200.5765, 326.595 200.5765, 326.595 210.8268, 310.1945 190.3262, 326.595 169.8256, 326.595 180.0759, 343.4622 180.0759" style="stroke: rgb(56%,93%,56%); stroke-linecap: round; stroke-width: 1; fill: rgb(56%,93%,56%); fill-rule: evenodd;"/>
			<polygon points="389.8879 200.5765, 362.966 200.5765, 362.966 210.8268, 346.5655 190.3262, 362.966 169.8256, 362.966 180.0759, 389.8879 180.0759" style="stroke: rgb(56%,93%,56%); stroke-linecap: round; stroke-width: 1; fill: rgb(56%,93%,56%); fill-rule: evenodd;"/>
			<polygon points="483.8566 200.5765, 406.1022 200.5765, 406.1022 210.8268, 389.7017 190.3262, 406.1022 169.8256, 406.1022 180.0759, 483.8566 180.0759" style="stroke: rgb(56%,93%,56%); stroke-linecap: round; stroke-width: 1; fill: rgb(56%,93%,56%); fill-rule: evenodd;"/>
			<polygon points="500.4904 241.5776, 560.9283 241.5776, 560.9283 251.8279, 577.3287 231.3273, 560.9283 210.8268, 560.9283 221.0771, 500.4904 221.0771" style="stroke: rgb(67%,84%,90%); stroke-linecap: round; stroke-width: 1; fill: rgb(67%,84%,90%); fill-rule: evenodd;"/>
			<polygon points="689.5449 200.5765, 599.8738 200.5765, 599.8738 210.8268, 583.4733 190.3262, 599.8738 169.8256, 599.8738 180.0759, 689.5449 180.0759" style="stroke: rgb(56%,93%,56%); stroke-linecap: round; stroke-width: 1; fill: rgb(56%,93%,56%); fill-rule: evenodd;"/>
			<polygon points="725.7297 200.5765, 707.9315 200.5765, 707.9315 210.8268, 691.5311 190.3262, 707.9315 169.8256, 707.9315 180.0759, 725.7297 180.0759" style="stroke: rgb(56%,93%,56%); stroke-linecap: round; stroke-width: 1; fill: rgb(56%,93%,56%); fill-rule: evenodd;"/>
			<polygon points="752.108 241.5776, 771.7681 241.5776, 771.7681 251.8279, 788.1686 231.3273, 771.7681 210.8268, 771.7681 221.0771, 752.108 221.0771" style="stroke: rgb(67%,84%,90%); stroke-linecap: round; stroke-width: 1; fill: rgb(67%,84%,90%); fill-rule: evenodd;"/>
			<polygon points="823.9189 200.5765, 815.6169 200.5765, 815.6169 210.8268, 799.2164 190.3262, 815.6169 169.8256, 815.6169 180.0759, 823.9189 180.0759" style="stroke: rgb(56%,93%,56%); stroke-linecap: round; stroke-width: 1; fill: rgb(56%,93%,56%); fill-rule: evenodd;"/>
			<polygon points="840.1182 200.5765, 840.1182 210.8268, 824.1672 190.3262, 840.1182 169.8256, 840.1182 180.0759" style="stroke: rgb(56%,93%,56%); stroke-linecap: round; stroke-width: 1; fill: rgb(56%,93%,56%); fill-rule: evenodd;"/>
			<polygon points="960.8376 200.5765, 864.8356 200.5765, 864.8356 210.8268, 848.4352 190.3262, 864.8356 169.8256, 864.8356 180.0759, 960.8376 180.0759" style="stroke: rgb(56%,93%,56%); stroke-linecap: round; stroke-width: 1; fill: rgb(56%,93%,56%); fill-rule: evenodd;"/>
			<polygon points="1028.056 200.5765, 983.6309 200.5765, 983.6309 210.8268, 967.2304 190.3262, 983.6309 169.8256, 983.6309 180.0759, 1028.056 180.0759" style="stroke: rgb(56%,93%,56%); stroke-linecap: round; stroke-width: 1; fill: rgb(56%,93%,56%); fill-rule: evenodd;"/>
			<polygon points="1225.179 200.5765, 1043.525 200.5765, 1043.525 210.8268, 1027.125 190.3262, 1043.525 169.8256, 1043.525 180.0759, 1225.179 180.0759" style="stroke: rgb(56%,93%,56%); stroke-linecap: round; stroke-width: 1; fill: rgb(56%,93%,56%); fill-rule: evenodd;"/>
			<polygon points="1296.928 200.5765, 1241.703 200.5765, 1241.703 210.8268, 1225.303 190.3262, 1241.703 169.8256, 1241.703 180.0759, 1296.928 180.0759" style="stroke: rgb(56%,93%,56%); stroke-linecap: round; stroke-width: 1; fill: rgb(56%,93%,56%); fill-rule: evenodd;"/>
			<polygon points="1323.182 200.5765, 1317.859 200.5765, 1317.859 210.8268, 1301.458 190.3262, 1317.859 169.8256, 1317.859 180.0759, 1323.182 180.0759" style="stroke: rgb(56%,93%,56%); stroke-linecap: round; stroke-width: 1; fill: rgb(56%,93%,56%); fill-rule: evenodd;"/>
			<polygon points="1342.981 200.5765, 1341.01 200.5765, 1341.01 210.8268, 1324.609 190.3262, 1341.01 169.8256, 1341.01 180.0759, 1342.981 180.0759" style="stroke: rgb(56%,93%,56%); stroke-linecap: round; stroke-width: 1; fill: rgb(56%,93%,56%); fill-rule: evenodd;"/>
			<polygon points="185.7512 487.5844, 177.4492 487.5844, 177.4492 497.8346, 161.0488 477.3341, 177.4492 456.8335, 177.4492 467.0838, 185.7512 467.0838" style="stroke: rgb(56%,93%,56%); stroke-linecap: round; stroke-width: 1; fill: rgb(56%,93%,56%); fill-rule: evenodd;"/>
			<polygon points="253.3416 487.5844, 235.5434 487.5844, 235.5434 497.8346, 219.143 477.3341, 235.5434 456.8335, 235.5434 467.0838, 253.3416 467.0838" style="stroke: rgb(56%,93%,56%); stroke-linecap: round; stroke-width: 1; fill: rgb(56%,93%,56%); fill-rule: evenodd;"/>
			<polygon points="265.1343 528.5855, 284.7944 528.5855, 284.7944 538.8358, 301.1949 518.3352, 284.7944 497.8346, 284.7944 508.0849, 265.1343 508.0849" style="stroke: rgb(67%,84%,90%); stroke-linecap: round; stroke-width: 1; fill: rgb(67%,84%,90%); fill-rule: evenodd;"/>
			<polygon points="340.9795 487.5844, 329.6983 487.5844, 329.6983 497.8346, 313.2979 477.3341, 329.6983 456.8335, 329.6983 467.0838, 340.9795 467.0838" style="stroke: rgb(56%,93%,56%); stroke-linecap: round; stroke-width: 1; fill: rgb(56%,93%,56%); fill-rule: evenodd;"/>
			<polygon points="405.7149 487.5844, 365.7589 487.5844, 365.7589 497.8346, 349.3585 477.3341, 365.7589 456.8335, 365.7589 467.0838, 405.7149 467.0838" style="stroke: rgb(56%,93%,56%); stroke-linecap: round; stroke-width: 1; fill: rgb(56%,93%,56%); fill-rule: evenodd;"/>
			<polygon points="476.9051 487.5844, 438.4388 487.5844, 438.4388 497.8346, 422.0384 477.3341, 438.4388 456.8335, 438.4388 467.0838, 476.9051 467.0838" style="stroke: rgb(56%,93%,56%); stroke-linecap: round; stroke-width: 1; fill: rgb(56%,93%,56%); fill-rule: evenodd;"/>
			<polygon points="525.0687 487.5844, 506.8981 487.5844, 506.8981 497.8346, 490.4977 477.3341, 506.8981 456.8335, 506.8981 467.0838, 525.0687 467.0838" style="stroke: rgb(56%,93%,56%); stroke-linecap: round; stroke-width: 1; fill: rgb(56%,93%,56%); fill-rule: evenodd;"/>
			<polygon points="562.1224 487.5844, 546.7448 487.5844, 546.7448 497.8346, 530.3444 477.3341, 546.7448 456.8335, 546.7448 467.0838, 562.1224 467.0838" style="stroke: rgb(56%,93%,56%); stroke-linecap: round; stroke-width: 1; fill: rgb(56%,93%,56%); fill-rule: evenodd;"/>
			<polygon points="650.7534 487.5844, 582.3089 487.5844, 582.3089 497.8346, 565.9085 477.3341, 582.3089 456.8335, 582.3089 467.0838, 650.7534 467.0838" style="stroke: rgb(56%,93%,56%); stroke-linecap: round; stroke-width: 1; fill: rgb(56%,93%,56%); fill-rule: evenodd;"/>
			<polygon points="793.9408 487.5844, 674.6639 487.5844, 674.6639 497.8346, 658.2634 477.3341, 674.6639 456.8335, 674.6639 467.0838, 793.9408 467.0838" style="stroke: rgb(56%,93%,56%); stroke-linecap: round; stroke-width: 1; fill: rgb(56%,93%,56%); fill-rule: evenodd;"/>
			<polygon points="853.2143 487.5844, 811.2102 487.5844, 811.2102 497.8346, 794.8097 477.3341, 811.2102 456.8335, 811.2102 467.0838, 853.2143 467.0838" style="stroke: rgb(56%,93%,56%); stroke-linecap: round; stroke-width: 1; fill: rgb(56%,93%,56%); fill-rule: evenodd;"/>
			<path d="M 1346.394626,169.825647 L 1346.394626,251.827897 Z" style="stroke: rgb(0%,0%,0%); stroke-linecap: butt; stroke-width: 1;"/>
			<path d="M 70.866142,210.826772 L 1346.394626,210.826772 Z" style="stroke: rgb(0%,0%,0%); stroke-linecap: butt; stroke-width: 1;"/>
			<path d="M 70.866142,169.825647 L 70.866142,251.827897 Z" style="stroke: rgb(0%,0%,0%); stroke-linecap: butt; stroke-width: 1;"/>
			<path d="M 691.531065,210.826772 L 691.531065,231.327334 Z" style="stroke: rgb(0%,0%,0%); stroke-linecap: butt; stroke-width: 1;"/>
			<path d="M 1312.195989,210.826772 L 1312.195989,231.327334 Z" style="stroke: rgb(0%,0%,0%); stroke-linecap: butt; stroke-width: 1;"/>
			<path d="M 691.531065,210.826772 L 691.531065,223.127109 Z" style="stroke: rgb(0%,0%,0%); stroke-linecap: butt; stroke-width: 1;"/>
			<path d="M 1312.195989,210.826772 L 1312.195989,223.127109 Z" style="stroke: rgb(0%,0%,0%); stroke-linecap: butt; stroke-width: 1;"/>
			<path d="M 853.71081,456.833521 L 853.71081,538.835771 Z" style="stroke: rgb(0%,0%,0%); stroke-linecap: butt; stroke-width: 1;"/>
			<path d="M 70.866142,497.834646 L 853.71081,497.834646 Z" style="stroke: rgb(0%,0%,0%); stroke-linecap: butt; stroke-width: 1;"/>
			<path d="M 70.866142,456.833521 L 70.866142,538.835771 Z" style="stroke: rgb(0%,0%,0%); stroke-linecap: butt; stroke-width: 1;"/>
			<path d="M 691.531065,497.834646 L 691.531065,518.335208 Z" style="stroke: rgb(0%,0%,0%); stroke-linecap: butt; stroke-width: 1;"/>
			<path d="M 691.531065,497.834646 L 691.531065,510.134983 Z" style="stroke: rgb(0%,0%,0%); stroke-linecap: butt; stroke-width: 1;"/>
			<g transform=" matrix(0.707107,0.707107,-0.707107,0.707107,691.531065,231.327334)">
				<text style="font-family: Helvetica; font-size: 6px;fill: rgb(0%,0%,0%); stroke:none;" transform="translate(0,0) scale(1,-1)" x="0" y="0">10000</text>
			</g>
			<g transform=" matrix(0.707107,0.707107,-0.707107,0.707107,1312.195989,231.327334)">
				<text style="font-family: Helvetica; font-size: 6px;fill: rgb(0%,0%,0%); stroke:none;" transform="translate(0,0) scale(1,-1)" x="0" y="0">20000</text>
			</g>
			<g transform=" matrix(0.707107,0.707107,-0.707107,0.707107,691.531065,518.335208)">
				<text style="font-family: Helvetica; font-size: 6px;fill: rgb(0%,0%,0%); stroke:none;" transform="translate(0,0) scale(1,-1)" x="0" y="0">10000</text>
			</g>
			<g transform=" matrix(0.707107,0.707107,-0.707107,0.707107,112.140359,251.827897)">
				<text style="font-family: Helvetica; font-size: 10px;fill: rgb(0%,0%,0%); stroke:none;" transform="translate(0,0) scale(1,-1)" x="0" y="0">Gene_02572</text>
			</g>
			<g transform=" matrix(0.707107,0.707107,-0.707107,0.707107,208.03309,251.827897)">
				<text style="font-family: Helvetica; font-size: 10px;fill: rgb(0%,0%,0%); stroke:none;" transform="translate(0,0) scale(1,-1)" x="0" y="0">Gene_02573</text>
			</g>
			<g transform=" matrix(0.707107,-0.707107,0.707107,0.707107,286.42307,169.825647)">
				<text style="font-family: Helvetica; font-size: 10px;fill: rgb(0%,0%,0%); stroke:none;" transform="translate(0,0) scale(1,-1)" x="0" y="0">Gene_02574</text>
			</g>
			<g transform=" matrix(0.707107,-0.707107,0.707107,0.707107,326.828356,169.825647)">
				<text style="font-family: Helvetica; font-size: 10px;fill: rgb(0%,0%,0%); stroke:none;" transform="translate(0,0) scale(1,-1)" x="0" y="0">Gene_02575</text>
			</g>
			<g transform=" matrix(0.707107,-0.707107,0.707107,0.707107,368.226707,169.825647)">
				<text style="font-family: Helvetica; font-size: 10px;fill: rgb(0%,0%,0%); stroke:none;" transform="translate(0,0) scale(1,-1)" x="0" y="0">Gene_02576</text>
			</g>
			<g transform=" matrix(0.707107,-0.707107,0.707107,0.707107,436.779147,169.825647)">
				<text style="font-family: Helvetica; font-size: 10px;fill: rgb(0%,0%,0%); stroke:none;" transform="translate(0,0) scale(1,-1)" x="0" y="0">Gene_02577</text>
			</g>
			<g transform=" matrix(0.707107,0.707107,-0.707107,0.707107,538.909561,251.827897)">
				<text style="font-family: Helvetica; font-size: 10px;fill: rgb(0%,0%,0%); stroke:none;" transform="translate(0,0) scale(1,-1)" x="0" y="0">Gene_02578</text>
			</g>
			<g transform=" matrix(0.707107,-0.707107,0.707107,0.707107,636.50912,169.825647)">
				<text style="font-family: Helvetica; font-size: 10px;fill: rgb(0%,0%,0%); stroke:none;" transform="translate(0,0) scale(1,-1)" x="0" y="0">Gene_02579</text>
			</g>
			<g transform=" matrix(0.707107,-0.707107,0.707107,0.707107,708.630384,169.825647)">
				<text style="font-family: Helvetica; font-size: 16px;fill: rgb(0%,0%,100%); stroke:none;" transform="translate(0,0) scale(1,-1)" x="0" y="0">Gene_02580 (81.0)</text>
			</g>
			<g transform=" matrix(0.707107,0.707107,-0.707107,0.707107,770.138278,251.827897)">
				<text style="font-family: Helvetica; font-size: 10px;fill: rgb(0%,0%,0%); stroke:none;" transform="translate(0,0) scale(1,-1)" x="0" y="0">Gene_02581</text>
			</g>
			<g transform=" matrix(0.707107,-0.707107,0.707107,0.707107,811.567662,169.825647)">
				<text style="font-family: Helvetica; font-size: 10px;fill: rgb(0%,0%,0%); stroke:none;" transform="translate(0,0) scale(1,-1)" x="0" y="0">Gene_02582</text>
			</g>
			<g transform=" matrix(0.707107,-0.707107,0.707107,0.707107,832.142704,169.825647)">
				<text style="font-family: Helvetica; font-size: 10px;fill: rgb(0%,0%,0%); stroke:none;" transform="translate(0,0) scale(1,-1)" x="0" y="0">Gene_02583</text>
			</g>
			<g transform=" matrix(0.707107,-0.707107,0.707107,0.707107,904.636367,169.825647)">
				<text style="font-family: Helvetica; font-size: 10px;fill: rgb(0%,0%,0%); stroke:none;" transform="translate(0,0) scale(1,-1)" x="0" y="0">Gene_02584</text>
			</g>
			<g transform=" matrix(0.707107,-0.707107,0.707107,0.707107,997.643006,169.825647)">
				<text style="font-family: Helvetica; font-size: 10px;fill: rgb(0%,0%,0%); stroke:none;" transform="translate(0,0) scale(1,-1)" x="0" y="0">Gene_02585</text>
			</g>
			<g transform=" matrix(0.707107,-0.707107,0.707107,0.707107,1126.151678,169.825647)">
				<text style="font-family: Helvetica; font-size: 10px;fill: rgb(0%,0%,0%); stroke:none;" transform="translate(0,0) scale(1,-1)" x="0" y="0">Gene_02586</text>
			</g>
			<g transform=" matrix(0.707107,-0.707107,0.707107,0.707107,1261.115266,169.825647)">
				<text style="font-family: Helvetica; font-size: 10px;fill: rgb(0%,0%,0%); stroke:none;" transform="translate(0,0) scale(1,-1)" x="0" y="0">Gene_02587</text>
			</g>
			<g transform=" matrix(0.707107,-0.707107,0.707107,0.707107,1312.320122,169.825647)">
				<text style="font-family: Helvetica; font-size: 10px;fill: rgb(0%,0%,0%); stroke:none;" transform="translate(0,0) scale(1,-1)" x="0" y="0">Gene_02588</text>
			</g>
			<g transform=" matrix(0.707107,-0.707107,0.707107,0.707107,1333.795128,169.825647)">
				<text style="font-family: Helvetica; font-size: 10px;fill: rgb(0%,0%,0%); stroke:none;" transform="translate(0,0) scale(1,-1)" x="0" y="0">Gene_02589</text>
			</g>
			<g transform=" matrix(0.707107,-0.707107,0.707107,0.707107,173.399987,456.833521)">
				<text style="font-family: Helvetica; font-size: 10px;fill: rgb(0%,0%,0%); stroke:none;" transform="translate(0,0) scale(1,-1)" x="0" y="0">Gene_04385</text>
			</g>
			<g transform=" matrix(0.707107,-0.707107,0.707107,0.707107,236.242311,456.833521)">
				<text style="font-family: Helvetica; font-size: 16px;fill: rgb(0%,0%,100%); stroke:none;" transform="translate(0,0) scale(1,-1)" x="0" y="0">Gene_04386 (81.0)</text>
			</g>
			<g transform=" matrix(0.707107,0.707107,-0.707107,0.707107,283.164579,538.835771)">
				<text style="font-family: Helvetica; font-size: 10px;fill: rgb(0%,0%,0%); stroke:none;" transform="translate(0,0) scale(1,-1)" x="0" y="0">Gene_04387</text>
			</g>
			<g transform=" matrix(0.707107,-0.707107,0.707107,0.707107,327.138689,456.833521)">
				<text style="font-family: Helvetica; font-size: 10px;fill: rgb(0%,0%,0%); stroke:none;" transform="translate(0,0) scale(1,-1)" x="0" y="0">Gene_04388</text>
			</g>
			<g transform=" matrix(0.707107,-0.707107,0.707107,0.707107,377.536681,456.833521)">
				<text style="font-family: Helvetica; font-size: 10px;fill: rgb(0%,0%,0%); stroke:none;" transform="translate(0,0) scale(1,-1)" x="0" y="0">Gene_04389</text>
			</g>
			<g transform=" matrix(0.707107,-0.707107,0.707107,0.707107,449.471745,456.833521)">
				<text style="font-family: Helvetica; font-size: 10px;fill: rgb(0%,0%,0%); stroke:none;" transform="translate(0,0) scale(1,-1)" x="0" y="0">Gene_04390</text>
			</g>
			<g transform=" matrix(0.707107,-0.707107,0.707107,0.707107,507.783215,456.833521)">
				<text style="font-family: Helvetica; font-size: 10px;fill: rgb(0%,0%,0%); stroke:none;" transform="translate(0,0) scale(1,-1)" x="0" y="0">Gene_04391</text>
			</g>
			<g transform=" matrix(0.707107,-0.707107,0.707107,0.707107,546.233407,456.833521)">
				<text style="font-family: Helvetica; font-size: 10px;fill: rgb(0%,0%,0%); stroke:none;" transform="translate(0,0) scale(1,-1)" x="0" y="0">Gene_04392</text>
			</g>
			<g transform=" matrix(0.707107,-0.707107,0.707107,0.707107,608.330932,456.833521)">
				<text style="font-family: Helvetica; font-size: 10px;fill: rgb(0%,0%,0%); stroke:none;" transform="translate(0,0) scale(1,-1)" x="0" y="0">Gene_04393</text>
			</g>
			<g transform=" matrix(0.707107,-0.707107,0.707107,0.707107,726.102102,456.833521)">
				<text style="font-family: Helvetica; font-size: 10px;fill: rgb(0%,0%,0%); stroke:none;" transform="translate(0,0) scale(1,-1)" x="0" y="0">Gene_04394</text>
			</g>
			<g transform=" matrix(0.707107,-0.707107,0.707107,0.707107,824.011993,456.833521)">
				<text style="font-family: Helvetica; font-size: 10px;fill: rgb(0%,0%,0%); stroke:none;" transform="translate(0,0) scale(1,-1)" x="0" y="0">Gene_04395</text>
			</g>
			<g transform=" matrix(1,0,-0,1,70,169.825647)">
				<text style="font-family: Helvetica; font-size: 12px;fill: rgb(60%,60%,60%); stroke:none;" transform="translate(0,0) scale(1,-1)" x="0" y="0">megahit_150824 (left 18343bp, right 24346bp)</text>
			</g>
			<g transform=" matrix(1,0,-0,1,70,456.833521)">
				<text style="font-family: Helvetica; font-size: 12px;fill: rgb(60%,60%,60%); stroke:none;" transform="translate(0,0) scale(1,-1)" x="0" y="0">megahit_155049 (left 2389bp, right 9673bp)</text>
			</g>
		</g>
	</g>
</svg>
