<?xml version="1.0" encoding="utf-8"?>
<!DOCTYPE svg
  PUBLIC '-//W3C//DTD SVG 1.0//EN'
  'http://www.w3.org/TR/2001/REC-SVG-20010904/DTD/svg10.dtd'>
<svg fill-rule="evenodd" height="708.6614173228346" preserveAspectRatio="xMinYMin meet" version="1.0" viewBox="0 0 1417 708" width="1417.3228346456692" xmlns="http://www.w3.org/2000/svg" xmlns:xlink="http://www.w3.org/1999/xlink">
	<title>...</title>
	<desc>...</desc>
	<clipPath id="clip">
		<rect height="708.6614173228346" width="1417.3228346456692" x="0" y="0"/>
	</clipPath>
	<g id="group" style="clip-path: url(#clip)" transform="scale(1,-1) translate(0,-708)">
		<g transform="">
			<polygon points="70.86614 169.8256, 1346.352 169.8256, 1346.352 251.8279, 70.86614 251.8279" style="stroke: rgb(96%,96%,96%); stroke-linecap: butt; stroke-width: 1; fill: rgb(96%,96%,96%); fill-rule: evenodd;"/>
			<polygon points="70.86614 456.8335, 701.4446 456.8335, 701.4446 538.8358, 70.86614 538.8358" style="stroke: rgb(96%,96%,96%); stroke-linecap: butt; stroke-width: 1; fill: rgb(96%,96%,96%); fill-rule: evenodd;"/>
			<polygon points="317.9098 456.8335, 494.3547 456.8335, 248.1477 251.8279, 71.49369 251.8279" style="stroke: rgb(100%,37%,37%); stroke-linecap: round; stroke-width: 1; fill: rgb(100%,37%,37%); fill-rule: evenodd;"/>
			<polygon points="494.0409 456.8335, 622.7923 456.8335, 394.2612 251.8279, 265.5098 251.8279" style="stroke: rgb(100%,25%,25%); stroke-linecap: round; stroke-width: 1; fill: rgb(100%,25%,25%); fill-rule: evenodd;"/>
			<polygon points="75.8865 241.5776, 112.409 241.5776, 112.409 251.8279, 128.8095 231.3273, 112.409 210.8268, 112.409 221.0771, 75.8865 221.0771" style="stroke: rgb(67%,84%,90%); stroke-linecap: round; stroke-width: 1; fill: rgb(67%,84%,90%); fill-rule: evenodd;"/>
			<polygon points="128.4957 241.5776, 201.4159 241.5776, 201.4159 251.8279, 217.8163 231.3273, 201.4159 210.8268, 201.4159 221.0771, 128.4957 221.0771" style="stroke: rgb(67%,84%,90%); stroke-linecap: round; stroke-width: 1; fill: rgb(67%,84%,90%); fill-rule: evenodd;"/>
			<polygon points="217.9209 241.5776, 221.8111 241.5776, 221.8111 251.8279, 238.2116 231.3273, 221.8111 210.8268, 221.8111 221.0771, 217.9209 221.0771" style="stroke: rgb(67%,84%,90%); stroke-linecap: round; stroke-width: 1; fill: rgb(67%,84%,90%); fill-rule: evenodd;"/>
			<polygon points="267.2878 241.5776, 377.547 241.5776, 377.547 251.8279, 393.9474 231.3273, 377.547 210.8268, 377.547 221.0771, 267.2878 221.0771" style="stroke: rgb(67%,84%,90%); stroke-linecap: round; stroke-width: 1; fill: rgb(67%,84%,90%); fill-rule: evenodd;"/>
			<polygon points="434.1103 241.5776, 689.0186 241.5776, 689.0186 251.8279, 705.4191 231.3273, 689.0186 210.8268, 689.0186 221.0771, 434.1103 221.0771" style="stroke: rgb(67%,84%,90%); stroke-linecap: round; stroke-width: 1; fill: rgb(67%,84%,90%); fill-rule: evenodd;"/>
			<polygon points="705.1053 241.5776, 706.7991 241.5776, 706.7991 251.8279, 723.1996 231.3273, 706.7991 210.8268, 706.7991 221.0771, 705.1053 221.0771" style="stroke: rgb(67%,84%,90%); stroke-linecap: round; stroke-width: 1; fill: rgb(67%,84%,90%); fill-rule: evenodd;"/>
			<polygon points="812.4156 200.5765, 757.6942 200.5765, 757.6942 210.8268, 741.2938 190.3262, 757.6942 169.8256, 757.6942 180.0759, 812.4156 180.0759" style="stroke: rgb(56%,93%,56%); stroke-linecap: round; stroke-width: 1; fill: rgb(56%,93%,56%); fill-rule: evenodd;"/>
			<polygon points="938.0292 200.5765, 831.2216 200.5765, 831.2216 210.8268, 814.8212 190.3262, 831.2216 169.8256, 831.2216 180.0759, 938.0292 180.0759" style="stroke: rgb(56%,93%,56%); stroke-linecap: round; stroke-width: 1; fill: rgb(56%,93%,56%); fill-rule: evenodd;"/>
			<polygon points="951.4169 241.5776, 1031.868 241.5776, 1031.868 251.8279, 1048.268 231.3273, 1031.868 210.8268, 1031.868 221.0771, 951.4169 221.0771" style="stroke: rgb(67%,84%,90%); stroke-linecap: round; stroke-width: 1; fill: rgb(67%,84%,90%); fill-rule: evenodd;"/>
			<polygon points="1069.291 241.5776, 1129.033 241.5776, 1129.033 251.8279, 1145.433 231.3273, 1129.033 210.8268, 1129.033 221.0771, 1069.291 221.0771" style="stroke: rgb(67%,84%,90%); stroke-linecap: round; stroke-width: 1; fill: rgb(67%,84%,90%); fill-rule: evenodd;"/>
			<polygon points="1145.747 241.5776, 1229.021 241.5776, 1229.021 251.8279, 1245.422 231.3273, 1229.021 210.8268, 1229.021 221.0771, 1145.747 221.0771" style="stroke: rgb(67%,84%,90%); stroke-linecap: round; stroke-width: 1; fill: rgb(67%,84%,90%); fill-rule: evenodd;"/>
			<polygon points="1245.108 241.5776, 1329.952 241.5776, 1329.952 251.8279, 1346.352 231.3273, 1329.952 210.8268, 1329.952 221.0771, 1245.108 221.0771" style="stroke: rgb(67%,84%,90%); stroke-linecap: round; stroke-width: 1; fill: rgb(67%,84%,90%); fill-rule: evenodd;"/>
			<polygon points="86.76396 528.5855, 94.41941 528.5855, 94.41941 538.8358, 110.8199 518.3352, 94.41941 497.8346, 94.41941 508.0849, 86.76396 508.0849" style="stroke: rgb(67%,84%,90%); stroke-linecap: round; stroke-width: 1; fill: rgb(67%,84%,90%); fill-rule: evenodd;"/>
			<polygon points="153.7021 528.5855, 167.9468 528.5855, 167.9468 538.8358, 184.3473 518.3352, 167.9468 497.8346, 167.9468 508.0849, 153.7021 508.0849" style="stroke: rgb(67%,84%,90%); stroke-linecap: round; stroke-width: 1; fill: rgb(67%,84%,90%); fill-rule: evenodd;"/>
			<polygon points="297.2008 528.5855, 358.8252 528.5855, 358.8252 538.8358, 375.2256 518.3352, 358.8252 497.8346, 358.8252 508.0849, 297.2008 508.0849" style="stroke: rgb(67%,84%,90%); stroke-linecap: round; stroke-width: 1; fill: rgb(67%,84%,90%); fill-rule: evenodd;"/>
			<polygon points="374.9119 528.5855, 448.1458 528.5855, 448.1458 538.8358, 464.5463 518.3352, 448.1458 497.8346, 448.1458 508.0849, 374.9119 508.0849" style="stroke: rgb(67%,84%,90%); stroke-linecap: round; stroke-width: 1; fill: rgb(67%,84%,90%); fill-rule: evenodd;"/>
			<polygon points="464.2325 528.5855, 468.1227 528.5855, 468.1227 538.8358, 484.5231 518.3352, 468.1227 497.8346, 468.1227 508.0849, 464.2325 508.0849" style="stroke: rgb(67%,84%,90%); stroke-linecap: round; stroke-width: 1; fill: rgb(67%,84%,90%); fill-rule: evenodd;"/>
			<polygon points="495.8189 528.5855, 606.0781 528.5855, 606.0781 538.8358, 622.4785 518.3352, 606.0781 497.8346, 606.0781 508.0849, 495.8189 508.0849" style="stroke: rgb(67%,84%,90%); stroke-linecap: round; stroke-width: 1; fill: rgb(67%,84%,90%); fill-rule: evenodd;"/>
			<path d="M 1346.352102,169.825647 L 1346.352102,251.827897 Z" style="stroke: rgb(0%,0%,0%); stroke-linecap: butt; stroke-width: 1;"/>
			<path d="M 70.866142,210.826772 L 1346.352102,210.826772 Z" style="stroke: rgb(0%,0%,0%); stroke-linecap: butt; stroke-width: 1;"/>
			<path d="M 70.866142,169.825647 L 70.866142,251.827897 Z" style="stroke: rgb(0%,0%,0%); stroke-linecap: butt; stroke-width: 1;"/>
			<path d="M 1116.775088,210.826772 L 1116.775088,231.327334 Z" style="stroke: rgb(0%,0%,0%); stroke-linecap: butt; stroke-width: 1;"/>
			<path d="M 1116.775088,210.826772 L 1116.775088,223.127109 Z" style="stroke: rgb(0%,0%,0%); stroke-linecap: butt; stroke-width: 1;"/>
			<path d="M 701.444646,456.833521 L 701.444646,538.835771 Z" style="stroke: rgb(0%,0%,0%); stroke-linecap: butt; stroke-width: 1;"/>
			<path d="M 70.866142,497.834646 L 701.444646,497.834646 Z" style="stroke: rgb(0%,0%,0%); stroke-linecap: butt; stroke-width: 1;"/>
			<path d="M 70.866142,456.833521 L 70.866142,538.835771 Z" style="stroke: rgb(0%,0%,0%); stroke-linecap: butt; stroke-width: 1;"/>
			<g transform=" matrix(0.707107,0.707107,-0.707107,0.707107,1116.775088,231.327334)">
				<text style="font-family: Helvetica; font-size: 6px;fill: rgb(0%,0%,0%); stroke:none;" transform="translate(0,0) scale(1,-1)" x="0" y="0">10000</text>
			</g>
			<g transform=" matrix(0.707107,0.707107,-0.707107,0.707107,102.348001,251.827897)">
				<text style="font-family: Helvetica; font-size: 10px;fill: rgb(0%,0%,0%); stroke:none;" transform="translate(0,0) scale(1,-1)" x="0" y="0">Gene_00017</text>
			</g>
			<g transform=" matrix(0.707107,0.707107,-0.707107,0.707107,173.156037,251.827897)">
				<text style="font-family: Helvetica; font-size: 16px;fill: rgb(0%,0%,100%); stroke:none;" transform="translate(0,0) scale(1,-1)" x="0" y="0">Gene_00018 (81.2)</text>
			</g>
			<g transform=" matrix(0.707107,0.707107,-0.707107,0.707107,228.066256,251.827897)">
				<text style="font-family: Helvetica; font-size: 10px;fill: rgb(0%,0%,0%); stroke:none;" transform="translate(0,0) scale(1,-1)" x="0" y="0">Gene_00019</text>
			</g>
			<g transform=" matrix(0.707107,0.707107,-0.707107,0.707107,330.617629,251.827897)">
				<text style="font-family: Helvetica; font-size: 10px;fill: rgb(0%,0%,0%); stroke:none;" transform="translate(0,0) scale(1,-1)" x="0" y="0">Gene_00020</text>
			</g>
			<g transform=" matrix(0.707107,0.707107,-0.707107,0.707107,569.764709,251.827897)">
				<text style="font-family: Helvetica; font-size: 10px;fill: rgb(0%,0%,0%); stroke:none;" transform="translate(0,0) scale(1,-1)" x="0" y="0">Gene_00021</text>
			</g>
			<g transform=" matrix(0.707107,0.707107,-0.707107,0.707107,714.152439,251.827897)">
				<text style="font-family: Helvetica; font-size: 10px;fill: rgb(0%,0%,0%); stroke:none;" transform="translate(0,0) scale(1,-1)" x="0" y="0">Gene_00022</text>
			</g>
			<g transform=" matrix(0.707107,-0.707107,0.707107,0.707107,776.854681,169.825647)">
				<text style="font-family: Helvetica; font-size: 10px;fill: rgb(0%,0%,0%); stroke:none;" transform="translate(0,0) scale(1,-1)" x="0" y="0">Gene_00023</text>
			</g>
			<g transform=" matrix(0.707107,-0.707107,0.707107,0.707107,876.425212,169.825647)">
				<text style="font-family: Helvetica; font-size: 10px;fill: rgb(0%,0%,0%); stroke:none;" transform="translate(0,0) scale(1,-1)" x="0" y="0">Gene_00024</text>
			</g>
			<g transform=" matrix(0.707107,0.707107,-0.707107,0.707107,999.842468,251.827897)">
				<text style="font-family: Helvetica; font-size: 10px;fill: rgb(0%,0%,0%); stroke:none;" transform="translate(0,0) scale(1,-1)" x="0" y="0">Gene_00025</text>
			</g>
			<g transform=" matrix(0.707107,0.707107,-0.707107,0.707107,1107.361908,251.827897)">
				<text style="font-family: Helvetica; font-size: 10px;fill: rgb(0%,0%,0%); stroke:none;" transform="translate(0,0) scale(1,-1)" x="0" y="0">Gene_00026</text>
			</g>
			<g transform=" matrix(0.707107,0.707107,-0.707107,0.707107,1195.584327,251.827897)">
				<text style="font-family: Helvetica; font-size: 10px;fill: rgb(0%,0%,0%); stroke:none;" transform="translate(0,0) scale(1,-1)" x="0" y="0">Gene_00027</text>
			</g>
			<g transform=" matrix(0.707107,0.707107,-0.707107,0.707107,1295.730109,251.827897)">
				<text style="font-family: Helvetica; font-size: 10px;fill: rgb(0%,0%,0%); stroke:none;" transform="translate(0,0) scale(1,-1)" x="0" y="0">Gene_00028</text>
			</g>
			<g transform=" matrix(0.707107,0.707107,-0.707107,0.707107,98.791911,538.835771)">
				<text style="font-family: Helvetica; font-size: 10px;fill: rgb(0%,0%,0%); stroke:none;" transform="translate(0,0) scale(1,-1)" x="0" y="0">Gene_00943</text>
			</g>
			<g transform=" matrix(0.707107,0.707107,-0.707107,0.707107,169.024696,538.835771)">
				<text style="font-family: Helvetica; font-size: 10px;fill: rgb(0%,0%,0%); stroke:none;" transform="translate(0,0) scale(1,-1)" x="0" y="0">Gene_00944</text>
			</g>
			<g transform=" matrix(0.707107,0.707107,-0.707107,0.707107,336.213241,538.835771)">
				<text style="font-family: Helvetica; font-size: 10px;fill: rgb(0%,0%,0%); stroke:none;" transform="translate(0,0) scale(1,-1)" x="0" y="0">Gene_00945</text>
			</g>
			<g transform=" matrix(0.707107,0.707107,-0.707107,0.707107,419.729071,538.835771)">
				<text style="font-family: Helvetica; font-size: 16px;fill: rgb(0%,0%,100%); stroke:none;" transform="translate(0,0) scale(1,-1)" x="0" y="0">Gene_00946 (81.2)</text>
			</g>
			<g transform=" matrix(0.707107,0.707107,-0.707107,0.707107,474.377813,538.835771)">
				<text style="font-family: Helvetica; font-size: 10px;fill: rgb(0%,0%,0%); stroke:none;" transform="translate(0,0) scale(1,-1)" x="0" y="0">Gene_00947</text>
			</g>
			<g transform=" matrix(0.707107,0.707107,-0.707107,0.707107,559.148733,538.835771)">
				<text style="font-family: Helvetica; font-size: 10px;fill: rgb(0%,0%,0%); stroke:none;" transform="translate(0,0) scale(1,-1)" x="0" y="0">Gene_00948</text>
			</g>
			<g transform=" matrix(1,0,-0,1,70,169.825647)">
				<text style="font-family: Helvetica; font-size: 12px;fill: rgb(60%,60%,60%); stroke:none;" transform="translate(0,0) scale(1,-1)" x="0" y="0">megahit_22140 (left 551bp, right 137941bp)</text>
			</g>
			<g transform=" matrix(1,0,-0,1,70,456.833521)">
				<text style="font-family: Helvetica; font-size: 12px;fill: rgb(60%,60%,60%); stroke:none;" transform="translate(0,0) scale(1,-1)" x="0" y="0">megahit_30735 (left 2907bp, right 2265bp)</text>
			</g>
		</g>
	</g>
</svg>
