<?xml version="1.0" encoding="utf-8"?>
<!DOCTYPE svg
  PUBLIC '-//W3C//DTD SVG 1.0//EN'
  'http://www.w3.org/TR/2001/REC-SVG-20010904/DTD/svg10.dtd'>
<svg fill-rule="evenodd" height="708.6614173228346" preserveAspectRatio="xMinYMin meet" version="1.0" viewBox="0 0 1417 708" width="1417.3228346456692" xmlns="http://www.w3.org/2000/svg" xmlns:xlink="http://www.w3.org/1999/xlink">
	<title>...</title>
	<desc>...</desc>
	<clipPath id="clip">
		<rect height="708.6614173228346" width="1417.3228346456692" x="0" y="0"/>
	</clipPath>
	<g id="group" style="clip-path: url(#clip)" transform="scale(1,-1) translate(0,-708)">
		<g transform="">
			<polygon points="70.86614 169.8256, 1346.399 169.8256, 1346.399 251.8279, 70.86614 251.8279" style="stroke: rgb(96%,96%,96%); stroke-linecap: butt; stroke-width: 1; fill: rgb(96%,96%,96%); fill-rule: evenodd;"/>
			<polygon points="70.86614 456.8335, 226.2771 456.8335, 226.2771 538.8358, 70.86614 538.8358" style="stroke: rgb(96%,96%,96%); stroke-linecap: butt; stroke-width: 1; fill: rgb(96%,96%,96%); fill-rule: evenodd;"/>
			<polygon points="149.752 456.8335, 226.2771 456.8335, 790.0521 251.8279, 713.7573 251.8279" style="stroke: rgb(100%,34%,34%); stroke-linecap: round; stroke-width: 1; fill: rgb(100%,34%,34%); fill-rule: evenodd;"/>
			<polygon points="121.2495 456.8335, 148.8307 456.8335, 670.4565 251.8279, 642.9328 251.8279" style="stroke: rgb(100%,35%,35%); stroke-linecap: round; stroke-width: 1; fill: rgb(100%,35%,35%); fill-rule: evenodd;"/>
			<polygon points="137.8328 200.5765, 87.26659 200.5765, 87.26659 210.8268, 70.86614 190.3262, 87.26659 169.8256, 87.26659 180.0759, 137.8328 180.0759" style="stroke: rgb(56%,93%,56%); stroke-linecap: round; stroke-width: 1; fill: rgb(56%,93%,56%); fill-rule: evenodd;"/>
			<polygon points="161.441 200.5765, 154.9242 200.5765, 154.9242 210.8268, 138.5237 190.3262, 154.9242 169.8256, 154.9242 180.0759, 161.441 180.0759" style="stroke: rgb(56%,93%,56%); stroke-linecap: round; stroke-width: 1; fill: rgb(56%,93%,56%); fill-rule: evenodd;"/>
			<polygon points="176.1241 200.5765, 176.1241 210.8268, 162.0168 190.3262, 176.1241 169.8256, 176.1241 180.0759" style="stroke: rgb(56%,93%,56%); stroke-linecap: round; stroke-width: 1; fill: rgb(56%,93%,56%); fill-rule: evenodd;"/>
			<polygon points="229.3865 200.5765, 202.4861 200.5765, 202.4861 210.8268, 186.0856 190.3262, 202.4861 169.8256, 202.4861 180.0759, 229.3865 180.0759" style="stroke: rgb(56%,93%,56%); stroke-linecap: round; stroke-width: 1; fill: rgb(56%,93%,56%); fill-rule: evenodd;"/>
			<polygon points="462.0135 200.5765, 245.6142 200.5765, 245.6142 210.8268, 229.2137 190.3262, 245.6142 169.8256, 245.6142 180.0759, 462.0135 180.0759" style="stroke: rgb(56%,93%,56%); stroke-linecap: round; stroke-width: 1; fill: rgb(56%,93%,56%); fill-rule: evenodd;"/>
			<polygon points="496.6196 200.5765, 483.1931 200.5765, 483.1931 210.8268, 466.7927 190.3262, 483.1931 169.8256, 483.1931 180.0759, 496.6196 180.0759" style="stroke: rgb(56%,93%,56%); stroke-linecap: round; stroke-width: 1; fill: rgb(56%,93%,56%); fill-rule: evenodd;"/>
			<polygon points="552.7034 200.5765, 513.711 200.5765, 513.711 210.8268, 497.3106 190.3262, 513.711 169.8256, 513.711 180.0759, 552.7034 180.0759" style="stroke: rgb(56%,93%,56%); stroke-linecap: round; stroke-width: 1; fill: rgb(56%,93%,56%); fill-rule: evenodd;"/>
			<polygon points="618.576 200.5765, 568.3553 200.5765, 568.3553 210.8268, 551.9549 190.3262, 568.3553 169.8256, 568.3553 180.0759, 618.576 180.0759" style="stroke: rgb(56%,93%,56%); stroke-linecap: round; stroke-width: 1; fill: rgb(56%,93%,56%); fill-rule: evenodd;"/>
			<polygon points="662.6255 200.5765, 642.2893 200.5765, 642.2893 210.8268, 625.8888 190.3262, 642.2893 169.8256, 642.2893 180.0759, 662.6255 180.0759" style="stroke: rgb(56%,93%,56%); stroke-linecap: round; stroke-width: 1; fill: rgb(56%,93%,56%); fill-rule: evenodd;"/>
			<polygon points="706.5597 200.5765, 691.4058 200.5765, 691.4058 210.8268, 675.0054 190.3262, 691.4058 169.8256, 691.4058 180.0759, 706.5597 180.0759" style="stroke: rgb(56%,93%,56%); stroke-linecap: round; stroke-width: 1; fill: rgb(56%,93%,56%); fill-rule: evenodd;"/>
			<polygon points="729.3618 200.5765, 729.3618 210.8268, 713.527 190.3262, 729.3618 169.8256, 729.3618 180.0759" style="stroke: rgb(56%,93%,56%); stroke-linecap: round; stroke-width: 1; fill: rgb(56%,93%,56%); fill-rule: evenodd;"/>
			<polygon points="782.1635 200.5765, 745.5895 200.5765, 745.5895 210.8268, 729.189 190.3262, 745.5895 169.8256, 745.5895 180.0759, 782.1635 180.0759" style="stroke: rgb(56%,93%,56%); stroke-linecap: round; stroke-width: 1; fill: rgb(56%,93%,56%); fill-rule: evenodd;"/>
			<polygon points="863.1799 200.5765, 811.4045 200.5765, 811.4045 210.8268, 795.004 190.3262, 811.4045 169.8256, 811.4045 180.0759, 863.1799 180.0759" style="stroke: rgb(56%,93%,56%); stroke-linecap: round; stroke-width: 1; fill: rgb(56%,93%,56%); fill-rule: evenodd;"/>
			<polygon points="923.755 200.5765, 923.755 210.8268, 908.9567 190.3262, 923.755 169.8256, 923.755 180.0759" style="stroke: rgb(56%,93%,56%); stroke-linecap: round; stroke-width: 1; fill: rgb(56%,93%,56%); fill-rule: evenodd;"/>
			<polygon points="934.0044 241.5776, 953.1314 241.5776, 953.1314 251.8279, 969.5319 231.3273, 953.1314 210.8268, 953.1314 221.0771, 934.0044 221.0771" style="stroke: rgb(67%,84%,90%); stroke-linecap: round; stroke-width: 1; fill: rgb(67%,84%,90%); fill-rule: evenodd;"/>
			<polygon points="973.3322 241.5776, 992.6319 241.5776, 992.6319 251.8279, 1009.032 231.3273, 992.6319 210.8268, 992.6319 221.0771, 973.3322 221.0771" style="stroke: rgb(67%,84%,90%); stroke-linecap: round; stroke-width: 1; fill: rgb(67%,84%,90%); fill-rule: evenodd;"/>
			<polygon points="1013.639 241.5776, 1019.465 241.5776, 1019.465 251.8279, 1035.865 231.3273, 1019.465 210.8268, 1019.465 221.0771, 1013.639 221.0771" style="stroke: rgb(67%,84%,90%); stroke-linecap: round; stroke-width: 1; fill: rgb(67%,84%,90%); fill-rule: evenodd;"/>
			<polygon points="1044.675 241.5776, 1105.26 241.5776, 1105.26 251.8279, 1121.661 231.3273, 1105.26 210.8268, 1105.26 221.0771, 1044.675 221.0771" style="stroke: rgb(67%,84%,90%); stroke-linecap: round; stroke-width: 1; fill: rgb(67%,84%,90%); fill-rule: evenodd;"/>
			<polygon points="1120.452 241.5776, 1153.398 241.5776, 1153.398 251.8279, 1169.798 231.3273, 1153.398 210.8268, 1153.398 221.0771, 1120.452 221.0771" style="stroke: rgb(67%,84%,90%); stroke-linecap: round; stroke-width: 1; fill: rgb(67%,84%,90%); fill-rule: evenodd;"/>
			<polygon points="1169.107 241.5776, 1191.171 241.5776, 1191.171 251.8279, 1207.571 231.3273, 1191.171 210.8268, 1191.171 221.0771, 1169.107 221.0771" style="stroke: rgb(67%,84%,90%); stroke-linecap: round; stroke-width: 1; fill: rgb(67%,84%,90%); fill-rule: evenodd;"/>
			<polygon points="1220.815 241.5776, 1231.996 241.5776, 1231.996 251.8279, 1248.396 231.3273, 1231.996 210.8268, 1231.996 221.0771, 1220.815 221.0771" style="stroke: rgb(67%,84%,90%); stroke-linecap: round; stroke-width: 1; fill: rgb(67%,84%,90%); fill-rule: evenodd;"/>
			<polygon points="1276.093 200.5765, 1268.367 200.5765, 1268.367 210.8268, 1251.966 190.3262, 1268.367 169.8256, 1268.367 180.0759, 1276.093 180.0759" style="stroke: rgb(56%,93%,56%); stroke-linecap: round; stroke-width: 1; fill: rgb(56%,93%,56%); fill-rule: evenodd;"/>
			<polygon points="1296.016 241.5776, 1329.999 241.5776, 1329.999 251.8279, 1346.399 231.3273, 1329.999 210.8268, 1329.999 221.0771, 1296.016 221.0771" style="stroke: rgb(67%,84%,90%); stroke-linecap: round; stroke-width: 1; fill: rgb(67%,84%,90%); fill-rule: evenodd;"/>
			<polygon points="102.8236 487.5844, 97.34326 487.5844, 97.34326 497.8346, 80.94281 477.3341, 97.34326 456.8335, 97.34326 467.0838, 102.8236 467.0838" style="stroke: rgb(56%,93%,56%); stroke-linecap: round; stroke-width: 1; fill: rgb(56%,93%,56%); fill-rule: evenodd;"/>
			<polygon points="141.1149 487.5844, 130.9705 487.5844, 130.9705 497.8346, 114.5701 477.3341, 130.9705 456.8335, 130.9705 467.0838, 141.1149 467.0838" style="stroke: rgb(56%,93%,56%); stroke-linecap: round; stroke-width: 1; fill: rgb(56%,93%,56%); fill-rule: evenodd;"/>
			<polygon points="165.3565 487.5844, 165.3565 497.8346, 149.5217 477.3341, 165.3565 456.8335, 165.3565 467.0838" style="stroke: rgb(56%,93%,56%); stroke-linecap: round; stroke-width: 1; fill: rgb(56%,93%,56%); fill-rule: evenodd;"/>
			<polygon points="218.1582 487.5844, 181.5842 487.5844, 181.5842 497.8346, 165.1837 477.3341, 181.5842 456.8335, 181.5842 467.0838, 218.1582 467.0838" style="stroke: rgb(56%,93%,56%); stroke-linecap: round; stroke-width: 1; fill: rgb(56%,93%,56%); fill-rule: evenodd;"/>
			<path d="M 1346.399112,169.825647 L 1346.399112,251.827897 Z" style="stroke: rgb(0%,0%,0%); stroke-linecap: butt; stroke-width: 1;"/>
			<path d="M 70.866142,210.826772 L 1346.399112,210.826772 Z" style="stroke: rgb(0%,0%,0%); stroke-linecap: butt; stroke-width: 1;"/>
			<path d="M 70.866142,169.825647 L 70.866142,251.827897 Z" style="stroke: rgb(0%,0%,0%); stroke-linecap: butt; stroke-width: 1;"/>
			<path d="M 646.675536,210.826772 L 646.675536,231.327334 Z" style="stroke: rgb(0%,0%,0%); stroke-linecap: butt; stroke-width: 1;"/>
			<path d="M 1222.48493,210.826772 L 1222.48493,231.327334 Z" style="stroke: rgb(0%,0%,0%); stroke-linecap: butt; stroke-width: 1;"/>
			<path d="M 646.675536,210.826772 L 646.675536,223.127109 Z" style="stroke: rgb(0%,0%,0%); stroke-linecap: butt; stroke-width: 1;"/>
			<path d="M 1222.48493,210.826772 L 1222.48493,223.127109 Z" style="stroke: rgb(0%,0%,0%); stroke-linecap: butt; stroke-width: 1;"/>
			<path d="M 226.277097,456.833521 L 226.277097,538.835771 Z" style="stroke: rgb(0%,0%,0%); stroke-linecap: butt; stroke-width: 1;"/>
			<path d="M 70.866142,497.834646 L 226.277097,497.834646 Z" style="stroke: rgb(0%,0%,0%); stroke-linecap: butt; stroke-width: 1;"/>
			<path d="M 70.866142,456.833521 L 70.866142,538.835771 Z" style="stroke: rgb(0%,0%,0%); stroke-linecap: butt; stroke-width: 1;"/>
			<g transform=" matrix(0.707107,0.707107,-0.707107,0.707107,646.675536,231.327334)">
				<text style="font-family: Helvetica; font-size: 6px;fill: rgb(0%,0%,0%); stroke:none;" transform="translate(0,0) scale(1,-1)" x="0" y="0">10000</text>
			</g>
			<g transform=" matrix(0.707107,0.707107,-0.707107,0.707107,1222.48493,231.327334)">
				<text style="font-family: Helvetica; font-size: 6px;fill: rgb(0%,0%,0%); stroke:none;" transform="translate(0,0) scale(1,-1)" x="0" y="0">20000</text>
			</g>
			<g transform=" matrix(0.707107,-0.707107,0.707107,0.707107,104.349458,169.825647)">
				<text style="font-family: Helvetica; font-size: 10px;fill: rgb(0%,0%,0%); stroke:none;" transform="translate(0,0) scale(1,-1)" x="0" y="0">Gene_00469</text>
			</g>
			<g transform=" matrix(0.707107,-0.707107,0.707107,0.707107,149.982353,169.825647)">
				<text style="font-family: Helvetica; font-size: 10px;fill: rgb(0%,0%,0%); stroke:none;" transform="translate(0,0) scale(1,-1)" x="0" y="0">Gene_00470</text>
			</g>
			<g transform=" matrix(0.707107,-0.707107,0.707107,0.707107,169.070434,169.825647)">
				<text style="font-family: Helvetica; font-size: 10px;fill: rgb(0%,0%,0%); stroke:none;" transform="translate(0,0) scale(1,-1)" x="0" y="0">Gene_00471</text>
			</g>
			<g transform=" matrix(0.707107,-0.707107,0.707107,0.707107,207.736035,169.825647)">
				<text style="font-family: Helvetica; font-size: 10px;fill: rgb(0%,0%,0%); stroke:none;" transform="translate(0,0) scale(1,-1)" x="0" y="0">Gene_00472</text>
			</g>
			<g transform=" matrix(0.707107,-0.707107,0.707107,0.707107,345.613594,169.825647)">
				<text style="font-family: Helvetica; font-size: 10px;fill: rgb(0%,0%,0%); stroke:none;" transform="translate(0,0) scale(1,-1)" x="0" y="0">Gene_00473</text>
			</g>
			<g transform=" matrix(0.707107,-0.707107,0.707107,0.707107,481.706145,169.825647)">
				<text style="font-family: Helvetica; font-size: 10px;fill: rgb(0%,0%,0%); stroke:none;" transform="translate(0,0) scale(1,-1)" x="0" y="0">Gene_00474</text>
			</g>
			<g transform=" matrix(0.707107,-0.707107,0.707107,0.707107,525.007011,169.825647)">
				<text style="font-family: Helvetica; font-size: 10px;fill: rgb(0%,0%,0%); stroke:none;" transform="translate(0,0) scale(1,-1)" x="0" y="0">Gene_00475</text>
			</g>
			<g transform=" matrix(0.707107,-0.707107,0.707107,0.707107,585.265464,169.825647)">
				<text style="font-family: Helvetica; font-size: 10px;fill: rgb(0%,0%,0%); stroke:none;" transform="translate(0,0) scale(1,-1)" x="0" y="0">Gene_00476</text>
			</g>
			<g transform=" matrix(0.707107,-0.707107,0.707107,0.707107,644.257137,169.825647)">
				<text style="font-family: Helvetica; font-size: 10px;fill: rgb(0%,0%,0%); stroke:none;" transform="translate(0,0) scale(1,-1)" x="0" y="0">Gene_00477</text>
			</g>
			<g transform=" matrix(0.707107,-0.707107,0.707107,0.707107,690.782536,169.825647)">
				<text style="font-family: Helvetica; font-size: 10px;fill: rgb(0%,0%,0%); stroke:none;" transform="translate(0,0) scale(1,-1)" x="0" y="0">Gene_00478</text>
			</g>
			<g transform=" matrix(0.707107,-0.707107,0.707107,0.707107,721.444386,169.825647)">
				<text style="font-family: Helvetica; font-size: 16px;fill: rgb(0%,0%,100%); stroke:none;" transform="translate(0,0) scale(1,-1)" x="0" y="0">Gene_00479 (81.7)</text>
			</g>
			<g transform=" matrix(0.707107,-0.707107,0.707107,0.707107,755.676254,169.825647)">
				<text style="font-family: Helvetica; font-size: 10px;fill: rgb(0%,0%,0%); stroke:none;" transform="translate(0,0) scale(1,-1)" x="0" y="0">Gene_00480</text>
			</g>
			<g transform=" matrix(0.707107,-0.707107,0.707107,0.707107,829.091952,169.825647)">
				<text style="font-family: Helvetica; font-size: 10px;fill: rgb(0%,0%,0%); stroke:none;" transform="translate(0,0) scale(1,-1)" x="0" y="0">Gene_00481</text>
			</g>
			<g transform=" matrix(0.707107,-0.707107,0.707107,0.707107,916.355866,169.825647)">
				<text style="font-family: Helvetica; font-size: 10px;fill: rgb(0%,0%,0%); stroke:none;" transform="translate(0,0) scale(1,-1)" x="0" y="0">Gene_00482</text>
			</g>
			<g transform=" matrix(0.707107,0.707107,-0.707107,0.707107,951.768144,251.827897)">
				<text style="font-family: Helvetica; font-size: 10px;fill: rgb(0%,0%,0%); stroke:none;" transform="translate(0,0) scale(1,-1)" x="0" y="0">Gene_00483</text>
			</g>
			<g transform=" matrix(0.707107,0.707107,-0.707107,0.707107,991.182297,251.827897)">
				<text style="font-family: Helvetica; font-size: 10px;fill: rgb(0%,0%,0%); stroke:none;" transform="translate(0,0) scale(1,-1)" x="0" y="0">Gene_00484</text>
			</g>
			<g transform=" matrix(0.707107,0.707107,-0.707107,0.707107,1024.751984,251.827897)">
				<text style="font-family: Helvetica; font-size: 10px;fill: rgb(0%,0%,0%); stroke:none;" transform="translate(0,0) scale(1,-1)" x="0" y="0">Gene_00485</text>
			</g>
			<g transform=" matrix(0.707107,0.707107,-0.707107,0.707107,1083.167847,251.827897)">
				<text style="font-family: Helvetica; font-size: 10px;fill: rgb(0%,0%,0%); stroke:none;" transform="translate(0,0) scale(1,-1)" x="0" y="0">Gene_00486</text>
			</g>
			<g transform=" matrix(0.707107,0.707107,-0.707107,0.707107,1145.124938,251.827897)">
				<text style="font-family: Helvetica; font-size: 10px;fill: rgb(0%,0%,0%); stroke:none;" transform="translate(0,0) scale(1,-1)" x="0" y="0">Gene_00487</text>
			</g>
			<g transform=" matrix(0.707107,0.707107,-0.707107,0.707107,1188.339433,251.827897)">
				<text style="font-family: Helvetica; font-size: 10px;fill: rgb(0%,0%,0%); stroke:none;" transform="translate(0,0) scale(1,-1)" x="0" y="0">Gene_00488</text>
			</g>
			<g transform=" matrix(0.707107,0.707107,-0.707107,0.707107,1234.605718,251.827897)">
				<text style="font-family: Helvetica; font-size: 10px;fill: rgb(0%,0%,0%); stroke:none;" transform="translate(0,0) scale(1,-1)" x="0" y="0">Gene_00489</text>
			</g>
			<g transform=" matrix(0.707107,-0.707107,0.707107,0.707107,1264.029578,169.825647)">
				<text style="font-family: Helvetica; font-size: 10px;fill: rgb(0%,0%,0%); stroke:none;" transform="translate(0,0) scale(1,-1)" x="0" y="0">Gene_00490</text>
			</g>
			<g transform=" matrix(0.707107,0.707107,-0.707107,0.707107,1321.207451,251.827897)">
				<text style="font-family: Helvetica; font-size: 10px;fill: rgb(0%,0%,0%); stroke:none;" transform="translate(0,0) scale(1,-1)" x="0" y="0">Gene_00491</text>
			</g>
			<g transform=" matrix(0.707107,-0.707107,0.707107,0.707107,91.883185,456.833521)">
				<text style="font-family: Helvetica; font-size: 10px;fill: rgb(0%,0%,0%); stroke:none;" transform="translate(0,0) scale(1,-1)" x="0" y="0">Gene_03055</text>
			</g>
			<g transform=" matrix(0.707107,-0.707107,0.707107,0.707107,127.842481,456.833521)">
				<text style="font-family: Helvetica; font-size: 10px;fill: rgb(0%,0%,0%); stroke:none;" transform="translate(0,0) scale(1,-1)" x="0" y="0">Gene_03056</text>
			</g>
			<g transform=" matrix(0.707107,-0.707107,0.707107,0.707107,157.439084,456.833521)">
				<text style="font-family: Helvetica; font-size: 16px;fill: rgb(0%,0%,100%); stroke:none;" transform="translate(0,0) scale(1,-1)" x="0" y="0">Gene_03057 (81.7)</text>
			</g>
			<g transform=" matrix(0.707107,-0.707107,0.707107,0.707107,191.670953,456.833521)">
				<text style="font-family: Helvetica; font-size: 10px;fill: rgb(0%,0%,0%); stroke:none;" transform="translate(0,0) scale(1,-1)" x="0" y="0">Gene_03058</text>
			</g>
			<g transform=" matrix(1,0,-0,1,70,169.825647)">
				<text style="font-family: Helvetica; font-size: 12px;fill: rgb(60%,60%,60%); stroke:none;" transform="translate(0,0) scale(1,-1)" x="0" y="0">megahit_13465 (left 27045bp, right 27604bp)</text>
			</g>
		</g>
	</g>
</svg>
