<?xml version="1.0" encoding="utf-8"?>
<!DOCTYPE svg
  PUBLIC '-//W3C//DTD SVG 1.0//EN'
  'http://www.w3.org/TR/2001/REC-SVG-20010904/DTD/svg10.dtd'>
<svg fill-rule="evenodd" height="708.6614173228346" preserveAspectRatio="xMinYMin meet" version="1.0" viewBox="0 0 1417 708" width="1417.3228346456692" xmlns="http://www.w3.org/2000/svg" xmlns:xlink="http://www.w3.org/1999/xlink">
	<title>...</title>
	<desc>...</desc>
	<clipPath id="clip">
		<rect height="708.6614173228346" width="1417.3228346456692" x="0" y="0"/>
	</clipPath>
	<g id="group" style="clip-path: url(#clip)" transform="scale(1,-1) translate(0,-708)">
		<g transform="">
			<polygon points="70.86614 169.8256, 1346.353 169.8256, 1346.353 251.8279, 70.86614 251.8279" style="stroke: rgb(96%,96%,96%); stroke-linecap: butt; stroke-width: 1; fill: rgb(96%,96%,96%); fill-rule: evenodd;"/>
			<polygon points="70.86614 456.8335, 1192.875 456.8335, 1192.875 538.8358, 70.86614 538.8358" style="stroke: rgb(96%,96%,96%); stroke-linecap: butt; stroke-width: 1; fill: rgb(96%,96%,96%); fill-rule: evenodd;"/>
			<polygon points="100.461 456.8335, 171.0733 456.8335, 1346.353 251.8279, 1278.337 251.8279" style="stroke: rgb(100%,48%,48%); stroke-linecap: round; stroke-width: 1; fill: rgb(100%,48%,48%); fill-rule: evenodd;"/>
			<polygon points="70.86614 241.5776, 227.2582 241.5776, 227.2582 251.8279, 243.6586 231.3273, 227.2582 210.8268, 227.2582 221.0771, 70.86614 221.0771" style="stroke: rgb(67%,84%,90%); stroke-linecap: round; stroke-width: 1; fill: rgb(67%,84%,90%); fill-rule: evenodd;"/>
			<polygon points="250.3045 241.5776, 269.0025 241.5776, 269.0025 251.8279, 285.4029 231.3273, 269.0025 210.8268, 269.0025 221.0771, 250.3045 221.0771" style="stroke: rgb(67%,84%,90%); stroke-linecap: round; stroke-width: 1; fill: rgb(67%,84%,90%); fill-rule: evenodd;"/>
			<polygon points="287.6875 241.5776, 318.2234 241.5776, 318.2234 251.8279, 334.6239 231.3273, 318.2234 210.8268, 318.2234 221.0771, 287.6875 221.0771" style="stroke: rgb(67%,84%,90%); stroke-linecap: round; stroke-width: 1; fill: rgb(67%,84%,90%); fill-rule: evenodd;"/>
			<polygon points="343.3466 241.5776, 397.2469 241.5776, 397.2469 251.8279, 413.6474 231.3273, 397.2469 210.8268, 397.2469 221.0771, 343.3466 221.0771" style="stroke: rgb(67%,84%,90%); stroke-linecap: round; stroke-width: 1; fill: rgb(67%,84%,90%); fill-rule: evenodd;"/>
			<polygon points="413.3358 241.5776, 524.2452 241.5776, 524.2452 251.8279, 540.6457 231.3273, 524.2452 210.8268, 524.2452 221.0771, 413.3358 221.0771" style="stroke: rgb(67%,84%,90%); stroke-linecap: round; stroke-width: 1; fill: rgb(67%,84%,90%); fill-rule: evenodd;"/>
			<polygon points="606.3774 200.5765, 558.3961 200.5765, 558.3961 210.8268, 541.9956 190.3262, 558.3961 169.8256, 558.3961 180.0759, 606.3774 180.0759" style="stroke: rgb(56%,93%,56%); stroke-linecap: round; stroke-width: 1; fill: rgb(56%,93%,56%); fill-rule: evenodd;"/>
			<polygon points="637.9453 241.5776, 781.2532 241.5776, 781.2532 251.8279, 797.6537 231.3273, 781.2532 210.8268, 781.2532 221.0771, 637.9453 221.0771" style="stroke: rgb(67%,84%,90%); stroke-linecap: round; stroke-width: 1; fill: rgb(67%,84%,90%); fill-rule: evenodd;"/>
			<polygon points="797.3422 241.5776, 879.2797 241.5776, 879.2797 251.8279, 895.6802 231.3273, 879.2797 210.8268, 879.2797 221.0771, 797.3422 221.0771" style="stroke: rgb(67%,84%,90%); stroke-linecap: round; stroke-width: 1; fill: rgb(67%,84%,90%); fill-rule: evenodd;"/>
			<polygon points="911.7756 241.5776, 1113.027 241.5776, 1113.027 251.8279, 1129.428 231.3273, 1113.027 210.8268, 1113.027 221.0771, 911.7756 221.0771" style="stroke: rgb(67%,84%,90%); stroke-linecap: round; stroke-width: 1; fill: rgb(67%,84%,90%); fill-rule: evenodd;"/>
			<polygon points="1154.869 241.5776, 1221.853 241.5776, 1221.853 251.8279, 1238.254 231.3273, 1221.853 210.8268, 1221.853 221.0771, 1154.869 221.0771" style="stroke: rgb(67%,84%,90%); stroke-linecap: round; stroke-width: 1; fill: rgb(67%,84%,90%); fill-rule: evenodd;"/>
			<polygon points="1278.44 241.5776, 1291.531 241.5776, 1291.531 251.8279, 1307.931 231.3273, 1291.531 210.8268, 1291.531 221.0771, 1278.44 221.0771" style="stroke: rgb(67%,84%,90%); stroke-linecap: round; stroke-width: 1; fill: rgb(67%,84%,90%); fill-rule: evenodd;"/>
			<polygon points="100.5648 528.5855, 113.9669 528.5855, 113.9669 538.8358, 130.3674 518.3352, 113.9669 497.8346, 113.9669 508.0849, 100.5648 508.0849" style="stroke: rgb(67%,84%,90%); stroke-linecap: round; stroke-width: 1; fill: rgb(67%,84%,90%); fill-rule: evenodd;"/>
			<polygon points="138.8824 528.5855, 291.2246 528.5855, 291.2246 538.8358, 307.6251 518.3352, 291.2246 497.8346, 291.2246 508.0849, 138.8824 508.0849" style="stroke: rgb(67%,84%,90%); stroke-linecap: round; stroke-width: 1; fill: rgb(67%,84%,90%); fill-rule: evenodd;"/>
			<polygon points="425.5891 487.5844, 352.6858 487.5844, 352.6858 497.8346, 336.2853 477.3341, 352.6858 456.8335, 352.6858 467.0838, 425.5891 467.0838" style="stroke: rgb(56%,93%,56%); stroke-linecap: round; stroke-width: 1; fill: rgb(56%,93%,56%); fill-rule: evenodd;"/>
			<polygon points="449.265 528.5855, 515.0033 528.5855, 515.0033 538.8358, 531.4038 518.3352, 515.0033 497.8346, 515.0033 508.0849, 449.265 508.0849" style="stroke: rgb(67%,84%,90%); stroke-linecap: round; stroke-width: 1; fill: rgb(67%,84%,90%); fill-rule: evenodd;"/>
			<polygon points="549.2645 528.5855, 626.8407 528.5855, 626.8407 538.8358, 643.2412 518.3352, 626.8407 497.8346, 626.8407 508.0849, 549.2645 508.0849" style="stroke: rgb(67%,84%,90%); stroke-linecap: round; stroke-width: 1; fill: rgb(67%,84%,90%); fill-rule: evenodd;"/>
			<polygon points="640.6452 528.5855, 830.3703 528.5855, 830.3703 538.8358, 846.7708 518.3352, 830.3703 497.8346, 830.3703 508.0849, 640.6452 508.0849" style="stroke: rgb(67%,84%,90%); stroke-linecap: round; stroke-width: 1; fill: rgb(67%,84%,90%); fill-rule: evenodd;"/>
			<polygon points="862.4509 528.5855, 916.0397 528.5855, 916.0397 538.8358, 932.4401 518.3352, 916.0397 497.8346, 916.0397 508.0849, 862.4509 508.0849" style="stroke: rgb(67%,84%,90%); stroke-linecap: round; stroke-width: 1; fill: rgb(67%,84%,90%); fill-rule: evenodd;"/>
			<polygon points="935.5554 528.5855, 944.2846 528.5855, 944.2846 538.8358, 960.685 518.3352, 944.2846 497.8346, 944.2846 508.0849, 935.5554 508.0849" style="stroke: rgb(67%,84%,90%); stroke-linecap: round; stroke-width: 1; fill: rgb(67%,84%,90%); fill-rule: evenodd;"/>
			<polygon points="964.3195 528.5855, 964.3195 538.8358, 978.8573 518.3352, 964.3195 497.8346, 964.3195 508.0849" style="stroke: rgb(67%,84%,90%); stroke-linecap: round; stroke-width: 1; fill: rgb(67%,84%,90%); fill-rule: evenodd;"/>
			<polygon points="1045.004 487.5844, 1002.319 487.5844, 1002.319 497.8346, 985.9186 477.3341, 1002.319 456.8335, 1002.319 467.0838, 1045.004 467.0838" style="stroke: rgb(56%,93%,56%); stroke-linecap: round; stroke-width: 1; fill: rgb(56%,93%,56%); fill-rule: evenodd;"/>
			<polygon points="1067.123 528.5855, 1176.474 528.5855, 1176.474 538.8358, 1192.875 518.3352, 1176.474 497.8346, 1176.474 508.0849, 1067.123 508.0849" style="stroke: rgb(67%,84%,90%); stroke-linecap: round; stroke-width: 1; fill: rgb(67%,84%,90%); fill-rule: evenodd;"/>
			<path d="M 1346.352851,169.825647 L 1346.352851,251.827897 Z" style="stroke: rgb(0%,0%,0%); stroke-linecap: butt; stroke-width: 1;"/>
			<path d="M 70.866142,210.826772 L 1346.352851,210.826772 Z" style="stroke: rgb(0%,0%,0%); stroke-linecap: butt; stroke-width: 1;"/>
			<path d="M 70.866142,169.825647 L 70.866142,251.827897 Z" style="stroke: rgb(0%,0%,0%); stroke-linecap: butt; stroke-width: 1;"/>
			<path d="M 1109.282416,210.826772 L 1109.282416,231.327334 Z" style="stroke: rgb(0%,0%,0%); stroke-linecap: butt; stroke-width: 1;"/>
			<path d="M 1109.282416,210.826772 L 1109.282416,223.127109 Z" style="stroke: rgb(0%,0%,0%); stroke-linecap: butt; stroke-width: 1;"/>
			<path d="M 1192.874926,456.833521 L 1192.874926,538.835771 Z" style="stroke: rgb(0%,0%,0%); stroke-linecap: butt; stroke-width: 1;"/>
			<path d="M 70.866142,497.834646 L 1192.874926,497.834646 Z" style="stroke: rgb(0%,0%,0%); stroke-linecap: butt; stroke-width: 1;"/>
			<path d="M 70.866142,456.833521 L 70.866142,538.835771 Z" style="stroke: rgb(0%,0%,0%); stroke-linecap: butt; stroke-width: 1;"/>
			<path d="M 1109.282416,497.834646 L 1109.282416,518.335208 Z" style="stroke: rgb(0%,0%,0%); stroke-linecap: butt; stroke-width: 1;"/>
			<path d="M 1109.282416,497.834646 L 1109.282416,510.134983 Z" style="stroke: rgb(0%,0%,0%); stroke-linecap: butt; stroke-width: 1;"/>
			<g transform=" matrix(0.707107,0.707107,-0.707107,0.707107,1109.282416,231.327334)">
				<text style="font-family: Helvetica; font-size: 6px;fill: rgb(0%,0%,0%); stroke:none;" transform="translate(0,0) scale(1,-1)" x="0" y="0">10000</text>
			</g>
			<g transform=" matrix(0.707107,0.707107,-0.707107,0.707107,1109.282416,518.335208)">
				<text style="font-family: Helvetica; font-size: 6px;fill: rgb(0%,0%,0%); stroke:none;" transform="translate(0,0) scale(1,-1)" x="0" y="0">10000</text>
			</g>
			<g transform=" matrix(0.707107,0.707107,-0.707107,0.707107,157.262376,251.827897)">
				<text style="font-family: Helvetica; font-size: 10px;fill: rgb(0%,0%,0%); stroke:none;" transform="translate(0,0) scale(1,-1)" x="0" y="0">Gene_00181</text>
			</g>
			<g transform=" matrix(0.707107,0.707107,-0.707107,0.707107,267.853709,251.827897)">
				<text style="font-family: Helvetica; font-size: 10px;fill: rgb(0%,0%,0%); stroke:none;" transform="translate(0,0) scale(1,-1)" x="0" y="0">Gene_00182</text>
			</g>
			<g transform=" matrix(0.707107,0.707107,-0.707107,0.707107,311.155668,251.827897)">
				<text style="font-family: Helvetica; font-size: 10px;fill: rgb(0%,0%,0%); stroke:none;" transform="translate(0,0) scale(1,-1)" x="0" y="0">Gene_00183</text>
			</g>
			<g transform=" matrix(0.707107,0.707107,-0.707107,0.707107,378.496963,251.827897)">
				<text style="font-family: Helvetica; font-size: 10px;fill: rgb(0%,0%,0%); stroke:none;" transform="translate(0,0) scale(1,-1)" x="0" y="0">Gene_00184</text>
			</g>
			<g transform=" matrix(0.707107,0.707107,-0.707107,0.707107,476.990747,251.827897)">
				<text style="font-family: Helvetica; font-size: 10px;fill: rgb(0%,0%,0%); stroke:none;" transform="translate(0,0) scale(1,-1)" x="0" y="0">Gene_00185</text>
			</g>
			<g transform=" matrix(0.707107,-0.707107,0.707107,0.707107,574.18651,169.825647)">
				<text style="font-family: Helvetica; font-size: 10px;fill: rgb(0%,0%,0%); stroke:none;" transform="translate(0,0) scale(1,-1)" x="0" y="0">Gene_00186</text>
			</g>
			<g transform=" matrix(0.707107,0.707107,-0.707107,0.707107,717.799481,251.827897)">
				<text style="font-family: Helvetica; font-size: 10px;fill: rgb(0%,0%,0%); stroke:none;" transform="translate(0,0) scale(1,-1)" x="0" y="0">Gene_00187</text>
			</g>
			<g transform=" matrix(0.707107,0.707107,-0.707107,0.707107,846.511178,251.827897)">
				<text style="font-family: Helvetica; font-size: 10px;fill: rgb(0%,0%,0%); stroke:none;" transform="translate(0,0) scale(1,-1)" x="0" y="0">Gene_00188</text>
			</g>
			<g transform=" matrix(0.707107,0.707107,-0.707107,0.707107,1020.601666,251.827897)">
				<text style="font-family: Helvetica; font-size: 10px;fill: rgb(0%,0%,0%); stroke:none;" transform="translate(0,0) scale(1,-1)" x="0" y="0">Gene_00189</text>
			</g>
			<g transform=" matrix(0.707107,0.707107,-0.707107,0.707107,1196.561304,251.827897)">
				<text style="font-family: Helvetica; font-size: 10px;fill: rgb(0%,0%,0%); stroke:none;" transform="translate(0,0) scale(1,-1)" x="0" y="0">Gene_00190</text>
			</g>
			<g transform=" matrix(0.707107,0.707107,-0.707107,0.707107,1293.185938,251.827897)">
				<text style="font-family: Helvetica; font-size: 16px;fill: rgb(0%,0%,100%); stroke:none;" transform="translate(0,0) scale(1,-1)" x="0" y="0">Gene_00191 (80.5)</text>
			</g>
			<g transform=" matrix(0.707107,0.707107,-0.707107,0.707107,115.466121,538.835771)">
				<text style="font-family: Helvetica; font-size: 16px;fill: rgb(0%,0%,100%); stroke:none;" transform="translate(0,0) scale(1,-1)" x="0" y="0">Gene_00562 (80.5)</text>
			</g>
			<g transform=" matrix(0.707107,0.707107,-0.707107,0.707107,223.25373,538.835771)">
				<text style="font-family: Helvetica; font-size: 10px;fill: rgb(0%,0%,0%); stroke:none;" transform="translate(0,0) scale(1,-1)" x="0" y="0">Gene_00563</text>
			</g>
			<g transform=" matrix(0.707107,-0.707107,0.707107,0.707107,380.937241,456.833521)">
				<text style="font-family: Helvetica; font-size: 10px;fill: rgb(0%,0%,0%); stroke:none;" transform="translate(0,0) scale(1,-1)" x="0" y="0">Gene_00564</text>
			</g>
			<g transform=" matrix(0.707107,0.707107,-0.707107,0.707107,490.334396,538.835771)">
				<text style="font-family: Helvetica; font-size: 10px;fill: rgb(0%,0%,0%); stroke:none;" transform="translate(0,0) scale(1,-1)" x="0" y="0">Gene_00565</text>
			</g>
			<g transform=" matrix(0.707107,0.707107,-0.707107,0.707107,596.252856,538.835771)">
				<text style="font-family: Helvetica; font-size: 10px;fill: rgb(0%,0%,0%); stroke:none;" transform="translate(0,0) scale(1,-1)" x="0" y="0">Gene_00566</text>
			</g>
			<g transform=" matrix(0.707107,0.707107,-0.707107,0.707107,743.707967,538.835771)">
				<text style="font-family: Helvetica; font-size: 10px;fill: rgb(0%,0%,0%); stroke:none;" transform="translate(0,0) scale(1,-1)" x="0" y="0">Gene_00567</text>
			</g>
			<g transform=" matrix(0.707107,0.707107,-0.707107,0.707107,897.445496,538.835771)">
				<text style="font-family: Helvetica; font-size: 10px;fill: rgb(0%,0%,0%); stroke:none;" transform="translate(0,0) scale(1,-1)" x="0" y="0">Gene_00568</text>
			</g>
			<g transform=" matrix(0.707107,0.707107,-0.707107,0.707107,948.12021,538.835771)">
				<text style="font-family: Helvetica; font-size: 10px;fill: rgb(0%,0%,0%); stroke:none;" transform="translate(0,0) scale(1,-1)" x="0" y="0">Gene_00569</text>
			</g>
			<g transform=" matrix(0.707107,0.707107,-0.707107,0.707107,971.588418,538.835771)">
				<text style="font-family: Helvetica; font-size: 10px;fill: rgb(0%,0%,0%); stroke:none;" transform="translate(0,0) scale(1,-1)" x="0" y="0">Gene_00570</text>
			</g>
			<g transform=" matrix(0.707107,-0.707107,0.707107,0.707107,1015.461506,456.833521)">
				<text style="font-family: Helvetica; font-size: 10px;fill: rgb(0%,0%,0%); stroke:none;" transform="translate(0,0) scale(1,-1)" x="0" y="0">Gene_00571</text>
			</g>
			<g transform=" matrix(0.707107,0.707107,-0.707107,0.707107,1129.998821,538.835771)">
				<text style="font-family: Helvetica; font-size: 10px;fill: rgb(0%,0%,0%); stroke:none;" transform="translate(0,0) scale(1,-1)" x="0" y="0">Gene_00572</text>
			</g>
			<g transform=" matrix(1,0,-0,1,70,169.825647)">
				<text style="font-family: Helvetica; font-size: 12px;fill: rgb(60%,60%,60%); stroke:none;" transform="translate(0,0) scale(1,-1)" x="0" y="0">megahit_100304 (left 30817bp, right 370bp)</text>
			</g>
			<g transform=" matrix(1,0,-0,1,70,456.833521)">
				<text style="font-family: Helvetica; font-size: 12px;fill: rgb(60%,60%,60%); stroke:none;" transform="translate(0,0) scale(1,-1)" x="0" y="0">megahit_28792 (left 286bp, right 80162bp)</text>
			</g>
		</g>
	</g>
</svg>
