<?xml version="1.0" encoding="utf-8"?>
<!DOCTYPE svg
  PUBLIC '-//W3C//DTD SVG 1.0//EN'
  'http://www.w3.org/TR/2001/REC-SVG-20010904/DTD/svg10.dtd'>
<svg fill-rule="evenodd" height="708.6614173228346" preserveAspectRatio="xMinYMin meet" version="1.0" viewBox="0 0 1417 708" width="1417.3228346456692" xmlns="http://www.w3.org/2000/svg" xmlns:xlink="http://www.w3.org/1999/xlink">
	<title>...</title>
	<desc>...</desc>
	<clipPath id="clip">
		<rect height="708.6614173228346" width="1417.3228346456692" x="0" y="0"/>
	</clipPath>
	<g id="group" style="clip-path: url(#clip)" transform="scale(1,-1) translate(0,-708)">
		<g transform="">
			<polygon points="70.86614 169.8256, 1346.407 169.8256, 1346.407 251.8279, 70.86614 251.8279" style="stroke: rgb(96%,96%,96%); stroke-linecap: butt; stroke-width: 1; fill: rgb(96%,96%,96%); fill-rule: evenodd;"/>
			<polygon points="70.86614 456.8335, 193.056 456.8335, 193.056 538.8358, 70.86614 538.8358" style="stroke: rgb(96%,96%,96%); stroke-linecap: butt; stroke-width: 1; fill: rgb(96%,96%,96%); fill-rule: evenodd;"/>
			<polygon points="122.5638 456.8335, 173.3641 456.8335, 578.2707 251.8279, 628.9713 251.8279" style="stroke: rgb(100%,43%,43%); stroke-linecap: round; stroke-width: 1; fill: rgb(100%,43%,43%); fill-rule: evenodd;"/>
			<polygon points="114.338 200.5765, 87.26659 200.5765, 87.26659 210.8268, 70.86614 190.3262, 87.26659 169.8256, 87.26659 180.0759, 114.338 180.0759" style="stroke: rgb(56%,93%,56%); stroke-linecap: round; stroke-width: 1; fill: rgb(56%,93%,56%); fill-rule: evenodd;"/>
			<polygon points="159.6545 200.5765, 131.6857 200.5765, 131.6857 210.8268, 115.2852 190.3262, 131.6857 169.8256, 131.6857 180.0759, 159.6545 180.0759" style="stroke: rgb(56%,93%,56%); stroke-linecap: round; stroke-width: 1; fill: rgb(56%,93%,56%); fill-rule: evenodd;"/>
			<polygon points="232.9883 200.5765, 180.1927 200.5765, 180.1927 210.8268, 163.7923 190.3262, 180.1927 169.8256, 180.1927 180.0759, 232.9883 180.0759" style="stroke: rgb(56%,93%,56%); stroke-linecap: round; stroke-width: 1; fill: rgb(56%,93%,56%); fill-rule: evenodd;"/>
			<polygon points="244.4047 241.5776, 270.5788 241.5776, 270.5788 251.8279, 286.9792 231.3273, 270.5788 210.8268, 270.5788 221.0771, 244.4047 221.0771" style="stroke: rgb(67%,84%,90%); stroke-linecap: round; stroke-width: 1; fill: rgb(67%,84%,90%); fill-rule: evenodd;"/>
			<polygon points="395.3099 200.5765, 303.928 200.5765, 303.928 210.8268, 287.5276 190.3262, 303.928 169.8256, 303.928 180.0759, 395.3099 180.0759" style="stroke: rgb(56%,93%,56%); stroke-linecap: round; stroke-width: 1; fill: rgb(56%,93%,56%); fill-rule: evenodd;"/>
			<polygon points="411.8612 200.5765, 411.8612 210.8268, 400.8436 190.3262, 411.8612 169.8256, 411.8612 180.0759" style="stroke: rgb(56%,93%,56%); stroke-linecap: round; stroke-width: 1; fill: rgb(56%,93%,56%); fill-rule: evenodd;"/>
			<polygon points="466.9488 200.5765, 426.417 200.5765, 426.417 210.8268, 410.0166 190.3262, 426.417 169.8256, 426.417 180.0759, 466.9488 180.0759" style="stroke: rgb(56%,93%,56%); stroke-linecap: round; stroke-width: 1; fill: rgb(56%,93%,56%); fill-rule: evenodd;"/>
			<polygon points="549.6052 200.5765, 483.1997 200.5765, 483.1997 210.8268, 466.7992 190.3262, 483.1997 169.8256, 483.1997 180.0759, 549.6052 180.0759" style="stroke: rgb(56%,93%,56%); stroke-linecap: round; stroke-width: 1; fill: rgb(56%,93%,56%); fill-rule: evenodd;"/>
			<polygon points="576.127 200.5765, 572.686 200.5765, 572.686 210.8268, 556.2855 190.3262, 572.686 169.8256, 572.686 180.0759, 576.127 180.0759" style="stroke: rgb(56%,93%,56%); stroke-linecap: round; stroke-width: 1; fill: rgb(56%,93%,56%); fill-rule: evenodd;"/>
			<polygon points="605.3908 200.5765, 594.3222 200.5765, 594.3222 210.8268, 577.9217 190.3262, 594.3222 169.8256, 594.3222 180.0759, 605.3908 180.0759" style="stroke: rgb(56%,93%,56%); stroke-linecap: round; stroke-width: 1; fill: rgb(56%,93%,56%); fill-rule: evenodd;"/>
			<polygon points="612.6195 241.5776, 612.7702 241.5776, 612.7702 251.8279, 629.1707 231.3273, 612.7702 210.8268, 612.7702 221.0771, 612.6195 221.0771" style="stroke: rgb(67%,84%,90%); stroke-linecap: round; stroke-width: 1; fill: rgb(67%,84%,90%); fill-rule: evenodd;"/>
			<polygon points="662.4725 241.5776, 664.1189 241.5776, 664.1189 251.8279, 680.5194 231.3273, 664.1189 210.8268, 664.1189 221.0771, 662.4725 221.0771" style="stroke: rgb(67%,84%,90%); stroke-linecap: round; stroke-width: 1; fill: rgb(67%,84%,90%); fill-rule: evenodd;"/>
			<polygon points="685.8038 241.5776, 738.0012 241.5776, 738.0012 251.8279, 754.4016 231.3273, 738.0012 210.8268, 738.0012 221.0771, 685.8038 221.0771" style="stroke: rgb(67%,84%,90%); stroke-linecap: round; stroke-width: 1; fill: rgb(67%,84%,90%); fill-rule: evenodd;"/>
			<polygon points="804.9028 200.5765, 771.9985 200.5765, 771.9985 210.8268, 755.5981 190.3262, 771.9985 169.8256, 771.9985 180.0759, 804.9028 180.0759" style="stroke: rgb(56%,93%,56%); stroke-linecap: round; stroke-width: 1; fill: rgb(56%,93%,56%); fill-rule: evenodd;"/>
			<polygon points="815.7209 241.5776, 843.8392 241.5776, 843.8392 251.8279, 860.2397 231.3273, 843.8392 210.8268, 843.8392 221.0771, 815.7209 221.0771" style="stroke: rgb(67%,84%,90%); stroke-linecap: round; stroke-width: 1; fill: rgb(67%,84%,90%); fill-rule: evenodd;"/>
			<polygon points="867.4185 241.5776, 969.7182 241.5776, 969.7182 251.8279, 986.1187 231.3273, 969.7182 210.8268, 969.7182 221.0771, 867.4185 221.0771" style="stroke: rgb(67%,84%,90%); stroke-linecap: round; stroke-width: 1; fill: rgb(67%,84%,90%); fill-rule: evenodd;"/>
			<polygon points="1067.728 200.5765, 1010.296 200.5765, 1010.296 210.8268, 993.8958 190.3262, 1010.296 169.8256, 1010.296 180.0759, 1067.728 180.0759" style="stroke: rgb(56%,93%,56%); stroke-linecap: round; stroke-width: 1; fill: rgb(56%,93%,56%); fill-rule: evenodd;"/>
			<polygon points="1104.769 200.5765, 1087.12 200.5765, 1087.12 210.8268, 1070.719 190.3262, 1087.12 169.8256, 1087.12 180.0759, 1104.769 180.0759" style="stroke: rgb(56%,93%,56%); stroke-linecap: round; stroke-width: 1; fill: rgb(56%,93%,56%); fill-rule: evenodd;"/>
			<polygon points="1175.162 200.5765, 1121.319 200.5765, 1121.319 210.8268, 1104.919 190.3262, 1121.319 169.8256, 1121.319 180.0759, 1175.162 180.0759" style="stroke: rgb(56%,93%,56%); stroke-linecap: round; stroke-width: 1; fill: rgb(56%,93%,56%); fill-rule: evenodd;"/>
			<polygon points="1247.797 200.5765, 1191.412 200.5765, 1191.412 210.8268, 1175.012 190.3262, 1191.412 169.8256, 1191.412 180.0759, 1247.797 180.0759" style="stroke: rgb(56%,93%,56%); stroke-linecap: round; stroke-width: 1; fill: rgb(56%,93%,56%); fill-rule: evenodd;"/>
			<polygon points="1290.821 200.5765, 1264.198 200.5765, 1264.198 210.8268, 1247.797 190.3262, 1264.198 169.8256, 1264.198 180.0759, 1290.821 180.0759" style="stroke: rgb(56%,93%,56%); stroke-linecap: round; stroke-width: 1; fill: rgb(56%,93%,56%); fill-rule: evenodd;"/>
			<polygon points="1346.407 200.5765, 1307.072 200.5765, 1307.072 210.8268, 1290.671 190.3262, 1307.072 169.8256, 1307.072 180.0759, 1346.407 180.0759" style="stroke: rgb(56%,93%,56%); stroke-linecap: round; stroke-width: 1; fill: rgb(56%,93%,56%); fill-rule: evenodd;"/>
			<polygon points="72.51129 528.5855, 91.9552 528.5855, 91.9552 538.8358, 108.3557 518.3352, 91.9552 497.8346, 91.9552 508.0849, 72.51129 508.0849" style="stroke: rgb(67%,84%,90%); stroke-linecap: round; stroke-width: 1; fill: rgb(67%,84%,90%); fill-rule: evenodd;"/>
			<polygon points="111.7457 528.5855, 111.7457 538.8358, 122.6136 518.3352, 111.7457 497.8346, 111.7457 508.0849" style="stroke: rgb(67%,84%,90%); stroke-linecap: round; stroke-width: 1; fill: rgb(67%,84%,90%); fill-rule: evenodd;"/>
			<polygon points="138.9156 487.5844, 138.7648 487.5844, 138.7648 497.8346, 122.3644 477.3341, 138.7648 456.8335, 138.7648 467.0838, 138.9156 467.0838" style="stroke: rgb(56%,93%,56%); stroke-linecap: round; stroke-width: 1; fill: rgb(56%,93%,56%); fill-rule: evenodd;"/>
			<polygon points="146.244 528.5855, 157.3126 528.5855, 157.3126 538.8358, 173.713 518.3352, 157.3126 497.8346, 157.3126 508.0849, 146.244 508.0849" style="stroke: rgb(67%,84%,90%); stroke-linecap: round; stroke-width: 1; fill: rgb(67%,84%,90%); fill-rule: evenodd;"/>
			<path d="M 1346.40684,169.825647 L 1346.40684,251.827897 Z" style="stroke: rgb(0%,0%,0%); stroke-linecap: butt; stroke-width: 1;"/>
			<path d="M 70.866142,210.826772 L 1346.40684,210.826772 Z" style="stroke: rgb(0%,0%,0%); stroke-linecap: butt; stroke-width: 1;"/>
			<path d="M 70.866142,169.825647 L 70.866142,251.827897 Z" style="stroke: rgb(0%,0%,0%); stroke-linecap: butt; stroke-width: 1;"/>
			<path d="M 569.396861,210.826772 L 569.396861,231.327334 Z" style="stroke: rgb(0%,0%,0%); stroke-linecap: butt; stroke-width: 1;"/>
			<path d="M 1067.92758,210.826772 L 1067.92758,231.327334 Z" style="stroke: rgb(0%,0%,0%); stroke-linecap: butt; stroke-width: 1;"/>
			<path d="M 569.396861,210.826772 L 569.396861,223.127109 Z" style="stroke: rgb(0%,0%,0%); stroke-linecap: butt; stroke-width: 1;"/>
			<path d="M 1067.92758,210.826772 L 1067.92758,223.127109 Z" style="stroke: rgb(0%,0%,0%); stroke-linecap: butt; stroke-width: 1;"/>
			<path d="M 193.056021,456.833521 L 193.056021,538.835771 Z" style="stroke: rgb(0%,0%,0%); stroke-linecap: butt; stroke-width: 1;"/>
			<path d="M 70.866142,497.834646 L 193.056021,497.834646 Z" style="stroke: rgb(0%,0%,0%); stroke-linecap: butt; stroke-width: 1;"/>
			<path d="M 70.866142,456.833521 L 70.866142,538.835771 Z" style="stroke: rgb(0%,0%,0%); stroke-linecap: butt; stroke-width: 1;"/>
			<g transform=" matrix(0.707107,0.707107,-0.707107,0.707107,569.396861,231.327334)">
				<text style="font-family: Helvetica; font-size: 6px;fill: rgb(0%,0%,0%); stroke:none;" transform="translate(0,0) scale(1,-1)" x="0" y="0">10000</text>
			</g>
			<g transform=" matrix(0.707107,0.707107,-0.707107,0.707107,1067.92758,231.327334)">
				<text style="font-family: Helvetica; font-size: 6px;fill: rgb(0%,0%,0%); stroke:none;" transform="translate(0,0) scale(1,-1)" x="0" y="0">20000</text>
			</g>
			<g transform=" matrix(0.707107,-0.707107,0.707107,0.707107,92.602081,169.825647)">
				<text style="font-family: Helvetica; font-size: 10px;fill: rgb(0%,0%,0%); stroke:none;" transform="translate(0,0) scale(1,-1)" x="0" y="0">Gene_03075</text>
			</g>
			<g transform=" matrix(0.707107,-0.707107,0.707107,0.707107,137.469846,169.825647)">
				<text style="font-family: Helvetica; font-size: 10px;fill: rgb(0%,0%,0%); stroke:none;" transform="translate(0,0) scale(1,-1)" x="0" y="0">Gene_03076</text>
			</g>
			<g transform=" matrix(0.707107,-0.707107,0.707107,0.707107,198.3903,169.825647)">
				<text style="font-family: Helvetica; font-size: 10px;fill: rgb(0%,0%,0%); stroke:none;" transform="translate(0,0) scale(1,-1)" x="0" y="0">Gene_03077</text>
			</g>
			<g transform=" matrix(0.707107,0.707107,-0.707107,0.707107,265.691947,251.827897)">
				<text style="font-family: Helvetica; font-size: 10px;fill: rgb(0%,0%,0%); stroke:none;" transform="translate(0,0) scale(1,-1)" x="0" y="0">Gene_03078</text>
			</g>
			<g transform=" matrix(0.707107,-0.707107,0.707107,0.707107,341.418763,169.825647)">
				<text style="font-family: Helvetica; font-size: 10px;fill: rgb(0%,0%,0%); stroke:none;" transform="translate(0,0) scale(1,-1)" x="0" y="0">Gene_03079</text>
			</g>
			<g transform=" matrix(0.707107,-0.707107,0.707107,0.707107,406.352389,169.825647)">
				<text style="font-family: Helvetica; font-size: 10px;fill: rgb(0%,0%,0%); stroke:none;" transform="translate(0,0) scale(1,-1)" x="0" y="0">Gene_03080</text>
			</g>
			<g transform=" matrix(0.707107,-0.707107,0.707107,0.707107,438.482694,169.825647)">
				<text style="font-family: Helvetica; font-size: 10px;fill: rgb(0%,0%,0%); stroke:none;" transform="translate(0,0) scale(1,-1)" x="0" y="0">Gene_03081</text>
			</g>
			<g transform=" matrix(0.707107,-0.707107,0.707107,0.707107,508.202215,169.825647)">
				<text style="font-family: Helvetica; font-size: 10px;fill: rgb(0%,0%,0%); stroke:none;" transform="translate(0,0) scale(1,-1)" x="0" y="0">Gene_03082</text>
			</g>
			<g transform=" matrix(0.707107,-0.707107,0.707107,0.707107,566.206264,169.825647)">
				<text style="font-family: Helvetica; font-size: 10px;fill: rgb(0%,0%,0%); stroke:none;" transform="translate(0,0) scale(1,-1)" x="0" y="0">Gene_03083</text>
			</g>
			<g transform=" matrix(0.707107,-0.707107,0.707107,0.707107,591.656258,169.825647)">
				<text style="font-family: Helvetica; font-size: 10px;fill: rgb(0%,0%,0%); stroke:none;" transform="translate(0,0) scale(1,-1)" x="0" y="0">Gene_03084</text>
			</g>
			<g transform=" matrix(0.707107,0.707107,-0.707107,0.707107,620.895084,251.827897)">
				<text style="font-family: Helvetica; font-size: 16px;fill: rgb(0%,0%,100%); stroke:none;" transform="translate(0,0) scale(1,-1)" x="0" y="0">Gene_03085 (82.1)</text>
			</g>
			<g transform=" matrix(0.707107,0.707107,-0.707107,0.707107,671.495952,251.827897)">
				<text style="font-family: Helvetica; font-size: 10px;fill: rgb(0%,0%,0%); stroke:none;" transform="translate(0,0) scale(1,-1)" x="0" y="0">Gene_03086</text>
			</g>
			<g transform=" matrix(0.707107,0.707107,-0.707107,0.707107,720.102697,251.827897)">
				<text style="font-family: Helvetica; font-size: 10px;fill: rgb(0%,0%,0%); stroke:none;" transform="translate(0,0) scale(1,-1)" x="0" y="0">Gene_03087</text>
			</g>
			<g transform=" matrix(0.707107,-0.707107,0.707107,0.707107,780.250429,169.825647)">
				<text style="font-family: Helvetica; font-size: 10px;fill: rgb(0%,0%,0%); stroke:none;" transform="translate(0,0) scale(1,-1)" x="0" y="0">Gene_03088</text>
			</g>
			<g transform=" matrix(0.707107,0.707107,-0.707107,0.707107,837.980286,251.827897)">
				<text style="font-family: Helvetica; font-size: 10px;fill: rgb(0%,0%,0%); stroke:none;" transform="translate(0,0) scale(1,-1)" x="0" y="0">Gene_03089</text>
			</g>
			<g transform=" matrix(0.707107,0.707107,-0.707107,0.707107,926.768607,251.827897)">
				<text style="font-family: Helvetica; font-size: 10px;fill: rgb(0%,0%,0%); stroke:none;" transform="translate(0,0) scale(1,-1)" x="0" y="0">Gene_03090</text>
			</g>
			<g transform=" matrix(0.707107,-0.707107,0.707107,0.707107,1030.811968,169.825647)">
				<text style="font-family: Helvetica; font-size: 10px;fill: rgb(0%,0%,0%); stroke:none;" transform="translate(0,0) scale(1,-1)" x="0" y="0">Gene_03091</text>
			</g>
			<g transform=" matrix(0.707107,-0.707107,0.707107,0.707107,1087.744176,169.825647)">
				<text style="font-family: Helvetica; font-size: 10px;fill: rgb(0%,0%,0%); stroke:none;" transform="translate(0,0) scale(1,-1)" x="0" y="0">Gene_03092</text>
			</g>
			<g transform=" matrix(0.707107,-0.707107,0.707107,0.707107,1140.040049,169.825647)">
				<text style="font-family: Helvetica; font-size: 10px;fill: rgb(0%,0%,0%); stroke:none;" transform="translate(0,0) scale(1,-1)" x="0" y="0">Gene_03093</text>
			</g>
			<g transform=" matrix(0.707107,-0.707107,0.707107,0.707107,1211.404721,169.825647)">
				<text style="font-family: Helvetica; font-size: 10px;fill: rgb(0%,0%,0%); stroke:none;" transform="translate(0,0) scale(1,-1)" x="0" y="0">Gene_03094</text>
			</g>
			<g transform=" matrix(0.707107,-0.707107,0.707107,0.707107,1269.309064,169.825647)">
				<text style="font-family: Helvetica; font-size: 10px;fill: rgb(0%,0%,0%); stroke:none;" transform="translate(0,0) scale(1,-1)" x="0" y="0">Gene_03095</text>
			</g>
			<g transform=" matrix(0.707107,-0.707107,0.707107,0.707107,1318.538973,169.825647)">
				<text style="font-family: Helvetica; font-size: 10px;fill: rgb(0%,0%,0%); stroke:none;" transform="translate(0,0) scale(1,-1)" x="0" y="0">Gene_03096</text>
			</g>
			<g transform=" matrix(0.707107,0.707107,-0.707107,0.707107,90.433472,538.835771)">
				<text style="font-family: Helvetica; font-size: 10px;fill: rgb(0%,0%,0%); stroke:none;" transform="translate(0,0) scale(1,-1)" x="0" y="0">Gene_01173</text>
			</g>
			<g transform=" matrix(0.707107,0.707107,-0.707107,0.707107,117.179646,538.835771)">
				<text style="font-family: Helvetica; font-size: 10px;fill: rgb(0%,0%,0%); stroke:none;" transform="translate(0,0) scale(1,-1)" x="0" y="0">Gene_01174</text>
			</g>
			<g transform=" matrix(0.707107,-0.707107,0.707107,0.707107,130.639975,456.833521)">
				<text style="font-family: Helvetica; font-size: 16px;fill: rgb(0%,0%,100%); stroke:none;" transform="translate(0,0) scale(1,-1)" x="0" y="0">Gene_01175 (82.1)</text>
			</g>
			<g transform=" matrix(0.707107,0.707107,-0.707107,0.707107,159.978508,538.835771)">
				<text style="font-family: Helvetica; font-size: 10px;fill: rgb(0%,0%,0%); stroke:none;" transform="translate(0,0) scale(1,-1)" x="0" y="0">Gene_01176</text>
			</g>
			<g transform=" matrix(1,0,-0,1,70,169.825647)">
				<text style="font-family: Helvetica; font-size: 12px;fill: rgb(60%,60%,60%); stroke:none;" transform="translate(0,0) scale(1,-1)" x="0" y="0">megahit_124966 (left 95570bp, right 33149bp)</text>
			</g>
		</g>
	</g>
</svg>
