<?xml version="1.0" encoding="utf-8"?>
<!DOCTYPE svg
  PUBLIC '-//W3C//DTD SVG 1.0//EN'
  'http://www.w3.org/TR/2001/REC-SVG-20010904/DTD/svg10.dtd'>
<svg fill-rule="evenodd" height="708.6614173228346" preserveAspectRatio="xMinYMin meet" version="1.0" viewBox="0 0 1417 708" width="1417.3228346456692" xmlns="http://www.w3.org/2000/svg" xmlns:xlink="http://www.w3.org/1999/xlink">
	<title>...</title>
	<desc>...</desc>
	<clipPath id="clip">
		<rect height="708.6614173228346" width="1417.3228346456692" x="0" y="0"/>
	</clipPath>
	<g id="group" style="clip-path: url(#clip)" transform="scale(1,-1) translate(0,-708)">
		<g transform="">
			<polygon points="70.86614 169.8256, 235.7743 169.8256, 235.7743 251.8279, 70.86614 251.8279" style="stroke: rgb(96%,96%,96%); stroke-linecap: butt; stroke-width: 1; fill: rgb(96%,96%,96%); fill-rule: evenodd;"/>
			<polygon points="70.86614 456.8335, 1346.401 456.8335, 1346.401 538.8358, 70.86614 538.8358" style="stroke: rgb(96%,96%,96%); stroke-linecap: butt; stroke-width: 1; fill: rgb(96%,96%,96%); fill-rule: evenodd;"/>
			<polygon points="753.6996 456.8335, 806.833 456.8335, 141.7477 251.8279, 88.55872 251.8279" style="stroke: rgb(100%,38%,38%); stroke-linecap: round; stroke-width: 1; fill: rgb(100%,38%,38%); fill-rule: evenodd;"/>
			<polygon points="90.45038 241.5776, 124.4015 241.5776, 124.4015 251.8279, 140.8019 231.3273, 124.4015 210.8268, 124.4015 221.0771, 90.45038 221.0771" style="stroke: rgb(67%,84%,90%); stroke-linecap: round; stroke-width: 1; fill: rgb(67%,84%,90%); fill-rule: evenodd;"/>
			<polygon points="147.534 241.5776, 213.1982 241.5776, 213.1982 251.8279, 229.5986 231.3273, 213.1982 210.8268, 213.1982 221.0771, 147.534 221.0771" style="stroke: rgb(67%,84%,90%); stroke-linecap: round; stroke-width: 1; fill: rgb(67%,84%,90%); fill-rule: evenodd;"/>
			<polygon points="211.5166 487.5844, 87.26659 487.5844, 87.26659 497.8346, 70.86614 477.3341, 87.26659 456.8335, 87.26659 467.0838, 211.5166 467.0838" style="stroke: rgb(56%,93%,56%); stroke-linecap: round; stroke-width: 1; fill: rgb(56%,93%,56%); fill-rule: evenodd;"/>
			<polygon points="277.2239 487.5844, 227.7501 487.5844, 227.7501 497.8346, 211.3497 477.3341, 227.7501 456.8335, 227.7501 467.0838, 277.2239 467.0838" style="stroke: rgb(56%,93%,56%); stroke-linecap: round; stroke-width: 1; fill: rgb(56%,93%,56%); fill-rule: evenodd;"/>
			<polygon points="310.94 487.5844, 294.5146 487.5844, 294.5146 497.8346, 278.1141 477.3341, 294.5146 456.8335, 294.5146 467.0838, 310.94 467.0838" style="stroke: rgb(56%,93%,56%); stroke-linecap: round; stroke-width: 1; fill: rgb(56%,93%,56%); fill-rule: evenodd;"/>
			<polygon points="442.9667 487.5844, 328.7314 487.5844, 328.7314 497.8346, 312.3309 477.3341, 328.7314 456.8335, 328.7314 467.0838, 442.9667 467.0838" style="stroke: rgb(56%,93%,56%); stroke-linecap: round; stroke-width: 1; fill: rgb(56%,93%,56%); fill-rule: evenodd;"/>
			<polygon points="520.1353 487.5844, 465.8211 487.5844, 465.8211 497.8346, 449.4206 477.3341, 465.8211 456.8335, 465.8211 467.0838, 520.1353 467.0838" style="stroke: rgb(56%,93%,56%); stroke-linecap: round; stroke-width: 1; fill: rgb(56%,93%,56%); fill-rule: evenodd;"/>
			<polygon points="553.6844 487.5844, 537.7598 487.5844, 537.7598 497.8346, 521.3593 477.3341, 537.7598 456.8335, 537.7598 467.0838, 553.6844 467.0838" style="stroke: rgb(56%,93%,56%); stroke-linecap: round; stroke-width: 1; fill: rgb(56%,93%,56%); fill-rule: evenodd;"/>
			<polygon points="631.0199 487.5844, 575.7042 487.5844, 575.7042 497.8346, 559.3038 477.3341, 575.7042 456.8335, 575.7042 467.0838, 631.0199 467.0838" style="stroke: rgb(56%,93%,56%); stroke-linecap: round; stroke-width: 1; fill: rgb(56%,93%,56%); fill-rule: evenodd;"/>
			<polygon points="671.023 487.5844, 656.7674 487.5844, 656.7674 497.8346, 640.3669 477.3341, 656.7674 456.8335, 656.7674 467.0838, 671.023 467.0838" style="stroke: rgb(56%,93%,56%); stroke-linecap: round; stroke-width: 1; fill: rgb(56%,93%,56%); fill-rule: evenodd;"/>
			<polygon points="685.7111 528.5855, 694.2917 528.5855, 694.2917 538.8358, 710.6922 518.3352, 694.2917 497.8346, 694.2917 508.0849, 685.7111 508.0849" style="stroke: rgb(67%,84%,90%); stroke-linecap: round; stroke-width: 1; fill: rgb(67%,84%,90%); fill-rule: evenodd;"/>
			<polygon points="718.6483 528.5855, 723.0561 528.5855, 723.0561 538.8358, 739.4565 518.3352, 723.0561 497.8346, 723.0561 508.0849, 718.6483 508.0849" style="stroke: rgb(67%,84%,90%); stroke-linecap: round; stroke-width: 1; fill: rgb(67%,84%,90%); fill-rule: evenodd;"/>
			<polygon points="755.6469 528.5855, 789.598 528.5855, 789.598 538.8358, 805.9984 518.3352, 789.598 497.8346, 789.598 508.0849, 755.6469 508.0849" style="stroke: rgb(67%,84%,90%); stroke-linecap: round; stroke-width: 1; fill: rgb(67%,84%,90%); fill-rule: evenodd;"/>
			<polygon points="814.6778 528.5855, 819.5863 528.5855, 819.5863 538.8358, 835.9868 518.3352, 819.5863 497.8346, 819.5863 508.0849, 814.6778 508.0849" style="stroke: rgb(67%,84%,90%); stroke-linecap: round; stroke-width: 1; fill: rgb(67%,84%,90%); fill-rule: evenodd;"/>
			<polygon points="835.0966 528.5855, 857.5308 528.5855, 857.5308 538.8358, 873.9313 518.3352, 857.5308 497.8346, 857.5308 508.0849, 835.0966 508.0849" style="stroke: rgb(67%,84%,90%); stroke-linecap: round; stroke-width: 1; fill: rgb(67%,84%,90%); fill-rule: evenodd;"/>
			<polygon points="873.5974 528.5855, 913.8911 528.5855, 913.8911 538.8358, 930.2916 518.3352, 913.8911 497.8346, 913.8911 508.0849, 873.5974 508.0849" style="stroke: rgb(67%,84%,90%); stroke-linecap: round; stroke-width: 1; fill: rgb(67%,84%,90%); fill-rule: evenodd;"/>
			<polygon points="969.0706 487.5844, 951.143 487.5844, 951.143 497.8346, 934.7426 477.3341, 951.143 456.8335, 951.143 467.0838, 969.0706 467.0838" style="stroke: rgb(56%,93%,56%); stroke-linecap: round; stroke-width: 1; fill: rgb(56%,93%,56%); fill-rule: evenodd;"/>
			<polygon points="1151.671 487.5844, 991.5355 487.5844, 991.5355 497.8346, 975.135 477.3341, 991.5355 456.8335, 991.5355 467.0838, 1151.671 467.0838" style="stroke: rgb(56%,93%,56%); stroke-linecap: round; stroke-width: 1; fill: rgb(56%,93%,56%); fill-rule: evenodd;"/>
			<polygon points="1204.527 487.5844, 1167.905 487.5844, 1167.905 497.8346, 1151.504 477.3341, 1167.905 456.8335, 1167.905 467.0838, 1204.527 467.0838" style="stroke: rgb(56%,93%,56%); stroke-linecap: round; stroke-width: 1; fill: rgb(56%,93%,56%); fill-rule: evenodd;"/>
			<polygon points="1252.82 487.5844, 1238.23 487.5844, 1238.23 497.8346, 1221.83 477.3341, 1238.23 456.8335, 1238.23 467.0838, 1252.82 467.0838" style="stroke: rgb(56%,93%,56%); stroke-linecap: round; stroke-width: 1; fill: rgb(56%,93%,56%); fill-rule: evenodd;"/>
			<polygon points="1284.31 487.5844, 1272.391 487.5844, 1272.391 497.8346, 1255.991 477.3341, 1272.391 456.8335, 1272.391 467.0838, 1284.31 467.0838" style="stroke: rgb(56%,93%,56%); stroke-linecap: round; stroke-width: 1; fill: rgb(56%,93%,56%); fill-rule: evenodd;"/>
			<polygon points="1327.596 487.5844, 1300.321 487.5844, 1300.321 497.8346, 1283.921 477.3341, 1300.321 456.8335, 1300.321 467.0838, 1327.596 467.0838" style="stroke: rgb(56%,93%,56%); stroke-linecap: round; stroke-width: 1; fill: rgb(56%,93%,56%); fill-rule: evenodd;"/>
			<path d="M 235.774346,169.825647 L 235.774346,251.827897 Z" style="stroke: rgb(0%,0%,0%); stroke-linecap: butt; stroke-width: 1;"/>
			<path d="M 70.866142,210.826772 L 235.774346,210.826772 Z" style="stroke: rgb(0%,0%,0%); stroke-linecap: butt; stroke-width: 1;"/>
			<path d="M 70.866142,169.825647 L 70.866142,251.827897 Z" style="stroke: rgb(0%,0%,0%); stroke-linecap: butt; stroke-width: 1;"/>
			<path d="M 1346.401056,456.833521 L 1346.401056,538.835771 Z" style="stroke: rgb(0%,0%,0%); stroke-linecap: butt; stroke-width: 1;"/>
			<path d="M 70.866142,497.834646 L 1346.401056,497.834646 Z" style="stroke: rgb(0%,0%,0%); stroke-linecap: butt; stroke-width: 1;"/>
			<path d="M 70.866142,456.833521 L 70.866142,538.835771 Z" style="stroke: rgb(0%,0%,0%); stroke-linecap: butt; stroke-width: 1;"/>
			<path d="M 627.236601,497.834646 L 627.236601,518.335208 Z" style="stroke: rgb(0%,0%,0%); stroke-linecap: butt; stroke-width: 1;"/>
			<path d="M 1183.60706,497.834646 L 1183.60706,518.335208 Z" style="stroke: rgb(0%,0%,0%); stroke-linecap: butt; stroke-width: 1;"/>
			<path d="M 627.236601,497.834646 L 627.236601,510.134983 Z" style="stroke: rgb(0%,0%,0%); stroke-linecap: butt; stroke-width: 1;"/>
			<path d="M 1183.60706,497.834646 L 1183.60706,510.134983 Z" style="stroke: rgb(0%,0%,0%); stroke-linecap: butt; stroke-width: 1;"/>
			<g transform=" matrix(0.707107,0.707107,-0.707107,0.707107,627.236601,518.335208)">
				<text style="font-family: Helvetica; font-size: 6px;fill: rgb(0%,0%,0%); stroke:none;" transform="translate(0,0) scale(1,-1)" x="0" y="0">10000</text>
			</g>
			<g transform=" matrix(0.707107,0.707107,-0.707107,0.707107,1183.60706,518.335208)">
				<text style="font-family: Helvetica; font-size: 6px;fill: rgb(0%,0%,0%); stroke:none;" transform="translate(0,0) scale(1,-1)" x="0" y="0">20000</text>
			</g>
			<g transform=" matrix(0.707107,0.707107,-0.707107,0.707107,115.626145,251.827897)">
				<text style="font-family: Helvetica; font-size: 16px;fill: rgb(0%,0%,100%); stroke:none;" transform="translate(0,0) scale(1,-1)" x="0" y="0">Gene_01906 (80.8)</text>
			</g>
			<g transform=" matrix(0.707107,0.707107,-0.707107,0.707107,188.566312,251.827897)">
				<text style="font-family: Helvetica; font-size: 10px;fill: rgb(0%,0%,0%); stroke:none;" transform="translate(0,0) scale(1,-1)" x="0" y="0">Gene_01907</text>
			</g>
			<g transform=" matrix(0.707107,-0.707107,0.707107,0.707107,141.191368,456.833521)">
				<text style="font-family: Helvetica; font-size: 10px;fill: rgb(0%,0%,0%); stroke:none;" transform="translate(0,0) scale(1,-1)" x="0" y="0">Gene_00791</text>
			</g>
			<g transform=" matrix(0.707107,-0.707107,0.707107,0.707107,244.286814,456.833521)">
				<text style="font-family: Helvetica; font-size: 10px;fill: rgb(0%,0%,0%); stroke:none;" transform="translate(0,0) scale(1,-1)" x="0" y="0">Gene_00792</text>
			</g>
			<g transform=" matrix(0.707107,-0.707107,0.707107,0.707107,294.527066,456.833521)">
				<text style="font-family: Helvetica; font-size: 10px;fill: rgb(0%,0%,0%); stroke:none;" transform="translate(0,0) scale(1,-1)" x="0" y="0">Gene_00793</text>
			</g>
			<g transform=" matrix(0.707107,-0.707107,0.707107,0.707107,377.648813,456.833521)">
				<text style="font-family: Helvetica; font-size: 10px;fill: rgb(0%,0%,0%); stroke:none;" transform="translate(0,0) scale(1,-1)" x="0" y="0">Gene_00794</text>
			</g>
			<g transform=" matrix(0.707107,-0.707107,0.707107,0.707107,484.777945,456.833521)">
				<text style="font-family: Helvetica; font-size: 10px;fill: rgb(0%,0%,0%); stroke:none;" transform="translate(0,0) scale(1,-1)" x="0" y="0">Gene_00795</text>
			</g>
			<g transform=" matrix(0.707107,-0.707107,0.707107,0.707107,537.521864,456.833521)">
				<text style="font-family: Helvetica; font-size: 10px;fill: rgb(0%,0%,0%); stroke:none;" transform="translate(0,0) scale(1,-1)" x="0" y="0">Gene_00796</text>
			</g>
			<g transform=" matrix(0.707107,-0.707107,0.707107,0.707107,595.161844,456.833521)">
				<text style="font-family: Helvetica; font-size: 10px;fill: rgb(0%,0%,0%); stroke:none;" transform="translate(0,0) scale(1,-1)" x="0" y="0">Gene_00797</text>
			</g>
			<g transform=" matrix(0.707107,-0.707107,0.707107,0.707107,655.69495,456.833521)">
				<text style="font-family: Helvetica; font-size: 10px;fill: rgb(0%,0%,0%); stroke:none;" transform="translate(0,0) scale(1,-1)" x="0" y="0">Gene_00798</text>
			</g>
			<g transform=" matrix(0.707107,0.707107,-0.707107,0.707107,698.201653,538.835771)">
				<text style="font-family: Helvetica; font-size: 10px;fill: rgb(0%,0%,0%); stroke:none;" transform="translate(0,0) scale(1,-1)" x="0" y="0">Gene_00799</text>
			</g>
			<g transform=" matrix(0.707107,0.707107,-0.707107,0.707107,729.052395,538.835771)">
				<text style="font-family: Helvetica; font-size: 10px;fill: rgb(0%,0%,0%); stroke:none;" transform="translate(0,0) scale(1,-1)" x="0" y="0">Gene_00800</text>
			</g>
			<g transform=" matrix(0.707107,0.707107,-0.707107,0.707107,780.822666,538.835771)">
				<text style="font-family: Helvetica; font-size: 16px;fill: rgb(0%,0%,100%); stroke:none;" transform="translate(0,0) scale(1,-1)" x="0" y="0">Gene_00801 (80.8)</text>
			</g>
			<g transform=" matrix(0.707107,0.707107,-0.707107,0.707107,825.332303,538.835771)">
				<text style="font-family: Helvetica; font-size: 10px;fill: rgb(0%,0%,0%); stroke:none;" transform="translate(0,0) scale(1,-1)" x="0" y="0">Gene_00802</text>
			</g>
			<g transform=" matrix(0.707107,0.707107,-0.707107,0.707107,854.513933,538.835771)">
				<text style="font-family: Helvetica; font-size: 10px;fill: rgb(0%,0%,0%); stroke:none;" transform="translate(0,0) scale(1,-1)" x="0" y="0">Gene_00803</text>
			</g>
			<g transform=" matrix(0.707107,0.707107,-0.707107,0.707107,901.944515,538.835771)">
				<text style="font-family: Helvetica; font-size: 10px;fill: rgb(0%,0%,0%); stroke:none;" transform="translate(0,0) scale(1,-1)" x="0" y="0">Gene_00804</text>
			</g>
			<g transform=" matrix(0.707107,-0.707107,0.707107,0.707107,951.906582,456.833521)">
				<text style="font-family: Helvetica; font-size: 10px;fill: rgb(0%,0%,0%); stroke:none;" transform="translate(0,0) scale(1,-1)" x="0" y="0">Gene_00805</text>
			</g>
			<g transform=" matrix(0.707107,-0.707107,0.707107,0.707107,1063.403222,456.833521)">
				<text style="font-family: Helvetica; font-size: 10px;fill: rgb(0%,0%,0%); stroke:none;" transform="translate(0,0) scale(1,-1)" x="0" y="0">Gene_00806</text>
			</g>
			<g transform=" matrix(0.707107,-0.707107,0.707107,0.707107,1178.015536,456.833521)">
				<text style="font-family: Helvetica; font-size: 10px;fill: rgb(0%,0%,0%); stroke:none;" transform="translate(0,0) scale(1,-1)" x="0" y="0">Gene_00807</text>
			</g>
			<g transform=" matrix(0.707107,-0.707107,0.707107,0.707107,1237.324627,456.833521)">
				<text style="font-family: Helvetica; font-size: 10px;fill: rgb(0%,0%,0%); stroke:none;" transform="translate(0,0) scale(1,-1)" x="0" y="0">Gene_00808</text>
			</g>
			<g transform=" matrix(0.707107,-0.707107,0.707107,0.707107,1270.150484,456.833521)">
				<text style="font-family: Helvetica; font-size: 10px;fill: rgb(0%,0%,0%); stroke:none;" transform="translate(0,0) scale(1,-1)" x="0" y="0">Gene_00809</text>
			</g>
			<g transform=" matrix(0.707107,-0.707107,0.707107,0.707107,1305.758194,456.833521)">
				<text style="font-family: Helvetica; font-size: 10px;fill: rgb(0%,0%,0%); stroke:none;" transform="translate(0,0) scale(1,-1)" x="0" y="0">Gene_00810</text>
			</g>
			<g transform=" matrix(1,0,-0,1,70,456.833521)">
				<text style="font-family: Helvetica; font-size: 12px;fill: rgb(60%,60%,60%); stroke:none;" transform="translate(0,0) scale(1,-1)" x="0" y="0">megahit_53947 (left 22711bp, right 9713bp)</text>
			</g>
		</g>
	</g>
</svg>
