<?xml version="1.0" encoding="utf-8"?>
<!DOCTYPE svg
  PUBLIC '-//W3C//DTD SVG 1.0//EN'
  'http://www.w3.org/TR/2001/REC-SVG-20010904/DTD/svg10.dtd'>
<svg fill-rule="evenodd" height="708.6614173228346" preserveAspectRatio="xMinYMin meet" version="1.0" viewBox="0 0 1417 708" width="1417.3228346456692" xmlns="http://www.w3.org/2000/svg" xmlns:xlink="http://www.w3.org/1999/xlink">
	<title>...</title>
	<desc>...</desc>
	<clipPath id="clip">
		<rect height="708.6614173228346" width="1417.3228346456692" x="0" y="0"/>
	</clipPath>
	<g id="group" style="clip-path: url(#clip)" transform="scale(1,-1) translate(0,-708)">
		<g transform="">
			<polygon points="70.86614 169.8256, 822.9818 169.8256, 822.9818 251.8279, 70.86614 251.8279" style="stroke: rgb(96%,96%,96%); stroke-linecap: butt; stroke-width: 1; fill: rgb(96%,96%,96%); fill-rule: evenodd;"/>
			<polygon points="70.86614 456.8335, 1346.397 456.8335, 1346.397 538.8358, 70.86614 538.8358" style="stroke: rgb(96%,96%,96%); stroke-linecap: butt; stroke-width: 1; fill: rgb(96%,96%,96%); fill-rule: evenodd;"/>
			<polygon points="590.7338 456.8335, 834.2846 456.8335, 494.1792 251.8279, 250.2677 251.8279" style="stroke: rgb(100%,39%,39%); stroke-linecap: round; stroke-width: 1; fill: rgb(100%,39%,39%); fill-rule: evenodd;"/>
			<polygon points="522.6766 456.8335, 584.7217 456.8335, 248.5843 251.8279, 186.1785 251.8279" style="stroke: rgb(100%,47%,47%); stroke-linecap: round; stroke-width: 1; fill: rgb(100%,47%,47%); fill-rule: evenodd;"/>
			<polygon points="179.6253 200.5765, 97.2467 200.5765, 97.2467 210.8268, 80.84625 190.3262, 97.2467 169.8256, 97.2467 180.0759, 179.6253 180.0759" style="stroke: rgb(56%,93%,56%); stroke-linecap: round; stroke-width: 1; fill: rgb(56%,93%,56%); fill-rule: evenodd;"/>
			<polygon points="193.0925 241.5776, 232.7249 241.5776, 232.7249 251.8279, 249.1254 231.3273, 232.7249 210.8268, 232.7249 221.0771, 193.0925 221.0771" style="stroke: rgb(67%,84%,90%); stroke-linecap: round; stroke-width: 1; fill: rgb(67%,84%,90%); fill-rule: evenodd;"/>
			<polygon points="252.1314 241.5776, 311.9646 241.5776, 311.9646 251.8279, 328.365 231.3273, 311.9646 210.8268, 311.9646 221.0771, 252.1314 221.0771" style="stroke: rgb(67%,84%,90%); stroke-linecap: round; stroke-width: 1; fill: rgb(67%,84%,90%); fill-rule: evenodd;"/>
			<polygon points="331.4312 241.5776, 360.783 241.5776, 360.783 251.8279, 377.1834 231.3273, 360.783 210.8268, 360.783 221.0771, 331.4312 221.0771" style="stroke: rgb(67%,84%,90%); stroke-linecap: round; stroke-width: 1; fill: rgb(67%,84%,90%); fill-rule: evenodd;"/>
			<polygon points="381.6925 241.5776, 477.2377 241.5776, 477.2377 251.8279, 493.6381 231.3273, 477.2377 210.8268, 477.2377 221.0771, 381.6925 221.0771" style="stroke: rgb(67%,84%,90%); stroke-linecap: round; stroke-width: 1; fill: rgb(67%,84%,90%); fill-rule: evenodd;"/>
			<polygon points="500.0711 241.5776, 500.0711 251.8279, 508.3077 231.3273, 500.0711 210.8268, 500.0711 221.0771" style="stroke: rgb(67%,84%,90%); stroke-linecap: round; stroke-width: 1; fill: rgb(67%,84%,90%); fill-rule: evenodd;"/>
			<polygon points="630.3536 200.5765, 525.6099 200.5765, 525.6099 210.8268, 509.2095 190.3262, 525.6099 169.8256, 525.6099 180.0759, 630.3536 180.0759" style="stroke: rgb(56%,93%,56%); stroke-linecap: round; stroke-width: 1; fill: rgb(56%,93%,56%); fill-rule: evenodd;"/>
			<polygon points="641.5361 241.5776, 672.3308 241.5776, 672.3308 251.8279, 688.7313 231.3273, 672.3308 210.8268, 672.3308 221.0771, 641.5361 221.0771" style="stroke: rgb(67%,84%,90%); stroke-linecap: round; stroke-width: 1; fill: rgb(67%,84%,90%); fill-rule: evenodd;"/>
			<polygon points="702.98 241.5776, 702.98 251.8279, 719.1526 231.3273, 702.98 210.8268, 702.98 221.0771" style="stroke: rgb(67%,84%,90%); stroke-linecap: round; stroke-width: 1; fill: rgb(67%,84%,90%); fill-rule: evenodd;"/>
			<polygon points="722.2789 241.5776, 773.2742 241.5776, 773.2742 251.8279, 789.6747 231.3273, 773.2742 210.8268, 773.2742 221.0771, 722.2789 221.0771" style="stroke: rgb(67%,84%,90%); stroke-linecap: round; stroke-width: 1; fill: rgb(67%,84%,90%); fill-rule: evenodd;"/>
			<polygon points="72.79002 528.5855, 72.79002 538.8358, 81.56771 518.3352, 72.79002 497.8346, 72.79002 508.0849" style="stroke: rgb(67%,84%,90%); stroke-linecap: round; stroke-width: 1; fill: rgb(67%,84%,90%); fill-rule: evenodd;"/>
			<polygon points="118.422 528.5855, 139.2966 528.5855, 139.2966 538.8358, 155.6971 518.3352, 139.2966 497.8346, 139.2966 508.0849, 118.422 508.0849" style="stroke: rgb(67%,84%,90%); stroke-linecap: round; stroke-width: 1; fill: rgb(67%,84%,90%); fill-rule: evenodd;"/>
			<polygon points="155.3364 528.5855, 231.4023 528.5855, 231.4023 538.8358, 247.8027 518.3352, 231.4023 497.8346, 231.4023 508.0849, 155.3364 508.0849" style="stroke: rgb(67%,84%,90%); stroke-linecap: round; stroke-width: 1; fill: rgb(67%,84%,90%); fill-rule: evenodd;"/>
			<polygon points="248.5242 528.5855, 280.0403 528.5855, 280.0403 538.8358, 296.4407 518.3352, 280.0403 497.8346, 280.0403 508.0849, 248.5242 508.0849" style="stroke: rgb(67%,84%,90%); stroke-linecap: round; stroke-width: 1; fill: rgb(67%,84%,90%); fill-rule: evenodd;"/>
			<polygon points="383.8569 487.5844, 325.2862 487.5844, 325.2862 497.8346, 308.8858 477.3341, 325.2862 456.8335, 325.2862 467.0838, 383.8569 467.0838" style="stroke: rgb(56%,93%,56%); stroke-linecap: round; stroke-width: 1; fill: rgb(56%,93%,56%); fill-rule: evenodd;"/>
			<polygon points="408.2059 528.5855, 426.1948 528.5855, 426.1948 538.8358, 442.5952 518.3352, 426.1948 497.8346, 426.1948 508.0849, 408.2059 508.0849" style="stroke: rgb(67%,84%,90%); stroke-linecap: round; stroke-width: 1; fill: rgb(67%,84%,90%); fill-rule: evenodd;"/>
			<polygon points="444.8197 528.5855, 446.7562 528.5855, 446.7562 538.8358, 463.1567 518.3352, 446.7562 497.8346, 446.7562 508.0849, 444.8197 508.0849" style="stroke: rgb(67%,84%,90%); stroke-linecap: round; stroke-width: 1; fill: rgb(67%,84%,90%); fill-rule: evenodd;"/>
			<polygon points="466.2229 528.5855, 466.2229 538.8358, 473.738 518.3352, 466.2229 497.8346, 466.2229 508.0849" style="stroke: rgb(67%,84%,90%); stroke-linecap: round; stroke-width: 1; fill: rgb(67%,84%,90%); fill-rule: evenodd;"/>
			<polygon points="473.5576 528.5855, 492.9894 528.5855, 492.9894 538.8358, 509.3898 518.3352, 492.9894 497.8346, 492.9894 508.0849, 473.5576 508.0849" style="stroke: rgb(67%,84%,90%); stroke-linecap: round; stroke-width: 1; fill: rgb(67%,84%,90%); fill-rule: evenodd;"/>
			<polygon points="529.2298 528.5855, 568.8623 528.5855, 568.8623 538.8358, 585.2627 518.3352, 568.8623 497.8346, 568.8623 508.0849, 529.2298 508.0849" style="stroke: rgb(67%,84%,90%); stroke-linecap: round; stroke-width: 1; fill: rgb(67%,84%,90%); fill-rule: evenodd;"/>
			<polygon points="592.6576 528.5855, 652.4908 528.5855, 652.4908 538.8358, 668.8913 518.3352, 652.4908 497.8346, 652.4908 508.0849, 592.6576 508.0849" style="stroke: rgb(67%,84%,90%); stroke-linecap: round; stroke-width: 1; fill: rgb(67%,84%,90%); fill-rule: evenodd;"/>
			<polygon points="672.0777 528.5855, 701.4294 528.5855, 701.4294 538.8358, 717.8299 518.3352, 701.4294 497.8346, 701.4294 508.0849, 672.0777 508.0849" style="stroke: rgb(67%,84%,90%); stroke-linecap: round; stroke-width: 1; fill: rgb(67%,84%,90%); fill-rule: evenodd;"/>
			<polygon points="721.858 528.5855, 817.4032 528.5855, 817.4032 538.8358, 833.8036 518.3352, 817.4032 497.8346, 817.4032 508.0849, 721.858 508.0849" style="stroke: rgb(67%,84%,90%); stroke-linecap: round; stroke-width: 1; fill: rgb(67%,84%,90%); fill-rule: evenodd;"/>
			<polygon points="900.6583 487.5844, 856.156 487.5844, 856.156 497.8346, 839.7556 477.3341, 856.156 456.8335, 856.156 467.0838, 900.6583 467.0838" style="stroke: rgb(56%,93%,56%); stroke-linecap: round; stroke-width: 1; fill: rgb(56%,93%,56%); fill-rule: evenodd;"/>
			<polygon points="965.6493 487.5844, 947.4801 487.5844, 947.4801 497.8346, 931.0796 477.3341, 947.4801 456.8335, 947.4801 467.0838, 965.6493 467.0838" style="stroke: rgb(56%,93%,56%); stroke-linecap: round; stroke-width: 1; fill: rgb(56%,93%,56%); fill-rule: evenodd;"/>
			<polygon points="1008.275 487.5844, 992.4507 487.5844, 992.4507 497.8346, 976.0503 477.3341, 992.4507 456.8335, 992.4507 467.0838, 1008.275 467.0838" style="stroke: rgb(56%,93%,56%); stroke-linecap: round; stroke-width: 1; fill: rgb(56%,93%,56%); fill-rule: evenodd;"/>
			<polygon points="1030.881 528.5855, 1067.627 528.5855, 1067.627 538.8358, 1084.028 518.3352, 1067.627 497.8346, 1067.627 508.0849, 1030.881 508.0849" style="stroke: rgb(67%,84%,90%); stroke-linecap: round; stroke-width: 1; fill: rgb(67%,84%,90%); fill-rule: evenodd;"/>
			<polygon points="1084.088 528.5855, 1132.017 528.5855, 1132.017 538.8358, 1148.418 518.3352, 1132.017 497.8346, 1132.017 508.0849, 1084.088 508.0849" style="stroke: rgb(67%,84%,90%); stroke-linecap: round; stroke-width: 1; fill: rgb(67%,84%,90%); fill-rule: evenodd;"/>
			<polygon points="1148.418 528.5855, 1177.589 528.5855, 1177.589 538.8358, 1193.989 518.3352, 1177.589 497.8346, 1177.589 508.0849, 1148.418 508.0849" style="stroke: rgb(67%,84%,90%); stroke-linecap: round; stroke-width: 1; fill: rgb(67%,84%,90%); fill-rule: evenodd;"/>
			<polygon points="1194.951 528.5855, 1221.237 528.5855, 1221.237 538.8358, 1237.637 518.3352, 1221.237 497.8346, 1221.237 508.0849, 1194.951 508.0849" style="stroke: rgb(67%,84%,90%); stroke-linecap: round; stroke-width: 1; fill: rgb(67%,84%,90%); fill-rule: evenodd;"/>
			<polygon points="1238.599 528.5855, 1259.654 528.5855, 1259.654 538.8358, 1276.055 518.3352, 1259.654 497.8346, 1259.654 508.0849, 1238.599 508.0849" style="stroke: rgb(67%,84%,90%); stroke-linecap: round; stroke-width: 1; fill: rgb(67%,84%,90%); fill-rule: evenodd;"/>
			<polygon points="1295.053 528.5855, 1329.996 528.5855, 1329.996 538.8358, 1346.397 518.3352, 1329.996 497.8346, 1329.996 508.0849, 1295.053 508.0849" style="stroke: rgb(67%,84%,90%); stroke-linecap: round; stroke-width: 1; fill: rgb(67%,84%,90%); fill-rule: evenodd;"/>
			<path d="M 822.981794,169.825647 L 822.981794,251.827897 Z" style="stroke: rgb(0%,0%,0%); stroke-linecap: butt; stroke-width: 1;"/>
			<path d="M 70.866142,210.826772 L 822.981794,210.826772 Z" style="stroke: rgb(0%,0%,0%); stroke-linecap: butt; stroke-width: 1;"/>
			<path d="M 70.866142,169.825647 L 70.866142,251.827897 Z" style="stroke: rgb(0%,0%,0%); stroke-linecap: butt; stroke-width: 1;"/>
			<path d="M 672.077694,210.826772 L 672.077694,231.327334 Z" style="stroke: rgb(0%,0%,0%); stroke-linecap: butt; stroke-width: 1;"/>
			<path d="M 672.077694,210.826772 L 672.077694,223.127109 Z" style="stroke: rgb(0%,0%,0%); stroke-linecap: butt; stroke-width: 1;"/>
			<path d="M 1346.396572,456.833521 L 1346.396572,538.835771 Z" style="stroke: rgb(0%,0%,0%); stroke-linecap: butt; stroke-width: 1;"/>
			<path d="M 70.866142,497.834646 L 1346.396572,497.834646 Z" style="stroke: rgb(0%,0%,0%); stroke-linecap: butt; stroke-width: 1;"/>
			<path d="M 70.866142,456.833521 L 70.866142,538.835771 Z" style="stroke: rgb(0%,0%,0%); stroke-linecap: butt; stroke-width: 1;"/>
			<path d="M 672.077694,497.834646 L 672.077694,518.335208 Z" style="stroke: rgb(0%,0%,0%); stroke-linecap: butt; stroke-width: 1;"/>
			<path d="M 1273.289247,497.834646 L 1273.289247,518.335208 Z" style="stroke: rgb(0%,0%,0%); stroke-linecap: butt; stroke-width: 1;"/>
			<path d="M 672.077694,497.834646 L 672.077694,510.134983 Z" style="stroke: rgb(0%,0%,0%); stroke-linecap: butt; stroke-width: 1;"/>
			<path d="M 1273.289247,497.834646 L 1273.289247,510.134983 Z" style="stroke: rgb(0%,0%,0%); stroke-linecap: butt; stroke-width: 1;"/>
			<g transform=" matrix(0.707107,0.707107,-0.707107,0.707107,672.077694,231.327334)">
				<text style="font-family: Helvetica; font-size: 6px;fill: rgb(0%,0%,0%); stroke:none;" transform="translate(0,0) scale(1,-1)" x="0" y="0">10000</text>
			</g>
			<g transform=" matrix(0.707107,0.707107,-0.707107,0.707107,672.077694,518.335208)">
				<text style="font-family: Helvetica; font-size: 6px;fill: rgb(0%,0%,0%); stroke:none;" transform="translate(0,0) scale(1,-1)" x="0" y="0">10000</text>
			</g>
			<g transform=" matrix(0.707107,0.707107,-0.707107,0.707107,1273.289247,518.335208)">
				<text style="font-family: Helvetica; font-size: 6px;fill: rgb(0%,0%,0%); stroke:none;" transform="translate(0,0) scale(1,-1)" x="0" y="0">20000</text>
			</g>
			<g transform=" matrix(0.707107,-0.707107,0.707107,0.707107,130.235783,169.825647)">
				<text style="font-family: Helvetica; font-size: 10px;fill: rgb(0%,0%,0%); stroke:none;" transform="translate(0,0) scale(1,-1)" x="0" y="0">Gene_01056</text>
			</g>
			<g transform=" matrix(0.707107,0.707107,-0.707107,0.707107,221.108909,251.827897)">
				<text style="font-family: Helvetica; font-size: 10px;fill: rgb(0%,0%,0%); stroke:none;" transform="translate(0,0) scale(1,-1)" x="0" y="0">Gene_01057</text>
			</g>
			<g transform=" matrix(0.707107,0.707107,-0.707107,0.707107,290.248237,251.827897)">
				<text style="font-family: Helvetica; font-size: 10px;fill: rgb(0%,0%,0%); stroke:none;" transform="translate(0,0) scale(1,-1)" x="0" y="0">Gene_01058</text>
			</g>
			<g transform=" matrix(0.707107,0.707107,-0.707107,0.707107,354.307328,251.827897)">
				<text style="font-family: Helvetica; font-size: 16px;fill: rgb(0%,0%,100%); stroke:none;" transform="translate(0,0) scale(1,-1)" x="0" y="0">Gene_01059 (79.8)</text>
			</g>
			<g transform=" matrix(0.707107,0.707107,-0.707107,0.707107,437.66531,251.827897)">
				<text style="font-family: Helvetica; font-size: 10px;fill: rgb(0%,0%,0%); stroke:none;" transform="translate(0,0) scale(1,-1)" x="0" y="0">Gene_01060</text>
			</g>
			<g transform=" matrix(0.707107,0.707107,-0.707107,0.707107,504.189368,251.827897)">
				<text style="font-family: Helvetica; font-size: 10px;fill: rgb(0%,0%,0%); stroke:none;" transform="translate(0,0) scale(1,-1)" x="0" y="0">Gene_01061</text>
			</g>
			<g transform=" matrix(0.707107,-0.707107,0.707107,0.707107,569.781549,169.825647)">
				<text style="font-family: Helvetica; font-size: 10px;fill: rgb(0%,0%,0%); stroke:none;" transform="translate(0,0) scale(1,-1)" x="0" y="0">Gene_01062</text>
			</g>
			<g transform=" matrix(0.707107,0.707107,-0.707107,0.707107,665.133701,251.827897)">
				<text style="font-family: Helvetica; font-size: 10px;fill: rgb(0%,0%,0%); stroke:none;" transform="translate(0,0) scale(1,-1)" x="0" y="0">Gene_01063</text>
			</g>
			<g transform=" matrix(0.707107,0.707107,-0.707107,0.707107,711.066264,251.827897)">
				<text style="font-family: Helvetica; font-size: 10px;fill: rgb(0%,0%,0%); stroke:none;" transform="translate(0,0) scale(1,-1)" x="0" y="0">Gene_01064</text>
			</g>
			<g transform=" matrix(0.707107,0.707107,-0.707107,0.707107,755.976767,251.827897)">
				<text style="font-family: Helvetica; font-size: 10px;fill: rgb(0%,0%,0%); stroke:none;" transform="translate(0,0) scale(1,-1)" x="0" y="0">Gene_01065</text>
			</g>
			<g transform=" matrix(0.707107,0.707107,-0.707107,0.707107,77.178863,538.835771)">
				<text style="font-family: Helvetica; font-size: 10px;fill: rgb(0%,0%,0%); stroke:none;" transform="translate(0,0) scale(1,-1)" x="0" y="0">Gene_00890</text>
			</g>
			<g transform=" matrix(0.707107,0.707107,-0.707107,0.707107,137.059534,538.835771)">
				<text style="font-family: Helvetica; font-size: 10px;fill: rgb(0%,0%,0%); stroke:none;" transform="translate(0,0) scale(1,-1)" x="0" y="0">Gene_00891</text>
			</g>
			<g transform=" matrix(0.707107,0.707107,-0.707107,0.707107,201.569533,538.835771)">
				<text style="font-family: Helvetica; font-size: 10px;fill: rgb(0%,0%,0%); stroke:none;" transform="translate(0,0) scale(1,-1)" x="0" y="0">Gene_00892</text>
			</g>
			<g transform=" matrix(0.707107,0.707107,-0.707107,0.707107,272.482436,538.835771)">
				<text style="font-family: Helvetica; font-size: 10px;fill: rgb(0%,0%,0%); stroke:none;" transform="translate(0,0) scale(1,-1)" x="0" y="0">Gene_00893</text>
			</g>
			<g transform=" matrix(0.707107,-0.707107,0.707107,0.707107,346.371336,456.833521)">
				<text style="font-family: Helvetica; font-size: 10px;fill: rgb(0%,0%,0%); stroke:none;" transform="translate(0,0) scale(1,-1)" x="0" y="0">Gene_00894</text>
			</g>
			<g transform=" matrix(0.707107,0.707107,-0.707107,0.707107,425.400594,538.835771)">
				<text style="font-family: Helvetica; font-size: 10px;fill: rgb(0%,0%,0%); stroke:none;" transform="translate(0,0) scale(1,-1)" x="0" y="0">Gene_00895</text>
			</g>
			<g transform=" matrix(0.707107,0.707107,-0.707107,0.707107,453.988204,538.835771)">
				<text style="font-family: Helvetica; font-size: 10px;fill: rgb(0%,0%,0%); stroke:none;" transform="translate(0,0) scale(1,-1)" x="0" y="0">Gene_00896</text>
			</g>
			<g transform=" matrix(0.707107,0.707107,-0.707107,0.707107,469.980431,538.835771)">
				<text style="font-family: Helvetica; font-size: 10px;fill: rgb(0%,0%,0%); stroke:none;" transform="translate(0,0) scale(1,-1)" x="0" y="0">Gene_00897</text>
			</g>
			<g transform=" matrix(0.707107,0.707107,-0.707107,0.707107,491.473744,538.835771)">
				<text style="font-family: Helvetica; font-size: 10px;fill: rgb(0%,0%,0%); stroke:none;" transform="translate(0,0) scale(1,-1)" x="0" y="0">Gene_00898</text>
			</g>
			<g transform=" matrix(0.707107,0.707107,-0.707107,0.707107,557.246288,538.835771)">
				<text style="font-family: Helvetica; font-size: 10px;fill: rgb(0%,0%,0%); stroke:none;" transform="translate(0,0) scale(1,-1)" x="0" y="0">Gene_00899</text>
			</g>
			<g transform=" matrix(0.707107,0.707107,-0.707107,0.707107,630.774461,538.835771)">
				<text style="font-family: Helvetica; font-size: 10px;fill: rgb(0%,0%,0%); stroke:none;" transform="translate(0,0) scale(1,-1)" x="0" y="0">Gene_00900</text>
			</g>
			<g transform=" matrix(0.707107,0.707107,-0.707107,0.707107,694.953794,538.835771)">
				<text style="font-family: Helvetica; font-size: 16px;fill: rgb(0%,0%,100%); stroke:none;" transform="translate(0,0) scale(1,-1)" x="0" y="0">Gene_00901 (79.8)</text>
			</g>
			<g transform=" matrix(0.707107,0.707107,-0.707107,0.707107,777.830806,538.835771)">
				<text style="font-family: Helvetica; font-size: 10px;fill: rgb(0%,0%,0%); stroke:none;" transform="translate(0,0) scale(1,-1)" x="0" y="0">Gene_00902</text>
			</g>
			<g transform=" matrix(0.707107,-0.707107,0.707107,0.707107,870.206962,456.833521)">
				<text style="font-family: Helvetica; font-size: 10px;fill: rgb(0%,0%,0%); stroke:none;" transform="translate(0,0) scale(1,-1)" x="0" y="0">Gene_00903</text>
			</g>
			<g transform=" matrix(0.707107,-0.707107,0.707107,0.707107,948.364463,456.833521)">
				<text style="font-family: Helvetica; font-size: 10px;fill: rgb(0%,0%,0%); stroke:none;" transform="translate(0,0) scale(1,-1)" x="0" y="0">Gene_00904</text>
			</g>
			<g transform=" matrix(0.707107,-0.707107,0.707107,0.707107,992.162725,456.833521)">
				<text style="font-family: Helvetica; font-size: 10px;fill: rgb(0%,0%,0%); stroke:none;" transform="translate(0,0) scale(1,-1)" x="0" y="0">Gene_00905</text>
			</g>
			<g transform=" matrix(0.707107,0.707107,-0.707107,0.707107,1057.4543,538.835771)">
				<text style="font-family: Helvetica; font-size: 10px;fill: rgb(0%,0%,0%); stroke:none;" transform="translate(0,0) scale(1,-1)" x="0" y="0">Gene_00906</text>
			</g>
			<g transform=" matrix(0.707107,0.707107,-0.707107,0.707107,1116.252789,538.835771)">
				<text style="font-family: Helvetica; font-size: 10px;fill: rgb(0%,0%,0%); stroke:none;" transform="translate(0,0) scale(1,-1)" x="0" y="0">Gene_00907</text>
			</g>
			<g transform=" matrix(0.707107,0.707107,-0.707107,0.707107,1171.203525,538.835771)">
				<text style="font-family: Helvetica; font-size: 10px;fill: rgb(0%,0%,0%); stroke:none;" transform="translate(0,0) scale(1,-1)" x="0" y="0">Gene_00908</text>
			</g>
			<g transform=" matrix(0.707107,0.707107,-0.707107,0.707107,1216.294392,538.835771)">
				<text style="font-family: Helvetica; font-size: 10px;fill: rgb(0%,0%,0%); stroke:none;" transform="translate(0,0) scale(1,-1)" x="0" y="0">Gene_00909</text>
			</g>
			<g transform=" matrix(0.707107,0.707107,-0.707107,0.707107,1257.32708,538.835771)">
				<text style="font-family: Helvetica; font-size: 10px;fill: rgb(0%,0%,0%); stroke:none;" transform="translate(0,0) scale(1,-1)" x="0" y="0">Gene_00910</text>
			</g>
			<g transform=" matrix(0.707107,0.707107,-0.707107,0.707107,1320.724838,538.835771)">
				<text style="font-family: Helvetica; font-size: 10px;fill: rgb(0%,0%,0%); stroke:none;" transform="translate(0,0) scale(1,-1)" x="0" y="0">Gene_00911</text>
			</g>
			<g transform=" matrix(1,0,-0,1,70,169.825647)">
				<text style="font-family: Helvetica; font-size: 12px;fill: rgb(60%,60%,60%); stroke:none;" transform="translate(0,0) scale(1,-1)" x="0" y="0">megahit_52442 (left 4334bp, right 7415bp)</text>
			</g>
			<g transform=" matrix(1,0,-0,1,70,456.833521)">
				<text style="font-family: Helvetica; font-size: 12px;fill: rgb(60%,60%,60%); stroke:none;" transform="translate(0,0) scale(1,-1)" x="0" y="0">megahit_58982 (left 11727bp, right 23868bp)</text>
			</g>
		</g>
	</g>
</svg>
