<?xml version="1.0" encoding="utf-8"?>
<!DOCTYPE svg
  PUBLIC '-//W3C//DTD SVG 1.0//EN'
  'http://www.w3.org/TR/2001/REC-SVG-20010904/DTD/svg10.dtd'>
<svg fill-rule="evenodd" height="708.6614173228346" preserveAspectRatio="xMinYMin meet" version="1.0" viewBox="0 0 1417 708" width="1417.3228346456692" xmlns="http://www.w3.org/2000/svg" xmlns:xlink="http://www.w3.org/1999/xlink">
	<title>...</title>
	<desc>...</desc>
	<clipPath id="clip">
		<rect height="708.6614173228346" width="1417.3228346456692" x="0" y="0"/>
	</clipPath>
	<g id="group" style="clip-path: url(#clip)" transform="scale(1,-1) translate(0,-708)">
		<g transform="">
			<polygon points="70.86614 169.8256, 1346.401 169.8256, 1346.401 251.8279, 70.86614 251.8279" style="stroke: rgb(96%,96%,96%); stroke-linecap: butt; stroke-width: 1; fill: rgb(96%,96%,96%); fill-rule: evenodd;"/>
			<polygon points="70.86614 456.8335, 617.3173 456.8335, 617.3173 538.8358, 70.86614 538.8358" style="stroke: rgb(96%,96%,96%); stroke-linecap: butt; stroke-width: 1; fill: rgb(96%,96%,96%); fill-rule: evenodd;"/>
			<polygon points="94.01519 456.8335, 295.5121 456.8335, 651.54 251.8279, 852.3692 251.8279" style="stroke: rgb(100%,45%,45%); stroke-linecap: round; stroke-width: 1; fill: rgb(100%,45%,45%); fill-rule: evenodd;"/>
			<polygon points="138.5882 200.5765, 87.26659 200.5765, 87.26659 210.8268, 70.86614 190.3262, 87.26659 169.8256, 87.26659 180.0759, 138.5882 180.0759" style="stroke: rgb(56%,93%,56%); stroke-linecap: round; stroke-width: 1; fill: rgb(56%,93%,56%); fill-rule: evenodd;"/>
			<polygon points="176.0942 200.5765, 154.8218 200.5765, 154.8218 210.8268, 138.4213 190.3262, 154.8218 169.8256, 154.8218 180.0759, 176.0942 180.0759" style="stroke: rgb(56%,93%,56%); stroke-linecap: round; stroke-width: 1; fill: rgb(56%,93%,56%); fill-rule: evenodd;"/>
			<polygon points="308.2552 200.5765, 196.8351 200.5765, 196.8351 210.8268, 180.4346 190.3262, 196.8351 169.8256, 196.8351 180.0759, 308.2552 180.0759" style="stroke: rgb(56%,93%,56%); stroke-linecap: round; stroke-width: 1; fill: rgb(56%,93%,56%); fill-rule: evenodd;"/>
			<polygon points="363.4011 200.5765, 323.9322 200.5765, 323.9322 210.8268, 307.5318 190.3262, 323.9322 169.8256, 323.9322 180.0759, 363.4011 180.0759" style="stroke: rgb(56%,93%,56%); stroke-linecap: round; stroke-width: 1; fill: rgb(56%,93%,56%); fill-rule: evenodd;"/>
			<polygon points="415.6534 200.5765, 380.0242 200.5765, 380.0242 210.8268, 363.6237 190.3262, 380.0242 169.8256, 380.0242 180.0759, 415.6534 180.0759" style="stroke: rgb(56%,93%,56%); stroke-linecap: round; stroke-width: 1; fill: rgb(56%,93%,56%); fill-rule: evenodd;"/>
			<polygon points="464.9008 200.5765, 443.7953 200.5765, 443.7953 210.8268, 427.3949 190.3262, 443.7953 169.8256, 443.7953 180.0759, 464.9008 180.0759" style="stroke: rgb(56%,93%,56%); stroke-linecap: round; stroke-width: 1; fill: rgb(56%,93%,56%); fill-rule: evenodd;"/>
			<polygon points="482.9304 200.5765, 482.9304 210.8268, 469.4638 190.3262, 482.9304 169.8256, 482.9304 180.0759" style="stroke: rgb(56%,93%,56%); stroke-linecap: round; stroke-width: 1; fill: rgb(56%,93%,56%); fill-rule: evenodd;"/>
			<polygon points="545.7555 200.5765, 505.6189 200.5765, 505.6189 210.8268, 489.2184 190.3262, 505.6189 169.8256, 505.6189 180.0759, 545.7555 180.0759" style="stroke: rgb(56%,93%,56%); stroke-linecap: round; stroke-width: 1; fill: rgb(56%,93%,56%); fill-rule: evenodd;"/>
			<polygon points="564.1746 241.5776, 568.2522 241.5776, 568.2522 251.8279, 584.6526 231.3273, 568.2522 210.8268, 568.2522 221.0771, 564.1746 221.0771" style="stroke: rgb(67%,84%,90%); stroke-linecap: round; stroke-width: 1; fill: rgb(67%,84%,90%); fill-rule: evenodd;"/>
			<polygon points="634.0669 200.5765, 606.6178 200.5765, 606.6178 210.8268, 590.2173 190.3262, 606.6178 169.8256, 606.6178 180.0759, 634.0669 180.0759" style="stroke: rgb(56%,93%,56%); stroke-linecap: round; stroke-width: 1; fill: rgb(56%,93%,56%); fill-rule: evenodd;"/>
			<polygon points="756.6011 200.5765, 667.0501 200.5765, 667.0501 210.8268, 650.6497 190.3262, 667.0501 169.8256, 667.0501 180.0759, 756.6011 180.0759" style="stroke: rgb(56%,93%,56%); stroke-linecap: round; stroke-width: 1; fill: rgb(56%,93%,56%); fill-rule: evenodd;"/>
			<polygon points="855.0402 200.5765, 773.0015 200.5765, 773.0015 210.8268, 756.6011 190.3262, 773.0015 169.8256, 773.0015 180.0759, 855.0402 180.0759" style="stroke: rgb(56%,93%,56%); stroke-linecap: round; stroke-width: 1; fill: rgb(56%,93%,56%); fill-rule: evenodd;"/>
			<polygon points="879.803 200.5765, 872.2197 200.5765, 872.2197 210.8268, 855.8193 190.3262, 872.2197 169.8256, 872.2197 180.0759, 879.803 180.0759" style="stroke: rgb(56%,93%,56%); stroke-linecap: round; stroke-width: 1; fill: rgb(56%,93%,56%); fill-rule: evenodd;"/>
			<polygon points="888.317 241.5776, 922.9446 241.5776, 922.9446 251.8279, 939.345 231.3273, 922.9446 210.8268, 922.9446 221.0771, 888.317 221.0771" style="stroke: rgb(67%,84%,90%); stroke-linecap: round; stroke-width: 1; fill: rgb(67%,84%,90%); fill-rule: evenodd;"/>
			<polygon points="939.7346 241.5776, 956.6665 241.5776, 956.6665 251.8279, 973.067 231.3273, 956.6665 210.8268, 956.6665 221.0771, 939.7346 221.0771" style="stroke: rgb(67%,84%,90%); stroke-linecap: round; stroke-width: 1; fill: rgb(67%,84%,90%); fill-rule: evenodd;"/>
			<polygon points="973.1783 241.5776, 981.9301 241.5776, 981.9301 251.8279, 998.3306 231.3273, 981.9301 210.8268, 981.9301 221.0771, 973.1783 221.0771" style="stroke: rgb(67%,84%,90%); stroke-linecap: round; stroke-width: 1; fill: rgb(67%,84%,90%); fill-rule: evenodd;"/>
			<polygon points="1002.615 241.5776, 1048.762 241.5776, 1048.762 251.8279, 1065.162 231.3273, 1048.762 210.8268, 1048.762 221.0771, 1002.615 221.0771" style="stroke: rgb(67%,84%,90%); stroke-linecap: round; stroke-width: 1; fill: rgb(67%,84%,90%); fill-rule: evenodd;"/>
			<polygon points="1117.415 200.5765, 1085.792 200.5765, 1085.792 210.8268, 1069.392 190.3262, 1085.792 169.8256, 1085.792 180.0759, 1117.415 180.0759" style="stroke: rgb(56%,93%,56%); stroke-linecap: round; stroke-width: 1; fill: rgb(56%,93%,56%); fill-rule: evenodd;"/>
			<polygon points="1124.593 241.5776, 1140.857 241.5776, 1140.857 251.8279, 1157.258 231.3273, 1140.857 210.8268, 1140.857 221.0771, 1124.593 221.0771" style="stroke: rgb(67%,84%,90%); stroke-linecap: round; stroke-width: 1; fill: rgb(67%,84%,90%); fill-rule: evenodd;"/>
			<polygon points="1165.382 241.5776, 1231.561 241.5776, 1231.561 251.8279, 1247.962 231.3273, 1231.561 210.8268, 1231.561 221.0771, 1165.382 221.0771" style="stroke: rgb(67%,84%,90%); stroke-linecap: round; stroke-width: 1; fill: rgb(67%,84%,90%); fill-rule: evenodd;"/>
			<polygon points="1248.24 241.5776, 1292.884 241.5776, 1292.884 251.8279, 1309.285 231.3273, 1292.884 210.8268, 1292.884 221.0771, 1248.24 221.0771" style="stroke: rgb(67%,84%,90%); stroke-linecap: round; stroke-width: 1; fill: rgb(67%,84%,90%); fill-rule: evenodd;"/>
			<polygon points="1309.897 241.5776, 1330.001 241.5776, 1330.001 251.8279, 1346.401 231.3273, 1330.001 210.8268, 1330.001 221.0771, 1309.897 221.0771" style="stroke: rgb(67%,84%,90%); stroke-linecap: round; stroke-width: 1; fill: rgb(67%,84%,90%); fill-rule: evenodd;"/>
			<polygon points="91.34415 528.5855, 173.7167 528.5855, 173.7167 538.8358, 190.1171 518.3352, 173.7167 497.8346, 173.7167 508.0849, 91.34415 508.0849" style="stroke: rgb(67%,84%,90%); stroke-linecap: round; stroke-width: 1; fill: rgb(67%,84%,90%); fill-rule: evenodd;"/>
			<polygon points="189.9502 528.5855, 279.6681 528.5855, 279.6681 538.8358, 296.0686 518.3352, 279.6681 497.8346, 279.6681 508.0849, 189.9502 508.0849" style="stroke: rgb(67%,84%,90%); stroke-linecap: round; stroke-width: 1; fill: rgb(67%,84%,90%); fill-rule: evenodd;"/>
			<polygon points="337.6367 487.5844, 315.6965 487.5844, 315.6965 497.8346, 299.2961 477.3341, 315.6965 456.8335, 315.6965 467.0838, 337.6367 467.0838" style="stroke: rgb(56%,93%,56%); stroke-linecap: round; stroke-width: 1; fill: rgb(56%,93%,56%); fill-rule: evenodd;"/>
			<polygon points="351.2701 528.5855, 384.8961 528.5855, 384.8961 538.8358, 401.2966 518.3352, 384.8961 497.8346, 384.8961 508.0849, 351.2701 508.0849" style="stroke: rgb(67%,84%,90%); stroke-linecap: round; stroke-width: 1; fill: rgb(67%,84%,90%); fill-rule: evenodd;"/>
			<polygon points="402.2982 528.5855, 423.2367 528.5855, 423.2367 538.8358, 439.6372 518.3352, 423.2367 497.8346, 423.2367 508.0849, 402.2982 508.0849" style="stroke: rgb(67%,84%,90%); stroke-linecap: round; stroke-width: 1; fill: rgb(67%,84%,90%); fill-rule: evenodd;"/>
			<polygon points="438.4686 528.5855, 500.4744 528.5855, 500.4744 538.8358, 516.8749 518.3352, 500.4744 497.8346, 500.4744 508.0849, 438.4686 508.0849" style="stroke: rgb(67%,84%,90%); stroke-linecap: round; stroke-width: 1; fill: rgb(67%,84%,90%); fill-rule: evenodd;"/>
			<polygon points="538.9666 528.5855, 598.4684 528.5855, 598.4684 538.8358, 614.8688 518.3352, 598.4684 497.8346, 598.4684 508.0849, 538.9666 508.0849" style="stroke: rgb(67%,84%,90%); stroke-linecap: round; stroke-width: 1; fill: rgb(67%,84%,90%); fill-rule: evenodd;"/>
			<path d="M 1346.401046,169.825647 L 1346.401046,251.827897 Z" style="stroke: rgb(0%,0%,0%); stroke-linecap: butt; stroke-width: 1;"/>
			<path d="M 70.866142,210.826772 L 1346.401046,210.826772 Z" style="stroke: rgb(0%,0%,0%); stroke-linecap: butt; stroke-width: 1;"/>
			<path d="M 70.866142,169.825647 L 70.866142,251.827897 Z" style="stroke: rgb(0%,0%,0%); stroke-linecap: butt; stroke-width: 1;"/>
			<path d="M 627.333686,210.826772 L 627.333686,231.327334 Z" style="stroke: rgb(0%,0%,0%); stroke-linecap: butt; stroke-width: 1;"/>
			<path d="M 1183.80123,210.826772 L 1183.80123,231.327334 Z" style="stroke: rgb(0%,0%,0%); stroke-linecap: butt; stroke-width: 1;"/>
			<path d="M 627.333686,210.826772 L 627.333686,223.127109 Z" style="stroke: rgb(0%,0%,0%); stroke-linecap: butt; stroke-width: 1;"/>
			<path d="M 1183.80123,210.826772 L 1183.80123,223.127109 Z" style="stroke: rgb(0%,0%,0%); stroke-linecap: butt; stroke-width: 1;"/>
			<path d="M 617.31727,456.833521 L 617.31727,538.835771 Z" style="stroke: rgb(0%,0%,0%); stroke-linecap: butt; stroke-width: 1;"/>
			<path d="M 70.866142,497.834646 L 617.31727,497.834646 Z" style="stroke: rgb(0%,0%,0%); stroke-linecap: butt; stroke-width: 1;"/>
			<path d="M 70.866142,456.833521 L 70.866142,538.835771 Z" style="stroke: rgb(0%,0%,0%); stroke-linecap: butt; stroke-width: 1;"/>
			<g transform=" matrix(0.707107,0.707107,-0.707107,0.707107,627.333686,231.327334)">
				<text style="font-family: Helvetica; font-size: 6px;fill: rgb(0%,0%,0%); stroke:none;" transform="translate(0,0) scale(1,-1)" x="0" y="0">10000</text>
			</g>
			<g transform=" matrix(0.707107,0.707107,-0.707107,0.707107,1183.80123,231.327334)">
				<text style="font-family: Helvetica; font-size: 6px;fill: rgb(0%,0%,0%); stroke:none;" transform="translate(0,0) scale(1,-1)" x="0" y="0">20000</text>
			</g>
			<g transform=" matrix(0.707107,-0.707107,0.707107,0.707107,104.727192,169.825647)">
				<text style="font-family: Helvetica; font-size: 10px;fill: rgb(0%,0%,0%); stroke:none;" transform="translate(0,0) scale(1,-1)" x="0" y="0">Gene_00421</text>
			</g>
			<g transform=" matrix(0.707107,-0.707107,0.707107,0.707107,157.257728,169.825647)">
				<text style="font-family: Helvetica; font-size: 10px;fill: rgb(0%,0%,0%); stroke:none;" transform="translate(0,0) scale(1,-1)" x="0" y="0">Gene_00422</text>
			</g>
			<g transform=" matrix(0.707107,-0.707107,0.707107,0.707107,244.344899,169.825647)">
				<text style="font-family: Helvetica; font-size: 10px;fill: rgb(0%,0%,0%); stroke:none;" transform="translate(0,0) scale(1,-1)" x="0" y="0">Gene_00423</text>
			</g>
			<g transform=" matrix(0.707107,-0.707107,0.707107,0.707107,335.466459,169.825647)">
				<text style="font-family: Helvetica; font-size: 10px;fill: rgb(0%,0%,0%); stroke:none;" transform="translate(0,0) scale(1,-1)" x="0" y="0">Gene_00424</text>
			</g>
			<g transform=" matrix(0.707107,-0.707107,0.707107,0.707107,389.638574,169.825647)">
				<text style="font-family: Helvetica; font-size: 10px;fill: rgb(0%,0%,0%); stroke:none;" transform="translate(0,0) scale(1,-1)" x="0" y="0">Gene_00425</text>
			</g>
			<g transform=" matrix(0.707107,-0.707107,0.707107,0.707107,446.147853,169.825647)">
				<text style="font-family: Helvetica; font-size: 10px;fill: rgb(0%,0%,0%); stroke:none;" transform="translate(0,0) scale(1,-1)" x="0" y="0">Gene_00426</text>
			</g>
			<g transform=" matrix(0.707107,-0.707107,0.707107,0.707107,476.197101,169.825647)">
				<text style="font-family: Helvetica; font-size: 10px;fill: rgb(0%,0%,0%); stroke:none;" transform="translate(0,0) scale(1,-1)" x="0" y="0">Gene_00427</text>
			</g>
			<g transform=" matrix(0.707107,-0.707107,0.707107,0.707107,517.486993,169.825647)">
				<text style="font-family: Helvetica; font-size: 10px;fill: rgb(0%,0%,0%); stroke:none;" transform="translate(0,0) scale(1,-1)" x="0" y="0">Gene_00428</text>
			</g>
			<g transform=" matrix(0.707107,0.707107,-0.707107,0.707107,574.413622,251.827897)">
				<text style="font-family: Helvetica; font-size: 10px;fill: rgb(0%,0%,0%); stroke:none;" transform="translate(0,0) scale(1,-1)" x="0" y="0">Gene_00429</text>
			</g>
			<g transform=" matrix(0.707107,-0.707107,0.707107,0.707107,612.142122,169.825647)">
				<text style="font-family: Helvetica; font-size: 10px;fill: rgb(0%,0%,0%); stroke:none;" transform="translate(0,0) scale(1,-1)" x="0" y="0">Gene_00430</text>
			</g>
			<g transform=" matrix(0.707107,-0.707107,0.707107,0.707107,703.625386,169.825647)">
				<text style="font-family: Helvetica; font-size: 16px;fill: rgb(0%,0%,100%); stroke:none;" transform="translate(0,0) scale(1,-1)" x="0" y="0">Gene_00431 (79.6)</text>
			</g>
			<g transform=" matrix(0.707107,-0.707107,0.707107,0.707107,805.820651,169.825647)">
				<text style="font-family: Helvetica; font-size: 10px;fill: rgb(0%,0%,0%); stroke:none;" transform="translate(0,0) scale(1,-1)" x="0" y="0">Gene_00432</text>
			</g>
			<g transform=" matrix(0.707107,-0.707107,0.707107,0.707107,867.811135,169.825647)">
				<text style="font-family: Helvetica; font-size: 10px;fill: rgb(0%,0%,0%); stroke:none;" transform="translate(0,0) scale(1,-1)" x="0" y="0">Gene_00433</text>
			</g>
			<g transform=" matrix(0.707107,0.707107,-0.707107,0.707107,913.831001,251.827897)">
				<text style="font-family: Helvetica; font-size: 10px;fill: rgb(0%,0%,0%); stroke:none;" transform="translate(0,0) scale(1,-1)" x="0" y="0">Gene_00434</text>
			</g>
			<g transform=" matrix(0.707107,0.707107,-0.707107,0.707107,956.400768,251.827897)">
				<text style="font-family: Helvetica; font-size: 10px;fill: rgb(0%,0%,0%); stroke:none;" transform="translate(0,0) scale(1,-1)" x="0" y="0">Gene_00435</text>
			</g>
			<g transform=" matrix(0.707107,0.707107,-0.707107,0.707107,985.754431,251.827897)">
				<text style="font-family: Helvetica; font-size: 10px;fill: rgb(0%,0%,0%); stroke:none;" transform="translate(0,0) scale(1,-1)" x="0" y="0">Gene_00436</text>
			</g>
			<g transform=" matrix(0.707107,0.707107,-0.707107,0.707107,1033.888873,251.827897)">
				<text style="font-family: Helvetica; font-size: 10px;fill: rgb(0%,0%,0%); stroke:none;" transform="translate(0,0) scale(1,-1)" x="0" y="0">Gene_00437</text>
			</g>
			<g transform=" matrix(0.707107,-0.707107,0.707107,0.707107,1093.403077,169.825647)">
				<text style="font-family: Helvetica; font-size: 10px;fill: rgb(0%,0%,0%); stroke:none;" transform="translate(0,0) scale(1,-1)" x="0" y="0">Gene_00438</text>
			</g>
			<g transform=" matrix(0.707107,0.707107,-0.707107,0.707107,1140.925406,251.827897)">
				<text style="font-family: Helvetica; font-size: 10px;fill: rgb(0%,0%,0%); stroke:none;" transform="translate(0,0) scale(1,-1)" x="0" y="0">Gene_00439</text>
			</g>
			<g transform=" matrix(0.707107,0.707107,-0.707107,0.707107,1206.672046,251.827897)">
				<text style="font-family: Helvetica; font-size: 10px;fill: rgb(0%,0%,0%); stroke:none;" transform="translate(0,0) scale(1,-1)" x="0" y="0">Gene_00440</text>
			</g>
			<g transform=" matrix(0.707107,0.707107,-0.707107,0.707107,1278.762416,251.827897)">
				<text style="font-family: Helvetica; font-size: 10px;fill: rgb(0%,0%,0%); stroke:none;" transform="translate(0,0) scale(1,-1)" x="0" y="0">Gene_00441</text>
			</g>
			<g transform=" matrix(0.707107,0.707107,-0.707107,0.707107,1328.148911,251.827897)">
				<text style="font-family: Helvetica; font-size: 10px;fill: rgb(0%,0%,0%); stroke:none;" transform="translate(0,0) scale(1,-1)" x="0" y="0">Gene_00442</text>
			</g>
			<g transform=" matrix(0.707107,0.707107,-0.707107,0.707107,140.730642,538.835771)">
				<text style="font-family: Helvetica; font-size: 10px;fill: rgb(0%,0%,0%); stroke:none;" transform="translate(0,0) scale(1,-1)" x="0" y="0">Gene_03140</text>
			</g>
			<g transform=" matrix(0.707107,0.707107,-0.707107,0.707107,243.009376,538.835771)">
				<text style="font-family: Helvetica; font-size: 16px;fill: rgb(0%,0%,100%); stroke:none;" transform="translate(0,0) scale(1,-1)" x="0" y="0">Gene_03141 (79.6)</text>
			</g>
			<g transform=" matrix(0.707107,-0.707107,0.707107,0.707107,318.466375,456.833521)">
				<text style="font-family: Helvetica; font-size: 10px;fill: rgb(0%,0%,0%); stroke:none;" transform="translate(0,0) scale(1,-1)" x="0" y="0">Gene_03142</text>
			</g>
			<g transform=" matrix(0.707107,0.707107,-0.707107,0.707107,376.283353,538.835771)">
				<text style="font-family: Helvetica; font-size: 10px;fill: rgb(0%,0%,0%); stroke:none;" transform="translate(0,0) scale(1,-1)" x="0" y="0">Gene_03143</text>
			</g>
			<g transform=" matrix(0.707107,0.707107,-0.707107,0.707107,420.967697,538.835771)">
				<text style="font-family: Helvetica; font-size: 10px;fill: rgb(0%,0%,0%); stroke:none;" transform="translate(0,0) scale(1,-1)" x="0" y="0">Gene_03144</text>
			</g>
			<g transform=" matrix(0.707107,0.707107,-0.707107,0.707107,477.67174,538.835771)">
				<text style="font-family: Helvetica; font-size: 10px;fill: rgb(0%,0%,0%); stroke:none;" transform="translate(0,0) scale(1,-1)" x="0" y="0">Gene_03145</text>
			</g>
			<g transform=" matrix(0.707107,0.707107,-0.707107,0.707107,576.917726,538.835771)">
				<text style="font-family: Helvetica; font-size: 10px;fill: rgb(0%,0%,0%); stroke:none;" transform="translate(0,0) scale(1,-1)" x="0" y="0">Gene_03146</text>
			</g>
			<g transform=" matrix(1,0,-0,1,70,169.825647)">
				<text style="font-family: Helvetica; font-size: 12px;fill: rgb(60%,60%,60%); stroke:none;" transform="translate(0,0) scale(1,-1)" x="0" y="0">megahit_17669 (left 18299bp, right 33372bp)</text>
			</g>
			<g transform=" matrix(1,0,-0,1,70,456.833521)">
				<text style="font-family: Helvetica; font-size: 12px;fill: rgb(60%,60%,60%); stroke:none;" transform="translate(0,0) scale(1,-1)" x="0" y="0">megahit_146479 (left 2140bp, right 5773bp)</text>
			</g>
		</g>
	</g>
</svg>
