<?xml version="1.0" encoding="utf-8"?>
<!DOCTYPE svg
  PUBLIC '-//W3C//DTD SVG 1.0//EN'
  'http://www.w3.org/TR/2001/REC-SVG-20010904/DTD/svg10.dtd'>
<svg fill-rule="evenodd" height="708.6614173228346" preserveAspectRatio="xMinYMin meet" version="1.0" viewBox="0 0 1417 708" width="1417.3228346456692" xmlns="http://www.w3.org/2000/svg" xmlns:xlink="http://www.w3.org/1999/xlink">
	<title>...</title>
	<desc>...</desc>
	<clipPath id="clip">
		<rect height="708.6614173228346" width="1417.3228346456692" x="0" y="0"/>
	</clipPath>
	<g id="group" style="clip-path: url(#clip)" transform="scale(1,-1) translate(0,-708)">
		<g transform="">
			<polygon points="70.86614 169.8256, 1346.393 169.8256, 1346.393 251.8279, 70.86614 251.8279" style="stroke: rgb(96%,96%,96%); stroke-linecap: butt; stroke-width: 1; fill: rgb(96%,96%,96%); fill-rule: evenodd;"/>
			<polygon points="70.86614 456.8335, 493.4396 456.8335, 493.4396 538.8358, 70.86614 538.8358" style="stroke: rgb(96%,96%,96%); stroke-linecap: butt; stroke-width: 1; fill: rgb(96%,96%,96%); fill-rule: evenodd;"/>
			<polygon points="436.5084 456.8335, 493.4396 456.8335, 893.4183 251.8279, 836.4236 251.8279" style="stroke: rgb(100%,24%,24%); stroke-linecap: round; stroke-width: 1; fill: rgb(100%,24%,24%); fill-rule: evenodd;"/>
			<polygon points="391.2553 456.8335, 436.9526 456.8335, 761.3403 251.8279, 715.1987 251.8279" style="stroke: rgb(100%,37%,37%); stroke-linecap: round; stroke-width: 1; fill: rgb(100%,37%,37%); fill-rule: evenodd;"/>
			<polygon points="300.6857 456.8335, 343.527 456.8335, 517.4307 251.8279, 474.5895 251.8279" style="stroke: rgb(100%,38%,38%); stroke-linecap: round; stroke-width: 1; fill: rgb(100%,38%,38%); fill-rule: evenodd;"/>
			<polygon points="179.7781 456.8335, 221.8578 456.8335, 395.7616 251.8279, 353.6819 251.8279" style="stroke: rgb(100%,68%,68%); stroke-linecap: round; stroke-width: 1; fill: rgb(100%,68%,68%); fill-rule: evenodd;"/>
			<polygon points="70.86614 241.5776, 107.1446 241.5776, 107.1446 251.8279, 123.545 231.3273, 107.1446 210.8268, 107.1446 221.0771, 70.86614 221.0771" style="stroke: rgb(67%,84%,90%); stroke-linecap: round; stroke-width: 1; fill: rgb(67%,84%,90%); fill-rule: evenodd;"/>
			<polygon points="123.1007 241.5776, 155.1903 241.5776, 155.1903 251.8279, 171.5907 231.3273, 155.1903 210.8268, 155.1903 221.0771, 123.1007 221.0771" style="stroke: rgb(67%,84%,90%); stroke-linecap: round; stroke-width: 1; fill: rgb(67%,84%,90%); fill-rule: evenodd;"/>
			<polygon points="174.9545 241.5776, 263.4041 241.5776, 263.4041 251.8279, 279.8045 231.3273, 263.4041 210.8268, 263.4041 221.0771, 174.9545 221.0771" style="stroke: rgb(67%,84%,90%); stroke-linecap: round; stroke-width: 1; fill: rgb(67%,84%,90%); fill-rule: evenodd;"/>
			<polygon points="290.7211 241.5776, 391.1663 241.5776, 391.1663 251.8279, 407.5667 231.3273, 391.1663 210.8268, 391.1663 221.0771, 290.7211 221.0771" style="stroke: rgb(67%,84%,90%); stroke-linecap: round; stroke-width: 1; fill: rgb(67%,84%,90%); fill-rule: evenodd;"/>
			<polygon points="407.1859 241.5776, 501.1572 241.5776, 501.1572 251.8279, 517.5577 231.3273, 501.1572 210.8268, 501.1572 221.0771, 407.1859 221.0771" style="stroke: rgb(67%,84%,90%); stroke-linecap: round; stroke-width: 1; fill: rgb(67%,84%,90%); fill-rule: evenodd;"/>
			<polygon points="641.3213 200.5765, 539.7338 200.5765, 539.7338 210.8268, 523.3333 190.3262, 539.7338 169.8256, 539.7338 180.0759, 641.3213 180.0759" style="stroke: rgb(56%,93%,56%); stroke-linecap: round; stroke-width: 1; fill: rgb(56%,93%,56%); fill-rule: evenodd;"/>
			<polygon points="666.3914 200.5765, 665.338 200.5765, 665.338 210.8268, 648.9375 190.3262, 665.338 169.8256, 665.338 180.0759, 666.3914 180.0759" style="stroke: rgb(56%,93%,56%); stroke-linecap: round; stroke-width: 1; fill: rgb(56%,93%,56%); fill-rule: evenodd;"/>
			<polygon points="683.2105 241.5776, 683.2105 251.8279, 694.381 231.3273, 683.2105 210.8268, 683.2105 221.0771" style="stroke: rgb(67%,84%,90%); stroke-linecap: round; stroke-width: 1; fill: rgb(67%,84%,90%); fill-rule: evenodd;"/>
			<polygon points="696.6024 241.5776, 696.6024 251.8279, 706.8208 231.3273, 696.6024 210.8268, 696.6024 221.0771" style="stroke: rgb(67%,84%,90%); stroke-linecap: round; stroke-width: 1; fill: rgb(67%,84%,90%); fill-rule: evenodd;"/>
			<polygon points="734.2392 241.5776, 744.6225 241.5776, 744.6225 251.8279, 761.023 231.3273, 744.6225 210.8268, 744.6225 221.0771, 734.2392 221.0771" style="stroke: rgb(67%,84%,90%); stroke-linecap: round; stroke-width: 1; fill: rgb(67%,84%,90%); fill-rule: evenodd;"/>
			<polygon points="772.1934 241.5776, 809.6143 241.5776, 809.6143 251.8279, 826.0147 231.3273, 809.6143 210.8268, 809.6143 221.0771, 772.1934 221.0771" style="stroke: rgb(67%,84%,90%); stroke-linecap: round; stroke-width: 1; fill: rgb(67%,84%,90%); fill-rule: evenodd;"/>
			<polygon points="837.7564 241.5776, 838.6194 241.5776, 838.6194 251.8279, 855.0199 231.3273, 838.6194 210.8268, 838.6194 221.0771, 837.7564 221.0771" style="stroke: rgb(67%,84%,90%); stroke-linecap: round; stroke-width: 1; fill: rgb(67%,84%,90%); fill-rule: evenodd;"/>
			<polygon points="858.4472 241.5776, 976.0288 241.5776, 976.0288 251.8279, 992.4292 231.3273, 976.0288 210.8268, 976.0288 221.0771, 858.4472 221.0771" style="stroke: rgb(67%,84%,90%); stroke-linecap: round; stroke-width: 1; fill: rgb(67%,84%,90%); fill-rule: evenodd;"/>
			<polygon points="1108.577 200.5765, 1063.73 200.5765, 1063.73 210.8268, 1047.33 190.3262, 1063.73 169.8256, 1063.73 180.0759, 1108.577 180.0759" style="stroke: rgb(56%,93%,56%); stroke-linecap: round; stroke-width: 1; fill: rgb(56%,93%,56%); fill-rule: evenodd;"/>
			<polygon points="1122.73 241.5776, 1143.205 241.5776, 1143.205 251.8279, 1159.605 231.3273, 1143.205 210.8268, 1143.205 221.0771, 1122.73 221.0771" style="stroke: rgb(67%,84%,90%); stroke-linecap: round; stroke-width: 1; fill: rgb(67%,84%,90%); fill-rule: evenodd;"/>
			<polygon points="1159.605 241.5776, 1189.981 241.5776, 1189.981 251.8279, 1206.382 231.3273, 1189.981 210.8268, 1189.981 221.0771, 1159.605 221.0771" style="stroke: rgb(67%,84%,90%); stroke-linecap: round; stroke-width: 1; fill: rgb(67%,84%,90%); fill-rule: evenodd;"/>
			<polygon points="1206.762 241.5776, 1284.549 241.5776, 1284.549 251.8279, 1300.95 231.3273, 1284.549 210.8268, 1284.549 221.0771, 1206.762 221.0771" style="stroke: rgb(67%,84%,90%); stroke-linecap: round; stroke-width: 1; fill: rgb(67%,84%,90%); fill-rule: evenodd;"/>
			<polygon points="1329.447 200.5765, 1319.064 200.5765, 1319.064 210.8268, 1302.663 190.3262, 1319.064 169.8256, 1319.064 180.0759, 1329.447 180.0759" style="stroke: rgb(56%,93%,56%); stroke-linecap: round; stroke-width: 1; fill: rgb(56%,93%,56%); fill-rule: evenodd;"/>
			<polygon points="72.9606 528.5855, 95.72024 528.5855, 95.72024 538.8358, 112.1207 518.3352, 95.72024 497.8346, 95.72024 508.0849, 72.9606 508.0849" style="stroke: rgb(67%,84%,90%); stroke-linecap: round; stroke-width: 1; fill: rgb(67%,84%,90%); fill-rule: evenodd;"/>
			<polygon points="117.0078 528.5855, 216.5009 528.5855, 216.5009 538.8358, 232.9013 518.3352, 216.5009 497.8346, 216.5009 508.0849, 117.0078 508.0849" style="stroke: rgb(67%,84%,90%); stroke-linecap: round; stroke-width: 1; fill: rgb(67%,84%,90%); fill-rule: evenodd;"/>
			<polygon points="232.7109 528.5855, 327.4438 528.5855, 327.4438 538.8358, 343.8443 518.3352, 327.4438 497.8346, 327.4438 508.0849, 232.7109 508.0849" style="stroke: rgb(67%,84%,90%); stroke-linecap: round; stroke-width: 1; fill: rgb(67%,84%,90%); fill-rule: evenodd;"/>
			<polygon points="352.0317 528.5855, 352.0317 538.8358, 367.5815 518.3352, 352.0317 497.8346, 352.0317 508.0849" style="stroke: rgb(67%,84%,90%); stroke-linecap: round; stroke-width: 1; fill: rgb(67%,84%,90%); fill-rule: evenodd;"/>
			<polygon points="372.1513 528.5855, 390.722 528.5855, 390.722 538.8358, 407.1224 518.3352, 390.722 497.8346, 390.722 508.0849, 372.1513 508.0849" style="stroke: rgb(67%,84%,90%); stroke-linecap: round; stroke-width: 1; fill: rgb(67%,84%,90%); fill-rule: evenodd;"/>
			<polygon points="409.8516 528.5855, 420.2348 528.5855, 420.2348 538.8358, 436.6353 518.3352, 420.2348 497.8346, 420.2348 508.0849, 409.8516 508.0849" style="stroke: rgb(67%,84%,90%); stroke-linecap: round; stroke-width: 1; fill: rgb(67%,84%,90%); fill-rule: evenodd;"/>
			<polygon points="437.7777 528.5855, 438.6407 528.5855, 438.6407 538.8358, 455.0412 518.3352, 438.6407 497.8346, 438.6407 508.0849, 437.7777 508.0849" style="stroke: rgb(67%,84%,90%); stroke-linecap: round; stroke-width: 1; fill: rgb(67%,84%,90%); fill-rule: evenodd;"/>
			<path d="M 1346.393224,169.825647 L 1346.393224,251.827897 Z" style="stroke: rgb(0%,0%,0%); stroke-linecap: butt; stroke-width: 1;"/>
			<path d="M 70.866142,210.826772 L 1346.393224,210.826772 Z" style="stroke: rgb(0%,0%,0%); stroke-linecap: butt; stroke-width: 1;"/>
			<path d="M 70.866142,169.825647 L 70.866142,251.827897 Z" style="stroke: rgb(0%,0%,0%); stroke-linecap: butt; stroke-width: 1;"/>
			<path d="M 705.551459,210.826772 L 705.551459,231.327334 Z" style="stroke: rgb(0%,0%,0%); stroke-linecap: butt; stroke-width: 1;"/>
			<path d="M 1340.236777,210.826772 L 1340.236777,231.327334 Z" style="stroke: rgb(0%,0%,0%); stroke-linecap: butt; stroke-width: 1;"/>
			<path d="M 705.551459,210.826772 L 705.551459,223.127109 Z" style="stroke: rgb(0%,0%,0%); stroke-linecap: butt; stroke-width: 1;"/>
			<path d="M 1340.236777,210.826772 L 1340.236777,223.127109 Z" style="stroke: rgb(0%,0%,0%); stroke-linecap: butt; stroke-width: 1;"/>
			<path d="M 493.439626,456.833521 L 493.439626,538.835771 Z" style="stroke: rgb(0%,0%,0%); stroke-linecap: butt; stroke-width: 1;"/>
			<path d="M 70.866142,497.834646 L 493.439626,497.834646 Z" style="stroke: rgb(0%,0%,0%); stroke-linecap: butt; stroke-width: 1;"/>
			<path d="M 70.866142,456.833521 L 70.866142,538.835771 Z" style="stroke: rgb(0%,0%,0%); stroke-linecap: butt; stroke-width: 1;"/>
			<g transform=" matrix(0.707107,0.707107,-0.707107,0.707107,705.551459,231.327334)">
				<text style="font-family: Helvetica; font-size: 6px;fill: rgb(0%,0%,0%); stroke:none;" transform="translate(0,0) scale(1,-1)" x="0" y="0">10000</text>
			</g>
			<g transform=" matrix(0.707107,0.707107,-0.707107,0.707107,1340.236777,231.327334)">
				<text style="font-family: Helvetica; font-size: 6px;fill: rgb(0%,0%,0%); stroke:none;" transform="translate(0,0) scale(1,-1)" x="0" y="0">20000</text>
			</g>
			<g transform=" matrix(0.707107,0.707107,-0.707107,0.707107,97.205582,251.827897)">
				<text style="font-family: Helvetica; font-size: 10px;fill: rgb(0%,0%,0%); stroke:none;" transform="translate(0,0) scale(1,-1)" x="0" y="0">Gene_00896</text>
			</g>
			<g transform=" matrix(0.707107,0.707107,-0.707107,0.707107,147.345722,251.827897)">
				<text style="font-family: Helvetica; font-size: 10px;fill: rgb(0%,0%,0%); stroke:none;" transform="translate(0,0) scale(1,-1)" x="0" y="0">Gene_00897</text>
			</g>
			<g transform=" matrix(0.707107,0.707107,-0.707107,0.707107,227.379541,251.827897)">
				<text style="font-family: Helvetica; font-size: 10px;fill: rgb(0%,0%,0%); stroke:none;" transform="translate(0,0) scale(1,-1)" x="0" y="0">Gene_00898</text>
			</g>
			<g transform=" matrix(0.707107,0.707107,-0.707107,0.707107,349.143919,251.827897)">
				<text style="font-family: Helvetica; font-size: 10px;fill: rgb(0%,0%,0%); stroke:none;" transform="translate(0,0) scale(1,-1)" x="0" y="0">Gene_00899</text>
			</g>
			<g transform=" matrix(0.707107,0.707107,-0.707107,0.707107,462.37178,251.827897)">
				<text style="font-family: Helvetica; font-size: 10px;fill: rgb(0%,0%,0%); stroke:none;" transform="translate(0,0) scale(1,-1)" x="0" y="0">Gene_00900</text>
			</g>
			<g transform=" matrix(0.707107,-0.707107,0.707107,0.707107,582.327305,169.825647)">
				<text style="font-family: Helvetica; font-size: 10px;fill: rgb(0%,0%,0%); stroke:none;" transform="translate(0,0) scale(1,-1)" x="0" y="0">Gene_00901</text>
			</g>
			<g transform=" matrix(0.707107,-0.707107,0.707107,0.707107,657.664452,169.825647)">
				<text style="font-family: Helvetica; font-size: 10px;fill: rgb(0%,0%,0%); stroke:none;" transform="translate(0,0) scale(1,-1)" x="0" y="0">Gene_00902</text>
			</g>
			<g transform=" matrix(0.707107,0.707107,-0.707107,0.707107,688.795767,251.827897)">
				<text style="font-family: Helvetica; font-size: 10px;fill: rgb(0%,0%,0%); stroke:none;" transform="translate(0,0) scale(1,-1)" x="0" y="0">Gene_00903</text>
			</g>
			<g transform=" matrix(0.707107,0.707107,-0.707107,0.707107,701.711613,251.827897)">
				<text style="font-family: Helvetica; font-size: 10px;fill: rgb(0%,0%,0%); stroke:none;" transform="translate(0,0) scale(1,-1)" x="0" y="0">Gene_00904</text>
			</g>
			<g transform=" matrix(0.707107,0.707107,-0.707107,0.707107,747.631096,251.827897)">
				<text style="font-family: Helvetica; font-size: 16px;fill: rgb(0%,0%,100%); stroke:none;" transform="translate(0,0) scale(1,-1)" x="0" y="0">Gene_00905 (81.6)</text>
			</g>
			<g transform=" matrix(0.707107,0.707107,-0.707107,0.707107,799.104075,251.827897)">
				<text style="font-family: Helvetica; font-size: 10px;fill: rgb(0%,0%,0%); stroke:none;" transform="translate(0,0) scale(1,-1)" x="0" y="0">Gene_00906</text>
			</g>
			<g transform=" matrix(0.707107,0.707107,-0.707107,0.707107,846.388131,251.827897)">
				<text style="font-family: Helvetica; font-size: 10px;fill: rgb(0%,0%,0%); stroke:none;" transform="translate(0,0) scale(1,-1)" x="0" y="0">Gene_00907</text>
			</g>
			<g transform=" matrix(0.707107,0.707107,-0.707107,0.707107,925.438188,251.827897)">
				<text style="font-family: Helvetica; font-size: 10px;fill: rgb(0%,0%,0%); stroke:none;" transform="translate(0,0) scale(1,-1)" x="0" y="0">Gene_00908</text>
			</g>
			<g transform=" matrix(0.707107,-0.707107,0.707107,0.707107,1077.953069,169.825647)">
				<text style="font-family: Helvetica; font-size: 10px;fill: rgb(0%,0%,0%); stroke:none;" transform="translate(0,0) scale(1,-1)" x="0" y="0">Gene_00909</text>
			</g>
			<g transform=" matrix(0.707107,0.707107,-0.707107,0.707107,1141.167727,251.827897)">
				<text style="font-family: Helvetica; font-size: 10px;fill: rgb(0%,0%,0%); stroke:none;" transform="translate(0,0) scale(1,-1)" x="0" y="0">Gene_00910</text>
			</g>
			<g transform=" matrix(0.707107,0.707107,-0.707107,0.707107,1182.993489,251.827897)">
				<text style="font-family: Helvetica; font-size: 10px;fill: rgb(0%,0%,0%); stroke:none;" transform="translate(0,0) scale(1,-1)" x="0" y="0">Gene_00911</text>
			</g>
			<g transform=" matrix(0.707107,0.707107,-0.707107,0.707107,1253.856105,251.827897)">
				<text style="font-family: Helvetica; font-size: 10px;fill: rgb(0%,0%,0%); stroke:none;" transform="translate(0,0) scale(1,-1)" x="0" y="0">Gene_00912</text>
			</g>
			<g transform=" matrix(0.707107,-0.707107,0.707107,0.707107,1316.055266,169.825647)">
				<text style="font-family: Helvetica; font-size: 10px;fill: rgb(0%,0%,0%); stroke:none;" transform="translate(0,0) scale(1,-1)" x="0" y="0">Gene_00913</text>
			</g>
			<g transform=" matrix(0.707107,0.707107,-0.707107,0.707107,92.540645,538.835771)">
				<text style="font-family: Helvetica; font-size: 10px;fill: rgb(0%,0%,0%); stroke:none;" transform="translate(0,0) scale(1,-1)" x="0" y="0">Gene_01170</text>
			</g>
			<g transform=" matrix(0.707107,0.707107,-0.707107,0.707107,174.954534,538.835771)">
				<text style="font-family: Helvetica; font-size: 10px;fill: rgb(0%,0%,0%); stroke:none;" transform="translate(0,0) scale(1,-1)" x="0" y="0">Gene_01171</text>
			</g>
			<g transform=" matrix(0.707107,0.707107,-0.707107,0.707107,288.277597,538.835771)">
				<text style="font-family: Helvetica; font-size: 10px;fill: rgb(0%,0%,0%); stroke:none;" transform="translate(0,0) scale(1,-1)" x="0" y="0">Gene_01172</text>
			</g>
			<g transform=" matrix(0.707107,0.707107,-0.707107,0.707107,359.806633,538.835771)">
				<text style="font-family: Helvetica; font-size: 10px;fill: rgb(0%,0%,0%); stroke:none;" transform="translate(0,0) scale(1,-1)" x="0" y="0">Gene_01173</text>
			</g>
			<g transform=" matrix(0.707107,0.707107,-0.707107,0.707107,389.636842,538.835771)">
				<text style="font-family: Helvetica; font-size: 10px;fill: rgb(0%,0%,0%); stroke:none;" transform="translate(0,0) scale(1,-1)" x="0" y="0">Gene_01174</text>
			</g>
			<g transform=" matrix(0.707107,0.707107,-0.707107,0.707107,423.24343,538.835771)">
				<text style="font-family: Helvetica; font-size: 16px;fill: rgb(0%,0%,100%); stroke:none;" transform="translate(0,0) scale(1,-1)" x="0" y="0">Gene_01175 (81.6)</text>
			</g>
			<g transform=" matrix(0.707107,0.707107,-0.707107,0.707107,446.409444,538.835771)">
				<text style="font-family: Helvetica; font-size: 10px;fill: rgb(0%,0%,0%); stroke:none;" transform="translate(0,0) scale(1,-1)" x="0" y="0">Gene_01176</text>
			</g>
			<g transform=" matrix(1,0,-0,1,70,169.825647)">
				<text style="font-family: Helvetica; font-size: 12px;fill: rgb(60%,60%,60%); stroke:none;" transform="translate(0,0) scale(1,-1)" x="0" y="0">megahit_6729 (left 13716bp, right 9223bp)</text>
			</g>
			<g transform=" matrix(1,0,-0,1,70,456.833521)">
				<text style="font-family: Helvetica; font-size: 12px;fill: rgb(60%,60%,60%); stroke:none;" transform="translate(0,0) scale(1,-1)" x="0" y="0">megahit_38959 (left 5341bp, right 895bp)</text>
			</g>
		</g>
	</g>
</svg>
