<?xml version="1.0" encoding="utf-8"?>
<!DOCTYPE svg
  PUBLIC '-//W3C//DTD SVG 1.0//EN'
  'http://www.w3.org/TR/2001/REC-SVG-20010904/DTD/svg10.dtd'>
<svg fill-rule="evenodd" height="708.6614173228346" preserveAspectRatio="xMinYMin meet" version="1.0" viewBox="0 0 1417 708" width="1417.3228346456692" xmlns="http://www.w3.org/2000/svg" xmlns:xlink="http://www.w3.org/1999/xlink">
	<title>...</title>
	<desc>...</desc>
	<clipPath id="clip">
		<rect height="708.6614173228346" width="1417.3228346456692" x="0" y="0"/>
	</clipPath>
	<g id="group" style="clip-path: url(#clip)" transform="scale(1,-1) translate(0,-708)">
		<g transform="">
			<polygon points="70.86614 169.8256, 1346.378 169.8256, 1346.378 251.8279, 70.86614 251.8279" style="stroke: rgb(96%,96%,96%); stroke-linecap: butt; stroke-width: 1; fill: rgb(96%,96%,96%); fill-rule: evenodd;"/>
			<polygon points="70.86614 456.8335, 544.4757 456.8335, 544.4757 538.8358, 70.86614 538.8358" style="stroke: rgb(96%,96%,96%); stroke-linecap: butt; stroke-width: 1; fill: rgb(96%,96%,96%); fill-rule: evenodd;"/>
			<polygon points="80.49649 456.8335, 116.1992 456.8335, 487.3983 251.8279, 523.101 251.8279" style="stroke: rgb(100%,42%,42%); stroke-linecap: round; stroke-width: 1; fill: rgb(100%,42%,42%); fill-rule: evenodd;"/>
			<polygon points="76.34683 241.5776, 95.33595 241.5776, 95.33595 251.8279, 111.7364 231.3273, 95.33595 210.8268, 95.33595 221.0771, 76.34683 221.0771" style="stroke: rgb(67%,84%,90%); stroke-linecap: round; stroke-width: 1; fill: rgb(67%,84%,90%); fill-rule: evenodd;"/>
			<polygon points="119.4877 241.5776, 135.893 241.5776, 135.893 251.8279, 152.2935 231.3273, 135.893 210.8268, 135.893 221.0771, 119.4877 221.0771" style="stroke: rgb(67%,84%,90%); stroke-linecap: round; stroke-width: 1; fill: rgb(67%,84%,90%); fill-rule: evenodd;"/>
			<polygon points="153.3113 241.5776, 193.91 241.5776, 193.91 251.8279, 210.3105 231.3273, 193.91 210.8268, 193.91 221.0771, 153.3113 221.0771" style="stroke: rgb(67%,84%,90%); stroke-linecap: round; stroke-width: 1; fill: rgb(67%,84%,90%); fill-rule: evenodd;"/>
			<polygon points="255.9567 200.5765, 225.6931 200.5765, 225.6931 210.8268, 209.2926 190.3262, 225.6931 169.8256, 225.6931 180.0759, 255.9567 180.0759" style="stroke: rgb(56%,93%,56%); stroke-linecap: round; stroke-width: 1; fill: rgb(56%,93%,56%); fill-rule: evenodd;"/>
			<polygon points="267.2313 241.5776, 299.609 241.5776, 299.609 251.8279, 316.0094 231.3273, 299.609 210.8268, 299.609 221.0771, 267.2313 221.0771" style="stroke: rgb(67%,84%,90%); stroke-linecap: round; stroke-width: 1; fill: rgb(67%,84%,90%); fill-rule: evenodd;"/>
			<polygon points="373.2434 200.5765, 336.4029 200.5765, 336.4029 210.8268, 320.0025 190.3262, 336.4029 169.8256, 336.4029 180.0759, 373.2434 180.0759" style="stroke: rgb(56%,93%,56%); stroke-linecap: round; stroke-width: 1; fill: rgb(56%,93%,56%); fill-rule: evenodd;"/>
			<polygon points="467.6678 200.5765, 391.8361 200.5765, 391.8361 210.8268, 375.4357 190.3262, 391.8361 169.8256, 391.8361 180.0759, 467.6678 180.0759" style="stroke: rgb(56%,93%,56%); stroke-linecap: round; stroke-width: 1; fill: rgb(56%,93%,56%); fill-rule: evenodd;"/>
			<polygon points="487.3983 241.5776, 511.5549 241.5776, 511.5549 251.8279, 527.9554 231.3273, 511.5549 210.8268, 511.5549 221.0771, 487.3983 221.0771" style="stroke: rgb(67%,84%,90%); stroke-linecap: round; stroke-width: 1; fill: rgb(67%,84%,90%); fill-rule: evenodd;"/>
			<polygon points="542.5966 241.5776, 593.2954 241.5776, 593.2954 251.8279, 609.6959 231.3273, 593.2954 210.8268, 593.2954 221.0771, 542.5966 221.0771" style="stroke: rgb(67%,84%,90%); stroke-linecap: round; stroke-width: 1; fill: rgb(67%,84%,90%); fill-rule: evenodd;"/>
			<polygon points="608.5215 241.5776, 659.69 241.5776, 659.69 251.8279, 676.0905 231.3273, 659.69 210.8268, 659.69 221.0771, 608.5215 221.0771" style="stroke: rgb(67%,84%,90%); stroke-linecap: round; stroke-width: 1; fill: rgb(67%,84%,90%); fill-rule: evenodd;"/>
			<polygon points="676.1688 241.5776, 724.2838 241.5776, 724.2838 251.8279, 740.6843 231.3273, 724.2838 210.8268, 724.2838 221.0771, 676.1688 221.0771" style="stroke: rgb(67%,84%,90%); stroke-linecap: round; stroke-width: 1; fill: rgb(67%,84%,90%); fill-rule: evenodd;"/>
			<polygon points="745.3037 241.5776, 790.3652 241.5776, 790.3652 251.8279, 806.7657 231.3273, 790.3652 210.8268, 790.3652 221.0771, 745.3037 221.0771" style="stroke: rgb(67%,84%,90%); stroke-linecap: round; stroke-width: 1; fill: rgb(67%,84%,90%); fill-rule: evenodd;"/>
			<polygon points="831.9769 241.5776, 887.3734 241.5776, 887.3734 251.8279, 903.7738 231.3273, 887.3734 210.8268, 887.3734 221.0771, 831.9769 221.0771" style="stroke: rgb(67%,84%,90%); stroke-linecap: round; stroke-width: 1; fill: rgb(67%,84%,90%); fill-rule: evenodd;"/>
			<polygon points="933.9959 241.5776, 942.1803 241.5776, 942.1803 251.8279, 958.5807 231.3273, 942.1803 210.8268, 942.1803 221.0771, 933.9959 221.0771" style="stroke: rgb(67%,84%,90%); stroke-linecap: round; stroke-width: 1; fill: rgb(67%,84%,90%); fill-rule: evenodd;"/>
			<polygon points="980.8166 241.5776, 1082.721 241.5776, 1082.721 251.8279, 1099.121 231.3273, 1082.721 210.8268, 1082.721 221.0771, 980.8166 221.0771" style="stroke: rgb(67%,84%,90%); stroke-linecap: round; stroke-width: 1; fill: rgb(67%,84%,90%); fill-rule: evenodd;"/>
			<polygon points="1196.442 200.5765, 1112.39 200.5765, 1112.39 210.8268, 1095.989 190.3262, 1112.39 169.8256, 1112.39 180.0759, 1196.442 180.0759" style="stroke: rgb(56%,93%,56%); stroke-linecap: round; stroke-width: 1; fill: rgb(56%,93%,56%); fill-rule: evenodd;"/>
			<polygon points="1209.674 241.5776, 1248.394 241.5776, 1248.394 251.8279, 1264.794 231.3273, 1248.394 210.8268, 1248.394 221.0771, 1209.674 221.0771" style="stroke: rgb(67%,84%,90%); stroke-linecap: round; stroke-width: 1; fill: rgb(67%,84%,90%); fill-rule: evenodd;"/>
			<polygon points="1264.012 241.5776, 1329.978 241.5776, 1329.978 251.8279, 1346.378 231.3273, 1329.978 210.8268, 1329.978 221.0771, 1264.012 221.0771" style="stroke: rgb(67%,84%,90%); stroke-linecap: round; stroke-width: 1; fill: rgb(67%,84%,90%); fill-rule: evenodd;"/>
			<polygon points="116.1992 487.5844, 92.04262 487.5844, 92.04262 497.8346, 75.64217 477.3341, 92.04262 456.8335, 92.04262 467.0838, 116.1992 467.0838" style="stroke: rgb(56%,93%,56%); stroke-linecap: round; stroke-width: 1; fill: rgb(56%,93%,56%); fill-rule: evenodd;"/>
			<polygon points="128.1785 528.5855, 146.228 528.5855, 146.228 538.8358, 162.6285 518.3352, 146.228 497.8346, 146.228 508.0849, 128.1785 508.0849" style="stroke: rgb(67%,84%,90%); stroke-linecap: round; stroke-width: 1; fill: rgb(67%,84%,90%); fill-rule: evenodd;"/>
			<polygon points="164.1161 528.5855, 204.4799 528.5855, 204.4799 538.8358, 220.8804 518.3352, 204.4799 497.8346, 204.4799 508.0849, 164.1161 508.0849" style="stroke: rgb(67%,84%,90%); stroke-linecap: round; stroke-width: 1; fill: rgb(67%,84%,90%); fill-rule: evenodd;"/>
			<polygon points="219.8625 528.5855, 238.3819 528.5855, 238.3819 538.8358, 254.7823 518.3352, 238.3819 497.8346, 238.3819 508.0849, 219.8625 508.0849" style="stroke: rgb(67%,84%,90%); stroke-linecap: round; stroke-width: 1; fill: rgb(67%,84%,90%); fill-rule: evenodd;"/>
			<polygon points="263.7863 528.5855, 266.8031 528.5855, 266.8031 538.8358, 283.2036 518.3352, 266.8031 497.8346, 266.8031 508.0849, 263.7863 508.0849" style="stroke: rgb(67%,84%,90%); stroke-linecap: round; stroke-width: 1; fill: rgb(67%,84%,90%); fill-rule: evenodd;"/>
			<polygon points="312.5644 528.5855, 367.7261 528.5855, 367.7261 538.8358, 384.1265 518.3352, 367.7261 497.8346, 367.7261 508.0849, 312.5644 508.0849" style="stroke: rgb(67%,84%,90%); stroke-linecap: round; stroke-width: 1; fill: rgb(67%,84%,90%); fill-rule: evenodd;"/>
			<polygon points="385.066 528.5855, 449.1534 528.5855, 449.1534 538.8358, 465.5538 518.3352, 449.1534 497.8346, 449.1534 508.0849, 385.066 508.0849" style="stroke: rgb(67%,84%,90%); stroke-linecap: round; stroke-width: 1; fill: rgb(67%,84%,90%); fill-rule: evenodd;"/>
			<polygon points="466.2585 528.5855, 504.0385 528.5855, 504.0385 538.8358, 520.439 518.3352, 504.0385 497.8346, 504.0385 508.0849, 466.2585 508.0849" style="stroke: rgb(67%,84%,90%); stroke-linecap: round; stroke-width: 1; fill: rgb(67%,84%,90%); fill-rule: evenodd;"/>
			<path d="M 1346.378397,169.825647 L 1346.378397,251.827897 Z" style="stroke: rgb(0%,0%,0%); stroke-linecap: butt; stroke-width: 1;"/>
			<path d="M 70.866142,210.826772 L 1346.378397,210.826772 Z" style="stroke: rgb(0%,0%,0%); stroke-linecap: butt; stroke-width: 1;"/>
			<path d="M 70.866142,169.825647 L 70.866142,251.827897 Z" style="stroke: rgb(0%,0%,0%); stroke-linecap: butt; stroke-width: 1;"/>
			<path d="M 853.821304,210.826772 L 853.821304,231.327334 Z" style="stroke: rgb(0%,0%,0%); stroke-linecap: butt; stroke-width: 1;"/>
			<path d="M 853.821304,210.826772 L 853.821304,223.127109 Z" style="stroke: rgb(0%,0%,0%); stroke-linecap: butt; stroke-width: 1;"/>
			<path d="M 544.47572,456.833521 L 544.47572,538.835771 Z" style="stroke: rgb(0%,0%,0%); stroke-linecap: butt; stroke-width: 1;"/>
			<path d="M 70.866142,497.834646 L 544.47572,497.834646 Z" style="stroke: rgb(0%,0%,0%); stroke-linecap: butt; stroke-width: 1;"/>
			<path d="M 70.866142,456.833521 L 70.866142,538.835771 Z" style="stroke: rgb(0%,0%,0%); stroke-linecap: butt; stroke-width: 1;"/>
			<g transform=" matrix(0.707107,0.707107,-0.707107,0.707107,853.821304,231.327334)">
				<text style="font-family: Helvetica; font-size: 6px;fill: rgb(0%,0%,0%); stroke:none;" transform="translate(0,0) scale(1,-1)" x="0" y="0">10000</text>
			</g>
			<g transform=" matrix(0.707107,0.707107,-0.707107,0.707107,94.041615,251.827897)">
				<text style="font-family: Helvetica; font-size: 10px;fill: rgb(0%,0%,0%); stroke:none;" transform="translate(0,0) scale(1,-1)" x="0" y="0">Gene_01934</text>
			</g>
			<g transform=" matrix(0.707107,0.707107,-0.707107,0.707107,135.890568,251.827897)">
				<text style="font-family: Helvetica; font-size: 10px;fill: rgb(0%,0%,0%); stroke:none;" transform="translate(0,0) scale(1,-1)" x="0" y="0">Gene_01935</text>
			</g>
			<g transform=" matrix(0.707107,0.707107,-0.707107,0.707107,181.810888,251.827897)">
				<text style="font-family: Helvetica; font-size: 10px;fill: rgb(0%,0%,0%); stroke:none;" transform="translate(0,0) scale(1,-1)" x="0" y="0">Gene_01936</text>
			</g>
			<g transform=" matrix(0.707107,-0.707107,0.707107,0.707107,232.624678,169.825647)">
				<text style="font-family: Helvetica; font-size: 10px;fill: rgb(0%,0%,0%); stroke:none;" transform="translate(0,0) scale(1,-1)" x="0" y="0">Gene_01937</text>
			</g>
			<g transform=" matrix(0.707107,0.707107,-0.707107,0.707107,291.62035,251.827897)">
				<text style="font-family: Helvetica; font-size: 10px;fill: rgb(0%,0%,0%); stroke:none;" transform="translate(0,0) scale(1,-1)" x="0" y="0">Gene_01938</text>
			</g>
			<g transform=" matrix(0.707107,-0.707107,0.707107,0.707107,346.62295,169.825647)">
				<text style="font-family: Helvetica; font-size: 10px;fill: rgb(0%,0%,0%); stroke:none;" transform="translate(0,0) scale(1,-1)" x="0" y="0">Gene_01939</text>
			</g>
			<g transform=" matrix(0.707107,-0.707107,0.707107,0.707107,421.551759,169.825647)">
				<text style="font-family: Helvetica; font-size: 10px;fill: rgb(0%,0%,0%); stroke:none;" transform="translate(0,0) scale(1,-1)" x="0" y="0">Gene_01940</text>
			</g>
			<g transform=" matrix(0.707107,0.707107,-0.707107,0.707107,507.676827,251.827897)">
				<text style="font-family: Helvetica; font-size: 16px;fill: rgb(0%,0%,100%); stroke:none;" transform="translate(0,0) scale(1,-1)" x="0" y="0">Gene_01941 (78.6)</text>
			</g>
			<g transform=" matrix(0.707107,0.707107,-0.707107,0.707107,576.146256,251.827897)">
				<text style="font-family: Helvetica; font-size: 10px;fill: rgb(0%,0%,0%); stroke:none;" transform="translate(0,0) scale(1,-1)" x="0" y="0">Gene_01942</text>
			</g>
			<g transform=" matrix(0.707107,0.707107,-0.707107,0.707107,642.305967,251.827897)">
				<text style="font-family: Helvetica; font-size: 10px;fill: rgb(0%,0%,0%); stroke:none;" transform="translate(0,0) scale(1,-1)" x="0" y="0">Gene_01943</text>
			</g>
			<g transform=" matrix(0.707107,0.707107,-0.707107,0.707107,708.426531,251.827897)">
				<text style="font-family: Helvetica; font-size: 10px;fill: rgb(0%,0%,0%); stroke:none;" transform="translate(0,0) scale(1,-1)" x="0" y="0">Gene_01944</text>
			</g>
			<g transform=" matrix(0.707107,0.707107,-0.707107,0.707107,776.034709,251.827897)">
				<text style="font-family: Helvetica; font-size: 10px;fill: rgb(0%,0%,0%); stroke:none;" transform="translate(0,0) scale(1,-1)" x="0" y="0">Gene_01945</text>
			</g>
			<g transform=" matrix(0.707107,0.707107,-0.707107,0.707107,867.87535,251.827897)">
				<text style="font-family: Helvetica; font-size: 10px;fill: rgb(0%,0%,0%); stroke:none;" transform="translate(0,0) scale(1,-1)" x="0" y="0">Gene_01946</text>
			</g>
			<g transform=" matrix(0.707107,0.707107,-0.707107,0.707107,946.288309,251.827897)">
				<text style="font-family: Helvetica; font-size: 10px;fill: rgb(0%,0%,0%); stroke:none;" transform="translate(0,0) scale(1,-1)" x="0" y="0">Gene_01947</text>
			</g>
			<g transform=" matrix(0.707107,0.707107,-0.707107,0.707107,1039.968894,251.827897)">
				<text style="font-family: Helvetica; font-size: 10px;fill: rgb(0%,0%,0%); stroke:none;" transform="translate(0,0) scale(1,-1)" x="0" y="0">Gene_01948</text>
			</g>
			<g transform=" matrix(0.707107,-0.707107,0.707107,0.707107,1146.21591,169.825647)">
				<text style="font-family: Helvetica; font-size: 10px;fill: rgb(0%,0%,0%); stroke:none;" transform="translate(0,0) scale(1,-1)" x="0" y="0">Gene_01949</text>
			</g>
			<g transform=" matrix(0.707107,0.707107,-0.707107,0.707107,1237.234448,251.827897)">
				<text style="font-family: Helvetica; font-size: 10px;fill: rgb(0%,0%,0%); stroke:none;" transform="translate(0,0) scale(1,-1)" x="0" y="0">Gene_01950</text>
			</g>
			<g transform=" matrix(0.707107,0.707107,-0.707107,0.707107,1305.194956,251.827897)">
				<text style="font-family: Helvetica; font-size: 10px;fill: rgb(0%,0%,0%); stroke:none;" transform="translate(0,0) scale(1,-1)" x="0" y="0">Gene_01951</text>
			</g>
			<g transform=" matrix(0.707107,-0.707107,0.707107,0.707107,95.920707,456.833521)">
				<text style="font-family: Helvetica; font-size: 16px;fill: rgb(0%,0%,100%); stroke:none;" transform="translate(0,0) scale(1,-1)" x="0" y="0">Gene_00855 (78.6)</text>
			</g>
			<g transform=" matrix(0.707107,0.707107,-0.707107,0.707107,145.403473,538.835771)">
				<text style="font-family: Helvetica; font-size: 10px;fill: rgb(0%,0%,0%); stroke:none;" transform="translate(0,0) scale(1,-1)" x="0" y="0">Gene_00856</text>
			</g>
			<g transform=" matrix(0.707107,0.707107,-0.707107,0.707107,192.498226,538.835771)">
				<text style="font-family: Helvetica; font-size: 10px;fill: rgb(0%,0%,0%); stroke:none;" transform="translate(0,0) scale(1,-1)" x="0" y="0">Gene_00857</text>
			</g>
			<g transform=" matrix(0.707107,0.707107,-0.707107,0.707107,237.322409,538.835771)">
				<text style="font-family: Helvetica; font-size: 10px;fill: rgb(0%,0%,0%); stroke:none;" transform="translate(0,0) scale(1,-1)" x="0" y="0">Gene_00858</text>
			</g>
			<g transform=" matrix(0.707107,0.707107,-0.707107,0.707107,273.494938,538.835771)">
				<text style="font-family: Helvetica; font-size: 10px;fill: rgb(0%,0%,0%); stroke:none;" transform="translate(0,0) scale(1,-1)" x="0" y="0">Gene_00859</text>
			</g>
			<g transform=" matrix(0.707107,0.707107,-0.707107,0.707107,348.345451,538.835771)">
				<text style="font-family: Helvetica; font-size: 10px;fill: rgb(0%,0%,0%); stroke:none;" transform="translate(0,0) scale(1,-1)" x="0" y="0">Gene_00860</text>
			</g>
			<g transform=" matrix(0.707107,0.707107,-0.707107,0.707107,425.309944,538.835771)">
				<text style="font-family: Helvetica; font-size: 10px;fill: rgb(0%,0%,0%); stroke:none;" transform="translate(0,0) scale(1,-1)" x="0" y="0">Gene_00861</text>
			</g>
			<g transform=" matrix(0.707107,0.707107,-0.707107,0.707107,493.348748,538.835771)">
				<text style="font-family: Helvetica; font-size: 10px;fill: rgb(0%,0%,0%); stroke:none;" transform="translate(0,0) scale(1,-1)" x="0" y="0">Gene_00862</text>
			</g>
			<g transform=" matrix(1,0,-0,1,70,169.825647)">
				<text style="font-family: Helvetica; font-size: 12px;fill: rgb(60%,60%,60%); stroke:none;" transform="translate(0,0) scale(1,-1)" x="0" y="0">megahit_96408 (left 5320bp, right 25984bp)</text>
			</g>
			<g transform=" matrix(1,0,-0,1,70,456.833521)">
				<text style="font-family: Helvetica; font-size: 12px;fill: rgb(60%,60%,60%); stroke:none;" transform="translate(0,0) scale(1,-1)" x="0" y="0">megahit_34854 (left 61bp, right 5470bp)</text>
			</g>
		</g>
	</g>
</svg>
