<?xml version="1.0" encoding="utf-8"?>
<!DOCTYPE svg
  PUBLIC '-//W3C//DTD SVG 1.0//EN'
  'http://www.w3.org/TR/2001/REC-SVG-20010904/DTD/svg10.dtd'>
<svg fill-rule="evenodd" height="708.6614173228346" preserveAspectRatio="xMinYMin meet" version="1.0" viewBox="0 0 1417 708" width="1417.3228346456692" xmlns="http://www.w3.org/2000/svg" xmlns:xlink="http://www.w3.org/1999/xlink">
	<title>...</title>
	<desc>...</desc>
	<clipPath id="clip">
		<rect height="708.6614173228346" width="1417.3228346456692" x="0" y="0"/>
	</clipPath>
	<g id="group" style="clip-path: url(#clip)" transform="scale(1,-1) translate(0,-708)">
		<g transform="">
			<polygon points="70.86614 169.8256, 455.0368 169.8256, 455.0368 251.8279, 70.86614 251.8279" style="stroke: rgb(96%,96%,96%); stroke-linecap: butt; stroke-width: 1; fill: rgb(96%,96%,96%); fill-rule: evenodd;"/>
			<polygon points="70.86614 456.8335, 1346.399 456.8335, 1346.399 538.8358, 70.86614 538.8358" style="stroke: rgb(96%,96%,96%); stroke-linecap: butt; stroke-width: 1; fill: rgb(96%,96%,96%); fill-rule: evenodd;"/>
			<polygon points="694.9763 456.8335, 836.941 456.8335, 315.0478 251.8279, 173.2574 251.8279" style="stroke: rgb(100%,42%,42%); stroke-linecap: round; stroke-width: 1; fill: rgb(100%,42%,42%); fill-rule: evenodd;"/>
			<polygon points="695.6155 456.8335, 713.8623 456.8335, 252.4624 251.8279, 234.2156 251.8279" style="stroke: rgb(100%,67%,67%); stroke-linecap: round; stroke-width: 1; fill: rgb(100%,67%,67%); fill-rule: evenodd;"/>
			<polygon points="99.68911 200.5765, 99.68911 210.8268, 83.5343 190.3262, 99.68911 169.8256, 99.68911 180.0759" style="stroke: rgb(56%,93%,56%); stroke-linecap: round; stroke-width: 1; fill: rgb(56%,93%,56%); fill-rule: evenodd;"/>
			<polygon points="105.2096 241.5776, 146.6294 241.5776, 146.6294 251.8279, 163.0299 231.3273, 146.6294 210.8268, 146.6294 221.0771, 105.2096 221.0771" style="stroke: rgb(67%,84%,90%); stroke-linecap: round; stroke-width: 1; fill: rgb(67%,84%,90%); fill-rule: evenodd;"/>
			<polygon points="314.6991 200.5765, 187.3334 200.5765, 187.3334 210.8268, 170.933 190.3262, 187.3334 169.8256, 187.3334 180.0759, 314.6991 180.0759" style="stroke: rgb(56%,93%,56%); stroke-linecap: round; stroke-width: 1; fill: rgb(56%,93%,56%); fill-rule: evenodd;"/>
			<polygon points="350.2048 241.5776, 366.1721 241.5776, 366.1721 251.8279, 382.5726 231.3273, 366.1721 210.8268, 366.1721 221.0771, 350.2048 221.0771" style="stroke: rgb(67%,84%,90%); stroke-linecap: round; stroke-width: 1; fill: rgb(67%,84%,90%); fill-rule: evenodd;"/>
			<polygon points="413.72 200.5765, 412.3966 200.5765, 412.3966 210.8268, 395.9962 190.3262, 412.3966 169.8256, 412.3966 180.0759, 413.72 180.0759" style="stroke: rgb(56%,93%,56%); stroke-linecap: round; stroke-width: 1; fill: rgb(56%,93%,56%); fill-rule: evenodd;"/>
			<polygon points="150.3036 487.5844, 87.26659 487.5844, 87.26659 497.8346, 70.86614 477.3341, 87.26659 456.8335, 87.26659 467.0838, 150.3036 467.0838" style="stroke: rgb(56%,93%,56%); stroke-linecap: round; stroke-width: 1; fill: rgb(56%,93%,56%); fill-rule: evenodd;"/>
			<polygon points="204.4629 487.5844, 178.0357 487.5844, 178.0357 497.8346, 161.6352 477.3341, 178.0357 456.8335, 178.0357 467.0838, 204.4629 467.0838" style="stroke: rgb(56%,93%,56%); stroke-linecap: round; stroke-width: 1; fill: rgb(56%,93%,56%); fill-rule: evenodd;"/>
			<polygon points="242.8742 487.5844, 221.8512 487.5844, 221.8512 497.8346, 205.4508 477.3341, 221.8512 456.8335, 221.8512 467.0838, 242.8742 467.0838" style="stroke: rgb(56%,93%,56%); stroke-linecap: round; stroke-width: 1; fill: rgb(56%,93%,56%); fill-rule: evenodd;"/>
			<polygon points="337.8853 487.5844, 260.553 487.5844, 260.553 497.8346, 244.1526 477.3341, 260.553 456.8335, 260.553 467.0838, 337.8853 467.0838" style="stroke: rgb(56%,93%,56%); stroke-linecap: round; stroke-width: 1; fill: rgb(56%,93%,56%); fill-rule: evenodd;"/>
			<polygon points="397.2746 487.5844, 356.0291 487.5844, 356.0291 497.8346, 339.6287 477.3341, 356.0291 456.8335, 356.0291 467.0838, 397.2746 467.0838" style="stroke: rgb(56%,93%,56%); stroke-linecap: round; stroke-width: 1; fill: rgb(56%,93%,56%); fill-rule: evenodd;"/>
			<polygon points="460.6735 487.5844, 415.5927 487.5844, 415.5927 497.8346, 399.1923 477.3341, 415.5927 456.8335, 415.5927 467.0838, 460.6735 467.0838" style="stroke: rgb(56%,93%,56%); stroke-linecap: round; stroke-width: 1; fill: rgb(56%,93%,56%); fill-rule: evenodd;"/>
			<polygon points="538.7163 487.5844, 477.074 487.5844, 477.074 497.8346, 460.6735 477.3341, 477.074 456.8335, 477.074 467.0838, 538.7163 467.0838" style="stroke: rgb(56%,93%,56%); stroke-linecap: round; stroke-width: 1; fill: rgb(56%,93%,56%); fill-rule: evenodd;"/>
			<polygon points="638.1439 487.5844, 551.572 487.5844, 551.572 497.8346, 535.1716 477.3341, 551.572 456.8335, 551.572 467.0838, 638.1439 467.0838" style="stroke: rgb(56%,93%,56%); stroke-linecap: round; stroke-width: 1; fill: rgb(56%,93%,56%); fill-rule: evenodd;"/>
			<polygon points="678.1823 487.5844, 662.9123 487.5844, 662.9123 497.8346, 646.5119 477.3341, 662.9123 456.8335, 662.9123 467.0838, 678.1823 467.0838" style="stroke: rgb(56%,93%,56%); stroke-linecap: round; stroke-width: 1; fill: rgb(56%,93%,56%); fill-rule: evenodd;"/>
			<polygon points="836.5924 487.5844, 709.0523 487.5844, 709.0523 497.8346, 692.6519 477.3341, 709.0523 456.8335, 709.0523 467.0838, 836.5924 467.0838" style="stroke: rgb(56%,93%,56%); stroke-linecap: round; stroke-width: 1; fill: rgb(56%,93%,56%); fill-rule: evenodd;"/>
			<polygon points="923.4681 487.5844, 870.1936 487.5844, 870.1936 497.8346, 853.7932 477.3341, 870.1936 456.8335, 870.1936 467.0838, 923.4681 467.0838" style="stroke: rgb(56%,93%,56%); stroke-linecap: round; stroke-width: 1; fill: rgb(56%,93%,56%); fill-rule: evenodd;"/>
			<polygon points="936.8335 528.5855, 982.263 528.5855, 982.263 538.8358, 998.6635 518.3352, 982.263 497.8346, 982.263 508.0849, 936.8335 508.0849" style="stroke: rgb(67%,84%,90%); stroke-linecap: round; stroke-width: 1; fill: rgb(67%,84%,90%); fill-rule: evenodd;"/>
			<polygon points="998.4891 528.5855, 1131.085 528.5855, 1131.085 538.8358, 1147.485 518.3352, 1131.085 497.8346, 1131.085 508.0849, 998.4891 508.0849" style="stroke: rgb(67%,84%,90%); stroke-linecap: round; stroke-width: 1; fill: rgb(67%,84%,90%); fill-rule: evenodd;"/>
			<polygon points="1317.982 487.5844, 1171.091 487.5844, 1171.091 497.8346, 1154.691 477.3341, 1171.091 456.8335, 1171.091 467.0838, 1317.982 467.0838" style="stroke: rgb(56%,93%,56%); stroke-linecap: round; stroke-width: 1; fill: rgb(56%,93%,56%); fill-rule: evenodd;"/>
			<polygon points="1344.771 487.5844, 1344.771 497.8346, 1331.58 477.3341, 1344.771 456.8335, 1344.771 467.0838" style="stroke: rgb(56%,93%,56%); stroke-linecap: round; stroke-width: 1; fill: rgb(56%,93%,56%); fill-rule: evenodd;"/>
			<path d="M 455.036755,169.825647 L 455.036755,251.827897 Z" style="stroke: rgb(0%,0%,0%); stroke-linecap: butt; stroke-width: 1;"/>
			<path d="M 70.866142,210.826772 L 455.036755,210.826772 Z" style="stroke: rgb(0%,0%,0%); stroke-linecap: butt; stroke-width: 1;"/>
			<path d="M 70.866142,169.825647 L 70.866142,251.827897 Z" style="stroke: rgb(0%,0%,0%); stroke-linecap: butt; stroke-width: 1;"/>
			<path d="M 1346.398582,456.833521 L 1346.398582,538.835771 Z" style="stroke: rgb(0%,0%,0%); stroke-linecap: butt; stroke-width: 1;"/>
			<path d="M 70.866142,497.834646 L 1346.398582,497.834646 Z" style="stroke: rgb(0%,0%,0%); stroke-linecap: butt; stroke-width: 1;"/>
			<path d="M 70.866142,456.833521 L 70.866142,538.835771 Z" style="stroke: rgb(0%,0%,0%); stroke-linecap: butt; stroke-width: 1;"/>
			<path d="M 651.974315,497.834646 L 651.974315,518.335208 Z" style="stroke: rgb(0%,0%,0%); stroke-linecap: butt; stroke-width: 1;"/>
			<path d="M 1233.082488,497.834646 L 1233.082488,518.335208 Z" style="stroke: rgb(0%,0%,0%); stroke-linecap: butt; stroke-width: 1;"/>
			<path d="M 651.974315,497.834646 L 651.974315,510.134983 Z" style="stroke: rgb(0%,0%,0%); stroke-linecap: butt; stroke-width: 1;"/>
			<path d="M 1233.082488,497.834646 L 1233.082488,510.134983 Z" style="stroke: rgb(0%,0%,0%); stroke-linecap: butt; stroke-width: 1;"/>
			<g transform=" matrix(0.707107,0.707107,-0.707107,0.707107,651.974315,518.335208)">
				<text style="font-family: Helvetica; font-size: 6px;fill: rgb(0%,0%,0%); stroke:none;" transform="translate(0,0) scale(1,-1)" x="0" y="0">10000</text>
			</g>
			<g transform=" matrix(0.707107,0.707107,-0.707107,0.707107,1233.082488,518.335208)">
				<text style="font-family: Helvetica; font-size: 6px;fill: rgb(0%,0%,0%); stroke:none;" transform="translate(0,0) scale(1,-1)" x="0" y="0">20000</text>
			</g>
			<g transform=" matrix(0.707107,-0.707107,0.707107,0.707107,91.611704,169.825647)">
				<text style="font-family: Helvetica; font-size: 10px;fill: rgb(0%,0%,0%); stroke:none;" transform="translate(0,0) scale(1,-1)" x="0" y="0">Gene_01143</text>
			</g>
			<g transform=" matrix(0.707107,0.707107,-0.707107,0.707107,134.119766,251.827897)">
				<text style="font-family: Helvetica; font-size: 10px;fill: rgb(0%,0%,0%); stroke:none;" transform="translate(0,0) scale(1,-1)" x="0" y="0">Gene_01144</text>
			</g>
			<g transform=" matrix(0.707107,-0.707107,0.707107,0.707107,242.81605,169.825647)">
				<text style="font-family: Helvetica; font-size: 16px;fill: rgb(0%,0%,100%); stroke:none;" transform="translate(0,0) scale(1,-1)" x="0" y="0">Gene_01145 (78.9)</text>
			</g>
			<g transform=" matrix(0.707107,0.707107,-0.707107,0.707107,366.388703,251.827897)">
				<text style="font-family: Helvetica; font-size: 10px;fill: rgb(0%,0%,0%); stroke:none;" transform="translate(0,0) scale(1,-1)" x="0" y="0">Gene_01146</text>
			</g>
			<g transform=" matrix(0.707107,-0.707107,0.707107,0.707107,404.858064,169.825647)">
				<text style="font-family: Helvetica; font-size: 10px;fill: rgb(0%,0%,0%); stroke:none;" transform="translate(0,0) scale(1,-1)" x="0" y="0">Gene_01147</text>
			</g>
			<g transform=" matrix(0.707107,-0.707107,0.707107,0.707107,110.584885,456.833521)">
				<text style="font-family: Helvetica; font-size: 10px;fill: rgb(0%,0%,0%); stroke:none;" transform="translate(0,0) scale(1,-1)" x="0" y="0">Gene_00623</text>
			</g>
			<g transform=" matrix(0.707107,-0.707107,0.707107,0.707107,183.049075,456.833521)">
				<text style="font-family: Helvetica; font-size: 10px;fill: rgb(0%,0%,0%); stroke:none;" transform="translate(0,0) scale(1,-1)" x="0" y="0">Gene_00624</text>
			</g>
			<g transform=" matrix(0.707107,-0.707107,0.707107,0.707107,224.162478,456.833521)">
				<text style="font-family: Helvetica; font-size: 10px;fill: rgb(0%,0%,0%); stroke:none;" transform="translate(0,0) scale(1,-1)" x="0" y="0">Gene_00625</text>
			</g>
			<g transform=" matrix(0.707107,-0.707107,0.707107,0.707107,291.018973,456.833521)">
				<text style="font-family: Helvetica; font-size: 10px;fill: rgb(0%,0%,0%); stroke:none;" transform="translate(0,0) scale(1,-1)" x="0" y="0">Gene_00626</text>
			</g>
			<g transform=" matrix(0.707107,-0.707107,0.707107,0.707107,368.451637,456.833521)">
				<text style="font-family: Helvetica; font-size: 10px;fill: rgb(0%,0%,0%); stroke:none;" transform="translate(0,0) scale(1,-1)" x="0" y="0">Gene_00627</text>
			</g>
			<g transform=" matrix(0.707107,-0.707107,0.707107,0.707107,429.932882,456.833521)">
				<text style="font-family: Helvetica; font-size: 10px;fill: rgb(0%,0%,0%); stroke:none;" transform="translate(0,0) scale(1,-1)" x="0" y="0">Gene_00628</text>
			</g>
			<g transform=" matrix(0.707107,-0.707107,0.707107,0.707107,499.694918,456.833521)">
				<text style="font-family: Helvetica; font-size: 10px;fill: rgb(0%,0%,0%); stroke:none;" transform="translate(0,0) scale(1,-1)" x="0" y="0">Gene_00629</text>
			</g>
			<g transform=" matrix(0.707107,-0.707107,0.707107,0.707107,586.657756,456.833521)">
				<text style="font-family: Helvetica; font-size: 10px;fill: rgb(0%,0%,0%); stroke:none;" transform="translate(0,0) scale(1,-1)" x="0" y="0">Gene_00630</text>
			</g>
			<g transform=" matrix(0.707107,-0.707107,0.707107,0.707107,662.347096,456.833521)">
				<text style="font-family: Helvetica; font-size: 10px;fill: rgb(0%,0%,0%); stroke:none;" transform="translate(0,0) scale(1,-1)" x="0" y="0">Gene_00631</text>
			</g>
			<g transform=" matrix(0.707107,-0.707107,0.707107,0.707107,764.622134,456.833521)">
				<text style="font-family: Helvetica; font-size: 16px;fill: rgb(0%,0%,100%); stroke:none;" transform="translate(0,0) scale(1,-1)" x="0" y="0">Gene_00632 (78.9)</text>
			</g>
			<g transform=" matrix(0.707107,-0.707107,0.707107,0.707107,888.630619,456.833521)">
				<text style="font-family: Helvetica; font-size: 10px;fill: rgb(0%,0%,0%); stroke:none;" transform="translate(0,0) scale(1,-1)" x="0" y="0">Gene_00633</text>
			</g>
			<g transform=" matrix(0.707107,0.707107,-0.707107,0.707107,967.748496,538.835771)">
				<text style="font-family: Helvetica; font-size: 10px;fill: rgb(0%,0%,0%); stroke:none;" transform="translate(0,0) scale(1,-1)" x="0" y="0">Gene_00634</text>
			</g>
			<g transform=" matrix(0.707107,0.707107,-0.707107,0.707107,1072.987187,538.835771)">
				<text style="font-family: Helvetica; font-size: 10px;fill: rgb(0%,0%,0%); stroke:none;" transform="translate(0,0) scale(1,-1)" x="0" y="0">Gene_00635</text>
			</g>
			<g transform=" matrix(0.707107,-0.707107,0.707107,0.707107,1236.336694,456.833521)">
				<text style="font-family: Helvetica; font-size: 10px;fill: rgb(0%,0%,0%); stroke:none;" transform="translate(0,0) scale(1,-1)" x="0" y="0">Gene_00636</text>
			</g>
			<g transform=" matrix(0.707107,-0.707107,0.707107,0.707107,1338.175901,456.833521)">
				<text style="font-family: Helvetica; font-size: 10px;fill: rgb(0%,0%,0%); stroke:none;" transform="translate(0,0) scale(1,-1)" x="0" y="0">Gene_00637</text>
			</g>
			<g transform=" matrix(1,0,-0,1,70,169.825647)">
				<text style="font-family: Helvetica; font-size: 12px;fill: rgb(60%,60%,60%); stroke:none;" transform="translate(0,0) scale(1,-1)" x="0" y="0">megahit_96127 (left 1722bp, right 2415bp)</text>
			</g>
			<g transform=" matrix(1,0,-0,1,70,456.833521)">
				<text style="font-family: Helvetica; font-size: 12px;fill: rgb(60%,60%,60%); stroke:none;" transform="translate(0,0) scale(1,-1)" x="0" y="0">megahit_60826 (left 59959bp, right 8773bp)</text>
			</g>
		</g>
	</g>
</svg>
