<?xml version="1.0" encoding="utf-8"?>
<!DOCTYPE svg
  PUBLIC '-//W3C//DTD SVG 1.0//EN'
  'http://www.w3.org/TR/2001/REC-SVG-20010904/DTD/svg10.dtd'>
<svg fill-rule="evenodd" height="708.6614173228346" preserveAspectRatio="xMinYMin meet" version="1.0" viewBox="0 0 1417 708" width="1417.3228346456692" xmlns="http://www.w3.org/2000/svg" xmlns:xlink="http://www.w3.org/1999/xlink">
	<title>...</title>
	<desc>...</desc>
	<clipPath id="clip">
		<rect height="708.6614173228346" width="1417.3228346456692" x="0" y="0"/>
	</clipPath>
	<g id="group" style="clip-path: url(#clip)" transform="scale(1,-1) translate(0,-708)">
		<g transform="">
			<polygon points="70.86614 169.8256, 1327.479 169.8256, 1327.479 251.8279, 70.86614 251.8279" style="stroke: rgb(96%,96%,96%); stroke-linecap: butt; stroke-width: 1; fill: rgb(96%,96%,96%); fill-rule: evenodd;"/>
			<polygon points="70.86614 456.8335, 1346.34 456.8335, 1346.34 538.8358, 70.86614 538.8358" style="stroke: rgb(96%,96%,96%); stroke-linecap: butt; stroke-width: 1; fill: rgb(96%,96%,96%); fill-rule: evenodd;"/>
			<polygon points="788.7299 456.8335, 1120.484 456.8335, 746.3235 251.8279, 1081.124 251.8279" style="stroke: rgb(100%,47%,47%); stroke-linecap: round; stroke-width: 1; fill: rgb(100%,47%,47%); fill-rule: evenodd;"/>
			<polygon points="512.5023 456.8335, 679.7852 456.8335, 1164.882 251.8279, 1327.479 251.8279" style="stroke: rgb(100%,33%,33%); stroke-linecap: round; stroke-width: 1; fill: rgb(100%,33%,33%); fill-rule: evenodd;"/>
			<polygon points="1294.679 456.8335, 1346.222 456.8335, 686.931 251.8279, 738.4748 251.8279" style="stroke: rgb(100%,12%,12%); stroke-linecap: round; stroke-width: 1; fill: rgb(100%,12%,12%); fill-rule: evenodd;"/>
			<polygon points="705.5571 456.8335, 769.7525 456.8335, 1088.972 251.8279, 1153.168 251.8279" style="stroke: rgb(100%,43%,43%); stroke-linecap: round; stroke-width: 1; fill: rgb(100%,43%,43%); fill-rule: evenodd;"/>
			<polygon points="70.86614 241.5776, 225.1458 241.5776, 225.1458 251.8279, 241.5462 231.3273, 225.1458 210.8268, 225.1458 221.0771, 70.86614 221.0771" style="stroke: rgb(67%,84%,90%); stroke-linecap: round; stroke-width: 1; fill: rgb(67%,84%,90%); fill-rule: evenodd;"/>
			<polygon points="339.7136 200.5765, 269.7783 200.5765, 269.7783 210.8268, 253.3779 190.3262, 269.7783 169.8256, 269.7783 180.0759, 339.7136 180.0759" style="stroke: rgb(56%,93%,56%); stroke-linecap: round; stroke-width: 1; fill: rgb(56%,93%,56%); fill-rule: evenodd;"/>
			<polygon points="440.9268 200.5765, 362.9085 200.5765, 362.9085 210.8268, 346.508 190.3262, 362.9085 169.8256, 362.9085 180.0759, 440.9268 180.0759" style="stroke: rgb(56%,93%,56%); stroke-linecap: round; stroke-width: 1; fill: rgb(56%,93%,56%); fill-rule: evenodd;"/>
			<polygon points="494.2277 200.5765, 458.733 200.5765, 458.733 210.8268, 442.3325 190.3262, 458.733 169.8256, 458.733 180.0759, 494.2277 180.0759" style="stroke: rgb(56%,93%,56%); stroke-linecap: round; stroke-width: 1; fill: rgb(56%,93%,56%); fill-rule: evenodd;"/>
			<polygon points="500.7878 241.5776, 508.8707 241.5776, 508.8707 251.8279, 525.2711 231.3273, 508.8707 210.8268, 508.8707 221.0771, 500.7878 221.0771" style="stroke: rgb(67%,84%,90%); stroke-linecap: round; stroke-width: 1; fill: rgb(67%,84%,90%); fill-rule: evenodd;"/>
			<polygon points="527.2626 241.5776, 571.1917 241.5776, 571.1917 251.8279, 587.5922 231.3273, 571.1917 210.8268, 571.1917 221.0771, 527.2626 221.0771" style="stroke: rgb(67%,84%,90%); stroke-linecap: round; stroke-width: 1; fill: rgb(67%,84%,90%); fill-rule: evenodd;"/>
			<polygon points="594.2694 241.5776, 627.6556 241.5776, 627.6556 251.8279, 644.056 231.3273, 627.6556 210.8268, 627.6556 221.0771, 594.2694 221.0771" style="stroke: rgb(67%,84%,90%); stroke-linecap: round; stroke-width: 1; fill: rgb(67%,84%,90%); fill-rule: evenodd;"/>
			<polygon points="654.9505 241.5776, 717.1543 241.5776, 717.1543 251.8279, 733.5547 231.3273, 717.1543 210.8268, 717.1543 221.0771, 654.9505 221.0771" style="stroke: rgb(67%,84%,90%); stroke-linecap: round; stroke-width: 1; fill: rgb(67%,84%,90%); fill-rule: evenodd;"/>
			<polygon points="742.2234 241.5776, 936.918 241.5776, 936.918 251.8279, 953.3185 231.3273, 936.918 210.8268, 936.918 221.0771, 742.2234 221.0771" style="stroke: rgb(67%,84%,90%); stroke-linecap: round; stroke-width: 1; fill: rgb(67%,84%,90%); fill-rule: evenodd;"/>
			<polygon points="975.9275 241.5776, 1066.597 241.5776, 1066.597 251.8279, 1082.998 231.3273, 1066.597 210.8268, 1066.597 221.0771, 975.9275 221.0771" style="stroke: rgb(67%,84%,90%); stroke-linecap: round; stroke-width: 1; fill: rgb(67%,84%,90%); fill-rule: evenodd;"/>
			<polygon points="1088.972 241.5776, 1139.93 241.5776, 1139.93 251.8279, 1156.331 231.3273, 1139.93 210.8268, 1139.93 221.0771, 1088.972 221.0771" style="stroke: rgb(67%,84%,90%); stroke-linecap: round; stroke-width: 1; fill: rgb(67%,84%,90%); fill-rule: evenodd;"/>
			<polygon points="1227.672 200.5765, 1181.283 200.5765, 1181.283 210.8268, 1164.882 190.3262, 1181.283 169.8256, 1181.283 180.0759, 1227.672 180.0759" style="stroke: rgb(56%,93%,56%); stroke-linecap: round; stroke-width: 1; fill: rgb(56%,93%,56%); fill-rule: evenodd;"/>
			<polygon points="1306.979 200.5765, 1259.887 200.5765, 1259.887 210.8268, 1243.486 190.3262, 1259.887 169.8256, 1259.887 180.0759, 1306.979 180.0759" style="stroke: rgb(56%,93%,56%); stroke-linecap: round; stroke-width: 1; fill: rgb(56%,93%,56%); fill-rule: evenodd;"/>
			<polygon points="124.9871 528.5855, 232.5259 528.5855, 232.5259 538.8358, 248.9264 518.3352, 232.5259 497.8346, 232.5259 508.0849, 124.9871 508.0849" style="stroke: rgb(67%,84%,90%); stroke-linecap: round; stroke-width: 1; fill: rgb(67%,84%,90%); fill-rule: evenodd;"/>
			<polygon points="437.2953 487.5844, 372.2801 487.5844, 372.2801 497.8346, 355.8796 477.3341, 372.2801 456.8335, 372.2801 467.0838, 437.2953 467.0838" style="stroke: rgb(56%,93%,56%); stroke-linecap: round; stroke-width: 1; fill: rgb(56%,93%,56%); fill-rule: evenodd;"/>
			<polygon points="473.9617 528.5855, 502.7791 528.5855, 502.7791 538.8358, 519.1796 518.3352, 502.7791 497.8346, 502.7791 508.0849, 473.9617 508.0849" style="stroke: rgb(67%,84%,90%); stroke-linecap: round; stroke-width: 1; fill: rgb(67%,84%,90%); fill-rule: evenodd;"/>
			<polygon points="532.5341 528.5855, 579.6262 528.5855, 579.6262 538.8358, 596.0266 518.3352, 579.6262 497.8346, 579.6262 508.0849, 532.5341 508.0849" style="stroke: rgb(67%,84%,90%); stroke-linecap: round; stroke-width: 1; fill: rgb(67%,84%,90%); fill-rule: evenodd;"/>
			<polygon points="616.9956 528.5855, 663.3848 528.5855, 663.3848 538.8358, 679.7852 518.3352, 663.3848 497.8346, 663.3848 508.0849, 616.9956 508.0849" style="stroke: rgb(67%,84%,90%); stroke-linecap: round; stroke-width: 1; fill: rgb(67%,84%,90%); fill-rule: evenodd;"/>
			<polygon points="769.7525 487.5844, 719.1461 487.5844, 719.1461 497.8346, 702.7456 477.3341, 719.1461 456.8335, 719.1461 467.0838, 769.7525 467.0838" style="stroke: rgb(56%,93%,56%); stroke-linecap: round; stroke-width: 1; fill: rgb(56%,93%,56%); fill-rule: evenodd;"/>
			<polygon points="899.1976 487.5844, 803.6075 487.5844, 803.6075 497.8346, 787.2071 477.3341, 803.6075 456.8335, 803.6075 467.0838, 899.1976 467.0838" style="stroke: rgb(56%,93%,56%); stroke-linecap: round; stroke-width: 1; fill: rgb(56%,93%,56%); fill-rule: evenodd;"/>
			<polygon points="1124.584 487.5844, 934.1069 487.5844, 934.1069 497.8346, 917.7064 477.3341, 934.1069 456.8335, 934.1069 467.0838, 1124.584 467.0838" style="stroke: rgb(56%,93%,56%); stroke-linecap: round; stroke-width: 1; fill: rgb(56%,93%,56%); fill-rule: evenodd;"/>
			<polygon points="1148.013 528.5855, 1273.124 528.5855, 1273.124 538.8358, 1289.524 518.3352, 1273.124 497.8346, 1273.124 508.0849, 1148.013 508.0849" style="stroke: rgb(67%,84%,90%); stroke-linecap: round; stroke-width: 1; fill: rgb(67%,84%,90%); fill-rule: evenodd;"/>
			<polygon points="1338.842 487.5844, 1315.999 487.5844, 1315.999 497.8346, 1299.599 477.3341, 1315.999 456.8335, 1315.999 467.0838, 1338.842 467.0838" style="stroke: rgb(56%,93%,56%); stroke-linecap: round; stroke-width: 1; fill: rgb(56%,93%,56%); fill-rule: evenodd;"/>
			<path d="M 1327.479223,169.825647 L 1327.479223,251.827897 Z" style="stroke: rgb(0%,0%,0%); stroke-linecap: butt; stroke-width: 1;"/>
			<path d="M 70.866142,210.826772 L 1327.479223,210.826772 Z" style="stroke: rgb(0%,0%,0%); stroke-linecap: butt; stroke-width: 1;"/>
			<path d="M 70.866142,169.825647 L 70.866142,251.827897 Z" style="stroke: rgb(0%,0%,0%); stroke-linecap: butt; stroke-width: 1;"/>
			<path d="M 1242.314898,210.826772 L 1242.314898,231.327334 Z" style="stroke: rgb(0%,0%,0%); stroke-linecap: butt; stroke-width: 1;"/>
			<path d="M 1242.314898,210.826772 L 1242.314898,223.127109 Z" style="stroke: rgb(0%,0%,0%); stroke-linecap: butt; stroke-width: 1;"/>
			<path d="M 1346.339548,456.833521 L 1346.339548,538.835771 Z" style="stroke: rgb(0%,0%,0%); stroke-linecap: butt; stroke-width: 1;"/>
			<path d="M 70.866142,497.834646 L 1346.339548,497.834646 Z" style="stroke: rgb(0%,0%,0%); stroke-linecap: butt; stroke-width: 1;"/>
			<path d="M 70.866142,456.833521 L 70.866142,538.835771 Z" style="stroke: rgb(0%,0%,0%); stroke-linecap: butt; stroke-width: 1;"/>
			<path d="M 1242.314898,497.834646 L 1242.314898,518.335208 Z" style="stroke: rgb(0%,0%,0%); stroke-linecap: butt; stroke-width: 1;"/>
			<path d="M 1242.314898,497.834646 L 1242.314898,510.134983 Z" style="stroke: rgb(0%,0%,0%); stroke-linecap: butt; stroke-width: 1;"/>
			<g transform=" matrix(0.707107,0.707107,-0.707107,0.707107,1242.314898,231.327334)">
				<text style="font-family: Helvetica; font-size: 6px;fill: rgb(0%,0%,0%); stroke:none;" transform="translate(0,0) scale(1,-1)" x="0" y="0">10000</text>
			</g>
			<g transform=" matrix(0.707107,0.707107,-0.707107,0.707107,1242.314898,518.335208)">
				<text style="font-family: Helvetica; font-size: 6px;fill: rgb(0%,0%,0%); stroke:none;" transform="translate(0,0) scale(1,-1)" x="0" y="0">10000</text>
			</g>
			<g transform=" matrix(0.707107,0.707107,-0.707107,0.707107,156.206184,251.827897)">
				<text style="font-family: Helvetica; font-size: 10px;fill: rgb(0%,0%,0%); stroke:none;" transform="translate(0,0) scale(1,-1)" x="0" y="0">Gene_01074</text>
			</g>
			<g transform=" matrix(0.707107,-0.707107,0.707107,0.707107,296.545745,169.825647)">
				<text style="font-family: Helvetica; font-size: 10px;fill: rgb(0%,0%,0%); stroke:none;" transform="translate(0,0) scale(1,-1)" x="0" y="0">Gene_01075</text>
			</g>
			<g transform=" matrix(0.707107,-0.707107,0.707107,0.707107,393.717419,169.825647)">
				<text style="font-family: Helvetica; font-size: 10px;fill: rgb(0%,0%,0%); stroke:none;" transform="translate(0,0) scale(1,-1)" x="0" y="0">Gene_01076</text>
			</g>
			<g transform=" matrix(0.707107,-0.707107,0.707107,0.707107,468.280132,169.825647)">
				<text style="font-family: Helvetica; font-size: 10px;fill: rgb(0%,0%,0%); stroke:none;" transform="translate(0,0) scale(1,-1)" x="0" y="0">Gene_01077</text>
			</g>
			<g transform=" matrix(0.707107,0.707107,-0.707107,0.707107,513.029475,251.827897)">
				<text style="font-family: Helvetica; font-size: 10px;fill: rgb(0%,0%,0%); stroke:none;" transform="translate(0,0) scale(1,-1)" x="0" y="0">Gene_01078</text>
			</g>
			<g transform=" matrix(0.707107,0.707107,-0.707107,0.707107,557.427383,251.827897)">
				<text style="font-family: Helvetica; font-size: 10px;fill: rgb(0%,0%,0%); stroke:none;" transform="translate(0,0) scale(1,-1)" x="0" y="0">Gene_01079</text>
			</g>
			<g transform=" matrix(0.707107,0.707107,-0.707107,0.707107,619.162732,251.827897)">
				<text style="font-family: Helvetica; font-size: 10px;fill: rgb(0%,0%,0%); stroke:none;" transform="translate(0,0) scale(1,-1)" x="0" y="0">Gene_01080</text>
			</g>
			<g transform=" matrix(0.707107,0.707107,-0.707107,0.707107,694.252598,251.827897)">
				<text style="font-family: Helvetica; font-size: 10px;fill: rgb(0%,0%,0%); stroke:none;" transform="translate(0,0) scale(1,-1)" x="0" y="0">Gene_01081</text>
			</g>
			<g transform=" matrix(0.707107,0.707107,-0.707107,0.707107,847.770957,251.827897)">
				<text style="font-family: Helvetica; font-size: 10px;fill: rgb(0%,0%,0%); stroke:none;" transform="translate(0,0) scale(1,-1)" x="0" y="0">Gene_01082</text>
			</g>
			<g transform=" matrix(0.707107,0.707107,-0.707107,0.707107,1029.462659,251.827897)">
				<text style="font-family: Helvetica; font-size: 10px;fill: rgb(0%,0%,0%); stroke:none;" transform="translate(0,0) scale(1,-1)" x="0" y="0">Gene_01083</text>
			</g>
			<g transform=" matrix(0.707107,0.707107,-0.707107,0.707107,1122.651408,251.827897)">
				<text style="font-family: Helvetica; font-size: 10px;fill: rgb(0%,0%,0%); stroke:none;" transform="translate(0,0) scale(1,-1)" x="0" y="0">Gene_01084</text>
			</g>
			<g transform=" matrix(0.707107,-0.707107,0.707107,0.707107,1196.276962,169.825647)">
				<text style="font-family: Helvetica; font-size: 10px;fill: rgb(0%,0%,0%); stroke:none;" transform="translate(0,0) scale(1,-1)" x="0" y="0">Gene_01085</text>
			</g>
			<g transform=" matrix(0.707107,-0.707107,0.707107,0.707107,1275.232609,169.825647)">
				<text style="font-family: Helvetica; font-size: 16px;fill: rgb(0%,0%,100%); stroke:none;" transform="translate(0,0) scale(1,-1)" x="0" y="0">Gene_01086 (90.2)</text>
			</g>
			<g transform=" matrix(0.707107,0.707107,-0.707107,0.707107,186.956714,538.835771)">
				<text style="font-family: Helvetica; font-size: 10px;fill: rgb(0%,0%,0%); stroke:none;" transform="translate(0,0) scale(1,-1)" x="0" y="0">Gene_01434</text>
			</g>
			<g transform=" matrix(0.707107,-0.707107,0.707107,0.707107,396.587469,456.833521)">
				<text style="font-family: Helvetica; font-size: 10px;fill: rgb(0%,0%,0%); stroke:none;" transform="translate(0,0) scale(1,-1)" x="0" y="0">Gene_01435</text>
			</g>
			<g transform=" matrix(0.707107,0.707107,-0.707107,0.707107,496.57062,538.835771)">
				<text style="font-family: Helvetica; font-size: 10px;fill: rgb(0%,0%,0%); stroke:none;" transform="translate(0,0) scale(1,-1)" x="0" y="0">Gene_01436</text>
			</g>
			<g transform=" matrix(0.707107,0.707107,-0.707107,0.707107,564.280358,538.835771)">
				<text style="font-family: Helvetica; font-size: 16px;fill: rgb(0%,0%,100%); stroke:none;" transform="translate(0,0) scale(1,-1)" x="0" y="0">Gene_01437 (90.2)</text>
			</g>
			<g transform=" matrix(0.707107,0.707107,-0.707107,0.707107,648.390379,538.835771)">
				<text style="font-family: Helvetica; font-size: 10px;fill: rgb(0%,0%,0%); stroke:none;" transform="translate(0,0) scale(1,-1)" x="0" y="0">Gene_01438</text>
			</g>
			<g transform=" matrix(0.707107,-0.707107,0.707107,0.707107,736.249036,456.833521)">
				<text style="font-family: Helvetica; font-size: 10px;fill: rgb(0%,0%,0%); stroke:none;" transform="translate(0,0) scale(1,-1)" x="0" y="0">Gene_01439</text>
			</g>
			<g transform=" matrix(0.707107,-0.707107,0.707107,0.707107,843.202307,456.833521)">
				<text style="font-family: Helvetica; font-size: 10px;fill: rgb(0%,0%,0%); stroke:none;" transform="translate(0,0) scale(1,-1)" x="0" y="0">Gene_01440</text>
			</g>
			<g transform=" matrix(0.707107,-0.707107,0.707107,0.707107,1021.145373,456.833521)">
				<text style="font-family: Helvetica; font-size: 10px;fill: rgb(0%,0%,0%); stroke:none;" transform="translate(0,0) scale(1,-1)" x="0" y="0">Gene_01441</text>
			</g>
			<g transform=" matrix(0.707107,0.707107,-0.707107,0.707107,1218.768778,538.835771)">
				<text style="font-family: Helvetica; font-size: 10px;fill: rgb(0%,0%,0%); stroke:none;" transform="translate(0,0) scale(1,-1)" x="0" y="0">Gene_01442</text>
			</g>
			<g transform=" matrix(0.707107,-0.707107,0.707107,0.707107,1319.220509,456.833521)">
				<text style="font-family: Helvetica; font-size: 10px;fill: rgb(0%,0%,0%); stroke:none;" transform="translate(0,0) scale(1,-1)" x="0" y="0">Gene_01443</text>
			</g>
			<g transform=" matrix(1,0,-0,1,70,169.825647)">
				<text style="font-family: Helvetica; font-size: 12px;fill: rgb(60%,60%,60%); stroke:none;" transform="translate(0,0) scale(1,-1)" x="0" y="0">megahit_30466 (left 12952bp, right 175bp)</text>
			</g>
			<g transform=" matrix(1,0,-0,1,70,456.833521)">
				<text style="font-family: Helvetica; font-size: 12px;fill: rgb(60%,60%,60%); stroke:none;" transform="translate(0,0) scale(1,-1)" x="0" y="0">megahit_62916 (left 3941bp, right 6405bp)</text>
			</g>
		</g>
	</g>
</svg>
