<?xml version="1.0" encoding="utf-8"?>
<!DOCTYPE svg
  PUBLIC '-//W3C//DTD SVG 1.0//EN'
  'http://www.w3.org/TR/2001/REC-SVG-20010904/DTD/svg10.dtd'>
<svg fill-rule="evenodd" height="708.6614173228346" preserveAspectRatio="xMinYMin meet" version="1.0" viewBox="0 0 1417 708" width="1417.3228346456692" xmlns="http://www.w3.org/2000/svg" xmlns:xlink="http://www.w3.org/1999/xlink">
	<title>...</title>
	<desc>...</desc>
	<clipPath id="clip">
		<rect height="708.6614173228346" width="1417.3228346456692" x="0" y="0"/>
	</clipPath>
	<g id="group" style="clip-path: url(#clip)" transform="scale(1,-1) translate(0,-708)">
		<g transform="">
			<polygon points="70.86614 169.8256, 1346.352 169.8256, 1346.352 251.8279, 70.86614 251.8279" style="stroke: rgb(96%,96%,96%); stroke-linecap: butt; stroke-width: 1; fill: rgb(96%,96%,96%); fill-rule: evenodd;"/>
			<polygon points="70.86614 456.8335, 248.5013 456.8335, 248.5013 538.8358, 70.86614 538.8358" style="stroke: rgb(96%,96%,96%); stroke-linecap: butt; stroke-width: 1; fill: rgb(96%,96%,96%); fill-rule: evenodd;"/>
			<polygon points="111.4144 456.8335, 166.6694 456.8335, 1278.491 251.8279, 1223.131 251.8279" style="stroke: rgb(100%,53%,53%); stroke-linecap: round; stroke-width: 1; fill: rgb(100%,53%,53%); fill-rule: evenodd;"/>
			<polygon points="70.86614 241.5776, 173.4844 241.5776, 173.4844 251.8279, 189.8848 231.3273, 173.4844 210.8268, 173.4844 221.0771, 70.86614 221.0771" style="stroke: rgb(67%,84%,90%); stroke-linecap: round; stroke-width: 1; fill: rgb(67%,84%,90%); fill-rule: evenodd;"/>
			<polygon points="295.1423 200.5765, 236.0137 200.5765, 236.0137 210.8268, 219.6133 190.3262, 236.0137 169.8256, 236.0137 180.0759, 295.1423 180.0759" style="stroke: rgb(56%,93%,56%); stroke-linecap: round; stroke-width: 1; fill: rgb(56%,93%,56%); fill-rule: evenodd;"/>
			<polygon points="482.2318 200.5765, 317.2153 200.5765, 317.2153 210.8268, 300.8149 190.3262, 317.2153 169.8256, 317.2153 180.0759, 482.2318 180.0759" style="stroke: rgb(56%,93%,56%); stroke-linecap: round; stroke-width: 1; fill: rgb(56%,93%,56%); fill-rule: evenodd;"/>
			<polygon points="515.7419 241.5776, 720.1511 241.5776, 720.1511 251.8279, 736.5515 231.3273, 720.1511 210.8268, 720.1511 221.0771, 515.7419 221.0771" style="stroke: rgb(67%,84%,90%); stroke-linecap: round; stroke-width: 1; fill: rgb(67%,84%,90%); fill-rule: evenodd;"/>
			<polygon points="736.5515 241.5776, 796.6256 241.5776, 796.6256 251.8279, 813.026 231.3273, 796.6256 210.8268, 796.6256 221.0771, 736.5515 221.0771" style="stroke: rgb(67%,84%,90%); stroke-linecap: round; stroke-width: 1; fill: rgb(67%,84%,90%); fill-rule: evenodd;"/>
			<polygon points="811.6604 241.5776, 928.46 241.5776, 928.46 251.8279, 944.8605 231.3273, 928.46 210.8268, 928.46 221.0771, 811.6604 221.0771" style="stroke: rgb(67%,84%,90%); stroke-linecap: round; stroke-width: 1; fill: rgb(67%,84%,90%); fill-rule: evenodd;"/>
			<polygon points="974.5889 241.5776, 1008.506 241.5776, 1008.506 251.8279, 1024.907 231.3273, 1008.506 210.8268, 1008.506 221.0771, 974.5889 221.0771" style="stroke: rgb(67%,84%,90%); stroke-linecap: round; stroke-width: 1; fill: rgb(67%,84%,90%); fill-rule: evenodd;"/>
			<polygon points="1024.907 241.5776, 1088.447 241.5776, 1088.447 251.8279, 1104.848 231.3273, 1088.447 210.8268, 1088.447 221.0771, 1024.907 221.0771" style="stroke: rgb(67%,84%,90%); stroke-linecap: round; stroke-width: 1; fill: rgb(67%,84%,90%); fill-rule: evenodd;"/>
			<polygon points="1102.852 241.5776, 1153.787 241.5776, 1153.787 251.8279, 1170.187 231.3273, 1153.787 210.8268, 1153.787 221.0771, 1102.852 221.0771" style="stroke: rgb(67%,84%,90%); stroke-linecap: round; stroke-width: 1; fill: rgb(67%,84%,90%); fill-rule: evenodd;"/>
			<polygon points="1215.568 200.5765, 1207.492 200.5765, 1207.492 210.8268, 1191.092 190.3262, 1207.492 169.8256, 1207.492 180.0759, 1215.568 180.0759" style="stroke: rgb(56%,93%,56%); stroke-linecap: round; stroke-width: 1; fill: rgb(56%,93%,56%); fill-rule: evenodd;"/>
			<polygon points="1225.022 241.5776, 1264.612 241.5776, 1264.612 251.8279, 1281.012 231.3273, 1264.612 210.8268, 1264.612 221.0771, 1225.022 221.0771" style="stroke: rgb(67%,84%,90%); stroke-linecap: round; stroke-width: 1; fill: rgb(67%,84%,90%); fill-rule: evenodd;"/>
			<polygon points="113.2002 528.5855, 151.8446 528.5855, 151.8446 538.8358, 168.2451 518.3352, 151.8446 497.8346, 151.8446 508.0849, 113.2002 508.0849" style="stroke: rgb(67%,84%,90%); stroke-linecap: round; stroke-width: 1; fill: rgb(67%,84%,90%); fill-rule: evenodd;"/>
			<path d="M 1346.351646,169.825647 L 1346.351646,251.827897 Z" style="stroke: rgb(0%,0%,0%); stroke-linecap: butt; stroke-width: 1;"/>
			<path d="M 70.866142,210.826772 L 1346.351646,210.826772 Z" style="stroke: rgb(0%,0%,0%); stroke-linecap: butt; stroke-width: 1;"/>
			<path d="M 70.866142,169.825647 L 70.866142,251.827897 Z" style="stroke: rgb(0%,0%,0%); stroke-linecap: butt; stroke-width: 1;"/>
			<path d="M 1121.340119,210.826772 L 1121.340119,231.327334 Z" style="stroke: rgb(0%,0%,0%); stroke-linecap: butt; stroke-width: 1;"/>
			<path d="M 1121.340119,210.826772 L 1121.340119,223.127109 Z" style="stroke: rgb(0%,0%,0%); stroke-linecap: butt; stroke-width: 1;"/>
			<path d="M 248.501291,456.833521 L 248.501291,538.835771 Z" style="stroke: rgb(0%,0%,0%); stroke-linecap: butt; stroke-width: 1;"/>
			<path d="M 70.866142,497.834646 L 248.501291,497.834646 Z" style="stroke: rgb(0%,0%,0%); stroke-linecap: butt; stroke-width: 1;"/>
			<path d="M 70.866142,456.833521 L 70.866142,538.835771 Z" style="stroke: rgb(0%,0%,0%); stroke-linecap: butt; stroke-width: 1;"/>
			<g transform=" matrix(0.707107,0.707107,-0.707107,0.707107,1121.340119,231.327334)">
				<text style="font-family: Helvetica; font-size: 6px;fill: rgb(0%,0%,0%); stroke:none;" transform="translate(0,0) scale(1,-1)" x="0" y="0">10000</text>
			</g>
			<g transform=" matrix(0.707107,0.707107,-0.707107,0.707107,130.375493,251.827897)">
				<text style="font-family: Helvetica; font-size: 10px;fill: rgb(0%,0%,0%); stroke:none;" transform="translate(0,0) scale(1,-1)" x="0" y="0">Gene_01908</text>
			</g>
			<g transform=" matrix(0.707107,-0.707107,0.707107,0.707107,257.377796,169.825647)">
				<text style="font-family: Helvetica; font-size: 10px;fill: rgb(0%,0%,0%); stroke:none;" transform="translate(0,0) scale(1,-1)" x="0" y="0">Gene_01909</text>
			</g>
			<g transform=" matrix(0.707107,-0.707107,0.707107,0.707107,391.523323,169.825647)">
				<text style="font-family: Helvetica; font-size: 10px;fill: rgb(0%,0%,0%); stroke:none;" transform="translate(0,0) scale(1,-1)" x="0" y="0">Gene_01910</text>
			</g>
			<g transform=" matrix(0.707107,0.707107,-0.707107,0.707107,626.146686,251.827897)">
				<text style="font-family: Helvetica; font-size: 10px;fill: rgb(0%,0%,0%); stroke:none;" transform="translate(0,0) scale(1,-1)" x="0" y="0">Gene_01911</text>
			</g>
			<g transform=" matrix(0.707107,0.707107,-0.707107,0.707107,774.788754,251.827897)">
				<text style="font-family: Helvetica; font-size: 10px;fill: rgb(0%,0%,0%); stroke:none;" transform="translate(0,0) scale(1,-1)" x="0" y="0">Gene_01912</text>
			</g>
			<g transform=" matrix(0.707107,0.707107,-0.707107,0.707107,878.260441,251.827897)">
				<text style="font-family: Helvetica; font-size: 10px;fill: rgb(0%,0%,0%); stroke:none;" transform="translate(0,0) scale(1,-1)" x="0" y="0">Gene_01913</text>
			</g>
			<g transform=" matrix(0.707107,0.707107,-0.707107,0.707107,999.747757,251.827897)">
				<text style="font-family: Helvetica; font-size: 10px;fill: rgb(0%,0%,0%); stroke:none;" transform="translate(0,0) scale(1,-1)" x="0" y="0">Gene_01914</text>
			</g>
			<g transform=" matrix(0.707107,0.707107,-0.707107,0.707107,1064.877143,251.827897)">
				<text style="font-family: Helvetica; font-size: 10px;fill: rgb(0%,0%,0%); stroke:none;" transform="translate(0,0) scale(1,-1)" x="0" y="0">Gene_01915</text>
			</g>
			<g transform=" matrix(0.707107,0.707107,-0.707107,0.707107,1136.519468,251.827897)">
				<text style="font-family: Helvetica; font-size: 10px;fill: rgb(0%,0%,0%); stroke:none;" transform="translate(0,0) scale(1,-1)" x="0" y="0">Gene_01916</text>
			</g>
			<g transform=" matrix(0.707107,-0.707107,0.707107,0.707107,1203.329613,169.825647)">
				<text style="font-family: Helvetica; font-size: 10px;fill: rgb(0%,0%,0%); stroke:none;" transform="translate(0,0) scale(1,-1)" x="0" y="0">Gene_01917</text>
			</g>
			<g transform=" matrix(0.707107,0.707107,-0.707107,0.707107,1253.017033,251.827897)">
				<text style="font-family: Helvetica; font-size: 16px;fill: rgb(0%,0%,100%); stroke:none;" transform="translate(0,0) scale(1,-1)" x="0" y="0">Gene_01918 (73.2)</text>
			</g>
			<g transform=" matrix(0.707107,0.707107,-0.707107,0.707107,140.722661,538.835771)">
				<text style="font-family: Helvetica; font-size: 16px;fill: rgb(0%,0%,100%); stroke:none;" transform="translate(0,0) scale(1,-1)" x="0" y="0">Gene_01401 (73.2)</text>
			</g>
			<g transform=" matrix(1,0,-0,1,70,169.825647)">
				<text style="font-family: Helvetica; font-size: 12px;fill: rgb(60%,60%,60%); stroke:none;" transform="translate(0,0) scale(1,-1)" x="0" y="0">megahit_94321 (left 21272bp, right 622bp)</text>
			</g>
		</g>
	</g>
</svg>
