<?xml version="1.0" encoding="utf-8"?>
<!DOCTYPE svg
  PUBLIC '-//W3C//DTD SVG 1.0//EN'
  'http://www.w3.org/TR/2001/REC-SVG-20010904/DTD/svg10.dtd'>
<svg fill-rule="evenodd" height="708.6614173228346" preserveAspectRatio="xMinYMin meet" version="1.0" viewBox="0 0 1417 708" width="1417.3228346456692" xmlns="http://www.w3.org/2000/svg" xmlns:xlink="http://www.w3.org/1999/xlink">
	<title>...</title>
	<desc>...</desc>
	<clipPath id="clip">
		<rect height="708.6614173228346" width="1417.3228346456692" x="0" y="0"/>
	</clipPath>
	<g id="group" style="clip-path: url(#clip)" transform="scale(1,-1) translate(0,-708)">
		<g transform="">
			<polygon points="70.86614 169.8256, 1346.377 169.8256, 1346.377 251.8279, 70.86614 251.8279" style="stroke: rgb(96%,96%,96%); stroke-linecap: butt; stroke-width: 1; fill: rgb(96%,96%,96%); fill-rule: evenodd;"/>
			<polygon points="70.86614 456.8335, 333.6118 456.8335, 333.6118 538.8358, 70.86614 538.8358" style="stroke: rgb(96%,96%,96%); stroke-linecap: butt; stroke-width: 1; fill: rgb(96%,96%,96%); fill-rule: evenodd;"/>
			<polygon points="119.1158 456.8335, 299.3753 456.8335, 894.8526 251.8279, 714.5135 251.8279" style="stroke: rgb(100%,53%,53%); stroke-linecap: round; stroke-width: 1; fill: rgb(100%,53%,53%); fill-rule: evenodd;"/>
			<polygon points="70.86614 241.5776, 116.7285 241.5776, 116.7285 251.8279, 133.1289 231.3273, 116.7285 210.8268, 116.7285 221.0771, 70.86614 221.0771" style="stroke: rgb(67%,84%,90%); stroke-linecap: round; stroke-width: 1; fill: rgb(67%,84%,90%); fill-rule: evenodd;"/>
			<polygon points="132.8901 241.5776, 180.4244 241.5776, 180.4244 251.8279, 196.8248 231.3273, 180.4244 210.8268, 180.4244 221.0771, 132.8901 221.0771" style="stroke: rgb(67%,84%,90%); stroke-linecap: round; stroke-width: 1; fill: rgb(67%,84%,90%); fill-rule: evenodd;"/>
			<polygon points="194.6751 241.5776, 236.2379 241.5776, 236.2379 251.8279, 252.6384 231.3273, 236.2379 210.8268, 236.2379 221.0771, 194.6751 221.0771" style="stroke: rgb(67%,84%,90%); stroke-linecap: round; stroke-width: 1; fill: rgb(67%,84%,90%); fill-rule: evenodd;"/>
			<polygon points="252.9569 241.5776, 366.1776 241.5776, 366.1776 251.8279, 382.5781 231.3273, 366.1776 210.8268, 366.1776 221.0771, 252.9569 221.0771" style="stroke: rgb(67%,84%,90%); stroke-linecap: round; stroke-width: 1; fill: rgb(67%,84%,90%); fill-rule: evenodd;"/>
			<polygon points="383.6131 241.5776, 396.274 241.5776, 396.274 251.8279, 412.6744 231.3273, 396.274 210.8268, 396.274 221.0771, 383.6131 221.0771" style="stroke: rgb(67%,84%,90%); stroke-linecap: round; stroke-width: 1; fill: rgb(67%,84%,90%); fill-rule: evenodd;"/>
			<polygon points="415.7796 241.5776, 431.0679 241.5776, 431.0679 251.8279, 447.4683 231.3273, 431.0679 210.8268, 431.0679 221.0771, 415.7796 221.0771" style="stroke: rgb(67%,84%,90%); stroke-linecap: round; stroke-width: 1; fill: rgb(67%,84%,90%); fill-rule: evenodd;"/>
			<polygon points="466.179 241.5776, 516.8185 241.5776, 516.8185 251.8279, 533.2189 231.3273, 516.8185 210.8268, 516.8185 221.0771, 466.179 221.0771" style="stroke: rgb(67%,84%,90%); stroke-linecap: round; stroke-width: 1; fill: rgb(67%,84%,90%); fill-rule: evenodd;"/>
			<polygon points="533.4578 241.5776, 566.6606 241.5776, 566.6606 251.8279, 583.061 231.3273, 566.6606 210.8268, 566.6606 221.0771, 533.4578 221.0771" style="stroke: rgb(67%,84%,90%); stroke-linecap: round; stroke-width: 1; fill: rgb(67%,84%,90%); fill-rule: evenodd;"/>
			<polygon points="592.4562 241.5776, 616.5822 241.5776, 616.5822 251.8279, 632.9827 231.3273, 616.5822 210.8268, 616.5822 221.0771, 592.4562 221.0771" style="stroke: rgb(67%,84%,90%); stroke-linecap: round; stroke-width: 1; fill: rgb(67%,84%,90%); fill-rule: evenodd;"/>
			<polygon points="634.6547 241.5776, 683.1445 241.5776, 683.1445 251.8279, 699.5449 231.3273, 683.1445 210.8268, 683.1445 221.0771, 634.6547 221.0771" style="stroke: rgb(67%,84%,90%); stroke-linecap: round; stroke-width: 1; fill: rgb(67%,84%,90%); fill-rule: evenodd;"/>
			<polygon points="861.8103 200.5765, 728.0476 200.5765, 728.0476 210.8268, 711.6472 190.3262, 728.0476 169.8256, 728.0476 180.0759, 861.8103 180.0759" style="stroke: rgb(56%,93%,56%); stroke-linecap: round; stroke-width: 1; fill: rgb(56%,93%,56%); fill-rule: evenodd;"/>
			<polygon points="892.0659 200.5765, 886.5709 200.5765, 886.5709 210.8268, 870.1704 190.3262, 886.5709 169.8256, 886.5709 180.0759, 892.0659 180.0759" style="stroke: rgb(56%,93%,56%); stroke-linecap: round; stroke-width: 1; fill: rgb(56%,93%,56%); fill-rule: evenodd;"/>
			<polygon points="1046.927 200.5765, 924.868 200.5765, 924.868 210.8268, 908.4676 190.3262, 924.868 169.8256, 924.868 180.0759, 1046.927 180.0759" style="stroke: rgb(56%,93%,56%); stroke-linecap: round; stroke-width: 1; fill: rgb(56%,93%,56%); fill-rule: evenodd;"/>
			<polygon points="1131.881 200.5765, 1063.088 200.5765, 1063.088 210.8268, 1046.688 190.3262, 1063.088 169.8256, 1063.088 180.0759, 1131.881 180.0759" style="stroke: rgb(56%,93%,56%); stroke-linecap: round; stroke-width: 1; fill: rgb(56%,93%,56%); fill-rule: evenodd;"/>
			<polygon points="1156.245 200.5765, 1156.245 210.8268, 1142.232 190.3262, 1156.245 169.8256, 1156.245 180.0759" style="stroke: rgb(56%,93%,56%); stroke-linecap: round; stroke-width: 1; fill: rgb(56%,93%,56%); fill-rule: evenodd;"/>
			<polygon points="1163.888 241.5776, 1201.39 241.5776, 1201.39 251.8279, 1217.791 231.3273, 1201.39 210.8268, 1201.39 221.0771, 1163.888 221.0771" style="stroke: rgb(67%,84%,90%); stroke-linecap: round; stroke-width: 1; fill: rgb(67%,84%,90%); fill-rule: evenodd;"/>
			<polygon points="1219.702 241.5776, 1244.067 241.5776, 1244.067 251.8279, 1260.467 231.3273, 1244.067 210.8268, 1244.067 221.0771, 1219.702 221.0771" style="stroke: rgb(67%,84%,90%); stroke-linecap: round; stroke-width: 1; fill: rgb(67%,84%,90%); fill-rule: evenodd;"/>
			<polygon points="266.4126 487.5844, 133.6054 487.5844, 133.6054 497.8346, 117.2049 477.3341, 133.6054 456.8335, 133.6054 467.0838, 266.4126 467.0838" style="stroke: rgb(56%,93%,56%); stroke-linecap: round; stroke-width: 1; fill: rgb(56%,93%,56%); fill-rule: evenodd;"/>
			<polygon points="297.7829 487.5844, 291.0936 487.5844, 291.0936 497.8346, 274.6931 477.3341, 291.0936 456.8335, 291.0936 467.0838, 297.7829 467.0838" style="stroke: rgb(56%,93%,56%); stroke-linecap: round; stroke-width: 1; fill: rgb(56%,93%,56%); fill-rule: evenodd;"/>
			<polygon points="315.14 528.5855, 315.14 538.8358, 330.3474 518.3352, 315.14 497.8346, 315.14 508.0849" style="stroke: rgb(67%,84%,90%); stroke-linecap: round; stroke-width: 1; fill: rgb(67%,84%,90%); fill-rule: evenodd;"/>
			<path d="M 1346.377073,169.825647 L 1346.377073,251.827897 Z" style="stroke: rgb(0%,0%,0%); stroke-linecap: butt; stroke-width: 1;"/>
			<path d="M 70.866142,210.826772 L 1346.377073,210.826772 Z" style="stroke: rgb(0%,0%,0%); stroke-linecap: butt; stroke-width: 1;"/>
			<path d="M 70.866142,169.825647 L 70.866142,251.827897 Z" style="stroke: rgb(0%,0%,0%); stroke-linecap: butt; stroke-width: 1;"/>
			<path d="M 867.065225,210.826772 L 867.065225,231.327334 Z" style="stroke: rgb(0%,0%,0%); stroke-linecap: butt; stroke-width: 1;"/>
			<path d="M 867.065225,210.826772 L 867.065225,223.127109 Z" style="stroke: rgb(0%,0%,0%); stroke-linecap: butt; stroke-width: 1;"/>
			<path d="M 333.611839,456.833521 L 333.611839,538.835771 Z" style="stroke: rgb(0%,0%,0%); stroke-linecap: butt; stroke-width: 1;"/>
			<path d="M 70.866142,497.834646 L 333.611839,497.834646 Z" style="stroke: rgb(0%,0%,0%); stroke-linecap: butt; stroke-width: 1;"/>
			<path d="M 70.866142,456.833521 L 70.866142,538.835771 Z" style="stroke: rgb(0%,0%,0%); stroke-linecap: butt; stroke-width: 1;"/>
			<g transform=" matrix(0.707107,0.707107,-0.707107,0.707107,867.065225,231.327334)">
				<text style="font-family: Helvetica; font-size: 6px;fill: rgb(0%,0%,0%); stroke:none;" transform="translate(0,0) scale(1,-1)" x="0" y="0">10000</text>
			</g>
			<g transform=" matrix(0.707107,0.707107,-0.707107,0.707107,101.997526,251.827897)">
				<text style="font-family: Helvetica; font-size: 10px;fill: rgb(0%,0%,0%); stroke:none;" transform="translate(0,0) scale(1,-1)" x="0" y="0">Gene_00886</text>
			</g>
			<g transform=" matrix(0.707107,0.707107,-0.707107,0.707107,164.857444,251.827897)">
				<text style="font-family: Helvetica; font-size: 10px;fill: rgb(0%,0%,0%); stroke:none;" transform="translate(0,0) scale(1,-1)" x="0" y="0">Gene_00887</text>
			</g>
			<g transform=" matrix(0.707107,0.707107,-0.707107,0.707107,223.656746,251.827897)">
				<text style="font-family: Helvetica; font-size: 10px;fill: rgb(0%,0%,0%); stroke:none;" transform="translate(0,0) scale(1,-1)" x="0" y="0">Gene_00888</text>
			</g>
			<g transform=" matrix(0.707107,0.707107,-0.707107,0.707107,317.767477,251.827897)">
				<text style="font-family: Helvetica; font-size: 10px;fill: rgb(0%,0%,0%); stroke:none;" transform="translate(0,0) scale(1,-1)" x="0" y="0">Gene_00889</text>
			</g>
			<g transform=" matrix(0.707107,0.707107,-0.707107,0.707107,398.143775,251.827897)">
				<text style="font-family: Helvetica; font-size: 10px;fill: rgb(0%,0%,0%); stroke:none;" transform="translate(0,0) scale(1,-1)" x="0" y="0">Gene_00890</text>
			</g>
			<g transform=" matrix(0.707107,0.707107,-0.707107,0.707107,431.623946,251.827897)">
				<text style="font-family: Helvetica; font-size: 10px;fill: rgb(0%,0%,0%); stroke:none;" transform="translate(0,0) scale(1,-1)" x="0" y="0">Gene_00891</text>
			</g>
			<g transform=" matrix(0.707107,0.707107,-0.707107,0.707107,499.698968,251.827897)">
				<text style="font-family: Helvetica; font-size: 10px;fill: rgb(0%,0%,0%); stroke:none;" transform="translate(0,0) scale(1,-1)" x="0" y="0">Gene_00892</text>
			</g>
			<g transform=" matrix(0.707107,0.707107,-0.707107,0.707107,558.259411,251.827897)">
				<text style="font-family: Helvetica; font-size: 10px;fill: rgb(0%,0%,0%); stroke:none;" transform="translate(0,0) scale(1,-1)" x="0" y="0">Gene_00893</text>
			</g>
			<g transform=" matrix(0.707107,0.707107,-0.707107,0.707107,612.719428,251.827897)">
				<text style="font-family: Helvetica; font-size: 10px;fill: rgb(0%,0%,0%); stroke:none;" transform="translate(0,0) scale(1,-1)" x="0" y="0">Gene_00894</text>
			</g>
			<g transform=" matrix(0.707107,0.707107,-0.707107,0.707107,667.099825,251.827897)">
				<text style="font-family: Helvetica; font-size: 10px;fill: rgb(0%,0%,0%); stroke:none;" transform="translate(0,0) scale(1,-1)" x="0" y="0">Gene_00895</text>
			</g>
			<g transform=" matrix(0.707107,-0.707107,0.707107,0.707107,786.728737,169.825647)">
				<text style="font-family: Helvetica; font-size: 10px;fill: rgb(0%,0%,0%); stroke:none;" transform="translate(0,0) scale(1,-1)" x="0" y="0">Gene_00896</text>
			</g>
			<g transform=" matrix(0.707107,-0.707107,0.707107,0.707107,881.118139,169.825647)">
				<text style="font-family: Helvetica; font-size: 16px;fill: rgb(0%,0%,100%); stroke:none;" transform="translate(0,0) scale(1,-1)" x="0" y="0">Gene_00897 (81.8)</text>
			</g>
			<g transform=" matrix(0.707107,-0.707107,0.707107,0.707107,977.697088,169.825647)">
				<text style="font-family: Helvetica; font-size: 10px;fill: rgb(0%,0%,0%); stroke:none;" transform="translate(0,0) scale(1,-1)" x="0" y="0">Gene_00898</text>
			</g>
			<g transform=" matrix(0.707107,-0.707107,0.707107,0.707107,1089.284389,169.825647)">
				<text style="font-family: Helvetica; font-size: 10px;fill: rgb(0%,0%,0%); stroke:none;" transform="translate(0,0) scale(1,-1)" x="0" y="0">Gene_00899</text>
			</g>
			<g transform=" matrix(0.707107,-0.707107,0.707107,0.707107,1149.23818,169.825647)">
				<text style="font-family: Helvetica; font-size: 10px;fill: rgb(0%,0%,0%); stroke:none;" transform="translate(0,0) scale(1,-1)" x="0" y="0">Gene_00900</text>
			</g>
			<g transform=" matrix(0.707107,0.707107,-0.707107,0.707107,1190.839582,251.827897)">
				<text style="font-family: Helvetica; font-size: 10px;fill: rgb(0%,0%,0%); stroke:none;" transform="translate(0,0) scale(1,-1)" x="0" y="0">Gene_00901</text>
			</g>
			<g transform=" matrix(0.707107,0.707107,-0.707107,0.707107,1240.084495,251.827897)">
				<text style="font-family: Helvetica; font-size: 10px;fill: rgb(0%,0%,0%); stroke:none;" transform="translate(0,0) scale(1,-1)" x="0" y="0">Gene_00902</text>
			</g>
			<g transform=" matrix(0.707107,-0.707107,0.707107,0.707107,191.808782,456.833521)">
				<text style="font-family: Helvetica; font-size: 10px;fill: rgb(0%,0%,0%); stroke:none;" transform="translate(0,0) scale(1,-1)" x="0" y="0">Gene_00672</text>
			</g>
			<g transform=" matrix(0.707107,-0.707107,0.707107,0.707107,286.237994,456.833521)">
				<text style="font-family: Helvetica; font-size: 16px;fill: rgb(0%,0%,100%); stroke:none;" transform="translate(0,0) scale(1,-1)" x="0" y="0">Gene_00673 (81.8)</text>
			</g>
			<g transform=" matrix(0.707107,0.707107,-0.707107,0.707107,322.743722,538.835771)">
				<text style="font-family: Helvetica; font-size: 10px;fill: rgb(0%,0%,0%); stroke:none;" transform="translate(0,0) scale(1,-1)" x="0" y="0">Gene_00674</text>
			</g>
			<g transform=" matrix(1,0,-0,1,70,169.825647)">
				<text style="font-family: Helvetica; font-size: 12px;fill: rgb(60%,60%,60%); stroke:none;" transform="translate(0,0) scale(1,-1)" x="0" y="0">megahit_45145 (left 16168bp, right 5706bp)</text>
			</g>
		</g>
	</g>
</svg>
