<?xml version="1.0" encoding="utf-8"?>
<!DOCTYPE svg
  PUBLIC '-//W3C//DTD SVG 1.0//EN'
  'http://www.w3.org/TR/2001/REC-SVG-20010904/DTD/svg10.dtd'>
<svg fill-rule="evenodd" height="708.6614173228346" preserveAspectRatio="xMinYMin meet" version="1.0" viewBox="0 0 1417 708" width="1417.3228346456692" xmlns="http://www.w3.org/2000/svg" xmlns:xlink="http://www.w3.org/1999/xlink">
	<title>...</title>
	<desc>...</desc>
	<clipPath id="clip">
		<rect height="708.6614173228346" width="1417.3228346456692" x="0" y="0"/>
	</clipPath>
	<g id="group" style="clip-path: url(#clip)" transform="scale(1,-1) translate(0,-708)">
		<g transform="">
			<polygon points="70.86614 169.8256, 1346.366 169.8256, 1346.366 251.8279, 70.86614 251.8279" style="stroke: rgb(96%,96%,96%); stroke-linecap: butt; stroke-width: 1; fill: rgb(96%,96%,96%); fill-rule: evenodd;"/>
			<polygon points="70.86614 456.8335, 245.3269 456.8335, 245.3269 538.8358, 70.86614 538.8358" style="stroke: rgb(96%,96%,96%); stroke-linecap: butt; stroke-width: 1; fill: rgb(96%,96%,96%); fill-rule: evenodd;"/>
			<polygon points="70.95705 456.8335, 220.4169 456.8335, 301.3288 251.8279, 151.869 251.8279" style="stroke: rgb(100%,11%,11%); stroke-linecap: round; stroke-width: 1; fill: rgb(100%,11%,11%); fill-rule: evenodd;"/>
			<polygon points="146.5961 200.5765, 108.5401 200.5765, 108.5401 210.8268, 92.13962 190.3262, 108.5401 169.8256, 108.5401 180.0759, 146.5961 180.0759" style="stroke: rgb(56%,93%,56%); stroke-linecap: round; stroke-width: 1; fill: rgb(56%,93%,56%); fill-rule: evenodd;"/>
			<polygon points="174.9607 241.5776, 271.1097 241.5776, 271.1097 251.8279, 287.5102 231.3273, 271.1097 210.8268, 271.1097 221.0771, 174.9607 221.0771" style="stroke: rgb(67%,84%,90%); stroke-linecap: round; stroke-width: 1; fill: rgb(67%,84%,90%); fill-rule: evenodd;"/>
			<polygon points="343.5121 200.5765, 316.9111 200.5765, 316.9111 210.8268, 300.5106 190.3262, 316.9111 169.8256, 316.9111 180.0759, 343.5121 180.0759" style="stroke: rgb(56%,93%,56%); stroke-linecap: round; stroke-width: 1; fill: rgb(56%,93%,56%); fill-rule: evenodd;"/>
			<polygon points="386.4228 200.5765, 374.5495 200.5765, 374.5495 210.8268, 358.149 190.3262, 374.5495 169.8256, 374.5495 180.0759, 386.4228 180.0759" style="stroke: rgb(56%,93%,56%); stroke-linecap: round; stroke-width: 1; fill: rgb(56%,93%,56%); fill-rule: evenodd;"/>
			<polygon points="466.3347 200.5765, 445.4611 200.5765, 445.4611 210.8268, 429.0606 190.3262, 445.4611 169.8256, 445.4611 180.0759, 466.3347 180.0759" style="stroke: rgb(56%,93%,56%); stroke-linecap: round; stroke-width: 1; fill: rgb(56%,93%,56%); fill-rule: evenodd;"/>
			<polygon points="476.5168 241.5776, 478.0261 241.5776, 478.0261 251.8279, 494.4266 231.3273, 478.0261 210.8268, 478.0261 221.0771, 476.5168 221.0771" style="stroke: rgb(67%,84%,90%); stroke-linecap: round; stroke-width: 1; fill: rgb(67%,84%,90%); fill-rule: evenodd;"/>
			<polygon points="492.972 241.5776, 509.209 241.5776, 509.209 251.8279, 525.6095 231.3273, 509.209 210.8268, 509.209 221.0771, 492.972 221.0771" style="stroke: rgb(67%,84%,90%); stroke-linecap: round; stroke-width: 1; fill: rgb(67%,84%,90%); fill-rule: evenodd;"/>
			<polygon points="551.7013 241.5776, 578.8479 241.5776, 578.8479 251.8279, 595.2483 231.3273, 578.8479 210.8268, 578.8479 221.0771, 551.7013 221.0771" style="stroke: rgb(67%,84%,90%); stroke-linecap: round; stroke-width: 1; fill: rgb(67%,84%,90%); fill-rule: evenodd;"/>
			<polygon points="594.6119 241.5776, 692.3973 241.5776, 692.3973 251.8279, 708.7978 231.3273, 692.3973 210.8268, 692.3973 221.0771, 594.6119 221.0771" style="stroke: rgb(67%,84%,90%); stroke-linecap: round; stroke-width: 1; fill: rgb(67%,84%,90%); fill-rule: evenodd;"/>
			<polygon points="720.2527 241.5776, 773.8548 241.5776, 773.8548 251.8279, 790.2552 231.3273, 773.8548 210.8268, 773.8548 221.0771, 720.2527 221.0771" style="stroke: rgb(67%,84%,90%); stroke-linecap: round; stroke-width: 1; fill: rgb(67%,84%,90%); fill-rule: evenodd;"/>
			<polygon points="823.2564 241.5776, 893.2226 241.5776, 893.2226 251.8279, 909.6231 231.3273, 893.2226 210.8268, 893.2226 221.0771, 823.2564 221.0771" style="stroke: rgb(67%,84%,90%); stroke-linecap: round; stroke-width: 1; fill: rgb(67%,84%,90%); fill-rule: evenodd;"/>
			<polygon points="917.5324 241.5776, 943.0426 241.5776, 943.0426 251.8279, 959.443 231.3273, 943.0426 210.8268, 943.0426 221.0771, 917.5324 221.0771" style="stroke: rgb(67%,84%,90%); stroke-linecap: round; stroke-width: 1; fill: rgb(67%,84%,90%); fill-rule: evenodd;"/>
			<polygon points="959.7157 241.5776, 965.3161 241.5776, 965.3161 251.8279, 981.7165 231.3273, 965.3161 210.8268, 965.3161 221.0771, 959.7157 221.0771" style="stroke: rgb(67%,84%,90%); stroke-linecap: round; stroke-width: 1; fill: rgb(67%,84%,90%); fill-rule: evenodd;"/>
			<polygon points="979.9892 241.5776, 980.1348 241.5776, 980.1348 251.8279, 996.5352 231.3273, 980.1348 210.8268, 980.1348 221.0771, 979.9892 221.0771" style="stroke: rgb(67%,84%,90%); stroke-linecap: round; stroke-width: 1; fill: rgb(67%,84%,90%); fill-rule: evenodd;"/>
			<polygon points="994.5352 241.5776, 996.5899 241.5776, 996.5899 251.8279, 1012.99 231.3273, 996.5899 210.8268, 996.5899 221.0771, 994.5352 221.0771" style="stroke: rgb(67%,84%,90%); stroke-linecap: round; stroke-width: 1; fill: rgb(67%,84%,90%); fill-rule: evenodd;"/>
			<polygon points="1031.718 241.5776, 1045.501 241.5776, 1045.501 251.8279, 1061.901 231.3273, 1045.501 210.8268, 1045.501 221.0771, 1031.718 221.0771" style="stroke: rgb(67%,84%,90%); stroke-linecap: round; stroke-width: 1; fill: rgb(67%,84%,90%); fill-rule: evenodd;"/>
			<polygon points="1062.992 241.5776, 1070.229 241.5776, 1070.229 251.8279, 1086.629 231.3273, 1070.229 210.8268, 1070.229 221.0771, 1062.992 221.0771" style="stroke: rgb(67%,84%,90%); stroke-linecap: round; stroke-width: 1; fill: rgb(67%,84%,90%); fill-rule: evenodd;"/>
			<polygon points="1102.539 241.5776, 1107.321 241.5776, 1107.321 251.8279, 1123.722 231.3273, 1107.321 210.8268, 1107.321 221.0771, 1102.539 221.0771" style="stroke: rgb(67%,84%,90%); stroke-linecap: round; stroke-width: 1; fill: rgb(67%,84%,90%); fill-rule: evenodd;"/>
			<polygon points="1132.631 241.5776, 1135.777 241.5776, 1135.777 251.8279, 1152.177 231.3273, 1135.777 210.8268, 1135.777 221.0771, 1132.631 221.0771" style="stroke: rgb(67%,84%,90%); stroke-linecap: round; stroke-width: 1; fill: rgb(67%,84%,90%); fill-rule: evenodd;"/>
			<polygon points="1155.905 241.5776, 1185.233 241.5776, 1185.233 251.8279, 1201.633 231.3273, 1185.233 210.8268, 1185.233 221.0771, 1155.905 221.0771" style="stroke: rgb(67%,84%,90%); stroke-linecap: round; stroke-width: 1; fill: rgb(67%,84%,90%); fill-rule: evenodd;"/>
			<polygon points="1201.361 241.5776, 1329.965 241.5776, 1329.965 251.8279, 1346.366 231.3273, 1329.965 210.8268, 1329.965 221.0771, 1201.361 221.0771" style="stroke: rgb(67%,84%,90%); stroke-linecap: round; stroke-width: 1; fill: rgb(67%,84%,90%); fill-rule: evenodd;"/>
			<polygon points="94.04878 528.5855, 190.1978 528.5855, 190.1978 538.8358, 206.5982 518.3352, 190.1978 497.8346, 190.1978 508.0849, 94.04878 508.0849" style="stroke: rgb(67%,84%,90%); stroke-linecap: round; stroke-width: 1; fill: rgb(67%,84%,90%); fill-rule: evenodd;"/>
			<polygon points="241.5085 487.5844, 227.9988 487.5844, 227.9988 497.8346, 211.5984 477.3341, 227.9988 456.8335, 227.9988 467.0838, 241.5085 467.0838" style="stroke: rgb(56%,93%,56%); stroke-linecap: round; stroke-width: 1; fill: rgb(56%,93%,56%); fill-rule: evenodd;"/>
			<path d="M 1346.365781,169.825647 L 1346.365781,251.827897 Z" style="stroke: rgb(0%,0%,0%); stroke-linecap: butt; stroke-width: 1;"/>
			<path d="M 70.866142,210.826772 L 1346.365781,210.826772 Z" style="stroke: rgb(0%,0%,0%); stroke-linecap: butt; stroke-width: 1;"/>
			<path d="M 70.866142,169.825647 L 70.866142,251.827897 Z" style="stroke: rgb(0%,0%,0%); stroke-linecap: butt; stroke-width: 1;"/>
			<path d="M 979.989192,210.826772 L 979.989192,231.327334 Z" style="stroke: rgb(0%,0%,0%); stroke-linecap: butt; stroke-width: 1;"/>
			<path d="M 979.989192,210.826772 L 979.989192,223.127109 Z" style="stroke: rgb(0%,0%,0%); stroke-linecap: butt; stroke-width: 1;"/>
			<path d="M 245.326855,456.833521 L 245.326855,538.835771 Z" style="stroke: rgb(0%,0%,0%); stroke-linecap: butt; stroke-width: 1;"/>
			<path d="M 70.866142,497.834646 L 245.326855,497.834646 Z" style="stroke: rgb(0%,0%,0%); stroke-linecap: butt; stroke-width: 1;"/>
			<path d="M 70.866142,456.833521 L 70.866142,538.835771 Z" style="stroke: rgb(0%,0%,0%); stroke-linecap: butt; stroke-width: 1;"/>
			<g transform=" matrix(0.707107,0.707107,-0.707107,0.707107,979.989192,231.327334)">
				<text style="font-family: Helvetica; font-size: 6px;fill: rgb(0%,0%,0%); stroke:none;" transform="translate(0,0) scale(1,-1)" x="0" y="0">10000</text>
			</g>
			<g transform=" matrix(0.707107,-0.707107,0.707107,0.707107,119.367856,169.825647)">
				<text style="font-family: Helvetica; font-size: 10px;fill: rgb(0%,0%,0%); stroke:none;" transform="translate(0,0) scale(1,-1)" x="0" y="0">Gene_02760</text>
			</g>
			<g transform=" matrix(0.707107,0.707107,-0.707107,0.707107,231.235448,251.827897)">
				<text style="font-family: Helvetica; font-size: 16px;fill: rgb(0%,0%,100%); stroke:none;" transform="translate(0,0) scale(1,-1)" x="0" y="0">Gene_02761 (94.3)</text>
			</g>
			<g transform=" matrix(0.707107,-0.707107,0.707107,0.707107,322.011384,169.825647)">
				<text style="font-family: Helvetica; font-size: 10px;fill: rgb(0%,0%,0%); stroke:none;" transform="translate(0,0) scale(1,-1)" x="0" y="0">Gene_02762</text>
			</g>
			<g transform=" matrix(0.707107,-0.707107,0.707107,0.707107,372.285889,169.825647)">
				<text style="font-family: Helvetica; font-size: 10px;fill: rgb(0%,0%,0%); stroke:none;" transform="translate(0,0) scale(1,-1)" x="0" y="0">Gene_02763</text>
			</g>
			<g transform=" matrix(0.707107,-0.707107,0.707107,0.707107,447.697646,169.825647)">
				<text style="font-family: Helvetica; font-size: 10px;fill: rgb(0%,0%,0%); stroke:none;" transform="translate(0,0) scale(1,-1)" x="0" y="0">Gene_02764</text>
			</g>
			<g transform=" matrix(0.707107,0.707107,-0.707107,0.707107,485.471709,251.827897)">
				<text style="font-family: Helvetica; font-size: 10px;fill: rgb(0%,0%,0%); stroke:none;" transform="translate(0,0) scale(1,-1)" x="0" y="0">Gene_02765</text>
			</g>
			<g transform=" matrix(0.707107,0.707107,-0.707107,0.707107,509.290733,251.827897)">
				<text style="font-family: Helvetica; font-size: 10px;fill: rgb(0%,0%,0%); stroke:none;" transform="translate(0,0) scale(1,-1)" x="0" y="0">Gene_02766</text>
			</g>
			<g transform=" matrix(0.707107,0.707107,-0.707107,0.707107,573.47482,251.827897)">
				<text style="font-family: Helvetica; font-size: 10px;fill: rgb(0%,0%,0%); stroke:none;" transform="translate(0,0) scale(1,-1)" x="0" y="0">Gene_02767</text>
			</g>
			<g transform=" matrix(0.707107,0.707107,-0.707107,0.707107,651.704858,251.827897)">
				<text style="font-family: Helvetica; font-size: 10px;fill: rgb(0%,0%,0%); stroke:none;" transform="translate(0,0) scale(1,-1)" x="0" y="0">Gene_02768</text>
			</g>
			<g transform=" matrix(0.707107,0.707107,-0.707107,0.707107,755.253974,251.827897)">
				<text style="font-family: Helvetica; font-size: 10px;fill: rgb(0%,0%,0%); stroke:none;" transform="translate(0,0) scale(1,-1)" x="0" y="0">Gene_02769</text>
			</g>
			<g transform=" matrix(0.707107,0.707107,-0.707107,0.707107,866.439723,251.827897)">
				<text style="font-family: Helvetica; font-size: 10px;fill: rgb(0%,0%,0%); stroke:none;" transform="translate(0,0) scale(1,-1)" x="0" y="0">Gene_02770</text>
			</g>
			<g transform=" matrix(0.707107,0.707107,-0.707107,0.707107,938.487724,251.827897)">
				<text style="font-family: Helvetica; font-size: 10px;fill: rgb(0%,0%,0%); stroke:none;" transform="translate(0,0) scale(1,-1)" x="0" y="0">Gene_02771</text>
			</g>
			<g transform=" matrix(0.707107,0.707107,-0.707107,0.707107,970.716136,251.827897)">
				<text style="font-family: Helvetica; font-size: 10px;fill: rgb(0%,0%,0%); stroke:none;" transform="translate(0,0) scale(1,-1)" x="0" y="0">Gene_02772</text>
			</g>
			<g transform=" matrix(0.707107,0.707107,-0.707107,0.707107,988.262211,251.827897)">
				<text style="font-family: Helvetica; font-size: 10px;fill: rgb(0%,0%,0%); stroke:none;" transform="translate(0,0) scale(1,-1)" x="0" y="0">Gene_02773</text>
			</g>
			<g transform=" matrix(0.707107,0.707107,-0.707107,0.707107,1003.762759,251.827897)">
				<text style="font-family: Helvetica; font-size: 10px;fill: rgb(0%,0%,0%); stroke:none;" transform="translate(0,0) scale(1,-1)" x="0" y="0">Gene_02774</text>
			</g>
			<g transform=" matrix(0.707107,0.707107,-0.707107,0.707107,1046.809736,251.827897)">
				<text style="font-family: Helvetica; font-size: 10px;fill: rgb(0%,0%,0%); stroke:none;" transform="translate(0,0) scale(1,-1)" x="0" y="0">Gene_02775</text>
			</g>
			<g transform=" matrix(0.707107,0.707107,-0.707107,0.707107,1074.810726,251.827897)">
				<text style="font-family: Helvetica; font-size: 10px;fill: rgb(0%,0%,0%); stroke:none;" transform="translate(0,0) scale(1,-1)" x="0" y="0">Gene_02776</text>
			</g>
			<g transform=" matrix(0.707107,0.707107,-0.707107,0.707107,1113.130262,251.827897)">
				<text style="font-family: Helvetica; font-size: 10px;fill: rgb(0%,0%,0%); stroke:none;" transform="translate(0,0) scale(1,-1)" x="0" y="0">Gene_02777</text>
			</g>
			<g transform=" matrix(0.707107,0.707107,-0.707107,0.707107,1142.404024,251.827897)">
				<text style="font-family: Helvetica; font-size: 10px;fill: rgb(0%,0%,0%); stroke:none;" transform="translate(0,0) scale(1,-1)" x="0" y="0">Gene_02778</text>
			</g>
			<g transform=" matrix(0.707107,0.707107,-0.707107,0.707107,1178.768946,251.827897)">
				<text style="font-family: Helvetica; font-size: 10px;fill: rgb(0%,0%,0%); stroke:none;" transform="translate(0,0) scale(1,-1)" x="0" y="0">Gene_02779</text>
			</g>
			<g transform=" matrix(0.707107,0.707107,-0.707107,0.707107,1273.863217,251.827897)">
				<text style="font-family: Helvetica; font-size: 10px;fill: rgb(0%,0%,0%); stroke:none;" transform="translate(0,0) scale(1,-1)" x="0" y="0">Gene_02780</text>
			</g>
			<g transform=" matrix(0.707107,0.707107,-0.707107,0.707107,150.323496,538.835771)">
				<text style="font-family: Helvetica; font-size: 16px;fill: rgb(0%,0%,100%); stroke:none;" transform="translate(0,0) scale(1,-1)" x="0" y="0">Gene_01697 (94.3)</text>
			</g>
			<g transform=" matrix(0.707107,-0.707107,0.707107,0.707107,226.553464,456.833521)">
				<text style="font-family: Helvetica; font-size: 10px;fill: rgb(0%,0%,0%); stroke:none;" transform="translate(0,0) scale(1,-1)" x="0" y="0">Gene_01698</text>
			</g>
			<g transform=" matrix(1,0,-0,1,70,169.825647)">
				<text style="font-family: Helvetica; font-size: 12px;fill: rgb(60%,60%,60%); stroke:none;" transform="translate(0,0) scale(1,-1)" x="0" y="0">megahit_75155 (left 1145bp, right 17950bp)</text>
			</g>
		</g>
	</g>
</svg>
