<?xml version="1.0" encoding="utf-8"?>
<!DOCTYPE svg
  PUBLIC '-//W3C//DTD SVG 1.0//EN'
  'http://www.w3.org/TR/2001/REC-SVG-20010904/DTD/svg10.dtd'>
<svg fill-rule="evenodd" height="708.6614173228346" preserveAspectRatio="xMinYMin meet" version="1.0" viewBox="0 0 1417 708" width="1417.3228346456692" xmlns="http://www.w3.org/2000/svg" xmlns:xlink="http://www.w3.org/1999/xlink">
	<title>...</title>
	<desc>...</desc>
	<clipPath id="clip">
		<rect height="708.6614173228346" width="1417.3228346456692" x="0" y="0"/>
	</clipPath>
	<g id="group" style="clip-path: url(#clip)" transform="scale(1,-1) translate(0,-708)">
		<g transform="">
			<polygon points="70.86614 169.8256, 1346.383 169.8256, 1346.383 251.8279, 70.86614 251.8279" style="stroke: rgb(96%,96%,96%); stroke-linecap: butt; stroke-width: 1; fill: rgb(96%,96%,96%); fill-rule: evenodd;"/>
			<polygon points="70.86614 456.8335, 380.277 456.8335, 380.277 538.8358, 70.86614 538.8358" style="stroke: rgb(96%,96%,96%); stroke-linecap: butt; stroke-width: 1; fill: rgb(96%,96%,96%); fill-rule: evenodd;"/>
			<polygon points="209.6617 456.8335, 301.8722 456.8335, 841.477 251.8279, 933.3922 251.8279" style="stroke: rgb(100%,38%,38%); stroke-linecap: round; stroke-width: 1; fill: rgb(100%,38%,38%); fill-rule: evenodd;"/>
			<polygon points="352.9608 456.8335, 378.5051 456.8335, 809.805 251.8279, 836.6044 251.8279" style="stroke: rgb(100%,44%,44%); stroke-linecap: round; stroke-width: 1; fill: rgb(100%,44%,44%); fill-rule: evenodd;"/>
			<polygon points="70.86614 241.5776, 106.4402 241.5776, 106.4402 251.8279, 122.8407 231.3273, 106.4402 210.8268, 106.4402 221.0771, 70.86614 221.0771" style="stroke: rgb(67%,84%,90%); stroke-linecap: round; stroke-width: 1; fill: rgb(67%,84%,90%); fill-rule: evenodd;"/>
			<polygon points="122.1024 241.5776, 183.3684 241.5776, 183.3684 251.8279, 199.7689 231.3273, 183.3684 210.8268, 183.3684 221.0771, 122.1024 221.0771" style="stroke: rgb(67%,84%,90%); stroke-linecap: round; stroke-width: 1; fill: rgb(67%,84%,90%); fill-rule: evenodd;"/>
			<polygon points="208.5543 241.5776, 216.4431 241.5776, 216.4431 251.8279, 232.8436 231.3273, 216.4431 210.8268, 216.4431 221.0771, 208.5543 221.0771" style="stroke: rgb(67%,84%,90%); stroke-linecap: round; stroke-width: 1; fill: rgb(67%,84%,90%); fill-rule: evenodd;"/>
			<polygon points="242.2935 241.5776, 311.5328 241.5776, 311.5328 251.8279, 327.9333 231.3273, 311.5328 210.8268, 311.5328 221.0771, 242.2935 221.0771" style="stroke: rgb(67%,84%,90%); stroke-linecap: round; stroke-width: 1; fill: rgb(67%,84%,90%); fill-rule: evenodd;"/>
			<polygon points="328.3763 241.5776, 364.8363 241.5776, 364.8363 251.8279, 381.2367 231.3273, 364.8363 210.8268, 364.8363 221.0771, 328.3763 221.0771" style="stroke: rgb(67%,84%,90%); stroke-linecap: round; stroke-width: 1; fill: rgb(67%,84%,90%); fill-rule: evenodd;"/>
			<polygon points="496.9243 200.5765, 401.993 200.5765, 401.993 210.8268, 385.5925 190.3262, 401.993 169.8256, 401.993 180.0759, 496.9243 180.0759" style="stroke: rgb(56%,93%,56%); stroke-linecap: round; stroke-width: 1; fill: rgb(56%,93%,56%); fill-rule: evenodd;"/>
			<polygon points="591.7187 200.5765, 515.3919 200.5765, 515.3919 210.8268, 498.9915 190.3262, 515.3919 169.8256, 515.3919 180.0759, 591.7187 180.0759" style="stroke: rgb(56%,93%,56%); stroke-linecap: round; stroke-width: 1; fill: rgb(56%,93%,56%); fill-rule: evenodd;"/>
			<polygon points="624.4981 241.5776, 712.5635 241.5776, 712.5635 251.8279, 728.964 231.3273, 712.5635 210.8268, 712.5635 221.0771, 624.4981 221.0771" style="stroke: rgb(67%,84%,90%); stroke-linecap: round; stroke-width: 1; fill: rgb(67%,84%,90%); fill-rule: evenodd;"/>
			<polygon points="803.7512 200.5765, 745.8074 200.5765, 745.8074 210.8268, 729.4069 190.3262, 745.8074 169.8256, 745.8074 180.0759, 803.7512 180.0759" style="stroke: rgb(56%,93%,56%); stroke-linecap: round; stroke-width: 1; fill: rgb(56%,93%,56%); fill-rule: evenodd;"/>
			<polygon points="842.9535 241.5776, 916.6226 241.5776, 916.6226 251.8279, 933.023 231.3273, 916.6226 210.8268, 916.6226 221.0771, 842.9535 221.0771" style="stroke: rgb(67%,84%,90%); stroke-linecap: round; stroke-width: 1; fill: rgb(67%,84%,90%); fill-rule: evenodd;"/>
			<polygon points="934.2043 241.5776, 956.4894 241.5776, 956.4894 251.8279, 972.8898 231.3273, 956.4894 210.8268, 956.4894 221.0771, 934.2043 221.0771" style="stroke: rgb(67%,84%,90%); stroke-linecap: round; stroke-width: 1; fill: rgb(67%,84%,90%); fill-rule: evenodd;"/>
			<polygon points="1044.355 200.5765, 991.5051 200.5765, 991.5051 210.8268, 975.1047 190.3262, 991.5051 169.8256, 991.5051 180.0759, 1044.355 180.0759" style="stroke: rgb(56%,93%,56%); stroke-linecap: round; stroke-width: 1; fill: rgb(56%,93%,56%); fill-rule: evenodd;"/>
			<polygon points="1142.619 200.5765, 1062.527 200.5765, 1062.527 210.8268, 1046.127 190.3262, 1062.527 169.8256, 1062.527 180.0759, 1142.619 180.0759" style="stroke: rgb(56%,93%,56%); stroke-linecap: round; stroke-width: 1; fill: rgb(56%,93%,56%); fill-rule: evenodd;"/>
			<polygon points="1255.575 200.5765, 1170.61 200.5765, 1170.61 210.8268, 1154.21 190.3262, 1170.61 169.8256, 1170.61 180.0759, 1255.575 180.0759" style="stroke: rgb(56%,93%,56%); stroke-linecap: round; stroke-width: 1; fill: rgb(56%,93%,56%); fill-rule: evenodd;"/>
			<polygon points="1280.012 241.5776, 1295.21 241.5776, 1295.21 251.8279, 1311.61 231.3273, 1295.21 210.8268, 1295.21 221.0771, 1280.012 221.0771" style="stroke: rgb(67%,84%,90%); stroke-linecap: round; stroke-width: 1; fill: rgb(67%,84%,90%); fill-rule: evenodd;"/>
			<polygon points="1313.751 241.5776, 1326.291 241.5776, 1326.291 251.8279, 1342.691 231.3273, 1326.291 210.8268, 1326.291 221.0771, 1313.751 221.0771" style="stroke: rgb(67%,84%,90%); stroke-linecap: round; stroke-width: 1; fill: rgb(67%,84%,90%); fill-rule: evenodd;"/>
			<polygon points="102.4643 487.5844, 102.4643 497.8346, 86.59139 477.3341, 102.4643 456.8335, 102.4643 467.0838" style="stroke: rgb(56%,93%,56%); stroke-linecap: round; stroke-width: 1; fill: rgb(56%,93%,56%); fill-rule: evenodd;"/>
			<polygon points="121.0688 487.5844, 121.0688 497.8346, 106.0818 477.3341, 121.0688 456.8335, 121.0688 467.0838" style="stroke: rgb(56%,93%,56%); stroke-linecap: round; stroke-width: 1; fill: rgb(56%,93%,56%); fill-rule: evenodd;"/>
			<polygon points="193.1982 487.5844, 141.013 487.5844, 141.013 497.8346, 124.6125 477.3341, 141.013 456.8335, 141.013 467.0838, 193.1982 467.0838" style="stroke: rgb(56%,93%,56%); stroke-linecap: round; stroke-width: 1; fill: rgb(56%,93%,56%); fill-rule: evenodd;"/>
			<polygon points="300.3218 487.5844, 226.4313 487.5844, 226.4313 497.8346, 210.0309 477.3341, 226.4313 456.8335, 226.4313 467.0838, 300.3218 467.0838" style="stroke: rgb(56%,93%,56%); stroke-linecap: round; stroke-width: 1; fill: rgb(56%,93%,56%); fill-rule: evenodd;"/>
			<polygon points="348.7526 487.5844, 320.0445 487.5844, 320.0445 497.8346, 303.6441 477.3341, 320.0445 456.8335, 320.0445 467.0838, 348.7526 467.0838" style="stroke: rgb(56%,93%,56%); stroke-linecap: round; stroke-width: 1; fill: rgb(56%,93%,56%); fill-rule: evenodd;"/>
			<path d="M 1346.382865,169.825647 L 1346.382865,251.827897 Z" style="stroke: rgb(0%,0%,0%); stroke-linecap: butt; stroke-width: 1;"/>
			<path d="M 70.866142,210.826772 L 1346.382865,210.826772 Z" style="stroke: rgb(0%,0%,0%); stroke-linecap: butt; stroke-width: 1;"/>
			<path d="M 70.866142,169.825647 L 70.866142,251.827897 Z" style="stroke: rgb(0%,0%,0%); stroke-linecap: butt; stroke-width: 1;"/>
			<path d="M 809.140567,210.826772 L 809.140567,231.327334 Z" style="stroke: rgb(0%,0%,0%); stroke-linecap: butt; stroke-width: 1;"/>
			<path d="M 809.140567,210.826772 L 809.140567,223.127109 Z" style="stroke: rgb(0%,0%,0%); stroke-linecap: butt; stroke-width: 1;"/>
			<path d="M 380.276953,456.833521 L 380.276953,538.835771 Z" style="stroke: rgb(0%,0%,0%); stroke-linecap: butt; stroke-width: 1;"/>
			<path d="M 70.866142,497.834646 L 380.276953,497.834646 Z" style="stroke: rgb(0%,0%,0%); stroke-linecap: butt; stroke-width: 1;"/>
			<path d="M 70.866142,456.833521 L 70.866142,538.835771 Z" style="stroke: rgb(0%,0%,0%); stroke-linecap: butt; stroke-width: 1;"/>
			<g transform=" matrix(0.707107,0.707107,-0.707107,0.707107,809.140567,231.327334)">
				<text style="font-family: Helvetica; font-size: 6px;fill: rgb(0%,0%,0%); stroke:none;" transform="translate(0,0) scale(1,-1)" x="0" y="0">10000</text>
			</g>
			<g transform=" matrix(0.707107,0.707107,-0.707107,0.707107,96.853401,251.827897)">
				<text style="font-family: Helvetica; font-size: 10px;fill: rgb(0%,0%,0%); stroke:none;" transform="translate(0,0) scale(1,-1)" x="0" y="0">Gene_01950</text>
			</g>
			<g transform=" matrix(0.707107,0.707107,-0.707107,0.707107,160.935622,251.827897)">
				<text style="font-family: Helvetica; font-size: 10px;fill: rgb(0%,0%,0%); stroke:none;" transform="translate(0,0) scale(1,-1)" x="0" y="0">Gene_01951</text>
			</g>
			<g transform=" matrix(0.707107,0.707107,-0.707107,0.707107,220.698936,251.827897)">
				<text style="font-family: Helvetica; font-size: 10px;fill: rgb(0%,0%,0%); stroke:none;" transform="translate(0,0) scale(1,-1)" x="0" y="0">Gene_01952</text>
			</g>
			<g transform=" matrix(0.707107,0.707107,-0.707107,0.707107,285.11338,251.827897)">
				<text style="font-family: Helvetica; font-size: 10px;fill: rgb(0%,0%,0%); stroke:none;" transform="translate(0,0) scale(1,-1)" x="0" y="0">Gene_01953</text>
			</g>
			<g transform=" matrix(0.707107,0.707107,-0.707107,0.707107,354.806486,251.827897)">
				<text style="font-family: Helvetica; font-size: 10px;fill: rgb(0%,0%,0%); stroke:none;" transform="translate(0,0) scale(1,-1)" x="0" y="0">Gene_01954</text>
			</g>
			<g transform=" matrix(0.707107,-0.707107,0.707107,0.707107,441.258421,169.825647)">
				<text style="font-family: Helvetica; font-size: 10px;fill: rgb(0%,0%,0%); stroke:none;" transform="translate(0,0) scale(1,-1)" x="0" y="0">Gene_01955</text>
			</g>
			<g transform=" matrix(0.707107,-0.707107,0.707107,0.707107,545.355115,169.825647)">
				<text style="font-family: Helvetica; font-size: 10px;fill: rgb(0%,0%,0%); stroke:none;" transform="translate(0,0) scale(1,-1)" x="0" y="0">Gene_01956</text>
			</g>
			<g transform=" matrix(0.707107,0.707107,-0.707107,0.707107,676.731048,251.827897)">
				<text style="font-family: Helvetica; font-size: 10px;fill: rgb(0%,0%,0%); stroke:none;" transform="translate(0,0) scale(1,-1)" x="0" y="0">Gene_01957</text>
			</g>
			<g transform=" matrix(0.707107,-0.707107,0.707107,0.707107,766.579046,169.825647)">
				<text style="font-family: Helvetica; font-size: 10px;fill: rgb(0%,0%,0%); stroke:none;" transform="translate(0,0) scale(1,-1)" x="0" y="0">Gene_01958</text>
			</g>
			<g transform=" matrix(0.707107,0.707107,-0.707107,0.707107,887.988275,251.827897)">
				<text style="font-family: Helvetica; font-size: 16px;fill: rgb(0%,0%,100%); stroke:none;" transform="translate(0,0) scale(1,-1)" x="0" y="0">Gene_01959 (81.1)</text>
			</g>
			<g transform=" matrix(0.707107,0.707107,-0.707107,0.707107,953.547044,251.827897)">
				<text style="font-family: Helvetica; font-size: 10px;fill: rgb(0%,0%,0%); stroke:none;" transform="translate(0,0) scale(1,-1)" x="0" y="0">Gene_01960</text>
			</g>
			<g transform=" matrix(0.707107,-0.707107,0.707107,0.707107,1009.729728,169.825647)">
				<text style="font-family: Helvetica; font-size: 10px;fill: rgb(0%,0%,0%); stroke:none;" transform="translate(0,0) scale(1,-1)" x="0" y="0">Gene_01961</text>
			</g>
			<g transform=" matrix(0.707107,-0.707107,0.707107,0.707107,1094.372891,169.825647)">
				<text style="font-family: Helvetica; font-size: 10px;fill: rgb(0%,0%,0%); stroke:none;" transform="translate(0,0) scale(1,-1)" x="0" y="0">Gene_01962</text>
			</g>
			<g transform=" matrix(0.707107,-0.707107,0.707107,0.707107,1204.892572,169.825647)">
				<text style="font-family: Helvetica; font-size: 10px;fill: rgb(0%,0%,0%); stroke:none;" transform="translate(0,0) scale(1,-1)" x="0" y="0">Gene_01963</text>
			</g>
			<g transform=" matrix(0.707107,0.707107,-0.707107,0.707107,1295.811067,251.827897)">
				<text style="font-family: Helvetica; font-size: 10px;fill: rgb(0%,0%,0%); stroke:none;" transform="translate(0,0) scale(1,-1)" x="0" y="0">Gene_01964</text>
			</g>
			<g transform=" matrix(0.707107,0.707107,-0.707107,0.707107,1328.221315,251.827897)">
				<text style="font-family: Helvetica; font-size: 10px;fill: rgb(0%,0%,0%); stroke:none;" transform="translate(0,0) scale(1,-1)" x="0" y="0">Gene_01965</text>
			</g>
			<g transform=" matrix(0.707107,-0.707107,0.707107,0.707107,94.527837,456.833521)">
				<text style="font-family: Helvetica; font-size: 10px;fill: rgb(0%,0%,0%); stroke:none;" transform="translate(0,0) scale(1,-1)" x="0" y="0">Gene_02144</text>
			</g>
			<g transform=" matrix(0.707107,-0.707107,0.707107,0.707107,113.575317,456.833521)">
				<text style="font-family: Helvetica; font-size: 10px;fill: rgb(0%,0%,0%); stroke:none;" transform="translate(0,0) scale(1,-1)" x="0" y="0">Gene_02145</text>
			</g>
			<g transform=" matrix(0.707107,-0.707107,0.707107,0.707107,158.905367,456.833521)">
				<text style="font-family: Helvetica; font-size: 10px;fill: rgb(0%,0%,0%); stroke:none;" transform="translate(0,0) scale(1,-1)" x="0" y="0">Gene_02146</text>
			</g>
			<g transform=" matrix(0.707107,-0.707107,0.707107,0.707107,255.176352,456.833521)">
				<text style="font-family: Helvetica; font-size: 16px;fill: rgb(0%,0%,100%); stroke:none;" transform="translate(0,0) scale(1,-1)" x="0" y="0">Gene_02147 (81.1)</text>
			</g>
			<g transform=" matrix(0.707107,-0.707107,0.707107,0.707107,326.198352,456.833521)">
				<text style="font-family: Helvetica; font-size: 10px;fill: rgb(0%,0%,0%); stroke:none;" transform="translate(0,0) scale(1,-1)" x="0" y="0">Gene_02148</text>
			</g>
			<g transform=" matrix(1,0,-0,1,70,169.825647)">
				<text style="font-family: Helvetica; font-size: 12px;fill: rgb(60%,60%,60%); stroke:none;" transform="translate(0,0) scale(1,-1)" x="0" y="0">megahit_96408 (left 25003bp, right 5599bp)</text>
			</g>
			<g transform=" matrix(1,0,-0,1,70,456.833521)">
				<text style="font-family: Helvetica; font-size: 12px;fill: rgb(60%,60%,60%); stroke:none;" transform="translate(0,0) scale(1,-1)" x="0" y="0">megahit_135507 (left 1885bp, right 1083bp)</text>
			</g>
		</g>
	</g>
</svg>
