<?xml version="1.0" encoding="utf-8"?>
<!DOCTYPE svg
  PUBLIC '-//W3C//DTD SVG 1.0//EN'
  'http://www.w3.org/TR/2001/REC-SVG-20010904/DTD/svg10.dtd'>
<svg fill-rule="evenodd" height="708.6614173228346" preserveAspectRatio="xMinYMin meet" version="1.0" viewBox="0 0 1417 708" width="1417.3228346456692" xmlns="http://www.w3.org/2000/svg" xmlns:xlink="http://www.w3.org/1999/xlink">
	<title>...</title>
	<desc>...</desc>
	<clipPath id="clip">
		<rect height="708.6614173228346" width="1417.3228346456692" x="0" y="0"/>
	</clipPath>
	<g id="group" style="clip-path: url(#clip)" transform="scale(1,-1) translate(0,-708)">
		<g transform="">
			<polygon points="70.86614 169.8256, 1346.395 169.8256, 1346.395 251.8279, 70.86614 251.8279" style="stroke: rgb(96%,96%,96%); stroke-linecap: butt; stroke-width: 1; fill: rgb(96%,96%,96%); fill-rule: evenodd;"/>
			<polygon points="70.86614 456.8335, 269.6579 456.8335, 269.6579 538.8358, 70.86614 538.8358" style="stroke: rgb(96%,96%,96%); stroke-linecap: butt; stroke-width: 1; fill: rgb(96%,96%,96%); fill-rule: evenodd;"/>
			<polygon points="202.2698 456.8335, 269.5352 456.8335, 901.1068 251.8279, 831.5113 251.8279" style="stroke: rgb(100%,48%,48%); stroke-linecap: round; stroke-width: 1; fill: rgb(100%,48%,48%); fill-rule: evenodd;"/>
			<polygon points="125.3162 456.8335, 187.0017 456.8335, 770.3163 251.8279, 708.0789 251.8279" style="stroke: rgb(100%,54%,54%); stroke-linecap: round; stroke-width: 1; fill: rgb(100%,54%,54%); fill-rule: evenodd;"/>
			<polygon points="70.98878 456.8335, 107.4728 456.8335, 696.0606 251.8279, 659.638 251.8279" style="stroke: rgb(100%,49%,49%); stroke-linecap: round; stroke-width: 1; fill: rgb(100%,49%,49%); fill-rule: evenodd;"/>
			<polygon points="156.3429 200.5765, 87.26659 200.5765, 87.26659 210.8268, 70.86614 190.3262, 87.26659 169.8256, 87.26659 180.0759, 156.3429 180.0759" style="stroke: rgb(56%,93%,56%); stroke-linecap: round; stroke-width: 1; fill: rgb(56%,93%,56%); fill-rule: evenodd;"/>
			<polygon points="215.1465 200.5765, 186.5398 200.5765, 186.5398 210.8268, 170.1394 190.3262, 186.5398 169.8256, 186.5398 180.0759, 215.1465 180.0759" style="stroke: rgb(56%,93%,56%); stroke-linecap: round; stroke-width: 1; fill: rgb(56%,93%,56%); fill-rule: evenodd;"/>
			<polygon points="457.0445 200.5765, 248.5319 200.5765, 248.5319 210.8268, 232.1315 190.3262, 248.5319 169.8256, 248.5319 180.0759, 457.0445 180.0759" style="stroke: rgb(56%,93%,56%); stroke-linecap: round; stroke-width: 1; fill: rgb(56%,93%,56%); fill-rule: evenodd;"/>
			<polygon points="694.6503 200.5765, 474.5487 200.5765, 474.5487 210.8268, 458.1483 190.3262, 474.5487 169.8256, 474.5487 180.0759, 694.6503 180.0759" style="stroke: rgb(56%,93%,56%); stroke-linecap: round; stroke-width: 1; fill: rgb(56%,93%,56%); fill-rule: evenodd;"/>
			<polygon points="731.073 200.5765, 724.5407 200.5765, 724.5407 210.8268, 708.1402 190.3262, 724.5407 169.8256, 724.5407 180.0759, 731.073 180.0759" style="stroke: rgb(56%,93%,56%); stroke-linecap: round; stroke-width: 1; fill: rgb(56%,93%,56%); fill-rule: evenodd;"/>
			<polygon points="768.6607 200.5765, 752.011 200.5765, 752.011 210.8268, 735.6105 190.3262, 752.011 169.8256, 752.011 180.0759, 768.6607 180.0759" style="stroke: rgb(56%,93%,56%); stroke-linecap: round; stroke-width: 1; fill: rgb(56%,93%,56%); fill-rule: evenodd;"/>
			<polygon points="811.4604 200.5765, 799.7774 200.5765, 799.7774 210.8268, 783.3769 190.3262, 799.7774 169.8256, 799.7774 180.0759, 811.4604 180.0759" style="stroke: rgb(56%,93%,56%); stroke-linecap: round; stroke-width: 1; fill: rgb(56%,93%,56%); fill-rule: evenodd;"/>
			<polygon points="872.8394 200.5765, 846.808 200.5765, 846.808 210.8268, 830.4076 190.3262, 846.808 169.8256, 846.808 180.0759, 872.8394 180.0759" style="stroke: rgb(56%,93%,56%); stroke-linecap: round; stroke-width: 1; fill: rgb(56%,93%,56%); fill-rule: evenodd;"/>
			<polygon points="905.3377 200.5765, 895.6782 200.5765, 895.6782 210.8268, 879.2777 190.3262, 895.6782 169.8256, 895.6782 180.0759, 905.3377 180.0759" style="stroke: rgb(56%,93%,56%); stroke-linecap: round; stroke-width: 1; fill: rgb(56%,93%,56%); fill-rule: evenodd;"/>
			<polygon points="940.5953 200.5765, 925.2333 200.5765, 925.2333 210.8268, 908.8328 190.3262, 925.2333 169.8256, 925.2333 180.0759, 940.5953 180.0759" style="stroke: rgb(56%,93%,56%); stroke-linecap: round; stroke-width: 1; fill: rgb(56%,93%,56%); fill-rule: evenodd;"/>
			<polygon points="954.3305 200.5765, 954.3305 210.8268, 941.6991 190.3262, 954.3305 169.8256, 954.3305 180.0759" style="stroke: rgb(56%,93%,56%); stroke-linecap: round; stroke-width: 1; fill: rgb(56%,93%,56%); fill-rule: evenodd;"/>
			<polygon points="1091.069 200.5765, 992.744 200.5765, 992.744 210.8268, 976.3435 190.3262, 992.744 169.8256, 992.744 180.0759, 1091.069 180.0759" style="stroke: rgb(56%,93%,56%); stroke-linecap: round; stroke-width: 1; fill: rgb(56%,93%,56%); fill-rule: evenodd;"/>
			<polygon points="1124.793 200.5765, 1110.167 200.5765, 1110.167 210.8268, 1093.767 190.3262, 1110.167 169.8256, 1110.167 180.0759, 1124.793 180.0759" style="stroke: rgb(56%,93%,56%); stroke-linecap: round; stroke-width: 1; fill: rgb(56%,93%,56%); fill-rule: evenodd;"/>
			<polygon points="1222.166 200.5765, 1141.317 200.5765, 1141.317 210.8268, 1124.916 190.3262, 1141.317 169.8256, 1141.317 180.0759, 1222.166 180.0759" style="stroke: rgb(56%,93%,56%); stroke-linecap: round; stroke-width: 1; fill: rgb(56%,93%,56%); fill-rule: evenodd;"/>
			<polygon points="1267.847 200.5765, 1238.689 200.5765, 1238.689 210.8268, 1222.289 190.3262, 1238.689 169.8256, 1238.689 180.0759, 1267.847 180.0759" style="stroke: rgb(56%,93%,56%); stroke-linecap: round; stroke-width: 1; fill: rgb(56%,93%,56%); fill-rule: evenodd;"/>
			<polygon points="1346.395 200.5765, 1285.597 200.5765, 1285.597 210.8268, 1269.196 190.3262, 1285.597 169.8256, 1285.597 180.0759, 1346.395 180.0759" style="stroke: rgb(56%,93%,56%); stroke-linecap: round; stroke-width: 1; fill: rgb(56%,93%,56%); fill-rule: evenodd;"/>
			<polygon points="148.3103 487.5844, 141.778 487.5844, 141.778 497.8346, 125.3775 477.3341, 141.778 456.8335, 141.778 467.0838, 148.3103 467.0838" style="stroke: rgb(56%,93%,56%); stroke-linecap: round; stroke-width: 1; fill: rgb(56%,93%,56%); fill-rule: evenodd;"/>
			<polygon points="185.4075 487.5844, 167.2861 487.5844, 167.2861 497.8346, 150.8856 477.3341, 167.2861 456.8335, 167.2861 467.0838, 185.4075 467.0838" style="stroke: rgb(56%,93%,56%); stroke-linecap: round; stroke-width: 1; fill: rgb(56%,93%,56%); fill-rule: evenodd;"/>
			<polygon points="243.5979 487.5844, 217.5665 487.5844, 217.5665 497.8346, 201.1661 477.3341, 217.5665 456.8335, 217.5665 467.0838, 243.5979 467.0838" style="stroke: rgb(56%,93%,56%); stroke-linecap: round; stroke-width: 1; fill: rgb(56%,93%,56%); fill-rule: evenodd;"/>
			<polygon points="261.2574 487.5844, 261.2574 497.8346, 247.7062 477.3341, 261.2574 456.8335, 261.2574 467.0838" style="stroke: rgb(56%,93%,56%); stroke-linecap: round; stroke-width: 1; fill: rgb(56%,93%,56%); fill-rule: evenodd;"/>
			<path d="M 1346.395375,169.825647 L 1346.395375,251.827897 Z" style="stroke: rgb(0%,0%,0%); stroke-linecap: butt; stroke-width: 1;"/>
			<path d="M 70.866142,210.826772 L 1346.395375,210.826772 Z" style="stroke: rgb(0%,0%,0%); stroke-linecap: butt; stroke-width: 1;"/>
			<path d="M 70.866142,169.825647 L 70.866142,251.827897 Z" style="stroke: rgb(0%,0%,0%); stroke-linecap: butt; stroke-width: 1;"/>
			<path d="M 684.042391,210.826772 L 684.042391,231.327334 Z" style="stroke: rgb(0%,0%,0%); stroke-linecap: butt; stroke-width: 1;"/>
			<path d="M 1297.21864,210.826772 L 1297.21864,231.327334 Z" style="stroke: rgb(0%,0%,0%); stroke-linecap: butt; stroke-width: 1;"/>
			<path d="M 684.042391,210.826772 L 684.042391,223.127109 Z" style="stroke: rgb(0%,0%,0%); stroke-linecap: butt; stroke-width: 1;"/>
			<path d="M 1297.21864,210.826772 L 1297.21864,223.127109 Z" style="stroke: rgb(0%,0%,0%); stroke-linecap: butt; stroke-width: 1;"/>
			<path d="M 269.657882,456.833521 L 269.657882,538.835771 Z" style="stroke: rgb(0%,0%,0%); stroke-linecap: butt; stroke-width: 1;"/>
			<path d="M 70.866142,497.834646 L 269.657882,497.834646 Z" style="stroke: rgb(0%,0%,0%); stroke-linecap: butt; stroke-width: 1;"/>
			<path d="M 70.866142,456.833521 L 70.866142,538.835771 Z" style="stroke: rgb(0%,0%,0%); stroke-linecap: butt; stroke-width: 1;"/>
			<g transform=" matrix(0.707107,0.707107,-0.707107,0.707107,684.042391,231.327334)">
				<text style="font-family: Helvetica; font-size: 6px;fill: rgb(0%,0%,0%); stroke:none;" transform="translate(0,0) scale(1,-1)" x="0" y="0">10000</text>
			</g>
			<g transform=" matrix(0.707107,0.707107,-0.707107,0.707107,1297.21864,231.327334)">
				<text style="font-family: Helvetica; font-size: 6px;fill: rgb(0%,0%,0%); stroke:none;" transform="translate(0,0) scale(1,-1)" x="0" y="0">20000</text>
			</g>
			<g transform=" matrix(0.707107,-0.707107,0.707107,0.707107,113.604526,169.825647)">
				<text style="font-family: Helvetica; font-size: 10px;fill: rgb(0%,0%,0%); stroke:none;" transform="translate(0,0) scale(1,-1)" x="0" y="0">Gene_00576</text>
			</g>
			<g transform=" matrix(0.707107,-0.707107,0.707107,0.707107,192.642945,169.825647)">
				<text style="font-family: Helvetica; font-size: 10px;fill: rgb(0%,0%,0%); stroke:none;" transform="translate(0,0) scale(1,-1)" x="0" y="0">Gene_00577</text>
			</g>
			<g transform=" matrix(0.707107,-0.707107,0.707107,0.707107,344.588019,169.825647)">
				<text style="font-family: Helvetica; font-size: 10px;fill: rgb(0%,0%,0%); stroke:none;" transform="translate(0,0) scale(1,-1)" x="0" y="0">Gene_00578</text>
			</g>
			<g transform=" matrix(0.707107,-0.707107,0.707107,0.707107,576.3993,169.825647)">
				<text style="font-family: Helvetica; font-size: 10px;fill: rgb(0%,0%,0%); stroke:none;" transform="translate(0,0) scale(1,-1)" x="0" y="0">Gene_00579</text>
			</g>
			<g transform=" matrix(0.707107,-0.707107,0.707107,0.707107,719.606613,169.825647)">
				<text style="font-family: Helvetica; font-size: 16px;fill: rgb(0%,0%,100%); stroke:none;" transform="translate(0,0) scale(1,-1)" x="0" y="0">Gene_00580 (81.3)</text>
			</g>
			<g transform=" matrix(0.707107,-0.707107,0.707107,0.707107,752.135613,169.825647)">
				<text style="font-family: Helvetica; font-size: 10px;fill: rgb(0%,0%,0%); stroke:none;" transform="translate(0,0) scale(1,-1)" x="0" y="0">Gene_00581</text>
			</g>
			<g transform=" matrix(0.707107,-0.707107,0.707107,0.707107,797.418679,169.825647)">
				<text style="font-family: Helvetica; font-size: 10px;fill: rgb(0%,0%,0%); stroke:none;" transform="translate(0,0) scale(1,-1)" x="0" y="0">Gene_00582</text>
			</g>
			<g transform=" matrix(0.707107,-0.707107,0.707107,0.707107,851.62346,169.825647)">
				<text style="font-family: Helvetica; font-size: 10px;fill: rgb(0%,0%,0%); stroke:none;" transform="translate(0,0) scale(1,-1)" x="0" y="0">Gene_00583</text>
			</g>
			<g transform=" matrix(0.707107,-0.707107,0.707107,0.707107,892.307704,169.825647)">
				<text style="font-family: Helvetica; font-size: 10px;fill: rgb(0%,0%,0%); stroke:none;" transform="translate(0,0) scale(1,-1)" x="0" y="0">Gene_00584</text>
			</g>
			<g transform=" matrix(0.707107,-0.707107,0.707107,0.707107,924.714069,169.825647)">
				<text style="font-family: Helvetica; font-size: 10px;fill: rgb(0%,0%,0%); stroke:none;" transform="translate(0,0) scale(1,-1)" x="0" y="0">Gene_00585</text>
			</g>
			<g transform=" matrix(0.707107,-0.707107,0.707107,0.707107,948.014766,169.825647)">
				<text style="font-family: Helvetica; font-size: 10px;fill: rgb(0%,0%,0%); stroke:none;" transform="translate(0,0) scale(1,-1)" x="0" y="0">Gene_00586</text>
			</g>
			<g transform=" matrix(0.707107,-0.707107,0.707107,0.707107,1033.706147,169.825647)">
				<text style="font-family: Helvetica; font-size: 10px;fill: rgb(0%,0%,0%); stroke:none;" transform="translate(0,0) scale(1,-1)" x="0" y="0">Gene_00587</text>
			</g>
			<g transform=" matrix(0.707107,-0.707107,0.707107,0.707107,1109.28012,169.825647)">
				<text style="font-family: Helvetica; font-size: 10px;fill: rgb(0%,0%,0%); stroke:none;" transform="translate(0,0) scale(1,-1)" x="0" y="0">Gene_00588</text>
			</g>
			<g transform=" matrix(0.707107,-0.707107,0.707107,0.707107,1173.540991,169.825647)">
				<text style="font-family: Helvetica; font-size: 10px;fill: rgb(0%,0%,0%); stroke:none;" transform="translate(0,0) scale(1,-1)" x="0" y="0">Gene_00589</text>
			</g>
			<g transform=" matrix(0.707107,-0.707107,0.707107,0.707107,1245.068,169.825647)">
				<text style="font-family: Helvetica; font-size: 10px;fill: rgb(0%,0%,0%); stroke:none;" transform="translate(0,0) scale(1,-1)" x="0" y="0">Gene_00590</text>
			</g>
			<g transform=" matrix(0.707107,-0.707107,0.707107,0.707107,1307.79593,169.825647)">
				<text style="font-family: Helvetica; font-size: 10px;fill: rgb(0%,0%,0%); stroke:none;" transform="translate(0,0) scale(1,-1)" x="0" y="0">Gene_00591</text>
			</g>
			<g transform=" matrix(0.707107,-0.707107,0.707107,0.707107,136.843906,456.833521)">
				<text style="font-family: Helvetica; font-size: 16px;fill: rgb(0%,0%,100%); stroke:none;" transform="translate(0,0) scale(1,-1)" x="0" y="0">Gene_00102 (81.3)</text>
			</g>
			<g transform=" matrix(0.707107,-0.707107,0.707107,0.707107,168.146554,456.833521)">
				<text style="font-family: Helvetica; font-size: 10px;fill: rgb(0%,0%,0%); stroke:none;" transform="translate(0,0) scale(1,-1)" x="0" y="0">Gene_00103</text>
			</g>
			<g transform=" matrix(0.707107,-0.707107,0.707107,0.707107,222.381993,456.833521)">
				<text style="font-family: Helvetica; font-size: 10px;fill: rgb(0%,0%,0%); stroke:none;" transform="translate(0,0) scale(1,-1)" x="0" y="0">Gene_00104</text>
			</g>
			<g transform=" matrix(0.707107,-0.707107,0.707107,0.707107,254.48177,456.833521)">
				<text style="font-family: Helvetica; font-size: 10px;fill: rgb(0%,0%,0%); stroke:none;" transform="translate(0,0) scale(1,-1)" x="0" y="0">Gene_00105</text>
			</g>
			<g transform=" matrix(1,0,-0,1,70,169.825647)">
				<text style="font-family: Helvetica; font-size: 12px;fill: rgb(60%,60%,60%); stroke:none;" transform="translate(0,0) scale(1,-1)" x="0" y="0">megahit_16463 (left 44566bp, right 43354bp)</text>
			</g>
		</g>
	</g>
</svg>
