<?xml version="1.0" encoding="utf-8"?>
<!DOCTYPE svg
  PUBLIC '-//W3C//DTD SVG 1.0//EN'
  'http://www.w3.org/TR/2001/REC-SVG-20010904/DTD/svg10.dtd'>
<svg fill-rule="evenodd" height="708.6614173228346" preserveAspectRatio="xMinYMin meet" version="1.0" viewBox="0 0 1417 708" width="1417.3228346456692" xmlns="http://www.w3.org/2000/svg" xmlns:xlink="http://www.w3.org/1999/xlink">
	<title>...</title>
	<desc>...</desc>
	<clipPath id="clip">
		<rect height="708.6614173228346" width="1417.3228346456692" x="0" y="0"/>
	</clipPath>
	<g id="group" style="clip-path: url(#clip)" transform="scale(1,-1) translate(0,-708)">
		<g transform="">
			<polygon points="70.86614 169.8256, 1346.385 169.8256, 1346.385 251.8279, 70.86614 251.8279" style="stroke: rgb(96%,96%,96%); stroke-linecap: butt; stroke-width: 1; fill: rgb(96%,96%,96%); fill-rule: evenodd;"/>
			<polygon points="70.86614 456.8335, 582.1667 456.8335, 582.1667 538.8358, 70.86614 538.8358" style="stroke: rgb(96%,96%,96%); stroke-linecap: butt; stroke-width: 1; fill: rgb(96%,96%,96%); fill-rule: evenodd;"/>
			<polygon points="261.7229 456.8335, 561.0962 456.8335, 682.7728 251.8279, 982.0742 251.8279" style="stroke: rgb(100%,35%,35%); stroke-linecap: round; stroke-width: 1; fill: rgb(100%,35%,35%); fill-rule: evenodd;"/>
			<polygon points="194.1967 456.8335, 247.2684 456.8335, 1039.317 251.8279, 1092.389 251.8279" style="stroke: rgb(100%,54%,54%); stroke-linecap: round; stroke-width: 1; fill: rgb(100%,54%,54%); fill-rule: evenodd;"/>
			<polygon points="70.86614 241.5776, 167.0093 241.5776, 167.0093 251.8279, 183.4098 231.3273, 167.0093 210.8268, 167.0093 221.0771, 70.86614 221.0771" style="stroke: rgb(67%,84%,90%); stroke-linecap: round; stroke-width: 1; fill: rgb(67%,84%,90%); fill-rule: evenodd;"/>
			<polygon points="187.1493 241.5776, 212.5302 241.5776, 212.5302 251.8279, 228.9306 231.3273, 212.5302 210.8268, 212.5302 221.0771, 187.1493 221.0771" style="stroke: rgb(67%,84%,90%); stroke-linecap: round; stroke-width: 1; fill: rgb(67%,84%,90%); fill-rule: evenodd;"/>
			<polygon points="233.8207 241.5776, 312.2733 241.5776, 312.2733 251.8279, 328.6738 231.3273, 312.2733 210.8268, 312.2733 221.0771, 233.8207 221.0771" style="stroke: rgb(67%,84%,90%); stroke-linecap: round; stroke-width: 1; fill: rgb(67%,84%,90%); fill-rule: evenodd;"/>
			<polygon points="340.1799 241.5776, 495.8669 241.5776, 495.8669 251.8279, 512.2674 231.3273, 495.8669 210.8268, 495.8669 221.0771, 340.1799 221.0771" style="stroke: rgb(67%,84%,90%); stroke-linecap: round; stroke-width: 1; fill: rgb(67%,84%,90%); fill-rule: evenodd;"/>
			<polygon points="514.209 241.5776, 542.3945 241.5776, 542.3945 251.8279, 558.795 231.3273, 542.3945 210.8268, 542.3945 221.0771, 514.209 221.0771" style="stroke: rgb(67%,84%,90%); stroke-linecap: round; stroke-width: 1; fill: rgb(67%,84%,90%); fill-rule: evenodd;"/>
			<polygon points="561.5277 241.5776, 594.4595 241.5776, 594.4595 251.8279, 610.8599 231.3273, 594.4595 210.8268, 594.4595 221.0771, 561.5277 221.0771" style="stroke: rgb(67%,84%,90%); stroke-linecap: round; stroke-width: 1; fill: rgb(67%,84%,90%); fill-rule: evenodd;"/>
			<polygon points="619.849 241.5776, 639.1893 241.5776, 639.1893 251.8279, 655.5897 231.3273, 639.1893 210.8268, 639.1893 221.0771, 619.849 221.0771" style="stroke: rgb(67%,84%,90%); stroke-linecap: round; stroke-width: 1; fill: rgb(67%,84%,90%); fill-rule: evenodd;"/>
			<polygon points="659.8326 241.5776, 659.8326 251.8279, 667.5273 231.3273, 659.8326 210.8268, 659.8326 221.0771" style="stroke: rgb(67%,84%,90%); stroke-linecap: round; stroke-width: 1; fill: rgb(67%,84%,90%); fill-rule: evenodd;"/>
			<polygon points="681.1907 241.5776, 725.5566 241.5776, 725.5566 251.8279, 741.9571 231.3273, 725.5566 210.8268, 725.5566 221.0771, 681.1907 221.0771" style="stroke: rgb(67%,84%,90%); stroke-linecap: round; stroke-width: 1; fill: rgb(67%,84%,90%); fill-rule: evenodd;"/>
			<polygon points="742.1009 241.5776, 848.3838 241.5776, 848.3838 251.8279, 864.7843 231.3273, 848.3838 210.8268, 848.3838 221.0771, 742.1009 221.0771" style="stroke: rgb(67%,84%,90%); stroke-linecap: round; stroke-width: 1; fill: rgb(67%,84%,90%); fill-rule: evenodd;"/>
			<polygon points="863.9213 241.5776, 907.64 241.5776, 907.64 251.8279, 924.0405 231.3273, 907.64 210.8268, 907.64 221.0771, 863.9213 221.0771" style="stroke: rgb(67%,84%,90%); stroke-linecap: round; stroke-width: 1; fill: rgb(67%,84%,90%); fill-rule: evenodd;"/>
			<polygon points="925.4068 241.5776, 966.1052 241.5776, 966.1052 251.8279, 982.5056 231.3273, 966.1052 210.8268, 966.1052 221.0771, 925.4068 221.0771" style="stroke: rgb(67%,84%,90%); stroke-linecap: round; stroke-width: 1; fill: rgb(67%,84%,90%); fill-rule: evenodd;"/>
			<polygon points="982.2899 241.5776, 1022.125 241.5776, 1022.125 251.8279, 1038.526 231.3273, 1022.125 210.8268, 1022.125 221.0771, 982.2899 221.0771" style="stroke: rgb(67%,84%,90%); stroke-linecap: round; stroke-width: 1; fill: rgb(67%,84%,90%); fill-rule: evenodd;"/>
			<polygon points="1039.317 241.5776, 1082.173 241.5776, 1082.173 251.8279, 1098.573 231.3273, 1082.173 210.8268, 1082.173 221.0771, 1039.317 221.0771" style="stroke: rgb(67%,84%,90%); stroke-linecap: round; stroke-width: 1; fill: rgb(67%,84%,90%); fill-rule: evenodd;"/>
			<polygon points="1103.391 241.5776, 1112.807 241.5776, 1112.807 251.8279, 1129.208 231.3273, 1112.807 210.8268, 1112.807 221.0771, 1103.391 221.0771" style="stroke: rgb(67%,84%,90%); stroke-linecap: round; stroke-width: 1; fill: rgb(67%,84%,90%); fill-rule: evenodd;"/>
			<polygon points="1343.436 200.5765, 1151.505 200.5765, 1151.505 210.8268, 1135.105 190.3262, 1151.505 169.8256, 1151.505 180.0759, 1343.436 180.0759" style="stroke: rgb(56%,93%,56%); stroke-linecap: round; stroke-width: 1; fill: rgb(56%,93%,56%); fill-rule: evenodd;"/>
			<polygon points="147.3814 487.5844, 94.81744 487.5844, 94.81744 497.8346, 78.41699 477.3341, 94.81744 456.8335, 94.81744 467.0838, 147.3814 467.0838" style="stroke: rgb(56%,93%,56%); stroke-linecap: round; stroke-width: 1; fill: rgb(56%,93%,56%); fill-rule: evenodd;"/>
			<polygon points="247.2684 487.5844, 204.4127 487.5844, 204.4127 497.8346, 188.0122 477.3341, 204.4127 456.8335, 204.4127 467.0838, 247.2684 467.0838" style="stroke: rgb(56%,93%,56%); stroke-linecap: round; stroke-width: 1; fill: rgb(56%,93%,56%); fill-rule: evenodd;"/>
			<polygon points="318.3903 487.5844, 277.4761 487.5844, 277.4761 497.8346, 261.0757 477.3341, 277.4761 456.8335, 277.4761 467.0838, 318.3903 467.0838" style="stroke: rgb(56%,93%,56%); stroke-linecap: round; stroke-width: 1; fill: rgb(56%,93%,56%); fill-rule: evenodd;"/>
			<polygon points="379.7319 487.5844, 336.0132 487.5844, 336.0132 497.8346, 319.6128 477.3341, 336.0132 456.8335, 336.0132 467.0838, 379.7319 467.0838" style="stroke: rgb(56%,93%,56%); stroke-linecap: round; stroke-width: 1; fill: rgb(56%,93%,56%); fill-rule: evenodd;"/>
			<polygon points="501.7681 487.5844, 396.5639 487.5844, 396.5639 497.8346, 380.1634 477.3341, 396.5639 456.8335, 396.5639 467.0838, 501.7681 467.0838" style="stroke: rgb(56%,93%,56%); stroke-linecap: round; stroke-width: 1; fill: rgb(56%,93%,56%); fill-rule: evenodd;"/>
			<polygon points="562.6783 487.5844, 518.3124 487.5844, 518.3124 497.8346, 501.9119 477.3341, 518.3124 456.8335, 518.3124 467.0838, 562.6783 467.0838" style="stroke: rgb(56%,93%,56%); stroke-linecap: round; stroke-width: 1; fill: rgb(56%,93%,56%); fill-rule: evenodd;"/>
			<path d="M 1346.38478,169.825647 L 1346.38478,251.827897 Z" style="stroke: rgb(0%,0%,0%); stroke-linecap: butt; stroke-width: 1;"/>
			<path d="M 70.866142,210.826772 L 1346.38478,210.826772 Z" style="stroke: rgb(0%,0%,0%); stroke-linecap: butt; stroke-width: 1;"/>
			<path d="M 70.866142,169.825647 L 70.866142,251.827897 Z" style="stroke: rgb(0%,0%,0%); stroke-linecap: butt; stroke-width: 1;"/>
			<path d="M 789.994877,210.826772 L 789.994877,231.327334 Z" style="stroke: rgb(0%,0%,0%); stroke-linecap: butt; stroke-width: 1;"/>
			<path d="M 789.994877,210.826772 L 789.994877,223.127109 Z" style="stroke: rgb(0%,0%,0%); stroke-linecap: butt; stroke-width: 1;"/>
			<path d="M 582.166673,456.833521 L 582.166673,538.835771 Z" style="stroke: rgb(0%,0%,0%); stroke-linecap: butt; stroke-width: 1;"/>
			<path d="M 70.866142,497.834646 L 582.166673,497.834646 Z" style="stroke: rgb(0%,0%,0%); stroke-linecap: butt; stroke-width: 1;"/>
			<path d="M 70.866142,456.833521 L 70.866142,538.835771 Z" style="stroke: rgb(0%,0%,0%); stroke-linecap: butt; stroke-width: 1;"/>
			<g transform=" matrix(0.707107,0.707107,-0.707107,0.707107,789.994877,231.327334)">
				<text style="font-family: Helvetica; font-size: 6px;fill: rgb(0%,0%,0%); stroke:none;" transform="translate(0,0) scale(1,-1)" x="0" y="0">10000</text>
			</g>
			<g transform=" matrix(0.707107,0.707107,-0.707107,0.707107,127.137965,251.827897)">
				<text style="font-family: Helvetica; font-size: 10px;fill: rgb(0%,0%,0%); stroke:none;" transform="translate(0,0) scale(1,-1)" x="0" y="0">Gene_00780</text>
			</g>
			<g transform=" matrix(0.707107,0.707107,-0.707107,0.707107,208.039948,251.827897)">
				<text style="font-family: Helvetica; font-size: 10px;fill: rgb(0%,0%,0%); stroke:none;" transform="translate(0,0) scale(1,-1)" x="0" y="0">Gene_00781</text>
			</g>
			<g transform=" matrix(0.707107,0.707107,-0.707107,0.707107,281.247253,251.827897)">
				<text style="font-family: Helvetica; font-size: 10px;fill: rgb(0%,0%,0%); stroke:none;" transform="translate(0,0) scale(1,-1)" x="0" y="0">Gene_00782</text>
			</g>
			<g transform=" matrix(0.707107,0.707107,-0.707107,0.707107,426.223606,251.827897)">
				<text style="font-family: Helvetica; font-size: 10px;fill: rgb(0%,0%,0%); stroke:none;" transform="translate(0,0) scale(1,-1)" x="0" y="0">Gene_00783</text>
			</g>
			<g transform=" matrix(0.707107,0.707107,-0.707107,0.707107,536.501998,251.827897)">
				<text style="font-family: Helvetica; font-size: 10px;fill: rgb(0%,0%,0%); stroke:none;" transform="translate(0,0) scale(1,-1)" x="0" y="0">Gene_00784</text>
			</g>
			<g transform=" matrix(0.707107,0.707107,-0.707107,0.707107,586.193794,251.827897)">
				<text style="font-family: Helvetica; font-size: 10px;fill: rgb(0%,0%,0%); stroke:none;" transform="translate(0,0) scale(1,-1)" x="0" y="0">Gene_00785</text>
			</g>
			<g transform=" matrix(0.707107,0.707107,-0.707107,0.707107,637.719368,251.827897)">
				<text style="font-family: Helvetica; font-size: 10px;fill: rgb(0%,0%,0%); stroke:none;" transform="translate(0,0) scale(1,-1)" x="0" y="0">Gene_00786</text>
			</g>
			<g transform=" matrix(0.707107,0.707107,-0.707107,0.707107,663.679915,251.827897)">
				<text style="font-family: Helvetica; font-size: 10px;fill: rgb(0%,0%,0%); stroke:none;" transform="translate(0,0) scale(1,-1)" x="0" y="0">Gene_00787</text>
			</g>
			<g transform=" matrix(0.707107,0.707107,-0.707107,0.707107,711.573889,251.827897)">
				<text style="font-family: Helvetica; font-size: 10px;fill: rgb(0%,0%,0%); stroke:none;" transform="translate(0,0) scale(1,-1)" x="0" y="0">Gene_00788</text>
			</g>
			<g transform=" matrix(0.707107,0.707107,-0.707107,0.707107,803.442585,251.827897)">
				<text style="font-family: Helvetica; font-size: 10px;fill: rgb(0%,0%,0%); stroke:none;" transform="translate(0,0) scale(1,-1)" x="0" y="0">Gene_00789</text>
			</g>
			<g transform=" matrix(0.707107,0.707107,-0.707107,0.707107,893.980892,251.827897)">
				<text style="font-family: Helvetica; font-size: 16px;fill: rgb(0%,0%,100%); stroke:none;" transform="translate(0,0) scale(1,-1)" x="0" y="0">Gene_00790 (88.9)</text>
			</g>
			<g transform=" matrix(0.707107,0.707107,-0.707107,0.707107,953.956229,251.827897)">
				<text style="font-family: Helvetica; font-size: 10px;fill: rgb(0%,0%,0%); stroke:none;" transform="translate(0,0) scale(1,-1)" x="0" y="0">Gene_00791</text>
			</g>
			<g transform=" matrix(0.707107,0.707107,-0.707107,0.707107,1010.407835,251.827897)">
				<text style="font-family: Helvetica; font-size: 10px;fill: rgb(0%,0%,0%); stroke:none;" transform="translate(0,0) scale(1,-1)" x="0" y="0">Gene_00792</text>
			</g>
			<g transform=" matrix(0.707107,0.707107,-0.707107,0.707107,1068.944914,251.827897)">
				<text style="font-family: Helvetica; font-size: 10px;fill: rgb(0%,0%,0%); stroke:none;" transform="translate(0,0) scale(1,-1)" x="0" y="0">Gene_00793</text>
			</g>
			<g transform=" matrix(0.707107,0.707107,-0.707107,0.707107,1116.299541,251.827897)">
				<text style="font-family: Helvetica; font-size: 10px;fill: rgb(0%,0%,0%); stroke:none;" transform="translate(0,0) scale(1,-1)" x="0" y="0">Gene_00794</text>
			</g>
			<g transform=" matrix(0.707107,-0.707107,0.707107,0.707107,1239.270555,169.825647)">
				<text style="font-family: Helvetica; font-size: 10px;fill: rgb(0%,0%,0%); stroke:none;" transform="translate(0,0) scale(1,-1)" x="0" y="0">Gene_00795</text>
			</g>
			<g transform=" matrix(0.707107,-0.707107,0.707107,0.707107,112.899216,456.833521)">
				<text style="font-family: Helvetica; font-size: 10px;fill: rgb(0%,0%,0%); stroke:none;" transform="translate(0,0) scale(1,-1)" x="0" y="0">Gene_00204</text>
			</g>
			<g transform=" matrix(0.707107,-0.707107,0.707107,0.707107,217.640317,456.833521)">
				<text style="font-family: Helvetica; font-size: 10px;fill: rgb(0%,0%,0%); stroke:none;" transform="translate(0,0) scale(1,-1)" x="0" y="0">Gene_00205</text>
			</g>
			<g transform=" matrix(0.707107,-0.707107,0.707107,0.707107,289.732972,456.833521)">
				<text style="font-family: Helvetica; font-size: 10px;fill: rgb(0%,0%,0%); stroke:none;" transform="translate(0,0) scale(1,-1)" x="0" y="0">Gene_00206</text>
			</g>
			<g transform=" matrix(0.707107,-0.707107,0.707107,0.707107,349.672353,456.833521)">
				<text style="font-family: Helvetica; font-size: 16px;fill: rgb(0%,0%,100%); stroke:none;" transform="translate(0,0) scale(1,-1)" x="0" y="0">Gene_00207 (88.9)</text>
			</g>
			<g transform=" matrix(0.707107,-0.707107,0.707107,0.707107,440.965746,456.833521)">
				<text style="font-family: Helvetica; font-size: 10px;fill: rgb(0%,0%,0%); stroke:none;" transform="translate(0,0) scale(1,-1)" x="0" y="0">Gene_00208</text>
			</g>
			<g transform=" matrix(0.707107,-0.707107,0.707107,0.707107,532.295095,456.833521)">
				<text style="font-family: Helvetica; font-size: 10px;fill: rgb(0%,0%,0%); stroke:none;" transform="translate(0,0) scale(1,-1)" x="0" y="0">Gene_00209</text>
			</g>
			<g transform=" matrix(1,0,-0,1,70,169.825647)">
				<text style="font-family: Helvetica; font-size: 12px;fill: rgb(60%,60%,60%); stroke:none;" transform="translate(0,0) scale(1,-1)" x="0" y="0">megahit_17300 (left 19384bp, right 5873bp)</text>
			</g>
			<g transform=" matrix(1,0,-0,1,70,456.833521)">
				<text style="font-family: Helvetica; font-size: 12px;fill: rgb(60%,60%,60%); stroke:none;" transform="translate(0,0) scale(1,-1)" x="0" y="0">megahit_11741 (left 3459bp, right 2815bp)</text>
			</g>
		</g>
	</g>
</svg>
