<?xml version="1.0" encoding="utf-8"?>
<!DOCTYPE svg
  PUBLIC '-//W3C//DTD SVG 1.0//EN'
  'http://www.w3.org/TR/2001/REC-SVG-20010904/DTD/svg10.dtd'>
<svg fill-rule="evenodd" height="708.6614173228346" preserveAspectRatio="xMinYMin meet" version="1.0" viewBox="0 0 1417 708" width="1417.3228346456692" xmlns="http://www.w3.org/2000/svg" xmlns:xlink="http://www.w3.org/1999/xlink">
	<title>...</title>
	<desc>...</desc>
	<clipPath id="clip">
		<rect height="708.6614173228346" width="1417.3228346456692" x="0" y="0"/>
	</clipPath>
	<g id="group" style="clip-path: url(#clip)" transform="scale(1,-1) translate(0,-708)">
		<g transform="">
			<polygon points="70.86614 169.8256, 1346.352 169.8256, 1346.352 251.8279, 70.86614 251.8279" style="stroke: rgb(96%,96%,96%); stroke-linecap: butt; stroke-width: 1; fill: rgb(96%,96%,96%); fill-rule: evenodd;"/>
			<polygon points="70.86614 456.8335, 1213.117 456.8335, 1213.117 538.8358, 70.86614 538.8358" style="stroke: rgb(96%,96%,96%); stroke-linecap: butt; stroke-width: 1; fill: rgb(96%,96%,96%); fill-rule: evenodd;"/>
			<polygon points="713.7495 456.8335, 1010.852 456.8335, 825.8974 251.8279, 1125.728 251.8279" style="stroke: rgb(100%,47%,47%); stroke-linecap: round; stroke-width: 1; fill: rgb(100%,47%,47%); fill-rule: evenodd;"/>
			<polygon points="466.3737 456.8335, 616.184 456.8335, 1200.738 251.8279, 1346.352 251.8279" style="stroke: rgb(100%,33%,33%); stroke-linecap: round; stroke-width: 1; fill: rgb(100%,33%,33%); fill-rule: evenodd;"/>
			<polygon points="1166.852 456.8335, 1213.012 456.8335, 772.7085 251.8279, 818.8685 251.8279" style="stroke: rgb(100%,12%,12%); stroke-linecap: round; stroke-width: 1; fill: rgb(100%,12%,12%); fill-rule: evenodd;"/>
			<polygon points="639.264 456.8335, 696.7542 456.8335, 1132.757 251.8279, 1190.247 251.8279" style="stroke: rgb(100%,43%,43%); stroke-linecap: round; stroke-width: 1; fill: rgb(100%,43%,43%); fill-rule: evenodd;"/>
			<polygon points="190.3577 200.5765, 87.26659 200.5765, 87.26659 210.8268, 70.86614 190.3262, 87.26659 169.8256, 87.26659 180.0759, 190.3577 180.0759" style="stroke: rgb(56%,93%,56%); stroke-linecap: round; stroke-width: 1; fill: rgb(56%,93%,56%); fill-rule: evenodd;"/>
			<polygon points="220.9912 241.5776, 357.4434 241.5776, 357.4434 251.8279, 373.8438 231.3273, 357.4434 210.8268, 357.4434 221.0771, 220.9912 221.0771" style="stroke: rgb(67%,84%,90%); stroke-linecap: round; stroke-width: 1; fill: rgb(67%,84%,90%); fill-rule: evenodd;"/>
			<polygon points="461.7577 200.5765, 400.8401 200.5765, 400.8401 210.8268, 384.4396 190.3262, 400.8401 169.8256, 400.8401 180.0759, 461.7577 180.0759" style="stroke: rgb(56%,93%,56%); stroke-linecap: round; stroke-width: 1; fill: rgb(56%,93%,56%); fill-rule: evenodd;"/>
			<polygon points="552.3992 200.5765, 484.2429 200.5765, 484.2429 210.8268, 467.8424 190.3262, 484.2429 169.8256, 484.2429 180.0759, 552.3992 180.0759" style="stroke: rgb(56%,93%,56%); stroke-linecap: round; stroke-width: 1; fill: rgb(56%,93%,56%); fill-rule: evenodd;"/>
			<polygon points="600.1329 200.5765, 570.0586 200.5765, 570.0586 210.8268, 553.6581 190.3262, 570.0586 169.8256, 570.0586 180.0759, 600.1329 180.0759" style="stroke: rgb(56%,93%,56%); stroke-linecap: round; stroke-width: 1; fill: rgb(56%,93%,56%); fill-rule: evenodd;"/>
			<polygon points="606.0078 241.5776, 611.5334 241.5776, 611.5334 251.8279, 627.9338 231.3273, 611.5334 210.8268, 611.5334 221.0771, 606.0078 221.0771" style="stroke: rgb(67%,84%,90%); stroke-linecap: round; stroke-width: 1; fill: rgb(67%,84%,90%); fill-rule: evenodd;"/>
			<polygon points="629.7173 241.5776, 667.345 241.5776, 667.345 251.8279, 683.7455 231.3273, 667.345 210.8268, 667.345 221.0771, 629.7173 221.0771" style="stroke: rgb(67%,84%,90%); stroke-linecap: round; stroke-width: 1; fill: rgb(67%,84%,90%); fill-rule: evenodd;"/>
			<polygon points="689.7253 241.5776, 717.9113 241.5776, 717.9113 251.8279, 734.3117 231.3273, 717.9113 210.8268, 717.9113 221.0771, 689.7253 221.0771" style="stroke: rgb(67%,84%,90%); stroke-linecap: round; stroke-width: 1; fill: rgb(67%,84%,90%); fill-rule: evenodd;"/>
			<polygon points="744.0683 241.5776, 798.0619 241.5776, 798.0619 251.8279, 814.4623 231.3273, 798.0619 210.8268, 798.0619 221.0771, 744.0683 221.0771" style="stroke: rgb(67%,84%,90%); stroke-linecap: round; stroke-width: 1; fill: rgb(67%,84%,90%); fill-rule: evenodd;"/>
			<polygon points="822.2256 241.5776, 994.8715 241.5776, 994.8715 251.8279, 1011.272 231.3273, 994.8715 210.8268, 994.8715 221.0771, 822.2256 221.0771" style="stroke: rgb(67%,84%,90%); stroke-linecap: round; stroke-width: 1; fill: rgb(67%,84%,90%); fill-rule: evenodd;"/>
			<polygon points="1031.519 241.5776, 1111.006 241.5776, 1111.006 251.8279, 1127.406 231.3273, 1111.006 210.8268, 1111.006 221.0771, 1031.519 221.0771" style="stroke: rgb(67%,84%,90%); stroke-linecap: round; stroke-width: 1; fill: rgb(67%,84%,90%); fill-rule: evenodd;"/>
			<polygon points="1132.757 241.5776, 1176.679 241.5776, 1176.679 251.8279, 1193.079 231.3273, 1176.679 210.8268, 1176.679 221.0771, 1132.757 221.0771" style="stroke: rgb(67%,84%,90%); stroke-linecap: round; stroke-width: 1; fill: rgb(67%,84%,90%); fill-rule: evenodd;"/>
			<polygon points="1256.969 200.5765, 1217.138 200.5765, 1217.138 210.8268, 1200.738 190.3262, 1217.138 169.8256, 1217.138 180.0759, 1256.969 180.0759" style="stroke: rgb(56%,93%,56%); stroke-linecap: round; stroke-width: 1; fill: rgb(56%,93%,56%); fill-rule: evenodd;"/>
			<polygon points="1327.993 200.5765, 1287.532 200.5765, 1287.532 210.8268, 1271.132 190.3262, 1287.532 169.8256, 1287.532 180.0759, 1327.993 180.0759" style="stroke: rgb(56%,93%,56%); stroke-linecap: round; stroke-width: 1; fill: rgb(56%,93%,56%); fill-rule: evenodd;"/>
			<polygon points="119.3342 528.5855, 213.9276 528.5855, 213.9276 538.8358, 230.3281 518.3352, 213.9276 497.8346, 213.9276 508.0849, 119.3342 508.0849" style="stroke: rgb(67%,84%,90%); stroke-linecap: round; stroke-width: 1; fill: rgb(67%,84%,90%); fill-rule: evenodd;"/>
			<polygon points="399.022 487.5844, 342.5106 487.5844, 342.5106 497.8346, 326.1101 477.3341, 342.5106 456.8335, 342.5106 467.0838, 399.022 467.0838" style="stroke: rgb(56%,93%,56%); stroke-linecap: round; stroke-width: 1; fill: rgb(56%,93%,56%); fill-rule: evenodd;"/>
			<polygon points="431.8586 528.5855, 455.9531 528.5855, 455.9531 538.8358, 472.3535 518.3352, 455.9531 497.8346, 455.9531 508.0849, 431.8586 508.0849" style="stroke: rgb(67%,84%,90%); stroke-linecap: round; stroke-width: 1; fill: rgb(67%,84%,90%); fill-rule: evenodd;"/>
			<polygon points="484.3132 528.5855, 524.7735 528.5855, 524.7735 538.8358, 541.1739 518.3352, 524.7735 497.8346, 524.7735 508.0849, 484.3132 508.0849" style="stroke: rgb(67%,84%,90%); stroke-linecap: round; stroke-width: 1; fill: rgb(67%,84%,90%); fill-rule: evenodd;"/>
			<polygon points="559.9527 528.5855, 599.7835 528.5855, 599.7835 538.8358, 616.184 518.3352, 599.7835 497.8346, 599.7835 508.0849, 559.9527 508.0849" style="stroke: rgb(67%,84%,90%); stroke-linecap: round; stroke-width: 1; fill: rgb(67%,84%,90%); fill-rule: evenodd;"/>
			<polygon points="696.7542 487.5844, 653.1466 487.5844, 653.1466 497.8346, 636.7462 477.3341, 653.1466 456.8335, 653.1466 467.0838, 696.7542 467.0838" style="stroke: rgb(56%,93%,56%); stroke-linecap: round; stroke-width: 1; fill: rgb(56%,93%,56%); fill-rule: evenodd;"/>
			<polygon points="812.6789 487.5844, 728.7861 487.5844, 728.7861 497.8346, 712.3857 477.3341, 728.7861 456.8335, 728.7861 467.0838, 812.6789 467.0838" style="stroke: rgb(56%,93%,56%); stroke-linecap: round; stroke-width: 1; fill: rgb(56%,93%,56%); fill-rule: evenodd;"/>
			<polygon points="1014.524 487.5844, 845.655 487.5844, 845.655 497.8346, 829.2545 477.3341, 845.655 456.8335, 845.655 467.0838, 1014.524 467.0838" style="stroke: rgb(56%,93%,56%); stroke-linecap: round; stroke-width: 1; fill: rgb(56%,93%,56%); fill-rule: evenodd;"/>
			<polygon points="1035.506 528.5855, 1145.836 528.5855, 1145.836 538.8358, 1162.236 518.3352, 1145.836 497.8346, 1145.836 508.0849, 1035.506 508.0849" style="stroke: rgb(67%,84%,90%); stroke-linecap: round; stroke-width: 1; fill: rgb(67%,84%,90%); fill-rule: evenodd;"/>
			<polygon points="1206.403 487.5844, 1187.659 487.5844, 1187.659 497.8346, 1171.258 477.3341, 1187.659 456.8335, 1187.659 467.0838, 1206.403 467.0838" style="stroke: rgb(56%,93%,56%); stroke-linecap: round; stroke-width: 1; fill: rgb(56%,93%,56%); fill-rule: evenodd;"/>
			<path d="M 1346.351784,169.825647 L 1346.351784,251.827897 Z" style="stroke: rgb(0%,0%,0%); stroke-linecap: butt; stroke-width: 1;"/>
			<path d="M 70.866142,210.826772 L 1346.351784,210.826772 Z" style="stroke: rgb(0%,0%,0%); stroke-linecap: butt; stroke-width: 1;"/>
			<path d="M 70.866142,169.825647 L 70.866142,251.827897 Z" style="stroke: rgb(0%,0%,0%); stroke-linecap: butt; stroke-width: 1;"/>
			<path d="M 1119.957803,210.826772 L 1119.957803,231.327334 Z" style="stroke: rgb(0%,0%,0%); stroke-linecap: butt; stroke-width: 1;"/>
			<path d="M 1119.957803,210.826772 L 1119.957803,223.127109 Z" style="stroke: rgb(0%,0%,0%); stroke-linecap: butt; stroke-width: 1;"/>
			<path d="M 1213.117143,456.833521 L 1213.117143,538.835771 Z" style="stroke: rgb(0%,0%,0%); stroke-linecap: butt; stroke-width: 1;"/>
			<path d="M 70.866142,497.834646 L 1213.117143,497.834646 Z" style="stroke: rgb(0%,0%,0%); stroke-linecap: butt; stroke-width: 1;"/>
			<path d="M 70.866142,456.833521 L 70.866142,538.835771 Z" style="stroke: rgb(0%,0%,0%); stroke-linecap: butt; stroke-width: 1;"/>
			<path d="M 1119.957803,497.834646 L 1119.957803,518.335208 Z" style="stroke: rgb(0%,0%,0%); stroke-linecap: butt; stroke-width: 1;"/>
			<path d="M 1119.957803,497.834646 L 1119.957803,510.134983 Z" style="stroke: rgb(0%,0%,0%); stroke-linecap: butt; stroke-width: 1;"/>
			<g transform=" matrix(0.707107,0.707107,-0.707107,0.707107,1119.957803,231.327334)">
				<text style="font-family: Helvetica; font-size: 6px;fill: rgb(0%,0%,0%); stroke:none;" transform="translate(0,0) scale(1,-1)" x="0" y="0">10000</text>
			</g>
			<g transform=" matrix(0.707107,0.707107,-0.707107,0.707107,1119.957803,518.335208)">
				<text style="font-family: Helvetica; font-size: 6px;fill: rgb(0%,0%,0%); stroke:none;" transform="translate(0,0) scale(1,-1)" x="0" y="0">10000</text>
			</g>
			<g transform=" matrix(0.707107,-0.707107,0.707107,0.707107,130.611912,169.825647)">
				<text style="font-family: Helvetica; font-size: 10px;fill: rgb(0%,0%,0%); stroke:none;" transform="translate(0,0) scale(1,-1)" x="0" y="0">Gene_01073</text>
			</g>
			<g transform=" matrix(0.707107,0.707107,-0.707107,0.707107,297.417486,251.827897)">
				<text style="font-family: Helvetica; font-size: 10px;fill: rgb(0%,0%,0%); stroke:none;" transform="translate(0,0) scale(1,-1)" x="0" y="0">Gene_01074</text>
			</g>
			<g transform=" matrix(0.707107,-0.707107,0.707107,0.707107,423.098667,169.825647)">
				<text style="font-family: Helvetica; font-size: 10px;fill: rgb(0%,0%,0%); stroke:none;" transform="translate(0,0) scale(1,-1)" x="0" y="0">Gene_01075</text>
			</g>
			<g transform=" matrix(0.707107,-0.707107,0.707107,0.707107,510.12082,169.825647)">
				<text style="font-family: Helvetica; font-size: 10px;fill: rgb(0%,0%,0%); stroke:none;" transform="translate(0,0) scale(1,-1)" x="0" y="0">Gene_01076</text>
			</g>
			<g transform=" matrix(0.707107,-0.707107,0.707107,0.707107,576.895505,169.825647)">
				<text style="font-family: Helvetica; font-size: 10px;fill: rgb(0%,0%,0%); stroke:none;" transform="translate(0,0) scale(1,-1)" x="0" y="0">Gene_01077</text>
			</g>
			<g transform=" matrix(0.707107,0.707107,-0.707107,0.707107,616.970806,251.827897)">
				<text style="font-family: Helvetica; font-size: 10px;fill: rgb(0%,0%,0%); stroke:none;" transform="translate(0,0) scale(1,-1)" x="0" y="0">Gene_01078</text>
			</g>
			<g transform=" matrix(0.707107,0.707107,-0.707107,0.707107,656.73138,251.827897)">
				<text style="font-family: Helvetica; font-size: 10px;fill: rgb(0%,0%,0%); stroke:none;" transform="translate(0,0) scale(1,-1)" x="0" y="0">Gene_01079</text>
			</g>
			<g transform=" matrix(0.707107,0.707107,-0.707107,0.707107,712.018511,251.827897)">
				<text style="font-family: Helvetica; font-size: 10px;fill: rgb(0%,0%,0%); stroke:none;" transform="translate(0,0) scale(1,-1)" x="0" y="0">Gene_01080</text>
			</g>
			<g transform=" matrix(0.707107,0.707107,-0.707107,0.707107,779.265286,251.827897)">
				<text style="font-family: Helvetica; font-size: 10px;fill: rgb(0%,0%,0%); stroke:none;" transform="translate(0,0) scale(1,-1)" x="0" y="0">Gene_01081</text>
			</g>
			<g transform=" matrix(0.707107,0.707107,-0.707107,0.707107,916.748748,251.827897)">
				<text style="font-family: Helvetica; font-size: 10px;fill: rgb(0%,0%,0%); stroke:none;" transform="translate(0,0) scale(1,-1)" x="0" y="0">Gene_01082</text>
			</g>
			<g transform=" matrix(0.707107,0.707107,-0.707107,0.707107,1079.462865,251.827897)">
				<text style="font-family: Helvetica; font-size: 10px;fill: rgb(0%,0%,0%); stroke:none;" transform="translate(0,0) scale(1,-1)" x="0" y="0">Gene_01083</text>
			</g>
			<g transform=" matrix(0.707107,0.707107,-0.707107,0.707107,1162.918107,251.827897)">
				<text style="font-family: Helvetica; font-size: 10px;fill: rgb(0%,0%,0%); stroke:none;" transform="translate(0,0) scale(1,-1)" x="0" y="0">Gene_01084</text>
			</g>
			<g transform=" matrix(0.707107,-0.707107,0.707107,0.707107,1228.853518,169.825647)">
				<text style="font-family: Helvetica; font-size: 16px;fill: rgb(0%,0%,100%); stroke:none;" transform="translate(0,0) scale(1,-1)" x="0" y="0">Gene_01085 (87.0)</text>
			</g>
			<g transform=" matrix(0.707107,-0.707107,0.707107,0.707107,1299.562296,169.825647)">
				<text style="font-family: Helvetica; font-size: 10px;fill: rgb(0%,0%,0%); stroke:none;" transform="translate(0,0) scale(1,-1)" x="0" y="0">Gene_01086</text>
			</g>
			<g transform=" matrix(0.707107,0.707107,-0.707107,0.707107,174.831125,538.835771)">
				<text style="font-family: Helvetica; font-size: 10px;fill: rgb(0%,0%,0%); stroke:none;" transform="translate(0,0) scale(1,-1)" x="0" y="0">Gene_01434</text>
			</g>
			<g transform=" matrix(0.707107,-0.707107,0.707107,0.707107,362.566078,456.833521)">
				<text style="font-family: Helvetica; font-size: 10px;fill: rgb(0%,0%,0%); stroke:none;" transform="translate(0,0) scale(1,-1)" x="0" y="0">Gene_01435</text>
			</g>
			<g transform=" matrix(0.707107,0.707107,-0.707107,0.707107,452.106052,538.835771)">
				<text style="font-family: Helvetica; font-size: 10px;fill: rgb(0%,0%,0%); stroke:none;" transform="translate(0,0) scale(1,-1)" x="0" y="0">Gene_01436</text>
			</g>
			<g transform=" matrix(0.707107,0.707107,-0.707107,0.707107,512.74355,538.835771)">
				<text style="font-family: Helvetica; font-size: 10px;fill: rgb(0%,0%,0%); stroke:none;" transform="translate(0,0) scale(1,-1)" x="0" y="0">Gene_01437</text>
			</g>
			<g transform=" matrix(0.707107,0.707107,-0.707107,0.707107,588.068331,538.835771)">
				<text style="font-family: Helvetica; font-size: 16px;fill: rgb(0%,0%,100%); stroke:none;" transform="translate(0,0) scale(1,-1)" x="0" y="0">Gene_01438 (87.0)</text>
			</g>
			<g transform=" matrix(0.707107,-0.707107,0.707107,0.707107,666.750205,456.833521)">
				<text style="font-family: Helvetica; font-size: 10px;fill: rgb(0%,0%,0%); stroke:none;" transform="translate(0,0) scale(1,-1)" x="0" y="0">Gene_01439</text>
			</g>
			<g transform=" matrix(0.707107,-0.707107,0.707107,0.707107,762.532274,456.833521)">
				<text style="font-family: Helvetica; font-size: 10px;fill: rgb(0%,0%,0%); stroke:none;" transform="translate(0,0) scale(1,-1)" x="0" y="0">Gene_01440</text>
			</g>
			<g transform=" matrix(0.707107,-0.707107,0.707107,0.707107,921.889298,456.833521)">
				<text style="font-family: Helvetica; font-size: 10px;fill: rgb(0%,0%,0%); stroke:none;" transform="translate(0,0) scale(1,-1)" x="0" y="0">Gene_01441</text>
			</g>
			<g transform=" matrix(0.707107,0.707107,-0.707107,0.707107,1098.871061,538.835771)">
				<text style="font-family: Helvetica; font-size: 10px;fill: rgb(0%,0%,0%); stroke:none;" transform="translate(0,0) scale(1,-1)" x="0" y="0">Gene_01442</text>
			</g>
			<g transform=" matrix(0.707107,-0.707107,0.707107,0.707107,1188.830671,456.833521)">
				<text style="font-family: Helvetica; font-size: 10px;fill: rgb(0%,0%,0%); stroke:none;" transform="translate(0,0) scale(1,-1)" x="0" y="0">Gene_01443</text>
			</g>
			<g transform=" matrix(1,0,-0,1,70,169.825647)">
				<text style="font-family: Helvetica; font-size: 12px;fill: rgb(60%,60%,60%); stroke:none;" transform="translate(0,0) scale(1,-1)" x="0" y="0">megahit_30466 (left 12281bp, right 852bp)</text>
			</g>
			<g transform=" matrix(1,0,-0,1,70,456.833521)">
				<text style="font-family: Helvetica; font-size: 12px;fill: rgb(60%,60%,60%); stroke:none;" transform="translate(0,0) scale(1,-1)" x="0" y="0">megahit_62916 (left 4662bp, right 5690bp)</text>
			</g>
		</g>
	</g>
</svg>
