<?xml version="1.0" encoding="utf-8"?>
<!DOCTYPE svg
  PUBLIC '-//W3C//DTD SVG 1.0//EN'
  'http://www.w3.org/TR/2001/REC-SVG-20010904/DTD/svg10.dtd'>
<svg fill-rule="evenodd" height="708.6614173228346" preserveAspectRatio="xMinYMin meet" version="1.0" viewBox="0 0 1417 708" width="1417.3228346456692" xmlns="http://www.w3.org/2000/svg" xmlns:xlink="http://www.w3.org/1999/xlink">
	<title>...</title>
	<desc>...</desc>
	<clipPath id="clip">
		<rect height="708.6614173228346" width="1417.3228346456692" x="0" y="0"/>
	</clipPath>
	<g id="group" style="clip-path: url(#clip)" transform="scale(1,-1) translate(0,-708)">
		<g transform="">
			<polygon points="70.86614 169.8256, 1346.339 169.8256, 1346.339 251.8279, 70.86614 251.8279" style="stroke: rgb(96%,96%,96%); stroke-linecap: butt; stroke-width: 1; fill: rgb(96%,96%,96%); fill-rule: evenodd;"/>
			<polygon points="70.86614 456.8335, 795.3321 456.8335, 795.3321 538.8358, 70.86614 538.8358" style="stroke: rgb(96%,96%,96%); stroke-linecap: butt; stroke-width: 1; fill: rgb(96%,96%,96%); fill-rule: evenodd;"/>
			<polygon points="420.6002 456.8335, 516.0143 456.8335, 168.3927 251.8279, 71.10086 251.8279" style="stroke: rgb(100%,38%,38%); stroke-linecap: round; stroke-width: 1; fill: rgb(100%,38%,38%); fill-rule: evenodd;"/>
			<polygon points="84.12787 241.5776, 84.12787 251.8279, 97.74168 231.3273, 84.12787 210.8268, 84.12787 221.0771" style="stroke: rgb(67%,84%,90%); stroke-linecap: round; stroke-width: 1; fill: rgb(67%,84%,90%); fill-rule: evenodd;"/>
			<polygon points="168.3927 200.5765, 134.5628 200.5765, 134.5628 210.8268, 118.1624 190.3262, 134.5628 169.8256, 134.5628 180.0759, 168.3927 180.0759" style="stroke: rgb(56%,93%,56%); stroke-linecap: round; stroke-width: 1; fill: rgb(56%,93%,56%); fill-rule: evenodd;"/>
			<polygon points="208.9994 241.5776, 229.4501 241.5776, 229.4501 251.8279, 245.8505 231.3273, 229.4501 210.8268, 229.4501 221.0771, 208.9994 221.0771" style="stroke: rgb(67%,84%,90%); stroke-linecap: round; stroke-width: 1; fill: rgb(67%,84%,90%); fill-rule: evenodd;"/>
			<polygon points="258.5255 241.5776, 262.4284 241.5776, 262.4284 251.8279, 278.8288 231.3273, 262.4284 210.8268, 262.4284 221.0771, 258.5255 221.0771" style="stroke: rgb(67%,84%,90%); stroke-linecap: round; stroke-width: 1; fill: rgb(67%,84%,90%); fill-rule: evenodd;"/>
			<polygon points="296.3155 241.5776, 297.7539 241.5776, 297.7539 251.8279, 314.1543 231.3273, 297.7539 210.8268, 297.7539 221.0771, 296.3155 221.0771" style="stroke: rgb(67%,84%,90%); stroke-linecap: round; stroke-width: 1; fill: rgb(67%,84%,90%); fill-rule: evenodd;"/>
			<polygon points="314.2717 241.5776, 385.4221 241.5776, 385.4221 251.8279, 401.8226 231.3273, 385.4221 210.8268, 385.4221 221.0771, 314.2717 221.0771" style="stroke: rgb(67%,84%,90%); stroke-linecap: round; stroke-width: 1; fill: rgb(67%,84%,90%); fill-rule: evenodd;"/>
			<polygon points="414.9669 241.5776, 524.1421 241.5776, 524.1421 251.8279, 540.5426 231.3273, 524.1421 210.8268, 524.1421 221.0771, 414.9669 221.0771" style="stroke: rgb(67%,84%,90%); stroke-linecap: round; stroke-width: 1; fill: rgb(67%,84%,90%); fill-rule: evenodd;"/>
			<polygon points="580.0931 241.5776, 663.2143 241.5776, 663.2143 251.8279, 679.6147 231.3273, 663.2143 210.8268, 663.2143 221.0771, 580.0931 221.0771" style="stroke: rgb(67%,84%,90%); stroke-linecap: round; stroke-width: 1; fill: rgb(67%,84%,90%); fill-rule: evenodd;"/>
			<polygon points="717.7569 241.5776, 866.3652 241.5776, 866.3652 251.8279, 882.7656 231.3273, 866.3652 210.8268, 866.3652 221.0771, 717.7569 221.0771" style="stroke: rgb(67%,84%,90%); stroke-linecap: round; stroke-width: 1; fill: rgb(67%,84%,90%); fill-rule: evenodd;"/>
			<polygon points="907.7634 241.5776, 1329.939 241.5776, 1329.939 251.8279, 1346.339 231.3273, 1329.939 210.8268, 1329.939 221.0771, 907.7634 221.0771" style="stroke: rgb(67%,84%,90%); stroke-linecap: round; stroke-width: 1; fill: rgb(67%,84%,90%); fill-rule: evenodd;"/>
			<polygon points="128.7248 528.5855, 431.8968 528.5855, 431.8968 538.8358, 448.2973 518.3352, 431.8968 497.8346, 431.8968 508.0849, 128.7248 508.0849" style="stroke: rgb(67%,84%,90%); stroke-linecap: round; stroke-width: 1; fill: rgb(67%,84%,90%); fill-rule: evenodd;"/>
			<polygon points="516.0143 487.5844, 482.1845 487.5844, 482.1845 497.8346, 465.784 477.3341, 482.1845 456.8335, 482.1845 467.0838, 516.0143 467.0838" style="stroke: rgb(56%,93%,56%); stroke-linecap: round; stroke-width: 1; fill: rgb(56%,93%,56%); fill-rule: evenodd;"/>
			<polygon points="639.1254 487.5844, 569.0312 487.5844, 569.0312 497.8346, 552.6307 477.3341, 569.0312 456.8335, 569.0312 467.0838, 639.1254 467.0838" style="stroke: rgb(56%,93%,56%); stroke-linecap: round; stroke-width: 1; fill: rgb(56%,93%,56%); fill-rule: evenodd;"/>
			<polygon points="711.6541 528.5855, 777.1712 528.5855, 777.1712 538.8358, 793.5717 518.3352, 777.1712 497.8346, 777.1712 508.0849, 711.6541 508.0849" style="stroke: rgb(67%,84%,90%); stroke-linecap: round; stroke-width: 1; fill: rgb(67%,84%,90%); fill-rule: evenodd;"/>
			<path d="M 1346.339332,169.825647 L 1346.339332,251.827897 Z" style="stroke: rgb(0%,0%,0%); stroke-linecap: butt; stroke-width: 1;"/>
			<path d="M 70.866142,210.826772 L 1346.339332,210.826772 Z" style="stroke: rgb(0%,0%,0%); stroke-linecap: butt; stroke-width: 1;"/>
			<path d="M 70.866142,169.825647 L 70.866142,251.827897 Z" style="stroke: rgb(0%,0%,0%); stroke-linecap: butt; stroke-width: 1;"/>
			<path d="M 1244.470476,210.826772 L 1244.470476,231.327334 Z" style="stroke: rgb(0%,0%,0%); stroke-linecap: butt; stroke-width: 1;"/>
			<path d="M 1244.470476,210.826772 L 1244.470476,223.127109 Z" style="stroke: rgb(0%,0%,0%); stroke-linecap: butt; stroke-width: 1;"/>
			<path d="M 795.332097,456.833521 L 795.332097,538.835771 Z" style="stroke: rgb(0%,0%,0%); stroke-linecap: butt; stroke-width: 1;"/>
			<path d="M 70.866142,497.834646 L 795.332097,497.834646 Z" style="stroke: rgb(0%,0%,0%); stroke-linecap: butt; stroke-width: 1;"/>
			<path d="M 70.866142,456.833521 L 70.866142,538.835771 Z" style="stroke: rgb(0%,0%,0%); stroke-linecap: butt; stroke-width: 1;"/>
			<g transform=" matrix(0.707107,0.707107,-0.707107,0.707107,1244.470476,231.327334)">
				<text style="font-family: Helvetica; font-size: 6px;fill: rgb(0%,0%,0%); stroke:none;" transform="translate(0,0) scale(1,-1)" x="0" y="0">10000</text>
			</g>
			<g transform=" matrix(0.707107,0.707107,-0.707107,0.707107,90.934776,251.827897)">
				<text style="font-family: Helvetica; font-size: 10px;fill: rgb(0%,0%,0%); stroke:none;" transform="translate(0,0) scale(1,-1)" x="0" y="0">Gene_01158</text>
			</g>
			<g transform=" matrix(0.707107,-0.707107,0.707107,0.707107,143.277529,169.825647)">
				<text style="font-family: Helvetica; font-size: 16px;fill: rgb(0%,0%,100%); stroke:none;" transform="translate(0,0) scale(1,-1)" x="0" y="0">Gene_01159 (88.3)</text>
			</g>
			<g transform=" matrix(0.707107,0.707107,-0.707107,0.707107,227.42496,251.827897)">
				<text style="font-family: Helvetica; font-size: 10px;fill: rgb(0%,0%,0%); stroke:none;" transform="translate(0,0) scale(1,-1)" x="0" y="0">Gene_01160</text>
			</g>
			<g transform=" matrix(0.707107,0.707107,-0.707107,0.707107,268.677152,251.827897)">
				<text style="font-family: Helvetica; font-size: 10px;fill: rgb(0%,0%,0%); stroke:none;" transform="translate(0,0) scale(1,-1)" x="0" y="0">Gene_01161</text>
			</g>
			<g transform=" matrix(0.707107,0.707107,-0.707107,0.707107,305.234927,251.827897)">
				<text style="font-family: Helvetica; font-size: 10px;fill: rgb(0%,0%,0%); stroke:none;" transform="translate(0,0) scale(1,-1)" x="0" y="0">Gene_01162</text>
			</g>
			<g transform=" matrix(0.707107,0.707107,-0.707107,0.707107,358.047122,251.827897)">
				<text style="font-family: Helvetica; font-size: 10px;fill: rgb(0%,0%,0%); stroke:none;" transform="translate(0,0) scale(1,-1)" x="0" y="0">Gene_01163</text>
			</g>
			<g transform=" matrix(0.707107,0.707107,-0.707107,0.707107,477.754765,251.827897)">
				<text style="font-family: Helvetica; font-size: 10px;fill: rgb(0%,0%,0%); stroke:none;" transform="translate(0,0) scale(1,-1)" x="0" y="0">Gene_01164</text>
			</g>
			<g transform=" matrix(0.707107,0.707107,-0.707107,0.707107,629.853886,251.827897)">
				<text style="font-family: Helvetica; font-size: 10px;fill: rgb(0%,0%,0%); stroke:none;" transform="translate(0,0) scale(1,-1)" x="0" y="0">Gene_01165</text>
			</g>
			<g transform=" matrix(0.707107,0.707107,-0.707107,0.707107,800.261236,251.827897)">
				<text style="font-family: Helvetica; font-size: 10px;fill: rgb(0%,0%,0%); stroke:none;" transform="translate(0,0) scale(1,-1)" x="0" y="0">Gene_01166</text>
			</g>
			<g transform=" matrix(0.707107,0.707107,-0.707107,0.707107,1127.051363,251.827897)">
				<text style="font-family: Helvetica; font-size: 10px;fill: rgb(0%,0%,0%); stroke:none;" transform="translate(0,0) scale(1,-1)" x="0" y="0">Gene_01167</text>
			</g>
			<g transform=" matrix(0.707107,0.707107,-0.707107,0.707107,288.511066,538.835771)">
				<text style="font-family: Helvetica; font-size: 10px;fill: rgb(0%,0%,0%); stroke:none;" transform="translate(0,0) scale(1,-1)" x="0" y="0">Gene_00553</text>
			</g>
			<g transform=" matrix(0.707107,-0.707107,0.707107,0.707107,490.899133,456.833521)">
				<text style="font-family: Helvetica; font-size: 16px;fill: rgb(0%,0%,100%); stroke:none;" transform="translate(0,0) scale(1,-1)" x="0" y="0">Gene_00554 (88.3)</text>
			</g>
			<g transform=" matrix(0.707107,-0.707107,0.707107,0.707107,595.878041,456.833521)">
				<text style="font-family: Helvetica; font-size: 10px;fill: rgb(0%,0%,0%); stroke:none;" transform="translate(0,0) scale(1,-1)" x="0" y="0">Gene_00555</text>
			</g>
			<g transform=" matrix(0.707107,0.707107,-0.707107,0.707107,752.6129,538.835771)">
				<text style="font-family: Helvetica; font-size: 10px;fill: rgb(0%,0%,0%); stroke:none;" transform="translate(0,0) scale(1,-1)" x="0" y="0">Gene_00556</text>
			</g>
			<g transform=" matrix(1,0,-0,1,70,169.825647)">
				<text style="font-family: Helvetica; font-size: 12px;fill: rgb(60%,60%,60%); stroke:none;" transform="translate(0,0) scale(1,-1)" x="0" y="0">megahit_103237 (left 403bp, right 10568bp)</text>
			</g>
			<g transform=" matrix(1,0,-0,1,70,456.833521)">
				<text style="font-family: Helvetica; font-size: 12px;fill: rgb(60%,60%,60%); stroke:none;" transform="translate(0,0) scale(1,-1)" x="0" y="0">megahit_100218 (left 3365bp, right 2380bp)</text>
			</g>
		</g>
	</g>
</svg>
