<?xml version="1.0" encoding="utf-8"?>
<!DOCTYPE svg
  PUBLIC '-//W3C//DTD SVG 1.0//EN'
  'http://www.w3.org/TR/2001/REC-SVG-20010904/DTD/svg10.dtd'>
<svg fill-rule="evenodd" height="708.6614173228346" preserveAspectRatio="xMinYMin meet" version="1.0" viewBox="0 0 1417 708" width="1417.3228346456692" xmlns="http://www.w3.org/2000/svg" xmlns:xlink="http://www.w3.org/1999/xlink">
	<title>...</title>
	<desc>...</desc>
	<clipPath id="clip">
		<rect height="708.6614173228346" width="1417.3228346456692" x="0" y="0"/>
	</clipPath>
	<g id="group" style="clip-path: url(#clip)" transform="scale(1,-1) translate(0,-708)">
		<g transform="">
			<polygon points="70.86614 169.8256, 683.5685 169.8256, 683.5685 251.8279, 70.86614 251.8279" style="stroke: rgb(96%,96%,96%); stroke-linecap: butt; stroke-width: 1; fill: rgb(96%,96%,96%); fill-rule: evenodd;"/>
			<polygon points="70.86614 456.8335, 1346.396 456.8335, 1346.396 538.8358, 70.86614 538.8358" style="stroke: rgb(96%,96%,96%); stroke-linecap: butt; stroke-width: 1; fill: rgb(96%,96%,96%); fill-rule: evenodd;"/>
			<polygon points="381.9695 456.8335, 598.7552 456.8335, 286.9253 251.8279, 504.8611 251.8279" style="stroke: rgb(100%,41%,41%); stroke-linecap: round; stroke-width: 1; fill: rgb(100%,41%,41%); fill-rule: evenodd;"/>
			<polygon points="200.0537 456.8335, 371.9203 456.8335, 511.3387 251.8279, 683.5685 251.8279" style="stroke: rgb(100%,38%,38%); stroke-linecap: round; stroke-width: 1; fill: rgb(100%,38%,38%); fill-rule: evenodd;"/>
			<polygon points="691.8622 456.8335, 767.9581 456.8335, 209.1949 251.8279, 284.5643 251.8279" style="stroke: rgb(100%,38%,38%); stroke-linecap: round; stroke-width: 1; fill: rgb(100%,38%,38%); fill-rule: evenodd;"/>
			<polygon points="860.036 456.8335, 909.1321 456.8335, 74.55894 251.8279, 123.534 251.8279" style="stroke: rgb(100%,61%,61%); stroke-linecap: round; stroke-width: 1; fill: rgb(100%,61%,61%); fill-rule: evenodd;"/>
			<polygon points="818.9914 456.8335, 850.1684 456.8335, 127.9532 251.8279, 157.8589 251.8279" style="stroke: rgb(100%,59%,59%); stroke-linecap: round; stroke-width: 1; fill: rgb(100%,59%,59%); fill-rule: evenodd;"/>
			<polygon points="78.91766 241.5776, 108.4048 241.5776, 108.4048 251.8279, 124.8053 231.3273, 108.4048 210.8268, 108.4048 221.0771, 78.91766 221.0771" style="stroke: rgb(67%,84%,90%); stroke-linecap: round; stroke-width: 1; fill: rgb(67%,84%,90%); fill-rule: evenodd;"/>
			<polygon points="126.9846 241.5776, 145.0301 241.5776, 145.0301 251.8279, 161.4306 231.3273, 145.0301 210.8268, 145.0301 221.0771, 126.9846 221.0771" style="stroke: rgb(67%,84%,90%); stroke-linecap: round; stroke-width: 1; fill: rgb(67%,84%,90%); fill-rule: evenodd;"/>
			<polygon points="203.3832 200.5765, 201.5013 200.5765, 201.5013 210.8268, 185.1008 190.3262, 201.5013 169.8256, 201.5013 180.0759, 203.3832 180.0759" style="stroke: rgb(56%,93%,56%); stroke-linecap: round; stroke-width: 1; fill: rgb(56%,93%,56%); fill-rule: evenodd;"/>
			<polygon points="209.1949 241.5776, 222.8817 241.5776, 222.8817 251.8279, 239.2821 231.3273, 222.8817 210.8268, 222.8817 221.0771, 209.1949 221.0771" style="stroke: rgb(67%,84%,90%); stroke-linecap: round; stroke-width: 1; fill: rgb(67%,84%,90%); fill-rule: evenodd;"/>
			<polygon points="241.6431 241.5776, 268.0428 241.5776, 268.0428 251.8279, 284.4433 231.3273, 268.0428 210.8268, 268.0428 221.0771, 241.6431 221.0771" style="stroke: rgb(67%,84%,90%); stroke-linecap: round; stroke-width: 1; fill: rgb(67%,84%,90%); fill-rule: evenodd;"/>
			<polygon points="286.9253 241.5776, 332.7576 241.5776, 332.7576 251.8279, 349.1581 231.3273, 332.7576 210.8268, 332.7576 221.0771, 286.9253 221.0771" style="stroke: rgb(67%,84%,90%); stroke-linecap: round; stroke-width: 1; fill: rgb(67%,84%,90%); fill-rule: evenodd;"/>
			<polygon points="348.9765 241.5776, 369.9278 241.5776, 369.9278 251.8279, 386.3283 231.3273, 369.9278 210.8268, 369.9278 221.0771, 348.9765 221.0771" style="stroke: rgb(67%,84%,90%); stroke-linecap: round; stroke-width: 1; fill: rgb(67%,84%,90%); fill-rule: evenodd;"/>
			<polygon points="388.9314 241.5776, 416.0576 241.5776, 416.0576 251.8279, 432.458 231.3273, 416.0576 210.8268, 416.0576 221.0771, 388.9314 221.0771" style="stroke: rgb(67%,84%,90%); stroke-linecap: round; stroke-width: 1; fill: rgb(67%,84%,90%); fill-rule: evenodd;"/>
			<polygon points="433.1845 241.5776, 488.4607 241.5776, 488.4607 251.8279, 504.8611 231.3273, 488.4607 210.8268, 488.4607 221.0771, 433.1845 221.0771" style="stroke: rgb(67%,84%,90%); stroke-linecap: round; stroke-width: 1; fill: rgb(67%,84%,90%); fill-rule: evenodd;"/>
			<polygon points="511.3387 241.5776, 572.7898 241.5776, 572.7898 251.8279, 589.1902 231.3273, 572.7898 210.8268, 572.7898 221.0771, 511.3387 221.0771" style="stroke: rgb(67%,84%,90%); stroke-linecap: round; stroke-width: 1; fill: rgb(67%,84%,90%); fill-rule: evenodd;"/>
			<polygon points="632.2325 200.5765, 594.0279 200.5765, 594.0279 210.8268, 577.6275 190.3262, 594.0279 169.8256, 594.0279 180.0759, 632.2325 180.0759" style="stroke: rgb(56%,93%,56%); stroke-linecap: round; stroke-width: 1; fill: rgb(56%,93%,56%); fill-rule: evenodd;"/>
			<polygon points="294.0082 487.5844, 87.26659 487.5844, 87.26659 497.8346, 70.86614 477.3341, 87.26659 456.8335, 87.26659 467.0838, 294.0082 467.0838" style="stroke: rgb(56%,93%,56%); stroke-linecap: round; stroke-width: 1; fill: rgb(56%,93%,56%); fill-rule: evenodd;"/>
			<polygon points="371.9203 487.5844, 310.6508 487.5844, 310.6508 497.8346, 294.2504 477.3341, 310.6508 456.8335, 310.6508 467.0838, 371.9203 467.0838" style="stroke: rgb(56%,93%,56%); stroke-linecap: round; stroke-width: 1; fill: rgb(56%,93%,56%); fill-rule: evenodd;"/>
			<polygon points="453.6462 487.5844, 398.37 487.5844, 398.37 497.8346, 381.9695 477.3341, 398.37 456.8335, 398.37 467.0838, 453.6462 467.0838" style="stroke: rgb(56%,93%,56%); stroke-linecap: round; stroke-width: 1; fill: rgb(56%,93%,56%); fill-rule: evenodd;"/>
			<polygon points="497.9598 487.5844, 470.8337 487.5844, 470.8337 497.8346, 454.4332 477.3341, 470.8337 456.8335, 470.8337 467.0838, 497.9598 467.0838" style="stroke: rgb(56%,93%,56%); stroke-linecap: round; stroke-width: 1; fill: rgb(56%,93%,56%); fill-rule: evenodd;"/>
			<polygon points="536.704 487.5844, 515.571 487.5844, 515.571 497.8346, 499.1706 477.3341, 515.571 456.8335, 515.571 467.0838, 536.704 467.0838" style="stroke: rgb(56%,93%,56%); stroke-linecap: round; stroke-width: 1; fill: rgb(56%,93%,56%); fill-rule: evenodd;"/>
			<polygon points="598.7552 487.5844, 552.9228 487.5844, 552.9228 497.8346, 536.5224 477.3341, 552.9228 456.8335, 552.9228 467.0838, 598.7552 467.0838" style="stroke: rgb(56%,93%,56%); stroke-linecap: round; stroke-width: 1; fill: rgb(56%,93%,56%); fill-rule: evenodd;"/>
			<polygon points="686.5954 487.5844, 616.4269 487.5844, 616.4269 497.8346, 600.0265 477.3341, 616.4269 456.8335, 616.4269 467.0838, 686.5954 467.0838" style="stroke: rgb(56%,93%,56%); stroke-linecap: round; stroke-width: 1; fill: rgb(56%,93%,56%); fill-rule: evenodd;"/>
			<polygon points="734.7834 487.5844, 708.3837 487.5844, 708.3837 497.8346, 691.9833 477.3341, 708.3837 456.8335, 708.3837 467.0838, 734.7834 467.0838" style="stroke: rgb(56%,93%,56%); stroke-linecap: round; stroke-width: 1; fill: rgb(56%,93%,56%); fill-rule: evenodd;"/>
			<polygon points="767.9581 487.5844, 754.8162 487.5844, 754.8162 497.8346, 738.4157 477.3341, 754.8162 456.8335, 754.8162 467.0838, 767.9581 467.0838" style="stroke: rgb(56%,93%,56%); stroke-linecap: round; stroke-width: 1; fill: rgb(56%,93%,56%); fill-rule: evenodd;"/>
			<polygon points="773.0433 528.5855, 774.3804 528.5855, 774.3804 538.8358, 790.7809 518.3352, 774.3804 497.8346, 774.3804 508.0849, 773.0433 508.0849" style="stroke: rgb(67%,84%,90%); stroke-linecap: round; stroke-width: 1; fill: rgb(67%,84%,90%); fill-rule: evenodd;"/>
			<polygon points="855.8589 487.5844, 827.2798 487.5844, 827.2798 497.8346, 810.8794 477.3341, 827.2798 456.8335, 827.2798 467.0838, 855.8589 467.0838" style="stroke: rgb(56%,93%,56%); stroke-linecap: round; stroke-width: 1; fill: rgb(56%,93%,56%); fill-rule: evenodd;"/>
			<polygon points="909.1321 487.5844, 875.2862 487.5844, 875.2862 497.8346, 858.8858 477.3341, 875.2862 456.8335, 875.2862 467.0838, 909.1321 467.0838" style="stroke: rgb(56%,93%,56%); stroke-linecap: round; stroke-width: 1; fill: rgb(56%,93%,56%); fill-rule: evenodd;"/>
			<polygon points="961.134 487.5844, 936.3688 487.5844, 936.3688 497.8346, 919.9684 477.3341, 936.3688 456.8335, 936.3688 467.0838, 961.134 467.0838" style="stroke: rgb(56%,93%,56%); stroke-linecap: round; stroke-width: 1; fill: rgb(56%,93%,56%); fill-rule: evenodd;"/>
			<polygon points="1011.562 487.5844, 977.3529 487.5844, 977.3529 497.8346, 960.9524 477.3341, 977.3529 456.8335, 977.3529 467.0838, 1011.562 467.0838" style="stroke: rgb(56%,93%,56%); stroke-linecap: round; stroke-width: 1; fill: rgb(56%,93%,56%); fill-rule: evenodd;"/>
			<polygon points="1076.579 487.5844, 1029.294 487.5844, 1029.294 497.8346, 1012.894 477.3341, 1029.294 456.8335, 1029.294 467.0838, 1076.579 467.0838" style="stroke: rgb(56%,93%,56%); stroke-linecap: round; stroke-width: 1; fill: rgb(56%,93%,56%); fill-rule: evenodd;"/>
			<polygon points="1096.194 528.5855, 1122.957 528.5855, 1122.957 538.8358, 1139.357 518.3352, 1122.957 497.8346, 1122.957 508.0849, 1096.194 508.0849" style="stroke: rgb(67%,84%,90%); stroke-linecap: round; stroke-width: 1; fill: rgb(67%,84%,90%); fill-rule: evenodd;"/>
			<polygon points="1162.18 528.5855, 1174.051 528.5855, 1174.051 538.8358, 1190.451 518.3352, 1174.051 497.8346, 1174.051 508.0849, 1162.18 508.0849" style="stroke: rgb(67%,84%,90%); stroke-linecap: round; stroke-width: 1; fill: rgb(67%,84%,90%); fill-rule: evenodd;"/>
			<polygon points="1199.713 528.5855, 1199.713 538.8358, 1212.729 518.3352, 1199.713 497.8346, 1199.713 508.0849" style="stroke: rgb(67%,84%,90%); stroke-linecap: round; stroke-width: 1; fill: rgb(67%,84%,90%); fill-rule: evenodd;"/>
			<polygon points="1213.395 528.5855, 1215.277 528.5855, 1215.277 538.8358, 1231.677 518.3352, 1215.277 497.8346, 1215.277 508.0849, 1213.395 508.0849" style="stroke: rgb(67%,84%,90%); stroke-linecap: round; stroke-width: 1; fill: rgb(67%,84%,90%); fill-rule: evenodd;"/>
			<polygon points="1231.98 528.5855, 1231.98 538.8358, 1246.993 518.3352, 1231.98 497.8346, 1231.98 508.0849" style="stroke: rgb(67%,84%,90%); stroke-linecap: round; stroke-width: 1; fill: rgb(67%,84%,90%); fill-rule: evenodd;"/>
			<polygon points="1247.599 528.5855, 1247.599 538.8358, 1260.796 518.3352, 1247.599 497.8346, 1247.599 508.0849" style="stroke: rgb(67%,84%,90%); stroke-linecap: round; stroke-width: 1; fill: rgb(67%,84%,90%); fill-rule: evenodd;"/>
			<polygon points="1262.672 528.5855, 1262.672 538.8358, 1274.598 518.3352, 1262.672 497.8346, 1262.672 508.0849" style="stroke: rgb(67%,84%,90%); stroke-linecap: round; stroke-width: 1; fill: rgb(67%,84%,90%); fill-rule: evenodd;"/>
			<polygon points="1275.446 528.5855, 1329.996 528.5855, 1329.996 538.8358, 1346.396 518.3352, 1329.996 497.8346, 1329.996 508.0849, 1275.446 508.0849" style="stroke: rgb(67%,84%,90%); stroke-linecap: round; stroke-width: 1; fill: rgb(67%,84%,90%); fill-rule: evenodd;"/>
			<path d="M 683.568527,169.825647 L 683.568527,251.827897 Z" style="stroke: rgb(0%,0%,0%); stroke-linecap: butt; stroke-width: 1;"/>
			<path d="M 70.866142,210.826772 L 683.568527,210.826772 Z" style="stroke: rgb(0%,0%,0%); stroke-linecap: butt; stroke-width: 1;"/>
			<path d="M 70.866142,169.825647 L 70.866142,251.827897 Z" style="stroke: rgb(0%,0%,0%); stroke-linecap: butt; stroke-width: 1;"/>
			<path d="M 676.243462,210.826772 L 676.243462,231.327334 Z" style="stroke: rgb(0%,0%,0%); stroke-linecap: butt; stroke-width: 1;"/>
			<path d="M 676.243462,210.826772 L 676.243462,223.127109 Z" style="stroke: rgb(0%,0%,0%); stroke-linecap: butt; stroke-width: 1;"/>
			<path d="M 1346.396155,456.833521 L 1346.396155,538.835771 Z" style="stroke: rgb(0%,0%,0%); stroke-linecap: butt; stroke-width: 1;"/>
			<path d="M 70.866142,497.834646 L 1346.396155,497.834646 Z" style="stroke: rgb(0%,0%,0%); stroke-linecap: butt; stroke-width: 1;"/>
			<path d="M 70.866142,456.833521 L 70.866142,538.835771 Z" style="stroke: rgb(0%,0%,0%); stroke-linecap: butt; stroke-width: 1;"/>
			<path d="M 676.243462,497.834646 L 676.243462,518.335208 Z" style="stroke: rgb(0%,0%,0%); stroke-linecap: butt; stroke-width: 1;"/>
			<path d="M 1281.620782,497.834646 L 1281.620782,518.335208 Z" style="stroke: rgb(0%,0%,0%); stroke-linecap: butt; stroke-width: 1;"/>
			<path d="M 676.243462,497.834646 L 676.243462,510.134983 Z" style="stroke: rgb(0%,0%,0%); stroke-linecap: butt; stroke-width: 1;"/>
			<path d="M 1281.620782,497.834646 L 1281.620782,510.134983 Z" style="stroke: rgb(0%,0%,0%); stroke-linecap: butt; stroke-width: 1;"/>
			<g transform=" matrix(0.707107,0.707107,-0.707107,0.707107,676.243462,231.327334)">
				<text style="font-family: Helvetica; font-size: 6px;fill: rgb(0%,0%,0%); stroke:none;" transform="translate(0,0) scale(1,-1)" x="0" y="0">10000</text>
			</g>
			<g transform=" matrix(0.707107,0.707107,-0.707107,0.707107,676.243462,518.335208)">
				<text style="font-family: Helvetica; font-size: 6px;fill: rgb(0%,0%,0%); stroke:none;" transform="translate(0,0) scale(1,-1)" x="0" y="0">10000</text>
			</g>
			<g transform=" matrix(0.707107,0.707107,-0.707107,0.707107,1281.620782,518.335208)">
				<text style="font-family: Helvetica; font-size: 6px;fill: rgb(0%,0%,0%); stroke:none;" transform="translate(0,0) scale(1,-1)" x="0" y="0">20000</text>
			</g>
			<g transform=" matrix(0.707107,0.707107,-0.707107,0.707107,101.861461,251.827897)">
				<text style="font-family: Helvetica; font-size: 10px;fill: rgb(0%,0%,0%); stroke:none;" transform="translate(0,0) scale(1,-1)" x="0" y="0">Gene_00772</text>
			</g>
			<g transform=" matrix(0.707107,0.707107,-0.707107,0.707107,144.207604,251.827897)">
				<text style="font-family: Helvetica; font-size: 10px;fill: rgb(0%,0%,0%); stroke:none;" transform="translate(0,0) scale(1,-1)" x="0" y="0">Gene_00773</text>
			</g>
			<g transform=" matrix(0.707107,-0.707107,0.707107,0.707107,194.24204,169.825647)">
				<text style="font-family: Helvetica; font-size: 10px;fill: rgb(0%,0%,0%); stroke:none;" transform="translate(0,0) scale(1,-1)" x="0" y="0">Gene_00774</text>
			</g>
			<g transform=" matrix(0.707107,0.707107,-0.707107,0.707107,224.238486,251.827897)">
				<text style="font-family: Helvetica; font-size: 10px;fill: rgb(0%,0%,0%); stroke:none;" transform="translate(0,0) scale(1,-1)" x="0" y="0">Gene_00775</text>
			</g>
			<g transform=" matrix(0.707107,0.707107,-0.707107,0.707107,263.043172,251.827897)">
				<text style="font-family: Helvetica; font-size: 16px;fill: rgb(0%,0%,100%); stroke:none;" transform="translate(0,0) scale(1,-1)" x="0" y="0">Gene_00776 (84.0)</text>
			</g>
			<g transform=" matrix(0.707107,0.707107,-0.707107,0.707107,318.041702,251.827897)">
				<text style="font-family: Helvetica; font-size: 10px;fill: rgb(0%,0%,0%); stroke:none;" transform="translate(0,0) scale(1,-1)" x="0" y="0">Gene_00777</text>
			</g>
			<g transform=" matrix(0.707107,0.707107,-0.707107,0.707107,367.652373,251.827897)">
				<text style="font-family: Helvetica; font-size: 10px;fill: rgb(0%,0%,0%); stroke:none;" transform="translate(0,0) scale(1,-1)" x="0" y="0">Gene_00778</text>
			</g>
			<g transform=" matrix(0.707107,0.707107,-0.707107,0.707107,410.6947,251.827897)">
				<text style="font-family: Helvetica; font-size: 10px;fill: rgb(0%,0%,0%); stroke:none;" transform="translate(0,0) scale(1,-1)" x="0" y="0">Gene_00779</text>
			</g>
			<g transform=" matrix(0.707107,0.707107,-0.707107,0.707107,469.022805,251.827897)">
				<text style="font-family: Helvetica; font-size: 10px;fill: rgb(0%,0%,0%); stroke:none;" transform="translate(0,0) scale(1,-1)" x="0" y="0">Gene_00780</text>
			</g>
			<g transform=" matrix(0.707107,0.707107,-0.707107,0.707107,550.264442,251.827897)">
				<text style="font-family: Helvetica; font-size: 10px;fill: rgb(0%,0%,0%); stroke:none;" transform="translate(0,0) scale(1,-1)" x="0" y="0">Gene_00781</text>
			</g>
			<g transform=" matrix(0.707107,-0.707107,0.707107,0.707107,604.930014,169.825647)">
				<text style="font-family: Helvetica; font-size: 10px;fill: rgb(0%,0%,0%); stroke:none;" transform="translate(0,0) scale(1,-1)" x="0" y="0">Gene_00782</text>
			</g>
			<g transform=" matrix(0.707107,-0.707107,0.707107,0.707107,182.437182,456.833521)">
				<text style="font-family: Helvetica; font-size: 10px;fill: rgb(0%,0%,0%); stroke:none;" transform="translate(0,0) scale(1,-1)" x="0" y="0">Gene_00868</text>
			</g>
			<g transform=" matrix(0.707107,-0.707107,0.707107,0.707107,333.085328,456.833521)">
				<text style="font-family: Helvetica; font-size: 10px;fill: rgb(0%,0%,0%); stroke:none;" transform="translate(0,0) scale(1,-1)" x="0" y="0">Gene_00869</text>
			</g>
			<g transform=" matrix(0.707107,-0.707107,0.707107,0.707107,417.807884,456.833521)">
				<text style="font-family: Helvetica; font-size: 10px;fill: rgb(0%,0%,0%); stroke:none;" transform="translate(0,0) scale(1,-1)" x="0" y="0">Gene_00870</text>
			</g>
			<g transform=" matrix(0.707107,-0.707107,0.707107,0.707107,476.196526,456.833521)">
				<text style="font-family: Helvetica; font-size: 10px;fill: rgb(0%,0%,0%); stroke:none;" transform="translate(0,0) scale(1,-1)" x="0" y="0">Gene_00871</text>
			</g>
			<g transform=" matrix(0.707107,-0.707107,0.707107,0.707107,517.937293,456.833521)">
				<text style="font-family: Helvetica; font-size: 10px;fill: rgb(0%,0%,0%); stroke:none;" transform="translate(0,0) scale(1,-1)" x="0" y="0">Gene_00872</text>
			</g>
			<g transform=" matrix(0.707107,-0.707107,0.707107,0.707107,567.638771,456.833521)">
				<text style="font-family: Helvetica; font-size: 10px;fill: rgb(0%,0%,0%); stroke:none;" transform="translate(0,0) scale(1,-1)" x="0" y="0">Gene_00873</text>
			</g>
			<g transform=" matrix(0.707107,-0.707107,0.707107,0.707107,643.310936,456.833521)">
				<text style="font-family: Helvetica; font-size: 10px;fill: rgb(0%,0%,0%); stroke:none;" transform="translate(0,0) scale(1,-1)" x="0" y="0">Gene_00874</text>
			</g>
			<g transform=" matrix(0.707107,-0.707107,0.707107,0.707107,713.38336,456.833521)">
				<text style="font-family: Helvetica; font-size: 16px;fill: rgb(0%,0%,100%); stroke:none;" transform="translate(0,0) scale(1,-1)" x="0" y="0">Gene_00875 (84.0)</text>
			</g>
			<g transform=" matrix(0.707107,-0.707107,0.707107,0.707107,753.186919,456.833521)">
				<text style="font-family: Helvetica; font-size: 10px;fill: rgb(0%,0%,0%); stroke:none;" transform="translate(0,0) scale(1,-1)" x="0" y="0">Gene_00876</text>
			</g>
			<g transform=" matrix(0.707107,0.707107,-0.707107,0.707107,781.912073,538.835771)">
				<text style="font-family: Helvetica; font-size: 10px;fill: rgb(0%,0%,0%); stroke:none;" transform="translate(0,0) scale(1,-1)" x="0" y="0">Gene_00877</text>
			</g>
			<g transform=" matrix(0.707107,-0.707107,0.707107,0.707107,833.369145,456.833521)">
				<text style="font-family: Helvetica; font-size: 10px;fill: rgb(0%,0%,0%); stroke:none;" transform="translate(0,0) scale(1,-1)" x="0" y="0">Gene_00878</text>
			</g>
			<g transform=" matrix(0.707107,-0.707107,0.707107,0.707107,884.008958,456.833521)">
				<text style="font-family: Helvetica; font-size: 10px;fill: rgb(0%,0%,0%); stroke:none;" transform="translate(0,0) scale(1,-1)" x="0" y="0">Gene_00879</text>
			</g>
			<g transform=" matrix(0.707107,-0.707107,0.707107,0.707107,940.5512,456.833521)">
				<text style="font-family: Helvetica; font-size: 10px;fill: rgb(0%,0%,0%); stroke:none;" transform="translate(0,0) scale(1,-1)" x="0" y="0">Gene_00880</text>
			</g>
			<g transform=" matrix(0.707107,-0.707107,0.707107,0.707107,986.257187,456.833521)">
				<text style="font-family: Helvetica; font-size: 10px;fill: rgb(0%,0%,0%); stroke:none;" transform="translate(0,0) scale(1,-1)" x="0" y="0">Gene_00881</text>
			</g>
			<g transform=" matrix(0.707107,-0.707107,0.707107,0.707107,1044.736637,456.833521)">
				<text style="font-family: Helvetica; font-size: 10px;fill: rgb(0%,0%,0%); stroke:none;" transform="translate(0,0) scale(1,-1)" x="0" y="0">Gene_00882</text>
			</g>
			<g transform=" matrix(0.707107,0.707107,-0.707107,0.707107,1117.77541,538.835771)">
				<text style="font-family: Helvetica; font-size: 10px;fill: rgb(0%,0%,0%); stroke:none;" transform="translate(0,0) scale(1,-1)" x="0" y="0">Gene_00883</text>
			</g>
			<g transform=" matrix(0.707107,0.707107,-0.707107,0.707107,1176.315397,538.835771)">
				<text style="font-family: Helvetica; font-size: 10px;fill: rgb(0%,0%,0%); stroke:none;" transform="translate(0,0) scale(1,-1)" x="0" y="0">Gene_00884</text>
			</g>
			<g transform=" matrix(0.707107,0.707107,-0.707107,0.707107,1206.221037,538.835771)">
				<text style="font-family: Helvetica; font-size: 10px;fill: rgb(0%,0%,0%); stroke:none;" transform="translate(0,0) scale(1,-1)" x="0" y="0">Gene_00885</text>
			</g>
			<g transform=" matrix(0.707107,0.707107,-0.707107,0.707107,1222.535955,538.835771)">
				<text style="font-family: Helvetica; font-size: 10px;fill: rgb(0%,0%,0%); stroke:none;" transform="translate(0,0) scale(1,-1)" x="0" y="0">Gene_00886</text>
			</g>
			<g transform=" matrix(0.707107,0.707107,-0.707107,0.707107,1239.48652,538.835771)">
				<text style="font-family: Helvetica; font-size: 10px;fill: rgb(0%,0%,0%); stroke:none;" transform="translate(0,0) scale(1,-1)" x="0" y="0">Gene_00887</text>
			</g>
			<g transform=" matrix(0.707107,0.707107,-0.707107,0.707107,1254.197189,538.835771)">
				<text style="font-family: Helvetica; font-size: 10px;fill: rgb(0%,0%,0%); stroke:none;" transform="translate(0,0) scale(1,-1)" x="0" y="0">Gene_00888</text>
			</g>
			<g transform=" matrix(0.707107,0.707107,-0.707107,0.707107,1268.635438,538.835771)">
				<text style="font-family: Helvetica; font-size: 10px;fill: rgb(0%,0%,0%); stroke:none;" transform="translate(0,0) scale(1,-1)" x="0" y="0">Gene_00889</text>
			</g>
			<g transform=" matrix(0.707107,0.707107,-0.707107,0.707107,1310.921044,538.835771)">
				<text style="font-family: Helvetica; font-size: 10px;fill: rgb(0%,0%,0%); stroke:none;" transform="translate(0,0) scale(1,-1)" x="0" y="0">Gene_00890</text>
			</g>
			<g transform=" matrix(1,0,-0,1,70,169.825647)">
				<text style="font-family: Helvetica; font-size: 12px;fill: rgb(60%,60%,60%); stroke:none;" transform="translate(0,0) scale(1,-1)" x="0" y="0">megahit_60197 (left 2821bp, right 6593bp)</text>
			</g>
			<g transform=" matrix(1,0,-0,1,70,456.833521)">
				<text style="font-family: Helvetica; font-size: 12px;fill: rgb(60%,60%,60%); stroke:none;" transform="translate(0,0) scale(1,-1)" x="0" y="0">megahit_56422 (left 24187bp, right 64262bp)</text>
			</g>
		</g>
	</g>
</svg>
