<?xml version="1.0" encoding="utf-8"?>
<!DOCTYPE svg
  PUBLIC '-//W3C//DTD SVG 1.0//EN'
  'http://www.w3.org/TR/2001/REC-SVG-20010904/DTD/svg10.dtd'>
<svg fill-rule="evenodd" height="708.6614173228346" preserveAspectRatio="xMinYMin meet" version="1.0" viewBox="0 0 1417 708" width="1417.3228346456692" xmlns="http://www.w3.org/2000/svg" xmlns:xlink="http://www.w3.org/1999/xlink">
	<title>...</title>
	<desc>...</desc>
	<clipPath id="clip">
		<rect height="708.6614173228346" width="1417.3228346456692" x="0" y="0"/>
	</clipPath>
	<g id="group" style="clip-path: url(#clip)" transform="scale(1,-1) translate(0,-708)">
		<g transform="">
			<polygon points="70.86614 169.8256, 1346.353 169.8256, 1346.353 251.8279, 70.86614 251.8279" style="stroke: rgb(96%,96%,96%); stroke-linecap: butt; stroke-width: 1; fill: rgb(96%,96%,96%); fill-rule: evenodd;"/>
			<polygon points="70.86614 456.8335, 224.1823 456.8335, 224.1823 538.8358, 70.86614 538.8358" style="stroke: rgb(96%,96%,96%); stroke-linecap: butt; stroke-width: 1; fill: rgb(96%,96%,96%); fill-rule: evenodd;"/>
			<polygon points="75.02387 456.8335, 210.15 456.8335, 981.8241 251.8279, 846.8019 251.8279" style="stroke: rgb(100%,20%,20%); stroke-linecap: round; stroke-width: 1; fill: rgb(100%,20%,20%); fill-rule: evenodd;"/>
			<polygon points="72.84106 241.5776, 299.8755 241.5776, 299.8755 251.8279, 316.276 231.3273, 299.8755 210.8268, 299.8755 221.0771, 72.84106 221.0771" style="stroke: rgb(67%,84%,90%); stroke-linecap: round; stroke-width: 1; fill: rgb(67%,84%,90%); fill-rule: evenodd;"/>
			<polygon points="316.5878 241.5776, 498.7188 241.5776, 498.7188 251.8279, 515.1192 231.3273, 498.7188 210.8268, 498.7188 221.0771, 316.5878 221.0771" style="stroke: rgb(67%,84%,90%); stroke-linecap: round; stroke-width: 1; fill: rgb(67%,84%,90%); fill-rule: evenodd;"/>
			<polygon points="526.1372 241.5776, 805.2472 241.5776, 805.2472 251.8279, 821.6476 231.3273, 805.2472 210.8268, 805.2472 221.0771, 526.1372 221.0771" style="stroke: rgb(67%,84%,90%); stroke-linecap: round; stroke-width: 1; fill: rgb(67%,84%,90%); fill-rule: evenodd;"/>
			<polygon points="946.1716 200.5765, 868.1916 200.5765, 868.1916 210.8268, 851.7912 190.3262, 868.1916 169.8256, 868.1916 180.0759, 946.1716 180.0759" style="stroke: rgb(56%,93%,56%); stroke-linecap: round; stroke-width: 1; fill: rgb(56%,93%,56%); fill-rule: evenodd;"/>
			<polygon points="980.3689 200.5765, 962.2602 200.5765, 962.2602 210.8268, 945.8597 190.3262, 962.2602 169.8256, 962.2602 180.0759, 980.3689 180.0759" style="stroke: rgb(56%,93%,56%); stroke-linecap: round; stroke-width: 1; fill: rgb(56%,93%,56%); fill-rule: evenodd;"/>
			<polygon points="996.3761 241.5776, 1009.496 241.5776, 1009.496 251.8279, 1025.896 231.3273, 1009.496 210.8268, 1009.496 221.0771, 996.3761 221.0771" style="stroke: rgb(67%,84%,90%); stroke-linecap: round; stroke-width: 1; fill: rgb(67%,84%,90%); fill-rule: evenodd;"/>
			<polygon points="1149.588 200.5765, 1051.028 200.5765, 1051.028 210.8268, 1034.627 190.3262, 1051.028 169.8256, 1051.028 180.0759, 1149.588 180.0759" style="stroke: rgb(56%,93%,56%); stroke-linecap: round; stroke-width: 1; fill: rgb(56%,93%,56%); fill-rule: evenodd;"/>
			<polygon points="1266.524 200.5765, 1167.652 200.5765, 1167.652 210.8268, 1151.251 190.3262, 1167.652 169.8256, 1167.652 180.0759, 1266.524 180.0759" style="stroke: rgb(56%,93%,56%); stroke-linecap: round; stroke-width: 1; fill: rgb(56%,93%,56%); fill-rule: evenodd;"/>
			<polygon points="1343.027 200.5765, 1281.262 200.5765, 1281.262 210.8268, 1264.861 190.3262, 1281.262 169.8256, 1281.262 180.0759, 1343.027 180.0759" style="stroke: rgb(56%,93%,56%); stroke-linecap: round; stroke-width: 1; fill: rgb(56%,93%,56%); fill-rule: evenodd;"/>
			<polygon points="174.4975 487.5844, 96.51753 487.5844, 96.51753 497.8346, 80.11708 477.3341, 96.51753 456.8335, 96.51753 467.0838, 174.4975 467.0838" style="stroke: rgb(56%,93%,56%); stroke-linecap: round; stroke-width: 1; fill: rgb(56%,93%,56%); fill-rule: evenodd;"/>
			<polygon points="208.6948 487.5844, 190.5861 487.5844, 190.5861 497.8346, 174.1857 477.3341, 190.5861 456.8335, 190.5861 467.0838, 208.6948 467.0838" style="stroke: rgb(56%,93%,56%); stroke-linecap: round; stroke-width: 1; fill: rgb(56%,93%,56%); fill-rule: evenodd;"/>
			<path d="M 1346.35275,169.825647 L 1346.35275,251.827897 Z" style="stroke: rgb(0%,0%,0%); stroke-linecap: butt; stroke-width: 1;"/>
			<path d="M 70.866142,210.826772 L 1346.35275,210.826772 Z" style="stroke: rgb(0%,0%,0%); stroke-linecap: butt; stroke-width: 1;"/>
			<path d="M 70.866142,169.825647 L 70.866142,251.827897 Z" style="stroke: rgb(0%,0%,0%); stroke-linecap: butt; stroke-width: 1;"/>
			<path d="M 1110.297816,210.826772 L 1110.297816,231.327334 Z" style="stroke: rgb(0%,0%,0%); stroke-linecap: butt; stroke-width: 1;"/>
			<path d="M 1110.297816,210.826772 L 1110.297816,223.127109 Z" style="stroke: rgb(0%,0%,0%); stroke-linecap: butt; stroke-width: 1;"/>
			<path d="M 224.182314,456.833521 L 224.182314,538.835771 Z" style="stroke: rgb(0%,0%,0%); stroke-linecap: butt; stroke-width: 1;"/>
			<path d="M 70.866142,497.834646 L 224.182314,497.834646 Z" style="stroke: rgb(0%,0%,0%); stroke-linecap: butt; stroke-width: 1;"/>
			<path d="M 70.866142,456.833521 L 70.866142,538.835771 Z" style="stroke: rgb(0%,0%,0%); stroke-linecap: butt; stroke-width: 1;"/>
			<g transform=" matrix(0.707107,0.707107,-0.707107,0.707107,1110.297816,231.327334)">
				<text style="font-family: Helvetica; font-size: 6px;fill: rgb(0%,0%,0%); stroke:none;" transform="translate(0,0) scale(1,-1)" x="0" y="0">10000</text>
			</g>
			<g transform=" matrix(0.707107,0.707107,-0.707107,0.707107,194.558511,251.827897)">
				<text style="font-family: Helvetica; font-size: 10px;fill: rgb(0%,0%,0%); stroke:none;" transform="translate(0,0) scale(1,-1)" x="0" y="0">Gene_01388</text>
			</g>
			<g transform=" matrix(0.707107,0.707107,-0.707107,0.707107,415.853515,251.827897)">
				<text style="font-family: Helvetica; font-size: 10px;fill: rgb(0%,0%,0%); stroke:none;" transform="translate(0,0) scale(1,-1)" x="0" y="0">Gene_01389</text>
			</g>
			<g transform=" matrix(0.707107,0.707107,-0.707107,0.707107,673.892428,251.827897)">
				<text style="font-family: Helvetica; font-size: 10px;fill: rgb(0%,0%,0%); stroke:none;" transform="translate(0,0) scale(1,-1)" x="0" y="0">Gene_01390</text>
			</g>
			<g transform=" matrix(0.707107,-0.707107,0.707107,0.707107,898.981357,169.825647)">
				<text style="font-family: Helvetica; font-size: 10px;fill: rgb(0%,0%,0%); stroke:none;" transform="translate(0,0) scale(1,-1)" x="0" y="0">Gene_01391</text>
			</g>
			<g transform=" matrix(0.707107,-0.707107,0.707107,0.707107,963.114291,169.825647)">
				<text style="font-family: Helvetica; font-size: 16px;fill: rgb(0%,0%,100%); stroke:none;" transform="translate(0,0) scale(1,-1)" x="0" y="0">Gene_01392 (97.3)</text>
			</g>
			<g transform=" matrix(0.707107,0.707107,-0.707107,0.707107,1011.136035,251.827897)">
				<text style="font-family: Helvetica; font-size: 10px;fill: rgb(0%,0%,0%); stroke:none;" transform="translate(0,0) scale(1,-1)" x="0" y="0">Gene_01393</text>
			</g>
			<g transform=" matrix(0.707107,-0.707107,0.707107,0.707107,1092.107762,169.825647)">
				<text style="font-family: Helvetica; font-size: 10px;fill: rgb(0%,0%,0%); stroke:none;" transform="translate(0,0) scale(1,-1)" x="0" y="0">Gene_01394</text>
			</g>
			<g transform=" matrix(0.707107,-0.707107,0.707107,0.707107,1208.887911,169.825647)">
				<text style="font-family: Helvetica; font-size: 10px;fill: rgb(0%,0%,0%); stroke:none;" transform="translate(0,0) scale(1,-1)" x="0" y="0">Gene_01395</text>
			</g>
			<g transform=" matrix(0.707107,-0.707107,0.707107,0.707107,1303.943937,169.825647)">
				<text style="font-family: Helvetica; font-size: 10px;fill: rgb(0%,0%,0%); stroke:none;" transform="translate(0,0) scale(1,-1)" x="0" y="0">Gene_01396</text>
			</g>
			<g transform=" matrix(0.707107,-0.707107,0.707107,0.707107,127.307282,456.833521)">
				<text style="font-family: Helvetica; font-size: 10px;fill: rgb(0%,0%,0%); stroke:none;" transform="translate(0,0) scale(1,-1)" x="0" y="0">Gene_00549</text>
			</g>
			<g transform=" matrix(0.707107,-0.707107,0.707107,0.707107,191.440216,456.833521)">
				<text style="font-family: Helvetica; font-size: 16px;fill: rgb(0%,0%,100%); stroke:none;" transform="translate(0,0) scale(1,-1)" x="0" y="0">Gene_00550 (97.3)</text>
			</g>
			<g transform=" matrix(1,0,-0,1,70,169.825647)">
				<text style="font-family: Helvetica; font-size: 12px;fill: rgb(60%,60%,60%); stroke:none;" transform="translate(0,0) scale(1,-1)" x="0" y="0">megahit_2999 (left 8418bp, right 3521bp)</text>
			</g>
		</g>
	</g>
</svg>
