<?xml version="1.0" encoding="utf-8"?>
<!DOCTYPE svg
  PUBLIC '-//W3C//DTD SVG 1.0//EN'
  'http://www.w3.org/TR/2001/REC-SVG-20010904/DTD/svg10.dtd'>
<svg fill-rule="evenodd" height="708.6614173228346" preserveAspectRatio="xMinYMin meet" version="1.0" viewBox="0 0 1417 708" width="1417.3228346456692" xmlns="http://www.w3.org/2000/svg" xmlns:xlink="http://www.w3.org/1999/xlink">
	<title>...</title>
	<desc>...</desc>
	<clipPath id="clip">
		<rect height="708.6614173228346" width="1417.3228346456692" x="0" y="0"/>
	</clipPath>
	<g id="group" style="clip-path: url(#clip)" transform="scale(1,-1) translate(0,-708)">
		<g transform="">
			<polygon points="70.86614 169.8256, 1346.341 169.8256, 1346.341 251.8279, 70.86614 251.8279" style="stroke: rgb(96%,96%,96%); stroke-linecap: butt; stroke-width: 1; fill: rgb(96%,96%,96%); fill-rule: evenodd;"/>
			<polygon points="70.86614 456.8335, 303.6669 456.8335, 303.6669 538.8358, 70.86614 538.8358" style="stroke: rgb(96%,96%,96%); stroke-linecap: butt; stroke-width: 1; fill: rgb(96%,96%,96%); fill-rule: evenodd;"/>
			<polygon points="109.0283 456.8335, 265.5048 456.8335, 1189.864 251.8279, 1346.341 251.8279" style="stroke: rgb(100%,0%,0%); stroke-linecap: round; stroke-width: 1; fill: rgb(100%,0%,0%); fill-rule: evenodd;"/>
			<polygon points="174.7971 200.5765, 87.26659 200.5765, 87.26659 210.8268, 70.86614 190.3262, 87.26659 169.8256, 87.26659 180.0759, 174.7971 180.0759" style="stroke: rgb(56%,93%,56%); stroke-linecap: round; stroke-width: 1; fill: rgb(56%,93%,56%); fill-rule: evenodd;"/>
			<polygon points="263.9968 200.5765, 191.4296 200.5765, 191.4296 210.8268, 175.0291 190.3262, 191.4296 169.8256, 191.4296 180.0759, 263.9968 180.0759" style="stroke: rgb(56%,93%,56%); stroke-linecap: round; stroke-width: 1; fill: rgb(56%,93%,56%); fill-rule: evenodd;"/>
			<polygon points="520.4605 200.5765, 307.308 200.5765, 307.308 210.8268, 290.9075 190.3262, 307.308 169.8256, 307.308 180.0759, 520.4605 180.0759" style="stroke: rgb(56%,93%,56%); stroke-linecap: round; stroke-width: 1; fill: rgb(56%,93%,56%); fill-rule: evenodd;"/>
			<polygon points="565.0023 241.5776, 682.1115 241.5776, 682.1115 251.8279, 698.5119 231.3273, 682.1115 210.8268, 682.1115 221.0771, 565.0023 221.0771" style="stroke: rgb(67%,84%,90%); stroke-linecap: round; stroke-width: 1; fill: rgb(67%,84%,90%); fill-rule: evenodd;"/>
			<polygon points="702.4557 241.5776, 827.9164 241.5776, 827.9164 251.8279, 844.3169 231.3273, 827.9164 210.8268, 827.9164 221.0771, 702.4557 221.0771" style="stroke: rgb(67%,84%,90%); stroke-linecap: round; stroke-width: 1; fill: rgb(67%,84%,90%); fill-rule: evenodd;"/>
			<polygon points="855.1044 241.5776, 993.7884 241.5776, 993.7884 251.8279, 1010.189 231.3273, 993.7884 210.8268, 993.7884 221.0771, 855.1044 221.0771" style="stroke: rgb(67%,84%,90%); stroke-linecap: round; stroke-width: 1; fill: rgb(67%,84%,90%); fill-rule: evenodd;"/>
			<polygon points="1017.613 241.5776, 1091.92 241.5776, 1091.92 251.8279, 1108.32 231.3273, 1091.92 210.8268, 1091.92 221.0771, 1017.613 221.0771" style="stroke: rgb(67%,84%,90%); stroke-linecap: round; stroke-width: 1; fill: rgb(67%,84%,90%); fill-rule: evenodd;"/>
			<polygon points="1112.38 241.5776, 1174.16 241.5776, 1174.16 251.8279, 1190.56 231.3273, 1174.16 210.8268, 1174.16 221.0771, 1112.38 221.0771" style="stroke: rgb(67%,84%,90%); stroke-linecap: round; stroke-width: 1; fill: rgb(67%,84%,90%); fill-rule: evenodd;"/>
			<polygon points="1197.404 241.5776, 1219.514 241.5776, 1219.514 251.8279, 1235.914 231.3273, 1219.514 210.8268, 1219.514 221.0771, 1197.404 221.0771" style="stroke: rgb(67%,84%,90%); stroke-linecap: round; stroke-width: 1; fill: rgb(67%,84%,90%); fill-rule: evenodd;"/>
			<polygon points="1236.262 241.5776, 1324.836 241.5776, 1324.836 251.8279, 1341.237 231.3273, 1324.836 210.8268, 1324.836 221.0771, 1236.262 221.0771" style="stroke: rgb(67%,84%,90%); stroke-linecap: round; stroke-width: 1; fill: rgb(67%,84%,90%); fill-rule: evenodd;"/>
			<polygon points="219.107 487.5844, 130.5325 487.5844, 130.5325 497.8346, 114.1321 477.3341, 130.5325 456.8335, 130.5325 467.0838, 219.107 467.0838" style="stroke: rgb(56%,93%,56%); stroke-linecap: round; stroke-width: 1; fill: rgb(56%,93%,56%); fill-rule: evenodd;"/>
			<polygon points="257.9651 487.5844, 235.8554 487.5844, 235.8554 497.8346, 219.455 477.3341, 235.8554 456.8335, 235.8554 467.0838, 257.9651 467.0838" style="stroke: rgb(56%,93%,56%); stroke-linecap: round; stroke-width: 1; fill: rgb(56%,93%,56%); fill-rule: evenodd;"/>
			<path d="M 1346.340699,169.825647 L 1346.340699,251.827897 Z" style="stroke: rgb(0%,0%,0%); stroke-linecap: butt; stroke-width: 1;"/>
			<path d="M 70.866142,210.826772 L 1346.340699,210.826772 Z" style="stroke: rgb(0%,0%,0%); stroke-linecap: butt; stroke-width: 1;"/>
			<path d="M 70.866142,169.825647 L 70.866142,251.827897 Z" style="stroke: rgb(0%,0%,0%); stroke-linecap: butt; stroke-width: 1;"/>
			<path d="M 1230.810264,210.826772 L 1230.810264,231.327334 Z" style="stroke: rgb(0%,0%,0%); stroke-linecap: butt; stroke-width: 1;"/>
			<path d="M 1230.810264,210.826772 L 1230.810264,223.127109 Z" style="stroke: rgb(0%,0%,0%); stroke-linecap: butt; stroke-width: 1;"/>
			<path d="M 303.666927,456.833521 L 303.666927,538.835771 Z" style="stroke: rgb(0%,0%,0%); stroke-linecap: butt; stroke-width: 1;"/>
			<path d="M 70.866142,497.834646 L 303.666927,497.834646 Z" style="stroke: rgb(0%,0%,0%); stroke-linecap: butt; stroke-width: 1;"/>
			<path d="M 70.866142,456.833521 L 70.866142,538.835771 Z" style="stroke: rgb(0%,0%,0%); stroke-linecap: butt; stroke-width: 1;"/>
			<g transform=" matrix(0.707107,0.707107,-0.707107,0.707107,1230.810264,231.327334)">
				<text style="font-family: Helvetica; font-size: 6px;fill: rgb(0%,0%,0%); stroke:none;" transform="translate(0,0) scale(1,-1)" x="0" y="0">10000</text>
			</g>
			<g transform=" matrix(0.707107,-0.707107,0.707107,0.707107,122.831638,169.825647)">
				<text style="font-family: Helvetica; font-size: 10px;fill: rgb(0%,0%,0%); stroke:none;" transform="translate(0,0) scale(1,-1)" x="0" y="0">Gene_00594</text>
			</g>
			<g transform=" matrix(0.707107,-0.707107,0.707107,0.707107,219.512981,169.825647)">
				<text style="font-family: Helvetica; font-size: 10px;fill: rgb(0%,0%,0%); stroke:none;" transform="translate(0,0) scale(1,-1)" x="0" y="0">Gene_00595</text>
			</g>
			<g transform=" matrix(0.707107,-0.707107,0.707107,0.707107,405.684013,169.825647)">
				<text style="font-family: Helvetica; font-size: 10px;fill: rgb(0%,0%,0%); stroke:none;" transform="translate(0,0) scale(1,-1)" x="0" y="0">Gene_00596</text>
			</g>
			<g transform=" matrix(0.707107,0.707107,-0.707107,0.707107,631.757122,251.827897)">
				<text style="font-family: Helvetica; font-size: 10px;fill: rgb(0%,0%,0%); stroke:none;" transform="translate(0,0) scale(1,-1)" x="0" y="0">Gene_00597</text>
			</g>
			<g transform=" matrix(0.707107,0.707107,-0.707107,0.707107,773.386299,251.827897)">
				<text style="font-family: Helvetica; font-size: 10px;fill: rgb(0%,0%,0%); stroke:none;" transform="translate(0,0) scale(1,-1)" x="0" y="0">Gene_00598</text>
			</g>
			<g transform=" matrix(0.707107,0.707107,-0.707107,0.707107,932.646627,251.827897)">
				<text style="font-family: Helvetica; font-size: 10px;fill: rgb(0%,0%,0%); stroke:none;" transform="translate(0,0) scale(1,-1)" x="0" y="0">Gene_00599</text>
			</g>
			<g transform=" matrix(0.707107,0.707107,-0.707107,0.707107,1062.966349,251.827897)">
				<text style="font-family: Helvetica; font-size: 10px;fill: rgb(0%,0%,0%); stroke:none;" transform="translate(0,0) scale(1,-1)" x="0" y="0">Gene_00600</text>
			</g>
			<g transform=" matrix(0.707107,0.707107,-0.707107,0.707107,1151.470086,251.827897)">
				<text style="font-family: Helvetica; font-size: 10px;fill: rgb(0%,0%,0%); stroke:none;" transform="translate(0,0) scale(1,-1)" x="0" y="0">Gene_00601</text>
			</g>
			<g transform=" matrix(0.707107,0.707107,-0.707107,0.707107,1216.658946,251.827897)">
				<text style="font-family: Helvetica; font-size: 10px;fill: rgb(0%,0%,0%); stroke:none;" transform="translate(0,0) scale(1,-1)" x="0" y="0">Gene_00602</text>
			</g>
			<g transform=" matrix(0.707107,0.707107,-0.707107,0.707107,1288.749473,251.827897)">
				<text style="font-family: Helvetica; font-size: 16px;fill: rgb(0%,0%,100%); stroke:none;" transform="translate(0,0) scale(1,-1)" x="0" y="0">Gene_00603 (99.8)</text>
			</g>
			<g transform=" matrix(0.707107,-0.707107,0.707107,0.707107,166.619529,456.833521)">
				<text style="font-family: Helvetica; font-size: 16px;fill: rgb(0%,0%,100%); stroke:none;" transform="translate(0,0) scale(1,-1)" x="0" y="0">Gene_01277 (99.8)</text>
			</g>
			<g transform=" matrix(0.707107,-0.707107,0.707107,0.707107,238.710056,456.833521)">
				<text style="font-family: Helvetica; font-size: 10px;fill: rgb(0%,0%,0%); stroke:none;" transform="translate(0,0) scale(1,-1)" x="0" y="0">Gene_01278</text>
			</g>
			<g transform=" matrix(1,0,-0,1,70,169.825647)">
				<text style="font-family: Helvetica; font-size: 12px;fill: rgb(60%,60%,60%); stroke:none;" transform="translate(0,0) scale(1,-1)" x="0" y="0">megahit_13222 (left 49912bp, right 44bp)</text>
			</g>
		</g>
	</g>
</svg>
