<?xml version="1.0" encoding="utf-8"?>
<!DOCTYPE svg
  PUBLIC '-//W3C//DTD SVG 1.0//EN'
  'http://www.w3.org/TR/2001/REC-SVG-20010904/DTD/svg10.dtd'>
<svg fill-rule="evenodd" height="708.6614173228346" preserveAspectRatio="xMinYMin meet" version="1.0" viewBox="0 0 1417 708" width="1417.3228346456692" xmlns="http://www.w3.org/2000/svg" xmlns:xlink="http://www.w3.org/1999/xlink">
	<title>...</title>
	<desc>...</desc>
	<clipPath id="clip">
		<rect height="708.6614173228346" width="1417.3228346456692" x="0" y="0"/>
	</clipPath>
	<g id="group" style="clip-path: url(#clip)" transform="scale(1,-1) translate(0,-708)">
		<g transform="">
			<polygon points="70.86614 169.8256, 1346.401 169.8256, 1346.401 251.8279, 70.86614 251.8279" style="stroke: rgb(96%,96%,96%); stroke-linecap: butt; stroke-width: 1; fill: rgb(96%,96%,96%); fill-rule: evenodd;"/>
			<polygon points="70.86614 456.8335, 851.0225 456.8335, 851.0225 538.8358, 70.86614 538.8358" style="stroke: rgb(96%,96%,96%); stroke-linecap: butt; stroke-width: 1; fill: rgb(96%,96%,96%); fill-rule: evenodd;"/>
			<polygon points="813.7401 456.8335, 851.0225 456.8335, 692.5168 251.8279, 729.7992 251.8279" style="stroke: rgb(100%,16%,16%); stroke-linecap: round; stroke-width: 1; fill: rgb(100%,16%,16%); fill-rule: evenodd;"/>
			<polygon points="758.6487 456.8335, 770.6323 456.8335, 783.1152 251.8279, 794.9879 251.8279" style="stroke: rgb(100%,20%,20%); stroke-linecap: round; stroke-width: 1; fill: rgb(100%,20%,20%); fill-rule: evenodd;"/>
			<polygon points="70.86614 241.5776, 159.7663 241.5776, 159.7663 251.8279, 176.1667 231.3273, 159.7663 210.8268, 159.7663 221.0771, 70.86614 221.0771" style="stroke: rgb(67%,84%,90%); stroke-linecap: round; stroke-width: 1; fill: rgb(67%,84%,90%); fill-rule: evenodd;"/>
			<polygon points="177.4982 241.5776, 201.8199 241.5776, 201.8199 251.8279, 218.2204 231.3273, 201.8199 210.8268, 201.8199 221.0771, 177.4982 221.0771" style="stroke: rgb(67%,84%,90%); stroke-linecap: round; stroke-width: 1; fill: rgb(67%,84%,90%); fill-rule: evenodd;"/>
			<polygon points="217.4991 241.5776, 217.4991 251.8279, 233.0889 231.3273, 217.4991 210.8268, 217.4991 221.0771" style="stroke: rgb(67%,84%,90%); stroke-linecap: round; stroke-width: 1; fill: rgb(67%,84%,90%); fill-rule: evenodd;"/>
			<polygon points="232.5342 241.5776, 256.1901 241.5776, 256.1901 251.8279, 272.5905 231.3273, 256.1901 210.8268, 256.1901 221.0771, 232.5342 221.0771" style="stroke: rgb(67%,84%,90%); stroke-linecap: round; stroke-width: 1; fill: rgb(67%,84%,90%); fill-rule: evenodd;"/>
			<polygon points="315.0325 200.5765, 291.8759 200.5765, 291.8759 210.8268, 275.4755 190.3262, 291.8759 169.8256, 291.8759 180.0759, 315.0325 180.0759" style="stroke: rgb(56%,93%,56%); stroke-linecap: round; stroke-width: 1; fill: rgb(56%,93%,56%); fill-rule: evenodd;"/>
			<polygon points="320.0812 241.5776, 419.9663 241.5776, 419.9663 251.8279, 436.3668 231.3273, 419.9663 210.8268, 419.9663 221.0771, 320.0812 221.0771" style="stroke: rgb(67%,84%,90%); stroke-linecap: round; stroke-width: 1; fill: rgb(67%,84%,90%); fill-rule: evenodd;"/>
			<polygon points="435.812 241.5776, 448.6494 241.5776, 448.6494 251.8279, 465.0498 231.3273, 448.6494 210.8268, 448.6494 221.0771, 435.812 221.0771" style="stroke: rgb(67%,84%,90%); stroke-linecap: round; stroke-width: 1; fill: rgb(67%,84%,90%); fill-rule: evenodd;"/>
			<polygon points="465.771 241.5776, 552.5075 241.5776, 552.5075 251.8279, 568.9079 231.3273, 552.5075 210.8268, 552.5075 221.0771, 465.771 221.0771" style="stroke: rgb(67%,84%,90%); stroke-linecap: round; stroke-width: 1; fill: rgb(67%,84%,90%); fill-rule: evenodd;"/>
			<polygon points="568.7415 241.5776, 568.7415 251.8279, 578.8388 231.3273, 568.7415 210.8268, 568.7415 221.0771" style="stroke: rgb(67%,84%,90%); stroke-linecap: round; stroke-width: 1; fill: rgb(67%,84%,90%); fill-rule: evenodd;"/>
			<polygon points="606.6896 241.5776, 619.3606 241.5776, 619.3606 251.8279, 635.761 231.3273, 619.3606 210.8268, 619.3606 221.0771, 606.6896 221.0771" style="stroke: rgb(67%,84%,90%); stroke-linecap: round; stroke-width: 1; fill: rgb(67%,84%,90%); fill-rule: evenodd;"/>
			<polygon points="637.8138 241.5776, 665.9636 241.5776, 665.9636 251.8279, 682.364 231.3273, 665.9636 210.8268, 665.9636 221.0771, 637.8138 221.0771" style="stroke: rgb(67%,84%,90%); stroke-linecap: round; stroke-width: 1; fill: rgb(67%,84%,90%); fill-rule: evenodd;"/>
			<polygon points="684.5832 241.5776, 713.3988 241.5776, 713.3988 251.8279, 729.7992 231.3273, 713.3988 210.8268, 713.3988 221.0771, 684.5832 221.0771" style="stroke: rgb(67%,84%,90%); stroke-linecap: round; stroke-width: 1; fill: rgb(67%,84%,90%); fill-rule: evenodd;"/>
			<polygon points="736.6787 241.5776, 770.1545 241.5776, 770.1545 251.8279, 786.555 231.3273, 770.1545 210.8268, 770.1545 221.0771, 736.6787 221.0771" style="stroke: rgb(67%,84%,90%); stroke-linecap: round; stroke-width: 1; fill: rgb(67%,84%,90%); fill-rule: evenodd;"/>
			<polygon points="810.3003 200.5765, 808.1151 200.5765, 808.1151 210.8268, 791.7146 190.3262, 808.1151 169.8256, 808.1151 180.0759, 810.3003 180.0759" style="stroke: rgb(56%,93%,56%); stroke-linecap: round; stroke-width: 1; fill: rgb(56%,93%,56%); fill-rule: evenodd;"/>
			<polygon points="890.3576 200.5765, 831.9159 200.5765, 831.9159 210.8268, 815.5154 190.3262, 831.9159 169.8256, 831.9159 180.0759, 890.3576 180.0759" style="stroke: rgb(56%,93%,56%); stroke-linecap: round; stroke-width: 1; fill: rgb(56%,93%,56%); fill-rule: evenodd;"/>
			<polygon points="906.4467 200.5765, 904.5944 200.5765, 904.5944 210.8268, 888.1939 190.3262, 904.5944 169.8256, 904.5944 180.0759, 906.4467 180.0759" style="stroke: rgb(56%,93%,56%); stroke-linecap: round; stroke-width: 1; fill: rgb(56%,93%,56%); fill-rule: evenodd;"/>
			<polygon points="922.9242 241.5776, 941.7534 241.5776, 941.7534 251.8279, 958.1539 231.3273, 941.7534 210.8268, 941.7534 221.0771, 922.9242 221.0771" style="stroke: rgb(67%,84%,90%); stroke-linecap: round; stroke-width: 1; fill: rgb(67%,84%,90%); fill-rule: evenodd;"/>
			<polygon points="973.4663 241.5776, 1054.71 241.5776, 1054.71 251.8279, 1071.111 231.3273, 1054.71 210.8268, 1054.71 221.0771, 973.4663 221.0771" style="stroke: rgb(67%,84%,90%); stroke-linecap: round; stroke-width: 1; fill: rgb(67%,84%,90%); fill-rule: evenodd;"/>
			<polygon points="1070.722 241.5776, 1150.635 241.5776, 1150.635 251.8279, 1167.035 231.3273, 1150.635 210.8268, 1150.635 221.0771, 1070.722 221.0771" style="stroke: rgb(67%,84%,90%); stroke-linecap: round; stroke-width: 1; fill: rgb(67%,84%,90%); fill-rule: evenodd;"/>
			<polygon points="1168.034 241.5776, 1203.34 241.5776, 1203.34 251.8279, 1219.741 231.3273, 1203.34 210.8268, 1203.34 221.0771, 1168.034 221.0771" style="stroke: rgb(67%,84%,90%); stroke-linecap: round; stroke-width: 1; fill: rgb(67%,84%,90%); fill-rule: evenodd;"/>
			<polygon points="1219.741 241.5776, 1246.726 241.5776, 1246.726 251.8279, 1263.126 231.3273, 1246.726 210.8268, 1246.726 221.0771, 1219.741 221.0771" style="stroke: rgb(67%,84%,90%); stroke-linecap: round; stroke-width: 1; fill: rgb(67%,84%,90%); fill-rule: evenodd;"/>
			<polygon points="1262.96 241.5776, 1291.109 241.5776, 1291.109 251.8279, 1307.51 231.3273, 1291.109 210.8268, 1291.109 221.0771, 1262.96 221.0771" style="stroke: rgb(67%,84%,90%); stroke-linecap: round; stroke-width: 1; fill: rgb(67%,84%,90%); fill-rule: evenodd;"/>
			<polygon points="1306.012 241.5776, 1330.001 241.5776, 1330.001 251.8279, 1346.401 231.3273, 1330.001 210.8268, 1330.001 221.0771, 1306.012 221.0771" style="stroke: rgb(67%,84%,90%); stroke-linecap: round; stroke-width: 1; fill: rgb(67%,84%,90%); fill-rule: evenodd;"/>
			<polygon points="70.86614 528.5855, 315.2205 528.5855, 315.2205 538.8358, 331.621 518.3352, 315.2205 497.8346, 315.2205 508.0849, 70.86614 508.0849" style="stroke: rgb(67%,84%,90%); stroke-linecap: round; stroke-width: 1; fill: rgb(67%,84%,90%); fill-rule: evenodd;"/>
			<polygon points="339.3882 528.5855, 409.4807 528.5855, 409.4807 538.8358, 425.8811 518.3352, 409.4807 497.8346, 409.4807 508.0849, 339.3882 508.0849" style="stroke: rgb(67%,84%,90%); stroke-linecap: round; stroke-width: 1; fill: rgb(67%,84%,90%); fill-rule: evenodd;"/>
			<polygon points="481.6383 487.5844, 442.6699 487.5844, 442.6699 497.8346, 426.2695 477.3341, 442.6699 456.8335, 442.6699 467.0838, 481.6383 467.0838" style="stroke: rgb(56%,93%,56%); stroke-linecap: round; stroke-width: 1; fill: rgb(56%,93%,56%); fill-rule: evenodd;"/>
			<polygon points="507.2699 487.5844, 503.0874 487.5844, 503.0874 497.8346, 486.6869 477.3341, 503.0874 456.8335, 503.0874 467.0838, 507.2699 467.0838" style="stroke: rgb(56%,93%,56%); stroke-linecap: round; stroke-width: 1; fill: rgb(56%,93%,56%); fill-rule: evenodd;"/>
			<polygon points="518.6987 528.5855, 518.6987 538.8358, 530.7933 518.3352, 518.6987 497.8346, 518.6987 508.0849" style="stroke: rgb(67%,84%,90%); stroke-linecap: round; stroke-width: 1; fill: rgb(67%,84%,90%); fill-rule: evenodd;"/>
			<polygon points="539.1708 528.5855, 628.2373 528.5855, 628.2373 538.8358, 644.6378 518.3352, 628.2373 497.8346, 628.2373 508.0849, 539.1708 508.0849" style="stroke: rgb(67%,84%,90%); stroke-linecap: round; stroke-width: 1; fill: rgb(67%,84%,90%); fill-rule: evenodd;"/>
			<polygon points="644.4713 528.5855, 645.658 528.5855, 645.658 538.8358, 662.0584 518.3352, 645.658 497.8346, 645.658 508.0849, 644.4713 508.0849" style="stroke: rgb(67%,84%,90%); stroke-linecap: round; stroke-width: 1; fill: rgb(67%,84%,90%); fill-rule: evenodd;"/>
			<polygon points="660.6714 528.5855, 675.5061 528.5855, 675.5061 538.8358, 691.9065 518.3352, 675.5061 497.8346, 675.5061 508.0849, 660.6714 508.0849" style="stroke: rgb(67%,84%,90%); stroke-linecap: round; stroke-width: 1; fill: rgb(67%,84%,90%); fill-rule: evenodd;"/>
			<polygon points="704.0011 528.5855, 718.0036 528.5855, 718.0036 538.8358, 734.404 518.3352, 718.0036 497.8346, 718.0036 508.0849, 704.0011 508.0849" style="stroke: rgb(67%,84%,90%); stroke-linecap: round; stroke-width: 1; fill: rgb(67%,84%,90%); fill-rule: evenodd;"/>
			<polygon points="753.8219 528.5855, 753.8219 538.8358, 761.922 518.3352, 753.8219 497.8346, 753.8219 508.0849" style="stroke: rgb(67%,84%,90%); stroke-linecap: round; stroke-width: 1; fill: rgb(67%,84%,90%); fill-rule: evenodd;"/>
			<polygon points="775.4036 487.5844, 775.4036 497.8346, 764.6405 477.3341, 775.4036 456.8335, 775.4036 467.0838" style="stroke: rgb(56%,93%,56%); stroke-linecap: round; stroke-width: 1; fill: rgb(56%,93%,56%); fill-rule: evenodd;"/>
			<polygon points="790.9934 487.5844, 790.6389 487.5844, 790.6389 497.8346, 774.2385 477.3341, 790.6389 456.8335, 790.6389 467.0838, 790.9934 467.0838" style="stroke: rgb(56%,93%,56%); stroke-linecap: round; stroke-width: 1; fill: rgb(56%,93%,56%); fill-rule: evenodd;"/>
			<polygon points="812.6305 487.5844, 808.2815 487.5844, 808.2815 497.8346, 791.8811 477.3341, 808.2815 456.8335, 808.2815 467.0838, 812.6305 467.0838" style="stroke: rgb(56%,93%,56%); stroke-linecap: round; stroke-width: 1; fill: rgb(56%,93%,56%); fill-rule: evenodd;"/>
			<polygon points="850.967 487.5844, 830.1405 487.5844, 830.1405 497.8346, 813.7401 477.3341, 830.1405 456.8335, 830.1405 467.0838, 850.967 467.0838" style="stroke: rgb(56%,93%,56%); stroke-linecap: round; stroke-width: 1; fill: rgb(56%,93%,56%); fill-rule: evenodd;"/>
			<path d="M 1346.401213,169.825647 L 1346.401213,251.827897 Z" style="stroke: rgb(0%,0%,0%); stroke-linecap: butt; stroke-width: 1;"/>
			<path d="M 70.866142,210.826772 L 1346.401213,210.826772 Z" style="stroke: rgb(0%,0%,0%); stroke-linecap: butt; stroke-width: 1;"/>
			<path d="M 70.866142,169.825647 L 70.866142,251.827897 Z" style="stroke: rgb(0%,0%,0%); stroke-linecap: butt; stroke-width: 1;"/>
			<path d="M 625.663702,210.826772 L 625.663702,231.327334 Z" style="stroke: rgb(0%,0%,0%); stroke-linecap: butt; stroke-width: 1;"/>
			<path d="M 1180.461263,210.826772 L 1180.461263,231.327334 Z" style="stroke: rgb(0%,0%,0%); stroke-linecap: butt; stroke-width: 1;"/>
			<path d="M 625.663702,210.826772 L 625.663702,223.127109 Z" style="stroke: rgb(0%,0%,0%); stroke-linecap: butt; stroke-width: 1;"/>
			<path d="M 1180.461263,210.826772 L 1180.461263,223.127109 Z" style="stroke: rgb(0%,0%,0%); stroke-linecap: butt; stroke-width: 1;"/>
			<path d="M 851.022471,456.833521 L 851.022471,538.835771 Z" style="stroke: rgb(0%,0%,0%); stroke-linecap: butt; stroke-width: 1;"/>
			<path d="M 70.866142,497.834646 L 851.022471,497.834646 Z" style="stroke: rgb(0%,0%,0%); stroke-linecap: butt; stroke-width: 1;"/>
			<path d="M 70.866142,456.833521 L 70.866142,538.835771 Z" style="stroke: rgb(0%,0%,0%); stroke-linecap: butt; stroke-width: 1;"/>
			<path d="M 625.663702,497.834646 L 625.663702,518.335208 Z" style="stroke: rgb(0%,0%,0%); stroke-linecap: butt; stroke-width: 1;"/>
			<path d="M 625.663702,497.834646 L 625.663702,510.134983 Z" style="stroke: rgb(0%,0%,0%); stroke-linecap: butt; stroke-width: 1;"/>
			<g transform=" matrix(0.707107,0.707107,-0.707107,0.707107,625.663702,231.327334)">
				<text style="font-family: Helvetica; font-size: 6px;fill: rgb(0%,0%,0%); stroke:none;" transform="translate(0,0) scale(1,-1)" x="0" y="0">10000</text>
			</g>
			<g transform=" matrix(0.707107,0.707107,-0.707107,0.707107,1180.461263,231.327334)">
				<text style="font-family: Helvetica; font-size: 6px;fill: rgb(0%,0%,0%); stroke:none;" transform="translate(0,0) scale(1,-1)" x="0" y="0">20000</text>
			</g>
			<g transform=" matrix(0.707107,0.707107,-0.707107,0.707107,625.663702,518.335208)">
				<text style="font-family: Helvetica; font-size: 6px;fill: rgb(0%,0%,0%); stroke:none;" transform="translate(0,0) scale(1,-1)" x="0" y="0">10000</text>
			</g>
			<g transform=" matrix(0.707107,0.707107,-0.707107,0.707107,123.51643,251.827897)">
				<text style="font-family: Helvetica; font-size: 10px;fill: rgb(0%,0%,0%); stroke:none;" transform="translate(0,0) scale(1,-1)" x="0" y="0">Gene_00467</text>
			</g>
			<g transform=" matrix(0.707107,0.707107,-0.707107,0.707107,197.859303,251.827897)">
				<text style="font-family: Helvetica; font-size: 10px;fill: rgb(0%,0%,0%); stroke:none;" transform="translate(0,0) scale(1,-1)" x="0" y="0">Gene_00468</text>
			</g>
			<g transform=" matrix(0.707107,0.707107,-0.707107,0.707107,225.294043,251.827897)">
				<text style="font-family: Helvetica; font-size: 10px;fill: rgb(0%,0%,0%); stroke:none;" transform="translate(0,0) scale(1,-1)" x="0" y="0">Gene_00469</text>
			</g>
			<g transform=" matrix(0.707107,0.707107,-0.707107,0.707107,252.562343,251.827897)">
				<text style="font-family: Helvetica; font-size: 10px;fill: rgb(0%,0%,0%); stroke:none;" transform="translate(0,0) scale(1,-1)" x="0" y="0">Gene_00470</text>
			</g>
			<g transform=" matrix(0.707107,-0.707107,0.707107,0.707107,295.254015,169.825647)">
				<text style="font-family: Helvetica; font-size: 10px;fill: rgb(0%,0%,0%); stroke:none;" transform="translate(0,0) scale(1,-1)" x="0" y="0">Gene_00471</text>
			</g>
			<g transform=" matrix(0.707107,0.707107,-0.707107,0.707107,378.22399,251.827897)">
				<text style="font-family: Helvetica; font-size: 10px;fill: rgb(0%,0%,0%); stroke:none;" transform="translate(0,0) scale(1,-1)" x="0" y="0">Gene_00472</text>
			</g>
			<g transform=" matrix(0.707107,0.707107,-0.707107,0.707107,450.430893,251.827897)">
				<text style="font-family: Helvetica; font-size: 10px;fill: rgb(0%,0%,0%); stroke:none;" transform="translate(0,0) scale(1,-1)" x="0" y="0">Gene_00473</text>
			</g>
			<g transform=" matrix(0.707107,0.707107,-0.707107,0.707107,517.339479,251.827897)">
				<text style="font-family: Helvetica; font-size: 10px;fill: rgb(0%,0%,0%); stroke:none;" transform="translate(0,0) scale(1,-1)" x="0" y="0">Gene_00474</text>
			</g>
			<g transform=" matrix(0.707107,0.707107,-0.707107,0.707107,573.79013,251.827897)">
				<text style="font-family: Helvetica; font-size: 10px;fill: rgb(0%,0%,0%); stroke:none;" transform="translate(0,0) scale(1,-1)" x="0" y="0">Gene_00475</text>
			</g>
			<g transform=" matrix(0.707107,0.707107,-0.707107,0.707107,621.225322,251.827897)">
				<text style="font-family: Helvetica; font-size: 10px;fill: rgb(0%,0%,0%); stroke:none;" transform="translate(0,0) scale(1,-1)" x="0" y="0">Gene_00476</text>
			</g>
			<g transform=" matrix(0.707107,0.707107,-0.707107,0.707107,660.088891,251.827897)">
				<text style="font-family: Helvetica; font-size: 10px;fill: rgb(0%,0%,0%); stroke:none;" transform="translate(0,0) scale(1,-1)" x="0" y="0">Gene_00477</text>
			</g>
			<g transform=" matrix(0.707107,0.707107,-0.707107,0.707107,707.191204,251.827897)">
				<text style="font-family: Helvetica; font-size: 16px;fill: rgb(0%,0%,100%); stroke:none;" transform="translate(0,0) scale(1,-1)" x="0" y="0">Gene_00478 (91.5)</text>
			</g>
			<g transform=" matrix(0.707107,0.707107,-0.707107,0.707107,761.616844,251.827897)">
				<text style="font-family: Helvetica; font-size: 10px;fill: rgb(0%,0%,0%); stroke:none;" transform="translate(0,0) scale(1,-1)" x="0" y="0">Gene_00479</text>
			</g>
			<g transform=" matrix(0.707107,-0.707107,0.707107,0.707107,801.007471,169.825647)">
				<text style="font-family: Helvetica; font-size: 10px;fill: rgb(0%,0%,0%); stroke:none;" transform="translate(0,0) scale(1,-1)" x="0" y="0">Gene_00480</text>
			</g>
			<g transform=" matrix(0.707107,-0.707107,0.707107,0.707107,852.936523,169.825647)">
				<text style="font-family: Helvetica; font-size: 10px;fill: rgb(0%,0%,0%); stroke:none;" transform="translate(0,0) scale(1,-1)" x="0" y="0">Gene_00481</text>
			</g>
			<g transform=" matrix(0.707107,-0.707107,0.707107,0.707107,897.320328,169.825647)">
				<text style="font-family: Helvetica; font-size: 10px;fill: rgb(0%,0%,0%); stroke:none;" transform="translate(0,0) scale(1,-1)" x="0" y="0">Gene_00482</text>
			</g>
			<g transform=" matrix(0.707107,0.707107,-0.707107,0.707107,940.539058,251.827897)">
				<text style="font-family: Helvetica; font-size: 10px;fill: rgb(0%,0%,0%); stroke:none;" transform="translate(0,0) scale(1,-1)" x="0" y="0">Gene_00483</text>
			</g>
			<g transform=" matrix(0.707107,0.707107,-0.707107,0.707107,1022.288478,251.827897)">
				<text style="font-family: Helvetica; font-size: 10px;fill: rgb(0%,0%,0%); stroke:none;" transform="translate(0,0) scale(1,-1)" x="0" y="0">Gene_00484</text>
			</g>
			<g transform=" matrix(0.707107,0.707107,-0.707107,0.707107,1118.878734,251.827897)">
				<text style="font-family: Helvetica; font-size: 10px;fill: rgb(0%,0%,0%); stroke:none;" transform="translate(0,0) scale(1,-1)" x="0" y="0">Gene_00485</text>
			</g>
			<g transform=" matrix(0.707107,0.707107,-0.707107,0.707107,1193.887364,251.827897)">
				<text style="font-family: Helvetica; font-size: 10px;fill: rgb(0%,0%,0%); stroke:none;" transform="translate(0,0) scale(1,-1)" x="0" y="0">Gene_00486</text>
			</g>
			<g transform=" matrix(0.707107,0.707107,-0.707107,0.707107,1241.433515,251.827897)">
				<text style="font-family: Helvetica; font-size: 10px;fill: rgb(0%,0%,0%); stroke:none;" transform="translate(0,0) scale(1,-1)" x="0" y="0">Gene_00487</text>
			</g>
			<g transform=" matrix(0.707107,0.707107,-0.707107,0.707107,1285.234782,251.827897)">
				<text style="font-family: Helvetica; font-size: 10px;fill: rgb(0%,0%,0%); stroke:none;" transform="translate(0,0) scale(1,-1)" x="0" y="0">Gene_00488</text>
			</g>
			<g transform=" matrix(0.707107,0.707107,-0.707107,0.707107,1326.206582,251.827897)">
				<text style="font-family: Helvetica; font-size: 10px;fill: rgb(0%,0%,0%); stroke:none;" transform="translate(0,0) scale(1,-1)" x="0" y="0">Gene_00489</text>
			</g>
			<g transform=" matrix(0.707107,0.707107,-0.707107,0.707107,201.243568,538.835771)">
				<text style="font-family: Helvetica; font-size: 10px;fill: rgb(0%,0%,0%); stroke:none;" transform="translate(0,0) scale(1,-1)" x="0" y="0">Gene_00494</text>
			</g>
			<g transform=" matrix(0.707107,0.707107,-0.707107,0.707107,382.634631,538.835771)">
				<text style="font-family: Helvetica; font-size: 10px;fill: rgb(0%,0%,0%); stroke:none;" transform="translate(0,0) scale(1,-1)" x="0" y="0">Gene_00495</text>
			</g>
			<g transform=" matrix(0.707107,-0.707107,0.707107,0.707107,453.953857,456.833521)">
				<text style="font-family: Helvetica; font-size: 10px;fill: rgb(0%,0%,0%); stroke:none;" transform="translate(0,0) scale(1,-1)" x="0" y="0">Gene_00496</text>
			</g>
			<g transform=" matrix(0.707107,-0.707107,0.707107,0.707107,496.978408,456.833521)">
				<text style="font-family: Helvetica; font-size: 10px;fill: rgb(0%,0%,0%); stroke:none;" transform="translate(0,0) scale(1,-1)" x="0" y="0">Gene_00497</text>
			</g>
			<g transform=" matrix(0.707107,0.707107,-0.707107,0.707107,524.746026,538.835771)">
				<text style="font-family: Helvetica; font-size: 10px;fill: rgb(0%,0%,0%); stroke:none;" transform="translate(0,0) scale(1,-1)" x="0" y="0">Gene_00498</text>
			</g>
			<g transform=" matrix(0.707107,0.707107,-0.707107,0.707107,591.904271,538.835771)">
				<text style="font-family: Helvetica; font-size: 10px;fill: rgb(0%,0%,0%); stroke:none;" transform="translate(0,0) scale(1,-1)" x="0" y="0">Gene_00499</text>
			</g>
			<g transform=" matrix(0.707107,0.707107,-0.707107,0.707107,653.264881,538.835771)">
				<text style="font-family: Helvetica; font-size: 10px;fill: rgb(0%,0%,0%); stroke:none;" transform="translate(0,0) scale(1,-1)" x="0" y="0">Gene_00500</text>
			</g>
			<g transform=" matrix(0.707107,0.707107,-0.707107,0.707107,676.28898,538.835771)">
				<text style="font-family: Helvetica; font-size: 10px;fill: rgb(0%,0%,0%); stroke:none;" transform="translate(0,0) scale(1,-1)" x="0" y="0">Gene_00501</text>
			</g>
			<g transform=" matrix(0.707107,0.707107,-0.707107,0.707107,719.202571,538.835771)">
				<text style="font-family: Helvetica; font-size: 10px;fill: rgb(0%,0%,0%); stroke:none;" transform="translate(0,0) scale(1,-1)" x="0" y="0">Gene_00502</text>
			</g>
			<g transform=" matrix(0.707107,0.707107,-0.707107,0.707107,757.871961,538.835771)">
				<text style="font-family: Helvetica; font-size: 10px;fill: rgb(0%,0%,0%); stroke:none;" transform="translate(0,0) scale(1,-1)" x="0" y="0">Gene_00503</text>
			</g>
			<g transform=" matrix(0.707107,-0.707107,0.707107,0.707107,770.022028,456.833521)">
				<text style="font-family: Helvetica; font-size: 10px;fill: rgb(0%,0%,0%); stroke:none;" transform="translate(0,0) scale(1,-1)" x="0" y="0">Gene_00504</text>
			</g>
			<g transform=" matrix(0.707107,-0.707107,0.707107,0.707107,782.615932,456.833521)">
				<text style="font-family: Helvetica; font-size: 10px;fill: rgb(0%,0%,0%); stroke:none;" transform="translate(0,0) scale(1,-1)" x="0" y="0">Gene_00505</text>
			</g>
			<g transform=" matrix(0.707107,-0.707107,0.707107,0.707107,802.255766,456.833521)">
				<text style="font-family: Helvetica; font-size: 10px;fill: rgb(0%,0%,0%); stroke:none;" transform="translate(0,0) scale(1,-1)" x="0" y="0">Gene_00506</text>
			</g>
			<g transform=" matrix(0.707107,-0.707107,0.707107,0.707107,832.353533,456.833521)">
				<text style="font-family: Helvetica; font-size: 16px;fill: rgb(0%,0%,100%); stroke:none;" transform="translate(0,0) scale(1,-1)" x="0" y="0">Gene_00507 (91.5)</text>
			</g>
			<g transform=" matrix(1,0,-0,1,70,169.825647)">
				<text style="font-family: Helvetica; font-size: 12px;fill: rgb(60%,60%,60%); stroke:none;" transform="translate(0,0) scale(1,-1)" x="0" y="0">megahit_1618 (left 21033bp, right 49389bp)</text>
			</g>
			<g transform=" matrix(1,0,-0,1,70,456.833521)">
				<text style="font-family: Helvetica; font-size: 12px;fill: rgb(60%,60%,60%); stroke:none;" transform="translate(0,0) scale(1,-1)" x="0" y="0">megahit_17136 (left 28979bp, right 1bp)</text>
			</g>
		</g>
	</g>
</svg>
