<?xml version="1.0" encoding="utf-8"?>
<!DOCTYPE svg
  PUBLIC '-//W3C//DTD SVG 1.0//EN'
  'http://www.w3.org/TR/2001/REC-SVG-20010904/DTD/svg10.dtd'>
<svg fill-rule="evenodd" height="708.6614173228346" preserveAspectRatio="xMinYMin meet" version="1.0" viewBox="0 0 1417 708" width="1417.3228346456692" xmlns="http://www.w3.org/2000/svg" xmlns:xlink="http://www.w3.org/1999/xlink">
	<title>...</title>
	<desc>...</desc>
	<clipPath id="clip">
		<rect height="708.6614173228346" width="1417.3228346456692" x="0" y="0"/>
	</clipPath>
	<g id="group" style="clip-path: url(#clip)" transform="scale(1,-1) translate(0,-708)">
		<g transform="">
			<polygon points="70.86614 169.8256, 363.7813 169.8256, 363.7813 251.8279, 70.86614 251.8279" style="stroke: rgb(96%,96%,96%); stroke-linecap: butt; stroke-width: 1; fill: rgb(96%,96%,96%); fill-rule: evenodd;"/>
			<polygon points="70.86614 456.8335, 1346.336 456.8335, 1346.336 538.8358, 70.86614 538.8358" style="stroke: rgb(96%,96%,96%); stroke-linecap: butt; stroke-width: 1; fill: rgb(96%,96%,96%); fill-rule: evenodd;"/>
			<polygon points="502.6771 456.8335, 630.4418 456.8335, 87.56267 251.8279, 213.6336 251.8279" style="stroke: rgb(100%,37%,37%); stroke-linecap: round; stroke-width: 1; fill: rgb(100%,37%,37%); fill-rule: evenodd;"/>
			<polygon points="208.189 200.5765, 115.4571 200.5765, 115.4571 210.8268, 99.05666 190.3262, 115.4571 169.8256, 115.4571 180.0759, 208.189 180.0759" style="stroke: rgb(56%,93%,56%); stroke-linecap: round; stroke-width: 1; fill: rgb(56%,93%,56%); fill-rule: evenodd;"/>
			<polygon points="283.6864 200.5765, 234.1476 200.5765, 234.1476 210.8268, 217.7472 190.3262, 234.1476 169.8256, 234.1476 180.0759, 283.6864 180.0759" style="stroke: rgb(56%,93%,56%); stroke-linecap: round; stroke-width: 1; fill: rgb(56%,93%,56%); fill-rule: evenodd;"/>
			<polygon points="361.7245 200.5765, 309.645 200.5765, 309.645 210.8268, 293.2445 190.3262, 309.645 169.8256, 309.645 180.0759, 361.7245 180.0759" style="stroke: rgb(56%,93%,56%); stroke-linecap: round; stroke-width: 1; fill: rgb(56%,93%,56%); fill-rule: evenodd;"/>
			<polygon points="78.60946 528.5855, 213.8086 528.5855, 213.8086 538.8358, 230.2091 518.3352, 213.8086 497.8346, 213.8086 508.0849, 78.60946 508.0849" style="stroke: rgb(67%,84%,90%); stroke-linecap: round; stroke-width: 1; fill: rgb(67%,84%,90%); fill-rule: evenodd;"/>
			<polygon points="373.9444 528.5855, 486.6396 528.5855, 486.6396 538.8358, 503.04 518.3352, 486.6396 497.8346, 486.6396 508.0849, 373.9444 508.0849" style="stroke: rgb(67%,84%,90%); stroke-linecap: round; stroke-width: 1; fill: rgb(67%,84%,90%); fill-rule: evenodd;"/>
			<polygon points="508.3636 528.5855, 602.5474 528.5855, 602.5474 538.8358, 618.9478 518.3352, 602.5474 497.8346, 602.5474 508.0849, 508.3636 508.0849" style="stroke: rgb(67%,84%,90%); stroke-linecap: round; stroke-width: 1; fill: rgb(67%,84%,90%); fill-rule: evenodd;"/>
			<polygon points="619.4318 528.5855, 627.5922 528.5855, 627.5922 538.8358, 643.9926 518.3352, 627.5922 497.8346, 627.5922 508.0849, 619.4318 508.0849" style="stroke: rgb(67%,84%,90%); stroke-linecap: round; stroke-width: 1; fill: rgb(67%,84%,90%); fill-rule: evenodd;"/>
			<polygon points="644.8395 528.5855, 717.9712 528.5855, 717.9712 538.8358, 734.3717 518.3352, 717.9712 497.8346, 717.9712 508.0849, 644.8395 508.0849" style="stroke: rgb(67%,84%,90%); stroke-linecap: round; stroke-width: 1; fill: rgb(67%,84%,90%); fill-rule: evenodd;"/>
			<polygon points="740.3001 528.5855, 882.3957 528.5855, 882.3957 538.8358, 898.7962 518.3352, 882.3957 497.8346, 882.3957 508.0849, 740.3001 508.0849" style="stroke: rgb(67%,84%,90%); stroke-linecap: round; stroke-width: 1; fill: rgb(67%,84%,90%); fill-rule: evenodd;"/>
			<polygon points="989.4172 487.5844, 932.6191 487.5844, 932.6191 497.8346, 916.2186 477.3341, 932.6191 456.8335, 932.6191 467.0838, 989.4172 467.0838" style="stroke: rgb(56%,93%,56%); stroke-linecap: round; stroke-width: 1; fill: rgb(56%,93%,56%); fill-rule: evenodd;"/>
			<polygon points="1065.156 487.5844, 1017.433 487.5844, 1017.433 497.8346, 1001.032 477.3341, 1017.433 456.8335, 1017.433 467.0838, 1065.156 467.0838" style="stroke: rgb(56%,93%,56%); stroke-linecap: round; stroke-width: 1; fill: rgb(56%,93%,56%); fill-rule: evenodd;"/>
			<polygon points="1085.725 528.5855, 1113.122 528.5855, 1113.122 538.8358, 1129.523 518.3352, 1113.122 497.8346, 1113.122 508.0849, 1085.725 508.0849" style="stroke: rgb(67%,84%,90%); stroke-linecap: round; stroke-width: 1; fill: rgb(67%,84%,90%); fill-rule: evenodd;"/>
			<polygon points="1264.184 487.5844, 1176.171 487.5844, 1176.171 497.8346, 1159.77 477.3341, 1176.171 456.8335, 1176.171 467.0838, 1264.184 467.0838" style="stroke: rgb(56%,93%,56%); stroke-linecap: round; stroke-width: 1; fill: rgb(56%,93%,56%); fill-rule: evenodd;"/>
			<path d="M 363.78132,169.825647 L 363.78132,251.827897 Z" style="stroke: rgb(0%,0%,0%); stroke-linecap: butt; stroke-width: 1;"/>
			<path d="M 70.866142,210.826772 L 363.78132,210.826772 Z" style="stroke: rgb(0%,0%,0%); stroke-linecap: butt; stroke-width: 1;"/>
			<path d="M 70.866142,169.825647 L 70.866142,251.827897 Z" style="stroke: rgb(0%,0%,0%); stroke-linecap: butt; stroke-width: 1;"/>
			<path d="M 1346.335704,456.833521 L 1346.335704,538.835771 Z" style="stroke: rgb(0%,0%,0%); stroke-linecap: butt; stroke-width: 1;"/>
			<path d="M 70.866142,497.834646 L 1346.335704,497.834646 Z" style="stroke: rgb(0%,0%,0%); stroke-linecap: butt; stroke-width: 1;"/>
			<path d="M 70.866142,456.833521 L 70.866142,538.835771 Z" style="stroke: rgb(0%,0%,0%); stroke-linecap: butt; stroke-width: 1;"/>
			<path d="M 1280.759484,497.834646 L 1280.759484,518.335208 Z" style="stroke: rgb(0%,0%,0%); stroke-linecap: butt; stroke-width: 1;"/>
			<path d="M 1280.759484,497.834646 L 1280.759484,510.134983 Z" style="stroke: rgb(0%,0%,0%); stroke-linecap: butt; stroke-width: 1;"/>
			<g transform=" matrix(0.707107,0.707107,-0.707107,0.707107,1280.759484,518.335208)">
				<text style="font-family: Helvetica; font-size: 6px;fill: rgb(0%,0%,0%); stroke:none;" transform="translate(0,0) scale(1,-1)" x="0" y="0">10000</text>
			</g>
			<g transform=" matrix(0.707107,-0.707107,0.707107,0.707107,153.622846,169.825647)">
				<text style="font-family: Helvetica; font-size: 16px;fill: rgb(0%,0%,100%); stroke:none;" transform="translate(0,0) scale(1,-1)" x="0" y="0">Gene_03269 (81.1)</text>
			</g>
			<g transform=" matrix(0.707107,-0.707107,0.707107,0.707107,250.716787,169.825647)">
				<text style="font-family: Helvetica; font-size: 10px;fill: rgb(0%,0%,0%); stroke:none;" transform="translate(0,0) scale(1,-1)" x="0" y="0">Gene_03270</text>
			</g>
			<g transform=" matrix(0.707107,-0.707107,0.707107,0.707107,327.48452,169.825647)">
				<text style="font-family: Helvetica; font-size: 10px;fill: rgb(0%,0%,0%); stroke:none;" transform="translate(0,0) scale(1,-1)" x="0" y="0">Gene_03271</text>
			</g>
			<g transform=" matrix(0.707107,0.707107,-0.707107,0.707107,154.409277,538.835771)">
				<text style="font-family: Helvetica; font-size: 10px;fill: rgb(0%,0%,0%); stroke:none;" transform="translate(0,0) scale(1,-1)" x="0" y="0">Gene_00081</text>
			</g>
			<g transform=" matrix(0.707107,0.707107,-0.707107,0.707107,438.492234,538.835771)">
				<text style="font-family: Helvetica; font-size: 10px;fill: rgb(0%,0%,0%); stroke:none;" transform="translate(0,0) scale(1,-1)" x="0" y="0">Gene_00082</text>
			</g>
			<g transform=" matrix(0.707107,0.707107,-0.707107,0.707107,563.6557,538.835771)">
				<text style="font-family: Helvetica; font-size: 16px;fill: rgb(0%,0%,100%); stroke:none;" transform="translate(0,0) scale(1,-1)" x="0" y="0">Gene_00083 (81.1)</text>
			</g>
			<g transform=" matrix(0.707107,0.707107,-0.707107,0.707107,631.712201,538.835771)">
				<text style="font-family: Helvetica; font-size: 10px;fill: rgb(0%,0%,0%); stroke:none;" transform="translate(0,0) scale(1,-1)" x="0" y="0">Gene_00084</text>
			</g>
			<g transform=" matrix(0.707107,0.707107,-0.707107,0.707107,689.605597,538.835771)">
				<text style="font-family: Helvetica; font-size: 10px;fill: rgb(0%,0%,0%); stroke:none;" transform="translate(0,0) scale(1,-1)" x="0" y="0">Gene_00085</text>
			</g>
			<g transform=" matrix(0.707107,0.707107,-0.707107,0.707107,819.548142,538.835771)">
				<text style="font-family: Helvetica; font-size: 10px;fill: rgb(0%,0%,0%); stroke:none;" transform="translate(0,0) scale(1,-1)" x="0" y="0">Gene_00086</text>
			</g>
			<g transform=" matrix(0.707107,-0.707107,0.707107,0.707107,952.817894,456.833521)">
				<text style="font-family: Helvetica; font-size: 10px;fill: rgb(0%,0%,0%); stroke:none;" transform="translate(0,0) scale(1,-1)" x="0" y="0">Gene_00087</text>
			</g>
			<g transform=" matrix(0.707107,-0.707107,0.707107,0.707107,1033.094317,456.833521)">
				<text style="font-family: Helvetica; font-size: 10px;fill: rgb(0%,0%,0%); stroke:none;" transform="translate(0,0) scale(1,-1)" x="0" y="0">Gene_00088</text>
			</g>
			<g transform=" matrix(0.707107,0.707107,-0.707107,0.707107,1107.623747,538.835771)">
				<text style="font-family: Helvetica; font-size: 10px;fill: rgb(0%,0%,0%); stroke:none;" transform="translate(0,0) scale(1,-1)" x="0" y="0">Gene_00089</text>
			</g>
			<g transform=" matrix(0.707107,-0.707107,0.707107,0.707107,1211.977048,456.833521)">
				<text style="font-family: Helvetica; font-size: 10px;fill: rgb(0%,0%,0%); stroke:none;" transform="translate(0,0) scale(1,-1)" x="0" y="0">Gene_00090</text>
			</g>
			<g transform=" matrix(1,0,-0,1,70,456.833521)">
				<text style="font-family: Helvetica; font-size: 12px;fill: rgb(60%,60%,60%); stroke:none;" transform="translate(0,0) scale(1,-1)" x="0" y="0">megahit_5413 (left 3616bp, right 6012bp)</text>
			</g>
		</g>
	</g>
</svg>
