<?xml version="1.0" encoding="utf-8"?>
<!DOCTYPE svg
  PUBLIC '-//W3C//DTD SVG 1.0//EN'
  'http://www.w3.org/TR/2001/REC-SVG-20010904/DTD/svg10.dtd'>
<svg fill-rule="evenodd" height="708.6614173228346" preserveAspectRatio="xMinYMin meet" version="1.0" viewBox="0 0 1417 708" width="1417.3228346456692" xmlns="http://www.w3.org/2000/svg" xmlns:xlink="http://www.w3.org/1999/xlink">
	<title>...</title>
	<desc>...</desc>
	<clipPath id="clip">
		<rect height="708.6614173228346" width="1417.3228346456692" x="0" y="0"/>
	</clipPath>
	<g id="group" style="clip-path: url(#clip)" transform="scale(1,-1) translate(0,-708)">
		<g transform="">
			<polygon points="70.86614 169.8256, 1220.274 169.8256, 1220.274 251.8279, 70.86614 251.8279" style="stroke: rgb(96%,96%,96%); stroke-linecap: butt; stroke-width: 1; fill: rgb(96%,96%,96%); fill-rule: evenodd;"/>
			<polygon points="70.86614 456.8335, 1346.403 456.8335, 1346.403 538.8358, 70.86614 538.8358" style="stroke: rgb(96%,96%,96%); stroke-linecap: butt; stroke-width: 1; fill: rgb(96%,96%,96%); fill-rule: evenodd;"/>
			<polygon points="724.5557 456.8335, 1166.465 456.8335, 1042.819 251.8279, 601.0714 251.8279" style="stroke: rgb(100%,42%,42%); stroke-linecap: round; stroke-width: 1; fill: rgb(100%,42%,42%); fill-rule: evenodd;"/>
			<polygon points="1180.606 456.8335, 1346.403 456.8335, 1220.274 251.8279, 1054.585 251.8279" style="stroke: rgb(100%,33%,33%); stroke-linecap: round; stroke-width: 1; fill: rgb(100%,33%,33%); fill-rule: evenodd;"/>
			<polygon points="550.5011 456.8335, 723.8001 456.8335, 594.3251 251.8279, 420.8642 251.8279" style="stroke: rgb(100%,40%,40%); stroke-linecap: round; stroke-width: 1; fill: rgb(100%,40%,40%); fill-rule: evenodd;"/>
			<polygon points="435.2204 456.8335, 521.8968 456.8335, 351.5123 251.8279, 264.8358 251.8279" style="stroke: rgb(100%,37%,37%); stroke-linecap: round; stroke-width: 1; fill: rgb(100%,37%,37%); fill-rule: evenodd;"/>
			<polygon points="72.26937 241.5776, 146.4852 241.5776, 146.4852 251.8279, 162.8857 231.3273, 146.4852 210.8268, 146.4852 221.0771, 72.26937 221.0771" style="stroke: rgb(67%,84%,90%); stroke-linecap: round; stroke-width: 1; fill: rgb(67%,84%,90%); fill-rule: evenodd;"/>
			<polygon points="261.4896 200.5765, 185.007 200.5765, 185.007 210.8268, 168.6065 190.3262, 185.007 169.8256, 185.007 180.0759, 261.4896 180.0759" style="stroke: rgb(56%,93%,56%); stroke-linecap: round; stroke-width: 1; fill: rgb(56%,93%,56%); fill-rule: evenodd;"/>
			<polygon points="374.9894 200.5765, 281.0204 200.5765, 281.0204 210.8268, 264.6199 190.3262, 281.0204 169.8256, 281.0204 180.0759, 374.9894 180.0759" style="stroke: rgb(56%,93%,56%); stroke-linecap: round; stroke-width: 1; fill: rgb(56%,93%,56%); fill-rule: evenodd;"/>
			<polygon points="418.8673 200.5765, 396.463 200.5765, 396.463 210.8268, 380.0626 190.3262, 396.463 169.8256, 396.463 180.0759, 418.8673 180.0759" style="stroke: rgb(56%,93%,56%); stroke-linecap: round; stroke-width: 1; fill: rgb(56%,93%,56%); fill-rule: evenodd;"/>
			<polygon points="489.5686 200.5765, 436.725 200.5765, 436.725 210.8268, 420.3245 190.3262, 436.725 169.8256, 436.725 180.0759, 489.5686 180.0759" style="stroke: rgb(56%,93%,56%); stroke-linecap: round; stroke-width: 1; fill: rgb(56%,93%,56%); fill-rule: evenodd;"/>
			<polygon points="522.2206 200.5765, 506.9405 200.5765, 506.9405 210.8268, 490.54 190.3262, 506.9405 169.8256, 506.9405 180.0759, 522.2206 180.0759" style="stroke: rgb(56%,93%,56%); stroke-linecap: round; stroke-width: 1; fill: rgb(56%,93%,56%); fill-rule: evenodd;"/>
			<polygon points="593.4076 200.5765, 539.5926 200.5765, 539.5926 210.8268, 523.1921 190.3262, 539.5926 169.8256, 539.5926 180.0759, 593.4076 180.0759" style="stroke: rgb(56%,93%,56%); stroke-linecap: round; stroke-width: 1; fill: rgb(56%,93%,56%); fill-rule: evenodd;"/>
			<polygon points="634.1013 200.5765, 615.7448 200.5765, 615.7448 210.8268, 599.3444 190.3262, 615.7448 169.8256, 615.7448 180.0759, 634.1013 180.0759" style="stroke: rgb(56%,93%,56%); stroke-linecap: round; stroke-width: 1; fill: rgb(56%,93%,56%); fill-rule: evenodd;"/>
			<polygon points="694.4402 200.5765, 650.3398 200.5765, 650.3398 210.8268, 633.9394 190.3262, 650.3398 169.8256, 650.3398 180.0759, 694.4402 180.0759" style="stroke: rgb(56%,93%,56%); stroke-linecap: round; stroke-width: 1; fill: rgb(56%,93%,56%); fill-rule: evenodd;"/>
			<polygon points="729.6829 200.5765, 716.6695 200.5765, 716.6695 210.8268, 700.269 190.3262, 716.6695 169.8256, 716.6695 180.0759, 729.6829 180.0759" style="stroke: rgb(56%,93%,56%); stroke-linecap: round; stroke-width: 1; fill: rgb(56%,93%,56%); fill-rule: evenodd;"/>
			<polygon points="758.3951 200.5765, 746.677 200.5765, 746.677 210.8268, 730.2766 190.3262, 746.677 169.8256, 746.677 180.0759, 758.3951 180.0759" style="stroke: rgb(56%,93%,56%); stroke-linecap: round; stroke-width: 1; fill: rgb(56%,93%,56%); fill-rule: evenodd;"/>
			<polygon points="813.6608 200.5765, 772.6368 200.5765, 772.6368 210.8268, 756.2363 190.3262, 772.6368 169.8256, 772.6368 180.0759, 813.6608 180.0759" style="stroke: rgb(56%,93%,56%); stroke-linecap: round; stroke-width: 1; fill: rgb(56%,93%,56%); fill-rule: evenodd;"/>
			<polygon points="847.7162 200.5765, 830.4931 200.5765, 830.4931 210.8268, 814.0926 190.3262, 830.4931 169.8256, 830.4931 180.0759, 847.7162 180.0759" style="stroke: rgb(56%,93%,56%); stroke-linecap: round; stroke-width: 1; fill: rgb(56%,93%,56%); fill-rule: evenodd;"/>
			<polygon points="948.6408 200.5765, 864.8722 200.5765, 864.8722 210.8268, 848.4718 190.3262, 864.8722 169.8256, 864.8722 180.0759, 948.6408 180.0759" style="stroke: rgb(56%,93%,56%); stroke-linecap: round; stroke-width: 1; fill: rgb(56%,93%,56%); fill-rule: evenodd;"/>
			<polygon points="994.5157 200.5765, 967.416 200.5765, 967.416 210.8268, 951.0155 190.3262, 967.416 169.8256, 967.416 180.0759, 994.5157 180.0759" style="stroke: rgb(56%,93%,56%); stroke-linecap: round; stroke-width: 1; fill: rgb(56%,93%,56%); fill-rule: evenodd;"/>
			<polygon points="1044.438 200.5765, 1017.015 200.5765, 1017.015 210.8268, 1000.614 190.3262, 1017.015 169.8256, 1017.015 180.0759, 1044.438 180.0759" style="stroke: rgb(56%,93%,56%); stroke-linecap: round; stroke-width: 1; fill: rgb(56%,93%,56%); fill-rule: evenodd;"/>
			<polygon points="1133.705 200.5765, 1070.985 200.5765, 1070.985 210.8268, 1054.585 190.3262, 1070.985 169.8256, 1070.985 180.0759, 1133.705 180.0759" style="stroke: rgb(56%,93%,56%); stroke-linecap: round; stroke-width: 1; fill: rgb(56%,93%,56%); fill-rule: evenodd;"/>
			<polygon points="1136.944 241.5776, 1171.167 241.5776, 1171.167 251.8279, 1187.568 231.3273, 1171.167 210.8268, 1171.167 221.0771, 1136.944 221.0771" style="stroke: rgb(67%,84%,90%); stroke-linecap: round; stroke-width: 1; fill: rgb(67%,84%,90%); fill-rule: evenodd;"/>
			<polygon points="1220.274 200.5765, 1202.727 200.5765, 1202.727 210.8268, 1186.326 190.3262, 1202.727 169.8256, 1202.727 180.0759, 1220.274 180.0759" style="stroke: rgb(56%,93%,56%); stroke-linecap: round; stroke-width: 1; fill: rgb(56%,93%,56%); fill-rule: evenodd;"/>
			<polygon points="207.6272 487.5844, 87.26659 487.5844, 87.26659 497.8346, 70.86614 477.3341, 87.26659 456.8335, 87.26659 467.0838, 207.6272 467.0838" style="stroke: rgb(56%,93%,56%); stroke-linecap: round; stroke-width: 1; fill: rgb(56%,93%,56%); fill-rule: evenodd;"/>
			<polygon points="421.4579 487.5844, 223.8657 487.5844, 223.8657 497.8346, 207.4652 477.3341, 223.8657 456.8335, 223.8657 467.0838, 421.4579 467.0838" style="stroke: rgb(56%,93%,56%); stroke-linecap: round; stroke-width: 1; fill: rgb(56%,93%,56%); fill-rule: evenodd;"/>
			<polygon points="546.0216 487.5844, 451.4049 487.5844, 451.4049 497.8346, 435.0045 477.3341, 451.4049 456.8335, 451.4049 467.0838, 546.0216 467.0838" style="stroke: rgb(56%,93%,56%); stroke-linecap: round; stroke-width: 1; fill: rgb(56%,93%,56%); fill-rule: evenodd;"/>
			<polygon points="619.0436 487.5844, 566.3619 487.5844, 566.3619 497.8346, 549.9614 477.3341, 566.3619 456.8335, 566.3619 467.0838, 619.0436 467.0838" style="stroke: rgb(56%,93%,56%); stroke-linecap: round; stroke-width: 1; fill: rgb(56%,93%,56%); fill-rule: evenodd;"/>
			<polygon points="651.6957 487.5844, 636.2536 487.5844, 636.2536 497.8346, 619.8531 477.3341, 636.2536 456.8335, 636.2536 467.0838, 651.6957 467.0838" style="stroke: rgb(56%,93%,56%); stroke-linecap: round; stroke-width: 1; fill: rgb(56%,93%,56%); fill-rule: evenodd;"/>
			<polygon points="722.8826 487.5844, 669.0676 487.5844, 669.0676 497.8346, 652.6671 477.3341, 669.0676 456.8335, 669.0676 467.0838, 722.8826 467.0838" style="stroke: rgb(56%,93%,56%); stroke-linecap: round; stroke-width: 1; fill: rgb(56%,93%,56%); fill-rule: evenodd;"/>
			<polygon points="757.5856 487.5844, 739.391 487.5844, 739.391 497.8346, 722.9906 477.3341, 739.391 456.8335, 739.391 467.0838, 757.5856 467.0838" style="stroke: rgb(56%,93%,56%); stroke-linecap: round; stroke-width: 1; fill: rgb(56%,93%,56%); fill-rule: evenodd;"/>
			<polygon points="818.0324 487.5844, 774.094 487.5844, 774.094 497.8346, 757.6935 477.3341, 774.094 456.8335, 774.094 467.0838, 818.0324 467.0838" style="stroke: rgb(56%,93%,56%); stroke-linecap: round; stroke-width: 1; fill: rgb(56%,93%,56%); fill-rule: evenodd;"/>
			<polygon points="851.9798 487.5844, 839.6141 487.5844, 839.6141 497.8346, 823.2136 477.3341, 839.6141 456.8335, 839.6141 467.0838, 851.9798 467.0838" style="stroke: rgb(56%,93%,56%); stroke-linecap: round; stroke-width: 1; fill: rgb(56%,93%,56%); fill-rule: evenodd;"/>
			<polygon points="880.0984 487.5844, 869.0279 487.5844, 869.0279 497.8346, 852.6275 477.3341, 869.0279 456.8335, 869.0279 467.0838, 880.0984 467.0838" style="stroke: rgb(56%,93%,56%); stroke-linecap: round; stroke-width: 1; fill: rgb(56%,93%,56%); fill-rule: evenodd;"/>
			<polygon points="935.6879 487.5844, 894.9877 487.5844, 894.9877 497.8346, 878.5872 477.3341, 894.9877 456.8335, 894.9877 467.0838, 935.6879 467.0838" style="stroke: rgb(56%,93%,56%); stroke-linecap: round; stroke-width: 1; fill: rgb(56%,93%,56%); fill-rule: evenodd;"/>
			<polygon points="969.8512 487.5844, 952.6281 487.5844, 952.6281 497.8346, 936.2276 477.3341, 952.6281 456.8335, 952.6281 467.0838, 969.8512 467.0838" style="stroke: rgb(56%,93%,56%); stroke-linecap: round; stroke-width: 1; fill: rgb(56%,93%,56%); fill-rule: evenodd;"/>
			<polygon points="1074.284 487.5844, 987.1152 487.5844, 987.1152 497.8346, 970.7147 477.3341, 987.1152 456.8335, 987.1152 467.0838, 1074.284 467.0838" style="stroke: rgb(56%,93%,56%); stroke-linecap: round; stroke-width: 1; fill: rgb(56%,93%,56%); fill-rule: evenodd;"/>
			<polygon points="1118.378 487.5844, 1091.278 487.5844, 1091.278 497.8346, 1074.878 477.3341, 1091.278 456.8335, 1091.278 467.0838, 1118.378 467.0838" style="stroke: rgb(56%,93%,56%); stroke-linecap: round; stroke-width: 1; fill: rgb(56%,93%,56%); fill-rule: evenodd;"/>
			<polygon points="1168.085 487.5844, 1140.823 487.5844, 1140.823 497.8346, 1124.422 477.3341, 1140.823 456.8335, 1140.823 467.0838, 1168.085 467.0838" style="stroke: rgb(56%,93%,56%); stroke-linecap: round; stroke-width: 1; fill: rgb(56%,93%,56%); fill-rule: evenodd;"/>
			<polygon points="1258.917 487.5844, 1197.006 487.5844, 1197.006 497.8346, 1180.606 477.3341, 1197.006 456.8335, 1197.006 467.0838, 1258.917 467.0838" style="stroke: rgb(56%,93%,56%); stroke-linecap: round; stroke-width: 1; fill: rgb(56%,93%,56%); fill-rule: evenodd;"/>
			<polygon points="1265.015 528.5855, 1297.296 528.5855, 1297.296 538.8358, 1313.697 518.3352, 1297.296 497.8346, 1297.296 508.0849, 1265.015 508.0849" style="stroke: rgb(67%,84%,90%); stroke-linecap: round; stroke-width: 1; fill: rgb(67%,84%,90%); fill-rule: evenodd;"/>
			<polygon points="1346.403 487.5844, 1328.856 487.5844, 1328.856 497.8346, 1312.455 477.3341, 1328.856 456.8335, 1328.856 467.0838, 1346.403 467.0838" style="stroke: rgb(56%,93%,56%); stroke-linecap: round; stroke-width: 1; fill: rgb(56%,93%,56%); fill-rule: evenodd;"/>
			<path d="M 1220.273883,169.825647 L 1220.273883,251.827897 Z" style="stroke: rgb(0%,0%,0%); stroke-linecap: butt; stroke-width: 1;"/>
			<path d="M 70.866142,210.826772 L 1220.273883,210.826772 Z" style="stroke: rgb(0%,0%,0%); stroke-linecap: butt; stroke-width: 1;"/>
			<path d="M 70.866142,169.825647 L 70.866142,251.827897 Z" style="stroke: rgb(0%,0%,0%); stroke-linecap: butt; stroke-width: 1;"/>
			<path d="M 610.570204,210.826772 L 610.570204,231.327334 Z" style="stroke: rgb(0%,0%,0%); stroke-linecap: butt; stroke-width: 1;"/>
			<path d="M 1150.274266,210.826772 L 1150.274266,231.327334 Z" style="stroke: rgb(0%,0%,0%); stroke-linecap: butt; stroke-width: 1;"/>
			<path d="M 610.570204,210.826772 L 610.570204,223.127109 Z" style="stroke: rgb(0%,0%,0%); stroke-linecap: butt; stroke-width: 1;"/>
			<path d="M 1150.274266,210.826772 L 1150.274266,223.127109 Z" style="stroke: rgb(0%,0%,0%); stroke-linecap: butt; stroke-width: 1;"/>
			<path d="M 1346.402723,456.833521 L 1346.402723,538.835771 Z" style="stroke: rgb(0%,0%,0%); stroke-linecap: butt; stroke-width: 1;"/>
			<path d="M 70.866142,497.834646 L 1346.402723,497.834646 Z" style="stroke: rgb(0%,0%,0%); stroke-linecap: butt; stroke-width: 1;"/>
			<path d="M 70.866142,456.833521 L 70.866142,538.835771 Z" style="stroke: rgb(0%,0%,0%); stroke-linecap: butt; stroke-width: 1;"/>
			<path d="M 610.570204,497.834646 L 610.570204,518.335208 Z" style="stroke: rgb(0%,0%,0%); stroke-linecap: butt; stroke-width: 1;"/>
			<path d="M 1150.274266,497.834646 L 1150.274266,518.335208 Z" style="stroke: rgb(0%,0%,0%); stroke-linecap: butt; stroke-width: 1;"/>
			<path d="M 610.570204,497.834646 L 610.570204,510.134983 Z" style="stroke: rgb(0%,0%,0%); stroke-linecap: butt; stroke-width: 1;"/>
			<path d="M 1150.274266,497.834646 L 1150.274266,510.134983 Z" style="stroke: rgb(0%,0%,0%); stroke-linecap: butt; stroke-width: 1;"/>
			<g transform=" matrix(0.707107,0.707107,-0.707107,0.707107,610.570204,231.327334)">
				<text style="font-family: Helvetica; font-size: 6px;fill: rgb(0%,0%,0%); stroke:none;" transform="translate(0,0) scale(1,-1)" x="0" y="0">10000</text>
			</g>
			<g transform=" matrix(0.707107,0.707107,-0.707107,0.707107,1150.274266,231.327334)">
				<text style="font-family: Helvetica; font-size: 6px;fill: rgb(0%,0%,0%); stroke:none;" transform="translate(0,0) scale(1,-1)" x="0" y="0">20000</text>
			</g>
			<g transform=" matrix(0.707107,0.707107,-0.707107,0.707107,610.570204,518.335208)">
				<text style="font-family: Helvetica; font-size: 6px;fill: rgb(0%,0%,0%); stroke:none;" transform="translate(0,0) scale(1,-1)" x="0" y="0">10000</text>
			</g>
			<g transform=" matrix(0.707107,0.707107,-0.707107,0.707107,1150.274266,518.335208)">
				<text style="font-family: Helvetica; font-size: 6px;fill: rgb(0%,0%,0%); stroke:none;" transform="translate(0,0) scale(1,-1)" x="0" y="0">20000</text>
			</g>
			<g transform=" matrix(0.707107,0.707107,-0.707107,0.707107,117.577528,251.827897)">
				<text style="font-family: Helvetica; font-size: 10px;fill: rgb(0%,0%,0%); stroke:none;" transform="translate(0,0) scale(1,-1)" x="0" y="0">Gene_01846</text>
			</g>
			<g transform=" matrix(0.707107,-0.707107,0.707107,0.707107,215.048082,169.825647)">
				<text style="font-family: Helvetica; font-size: 10px;fill: rgb(0%,0%,0%); stroke:none;" transform="translate(0,0) scale(1,-1)" x="0" y="0">Gene_01847</text>
			</g>
			<g transform=" matrix(0.707107,-0.707107,0.707107,0.707107,319.80464,169.825647)">
				<text style="font-family: Helvetica; font-size: 10px;fill: rgb(0%,0%,0%); stroke:none;" transform="translate(0,0) scale(1,-1)" x="0" y="0">Gene_01848</text>
			</g>
			<g transform=" matrix(0.707107,-0.707107,0.707107,0.707107,399.46496,169.825647)">
				<text style="font-family: Helvetica; font-size: 10px;fill: rgb(0%,0%,0%); stroke:none;" transform="translate(0,0) scale(1,-1)" x="0" y="0">Gene_01849</text>
			</g>
			<g transform=" matrix(0.707107,-0.707107,0.707107,0.707107,454.946538,169.825647)">
				<text style="font-family: Helvetica; font-size: 10px;fill: rgb(0%,0%,0%); stroke:none;" transform="translate(0,0) scale(1,-1)" x="0" y="0">Gene_01850</text>
			</g>
			<g transform=" matrix(0.707107,-0.707107,0.707107,0.707107,506.380335,169.825647)">
				<text style="font-family: Helvetica; font-size: 10px;fill: rgb(0%,0%,0%); stroke:none;" transform="translate(0,0) scale(1,-1)" x="0" y="0">Gene_01851</text>
			</g>
			<g transform=" matrix(0.707107,-0.707107,0.707107,0.707107,558.299866,169.825647)">
				<text style="font-family: Helvetica; font-size: 10px;fill: rgb(0%,0%,0%); stroke:none;" transform="translate(0,0) scale(1,-1)" x="0" y="0">Gene_01852</text>
			</g>
			<g transform=" matrix(0.707107,-0.707107,0.707107,0.707107,616.72283,169.825647)">
				<text style="font-family: Helvetica; font-size: 16px;fill: rgb(0%,0%,100%); stroke:none;" transform="translate(0,0) scale(1,-1)" x="0" y="0">Gene_01853 (85.6)</text>
			</g>
			<g transform=" matrix(0.707107,-0.707107,0.707107,0.707107,664.189803,169.825647)">
				<text style="font-family: Helvetica; font-size: 10px;fill: rgb(0%,0%,0%); stroke:none;" transform="translate(0,0) scale(1,-1)" x="0" y="0">Gene_01854</text>
			</g>
			<g transform=" matrix(0.707107,-0.707107,0.707107,0.707107,714.975955,169.825647)">
				<text style="font-family: Helvetica; font-size: 10px;fill: rgb(0%,0%,0%); stroke:none;" transform="translate(0,0) scale(1,-1)" x="0" y="0">Gene_01855</text>
			</g>
			<g transform=" matrix(0.707107,-0.707107,0.707107,0.707107,744.335856,169.825647)">
				<text style="font-family: Helvetica; font-size: 10px;fill: rgb(0%,0%,0%); stroke:none;" transform="translate(0,0) scale(1,-1)" x="0" y="0">Gene_01856</text>
			</g>
			<g transform=" matrix(0.707107,-0.707107,0.707107,0.707107,784.948587,169.825647)">
				<text style="font-family: Helvetica; font-size: 10px;fill: rgb(0%,0%,0%); stroke:none;" transform="translate(0,0) scale(1,-1)" x="0" y="0">Gene_01857</text>
			</g>
			<g transform=" matrix(0.707107,-0.707107,0.707107,0.707107,830.904387,169.825647)">
				<text style="font-family: Helvetica; font-size: 10px;fill: rgb(0%,0%,0%); stroke:none;" transform="translate(0,0) scale(1,-1)" x="0" y="0">Gene_01858</text>
			</g>
			<g transform=" matrix(0.707107,-0.707107,0.707107,0.707107,898.556292,169.825647)">
				<text style="font-family: Helvetica; font-size: 10px;fill: rgb(0%,0%,0%); stroke:none;" transform="translate(0,0) scale(1,-1)" x="0" y="0">Gene_01859</text>
			</g>
			<g transform=" matrix(0.707107,-0.707107,0.707107,0.707107,972.7656,169.825647)">
				<text style="font-family: Helvetica; font-size: 10px;fill: rgb(0%,0%,0%); stroke:none;" transform="translate(0,0) scale(1,-1)" x="0" y="0">Gene_01860</text>
			</g>
			<g transform=" matrix(0.707107,-0.707107,0.707107,0.707107,1022.526315,169.825647)">
				<text style="font-family: Helvetica; font-size: 10px;fill: rgb(0%,0%,0%); stroke:none;" transform="translate(0,0) scale(1,-1)" x="0" y="0">Gene_01861</text>
			</g>
			<g transform=" matrix(0.707107,-0.707107,0.707107,0.707107,1094.145044,169.825647)">
				<text style="font-family: Helvetica; font-size: 10px;fill: rgb(0%,0%,0%); stroke:none;" transform="translate(0,0) scale(1,-1)" x="0" y="0">Gene_01862</text>
			</g>
			<g transform=" matrix(0.707107,0.707107,-0.707107,0.707107,1162.255696,251.827897)">
				<text style="font-family: Helvetica; font-size: 10px;fill: rgb(0%,0%,0%); stroke:none;" transform="translate(0,0) scale(1,-1)" x="0" y="0">Gene_01863</text>
			</g>
			<g transform=" matrix(0.707107,-0.707107,0.707107,0.707107,1203.30019,169.825647)">
				<text style="font-family: Helvetica; font-size: 10px;fill: rgb(0%,0%,0%); stroke:none;" transform="translate(0,0) scale(1,-1)" x="0" y="0">Gene_01864</text>
			</g>
			<g transform=" matrix(0.707107,-0.707107,0.707107,0.707107,139.246646,456.833521)">
				<text style="font-family: Helvetica; font-size: 10px;fill: rgb(0%,0%,0%); stroke:none;" transform="translate(0,0) scale(1,-1)" x="0" y="0">Gene_00226</text>
			</g>
			<g transform=" matrix(0.707107,-0.707107,0.707107,0.707107,314.46157,456.833521)">
				<text style="font-family: Helvetica; font-size: 10px;fill: rgb(0%,0%,0%); stroke:none;" transform="translate(0,0) scale(1,-1)" x="0" y="0">Gene_00227</text>
			</g>
			<g transform=" matrix(0.707107,-0.707107,0.707107,0.707107,490.513035,456.833521)">
				<text style="font-family: Helvetica; font-size: 10px;fill: rgb(0%,0%,0%); stroke:none;" transform="translate(0,0) scale(1,-1)" x="0" y="0">Gene_00228</text>
			</g>
			<g transform=" matrix(0.707107,-0.707107,0.707107,0.707107,584.502498,456.833521)">
				<text style="font-family: Helvetica; font-size: 10px;fill: rgb(0%,0%,0%); stroke:none;" transform="translate(0,0) scale(1,-1)" x="0" y="0">Gene_00229</text>
			</g>
			<g transform=" matrix(0.707107,-0.707107,0.707107,0.707107,635.774384,456.833521)">
				<text style="font-family: Helvetica; font-size: 10px;fill: rgb(0%,0%,0%); stroke:none;" transform="translate(0,0) scale(1,-1)" x="0" y="0">Gene_00230</text>
			</g>
			<g transform=" matrix(0.707107,-0.707107,0.707107,0.707107,687.77487,456.833521)">
				<text style="font-family: Helvetica; font-size: 10px;fill: rgb(0%,0%,0%); stroke:none;" transform="translate(0,0) scale(1,-1)" x="0" y="0">Gene_00231</text>
			</g>
			<g transform=" matrix(0.707107,-0.707107,0.707107,0.707107,740.288075,456.833521)">
				<text style="font-family: Helvetica; font-size: 16px;fill: rgb(0%,0%,100%); stroke:none;" transform="translate(0,0) scale(1,-1)" x="0" y="0">Gene_00232 (85.6)</text>
			</g>
			<g transform=" matrix(0.707107,-0.707107,0.707107,0.707107,787.862988,456.833521)">
				<text style="font-family: Helvetica; font-size: 10px;fill: rgb(0%,0%,0%); stroke:none;" transform="translate(0,0) scale(1,-1)" x="0" y="0">Gene_00233</text>
			</g>
			<g transform=" matrix(0.707107,-0.707107,0.707107,0.707107,837.596718,456.833521)">
				<text style="font-family: Helvetica; font-size: 10px;fill: rgb(0%,0%,0%); stroke:none;" transform="translate(0,0) scale(1,-1)" x="0" y="0">Gene_00234</text>
			</g>
			<g transform=" matrix(0.707107,-0.707107,0.707107,0.707107,866.362944,456.833521)">
				<text style="font-family: Helvetica; font-size: 10px;fill: rgb(0%,0%,0%); stroke:none;" transform="translate(0,0) scale(1,-1)" x="0" y="0">Gene_00235</text>
			</g>
			<g transform=" matrix(0.707107,-0.707107,0.707107,0.707107,907.137586,456.833521)">
				<text style="font-family: Helvetica; font-size: 10px;fill: rgb(0%,0%,0%); stroke:none;" transform="translate(0,0) scale(1,-1)" x="0" y="0">Gene_00236</text>
			</g>
			<g transform=" matrix(0.707107,-0.707107,0.707107,0.707107,953.039417,456.833521)">
				<text style="font-family: Helvetica; font-size: 10px;fill: rgb(0%,0%,0%); stroke:none;" transform="translate(0,0) scale(1,-1)" x="0" y="0">Gene_00237</text>
			</g>
			<g transform=" matrix(0.707107,-0.707107,0.707107,0.707107,1022.49933,456.833521)">
				<text style="font-family: Helvetica; font-size: 10px;fill: rgb(0%,0%,0%); stroke:none;" transform="translate(0,0) scale(1,-1)" x="0" y="0">Gene_00238</text>
			</g>
			<g transform=" matrix(0.707107,-0.707107,0.707107,0.707107,1096.627682,456.833521)">
				<text style="font-family: Helvetica; font-size: 10px;fill: rgb(0%,0%,0%); stroke:none;" transform="translate(0,0) scale(1,-1)" x="0" y="0">Gene_00239</text>
			</g>
			<g transform=" matrix(0.707107,-0.707107,0.707107,0.707107,1146.253471,456.833521)">
				<text style="font-family: Helvetica; font-size: 10px;fill: rgb(0%,0%,0%); stroke:none;" transform="translate(0,0) scale(1,-1)" x="0" y="0">Gene_00240</text>
			</g>
			<g transform=" matrix(0.707107,-0.707107,0.707107,0.707107,1219.761164,456.833521)">
				<text style="font-family: Helvetica; font-size: 10px;fill: rgb(0%,0%,0%); stroke:none;" transform="translate(0,0) scale(1,-1)" x="0" y="0">Gene_00241</text>
			</g>
			<g transform=" matrix(0.707107,0.707107,-0.707107,0.707107,1289.356003,538.835771)">
				<text style="font-family: Helvetica; font-size: 10px;fill: rgb(0%,0%,0%); stroke:none;" transform="translate(0,0) scale(1,-1)" x="0" y="0">Gene_00242</text>
			</g>
			<g transform=" matrix(0.707107,-0.707107,0.707107,0.707107,1329.42903,456.833521)">
				<text style="font-family: Helvetica; font-size: 10px;fill: rgb(0%,0%,0%); stroke:none;" transform="translate(0,0) scale(1,-1)" x="0" y="0">Gene_00243</text>
			</g>
			<g transform=" matrix(1,0,-0,1,70,169.825647)">
				<text style="font-family: Helvetica; font-size: 12px;fill: rgb(60%,60%,60%); stroke:none;" transform="translate(0,0) scale(1,-1)" x="0" y="0">megahit_105683 (left 9792bp, right 59507bp)</text>
			</g>
			<g transform=" matrix(1,0,-0,1,70,456.833521)">
				<text style="font-family: Helvetica; font-size: 12px;fill: rgb(60%,60%,60%); stroke:none;" transform="translate(0,0) scale(1,-1)" x="0" y="0">megahit_8495 (left 62214bp, right 17939bp)</text>
			</g>
		</g>
	</g>
</svg>
