<?xml version="1.0" encoding="utf-8"?>
<!DOCTYPE svg
  PUBLIC '-//W3C//DTD SVG 1.0//EN'
  'http://www.w3.org/TR/2001/REC-SVG-20010904/DTD/svg10.dtd'>
<svg fill-rule="evenodd" height="708.6614173228346" preserveAspectRatio="xMinYMin meet" version="1.0" viewBox="0 0 1417 708" width="1417.3228346456692" xmlns="http://www.w3.org/2000/svg" xmlns:xlink="http://www.w3.org/1999/xlink">
	<title>...</title>
	<desc>...</desc>
	<clipPath id="clip">
		<rect height="708.6614173228346" width="1417.3228346456692" x="0" y="0"/>
	</clipPath>
	<g id="group" style="clip-path: url(#clip)" transform="scale(1,-1) translate(0,-708)">
		<g transform="">
			<polygon points="70.86614 169.8256, 1346.209 169.8256, 1346.209 251.8279, 70.86614 251.8279" style="stroke: rgb(96%,96%,96%); stroke-linecap: butt; stroke-width: 1; fill: rgb(96%,96%,96%); fill-rule: evenodd;"/>
			<polygon points="70.86614 456.8335, 585.4046 456.8335, 585.4046 538.8358, 70.86614 538.8358" style="stroke: rgb(96%,96%,96%); stroke-linecap: butt; stroke-width: 1; fill: rgb(96%,96%,96%); fill-rule: evenodd;"/>
			<polygon points="356.9406 456.8335, 585.4046 456.8335, 1262.39 251.8279, 1033.926 251.8279" style="stroke: rgb(100%,10%,10%); stroke-linecap: round; stroke-width: 1; fill: rgb(100%,10%,10%); fill-rule: evenodd;"/>
			<polygon points="78.53106 241.5776, 576.6691 241.5776, 576.6691 251.8279, 593.0695 231.3273, 576.6691 210.8268, 576.6691 221.0771, 78.53106 221.0771" style="stroke: rgb(67%,84%,90%); stroke-linecap: round; stroke-width: 1; fill: rgb(67%,84%,90%); fill-rule: evenodd;"/>
			<polygon points="657.3559 200.5765, 608.7282 200.5765, 608.7282 210.8268, 592.3278 190.3262, 608.7282 169.8256, 608.7282 180.0759, 657.3559 180.0759" style="stroke: rgb(56%,93%,56%); stroke-linecap: round; stroke-width: 1; fill: rgb(56%,93%,56%); fill-rule: evenodd;"/>
			<polygon points="928.8423 200.5765, 726.669 200.5765, 726.669 210.8268, 710.2686 190.3262, 726.669 169.8256, 726.669 180.0759, 928.8423 180.0759" style="stroke: rgb(56%,93%,56%); stroke-linecap: round; stroke-width: 1; fill: rgb(56%,93%,56%); fill-rule: evenodd;"/>
			<polygon points="999.0629 200.5765, 954.144 200.5765, 954.144 210.8268, 937.7435 190.3262, 954.144 169.8256, 954.144 180.0759, 999.0629 180.0759" style="stroke: rgb(56%,93%,56%); stroke-linecap: round; stroke-width: 1; fill: rgb(56%,93%,56%); fill-rule: evenodd;"/>
			<polygon points="1234.45 200.5765, 1049.337 200.5765, 1049.337 210.8268, 1032.937 190.3262, 1049.337 169.8256, 1049.337 180.0759, 1234.45 180.0759" style="stroke: rgb(56%,93%,56%); stroke-linecap: round; stroke-width: 1; fill: rgb(56%,93%,56%); fill-rule: evenodd;"/>
			<polygon points="1342.995 200.5765, 1255.796 200.5765, 1255.796 210.8268, 1239.395 190.3262, 1255.796 169.8256, 1255.796 180.0759, 1342.995 180.0759" style="stroke: rgb(56%,93%,56%); stroke-linecap: round; stroke-width: 1; fill: rgb(56%,93%,56%); fill-rule: evenodd;"/>
			<polygon points="325.5392 487.5844, 127.8165 487.5844, 127.8165 497.8346, 111.416 477.3341, 127.8165 456.8335, 127.8165 467.0838, 325.5392 467.0838" style="stroke: rgb(56%,93%,56%); stroke-linecap: round; stroke-width: 1; fill: rgb(56%,93%,56%); fill-rule: evenodd;"/>
			<polygon points="557.4647 487.5844, 372.3521 487.5844, 372.3521 497.8346, 355.9516 477.3341, 372.3521 456.8335, 372.3521 467.0838, 557.4647 467.0838" style="stroke: rgb(56%,93%,56%); stroke-linecap: round; stroke-width: 1; fill: rgb(56%,93%,56%); fill-rule: evenodd;"/>
			<path d="M 1346.209438,169.825647 L 1346.209438,251.827897 Z" style="stroke: rgb(0%,0%,0%); stroke-linecap: butt; stroke-width: 1;"/>
			<path d="M 70.866142,210.826772 L 1346.209438,210.826772 Z" style="stroke: rgb(0%,0%,0%); stroke-linecap: butt; stroke-width: 1;"/>
			<path d="M 70.866142,169.825647 L 70.866142,251.827897 Z" style="stroke: rgb(0%,0%,0%); stroke-linecap: butt; stroke-width: 1;"/>
			<path d="M 585.404606,456.833521 L 585.404606,538.835771 Z" style="stroke: rgb(0%,0%,0%); stroke-linecap: butt; stroke-width: 1;"/>
			<path d="M 70.866142,497.834646 L 585.404606,497.834646 Z" style="stroke: rgb(0%,0%,0%); stroke-linecap: butt; stroke-width: 1;"/>
			<path d="M 70.866142,456.833521 L 70.866142,538.835771 Z" style="stroke: rgb(0%,0%,0%); stroke-linecap: butt; stroke-width: 1;"/>
			<g transform=" matrix(0.707107,0.707107,-0.707107,0.707107,335.800291,251.827897)">
				<text style="font-family: Helvetica; font-size: 10px;fill: rgb(0%,0%,0%); stroke:none;" transform="translate(0,0) scale(1,-1)" x="0" y="0">Gene_00691</text>
			</g>
			<g transform=" matrix(0.707107,-0.707107,0.707107,0.707107,624.84184,169.825647)">
				<text style="font-family: Helvetica; font-size: 10px;fill: rgb(0%,0%,0%); stroke:none;" transform="translate(0,0) scale(1,-1)" x="0" y="0">Gene_00692</text>
			</g>
			<g transform=" matrix(0.707107,-0.707107,0.707107,0.707107,819.555459,169.825647)">
				<text style="font-family: Helvetica; font-size: 10px;fill: rgb(0%,0%,0%); stroke:none;" transform="translate(0,0) scale(1,-1)" x="0" y="0">Gene_00693</text>
			</g>
			<g transform=" matrix(0.707107,-0.707107,0.707107,0.707107,968.403203,169.825647)">
				<text style="font-family: Helvetica; font-size: 10px;fill: rgb(0%,0%,0%); stroke:none;" transform="translate(0,0) scale(1,-1)" x="0" y="0">Gene_00694</text>
			</g>
			<g transform=" matrix(0.707107,-0.707107,0.707107,0.707107,1133.693431,169.825647)">
				<text style="font-family: Helvetica; font-size: 16px;fill: rgb(0%,0%,100%); stroke:none;" transform="translate(0,0) scale(1,-1)" x="0" y="0">Gene_00695 (94.7)</text>
			</g>
			<g transform=" matrix(0.707107,-0.707107,0.707107,0.707107,1291.195114,169.825647)">
				<text style="font-family: Helvetica; font-size: 10px;fill: rgb(0%,0%,0%); stroke:none;" transform="translate(0,0) scale(1,-1)" x="0" y="0">Gene_00696</text>
			</g>
			<g transform=" matrix(0.707107,-0.707107,0.707107,0.707107,218.477609,456.833521)">
				<text style="font-family: Helvetica; font-size: 10px;fill: rgb(0%,0%,0%); stroke:none;" transform="translate(0,0) scale(1,-1)" x="0" y="0">Gene_00745</text>
			</g>
			<g transform=" matrix(0.707107,-0.707107,0.707107,0.707107,456.708176,456.833521)">
				<text style="font-family: Helvetica; font-size: 16px;fill: rgb(0%,0%,100%); stroke:none;" transform="translate(0,0) scale(1,-1)" x="0" y="0">Gene_00746 (94.7)</text>
			</g>
			<g transform=" matrix(1,0,-0,1,70,169.825647)">
				<text style="font-family: Helvetica; font-size: 12px;fill: rgb(60%,60%,60%); stroke:none;" transform="translate(0,0) scale(1,-1)" x="0" y="0">megahit_70830 (left 3891bp, right 452bp)</text>
			</g>
			<g transform=" matrix(1,0,-0,1,70,456.833521)">
				<text style="font-family: Helvetica; font-size: 12px;fill: rgb(60%,60%,60%); stroke:none;" transform="translate(0,0) scale(1,-1)" x="0" y="0">megahit_25750 (left 1153bp, right 113bp)</text>
			</g>
		</g>
	</g>
</svg>
