<?xml version="1.0" encoding="utf-8"?>
<!DOCTYPE svg
  PUBLIC '-//W3C//DTD SVG 1.0//EN'
  'http://www.w3.org/TR/2001/REC-SVG-20010904/DTD/svg10.dtd'>
<svg fill-rule="evenodd" height="708.6614173228346" preserveAspectRatio="xMinYMin meet" version="1.0" viewBox="0 0 1417 708" width="1417.3228346456692" xmlns="http://www.w3.org/2000/svg" xmlns:xlink="http://www.w3.org/1999/xlink">
	<title>...</title>
	<desc>...</desc>
	<clipPath id="clip">
		<rect height="708.6614173228346" width="1417.3228346456692" x="0" y="0"/>
	</clipPath>
	<g id="group" style="clip-path: url(#clip)" transform="scale(1,-1) translate(0,-708)">
		<g transform="">
			<polygon points="70.86614 169.8256, 1346.382 169.8256, 1346.382 251.8279, 70.86614 251.8279" style="stroke: rgb(96%,96%,96%); stroke-linecap: butt; stroke-width: 1; fill: rgb(96%,96%,96%); fill-rule: evenodd;"/>
			<polygon points="70.86614 456.8335, 203.3397 456.8335, 203.3397 538.8358, 70.86614 538.8358" style="stroke: rgb(96%,96%,96%); stroke-linecap: butt; stroke-width: 1; fill: rgb(96%,96%,96%); fill-rule: evenodd;"/>
			<polygon points="71.16535 456.8335, 123.676 456.8335, 492.4476 251.8279, 545.1079 251.8279" style="stroke: rgb(100%,37%,37%); stroke-linecap: round; stroke-width: 1; fill: rgb(100%,37%,37%); fill-rule: evenodd;"/>
			<polygon points="97.42069 200.5765, 95.71916 200.5765, 95.71916 210.8268, 79.31872 190.3262, 95.71916 169.8256, 95.71916 180.0759, 97.42069 180.0759" style="stroke: rgb(56%,93%,56%); stroke-linecap: round; stroke-width: 1; fill: rgb(56%,93%,56%); fill-rule: evenodd;"/>
			<polygon points="109.4637 241.5776, 110.9408 241.5776, 110.9408 251.8279, 127.3413 231.3273, 110.9408 210.8268, 110.9408 221.0771, 109.4637 221.0771" style="stroke: rgb(67%,84%,90%); stroke-linecap: round; stroke-width: 1; fill: rgb(67%,84%,90%); fill-rule: evenodd;"/>
			<polygon points="145.9669 241.5776, 186.9392 241.5776, 186.9392 251.8279, 203.3397 231.3273, 186.9392 210.8268, 186.9392 221.0771, 145.9669 221.0771" style="stroke: rgb(67%,84%,90%); stroke-linecap: round; stroke-width: 1; fill: rgb(67%,84%,90%); fill-rule: evenodd;"/>
			<polygon points="209.0246 241.5776, 398.7772 241.5776, 398.7772 251.8279, 415.1776 231.3273, 398.7772 210.8268, 398.7772 221.0771, 209.0246 221.0771" style="stroke: rgb(67%,84%,90%); stroke-linecap: round; stroke-width: 1; fill: rgb(67%,84%,90%); fill-rule: evenodd;"/>
			<polygon points="416.8232 241.5776, 432.6622 241.5776, 432.6622 251.8279, 449.0627 231.3273, 432.6622 210.8268, 432.6622 221.0771, 416.8232 221.0771" style="stroke: rgb(67%,84%,90%); stroke-linecap: round; stroke-width: 1; fill: rgb(67%,84%,90%); fill-rule: evenodd;"/>
			<polygon points="450.7831 241.5776, 461.4608 241.5776, 461.4608 251.8279, 477.8613 231.3273, 461.4608 210.8268, 461.4608 221.0771, 450.7831 221.0771" style="stroke: rgb(67%,84%,90%); stroke-linecap: round; stroke-width: 1; fill: rgb(67%,84%,90%); fill-rule: evenodd;"/>
			<polygon points="481.9006 241.5776, 527.5854 241.5776, 527.5854 251.8279, 543.9858 231.3273, 527.5854 210.8268, 527.5854 221.0771, 481.9006 221.0771" style="stroke: rgb(67%,84%,90%); stroke-linecap: round; stroke-width: 1; fill: rgb(67%,84%,90%); fill-rule: evenodd;"/>
			<polygon points="560.2926 241.5776, 579.0488 241.5776, 579.0488 251.8279, 595.4493 231.3273, 579.0488 210.8268, 579.0488 221.0771, 560.2926 221.0771" style="stroke: rgb(67%,84%,90%); stroke-linecap: round; stroke-width: 1; fill: rgb(67%,84%,90%); fill-rule: evenodd;"/>
			<polygon points="595.2249 241.5776, 656.3936 241.5776, 656.3936 251.8279, 672.7941 231.3273, 656.3936 210.8268, 656.3936 221.0771, 595.2249 221.0771" style="stroke: rgb(67%,84%,90%); stroke-linecap: round; stroke-width: 1; fill: rgb(67%,84%,90%); fill-rule: evenodd;"/>
			<polygon points="680.5734 241.5776, 847.6612 241.5776, 847.6612 251.8279, 864.0616 231.3273, 847.6612 210.8268, 847.6612 221.0771, 680.5734 221.0771" style="stroke: rgb(67%,84%,90%); stroke-linecap: round; stroke-width: 1; fill: rgb(67%,84%,90%); fill-rule: evenodd;"/>
			<polygon points="865.7072 241.5776, 889.176 241.5776, 889.176 251.8279, 905.5765 231.3273, 889.176 210.8268, 889.176 221.0771, 865.7072 221.0771" style="stroke: rgb(67%,84%,90%); stroke-linecap: round; stroke-width: 1; fill: rgb(67%,84%,90%); fill-rule: evenodd;"/>
			<polygon points="962.4256 200.5765, 929.9807 200.5765, 929.9807 210.8268, 913.5802 190.3262, 929.9807 169.8256, 929.9807 180.0759, 962.4256 180.0759" style="stroke: rgb(56%,93%,56%); stroke-linecap: round; stroke-width: 1; fill: rgb(56%,93%,56%); fill-rule: evenodd;"/>
			<polygon points="969.9806 241.5776, 1015.441 241.5776, 1015.441 251.8279, 1031.841 231.3273, 1015.441 210.8268, 1015.441 221.0771, 969.9806 221.0771" style="stroke: rgb(67%,84%,90%); stroke-linecap: round; stroke-width: 1; fill: rgb(67%,84%,90%); fill-rule: evenodd;"/>
			<polygon points="1041.865 241.5776, 1088.672 241.5776, 1088.672 251.8279, 1105.072 231.3273, 1088.672 210.8268, 1088.672 221.0771, 1041.865 221.0771" style="stroke: rgb(67%,84%,90%); stroke-linecap: round; stroke-width: 1; fill: rgb(67%,84%,90%); fill-rule: evenodd;"/>
			<polygon points="1115.619 241.5776, 1163.772 241.5776, 1163.772 251.8279, 1180.173 231.3273, 1163.772 210.8268, 1163.772 221.0771, 1115.619 221.0771" style="stroke: rgb(67%,84%,90%); stroke-linecap: round; stroke-width: 1; fill: rgb(67%,84%,90%); fill-rule: evenodd;"/>
			<polygon points="1185.484 241.5776, 1258.546 241.5776, 1258.546 251.8279, 1274.946 231.3273, 1258.546 210.8268, 1258.546 221.0771, 1185.484 221.0771" style="stroke: rgb(67%,84%,90%); stroke-linecap: round; stroke-width: 1; fill: rgb(67%,84%,90%); fill-rule: evenodd;"/>
			<polygon points="1274.722 241.5776, 1291.01 241.5776, 1291.01 251.8279, 1307.41 231.3273, 1291.01 210.8268, 1291.01 221.0771, 1274.722 221.0771" style="stroke: rgb(67%,84%,90%); stroke-linecap: round; stroke-width: 1; fill: rgb(67%,84%,90%); fill-rule: evenodd;"/>
			<polygon points="1307.41 241.5776, 1329.981 241.5776, 1329.981 251.8279, 1346.382 231.3273, 1329.981 210.8268, 1329.981 221.0771, 1307.41 221.0771" style="stroke: rgb(67%,84%,90%); stroke-linecap: round; stroke-width: 1; fill: rgb(67%,84%,90%); fill-rule: evenodd;"/>
			<polygon points="124.3492 487.5844, 88.53822 487.5844, 88.53822 497.8346, 72.13777 477.3341, 88.53822 456.8335, 88.53822 467.0838, 124.3492 467.0838" style="stroke: rgb(56%,93%,56%); stroke-linecap: round; stroke-width: 1; fill: rgb(56%,93%,56%); fill-rule: evenodd;"/>
			<polygon points="201.1704 487.5844, 201.1704 497.8346, 186.4345 477.3341, 201.1704 456.8335, 201.1704 467.0838" style="stroke: rgb(56%,93%,56%); stroke-linecap: round; stroke-width: 1; fill: rgb(56%,93%,56%); fill-rule: evenodd;"/>
			<path d="M 1346.381891,169.825647 L 1346.381891,251.827897 Z" style="stroke: rgb(0%,0%,0%); stroke-linecap: butt; stroke-width: 1;"/>
			<path d="M 70.866142,210.826772 L 1346.381891,210.826772 Z" style="stroke: rgb(0%,0%,0%); stroke-linecap: butt; stroke-width: 1;"/>
			<path d="M 70.866142,169.825647 L 70.866142,251.827897 Z" style="stroke: rgb(0%,0%,0%); stroke-linecap: butt; stroke-width: 1;"/>
			<path d="M 818.881477,210.826772 L 818.881477,231.327334 Z" style="stroke: rgb(0%,0%,0%); stroke-linecap: butt; stroke-width: 1;"/>
			<path d="M 818.881477,210.826772 L 818.881477,223.127109 Z" style="stroke: rgb(0%,0%,0%); stroke-linecap: butt; stroke-width: 1;"/>
			<path d="M 203.339658,456.833521 L 203.339658,538.835771 Z" style="stroke: rgb(0%,0%,0%); stroke-linecap: butt; stroke-width: 1;"/>
			<path d="M 70.866142,497.834646 L 203.339658,497.834646 Z" style="stroke: rgb(0%,0%,0%); stroke-linecap: butt; stroke-width: 1;"/>
			<path d="M 70.866142,456.833521 L 70.866142,538.835771 Z" style="stroke: rgb(0%,0%,0%); stroke-linecap: butt; stroke-width: 1;"/>
			<g transform=" matrix(0.707107,0.707107,-0.707107,0.707107,818.881477,231.327334)">
				<text style="font-family: Helvetica; font-size: 6px;fill: rgb(0%,0%,0%); stroke:none;" transform="translate(0,0) scale(1,-1)" x="0" y="0">10000</text>
			</g>
			<g transform=" matrix(0.707107,-0.707107,0.707107,0.707107,88.369701,169.825647)">
				<text style="font-family: Helvetica; font-size: 10px;fill: rgb(0%,0%,0%); stroke:none;" transform="translate(0,0) scale(1,-1)" x="0" y="0">Gene_00243</text>
			</g>
			<g transform=" matrix(0.707107,0.707107,-0.707107,0.707107,118.402516,251.827897)">
				<text style="font-family: Helvetica; font-size: 10px;fill: rgb(0%,0%,0%); stroke:none;" transform="translate(0,0) scale(1,-1)" x="0" y="0">Gene_00244</text>
			</g>
			<g transform=" matrix(0.707107,0.707107,-0.707107,0.707107,174.653269,251.827897)">
				<text style="font-family: Helvetica; font-size: 10px;fill: rgb(0%,0%,0%); stroke:none;" transform="translate(0,0) scale(1,-1)" x="0" y="0">Gene_00245</text>
			</g>
			<g transform=" matrix(0.707107,0.707107,-0.707107,0.707107,312.101087,251.827897)">
				<text style="font-family: Helvetica; font-size: 10px;fill: rgb(0%,0%,0%); stroke:none;" transform="translate(0,0) scale(1,-1)" x="0" y="0">Gene_00246</text>
			</g>
			<g transform=" matrix(0.707107,0.707107,-0.707107,0.707107,432.942965,251.827897)">
				<text style="font-family: Helvetica; font-size: 10px;fill: rgb(0%,0%,0%); stroke:none;" transform="translate(0,0) scale(1,-1)" x="0" y="0">Gene_00247</text>
			</g>
			<g transform=" matrix(0.707107,0.707107,-0.707107,0.707107,464.322208,251.827897)">
				<text style="font-family: Helvetica; font-size: 10px;fill: rgb(0%,0%,0%); stroke:none;" transform="translate(0,0) scale(1,-1)" x="0" y="0">Gene_00248</text>
			</g>
			<g transform=" matrix(0.707107,0.707107,-0.707107,0.707107,512.943205,251.827897)">
				<text style="font-family: Helvetica; font-size: 16px;fill: rgb(0%,0%,100%); stroke:none;" transform="translate(0,0) scale(1,-1)" x="0" y="0">Gene_00249 (81.8)</text>
			</g>
			<g transform=" matrix(0.707107,0.707107,-0.707107,0.707107,577.870936,251.827897)">
				<text style="font-family: Helvetica; font-size: 10px;fill: rgb(0%,0%,0%); stroke:none;" transform="translate(0,0) scale(1,-1)" x="0" y="0">Gene_00250</text>
			</g>
			<g transform=" matrix(0.707107,0.707107,-0.707107,0.707107,634.009487,251.827897)">
				<text style="font-family: Helvetica; font-size: 10px;fill: rgb(0%,0%,0%); stroke:none;" transform="translate(0,0) scale(1,-1)" x="0" y="0">Gene_00251</text>
			</g>
			<g transform=" matrix(0.707107,0.707107,-0.707107,0.707107,772.317522,251.827897)">
				<text style="font-family: Helvetica; font-size: 10px;fill: rgb(0%,0%,0%); stroke:none;" transform="translate(0,0) scale(1,-1)" x="0" y="0">Gene_00252</text>
			</g>
			<g transform=" matrix(0.707107,0.707107,-0.707107,0.707107,885.641846,251.827897)">
				<text style="font-family: Helvetica; font-size: 10px;fill: rgb(0%,0%,0%); stroke:none;" transform="translate(0,0) scale(1,-1)" x="0" y="0">Gene_00253</text>
			</g>
			<g transform=" matrix(0.707107,-0.707107,0.707107,0.707107,938.002919,169.825647)">
				<text style="font-family: Helvetica; font-size: 10px;fill: rgb(0%,0%,0%); stroke:none;" transform="translate(0,0) scale(1,-1)" x="0" y="0">Gene_00254</text>
			</g>
			<g transform=" matrix(0.707107,0.707107,-0.707107,0.707107,1000.911009,251.827897)">
				<text style="font-family: Helvetica; font-size: 10px;fill: rgb(0%,0%,0%); stroke:none;" transform="translate(0,0) scale(1,-1)" x="0" y="0">Gene_00255</text>
			</g>
			<g transform=" matrix(0.707107,0.707107,-0.707107,0.707107,1073.468496,251.827897)">
				<text style="font-family: Helvetica; font-size: 10px;fill: rgb(0%,0%,0%); stroke:none;" transform="translate(0,0) scale(1,-1)" x="0" y="0">Gene_00256</text>
			</g>
			<g transform=" matrix(0.707107,0.707107,-0.707107,0.707107,1147.896022,251.827897)">
				<text style="font-family: Helvetica; font-size: 10px;fill: rgb(0%,0%,0%); stroke:none;" transform="translate(0,0) scale(1,-1)" x="0" y="0">Gene_00257</text>
			</g>
			<g transform=" matrix(0.707107,0.707107,-0.707107,0.707107,1230.21511,251.827897)">
				<text style="font-family: Helvetica; font-size: 10px;fill: rgb(0%,0%,0%); stroke:none;" transform="translate(0,0) scale(1,-1)" x="0" y="0">Gene_00258</text>
			</g>
			<g transform=" matrix(0.707107,0.707107,-0.707107,0.707107,1291.066157,251.827897)">
				<text style="font-family: Helvetica; font-size: 10px;fill: rgb(0%,0%,0%); stroke:none;" transform="translate(0,0) scale(1,-1)" x="0" y="0">Gene_00259</text>
			</g>
			<g transform=" matrix(0.707107,0.707107,-0.707107,0.707107,1326.896092,251.827897)">
				<text style="font-family: Helvetica; font-size: 10px;fill: rgb(0%,0%,0%); stroke:none;" transform="translate(0,0) scale(1,-1)" x="0" y="0">Gene_00260</text>
			</g>
			<g transform=" matrix(0.707107,-0.707107,0.707107,0.707107,98.243503,456.833521)">
				<text style="font-family: Helvetica; font-size: 16px;fill: rgb(0%,0%,100%); stroke:none;" transform="translate(0,0) scale(1,-1)" x="0" y="0">Gene_00230 (81.8)</text>
			</g>
			<g transform=" matrix(0.707107,-0.707107,0.707107,0.707107,193.802462,456.833521)">
				<text style="font-family: Helvetica; font-size: 10px;fill: rgb(0%,0%,0%); stroke:none;" transform="translate(0,0) scale(1,-1)" x="0" y="0">Gene_00231</text>
			</g>
			<g transform=" matrix(1,0,-0,1,70,169.825647)">
				<text style="font-family: Helvetica; font-size: 12px;fill: rgb(60%,60%,60%); stroke:none;" transform="translate(0,0) scale(1,-1)" x="0" y="0">megahit_18521 (left 5495bp, right 16716bp)</text>
			</g>
		</g>
	</g>
</svg>
