<?xml version="1.0" encoding="utf-8"?>
<!DOCTYPE svg
  PUBLIC '-//W3C//DTD SVG 1.0//EN'
  'http://www.w3.org/TR/2001/REC-SVG-20010904/DTD/svg10.dtd'>
<svg fill-rule="evenodd" height="708.6614173228346" preserveAspectRatio="xMinYMin meet" version="1.0" viewBox="0 0 1417 708" width="1417.3228346456692" xmlns="http://www.w3.org/2000/svg" xmlns:xlink="http://www.w3.org/1999/xlink">
	<title>...</title>
	<desc>...</desc>
	<clipPath id="clip">
		<rect height="708.6614173228346" width="1417.3228346456692" x="0" y="0"/>
	</clipPath>
	<g id="group" style="clip-path: url(#clip)" transform="scale(1,-1) translate(0,-708)">
		<g transform="">
			<polygon points="70.86614 169.8256, 1346.379 169.8256, 1346.379 251.8279, 70.86614 251.8279" style="stroke: rgb(96%,96%,96%); stroke-linecap: butt; stroke-width: 1; fill: rgb(96%,96%,96%); fill-rule: evenodd;"/>
			<polygon points="70.86614 456.8335, 1031.656 456.8335, 1031.656 538.8358, 70.86614 538.8358" style="stroke: rgb(96%,96%,96%); stroke-linecap: butt; stroke-width: 1; fill: rgb(96%,96%,96%); fill-rule: evenodd;"/>
			<polygon points="348.4622 456.8335, 671.6512 456.8335, 395.9192 251.8279, 71.56518 251.8279" style="stroke: rgb(100%,41%,41%); stroke-linecap: round; stroke-width: 1; fill: rgb(100%,41%,41%); fill-rule: evenodd;"/>
			<polygon points="684.3116 456.8335, 925.0916 456.8335, 658.3695 251.8279, 417.1234 251.8279" style="stroke: rgb(100%,47%,47%); stroke-linecap: round; stroke-width: 1; fill: rgb(100%,47%,47%); fill-rule: evenodd;"/>
			<polygon points="934.7228 456.8335, 1030.18 456.8335, 758.565 251.8279, 663.8064 251.8279" style="stroke: rgb(100%,54%,54%); stroke-linecap: round; stroke-width: 1; fill: rgb(100%,54%,54%); fill-rule: evenodd;"/>
			<polygon points="77.77886 241.5776, 77.77886 251.8279, 92.84703 231.3273, 77.77886 210.8268, 77.77886 221.0771" style="stroke: rgb(67%,84%,90%); stroke-linecap: round; stroke-width: 1; fill: rgb(67%,84%,90%); fill-rule: evenodd;"/>
			<polygon points="94.24511 241.5776, 98.27213 241.5776, 98.27213 251.8279, 114.6726 231.3273, 98.27213 210.8268, 98.27213 221.0771, 94.24511 221.0771" style="stroke: rgb(67%,84%,90%); stroke-linecap: round; stroke-width: 1; fill: rgb(67%,84%,90%); fill-rule: evenodd;"/>
			<polygon points="116.3813 241.5776, 126.0007 241.5776, 126.0007 251.8279, 142.4011 231.3273, 126.0007 210.8268, 126.0007 221.0771, 116.3813 221.0771" style="stroke: rgb(67%,84%,90%); stroke-linecap: round; stroke-width: 1; fill: rgb(67%,84%,90%); fill-rule: evenodd;"/>
			<polygon points="143.7215 241.5776, 193.6521 241.5776, 193.6521 251.8279, 210.0525 231.3273, 193.6521 210.8268, 193.6521 221.0771, 143.7215 221.0771" style="stroke: rgb(67%,84%,90%); stroke-linecap: round; stroke-width: 1; fill: rgb(67%,84%,90%); fill-rule: evenodd;"/>
			<polygon points="210.0525 241.5776, 227.3613 241.5776, 227.3613 251.8279, 243.7617 231.3273, 227.3613 210.8268, 227.3613 221.0771, 210.0525 221.0771" style="stroke: rgb(67%,84%,90%); stroke-linecap: round; stroke-width: 1; fill: rgb(67%,84%,90%); fill-rule: evenodd;"/>
			<polygon points="243.9948 241.5776, 243.9948 251.8279, 259.529 231.3273, 243.9948 210.8268, 243.9948 221.0771" style="stroke: rgb(67%,84%,90%); stroke-linecap: round; stroke-width: 1; fill: rgb(67%,84%,90%); fill-rule: evenodd;"/>
			<polygon points="261.0824 241.5776, 265.1094 241.5776, 265.1094 251.8279, 281.5098 231.3273, 265.1094 210.8268, 265.1094 221.0771, 261.0824 221.0771" style="stroke: rgb(67%,84%,90%); stroke-linecap: round; stroke-width: 1; fill: rgb(67%,84%,90%); fill-rule: evenodd;"/>
			<polygon points="282.6749 241.5776, 294.8574 241.5776, 294.8574 251.8279, 311.2578 231.3273, 294.8574 210.8268, 294.8574 221.0771, 282.6749 221.0771" style="stroke: rgb(67%,84%,90%); stroke-linecap: round; stroke-width: 1; fill: rgb(67%,84%,90%); fill-rule: evenodd;"/>
			<polygon points="312.5782 241.5776, 320.3335 241.5776, 320.3335 251.8279, 336.7339 231.3273, 320.3335 210.8268, 320.3335 221.0771, 312.5782 221.0771" style="stroke: rgb(67%,84%,90%); stroke-linecap: round; stroke-width: 1; fill: rgb(67%,84%,90%); fill-rule: evenodd;"/>
			<polygon points="338.365 241.5776, 363.8292 241.5776, 363.8292 251.8279, 380.2297 231.3273, 363.8292 210.8268, 363.8292 221.0771, 338.365 221.0771" style="stroke: rgb(67%,84%,90%); stroke-linecap: round; stroke-width: 1; fill: rgb(67%,84%,90%); fill-rule: evenodd;"/>
			<polygon points="381.5501 241.5776, 381.5501 251.8279, 395.9192 231.3273, 381.5501 210.8268, 381.5501 221.0771" style="stroke: rgb(67%,84%,90%); stroke-linecap: round; stroke-width: 1; fill: rgb(67%,84%,90%); fill-rule: evenodd;"/>
			<polygon points="418.2884 241.5776, 432.801 241.5776, 432.801 251.8279, 449.2015 231.3273, 432.801 210.8268, 432.801 221.0771, 418.2884 221.0771" style="stroke: rgb(67%,84%,90%); stroke-linecap: round; stroke-width: 1; fill: rgb(67%,84%,90%); fill-rule: evenodd;"/>
			<polygon points="450.3666 241.5776, 476.2968 241.5776, 476.2968 251.8279, 492.6972 231.3273, 476.2968 210.8268, 476.2968 221.0771, 450.3666 221.0771" style="stroke: rgb(67%,84%,90%); stroke-linecap: round; stroke-width: 1; fill: rgb(67%,84%,90%); fill-rule: evenodd;"/>
			<polygon points="494.0177 241.5776, 505.0351 241.5776, 505.0351 251.8279, 521.4355 231.3273, 505.0351 210.8268, 505.0351 221.0771, 494.0177 221.0771" style="stroke: rgb(67%,84%,90%); stroke-linecap: round; stroke-width: 1; fill: rgb(67%,84%,90%); fill-rule: evenodd;"/>
			<polygon points="522.8336 241.5776, 545.2686 241.5776, 545.2686 251.8279, 561.6691 231.3273, 545.2686 210.8268, 545.2686 221.0771, 522.8336 221.0771" style="stroke: rgb(67%,84%,90%); stroke-linecap: round; stroke-width: 1; fill: rgb(67%,84%,90%); fill-rule: evenodd;"/>
			<polygon points="562.8341 241.5776, 562.8341 251.8279, 576.9703 231.3273, 562.8341 210.8268, 562.8341 221.0771" style="stroke: rgb(67%,84%,90%); stroke-linecap: round; stroke-width: 1; fill: rgb(67%,84%,90%); fill-rule: evenodd;"/>
			<polygon points="578.213 241.5776, 595.9878 241.5776, 595.9878 251.8279, 612.3882 231.3273, 595.9878 210.8268, 595.9878 221.0771, 578.213 221.0771" style="stroke: rgb(67%,84%,90%); stroke-linecap: round; stroke-width: 1; fill: rgb(67%,84%,90%); fill-rule: evenodd;"/>
			<polygon points="612.5436 241.5776, 696.727 241.5776, 696.727 251.8279, 713.1275 231.3273, 696.727 210.8268, 696.727 221.0771, 612.5436 221.0771" style="stroke: rgb(67%,84%,90%); stroke-linecap: round; stroke-width: 1; fill: rgb(67%,84%,90%); fill-rule: evenodd;"/>
			<polygon points="713.9819 241.5776, 747.1355 241.5776, 747.1355 251.8279, 763.536 231.3273, 747.1355 210.8268, 747.1355 221.0771, 713.9819 221.0771" style="stroke: rgb(67%,84%,90%); stroke-linecap: round; stroke-width: 1; fill: rgb(67%,84%,90%); fill-rule: evenodd;"/>
			<polygon points="763.303 241.5776, 806.2431 241.5776, 806.2431 251.8279, 822.6436 231.3273, 806.2431 210.8268, 806.2431 221.0771, 763.303 221.0771" style="stroke: rgb(67%,84%,90%); stroke-linecap: round; stroke-width: 1; fill: rgb(67%,84%,90%); fill-rule: evenodd;"/>
			<polygon points="823.1873 241.5776, 828.8454 241.5776, 828.8454 251.8279, 845.2458 231.3273, 828.8454 210.8268, 828.8454 221.0771, 823.1873 221.0771" style="stroke: rgb(67%,84%,90%); stroke-linecap: round; stroke-width: 1; fill: rgb(67%,84%,90%); fill-rule: evenodd;"/>
			<polygon points="845.6342 241.5776, 846.166 241.5776, 846.166 251.8279, 862.5665 231.3273, 846.166 210.8268, 846.166 221.0771, 845.6342 221.0771" style="stroke: rgb(67%,84%,90%); stroke-linecap: round; stroke-width: 1; fill: rgb(67%,84%,90%); fill-rule: evenodd;"/>
			<polygon points="863.6539 241.5776, 863.6539 251.8279, 872.4307 231.3273, 863.6539 210.8268, 863.6539 221.0771" style="stroke: rgb(67%,84%,90%); stroke-linecap: round; stroke-width: 1; fill: rgb(67%,84%,90%); fill-rule: evenodd;"/>
			<polygon points="874.3725 241.5776, 886.5549 241.5776, 886.5549 251.8279, 902.9554 231.3273, 886.5549 210.8268, 886.5549 221.0771, 874.3725 221.0771" style="stroke: rgb(67%,84%,90%); stroke-linecap: round; stroke-width: 1; fill: rgb(67%,84%,90%); fill-rule: evenodd;"/>
			<polygon points="904.2758 241.5776, 919.0214 241.5776, 919.0214 251.8279, 935.4219 231.3273, 919.0214 210.8268, 919.0214 221.0771, 904.2758 221.0771" style="stroke: rgb(67%,84%,90%); stroke-linecap: round; stroke-width: 1; fill: rgb(67%,84%,90%); fill-rule: evenodd;"/>
			<polygon points="937.5966 241.5776, 968.1871 241.5776, 968.1871 251.8279, 984.5876 231.3273, 968.1871 210.8268, 968.1871 221.0771, 937.5966 221.0771" style="stroke: rgb(67%,84%,90%); stroke-linecap: round; stroke-width: 1; fill: rgb(67%,84%,90%); fill-rule: evenodd;"/>
			<polygon points="991.1896 241.5776, 1048.81 241.5776, 1048.81 251.8279, 1065.21 231.3273, 1048.81 210.8268, 1048.81 221.0771, 991.1896 221.0771" style="stroke: rgb(67%,84%,90%); stroke-linecap: round; stroke-width: 1; fill: rgb(67%,84%,90%); fill-rule: evenodd;"/>
			<polygon points="1073.055 241.5776, 1083.14 241.5776, 1083.14 251.8279, 1099.541 231.3273, 1083.14 210.8268, 1083.14 221.0771, 1073.055 221.0771" style="stroke: rgb(67%,84%,90%); stroke-linecap: round; stroke-width: 1; fill: rgb(67%,84%,90%); fill-rule: evenodd;"/>
			<polygon points="1177.833 200.5765, 1130.932 200.5765, 1130.932 210.8268, 1114.531 190.3262, 1130.932 169.8256, 1130.932 180.0759, 1177.833 180.0759" style="stroke: rgb(56%,93%,56%); stroke-linecap: round; stroke-width: 1; fill: rgb(56%,93%,56%); fill-rule: evenodd;"/>
			<polygon points="1213.251 200.5765, 1205.496 200.5765, 1205.496 210.8268, 1189.095 190.3262, 1205.496 169.8256, 1205.496 180.0759, 1213.251 180.0759" style="stroke: rgb(56%,93%,56%); stroke-linecap: round; stroke-width: 1; fill: rgb(56%,93%,56%); fill-rule: evenodd;"/>
			<polygon points="1320.049 200.5765, 1230.739 200.5765, 1230.739 210.8268, 1214.338 190.3262, 1230.739 169.8256, 1230.739 180.0759, 1320.049 180.0759" style="stroke: rgb(56%,93%,56%); stroke-linecap: round; stroke-width: 1; fill: rgb(56%,93%,56%); fill-rule: evenodd;"/>
			<polygon points="1346.379 200.5765, 1336.76 200.5765, 1336.76 210.8268, 1320.359 190.3262, 1336.76 169.8256, 1336.76 180.0759, 1346.379 180.0759" style="stroke: rgb(56%,93%,56%); stroke-linecap: round; stroke-width: 1; fill: rgb(56%,93%,56%); fill-rule: evenodd;"/>
			<polygon points="76.69147 528.5855, 103.5538 528.5855, 103.5538 538.8358, 119.9542 518.3352, 103.5538 497.8346, 103.5538 508.0849, 76.69147 508.0849" style="stroke: rgb(67%,84%,90%); stroke-linecap: round; stroke-width: 1; fill: rgb(67%,84%,90%); fill-rule: evenodd;"/>
			<polygon points="138.8283 528.5855, 146.5835 528.5855, 146.5835 538.8358, 162.9839 518.3352, 146.5835 497.8346, 146.5835 508.0849, 138.8283 508.0849" style="stroke: rgb(67%,84%,90%); stroke-linecap: round; stroke-width: 1; fill: rgb(67%,84%,90%); fill-rule: evenodd;"/>
			<polygon points="174.7899 528.5855, 214.7009 528.5855, 214.7009 538.8358, 231.1014 518.3352, 214.7009 497.8346, 214.7009 508.0849, 174.7899 508.0849" style="stroke: rgb(67%,84%,90%); stroke-linecap: round; stroke-width: 1; fill: rgb(67%,84%,90%); fill-rule: evenodd;"/>
			<polygon points="232.6548 528.5855, 264.4104 528.5855, 264.4104 538.8358, 280.8108 518.3352, 264.4104 497.8346, 264.4104 508.0849, 232.6548 508.0849" style="stroke: rgb(67%,84%,90%); stroke-linecap: round; stroke-width: 1; fill: rgb(67%,84%,90%); fill-rule: evenodd;"/>
			<polygon points="280.5778 528.5855, 287.168 528.5855, 287.168 538.8358, 303.5684 518.3352, 287.168 497.8346, 287.168 508.0849, 280.5778 508.0849" style="stroke: rgb(67%,84%,90%); stroke-linecap: round; stroke-width: 1; fill: rgb(67%,84%,90%); fill-rule: evenodd;"/>
			<polygon points="304.8111 528.5855, 353.3436 528.5855, 353.3436 538.8358, 369.7441 518.3352, 353.3436 497.8346, 353.3436 508.0849, 304.8111 508.0849" style="stroke: rgb(67%,84%,90%); stroke-linecap: round; stroke-width: 1; fill: rgb(67%,84%,90%); fill-rule: evenodd;"/>
			<polygon points="370.9091 528.5855, 375.6352 528.5855, 375.6352 538.8358, 392.0357 518.3352, 375.6352 497.8346, 375.6352 508.0849, 370.9091 508.0849" style="stroke: rgb(67%,84%,90%); stroke-linecap: round; stroke-width: 1; fill: rgb(67%,84%,90%); fill-rule: evenodd;"/>
			<polygon points="393.2007 528.5855, 402.82 528.5855, 402.82 538.8358, 419.2205 518.3352, 402.82 497.8346, 402.82 508.0849, 393.2007 508.0849" style="stroke: rgb(67%,84%,90%); stroke-linecap: round; stroke-width: 1; fill: rgb(67%,84%,90%); fill-rule: evenodd;"/>
			<polygon points="420.4632 528.5855, 468.7627 528.5855, 468.7627 538.8358, 485.1632 518.3352, 468.7627 497.8346, 468.7627 508.0849, 420.4632 508.0849" style="stroke: rgb(67%,84%,90%); stroke-linecap: round; stroke-width: 1; fill: rgb(67%,84%,90%); fill-rule: evenodd;"/>
			<polygon points="485.1632 528.5855, 503.171 528.5855, 503.171 538.8358, 519.5714 518.3352, 503.171 497.8346, 503.171 508.0849, 485.1632 508.0849" style="stroke: rgb(67%,84%,90%); stroke-linecap: round; stroke-width: 1; fill: rgb(67%,84%,90%); fill-rule: evenodd;"/>
			<polygon points="519.3384 528.5855, 519.3384 538.8358, 534.8726 518.3352, 519.3384 497.8346, 519.3384 508.0849" style="stroke: rgb(67%,84%,90%); stroke-linecap: round; stroke-width: 1; fill: rgb(67%,84%,90%); fill-rule: evenodd;"/>
			<polygon points="536.0377 528.5855, 540.0647 528.5855, 540.0647 538.8358, 556.4651 518.3352, 540.0647 497.8346, 540.0647 508.0849, 536.0377 508.0849" style="stroke: rgb(67%,84%,90%); stroke-linecap: round; stroke-width: 1; fill: rgb(67%,84%,90%); fill-rule: evenodd;"/>
			<polygon points="557.5525 528.5855, 569.735 528.5855, 569.735 538.8358, 586.1354 518.3352, 569.735 497.8346, 569.735 508.0849, 557.5525 508.0849" style="stroke: rgb(67%,84%,90%); stroke-linecap: round; stroke-width: 1; fill: rgb(67%,84%,90%); fill-rule: evenodd;"/>
			<polygon points="587.3005 528.5855, 595.5218 528.5855, 595.5218 538.8358, 611.9222 518.3352, 595.5218 497.8346, 595.5218 508.0849, 587.3005 508.0849" style="stroke: rgb(67%,84%,90%); stroke-linecap: round; stroke-width: 1; fill: rgb(67%,84%,90%); fill-rule: evenodd;"/>
			<polygon points="613.3203 528.5855, 639.4835 528.5855, 639.4835 538.8358, 655.884 518.3352, 639.4835 497.8346, 639.4835 508.0849, 613.3203 508.0849" style="stroke: rgb(67%,84%,90%); stroke-linecap: round; stroke-width: 1; fill: rgb(67%,84%,90%); fill-rule: evenodd;"/>
			<polygon points="657.2821 528.5855, 657.2821 538.8358, 671.6512 518.3352, 657.2821 497.8346, 657.2821 508.0849" style="stroke: rgb(67%,84%,90%); stroke-linecap: round; stroke-width: 1; fill: rgb(67%,84%,90%); fill-rule: evenodd;"/>
			<polygon points="685.4766 528.5855, 700.2222 528.5855, 700.2222 538.8358, 716.6227 518.3352, 700.2222 497.8346, 700.2222 508.0849, 685.4766 508.0849" style="stroke: rgb(67%,84%,90%); stroke-linecap: round; stroke-width: 1; fill: rgb(67%,84%,90%); fill-rule: evenodd;"/>
			<polygon points="717.8654 528.5855, 743.7957 528.5855, 743.7957 538.8358, 760.1961 518.3352, 743.7957 497.8346, 743.7957 508.0849, 717.8654 508.0849" style="stroke: rgb(67%,84%,90%); stroke-linecap: round; stroke-width: 1; fill: rgb(67%,84%,90%); fill-rule: evenodd;"/>
			<polygon points="761.5942 528.5855, 773.0776 528.5855, 773.0776 538.8358, 789.4781 518.3352, 773.0776 497.8346, 773.0776 508.0849, 761.5942 508.0849" style="stroke: rgb(67%,84%,90%); stroke-linecap: round; stroke-width: 1; fill: rgb(67%,84%,90%); fill-rule: evenodd;"/>
			<polygon points="790.9538 528.5855, 813.3889 528.5855, 813.3889 538.8358, 829.7893 518.3352, 813.3889 497.8346, 813.3889 508.0849, 790.9538 508.0849" style="stroke: rgb(67%,84%,90%); stroke-linecap: round; stroke-width: 1; fill: rgb(67%,84%,90%); fill-rule: evenodd;"/>
			<polygon points="831.0321 528.5855, 831.0321 538.8358, 845.1682 518.3352, 831.0321 497.8346, 831.0321 508.0849" style="stroke: rgb(67%,84%,90%); stroke-linecap: round; stroke-width: 1; fill: rgb(67%,84%,90%); fill-rule: evenodd;"/>
			<polygon points="846.2556 528.5855, 864.0303 528.5855, 864.0303 538.8358, 880.4308 518.3352, 864.0303 497.8346, 864.0303 508.0849, 846.2556 508.0849" style="stroke: rgb(67%,84%,90%); stroke-linecap: round; stroke-width: 1; fill: rgb(67%,84%,90%); fill-rule: evenodd;"/>
			<polygon points="880.4308 528.5855, 968.1095 528.5855, 968.1095 538.8358, 984.5099 518.3352, 968.1095 497.8346, 968.1095 508.0849, 880.4308 508.0849" style="stroke: rgb(67%,84%,90%); stroke-linecap: round; stroke-width: 1; fill: rgb(67%,84%,90%); fill-rule: evenodd;"/>
			<polygon points="1025.598 487.5844, 998.5026 487.5844, 998.5026 497.8346, 982.1021 477.3341, 998.5026 456.8335, 998.5026 467.0838, 1025.598 467.0838" style="stroke: rgb(56%,93%,56%); stroke-linecap: round; stroke-width: 1; fill: rgb(56%,93%,56%); fill-rule: evenodd;"/>
			<path d="M 1346.379022,169.825647 L 1346.379022,251.827897 Z" style="stroke: rgb(0%,0%,0%); stroke-linecap: butt; stroke-width: 1;"/>
			<path d="M 70.866142,210.826772 L 1346.379022,210.826772 Z" style="stroke: rgb(0%,0%,0%); stroke-linecap: butt; stroke-width: 1;"/>
			<path d="M 70.866142,169.825647 L 70.866142,251.827897 Z" style="stroke: rgb(0%,0%,0%); stroke-linecap: butt; stroke-width: 1;"/>
			<path d="M 847.57597,210.826772 L 847.57597,231.327334 Z" style="stroke: rgb(0%,0%,0%); stroke-linecap: butt; stroke-width: 1;"/>
			<path d="M 847.57597,210.826772 L 847.57597,223.127109 Z" style="stroke: rgb(0%,0%,0%); stroke-linecap: butt; stroke-width: 1;"/>
			<path d="M 1031.656199,456.833521 L 1031.656199,538.835771 Z" style="stroke: rgb(0%,0%,0%); stroke-linecap: butt; stroke-width: 1;"/>
			<path d="M 70.866142,497.834646 L 1031.656199,497.834646 Z" style="stroke: rgb(0%,0%,0%); stroke-linecap: butt; stroke-width: 1;"/>
			<path d="M 70.866142,456.833521 L 70.866142,538.835771 Z" style="stroke: rgb(0%,0%,0%); stroke-linecap: butt; stroke-width: 1;"/>
			<path d="M 847.57597,497.834646 L 847.57597,518.335208 Z" style="stroke: rgb(0%,0%,0%); stroke-linecap: butt; stroke-width: 1;"/>
			<path d="M 847.57597,497.834646 L 847.57597,510.134983 Z" style="stroke: rgb(0%,0%,0%); stroke-linecap: butt; stroke-width: 1;"/>
			<g transform=" matrix(0.707107,0.707107,-0.707107,0.707107,847.57597,231.327334)">
				<text style="font-family: Helvetica; font-size: 6px;fill: rgb(0%,0%,0%); stroke:none;" transform="translate(0,0) scale(1,-1)" x="0" y="0">10000</text>
			</g>
			<g transform=" matrix(0.707107,0.707107,-0.707107,0.707107,847.57597,518.335208)">
				<text style="font-family: Helvetica; font-size: 6px;fill: rgb(0%,0%,0%); stroke:none;" transform="translate(0,0) scale(1,-1)" x="0" y="0">10000</text>
			</g>
			<g transform=" matrix(0.707107,0.707107,-0.707107,0.707107,85.312945,251.827897)">
				<text style="font-family: Helvetica; font-size: 10px;fill: rgb(0%,0%,0%); stroke:none;" transform="translate(0,0) scale(1,-1)" x="0" y="0">Gene_01139</text>
			</g>
			<g transform=" matrix(0.707107,0.707107,-0.707107,0.707107,104.458842,251.827897)">
				<text style="font-family: Helvetica; font-size: 10px;fill: rgb(0%,0%,0%); stroke:none;" transform="translate(0,0) scale(1,-1)" x="0" y="0">Gene_01140</text>
			</g>
			<g transform=" matrix(0.707107,0.707107,-0.707107,0.707107,129.391227,251.827897)">
				<text style="font-family: Helvetica; font-size: 10px;fill: rgb(0%,0%,0%); stroke:none;" transform="translate(0,0) scale(1,-1)" x="0" y="0">Gene_01141</text>
			</g>
			<g transform=" matrix(0.707107,0.707107,-0.707107,0.707107,176.887033,251.827897)">
				<text style="font-family: Helvetica; font-size: 10px;fill: rgb(0%,0%,0%); stroke:none;" transform="translate(0,0) scale(1,-1)" x="0" y="0">Gene_01142</text>
			</g>
			<g transform=" matrix(0.707107,0.707107,-0.707107,0.707107,226.907146,251.827897)">
				<text style="font-family: Helvetica; font-size: 10px;fill: rgb(0%,0%,0%); stroke:none;" transform="translate(0,0) scale(1,-1)" x="0" y="0">Gene_01143</text>
			</g>
			<g transform=" matrix(0.707107,0.707107,-0.707107,0.707107,251.761861,251.827897)">
				<text style="font-family: Helvetica; font-size: 10px;fill: rgb(0%,0%,0%); stroke:none;" transform="translate(0,0) scale(1,-1)" x="0" y="0">Gene_01144</text>
			</g>
			<g transform=" matrix(0.707107,0.707107,-0.707107,0.707107,271.296113,251.827897)">
				<text style="font-family: Helvetica; font-size: 10px;fill: rgb(0%,0%,0%); stroke:none;" transform="translate(0,0) scale(1,-1)" x="0" y="0">Gene_01145</text>
			</g>
			<g transform=" matrix(0.707107,0.707107,-0.707107,0.707107,296.966373,251.827897)">
				<text style="font-family: Helvetica; font-size: 10px;fill: rgb(0%,0%,0%); stroke:none;" transform="translate(0,0) scale(1,-1)" x="0" y="0">Gene_01146</text>
			</g>
			<g transform=" matrix(0.707107,0.707107,-0.707107,0.707107,324.656078,251.827897)">
				<text style="font-family: Helvetica; font-size: 10px;fill: rgb(0%,0%,0%); stroke:none;" transform="translate(0,0) scale(1,-1)" x="0" y="0">Gene_01147</text>
			</g>
			<g transform=" matrix(0.707107,0.707107,-0.707107,0.707107,359.297337,251.827897)">
				<text style="font-family: Helvetica; font-size: 10px;fill: rgb(0%,0%,0%); stroke:none;" transform="translate(0,0) scale(1,-1)" x="0" y="0">Gene_01148</text>
			</g>
			<g transform=" matrix(0.707107,0.707107,-0.707107,0.707107,388.734639,251.827897)">
				<text style="font-family: Helvetica; font-size: 10px;fill: rgb(0%,0%,0%); stroke:none;" transform="translate(0,0) scale(1,-1)" x="0" y="0">Gene_01149</text>
			</g>
			<g transform=" matrix(0.707107,0.707107,-0.707107,0.707107,433.744974,251.827897)">
				<text style="font-family: Helvetica; font-size: 10px;fill: rgb(0%,0%,0%); stroke:none;" transform="translate(0,0) scale(1,-1)" x="0" y="0">Gene_01150</text>
			</g>
			<g transform=" matrix(0.707107,0.707107,-0.707107,0.707107,471.531907,251.827897)">
				<text style="font-family: Helvetica; font-size: 10px;fill: rgb(0%,0%,0%); stroke:none;" transform="translate(0,0) scale(1,-1)" x="0" y="0">Gene_01151</text>
			</g>
			<g transform=" matrix(0.707107,0.707107,-0.707107,0.707107,507.726585,251.827897)">
				<text style="font-family: Helvetica; font-size: 10px;fill: rgb(0%,0%,0%); stroke:none;" transform="translate(0,0) scale(1,-1)" x="0" y="0">Gene_01152</text>
			</g>
			<g transform=" matrix(0.707107,0.707107,-0.707107,0.707107,542.251337,251.827897)">
				<text style="font-family: Helvetica; font-size: 16px;fill: rgb(0%,0%,100%); stroke:none;" transform="translate(0,0) scale(1,-1)" x="0" y="0">Gene_01153 (86.2)</text>
			</g>
			<g transform=" matrix(0.707107,0.707107,-0.707107,0.707107,569.902206,251.827897)">
				<text style="font-family: Helvetica; font-size: 10px;fill: rgb(0%,0%,0%); stroke:none;" transform="translate(0,0) scale(1,-1)" x="0" y="0">Gene_01154</text>
			</g>
			<g transform=" matrix(0.707107,0.707107,-0.707107,0.707107,595.300618,251.827897)">
				<text style="font-family: Helvetica; font-size: 10px;fill: rgb(0%,0%,0%); stroke:none;" transform="translate(0,0) scale(1,-1)" x="0" y="0">Gene_01155</text>
			</g>
			<g transform=" matrix(0.707107,0.707107,-0.707107,0.707107,662.835537,251.827897)">
				<text style="font-family: Helvetica; font-size: 10px;fill: rgb(0%,0%,0%); stroke:none;" transform="translate(0,0) scale(1,-1)" x="0" y="0">Gene_01156</text>
			</g>
			<g transform=" matrix(0.707107,0.707107,-0.707107,0.707107,738.758923,251.827897)">
				<text style="font-family: Helvetica; font-size: 10px;fill: rgb(0%,0%,0%); stroke:none;" transform="translate(0,0) scale(1,-1)" x="0" y="0">Gene_01157</text>
			</g>
			<g transform=" matrix(0.707107,0.707107,-0.707107,0.707107,792.973269,251.827897)">
				<text style="font-family: Helvetica; font-size: 10px;fill: rgb(0%,0%,0%); stroke:none;" transform="translate(0,0) scale(1,-1)" x="0" y="0">Gene_01158</text>
			</g>
			<g transform=" matrix(0.707107,0.707107,-0.707107,0.707107,834.216561,251.827897)">
				<text style="font-family: Helvetica; font-size: 10px;fill: rgb(0%,0%,0%); stroke:none;" transform="translate(0,0) scale(1,-1)" x="0" y="0">Gene_01159</text>
			</g>
			<g transform=" matrix(0.707107,0.707107,-0.707107,0.707107,854.100333,251.827897)">
				<text style="font-family: Helvetica; font-size: 10px;fill: rgb(0%,0%,0%); stroke:none;" transform="translate(0,0) scale(1,-1)" x="0" y="0">Gene_01160</text>
			</g>
			<g transform=" matrix(0.707107,0.707107,-0.707107,0.707107,868.042274,251.827897)">
				<text style="font-family: Helvetica; font-size: 10px;fill: rgb(0%,0%,0%); stroke:none;" transform="translate(0,0) scale(1,-1)" x="0" y="0">Gene_01161</text>
			</g>
			<g transform=" matrix(0.707107,0.707107,-0.707107,0.707107,888.66392,251.827897)">
				<text style="font-family: Helvetica; font-size: 10px;fill: rgb(0%,0%,0%); stroke:none;" transform="translate(0,0) scale(1,-1)" x="0" y="0">Gene_01162</text>
			</g>
			<g transform=" matrix(0.707107,0.707107,-0.707107,0.707107,919.84882,251.827897)">
				<text style="font-family: Helvetica; font-size: 10px;fill: rgb(0%,0%,0%); stroke:none;" transform="translate(0,0) scale(1,-1)" x="0" y="0">Gene_01163</text>
			</g>
			<g transform=" matrix(0.707107,0.707107,-0.707107,0.707107,961.092112,251.827897)">
				<text style="font-family: Helvetica; font-size: 10px;fill: rgb(0%,0%,0%); stroke:none;" transform="translate(0,0) scale(1,-1)" x="0" y="0">Gene_01164</text>
			</g>
			<g transform=" matrix(0.707107,0.707107,-0.707107,0.707107,1028.199841,251.827897)">
				<text style="font-family: Helvetica; font-size: 10px;fill: rgb(0%,0%,0%); stroke:none;" transform="translate(0,0) scale(1,-1)" x="0" y="0">Gene_01165</text>
			</g>
			<g transform=" matrix(0.707107,0.707107,-0.707107,0.707107,1086.297736,251.827897)">
				<text style="font-family: Helvetica; font-size: 10px;fill: rgb(0%,0%,0%); stroke:none;" transform="translate(0,0) scale(1,-1)" x="0" y="0">Gene_01166</text>
			</g>
			<g transform=" matrix(0.707107,-0.707107,0.707107,0.707107,1146.182064,169.825647)">
				<text style="font-family: Helvetica; font-size: 10px;fill: rgb(0%,0%,0%); stroke:none;" transform="translate(0,0) scale(1,-1)" x="0" y="0">Gene_01167</text>
			</g>
			<g transform=" matrix(0.707107,-0.707107,0.707107,0.707107,1201.17312,169.825647)">
				<text style="font-family: Helvetica; font-size: 10px;fill: rgb(0%,0%,0%); stroke:none;" transform="translate(0,0) scale(1,-1)" x="0" y="0">Gene_01168</text>
			</g>
			<g transform=" matrix(0.707107,-0.707107,0.707107,0.707107,1267.193455,169.825647)">
				<text style="font-family: Helvetica; font-size: 10px;fill: rgb(0%,0%,0%); stroke:none;" transform="translate(0,0) scale(1,-1)" x="0" y="0">Gene_01169</text>
			</g>
			<g transform=" matrix(0.707107,-0.707107,0.707107,0.707107,1333.369132,169.825647)">
				<text style="font-family: Helvetica; font-size: 10px;fill: rgb(0%,0%,0%); stroke:none;" transform="translate(0,0) scale(1,-1)" x="0" y="0">Gene_01170</text>
			</g>
			<g transform=" matrix(0.707107,0.707107,-0.707107,0.707107,98.322834,538.835771)">
				<text style="font-family: Helvetica; font-size: 10px;fill: rgb(0%,0%,0%); stroke:none;" transform="translate(0,0) scale(1,-1)" x="0" y="0">Gene_00142</text>
			</g>
			<g transform=" matrix(0.707107,0.707107,-0.707107,0.707107,150.90609,538.835771)">
				<text style="font-family: Helvetica; font-size: 10px;fill: rgb(0%,0%,0%); stroke:none;" transform="translate(0,0) scale(1,-1)" x="0" y="0">Gene_00143</text>
			</g>
			<g transform=" matrix(0.707107,0.707107,-0.707107,0.707107,202.945648,538.835771)">
				<text style="font-family: Helvetica; font-size: 10px;fill: rgb(0%,0%,0%); stroke:none;" transform="translate(0,0) scale(1,-1)" x="0" y="0">Gene_00144</text>
			</g>
			<g transform=" matrix(0.707107,0.707107,-0.707107,0.707107,256.732804,538.835771)">
				<text style="font-family: Helvetica; font-size: 10px;fill: rgb(0%,0%,0%); stroke:none;" transform="translate(0,0) scale(1,-1)" x="0" y="0">Gene_00145</text>
			</g>
			<g transform=" matrix(0.707107,0.707107,-0.707107,0.707107,292.073101,538.835771)">
				<text style="font-family: Helvetica; font-size: 10px;fill: rgb(0%,0%,0%); stroke:none;" transform="translate(0,0) scale(1,-1)" x="0" y="0">Gene_00146</text>
			</g>
			<g transform=" matrix(0.707107,0.707107,-0.707107,0.707107,337.277613,538.835771)">
				<text style="font-family: Helvetica; font-size: 10px;fill: rgb(0%,0%,0%); stroke:none;" transform="translate(0,0) scale(1,-1)" x="0" y="0">Gene_00147</text>
			</g>
			<g transform=" matrix(0.707107,0.707107,-0.707107,0.707107,381.472402,538.835771)">
				<text style="font-family: Helvetica; font-size: 10px;fill: rgb(0%,0%,0%); stroke:none;" transform="translate(0,0) scale(1,-1)" x="0" y="0">Gene_00148</text>
			</g>
			<g transform=" matrix(0.707107,0.707107,-0.707107,0.707107,406.21061,538.835771)">
				<text style="font-family: Helvetica; font-size: 10px;fill: rgb(0%,0%,0%); stroke:none;" transform="translate(0,0) scale(1,-1)" x="0" y="0">Gene_00149</text>
			</g>
			<g transform=" matrix(0.707107,0.707107,-0.707107,0.707107,452.8132,538.835771)">
				<text style="font-family: Helvetica; font-size: 10px;fill: rgb(0%,0%,0%); stroke:none;" transform="translate(0,0) scale(1,-1)" x="0" y="0">Gene_00150</text>
			</g>
			<g transform=" matrix(0.707107,0.707107,-0.707107,0.707107,502.367287,538.835771)">
				<text style="font-family: Helvetica; font-size: 10px;fill: rgb(0%,0%,0%); stroke:none;" transform="translate(0,0) scale(1,-1)" x="0" y="0">Gene_00151</text>
			</g>
			<g transform=" matrix(0.707107,0.707107,-0.707107,0.707107,527.105495,538.835771)">
				<text style="font-family: Helvetica; font-size: 10px;fill: rgb(0%,0%,0%); stroke:none;" transform="translate(0,0) scale(1,-1)" x="0" y="0">Gene_00152</text>
			</g>
			<g transform=" matrix(0.707107,0.707107,-0.707107,0.707107,546.251392,538.835771)">
				<text style="font-family: Helvetica; font-size: 10px;fill: rgb(0%,0%,0%); stroke:none;" transform="translate(0,0) scale(1,-1)" x="0" y="0">Gene_00153</text>
			</g>
			<g transform=" matrix(0.707107,0.707107,-0.707107,0.707107,571.843981,538.835771)">
				<text style="font-family: Helvetica; font-size: 10px;fill: rgb(0%,0%,0%); stroke:none;" transform="translate(0,0) scale(1,-1)" x="0" y="0">Gene_00154</text>
			</g>
			<g transform=" matrix(0.707107,0.707107,-0.707107,0.707107,599.611357,538.835771)">
				<text style="font-family: Helvetica; font-size: 10px;fill: rgb(0%,0%,0%); stroke:none;" transform="translate(0,0) scale(1,-1)" x="0" y="0">Gene_00155</text>
			</g>
			<g transform=" matrix(0.707107,0.707107,-0.707107,0.707107,634.602135,538.835771)">
				<text style="font-family: Helvetica; font-size: 10px;fill: rgb(0%,0%,0%); stroke:none;" transform="translate(0,0) scale(1,-1)" x="0" y="0">Gene_00156</text>
			</g>
			<g transform=" matrix(0.707107,0.707107,-0.707107,0.707107,664.466628,538.835771)">
				<text style="font-family: Helvetica; font-size: 10px;fill: rgb(0%,0%,0%); stroke:none;" transform="translate(0,0) scale(1,-1)" x="0" y="0">Gene_00157</text>
			</g>
			<g transform=" matrix(0.707107,0.707107,-0.707107,0.707107,701.049661,538.835771)">
				<text style="font-family: Helvetica; font-size: 10px;fill: rgb(0%,0%,0%); stroke:none;" transform="translate(0,0) scale(1,-1)" x="0" y="0">Gene_00158</text>
			</g>
			<g transform=" matrix(0.707107,0.707107,-0.707107,0.707107,739.030772,538.835771)">
				<text style="font-family: Helvetica; font-size: 10px;fill: rgb(0%,0%,0%); stroke:none;" transform="translate(0,0) scale(1,-1)" x="0" y="0">Gene_00159</text>
			</g>
			<g transform=" matrix(0.707107,0.707107,-0.707107,0.707107,775.536134,538.835771)">
				<text style="font-family: Helvetica; font-size: 10px;fill: rgb(0%,0%,0%); stroke:none;" transform="translate(0,0) scale(1,-1)" x="0" y="0">Gene_00160</text>
			</g>
			<g transform=" matrix(0.707107,0.707107,-0.707107,0.707107,810.371569,538.835771)">
				<text style="font-family: Helvetica; font-size: 16px;fill: rgb(0%,0%,100%); stroke:none;" transform="translate(0,0) scale(1,-1)" x="0" y="0">Gene_00161 (86.2)</text>
			</g>
			<g transform=" matrix(0.707107,0.707107,-0.707107,0.707107,838.10011,538.835771)">
				<text style="font-family: Helvetica; font-size: 10px;fill: rgb(0%,0%,0%); stroke:none;" transform="translate(0,0) scale(1,-1)" x="0" y="0">Gene_00162</text>
			</g>
			<g transform=" matrix(0.707107,0.707107,-0.707107,0.707107,863.34318,538.835771)">
				<text style="font-family: Helvetica; font-size: 10px;fill: rgb(0%,0%,0%); stroke:none;" transform="translate(0,0) scale(1,-1)" x="0" y="0">Gene_00163</text>
			</g>
			<g transform=" matrix(0.707107,0.707107,-0.707107,0.707107,932.470354,538.835771)">
				<text style="font-family: Helvetica; font-size: 10px;fill: rgb(0%,0%,0%); stroke:none;" transform="translate(0,0) scale(1,-1)" x="0" y="0">Gene_00164</text>
			</g>
			<g transform=" matrix(0.707107,-0.707107,0.707107,0.707107,1003.849988,456.833521)">
				<text style="font-family: Helvetica; font-size: 10px;fill: rgb(0%,0%,0%); stroke:none;" transform="translate(0,0) scale(1,-1)" x="0" y="0">Gene_00165</text>
			</g>
			<g transform=" matrix(1,0,-0,1,70,169.825647)">
				<text style="font-family: Helvetica; font-size: 12px;fill: rgb(60%,60%,60%); stroke:none;" transform="translate(0,0) scale(1,-1)" x="0" y="0">megahit_69503 (left 5819bp, right 29864bp)</text>
			</g>
			<g transform=" matrix(1,0,-0,1,70,456.833521)">
				<text style="font-family: Helvetica; font-size: 12px;fill: rgb(60%,60%,60%); stroke:none;" transform="translate(0,0) scale(1,-1)" x="0" y="0">megahit_13858 (left 9271bp, right 2599bp)</text>
			</g>
		</g>
	</g>
</svg>
