<?xml version="1.0" encoding="utf-8"?>
<!DOCTYPE svg
  PUBLIC '-//W3C//DTD SVG 1.0//EN'
  'http://www.w3.org/TR/2001/REC-SVG-20010904/DTD/svg10.dtd'>
<svg fill-rule="evenodd" height="708.6614173228346" preserveAspectRatio="xMinYMin meet" version="1.0" viewBox="0 0 1417 708" width="1417.3228346456692" xmlns="http://www.w3.org/2000/svg" xmlns:xlink="http://www.w3.org/1999/xlink">
	<title>...</title>
	<desc>...</desc>
	<clipPath id="clip">
		<rect height="708.6614173228346" width="1417.3228346456692" x="0" y="0"/>
	</clipPath>
	<g id="group" style="clip-path: url(#clip)" transform="scale(1,-1) translate(0,-708)">
		<g transform="">
			<polygon points="70.86614 169.8256, 1227.364 169.8256, 1227.364 251.8279, 70.86614 251.8279" style="stroke: rgb(96%,96%,96%); stroke-linecap: butt; stroke-width: 1; fill: rgb(96%,96%,96%); fill-rule: evenodd;"/>
			<polygon points="70.86614 456.8335, 1346.397 456.8335, 1346.397 538.8358, 70.86614 538.8358" style="stroke: rgb(96%,96%,96%); stroke-linecap: butt; stroke-width: 1; fill: rgb(96%,96%,96%); fill-rule: evenodd;"/>
			<polygon points="555.9187 456.8335, 776.1413 456.8335, 626.1528 251.8279, 406.1098 251.8279" style="stroke: rgb(100%,40%,40%); stroke-linecap: round; stroke-width: 1; fill: rgb(100%,40%,40%); fill-rule: evenodd;"/>
			<polygon points="72.48278 241.5776, 72.48278 251.8279, 78.3506 231.3273, 72.48278 210.8268, 72.48278 221.0771" style="stroke: rgb(67%,84%,90%); stroke-linecap: round; stroke-width: 1; fill: rgb(67%,84%,90%); fill-rule: evenodd;"/>
			<polygon points="170.9183 200.5765, 95.40968 200.5765, 95.40968 210.8268, 79.00923 190.3262, 95.40968 169.8256, 95.40968 180.0759, 170.9183 180.0759" style="stroke: rgb(56%,93%,56%); stroke-linecap: round; stroke-width: 1; fill: rgb(56%,93%,56%); fill-rule: evenodd;"/>
			<polygon points="190.0187 241.5776, 217.2077 241.5776, 217.2077 251.8279, 233.6081 231.3273, 217.2077 210.8268, 217.2077 221.0771, 190.0187 221.0771" style="stroke: rgb(67%,84%,90%); stroke-linecap: round; stroke-width: 1; fill: rgb(67%,84%,90%); fill-rule: evenodd;"/>
			<polygon points="349.5872 200.5765, 283.2395 200.5765, 283.2395 210.8268, 266.8391 190.3262, 283.2395 169.8256, 283.2395 180.0759, 349.5872 180.0759" style="stroke: rgb(56%,93%,56%); stroke-linecap: round; stroke-width: 1; fill: rgb(56%,93%,56%); fill-rule: evenodd;"/>
			<polygon points="352.2816 241.5776, 352.2816 251.8279, 358.1494 231.3273, 352.2816 210.8268, 352.2816 221.0771" style="stroke: rgb(67%,84%,90%); stroke-linecap: round; stroke-width: 1; fill: rgb(67%,84%,90%); fill-rule: evenodd;"/>
			<polygon points="363.5981 241.5776, 381.4465 241.5776, 381.4465 251.8279, 397.847 231.3273, 381.4465 210.8268, 381.4465 221.0771, 363.5981 221.0771" style="stroke: rgb(67%,84%,90%); stroke-linecap: round; stroke-width: 1; fill: rgb(67%,84%,90%); fill-rule: evenodd;"/>
			<polygon points="521.4902 200.5765, 422.2708 200.5765, 422.2708 210.8268, 405.8703 190.3262, 422.2708 169.8256, 422.2708 180.0759, 521.4902 180.0759" style="stroke: rgb(56%,93%,56%); stroke-linecap: round; stroke-width: 1; fill: rgb(56%,93%,56%); fill-rule: evenodd;"/>
			<polygon points="625.3744 200.5765, 537.1122 200.5765, 537.1122 210.8268, 520.7118 190.3262, 537.1122 169.8256, 537.1122 180.0759, 625.3744 180.0759" style="stroke: rgb(56%,93%,56%); stroke-linecap: round; stroke-width: 1; fill: rgb(56%,93%,56%); fill-rule: evenodd;"/>
			<polygon points="655.911 200.5765, 646.8643 200.5765, 646.8643 210.8268, 630.4638 190.3262, 646.8643 169.8256, 646.8643 180.0759, 655.911 180.0759" style="stroke: rgb(56%,93%,56%); stroke-linecap: round; stroke-width: 1; fill: rgb(56%,93%,56%); fill-rule: evenodd;"/>
			<polygon points="740.2159 200.5765, 693.6272 200.5765, 693.6272 210.8268, 677.2267 190.3262, 693.6272 169.8256, 693.6272 180.0759, 740.2159 180.0759" style="stroke: rgb(56%,93%,56%); stroke-linecap: round; stroke-width: 1; fill: rgb(56%,93%,56%); fill-rule: evenodd;"/>
			<polygon points="786.0806 200.5765, 757.4546 200.5765, 757.4546 210.8268, 741.0541 190.3262, 757.4546 169.8256, 757.4546 180.0759, 786.0806 180.0759" style="stroke: rgb(56%,93%,56%); stroke-linecap: round; stroke-width: 1; fill: rgb(56%,93%,56%); fill-rule: evenodd;"/>
			<polygon points="840.5674 200.5765, 804.0378 200.5765, 804.0378 210.8268, 787.6374 190.3262, 804.0378 169.8256, 804.0378 180.0759, 840.5674 180.0759" style="stroke: rgb(56%,93%,56%); stroke-linecap: round; stroke-width: 1; fill: rgb(56%,93%,56%); fill-rule: evenodd;"/>
			<polygon points="874.5169 200.5765, 860.0814 200.5765, 860.0814 210.8268, 843.681 190.3262, 860.0814 169.8256, 860.0814 180.0759, 874.5169 180.0759" style="stroke: rgb(56%,93%,56%); stroke-linecap: round; stroke-width: 1; fill: rgb(56%,93%,56%); fill-rule: evenodd;"/>
			<polygon points="890.2043 241.5776, 903.0232 241.5776, 903.0232 251.8279, 919.4237 231.3273, 903.0232 210.8268, 903.0232 221.0771, 890.2043 221.0771" style="stroke: rgb(67%,84%,90%); stroke-linecap: round; stroke-width: 1; fill: rgb(67%,84%,90%); fill-rule: evenodd;"/>
			<polygon points="941.9369 241.5776, 981.6998 241.5776, 981.6998 251.8279, 998.1002 231.3273, 981.6998 210.8268, 981.6998 221.0771, 941.9369 221.0771" style="stroke: rgb(67%,84%,90%); stroke-linecap: round; stroke-width: 1; fill: rgb(67%,84%,90%); fill-rule: evenodd;"/>
			<polygon points="1005.166 241.5776, 1065.586 241.5776, 1065.586 251.8279, 1081.986 231.3273, 1065.586 210.8268, 1065.586 221.0771, 1005.166 221.0771" style="stroke: rgb(67%,84%,90%); stroke-linecap: round; stroke-width: 1; fill: rgb(67%,84%,90%); fill-rule: evenodd;"/>
			<polygon points="1091.147 241.5776, 1121.929 241.5776, 1121.929 251.8279, 1138.329 231.3273, 1121.929 210.8268, 1121.929 221.0771, 1091.147 221.0771" style="stroke: rgb(67%,84%,90%); stroke-linecap: round; stroke-width: 1; fill: rgb(67%,84%,90%); fill-rule: evenodd;"/>
			<polygon points="1167.429 200.5765, 1159.998 200.5765, 1159.998 210.8268, 1143.598 190.3262, 1159.998 169.8256, 1159.998 180.0759, 1167.429 180.0759" style="stroke: rgb(56%,93%,56%); stroke-linecap: round; stroke-width: 1; fill: rgb(56%,93%,56%); fill-rule: evenodd;"/>
			<polygon points="1227.364 200.5765, 1217.06 200.5765, 1217.06 210.8268, 1200.66 190.3262, 1217.06 169.8256, 1217.06 180.0759, 1227.364 180.0759" style="stroke: rgb(56%,93%,56%); stroke-linecap: round; stroke-width: 1; fill: rgb(56%,93%,56%); fill-rule: evenodd;"/>
			<polygon points="128.9455 487.5844, 99.60097 487.5844, 99.60097 497.8346, 83.20052 477.3341, 99.60097 456.8335, 99.60097 467.0838, 128.9455 467.0838" style="stroke: rgb(56%,93%,56%); stroke-linecap: round; stroke-width: 1; fill: rgb(56%,93%,56%); fill-rule: evenodd;"/>
			<polygon points="177.325 487.5844, 145.6453 487.5844, 145.6453 497.8346, 129.2449 477.3341, 145.6453 456.8335, 145.6453 467.0838, 177.325 467.0838" style="stroke: rgb(56%,93%,56%); stroke-linecap: round; stroke-width: 1; fill: rgb(56%,93%,56%); fill-rule: evenodd;"/>
			<polygon points="231.8119 487.5844, 193.1267 487.5844, 193.1267 497.8346, 176.7263 477.3341, 193.1267 456.8335, 193.1267 467.0838, 231.8119 467.0838" style="stroke: rgb(56%,93%,56%); stroke-linecap: round; stroke-width: 1; fill: rgb(56%,93%,56%); fill-rule: evenodd;"/>
			<polygon points="293.1844 487.5844, 258.8103 487.5844, 258.8103 497.8346, 242.4098 477.3341, 258.8103 456.8335, 258.8103 467.0838, 293.1844 467.0838" style="stroke: rgb(56%,93%,56%); stroke-linecap: round; stroke-width: 1; fill: rgb(56%,93%,56%); fill-rule: evenodd;"/>
			<polygon points="347.1922 487.5844, 311.7404 487.5844, 311.7404 497.8346, 295.3399 477.3341, 311.7404 456.8335, 311.7404 467.0838, 347.1922 467.0838" style="stroke: rgb(56%,93%,56%); stroke-linecap: round; stroke-width: 1; fill: rgb(56%,93%,56%); fill-rule: evenodd;"/>
			<polygon points="414.4924 487.5844, 366.6463 487.5844, 366.6463 497.8346, 350.2459 477.3341, 366.6463 456.8335, 366.6463 467.0838, 414.4924 467.0838" style="stroke: rgb(56%,93%,56%); stroke-linecap: round; stroke-width: 1; fill: rgb(56%,93%,56%); fill-rule: evenodd;"/>
			<polygon points="451.8548 487.5844, 432.3898 487.5844, 432.3898 497.8346, 415.9893 477.3341, 432.3898 456.8335, 432.3898 467.0838, 451.8548 467.0838" style="stroke: rgb(56%,93%,56%); stroke-linecap: round; stroke-width: 1; fill: rgb(56%,93%,56%); fill-rule: evenodd;"/>
			<polygon points="484.1877 487.5844, 469.0336 487.5844, 469.0336 497.8346, 452.6332 477.3341, 469.0336 456.8335, 469.0336 467.0838, 484.1877 467.0838" style="stroke: rgb(56%,93%,56%); stroke-linecap: round; stroke-width: 1; fill: rgb(56%,93%,56%); fill-rule: evenodd;"/>
			<polygon points="505.683 528.5855, 522.6333 528.5855, 522.6333 538.8358, 539.0337 518.3352, 522.6333 497.8346, 522.6333 508.0849, 505.683 508.0849" style="stroke: rgb(67%,84%,90%); stroke-linecap: round; stroke-width: 1; fill: rgb(67%,84%,90%); fill-rule: evenodd;"/>
			<polygon points="670.2213 487.5844, 572.0796 487.5844, 572.0796 497.8346, 555.6792 477.3341, 572.0796 456.8335, 572.0796 467.0838, 670.2213 467.0838" style="stroke: rgb(56%,93%,56%); stroke-linecap: round; stroke-width: 1; fill: rgb(56%,93%,56%); fill-rule: evenodd;"/>
			<polygon points="775.9018 487.5844, 686.023 487.5844, 686.023 497.8346, 669.6225 477.3341, 686.023 456.8335, 686.023 467.0838, 775.9018 467.0838" style="stroke: rgb(56%,93%,56%); stroke-linecap: round; stroke-width: 1; fill: rgb(56%,93%,56%); fill-rule: evenodd;"/>
			<polygon points="806.618 487.5844, 797.3916 487.5844, 797.3916 497.8346, 780.9912 477.3341, 797.3916 456.8335, 797.3916 467.0838, 806.618 467.0838" style="stroke: rgb(56%,93%,56%); stroke-linecap: round; stroke-width: 1; fill: rgb(56%,93%,56%); fill-rule: evenodd;"/>
			<polygon points="860.2665 487.5844, 837.0293 487.5844, 837.0293 497.8346, 820.6289 477.3341, 837.0293 456.8335, 837.0293 467.0838, 860.2665 467.0838" style="stroke: rgb(56%,93%,56%); stroke-linecap: round; stroke-width: 1; fill: rgb(56%,93%,56%); fill-rule: evenodd;"/>
			<polygon points="865.5356 528.5855, 865.5356 538.8358, 878.7681 518.3352, 865.5356 497.8346, 865.5356 508.0849" style="stroke: rgb(67%,84%,90%); stroke-linecap: round; stroke-width: 1; fill: rgb(67%,84%,90%); fill-rule: evenodd;"/>
			<polygon points="882.4804 528.5855, 997.6866 528.5855, 997.6866 538.8358, 1014.087 518.3352, 997.6866 497.8346, 997.6866 508.0849, 882.4804 508.0849" style="stroke: rgb(67%,84%,90%); stroke-linecap: round; stroke-width: 1; fill: rgb(67%,84%,90%); fill-rule: evenodd;"/>
			<polygon points="1065.281 487.5844, 1038.451 487.5844, 1038.451 497.8346, 1022.05 477.3341, 1038.451 456.8335, 1038.451 467.0838, 1065.281 467.0838" style="stroke: rgb(56%,93%,56%); stroke-linecap: round; stroke-width: 1; fill: rgb(56%,93%,56%); fill-rule: evenodd;"/>
			<polygon points="1098.572 487.5844, 1086.651 487.5844, 1086.651 497.8346, 1070.25 477.3341, 1086.651 456.8335, 1086.651 467.0838, 1098.572 467.0838" style="stroke: rgb(56%,93%,56%); stroke-linecap: round; stroke-width: 1; fill: rgb(56%,93%,56%); fill-rule: evenodd;"/>
			<polygon points="1131.862 487.5844, 1115.99 487.5844, 1115.99 497.8346, 1099.589 477.3341, 1115.99 456.8335, 1115.99 467.0838, 1131.862 467.0838" style="stroke: rgb(56%,93%,56%); stroke-linecap: round; stroke-width: 1; fill: rgb(56%,93%,56%); fill-rule: evenodd;"/>
			<polygon points="1183.715 487.5844, 1150.957 487.5844, 1150.957 497.8346, 1134.557 477.3341, 1150.957 456.8335, 1150.957 467.0838, 1183.715 467.0838" style="stroke: rgb(56%,93%,56%); stroke-linecap: round; stroke-width: 1; fill: rgb(56%,93%,56%); fill-rule: evenodd;"/>
			<polygon points="1236.944 487.5844, 1200.415 487.5844, 1200.415 497.8346, 1184.014 477.3341, 1200.415 456.8335, 1200.415 467.0838, 1236.944 467.0838" style="stroke: rgb(56%,93%,56%); stroke-linecap: round; stroke-width: 1; fill: rgb(56%,93%,56%); fill-rule: evenodd;"/>
			<polygon points="1250.177 528.5855, 1293.532 528.5855, 1293.532 538.8358, 1309.933 518.3352, 1293.532 497.8346, 1293.532 508.0849, 1250.177 508.0849" style="stroke: rgb(67%,84%,90%); stroke-linecap: round; stroke-width: 1; fill: rgb(67%,84%,90%); fill-rule: evenodd;"/>
			<path d="M 1227.364053,169.825647 L 1227.364053,251.827897 Z" style="stroke: rgb(0%,0%,0%); stroke-linecap: butt; stroke-width: 1;"/>
			<path d="M 70.866142,210.826772 L 1227.364053,210.826772 Z" style="stroke: rgb(0%,0%,0%); stroke-linecap: butt; stroke-width: 1;"/>
			<path d="M 70.866142,169.825647 L 70.866142,251.827897 Z" style="stroke: rgb(0%,0%,0%); stroke-linecap: butt; stroke-width: 1;"/>
			<path d="M 669.622503,210.826772 L 669.622503,231.327334 Z" style="stroke: rgb(0%,0%,0%); stroke-linecap: butt; stroke-width: 1;"/>
			<path d="M 669.622503,210.826772 L 669.622503,223.127109 Z" style="stroke: rgb(0%,0%,0%); stroke-linecap: butt; stroke-width: 1;"/>
			<path d="M 1346.396817,456.833521 L 1346.396817,538.835771 Z" style="stroke: rgb(0%,0%,0%); stroke-linecap: butt; stroke-width: 1;"/>
			<path d="M 70.866142,497.834646 L 1346.396817,497.834646 Z" style="stroke: rgb(0%,0%,0%); stroke-linecap: butt; stroke-width: 1;"/>
			<path d="M 70.866142,456.833521 L 70.866142,538.835771 Z" style="stroke: rgb(0%,0%,0%); stroke-linecap: butt; stroke-width: 1;"/>
			<path d="M 669.622503,497.834646 L 669.622503,518.335208 Z" style="stroke: rgb(0%,0%,0%); stroke-linecap: butt; stroke-width: 1;"/>
			<path d="M 1268.378863,497.834646 L 1268.378863,518.335208 Z" style="stroke: rgb(0%,0%,0%); stroke-linecap: butt; stroke-width: 1;"/>
			<path d="M 669.622503,497.834646 L 669.622503,510.134983 Z" style="stroke: rgb(0%,0%,0%); stroke-linecap: butt; stroke-width: 1;"/>
			<path d="M 1268.378863,497.834646 L 1268.378863,510.134983 Z" style="stroke: rgb(0%,0%,0%); stroke-linecap: butt; stroke-width: 1;"/>
			<g transform=" matrix(0.707107,0.707107,-0.707107,0.707107,669.622503,231.327334)">
				<text style="font-family: Helvetica; font-size: 6px;fill: rgb(0%,0%,0%); stroke:none;" transform="translate(0,0) scale(1,-1)" x="0" y="0">10000</text>
			</g>
			<g transform=" matrix(0.707107,0.707107,-0.707107,0.707107,669.622503,518.335208)">
				<text style="font-family: Helvetica; font-size: 6px;fill: rgb(0%,0%,0%); stroke:none;" transform="translate(0,0) scale(1,-1)" x="0" y="0">10000</text>
			</g>
			<g transform=" matrix(0.707107,0.707107,-0.707107,0.707107,1268.378863,518.335208)">
				<text style="font-family: Helvetica; font-size: 6px;fill: rgb(0%,0%,0%); stroke:none;" transform="translate(0,0) scale(1,-1)" x="0" y="0">20000</text>
			</g>
			<g transform=" matrix(0.707107,0.707107,-0.707107,0.707107,75.41669,251.827897)">
				<text style="font-family: Helvetica; font-size: 10px;fill: rgb(0%,0%,0%); stroke:none;" transform="translate(0,0) scale(1,-1)" x="0" y="0">Gene_01855</text>
			</g>
			<g transform=" matrix(0.707107,-0.707107,0.707107,0.707107,124.963779,169.825647)">
				<text style="font-family: Helvetica; font-size: 10px;fill: rgb(0%,0%,0%); stroke:none;" transform="translate(0,0) scale(1,-1)" x="0" y="0">Gene_01856</text>
			</g>
			<g transform=" matrix(0.707107,0.707107,-0.707107,0.707107,211.813389,251.827897)">
				<text style="font-family: Helvetica; font-size: 10px;fill: rgb(0%,0%,0%); stroke:none;" transform="translate(0,0) scale(1,-1)" x="0" y="0">Gene_01857</text>
			</g>
			<g transform=" matrix(0.707107,-0.707107,0.707107,0.707107,308.213163,169.825647)">
				<text style="font-family: Helvetica; font-size: 10px;fill: rgb(0%,0%,0%); stroke:none;" transform="translate(0,0) scale(1,-1)" x="0" y="0">Gene_01858</text>
			</g>
			<g transform=" matrix(0.707107,0.707107,-0.707107,0.707107,355.215538,251.827897)">
				<text style="font-family: Helvetica; font-size: 10px;fill: rgb(0%,0%,0%); stroke:none;" transform="translate(0,0) scale(1,-1)" x="0" y="0">Gene_01859</text>
			</g>
			<g transform=" matrix(0.707107,0.707107,-0.707107,0.707107,380.722558,251.827897)">
				<text style="font-family: Helvetica; font-size: 10px;fill: rgb(0%,0%,0%); stroke:none;" transform="translate(0,0) scale(1,-1)" x="0" y="0">Gene_01860</text>
			</g>
			<g transform=" matrix(0.707107,-0.707107,0.707107,0.707107,463.680252,169.825647)">
				<text style="font-family: Helvetica; font-size: 10px;fill: rgb(0%,0%,0%); stroke:none;" transform="translate(0,0) scale(1,-1)" x="0" y="0">Gene_01861</text>
			</g>
			<g transform=" matrix(0.707107,-0.707107,0.707107,0.707107,573.043102,169.825647)">
				<text style="font-family: Helvetica; font-size: 16px;fill: rgb(0%,0%,100%); stroke:none;" transform="translate(0,0) scale(1,-1)" x="0" y="0">Gene_01862 (81.1)</text>
			</g>
			<g transform=" matrix(0.707107,-0.707107,0.707107,0.707107,643.187409,169.825647)">
				<text style="font-family: Helvetica; font-size: 10px;fill: rgb(0%,0%,0%); stroke:none;" transform="translate(0,0) scale(1,-1)" x="0" y="0">Gene_01863</text>
			</g>
			<g transform=" matrix(0.707107,-0.707107,0.707107,0.707107,708.721293,169.825647)">
				<text style="font-family: Helvetica; font-size: 10px;fill: rgb(0%,0%,0%); stroke:none;" transform="translate(0,0) scale(1,-1)" x="0" y="0">Gene_01864</text>
			</g>
			<g transform=" matrix(0.707107,-0.707107,0.707107,0.707107,763.567376,169.825647)">
				<text style="font-family: Helvetica; font-size: 10px;fill: rgb(0%,0%,0%); stroke:none;" transform="translate(0,0) scale(1,-1)" x="0" y="0">Gene_01865</text>
			</g>
			<g transform=" matrix(0.707107,-0.707107,0.707107,0.707107,814.102412,169.825647)">
				<text style="font-family: Helvetica; font-size: 10px;fill: rgb(0%,0%,0%); stroke:none;" transform="translate(0,0) scale(1,-1)" x="0" y="0">Gene_01866</text>
			</g>
			<g transform=" matrix(0.707107,-0.707107,0.707107,0.707107,859.098953,169.825647)">
				<text style="font-family: Helvetica; font-size: 10px;fill: rgb(0%,0%,0%); stroke:none;" transform="translate(0,0) scale(1,-1)" x="0" y="0">Gene_01867</text>
			</g>
			<g transform=" matrix(0.707107,0.707107,-0.707107,0.707107,904.814001,251.827897)">
				<text style="font-family: Helvetica; font-size: 10px;fill: rgb(0%,0%,0%); stroke:none;" transform="translate(0,0) scale(1,-1)" x="0" y="0">Gene_01868</text>
			</g>
			<g transform=" matrix(0.707107,0.707107,-0.707107,0.707107,970.018569,251.827897)">
				<text style="font-family: Helvetica; font-size: 10px;fill: rgb(0%,0%,0%); stroke:none;" transform="translate(0,0) scale(1,-1)" x="0" y="0">Gene_01869</text>
			</g>
			<g transform=" matrix(0.707107,0.707107,-0.707107,0.707107,1043.575788,251.827897)">
				<text style="font-family: Helvetica; font-size: 10px;fill: rgb(0%,0%,0%); stroke:none;" transform="translate(0,0) scale(1,-1)" x="0" y="0">Gene_01870</text>
			</g>
			<g transform=" matrix(0.707107,0.707107,-0.707107,0.707107,1114.737981,251.827897)">
				<text style="font-family: Helvetica; font-size: 10px;fill: rgb(0%,0%,0%); stroke:none;" transform="translate(0,0) scale(1,-1)" x="0" y="0">Gene_01871</text>
			</g>
			<g transform=" matrix(0.707107,-0.707107,0.707107,0.707107,1155.513289,169.825647)">
				<text style="font-family: Helvetica; font-size: 10px;fill: rgb(0%,0%,0%); stroke:none;" transform="translate(0,0) scale(1,-1)" x="0" y="0">Gene_01872</text>
			</g>
			<g transform=" matrix(0.707107,-0.707107,0.707107,0.707107,1214.011786,169.825647)">
				<text style="font-family: Helvetica; font-size: 10px;fill: rgb(0%,0%,0%); stroke:none;" transform="translate(0,0) scale(1,-1)" x="0" y="0">Gene_01873</text>
			</g>
			<g transform=" matrix(0.707107,-0.707107,0.707107,0.707107,106.073016,456.833521)">
				<text style="font-family: Helvetica; font-size: 10px;fill: rgb(0%,0%,0%); stroke:none;" transform="translate(0,0) scale(1,-1)" x="0" y="0">Gene_00540</text>
			</g>
			<g transform=" matrix(0.707107,-0.707107,0.707107,0.707107,153.284955,456.833521)">
				<text style="font-family: Helvetica; font-size: 10px;fill: rgb(0%,0%,0%); stroke:none;" transform="translate(0,0) scale(1,-1)" x="0" y="0">Gene_00541</text>
			</g>
			<g transform=" matrix(0.707107,-0.707107,0.707107,0.707107,204.269059,456.833521)">
				<text style="font-family: Helvetica; font-size: 10px;fill: rgb(0%,0%,0%); stroke:none;" transform="translate(0,0) scale(1,-1)" x="0" y="0">Gene_00542</text>
			</g>
			<g transform=" matrix(0.707107,-0.707107,0.707107,0.707107,267.797109,456.833521)">
				<text style="font-family: Helvetica; font-size: 10px;fill: rgb(0%,0%,0%); stroke:none;" transform="translate(0,0) scale(1,-1)" x="0" y="0">Gene_00543</text>
			</g>
			<g transform=" matrix(0.707107,-0.707107,0.707107,0.707107,321.266052,456.833521)">
				<text style="font-family: Helvetica; font-size: 10px;fill: rgb(0%,0%,0%); stroke:none;" transform="translate(0,0) scale(1,-1)" x="0" y="0">Gene_00544</text>
			</g>
			<g transform=" matrix(0.707107,-0.707107,0.707107,0.707107,382.369138,456.833521)">
				<text style="font-family: Helvetica; font-size: 10px;fill: rgb(0%,0%,0%); stroke:none;" transform="translate(0,0) scale(1,-1)" x="0" y="0">Gene_00545</text>
			</g>
			<g transform=" matrix(0.707107,-0.707107,0.707107,0.707107,433.922061,456.833521)">
				<text style="font-family: Helvetica; font-size: 10px;fill: rgb(0%,0%,0%); stroke:none;" transform="translate(0,0) scale(1,-1)" x="0" y="0">Gene_00546</text>
			</g>
			<g transform=" matrix(0.707107,-0.707107,0.707107,0.707107,468.410428,456.833521)">
				<text style="font-family: Helvetica; font-size: 10px;fill: rgb(0%,0%,0%); stroke:none;" transform="translate(0,0) scale(1,-1)" x="0" y="0">Gene_00547</text>
			</g>
			<g transform=" matrix(0.707107,0.707107,-0.707107,0.707107,522.358376,538.835771)">
				<text style="font-family: Helvetica; font-size: 10px;fill: rgb(0%,0%,0%); stroke:none;" transform="translate(0,0) scale(1,-1)" x="0" y="0">Gene_00548</text>
			</g>
			<g transform=" matrix(0.707107,-0.707107,0.707107,0.707107,612.950213,456.833521)">
				<text style="font-family: Helvetica; font-size: 10px;fill: rgb(0%,0%,0%); stroke:none;" transform="translate(0,0) scale(1,-1)" x="0" y="0">Gene_00549</text>
			</g>
			<g transform=" matrix(0.707107,-0.707107,0.707107,0.707107,722.76213,456.833521)">
				<text style="font-family: Helvetica; font-size: 16px;fill: rgb(0%,0%,100%); stroke:none;" transform="translate(0,0) scale(1,-1)" x="0" y="0">Gene_00550 (81.1)</text>
			</g>
			<g transform=" matrix(0.707107,-0.707107,0.707107,0.707107,793.804572,456.833521)">
				<text style="font-family: Helvetica; font-size: 10px;fill: rgb(0%,0%,0%); stroke:none;" transform="translate(0,0) scale(1,-1)" x="0" y="0">Gene_00551</text>
			</g>
			<g transform=" matrix(0.707107,-0.707107,0.707107,0.707107,840.447692,456.833521)">
				<text style="font-family: Helvetica; font-size: 10px;fill: rgb(0%,0%,0%); stroke:none;" transform="translate(0,0) scale(1,-1)" x="0" y="0">Gene_00552</text>
			</g>
			<g transform=" matrix(0.707107,0.707107,-0.707107,0.707107,872.151842,538.835771)">
				<text style="font-family: Helvetica; font-size: 10px;fill: rgb(0%,0%,0%); stroke:none;" transform="translate(0,0) scale(1,-1)" x="0" y="0">Gene_00553</text>
			</g>
			<g transform=" matrix(0.707107,0.707107,-0.707107,0.707107,948.283713,538.835771)">
				<text style="font-family: Helvetica; font-size: 10px;fill: rgb(0%,0%,0%); stroke:none;" transform="translate(0,0) scale(1,-1)" x="0" y="0">Gene_00554</text>
			</g>
			<g transform=" matrix(0.707107,-0.707107,0.707107,0.707107,1043.665601,456.833521)">
				<text style="font-family: Helvetica; font-size: 10px;fill: rgb(0%,0%,0%); stroke:none;" transform="translate(0,0) scale(1,-1)" x="0" y="0">Gene_00555</text>
			</g>
			<g transform=" matrix(0.707107,-0.707107,0.707107,0.707107,1084.410972,456.833521)">
				<text style="font-family: Helvetica; font-size: 10px;fill: rgb(0%,0%,0%); stroke:none;" transform="translate(0,0) scale(1,-1)" x="0" y="0">Gene_00556</text>
			</g>
			<g transform=" matrix(0.707107,-0.707107,0.707107,0.707107,1115.725929,456.833521)">
				<text style="font-family: Helvetica; font-size: 10px;fill: rgb(0%,0%,0%); stroke:none;" transform="translate(0,0) scale(1,-1)" x="0" y="0">Gene_00557</text>
			</g>
			<g transform=" matrix(0.707107,-0.707107,0.707107,0.707107,1159.135765,456.833521)">
				<text style="font-family: Helvetica; font-size: 10px;fill: rgb(0%,0%,0%); stroke:none;" transform="translate(0,0) scale(1,-1)" x="0" y="0">Gene_00558</text>
			</g>
			<g transform=" matrix(0.707107,-0.707107,0.707107,0.707107,1210.479123,456.833521)">
				<text style="font-family: Helvetica; font-size: 10px;fill: rgb(0%,0%,0%); stroke:none;" transform="translate(0,0) scale(1,-1)" x="0" y="0">Gene_00559</text>
			</g>
			<g transform=" matrix(0.707107,0.707107,-0.707107,0.707107,1280.054612,538.835771)">
				<text style="font-family: Helvetica; font-size: 10px;fill: rgb(0%,0%,0%); stroke:none;" transform="translate(0,0) scale(1,-1)" x="0" y="0">Gene_00560</text>
			</g>
			<g transform=" matrix(1,0,-0,1,70,169.825647)">
				<text style="font-family: Helvetica; font-size: 12px;fill: rgb(60%,60%,60%); stroke:none;" transform="translate(0,0) scale(1,-1)" x="0" y="0">megahit_44837 (left 7513bp, right 26839bp)</text>
			</g>
			<g transform=" matrix(1,0,-0,1,70,456.833521)">
				<text style="font-family: Helvetica; font-size: 12px;fill: rgb(60%,60%,60%); stroke:none;" transform="translate(0,0) scale(1,-1)" x="0" y="0">megahit_23184 (left 30242bp, right 9528bp)</text>
			</g>
		</g>
	</g>
</svg>
