<?xml version="1.0" encoding="utf-8"?>
<!DOCTYPE svg
  PUBLIC '-//W3C//DTD SVG 1.0//EN'
  'http://www.w3.org/TR/2001/REC-SVG-20010904/DTD/svg10.dtd'>
<svg fill-rule="evenodd" height="708.6614173228346" preserveAspectRatio="xMinYMin meet" version="1.0" viewBox="0 0 1417 708" width="1417.3228346456692" xmlns="http://www.w3.org/2000/svg" xmlns:xlink="http://www.w3.org/1999/xlink">
	<title>...</title>
	<desc>...</desc>
	<clipPath id="clip">
		<rect height="708.6614173228346" width="1417.3228346456692" x="0" y="0"/>
	</clipPath>
	<g id="group" style="clip-path: url(#clip)" transform="scale(1,-1) translate(0,-708)">
		<g transform="">
			<polygon points="70.86614 169.8256, 1346.403 169.8256, 1346.403 251.8279, 70.86614 251.8279" style="stroke: rgb(96%,96%,96%); stroke-linecap: butt; stroke-width: 1; fill: rgb(96%,96%,96%); fill-rule: evenodd;"/>
			<polygon points="70.86614 456.8335, 1272.612 456.8335, 1272.612 538.8358, 70.86614 538.8358" style="stroke: rgb(96%,96%,96%); stroke-linecap: butt; stroke-width: 1; fill: rgb(96%,96%,96%); fill-rule: evenodd;"/>
			<polygon points="582.3501 456.8335, 770.1632 456.8335, 605.4234 251.8279, 793.2902 251.8279" style="stroke: rgb(100%,27%,27%); stroke-linecap: round; stroke-width: 1; fill: rgb(100%,27%,27%); fill-rule: evenodd;"/>
			<polygon points="70.97371 456.8335, 221.8911 456.8335, 961.8487 251.8279, 1112.605 251.8279" style="stroke: rgb(100%,29%,29%); stroke-linecap: round; stroke-width: 1; fill: rgb(100%,29%,29%); fill-rule: evenodd;"/>
			<polygon points="780.4359 456.8335, 907.8497 456.8335, 93.56291 251.8279, 221.6222 251.8279" style="stroke: rgb(100%,36%,36%); stroke-linecap: round; stroke-width: 1; fill: rgb(100%,36%,36%); fill-rule: evenodd;"/>
			<polygon points="426.3771 456.8335, 508.8277 456.8335, 797.0013 251.8279, 879.4519 251.8279" style="stroke: rgb(100%,31%,31%); stroke-linecap: round; stroke-width: 1; fill: rgb(100%,31%,31%); fill-rule: evenodd;"/>
			<polygon points="232.11 456.8335, 257.2808 456.8335, 927.4271 251.8279, 952.5979 251.8279" style="stroke: rgb(100%,27%,27%); stroke-linecap: round; stroke-width: 1; fill: rgb(100%,27%,27%); fill-rule: evenodd;"/>
			<polygon points="282.613 456.8335, 302.9971 456.8335, 889.7784 251.8279, 910.1625 251.8279" style="stroke: rgb(100%,39%,39%); stroke-linecap: round; stroke-width: 1; fill: rgb(100%,39%,39%); fill-rule: evenodd;"/>
			<polygon points="913.9811 456.8335, 928.8792 456.8335, 70.97371 251.8279, 85.87182 251.8279" style="stroke: rgb(100%,38%,38%); stroke-linecap: round; stroke-width: 1; fill: rgb(100%,38%,38%); fill-rule: evenodd;"/>
			<polygon points="85.17263 200.5765, 85.17263 210.8268, 70.86614 190.3262, 85.17263 169.8256, 85.17263 180.0759" style="stroke: rgb(56%,93%,56%); stroke-linecap: round; stroke-width: 1; fill: rgb(56%,93%,56%); fill-rule: evenodd;"/>
			<polygon points="100.3935 241.5776, 205.7595 241.5776, 205.7595 251.8279, 222.16 231.3273, 205.7595 210.8268, 205.7595 221.0771, 100.3935 221.0771" style="stroke: rgb(67%,84%,90%); stroke-linecap: round; stroke-width: 1; fill: rgb(67%,84%,90%); fill-rule: evenodd;"/>
			<polygon points="294.553 241.5776, 316.8231 241.5776, 316.8231 251.8279, 333.2236 231.3273, 316.8231 210.8268, 316.8231 221.0771, 294.553 221.0771" style="stroke: rgb(67%,84%,90%); stroke-linecap: round; stroke-width: 1; fill: rgb(67%,84%,90%); fill-rule: evenodd;"/>
			<polygon points="340.8609 241.5776, 382.8158 241.5776, 382.8158 251.8279, 399.2163 231.3273, 382.8158 210.8268, 382.8158 221.0771, 340.8609 221.0771" style="stroke: rgb(67%,84%,90%); stroke-linecap: round; stroke-width: 1; fill: rgb(67%,84%,90%); fill-rule: evenodd;"/>
			<polygon points="404.4871 241.5776, 467.2564 241.5776, 467.2564 251.8279, 483.6569 231.3273, 467.2564 210.8268, 467.2564 221.0771, 404.4871 221.0771" style="stroke: rgb(67%,84%,90%); stroke-linecap: round; stroke-width: 1; fill: rgb(67%,84%,90%); fill-rule: evenodd;"/>
			<polygon points="484.3561 241.5776, 531.9583 241.5776, 531.9583 251.8279, 548.3588 231.3273, 531.9583 210.8268, 531.9583 221.0771, 484.3561 221.0771" style="stroke: rgb(67%,84%,90%); stroke-linecap: round; stroke-width: 1; fill: rgb(67%,84%,90%); fill-rule: evenodd;"/>
			<polygon points="593.3758 200.5765, 572.3965 200.5765, 572.3965 210.8268, 555.9961 190.3262, 572.3965 169.8256, 572.3965 180.0759, 593.3758 180.0759" style="stroke: rgb(56%,93%,56%); stroke-linecap: round; stroke-width: 1; fill: rgb(56%,93%,56%); fill-rule: evenodd;"/>
			<polygon points="610.4791 241.5776, 734.8846 241.5776, 734.8846 251.8279, 751.2851 231.3273, 734.8846 210.8268, 734.8846 221.0771, 610.4791 221.0771" style="stroke: rgb(67%,84%,90%); stroke-linecap: round; stroke-width: 1; fill: rgb(67%,84%,90%); fill-rule: evenodd;"/>
			<polygon points="752.5221 241.5776, 776.8898 241.5776, 776.8898 251.8279, 793.2902 231.3273, 776.8898 210.8268, 776.8898 221.0771, 752.5221 221.0771" style="stroke: rgb(67%,84%,90%); stroke-linecap: round; stroke-width: 1; fill: rgb(67%,84%,90%); fill-rule: evenodd;"/>
			<polygon points="805.9294 241.5776, 862.7287 241.5776, 862.7287 251.8279, 879.1292 231.3273, 862.7287 210.8268, 862.7287 221.0771, 805.9294 221.0771" style="stroke: rgb(67%,84%,90%); stroke-linecap: round; stroke-width: 1; fill: rgb(67%,84%,90%); fill-rule: evenodd;"/>
			<polygon points="931.6222 200.5765, 906.1251 200.5765, 906.1251 210.8268, 889.7246 190.3262, 906.1251 169.8256, 906.1251 180.0759, 931.6222 180.0759" style="stroke: rgb(56%,93%,56%); stroke-linecap: round; stroke-width: 1; fill: rgb(56%,93%,56%); fill-rule: evenodd;"/>
			<polygon points="938.3452 241.5776, 938.3452 251.8279, 953.2971 231.3273, 938.3452 210.8268, 938.3452 221.0771" style="stroke: rgb(67%,84%,90%); stroke-linecap: round; stroke-width: 1; fill: rgb(67%,84%,90%); fill-rule: evenodd;"/>
			<polygon points="1068.771 200.5765, 986.8008 200.5765, 986.8008 210.8268, 970.4003 190.3262, 986.8008 169.8256, 986.8008 180.0759, 1068.771 180.0759" style="stroke: rgb(56%,93%,56%); stroke-linecap: round; stroke-width: 1; fill: rgb(56%,93%,56%); fill-rule: evenodd;"/>
			<polygon points="1079.044 241.5776, 1096.312 241.5776, 1096.312 251.8279, 1112.712 231.3273, 1096.312 210.8268, 1096.312 221.0771, 1079.044 221.0771" style="stroke: rgb(67%,84%,90%); stroke-linecap: round; stroke-width: 1; fill: rgb(67%,84%,90%); fill-rule: evenodd;"/>
			<polygon points="1118.628 241.5776, 1129.765 241.5776, 1129.765 251.8279, 1146.166 231.3273, 1129.765 210.8268, 1129.765 221.0771, 1118.628 221.0771" style="stroke: rgb(67%,84%,90%); stroke-linecap: round; stroke-width: 1; fill: rgb(67%,84%,90%); fill-rule: evenodd;"/>
			<polygon points="1148.048 241.5776, 1179.677 241.5776, 1179.677 251.8279, 1196.077 231.3273, 1179.677 210.8268, 1179.677 221.0771, 1148.048 221.0771" style="stroke: rgb(67%,84%,90%); stroke-linecap: round; stroke-width: 1; fill: rgb(67%,84%,90%); fill-rule: evenodd;"/>
			<polygon points="1197.099 241.5776, 1221.467 241.5776, 1221.467 251.8279, 1237.867 231.3273, 1221.467 210.8268, 1221.467 221.0771, 1197.099 221.0771" style="stroke: rgb(67%,84%,90%); stroke-linecap: round; stroke-width: 1; fill: rgb(67%,84%,90%); fill-rule: evenodd;"/>
			<polygon points="1246.795 241.5776, 1253.576 241.5776, 1253.576 251.8279, 1269.976 231.3273, 1253.576 210.8268, 1253.576 221.0771, 1246.795 221.0771" style="stroke: rgb(67%,84%,90%); stroke-linecap: round; stroke-width: 1; fill: rgb(67%,84%,90%); fill-rule: evenodd;"/>
			<polygon points="1275.516 241.5776, 1301.013 241.5776, 1301.013 251.8279, 1317.413 231.3273, 1301.013 210.8268, 1301.013 221.0771, 1275.516 221.0771" style="stroke: rgb(67%,84%,90%); stroke-linecap: round; stroke-width: 1; fill: rgb(67%,84%,90%); fill-rule: evenodd;"/>
			<polygon points="1317.252 241.5776, 1330.002 241.5776, 1330.002 251.8279, 1346.403 231.3273, 1330.002 210.8268, 1330.002 221.0771, 1317.252 221.0771" style="stroke: rgb(67%,84%,90%); stroke-linecap: round; stroke-width: 1; fill: rgb(67%,84%,90%); fill-rule: evenodd;"/>
			<polygon points="104.5348 487.5844, 87.26659 487.5844, 87.26659 497.8346, 70.86614 477.3341, 87.26659 456.8335, 87.26659 467.0838, 104.5348 467.0838" style="stroke: rgb(56%,93%,56%); stroke-linecap: round; stroke-width: 1; fill: rgb(56%,93%,56%); fill-rule: evenodd;"/>
			<polygon points="114.9689 528.5855, 196.939 528.5855, 196.939 538.8358, 213.3394 518.3352, 196.939 497.8346, 196.939 508.0849, 114.9689 508.0849" style="stroke: rgb(67%,84%,90%); stroke-linecap: round; stroke-width: 1; fill: rgb(67%,84%,90%); fill-rule: evenodd;"/>
			<polygon points="246.3627 487.5844, 246.3627 497.8346, 230.7654 477.3341, 246.3627 456.8335, 246.3627 467.0838" style="stroke: rgb(56%,93%,56%); stroke-linecap: round; stroke-width: 1; fill: rgb(56%,93%,56%); fill-rule: evenodd;"/>
			<polygon points="253.0857 528.5855, 286.6504 528.5855, 286.6504 538.8358, 303.0508 518.3352, 286.6504 497.8346, 286.6504 508.0849, 253.0857 508.0849" style="stroke: rgb(67%,84%,90%); stroke-linecap: round; stroke-width: 1; fill: rgb(67%,84%,90%); fill-rule: evenodd;"/>
			<polygon points="407.7679 487.5844, 324.1843 487.5844, 324.1843 497.8346, 307.7838 477.3341, 324.1843 456.8335, 324.1843 467.0838, 407.7679 467.0838" style="stroke: rgb(56%,93%,56%); stroke-linecap: round; stroke-width: 1; fill: rgb(56%,93%,56%); fill-rule: evenodd;"/>
			<polygon points="499.8996 487.5844, 443.1003 487.5844, 443.1003 497.8346, 426.6998 477.3341, 443.1003 456.8335, 443.1003 467.0838, 499.8996 467.0838" style="stroke: rgb(56%,93%,56%); stroke-linecap: round; stroke-width: 1; fill: rgb(56%,93%,56%); fill-rule: evenodd;"/>
			<polygon points="566.3226 487.5844, 529.0468 487.5844, 529.0468 497.8346, 512.6463 477.3341, 529.0468 456.8335, 529.0468 467.0838, 566.3226 467.0838" style="stroke: rgb(56%,93%,56%); stroke-linecap: round; stroke-width: 1; fill: rgb(56%,93%,56%); fill-rule: evenodd;"/>
			<polygon points="623.1183 487.5844, 598.7506 487.5844, 598.7506 497.8346, 582.3501 477.3341, 598.7506 456.8335, 598.7506 467.0838, 623.1183 467.0838" style="stroke: rgb(56%,93%,56%); stroke-linecap: round; stroke-width: 1; fill: rgb(56%,93%,56%); fill-rule: evenodd;"/>
			<polygon points="765.1613 487.5844, 640.7557 487.5844, 640.7557 497.8346, 624.3553 477.3341, 640.7557 456.8335, 640.7557 467.0838, 765.1613 467.0838" style="stroke: rgb(56%,93%,56%); stroke-linecap: round; stroke-width: 1; fill: rgb(56%,93%,56%); fill-rule: evenodd;"/>
			<polygon points="901.6646 487.5844, 796.2985 487.5844, 796.2985 497.8346, 779.8981 477.3341, 796.2985 456.8335, 796.2985 467.0838, 901.6646 467.0838" style="stroke: rgb(56%,93%,56%); stroke-linecap: round; stroke-width: 1; fill: rgb(56%,93%,56%); fill-rule: evenodd;"/>
			<polygon points="914.6803 528.5855, 914.6803 538.8358, 928.9868 518.3352, 914.6803 497.8346, 914.6803 508.0849" style="stroke: rgb(67%,84%,90%); stroke-linecap: round; stroke-width: 1; fill: rgb(67%,84%,90%); fill-rule: evenodd;"/>
			<polygon points="974.2727 487.5844, 945.2259 487.5844, 945.2259 497.8346, 928.8254 477.3341, 945.2259 456.8335, 945.2259 467.0838, 974.2727 467.0838" style="stroke: rgb(56%,93%,56%); stroke-linecap: round; stroke-width: 1; fill: rgb(56%,93%,56%); fill-rule: evenodd;"/>
			<polygon points="1036.662 487.5844, 995.5137 487.5844, 995.5137 497.8346, 979.1133 477.3341, 995.5137 456.8335, 995.5137 467.0838, 1036.662 467.0838" style="stroke: rgb(56%,93%,56%); stroke-linecap: round; stroke-width: 1; fill: rgb(56%,93%,56%); fill-rule: evenodd;"/>
			<polygon points="1090.768 487.5844, 1053.17 487.5844, 1053.17 497.8346, 1036.77 477.3341, 1053.17 456.8335, 1053.17 467.0838, 1090.768 467.0838" style="stroke: rgb(56%,93%,56%); stroke-linecap: round; stroke-width: 1; fill: rgb(56%,93%,56%); fill-rule: evenodd;"/>
			<polygon points="1102.493 528.5855, 1112.339 528.5855, 1112.339 538.8358, 1128.74 518.3352, 1112.339 497.8346, 1112.339 508.0849, 1102.493 508.0849" style="stroke: rgb(67%,84%,90%); stroke-linecap: round; stroke-width: 1; fill: rgb(67%,84%,90%); fill-rule: evenodd;"/>
			<polygon points="1166.389 487.5844, 1149.604 487.5844, 1149.604 497.8346, 1133.204 477.3341, 1149.604 456.8335, 1149.604 467.0838, 1166.389 467.0838" style="stroke: rgb(56%,93%,56%); stroke-linecap: round; stroke-width: 1; fill: rgb(56%,93%,56%); fill-rule: evenodd;"/>
			<polygon points="1249.538 487.5844, 1191.932 487.5844, 1191.932 497.8346, 1175.532 477.3341, 1191.932 456.8335, 1191.932 467.0838, 1249.538 467.0838" style="stroke: rgb(56%,93%,56%); stroke-linecap: round; stroke-width: 1; fill: rgb(56%,93%,56%); fill-rule: evenodd;"/>
			<polygon points="1272.074 487.5844, 1270.457 487.5844, 1270.457 497.8346, 1254.056 477.3341, 1270.457 456.8335, 1270.457 467.0838, 1272.074 467.0838" style="stroke: rgb(56%,93%,56%); stroke-linecap: round; stroke-width: 1; fill: rgb(56%,93%,56%); fill-rule: evenodd;"/>
			<path d="M 1346.402909,169.825647 L 1346.402909,251.827897 Z" style="stroke: rgb(0%,0%,0%); stroke-linecap: butt; stroke-width: 1;"/>
			<path d="M 70.866142,210.826772 L 1346.402909,210.826772 Z" style="stroke: rgb(0%,0%,0%); stroke-linecap: butt; stroke-width: 1;"/>
			<path d="M 70.866142,169.825647 L 70.866142,251.827897 Z" style="stroke: rgb(0%,0%,0%); stroke-linecap: butt; stroke-width: 1;"/>
			<path d="M 608.704212,210.826772 L 608.704212,231.327334 Z" style="stroke: rgb(0%,0%,0%); stroke-linecap: butt; stroke-width: 1;"/>
			<path d="M 1146.542282,210.826772 L 1146.542282,231.327334 Z" style="stroke: rgb(0%,0%,0%); stroke-linecap: butt; stroke-width: 1;"/>
			<path d="M 608.704212,210.826772 L 608.704212,223.127109 Z" style="stroke: rgb(0%,0%,0%); stroke-linecap: butt; stroke-width: 1;"/>
			<path d="M 1146.542282,210.826772 L 1146.542282,223.127109 Z" style="stroke: rgb(0%,0%,0%); stroke-linecap: butt; stroke-width: 1;"/>
			<path d="M 1272.611526,456.833521 L 1272.611526,538.835771 Z" style="stroke: rgb(0%,0%,0%); stroke-linecap: butt; stroke-width: 1;"/>
			<path d="M 70.866142,497.834646 L 1272.611526,497.834646 Z" style="stroke: rgb(0%,0%,0%); stroke-linecap: butt; stroke-width: 1;"/>
			<path d="M 70.866142,456.833521 L 70.866142,538.835771 Z" style="stroke: rgb(0%,0%,0%); stroke-linecap: butt; stroke-width: 1;"/>
			<path d="M 608.704212,497.834646 L 608.704212,518.335208 Z" style="stroke: rgb(0%,0%,0%); stroke-linecap: butt; stroke-width: 1;"/>
			<path d="M 1146.542282,497.834646 L 1146.542282,518.335208 Z" style="stroke: rgb(0%,0%,0%); stroke-linecap: butt; stroke-width: 1;"/>
			<path d="M 608.704212,497.834646 L 608.704212,510.134983 Z" style="stroke: rgb(0%,0%,0%); stroke-linecap: butt; stroke-width: 1;"/>
			<path d="M 1146.542282,497.834646 L 1146.542282,510.134983 Z" style="stroke: rgb(0%,0%,0%); stroke-linecap: butt; stroke-width: 1;"/>
			<g transform=" matrix(0.707107,0.707107,-0.707107,0.707107,608.704212,231.327334)">
				<text style="font-family: Helvetica; font-size: 6px;fill: rgb(0%,0%,0%); stroke:none;" transform="translate(0,0) scale(1,-1)" x="0" y="0">10000</text>
			</g>
			<g transform=" matrix(0.707107,0.707107,-0.707107,0.707107,1146.542282,231.327334)">
				<text style="font-family: Helvetica; font-size: 6px;fill: rgb(0%,0%,0%); stroke:none;" transform="translate(0,0) scale(1,-1)" x="0" y="0">20000</text>
			</g>
			<g transform=" matrix(0.707107,0.707107,-0.707107,0.707107,608.704212,518.335208)">
				<text style="font-family: Helvetica; font-size: 6px;fill: rgb(0%,0%,0%); stroke:none;" transform="translate(0,0) scale(1,-1)" x="0" y="0">10000</text>
			</g>
			<g transform=" matrix(0.707107,0.707107,-0.707107,0.707107,1146.542282,518.335208)">
				<text style="font-family: Helvetica; font-size: 6px;fill: rgb(0%,0%,0%); stroke:none;" transform="translate(0,0) scale(1,-1)" x="0" y="0">20000</text>
			</g>
			<g transform=" matrix(0.707107,-0.707107,0.707107,0.707107,78.019388,169.825647)">
				<text style="font-family: Helvetica; font-size: 10px;fill: rgb(0%,0%,0%); stroke:none;" transform="translate(0,0) scale(1,-1)" x="0" y="0">Gene_00596</text>
			</g>
			<g transform=" matrix(0.707107,0.707107,-0.707107,0.707107,161.276721,251.827897)">
				<text style="font-family: Helvetica; font-size: 10px;fill: rgb(0%,0%,0%); stroke:none;" transform="translate(0,0) scale(1,-1)" x="0" y="0">Gene_00597</text>
			</g>
			<g transform=" matrix(0.707107,0.707107,-0.707107,0.707107,313.888274,251.827897)">
				<text style="font-family: Helvetica; font-size: 10px;fill: rgb(0%,0%,0%); stroke:none;" transform="translate(0,0) scale(1,-1)" x="0" y="0">Gene_00598</text>
			</g>
			<g transform=" matrix(0.707107,0.707107,-0.707107,0.707107,370.038568,251.827897)">
				<text style="font-family: Helvetica; font-size: 10px;fill: rgb(0%,0%,0%); stroke:none;" transform="translate(0,0) scale(1,-1)" x="0" y="0">Gene_00599</text>
			</g>
			<g transform=" matrix(0.707107,0.707107,-0.707107,0.707107,444.071979,251.827897)">
				<text style="font-family: Helvetica; font-size: 10px;fill: rgb(0%,0%,0%); stroke:none;" transform="translate(0,0) scale(1,-1)" x="0" y="0">Gene_00600</text>
			</g>
			<g transform=" matrix(0.707107,0.707107,-0.707107,0.707107,516.357415,251.827897)">
				<text style="font-family: Helvetica; font-size: 10px;fill: rgb(0%,0%,0%); stroke:none;" transform="translate(0,0) scale(1,-1)" x="0" y="0">Gene_00601</text>
			</g>
			<g transform=" matrix(0.707107,-0.707107,0.707107,0.707107,574.685954,169.825647)">
				<text style="font-family: Helvetica; font-size: 10px;fill: rgb(0%,0%,0%); stroke:none;" transform="translate(0,0) scale(1,-1)" x="0" y="0">Gene_00602</text>
			</g>
			<g transform=" matrix(0.707107,0.707107,-0.707107,0.707107,680.882081,251.827897)">
				<text style="font-family: Helvetica; font-size: 16px;fill: rgb(0%,0%,100%); stroke:none;" transform="translate(0,0) scale(1,-1)" x="0" y="0">Gene_00603 (86.6)</text>
			</g>
			<g transform=" matrix(0.707107,0.707107,-0.707107,0.707107,772.906175,251.827897)">
				<text style="font-family: Helvetica; font-size: 10px;fill: rgb(0%,0%,0%); stroke:none;" transform="translate(0,0) scale(1,-1)" x="0" y="0">Gene_00604</text>
			</g>
			<g transform=" matrix(0.707107,0.707107,-0.707107,0.707107,842.529313,251.827897)">
				<text style="font-family: Helvetica; font-size: 10px;fill: rgb(0%,0%,0%); stroke:none;" transform="translate(0,0) scale(1,-1)" x="0" y="0">Gene_00605</text>
			</g>
			<g transform=" matrix(0.707107,-0.707107,0.707107,0.707107,910.673397,169.825647)">
				<text style="font-family: Helvetica; font-size: 10px;fill: rgb(0%,0%,0%); stroke:none;" transform="translate(0,0) scale(1,-1)" x="0" y="0">Gene_00606</text>
			</g>
			<g transform=" matrix(0.707107,0.707107,-0.707107,0.707107,945.821114,251.827897)">
				<text style="font-family: Helvetica; font-size: 10px;fill: rgb(0%,0%,0%); stroke:none;" transform="translate(0,0) scale(1,-1)" x="0" y="0">Gene_00607</text>
			</g>
			<g transform=" matrix(0.707107,-0.707107,0.707107,0.707107,1019.585606,169.825647)">
				<text style="font-family: Helvetica; font-size: 10px;fill: rgb(0%,0%,0%); stroke:none;" transform="translate(0,0) scale(1,-1)" x="0" y="0">Gene_00608</text>
			</g>
			<g transform=" matrix(0.707107,0.707107,-0.707107,0.707107,1095.877936,251.827897)">
				<text style="font-family: Helvetica; font-size: 10px;fill: rgb(0%,0%,0%); stroke:none;" transform="translate(0,0) scale(1,-1)" x="0" y="0">Gene_00609</text>
			</g>
			<g transform=" matrix(0.707107,0.707107,-0.707107,0.707107,1132.397141,251.827897)">
				<text style="font-family: Helvetica; font-size: 10px;fill: rgb(0%,0%,0%); stroke:none;" transform="translate(0,0) scale(1,-1)" x="0" y="0">Gene_00610</text>
			</g>
			<g transform=" matrix(0.707107,0.707107,-0.707107,0.707107,1172.062699,251.827897)">
				<text style="font-family: Helvetica; font-size: 10px;fill: rgb(0%,0%,0%); stroke:none;" transform="translate(0,0) scale(1,-1)" x="0" y="0">Gene_00611</text>
			</g>
			<g transform=" matrix(0.707107,0.707107,-0.707107,0.707107,1217.483124,251.827897)">
				<text style="font-family: Helvetica; font-size: 10px;fill: rgb(0%,0%,0%); stroke:none;" transform="translate(0,0) scale(1,-1)" x="0" y="0">Gene_00612</text>
			</g>
			<g transform=" matrix(0.707107,0.707107,-0.707107,0.707107,1258.385709,251.827897)">
				<text style="font-family: Helvetica; font-size: 10px;fill: rgb(0%,0%,0%); stroke:none;" transform="translate(0,0) scale(1,-1)" x="0" y="0">Gene_00613</text>
			</g>
			<g transform=" matrix(0.707107,0.707107,-0.707107,0.707107,1296.464644,251.827897)">
				<text style="font-family: Helvetica; font-size: 10px;fill: rgb(0%,0%,0%); stroke:none;" transform="translate(0,0) scale(1,-1)" x="0" y="0">Gene_00614</text>
			</g>
			<g transform=" matrix(0.707107,0.707107,-0.707107,0.707107,1331.827497,251.827897)">
				<text style="font-family: Helvetica; font-size: 10px;fill: rgb(0%,0%,0%); stroke:none;" transform="translate(0,0) scale(1,-1)" x="0" y="0">Gene_00615</text>
			</g>
			<g transform=" matrix(0.707107,-0.707107,0.707107,0.707107,87.700473,456.833521)">
				<text style="font-family: Helvetica; font-size: 10px;fill: rgb(0%,0%,0%); stroke:none;" transform="translate(0,0) scale(1,-1)" x="0" y="0">Gene_01338</text>
			</g>
			<g transform=" matrix(0.707107,0.707107,-0.707107,0.707107,164.154155,538.835771)">
				<text style="font-family: Helvetica; font-size: 10px;fill: rgb(0%,0%,0%); stroke:none;" transform="translate(0,0) scale(1,-1)" x="0" y="0">Gene_01339</text>
			</g>
			<g transform=" matrix(0.707107,-0.707107,0.707107,0.707107,238.564052,456.833521)">
				<text style="font-family: Helvetica; font-size: 10px;fill: rgb(0%,0%,0%); stroke:none;" transform="translate(0,0) scale(1,-1)" x="0" y="0">Gene_01340</text>
			</g>
			<g transform=" matrix(0.707107,0.707107,-0.707107,0.707107,278.068258,538.835771)">
				<text style="font-family: Helvetica; font-size: 10px;fill: rgb(0%,0%,0%); stroke:none;" transform="translate(0,0) scale(1,-1)" x="0" y="0">Gene_01341</text>
			</g>
			<g transform=" matrix(0.707107,-0.707107,0.707107,0.707107,357.77586,456.833521)">
				<text style="font-family: Helvetica; font-size: 10px;fill: rgb(0%,0%,0%); stroke:none;" transform="translate(0,0) scale(1,-1)" x="0" y="0">Gene_01342</text>
			</g>
			<g transform=" matrix(0.707107,-0.707107,0.707107,0.707107,463.29969,456.833521)">
				<text style="font-family: Helvetica; font-size: 10px;fill: rgb(0%,0%,0%); stroke:none;" transform="translate(0,0) scale(1,-1)" x="0" y="0">Gene_01343</text>
			</g>
			<g transform=" matrix(0.707107,-0.707107,0.707107,0.707107,539.484452,456.833521)">
				<text style="font-family: Helvetica; font-size: 10px;fill: rgb(0%,0%,0%); stroke:none;" transform="translate(0,0) scale(1,-1)" x="0" y="0">Gene_01344</text>
			</g>
			<g transform=" matrix(0.707107,-0.707107,0.707107,0.707107,602.734209,456.833521)">
				<text style="font-family: Helvetica; font-size: 10px;fill: rgb(0%,0%,0%); stroke:none;" transform="translate(0,0) scale(1,-1)" x="0" y="0">Gene_01345</text>
			</g>
			<g transform=" matrix(0.707107,-0.707107,0.707107,0.707107,694.758303,456.833521)">
				<text style="font-family: Helvetica; font-size: 16px;fill: rgb(0%,0%,100%); stroke:none;" transform="translate(0,0) scale(1,-1)" x="0" y="0">Gene_01346 (86.6)</text>
			</g>
			<g transform=" matrix(0.707107,-0.707107,0.707107,0.707107,840.781339,456.833521)">
				<text style="font-family: Helvetica; font-size: 10px;fill: rgb(0%,0%,0%); stroke:none;" transform="translate(0,0) scale(1,-1)" x="0" y="0">Gene_01347</text>
			</g>
			<g transform=" matrix(0.707107,0.707107,-0.707107,0.707107,921.833536,538.835771)">
				<text style="font-family: Helvetica; font-size: 10px;fill: rgb(0%,0%,0%); stroke:none;" transform="translate(0,0) scale(1,-1)" x="0" y="0">Gene_01348</text>
			</g>
			<g transform=" matrix(0.707107,-0.707107,0.707107,0.707107,951.54909,456.833521)">
				<text style="font-family: Helvetica; font-size: 10px;fill: rgb(0%,0%,0%); stroke:none;" transform="translate(0,0) scale(1,-1)" x="0" y="0">Gene_01349</text>
			</g>
			<g transform=" matrix(0.707107,-0.707107,0.707107,0.707107,1007.887628,456.833521)">
				<text style="font-family: Helvetica; font-size: 10px;fill: rgb(0%,0%,0%); stroke:none;" transform="translate(0,0) scale(1,-1)" x="0" y="0">Gene_01350</text>
			</g>
			<g transform=" matrix(0.707107,-0.707107,0.707107,0.707107,1063.769003,456.833521)">
				<text style="font-family: Helvetica; font-size: 10px;fill: rgb(0%,0%,0%); stroke:none;" transform="translate(0,0) scale(1,-1)" x="0" y="0">Gene_01351</text>
			</g>
			<g transform=" matrix(0.707107,0.707107,-0.707107,0.707107,1115.616593,538.835771)">
				<text style="font-family: Helvetica; font-size: 10px;fill: rgb(0%,0%,0%); stroke:none;" transform="translate(0,0) scale(1,-1)" x="0" y="0">Gene_01352</text>
			</g>
			<g transform=" matrix(0.707107,-0.707107,0.707107,0.707107,1149.796203,456.833521)">
				<text style="font-family: Helvetica; font-size: 10px;fill: rgb(0%,0%,0%); stroke:none;" transform="translate(0,0) scale(1,-1)" x="0" y="0">Gene_01353</text>
			</g>
			<g transform=" matrix(0.707107,-0.707107,0.707107,0.707107,1212.535013,456.833521)">
				<text style="font-family: Helvetica; font-size: 10px;fill: rgb(0%,0%,0%); stroke:none;" transform="translate(0,0) scale(1,-1)" x="0" y="0">Gene_01354</text>
			</g>
			<g transform=" matrix(0.707107,-0.707107,0.707107,0.707107,1263.0649,456.833521)">
				<text style="font-family: Helvetica; font-size: 10px;fill: rgb(0%,0%,0%); stroke:none;" transform="translate(0,0) scale(1,-1)" x="0" y="0">Gene_01355</text>
			</g>
			<g transform=" matrix(1,0,-0,1,70,169.825647)">
				<text style="font-family: Helvetica; font-size: 12px;fill: rgb(60%,60%,60%); stroke:none;" transform="translate(0,0) scale(1,-1)" x="0" y="0">megahit_17858 (left 19078bp, right 31439bp)</text>
			</g>
			<g transform=" matrix(1,0,-0,1,70,456.833521)">
				<text style="font-family: Helvetica; font-size: 12px;fill: rgb(60%,60%,60%); stroke:none;" transform="translate(0,0) scale(1,-1)" x="0" y="0">megahit_61166 (left 31124bp, right 9435bp)</text>
			</g>
		</g>
	</g>
</svg>
