<?xml version="1.0" encoding="utf-8"?>
<!DOCTYPE svg
  PUBLIC '-//W3C//DTD SVG 1.0//EN'
  'http://www.w3.org/TR/2001/REC-SVG-20010904/DTD/svg10.dtd'>
<svg fill-rule="evenodd" height="708.6614173228346" preserveAspectRatio="xMinYMin meet" version="1.0" viewBox="0 0 1417 708" width="1417.3228346456692" xmlns="http://www.w3.org/2000/svg" xmlns:xlink="http://www.w3.org/1999/xlink">
	<title>...</title>
	<desc>...</desc>
	<clipPath id="clip">
		<rect height="708.6614173228346" width="1417.3228346456692" x="0" y="0"/>
	</clipPath>
	<g id="group" style="clip-path: url(#clip)" transform="scale(1,-1) translate(0,-708)">
		<g transform="">
			<polygon points="70.86614 169.8256, 735.1138 169.8256, 735.1138 251.8279, 70.86614 251.8279" style="stroke: rgb(96%,96%,96%); stroke-linecap: butt; stroke-width: 1; fill: rgb(96%,96%,96%); fill-rule: evenodd;"/>
			<polygon points="70.86614 456.8335, 1346.37 456.8335, 1346.37 538.8358, 70.86614 538.8358" style="stroke: rgb(96%,96%,96%); stroke-linecap: butt; stroke-width: 1; fill: rgb(96%,96%,96%); fill-rule: evenodd;"/>
			<polygon points="938.5201 456.8335, 1095.678 456.8335, 416.8212 251.8279, 571.6452 251.8279" style="stroke: rgb(100%,43%,43%); stroke-linecap: round; stroke-width: 1; fill: rgb(100%,43%,43%); fill-rule: evenodd;"/>
			<polygon points="1157.487 456.8335, 1207.712 456.8335, 288.536 251.8279, 339.366 251.8279" style="stroke: rgb(100%,47%,47%); stroke-linecap: round; stroke-width: 1; fill: rgb(100%,47%,47%); fill-rule: evenodd;"/>
			<polygon points="889.0733 456.8335, 934.025 456.8335, 587.7241 251.8279, 632.2436 251.8279" style="stroke: rgb(100%,49%,49%); stroke-linecap: round; stroke-width: 1; fill: rgb(100%,49%,49%); fill-rule: evenodd;"/>
			<polygon points="1112.794 456.8335, 1154.288 456.8335, 347.8377 251.8279, 390.0231 251.8279" style="stroke: rgb(100%,48%,48%); stroke-linecap: round; stroke-width: 1; fill: rgb(100%,48%,48%); fill-rule: evenodd;"/>
			<polygon points="1297.701 456.8335, 1327.525 456.8335, 70.95259 251.8279, 99.65251 251.8279" style="stroke: rgb(100%,37%,37%); stroke-linecap: round; stroke-width: 1; fill: rgb(100%,37%,37%); fill-rule: evenodd;"/>
			<polygon points="849.827 456.8335, 884.9239 456.8335, 643.6544 251.8279, 677.8004 251.8279" style="stroke: rgb(100%,44%,44%); stroke-linecap: round; stroke-width: 1; fill: rgb(100%,44%,44%); fill-rule: evenodd;"/>
			<polygon points="267.4433 200.5765, 137.405 200.5765, 137.405 210.8268, 121.0046 190.3262, 137.405 169.8256, 137.405 180.0759, 267.4433 180.0759" style="stroke: rgb(56%,93%,56%); stroke-linecap: round; stroke-width: 1; fill: rgb(56%,93%,56%); fill-rule: evenodd;"/>
			<polygon points="289.8327 241.5776, 329.8812 241.5776, 329.8812 251.8279, 346.2817 231.3273, 329.8812 210.8268, 329.8812 221.0771, 289.8327 221.0771" style="stroke: rgb(67%,84%,90%); stroke-linecap: round; stroke-width: 1; fill: rgb(67%,84%,90%); fill-rule: evenodd;"/>
			<polygon points="356.828 241.5776, 356.828 251.8279, 371.0051 231.3273, 356.828 210.8268, 356.828 221.0771" style="stroke: rgb(67%,84%,90%); stroke-linecap: round; stroke-width: 1; fill: rgb(67%,84%,90%); fill-rule: evenodd;"/>
			<polygon points="373.5985 241.5776, 399.1241 241.5776, 399.1241 251.8279, 415.5246 231.3273, 399.1241 210.8268, 399.1241 221.0771, 373.5985 221.0771" style="stroke: rgb(67%,84%,90%); stroke-linecap: round; stroke-width: 1; fill: rgb(67%,84%,90%); fill-rule: evenodd;"/>
			<polygon points="416.8212 241.5776, 446.7556 241.5776, 446.7556 251.8279, 463.1561 231.3273, 446.7556 210.8268, 446.7556 221.0771, 416.8212 221.0771" style="stroke: rgb(67%,84%,90%); stroke-linecap: round; stroke-width: 1; fill: rgb(67%,84%,90%); fill-rule: evenodd;"/>
			<polygon points="464.7121 241.5776, 485.3103 241.5776, 485.3103 251.8279, 501.7108 231.3273, 485.3103 210.8268, 485.3103 221.0771, 464.7121 221.0771" style="stroke: rgb(67%,84%,90%); stroke-linecap: round; stroke-width: 1; fill: rgb(67%,84%,90%); fill-rule: evenodd;"/>
			<polygon points="507.4162 241.5776, 550.058 241.5776, 550.058 251.8279, 566.4585 231.3273, 550.058 210.8268, 550.058 221.0771, 507.4162 221.0771" style="stroke: rgb(67%,84%,90%); stroke-linecap: round; stroke-width: 1; fill: rgb(67%,84%,90%); fill-rule: evenodd;"/>
			<polygon points="589.7988 241.5776, 616.6211 241.5776, 616.6211 251.8279, 633.0216 231.3273, 616.6211 210.8268, 616.6211 221.0771, 589.7988 221.0771" style="stroke: rgb(67%,84%,90%); stroke-linecap: round; stroke-width: 1; fill: rgb(67%,84%,90%); fill-rule: evenodd;"/>
			<polygon points="647.2851 241.5776, 661.9186 241.5776, 661.9186 251.8279, 678.319 231.3273, 661.9186 210.8268, 661.9186 221.0771, 647.2851 221.0771" style="stroke: rgb(67%,84%,90%); stroke-linecap: round; stroke-width: 1; fill: rgb(67%,84%,90%); fill-rule: evenodd;"/>
			<polygon points="98.52872 487.5844, 87.26659 487.5844, 87.26659 497.8346, 70.86614 477.3341, 87.26659 456.8335, 87.26659 467.0838, 98.52872 467.0838" style="stroke: rgb(56%,93%,56%); stroke-linecap: round; stroke-width: 1; fill: rgb(56%,93%,56%); fill-rule: evenodd;"/>
			<polygon points="162.9307 487.5844, 112.768 487.5844, 112.768 497.8346, 96.36758 477.3341, 112.768 456.8335, 112.768 467.0838, 162.9307 467.0838" style="stroke: rgb(56%,93%,56%); stroke-linecap: round; stroke-width: 1; fill: rgb(56%,93%,56%); fill-rule: evenodd;"/>
			<polygon points="220.8492 487.5844, 175.6139 487.5844, 175.6139 497.8346, 159.2135 477.3341, 175.6139 456.8335, 175.6139 467.0838, 220.8492 467.0838" style="stroke: rgb(56%,93%,56%); stroke-linecap: round; stroke-width: 1; fill: rgb(56%,93%,56%); fill-rule: evenodd;"/>
			<polygon points="465.4901 487.5844, 233.0138 487.5844, 233.0138 497.8346, 216.6133 477.3341, 233.0138 456.8335, 233.0138 467.0838, 465.4901 467.0838" style="stroke: rgb(56%,93%,56%); stroke-linecap: round; stroke-width: 1; fill: rgb(56%,93%,56%); fill-rule: evenodd;"/>
			<polygon points="489.1762 487.5844, 487.7688 487.5844, 487.7688 497.8346, 471.3684 477.3341, 487.7688 456.8335, 487.7688 467.0838, 489.1762 467.0838" style="stroke: rgb(56%,93%,56%); stroke-linecap: round; stroke-width: 1; fill: rgb(56%,93%,56%); fill-rule: evenodd;"/>
			<polygon points="546.3167 487.5844, 500.8221 487.5844, 500.8221 497.8346, 484.4217 477.3341, 500.8221 456.8335, 500.8221 467.0838, 546.3167 467.0838" style="stroke: rgb(56%,93%,56%); stroke-linecap: round; stroke-width: 1; fill: rgb(56%,93%,56%); fill-rule: evenodd;"/>
			<polygon points="641.4068 487.5844, 567.9039 487.5844, 567.9039 497.8346, 551.5034 477.3341, 567.9039 456.8335, 567.9039 467.0838, 641.4068 467.0838" style="stroke: rgb(56%,93%,56%); stroke-linecap: round; stroke-width: 1; fill: rgb(56%,93%,56%); fill-rule: evenodd;"/>
			<polygon points="702.2644 487.5844, 659.6226 487.5844, 659.6226 497.8346, 643.2221 477.3341, 659.6226 456.8335, 659.6226 467.0838, 702.2644 467.0838" style="stroke: rgb(56%,93%,56%); stroke-linecap: round; stroke-width: 1; fill: rgb(56%,93%,56%); fill-rule: evenodd;"/>
			<polygon points="732.7797 487.5844, 726.445 487.5844, 726.445 497.8346, 710.0445 477.3341, 726.445 456.8335, 726.445 467.0838, 732.7797 467.0838" style="stroke: rgb(56%,93%,56%); stroke-linecap: round; stroke-width: 1; fill: rgb(56%,93%,56%); fill-rule: evenodd;"/>
			<polygon points="829.8581 487.5844, 754.7991 487.5844, 754.7991 497.8346, 738.3987 477.3341, 754.7991 456.8335, 754.7991 467.0838, 829.8581 467.0838" style="stroke: rgb(56%,93%,56%); stroke-linecap: round; stroke-width: 1; fill: rgb(56%,93%,56%); fill-rule: evenodd;"/>
			<polygon points="881.1203 487.5844, 865.7088 487.5844, 865.7088 497.8346, 849.3083 477.3341, 865.7088 456.8335, 865.7088 467.0838, 881.1203 467.0838" style="stroke: rgb(56%,93%,56%); stroke-linecap: round; stroke-width: 1; fill: rgb(56%,93%,56%); fill-rule: evenodd;"/>
			<polygon points="931.518 487.5844, 903.9177 487.5844, 903.9177 497.8346, 887.5173 477.3341, 903.9177 456.8335, 903.9177 467.0838, 931.518 467.0838" style="stroke: rgb(56%,93%,56%); stroke-linecap: round; stroke-width: 1; fill: rgb(56%,93%,56%); fill-rule: evenodd;"/>
			<polygon points="1002.576 487.5844, 959.9344 487.5844, 959.9344 497.8346, 943.534 477.3341, 959.9344 456.8335, 959.9344 467.0838, 1002.576 467.0838" style="stroke: rgb(56%,93%,56%); stroke-linecap: round; stroke-width: 1; fill: rgb(56%,93%,56%); fill-rule: evenodd;"/>
			<polygon points="1044.675 487.5844, 1023.299 487.5844, 1023.299 497.8346, 1006.899 477.3341, 1023.299 456.8335, 1023.299 467.0838, 1044.675 467.0838" style="stroke: rgb(56%,93%,56%); stroke-linecap: round; stroke-width: 1; fill: rgb(56%,93%,56%); fill-rule: evenodd;"/>
			<polygon points="1095.678 487.5844, 1066.522 487.5844, 1066.522 497.8346, 1050.121 477.3341, 1066.522 456.8335, 1066.522 467.0838, 1095.678 467.0838" style="stroke: rgb(56%,93%,56%); stroke-linecap: round; stroke-width: 1; fill: rgb(56%,93%,56%); fill-rule: evenodd;"/>
			<polygon points="1129.219 487.5844, 1113.548 487.5844, 1113.548 497.8346, 1097.148 477.3341, 1113.548 456.8335, 1113.548 467.0838, 1129.219 467.0838" style="stroke: rgb(56%,93%,56%); stroke-linecap: round; stroke-width: 1; fill: rgb(56%,93%,56%); fill-rule: evenodd;"/>
			<polygon points="1208.835 487.5844, 1171.121 487.5844, 1171.121 497.8346, 1154.72 477.3341, 1171.121 456.8335, 1171.121 467.0838, 1208.835 467.0838" style="stroke: rgb(56%,93%,56%); stroke-linecap: round; stroke-width: 1; fill: rgb(56%,93%,56%); fill-rule: evenodd;"/>
			<polygon points="1287.241 487.5844, 1223.853 487.5844, 1223.853 497.8346, 1207.452 477.3341, 1223.853 456.8335, 1223.853 467.0838, 1287.241 467.0838" style="stroke: rgb(56%,93%,56%); stroke-linecap: round; stroke-width: 1; fill: rgb(56%,93%,56%); fill-rule: evenodd;"/>
			<path d="M 735.113756,169.825647 L 735.113756,251.827897 Z" style="stroke: rgb(0%,0%,0%); stroke-linecap: butt; stroke-width: 1;"/>
			<path d="M 70.866142,210.826772 L 735.113756,210.826772 Z" style="stroke: rgb(0%,0%,0%); stroke-linecap: butt; stroke-width: 1;"/>
			<path d="M 70.866142,169.825647 L 70.866142,251.827897 Z" style="stroke: rgb(0%,0%,0%); stroke-linecap: butt; stroke-width: 1;"/>
			<path d="M 1346.370247,456.833521 L 1346.370247,538.835771 Z" style="stroke: rgb(0%,0%,0%); stroke-linecap: butt; stroke-width: 1;"/>
			<path d="M 70.866142,497.834646 L 1346.370247,497.834646 Z" style="stroke: rgb(0%,0%,0%); stroke-linecap: butt; stroke-width: 1;"/>
			<path d="M 70.866142,456.833521 L 70.866142,538.835771 Z" style="stroke: rgb(0%,0%,0%); stroke-linecap: butt; stroke-width: 1;"/>
			<path d="M 935.321652,497.834646 L 935.321652,518.335208 Z" style="stroke: rgb(0%,0%,0%); stroke-linecap: butt; stroke-width: 1;"/>
			<path d="M 935.321652,497.834646 L 935.321652,510.134983 Z" style="stroke: rgb(0%,0%,0%); stroke-linecap: butt; stroke-width: 1;"/>
			<g transform=" matrix(0.707107,0.707107,-0.707107,0.707107,935.321652,518.335208)">
				<text style="font-family: Helvetica; font-size: 6px;fill: rgb(0%,0%,0%); stroke:none;" transform="translate(0,0) scale(1,-1)" x="0" y="0">10000</text>
			</g>
			<g transform=" matrix(0.707107,-0.707107,0.707107,0.707107,194.223943,169.825647)">
				<text style="font-family: Helvetica; font-size: 10px;fill: rgb(0%,0%,0%); stroke:none;" transform="translate(0,0) scale(1,-1)" x="0" y="0">Gene_02145</text>
			</g>
			<g transform=" matrix(0.707107,0.707107,-0.707107,0.707107,318.057195,251.827897)">
				<text style="font-family: Helvetica; font-size: 10px;fill: rgb(0%,0%,0%); stroke:none;" transform="translate(0,0) scale(1,-1)" x="0" y="0">Gene_02146</text>
			</g>
			<g transform=" matrix(0.707107,0.707107,-0.707107,0.707107,363.91656,251.827897)">
				<text style="font-family: Helvetica; font-size: 10px;fill: rgb(0%,0%,0%); stroke:none;" transform="translate(0,0) scale(1,-1)" x="0" y="0">Gene_02147</text>
			</g>
			<g transform=" matrix(0.707107,0.707107,-0.707107,0.707107,394.561508,251.827897)">
				<text style="font-family: Helvetica; font-size: 10px;fill: rgb(0%,0%,0%); stroke:none;" transform="translate(0,0) scale(1,-1)" x="0" y="0">Gene_02148</text>
			</g>
			<g transform=" matrix(0.707107,0.707107,-0.707107,0.707107,439.988645,251.827897)">
				<text style="font-family: Helvetica; font-size: 10px;fill: rgb(0%,0%,0%); stroke:none;" transform="translate(0,0) scale(1,-1)" x="0" y="0">Gene_02149</text>
			</g>
			<g transform=" matrix(0.707107,0.707107,-0.707107,0.707107,483.21142,251.827897)">
				<text style="font-family: Helvetica; font-size: 10px;fill: rgb(0%,0%,0%); stroke:none;" transform="translate(0,0) scale(1,-1)" x="0" y="0">Gene_02150</text>
			</g>
			<g transform=" matrix(0.707107,0.707107,-0.707107,0.707107,536.93733,251.827897)">
				<text style="font-family: Helvetica; font-size: 16px;fill: rgb(0%,0%,100%); stroke:none;" transform="translate(0,0) scale(1,-1)" x="0" y="0">Gene_02151 (85.8)</text>
			</g>
			<g transform=" matrix(0.707107,0.707107,-0.707107,0.707107,611.410172,251.827897)">
				<text style="font-family: Helvetica; font-size: 10px;fill: rgb(0%,0%,0%); stroke:none;" transform="translate(0,0) scale(1,-1)" x="0" y="0">Gene_02152</text>
			</g>
			<g transform=" matrix(0.707107,0.707107,-0.707107,0.707107,662.802052,251.827897)">
				<text style="font-family: Helvetica; font-size: 10px;fill: rgb(0%,0%,0%); stroke:none;" transform="translate(0,0) scale(1,-1)" x="0" y="0">Gene_02153</text>
			</g>
			<g transform=" matrix(0.707107,-0.707107,0.707107,0.707107,84.69743,456.833521)">
				<text style="font-family: Helvetica; font-size: 10px;fill: rgb(0%,0%,0%); stroke:none;" transform="translate(0,0) scale(1,-1)" x="0" y="0">Gene_00103</text>
			</g>
			<g transform=" matrix(0.707107,-0.707107,0.707107,0.707107,129.649116,456.833521)">
				<text style="font-family: Helvetica; font-size: 10px;fill: rgb(0%,0%,0%); stroke:none;" transform="translate(0,0) scale(1,-1)" x="0" y="0">Gene_00104</text>
			</g>
			<g transform=" matrix(0.707107,-0.707107,0.707107,0.707107,190.031334,456.833521)">
				<text style="font-family: Helvetica; font-size: 10px;fill: rgb(0%,0%,0%); stroke:none;" transform="translate(0,0) scale(1,-1)" x="0" y="0">Gene_00105</text>
			</g>
			<g transform=" matrix(0.707107,-0.707107,0.707107,0.707107,341.051712,456.833521)">
				<text style="font-family: Helvetica; font-size: 10px;fill: rgb(0%,0%,0%); stroke:none;" transform="translate(0,0) scale(1,-1)" x="0" y="0">Gene_00106</text>
			</g>
			<g transform=" matrix(0.707107,-0.707107,0.707107,0.707107,480.272271,456.833521)">
				<text style="font-family: Helvetica; font-size: 10px;fill: rgb(0%,0%,0%); stroke:none;" transform="translate(0,0) scale(1,-1)" x="0" y="0">Gene_00107</text>
			</g>
			<g transform=" matrix(0.707107,-0.707107,0.707107,0.707107,515.369165,456.833521)">
				<text style="font-family: Helvetica; font-size: 10px;fill: rgb(0%,0%,0%); stroke:none;" transform="translate(0,0) scale(1,-1)" x="0" y="0">Gene_00108</text>
			</g>
			<g transform=" matrix(0.707107,-0.707107,0.707107,0.707107,596.455092,456.833521)">
				<text style="font-family: Helvetica; font-size: 10px;fill: rgb(0%,0%,0%); stroke:none;" transform="translate(0,0) scale(1,-1)" x="0" y="0">Gene_00109</text>
			</g>
			<g transform=" matrix(0.707107,-0.707107,0.707107,0.707107,672.743291,456.833521)">
				<text style="font-family: Helvetica; font-size: 10px;fill: rgb(0%,0%,0%); stroke:none;" transform="translate(0,0) scale(1,-1)" x="0" y="0">Gene_00110</text>
			</g>
			<g transform=" matrix(0.707107,-0.707107,0.707107,0.707107,721.412136,456.833521)">
				<text style="font-family: Helvetica; font-size: 10px;fill: rgb(0%,0%,0%); stroke:none;" transform="translate(0,0) scale(1,-1)" x="0" y="0">Gene_00111</text>
			</g>
			<g transform=" matrix(0.707107,-0.707107,0.707107,0.707107,784.128383,456.833521)">
				<text style="font-family: Helvetica; font-size: 10px;fill: rgb(0%,0%,0%); stroke:none;" transform="translate(0,0) scale(1,-1)" x="0" y="0">Gene_00112</text>
			</g>
			<g transform=" matrix(0.707107,-0.707107,0.707107,0.707107,865.21431,456.833521)">
				<text style="font-family: Helvetica; font-size: 10px;fill: rgb(0%,0%,0%); stroke:none;" transform="translate(0,0) scale(1,-1)" x="0" y="0">Gene_00113</text>
			</g>
			<g transform=" matrix(0.707107,-0.707107,0.707107,0.707107,909.517655,456.833521)">
				<text style="font-family: Helvetica; font-size: 10px;fill: rgb(0%,0%,0%); stroke:none;" transform="translate(0,0) scale(1,-1)" x="0" y="0">Gene_00114</text>
			</g>
			<g transform=" matrix(0.707107,-0.707107,0.707107,0.707107,973.055135,456.833521)">
				<text style="font-family: Helvetica; font-size: 16px;fill: rgb(0%,0%,100%); stroke:none;" transform="translate(0,0) scale(1,-1)" x="0" y="0">Gene_00115 (85.8)</text>
			</g>
			<g transform=" matrix(0.707107,-0.707107,0.707107,0.707107,1025.786921,456.833521)">
				<text style="font-family: Helvetica; font-size: 10px;fill: rgb(0%,0%,0%); stroke:none;" transform="translate(0,0) scale(1,-1)" x="0" y="0">Gene_00116</text>
			</g>
			<g transform=" matrix(0.707107,-0.707107,0.707107,0.707107,1072.899747,456.833521)">
				<text style="font-family: Helvetica; font-size: 10px;fill: rgb(0%,0%,0%); stroke:none;" transform="translate(0,0) scale(1,-1)" x="0" y="0">Gene_00117</text>
			</g>
			<g transform=" matrix(0.707107,-0.707107,0.707107,0.707107,1113.183373,456.833521)">
				<text style="font-family: Helvetica; font-size: 10px;fill: rgb(0%,0%,0%); stroke:none;" transform="translate(0,0) scale(1,-1)" x="0" y="0">Gene_00118</text>
			</g>
			<g transform=" matrix(0.707107,-0.707107,0.707107,0.707107,1181.777918,456.833521)">
				<text style="font-family: Helvetica; font-size: 10px;fill: rgb(0%,0%,0%); stroke:none;" transform="translate(0,0) scale(1,-1)" x="0" y="0">Gene_00119</text>
			</g>
			<g transform=" matrix(0.707107,-0.707107,0.707107,0.707107,1247.346869,456.833521)">
				<text style="font-family: Helvetica; font-size: 10px;fill: rgb(0%,0%,0%); stroke:none;" transform="translate(0,0) scale(1,-1)" x="0" y="0">Gene_00120</text>
			</g>
			<g transform=" matrix(1,0,-0,1,70,169.825647)">
				<text style="font-family: Helvetica; font-size: 12px;fill: rgb(60%,60%,60%); stroke:none;" transform="translate(0,0) scale(1,-1)" x="0" y="0">megahit_152971 (left 5050bp, right 1951bp)</text>
			</g>
			<g transform=" matrix(1,0,-0,1,70,456.833521)">
				<text style="font-family: Helvetica; font-size: 12px;fill: rgb(60%,60%,60%); stroke:none;" transform="translate(0,0) scale(1,-1)" x="0" y="0">megahit_8302 (left 17382bp, right 3977bp)</text>
			</g>
		</g>
	</g>
</svg>
