<?xml version="1.0" encoding="utf-8"?>
<!DOCTYPE svg
  PUBLIC '-//W3C//DTD SVG 1.0//EN'
  'http://www.w3.org/TR/2001/REC-SVG-20010904/DTD/svg10.dtd'>
<svg fill-rule="evenodd" height="708.6614173228346" preserveAspectRatio="xMinYMin meet" version="1.0" viewBox="0 0 1417 708" width="1417.3228346456692" xmlns="http://www.w3.org/2000/svg" xmlns:xlink="http://www.w3.org/1999/xlink">
	<title>...</title>
	<desc>...</desc>
	<clipPath id="clip">
		<rect height="708.6614173228346" width="1417.3228346456692" x="0" y="0"/>
	</clipPath>
	<g id="group" style="clip-path: url(#clip)" transform="scale(1,-1) translate(0,-708)">
		<g transform="">
			<polygon points="70.86614 169.8256, 1346.29 169.8256, 1346.29 251.8279, 70.86614 251.8279" style="stroke: rgb(96%,96%,96%); stroke-linecap: butt; stroke-width: 1; fill: rgb(96%,96%,96%); fill-rule: evenodd;"/>
			<polygon points="70.86614 456.8335, 397.4586 456.8335, 397.4586 538.8358, 70.86614 538.8358" style="stroke: rgb(96%,96%,96%); stroke-linecap: butt; stroke-width: 1; fill: rgb(96%,96%,96%); fill-rule: evenodd;"/>
			<polygon points="142.7398 456.8335, 293.9739 456.8335, 1192.561 251.8279, 1343.795 251.8279" style="stroke: rgb(100%,41%,41%); stroke-linecap: round; stroke-width: 1; fill: rgb(100%,41%,41%); fill-rule: evenodd;"/>
			<polygon points="73.02901 241.5776, 151.7946 241.5776, 151.7946 251.8279, 168.195 231.3273, 151.7946 210.8268, 151.7946 221.0771, 73.02901 221.0771" style="stroke: rgb(67%,84%,90%); stroke-linecap: round; stroke-width: 1; fill: rgb(67%,84%,90%); fill-rule: evenodd;"/>
			<polygon points="361.8545 200.5765, 213.2118 200.5765, 213.2118 210.8268, 196.8114 190.3262, 213.2118 169.8256, 213.2118 180.0759, 361.8545 180.0759" style="stroke: rgb(56%,93%,56%); stroke-linecap: round; stroke-width: 1; fill: rgb(56%,93%,56%); fill-rule: evenodd;"/>
			<polygon points="598.4385 200.5765, 388.9029 200.5765, 388.9029 210.8268, 372.5025 190.3262, 388.9029 169.8256, 388.9029 180.0759, 598.4385 180.0759" style="stroke: rgb(56%,93%,56%); stroke-linecap: round; stroke-width: 1; fill: rgb(56%,93%,56%); fill-rule: evenodd;"/>
			<polygon points="763.3153 200.5765, 615.1717 200.5765, 615.1717 210.8268, 598.7713 190.3262, 615.1717 169.8256, 615.1717 180.0759, 763.3153 180.0759" style="stroke: rgb(56%,93%,56%); stroke-linecap: round; stroke-width: 1; fill: rgb(56%,93%,56%); fill-rule: evenodd;"/>
			<polygon points="824.0419 200.5765, 795.6877 200.5765, 795.6877 210.8268, 779.2872 190.3262, 795.6877 169.8256, 795.6877 180.0759, 824.0419 180.0759" style="stroke: rgb(56%,93%,56%); stroke-linecap: round; stroke-width: 1; fill: rgb(56%,93%,56%); fill-rule: evenodd;"/>
			<polygon points="885.4339 241.5776, 950.7232 241.5776, 950.7232 251.8279, 967.1236 231.3273, 950.7232 210.8268, 950.7232 221.0771, 885.4339 221.0771" style="stroke: rgb(67%,84%,90%); stroke-linecap: round; stroke-width: 1; fill: rgb(67%,84%,90%); fill-rule: evenodd;"/>
			<polygon points="1001.729 241.5776, 1189.304 241.5776, 1189.304 251.8279, 1205.704 231.3273, 1189.304 210.8268, 1189.304 221.0771, 1001.729 221.0771" style="stroke: rgb(67%,84%,90%); stroke-linecap: round; stroke-width: 1; fill: rgb(67%,84%,90%); fill-rule: evenodd;"/>
			<polygon points="1205.704 241.5776, 1291.457 241.5776, 1291.457 251.8279, 1307.858 231.3273, 1291.457 210.8268, 1291.457 221.0771, 1205.704 221.0771" style="stroke: rgb(67%,84%,90%); stroke-linecap: round; stroke-width: 1; fill: rgb(67%,84%,90%); fill-rule: evenodd;"/>
			<polygon points="180.3403 487.5844, 94.58705 487.5844, 94.58705 497.8346, 78.1866 477.3341, 94.58705 456.8335, 94.58705 467.0838, 180.3403 467.0838" style="stroke: rgb(56%,93%,56%); stroke-linecap: round; stroke-width: 1; fill: rgb(56%,93%,56%); fill-rule: evenodd;"/>
			<polygon points="280.8303 487.5844, 195.077 487.5844, 195.077 497.8346, 178.6766 477.3341, 195.077 456.8335, 195.077 467.0838, 280.8303 467.0838" style="stroke: rgb(56%,93%,56%); stroke-linecap: round; stroke-width: 1; fill: rgb(56%,93%,56%); fill-rule: evenodd;"/>
			<polygon points="371.5042 487.5844, 297.2308 487.5844, 297.2308 497.8346, 280.8303 477.3341, 297.2308 456.8335, 297.2308 467.0838, 371.5042 467.0838" style="stroke: rgb(56%,93%,56%); stroke-linecap: round; stroke-width: 1; fill: rgb(56%,93%,56%); fill-rule: evenodd;"/>
			<path d="M 1346.290319,169.825647 L 1346.290319,251.827897 Z" style="stroke: rgb(0%,0%,0%); stroke-linecap: butt; stroke-width: 1;"/>
			<path d="M 70.866142,210.826772 L 1346.290319,210.826772 Z" style="stroke: rgb(0%,0%,0%); stroke-linecap: butt; stroke-width: 1;"/>
			<path d="M 70.866142,169.825647 L 70.866142,251.827897 Z" style="stroke: rgb(0%,0%,0%); stroke-linecap: butt; stroke-width: 1;"/>
			<path d="M 397.458584,456.833521 L 397.458584,538.835771 Z" style="stroke: rgb(0%,0%,0%); stroke-linecap: butt; stroke-width: 1;"/>
			<path d="M 70.866142,497.834646 L 397.458584,497.834646 Z" style="stroke: rgb(0%,0%,0%); stroke-linecap: butt; stroke-width: 1;"/>
			<path d="M 70.866142,456.833521 L 70.866142,538.835771 Z" style="stroke: rgb(0%,0%,0%); stroke-linecap: butt; stroke-width: 1;"/>
			<g transform=" matrix(0.707107,0.707107,-0.707107,0.707107,120.61201,251.827897)">
				<text style="font-family: Helvetica; font-size: 10px;fill: rgb(0%,0%,0%); stroke:none;" transform="translate(0,0) scale(1,-1)" x="0" y="0">Gene_00224</text>
			</g>
			<g transform=" matrix(0.707107,-0.707107,0.707107,0.707107,279.332942,169.825647)">
				<text style="font-family: Helvetica; font-size: 10px;fill: rgb(0%,0%,0%); stroke:none;" transform="translate(0,0) scale(1,-1)" x="0" y="0">Gene_00225</text>
			</g>
			<g transform=" matrix(0.707107,-0.707107,0.707107,0.707107,485.470505,169.825647)">
				<text style="font-family: Helvetica; font-size: 10px;fill: rgb(0%,0%,0%); stroke:none;" transform="translate(0,0) scale(1,-1)" x="0" y="0">Gene_00226</text>
			</g>
			<g transform=" matrix(0.707107,-0.707107,0.707107,0.707107,681.04331,169.825647)">
				<text style="font-family: Helvetica; font-size: 10px;fill: rgb(0%,0%,0%); stroke:none;" transform="translate(0,0) scale(1,-1)" x="0" y="0">Gene_00227</text>
			</g>
			<g transform=" matrix(0.707107,-0.707107,0.707107,0.707107,801.664563,169.825647)">
				<text style="font-family: Helvetica; font-size: 10px;fill: rgb(0%,0%,0%); stroke:none;" transform="translate(0,0) scale(1,-1)" x="0" y="0">Gene_00228</text>
			</g>
			<g transform=" matrix(0.707107,0.707107,-0.707107,0.707107,926.278796,251.827897)">
				<text style="font-family: Helvetica; font-size: 10px;fill: rgb(0%,0%,0%); stroke:none;" transform="translate(0,0) scale(1,-1)" x="0" y="0">Gene_00229</text>
			</g>
			<g transform=" matrix(0.707107,0.707107,-0.707107,0.707107,1103.716819,251.827897)">
				<text style="font-family: Helvetica; font-size: 10px;fill: rgb(0%,0%,0%); stroke:none;" transform="translate(0,0) scale(1,-1)" x="0" y="0">Gene_00230</text>
			</g>
			<g transform=" matrix(0.707107,0.707107,-0.707107,0.707107,1256.78103,251.827897)">
				<text style="font-family: Helvetica; font-size: 16px;fill: rgb(0%,0%,100%); stroke:none;" transform="translate(0,0) scale(1,-1)" x="0" y="0">Gene_00231 (83.1)</text>
			</g>
			<g transform=" matrix(0.707107,-0.707107,0.707107,0.707107,129.263466,456.833521)">
				<text style="font-family: Helvetica; font-size: 10px;fill: rgb(0%,0%,0%); stroke:none;" transform="translate(0,0) scale(1,-1)" x="0" y="0">Gene_01768</text>
			</g>
			<g transform=" matrix(0.707107,-0.707107,0.707107,0.707107,229.753448,456.833521)">
				<text style="font-family: Helvetica; font-size: 16px;fill: rgb(0%,0%,100%); stroke:none;" transform="translate(0,0) scale(1,-1)" x="0" y="0">Gene_01769 (83.1)</text>
			</g>
			<g transform=" matrix(0.707107,-0.707107,0.707107,0.707107,326.167264,456.833521)">
				<text style="font-family: Helvetica; font-size: 10px;fill: rgb(0%,0%,0%); stroke:none;" transform="translate(0,0) scale(1,-1)" x="0" y="0">Gene_01770</text>
			</g>
			<g transform=" matrix(1,0,-0,1,70,169.825647)">
				<text style="font-family: Helvetica; font-size: 12px;fill: rgb(60%,60%,60%); stroke:none;" transform="translate(0,0) scale(1,-1)" x="0" y="0">megahit_9353 (left 6821bp, right 231bp)</text>
			</g>
			<g transform=" matrix(1,0,-0,1,70,456.833521)">
				<text style="font-family: Helvetica; font-size: 12px;fill: rgb(60%,60%,60%); stroke:none;" transform="translate(0,0) scale(1,-1)" x="0" y="0">megahit_119861 (left 648bp, right 701bp)</text>
			</g>
		</g>
	</g>
</svg>
