<?xml version="1.0" encoding="utf-8"?>
<!DOCTYPE svg
  PUBLIC '-//W3C//DTD SVG 1.0//EN'
  'http://www.w3.org/TR/2001/REC-SVG-20010904/DTD/svg10.dtd'>
<svg fill-rule="evenodd" height="708.6614173228346" preserveAspectRatio="xMinYMin meet" version="1.0" viewBox="0 0 1417 708" width="1417.3228346456692" xmlns="http://www.w3.org/2000/svg" xmlns:xlink="http://www.w3.org/1999/xlink">
	<title>...</title>
	<desc>...</desc>
	<clipPath id="clip">
		<rect height="708.6614173228346" width="1417.3228346456692" x="0" y="0"/>
	</clipPath>
	<g id="group" style="clip-path: url(#clip)" transform="scale(1,-1) translate(0,-708)">
		<g transform="">
			<polygon points="70.86614 169.8256, 781.6397 169.8256, 781.6397 251.8279, 70.86614 251.8279" style="stroke: rgb(96%,96%,96%); stroke-linecap: butt; stroke-width: 1; fill: rgb(96%,96%,96%); fill-rule: evenodd;"/>
			<polygon points="70.86614 456.8335, 1346.397 456.8335, 1346.397 538.8358, 70.86614 538.8358" style="stroke: rgb(96%,96%,96%); stroke-linecap: butt; stroke-width: 1; fill: rgb(96%,96%,96%); fill-rule: evenodd;"/>
			<polygon points="679.7612 456.8335, 753.8385 456.8335, 105.5583 251.8279, 179.5168 251.8279" style="stroke: rgb(100%,38%,38%); stroke-linecap: round; stroke-width: 1; fill: rgb(100%,38%,38%); fill-rule: evenodd;"/>
			<polygon points="107.1028 241.5776, 163.8886 241.5776, 163.8886 251.8279, 180.289 231.3273, 163.8886 210.8268, 163.8886 221.0771, 107.1028 221.0771" style="stroke: rgb(67%,84%,90%); stroke-linecap: round; stroke-width: 1; fill: rgb(67%,84%,90%); fill-rule: evenodd;"/>
			<polygon points="280.6825 200.5765, 212.8475 200.5765, 212.8475 210.8268, 196.447 190.3262, 212.8475 169.8256, 212.8475 180.0759, 280.6825 180.0759" style="stroke: rgb(56%,93%,56%); stroke-linecap: round; stroke-width: 1; fill: rgb(56%,93%,56%); fill-rule: evenodd;"/>
			<polygon points="403.8278 200.5765, 298.568 200.5765, 298.568 210.8268, 282.1676 190.3262, 298.568 169.8256, 298.568 180.0759, 403.8278 180.0759" style="stroke: rgb(56%,93%,56%); stroke-linecap: round; stroke-width: 1; fill: rgb(56%,93%,56%); fill-rule: evenodd;"/>
			<polygon points="482.301 200.5765, 422.6638 200.5765, 422.6638 210.8268, 406.2633 190.3262, 422.6638 169.8256, 422.6638 180.0759, 482.301 180.0759" style="stroke: rgb(56%,93%,56%); stroke-linecap: round; stroke-width: 1; fill: rgb(56%,93%,56%); fill-rule: evenodd;"/>
			<polygon points="503.6866 241.5776, 528.3939 241.5776, 528.3939 251.8279, 544.7944 231.3273, 528.3939 210.8268, 528.3939 221.0771, 503.6866 221.0771" style="stroke: rgb(67%,84%,90%); stroke-linecap: round; stroke-width: 1; fill: rgb(67%,84%,90%); fill-rule: evenodd;"/>
			<polygon points="609.0105 200.5765, 565.2343 200.5765, 565.2343 210.8268, 548.8339 190.3262, 565.2343 169.8256, 565.2343 180.0759, 609.0105 180.0759" style="stroke: rgb(56%,93%,56%); stroke-linecap: round; stroke-width: 1; fill: rgb(56%,93%,56%); fill-rule: evenodd;"/>
			<polygon points="671.801 200.5765, 635.3315 200.5765, 635.3315 210.8268, 618.9311 190.3262, 635.3315 169.8256, 635.3315 180.0759, 671.801 180.0759" style="stroke: rgb(56%,93%,56%); stroke-linecap: round; stroke-width: 1; fill: rgb(56%,93%,56%); fill-rule: evenodd;"/>
			<polygon points="735.0073 200.5765, 693.726 200.5765, 693.726 210.8268, 677.3256 190.3262, 693.726 169.8256, 693.726 180.0759, 735.0073 180.0759" style="stroke: rgb(56%,93%,56%); stroke-linecap: round; stroke-width: 1; fill: rgb(56%,93%,56%); fill-rule: evenodd;"/>
			<polygon points="738.5715 241.5776, 765.2393 241.5776, 765.2393 251.8279, 781.6397 231.3273, 765.2393 210.8268, 765.2393 221.0771, 738.5715 221.0771" style="stroke: rgb(67%,84%,90%); stroke-linecap: round; stroke-width: 1; fill: rgb(67%,84%,90%); fill-rule: evenodd;"/>
			<polygon points="70.86614 528.5855, 129.434 528.5855, 129.434 538.8358, 145.8345 518.3352, 129.434 497.8346, 129.434 508.0849, 70.86614 508.0849" style="stroke: rgb(67%,84%,90%); stroke-linecap: round; stroke-width: 1; fill: rgb(67%,84%,90%); fill-rule: evenodd;"/>
			<polygon points="150.5868 528.5855, 208.4419 528.5855, 208.4419 538.8358, 224.8423 518.3352, 208.4419 497.8346, 208.4419 508.0849, 150.5868 508.0849" style="stroke: rgb(67%,84%,90%); stroke-linecap: round; stroke-width: 1; fill: rgb(67%,84%,90%); fill-rule: evenodd;"/>
			<polygon points="237.6143 528.5855, 284.7765 528.5855, 284.7765 538.8358, 301.177 518.3352, 284.7765 497.8346, 284.7765 508.0849, 237.6143 508.0849" style="stroke: rgb(67%,84%,90%); stroke-linecap: round; stroke-width: 1; fill: rgb(67%,84%,90%); fill-rule: evenodd;"/>
			<polygon points="301.177 528.5855, 474.8706 528.5855, 474.8706 538.8358, 491.271 518.3352, 474.8706 497.8346, 474.8706 508.0849, 301.177 508.0849" style="stroke: rgb(67%,84%,90%); stroke-linecap: round; stroke-width: 1; fill: rgb(67%,84%,90%); fill-rule: evenodd;"/>
			<polygon points="508.1419 528.5855, 551.027 528.5855, 551.027 538.8358, 567.4275 518.3352, 551.027 497.8346, 551.027 508.0849, 508.1419 508.0849" style="stroke: rgb(67%,84%,90%); stroke-linecap: round; stroke-width: 1; fill: rgb(67%,84%,90%); fill-rule: evenodd;"/>
			<polygon points="568.675 528.5855, 607.9958 528.5855, 607.9958 538.8358, 624.3963 518.3352, 607.9958 497.8346, 607.9958 508.0849, 568.675 508.0849" style="stroke: rgb(67%,84%,90%); stroke-linecap: round; stroke-width: 1; fill: rgb(67%,84%,90%); fill-rule: evenodd;"/>
			<polygon points="624.6339 528.5855, 655.9352 528.5855, 655.9352 538.8358, 672.3356 518.3352, 655.9352 497.8346, 655.9352 508.0849, 624.6339 508.0849" style="stroke: rgb(67%,84%,90%); stroke-linecap: round; stroke-width: 1; fill: rgb(67%,84%,90%); fill-rule: evenodd;"/>
			<polygon points="752.3533 487.5844, 695.5676 487.5844, 695.5676 497.8346, 679.1671 477.3341, 695.5676 456.8335, 695.5676 467.0838, 752.3533 467.0838" style="stroke: rgb(56%,93%,56%); stroke-linecap: round; stroke-width: 1; fill: rgb(56%,93%,56%); fill-rule: evenodd;"/>
			<polygon points="786.9861 528.5855, 798.8622 528.5855, 798.8622 538.8358, 815.2626 518.3352, 798.8622 497.8346, 798.8622 508.0849, 786.9861 508.0849" style="stroke: rgb(67%,84%,90%); stroke-linecap: round; stroke-width: 1; fill: rgb(67%,84%,90%); fill-rule: evenodd;"/>
			<polygon points="817.5794 528.5855, 850.4846 528.5855, 850.4846 538.8358, 866.885 518.3352, 850.4846 497.8346, 850.4846 508.0849, 817.5794 508.0849" style="stroke: rgb(67%,84%,90%); stroke-linecap: round; stroke-width: 1; fill: rgb(67%,84%,90%); fill-rule: evenodd;"/>
			<polygon points="866.291 528.5855, 904.5426 528.5855, 904.5426 538.8358, 920.943 518.3352, 904.5426 497.8346, 904.5426 508.0849, 866.291 508.0849" style="stroke: rgb(67%,84%,90%); stroke-linecap: round; stroke-width: 1; fill: rgb(67%,84%,90%); fill-rule: evenodd;"/>
			<polygon points="927.1805 528.5855, 949.3929 528.5855, 949.3929 538.8358, 965.7933 518.3352, 949.3929 497.8346, 949.3929 508.0849, 927.1805 508.0849" style="stroke: rgb(67%,84%,90%); stroke-linecap: round; stroke-width: 1; fill: rgb(67%,84%,90%); fill-rule: evenodd;"/>
			<polygon points="969.5358 528.5855, 978.5604 528.5855, 978.5604 538.8358, 994.9609 518.3352, 978.5604 497.8346, 978.5604 508.0849, 969.5358 508.0849" style="stroke: rgb(67%,84%,90%); stroke-linecap: round; stroke-width: 1; fill: rgb(67%,84%,90%); fill-rule: evenodd;"/>
			<polygon points="1004.822 528.5855, 1056.618 528.5855, 1056.618 538.8358, 1073.018 518.3352, 1056.618 497.8346, 1056.618 508.0849, 1004.822 508.0849" style="stroke: rgb(67%,84%,90%); stroke-linecap: round; stroke-width: 1; fill: rgb(67%,84%,90%); fill-rule: evenodd;"/>
			<polygon points="1077.295 528.5855, 1077.588 528.5855, 1077.588 538.8358, 1093.988 518.3352, 1077.588 497.8346, 1077.588 508.0849, 1077.295 508.0849" style="stroke: rgb(67%,84%,90%); stroke-linecap: round; stroke-width: 1; fill: rgb(67%,84%,90%); fill-rule: evenodd;"/>
			<polygon points="1167.946 487.5844, 1114.369 487.5844, 1114.369 497.8346, 1097.968 477.3341, 1114.369 456.8335, 1114.369 467.0838, 1167.946 467.0838" style="stroke: rgb(56%,93%,56%); stroke-linecap: round; stroke-width: 1; fill: rgb(56%,93%,56%); fill-rule: evenodd;"/>
			<polygon points="1176.382 528.5855, 1227.999 528.5855, 1227.999 538.8358, 1244.4 518.3352, 1227.999 497.8346, 1227.999 508.0849, 1176.382 508.0849" style="stroke: rgb(67%,84%,90%); stroke-linecap: round; stroke-width: 1; fill: rgb(67%,84%,90%); fill-rule: evenodd;"/>
			<polygon points="1247.964 528.5855, 1262.87 528.5855, 1262.87 538.8358, 1279.27 518.3352, 1262.87 497.8346, 1262.87 508.0849, 1247.964 508.0849" style="stroke: rgb(67%,84%,90%); stroke-linecap: round; stroke-width: 1; fill: rgb(67%,84%,90%); fill-rule: evenodd;"/>
			<polygon points="1334.219 487.5844, 1300.067 487.5844, 1300.067 497.8346, 1283.666 477.3341, 1300.067 456.8335, 1300.067 467.0838, 1334.219 467.0838" style="stroke: rgb(56%,93%,56%); stroke-linecap: round; stroke-width: 1; fill: rgb(56%,93%,56%); fill-rule: evenodd;"/>
			<path d="M 781.639715,169.825647 L 781.639715,251.827897 Z" style="stroke: rgb(0%,0%,0%); stroke-linecap: butt; stroke-width: 1;"/>
			<path d="M 70.866142,210.826772 L 781.639715,210.826772 Z" style="stroke: rgb(0%,0%,0%); stroke-linecap: butt; stroke-width: 1;"/>
			<path d="M 70.866142,169.825647 L 70.866142,251.827897 Z" style="stroke: rgb(0%,0%,0%); stroke-linecap: butt; stroke-width: 1;"/>
			<path d="M 664.910081,210.826772 L 664.910081,231.327334 Z" style="stroke: rgb(0%,0%,0%); stroke-linecap: butt; stroke-width: 1;"/>
			<path d="M 664.910081,210.826772 L 664.910081,223.127109 Z" style="stroke: rgb(0%,0%,0%); stroke-linecap: butt; stroke-width: 1;"/>
			<path d="M 1346.397289,456.833521 L 1346.397289,538.835771 Z" style="stroke: rgb(0%,0%,0%); stroke-linecap: butt; stroke-width: 1;"/>
			<path d="M 70.866142,497.834646 L 1346.397289,497.834646 Z" style="stroke: rgb(0%,0%,0%); stroke-linecap: butt; stroke-width: 1;"/>
			<path d="M 70.866142,456.833521 L 70.866142,538.835771 Z" style="stroke: rgb(0%,0%,0%); stroke-linecap: butt; stroke-width: 1;"/>
			<path d="M 664.910081,497.834646 L 664.910081,518.335208 Z" style="stroke: rgb(0%,0%,0%); stroke-linecap: butt; stroke-width: 1;"/>
			<path d="M 1258.954021,497.834646 L 1258.954021,518.335208 Z" style="stroke: rgb(0%,0%,0%); stroke-linecap: butt; stroke-width: 1;"/>
			<path d="M 664.910081,497.834646 L 664.910081,510.134983 Z" style="stroke: rgb(0%,0%,0%); stroke-linecap: butt; stroke-width: 1;"/>
			<path d="M 1258.954021,497.834646 L 1258.954021,510.134983 Z" style="stroke: rgb(0%,0%,0%); stroke-linecap: butt; stroke-width: 1;"/>
			<g transform=" matrix(0.707107,0.707107,-0.707107,0.707107,664.910081,231.327334)">
				<text style="font-family: Helvetica; font-size: 6px;fill: rgb(0%,0%,0%); stroke:none;" transform="translate(0,0) scale(1,-1)" x="0" y="0">10000</text>
			</g>
			<g transform=" matrix(0.707107,0.707107,-0.707107,0.707107,664.910081,518.335208)">
				<text style="font-family: Helvetica; font-size: 6px;fill: rgb(0%,0%,0%); stroke:none;" transform="translate(0,0) scale(1,-1)" x="0" y="0">10000</text>
			</g>
			<g transform=" matrix(0.707107,0.707107,-0.707107,0.707107,1258.954021,518.335208)">
				<text style="font-family: Helvetica; font-size: 6px;fill: rgb(0%,0%,0%); stroke:none;" transform="translate(0,0) scale(1,-1)" x="0" y="0">20000</text>
			</g>
			<g transform=" matrix(0.707107,0.707107,-0.707107,0.707107,143.695929,251.827897)">
				<text style="font-family: Helvetica; font-size: 16px;fill: rgb(0%,0%,100%); stroke:none;" transform="translate(0,0) scale(1,-1)" x="0" y="0">Gene_01023 (80.9)</text>
			</g>
			<g transform=" matrix(0.707107,-0.707107,0.707107,0.707107,238.564746,169.825647)">
				<text style="font-family: Helvetica; font-size: 10px;fill: rgb(0%,0%,0%); stroke:none;" transform="translate(0,0) scale(1,-1)" x="0" y="0">Gene_01024</text>
			</g>
			<g transform=" matrix(0.707107,-0.707107,0.707107,0.707107,342.99767,169.825647)">
				<text style="font-family: Helvetica; font-size: 10px;fill: rgb(0%,0%,0%); stroke:none;" transform="translate(0,0) scale(1,-1)" x="0" y="0">Gene_01025</text>
			</g>
			<g transform=" matrix(0.707107,-0.707107,0.707107,0.707107,444.282162,169.825647)">
				<text style="font-family: Helvetica; font-size: 10px;fill: rgb(0%,0%,0%); stroke:none;" transform="translate(0,0) scale(1,-1)" x="0" y="0">Gene_01026</text>
			</g>
			<g transform=" matrix(0.707107,0.707107,-0.707107,0.707107,524.240476,251.827897)">
				<text style="font-family: Helvetica; font-size: 10px;fill: rgb(0%,0%,0%); stroke:none;" transform="translate(0,0) scale(1,-1)" x="0" y="0">Gene_01027</text>
			</g>
			<g transform=" matrix(0.707107,-0.707107,0.707107,0.707107,578.922221,169.825647)">
				<text style="font-family: Helvetica; font-size: 10px;fill: rgb(0%,0%,0%); stroke:none;" transform="translate(0,0) scale(1,-1)" x="0" y="0">Gene_01028</text>
			</g>
			<g transform=" matrix(0.707107,-0.707107,0.707107,0.707107,645.366036,169.825647)">
				<text style="font-family: Helvetica; font-size: 10px;fill: rgb(0%,0%,0%); stroke:none;" transform="translate(0,0) scale(1,-1)" x="0" y="0">Gene_01029</text>
			</g>
			<g transform=" matrix(0.707107,-0.707107,0.707107,0.707107,706.166433,169.825647)">
				<text style="font-family: Helvetica; font-size: 10px;fill: rgb(0%,0%,0%); stroke:none;" transform="translate(0,0) scale(1,-1)" x="0" y="0">Gene_01030</text>
			</g>
			<g transform=" matrix(0.707107,0.707107,-0.707107,0.707107,760.105622,251.827897)">
				<text style="font-family: Helvetica; font-size: 10px;fill: rgb(0%,0%,0%); stroke:none;" transform="translate(0,0) scale(1,-1)" x="0" y="0">Gene_01031</text>
			</g>
			<g transform=" matrix(0.707107,0.707107,-0.707107,0.707107,108.350314,538.835771)">
				<text style="font-family: Helvetica; font-size: 10px;fill: rgb(0%,0%,0%); stroke:none;" transform="translate(0,0) scale(1,-1)" x="0" y="0">Gene_00599</text>
			</g>
			<g transform=" matrix(0.707107,0.707107,-0.707107,0.707107,187.714585,538.835771)">
				<text style="font-family: Helvetica; font-size: 10px;fill: rgb(0%,0%,0%); stroke:none;" transform="translate(0,0) scale(1,-1)" x="0" y="0">Gene_00600</text>
			</g>
			<g transform=" matrix(0.707107,0.707107,-0.707107,0.707107,269.395626,538.835771)">
				<text style="font-family: Helvetica; font-size: 10px;fill: rgb(0%,0%,0%); stroke:none;" transform="translate(0,0) scale(1,-1)" x="0" y="0">Gene_00601</text>
			</g>
			<g transform=" matrix(0.707107,0.707107,-0.707107,0.707107,396.224007,538.835771)">
				<text style="font-family: Helvetica; font-size: 10px;fill: rgb(0%,0%,0%); stroke:none;" transform="translate(0,0) scale(1,-1)" x="0" y="0">Gene_00602</text>
			</g>
			<g transform=" matrix(0.707107,0.707107,-0.707107,0.707107,537.784678,538.835771)">
				<text style="font-family: Helvetica; font-size: 10px;fill: rgb(0%,0%,0%); stroke:none;" transform="translate(0,0) scale(1,-1)" x="0" y="0">Gene_00603</text>
			</g>
			<g transform=" matrix(0.707107,0.707107,-0.707107,0.707107,596.535624,538.835771)">
				<text style="font-family: Helvetica; font-size: 10px;fill: rgb(0%,0%,0%); stroke:none;" transform="translate(0,0) scale(1,-1)" x="0" y="0">Gene_00604</text>
			</g>
			<g transform=" matrix(0.707107,0.707107,-0.707107,0.707107,648.484766,538.835771)">
				<text style="font-family: Helvetica; font-size: 10px;fill: rgb(0%,0%,0%); stroke:none;" transform="translate(0,0) scale(1,-1)" x="0" y="0">Gene_00605</text>
			</g>
			<g transform=" matrix(0.707107,-0.707107,0.707107,0.707107,715.760242,456.833521)">
				<text style="font-family: Helvetica; font-size: 16px;fill: rgb(0%,0%,100%); stroke:none;" transform="translate(0,0) scale(1,-1)" x="0" y="0">Gene_00606 (80.9)</text>
			</g>
			<g transform=" matrix(0.707107,0.707107,-0.707107,0.707107,801.124356,538.835771)">
				<text style="font-family: Helvetica; font-size: 10px;fill: rgb(0%,0%,0%); stroke:none;" transform="translate(0,0) scale(1,-1)" x="0" y="0">Gene_00607</text>
			</g>
			<g transform=" matrix(0.707107,0.707107,-0.707107,0.707107,842.232197,538.835771)">
				<text style="font-family: Helvetica; font-size: 10px;fill: rgb(0%,0%,0%); stroke:none;" transform="translate(0,0) scale(1,-1)" x="0" y="0">Gene_00608</text>
			</g>
			<g transform=" matrix(0.707107,0.707107,-0.707107,0.707107,893.616998,538.835771)">
				<text style="font-family: Helvetica; font-size: 10px;fill: rgb(0%,0%,0%); stroke:none;" transform="translate(0,0) scale(1,-1)" x="0" y="0">Gene_00609</text>
			</g>
			<g transform=" matrix(0.707107,0.707107,-0.707107,0.707107,946.486908,538.835771)">
				<text style="font-family: Helvetica; font-size: 10px;fill: rgb(0%,0%,0%); stroke:none;" transform="translate(0,0) scale(1,-1)" x="0" y="0">Gene_00610</text>
			</g>
			<g transform=" matrix(0.707107,0.707107,-0.707107,0.707107,982.248354,538.835771)">
				<text style="font-family: Helvetica; font-size: 10px;fill: rgb(0%,0%,0%); stroke:none;" transform="translate(0,0) scale(1,-1)" x="0" y="0">Gene_00611</text>
			</g>
			<g transform=" matrix(0.707107,0.707107,-0.707107,0.707107,1038.920145,538.835771)">
				<text style="font-family: Helvetica; font-size: 10px;fill: rgb(0%,0%,0%); stroke:none;" transform="translate(0,0) scale(1,-1)" x="0" y="0">Gene_00612</text>
			</g>
			<g transform=" matrix(0.707107,0.707107,-0.707107,0.707107,1085.641701,538.835771)">
				<text style="font-family: Helvetica; font-size: 10px;fill: rgb(0%,0%,0%); stroke:none;" transform="translate(0,0) scale(1,-1)" x="0" y="0">Gene_00613</text>
			</g>
			<g transform=" matrix(0.707107,-0.707107,0.707107,0.707107,1132.957301,456.833521)">
				<text style="font-family: Helvetica; font-size: 10px;fill: rgb(0%,0%,0%); stroke:none;" transform="translate(0,0) scale(1,-1)" x="0" y="0">Gene_00614</text>
			</g>
			<g transform=" matrix(0.707107,0.707107,-0.707107,0.707107,1210.390929,538.835771)">
				<text style="font-family: Helvetica; font-size: 10px;fill: rgb(0%,0%,0%); stroke:none;" transform="translate(0,0) scale(1,-1)" x="0" y="0">Gene_00615</text>
			</g>
			<g transform=" matrix(0.707107,0.707107,-0.707107,0.707107,1263.617266,538.835771)">
				<text style="font-family: Helvetica; font-size: 10px;fill: rgb(0%,0%,0%); stroke:none;" transform="translate(0,0) scale(1,-1)" x="0" y="0">Gene_00616</text>
			</g>
			<g transform=" matrix(0.707107,-0.707107,0.707107,0.707107,1308.942818,456.833521)">
				<text style="font-family: Helvetica; font-size: 10px;fill: rgb(0%,0%,0%); stroke:none;" transform="translate(0,0) scale(1,-1)" x="0" y="0">Gene_00617</text>
			</g>
			<g transform=" matrix(1,0,-0,1,70,169.825647)">
				<text style="font-family: Helvetica; font-size: 12px;fill: rgb(60%,60%,60%); stroke:none;" transform="translate(0,0) scale(1,-1)" x="0" y="0">megahit_43230 (left 610bp, right 24539bp)</text>
			</g>
			<g transform=" matrix(1,0,-0,1,70,456.833521)">
				<text style="font-family: Helvetica; font-size: 12px;fill: rgb(60%,60%,60%); stroke:none;" transform="translate(0,0) scale(1,-1)" x="0" y="0">megahit_28792 (left 47531bp, right 31972bp)</text>
			</g>
		</g>
	</g>
</svg>
