<?xml version="1.0" encoding="utf-8"?>
<!DOCTYPE svg
  PUBLIC '-//W3C//DTD SVG 1.0//EN'
  'http://www.w3.org/TR/2001/REC-SVG-20010904/DTD/svg10.dtd'>
<svg fill-rule="evenodd" height="708.6614173228346" preserveAspectRatio="xMinYMin meet" version="1.0" viewBox="0 0 1417 708" width="1417.3228346456692" xmlns="http://www.w3.org/2000/svg" xmlns:xlink="http://www.w3.org/1999/xlink">
	<title>...</title>
	<desc>...</desc>
	<clipPath id="clip">
		<rect height="708.6614173228346" width="1417.3228346456692" x="0" y="0"/>
	</clipPath>
	<g id="group" style="clip-path: url(#clip)" transform="scale(1,-1) translate(0,-708)">
		<g transform="">
			<polygon points="70.86614 169.8256, 1346.404 169.8256, 1346.404 251.8279, 70.86614 251.8279" style="stroke: rgb(96%,96%,96%); stroke-linecap: butt; stroke-width: 1; fill: rgb(96%,96%,96%); fill-rule: evenodd;"/>
			<polygon points="70.86614 456.8335, 260.8421 456.8335, 260.8421 538.8358, 70.86614 538.8358" style="stroke: rgb(96%,96%,96%); stroke-linecap: butt; stroke-width: 1; fill: rgb(96%,96%,96%); fill-rule: evenodd;"/>
			<polygon points="71.71615 456.8335, 171.2729 456.8335, 626.5563 251.8279, 726.1131 251.8279" style="stroke: rgb(100%,51%,51%); stroke-linecap: round; stroke-width: 1; fill: rgb(100%,51%,51%); fill-rule: evenodd;"/>
			<polygon points="172.5479 456.8335, 183.7042 456.8335, 607.9094 251.8279, 619.0657 251.8279" style="stroke: rgb(100%,35%,35%); stroke-linecap: round; stroke-width: 1; fill: rgb(100%,35%,35%); fill-rule: evenodd;"/>
			<polygon points="200.2261 456.8335, 214.9418 456.8335, 580.9217 251.8279, 595.6374 251.8279" style="stroke: rgb(100%,46%,46%); stroke-linecap: round; stroke-width: 1; fill: rgb(100%,46%,46%); fill-rule: evenodd;"/>
			<polygon points="84.99746 200.5765, 84.99746 210.8268, 70.86614 190.3262, 84.99746 169.8256, 84.99746 180.0759" style="stroke: rgb(56%,93%,56%); stroke-linecap: round; stroke-width: 1; fill: rgb(56%,93%,56%); fill-rule: evenodd;"/>
			<polygon points="94.82563 241.5776, 113.2754 241.5776, 113.2754 251.8279, 129.6758 231.3273, 113.2754 210.8268, 113.2754 221.0771, 94.82563 221.0771" style="stroke: rgb(67%,84%,90%); stroke-linecap: round; stroke-width: 1; fill: rgb(67%,84%,90%); fill-rule: evenodd;"/>
			<polygon points="129.8883 241.5776, 129.8883 251.8279, 144.0196 231.3273, 129.8883 210.8268, 129.8883 221.0771" style="stroke: rgb(67%,84%,90%); stroke-linecap: round; stroke-width: 1; fill: rgb(67%,84%,90%); fill-rule: evenodd;"/>
			<polygon points="144.604 241.5776, 202.8977 241.5776, 202.8977 251.8279, 219.2981 231.3273, 202.8977 210.8268, 202.8977 221.0771, 144.604 221.0771" style="stroke: rgb(67%,84%,90%); stroke-linecap: round; stroke-width: 1; fill: rgb(67%,84%,90%); fill-rule: evenodd;"/>
			<polygon points="219.4575 241.5776, 234.5603 241.5776, 234.5603 251.8279, 250.9608 231.3273, 234.5603 210.8268, 234.5603 221.0771, 219.4575 221.0771" style="stroke: rgb(67%,84%,90%); stroke-linecap: round; stroke-width: 1; fill: rgb(67%,84%,90%); fill-rule: evenodd;"/>
			<polygon points="251.1201 241.5776, 297.62 241.5776, 297.62 251.8279, 314.0204 231.3273, 297.62 210.8268, 297.62 221.0771, 251.1201 221.0771" style="stroke: rgb(67%,84%,90%); stroke-linecap: round; stroke-width: 1; fill: rgb(67%,84%,90%); fill-rule: evenodd;"/>
			<polygon points="315.2955 241.5776, 371.836 241.5776, 371.836 251.8279, 388.2364 231.3273, 371.836 210.8268, 371.836 221.0771, 315.2955 221.0771" style="stroke: rgb(67%,84%,90%); stroke-linecap: round; stroke-width: 1; fill: rgb(67%,84%,90%); fill-rule: evenodd;"/>
			<polygon points="394.3458 241.5776, 443.0769 241.5776, 443.0769 251.8279, 459.4774 231.3273, 443.0769 210.8268, 443.0769 221.0771, 394.3458 221.0771" style="stroke: rgb(67%,84%,90%); stroke-linecap: round; stroke-width: 1; fill: rgb(67%,84%,90%); fill-rule: evenodd;"/>
			<polygon points="466.5431 241.5776, 559.8994 241.5776, 559.8994 251.8279, 576.2998 231.3273, 559.8994 210.8268, 559.8994 221.0771, 466.5431 221.0771" style="stroke: rgb(67%,84%,90%); stroke-linecap: round; stroke-width: 1; fill: rgb(67%,84%,90%); fill-rule: evenodd;"/>
			<polygon points="598.2937 200.5765, 595.6222 200.5765, 595.6222 210.8268, 579.2217 190.3262, 595.6222 169.8256, 595.6222 180.0759, 598.2937 180.0759" style="stroke: rgb(56%,93%,56%); stroke-linecap: round; stroke-width: 1; fill: rgb(56%,93%,56%); fill-rule: evenodd;"/>
			<polygon points="607.9094 241.5776, 607.9094 251.8279, 619.4907 231.3273, 607.9094 210.8268, 607.9094 221.0771" style="stroke: rgb(67%,84%,90%); stroke-linecap: round; stroke-width: 1; fill: rgb(67%,84%,90%); fill-rule: evenodd;"/>
			<polygon points="626.5563 241.5776, 710.1907 241.5776, 710.1907 251.8279, 726.5912 231.3273, 710.1907 210.8268, 710.1907 221.0771, 626.5563 221.0771" style="stroke: rgb(67%,84%,90%); stroke-linecap: round; stroke-width: 1; fill: rgb(67%,84%,90%); fill-rule: evenodd;"/>
			<polygon points="735.9944 241.5776, 757.9503 241.5776, 757.9503 251.8279, 774.3508 231.3273, 757.9503 210.8268, 757.9503 221.0771, 735.9944 221.0771" style="stroke: rgb(67%,84%,90%); stroke-linecap: round; stroke-width: 1; fill: rgb(67%,84%,90%); fill-rule: evenodd;"/>
			<polygon points="774.1914 241.5776, 840.4539 241.5776, 840.4539 251.8279, 856.8543 231.3273, 840.4539 210.8268, 840.4539 221.0771, 774.1914 221.0771" style="stroke: rgb(67%,84%,90%); stroke-linecap: round; stroke-width: 1; fill: rgb(67%,84%,90%); fill-rule: evenodd;"/>
			<polygon points="854.8887 241.5776, 912.7042 241.5776, 912.7042 251.8279, 929.1047 231.3273, 912.7042 210.8268, 912.7042 221.0771, 854.8887 221.0771" style="stroke: rgb(67%,84%,90%); stroke-linecap: round; stroke-width: 1; fill: rgb(67%,84%,90%); fill-rule: evenodd;"/>
			<polygon points="1001.727 200.5765, 950.127 200.5765, 950.127 210.8268, 933.7266 190.3262, 950.127 169.8256, 950.127 180.0759, 1001.727 180.0759" style="stroke: rgb(56%,93%,56%); stroke-linecap: round; stroke-width: 1; fill: rgb(56%,93%,56%); fill-rule: evenodd;"/>
			<polygon points="1022.339 200.5765, 1018.393 200.5765, 1018.393 210.8268, 1001.993 190.3262, 1018.393 169.8256, 1018.393 180.0759, 1022.339 180.0759" style="stroke: rgb(56%,93%,56%); stroke-linecap: round; stroke-width: 1; fill: rgb(56%,93%,56%); fill-rule: evenodd;"/>
			<polygon points="1030.627 241.5776, 1097.368 241.5776, 1097.368 251.8279, 1113.768 231.3273, 1097.368 210.8268, 1097.368 221.0771, 1030.627 221.0771" style="stroke: rgb(67%,84%,90%); stroke-linecap: round; stroke-width: 1; fill: rgb(67%,84%,90%); fill-rule: evenodd;"/>
			<polygon points="1113.609 241.5776, 1160.427 241.5776, 1160.427 251.8279, 1176.828 231.3273, 1160.427 210.8268, 1160.427 221.0771, 1113.609 221.0771" style="stroke: rgb(67%,84%,90%); stroke-linecap: round; stroke-width: 1; fill: rgb(67%,84%,90%); fill-rule: evenodd;"/>
			<polygon points="1176.668 241.5776, 1208.187 241.5776, 1208.187 251.8279, 1224.587 231.3273, 1208.187 210.8268, 1208.187 221.0771, 1176.668 221.0771" style="stroke: rgb(67%,84%,90%); stroke-linecap: round; stroke-width: 1; fill: rgb(67%,84%,90%); fill-rule: evenodd;"/>
			<polygon points="1223.1 241.5776, 1330.003 241.5776, 1330.003 251.8279, 1346.404 231.3273, 1330.003 210.8268, 1330.003 221.0771, 1223.1 221.0771" style="stroke: rgb(67%,84%,90%); stroke-linecap: round; stroke-width: 1; fill: rgb(67%,84%,90%); fill-rule: evenodd;"/>
			<polygon points="170.1572 487.5844, 87.63847 487.5844, 87.63847 497.8346, 71.23802 477.3341, 87.63847 456.8335, 87.63847 467.0838, 170.1572 467.0838" style="stroke: rgb(56%,93%,56%); stroke-linecap: round; stroke-width: 1; fill: rgb(56%,93%,56%); fill-rule: evenodd;"/>
			<polygon points="184.9792 487.5844, 184.9792 497.8346, 172.1229 477.3341, 184.9792 456.8335, 184.9792 467.0838" style="stroke: rgb(56%,93%,56%); stroke-linecap: round; stroke-width: 1; fill: rgb(56%,93%,56%); fill-rule: evenodd;"/>
			<polygon points="200.1199 528.5855, 201.0383 528.5855, 201.0383 538.8358, 217.4387 518.3352, 201.0383 497.8346, 201.0383 508.0849, 200.1199 508.0849" style="stroke: rgb(67%,84%,90%); stroke-linecap: round; stroke-width: 1; fill: rgb(67%,84%,90%); fill-rule: evenodd;"/>
			<path d="M 1346.403568,169.825647 L 1346.403568,251.827897 Z" style="stroke: rgb(0%,0%,0%); stroke-linecap: butt; stroke-width: 1;"/>
			<path d="M 70.866142,210.826772 L 1346.403568,210.826772 Z" style="stroke: rgb(0%,0%,0%); stroke-linecap: butt; stroke-width: 1;"/>
			<path d="M 70.866142,169.825647 L 70.866142,251.827897 Z" style="stroke: rgb(0%,0%,0%); stroke-linecap: butt; stroke-width: 1;"/>
			<path d="M 602.118714,210.826772 L 602.118714,231.327334 Z" style="stroke: rgb(0%,0%,0%); stroke-linecap: butt; stroke-width: 1;"/>
			<path d="M 1133.371286,210.826772 L 1133.371286,231.327334 Z" style="stroke: rgb(0%,0%,0%); stroke-linecap: butt; stroke-width: 1;"/>
			<path d="M 602.118714,210.826772 L 602.118714,223.127109 Z" style="stroke: rgb(0%,0%,0%); stroke-linecap: butt; stroke-width: 1;"/>
			<path d="M 1133.371286,210.826772 L 1133.371286,223.127109 Z" style="stroke: rgb(0%,0%,0%); stroke-linecap: butt; stroke-width: 1;"/>
			<path d="M 260.842062,456.833521 L 260.842062,538.835771 Z" style="stroke: rgb(0%,0%,0%); stroke-linecap: butt; stroke-width: 1;"/>
			<path d="M 70.866142,497.834646 L 260.842062,497.834646 Z" style="stroke: rgb(0%,0%,0%); stroke-linecap: butt; stroke-width: 1;"/>
			<path d="M 70.866142,456.833521 L 70.866142,538.835771 Z" style="stroke: rgb(0%,0%,0%); stroke-linecap: butt; stroke-width: 1;"/>
			<g transform=" matrix(0.707107,0.707107,-0.707107,0.707107,602.118714,231.327334)">
				<text style="font-family: Helvetica; font-size: 6px;fill: rgb(0%,0%,0%); stroke:none;" transform="translate(0,0) scale(1,-1)" x="0" y="0">10000</text>
			</g>
			<g transform=" matrix(0.707107,0.707107,-0.707107,0.707107,1133.371286,231.327334)">
				<text style="font-family: Helvetica; font-size: 6px;fill: rgb(0%,0%,0%); stroke:none;" transform="translate(0,0) scale(1,-1)" x="0" y="0">20000</text>
			</g>
			<g transform=" matrix(0.707107,-0.707107,0.707107,0.707107,77.931801,169.825647)">
				<text style="font-family: Helvetica; font-size: 10px;fill: rgb(0%,0%,0%); stroke:none;" transform="translate(0,0) scale(1,-1)" x="0" y="0">Gene_01198</text>
			</g>
			<g transform=" matrix(0.707107,0.707107,-0.707107,0.707107,112.250717,251.827897)">
				<text style="font-family: Helvetica; font-size: 10px;fill: rgb(0%,0%,0%); stroke:none;" transform="translate(0,0) scale(1,-1)" x="0" y="0">Gene_01199</text>
			</g>
			<g transform=" matrix(0.707107,0.707107,-0.707107,0.707107,136.953962,251.827897)">
				<text style="font-family: Helvetica; font-size: 10px;fill: rgb(0%,0%,0%); stroke:none;" transform="translate(0,0) scale(1,-1)" x="0" y="0">Gene_01200</text>
			</g>
			<g transform=" matrix(0.707107,0.707107,-0.707107,0.707107,181.951055,251.827897)">
				<text style="font-family: Helvetica; font-size: 10px;fill: rgb(0%,0%,0%); stroke:none;" transform="translate(0,0) scale(1,-1)" x="0" y="0">Gene_01201</text>
			</g>
			<g transform=" matrix(0.707107,0.707107,-0.707107,0.707107,235.209125,251.827897)">
				<text style="font-family: Helvetica; font-size: 10px;fill: rgb(0%,0%,0%); stroke:none;" transform="translate(0,0) scale(1,-1)" x="0" y="0">Gene_01202</text>
			</g>
			<g transform=" matrix(0.707107,0.707107,-0.707107,0.707107,282.570292,251.827897)">
				<text style="font-family: Helvetica; font-size: 10px;fill: rgb(0%,0%,0%); stroke:none;" transform="translate(0,0) scale(1,-1)" x="0" y="0">Gene_01203</text>
			</g>
			<g transform=" matrix(0.707107,0.707107,-0.707107,0.707107,351.765939,251.827897)">
				<text style="font-family: Helvetica; font-size: 10px;fill: rgb(0%,0%,0%); stroke:none;" transform="translate(0,0) scale(1,-1)" x="0" y="0">Gene_01204</text>
			</g>
			<g transform=" matrix(0.707107,0.707107,-0.707107,0.707107,426.911616,251.827897)">
				<text style="font-family: Helvetica; font-size: 10px;fill: rgb(0%,0%,0%); stroke:none;" transform="translate(0,0) scale(1,-1)" x="0" y="0">Gene_01205</text>
			</g>
			<g transform=" matrix(0.707107,0.707107,-0.707107,0.707107,521.421448,251.827897)">
				<text style="font-family: Helvetica; font-size: 10px;fill: rgb(0%,0%,0%); stroke:none;" transform="translate(0,0) scale(1,-1)" x="0" y="0">Gene_01206</text>
			</g>
			<g transform=" matrix(0.707107,-0.707107,0.707107,0.707107,588.757712,169.825647)">
				<text style="font-family: Helvetica; font-size: 10px;fill: rgb(0%,0%,0%); stroke:none;" transform="translate(0,0) scale(1,-1)" x="0" y="0">Gene_01207</text>
			</g>
			<g transform=" matrix(0.707107,0.707107,-0.707107,0.707107,613.70002,251.827897)">
				<text style="font-family: Helvetica; font-size: 16px;fill: rgb(0%,0%,100%); stroke:none;" transform="translate(0,0) scale(1,-1)" x="0" y="0">Gene_01208 (82.5)</text>
			</g>
			<g transform=" matrix(0.707107,0.707107,-0.707107,0.707107,676.573762,251.827897)">
				<text style="font-family: Helvetica; font-size: 10px;fill: rgb(0%,0%,0%); stroke:none;" transform="translate(0,0) scale(1,-1)" x="0" y="0">Gene_01209</text>
			</g>
			<g transform=" matrix(0.707107,0.707107,-0.707107,0.707107,755.17258,251.827897)">
				<text style="font-family: Helvetica; font-size: 10px;fill: rgb(0%,0%,0%); stroke:none;" transform="translate(0,0) scale(1,-1)" x="0" y="0">Gene_01210</text>
			</g>
			<g transform=" matrix(0.707107,0.707107,-0.707107,0.707107,815.522872,251.827897)">
				<text style="font-family: Helvetica; font-size: 10px;fill: rgb(0%,0%,0%); stroke:none;" transform="translate(0,0) scale(1,-1)" x="0" y="0">Gene_01211</text>
			</g>
			<g transform=" matrix(0.707107,0.707107,-0.707107,0.707107,891.99668,251.827897)">
				<text style="font-family: Helvetica; font-size: 10px;fill: rgb(0%,0%,0%); stroke:none;" transform="translate(0,0) scale(1,-1)" x="0" y="0">Gene_01212</text>
			</g>
			<g transform=" matrix(0.707107,-0.707107,0.707107,0.707107,967.726734,169.825647)">
				<text style="font-family: Helvetica; font-size: 10px;fill: rgb(0%,0%,0%); stroke:none;" transform="translate(0,0) scale(1,-1)" x="0" y="0">Gene_01213</text>
			</g>
			<g transform=" matrix(0.707107,-0.707107,0.707107,0.707107,1012.166012,169.825647)">
				<text style="font-family: Helvetica; font-size: 10px;fill: rgb(0%,0%,0%); stroke:none;" transform="translate(0,0) scale(1,-1)" x="0" y="0">Gene_01214</text>
			</g>
			<g transform=" matrix(0.707107,0.707107,-0.707107,0.707107,1072.197552,251.827897)">
				<text style="font-family: Helvetica; font-size: 10px;fill: rgb(0%,0%,0%); stroke:none;" transform="translate(0,0) scale(1,-1)" x="0" y="0">Gene_01215</text>
			</g>
			<g transform=" matrix(0.707107,0.707107,-0.707107,0.707107,1145.218219,251.827897)">
				<text style="font-family: Helvetica; font-size: 10px;fill: rgb(0%,0%,0%); stroke:none;" transform="translate(0,0) scale(1,-1)" x="0" y="0">Gene_01216</text>
			</g>
			<g transform=" matrix(0.707107,0.707107,-0.707107,0.707107,1200.627862,251.827897)">
				<text style="font-family: Helvetica; font-size: 10px;fill: rgb(0%,0%,0%); stroke:none;" transform="translate(0,0) scale(1,-1)" x="0" y="0">Gene_01217</text>
			</g>
			<g transform=" matrix(0.707107,0.707107,-0.707107,0.707107,1284.751707,251.827897)">
				<text style="font-family: Helvetica; font-size: 10px;fill: rgb(0%,0%,0%); stroke:none;" transform="translate(0,0) scale(1,-1)" x="0" y="0">Gene_01218</text>
			</g>
			<g transform=" matrix(0.707107,-0.707107,0.707107,0.707107,120.697633,456.833521)">
				<text style="font-family: Helvetica; font-size: 10px;fill: rgb(0%,0%,0%); stroke:none;" transform="translate(0,0) scale(1,-1)" x="0" y="0">Gene_03445</text>
			</g>
			<g transform=" matrix(0.707107,-0.707107,0.707107,0.707107,178.551038,456.833521)">
				<text style="font-family: Helvetica; font-size: 16px;fill: rgb(0%,0%,100%); stroke:none;" transform="translate(0,0) scale(1,-1)" x="0" y="0">Gene_03446 (82.5)</text>
			</g>
			<g transform=" matrix(0.707107,0.707107,-0.707107,0.707107,208.779309,538.835771)">
				<text style="font-family: Helvetica; font-size: 10px;fill: rgb(0%,0%,0%); stroke:none;" transform="translate(0,0) scale(1,-1)" x="0" y="0">Gene_03447</text>
			</g>
			<g transform=" matrix(1,0,-0,1,70,169.825647)">
				<text style="font-family: Helvetica; font-size: 12px;fill: rgb(60%,60%,60%); stroke:none;" transform="translate(0,0) scale(1,-1)" x="0" y="0">megahit_33777 (left 91988bp, right 45905bp)</text>
			</g>
		</g>
	</g>
</svg>
