<?xml version="1.0" encoding="utf-8"?>
<!DOCTYPE svg
  PUBLIC '-//W3C//DTD SVG 1.0//EN'
  'http://www.w3.org/TR/2001/REC-SVG-20010904/DTD/svg10.dtd'>
<svg fill-rule="evenodd" height="708.6614173228346" preserveAspectRatio="xMinYMin meet" version="1.0" viewBox="0 0 1417 708" width="1417.3228346456692" xmlns="http://www.w3.org/2000/svg" xmlns:xlink="http://www.w3.org/1999/xlink">
	<title>...</title>
	<desc>...</desc>
	<clipPath id="clip">
		<rect height="708.6614173228346" width="1417.3228346456692" x="0" y="0"/>
	</clipPath>
	<g id="group" style="clip-path: url(#clip)" transform="scale(1,-1) translate(0,-708)">
		<g transform="">
			<polygon points="70.86614 169.8256, 280.5194 169.8256, 280.5194 251.8279, 70.86614 251.8279" style="stroke: rgb(96%,96%,96%); stroke-linecap: butt; stroke-width: 1; fill: rgb(96%,96%,96%); fill-rule: evenodd;"/>
			<polygon points="70.86614 456.8335, 1346.384 456.8335, 1346.384 538.8358, 70.86614 538.8358" style="stroke: rgb(96%,96%,96%); stroke-linecap: butt; stroke-width: 1; fill: rgb(96%,96%,96%); fill-rule: evenodd;"/>
			<polygon points="762.3655 456.8335, 841.7036 456.8335, 215.6527 251.8279, 136.3146 251.8279" style="stroke: rgb(100%,37%,37%); stroke-linecap: round; stroke-width: 1; fill: rgb(100%,37%,37%); fill-rule: evenodd;"/>
			<polygon points="72.75688 241.5776, 72.75688 251.8279, 86.21017 231.3273, 72.75688 210.8268, 72.75688 221.0771" style="stroke: rgb(67%,84%,90%); stroke-linecap: round; stroke-width: 1; fill: rgb(67%,84%,90%); fill-rule: evenodd;"/>
			<polygon points="137.4781 241.5776, 199.9794 241.5776, 199.9794 251.8279, 216.3799 231.3273, 199.9794 210.8268, 199.9794 221.0771, 137.4781 221.0771" style="stroke: rgb(67%,84%,90%); stroke-linecap: round; stroke-width: 1; fill: rgb(67%,84%,90%); fill-rule: evenodd;"/>
			<polygon points="159.367 487.5844, 99.91996 487.5844, 99.91996 497.8346, 83.51951 477.3341, 99.91996 456.8335, 99.91996 467.0838, 159.367 467.0838" style="stroke: rgb(56%,93%,56%); stroke-linecap: round; stroke-width: 1; fill: rgb(56%,93%,56%); fill-rule: evenodd;"/>
			<polygon points="180.6014 528.5855, 224.3408 528.5855, 224.3408 538.8358, 240.7413 518.3352, 224.3408 497.8346, 224.3408 508.0849, 180.6014 508.0849" style="stroke: rgb(67%,84%,90%); stroke-linecap: round; stroke-width: 1; fill: rgb(67%,84%,90%); fill-rule: evenodd;"/>
			<polygon points="247.7952 528.5855, 247.7952 538.8358, 255.1399 518.3352, 247.7952 497.8346, 247.7952 508.0849" style="stroke: rgb(67%,84%,90%); stroke-linecap: round; stroke-width: 1; fill: rgb(67%,84%,90%); fill-rule: evenodd;"/>
			<polygon points="256.3035 528.5855, 302.4426 528.5855, 302.4426 538.8358, 318.8431 518.3352, 302.4426 497.8346, 302.4426 508.0849, 256.3035 508.0849" style="stroke: rgb(67%,84%,90%); stroke-linecap: round; stroke-width: 1; fill: rgb(67%,84%,90%); fill-rule: evenodd;"/>
			<polygon points="334.1144 528.5855, 369.3455 528.5855, 369.3455 538.8358, 385.746 518.3352, 369.3455 497.8346, 369.3455 508.0849, 334.1144 508.0849" style="stroke: rgb(67%,84%,90%); stroke-linecap: round; stroke-width: 1; fill: rgb(67%,84%,90%); fill-rule: evenodd;"/>
			<polygon points="384.5824 528.5855, 428.1037 528.5855, 428.1037 538.8358, 444.5041 518.3352, 428.1037 497.8346, 428.1037 508.0849, 384.5824 508.0849" style="stroke: rgb(67%,84%,90%); stroke-linecap: round; stroke-width: 1; fill: rgb(67%,84%,90%); fill-rule: evenodd;"/>
			<polygon points="446.2494 528.5855, 558.7097 528.5855, 558.7097 538.8358, 575.1102 518.3352, 558.7097 497.8346, 558.7097 508.0849, 446.2494 508.0849" style="stroke: rgb(67%,84%,90%); stroke-linecap: round; stroke-width: 1; fill: rgb(67%,84%,90%); fill-rule: evenodd;"/>
			<polygon points="581.5823 528.5855, 610.4867 528.5855, 610.4867 538.8358, 626.8872 518.3352, 610.4867 497.8346, 610.4867 508.0849, 581.5823 508.0849" style="stroke: rgb(67%,84%,90%); stroke-linecap: round; stroke-width: 1; fill: rgb(67%,84%,90%); fill-rule: evenodd;"/>
			<polygon points="633.7956 528.5855, 687.7887 528.5855, 687.7887 538.8358, 704.1891 518.3352, 687.7887 497.8346, 687.7887 508.0849, 633.7956 508.0849" style="stroke: rgb(67%,84%,90%); stroke-linecap: round; stroke-width: 1; fill: rgb(67%,84%,90%); fill-rule: evenodd;"/>
			<polygon points="709.6431 528.5855, 742.4745 528.5855, 742.4745 538.8358, 758.8749 518.3352, 742.4745 497.8346, 742.4745 508.0849, 709.6431 508.0849" style="stroke: rgb(67%,84%,90%); stroke-linecap: round; stroke-width: 1; fill: rgb(67%,84%,90%); fill-rule: evenodd;"/>
			<polygon points="763.529 528.5855, 826.2485 528.5855, 826.2485 538.8358, 842.649 518.3352, 826.2485 497.8346, 826.2485 508.0849, 763.529 508.0849" style="stroke: rgb(67%,84%,90%); stroke-linecap: round; stroke-width: 1; fill: rgb(67%,84%,90%); fill-rule: evenodd;"/>
			<polygon points="869.6283 528.5855, 1293.187 528.5855, 1293.187 538.8358, 1309.587 518.3352, 1293.187 497.8346, 1293.187 508.0849, 869.6283 508.0849" style="stroke: rgb(67%,84%,90%); stroke-linecap: round; stroke-width: 1; fill: rgb(67%,84%,90%); fill-rule: evenodd;"/>
			<path d="M 280.519386,169.825647 L 280.519386,251.827897 Z" style="stroke: rgb(0%,0%,0%); stroke-linecap: butt; stroke-width: 1;"/>
			<path d="M 70.866142,210.826772 L 280.519386,210.826772 Z" style="stroke: rgb(0%,0%,0%); stroke-linecap: butt; stroke-width: 1;"/>
			<path d="M 70.866142,169.825647 L 70.866142,251.827897 Z" style="stroke: rgb(0%,0%,0%); stroke-linecap: butt; stroke-width: 1;"/>
			<path d="M 1346.383972,456.833521 L 1346.383972,538.835771 Z" style="stroke: rgb(0%,0%,0%); stroke-linecap: butt; stroke-width: 1;"/>
			<path d="M 70.866142,497.834646 L 1346.383972,497.834646 Z" style="stroke: rgb(0%,0%,0%); stroke-linecap: butt; stroke-width: 1;"/>
			<path d="M 70.866142,456.833521 L 70.866142,538.835771 Z" style="stroke: rgb(0%,0%,0%); stroke-linecap: butt; stroke-width: 1;"/>
			<path d="M 798.07129,497.834646 L 798.07129,518.335208 Z" style="stroke: rgb(0%,0%,0%); stroke-linecap: butt; stroke-width: 1;"/>
			<path d="M 798.07129,497.834646 L 798.07129,510.134983 Z" style="stroke: rgb(0%,0%,0%); stroke-linecap: butt; stroke-width: 1;"/>
			<g transform=" matrix(0.707107,0.707107,-0.707107,0.707107,798.07129,518.335208)">
				<text style="font-family: Helvetica; font-size: 6px;fill: rgb(0%,0%,0%); stroke:none;" transform="translate(0,0) scale(1,-1)" x="0" y="0">10000</text>
			</g>
			<g transform=" matrix(0.707107,0.707107,-0.707107,0.707107,79.483523,251.827897)">
				<text style="font-family: Helvetica; font-size: 10px;fill: rgb(0%,0%,0%); stroke:none;" transform="translate(0,0) scale(1,-1)" x="0" y="0">Gene_01988</text>
			</g>
			<g transform=" matrix(0.707107,0.707107,-0.707107,0.707107,176.929013,251.827897)">
				<text style="font-family: Helvetica; font-size: 16px;fill: rgb(0%,0%,100%); stroke:none;" transform="translate(0,0) scale(1,-1)" x="0" y="0">Gene_01989 (81.7)</text>
			</g>
			<g transform=" matrix(0.707107,-0.707107,0.707107,0.707107,121.44326,456.833521)">
				<text style="font-family: Helvetica; font-size: 10px;fill: rgb(0%,0%,0%); stroke:none;" transform="translate(0,0) scale(1,-1)" x="0" y="0">Gene_01438</text>
			</g>
			<g transform=" matrix(0.707107,0.707107,-0.707107,0.707107,210.671332,538.835771)">
				<text style="font-family: Helvetica; font-size: 10px;fill: rgb(0%,0%,0%); stroke:none;" transform="translate(0,0) scale(1,-1)" x="0" y="0">Gene_01439</text>
			</g>
			<g transform=" matrix(0.707107,0.707107,-0.707107,0.707107,251.46754,538.835771)">
				<text style="font-family: Helvetica; font-size: 10px;fill: rgb(0%,0%,0%); stroke:none;" transform="translate(0,0) scale(1,-1)" x="0" y="0">Gene_01440</text>
			</g>
			<g transform=" matrix(0.707107,0.707107,-0.707107,0.707107,287.573276,538.835771)">
				<text style="font-family: Helvetica; font-size: 10px;fill: rgb(0%,0%,0%); stroke:none;" transform="translate(0,0) scale(1,-1)" x="0" y="0">Gene_01441</text>
			</g>
			<g transform=" matrix(0.707107,0.707107,-0.707107,0.707107,359.930188,538.835771)">
				<text style="font-family: Helvetica; font-size: 10px;fill: rgb(0%,0%,0%); stroke:none;" transform="translate(0,0) scale(1,-1)" x="0" y="0">Gene_01442</text>
			</g>
			<g transform=" matrix(0.707107,0.707107,-0.707107,0.707107,414.543295,538.835771)">
				<text style="font-family: Helvetica; font-size: 10px;fill: rgb(0%,0%,0%); stroke:none;" transform="translate(0,0) scale(1,-1)" x="0" y="0">Gene_01443</text>
			</g>
			<g transform=" matrix(0.707107,0.707107,-0.707107,0.707107,510.679816,538.835771)">
				<text style="font-family: Helvetica; font-size: 10px;fill: rgb(0%,0%,0%); stroke:none;" transform="translate(0,0) scale(1,-1)" x="0" y="0">Gene_01444</text>
			</g>
			<g transform=" matrix(0.707107,0.707107,-0.707107,0.707107,604.234758,538.835771)">
				<text style="font-family: Helvetica; font-size: 10px;fill: rgb(0%,0%,0%); stroke:none;" transform="translate(0,0) scale(1,-1)" x="0" y="0">Gene_01445</text>
			</g>
			<g transform=" matrix(0.707107,0.707107,-0.707107,0.707107,668.992376,538.835771)">
				<text style="font-family: Helvetica; font-size: 10px;fill: rgb(0%,0%,0%); stroke:none;" transform="translate(0,0) scale(1,-1)" x="0" y="0">Gene_01446</text>
			</g>
			<g transform=" matrix(0.707107,0.707107,-0.707107,0.707107,734.259039,538.835771)">
				<text style="font-family: Helvetica; font-size: 10px;fill: rgb(0%,0%,0%); stroke:none;" transform="translate(0,0) scale(1,-1)" x="0" y="0">Gene_01447</text>
			</g>
			<g transform=" matrix(0.707107,0.707107,-0.707107,0.707107,803.089006,538.835771)">
				<text style="font-family: Helvetica; font-size: 16px;fill: rgb(0%,0%,100%); stroke:none;" transform="translate(0,0) scale(1,-1)" x="0" y="0">Gene_01448 (81.7)</text>
			</g>
			<g transform=" matrix(0.707107,0.707107,-0.707107,0.707107,1089.607834,538.835771)">
				<text style="font-family: Helvetica; font-size: 10px;fill: rgb(0%,0%,0%); stroke:none;" transform="translate(0,0) scale(1,-1)" x="0" y="0">Gene_01449</text>
			</g>
			<g transform=" matrix(1,0,-0,1,70,456.833521)">
				<text style="font-family: Helvetica; font-size: 12px;fill: rgb(60%,60%,60%); stroke:none;" transform="translate(0,0) scale(1,-1)" x="0" y="0">megahit_110728 (left 9525bp, right 6927bp)</text>
			</g>
		</g>
	</g>
</svg>
