<?xml version="1.0" encoding="utf-8"?>
<!DOCTYPE svg
  PUBLIC '-//W3C//DTD SVG 1.0//EN'
  'http://www.w3.org/TR/2001/REC-SVG-20010904/DTD/svg10.dtd'>
<svg fill-rule="evenodd" height="708.6614173228346" preserveAspectRatio="xMinYMin meet" version="1.0" viewBox="0 0 1417 708" width="1417.3228346456692" xmlns="http://www.w3.org/2000/svg" xmlns:xlink="http://www.w3.org/1999/xlink">
	<title>...</title>
	<desc>...</desc>
	<clipPath id="clip">
		<rect height="708.6614173228346" width="1417.3228346456692" x="0" y="0"/>
	</clipPath>
	<g id="group" style="clip-path: url(#clip)" transform="scale(1,-1) translate(0,-708)">
		<g transform="">
			<polygon points="70.86614 169.8256, 469.6379 169.8256, 469.6379 251.8279, 70.86614 251.8279" style="stroke: rgb(96%,96%,96%); stroke-linecap: butt; stroke-width: 1; fill: rgb(96%,96%,96%); fill-rule: evenodd;"/>
			<polygon points="70.86614 456.8335, 1346.398 456.8335, 1346.398 538.8358, 70.86614 538.8358" style="stroke: rgb(96%,96%,96%); stroke-linecap: butt; stroke-width: 1; fill: rgb(96%,96%,96%); fill-rule: evenodd;"/>
			<polygon points="690.5806 456.8335, 844.2239 456.8335, 294.613 251.8279, 143.7153 251.8279" style="stroke: rgb(100%,54%,54%); stroke-linecap: round; stroke-width: 1; fill: rgb(100%,54%,54%); fill-rule: evenodd;"/>
			<polygon points="961.8809 456.8335, 1038.995 456.8335, 469.6379 251.8279, 392.933 251.8279" style="stroke: rgb(100%,49%,49%); stroke-linecap: round; stroke-width: 1; fill: rgb(100%,49%,49%); fill-rule: evenodd;"/>
			<polygon points="885.176 456.8335, 953.3516 456.8335, 392.1152 251.8279, 323.9396 251.8279" style="stroke: rgb(100%,53%,53%); stroke-linecap: round; stroke-width: 1; fill: rgb(100%,53%,53%); fill-rule: evenodd;"/>
			<polygon points="73.67028 241.5776, 84.72701 241.5776, 84.72701 251.8279, 101.1275 231.3273, 84.72701 210.8268, 84.72701 221.0771, 73.67028 221.0771" style="stroke: rgb(67%,84%,90%); stroke-linecap: round; stroke-width: 1; fill: rgb(67%,84%,90%); fill-rule: evenodd;"/>
			<polygon points="207.0421 200.5765, 159.5316 200.5765, 159.5316 210.8268, 143.1311 190.3262, 159.5316 169.8256, 159.5316 180.0759, 207.0421 180.0759" style="stroke: rgb(56%,93%,56%); stroke-linecap: round; stroke-width: 1; fill: rgb(56%,93%,56%); fill-rule: evenodd;"/>
			<polygon points="303.9017 200.5765, 225.7209 200.5765, 225.7209 210.8268, 209.3204 190.3262, 225.7209 169.8256, 225.7209 180.0759, 303.9017 180.0759" style="stroke: rgb(56%,93%,56%); stroke-linecap: round; stroke-width: 1; fill: rgb(56%,93%,56%); fill-rule: evenodd;"/>
			<polygon points="320.4344 241.5776, 377.4089 241.5776, 377.4089 251.8279, 393.8093 231.3273, 377.4089 210.8268, 377.4089 221.0771, 320.4344 221.0771" style="stroke: rgb(67%,84%,90%); stroke-linecap: round; stroke-width: 1; fill: rgb(67%,84%,90%); fill-rule: evenodd;"/>
			<polygon points="454.0399 200.5765, 440.7048 200.5765, 440.7048 210.8268, 424.3043 190.3262, 440.7048 169.8256, 440.7048 180.0759, 454.0399 180.0759" style="stroke: rgb(56%,93%,56%); stroke-linecap: round; stroke-width: 1; fill: rgb(56%,93%,56%); fill-rule: evenodd;"/>
			<polygon points="138.4575 487.5844, 87.26659 487.5844, 87.26659 497.8346, 70.86614 477.3341, 87.26659 456.8335, 87.26659 467.0838, 138.4575 467.0838" style="stroke: rgb(56%,93%,56%); stroke-linecap: round; stroke-width: 1; fill: rgb(56%,93%,56%); fill-rule: evenodd;"/>
			<polygon points="180.7533 487.5844, 158.3047 487.5844, 158.3047 497.8346, 141.9043 477.3341, 158.3047 456.8335, 158.3047 467.0838, 180.7533 467.0838" style="stroke: rgb(56%,93%,56%); stroke-linecap: round; stroke-width: 1; fill: rgb(56%,93%,56%); fill-rule: evenodd;"/>
			<polygon points="204.53 487.5844, 196.9785 487.5844, 196.9785 497.8346, 180.578 477.3341, 196.9785 456.8335, 196.9785 467.0838, 204.53 467.0838" style="stroke: rgb(56%,93%,56%); stroke-linecap: round; stroke-width: 1; fill: rgb(56%,93%,56%); fill-rule: evenodd;"/>
			<polygon points="230.3515 487.5844, 220.3463 487.5844, 220.3463 497.8346, 203.9458 477.3341, 220.3463 456.8335, 220.3463 467.0838, 230.3515 467.0838" style="stroke: rgb(56%,93%,56%); stroke-linecap: round; stroke-width: 1; fill: rgb(56%,93%,56%); fill-rule: evenodd;"/>
			<polygon points="246.5337 487.5844, 246.5337 497.8346, 233.7982 477.3341, 246.5337 456.8335, 246.5337 467.0838" style="stroke: rgb(56%,93%,56%); stroke-linecap: round; stroke-width: 1; fill: rgb(56%,93%,56%); fill-rule: evenodd;"/>
			<polygon points="295.1387 487.5844, 263.5767 487.5844, 263.5767 497.8346, 247.1763 477.3341, 263.5767 456.8335, 263.5767 467.0838, 295.1387 467.0838" style="stroke: rgb(56%,93%,56%); stroke-linecap: round; stroke-width: 1; fill: rgb(56%,93%,56%); fill-rule: evenodd;"/>
			<polygon points="379.4381 487.5844, 314.7523 487.5844, 314.7523 497.8346, 298.3518 477.3341, 314.7523 456.8335, 314.7523 467.0838, 379.4381 467.0838" style="stroke: rgb(56%,93%,56%); stroke-linecap: round; stroke-width: 1; fill: rgb(56%,93%,56%); fill-rule: evenodd;"/>
			<polygon points="411.452 487.5844, 401.0963 487.5844, 401.0963 497.8346, 384.6959 477.3341, 401.0963 456.8335, 401.0963 467.0838, 411.452 467.0838" style="stroke: rgb(56%,93%,56%); stroke-linecap: round; stroke-width: 1; fill: rgb(56%,93%,56%); fill-rule: evenodd;"/>
			<polygon points="430.6136 528.5855, 438.691 528.5855, 438.691 538.8358, 455.0914 518.3352, 438.691 497.8346, 438.691 508.0849, 430.6136 508.0849" style="stroke: rgb(67%,84%,90%); stroke-linecap: round; stroke-width: 1; fill: rgb(67%,84%,90%); fill-rule: evenodd;"/>
			<polygon points="520.8134 487.5844, 485.9215 487.5844, 485.9215 497.8346, 469.521 477.3341, 485.9215 456.8335, 485.9215 467.0838, 520.8134 467.0838" style="stroke: rgb(56%,93%,56%); stroke-linecap: round; stroke-width: 1; fill: rgb(56%,93%,56%); fill-rule: evenodd;"/>
			<polygon points="560.2466 487.5844, 540.2517 487.5844, 540.2517 497.8346, 523.8512 477.3341, 540.2517 456.8335, 540.2517 467.0838, 560.2466 467.0838" style="stroke: rgb(56%,93%,56%); stroke-linecap: round; stroke-width: 1; fill: rgb(56%,93%,56%); fill-rule: evenodd;"/>
			<polygon points="678.0788 487.5844, 576.7639 487.5844, 576.7639 497.8346, 560.3634 477.3341, 576.7639 456.8335, 576.7639 467.0838, 678.0788 467.0838" style="stroke: rgb(56%,93%,56%); stroke-linecap: round; stroke-width: 1; fill: rgb(56%,93%,56%); fill-rule: evenodd;"/>
			<polygon points="753.9073 487.5844, 706.3968 487.5844, 706.3968 497.8346, 689.9964 477.3341, 706.3968 456.8335, 706.3968 467.0838, 753.9073 467.0838" style="stroke: rgb(56%,93%,56%); stroke-linecap: round; stroke-width: 1; fill: rgb(56%,93%,56%); fill-rule: evenodd;"/>
			<polygon points="853.1621 487.5844, 775.6824 487.5844, 775.6824 497.8346, 759.2819 477.3341, 775.6824 456.8335, 775.6824 467.0838, 853.1621 467.0838" style="stroke: rgb(56%,93%,56%); stroke-linecap: round; stroke-width: 1; fill: rgb(56%,93%,56%); fill-rule: evenodd;"/>
			<polygon points="882.0214 528.5855, 938.2948 528.5855, 938.2948 538.8358, 954.6953 518.3352, 938.2948 497.8346, 938.2948 508.0849, 882.0214 508.0849" style="stroke: rgb(67%,84%,90%); stroke-linecap: round; stroke-width: 1; fill: rgb(67%,84%,90%); fill-rule: evenodd;"/>
			<polygon points="962.6403 528.5855, 1028.203 528.5855, 1028.203 538.8358, 1044.603 518.3352, 1028.203 497.8346, 1028.203 508.0849, 962.6403 508.0849" style="stroke: rgb(67%,84%,90%); stroke-linecap: round; stroke-width: 1; fill: rgb(67%,84%,90%); fill-rule: evenodd;"/>
			<polygon points="1045.538 528.5855, 1080.955 528.5855, 1080.955 538.8358, 1097.356 518.3352, 1080.955 497.8346, 1080.955 508.0849, 1045.538 508.0849" style="stroke: rgb(67%,84%,90%); stroke-linecap: round; stroke-width: 1; fill: rgb(67%,84%,90%); fill-rule: evenodd;"/>
			<polygon points="1107.696 528.5855, 1112.619 528.5855, 1112.619 538.8358, 1129.019 518.3352, 1112.619 497.8346, 1112.619 508.0849, 1107.696 508.0849" style="stroke: rgb(67%,84%,90%); stroke-linecap: round; stroke-width: 1; fill: rgb(67%,84%,90%); fill-rule: evenodd;"/>
			<polygon points="1131.356 528.5855, 1163.444 528.5855, 1163.444 538.8358, 1179.844 518.3352, 1163.444 497.8346, 1163.444 508.0849, 1131.356 508.0849" style="stroke: rgb(67%,84%,90%); stroke-linecap: round; stroke-width: 1; fill: rgb(67%,84%,90%); fill-rule: evenodd;"/>
			<polygon points="1189.892 528.5855, 1213.918 528.5855, 1213.918 538.8358, 1230.319 518.3352, 1213.918 497.8346, 1213.918 508.0849, 1189.892 508.0849" style="stroke: rgb(67%,84%,90%); stroke-linecap: round; stroke-width: 1; fill: rgb(67%,84%,90%); fill-rule: evenodd;"/>
			<polygon points="1232.714 528.5855, 1271.987 528.5855, 1271.987 538.8358, 1288.388 518.3352, 1271.987 497.8346, 1271.987 508.0849, 1232.714 508.0849" style="stroke: rgb(67%,84%,90%); stroke-linecap: round; stroke-width: 1; fill: rgb(67%,84%,90%); fill-rule: evenodd;"/>
			<polygon points="1293.704 528.5855, 1329.998 528.5855, 1329.998 538.8358, 1346.398 518.3352, 1329.998 497.8346, 1329.998 508.0849, 1293.704 508.0849" style="stroke: rgb(67%,84%,90%); stroke-linecap: round; stroke-width: 1; fill: rgb(67%,84%,90%); fill-rule: evenodd;"/>
			<path d="M 469.637889,169.825647 L 469.637889,251.827897 Z" style="stroke: rgb(0%,0%,0%); stroke-linecap: butt; stroke-width: 1;"/>
			<path d="M 70.866142,210.826772 L 469.637889,210.826772 Z" style="stroke: rgb(0%,0%,0%); stroke-linecap: butt; stroke-width: 1;"/>
			<path d="M 70.866142,169.825647 L 70.866142,251.827897 Z" style="stroke: rgb(0%,0%,0%); stroke-linecap: butt; stroke-width: 1;"/>
			<path d="M 1346.398273,456.833521 L 1346.398273,538.835771 Z" style="stroke: rgb(0%,0%,0%); stroke-linecap: butt; stroke-width: 1;"/>
			<path d="M 70.866142,497.834646 L 1346.398273,497.834646 Z" style="stroke: rgb(0%,0%,0%); stroke-linecap: butt; stroke-width: 1;"/>
			<path d="M 70.866142,456.833521 L 70.866142,538.835771 Z" style="stroke: rgb(0%,0%,0%); stroke-linecap: butt; stroke-width: 1;"/>
			<path d="M 655.061494,497.834646 L 655.061494,518.335208 Z" style="stroke: rgb(0%,0%,0%); stroke-linecap: butt; stroke-width: 1;"/>
			<path d="M 1239.256846,497.834646 L 1239.256846,518.335208 Z" style="stroke: rgb(0%,0%,0%); stroke-linecap: butt; stroke-width: 1;"/>
			<path d="M 655.061494,497.834646 L 655.061494,510.134983 Z" style="stroke: rgb(0%,0%,0%); stroke-linecap: butt; stroke-width: 1;"/>
			<path d="M 1239.256846,497.834646 L 1239.256846,510.134983 Z" style="stroke: rgb(0%,0%,0%); stroke-linecap: butt; stroke-width: 1;"/>
			<g transform=" matrix(0.707107,0.707107,-0.707107,0.707107,655.061494,518.335208)">
				<text style="font-family: Helvetica; font-size: 6px;fill: rgb(0%,0%,0%); stroke:none;" transform="translate(0,0) scale(1,-1)" x="0" y="0">10000</text>
			</g>
			<g transform=" matrix(0.707107,0.707107,-0.707107,0.707107,1239.256846,518.335208)">
				<text style="font-family: Helvetica; font-size: 6px;fill: rgb(0%,0%,0%); stroke:none;" transform="translate(0,0) scale(1,-1)" x="0" y="0">20000</text>
			</g>
			<g transform=" matrix(0.707107,0.707107,-0.707107,0.707107,87.39887,251.827897)">
				<text style="font-family: Helvetica; font-size: 10px;fill: rgb(0%,0%,0%); stroke:none;" transform="translate(0,0) scale(1,-1)" x="0" y="0">Gene_00641</text>
			</g>
			<g transform=" matrix(0.707107,-0.707107,0.707107,0.707107,175.086593,169.825647)">
				<text style="font-family: Helvetica; font-size: 16px;fill: rgb(0%,0%,100%); stroke:none;" transform="translate(0,0) scale(1,-1)" x="0" y="0">Gene_00642 (78.9)</text>
			</g>
			<g transform=" matrix(0.707107,-0.707107,0.707107,0.707107,256.611054,169.825647)">
				<text style="font-family: Helvetica; font-size: 10px;fill: rgb(0%,0%,0%); stroke:none;" transform="translate(0,0) scale(1,-1)" x="0" y="0">Gene_00643</text>
			</g>
			<g transform=" matrix(0.707107,0.707107,-0.707107,0.707107,357.121864,251.827897)">
				<text style="font-family: Helvetica; font-size: 10px;fill: rgb(0%,0%,0%); stroke:none;" transform="translate(0,0) scale(1,-1)" x="0" y="0">Gene_00644</text>
			</g>
			<g transform=" matrix(0.707107,-0.707107,0.707107,0.707107,439.172101,169.825647)">
				<text style="font-family: Helvetica; font-size: 10px;fill: rgb(0%,0%,0%); stroke:none;" transform="translate(0,0) scale(1,-1)" x="0" y="0">Gene_00645</text>
			</g>
			<g transform=" matrix(0.707107,-0.707107,0.707107,0.707107,104.661843,456.833521)">
				<text style="font-family: Helvetica; font-size: 10px;fill: rgb(0%,0%,0%); stroke:none;" transform="translate(0,0) scale(1,-1)" x="0" y="0">Gene_02018</text>
			</g>
			<g transform=" matrix(0.707107,-0.707107,0.707107,0.707107,161.328792,456.833521)">
				<text style="font-family: Helvetica; font-size: 10px;fill: rgb(0%,0%,0%); stroke:none;" transform="translate(0,0) scale(1,-1)" x="0" y="0">Gene_02019</text>
			</g>
			<g transform=" matrix(0.707107,-0.707107,0.707107,0.707107,192.554034,456.833521)">
				<text style="font-family: Helvetica; font-size: 10px;fill: rgb(0%,0%,0%); stroke:none;" transform="translate(0,0) scale(1,-1)" x="0" y="0">Gene_02020</text>
			</g>
			<g transform=" matrix(0.707107,-0.707107,0.707107,0.707107,217.148658,456.833521)">
				<text style="font-family: Helvetica; font-size: 10px;fill: rgb(0%,0%,0%); stroke:none;" transform="translate(0,0) scale(1,-1)" x="0" y="0">Gene_02021</text>
			</g>
			<g transform=" matrix(0.707107,-0.707107,0.707107,0.707107,240.165955,456.833521)">
				<text style="font-family: Helvetica; font-size: 10px;fill: rgb(0%,0%,0%); stroke:none;" transform="translate(0,0) scale(1,-1)" x="0" y="0">Gene_02022</text>
			</g>
			<g transform=" matrix(0.707107,-0.707107,0.707107,0.707107,271.157518,456.833521)">
				<text style="font-family: Helvetica; font-size: 10px;fill: rgb(0%,0%,0%); stroke:none;" transform="translate(0,0) scale(1,-1)" x="0" y="0">Gene_02023</text>
			</g>
			<g transform=" matrix(0.707107,-0.707107,0.707107,0.707107,338.894969,456.833521)">
				<text style="font-family: Helvetica; font-size: 10px;fill: rgb(0%,0%,0%); stroke:none;" transform="translate(0,0) scale(1,-1)" x="0" y="0">Gene_02024</text>
			</g>
			<g transform=" matrix(0.707107,-0.707107,0.707107,0.707107,398.073958,456.833521)">
				<text style="font-family: Helvetica; font-size: 10px;fill: rgb(0%,0%,0%); stroke:none;" transform="translate(0,0) scale(1,-1)" x="0" y="0">Gene_02025</text>
			</g>
			<g transform=" matrix(0.707107,0.707107,-0.707107,0.707107,442.852532,538.835771)">
				<text style="font-family: Helvetica; font-size: 10px;fill: rgb(0%,0%,0%); stroke:none;" transform="translate(0,0) scale(1,-1)" x="0" y="0">Gene_02026</text>
			</g>
			<g transform=" matrix(0.707107,-0.707107,0.707107,0.707107,495.167226,456.833521)">
				<text style="font-family: Helvetica; font-size: 10px;fill: rgb(0%,0%,0%); stroke:none;" transform="translate(0,0) scale(1,-1)" x="0" y="0">Gene_02027</text>
			</g>
			<g transform=" matrix(0.707107,-0.707107,0.707107,0.707107,542.048903,456.833521)">
				<text style="font-family: Helvetica; font-size: 10px;fill: rgb(0%,0%,0%); stroke:none;" transform="translate(0,0) scale(1,-1)" x="0" y="0">Gene_02028</text>
			</g>
			<g transform=" matrix(0.707107,-0.707107,0.707107,0.707107,619.221109,456.833521)">
				<text style="font-family: Helvetica; font-size: 10px;fill: rgb(0%,0%,0%); stroke:none;" transform="translate(0,0) scale(1,-1)" x="0" y="0">Gene_02029</text>
			</g>
			<g transform=" matrix(0.707107,-0.707107,0.707107,0.707107,721.951862,456.833521)">
				<text style="font-family: Helvetica; font-size: 16px;fill: rgb(0%,0%,100%); stroke:none;" transform="translate(0,0) scale(1,-1)" x="0" y="0">Gene_02030 (78.9)</text>
			</g>
			<g transform=" matrix(0.707107,-0.707107,0.707107,0.707107,806.222041,456.833521)">
				<text style="font-family: Helvetica; font-size: 10px;fill: rgb(0%,0%,0%); stroke:none;" transform="translate(0,0) scale(1,-1)" x="0" y="0">Gene_02031</text>
			</g>
			<g transform=" matrix(0.707107,0.707107,-0.707107,0.707107,918.358339,538.835771)">
				<text style="font-family: Helvetica; font-size: 10px;fill: rgb(0%,0%,0%); stroke:none;" transform="translate(0,0) scale(1,-1)" x="0" y="0">Gene_02032</text>
			</g>
			<g transform=" matrix(0.707107,0.707107,-0.707107,0.707107,1003.621651,538.835771)">
				<text style="font-family: Helvetica; font-size: 10px;fill: rgb(0%,0%,0%); stroke:none;" transform="translate(0,0) scale(1,-1)" x="0" y="0">Gene_02033</text>
			</g>
			<g transform=" matrix(0.707107,0.707107,-0.707107,0.707107,1071.446731,538.835771)">
				<text style="font-family: Helvetica; font-size: 10px;fill: rgb(0%,0%,0%); stroke:none;" transform="translate(0,0) scale(1,-1)" x="0" y="0">Gene_02034</text>
			</g>
			<g transform=" matrix(0.707107,0.707107,-0.707107,0.707107,1118.357618,538.835771)">
				<text style="font-family: Helvetica; font-size: 10px;fill: rgb(0%,0%,0%); stroke:none;" transform="translate(0,0) scale(1,-1)" x="0" y="0">Gene_02035</text>
			</g>
			<g transform=" matrix(0.707107,0.707107,-0.707107,0.707107,1155.600071,538.835771)">
				<text style="font-family: Helvetica; font-size: 10px;fill: rgb(0%,0%,0%); stroke:none;" transform="translate(0,0) scale(1,-1)" x="0" y="0">Gene_02036</text>
			</g>
			<g transform=" matrix(0.707107,0.707107,-0.707107,0.707107,1210.105498,538.835771)">
				<text style="font-family: Helvetica; font-size: 10px;fill: rgb(0%,0%,0%); stroke:none;" transform="translate(0,0) scale(1,-1)" x="0" y="0">Gene_02037</text>
			</g>
			<g transform=" matrix(0.707107,0.707107,-0.707107,0.707107,1260.550766,538.835771)">
				<text style="font-family: Helvetica; font-size: 10px;fill: rgb(0%,0%,0%); stroke:none;" transform="translate(0,0) scale(1,-1)" x="0" y="0">Gene_02038</text>
			</g>
			<g transform=" matrix(0.707107,0.707107,-0.707107,0.707107,1320.051063,538.835771)">
				<text style="font-family: Helvetica; font-size: 10px;fill: rgb(0%,0%,0%); stroke:none;" transform="translate(0,0) scale(1,-1)" x="0" y="0">Gene_02039</text>
			</g>
			<g transform=" matrix(1,0,-0,1,70,169.825647)">
				<text style="font-family: Helvetica; font-size: 12px;fill: rgb(60%,60%,60%); stroke:none;" transform="translate(0,0) scale(1,-1)" x="0" y="0">megahit_23074 (left 1237bp, right 4495bp)</text>
			</g>
			<g transform=" matrix(1,0,-0,1,70,456.833521)">
				<text style="font-family: Helvetica; font-size: 12px;fill: rgb(60%,60%,60%); stroke:none;" transform="translate(0,0) scale(1,-1)" x="0" y="0">megahit_90155 (left 13219bp, right 10725bp)</text>
			</g>
		</g>
	</g>
</svg>
