<?xml version="1.0" encoding="utf-8"?>
<!DOCTYPE svg
  PUBLIC '-//W3C//DTD SVG 1.0//EN'
  'http://www.w3.org/TR/2001/REC-SVG-20010904/DTD/svg10.dtd'>
<svg fill-rule="evenodd" height="708.6614173228346" preserveAspectRatio="xMinYMin meet" version="1.0" viewBox="0 0 1417 708" width="1417.3228346456692" xmlns="http://www.w3.org/2000/svg" xmlns:xlink="http://www.w3.org/1999/xlink">
	<title>...</title>
	<desc>...</desc>
	<clipPath id="clip">
		<rect height="708.6614173228346" width="1417.3228346456692" x="0" y="0"/>
	</clipPath>
	<g id="group" style="clip-path: url(#clip)" transform="scale(1,-1) translate(0,-708)">
		<g transform="">
			<polygon points="70.86614 169.8256, 199.4893 169.8256, 199.4893 251.8279, 70.86614 251.8279" style="stroke: rgb(96%,96%,96%); stroke-linecap: butt; stroke-width: 1; fill: rgb(96%,96%,96%); fill-rule: evenodd;"/>
			<polygon points="70.86614 456.8335, 1346.372 456.8335, 1346.372 538.8358, 70.86614 538.8358" style="stroke: rgb(96%,96%,96%); stroke-linecap: butt; stroke-width: 1; fill: rgb(96%,96%,96%); fill-rule: evenodd;"/>
			<polygon points="920.8342 456.8335, 997.7016 456.8335, 83.03894 251.8279, 159.9064 251.8279" style="stroke: rgb(100%,42%,42%); stroke-linecap: round; stroke-width: 1; fill: rgb(100%,42%,42%); fill-rule: evenodd;"/>
			<polygon points="158.6295 200.5765, 99.01377 200.5765, 99.01377 210.8268, 82.61332 190.3262, 99.01377 169.8256, 99.01377 180.0759, 158.6295 180.0759" style="stroke: rgb(56%,93%,56%); stroke-linecap: round; stroke-width: 1; fill: rgb(56%,93%,56%); fill-rule: evenodd;"/>
			<polygon points="191.828 200.5765, 176.9027 200.5765, 176.9027 210.8268, 160.5022 190.3262, 176.9027 169.8256, 176.9027 180.0759, 191.828 180.0759" style="stroke: rgb(56%,93%,56%); stroke-linecap: round; stroke-width: 1; fill: rgb(56%,93%,56%); fill-rule: evenodd;"/>
			<polygon points="82.5282 528.5855, 334.6955 528.5855, 334.6955 538.8358, 351.096 518.3352, 334.6955 497.8346, 334.6955 508.0849, 82.5282 508.0849" style="stroke: rgb(67%,84%,90%); stroke-linecap: round; stroke-width: 1; fill: rgb(67%,84%,90%); fill-rule: evenodd;"/>
			<polygon points="347.4356 528.5855, 545.7191 528.5855, 545.7191 538.8358, 562.1196 518.3352, 545.7191 497.8346, 545.7191 508.0849, 347.4356 508.0849" style="stroke: rgb(67%,84%,90%); stroke-linecap: round; stroke-width: 1; fill: rgb(67%,84%,90%); fill-rule: evenodd;"/>
			<polygon points="569.4403 528.5855, 627.7792 528.5855, 627.7792 538.8358, 644.1796 518.3352, 627.7792 497.8346, 627.7792 508.0849, 569.4403 508.0849" style="stroke: rgb(67%,84%,90%); stroke-linecap: round; stroke-width: 1; fill: rgb(67%,84%,90%); fill-rule: evenodd;"/>
			<polygon points="653.9689 528.5855, 723.5442 528.5855, 723.5442 538.8358, 739.9447 518.3352, 723.5442 497.8346, 723.5442 508.0849, 653.9689 508.0849" style="stroke: rgb(67%,84%,90%); stroke-linecap: round; stroke-width: 1; fill: rgb(67%,84%,90%); fill-rule: evenodd;"/>
			<polygon points="747.4356 528.5855, 796.581 528.5855, 796.581 538.8358, 812.9815 518.3352, 796.581 497.8346, 796.581 508.0849, 747.4356 508.0849" style="stroke: rgb(67%,84%,90%); stroke-linecap: round; stroke-width: 1; fill: rgb(67%,84%,90%); fill-rule: evenodd;"/>
			<polygon points="847.3718 487.5844, 839.3415 487.5844, 839.3415 497.8346, 822.9411 477.3341, 839.3415 456.8335, 839.3415 467.0838, 847.3718 467.0838" style="stroke: rgb(56%,93%,56%); stroke-linecap: round; stroke-width: 1; fill: rgb(56%,93%,56%); fill-rule: evenodd;"/>
			<polygon points="877.4207 487.5844, 863.5169 487.5844, 863.5169 497.8346, 847.1164 477.3341, 863.5169 456.8335, 863.5169 467.0838, 877.4207 467.0838" style="stroke: rgb(56%,93%,56%); stroke-linecap: round; stroke-width: 1; fill: rgb(56%,93%,56%); fill-rule: evenodd;"/>
			<polygon points="892.0621 528.5855, 898.0494 528.5855, 898.0494 538.8358, 914.4499 518.3352, 898.0494 497.8346, 898.0494 508.0849, 892.0621 508.0849" style="stroke: rgb(67%,84%,90%); stroke-linecap: round; stroke-width: 1; fill: rgb(67%,84%,90%); fill-rule: evenodd;"/>
			<polygon points="922.1111 528.5855, 981.9822 528.5855, 981.9822 538.8358, 998.3826 518.3352, 981.9822 497.8346, 981.9822 508.0849, 922.1111 508.0849" style="stroke: rgb(67%,84%,90%); stroke-linecap: round; stroke-width: 1; fill: rgb(67%,84%,90%); fill-rule: evenodd;"/>
			<polygon points="1056.778 487.5844, 1027.552 487.5844, 1027.552 497.8346, 1011.151 477.3341, 1027.552 456.8335, 1027.552 467.0838, 1056.778 467.0838" style="stroke: rgb(56%,93%,56%); stroke-linecap: round; stroke-width: 1; fill: rgb(56%,93%,56%); fill-rule: evenodd;"/>
			<polygon points="1112.449 487.5844, 1082.712 487.5844, 1082.712 497.8346, 1066.312 477.3341, 1082.712 456.8335, 1082.712 467.0838, 1112.449 467.0838" style="stroke: rgb(56%,93%,56%); stroke-linecap: round; stroke-width: 1; fill: rgb(56%,93%,56%); fill-rule: evenodd;"/>
			<polygon points="1150.5 487.5844, 1131.744 487.5844, 1131.744 497.8346, 1115.344 477.3341, 1131.744 456.8335, 1131.744 467.0838, 1150.5 467.0838" style="stroke: rgb(56%,93%,56%); stroke-linecap: round; stroke-width: 1; fill: rgb(56%,93%,56%); fill-rule: evenodd;"/>
			<polygon points="1171.356 487.5844, 1167.156 487.5844, 1167.156 497.8346, 1150.755 477.3341, 1167.156 456.8335, 1167.156 467.0838, 1171.356 467.0838" style="stroke: rgb(56%,93%,56%); stroke-linecap: round; stroke-width: 1; fill: rgb(56%,93%,56%); fill-rule: evenodd;"/>
			<polygon points="1184.805 528.5855, 1259.743 528.5855, 1259.743 538.8358, 1276.144 518.3352, 1259.743 497.8346, 1259.743 508.0849, 1184.805 508.0849" style="stroke: rgb(67%,84%,90%); stroke-linecap: round; stroke-width: 1; fill: rgb(67%,84%,90%); fill-rule: evenodd;"/>
			<polygon points="1315.216 528.5855, 1319.16 528.5855, 1319.16 538.8358, 1335.561 518.3352, 1319.16 497.8346, 1319.16 508.0849, 1315.216 508.0849" style="stroke: rgb(67%,84%,90%); stroke-linecap: round; stroke-width: 1; fill: rgb(67%,84%,90%); fill-rule: evenodd;"/>
			<path d="M 199.489253,169.825647 L 199.489253,251.827897 Z" style="stroke: rgb(0%,0%,0%); stroke-linecap: butt; stroke-width: 1;"/>
			<path d="M 70.866142,210.826772 L 199.489253,210.826772 Z" style="stroke: rgb(0%,0%,0%); stroke-linecap: butt; stroke-width: 1;"/>
			<path d="M 70.866142,169.825647 L 70.866142,251.827897 Z" style="stroke: rgb(0%,0%,0%); stroke-linecap: butt; stroke-width: 1;"/>
			<path d="M 1346.371568,456.833521 L 1346.371568,538.835771 Z" style="stroke: rgb(0%,0%,0%); stroke-linecap: butt; stroke-width: 1;"/>
			<path d="M 70.866142,497.834646 L 1346.371568,497.834646 Z" style="stroke: rgb(0%,0%,0%); stroke-linecap: butt; stroke-width: 1;"/>
			<path d="M 70.866142,456.833521 L 70.866142,538.835771 Z" style="stroke: rgb(0%,0%,0%); stroke-linecap: butt; stroke-width: 1;"/>
			<path d="M 922.111087,497.834646 L 922.111087,518.335208 Z" style="stroke: rgb(0%,0%,0%); stroke-linecap: butt; stroke-width: 1;"/>
			<path d="M 922.111087,497.834646 L 922.111087,510.134983 Z" style="stroke: rgb(0%,0%,0%); stroke-linecap: butt; stroke-width: 1;"/>
			<g transform=" matrix(0.707107,0.707107,-0.707107,0.707107,922.111087,518.335208)">
				<text style="font-family: Helvetica; font-size: 6px;fill: rgb(0%,0%,0%); stroke:none;" transform="translate(0,0) scale(1,-1)" x="0" y="0">10000</text>
			</g>
			<g transform=" matrix(0.707107,-0.707107,0.707107,0.707107,120.621409,169.825647)">
				<text style="font-family: Helvetica; font-size: 16px;fill: rgb(0%,0%,100%); stroke:none;" transform="translate(0,0) scale(1,-1)" x="0" y="0">Gene_01262 (79.5)</text>
			</g>
			<g transform=" matrix(0.707107,-0.707107,0.707107,0.707107,176.165142,169.825647)">
				<text style="font-family: Helvetica; font-size: 10px;fill: rgb(0%,0%,0%); stroke:none;" transform="translate(0,0) scale(1,-1)" x="0" y="0">Gene_01263</text>
			</g>
			<g transform=" matrix(0.707107,0.707107,-0.707107,0.707107,216.812088,538.835771)">
				<text style="font-family: Helvetica; font-size: 10px;fill: rgb(0%,0%,0%); stroke:none;" transform="translate(0,0) scale(1,-1)" x="0" y="0">Gene_01178</text>
			</g>
			<g transform=" matrix(0.707107,0.707107,-0.707107,0.707107,454.777612,538.835771)">
				<text style="font-family: Helvetica; font-size: 10px;fill: rgb(0%,0%,0%); stroke:none;" transform="translate(0,0) scale(1,-1)" x="0" y="0">Gene_01179</text>
			</g>
			<g transform=" matrix(0.707107,0.707107,-0.707107,0.707107,606.80996,538.835771)">
				<text style="font-family: Helvetica; font-size: 10px;fill: rgb(0%,0%,0%); stroke:none;" transform="translate(0,0) scale(1,-1)" x="0" y="0">Gene_01180</text>
			</g>
			<g transform=" matrix(0.707107,0.707107,-0.707107,0.707107,696.956799,538.835771)">
				<text style="font-family: Helvetica; font-size: 10px;fill: rgb(0%,0%,0%); stroke:none;" transform="translate(0,0) scale(1,-1)" x="0" y="0">Gene_01181</text>
			</g>
			<g transform=" matrix(0.707107,0.707107,-0.707107,0.707107,780.208555,538.835771)">
				<text style="font-family: Helvetica; font-size: 10px;fill: rgb(0%,0%,0%); stroke:none;" transform="translate(0,0) scale(1,-1)" x="0" y="0">Gene_01182</text>
			</g>
			<g transform=" matrix(0.707107,-0.707107,0.707107,0.707107,835.156416,456.833521)">
				<text style="font-family: Helvetica; font-size: 10px;fill: rgb(0%,0%,0%); stroke:none;" transform="translate(0,0) scale(1,-1)" x="0" y="0">Gene_01183</text>
			</g>
			<g transform=" matrix(0.707107,-0.707107,0.707107,0.707107,862.268568,456.833521)">
				<text style="font-family: Helvetica; font-size: 10px;fill: rgb(0%,0%,0%); stroke:none;" transform="translate(0,0) scale(1,-1)" x="0" y="0">Gene_01184</text>
			</g>
			<g transform=" matrix(0.707107,0.707107,-0.707107,0.707107,903.256012,538.835771)">
				<text style="font-family: Helvetica; font-size: 10px;fill: rgb(0%,0%,0%); stroke:none;" transform="translate(0,0) scale(1,-1)" x="0" y="0">Gene_01185</text>
			</g>
			<g transform=" matrix(0.707107,0.707107,-0.707107,0.707107,960.246861,538.835771)">
				<text style="font-family: Helvetica; font-size: 16px;fill: rgb(0%,0%,100%); stroke:none;" transform="translate(0,0) scale(1,-1)" x="0" y="0">Gene_01186 (79.5)</text>
			</g>
			<g transform=" matrix(0.707107,-0.707107,0.707107,0.707107,1033.964673,456.833521)">
				<text style="font-family: Helvetica; font-size: 10px;fill: rgb(0%,0%,0%); stroke:none;" transform="translate(0,0) scale(1,-1)" x="0" y="0">Gene_01187</text>
			</g>
			<g transform=" matrix(0.707107,-0.707107,0.707107,0.707107,1089.380719,456.833521)">
				<text style="font-family: Helvetica; font-size: 10px;fill: rgb(0%,0%,0%); stroke:none;" transform="translate(0,0) scale(1,-1)" x="0" y="0">Gene_01188</text>
			</g>
			<g transform=" matrix(0.707107,-0.707107,0.707107,0.707107,1132.921898,456.833521)">
				<text style="font-family: Helvetica; font-size: 10px;fill: rgb(0%,0%,0%); stroke:none;" transform="translate(0,0) scale(1,-1)" x="0" y="0">Gene_01189</text>
			</g>
			<g transform=" matrix(0.707107,-0.707107,0.707107,0.707107,1161.055544,456.833521)">
				<text style="font-family: Helvetica; font-size: 10px;fill: rgb(0%,0%,0%); stroke:none;" transform="translate(0,0) scale(1,-1)" x="0" y="0">Gene_01190</text>
			</g>
			<g transform=" matrix(0.707107,0.707107,-0.707107,0.707107,1230.474569,538.835771)">
				<text style="font-family: Helvetica; font-size: 10px;fill: rgb(0%,0%,0%); stroke:none;" transform="translate(0,0) scale(1,-1)" x="0" y="0">Gene_01191</text>
			</g>
			<g transform=" matrix(0.707107,0.707107,-0.707107,0.707107,1325.388381,538.835771)">
				<text style="font-family: Helvetica; font-size: 10px;fill: rgb(0%,0%,0%); stroke:none;" transform="translate(0,0) scale(1,-1)" x="0" y="0">Gene_01192</text>
			</g>
			<g transform=" matrix(1,0,-0,1,70,456.833521)">
				<text style="font-family: Helvetica; font-size: 12px;fill: rgb(60%,60%,60%); stroke:none;" transform="translate(0,0) scale(1,-1)" x="0" y="0">megahit_91253 (left 11413bp, right 4088bp)</text>
			</g>
		</g>
	</g>
</svg>
