<?xml version="1.0" encoding="utf-8"?>
<!DOCTYPE svg
  PUBLIC '-//W3C//DTD SVG 1.0//EN'
  'http://www.w3.org/TR/2001/REC-SVG-20010904/DTD/svg10.dtd'>
<svg fill-rule="evenodd" height="708.6614173228346" preserveAspectRatio="xMinYMin meet" version="1.0" viewBox="0 0 1417 708" width="1417.3228346456692" xmlns="http://www.w3.org/2000/svg" xmlns:xlink="http://www.w3.org/1999/xlink">
	<title>...</title>
	<desc>...</desc>
	<clipPath id="clip">
		<rect height="708.6614173228346" width="1417.3228346456692" x="0" y="0"/>
	</clipPath>
	<g id="group" style="clip-path: url(#clip)" transform="scale(1,-1) translate(0,-708)">
		<g transform="">
			<polygon points="70.86614 169.8256, 634.1795 169.8256, 634.1795 251.8279, 70.86614 251.8279" style="stroke: rgb(96%,96%,96%); stroke-linecap: butt; stroke-width: 1; fill: rgb(96%,96%,96%); fill-rule: evenodd;"/>
			<polygon points="70.86614 456.8335, 1346.37 456.8335, 1346.37 538.8358, 70.86614 538.8358" style="stroke: rgb(96%,96%,96%); stroke-linecap: butt; stroke-width: 1; fill: rgb(96%,96%,96%); fill-rule: evenodd;"/>
			<polygon points="330.6829 456.8335, 366.2706 456.8335, 536.0303 251.8279, 500.4426 251.8279" style="stroke: rgb(100%,48%,48%); stroke-linecap: round; stroke-width: 1; fill: rgb(100%,48%,48%); fill-rule: evenodd;"/>
			<polygon points="382.5418 456.8335, 433.5306 456.8335, 602.3332 251.8279, 551.3444 251.8279" style="stroke: rgb(100%,59%,59%); stroke-linecap: round; stroke-width: 1; fill: rgb(100%,59%,59%); fill-rule: evenodd;"/>
			<polygon points="72.51936 241.5776, 371.8841 241.5776, 371.8841 251.8279, 388.2846 231.3273, 371.8841 210.8268, 371.8841 221.0771, 72.51936 221.0771" style="stroke: rgb(67%,84%,90%); stroke-linecap: round; stroke-width: 1; fill: rgb(67%,84%,90%); fill-rule: evenodd;"/>
			<polygon points="415.2582 241.5776, 480.4747 241.5776, 480.4747 251.8279, 496.8751 231.3273, 480.4747 210.8268, 480.4747 221.0771, 415.2582 221.0771" style="stroke: rgb(67%,84%,90%); stroke-linecap: round; stroke-width: 1; fill: rgb(67%,84%,90%); fill-rule: evenodd;"/>
			<polygon points="498.6153 241.5776, 523.3714 241.5776, 523.3714 251.8279, 539.7718 231.3273, 523.3714 210.8268, 523.3714 221.0771, 498.6153 221.0771" style="stroke: rgb(67%,84%,90%); stroke-linecap: round; stroke-width: 1; fill: rgb(67%,84%,90%); fill-rule: evenodd;"/>
			<polygon points="551.3444 241.5776, 590.1963 241.5776, 590.1963 251.8279, 606.5968 231.3273, 590.1963 210.8268, 590.1963 221.0771, 551.3444 221.0771" style="stroke: rgb(67%,84%,90%); stroke-linecap: round; stroke-width: 1; fill: rgb(67%,84%,90%); fill-rule: evenodd;"/>
			<polygon points="75.73879 528.5855, 108.3259 528.5855, 108.3259 538.8358, 124.7263 518.3352, 108.3259 497.8346, 108.3259 508.0849, 75.73879 508.0849" style="stroke: rgb(67%,84%,90%); stroke-linecap: round; stroke-width: 1; fill: rgb(67%,84%,90%); fill-rule: evenodd;"/>
			<polygon points="205.2121 487.5844, 142.867 487.5844, 142.867 497.8346, 126.4666 477.3341, 142.867 456.8335, 142.867 467.0838, 205.2121 467.0838" style="stroke: rgb(56%,93%,56%); stroke-linecap: round; stroke-width: 1; fill: rgb(56%,93%,56%); fill-rule: evenodd;"/>
			<polygon points="225.3988 528.5855, 310.976 528.5855, 310.976 538.8358, 327.3764 518.3352, 310.976 497.8346, 310.976 508.0849, 225.3988 508.0849" style="stroke: rgb(67%,84%,90%); stroke-linecap: round; stroke-width: 1; fill: rgb(67%,84%,90%); fill-rule: evenodd;"/>
			<polygon points="328.8556 528.5855, 353.0896 528.5855, 353.0896 538.8358, 369.4901 518.3352, 353.0896 497.8346, 353.0896 508.0849, 328.8556 508.0849" style="stroke: rgb(67%,84%,90%); stroke-linecap: round; stroke-width: 1; fill: rgb(67%,84%,90%); fill-rule: evenodd;"/>
			<polygon points="382.5418 528.5855, 420.6106 528.5855, 420.6106 538.8358, 437.0111 518.3352, 420.6106 497.8346, 420.6106 508.0849, 382.5418 508.0849" style="stroke: rgb(67%,84%,90%); stroke-linecap: round; stroke-width: 1; fill: rgb(67%,84%,90%); fill-rule: evenodd;"/>
			<polygon points="558.8274 487.5844, 458.1102 487.5844, 458.1102 497.8346, 441.7097 477.3341, 458.1102 456.8335, 458.1102 467.0838, 558.8274 467.0838" style="stroke: rgb(56%,93%,56%); stroke-linecap: round; stroke-width: 1; fill: rgb(56%,93%,56%); fill-rule: evenodd;"/>
			<polygon points="583.7127 528.5855, 699.831 528.5855, 699.831 538.8358, 716.2314 518.3352, 699.831 497.8346, 699.831 508.0849, 583.7127 508.0849" style="stroke: rgb(67%,84%,90%); stroke-linecap: round; stroke-width: 1; fill: rgb(67%,84%,90%); fill-rule: evenodd;"/>
			<polygon points="715.9704 528.5855, 742.5537 528.5855, 742.5537 538.8358, 758.9541 518.3352, 742.5537 497.8346, 742.5537 508.0849, 715.9704 508.0849" style="stroke: rgb(67%,84%,90%); stroke-linecap: round; stroke-width: 1; fill: rgb(67%,84%,90%); fill-rule: evenodd;"/>
			<polygon points="833.4361 487.5844, 789.8855 487.5844, 789.8855 497.8346, 773.4851 477.3341, 789.8855 456.8335, 789.8855 467.0838, 833.4361 467.0838" style="stroke: rgb(56%,93%,56%); stroke-linecap: round; stroke-width: 1; fill: rgb(56%,93%,56%); fill-rule: evenodd;"/>
			<polygon points="872.8524 487.5844, 851.4898 487.5844, 851.4898 497.8346, 835.0893 477.3341, 851.4898 456.8335, 851.4898 467.0838, 872.8524 467.0838" style="stroke: rgb(56%,93%,56%); stroke-linecap: round; stroke-width: 1; fill: rgb(56%,93%,56%); fill-rule: evenodd;"/>
			<polygon points="908.5271 487.5844, 890.558 487.5844, 890.558 497.8346, 874.1575 477.3341, 890.558 456.8335, 890.558 467.0838, 908.5271 467.0838" style="stroke: rgb(56%,93%,56%); stroke-linecap: round; stroke-width: 1; fill: rgb(56%,93%,56%); fill-rule: evenodd;"/>
			<polygon points="996.3219 487.5844, 935.282 487.5844, 935.282 497.8346, 918.8815 477.3341, 935.282 456.8335, 935.282 467.0838, 996.3219 467.0838" style="stroke: rgb(56%,93%,56%); stroke-linecap: round; stroke-width: 1; fill: rgb(56%,93%,56%); fill-rule: evenodd;"/>
			<polygon points="1017.292 528.5855, 1091.122 528.5855, 1091.122 538.8358, 1107.523 518.3352, 1091.122 497.8346, 1091.122 508.0849, 1017.292 508.0849" style="stroke: rgb(67%,84%,90%); stroke-linecap: round; stroke-width: 1; fill: rgb(67%,84%,90%); fill-rule: evenodd;"/>
			<polygon points="1111.525 528.5855, 1111.525 538.8358, 1123.707 518.3352, 1111.525 497.8346, 1111.525 508.0849" style="stroke: rgb(67%,84%,90%); stroke-linecap: round; stroke-width: 1; fill: rgb(67%,84%,90%); fill-rule: evenodd;"/>
			<polygon points="1137.542 528.5855, 1181.875 528.5855, 1181.875 538.8358, 1198.276 518.3352, 1181.875 497.8346, 1181.875 508.0849, 1137.542 508.0849" style="stroke: rgb(67%,84%,90%); stroke-linecap: round; stroke-width: 1; fill: rgb(67%,84%,90%); fill-rule: evenodd;"/>
			<polygon points="1211.241 528.5855, 1329.969 528.5855, 1329.969 538.8358, 1346.37 518.3352, 1329.969 497.8346, 1329.969 508.0849, 1211.241 508.0849" style="stroke: rgb(67%,84%,90%); stroke-linecap: round; stroke-width: 1; fill: rgb(67%,84%,90%); fill-rule: evenodd;"/>
			<path d="M 634.179459,169.825647 L 634.179459,251.827897 Z" style="stroke: rgb(0%,0%,0%); stroke-linecap: butt; stroke-width: 1;"/>
			<path d="M 70.866142,210.826772 L 634.179459,210.826772 Z" style="stroke: rgb(0%,0%,0%); stroke-linecap: butt; stroke-width: 1;"/>
			<path d="M 70.866142,169.825647 L 70.866142,251.827897 Z" style="stroke: rgb(0%,0%,0%); stroke-linecap: butt; stroke-width: 1;"/>
			<path d="M 1346.369681,456.833521 L 1346.369681,538.835771 Z" style="stroke: rgb(0%,0%,0%); stroke-linecap: butt; stroke-width: 1;"/>
			<path d="M 70.866142,497.834646 L 1346.369681,497.834646 Z" style="stroke: rgb(0%,0%,0%); stroke-linecap: butt; stroke-width: 1;"/>
			<path d="M 70.866142,456.833521 L 70.866142,538.835771 Z" style="stroke: rgb(0%,0%,0%); stroke-linecap: butt; stroke-width: 1;"/>
			<path d="M 940.98248,497.834646 L 940.98248,518.335208 Z" style="stroke: rgb(0%,0%,0%); stroke-linecap: butt; stroke-width: 1;"/>
			<path d="M 940.98248,497.834646 L 940.98248,510.134983 Z" style="stroke: rgb(0%,0%,0%); stroke-linecap: butt; stroke-width: 1;"/>
			<g transform=" matrix(0.707107,0.707107,-0.707107,0.707107,940.98248,518.335208)">
				<text style="font-family: Helvetica; font-size: 6px;fill: rgb(0%,0%,0%); stroke:none;" transform="translate(0,0) scale(1,-1)" x="0" y="0">10000</text>
			</g>
			<g transform=" matrix(0.707107,0.707107,-0.707107,0.707107,230.401972,251.827897)">
				<text style="font-family: Helvetica; font-size: 10px;fill: rgb(0%,0%,0%); stroke:none;" transform="translate(0,0) scale(1,-1)" x="0" y="0">Gene_01841</text>
			</g>
			<g transform=" matrix(0.707107,0.707107,-0.707107,0.707107,456.066644,251.827897)">
				<text style="font-family: Helvetica; font-size: 10px;fill: rgb(0%,0%,0%); stroke:none;" transform="translate(0,0) scale(1,-1)" x="0" y="0">Gene_01842</text>
			</g>
			<g transform=" matrix(0.707107,0.707107,-0.707107,0.707107,519.193585,251.827897)">
				<text style="font-family: Helvetica; font-size: 16px;fill: rgb(0%,0%,100%); stroke:none;" transform="translate(0,0) scale(1,-1)" x="0" y="0">Gene_01843 (75.6)</text>
			</g>
			<g transform=" matrix(0.707107,0.707107,-0.707107,0.707107,578.970577,251.827897)">
				<text style="font-family: Helvetica; font-size: 10px;fill: rgb(0%,0%,0%); stroke:none;" transform="translate(0,0) scale(1,-1)" x="0" y="0">Gene_01844</text>
			</g>
			<g transform=" matrix(0.707107,0.707107,-0.707107,0.707107,100.232568,538.835771)">
				<text style="font-family: Helvetica; font-size: 10px;fill: rgb(0%,0%,0%); stroke:none;" transform="translate(0,0) scale(1,-1)" x="0" y="0">Gene_01204</text>
			</g>
			<g transform=" matrix(0.707107,-0.707107,0.707107,0.707107,165.83934,456.833521)">
				<text style="font-family: Helvetica; font-size: 10px;fill: rgb(0%,0%,0%); stroke:none;" transform="translate(0,0) scale(1,-1)" x="0" y="0">Gene_01205</text>
			</g>
			<g transform=" matrix(0.707107,0.707107,-0.707107,0.707107,276.387621,538.835771)">
				<text style="font-family: Helvetica; font-size: 10px;fill: rgb(0%,0%,0%); stroke:none;" transform="translate(0,0) scale(1,-1)" x="0" y="0">Gene_01206</text>
			</g>
			<g transform=" matrix(0.707107,0.707107,-0.707107,0.707107,349.172852,538.835771)">
				<text style="font-family: Helvetica; font-size: 16px;fill: rgb(0%,0%,100%); stroke:none;" transform="translate(0,0) scale(1,-1)" x="0" y="0">Gene_01207 (75.6)</text>
			</g>
			<g transform=" matrix(0.707107,0.707107,-0.707107,0.707107,409.776455,538.835771)">
				<text style="font-family: Helvetica; font-size: 10px;fill: rgb(0%,0%,0%); stroke:none;" transform="translate(0,0) scale(1,-1)" x="0" y="0">Gene_01208</text>
			</g>
			<g transform=" matrix(0.707107,-0.707107,0.707107,0.707107,500.268554,456.833521)">
				<text style="font-family: Helvetica; font-size: 10px;fill: rgb(0%,0%,0%); stroke:none;" transform="translate(0,0) scale(1,-1)" x="0" y="0">Gene_01209</text>
			</g>
			<g transform=" matrix(0.707107,0.707107,-0.707107,0.707107,649.97207,538.835771)">
				<text style="font-family: Helvetica; font-size: 10px;fill: rgb(0%,0%,0%); stroke:none;" transform="translate(0,0) scale(1,-1)" x="0" y="0">Gene_01210</text>
			</g>
			<g transform=" matrix(0.707107,0.707107,-0.707107,0.707107,737.462268,538.835771)">
				<text style="font-family: Helvetica; font-size: 10px;fill: rgb(0%,0%,0%); stroke:none;" transform="translate(0,0) scale(1,-1)" x="0" y="0">Gene_01211</text>
			</g>
			<g transform=" matrix(0.707107,-0.707107,0.707107,0.707107,803.460592,456.833521)">
				<text style="font-family: Helvetica; font-size: 10px;fill: rgb(0%,0%,0%); stroke:none;" transform="translate(0,0) scale(1,-1)" x="0" y="0">Gene_01212</text>
			</g>
			<g transform=" matrix(0.707107,-0.707107,0.707107,0.707107,853.970846,456.833521)">
				<text style="font-family: Helvetica; font-size: 10px;fill: rgb(0%,0%,0%); stroke:none;" transform="translate(0,0) scale(1,-1)" x="0" y="0">Gene_01213</text>
			</g>
			<g transform=" matrix(0.707107,-0.707107,0.707107,0.707107,891.342342,456.833521)">
				<text style="font-family: Helvetica; font-size: 10px;fill: rgb(0%,0%,0%); stroke:none;" transform="translate(0,0) scale(1,-1)" x="0" y="0">Gene_01214</text>
			</g>
			<g transform=" matrix(0.707107,-0.707107,0.707107,0.707107,957.601702,456.833521)">
				<text style="font-family: Helvetica; font-size: 10px;fill: rgb(0%,0%,0%); stroke:none;" transform="translate(0,0) scale(1,-1)" x="0" y="0">Gene_01215</text>
			</g>
			<g transform=" matrix(0.707107,0.707107,-0.707107,0.707107,1062.407214,538.835771)">
				<text style="font-family: Helvetica; font-size: 10px;fill: rgb(0%,0%,0%); stroke:none;" transform="translate(0,0) scale(1,-1)" x="0" y="0">Gene_01216</text>
			</g>
			<g transform=" matrix(0.707107,0.707107,-0.707107,0.707107,1117.616096,538.835771)">
				<text style="font-family: Helvetica; font-size: 10px;fill: rgb(0%,0%,0%); stroke:none;" transform="translate(0,0) scale(1,-1)" x="0" y="0">Gene_01217</text>
			</g>
			<g transform=" matrix(0.707107,0.707107,-0.707107,0.707107,1167.90882,538.835771)">
				<text style="font-family: Helvetica; font-size: 10px;fill: rgb(0%,0%,0%); stroke:none;" transform="translate(0,0) scale(1,-1)" x="0" y="0">Gene_01218</text>
			</g>
			<g transform=" matrix(0.707107,0.707107,-0.707107,0.707107,1278.805148,538.835771)">
				<text style="font-family: Helvetica; font-size: 10px;fill: rgb(0%,0%,0%); stroke:none;" transform="translate(0,0) scale(1,-1)" x="0" y="0">Gene_01219</text>
			</g>
			<g transform=" matrix(1,0,-0,1,70,169.825647)">
				<text style="font-family: Helvetica; font-size: 12px;fill: rgb(60%,60%,60%); stroke:none;" transform="translate(0,0) scale(1,-1)" x="0" y="0">megahit_34404 (left 4916bp, right 1085bp)</text>
			</g>
			<g transform=" matrix(1,0,-0,1,70,456.833521)">
				<text style="font-family: Helvetica; font-size: 12px;fill: rgb(60%,60%,60%); stroke:none;" transform="translate(0,0) scale(1,-1)" x="0" y="0">megahit_39260 (left 2965bp, right 17148bp)</text>
			</g>
		</g>
	</g>
</svg>
